<svg width="248" height="188" viewBox="0 0 248 188" fill="none" xmlns="http://www.w3.org/2000/svg">
<g filter="url(#filter0_d_649_393)">
<mask id="mask0_649_393" style="mask-type:luminance" maskUnits="userSpaceOnUse" x="183" y="55" width="4" height="12">
<path d="M186.878 55.0427L186.716 64.37C186.697 65.3097 185.58 66.2269 183.363 66.9006L183.525 57.5733C185.753 56.8995 186.871 55.9961 186.878 55.0427Z" fill="white"/>
</mask>
<g mask="url(#mask0_649_393)">
<path d="M186.88 55.0405L186.718 64.3679C186.718 64.3679 186.718 64.4231 186.718 64.4508L186.88 55.1234C186.88 55.1234 186.88 55.0682 186.88 55.0405Z" fill="#7235EE" fill-opacity="0.78"/>
<path d="M186.867 55.1219L186.705 64.4492C186.705 64.5321 186.683 64.6151 186.66 64.6981L186.822 55.3708C186.845 55.2878 186.867 55.2048 186.867 55.1219Z" fill="#7235EE" fill-opacity="0.78"/>
<path d="M186.823 55.3726L186.661 64.6999C186.639 64.7829 186.604 64.8522 186.571 64.9353L186.733 55.6079C186.766 55.5249 186.8 55.4556 186.823 55.3726Z" fill="#7235EE" fill-opacity="0.78"/>
<path d="M186.732 55.6082L186.57 64.9356C186.536 65.0048 186.491 65.0879 186.434 65.1573L186.596 55.83C186.641 55.7607 186.687 55.6775 186.732 55.6082Z" fill="#7235EE" fill-opacity="0.78"/>
<path d="M186.606 55.8302L186.444 65.1576C186.399 65.2269 186.342 65.2962 186.274 65.3656L186.436 56.0383C186.492 55.969 186.549 55.8996 186.606 55.8302Z" fill="#7235EE" fill-opacity="0.78"/>
<path d="M186.437 56.0366L186.275 65.3639C186.219 65.4333 186.15 65.5027 186.07 65.5722L186.232 56.2449C186.312 56.1754 186.381 56.106 186.437 56.0366Z" fill="#7235EE" fill-opacity="0.78"/>
<path d="M186.232 56.2459L186.07 65.5733C185.99 65.6427 185.91 65.7122 185.83 65.7678L185.992 56.4405C186.083 56.371 186.163 56.3153 186.232 56.2459Z" fill="#7235EE" fill-opacity="0.78"/>
<path d="M185.992 56.4401L185.83 65.7674C185.739 65.8369 185.648 65.8926 185.545 65.9622L185.707 56.6348C185.81 56.5653 185.901 56.5096 185.992 56.4401Z" fill="#7235EE" fill-opacity="0.78"/>
<path d="M185.708 56.6356L185.546 65.963C185.443 66.0325 185.329 66.1022 185.215 66.158L185.377 56.8306C185.491 56.761 185.605 56.7052 185.708 56.6356Z" fill="#7235EE" fill-opacity="0.78"/>
<path d="M185.364 56.8297L185.202 66.157C185.077 66.2267 184.94 66.2964 184.803 66.3523L184.965 57.025C185.102 56.9552 185.239 56.8993 185.364 56.8297Z" fill="#7235EE" fill-opacity="0.78"/>
<path d="M184.964 57.0402L184.802 66.3675C184.654 66.4373 184.494 66.5072 184.322 66.5771L184.484 57.2497C184.656 57.1798 184.816 57.11 184.964 57.0402Z" fill="#7235EE" fill-opacity="0.78"/>
<path d="M184.485 57.2349L184.323 66.5623C184.128 66.6323 183.934 66.7161 183.717 66.7862L183.879 57.4589C184.096 57.3888 184.29 57.3188 184.485 57.2349Z" fill="#7235EE" fill-opacity="0.78"/>
<path d="M183.879 57.4597L183.717 66.787C183.603 66.829 183.477 66.8572 183.351 66.8993L183.513 57.572C183.639 57.5299 183.753 57.5017 183.879 57.4597Z" fill="#7235EE" fill-opacity="0.78"/>
</g>
<mask id="mask1_649_393" style="mask-type:luminance" maskUnits="userSpaceOnUse" x="61" y="53" width="4" height="13">
<path d="M61.1459 63.0265L61.3079 53.6992C61.2897 54.6803 62.4734 55.6972 64.8352 56.5151L64.6732 65.8424C62.3115 65.0383 61.1278 64.0215 61.1459 63.0265Z" fill="white"/>
</mask>
<g mask="url(#mask1_649_393)">
<path d="M64.8464 56.5161L64.6845 65.8434C64.4666 65.7615 64.2488 65.6935 64.0538 65.6115L64.2158 56.2842C64.4108 56.3662 64.6286 56.4342 64.8464 56.5161Z" fill="#7235EE" fill-opacity="0.78"/>
<path d="M64.2161 56.2836L64.0541 65.6109C62.1046 64.8464 61.1274 63.9252 61.146 63.027L61.308 53.6997C61.2893 54.5979 62.2666 55.519 64.2046 56.2836" fill="#7235EE" fill-opacity="0.78"/>
</g>
<path d="M183.514 57.5699L183.352 66.8973L130.214 82.8721L130.376 73.5586L183.514 57.5699Z" fill="#7235EE" fill-opacity="0.78"/>
<path d="M113.732 73.1682L113.57 82.4955L64.673 65.842L64.8464 56.5146L113.732 73.1682Z" fill="#7235EE" fill-opacity="0.78"/>
<mask id="mask2_649_393" style="mask-type:luminance" maskUnits="userSpaceOnUse" x="113" y="73" width="18" height="11">
<path d="M130.378 73.5591L130.216 82.8865C125.667 84.2482 118.215 84.0761 113.571 82.4953L113.733 73.168C118.377 74.7488 125.829 74.9209 130.378 73.5591Z" fill="white"/>
</mask>
<g mask="url(#mask2_649_393)">
<path d="M130.379 73.5594L130.217 82.8867C130.068 82.9289 129.92 82.971 129.771 83.0132L129.933 73.6859C130.082 73.6437 130.23 73.6016 130.379 73.5594Z" fill="#7235EE" fill-opacity="0.78"/>
<path d="M129.933 73.6855L129.771 83.0128C129.405 83.1113 129.016 83.196 128.627 83.2808L128.789 73.9534C129.19 73.8686 129.567 73.784 129.933 73.6855Z" fill="#7235EE" fill-opacity="0.78"/>
<path d="M128.79 73.9544L128.629 83.2817C127.256 83.5645 125.723 83.7238 124.144 83.7865L124.306 74.4592C125.897 74.3964 127.43 74.2372 128.79 73.9544Z" fill="#7235EE" fill-opacity="0.78"/>
<path d="M124.294 74.4591L124.132 83.7864C123.834 83.7878 123.525 83.8031 123.216 83.8045L123.378 74.4772C123.687 74.4757 123.985 74.4743 124.294 74.4591Z" fill="#7235EE" fill-opacity="0.78"/>
<path d="M123.389 74.4789L123.227 83.8062C122.975 83.8074 122.724 83.8086 122.472 83.8097L122.634 74.4824C122.886 74.4812 123.137 74.48 123.389 74.4789Z" fill="#7235EE" fill-opacity="0.78"/>
<path d="M122.635 74.4802L122.473 83.8076C122.244 83.8087 122.015 83.8097 121.775 83.7971L121.936 74.4697C122.165 74.4686 122.394 74.4676 122.635 74.4802Z" fill="#7235EE" fill-opacity="0.78"/>
<path d="M121.936 74.4702L121.774 83.7976C121.545 83.7987 121.328 83.7859 121.099 83.7731L121.261 74.4458C121.478 74.4448 121.707 74.4575 121.936 74.4702Z" fill="#7235EE" fill-opacity="0.78"/>
<path d="M121.272 74.4455L121.11 83.7729C120.893 83.7739 120.664 83.7473 120.446 83.7345L120.608 74.4072C120.826 74.42 121.055 74.4328 121.272 74.4455Z" fill="#7235EE" fill-opacity="0.78"/>
<path d="M120.606 74.4076L120.445 83.7349C120.227 83.7221 119.998 83.7094 119.78 83.6828L119.942 74.3555C120.16 74.3683 120.377 74.3949 120.606 74.4076Z" fill="#7235EE" fill-opacity="0.78"/>
<path d="M119.943 74.3551L119.781 83.6824C119.563 83.6696 119.346 83.643 119.128 83.6164L119.29 74.2891C119.508 74.3157 119.725 74.3285 119.943 74.3551Z" fill="#7235EE" fill-opacity="0.78"/>
<path d="M119.279 74.3023L119.117 83.6297C118.899 83.6031 118.682 83.5903 118.464 83.5637L118.626 74.2363C118.844 74.2629 119.061 74.2895 119.279 74.3023Z" fill="#7235EE" fill-opacity="0.78"/>
<path d="M118.638 74.2234L118.476 83.5508C118.259 83.5241 118.041 83.4975 117.835 83.4709L117.997 74.1436C118.215 74.1702 118.421 74.1968 118.638 74.2234Z" fill="#7235EE" fill-opacity="0.78"/>
<path d="M117.986 74.1459L117.824 83.4733C117.607 83.4467 117.4 83.4062 117.183 83.3796L117.345 74.0522C117.551 74.0927 117.769 74.1193 117.986 74.1459Z" fill="#7235EE" fill-opacity="0.78"/>
<path d="M117.356 74.0353L117.194 83.3626C116.976 83.3222 116.77 83.2955 116.564 83.2551L116.726 73.9277C116.932 73.9682 117.149 74.0086 117.356 74.0353Z" fill="#7235EE" fill-opacity="0.78"/>
<path d="M116.715 73.9275L116.553 83.2548C116.335 83.2144 116.117 83.174 115.911 83.1335L116.073 73.8062C116.279 73.8466 116.497 73.8871 116.715 73.9275Z" fill="#7235EE" fill-opacity="0.78"/>
<path d="M116.072 73.8085L115.91 83.1358C115.681 83.0817 115.463 83.0412 115.245 82.987L115.407 73.6597C115.625 73.7139 115.843 73.7682 116.072 73.8085Z" fill="#7235EE" fill-opacity="0.78"/>
<path d="M115.407 73.6602L115.245 82.9875C115.004 82.9334 114.775 82.8654 114.546 82.8112L114.708 73.4839C114.937 73.5519 115.166 73.6061 115.407 73.6602Z" fill="#7235EE" fill-opacity="0.78"/>
<path d="M114.72 73.4672L114.558 82.7945C114.306 82.7266 114.054 82.6449 113.802 82.5632L113.964 73.2358C114.205 73.3176 114.457 73.3855 114.72 73.4672Z" fill="#7235EE" fill-opacity="0.78"/>
<path d="M113.963 73.2498L113.801 82.5771C113.72 82.5499 113.652 82.5225 113.571 82.4953L113.733 73.168C113.814 73.1952 113.882 73.2225 113.963 73.2498Z" fill="#7235EE" fill-opacity="0.78"/>
</g>
<path d="M117.811 35.1932C122.36 33.8314 129.813 34.0035 134.444 35.5844L183.341 52.238C187.984 53.8188 188.064 56.2088 183.515 57.5844L130.377 73.5731C125.828 74.9348 118.376 74.7628 113.733 73.1819L64.8476 56.5145C60.2158 54.9336 60.1244 52.5436 64.6736 51.1819L117.811 35.1932Z" fill="#7235EE" fill-opacity="0.13"/>
</g>
<path d="M123.484 24.6021V36.6457L146.708 43.4688C146.94 43.6441 147.075 43.9079 147.083 44.1996C146.862 46.7263 147.37 49.7249 147.083 52.1926C147.024 52.7088 146.781 52.9775 146.287 53.1168L122.443 59.9988L98.7167 53.1168C98.2235 52.9759 97.981 52.7088 97.9204 52.1926C97.6336 49.7249 98.1416 46.7263 97.9204 44.1996C97.9286 43.9079 98.0613 43.6425 98.2956 43.4688L121.519 36.6457V24.6021H114.329C114.096 24.6021 113.577 23.9844 113.651 23.6829L113.708 1.61439C113.808 1.35877 114.005 1.16214 114.262 1.06055H124.844L131.212 7.34944C131.346 7.52968 131.336 7.73287 131.356 7.94261C131.815 12.9321 130.998 18.618 131.352 23.6812C131.425 23.9827 130.907 24.6005 130.674 24.6005H123.484V24.6021ZM123.484 2.97278H115.619V22.6358H129.383V8.87169H124.159C124.015 8.87169 123.484 8.34078 123.484 8.19659V2.97278ZM127.908 6.90538L125.45 4.4475V6.90538H127.908ZM121.518 38.7349L102.715 44.3864L122.439 50.051C129.131 48.3403 135.724 46.1151 142.41 44.3864L123.484 38.7333V43.7719C124.008 43.5278 125.273 41.7974 125.66 41.6958C125.952 41.6188 127.11 42.7855 127.035 43.0706C126.959 43.3557 123.153 47.0671 122.876 47.1572C122.38 47.3178 122.147 47.1949 121.762 46.9065C121.377 46.6181 118.036 43.3311 117.967 43.069C117.891 42.7839 119.05 41.6172 119.342 41.6942C119.727 41.7958 120.992 43.5261 121.518 43.7703V38.7316V38.7349ZM121.518 51.8846L99.8883 45.617V51.393L121.518 57.6606V51.8846ZM145.113 45.617L123.484 51.8846V57.6606L145.113 51.393V45.617Z" fill="#020202"/>
<path d="M134.975 24.6018C134.665 24.5363 134.265 24.0283 134.297 23.6826L134.354 1.61412C134.495 1.25855 134.821 1.01276 135.217 1.00293L145.488 1.06028L151.805 7.27871L152 7.94398L151.967 23.9005C151.864 24.2725 151.572 24.5379 151.187 24.5953L144.128 24.6018C144.145 27.0663 142.204 29.2472 139.751 29.5029C137.831 29.7028 135.353 28.8982 133.987 30.6204C133.835 30.8121 133.313 31.7444 133.313 31.9132V33.9418C133.838 33.6976 135.103 31.9673 135.489 31.8657C135.781 31.7887 136.94 32.9554 136.864 33.2405C136.795 33.501 133.458 36.788 133.069 37.078C132.681 37.3681 132.45 37.4893 131.955 37.3287C131.677 37.2386 127.87 33.5239 127.796 33.2421C127.723 32.9603 128.879 31.7903 129.171 31.8673C129.556 31.9689 130.821 33.6993 131.347 33.9434V31.7936C131.347 30.1452 133.287 28.1985 134.813 27.7627C137.484 26.9991 141.746 28.8605 142.162 24.6051H134.972L134.975 24.6018ZM144.131 2.97251H136.266V22.6355H150.03V8.87142H144.806C144.662 8.87142 144.131 8.34052 144.131 8.19632V2.97251ZM148.556 6.90512L146.098 4.44724V6.90512H148.556Z" fill="#020202"/>
<path d="M102.838 24.6027C103.243 28.9433 107.706 26.9115 110.369 27.8258C111.811 28.3207 113.653 30.2149 113.653 31.7928V33.9427C114.177 33.6985 115.442 31.9682 115.829 31.8666C116.121 31.7896 117.279 32.9562 117.204 33.2413C117.135 33.5019 113.797 36.7889 113.409 37.0789C113.02 37.3689 112.789 37.4902 112.294 37.3296C112.016 37.2395 108.209 33.5248 108.136 33.243C108.062 32.9611 109.219 31.7912 109.51 31.8682C109.896 31.9698 111.161 33.7001 111.687 33.9443V32.0403C111.687 31.8109 111.241 30.9145 111.072 30.6884C109.746 28.9056 107.154 29.7036 105.25 29.5054C102.797 29.2497 100.857 27.0688 100.873 24.6044L93.8145 24.5978C93.4294 24.5404 93.1394 24.275 93.0345 23.903L93.0001 2.04594C92.9935 1.43475 93.3262 1.07426 93.9243 1.0038C96.9933 0.644951 100.741 1.27908 103.884 1.0038C104.187 0.990693 104.344 1.14964 104.559 1.31186C105.573 2.06724 109.643 6.13585 110.395 7.1485C110.503 7.29433 110.643 7.41395 110.674 7.6073L110.702 23.6835C110.774 23.985 110.256 24.6027 110.023 24.6027H102.833H102.838ZM102.838 2.97338H94.973V22.6364H108.737V8.87229H103.513C103.369 8.87229 102.838 8.33975 102.838 8.19719V2.97338ZM107.262 6.90599L104.804 4.44811V6.90599H107.262Z" fill="#020202"/>
<path d="M127.415 10.8384H117.584V12.8047H127.415V10.8384Z" fill="black"/>
<path d="M127.415 14.7705H117.584V16.7368H127.415V14.7705Z" fill="black"/>
<path d="M121.517 6.90576H117.584V8.87206H121.517V6.90576Z" fill="black"/>
<path d="M119.55 18.7031H117.584V20.6694H119.55V18.7031Z" fill="black"/>
<path d="M123.482 18.7031H121.516V20.6694H123.482V18.7031Z" fill="black"/>
<path d="M127.414 18.7031H125.447V20.6694H127.414V18.7031Z" fill="black"/>
<path d="M148.062 10.8384H138.23V12.8047H148.062V10.8384Z" fill="black"/>
<path d="M148.062 14.7705H138.23V16.7368H148.062V14.7705Z" fill="black"/>
<path d="M148.062 18.7031H138.23V20.6694H148.062V18.7031Z" fill="black"/>
<path d="M142.163 6.90576H138.23V8.87206H142.163V6.90576Z" fill="black"/>
<path d="M106.771 10.8384H96.9395V12.8047H106.771V10.8384Z" fill="black"/>
<path d="M106.771 14.7705H96.9395V16.7368H106.771V14.7705Z" fill="black"/>
<path d="M106.771 18.7031H96.9395V20.6694H106.771V18.7031Z" fill="black"/>
<path d="M100.872 6.90576H96.9395V8.87206H100.872V6.90576Z" fill="black"/>
<defs>
<filter id="filter0_d_649_393" x="-192.854" y="-219.725" width="633.73" height="557.529" filterUnits="userSpaceOnUse" color-interpolation-filters="sRGB">
<feFlood flood-opacity="0" result="BackgroundImageFix"/>
<feColorMatrix in="SourceAlpha" type="matrix" values="0 0 0 0 0 0 0 0 0 0 0 0 0 0 0 0 0 0 127 0" result="hardAlpha"/>
<feOffset dy="43.6637"/>
<feGaussianBlur stdDeviation="30.15"/>
<feComposite in2="hardAlpha" operator="out"/>
<feColorMatrix type="matrix" values="0 0 0 0 0.447059 0 0 0 0 0.207843 0 0 0 0 0.933333 0 0 0 0.28 0"/>
<feBlend mode="normal" in2="BackgroundImageFix" result="effect1_dropShadow_649_393"/>
<feBlend mode="normal" in="SourceGraphic" in2="effect1_dropShadow_649_393" result="shape"/>
</filter>
</defs>
</svg>
