<svg width="248" height="187" viewBox="0 0 248 187" fill="none" xmlns="http://www.w3.org/2000/svg">
<g filter="url(#filter0_d_649_395)">
<mask id="mask0_649_395" style="mask-type:luminance" maskUnits="userSpaceOnUse" x="183" y="54" width="4" height="12">
<path d="M186.895 54.049L186.733 63.3764C186.715 64.316 185.598 65.2332 183.38 65.9069L183.542 56.5796C185.771 55.9059 186.888 55.0025 186.895 54.049Z" fill="white"/>
</mask>
<g mask="url(#mask0_649_395)">
<path d="M186.897 54.0469L186.735 63.3742C186.735 63.3742 186.736 63.4295 186.736 63.4571L186.898 54.1298C186.898 54.1298 186.898 54.0745 186.897 54.0469Z" fill="#80BC37"/>
<path d="M186.885 54.1282L186.723 63.4555C186.723 63.5384 186.701 63.6214 186.678 63.7044L186.84 54.3771C186.863 54.2941 186.885 54.2111 186.885 54.1282Z" fill="#80BC37"/>
<path d="M186.841 54.379L186.679 63.7063C186.656 63.7893 186.622 63.8585 186.588 63.9416L186.75 54.6143C186.784 54.5312 186.818 54.462 186.841 54.379Z" fill="#80BC37"/>
<path d="M186.75 54.6146L186.588 63.9419C186.554 64.0112 186.508 64.0943 186.451 64.1636L186.613 54.8363C186.659 54.767 186.704 54.6839 186.75 54.6146Z" fill="#80BC37"/>
<path d="M186.624 54.8361L186.462 64.1634C186.416 64.2327 186.359 64.3021 186.291 64.3715L186.453 55.0442C186.51 54.9748 186.567 54.9055 186.624 54.8361Z" fill="#80BC37"/>
<path d="M186.455 55.043L186.293 64.3703C186.236 64.4397 186.168 64.5091 186.088 64.5785L186.25 55.2512C186.33 55.1817 186.398 55.1123 186.455 55.043Z" fill="#80BC37"/>
<path d="M186.247 55.2523L186.085 64.5796C186.005 64.6491 185.926 64.7185 185.846 64.7742L186.008 55.4469C186.099 55.3773 186.179 55.3217 186.247 55.2523Z" fill="#80BC37"/>
<path d="M186.012 55.4464L185.85 64.7737C185.758 64.8432 185.667 64.8989 185.564 64.9685L185.726 55.6412C185.829 55.5716 185.92 55.5159 186.012 55.4464Z" fill="#80BC37"/>
<path d="M185.725 55.642L185.563 64.9693C185.461 65.0389 185.347 65.1085 185.232 65.1643L185.394 55.837C185.509 55.7674 185.623 55.7116 185.725 55.642Z" fill="#80BC37"/>
<path d="M185.38 55.836L185.218 65.1633C185.093 65.233 184.955 65.3027 184.818 65.3586L184.98 56.0313C185.117 55.9616 185.254 55.9057 185.38 55.836Z" fill="#80BC37"/>
<path d="M184.98 56.0461L184.818 65.3734C184.669 65.4432 184.509 65.513 184.338 65.5829L184.5 56.2556C184.671 56.1857 184.831 56.1159 184.98 56.0461Z" fill="#80BC37"/>
<path d="M184.5 56.2413L184.338 65.5686C184.144 65.6386 183.95 65.7224 183.733 65.7925L183.895 56.4652C184.112 56.3951 184.306 56.3251 184.5 56.2413Z" fill="#80BC37"/>
<path d="M183.897 56.4656L183.735 65.7929C183.62 65.8349 183.495 65.8631 183.369 65.9051L183.531 56.5778C183.656 56.5358 183.771 56.5076 183.897 56.4656Z" fill="#80BC37"/>
</g>
<mask id="mask1_649_395" style="mask-type:luminance" maskUnits="userSpaceOnUse" x="61" y="52" width="4" height="13">
<path d="M61.1616 62.0329L61.3235 52.7056C61.3053 53.6867 62.489 54.7035 64.8508 55.5214L64.6888 64.8487C62.3271 64.0447 61.1434 63.0278 61.1616 62.0329Z" fill="white"/>
</mask>
<g mask="url(#mask1_649_395)">
<path d="M64.8601 55.5224L64.6981 64.8498C64.4803 64.7679 64.2625 64.6998 64.0675 64.6179L64.2295 55.2905C64.4244 55.3725 64.6422 55.4406 64.8601 55.5224Z" fill="#80BC37"/>
<path d="M64.2317 55.2899L64.0697 64.6173C62.1203 63.8527 61.143 62.9316 61.1616 62.0334L61.3236 52.7061C61.305 53.6043 62.2822 54.5254 64.2203 55.29" fill="#80BC37"/>
</g>
<path d="M183.531 56.5763L183.369 65.9036L130.232 81.8785L130.394 72.565L183.531 56.5763Z" fill="#80BC37"/>
<path d="M113.747 72.1746L113.585 81.5019L64.6886 64.8483L64.862 55.5209L113.747 72.1746Z" fill="#80BC37"/>
<mask id="mask2_649_395" style="mask-type:luminance" maskUnits="userSpaceOnUse" x="113" y="72" width="18" height="11">
<path d="M130.394 72.5655L130.232 81.8928C125.682 83.2546 118.23 83.0825 113.587 81.5016L113.749 72.1743C118.392 73.7552 125.844 73.9272 130.394 72.5655Z" fill="white"/>
</mask>
<g mask="url(#mask2_649_395)">
<path d="M130.395 72.5658L130.233 81.8931C130.084 81.9352 129.935 81.9774 129.787 82.0195L129.949 72.6922C130.097 72.6501 130.246 72.6079 130.395 72.5658Z" fill="#80BC37"/>
<path d="M129.948 72.6919L129.786 82.0192C129.42 82.1176 129.032 82.2024 128.643 82.2871L128.805 72.9598C129.205 72.875 129.582 72.7903 129.948 72.6919Z" fill="#80BC37"/>
<path d="M128.806 72.9607L128.644 82.2881C127.272 82.5709 125.739 82.7301 124.16 82.7928L124.322 73.4655C125.912 73.4027 127.445 73.2435 128.806 72.9607Z" fill="#80BC37"/>
<path d="M124.309 73.4654L124.147 82.7927C123.85 82.7941 123.541 82.8094 123.232 82.8109L123.394 73.4835C123.703 73.4821 124 73.4807 124.309 73.4654Z" fill="#80BC37"/>
<path d="M123.407 73.4852L123.245 82.8125C122.993 82.8137 122.741 82.8149 122.489 82.8161L122.651 73.4888C122.903 73.4876 123.155 73.4864 123.407 73.4852Z" fill="#80BC37"/>
<path d="M122.65 73.4866L122.488 82.8139C122.259 82.815 122.031 82.8161 121.79 82.8034L121.952 73.4761C122.181 73.475 122.41 73.4739 122.65 73.4866Z" fill="#80BC37"/>
<path d="M121.952 73.4766L121.79 82.8039C121.561 82.805 121.343 82.7922 121.114 82.7795L121.276 73.4522C121.494 73.4511 121.723 73.4639 121.952 73.4766Z" fill="#80BC37"/>
<path d="M121.288 73.4519L121.126 82.7792C120.909 82.7802 120.68 82.7537 120.462 82.7409L120.624 73.4136C120.842 73.4264 121.071 73.4391 121.288 73.4519Z" fill="#80BC37"/>
<path d="M120.624 73.414L120.462 82.7413C120.245 82.7285 120.016 82.7158 119.798 82.6891L119.96 73.3618C120.177 73.3746 120.395 73.4012 120.624 73.414Z" fill="#80BC37"/>
<path d="M119.96 73.3614L119.798 82.6887C119.581 82.676 119.363 82.6493 119.146 82.6227L119.308 73.2954C119.525 73.322 119.743 73.3348 119.96 73.3614Z" fill="#80BC37"/>
<path d="M119.296 73.3087L119.134 82.636C118.917 82.6094 118.699 82.5966 118.482 82.57L118.644 73.2427C118.861 73.2693 119.079 73.2959 119.296 73.3087Z" fill="#80BC37"/>
<path d="M118.652 73.2298L118.49 82.5571C118.273 82.5305 118.055 82.5039 117.849 82.4772L118.011 73.1499C118.228 73.1765 118.434 73.2032 118.652 73.2298Z" fill="#80BC37"/>
<path d="M118 73.1523L117.838 82.4796C117.62 82.453 117.414 82.4125 117.196 82.3859L117.358 73.0586C117.565 73.0991 117.782 73.1257 118 73.1523Z" fill="#80BC37"/>
<path d="M117.371 73.0416L117.209 82.369C116.992 82.3285 116.785 82.3019 116.579 82.2614L116.741 72.9341C116.947 72.9746 117.165 73.015 117.371 73.0416Z" fill="#80BC37"/>
<path d="M116.73 72.9338L116.568 82.2611C116.351 82.2207 116.133 82.1803 115.927 82.1398L116.089 72.8125C116.295 72.853 116.513 72.8934 116.73 72.9338Z" fill="#80BC37"/>
<path d="M116.085 72.8149L115.923 82.1422C115.694 82.088 115.477 82.0476 115.259 81.9933L115.421 72.666C115.639 72.7203 115.856 72.7745 116.085 72.8149Z" fill="#80BC37"/>
<path d="M115.425 72.6666L115.263 81.9939C115.022 81.9397 114.793 81.8717 114.564 81.8176L114.726 72.4902C114.955 72.5582 115.184 72.6124 115.425 72.6666Z" fill="#80BC37"/>
<path d="M114.736 72.4735L114.574 81.8008C114.322 81.7329 114.07 81.6512 113.817 81.5695L113.979 72.2422C114.22 72.324 114.472 72.3919 114.736 72.4735Z" fill="#80BC37"/>
<path d="M113.978 72.2561L113.816 81.5835C113.736 81.5562 113.667 81.5289 113.587 81.5016L113.749 72.1743C113.829 72.2016 113.898 72.2289 113.978 72.2561Z" fill="#80BC37"/>
</g>
<path d="M117.827 34.1995C122.376 32.8378 129.828 33.0098 134.46 34.5908L183.357 51.2443C188 52.8252 188.08 55.2151 183.531 56.5907L130.393 72.5794C125.844 73.9412 118.392 73.7691 113.748 72.1883L64.8632 55.5208C60.2315 53.9399 60.14 51.55 64.6892 50.1882L117.827 34.1995Z" fill="#7BFFA3" fill-opacity="0.1"/>
</g>
<path d="M94 58.407V33.2057C94.3422 32.8927 94.4821 32.5187 95.0444 32.5823L122.913 32.6434L123.46 33.0848L123.532 58.1068C123.574 58.5596 123.156 58.9947 122.728 59.0316C113.307 58.9273 103.834 59.2097 94.4453 58.8891L94 58.4083V58.407ZM121.548 34.5643H96.1614C96.1487 34.5643 95.9756 34.7361 95.9756 34.7501V40.5562C95.9756 40.5689 96.1474 40.7419 96.1614 40.7419H121.548V34.5656V34.5643ZM121.548 42.7176H96.1614C96.1487 42.7176 95.9756 42.8893 95.9756 42.9033V48.7094C95.9756 48.7221 96.1474 48.8951 96.1614 48.8951H121.548V42.7188V42.7176ZM121.548 50.8708H96.1614C96.1487 50.8708 95.9756 51.0425 95.9756 51.0565V57.0483H121.547V50.872L121.548 50.8708Z" fill="#010101"/>
<path d="M128.302 0L156.635 0.0292595C156.892 0.129759 157.089 0.328215 157.19 0.585189L157.187 25.672C157.063 25.9519 156.949 26.2521 156.635 26.3551H128.33C127.978 26.1821 127.663 25.9302 127.712 25.4901V0.770923C127.719 0.417265 128.026 0.173012 128.301 0H128.302ZM155.27 1.95148H129.698V8.12777H155.085C155.098 8.12777 155.271 7.95603 155.271 7.94203V1.95148H155.27ZM129.698 16.281H155.085C155.098 16.281 155.271 16.1092 155.271 16.0952V10.2892C155.271 10.2764 155.099 10.1034 155.085 10.1034H129.698V16.2797V16.281ZM129.698 24.4342H155.085C155.098 24.4342 155.271 24.2624 155.271 24.2485V18.4424C155.271 18.4296 155.099 18.2566 155.085 18.2566H129.698V24.4329V24.4342Z" fill="#010101"/>
<path d="M115.367 17.3931C111.461 17.5928 109.86 21.048 109.439 24.498C109.322 25.461 109.445 26.7065 109.306 27.5779C109.198 28.2636 108.627 28.4595 108.021 28.5167C106.724 28.6363 103.336 28.6783 102.096 28.504C101.484 28.4175 101.208 28.0562 101.153 27.4698C100.873 24.5146 101.769 19.7529 102.957 17.028C105.21 11.8554 109.814 9.29329 115.369 9.11773C115.509 7.76035 114.677 4.25684 117.093 5.23131C119.524 7.59369 122.478 9.66348 124.883 12.0195C125.651 12.7713 125.965 13.1733 125.133 14.1262C122.423 16.0039 119.877 19.2415 117.214 21.0314C116.676 21.394 116.151 21.5314 115.671 20.9856C115.595 20.8991 115.369 20.4958 115.369 20.4221V17.3956L115.367 17.3931ZM117.466 8.37479V10.4128C117.466 11.3847 114.909 11.1646 114.331 11.232C112.339 11.4648 110.217 12.1086 108.533 13.2166C104.332 15.9784 103.204 21.6942 103.259 26.4113H107.15C107.237 26.4113 107.317 26.2052 107.336 26.1022C107.443 25.517 107.376 24.5871 107.477 23.8963C108.035 20.0366 109.738 16.514 113.806 15.5243C114.545 15.3449 116.451 14.9912 117.037 15.4136C117.138 15.4861 117.467 15.8983 117.467 15.9721V18.0101C118.999 16.6132 120.808 15.3067 122.287 13.873C122.499 13.6682 122.959 13.3158 122.912 13.0156L117.467 8.37352L117.466 8.37479Z" fill="#040404"/>
<path d="M135.877 41.6052C139.782 41.4055 141.384 37.9503 141.805 34.5003C141.922 33.5373 141.798 32.2918 141.937 31.4204C142.045 30.7347 142.616 30.5388 143.222 30.4816C144.52 30.362 147.907 30.32 149.148 30.4943C149.76 30.5808 150.036 30.9421 150.09 31.5285C150.37 34.4837 149.475 39.2454 148.286 41.9703C146.033 47.1429 141.429 49.705 135.874 49.8806C135.734 51.238 136.566 54.7415 134.15 53.767C131.719 51.4046 128.765 49.3348 126.361 46.9788C125.592 46.227 125.278 45.825 126.11 44.8721C128.82 42.9944 131.367 39.7568 134.029 37.9669C134.568 37.6043 135.093 37.4669 135.573 38.0127C135.649 38.0992 135.874 38.5025 135.874 38.5762V41.6027L135.877 41.6052ZM147.984 32.587H144.092C144.006 32.587 143.925 32.793 143.906 32.8961C143.8 33.4813 143.866 34.4112 143.765 35.102C143.207 38.9617 141.505 42.4843 137.436 43.474C136.697 43.6534 134.791 44.007 134.205 43.5847C134.104 43.5122 133.775 43.1 133.775 43.0262V40.9882C132.243 42.3851 130.434 43.6916 128.955 45.1253C128.744 45.3301 128.283 45.6825 128.33 45.9827L133.775 50.6248V48.5868C133.775 47.6149 136.332 47.8349 136.91 47.7675C138.903 47.5347 141.034 46.8936 142.708 45.783C146.916 42.9931 148.033 37.3321 147.982 32.5882L147.984 32.587Z" fill="#040404"/>
<path d="M98.3581 53.2536C98.4942 53.1175 98.9191 52.9916 99.1239 52.9687C99.947 52.8771 102.538 52.8554 103.319 52.9788C104.468 53.1608 104.356 54.7726 103.447 54.9456C102.841 55.0601 99.5336 55.041 98.886 54.9405C98.0897 54.8171 97.839 53.7739 98.3568 53.2536H98.3581Z" fill="#020202"/>
<path d="M110.027 52.9951C111.456 52.6835 111.699 54.6286 110.716 54.9212C109.181 55.3779 108.844 53.2534 110.027 52.9951Z" fill="#070707"/>
<path d="M114.11 53.0004C115.517 52.6366 115.809 54.6199 114.795 54.9227C113.291 55.3705 112.898 53.3147 114.11 53.0004Z" fill="#070707"/>
<path d="M117.764 53.2629C118.874 52.1549 120.24 54.1509 119.023 54.8315C117.912 55.4535 116.942 54.0834 117.764 53.2629Z" fill="#060606"/>
<path d="M98.3674 45.1038C98.5061 44.9524 98.7936 44.838 99.0022 44.8125C99.7998 44.7158 102.558 44.7031 103.324 44.8252C104.472 45.0071 104.361 46.619 103.451 46.792C102.853 46.9052 99.5263 46.8874 98.8903 46.7869C98.1282 46.666 97.856 45.6636 98.3661 45.1038H98.3674Z" fill="#020202"/>
<path d="M110.027 44.8418C111.49 44.5225 111.699 46.4752 110.716 46.7678C109.181 47.2245 108.844 45.1 110.027 44.8418Z" fill="#070707"/>
<path d="M114.105 44.8418C115.568 44.5225 115.777 46.4752 114.794 46.7678C113.259 47.2245 112.922 45.1 114.105 44.8418Z" fill="#080808"/>
<path d="M118.179 44.8423C120.036 44.4365 119.782 47.4667 117.997 46.7009C117.203 46.36 117.325 45.0293 118.179 44.8423Z" fill="#070707"/>
<path d="M98.3674 36.951C98.5061 36.7996 98.7936 36.6851 99.0022 36.6597C99.7998 36.563 102.558 36.5503 103.324 36.6724C104.472 36.8543 104.361 38.4661 103.451 38.6391C102.853 38.7524 99.5263 38.7346 98.8903 38.6341C98.1282 38.5132 97.856 37.5107 98.3661 36.951H98.3674Z" fill="#010101"/>
<path d="M114.1 36.6909C115.97 36.2622 115.701 39.3116 113.92 38.547C113.13 38.2073 113.241 36.8869 114.1 36.6909Z" fill="#080808"/>
<path d="M118.174 36.6909C120.044 36.2622 119.775 39.3116 117.994 38.547C117.204 38.2073 117.316 36.8869 118.174 36.6909Z" fill="#080808"/>
<path d="M110.026 36.6885C111.884 36.2827 111.629 39.3129 109.845 38.5471C109.051 38.2062 109.173 36.8755 110.026 36.6885Z" fill="#080808"/>
<path d="M137.574 5.74637C137.438 5.88376 137.013 6.00843 136.808 6.03133C135.98 6.12419 133.402 6.14455 132.613 6.02115C131.525 5.85068 131.548 4.23251 132.484 4.05441C133.087 3.93991 136.401 3.95899 137.045 4.05949C137.848 4.18417 138.124 5.19552 137.573 5.74637H137.574Z" fill="#020202"/>
<path d="M148.809 5.74105C147.892 6.74223 146.335 5.13678 147.369 4.23864C148.248 3.47535 149.765 4.69662 148.809 5.74105Z" fill="#070707"/>
<path d="M144.735 5.74099C143.818 6.74217 142.261 5.13672 143.295 4.23858C144.199 3.45366 145.652 4.73981 144.735 5.74099Z" fill="#080808"/>
<path d="M152.884 5.74105C152.329 6.3466 151.224 5.99548 151.182 5.1037C151.088 3.07971 154.215 4.28826 152.884 5.74105Z" fill="#060606"/>
<path d="M137.565 13.8908C137.402 14.0549 137.167 14.1579 136.934 14.1872C136.132 14.2851 133.385 14.2953 132.613 14.1745C131.525 14.004 131.548 12.3858 132.484 12.2077C133.087 12.0932 136.401 12.1123 137.045 12.2128C137.858 12.34 138.133 13.3209 137.564 13.8908H137.565Z" fill="#020202"/>
<path d="M144.732 13.896C143.782 14.9353 142.275 13.2764 143.292 12.3936C144.171 11.6303 145.688 12.8503 144.732 13.896Z" fill="#080808"/>
<path d="M148.814 13.8957C147.976 14.8117 146.43 13.5001 147.285 12.4874C148.061 11.5677 149.845 12.7699 148.814 13.8957Z" fill="#070707"/>
<path d="M152.888 13.8961C152.147 14.7039 150.67 13.7842 151.315 12.6316C151.96 11.479 153.968 12.7168 152.888 13.8961Z" fill="#060606"/>
<path d="M132.377 20.3834C133.741 20.5195 135.876 20.101 137.143 20.3834C138.114 20.601 138.107 22.1593 137.039 22.326C136.414 22.4239 133.066 22.4341 132.501 22.3069C131.556 22.0945 131.53 20.774 132.376 20.3821L132.377 20.3834Z" fill="#020202"/>
<path d="M151.785 20.3833C153.159 19.9775 153.659 21.7776 152.656 22.2432C151.211 22.9162 150.586 20.737 151.785 20.3833Z" fill="#060606"/>
<path d="M143.204 20.6406C144.081 19.6012 145.811 21.1698 144.645 22.1455C143.714 22.9241 142.417 21.5756 143.204 20.6406Z" fill="#080808"/>
<path d="M147.702 20.3831C149.53 19.8424 149.48 22.8332 147.702 22.3091C146.868 22.0623 146.862 20.6311 147.702 20.3831Z" fill="#060606"/>
<defs>
<filter id="filter0_d_649_395" x="0.860157" y="16.6454" width="246.334" height="170.129" filterUnits="userSpaceOnUse" color-interpolation-filters="sRGB">
<feFlood flood-opacity="0" result="BackgroundImageFix"/>
<feColorMatrix in="SourceAlpha" type="matrix" values="0 0 0 0 0 0 0 0 0 0 0 0 0 0 0 0 0 0 127 0" result="hardAlpha"/>
<feOffset dy="43.6637"/>
<feGaussianBlur stdDeviation="30.15"/>
<feComposite in2="hardAlpha" operator="out"/>
<feColorMatrix type="matrix" values="0 0 0 0 0.501961 0 0 0 0 0.737255 0 0 0 0 0.215686 0 0 0 0.26 0"/>
<feBlend mode="normal" in2="BackgroundImageFix" result="effect1_dropShadow_649_395"/>
<feBlend mode="normal" in="SourceGraphic" in2="effect1_dropShadow_649_395" result="shape"/>
</filter>
</defs>
</svg>
