<svg width="197" height="162" viewBox="0 0 197 162" fill="none" xmlns="http://www.w3.org/2000/svg">
<g filter="url(#filter0_d_649_391)">
<mask id="mask0_649_391" style="mask-type:luminance" maskUnits="userSpaceOnUse" x="157" y="54" width="4" height="13">
<path d="M160.763 54.8798L160.603 64.1329C160.584 65.0651 159.476 65.975 157.276 66.6433L157.437 57.3902C159.648 56.7218 160.757 55.8256 160.763 54.8798Z" fill="white"/>
</mask>
<g mask="url(#mask0_649_391)">
<path d="M160.765 54.8794L160.604 64.1326C160.604 64.1326 160.605 64.1874 160.605 64.2148L160.765 54.9616C160.765 54.9616 160.765 54.9068 160.765 54.8794Z" fill="#DE6B47"/>
<path d="M160.754 54.9602L160.593 64.2134C160.593 64.2956 160.571 64.378 160.549 64.4603L160.709 55.2072C160.732 55.1248 160.754 55.0425 160.754 54.9602Z" fill="#DE6B47"/>
<path d="M160.709 55.2086L160.549 64.4617C160.526 64.5441 160.493 64.6128 160.459 64.6952L160.62 55.442C160.653 55.3596 160.687 55.2909 160.709 55.2086Z" fill="#DE6B47"/>
<path d="M160.62 55.4422L160.459 64.6954C160.426 64.7641 160.38 64.8466 160.324 64.9154L160.485 55.6622C160.53 55.5934 160.575 55.511 160.62 55.4422Z" fill="#DE6B47"/>
<path d="M160.496 55.6623L160.335 64.9155C160.29 64.9842 160.234 65.053 160.166 65.1219L160.326 55.8687C160.383 55.7999 160.439 55.7311 160.496 55.6623Z" fill="#DE6B47"/>
<path d="M160.327 55.8677L160.166 65.1209C160.11 65.1897 160.042 65.2585 159.963 65.3274L160.123 56.0743C160.202 56.0054 160.27 55.9365 160.327 55.8677Z" fill="#DE6B47"/>
<path d="M160.123 56.0751L159.962 65.3282C159.883 65.3971 159.804 65.466 159.724 65.5212L159.885 56.2681C159.975 56.1991 160.055 56.1439 160.123 56.0751Z" fill="#DE6B47"/>
<path d="M159.887 56.2677L159.726 65.5209C159.635 65.5898 159.545 65.6451 159.443 65.7141L159.604 56.461C159.706 56.3919 159.796 56.3367 159.887 56.2677Z" fill="#DE6B47"/>
<path d="M159.604 56.4618L159.443 65.715C159.341 65.784 159.228 65.8531 159.115 65.9084L159.276 56.6553C159.389 56.5862 159.502 56.5309 159.604 56.4618Z" fill="#DE6B47"/>
<path d="M159.264 56.6544L159.103 65.9075C158.979 65.9767 158.843 66.0458 158.707 66.1013L158.867 56.8482C159.003 56.779 159.139 56.7235 159.264 56.6544Z" fill="#DE6B47"/>
<path d="M158.865 56.863L158.704 66.1162C158.557 66.1854 158.398 66.2547 158.228 66.324L158.389 57.0708C158.559 57.0015 158.718 56.9322 158.865 56.863Z" fill="#DE6B47"/>
<path d="M158.388 57.0553L158.228 66.3084C158.035 66.3779 157.842 66.461 157.627 66.5306L157.787 57.2774C158.003 57.2079 158.196 57.1384 158.388 57.0553Z" fill="#DE6B47"/>
<path d="M157.788 57.2791L157.628 66.5322C157.514 66.5739 157.39 66.6019 157.265 66.6436L157.426 57.3904C157.55 57.3487 157.664 57.3208 157.788 57.2791Z" fill="#DE6B47"/>
</g>
<mask id="mask1_649_391" style="mask-type:luminance" maskUnits="userSpaceOnUse" x="36" y="53" width="4" height="13">
<path d="M36.1339 62.8113L36.2946 53.5581C36.2764 54.5314 37.4508 55.5402 39.7938 56.3516L39.6331 65.6047C37.2902 64.8071 36.1158 63.7983 36.1339 62.8113Z" fill="white"/>
</mask>
<g mask="url(#mask1_649_391)">
<path d="M39.8027 56.3526L39.642 65.6058C39.4258 65.5246 39.2098 65.4571 39.0164 65.3757L39.177 56.1226C39.3705 56.2039 39.5865 56.2714 39.8027 56.3526Z" fill="#DE6B47"/>
<path d="M39.1796 56.1219L39.0189 65.3751C37.0849 64.6166 36.1154 63.7028 36.1339 62.8118L36.2946 53.5586C36.2761 54.4497 37.2456 55.3635 39.1682 56.122" fill="#DE6B47"/>
</g>
<path d="M157.425 57.3869L157.264 66.6401L104.549 82.4879L104.71 73.2485L157.425 57.3869Z" fill="#DE6B47"/>
<path d="M88.3001 72.8722L88.1394 82.1254L39.6316 65.6042L39.8036 56.351L88.3001 72.8722Z" fill="#DE6B47"/>
<mask id="mask2_649_391" style="mask-type:luminance" maskUnits="userSpaceOnUse" x="88" y="72" width="17" height="12">
<path d="M104.711 73.2494L104.55 82.5026C100.037 83.8535 92.6441 83.6828 88.0378 82.1145L88.1985 72.8613C92.8048 74.4296 100.198 74.6003 104.711 73.2494Z" fill="white"/>
</mask>
<g mask="url(#mask2_649_391)">
<path d="M104.712 73.2504L104.551 82.5035C104.404 82.5453 104.256 82.5872 104.109 82.629L104.269 73.3758C104.417 73.334 104.564 73.2922 104.712 73.2504Z" fill="#DE6B47"/>
<path d="M104.27 73.375L104.109 82.6282C103.746 82.7258 103.36 82.8099 102.975 82.894L103.135 73.6408C103.532 73.5567 103.907 73.4727 104.27 73.375Z" fill="#DE6B47"/>
<path d="M103.136 73.6421L102.975 82.8952C101.614 83.1758 100.093 83.3338 98.5264 83.396L98.6871 74.1428C100.265 74.0806 101.786 73.9226 103.136 73.6421Z" fill="#DE6B47"/>
<path d="M98.6753 74.1427L98.5146 83.3959C98.2194 83.3973 97.9129 83.4124 97.6063 83.4139L97.767 74.1607C98.0735 74.1592 98.3688 74.1578 98.6753 74.1427Z" fill="#DE6B47"/>
<path d="M97.778 74.162L97.6173 83.4152C97.3675 83.4163 97.1177 83.4175 96.8679 83.4187L97.0286 74.1655C97.2784 74.1644 97.5282 74.1632 97.778 74.162Z" fill="#DE6B47"/>
<path d="M97.028 74.1638L96.8673 83.4169C96.6402 83.418 96.4131 83.4191 96.1746 83.4065L96.3352 74.1533C96.5623 74.1523 96.7894 74.1512 97.028 74.1638Z" fill="#DE6B47"/>
<path d="M96.3354 74.1537L96.1747 83.4068C95.9476 83.4079 95.7318 83.3952 95.5046 83.3826L95.6653 74.1294C95.8811 74.1284 96.1082 74.141 96.3354 74.1537Z" fill="#DE6B47"/>
<path d="M95.6757 74.1288L95.515 83.382C95.2992 83.383 95.072 83.3567 94.8562 83.344L95.0169 74.0908C95.2327 74.1035 95.4599 74.1162 95.6757 74.1288Z" fill="#DE6B47"/>
<path d="M95.0175 74.0918L94.8568 83.3449C94.641 83.3322 94.4139 83.3196 94.198 83.2932L94.3587 74.0401C94.5745 74.0527 94.7904 74.0791 95.0175 74.0918Z" fill="#DE6B47"/>
<path d="M94.3598 74.0396L94.1991 83.2928C93.9833 83.2801 93.7674 83.2537 93.5515 83.2273L93.7122 73.9741C93.9281 74.0005 94.1439 74.0132 94.3598 74.0396Z" fill="#DE6B47"/>
<path d="M93.6996 73.9874L93.5389 83.2405C93.323 83.2141 93.1072 83.2014 92.8914 83.175L93.052 73.9219C93.2679 73.9483 93.4838 73.9747 93.6996 73.9874Z" fill="#DE6B47"/>
<path d="M93.0633 73.9088L92.9026 83.162C92.6868 83.1356 92.4709 83.1092 92.2664 83.0828L92.427 73.8296C92.6429 73.856 92.8474 73.8824 93.0633 73.9088Z" fill="#DE6B47"/>
<path d="M92.4169 73.8317L92.2562 83.0849C92.0403 83.0585 91.8357 83.0183 91.6199 82.9919L91.7806 73.7388C91.9851 73.7789 92.201 73.8053 92.4169 73.8317Z" fill="#DE6B47"/>
<path d="M91.7904 73.7224L91.6297 82.9756C91.4137 82.9355 91.2092 82.909 91.0046 82.8689L91.1653 73.6157C91.3699 73.6559 91.5858 73.696 91.7904 73.7224Z" fill="#DE6B47"/>
<path d="M91.1553 73.6155L90.9946 82.8686C90.7787 82.8285 90.5627 82.7884 90.3582 82.7483L90.5188 73.4951C90.7234 73.5353 90.9394 73.5754 91.1553 73.6155Z" fill="#DE6B47"/>
<path d="M90.518 73.4973L90.3573 82.7505C90.1299 82.6967 89.914 82.6566 89.698 82.6028L89.8587 73.3496C90.0747 73.4034 90.2907 73.4572 90.518 73.4973Z" fill="#DE6B47"/>
<path d="M89.8588 73.3502L89.6981 82.6034C89.4594 82.5497 89.232 82.4822 89.0046 82.4285L89.1653 73.1753C89.3927 73.2428 89.6201 73.2965 89.8588 73.3502Z" fill="#DE6B47"/>
<path d="M89.1776 73.1582L89.0169 82.4114C88.7668 82.344 88.5166 82.2629 88.2664 82.1819L88.427 72.9287C88.6659 73.0098 88.916 73.0772 89.1776 73.1582Z" fill="#DE6B47"/>
<path d="M88.426 72.943L88.2653 82.1962C88.1857 82.1691 88.1175 82.142 88.0378 82.115L88.1985 72.8618C88.2781 72.8889 88.3464 72.916 88.426 72.943Z" fill="#DE6B47"/>
</g>
<path d="M92.3477 35.1995C96.8607 33.8486 104.254 34.0193 108.849 35.5876L157.356 52.1088C161.963 53.6771 162.042 56.048 157.529 57.4127L104.814 73.2742C100.301 74.6252 92.9079 74.4545 88.3016 72.8862L39.8051 56.3513C35.2102 54.783 35.1195 52.412 39.6325 51.0611L92.3477 35.1995Z" fill="#ED9C82" fill-opacity="0.29"/>
</g>
<mask id="path-41-outside-1_649_391" maskUnits="userSpaceOnUse" x="85.6621" y="0" width="42" height="57" fill="black">
<rect fill="white" x="85.6621" width="42" height="57"/>
<path d="M98.845 40.6232C98.9271 41.0778 98.5938 42.0554 99.1646 42.1614H115.794C118.27 42.0264 120.187 40.3669 120.449 37.8512C120.902 33.5102 120.157 28.4549 120.449 24.0388C120.251 21.9298 118.591 20.0499 116.44 19.8516C114.792 19.7013 110.319 19.6346 108.752 19.8516C108.241 19.9217 107.718 20.4532 107.038 20.5694C106.486 20.6634 105.944 20.5917 105.394 20.6532L102.046 26.4622C101.361 27.0706 100.575 25.9939 100.38 26.1375C99.8875 26.9441 99.3372 28.3917 98.7732 29.0804C98.1238 29.8734 97.1821 28.9967 96.4541 28.5951C96.0644 28.3797 94.2153 27.3406 94.1315 27.074C93.8529 26.1717 96.073 23.7585 95.7636 23.3278C95.5893 23.0868 94.5041 23.1432 94.8014 22.1606L103.519 7.04415L103.576 6.78437C102.882 6.53827 102.258 6.29559 102.586 5.47355C102.853 4.80702 104.541 1.84698 104.982 1.33427C105.25 1.02151 105.466 0.913844 105.883 1.07278C108.675 2.80745 111.723 4.28064 114.488 6.03924C115.13 6.4477 115.276 6.52802 114.948 7.34665L112.534 11.4654C111.859 12.0653 111.184 11.0877 110.938 11.1424C110.817 11.168 109.791 13.0018 109.716 13.3197C112.391 13.4274 115.175 13.1762 117.838 13.3214C122.572 13.5812 126.513 16.4661 126.863 21.453C127.299 27.6363 126.521 34.3255 126.863 40.5617C126.711 44.4874 122.676 48.5685 118.735 48.5685H112.403C113.24 49.7597 115.547 50.8193 116.045 52.1609C116.624 53.7247 115.604 55.5346 113.879 55.6234C108.376 55.3055 102.434 56.0285 96.9822 55.6234C95.2578 55.4953 94.3007 54.0699 94.6493 52.378C94.9142 51.0962 97.6008 49.5871 98.4588 48.5668H91.4859C91.45 48.5668 91.1766 48.2575 91.1048 48.1806L91.0382 40.6198H88.543C88.4866 40.6198 87.779 40.2883 87.6679 40.2148C86.0187 39.1313 86.475 36.3455 88.4712 35.9337C94.2665 36.1592 100.593 35.4397 106.331 35.8721C107.964 35.9952 109.005 37.1932 108.663 38.8612C108.532 39.5055 107.482 40.6198 106.838 40.6198H98.8433L98.845 40.6232ZM111.89 10.1153L113.5 7.0356L105.75 2.6075C105.562 3.09628 103.984 5.31802 104.145 5.62907L111.89 10.1153ZM104.066 20.0089C104.025 19.9405 103.128 19.2774 102.885 18.9493C100.816 16.1516 103.15 12.2464 106.584 12.5541C107.206 12.6105 107.72 12.9352 108.313 13.0121L109.709 10.4503L104.791 7.5654L96.4131 22.1076L101.4 25.1138L104.018 20.4908C104.087 20.349 104.152 20.1541 104.066 20.0089ZM105.722 13.8683C102.314 14.3451 102.872 19.7987 106.573 19.3338C110.039 18.898 109.513 13.3385 105.722 13.8683ZM119.249 14.7314H109.846C110.349 16.0132 110.349 17.1668 109.846 18.4485H116.306C119.089 18.4485 121.555 21.3624 121.748 24.0183C122.079 28.5318 121.486 33.4436 121.748 37.9999C121.741 40.466 118.882 43.4431 116.434 43.4431H105.625L106.766 43.9012L110.576 47.1347C113.303 47.0184 116.301 47.3791 118.998 47.1654C122.628 46.8783 125.326 43.7217 125.586 40.1806C126.025 34.2195 125.244 27.7303 125.586 21.7128C125.453 18.3614 122.607 15.1108 119.249 14.7314ZM98.0623 27.7884C98.1204 27.2364 99.3406 25.8726 99.2176 25.4522C99.1749 25.3052 97.242 24.1567 97.0078 24.2251C96.866 24.2678 95.6184 26.4178 95.6543 26.5733C96.0268 26.8142 97.7547 27.9815 98.0606 27.7884H98.0623ZM88.2678 37.4598C87.5381 38.1298 88.1345 39.2868 89.0557 39.3449H106.332C107.766 39.1107 107.766 37.3949 106.332 37.1607L89.1804 37.1573C88.8984 37.1607 88.4729 37.2735 88.2678 37.4615V37.4598ZM97.565 40.6232H92.3199V47.1603H100.188L103.846 44.0311L104.986 43.4431H98.1409C98.0127 43.4431 97.565 42.9954 97.565 42.8655V40.6232ZM104.953 44.8839C104.695 44.9505 103.926 45.6546 103.646 45.8802C101.109 47.9294 98.7168 50.1853 96.2199 52.284C95.5004 53.1761 95.979 54.2391 97.1121 54.3434C102.349 54.8253 108.313 53.964 113.626 54.3434C114.773 54.3519 115.281 52.9778 114.515 52.1592L106.131 45.0513C105.814 44.8138 105.329 44.7864 104.951 44.8856L104.953 44.8839Z"/>
</mask>
<path d="M98.845 40.6232C98.9271 41.0778 98.5938 42.0554 99.1646 42.1614H115.794C118.27 42.0264 120.187 40.3669 120.449 37.8512C120.902 33.5102 120.157 28.4549 120.449 24.0388C120.251 21.9298 118.591 20.0499 116.44 19.8516C114.792 19.7013 110.319 19.6346 108.752 19.8516C108.241 19.9217 107.718 20.4532 107.038 20.5694C106.486 20.6634 105.944 20.5917 105.394 20.6532L102.046 26.4622C101.361 27.0706 100.575 25.9939 100.38 26.1375C99.8875 26.9441 99.3372 28.3917 98.7732 29.0804C98.1238 29.8734 97.1821 28.9967 96.4541 28.5951C96.0644 28.3797 94.2153 27.3406 94.1315 27.074C93.8529 26.1717 96.073 23.7585 95.7636 23.3278C95.5893 23.0868 94.5041 23.1432 94.8014 22.1606L103.519 7.04415L103.576 6.78437C102.882 6.53827 102.258 6.29559 102.586 5.47355C102.853 4.80702 104.541 1.84698 104.982 1.33427C105.25 1.02151 105.466 0.913844 105.883 1.07278C108.675 2.80745 111.723 4.28064 114.488 6.03924C115.13 6.4477 115.276 6.52802 114.948 7.34665L112.534 11.4654C111.859 12.0653 111.184 11.0877 110.938 11.1424C110.817 11.168 109.791 13.0018 109.716 13.3197C112.391 13.4274 115.175 13.1762 117.838 13.3214C122.572 13.5812 126.513 16.4661 126.863 21.453C127.299 27.6363 126.521 34.3255 126.863 40.5617C126.711 44.4874 122.676 48.5685 118.735 48.5685H112.403C113.24 49.7597 115.547 50.8193 116.045 52.1609C116.624 53.7247 115.604 55.5346 113.879 55.6234C108.376 55.3055 102.434 56.0285 96.9822 55.6234C95.2578 55.4953 94.3007 54.0699 94.6493 52.378C94.9142 51.0962 97.6008 49.5871 98.4588 48.5668H91.4859C91.45 48.5668 91.1766 48.2575 91.1048 48.1806L91.0382 40.6198H88.543C88.4866 40.6198 87.779 40.2883 87.6679 40.2148C86.0187 39.1313 86.475 36.3455 88.4712 35.9337C94.2665 36.1592 100.593 35.4397 106.331 35.8721C107.964 35.9952 109.005 37.1932 108.663 38.8612C108.532 39.5055 107.482 40.6198 106.838 40.6198H98.8433L98.845 40.6232ZM111.89 10.1153L113.5 7.0356L105.75 2.6075C105.562 3.09628 103.984 5.31802 104.145 5.62907L111.89 10.1153ZM104.066 20.0089C104.025 19.9405 103.128 19.2774 102.885 18.9493C100.816 16.1516 103.15 12.2464 106.584 12.5541C107.206 12.6105 107.72 12.9352 108.313 13.0121L109.709 10.4503L104.791 7.5654L96.4131 22.1076L101.4 25.1138L104.018 20.4908C104.087 20.349 104.152 20.1541 104.066 20.0089ZM105.722 13.8683C102.314 14.3451 102.872 19.7987 106.573 19.3338C110.039 18.898 109.513 13.3385 105.722 13.8683ZM119.249 14.7314H109.846C110.349 16.0132 110.349 17.1668 109.846 18.4485H116.306C119.089 18.4485 121.555 21.3624 121.748 24.0183C122.079 28.5318 121.486 33.4436 121.748 37.9999C121.741 40.466 118.882 43.4431 116.434 43.4431H105.625L106.766 43.9012L110.576 47.1347C113.303 47.0184 116.301 47.3791 118.998 47.1654C122.628 46.8783 125.326 43.7217 125.586 40.1806C126.025 34.2195 125.244 27.7303 125.586 21.7128C125.453 18.3614 122.607 15.1108 119.249 14.7314ZM98.0623 27.7884C98.1204 27.2364 99.3406 25.8726 99.2176 25.4522C99.1749 25.3052 97.242 24.1567 97.0078 24.2251C96.866 24.2678 95.6184 26.4178 95.6543 26.5733C96.0268 26.8142 97.7547 27.9815 98.0606 27.7884H98.0623ZM88.2678 37.4598C87.5381 38.1298 88.1345 39.2868 89.0557 39.3449H106.332C107.766 39.1107 107.766 37.3949 106.332 37.1607L89.1804 37.1573C88.8984 37.1607 88.4729 37.2735 88.2678 37.4615V37.4598ZM97.565 40.6232H92.3199V47.1603H100.188L103.846 44.0311L104.986 43.4431H98.1409C98.0127 43.4431 97.565 42.9954 97.565 42.8655V40.6232ZM104.953 44.8839C104.695 44.9505 103.926 45.6546 103.646 45.8802C101.109 47.9294 98.7168 50.1853 96.2199 52.284C95.5004 53.1761 95.979 54.2391 97.1121 54.3434C102.349 54.8253 108.313 53.964 113.626 54.3434C114.773 54.3519 115.281 52.9778 114.515 52.1592L106.131 45.0513C105.814 44.8138 105.329 44.7864 104.951 44.8856L104.953 44.8839Z" fill="#1F1C1C"/>
<path d="M98.845 40.6232C98.9271 41.0778 98.5938 42.0554 99.1646 42.1614H115.794C118.27 42.0264 120.187 40.3669 120.449 37.8512C120.902 33.5102 120.157 28.4549 120.449 24.0388C120.251 21.9298 118.591 20.0499 116.44 19.8516C114.792 19.7013 110.319 19.6346 108.752 19.8516C108.241 19.9217 107.718 20.4532 107.038 20.5694C106.486 20.6634 105.944 20.5917 105.394 20.6532L102.046 26.4622C101.361 27.0706 100.575 25.9939 100.38 26.1375C99.8875 26.9441 99.3372 28.3917 98.7732 29.0804C98.1238 29.8734 97.1821 28.9967 96.4541 28.5951C96.0644 28.3797 94.2153 27.3406 94.1315 27.074C93.8529 26.1717 96.073 23.7585 95.7636 23.3278C95.5893 23.0868 94.5041 23.1432 94.8014 22.1606L103.519 7.04415L103.576 6.78437C102.882 6.53827 102.258 6.29559 102.586 5.47355C102.853 4.80702 104.541 1.84698 104.982 1.33427C105.25 1.02151 105.466 0.913844 105.883 1.07278C108.675 2.80745 111.723 4.28064 114.488 6.03924C115.13 6.4477 115.276 6.52802 114.948 7.34665L112.534 11.4654C111.859 12.0653 111.184 11.0877 110.938 11.1424C110.817 11.168 109.791 13.0018 109.716 13.3197C112.391 13.4274 115.175 13.1762 117.838 13.3214C122.572 13.5812 126.513 16.4661 126.863 21.453C127.299 27.6363 126.521 34.3255 126.863 40.5617C126.711 44.4874 122.676 48.5685 118.735 48.5685H112.403C113.24 49.7597 115.547 50.8193 116.045 52.1609C116.624 53.7247 115.604 55.5346 113.879 55.6234C108.376 55.3055 102.434 56.0285 96.9822 55.6234C95.2578 55.4953 94.3007 54.0699 94.6493 52.378C94.9142 51.0962 97.6008 49.5871 98.4588 48.5668H91.4859C91.45 48.5668 91.1766 48.2575 91.1048 48.1806L91.0382 40.6198H88.543C88.4866 40.6198 87.779 40.2883 87.6679 40.2148C86.0187 39.1313 86.475 36.3455 88.4712 35.9337C94.2665 36.1592 100.593 35.4397 106.331 35.8721C107.964 35.9952 109.005 37.1932 108.663 38.8612C108.532 39.5055 107.482 40.6198 106.838 40.6198H98.8433L98.845 40.6232ZM111.89 10.1153L113.5 7.0356L105.75 2.6075C105.562 3.09628 103.984 5.31802 104.145 5.62907L111.89 10.1153ZM104.066 20.0089C104.025 19.9405 103.128 19.2774 102.885 18.9493C100.816 16.1516 103.15 12.2464 106.584 12.5541C107.206 12.6105 107.72 12.9352 108.313 13.0121L109.709 10.4503L104.791 7.5654L96.4131 22.1076L101.4 25.1138L104.018 20.4908C104.087 20.349 104.152 20.1541 104.066 20.0089ZM105.722 13.8683C102.314 14.3451 102.872 19.7987 106.573 19.3338C110.039 18.898 109.513 13.3385 105.722 13.8683ZM119.249 14.7314H109.846C110.349 16.0132 110.349 17.1668 109.846 18.4485H116.306C119.089 18.4485 121.555 21.3624 121.748 24.0183C122.079 28.5318 121.486 33.4436 121.748 37.9999C121.741 40.466 118.882 43.4431 116.434 43.4431H105.625L106.766 43.9012L110.576 47.1347C113.303 47.0184 116.301 47.3791 118.998 47.1654C122.628 46.8783 125.326 43.7217 125.586 40.1806C126.025 34.2195 125.244 27.7303 125.586 21.7128C125.453 18.3614 122.607 15.1108 119.249 14.7314ZM98.0623 27.7884C98.1204 27.2364 99.3406 25.8726 99.2176 25.4522C99.1749 25.3052 97.242 24.1567 97.0078 24.2251C96.866 24.2678 95.6184 26.4178 95.6543 26.5733C96.0268 26.8142 97.7547 27.9815 98.0606 27.7884H98.0623ZM88.2678 37.4598C87.5381 38.1298 88.1345 39.2868 89.0557 39.3449H106.332C107.766 39.1107 107.766 37.3949 106.332 37.1607L89.1804 37.1573C88.8984 37.1607 88.4729 37.2735 88.2678 37.4615V37.4598ZM97.565 40.6232H92.3199V47.1603H100.188L103.846 44.0311L104.986 43.4431H98.1409C98.0127 43.4431 97.565 42.9954 97.565 42.8655V40.6232ZM104.953 44.8839C104.695 44.9505 103.926 45.6546 103.646 45.8802C101.109 47.9294 98.7168 50.1853 96.2199 52.284C95.5004 53.1761 95.979 54.2391 97.1121 54.3434C102.349 54.8253 108.313 53.964 113.626 54.3434C114.773 54.3519 115.281 52.9778 114.515 52.1592L106.131 45.0513C105.814 44.8138 105.329 44.7864 104.951 44.8856L104.953 44.8839Z" stroke="black" stroke-width="0.8" mask="url(#path-41-outside-1_649_391)"/>
<path d="M79.3389 49.9629C77.8907 49.4786 76.4404 49.0186 74.6367 49.1807L74.5332 49.1914C73.4297 49.3043 72.6422 49.6237 71.9775 50.126C71.3069 50.6328 70.7502 51.3337 70.1201 52.2314C69.7356 52.7802 69.4897 53.3433 69.5068 53.8076C69.5152 54.0331 69.5851 54.2345 69.7334 54.4072C69.8798 54.5777 70.113 54.7326 70.4697 54.8486L90.5742 54.9082C91.0036 54.8369 91.3081 54.668 91.4961 54.4287C91.6817 54.1924 91.7722 53.8637 91.7295 53.4326C91.4399 52.6233 90.9238 51.9279 90.3291 51.2559C89.7727 50.6271 89.1244 49.9933 88.584 49.3369C88.2683 49.4573 87.9478 49.5901 87.6211 49.7275C87.2497 49.8837 86.8694 50.0447 86.4844 50.1934C85.7147 50.4906 84.9122 50.743 84.084 50.8164C82.2886 50.9744 80.81 50.4548 79.3389 49.9629ZM78.3223 42.5449L78.2871 42.5957C77.6689 43.4918 76.9496 44.3118 76.2266 45.1133C75.5067 45.9112 74.7842 46.6892 74.1367 47.5195C75.6244 47.2438 77.0902 47.4444 78.5283 47.832C79.3435 48.0514 80.1409 48.39 80.9121 48.6602C81.6942 48.9341 82.4729 49.1474 83.3037 49.1475C84.7101 49.1475 86.1195 48.5617 87.4004 47.9268L82.959 42.6094L82.9121 42.5537V23.6475H78.3223V42.5449ZM84.7197 42.0273C85.8309 43.5339 87.0772 44.9437 88.3408 46.3506C89.6169 47.7713 90.9118 49.1906 92.0918 50.6924C92.1638 50.784 92.2443 50.8816 92.3291 50.9854C92.4134 51.0886 92.5021 51.1976 92.5879 51.3076C92.7578 51.5256 92.9249 51.7592 93.0352 51.9834L93.123 52.1738C93.5371 53.1294 93.5522 54.1447 93.1816 54.9678C92.7831 55.8526 91.9475 56.494 90.7441 56.5938H90.7275L70.3818 56.5889H70.3672L70.3525 56.5869C69.2695 56.4235 68.4891 55.8083 68.0938 54.9814C67.7001 54.1581 67.6952 53.1405 68.123 52.1758L68.1309 52.1562L68.1436 52.1396C69.4253 50.3634 70.851 48.6993 72.29 47.0547C73.7158 45.4253 75.1521 43.8154 76.4863 42.126L76.5068 23.1191H76.5078C76.4964 22.9261 76.5414 22.6911 76.6328 22.4893C76.7242 22.2875 76.884 22.0711 77.1289 21.998L77.1562 21.9893H77.1865L83.8145 21.96V21.959L83.8154 21.96L83.8213 21.959V21.96C84.0424 21.9537 84.221 22.0278 84.3594 22.1543C84.4928 22.2763 84.5809 22.4387 84.6455 22.5947L84.6611 22.6309V22.6709L84.7197 42.0273Z" fill="#1F1C1C" stroke="black" stroke-width="0.4"/>
<defs>
<filter id="filter0_d_649_391" x="-166.167" y="-168.011" width="529.33" height="453.724" filterUnits="userSpaceOnUse" color-interpolation-filters="sRGB">
<feFlood flood-opacity="0" result="BackgroundImageFix"/>
<feColorMatrix in="SourceAlpha" type="matrix" values="0 0 0 0 0 0 0 0 0 0 0 0 0 0 0 0 0 0 127 0" result="hardAlpha"/>
<feOffset dy="43.3165"/>
<feGaussianBlur stdDeviation="17.5814"/>
<feComposite in2="hardAlpha" operator="out"/>
<feColorMatrix type="matrix" values="0 0 0 0 0.870588 0 0 0 0 0.419608 0 0 0 0 0.278431 0 0 0 0.13 0"/>
<feBlend mode="normal" in2="BackgroundImageFix" result="effect1_dropShadow_649_391"/>
<feBlend mode="normal" in="SourceGraphic" in2="effect1_dropShadow_649_391" result="shape"/>
</filter>
</defs>
</svg>
