<svg width="70" height="70" viewBox="0 0 70 70" fill="none" xmlns="http://www.w3.org/2000/svg">
<path d="M52.9955 67.5947H67.7424V65.4366H55.6931C54.9774 65.4366 54.9809 63.2785 55.6931 63.2785H69.0013C70.1379 63.2785 70.4436 68.9615 69.1811 69.5729L1.38851 69.742C-0.697639 69.6916 -0.100569 63.2785 1.01804 63.2785H14.3262C15.0384 63.2785 15.042 65.4366 14.3262 65.4366H2.28052V67.5947H17.0274V50.8695C17.0274 49.6502 19.2862 48.6179 20.4264 48.5136C29.7925 47.6612 40.4391 49.1934 49.9454 48.5208C50.8986 48.2654 52.9955 50.1969 52.9955 50.8659V67.5911V67.5947ZM20.1567 50.7616C19.8365 50.8551 19.5092 51.1069 19.3618 51.4055C19.0416 52.0637 18.9805 64.5338 19.1675 65.9905C19.2467 66.602 19.3042 67.0803 19.9013 67.4149L49.2332 67.6091C49.7943 67.6091 50.3986 67.4041 50.6576 66.8753C50.9777 66.2207 51.0352 53.7254 50.8518 52.2903C50.7727 51.6788 50.7151 51.2004 50.1181 50.8659L20.1567 50.7616Z" fill="#0D0D0D"/>
<path d="M5.52582 31.6271C5.46108 31.5192 3.95761 31.0337 3.36414 30.3718C1.22404 27.98 2.44695 23.7393 5.69487 23.3473C7.54003 23.1243 8.31334 23.8364 9.84558 23.9336L21.118 16.5565C21.9057 15.6825 20.3411 12.9921 23.3804 11.1829C25.1464 10.1326 27.5743 10.3808 28.8511 12.0785C29.387 12.7906 29.7503 14.7401 30.0668 15.0027C30.4337 15.3084 38.3575 17.3946 39.2459 17.5204C41.9939 17.9053 43.5261 14.3013 47.0078 16.4342L59.3089 6.44587C59.8088 5.65457 58.6075 4.26621 59.7657 2.2412C62.6251 -2.76196 69.9303 1.48947 67.1823 6.42069C66.6464 7.38464 64.7437 8.34139 64.571 8.84494C64.4775 9.1183 64.5782 14.9955 62.6899 12.4058C61.5065 10.78 63.8157 7.55369 60.5642 8.05364L49.022 17.7506C48.1228 19.1246 49.3997 21.3079 47.5833 23.1459C47.2236 23.5091 45.4504 24.3508 45.4504 24.6098V33.2421C45.4504 33.6521 44.0872 34.0154 43.6844 33.7456C42.7564 33.1306 43.6664 25.8039 43.3067 24.3076C43.2455 24.0558 41.5443 23.5235 40.9652 22.6171C40.4652 21.8402 40.4976 20.7612 40.0875 20.2576C39.2962 19.2901 31.4444 17.9413 29.7899 17.2075C28.754 17.2183 27.639 18.6031 26.8045 19.2685C26.4449 21.2072 27.2397 33.1558 26.3549 33.742C25.9521 34.0082 24.5889 33.6449 24.5889 33.2385V19.2109C24.5889 18.7937 22.6179 17.9629 22.0639 18.4628L10.5901 25.9118C11.2304 27.4764 10.734 29.5733 9.46073 30.6991C8.96796 31.1344 7.96445 31.1883 7.74145 31.8573C7.21632 33.4471 8.5939 39.8566 6.73075 40.1803C6.60846 40.2019 5.52582 39.9537 5.52582 39.8926C5.52582 38.702 5.74522 31.9724 5.52582 31.6199V31.6271ZM62.9812 2.19085C60.352 2.66922 60.9742 6.92425 63.8876 6.39552C66.5169 5.91714 65.8946 1.66212 62.9812 2.19085ZM24.4666 12.9849C23.0063 13.4884 23.2005 16.6176 25.15 16.891C28.6893 17.3838 28.272 11.6756 24.4666 12.9849ZM43.9146 18.0132C41.7277 18.5959 42.2672 22.6099 44.8281 22.2179C47.7487 21.7719 46.6625 17.2795 43.9146 18.0132ZM5.78479 25.5881C3.99717 26.1204 4.00796 28.872 5.78479 29.3971C9.59381 30.5265 9.59021 24.4551 5.78479 25.5881Z" fill="#0D0D0D"/>
<path d="M65.5895 16.8796C64.8234 16.9515 61.2733 16.5631 61.2733 17.4191V60.5808C61.2733 61.293 59.1152 61.2966 59.1152 60.5808V15.6207C59.1152 14.9769 60.5396 14.7539 61.0719 14.6999C62.1545 14.592 67.7476 14.4122 67.7476 15.6207V60.5808C67.7476 61.293 65.5895 61.2966 65.5895 60.5808V16.8796Z" fill="#0E0E0E"/>
<path d="M56.2399 24.4325H51.9237V45.8335C51.9237 46.5457 49.7656 46.5493 49.7656 45.8335V22.8139C49.7656 22.7744 50.2656 22.2744 50.3051 22.2744H57.4988C57.5383 22.2744 58.0383 22.7744 58.0383 22.8139V60.5804C58.0383 61.2566 56.2399 61.2566 56.2399 60.5804V24.4325Z" fill="#060606"/>
<path d="M18.1129 31.626C17.3467 31.6979 13.7967 31.3095 13.7967 32.1655V60.5803C13.7967 60.9688 11.8904 62.2097 11.6386 59.5049C10.7898 50.4337 12.2069 40.0174 11.7177 30.8059C11.9695 29.8024 12.2501 29.565 13.2356 29.4463C14.3182 29.3169 20.271 29.1586 20.271 30.3671V45.8334C20.271 46.5456 18.1129 46.5492 18.1129 45.8334V31.626Z" fill="#070707"/>
<path d="M8.75746 61.1196V44.5742H4.44129V60.58C4.44129 61.2958 2.2832 61.2922 2.2832 60.58V42.9557C2.2832 42.3119 3.70754 42.0889 4.23987 42.0349C5.32251 41.927 10.9155 41.7472 10.9155 42.9557V60.58C10.9155 61.1304 9.2718 61.2131 8.75746 61.1196Z" fill="#101010"/>
<path d="M30.6953 30.366C30.796 30.0099 31.5406 29.5567 31.965 29.4775C33.0512 29.2689 39.3277 29.1754 39.3277 30.366V45.8322C39.3277 46.5444 37.1696 46.548 37.1696 45.8322V32.1644C37.1696 31.3659 32.8534 31.3659 32.8534 32.1644V45.8322C32.8534 46.5444 30.6953 46.548 30.6953 45.8322V30.366Z" fill="#0E0E0E"/>
<path d="M46.5211 38.0995H42.5646V45.4729C42.5646 46.775 40.0469 46.775 40.0469 45.4729V36.8406C40.0469 36.7759 40.8813 35.9414 40.9461 35.9414H48.1397C48.1793 35.9414 48.6792 36.4414 48.6792 36.4809V45.8326C48.6792 46.5448 46.5211 46.5484 46.5211 45.8326V38.0995Z" fill="#0E0E0E"/>
<path d="M29.0749 35.9422C30.3554 36.3306 30.1108 43.6933 29.9382 45.0853C29.6612 47.3189 27.4564 46.4916 27.4564 45.4737V38.1003H23.4999V45.8334C23.4999 46.5492 21.3418 46.5456 21.3418 45.8334V36.4817C21.3418 36.4421 21.8418 35.9422 21.8813 35.9422C23.3956 35.9422 28.0534 35.6328 29.0749 35.9422Z" fill="#0E0E0E"/>
<path d="M5.78198 25.5881C9.5874 24.4587 9.591 30.5265 5.78198 29.3971C4.00516 28.872 3.99437 26.1168 5.78198 25.5881Z" fill="#F5F4F5"/>
<path d="M43.9119 18.012C46.6598 17.2783 47.7497 21.7671 44.8255 22.2167C42.2645 22.6087 41.725 18.5983 43.9119 18.012Z" fill="#F5F4F5"/>
<path d="M24.466 12.9852C28.2678 11.676 28.6886 17.3841 25.1494 16.8913C23.1999 16.618 23.0057 13.4888 24.466 12.9852Z" fill="#F5F4F5"/>
<path d="M41.6762 52.8474C44.0393 53.3582 45.0356 57.0054 43.9674 59.0951C42.4711 62.0229 38.7448 60.9475 36.0975 61.1165C35.9321 62.0769 36.4177 64.3932 35.9357 65.091C35.4537 65.7888 33.9395 65.3607 33.9395 64.8932V53.3834C33.9395 53.3438 34.4394 52.8438 34.479 52.8438C36.3241 52.8438 40.1511 52.5129 41.6726 52.8438L41.6762 52.8474ZM36.1011 58.962H41.3165C42.1438 58.962 42.4171 56.7248 42.1546 55.9623C41.6294 54.4228 37.4679 55.171 36.0975 55.0019V58.962H36.1011Z" fill="#0D0D0D"/>
<path d="M21.3418 53.3881C21.5288 52.7659 22.9136 52.5752 23.338 53.1903C23.9243 54.0427 23.1042 56.7979 23.6797 57.8805C25.5644 56.8626 28.2405 53.8161 29.9885 53.0356C30.5244 52.7982 31.2294 52.6364 31.6143 53.1867C32.8228 54.9096 27.8808 56.7799 27.1111 58.0999C26.9312 58.9596 33.8659 64.6713 31.2222 65.4338C29.708 65.869 25.8558 59.7041 25.4422 59.6502C22.2518 59.2437 24.1221 64.7289 23.1078 65.4015C22.705 65.6676 21.3418 65.3043 21.3418 64.8979V53.3881Z" fill="#0B0B0B"/>
<path d="M48.6776 64.8973C48.4258 65.7138 46.5195 65.7426 46.5195 64.5376V53.3875C46.5195 52.6754 48.6776 52.6718 48.6776 53.3875V64.8973Z" fill="#0D0D0D"/>
</svg>
