<svg width="49" height="52" viewBox="0 0 49 52" fill="none" xmlns="http://www.w3.org/2000/svg">
<mask id="path-1-outside-1_448_614" maskUnits="userSpaceOnUse" x="0" y="0" width="49" height="52" fill="black">
<rect fill="white" width="49" height="52"/>
<path d="M1.29985 22.7358C0.516581 22.4941 1.49214 18.8847 1.69501 18.1914C2.47475 15.5206 4.1242 12.1511 7.03323 11.4437C2.03725 7.08986 6.62395 -0.945689 12.9024 1.43058C17.0411 2.99535 17.7996 8.53644 14.6189 11.4437C18.7928 12.8656 19.9554 18.0556 20.6593 21.8996L24.3075 26.504C24.6497 26.9291 24.6814 26.3717 24.849 26.1829C25.5917 25.3361 27.9733 22.7252 28.3385 21.9014C28.6842 21.1181 28.7954 19.4351 29.0829 18.412C29.8433 15.7058 31.4468 12.2852 34.377 11.4437C29.7939 7.09692 33.7631 -0.518773 40.0151 1.31062C44.4413 2.60724 45.461 8.50997 41.9645 11.4437C44.8735 12.1493 46.5247 15.5206 47.3027 18.1914C47.4544 18.7136 48.5058 22.7358 47.6979 22.7358H29.7039C28.0968 24.4258 26.629 26.2729 25.2477 28.1587C25.2689 30.6902 24.9813 33.3787 25.403 35.8555L30.9388 42.4904C31.8032 41.3596 32.9022 40.0612 34.3788 39.846C34.5499 39.6572 33.4809 38.6834 33.285 38.3818C31.4063 35.4851 32.5688 31.4047 35.6684 29.9352C40.7896 27.5077 46.1084 33.0894 43.3423 38.1383C42.9842 38.791 42.3579 39.1703 42.1391 39.8442C45.5315 40.6875 47.6873 46.1509 47.9378 49.3052C47.9678 49.6774 48.0683 51.1363 47.5197 51.1363H28.9965C27.9609 51.1363 28.6789 48.4337 28.8183 47.7827C29.127 46.3485 29.7939 45.0713 29.9385 43.6776C29.1694 42.9773 24.999 37.288 24.5615 37.2139C24.318 37.1716 24.034 37.5667 23.8788 37.7273C22.1993 39.4685 20.7651 41.8941 19.0627 43.6759C18.851 44.3674 19.6431 45.7046 19.8619 46.5108C20.0806 47.317 20.8339 50.2419 20.4529 50.8382C20.3929 50.9317 20.07 51.1363 19.9995 51.1363H1.47626C0.929384 51.1363 1.02994 49.6792 1.05816 49.3052C1.3069 46.1492 3.46442 40.6857 6.85682 39.8442L5.30969 37.4238C3.37445 32.4931 8.52038 27.6559 13.3294 29.9334C16.4289 31.4029 17.5932 35.4833 15.7127 38.38C15.5169 38.6817 14.4478 39.6554 14.6189 39.8442C16.0955 40.0594 17.1928 41.3578 18.059 42.4886L23.5948 35.8538C24.0181 33.377 23.7288 30.6884 23.75 28.1569L19.4702 22.734H1.29985V22.7358ZM10.1663 2.4961C4.5176 3.27937 5.41377 12.0594 11.5176 11.2549C16.9511 10.5387 16.0143 1.68461 10.1663 2.4961ZM41.37 3.74686C37.055 -0.568168 30.6759 6.40891 35.4337 10.3006C39.7788 13.8535 45.2546 7.63144 41.37 3.74686ZM4.56346 21.3245V17.3553C4.56346 16.8172 5.97476 16.8172 5.97476 17.3553V21.3245H15.501V17.3553C15.501 16.8172 16.9123 16.8172 16.9123 17.3553V21.3245H19.0292C18.7734 18.5302 16.9987 13.1884 13.7792 12.7262C12.5143 12.5445 7.94175 12.5269 6.85858 12.9467C4.33589 13.9258 2.79406 18.8583 2.44652 21.3227H4.56346V21.3245ZM32.0837 21.3245V17.3553C32.0837 16.8172 33.495 16.8172 33.495 17.3553V21.3245H43.0212V17.3553C43.0212 16.8172 44.4325 16.8172 44.4325 17.3553V21.3245H46.5494C46.2019 18.8583 44.6601 13.9258 42.1374 12.9467C41.0542 12.5269 36.4816 12.5445 35.2168 12.7262C31.9955 13.1884 30.2208 18.5302 29.9667 21.3245H32.0837ZM9.80995 30.8931C4.59875 31.7804 5.60076 40.3576 11.3412 39.6572C17.0746 38.9569 16.0937 29.824 9.80995 30.8931ZM37.3302 30.8931C32.1578 31.7222 32.9357 40.2235 38.6797 39.6519C44.4237 39.0803 43.6633 29.877 37.3302 30.8931ZM4.56346 49.7268V45.7575C4.56346 45.3112 5.97476 45.1242 5.97476 45.5811V49.7268H15.501V45.7575C15.501 45.3112 16.9123 45.1242 16.9123 45.5811V49.7268H19.0292C18.904 47.1318 16.8982 41.4972 13.9856 41.0985C12.9183 40.9521 8.13227 40.9309 7.20435 41.1655C4.45409 41.8641 2.72349 47.2023 2.44652 49.725H4.56346V49.7268ZM32.0837 49.7268V45.5811C32.0837 45.1242 33.495 45.3112 33.495 45.7575V49.7268H43.0212V45.5811C43.0212 45.1242 44.4325 45.3112 44.4325 45.7575V49.7268H46.5494C46.2831 47.2164 44.5154 41.8588 41.7916 41.1655C40.8637 40.9291 36.0776 40.9521 35.0103 41.0985C32.0978 41.4972 30.092 47.1335 29.9667 49.7268H32.0837Z"/>
</mask>
<path d="M1.29985 22.7358C0.516581 22.4941 1.49214 18.8847 1.69501 18.1914C2.47475 15.5206 4.1242 12.1511 7.03323 11.4437C2.03725 7.08986 6.62395 -0.945689 12.9024 1.43058C17.0411 2.99535 17.7996 8.53644 14.6189 11.4437C18.7928 12.8656 19.9554 18.0556 20.6593 21.8996L24.3075 26.504C24.6497 26.9291 24.6814 26.3717 24.849 26.1829C25.5917 25.3361 27.9733 22.7252 28.3385 21.9014C28.6842 21.1181 28.7954 19.4351 29.0829 18.412C29.8433 15.7058 31.4468 12.2852 34.377 11.4437C29.7939 7.09692 33.7631 -0.518773 40.0151 1.31062C44.4413 2.60724 45.461 8.50997 41.9645 11.4437C44.8735 12.1493 46.5247 15.5206 47.3027 18.1914C47.4544 18.7136 48.5058 22.7358 47.6979 22.7358H29.7039C28.0968 24.4258 26.629 26.2729 25.2477 28.1587C25.2689 30.6902 24.9813 33.3787 25.403 35.8555L30.9388 42.4904C31.8032 41.3596 32.9022 40.0612 34.3788 39.846C34.5499 39.6572 33.4809 38.6834 33.285 38.3818C31.4063 35.4851 32.5688 31.4047 35.6684 29.9352C40.7896 27.5077 46.1084 33.0894 43.3423 38.1383C42.9842 38.791 42.3579 39.1703 42.1391 39.8442C45.5315 40.6875 47.6873 46.1509 47.9378 49.3052C47.9678 49.6774 48.0683 51.1363 47.5197 51.1363H28.9965C27.9609 51.1363 28.6789 48.4337 28.8183 47.7827C29.127 46.3485 29.7939 45.0713 29.9385 43.6776C29.1694 42.9773 24.999 37.288 24.5615 37.2139C24.318 37.1716 24.034 37.5667 23.8788 37.7273C22.1993 39.4685 20.7651 41.8941 19.0627 43.6759C18.851 44.3674 19.6431 45.7046 19.8619 46.5108C20.0806 47.317 20.8339 50.2419 20.4529 50.8382C20.3929 50.9317 20.07 51.1363 19.9995 51.1363H1.47626C0.929384 51.1363 1.02994 49.6792 1.05816 49.3052C1.3069 46.1492 3.46442 40.6857 6.85682 39.8442L5.30969 37.4238C3.37445 32.4931 8.52038 27.6559 13.3294 29.9334C16.4289 31.4029 17.5932 35.4833 15.7127 38.38C15.5169 38.6817 14.4478 39.6554 14.6189 39.8442C16.0955 40.0594 17.1928 41.3578 18.059 42.4886L23.5948 35.8538C24.0181 33.377 23.7288 30.6884 23.75 28.1569L19.4702 22.734H1.29985V22.7358ZM10.1663 2.4961C4.5176 3.27937 5.41377 12.0594 11.5176 11.2549C16.9511 10.5387 16.0143 1.68461 10.1663 2.4961ZM41.37 3.74686C37.055 -0.568168 30.6759 6.40891 35.4337 10.3006C39.7788 13.8535 45.2546 7.63144 41.37 3.74686ZM4.56346 21.3245V17.3553C4.56346 16.8172 5.97476 16.8172 5.97476 17.3553V21.3245H15.501V17.3553C15.501 16.8172 16.9123 16.8172 16.9123 17.3553V21.3245H19.0292C18.7734 18.5302 16.9987 13.1884 13.7792 12.7262C12.5143 12.5445 7.94175 12.5269 6.85858 12.9467C4.33589 13.9258 2.79406 18.8583 2.44652 21.3227H4.56346V21.3245ZM32.0837 21.3245V17.3553C32.0837 16.8172 33.495 16.8172 33.495 17.3553V21.3245H43.0212V17.3553C43.0212 16.8172 44.4325 16.8172 44.4325 17.3553V21.3245H46.5494C46.2019 18.8583 44.6601 13.9258 42.1374 12.9467C41.0542 12.5269 36.4816 12.5445 35.2168 12.7262C31.9955 13.1884 30.2208 18.5302 29.9667 21.3245H32.0837ZM9.80995 30.8931C4.59875 31.7804 5.60076 40.3576 11.3412 39.6572C17.0746 38.9569 16.0937 29.824 9.80995 30.8931ZM37.3302 30.8931C32.1578 31.7222 32.9357 40.2235 38.6797 39.6519C44.4237 39.0803 43.6633 29.877 37.3302 30.8931ZM4.56346 49.7268V45.7575C4.56346 45.3112 5.97476 45.1242 5.97476 45.5811V49.7268H15.501V45.7575C15.501 45.3112 16.9123 45.1242 16.9123 45.5811V49.7268H19.0292C18.904 47.1318 16.8982 41.4972 13.9856 41.0985C12.9183 40.9521 8.13227 40.9309 7.20435 41.1655C4.45409 41.8641 2.72349 47.2023 2.44652 49.725H4.56346V49.7268ZM32.0837 49.7268V45.5811C32.0837 45.1242 33.495 45.3112 33.495 45.7575V49.7268H43.0212V45.5811C43.0212 45.1242 44.4325 45.3112 44.4325 45.7575V49.7268H46.5494C46.2831 47.2164 44.5154 41.8588 41.7916 41.1655C40.8637 40.9291 36.0776 40.9521 35.0103 41.0985C32.0978 41.4972 30.092 47.1335 29.9667 49.7268H32.0837Z" fill="#333233"/>
<path d="M1.29985 22.7358C0.516581 22.4941 1.49214 18.8847 1.69501 18.1914C2.47475 15.5206 4.1242 12.1511 7.03323 11.4437C2.03725 7.08986 6.62395 -0.945689 12.9024 1.43058C17.0411 2.99535 17.7996 8.53644 14.6189 11.4437C18.7928 12.8656 19.9554 18.0556 20.6593 21.8996L24.3075 26.504C24.6497 26.9291 24.6814 26.3717 24.849 26.1829C25.5917 25.3361 27.9733 22.7252 28.3385 21.9014C28.6842 21.1181 28.7954 19.4351 29.0829 18.412C29.8433 15.7058 31.4468 12.2852 34.377 11.4437C29.7939 7.09692 33.7631 -0.518773 40.0151 1.31062C44.4413 2.60724 45.461 8.50997 41.9645 11.4437C44.8735 12.1493 46.5247 15.5206 47.3027 18.1914C47.4544 18.7136 48.5058 22.7358 47.6979 22.7358H29.7039C28.0968 24.4258 26.629 26.2729 25.2477 28.1587C25.2689 30.6902 24.9813 33.3787 25.403 35.8555L30.9388 42.4904C31.8032 41.3596 32.9022 40.0612 34.3788 39.846C34.5499 39.6572 33.4809 38.6834 33.285 38.3818C31.4063 35.4851 32.5688 31.4047 35.6684 29.9352C40.7896 27.5077 46.1084 33.0894 43.3423 38.1383C42.9842 38.791 42.3579 39.1703 42.1391 39.8442C45.5315 40.6875 47.6873 46.1509 47.9378 49.3052C47.9678 49.6774 48.0683 51.1363 47.5197 51.1363H28.9965C27.9609 51.1363 28.6789 48.4337 28.8183 47.7827C29.127 46.3485 29.7939 45.0713 29.9385 43.6776C29.1694 42.9773 24.999 37.288 24.5615 37.2139C24.318 37.1716 24.034 37.5667 23.8788 37.7273C22.1993 39.4685 20.7651 41.8941 19.0627 43.6759C18.851 44.3674 19.6431 45.7046 19.8619 46.5108C20.0806 47.317 20.8339 50.2419 20.4529 50.8382C20.3929 50.9317 20.07 51.1363 19.9995 51.1363H1.47626C0.929384 51.1363 1.02994 49.6792 1.05816 49.3052C1.3069 46.1492 3.46442 40.6857 6.85682 39.8442L5.30969 37.4238C3.37445 32.4931 8.52038 27.6559 13.3294 29.9334C16.4289 31.4029 17.5932 35.4833 15.7127 38.38C15.5169 38.6817 14.4478 39.6554 14.6189 39.8442C16.0955 40.0594 17.1928 41.3578 18.059 42.4886L23.5948 35.8538C24.0181 33.377 23.7288 30.6884 23.75 28.1569L19.4702 22.734H1.29985V22.7358ZM10.1663 2.4961C4.5176 3.27937 5.41377 12.0594 11.5176 11.2549C16.9511 10.5387 16.0143 1.68461 10.1663 2.4961ZM41.37 3.74686C37.055 -0.568168 30.6759 6.40891 35.4337 10.3006C39.7788 13.8535 45.2546 7.63144 41.37 3.74686ZM4.56346 21.3245V17.3553C4.56346 16.8172 5.97476 16.8172 5.97476 17.3553V21.3245H15.501V17.3553C15.501 16.8172 16.9123 16.8172 16.9123 17.3553V21.3245H19.0292C18.7734 18.5302 16.9987 13.1884 13.7792 12.7262C12.5143 12.5445 7.94175 12.5269 6.85858 12.9467C4.33589 13.9258 2.79406 18.8583 2.44652 21.3227H4.56346V21.3245ZM32.0837 21.3245V17.3553C32.0837 16.8172 33.495 16.8172 33.495 17.3553V21.3245H43.0212V17.3553C43.0212 16.8172 44.4325 16.8172 44.4325 17.3553V21.3245H46.5494C46.2019 18.8583 44.6601 13.9258 42.1374 12.9467C41.0542 12.5269 36.4816 12.5445 35.2168 12.7262C31.9955 13.1884 30.2208 18.5302 29.9667 21.3245H32.0837ZM9.80995 30.8931C4.59875 31.7804 5.60076 40.3576 11.3412 39.6572C17.0746 38.9569 16.0937 29.824 9.80995 30.8931ZM37.3302 30.8931C32.1578 31.7222 32.9357 40.2235 38.6797 39.6519C44.4237 39.0803 43.6633 29.877 37.3302 30.8931ZM4.56346 49.7268V45.7575C4.56346 45.3112 5.97476 45.1242 5.97476 45.5811V49.7268H15.501V45.7575C15.501 45.3112 16.9123 45.1242 16.9123 45.5811V49.7268H19.0292C18.904 47.1318 16.8982 41.4972 13.9856 41.0985C12.9183 40.9521 8.13227 40.9309 7.20435 41.1655C4.45409 41.8641 2.72349 47.2023 2.44652 49.725H4.56346V49.7268ZM32.0837 49.7268V45.5811C32.0837 45.1242 33.495 45.3112 33.495 45.7575V49.7268H43.0212V45.5811C43.0212 45.1242 44.4325 45.3112 44.4325 45.7575V49.7268H46.5494C46.2831 47.2164 44.5154 41.8588 41.7916 41.1655C40.8637 40.9291 36.0776 40.9521 35.0103 41.0985C32.0978 41.4972 30.092 47.1335 29.9667 49.7268H32.0837Z" stroke="black" stroke-width="0.671429" mask="url(#path-1-outside-1_448_614)"/>
</svg>
