<svg width="58" height="64" viewBox="0 0 58 64" fill="none" xmlns="http://www.w3.org/2000/svg">
<path d="M27.6992 9.6875C28.2371 9.68871 28.7649 9.699 29.1865 9.72656C29.3971 9.74033 29.5837 9.75916 29.7324 9.7832C29.875 9.80628 30.0005 9.83692 30.0762 9.88477C30.2538 9.99702 30.3522 10.2236 30.4102 10.4736C30.4695 10.7297 30.4932 11.04 30.5 11.3545C30.5068 11.6698 30.496 11.9953 30.4854 12.2832C30.4746 12.5736 30.464 12.8224 30.4688 12.9912L30.4707 13.0742L30.3916 13.0967C30.0526 13.1922 29.8166 13.469 29.543 13.7686C29.2791 14.0575 28.9801 14.3654 28.5283 14.4189L28.4199 14.4316L28.4102 14.3223C28.3726 13.8918 28.3863 13.44 28.4023 12.9941C28.4172 12.5809 28.4326 12.1729 28.4141 11.7812H26.4844C27.0101 12.4995 27.2789 13.1101 27.4336 14.0312L27.4531 14.1494L27.334 14.1553C27.0035 14.1722 26.7906 14.3988 26.5449 14.6641C26.3109 14.9168 26.0421 15.2109 25.6143 15.2109H25.5146L25.5078 15.1113C25.4683 14.4825 25.2735 13.7876 24.9287 13.1963C24.5838 12.6049 24.0933 12.1235 23.4688 11.9072L23.3477 11.8652L23.4121 11.7539C23.5205 11.5647 23.6709 11.3968 23.832 11.2412C23.9911 11.0877 24.1718 10.9359 24.332 10.79C24.6626 10.4891 24.929 10.194 24.9814 9.81445L24.9941 9.72266H25.0859C25.4963 9.71917 26.6255 9.68508 27.6992 9.6875Z" fill="black" stroke="black" stroke-width="0.212613"/>
<path d="M36.7441 53.1108C37.3758 53.052 38.0285 53.0827 38.667 53.1294C39.3085 53.1763 39.9319 53.2388 40.5186 53.2476H40.6533L40.623 53.3784C40.574 53.5893 40.4596 53.7638 40.3232 53.9165C40.1882 54.0678 40.0243 54.2044 39.875 54.3354C39.5661 54.6064 39.3189 54.8529 39.3066 55.2046L39.3027 55.3062L39.2012 55.3071C38.6343 55.312 38.0494 55.3054 37.4824 55.3071C37.5208 55.5689 37.4888 55.854 37.4463 56.1157C37.4219 56.2661 37.3915 56.4251 37.3691 56.5571C37.3458 56.695 37.3294 56.8159 37.3281 56.9165L37.3271 57.022H37.2217C36.8951 57.0212 36.6718 57.2418 36.4229 57.5249C36.3028 57.6614 36.1759 57.8132 36.0352 57.937C35.8929 58.0622 35.7286 58.1659 35.5283 58.2065L35.4033 58.2319L35.4004 58.104C35.3899 57.5245 35.3211 56.897 35.2715 56.2505C35.2222 55.6077 35.1923 54.9504 35.2656 54.3286C35.3168 53.895 35.4874 53.6019 35.7559 53.4116C36.0187 53.2255 36.3632 53.1465 36.7441 53.1108Z" fill="black" stroke="black" stroke-width="0.212613"/>
<path d="M19.0293 13.6572C19.6909 11.9513 21.8398 11.1166 23.5381 11.7041L23.6104 11.7295V11.7354C24.2604 11.9838 24.7618 12.4895 25.1113 13.0889C25.4738 13.7105 25.6783 14.4376 25.7197 15.0977C25.8359 16.9576 25.7102 19.0334 25.7207 20.9072C25.733 23.1042 25.7277 25.3065 25.7207 27.5029C25.7154 29.3449 25.733 31.199 25.7207 33.043C25.7102 34.4775 25.777 35.9559 25.7207 37.3984C25.6863 38.2885 25.5741 39.1339 25.2197 39.833C24.8625 40.5378 24.2624 41.0861 23.2725 41.3896C22.7329 41.5551 22.0391 41.5632 21.3896 41.4346C20.7413 41.3062 20.1185 41.0384 19.7334 40.6338C18.8525 39.7111 18.9657 38.9282 18.7275 37.9365C18.6721 37.7056 18.5576 37.5523 18.4033 37.4424C18.2455 37.33 18.0412 37.2597 17.8037 37.2061C17.5644 37.152 17.3085 37.1182 17.0381 37.0703C16.7723 37.0232 16.4998 36.9628 16.249 36.8574V36.8584C16.0485 36.7745 15.7262 36.575 15.4287 36.3623C15.1332 36.151 14.8425 35.913 14.7139 35.7451C13.5489 34.2238 13.6963 31.92 14.9805 30.5273C15.1096 30.3876 15.2623 30.2675 15.4092 30.1553C15.5586 30.0412 15.7008 29.9359 15.8223 29.8203C15.9427 29.7056 16.0361 29.586 16.0898 29.4482C16.1429 29.3121 16.16 29.1508 16.1152 28.9463C16.0613 28.6992 15.9574 28.5581 15.835 28.4814C15.7103 28.4035 15.5497 28.3814 15.3652 28.4053C15.0862 28.4415 14.7764 28.5801 14.5156 28.7422L14.2744 28.9092C14.0849 29.0551 13.8662 29.2631 13.6465 29.4795C13.429 29.6937 13.2091 29.9174 13.0254 30.0869L12.915 30.1895L12.8555 30.0498C12.7424 29.7833 12.5854 29.5511 12.4189 29.3076C12.254 29.0664 12.0804 28.8137 11.9492 28.5176C10.7771 25.8726 12.2425 22.6386 15.002 21.7666C15.2026 21.7029 15.5189 21.6572 15.8457 21.6025C16.1791 21.5467 16.5331 21.4801 16.8301 21.376C17.1315 21.2702 17.3482 21.1344 17.4395 20.957C17.5251 20.7905 17.5176 20.5493 17.2744 20.1836C17.0865 19.9006 16.7515 19.8126 16.3516 19.8213C15.9518 19.83 15.5266 19.9339 15.1875 19.9971C15.0453 20.0239 14.811 20.1117 14.5869 20.1973C14.4777 20.239 14.3714 20.2796 14.2861 20.3096C14.2436 20.3245 14.204 20.3375 14.1709 20.3467L14.0723 20.3633C13.9882 20.3604 13.9434 20.2998 13.9248 20.2549C13.9071 20.2123 13.9031 20.1634 13.9014 20.127V20.0127L13.9004 19.9844C13.895 17.9662 15.1985 16.4234 17.1162 15.957C17.2544 15.9234 17.3822 15.9143 17.5 15.9111C17.6224 15.9079 17.7215 15.9109 17.8271 15.9033C18.0233 15.8892 18.2094 15.8391 18.4238 15.6279C18.6337 15.4212 18.7216 15.1182 18.7871 14.7598C18.8506 14.4124 18.8935 14.0081 19.0293 13.6572Z" fill="#FEFEFD" stroke="black" stroke-width="0.212613"/>
<path d="M28.6113 11.5688L28.6182 11.6685C28.6458 12.1031 28.6263 12.5574 28.6104 13.0024C28.5943 13.4498 28.5819 13.8889 28.6182 14.3042C28.6453 14.6117 28.7315 14.8208 28.8535 14.9712C28.9762 15.1223 29.1425 15.2235 29.3438 15.3022C29.5468 15.3817 29.777 15.435 30.0273 15.4966C30.2747 15.5575 30.5386 15.6261 30.7939 15.7349C30.9947 15.8205 31.225 15.948 31.4639 16.0796C31.7049 16.2124 31.9577 16.3505 32.21 16.4644C32.7237 16.6961 33.1935 16.8043 33.5449 16.6021C33.6432 16.5454 33.7916 16.4073 33.9727 16.2163C34.1507 16.0285 34.3501 15.8014 34.5488 15.5767C34.7466 15.353 34.9444 15.1311 35.1162 14.9595C35.2019 14.8739 35.2834 14.7992 35.3564 14.7417C35.4265 14.6866 35.4995 14.6387 35.5684 14.6206C35.6766 14.5925 35.7954 14.6372 35.8945 14.6909C35.9998 14.748 36.1124 14.8312 36.2197 14.9204C36.4331 15.0977 36.6472 15.3154 36.7617 15.4224C37.0614 15.7024 37.3415 16.018 37.6182 16.3286C37.8265 16.5626 38.0336 16.794 38.249 17.0103L38.4678 17.2212L38.4941 17.2456L38.5 17.2808C38.5086 17.3289 38.4972 17.3757 38.4824 17.4136C38.4671 17.4526 38.4438 17.4922 38.417 17.5317C38.3632 17.6109 38.2856 17.7014 38.1943 17.7974C38.0113 17.9898 37.7602 18.2207 37.5078 18.4565C37.2536 18.6941 36.9964 18.9382 36.7939 19.1616C36.6929 19.2732 36.6072 19.3777 36.543 19.4722C36.4778 19.568 36.4395 19.647 36.4258 19.7075C36.3221 20.1643 36.4766 20.5967 36.7148 21.0317C36.8341 21.2494 36.9708 21.4612 37.1025 21.6763C37.2328 21.889 37.3577 22.1042 37.4473 22.3198C37.538 22.5384 37.589 22.783 37.6348 23.02C37.6813 23.2609 37.7222 23.494 37.791 23.7056C37.8593 23.9154 37.9522 24.0951 38.0967 24.231C38.2399 24.3656 38.4425 24.4648 38.7432 24.5005C39.1524 24.5485 39.6057 24.5308 40.0713 24.5083C40.5332 24.486 41.0087 24.4599 41.4473 24.4976L41.585 24.5093L41.5381 24.6392C41.482 24.7946 41.4609 25.0559 41.4639 25.3901C41.4668 25.7201 41.4928 26.1054 41.5205 26.5005C41.5481 26.8942 41.5779 27.2979 41.5889 27.6587C41.5998 28.0173 41.5922 28.3439 41.542 28.5815L41.5244 28.6665H38.2051C38.2129 28.6665 38.1943 28.6642 38.1484 28.7192C38.1076 28.7683 38.0615 28.8434 38.0117 28.9419C37.9125 29.1385 37.8087 29.409 37.709 29.6958C37.6097 29.9816 37.5152 30.2799 37.4355 30.5337C37.3569 30.7842 37.2906 30.9974 37.2471 31.104V31.105C37.1373 31.3709 36.8987 31.7563 36.6953 32.1138C36.592 32.2954 36.496 32.4716 36.4248 32.6284C36.3522 32.7884 36.3112 32.9166 36.3066 33.0044C36.2993 33.1481 36.3472 33.2947 36.4375 33.4458C36.5279 33.5971 36.6579 33.7467 36.8066 33.8931C36.9553 34.0393 37.1186 34.1793 37.2744 34.312C37.3513 34.3775 37.4267 34.442 37.4971 34.5044L37.6895 34.6851L37.876 34.8843C37.9583 34.9734 38.0544 35.0796 38.1455 35.1851C38.2364 35.2903 38.3247 35.3968 38.3887 35.4858C38.4204 35.5299 38.4481 35.5725 38.4678 35.6099C38.4775 35.6285 38.4868 35.6484 38.4932 35.6685C38.4988 35.6865 38.5056 35.7163 38.5 35.7485L38.4941 35.7808L38.4707 35.8052L35.7764 38.5239L35.7041 38.5972L35.6289 38.5269C35.4894 38.3972 35.3573 38.2606 35.2275 38.1265L34.835 37.7329C34.8034 37.703 34.751 37.682 34.6885 37.6665C34.6563 37.6585 34.633 37.6547 34.6035 37.6479C34.5911 37.6451 34.5768 37.6416 34.5635 37.6372C34.5536 37.6339 34.5282 37.6249 34.5068 37.605L34.5049 37.604C34.4386 37.5397 34.3761 37.4519 34.3145 37.3599C34.2479 37.2604 34.1901 37.1674 34.1152 37.0571C33.972 36.8461 33.8077 36.6379 33.5938 36.5015C33.3896 36.3714 33.2132 36.3233 33.0547 36.3218C32.8953 36.3203 32.7442 36.3662 32.5898 36.4419C32.4338 36.5184 32.2814 36.6216 32.1152 36.73C31.9519 36.8365 31.7771 36.947 31.5859 37.0288C31.2151 37.1873 30.7094 37.3344 30.2373 37.478C29.7584 37.6237 29.3178 37.7646 29.0547 37.9116C28.9914 37.9472 28.8779 38.0459 28.7773 38.1567C28.7282 38.2109 28.6849 38.2643 28.6553 38.3101C28.6406 38.3328 28.6303 38.3519 28.624 38.3667C28.6203 38.3754 28.6188 38.3808 28.6182 38.3833V41.5884H26.1328L26.167 41.4565C26.1993 41.3303 26.2666 41.1844 26.3408 41.0444C26.4155 40.9035 26.501 40.7599 26.5732 40.6372C27.073 39.7879 27.2611 39.1675 27.3281 38.522C27.3963 37.8652 27.3408 37.1912 27.3506 36.2056C27.3524 36.0085 27.3337 35.5369 27.3311 35.0698C27.3297 34.8401 27.3324 34.6145 27.3438 34.4341C27.3494 34.344 27.3569 34.2627 27.3682 34.1968C27.3738 34.1639 27.3813 34.1332 27.3896 34.106C27.3976 34.0801 27.409 34.0508 27.4268 34.0259L27.4512 33.9907L27.4941 33.9829C31.7405 33.2029 34.3711 29.8138 33.9424 25.4702C33.9244 25.2905 33.8794 25.1542 33.8291 25.0269C33.7799 24.9024 33.7183 24.7712 33.6826 24.6245C33.4881 23.8308 33.2637 23.2272 32.9424 22.687C32.6211 22.1468 32.1995 21.6647 31.6035 21.1167C31.2188 20.7631 30.4751 20.2069 29.6943 19.7896C29.3041 19.5809 28.9081 19.4083 28.5459 19.313C28.1817 19.2172 27.8643 19.2027 27.623 19.2915L27.5049 19.3354L27.4824 19.2104C27.3247 18.3514 27.3301 17.4826 27.3389 16.6235C27.3477 15.761 27.3593 14.9078 27.2178 14.0649L27.2051 13.9917C27.0425 13.0797 26.7617 12.4894 26.1855 11.7397L26.0537 11.5688H28.6113Z" fill="#FEFDFD" stroke="black" stroke-width="0.212613"/>
<path d="M51.2373 45.6079C51.7098 45.6408 52.1646 45.9935 52.2441 46.6782C52.3101 47.2454 52.3386 48.5811 52.3115 49.8892C52.298 50.5441 52.2702 51.1947 52.2256 51.7417C52.1813 52.2847 52.1204 52.7376 52.0352 52.9888C51.483 54.6106 49.9718 55.1766 48.3047 55.3472C47.4688 55.4327 46.5836 55.4207 45.7422 55.3882C44.8974 55.3556 44.1017 55.3032 43.4316 55.3071H43.3301L43.3252 55.2056C43.3007 54.7251 43.5803 54.4201 43.8584 54.1577C44.0011 54.023 44.1408 53.9022 44.2607 53.7661C44.3788 53.6321 44.4704 53.491 44.5156 53.3257L44.6162 53.353V53.2476H44.7578L44.7568 53.2495C45.0066 53.2524 45.3398 53.2609 45.7129 53.27C46.1622 53.281 46.6717 53.2912 47.1709 53.2896C47.6705 53.2879 48.1576 53.2744 48.5625 53.2368C48.7648 53.218 48.9449 53.194 49.0947 53.1626C49.2462 53.1309 49.3605 53.0925 49.4346 53.0513C49.8646 52.8118 50.1256 52.3215 50.1826 51.8237C50.2727 51.0352 50.2039 50.064 50.1465 49.0933C50.0895 48.1297 50.0439 47.164 50.1875 46.4116C50.2931 45.858 50.7713 45.5755 51.2373 45.6079Z" fill="black" stroke="black" stroke-width="0.212613"/>
<path d="M22.2998 1.28223C26.0565 0.651725 29.5808 0.777707 33.2236 1.74023L33.9541 1.94434L34.0273 1.96582L34.0303 2.04199C34.0475 2.45563 33.7727 2.71558 33.5234 2.93555C33.394 3.0498 33.2698 3.1538 33.1689 3.27051C33.0699 3.38521 32.9991 3.50589 32.9736 3.64746L32.9531 3.76172L32.8408 3.73145C29.2953 2.76725 24.3242 2.70817 20.7598 3.60059L20.5723 3.64746L20.6338 3.46387C20.7844 3.00929 21.1677 2.68976 21.501 2.38867C21.8448 2.07809 22.1406 1.7836 22.2119 1.36914L22.2256 1.29492L22.2998 1.28223Z" fill="black" stroke="black" stroke-width="0.212613"/>
<path d="M56.3115 36.1689C56.4599 36.5461 56.6466 36.9526 56.8271 37.3623C57.0068 37.77 57.1807 38.1802 57.2979 38.5576C57.8872 40.4545 56.7091 42.5031 54.6982 42.7656C54.3879 42.8063 53.534 42.8297 52.7061 42.8203C52.2905 42.8156 51.8777 42.8027 51.54 42.7793C51.3714 42.7676 51.2201 42.7528 51.0957 42.7354C50.9738 42.7183 50.8689 42.6979 50.7988 42.6699C50.374 42.5001 50.162 42.076 50.1484 41.6787C50.135 41.2833 50.3196 40.8702 50.7373 40.75C51.0088 40.672 51.4261 40.6718 51.8838 40.6875C52.35 40.7035 52.8688 40.7371 53.3672 40.7344C53.8657 40.7316 54.3289 40.6924 54.6816 40.5703C55.0314 40.4492 55.2542 40.2538 55.3135 39.9443L55.3252 39.8418C55.3309 39.729 55.3182 39.5877 55.29 39.4248C55.253 39.2104 55.1909 38.9686 55.1172 38.7236C54.9697 38.2335 54.7789 37.738 54.6611 37.4355L54.6387 37.377L54.6787 37.3291C54.867 37.1038 55.0803 36.8242 55.3223 36.5928C55.557 36.3684 55.8311 36.1784 56.1582 36.1133L56.2529 36.0186L56.3115 36.1689Z" fill="black" stroke="black" stroke-width="0.212613"/>
<path d="M52.6279 27.3354C53.1498 28.7948 53.7834 30.2699 54.4316 31.7476C55.0794 33.224 55.7426 34.7039 56.3203 36.1694L56.3682 36.2915L56.2393 36.314C55.9563 36.3617 55.7078 36.5263 55.4785 36.7456C55.2479 36.9661 55.0484 37.2289 54.8516 37.4644L54.7363 37.6021L54.6709 37.4341C54.0801 35.9129 53.4197 34.4077 52.7588 32.897C52.0981 31.3868 51.4367 29.8704 50.8457 28.3325L50.8135 28.2485L50.8916 28.2026L52.4746 27.2798L52.585 27.2153L52.6279 27.3354Z" fill="black" stroke="black" stroke-width="0.212613"/>
<path d="M22.3105 1.37793L22.418 1.38672V1.47852L22.3975 1.48145C22.2904 1.93603 21.9582 2.25636 21.6377 2.5459C21.2888 2.86104 20.9591 3.14094 20.8301 3.53027L20.8115 3.58594L20.7549 3.60059C19.4308 3.93212 17.3391 4.80906 16.0674 5.41504C15.7773 5.55323 15.3174 5.85563 14.8535 6.14355C14.6243 6.28585 14.3956 6.42347 14.1914 6.53125C13.9903 6.63741 13.8014 6.72098 13.6562 6.74609C13.2129 6.82218 12.8297 6.5954 12.6201 6.26367C12.4109 5.93222 12.3669 5.48341 12.6084 5.10352C12.6735 5.0013 12.7945 4.89104 12.9453 4.77832C13.0991 4.66338 13.2942 4.53835 13.5156 4.4082C13.9587 4.14785 14.5161 3.86209 15.0869 3.58887C16.2282 3.04256 17.4313 2.54043 17.8906 2.37695C19.3881 1.84305 20.7386 1.54407 22.2949 1.2832L22.3105 1.37793Z" fill="black" stroke="black" stroke-width="0.212613"/>
<path d="M51.4414 20.6196C51.7007 21.7029 51.8363 22.9398 51.9873 24.1226C52.139 25.3105 52.3059 26.4432 52.625 27.3354L52.6543 27.4185L52.5781 27.4624L50.9951 28.3862L50.8877 28.4487L50.8428 28.3325C50.349 27.0466 50.2047 26.0326 50.123 25.0356C50.0414 24.0381 50.0224 23.0698 49.7822 21.8521L49.7705 21.7896L49.8193 21.7485L51.2705 20.562L51.4014 20.4546L51.4414 20.6196Z" fill="black" stroke="black" stroke-width="0.212613"/>
<path d="M49.3232 14.9238C50.4733 17.1763 50.8459 18.1255 51.4424 20.6191L51.457 20.6846L51.4062 20.7266L49.9551 21.9141L49.8174 22.0264L49.7832 21.8516C49.448 20.1569 48.4587 17.6503 47.6816 16.0752L47.6055 15.9189L47.7793 15.9219C48.0595 15.9263 48.2619 15.7614 48.4736 15.5322C48.5736 15.4241 48.6861 15.2895 48.7949 15.1777C48.9076 15.062 49.0331 14.9525 49.1807 14.8779L49.2744 14.8301L49.3232 14.9238Z" fill="black" stroke="black" stroke-width="0.212613"/>
<path d="M33.9561 1.94482C35.9694 2.53573 37.2305 3.21741 38.9902 4.1958L39.1064 4.26025L39.0176 4.35986L37.8301 5.6792L37.7754 5.73975L37.7021 5.70166C36.4532 5.04651 34.1824 4.09697 32.8428 3.73193L32.749 3.70654L32.7666 3.61084C32.801 3.41934 32.8952 3.26394 33.0098 3.13135C33.1226 3.00073 33.2617 2.88544 33.3848 2.77686C33.6404 2.55124 33.8327 2.35283 33.8203 2.05127L33.8135 1.90283L33.9561 1.94482Z" fill="black" stroke="black" stroke-width="0.212613"/>
<path d="M37.3193 56.8086L37.3184 56.916C37.3096 57.7062 37.388 58.5313 37.4463 59.3701C37.5044 60.2056 37.5418 61.0521 37.4492 61.8721C37.368 62.5847 36.9415 62.9794 36.4873 63.0791C36.0425 63.1767 35.5599 62.9859 35.4219 62.5254C35.3638 62.331 35.3362 62.0147 35.3252 61.6465C35.3141 61.2745 35.3197 60.8372 35.3311 60.3936C35.3538 59.5018 35.4012 58.5904 35.3916 58.1045L35.3896 58.0156L35.4766 57.998C35.6278 57.9674 35.7587 57.8873 35.8848 57.7764C36.0124 57.6641 36.1276 57.5273 36.2529 57.3848C36.4949 57.1097 36.7774 56.8078 37.2119 56.8086H37.3193Z" fill="black" stroke="black" stroke-width="0.212613"/>
<path d="M38.9883 4.19629C40.8912 5.25445 41.7199 5.80047 43.3604 7.24316L43.4512 7.32324L43.3594 7.40332C43.1442 7.58935 42.8987 7.77451 42.6768 7.98926C42.4568 8.20206 42.2789 8.42711 42.2041 8.67285L42.1572 8.82812L42.0332 8.72266C40.831 7.68867 39.0928 6.43428 37.7002 5.70215L37.5791 5.63867L37.6709 5.53711L38.8584 4.21777L38.915 4.15527L38.9883 4.19629Z" fill="black" stroke="black" stroke-width="0.212613"/>
<path d="M46.6719 10.6855C47.96 12.3094 48.4001 13.1219 49.3213 14.9238L49.3701 15.0195L49.2744 15.0674C49.1573 15.1265 49.0512 15.2174 48.9453 15.3262C48.8356 15.4389 48.742 15.5533 48.6279 15.6768C48.4115 15.9109 48.1526 16.1399 47.7734 16.1338L47.709 16.1328L47.6807 16.0752C46.9936 14.6836 46.1317 13.2299 45.1855 12.0039L45.0918 11.8818L45.2383 11.8369C45.484 11.7622 45.7091 11.5852 45.9219 11.3652C46.1366 11.1433 46.3218 10.8978 46.5078 10.6826L46.5918 10.585L46.6719 10.6855Z" fill="black" stroke="black" stroke-width="0.212613"/>
<path d="M43.3662 7.24268C44.6237 8.34846 45.6081 9.33651 46.6768 10.686L46.7314 10.7554L46.6748 10.8218C46.5021 11.0215 46.2992 11.2868 46.0801 11.5132C45.8589 11.7417 45.6033 11.95 45.3057 12.0405L45.2354 12.062L45.1904 12.0044C44.3409 10.9031 43.0995 9.63279 42.04 8.72217L41.9873 8.67725L42.0078 8.61084C42.0984 8.31317 42.3066 8.05756 42.5352 7.83643C42.7614 7.61746 43.0268 7.41528 43.2266 7.24268L43.2969 7.18213L43.3662 7.24268Z" fill="black" stroke="black" stroke-width="0.212613"/>
<path d="M40.5234 53.2485C41.882 53.2679 43.2498 53.2485 44.6113 53.2485H44.75L44.7139 53.3833C44.6571 53.5907 44.5435 53.7597 44.4131 53.9077C44.2845 54.0536 44.1311 54.1865 43.9971 54.313C43.7218 54.5727 43.5111 54.8185 43.5303 55.1958L43.5361 55.3071L43.4248 55.3081C42.0124 55.3169 40.613 55.294 39.2041 55.3081L39.0928 55.3091L39.0967 55.1978C39.1126 54.7424 39.4373 54.4394 39.7373 54.1763C39.8924 54.0402 40.0429 53.9139 40.167 53.7749C40.2899 53.6373 40.3809 53.4942 40.4189 53.3306L40.4375 53.2476L40.5234 53.2485Z" fill="black" stroke="black" stroke-width="0.212613"/>
<path d="M3.55664 21.3267C2.77063 24.8034 2.80289 29.15 3.68848 32.6206L3.70508 32.686L3.65234 32.729L2.20215 33.9155L2.07812 34.0171L2.03223 33.8638C0.819785 29.7658 0.611661 27.1158 1.23828 22.8706L1.24707 22.8062L1.30957 22.7847C1.699 22.6556 1.97872 22.326 2.29395 21.9771C2.59968 21.6386 2.93921 21.284 3.43555 21.1987L3.5918 21.1714L3.55664 21.3267Z" fill="black" stroke="black" stroke-width="0.212613"/>
<path d="M5.17383 13.2285C5.40315 13.1803 5.62617 13.2385 5.82129 13.4219C6.0115 13.6007 6.17213 13.8949 6.30078 14.3145L6.31348 14.3564L6.29395 14.3955C5.12086 16.6328 4.11561 18.8563 3.55762 21.3262L3.54199 21.3955L3.47168 21.4072C3.05734 21.4786 2.76361 21.7755 2.45312 22.1191C2.15201 22.4525 1.83158 22.8357 1.37695 22.9863L1.21289 23.041L1.23828 22.8701C1.67357 19.9253 2.4098 17.0065 3.95312 14.3887C4.13123 14.087 4.32758 13.8216 4.53125 13.6201C4.73362 13.42 4.95161 13.2754 5.17383 13.2285Z" fill="black" stroke="black" stroke-width="0.212613"/>
<path d="M13.1797 50.6812C13.8912 52.6941 14.432 54.4718 14.7676 56.6353L14.79 56.7798L14.6455 56.7563C14.2967 56.7 14.0813 56.8855 13.8457 57.145C13.7315 57.2708 13.6087 57.4183 13.4727 57.5396C13.334 57.663 13.1726 57.7686 12.9697 57.811L12.8574 57.8345L12.8428 57.7202C12.6202 55.9695 12.0765 53.4803 11.5283 51.8042L11.5039 51.731L11.5664 51.6851L13.0176 50.6304L13.1328 50.5464L13.1797 50.6812Z" fill="black" stroke="black" stroke-width="0.212613"/>
<path d="M14.6807 56.5464L14.7568 56.5591L14.7686 56.6353C14.8821 57.371 15.0308 58.3923 15.127 59.4058C15.2228 60.4167 15.2677 61.4297 15.1719 62.146C15.1038 62.6549 14.7276 62.9952 14.3086 63.0835C13.886 63.1724 13.4177 63.0053 13.1758 62.5093L13.167 62.4917L13.165 62.4722C13.0909 61.6804 13.0605 60.8806 13.0234 60.0864C12.9863 59.291 12.9425 58.5 12.8438 57.7202L12.8311 57.6226L12.9277 57.603C13.0817 57.5707 13.2108 57.4902 13.333 57.3813C13.4578 57.2701 13.5663 57.1382 13.6895 57.0024C13.8987 56.7719 14.1431 56.538 14.5137 56.5337L14.6807 56.5464Z" fill="black" stroke="black" stroke-width="0.212613"/>
<path d="M10.9346 45.521C11.934 47.3203 12.5039 48.76 13.1836 50.6812L13.21 50.7563L13.1465 50.8032L11.6953 51.8579L11.5771 51.9438L11.5322 51.8052C11.0578 50.3557 10.0326 48.0246 9.29688 46.6792L9.25293 46.5972L9.32812 46.5415L10.7793 45.4868L10.876 45.4165L10.9346 45.521Z" fill="black" stroke="black" stroke-width="0.212613"/>
<path d="M3.68652 32.6201C3.98721 33.7966 4.84847 36.1299 5.39355 37.2148L5.42773 37.2842L5.37305 37.3379C5.27037 37.4401 5.1535 37.5393 5.03613 37.6367C4.91762 37.7351 4.7988 37.8323 4.6875 37.9346C4.46387 38.1401 4.28402 38.355 4.21387 38.6104L4.14355 38.8662L4.01758 38.6318C3.02647 36.7854 2.63681 35.9077 2.03125 33.8633L2.01074 33.7959L2.06543 33.751L3.5166 32.5645L3.64551 32.459L3.68652 32.6201Z" fill="black" stroke="black" stroke-width="0.212613"/>
<path d="M5.39941 37.2158C6.05825 38.5282 7.29966 40.155 8.16211 41.4248L8.25098 41.5566L8.0957 41.5889C7.85211 41.6393 7.66793 41.8112 7.4707 42.0273C7.28133 42.2349 7.07579 42.4892 6.80469 42.6338L6.7207 42.6777L6.66699 42.5996C5.67534 41.1506 4.95715 40.3732 4.02344 38.6328L4.00391 38.5957L4.01465 38.5547C4.10098 38.2404 4.31709 37.9923 4.54883 37.7793C4.66518 37.6724 4.78966 37.5704 4.90625 37.4736C5.02389 37.376 5.13449 37.2831 5.22949 37.1885L5.33301 37.085L5.39941 37.2158Z" fill="black" stroke="black" stroke-width="0.212613"/>
<path d="M8.16113 41.4238C9.1169 42.833 10.0537 43.935 10.9355 45.5205L10.9814 45.6025L10.9053 45.6582L9.4541 46.7139L9.35645 46.7842L9.29883 46.6787C8.57219 45.3498 7.54335 43.8812 6.66602 42.5986L6.59961 42.501L6.7041 42.4443C6.9339 42.3216 7.10814 42.1068 7.3125 41.8828C7.5092 41.6672 7.73436 41.4446 8.05176 41.3789L8.12109 41.3652L8.16113 41.4238Z" fill="black" stroke="black" stroke-width="0.212613"/>
<path d="M9.73145 7.73486C9.85009 7.74229 9.96919 7.76076 10.0752 7.79248C10.1797 7.82376 10.2799 7.86994 10.3525 7.93799C10.3962 7.97904 10.4364 8.04768 10.4707 8.11572C10.507 8.18768 10.5437 8.27333 10.5752 8.35986C10.6067 8.4464 10.6338 8.53624 10.6533 8.6167C10.6721 8.69435 10.6856 8.77303 10.6826 8.8335V8.83447C10.6802 8.8762 10.6665 8.91934 10.6494 8.9585C10.6316 8.99927 10.607 9.04417 10.5781 9.09131C10.5204 9.18559 10.4403 9.29693 10.3457 9.41748C10.1561 9.65912 9.90209 9.9462 9.63965 10.2251C9.37715 10.504 9.10351 10.7769 8.87305 10.9897C8.75799 11.096 8.65287 11.1883 8.56445 11.2593C8.4792 11.3277 8.40063 11.3831 8.3418 11.4087C7.83056 11.6308 7.3549 11.4498 7.11328 11.0708C6.87301 10.6938 6.87434 10.1401 7.25781 9.62939C7.29904 9.57472 7.42724 9.4376 7.58984 9.26904C7.75552 9.0973 7.96369 8.88597 8.1709 8.6792C8.37811 8.47242 8.58485 8.26935 8.74707 8.11475C8.8281 8.03753 8.89889 7.97174 8.95312 7.92334C8.98016 7.89921 9.00402 7.8785 9.02344 7.86279C9.03904 7.85017 9.06188 7.83252 9.08301 7.82275C9.24542 7.74819 9.49796 7.72027 9.73145 7.73486Z" fill="black" stroke="black" stroke-width="0.212613"/>
<path d="M25.1934 9.84277C25.1296 10.3054 24.8071 10.6464 24.4766 10.9473C24.3063 11.1022 24.1378 11.2426 23.9805 11.3945C23.8253 11.5443 23.6914 11.6955 23.5977 11.8594L23.5537 11.9365L23.4707 11.9072C21.8665 11.352 19.8448 12.1496 19.2295 13.7354C19.1033 14.0615 19.0633 14.433 18.9941 14.8057C18.9271 15.1669 18.8308 15.5305 18.5742 15.7812C18.3224 16.0274 18.0855 16.0934 17.8486 16.1123C17.7374 16.1211 17.6173 16.1202 17.5098 16.124C17.3978 16.1281 17.2859 16.1373 17.168 16.166C15.3399 16.6089 14.1101 18.0705 14.1152 19.9863V20.2061L13.9434 20.0693C13.943 20.0691 13.9411 20.0681 13.9365 20.0674C13.931 20.0666 13.9211 20.067 13.9053 20.0703C13.8717 20.0773 13.8252 20.0966 13.7666 20.1318C13.6503 20.2019 13.5112 20.3182 13.3682 20.4512C13.2261 20.5833 13.085 20.728 12.9658 20.8516L12.6924 21.127C12.6171 21.1915 12.5214 21.2214 12.4541 21.2383C12.4366 21.2427 12.4198 21.2467 12.4053 21.25C12.3905 21.2533 12.3786 21.2553 12.3682 21.2578C12.3631 21.2591 12.3585 21.2599 12.3555 21.2607L12.2305 21.3789L12.1904 21.1963C11.5422 18.2843 13.0711 15.5101 15.7773 14.3779C15.9167 14.3197 16.2097 14.2549 16.4609 14.1982C16.5901 14.1691 16.7117 14.1418 16.8047 14.1172C16.8512 14.1049 16.8891 14.0945 16.916 14.085C16.9234 14.0823 16.9287 14.0782 16.9336 14.0762C16.9381 14.0664 16.9452 14.0536 16.9521 14.0361C16.9685 13.9951 16.9896 13.9375 17.0137 13.8682C17.0619 13.7295 17.1218 13.5478 17.1875 13.3535C17.2844 13.0668 17.395 12.7481 17.4932 12.5205L17.5869 12.3271C18.4514 10.802 19.6005 10.1538 20.9014 9.8877C22.1765 9.62692 23.6086 9.73247 25.042 9.72363L25.2363 9.5293L25.1934 9.84277Z" fill="black" stroke="black" stroke-width="0.212613"/>
<path d="M16.3408 19.6089C16.7633 19.5999 17.1956 19.69 17.4463 20.0659C17.7095 20.4621 17.7594 20.7899 17.623 21.0552C17.4923 21.3096 17.2071 21.4694 16.8955 21.5786C16.5794 21.6894 16.2091 21.7575 15.876 21.813C15.5364 21.8696 15.2435 21.912 15.0615 21.9692C12.4221 22.8049 11.0179 25.9052 12.1387 28.4321C12.2607 28.7075 12.4233 28.9443 12.5898 29.188C12.7548 29.4293 12.9243 29.6783 13.0469 29.9673L13.1094 30.1147H12.9873C12.8931 30.2005 12.7967 30.2843 12.7012 30.3667C12.5946 30.4585 12.4896 30.5496 12.3877 30.6431C12.1839 30.83 11.9973 31.0253 11.8496 31.2534L11.7715 31.3735L11.6787 31.2651C10.2666 29.6063 9.57513 27.8279 9.65332 26.0767C9.73153 24.3248 10.5792 22.6152 12.2148 21.0933C12.235 21.0745 12.2586 21.066 12.2695 21.062C12.2833 21.0571 12.2987 21.0534 12.3115 21.0503C12.3244 21.0472 12.3389 21.0436 12.3525 21.0405C12.3669 21.0373 12.3816 21.0335 12.3965 21.0298C12.4588 21.0141 12.5126 20.9942 12.5469 20.9644C12.5934 20.9238 12.6838 20.828 12.8057 20.7017C12.9249 20.578 13.0694 20.4306 13.2158 20.2944C13.3612 20.1593 13.5135 20.0307 13.6494 19.9487C13.717 19.908 13.7873 19.875 13.8545 19.8608C13.9054 19.8501 13.9624 19.8489 14.0156 19.8706L14.0674 19.9009L14.0703 19.9028L14.0967 19.9351C14.1016 19.9442 14.1036 19.9516 14.1045 19.9546C14.1073 19.9637 14.1089 19.9718 14.1094 19.9761C14.1104 19.9848 14.1103 19.9935 14.1104 19.9985C14.1104 20.0092 14.1099 20.0229 14.1094 20.0347C14.1083 20.0607 14.1071 20.0897 14.1084 20.1177C14.1088 20.1265 14.1106 20.1343 14.1113 20.1411C14.1372 20.1339 14.1705 20.1238 14.21 20.1099C14.2919 20.081 14.3948 20.041 14.5059 19.9985C14.7226 19.9158 14.9782 19.8198 15.1436 19.7886C15.4652 19.7277 15.918 19.6179 16.3408 19.6089Z" fill="black" stroke="black" stroke-width="0.212613"/>
<path d="M43.2207 23.0439L43.251 23.0996C43.3229 23.232 43.3712 23.4167 43.4043 23.6318C43.4377 23.8491 43.4574 24.107 43.4668 24.3906C43.4855 24.9577 43.464 25.6381 43.4336 26.3271C43.4031 27.0184 43.3636 27.7167 43.3428 28.3271C43.3219 28.9391 43.3203 29.4509 43.3662 29.7686L43.3701 29.792L43.3633 29.8135C43.2713 30.1291 43.0012 30.3076 42.6729 30.4072C42.3441 30.5069 41.9332 30.5363 41.5156 30.5381C41.0973 30.5399 40.6592 30.5143 40.2793 30.5C39.9349 30.4871 39.6441 30.4855 39.4424 30.5156C39.4145 30.6733 39.3478 30.866 39.2646 31.0664C39.1646 31.3075 39.0373 31.5772 38.9199 31.8359C38.8014 32.0971 38.6926 32.3478 38.625 32.5596C38.5912 32.6654 38.5684 32.7582 38.5596 32.835C38.5506 32.9128 38.5574 32.9642 38.5703 32.9951C38.5682 32.9903 38.5686 32.9917 38.5771 33.0039C38.5843 33.0141 38.5938 33.0279 38.6064 33.0439C38.6316 33.076 38.665 33.1156 38.7002 33.1572C38.7704 33.2403 38.8472 33.3282 38.8828 33.3682L39.0049 33.5039L38.8252 33.542C38.7036 33.5678 38.5646 33.6797 38.417 33.8379C38.3457 33.9143 38.2764 33.9969 38.21 34.0771C38.1444 34.1564 38.0808 34.2356 38.0225 34.2998H38.0215C37.9818 34.3433 37.9395 34.3833 37.9033 34.4189C37.8659 34.4557 37.8339 34.4892 37.8066 34.5234C37.7548 34.5888 37.722 34.658 37.7227 34.7568L37.7246 35.0225L37.54 34.8311C37.4372 34.7244 37.2972 34.6051 37.1406 34.4717C36.9859 34.3398 36.8161 34.1954 36.6611 34.043C36.5064 33.8908 36.3616 33.7271 36.2578 33.5537C36.1538 33.38 36.0874 33.1905 36.0977 32.9912C36.1045 32.8605 36.1613 32.7013 36.2354 32.5381C36.3107 32.372 36.4107 32.1885 36.5146 32.0059C36.7262 31.6343 36.9508 31.2708 37.0537 31.0215C37.0932 30.9257 37.1567 30.7249 37.2373 30.4688C37.3171 30.2153 37.4121 29.9134 37.5127 29.624C37.613 29.3354 37.7206 29.0544 37.8262 28.8447C37.8787 28.7404 37.9334 28.6483 37.9893 28.5811C38.0401 28.5199 38.1143 28.4521 38.209 28.4521H41.3496C41.3809 28.2478 41.3894 27.9758 41.3799 27.6631C41.3691 27.3076 41.3393 26.9092 41.3115 26.5137C41.2839 26.1196 41.2579 25.728 41.2549 25.3906C41.2519 25.0575 41.2704 24.7608 41.3408 24.5654L41.3418 24.5645C41.3477 24.5484 41.3564 24.5346 41.3613 24.5273C41.3674 24.5186 41.3747 24.5097 41.3818 24.501C41.3965 24.4832 41.4155 24.4618 41.4375 24.4385C41.4816 24.3917 41.5416 24.3317 41.6123 24.2637C41.7545 24.1269 41.9431 23.9535 42.1387 23.7822C42.3341 23.6111 42.5387 23.4406 42.7119 23.3076C42.7982 23.2414 42.8781 23.1836 42.9463 23.1396C43.0109 23.098 43.0765 23.0604 43.1299 23.0469L43.1426 23.0439H43.2207Z" fill="black" stroke="black" stroke-width="0.212613"/>
<path d="M33.0605 36.1108C33.2659 36.1125 33.4817 36.1768 33.7139 36.3247C33.9666 36.4855 34.1513 36.7237 34.2979 36.9399C34.368 37.0434 34.4409 37.1595 34.4971 37.2437C34.558 37.3349 34.6105 37.4054 34.6592 37.4526L34.6064 37.5054L34.6914 37.5269V37.7798L34.6045 37.6958C34.4567 37.9096 34.2483 38.0821 34.0723 38.2427C33.8561 38.4399 33.6842 38.6241 33.6338 38.8677L33.5957 39.0532L33.457 38.9233C33.3893 38.8601 33.2522 38.7329 33.1152 38.6235C33.0465 38.5686 32.9797 38.5202 32.9238 38.4868C32.896 38.4702 32.8731 38.4584 32.8555 38.4517C32.8507 38.4498 32.8468 38.4487 32.8438 38.4478L30.5137 39.4448C30.4215 39.7949 30.4203 40.1877 30.4463 40.5942C30.4729 41.0112 30.5287 41.4544 30.5293 41.8462C30.5298 42.2405 30.4765 42.6161 30.2656 42.9067C30.0513 43.202 29.6906 43.3891 29.126 43.4419C27.6338 43.5816 25.5613 43.4685 24.0312 43.437L23.9424 43.4351L23.9287 43.3481C23.9004 43.1763 23.9276 43.0504 23.9912 42.9399C24.0213 42.8877 24.0578 42.8407 24.0947 42.7974C24.1349 42.7502 24.1688 42.7142 24.21 42.6646C24.6992 42.074 25.5614 41.2724 26.1348 40.7446L26.2324 40.6431C26.2729 40.6012 26.3237 40.5523 26.3779 40.5161C26.4289 40.4821 26.5064 40.4431 26.5918 40.4644C26.683 40.4871 26.7385 40.5655 26.7715 40.6567L26.7881 40.7036L26.7627 40.7466C26.6891 40.8716 26.6062 41.0102 26.5342 41.146C26.4909 41.2277 26.4548 41.3065 26.4258 41.3774H28.4111V38.3853C28.4112 38.3484 28.4226 38.3132 28.4346 38.2847C28.4471 38.255 28.4645 38.2251 28.4834 38.1958C28.5214 38.1368 28.572 38.0736 28.626 38.0142C28.7313 37.8981 28.8624 37.7799 28.9561 37.728C29.2434 37.5674 29.7124 37.4189 30.1855 37.2749C30.6657 37.1288 31.156 36.9864 31.5078 36.8354C31.6778 36.7625 31.8379 36.6617 32.001 36.5552C32.1614 36.4504 32.3268 36.3383 32.498 36.2544C32.6709 36.1697 32.8564 36.1093 33.0605 36.1108Z" fill="black" stroke="black" stroke-width="0.212613"/>
<path d="M27.5654 36.1025L27.5645 36.209C27.5549 37.1683 27.6104 37.8762 27.541 38.5449C27.4704 39.2247 27.2718 39.8741 26.7588 40.7461L26.6436 40.9414L26.5664 40.7285C26.5431 40.6637 26.5257 40.6673 26.5361 40.6699C26.5407 40.6711 26.5293 40.6666 26.4922 40.6914C26.4579 40.7144 26.4199 40.7505 26.3809 40.791C26.3467 40.8265 26.3041 40.8741 26.2744 40.9014C25.698 41.4302 24.8472 42.2236 24.3691 42.8008C24.3294 42.8487 24.284 42.8991 24.2529 42.9355C24.2186 42.9758 24.1913 43.0105 24.1709 43.0459C24.1336 43.1107 24.1129 43.1865 24.1338 43.3135L24.1543 43.4395L24.0264 43.4365C22.7941 43.4122 21.8958 43.4676 21.0791 43.3008C20.2506 43.1315 19.5039 42.7359 18.5479 41.8252L18.4688 41.75L19.7334 40.4854L19.8096 40.4082L19.8848 40.4873C20.2277 40.8468 20.8027 41.1016 21.4287 41.2256C22.0534 41.3493 22.7109 41.3393 23.208 41.1875C24.1453 40.901 24.6974 40.3892 25.0273 39.7383C25.3602 39.0815 25.4717 38.2742 25.5059 37.3906L25.5098 37.2881L25.6133 37.2891C25.9583 37.2926 26.187 37.0394 26.4551 36.7314C26.7073 36.4417 26.9993 36.0968 27.459 36.1016L27.5654 36.1025Z" fill="black" stroke="black" stroke-width="0.212613"/>
<path d="M35.3701 12.3481C35.7225 12.2371 36.0978 12.2861 36.5 12.5728C36.7854 12.7766 37.0317 13.0791 37.2471 13.3667C37.4332 13.6152 37.5956 13.8466 37.7461 14.0171L37.8584 13.8774V14.437L37.7598 14.3394L36.7803 15.5659L36.709 15.6558L36.625 15.5776C36.5003 15.4612 36.2993 15.256 36.0918 15.0835C35.9885 14.9977 35.888 14.9238 35.8008 14.8765C35.7077 14.8261 35.6534 14.8186 35.6299 14.8247C35.6061 14.831 35.5617 14.8553 35.4951 14.9077C35.4314 14.9579 35.3566 15.0269 35.2734 15.1099C35.1072 15.276 34.914 15.4921 34.7158 15.7163C34.5185 15.9395 34.316 16.1706 34.1348 16.3618C33.9566 16.5498 33.7876 16.7112 33.6582 16.7856C33.206 17.0457 32.6431 16.8893 32.1299 16.6577C31.8687 16.5399 31.609 16.3973 31.3691 16.2651C31.1272 16.1319 30.9074 16.0107 30.7188 15.9302C30.4808 15.8288 30.2317 15.7635 29.9844 15.7026C29.7403 15.6425 29.4937 15.5853 29.2744 15.4995C29.0532 15.413 28.8502 15.2945 28.6963 15.105C28.5418 14.9147 28.4441 14.662 28.4141 14.3218L28.4043 14.2192L28.5068 14.2065C28.871 14.1634 29.1216 13.918 29.3896 13.6245C29.648 13.3416 29.9269 13.0067 30.3369 12.8911L30.4688 12.854L30.4727 12.9907C30.4763 13.1232 30.4684 13.2608 30.4658 13.3862C30.4638 13.4878 30.4675 13.5852 30.4775 13.6802C30.9025 13.7484 31.2924 13.8985 31.667 14.0679C32.0565 14.244 32.4195 14.4342 32.8057 14.5894C33.0697 14.4614 33.3277 14.2257 33.5918 13.9399C33.7295 13.7909 33.8664 13.6319 34.0059 13.4722C34.1448 13.3131 34.2863 13.1528 34.4307 13.0054C34.7174 12.7126 35.0266 12.4564 35.3701 12.3481Z" fill="black" stroke="black" stroke-width="0.212613"/>
<path d="M38.8828 33.3672C39.0477 33.5512 39.2866 33.7516 39.5479 33.9727C39.8059 34.191 40.0829 34.4275 40.3096 34.6777C40.5353 34.9269 40.7207 35.2 40.7852 35.4932C40.8511 35.7937 40.787 36.1034 40.5391 36.4121L40.5283 36.4248L40.5146 36.4346C40.2737 36.5917 39.9351 36.915 39.543 37.3262C39.153 37.7351 38.7186 38.2217 38.2852 38.6992C37.8527 39.1757 37.421 39.643 37.041 40.0098C36.8511 40.1931 36.6726 40.3529 36.5117 40.4766C36.3527 40.5988 36.2034 40.6923 36.0732 40.7344C35.5058 40.9182 35.0027 40.5844 34.582 40.1729C34.3688 39.9641 34.167 39.7256 33.9795 39.5039C33.7901 39.2801 33.617 39.0751 33.4551 38.9238L33.4111 38.8828L33.4229 38.8252C33.4885 38.5078 33.7112 38.2826 33.9268 38.0859C34.1507 37.8816 34.3656 37.7073 34.4883 37.4775L34.5566 37.3506L34.6426 37.4375C34.6454 37.4382 34.6489 37.4394 34.6533 37.4404C34.6708 37.4444 34.7096 37.4528 34.7422 37.4609C34.8107 37.4779 34.9097 37.5084 34.9844 37.5781L35.3838 37.9795C35.4893 38.0886 35.5955 38.1943 35.7031 38.2979L38.2783 35.7002C38.2651 35.6764 38.2451 35.6451 38.2188 35.6084C38.1603 35.527 38.0777 35.4258 37.9883 35.3223C37.8096 35.1153 37.6102 34.9049 37.54 34.833L37.5107 34.8027L37.5098 34.7607C37.5076 34.6017 37.5644 34.4861 37.6396 34.3916C37.6757 34.3464 37.7158 34.3057 37.7539 34.2686C37.7933 34.2302 37.8295 34.1957 37.8643 34.1582C37.9185 34.0985 37.9792 34.025 38.0469 33.9434C38.1136 33.8629 38.1865 33.7758 38.2627 33.6943C38.3883 33.5599 38.5372 33.4258 38.6973 33.3633V33.1602L38.8828 33.3672Z" fill="black" stroke="black" stroke-width="0.212613"/>
<path d="M15.334 28.1943C15.5476 28.1667 15.7622 28.189 15.9424 28.3018C16.1248 28.416 16.2554 28.6131 16.3184 28.9014C16.3711 29.1428 16.353 29.3474 16.2832 29.5264C16.214 29.7038 16.0969 29.849 15.9639 29.9756C15.8319 30.1011 15.6776 30.214 15.5332 30.3242C15.3862 30.4364 15.2471 30.547 15.1318 30.6719C13.9154 31.9929 13.7779 34.1797 14.8779 35.6162L14.9805 35.75L14.8154 35.7842C14.5719 35.8346 14.3876 36.0066 14.1904 36.2227C14.001 36.4303 13.7956 36.6845 13.5244 36.8291L13.4463 36.8711L13.3916 36.8018C12.9833 36.2852 12.6664 35.8534 12.4424 35.3721C12.2455 34.9491 12.1213 34.4915 12.0654 33.9072L12.0459 33.6484C12.0284 33.3579 12.0772 33.0051 12.1221 32.6924C12.1449 32.5337 12.1674 32.3846 12.1807 32.2539C12.1941 32.1218 12.1975 32.0166 12.1875 31.9434C12.1834 31.9138 12.1652 31.8692 12.1289 31.8096C12.0937 31.7518 12.0465 31.6883 11.9932 31.623C11.94 31.558 11.8829 31.4926 11.8281 31.4316C11.7742 31.3716 11.7211 31.3143 11.6807 31.2666L11.6299 31.2061L11.6729 31.1396C11.8346 30.8897 12.0364 30.6806 12.2461 30.4883C12.3509 30.3922 12.4585 30.2993 12.5645 30.208C12.6593 30.1262 12.7521 30.0444 12.8428 29.9619L12.877 29.9307C13.058 29.7644 13.2717 29.5465 13.4932 29.3281C13.7123 29.112 13.9388 28.8959 14.1396 28.7412L14.2617 28.6523C14.5622 28.4446 14.9625 28.2425 15.334 28.1943Z" fill="black" stroke="black" stroke-width="0.212613"/>
<path d="M37.8223 14.1045C38.205 14.4828 38.6669 14.845 39.1299 15.2324C39.5898 15.6173 40.0479 16.0247 40.4062 16.4854L40.5498 16.6709C40.6851 16.8514 40.7924 17.0187 40.835 17.1943C40.8952 17.4436 40.8234 17.6911 40.6025 18C40.5111 18.1279 40.3363 18.3058 40.1328 18.501C39.9273 18.6981 39.6836 18.92 39.4502 19.1357C39.2158 19.3524 38.9909 19.5631 38.8193 19.7402C38.7335 19.8289 38.663 19.908 38.6113 19.9736C38.5567 20.043 38.5328 20.0864 38.5273 20.1064C38.5143 20.1542 38.5159 20.2256 38.5361 20.3213C38.556 20.415 38.5917 20.5213 38.6348 20.6328C38.6777 20.7439 38.7269 20.8575 38.7744 20.9658C38.8171 21.0629 38.8574 21.1578 38.8896 21.2402L38.9658 21.3164L38.8652 21.3896L37.4141 22.4453L37.3057 22.5244L37.2539 22.3994C37.1712 22.2004 37.0536 21.9977 36.9238 21.7861C36.7953 21.5767 36.6539 21.3564 36.5312 21.1328C36.2858 20.6854 36.0995 20.1949 36.2217 19.6592C36.244 19.5607 36.2992 19.4559 36.3701 19.3516C36.442 19.2459 36.535 19.133 36.6396 19.0176C36.8487 18.787 37.1119 18.5377 37.3652 18.3008C37.6206 18.062 37.8654 17.8362 38.043 17.6494C38.1317 17.5561 38.2001 17.4759 38.2441 17.4111C38.2653 17.38 38.2776 17.3545 38.2852 17.3359C37.9968 17.0648 37.728 16.7643 37.4639 16.4678C37.1857 16.1555 36.9121 15.8483 36.6201 15.5762L36.5479 15.5088L36.6094 15.4326L37.665 14.1133L37.7383 14.0215L37.8223 14.1045Z" fill="black" stroke="black" stroke-width="0.212613"/>
<path d="M14.8838 35.6157C14.9908 35.7555 15.257 35.978 15.5537 36.1899C15.8486 36.4006 16.1552 36.5872 16.332 36.6616C16.5593 36.7573 16.8115 36.8113 17.0723 36.854C17.328 36.8959 17.601 36.9285 17.8457 36.981C18.0925 37.0338 18.3292 37.1101 18.5225 37.2495C18.7192 37.3916 18.8651 37.595 18.9355 37.8872C19.2021 38.9934 19.0603 39.6175 19.8887 40.4868L19.96 40.562L18.626 41.896L18.5508 41.8247C18.1391 41.4324 17.8607 41.156 17.6348 40.8257C17.4081 40.4943 17.2381 40.1126 17.0312 39.5132C16.9976 39.4151 16.977 39.2509 16.9629 39.1226C16.9555 39.055 16.95 38.9959 16.9443 38.9507C16.9441 38.9491 16.9436 38.9473 16.9434 38.9458C16.9409 38.9456 16.9382 38.946 16.9355 38.9458C16.8884 38.9421 16.8262 38.939 16.7559 38.9351C16.6556 38.9295 16.535 38.922 16.4375 38.9067L16.3486 38.8882C15.62 38.6851 15.0988 38.44 14.6494 38.104C14.2016 37.7692 13.8303 37.3478 13.3975 36.8013L13.3184 36.7017L13.4307 36.6411C13.6605 36.5184 13.8347 36.3036 14.0391 36.0796C14.2358 35.864 14.4609 35.6414 14.7783 35.5757L14.8438 35.563L14.8838 35.6157Z" fill="black" stroke="black" stroke-width="0.212613"/>
<path d="M38.9062 21.2661C38.9906 21.4898 39.1139 21.6975 39.2314 21.9438C39.3335 22.1578 39.4232 22.3895 39.4463 22.647C39.6424 22.6758 39.9166 22.6783 40.2383 22.6665C40.5974 22.6534 41.0151 22.6261 41.4121 22.6177C41.8104 22.6092 42.2032 22.6187 42.5254 22.6812C42.842 22.7426 43.1227 22.8617 43.252 23.0991L43.3174 23.2192L43.1855 23.2524C43.1695 23.2565 43.1296 23.2749 43.0645 23.3169C43.003 23.3565 42.928 23.4114 42.8438 23.4761C42.6756 23.6051 42.4757 23.7725 42.2822 23.9419C42.0887 24.1114 41.9022 24.2814 41.7627 24.4155C41.6929 24.4827 41.6355 24.5402 41.5947 24.5835C41.5742 24.6052 41.5591 24.6228 41.5488 24.6353C41.5451 24.6398 41.5417 24.6427 41.54 24.645L41.5156 24.7134L41.4346 24.7065C41.0135 24.6696 40.5543 24.6945 40.0879 24.7173C39.6253 24.7398 39.1551 24.7599 38.7256 24.7095C38.3878 24.6695 38.1411 24.5562 37.96 24.3872C37.7801 24.2193 37.6733 24.0042 37.5996 23.7769C37.5264 23.5512 37.4832 23.303 37.4375 23.0679C37.3911 22.829 37.342 22.601 37.2578 22.3989L37.2246 22.3218L37.293 22.272L38.7441 21.2173L38.8564 21.1353L38.9062 21.2661Z" fill="black" stroke="black" stroke-width="0.212613"/>
<path d="M27.4375 14.0312C27.5827 14.896 27.5703 15.7683 27.5615 16.627C27.5527 17.4888 27.5477 18.3379 27.7012 19.1738L27.7168 19.2617L27.6328 19.293C27.6159 19.2992 27.5791 19.3237 27.5205 19.3809C27.4653 19.4348 27.4005 19.5073 27.3271 19.5938C27.1846 19.7618 27.0029 19.9915 26.8193 20.2031C26.6332 20.4178 26.4312 20.6307 26.2305 20.7842C26.034 20.9344 25.8153 21.0456 25.6016 21.0127L25.5117 20.999V20.9082C25.5011 19.0116 25.6276 16.9646 25.5117 15.1104L25.5049 14.998H25.6182C25.9392 14.9979 26.1471 14.7836 26.3926 14.5186C26.6265 14.266 26.8964 13.9643 27.3271 13.9424L27.4219 13.9375L27.4375 14.0312Z" fill="black" stroke="black" stroke-width="0.212613"/>
<path d="M34.1152 24.4937L33.918 24.6401C33.9489 24.7404 33.9895 24.8332 34.0352 24.9487C34.0894 25.0859 34.1414 25.2428 34.1621 25.4497C34.5983 29.8863 31.917 33.3607 27.5977 34.1802C27.5938 34.1944 27.5897 34.2123 27.5859 34.2339C27.5764 34.2889 27.569 34.3613 27.5635 34.4478C27.5525 34.6207 27.5494 34.8405 27.5508 35.0688C27.5536 35.5179 27.573 36.0151 27.5713 36.2085L27.5703 36.3149L27.4639 36.313C27.1186 36.3092 26.8902 36.5626 26.6221 36.8706C26.3697 37.1605 26.0773 37.5055 25.6172 37.5005L25.5078 37.4995L25.5117 37.3901C25.568 35.9487 25.5011 34.4935 25.5117 33.0405L25.5127 32.937L25.6172 32.9351C25.8989 32.9312 26.1145 32.7653 26.333 32.5337C26.4467 32.4132 26.5418 32.2974 26.6592 32.1694C26.7702 32.0484 26.8898 31.9306 27.0244 31.8403C27.1149 31.78 27.2318 31.7632 27.3115 31.7573C27.3506 31.7544 27.3866 31.7541 27.4111 31.7534L27.6338 31.5005L27.5693 31.8726C27.5536 31.9644 27.5609 32.0076 27.5674 32.0239C27.569 32.0283 27.5679 32.0287 27.5791 32.0308C27.6 32.0346 27.6352 32.0326 27.6914 32.022C27.718 32.0169 27.7463 32.0112 27.7773 32.0044C27.8078 31.9977 27.8406 31.9902 27.874 31.9839L28.1338 31.9263C30.7867 31.2612 32.3574 28.4762 32.1074 25.7974L32.1016 25.7378L32.1494 25.7017L33.6748 24.5591L33.6592 24.4937H34.1152Z" fill="black" stroke="black" stroke-width="0.212613"/>
<path d="M27.5586 19.0933C27.8598 18.9825 28.2277 19.0084 28.6094 19.1089C28.9933 19.21 29.4052 19.39 29.8037 19.603C30.6004 20.0289 31.359 20.5958 31.7568 20.9614L31.834 21.0327L31.7637 21.1108L30.5762 22.4292L30.5029 22.5112L30.4238 22.4351C29.6702 21.7178 28.589 21.2816 27.5693 21.0425C27.5634 22.8013 27.5755 24.5554 27.5703 26.3159L27.5693 26.4233L27.4629 26.4214C27.1176 26.4176 26.8893 26.671 26.6211 26.979C26.3688 27.2688 26.0762 27.6138 25.6162 27.6089L25.5107 27.6079V27.5024C25.5178 25.3061 25.523 23.1046 25.5107 20.9087L25.5098 20.7837L25.6338 20.8022C25.7567 20.821 25.9135 20.7587 26.1006 20.6157C26.2836 20.4759 26.4742 20.2761 26.6582 20.064C26.8448 19.8488 27.0108 19.6372 27.1641 19.4565C27.2386 19.3687 27.3094 19.2902 27.3721 19.229C27.4311 19.1714 27.4953 19.1177 27.5586 19.0942V19.0933Z" fill="black" stroke="black" stroke-width="0.212613"/>
<path d="M27.5713 26.21V26.3164C27.5696 26.685 27.6158 28.0132 27.6396 29.2842C27.6515 29.9179 27.6579 30.5366 27.6494 31.0098C27.6452 31.2457 27.637 31.4475 27.624 31.5977C27.6176 31.6725 27.6095 31.7376 27.5996 31.7881C27.5947 31.8132 27.5894 31.8373 27.582 31.8584C27.5757 31.8765 27.5634 31.9016 27.5439 31.9238L27.5449 31.9248H27.543V31.9268L27.542 31.9258C27.5277 31.9415 27.5133 31.9498 27.5059 31.9531C27.4971 31.957 27.4892 31.9598 27.4844 31.9609C27.4748 31.9632 27.4657 31.9643 27.46 31.9648C27.448 31.966 27.4335 31.9665 27.4209 31.9668C27.3934 31.9675 27.3617 31.9681 27.3262 31.9707C27.2507 31.9763 27.1828 31.9904 27.1426 32.0176C27.0297 32.094 26.9239 32.197 26.8164 32.3145C26.7144 32.4258 26.5977 32.5649 26.4883 32.6807C26.2623 32.9197 25.9936 33.1432 25.6201 33.1484L25.5107 33.1504L25.5117 33.042L25.5146 30.2725C25.5124 29.3493 25.5091 28.4257 25.5117 27.502V27.3955L25.6191 27.3965C25.9645 27.4003 26.1927 27.1469 26.4609 26.8389C26.7133 26.549 27.0058 26.204 27.4658 26.209L27.5713 26.21Z" fill="black" stroke="black" stroke-width="0.212613"/>
<path d="M31.751 20.9619C32.3559 21.5182 32.7934 22.0161 33.1289 22.5801C33.4644 23.1442 33.6949 23.7697 33.8926 24.5762L33.9092 24.6445L33.8535 24.6865L32.2705 25.873L32.1191 25.9873L32.1006 25.7979C32.0485 25.2411 31.8336 24.5952 31.5264 23.9883C31.2192 23.3815 30.8239 22.8219 30.4189 22.4365L30.3438 22.3652L30.4131 22.2881L31.6006 20.9688L31.6719 20.8887L31.751 20.9619Z" fill="black" stroke="black" stroke-width="0.212613"/>
<path d="M27.4834 20.8037C28.558 21.0396 29.742 21.4955 30.5674 22.2812L30.7266 22.4414C31.0948 22.833 31.4419 23.3458 31.7178 23.8906C32.0329 24.5131 32.2592 25.1859 32.3145 25.7773C32.5804 28.6238 30.8509 31.6248 27.9102 32.1934C27.8803 32.1992 27.8502 32.206 27.8193 32.2129C27.7891 32.2197 27.7571 32.2266 27.7266 32.2324C27.6682 32.2435 27.5984 32.2531 27.5352 32.2412C27.4627 32.2275 27.3968 32.1845 27.3643 32.1016C27.3363 32.0301 27.3378 31.94 27.3555 31.8369L27.3613 31.8057L27.3818 31.7832C27.373 31.7929 27.3723 31.7986 27.376 31.7881C27.3788 31.7798 27.3828 31.766 27.3867 31.7461C27.3945 31.7065 27.402 31.6506 27.4082 31.5791C27.4205 31.4361 27.4284 31.2396 27.4326 31.0049C27.441 30.5357 27.4347 29.9203 27.4229 29.2871C27.3992 28.0244 27.3527 26.685 27.3545 26.3145V20.7754L27.4834 20.8037Z" fill="#FEFDFD" stroke="black" stroke-width="0.212613"/>
</svg>
