<svg width="98" height="123" viewBox="0 0 98 123" fill="none" xmlns="http://www.w3.org/2000/svg">
<path d="M83.1237 92.0521C76.8296 92.0521 71.7109 86.9305 71.7109 80.6394C71.7109 74.3482 76.8296 69.2266 83.1237 69.2266C89.4179 69.2266 94.5365 74.3482 94.5365 80.6394C94.5365 86.9305 89.4179 92.0521 83.1237 92.0521Z" fill="#FFDFC8"/>
<path d="M83.1251 92.0525H77.4187C66.4071 92.0525 57.0659 83.0916 57.0659 72.0801L46.5098 92.5711C51.7287 100.417 59.7727 106.006 68.842 108.169L68.8591 119.85C68.8591 121.427 70.1378 122.704 71.7123 122.704H94.5379C96.1146 122.704 97.3911 121.427 97.3911 119.85V106.318C97.3911 98.4499 90.9907 92.0525 83.1251 92.0525Z" fill="#8AC5FF"/>
<path d="M14.2663 92.0521C7.97218 92.0521 2.85352 86.9305 2.85352 80.6394C2.85352 74.3482 7.97218 69.2266 14.2663 69.2266C20.5604 69.2266 25.6791 74.3482 25.6791 80.6394C25.6791 86.9305 20.5604 92.0521 14.2663 92.0521Z" fill="#FFDFC8"/>
<path d="M48.6946 63.3301C43.9578 63.3301 40.135 67.1529 40.135 71.8897C40.135 82.9027 30.9854 92.0523 19.9724 92.0523H14.266C6.39146 92.0523 0 98.4437 0 106.318V119.85C0 121.448 1.25496 122.703 2.8532 122.703H25.6788C27.277 122.703 28.532 121.448 28.532 119.85V108.201C36.5781 106.261 43.6733 101.677 48.6946 95.6284C54.0584 89.1798 57.2542 80.849 57.2542 71.8897C57.2542 67.1529 53.4313 63.3301 48.6946 63.3301Z" fill="#1057CD"/>
<path d="M57.2549 71.8897C57.2549 80.849 54.0592 89.1798 48.6953 95.6284V63.3301C53.4321 63.3301 57.2549 67.1529 57.2549 71.8897Z" fill="#437CD9"/>
<path d="M55.7373 50.8421V54.8217C55.7373 57.7446 53.3779 60.1043 50.4547 60.1043H46.933C44.0098 60.1043 41.6504 57.7446 41.6504 54.8217V50.8421C41.6504 49.8559 42.4251 48.9639 43.4113 48.9639H53.9764C54.9627 48.9639 55.7373 49.8559 55.7373 50.8421Z" fill="#FEA832"/>
<path d="M48.6929 14.2041C47.4251 14.2041 46.1574 14.3449 44.8893 14.6619C39.2546 15.965 34.7117 20.4374 33.3381 26.0371C31.9647 31.6718 33.5494 37.377 37.5993 41.3565C39.0433 42.8006 39.8886 44.9487 39.8886 47.2732V47.6605C39.8886 50.5835 42.248 53.0605 45.1712 53.0605H52.2146C55.1378 53.0605 57.4972 50.5835 57.4972 47.6605V47.2732C57.4972 44.9839 58.3776 42.7652 59.9272 41.2509C62.8856 38.2574 64.5407 34.278 64.5407 30.0519C64.5407 21.177 57.3565 14.2041 48.6929 14.2041Z" fill="#FED132"/>
<path d="M32.5073 16.3557L27.5273 11.3757C26.8395 10.6879 26.8395 9.57351 27.5273 8.88572C28.2151 8.19792 29.3295 8.19792 30.0173 8.88572L34.9973 13.8657C35.6851 14.5535 35.6851 15.6679 34.9973 16.3557C34.3095 17.0436 33.1952 17.0436 32.5073 16.3557Z" fill="#FEA832"/>
<path d="M27.5623 31.8127H20.4015C19.4282 31.8127 18.6406 31.0252 18.6406 30.0519C18.6406 29.0786 19.4282 28.291 20.4015 28.291H27.5623C28.5356 28.291 29.3232 29.0786 29.3232 30.0519C29.3232 31.0252 28.5356 31.8127 27.5623 31.8127Z" fill="#FEA832"/>
<path d="M76.9842 31.8127H69.8234C68.8501 31.8127 68.0625 31.0252 68.0625 30.0519C68.0625 29.0786 68.8501 28.291 69.8234 28.291H76.9842C77.9575 28.291 78.7451 29.0786 78.7451 30.0519C78.7451 31.0252 77.9575 31.8127 76.9842 31.8127Z" fill="#FE9923"/>
<path d="M62.3889 16.3559C61.7011 15.6681 61.7011 14.5537 62.3889 13.8659L67.3689 8.88596C68.0566 8.19817 69.171 8.19817 69.8588 8.88596C70.5466 9.57376 70.5466 10.6881 69.8588 11.3759L64.8789 16.3559C64.191 17.0438 63.0767 17.0438 62.3889 16.3559Z" fill="#FE9923"/>
<path d="M50.4534 1.76087V8.92172C50.4534 9.90769 49.6787 10.6826 48.6925 10.6826C47.7063 10.6826 46.9316 9.90769 46.9316 8.92172V1.76087C46.9316 0.774663 47.7063 0 48.6925 0C49.6787 0 50.4534 0.774663 50.4534 1.76087Z" fill="#FEA832"/>
<path d="M50.4542 1.76087V8.92172C50.4542 9.90769 49.6796 10.6826 48.6934 10.6826V0C49.6796 0 50.4542 0.774663 50.4542 1.76087Z" fill="#FE9923"/>
</svg>
