<svg width="113" height="138" viewBox="0 0 113 138" fill="none" xmlns="http://www.w3.org/2000/svg">
<path d="M90.1691 13.6886V108.392C90.1691 111.312 87.8015 113.68 84.881 113.68H6.23543C3.31486 113.68 0.947266 111.312 0.947266 108.392V13.6886C0.947266 10.768 3.31486 8.40039 6.23543 8.40039H84.881C87.8015 8.40039 90.1691 10.768 90.1691 13.6886Z" fill="#1057CD"/>
<path d="M83.7907 18.3028V103.765C83.7907 105.712 82.2123 107.29 80.2653 107.29H10.8614C8.91433 107.29 7.33594 105.712 7.33594 103.765V18.3028C7.33594 16.3557 8.91433 14.7773 10.8614 14.7773H80.2653C82.2123 14.7773 83.7907 16.3557 83.7907 18.3028Z" fill="#F5F5F5"/>
<path d="M63.1011 9.81887L62.5281 13.4201L62.1241 15.9824C61.9987 16.7781 61.3129 17.3643 60.5073 17.3643H30.5903C29.7825 17.3643 29.0956 16.775 28.9726 15.9766L28.0243 9.81887C27.7297 8.06778 29.1048 6.46375 30.8886 6.46375H39.9566C39.9566 3.36998 42.4609 0.865234 45.5543 0.865234C48.6481 0.865234 51.1524 3.36998 51.1524 6.46375H60.2203C62.0206 6.46375 63.3792 8.06778 63.1011 9.81887Z" fill="#8AC5FF"/>
<path d="M47.4537 6.38722C47.4537 7.435 46.6026 8.28616 45.5548 8.28616C44.5074 8.28616 43.6562 7.435 43.6562 6.38722C43.6562 5.34025 44.5074 4.48828 45.5548 4.48828C46.6026 4.48828 47.4537 5.34025 47.4537 6.38722Z" fill="white"/>
<path d="M30.6768 27.4658V41.2578C30.6768 42.2314 29.8876 43.0206 28.9141 43.0206H15.1221C14.1486 43.0206 13.3594 42.2314 13.3594 41.2578V27.4658C13.3594 26.4923 14.1486 25.7031 15.1221 25.7031H28.9141C29.8876 25.7031 30.6768 26.4923 30.6768 27.4658Z" fill="#1057CD"/>
<path d="M20.278 38.402C20.0686 38.402 19.8592 38.3221 19.6994 38.1622L16.7359 35.1991C16.4162 34.8799 16.4162 34.3616 16.7359 34.0419C17.0555 33.7222 17.5734 33.7222 17.8931 34.0419L20.278 36.4263L26.1443 30.5601C26.4639 30.2404 26.9818 30.2404 27.3015 30.5601C27.6212 30.8798 27.6212 31.3977 27.3015 31.7174L20.8566 38.1622C20.6968 38.3221 20.4874 38.402 20.278 38.402Z" fill="#E9E9FF"/>
<path d="M77.7684 29.8295V30.6831C77.7684 31.0948 77.4447 31.4189 77.0327 31.4189H37.1537C36.7417 31.4189 36.418 31.0948 36.418 30.6831V29.8295C36.418 29.4178 36.7417 29.0938 37.1537 29.0938H77.0327C77.4447 29.0938 77.7684 29.4178 77.7684 29.8295Z" fill="#CFCFFF"/>
<path d="M61.5708 38.0424V38.896C61.5708 39.3077 61.2471 39.6318 60.8351 39.6318H37.1537C36.7417 39.6318 36.418 39.3077 36.418 38.896V38.0424C36.418 37.6307 36.7417 37.3066 37.1537 37.3066H60.8351C61.2471 37.3066 61.5708 37.6307 61.5708 38.0424Z" fill="#CFCFFF"/>
<path d="M77.768 38.0424V38.896C77.768 39.3077 77.4443 39.6318 77.0322 39.6318H66.4506C66.0385 39.6318 65.7148 39.3077 65.7148 38.896V38.0424C65.7148 37.6307 66.0385 37.3066 66.4506 37.3066H77.0322C77.4443 37.3066 77.768 37.6307 77.768 38.0424Z" fill="#CFCFFF"/>
<path d="M30.6768 48.6983V62.4903C30.6768 63.4638 29.8876 64.253 28.9141 64.253H15.1221C14.1486 64.253 13.3594 63.4638 13.3594 62.4903V48.6983C13.3594 47.7247 14.1486 46.9355 15.1221 46.9355H28.9141C29.8876 46.9355 30.6768 47.7247 30.6768 48.6983Z" fill="#1057CD"/>
<path d="M20.278 59.6344C20.0686 59.6344 19.8592 59.5545 19.6994 59.3947L16.7359 56.4316C16.4162 56.1123 16.4162 55.594 16.7359 55.2743C17.0555 54.9546 17.5734 54.9546 17.8931 55.2743L20.278 57.6588L26.1443 51.7925C26.4639 51.4728 26.9818 51.4728 27.3015 51.7925C27.6212 52.1122 27.6212 52.6301 27.3015 52.9498L20.8566 59.3947C20.6968 59.5545 20.4874 59.6344 20.278 59.6344Z" fill="#E9E9FF"/>
<path d="M77.7684 51.0619V51.9155C77.7684 52.3273 77.4447 52.6513 77.0327 52.6513H37.1537C36.7417 52.6513 36.418 52.3273 36.418 51.9155V51.0619C36.418 50.6502 36.7417 50.3262 37.1537 50.3262H77.0327C77.4447 50.3262 77.7684 50.6502 77.7684 51.0619Z" fill="#CFCFFF"/>
<path d="M61.5708 59.2748V60.1284C61.5708 60.5402 61.2471 60.8642 60.8351 60.8642H37.1537C36.7417 60.8642 36.418 60.5402 36.418 60.1284V59.2748C36.418 58.8631 36.7417 58.5391 37.1537 58.5391H60.8351C61.2471 58.5391 61.5708 58.8631 61.5708 59.2748Z" fill="#CFCFFF"/>
<path d="M77.768 59.2748V60.1284C77.768 60.5402 77.4443 60.8642 77.0322 60.8642H66.4506C66.0385 60.8642 65.7148 60.5402 65.7148 60.1284V59.2748C65.7148 58.8631 66.0385 58.5391 66.4506 58.5391H77.0322C77.4443 58.5391 77.768 58.8631 77.768 59.2748Z" fill="#CFCFFF"/>
<path d="M30.6768 69.9307V83.7227C30.6768 84.6962 29.8876 85.4854 28.9141 85.4854H15.1221C14.1486 85.4854 13.3594 84.6962 13.3594 83.7227V69.9307C13.3594 68.9572 14.1486 68.168 15.1221 68.168H28.9141C29.8876 68.168 30.6768 68.9572 30.6768 69.9307Z" fill="#1057CD"/>
<path d="M20.278 80.8668C20.0686 80.8668 19.8592 80.7869 19.6994 80.6271L16.7359 77.664C16.4162 77.3447 16.4162 76.8264 16.7359 76.5067C17.0555 76.187 17.5734 76.187 17.8931 76.5067L20.278 78.8912L26.1443 73.0249C26.4639 72.7052 26.9818 72.7052 27.3015 73.0249C27.6212 73.3446 27.6212 73.8625 27.3015 74.1822L20.8566 80.6271C20.6968 80.7869 20.4874 80.8668 20.278 80.8668Z" fill="#E9E9FF"/>
<path d="M77.7684 72.2944V73.148C77.7684 73.5597 77.4447 73.8837 77.0327 73.8837H37.1537C36.7417 73.8837 36.418 73.5597 36.418 73.148V72.2944C36.418 71.8826 36.7417 71.5586 37.1537 71.5586H77.0327C77.4447 71.5586 77.7684 71.8826 77.7684 72.2944Z" fill="#CFCFFF"/>
<path d="M61.5708 80.5073V81.3609C61.5708 81.7726 61.2471 82.0966 60.8351 82.0966H37.1537C36.7417 82.0966 36.418 81.7726 36.418 81.3609V80.5073C36.418 80.0955 36.7417 79.7715 37.1537 79.7715H60.8351C61.2471 79.7715 61.5708 80.0955 61.5708 80.5073Z" fill="#CFCFFF"/>
<path d="M77.768 80.5073V81.3609C77.768 81.7726 77.4443 82.0966 77.0322 82.0966H66.4506C66.0385 82.0966 65.7148 81.7726 65.7148 81.3609V80.5073C65.7148 80.0955 66.0385 79.7715 66.4506 79.7715H77.0322C77.4443 79.7715 77.768 80.0955 77.768 80.5073Z" fill="#CFCFFF"/>
<g opacity="0.2">
<path d="M71.9179 113.683H34.2664L0.951172 14.5829V13.6844C0.951172 10.776 3.31294 8.3962 6.23933 8.3962H28.1675C28.5376 7.28503 29.5954 6.45703 30.8821 6.45703H35.8351L71.9179 113.683Z" fill="white"/>
<path d="M90.1622 107.496V110.158C90.1622 112.097 88.5932 113.683 86.6368 113.683H81.5776L43.7324 1.16867C44.2962 0.975007 44.9133 0.869141 45.5476 0.869141C48.6501 0.869141 51.1534 3.37207 51.1534 6.45683H56.1946L90.1622 107.496Z" fill="white"/>
</g>
<path d="M77.5951 114.939L62.6522 106.312C61.7861 105.812 60.6786 106.108 60.1786 106.974L49.686 125.148C49.3654 125.703 49.3624 126.387 49.678 126.945C49.9937 127.503 50.581 127.853 51.2222 127.864L60.0803 128.021L64.6451 135.614C64.8061 135.881 65.0302 136.098 65.2918 136.249C65.5673 136.408 65.8844 136.495 66.2131 136.492C66.8544 136.486 67.4448 136.142 67.7654 135.586L78.2579 117.413C78.7579 116.547 78.4612 115.439 77.5951 114.939Z" fill="#1057CD"/>
<path d="M77.5951 114.941L70.123 110.627L60.0795 128.023L60.0803 128.023L64.6451 135.616C64.8061 135.884 65.0302 136.1 65.2918 136.251C65.5673 136.41 65.8844 136.497 66.2131 136.494C66.8544 136.488 67.4448 136.144 67.7654 135.588L78.258 117.415C78.7579 116.549 78.4612 115.441 77.5951 114.941Z" fill="#1057CD"/>
<path d="M98.1576 106.313L83.2147 114.94C82.3486 115.44 82.0519 116.548 82.5519 117.414L93.0444 135.588C93.365 136.143 93.9555 136.487 94.5966 136.493C95.2377 136.499 95.8341 136.165 96.1646 135.615L100.729 128.022L109.587 127.865C109.9 127.86 110.199 127.774 110.461 127.623C110.737 127.464 110.97 127.233 111.132 126.946C111.448 126.388 111.444 125.705 111.124 125.149L100.631 106.976C100.131 106.11 99.0237 105.813 98.1576 106.313Z" fill="#1057CD"/>
<path d="M105.497 99.0109C105.497 96.6491 104.359 94.4559 102.529 93.0728C103.422 90.96 103.311 88.4923 102.13 86.4467C100.949 84.4012 98.8677 83.0707 96.5913 82.7878C96.3083 80.5117 94.9778 78.43 92.9324 77.2491C90.8867 76.0679 88.4188 75.9566 86.3062 76.8499C84.9232 75.0203 82.7302 73.8828 80.3684 73.8828C78.0066 73.8828 75.8135 75.0203 74.4305 76.85C72.3181 75.9571 69.8499 76.0683 67.8044 77.2494C65.7589 78.4302 64.4284 80.5119 64.1454 82.788C61.8693 83.071 59.7878 84.4015 58.6068 86.447C57.4259 88.4923 57.3145 90.9604 58.2075 93.073C56.3779 94.456 55.2402 96.6492 55.2402 99.0111C55.2402 101.373 56.3777 103.566 58.2075 104.949C57.3145 107.062 57.426 109.53 58.6068 111.575C59.7879 113.621 61.8692 114.951 64.1454 115.234C64.4284 117.51 65.7589 119.592 67.8043 120.773C69.8498 121.954 72.3175 122.065 74.4303 121.172C75.8134 123.002 78.0064 124.139 80.3684 124.139C82.7301 124.139 84.9232 123.002 86.3063 121.172C88.419 122.065 90.887 121.954 92.9324 120.773C94.978 119.592 96.3085 117.51 96.5913 115.234C98.8675 114.951 100.949 113.621 102.13 111.575C103.311 109.53 103.422 107.062 102.529 104.949C104.359 103.566 105.497 101.373 105.497 99.0109Z" fill="#FFCD00"/>
<path d="M80.367 115.482C71.2853 115.482 63.8965 108.093 63.8965 99.0114C63.8965 89.9296 71.2853 82.541 80.367 82.541C89.4488 82.541 96.8376 89.9296 96.8376 99.0116C96.8376 108.094 89.4489 115.482 80.367 115.482Z" fill="#FEF7CB"/>
<path d="M98.1576 106.313L90.6855 110.627L100.729 128.023L100.73 128.022L109.588 127.865C109.9 127.86 110.199 127.774 110.461 127.623C110.737 127.464 110.97 127.233 111.132 126.946C111.448 126.388 111.445 125.705 111.124 125.149L100.631 106.976C100.131 106.11 99.0237 105.813 98.1576 106.313Z" fill="#1057CD"/>
<path d="M77.8801 104.626C77.8254 104.626 77.771 104.623 77.7162 104.618C77.2154 104.573 76.756 104.321 76.4481 103.924L72.9377 99.3892C72.3255 98.5983 72.4701 97.461 73.261 96.8488C74.0519 96.2364 75.1892 96.3812 75.8014 97.1721L78.1203 100.168L85.1547 93.8609C85.8993 93.1934 87.0441 93.2559 87.7119 94.0005C88.3794 94.7451 88.317 95.8899 87.5723 96.5577L79.089 104.164C78.7552 104.462 78.3242 104.626 77.8801 104.626Z" fill="#1057CD"/>
<path d="M102.526 93.0729C103.42 90.9602 103.308 88.4924 102.127 86.4468C100.946 84.4013 98.8649 83.0708 96.5885 82.7879C96.3055 80.5118 94.975 78.4301 92.9296 77.2493C90.8839 76.0681 88.416 75.9567 86.3034 76.85C84.9205 75.0203 82.7274 73.8828 80.3656 73.8828H80.3652V124.139H80.3656C82.7273 124.139 84.9205 123.001 86.3035 121.172C88.4162 122.065 90.8842 121.953 92.9296 120.772C94.9752 119.592 96.3057 117.51 96.5885 115.234C98.8647 114.951 100.946 113.62 102.127 111.575C103.308 109.53 103.42 107.061 102.527 104.949C104.356 103.566 105.494 101.373 105.494 99.0109C105.494 96.6489 104.356 94.4559 102.526 93.0729Z" fill="#FFCD00"/>
<path d="M80.3656 82.541H80.3652V115.482H80.3656C89.4475 115.482 96.8361 108.093 96.8361 99.0114C96.8361 89.9296 89.4475 82.541 80.3656 82.541Z" fill="#FEF7CB"/>
<path d="M85.1538 93.8609L80.3652 98.1541V103.018L87.5714 96.5576C88.3161 95.8899 88.3785 94.7451 87.7109 94.0004C87.0432 93.2559 85.8983 93.1934 85.1538 93.8609Z" fill="#1057CD"/>
</svg>
