<svg width="126" height="126" viewBox="0 0 126 126" fill="none" xmlns="http://www.w3.org/2000/svg">
<path fill-rule="evenodd" clip-rule="evenodd" d="M68.7374 108.635C68.7039 109.582 67.9085 110.323 66.9608 110.29C66.0131 110.257 65.2721 109.461 65.3054 108.513L65.5177 103.017C65.561 101.79 66.842 101.017 67.9393 101.512L72.9712 103.446C73.8556 103.784 74.2984 104.776 73.9602 105.66C73.6221 106.544 72.6308 106.987 71.7464 106.649L71.6489 106.612C75.4685 111.727 80.8127 115.205 86.6688 116.774C101.432 120.73 116.666 111.937 120.622 97.1727C124.578 82.4093 115.786 67.1751 101.021 63.2189C94.1982 61.3907 86.6833 62.1523 80.0786 65.9321C80.0191 65.9717 79.957 66.0077 79.8928 66.0399C71.5926 70.8904 68.0646 80.7863 64.5444 90.6628C60.8284 101.09 57.1188 111.494 47.8541 116.913C47.7793 116.964 47.7001 117.01 47.6174 117.05C40.1915 121.295 31.7502 122.151 24.0901 120.098C7.49474 115.651 -2.3938 98.5285 2.05336 81.9319C6.50003 65.3363 23.6227 55.4475 40.2193 59.8947C46.8808 61.6796 52.9534 65.6631 57.2564 71.5275L57.263 71.358C57.2965 70.4103 58.0919 69.6693 59.0396 69.7025C59.9873 69.736 60.7283 70.5314 60.695 71.4791L60.4827 76.9758C60.4393 78.2023 59.1584 78.9758 58.0611 78.4809L53.0292 76.5464C52.1448 76.2082 51.702 75.217 52.0399 74.3325C52.3781 73.4481 53.3693 73.0051 54.2538 73.3432L54.3512 73.3806C50.5316 68.2658 45.1872 64.7878 39.3314 63.2187C24.5643 59.2617 9.33503 68.0515 5.37784 82.8198C1.4209 97.5869 10.2106 112.816 24.979 116.774C31.8341 118.61 39.388 117.834 46.0153 114.007L46.0168 114.007C54.2735 109.238 57.7842 99.3886 61.3019 89.5185C65.0484 79.0066 68.8028 68.4728 78.2632 63.0107L78.2701 63.0068C85.7233 58.7061 94.2115 57.8314 101.91 59.8944C118.504 64.3406 128.394 81.466 123.948 98.0606C119.501 114.654 102.376 124.544 85.7816 120.098C79.1201 118.313 73.0475 114.329 68.7445 108.465L68.7379 108.635H68.7374Z" fill="#FFCD00"/>
<path fill-rule="evenodd" clip-rule="evenodd" d="M46.4151 34.0668V53.0273C46.4151 53.805 45.7804 54.4396 45.0027 54.4396H37.5705C36.7926 54.4396 36.1581 53.805 36.1581 53.0273V34.0668H32.3685C31.9074 34.0668 31.5129 33.8108 31.3251 33.3895C31.1373 32.9682 31.2109 32.5036 31.5193 32.1608L40.4375 22.2493C40.6621 21.9998 40.9511 21.8711 41.2865 21.8711C41.6219 21.8711 41.9111 21.9998 42.1355 22.2493L51.0537 32.1608C51.3621 32.5036 51.4356 32.9682 51.2479 33.3895C51.0603 33.8108 50.6656 34.0668 50.2044 34.0668H46.4148H46.4151Z" fill="#0E4CB0"/>
<path fill-rule="evenodd" clip-rule="evenodd" d="M41.2464 54.4393H37.5705C36.7926 54.4393 36.1581 53.8046 36.1581 53.0269V34.0664H32.3685C31.9074 34.0664 31.5129 33.8105 31.3251 33.3892C31.1373 32.9678 31.2109 32.5032 31.5193 32.1604L39.4083 23.3926L47.2973 32.1604C47.6057 32.5032 47.6793 32.9678 47.4915 33.3892C47.304 33.8105 46.9092 34.0664 46.4481 34.0664H42.6585V53.0269C42.6585 53.8046 42.0238 54.4393 41.2461 54.4393H41.2464Z" fill="#1057CD"/>
<path fill-rule="evenodd" clip-rule="evenodd" d="M68.1297 17.0319V61.3735C68.1297 62.1512 67.4945 62.7859 66.7173 62.7859H59.2851C58.5079 62.7859 57.8727 62.1512 57.8727 61.3735V17.0319H54.0831C53.6224 17.0319 53.2275 16.7757 53.0399 16.3544C52.8522 15.933 52.9258 15.4682 53.2341 15.1256L62.1523 5.21418C62.377 4.96464 62.6657 4.83594 63.0013 4.83594C63.337 4.83594 63.6259 4.96489 63.8503 5.21418L72.7685 15.1256C73.0769 15.4684 73.1505 15.933 72.9627 16.3544C72.7752 16.7757 72.38 17.0319 71.9195 17.0319H68.1299H68.1297Z" fill="#0E4CB0"/>
<path fill-rule="evenodd" clip-rule="evenodd" d="M62.961 62.7852H59.2851C58.5079 62.7852 57.8727 62.1506 57.8727 61.3729V17.0312H54.0831C53.6224 17.0312 53.2275 16.7751 53.0399 16.3538C52.8522 15.9324 52.9258 15.4676 53.2341 15.125L61.1231 6.35742L69.0122 15.125C69.3205 15.4678 69.3941 15.9324 69.2063 16.3538C69.0188 16.7751 68.6236 17.0312 68.1631 17.0312H64.3735V61.3729C64.3735 62.1506 63.7381 62.7852 62.961 62.7852Z" fill="#1057CD"/>
<path fill-rule="evenodd" clip-rule="evenodd" d="M89.8408 34.0668V53.0273C89.8408 53.805 89.2061 54.4396 88.4284 54.4396H80.9961C80.2182 54.4396 79.5838 53.805 79.5838 53.0273V34.0668H75.7942C75.333 34.0668 74.9385 33.8108 74.7508 33.3895C74.5633 32.9682 74.6366 32.5036 74.9449 32.1608L83.8631 22.2493C84.0878 21.9998 84.3767 21.8711 84.7122 21.8711C85.0476 21.8711 85.3367 21.9998 85.5612 22.2493L94.4794 32.1608C94.7877 32.5036 94.8613 32.9682 94.6735 33.3895C94.486 33.8108 94.0913 34.0668 93.6301 34.0668H89.8405H89.8408Z" fill="#0E4CB0"/>
<path fill-rule="evenodd" clip-rule="evenodd" d="M84.672 54.4393H80.9961C80.2182 54.4393 79.5838 53.8046 79.5838 53.0269V34.0664H75.7942C75.333 34.0664 74.9385 33.8105 74.7508 33.3892C74.5633 32.9678 74.6366 32.5032 74.9449 32.1604L82.834 23.3926L90.723 32.1604C91.0314 32.5032 91.1049 32.9678 90.9172 33.3892C90.7294 33.8105 90.3349 34.0664 89.8737 34.0664H86.0841V53.0269C86.0841 53.8046 85.4497 54.4393 84.672 54.4393Z" fill="#1057CD"/>
<path fill-rule="evenodd" clip-rule="evenodd" d="M40.7494 75.9906L43.626 74.0618L48.1748 78.6103L46.2457 81.4869L48.161 86.1098L51.5586 86.7796V93.2128L48.161 93.8827L46.2457 98.5055L48.1748 101.382L43.626 105.931L40.7494 104.002L36.1265 105.917L35.4567 109.315H29.0238L28.3537 105.917L23.7308 104.002L20.8545 105.931L16.3057 101.382L18.2345 98.5055L16.3194 93.8827L12.9219 93.2128V86.7796L16.3194 86.1098L18.2345 81.4869L16.3057 78.6103L20.8545 74.0618L23.7308 75.9906L28.3537 74.0753L29.0238 70.6777H35.4567L36.1265 74.0753L40.7494 75.9906Z" fill="#0E4CB0"/>
<path fill-rule="evenodd" clip-rule="evenodd" d="M40.7494 75.9906L42.3835 74.895L46.099 78.6103L44.1701 81.4869L46.0852 86.1098L49.483 86.7796V89.9963V93.2128L46.0852 93.8827L44.1701 98.5055L46.099 101.382L42.3835 105.098L40.7494 104.002L39.0676 102.874L34.258 104.867L33.3809 109.315H29.0235L28.3539 105.917L23.7308 104.002L22.0104 103.289L19.7372 104.813L16.3057 101.382L18.2348 98.5055L16.3194 93.8827L12.9219 93.2128V86.7796L16.3194 86.1098L18.2348 81.4869L16.3057 78.6103L19.7372 75.179L22.0104 76.7036L23.7308 75.9906L28.3539 74.0753L29.0235 70.6777H33.3809L34.258 75.1259L39.0676 77.1185L40.7494 75.9906Z" fill="#1057CD"/>
<path d="M36.5692 97.7575C40.8643 94.3706 41.6006 88.1432 38.2138 83.8481C34.8269 79.553 28.5995 78.8167 24.3043 82.2035C20.0092 85.5904 19.2729 91.8178 22.6598 96.1129C26.0466 100.408 32.2741 101.144 36.5692 97.7575Z" fill="#0E4CB0"/>
<path d="M41.8816 92.2524C43.1181 86.9232 39.8004 81.6005 34.4711 80.364C29.1419 79.1274 23.8193 82.4452 22.5827 87.7744C21.3462 93.1036 24.6639 98.4263 29.9932 99.6628C35.3224 100.899 40.645 97.5816 41.8816 92.2524Z" fill="white"/>
<path fill-rule="evenodd" clip-rule="evenodd" d="M102.269 75.9906L105.146 74.0618L109.694 78.6103L107.765 81.4869L109.681 86.1098L113.078 86.7796V93.2128L109.681 93.8827L107.765 98.5055L109.694 101.382L105.146 105.931L102.269 104.002L97.6461 105.917L96.9762 109.315H90.5433L89.8732 105.917L85.2503 104.002L82.374 105.931L77.8252 101.382L79.7541 98.5055L77.839 93.8827L74.4414 93.2128V86.7796L77.839 86.1098L79.7541 81.4869L77.8252 78.6103L82.374 74.0618L85.2503 75.9906L89.8732 74.0753L90.5433 70.6777H96.9762L97.6461 74.0753L102.269 75.9906Z" fill="#0E4CB0"/>
<path fill-rule="evenodd" clip-rule="evenodd" d="M102.269 75.9906L103.903 74.895L107.619 78.6103L105.69 81.4869L107.605 86.1098L111.003 86.7796V89.9963V93.2128L107.605 93.8827L105.69 98.5055L107.619 101.382L103.903 105.098L102.269 104.002L100.587 102.874L95.7777 104.867L94.9007 109.315H90.5431L89.8735 105.917L85.2503 104.002L83.5299 103.289L81.2567 104.813L77.8252 101.382L79.7543 98.5055L77.839 93.8827L74.4414 93.2128V86.7796L77.839 86.1098L79.7543 81.4869L77.8252 78.6103L81.2567 75.179L83.5299 76.7036L85.2503 75.9906L89.8735 74.0753L90.5431 70.6777H94.9007L95.7777 75.1259L100.587 77.1185L102.269 75.9906Z" fill="#1057CD"/>
<path d="M95.12 99.4483C100.312 97.7193 103.12 92.1083 101.391 86.9159C99.6621 81.7235 94.0512 78.9158 88.8588 80.6448C83.6663 82.3738 80.8587 87.9847 82.5876 93.1771C84.3166 98.3696 89.9276 101.177 95.12 99.4483Z" fill="#0E4CB0"/>
<path d="M103.401 92.3201C104.66 86.9963 101.364 81.6604 96.0405 80.4019C90.7167 79.1435 85.3808 82.4391 84.1224 87.7628C82.8639 93.0866 86.1595 98.4225 91.4833 99.681C96.807 100.939 102.143 97.6438 103.401 92.3201Z" fill="white"/>
</svg>
