<svg width="113" height="120" viewBox="0 0 113 120" fill="none" xmlns="http://www.w3.org/2000/svg">
<path d="M53.3525 79.6377V115.785C53.3524 117.355 52.0819 118.625 50.5117 118.625H3.99512C2.42507 118.625 1.15545 117.355 1.15527 115.785V79.6377H53.3525Z" fill="#F5F5F5" stroke="#8AC5FF" stroke-width="1.12258"/>
<path d="M53.9135 79.0714V74.1707C53.9135 72.2906 52.3921 70.769 50.5118 70.769L3.99541 70.7598C2.11511 70.7598 0.59375 72.2906 0.59375 74.161V79.0714H53.9135Z" fill="#1057CD"/>
<path d="M12.7068 74.9168C12.7068 75.7362 12.0509 76.3921 11.2315 76.3921C10.4115 76.3921 9.75586 75.7362 9.75586 74.9168C9.75586 74.0968 10.4115 73.4414 11.2315 73.4414C12.0509 73.4414 12.7068 74.0968 12.7068 74.9168Z" fill="#E9E9FF"/>
<path d="M7.50222 74.9168C7.50222 75.7362 6.83633 76.3921 6.02687 76.3921C5.20715 76.3921 4.54102 75.7362 4.54102 74.9168C4.54102 74.0968 5.20715 73.4414 6.02687 73.4414C6.83633 73.4414 7.50222 74.0968 7.50222 74.9168Z" fill="#E9E9FF"/>
<path d="M17.9238 74.9168C17.9238 75.7362 17.258 76.3921 16.4382 76.3921C15.6288 76.3921 14.9629 75.7362 14.9629 74.9168C14.9629 74.0968 15.6288 73.4414 16.4382 73.4414C17.258 73.4414 17.9238 74.0968 17.9238 74.9168Z" fill="#E9E9FF"/>
<path d="M30.4539 73.8535C29.8705 73.8535 29.3906 74.3259 29.3906 74.9168C29.3906 75.5074 29.8705 75.9801 30.4539 75.9801H48.9002C49.4909 75.9801 49.9708 75.5074 49.9708 74.9168C49.9708 74.3259 49.4909 73.8535 48.9002 73.8535H30.4539Z" fill="#E9E9FF"/>
<path d="M14.2327 82.7767V83.6152C14.2327 83.7192 14.146 83.806 14.0422 83.806H3.86052C3.75665 83.806 3.66992 83.7192 3.66992 83.6152V82.7767C3.66992 82.6727 3.75665 82.5859 3.86052 82.5859H14.0422C14.146 82.5859 14.2327 82.6727 14.2327 82.7767Z" fill="#1359CE"/>
<path d="M23.8604 86.2568C23.8728 86.2803 23.8888 86.3102 23.9043 86.3496C23.9819 86.5475 24.042 86.8564 24.042 87.2178V93.9082C24.042 94.2695 23.9819 94.5784 23.9043 94.7764C23.8887 94.816 23.8729 94.8466 23.8604 94.8701H4.41211C4.39963 94.8466 4.38464 94.8159 4.36914 94.7764C4.29153 94.5784 4.23145 94.2696 4.23145 93.9082V87.2178C4.23147 86.8564 4.29153 86.5475 4.36914 86.3496C4.38452 86.3104 4.39971 86.2802 4.41211 86.2568H23.8604Z" stroke="#1057CD" stroke-width="1.12258"/>
<path d="M23.8604 86.2568C23.8728 86.2803 23.8888 86.3102 23.9043 86.3496C23.9819 86.5475 24.042 86.8564 24.042 87.2178V93.9082C24.042 94.2695 23.9819 94.5784 23.9043 94.7764C23.8887 94.816 23.8729 94.8466 23.8604 94.8701H4.41211C4.39963 94.8466 4.38464 94.8159 4.36914 94.7764C4.29153 94.5784 4.23145 94.2696 4.23145 93.9082V87.2178C4.23147 86.8564 4.29153 86.5475 4.36914 86.3496C4.38452 86.3104 4.39971 86.2802 4.41211 86.2568H23.8604Z" stroke="#1359CE" stroke-width="1.12258"/>
<path d="M49.1626 99.9146V103.375C49.1626 103.805 48.5723 104.163 47.8655 104.163H4.96706C4.26018 104.163 3.66992 103.805 3.66992 103.375V99.9146C3.66992 99.485 4.26018 99.127 4.96706 99.127H47.8655C48.5723 99.127 49.1626 99.485 49.1626 99.9146Z" fill="#1359CE"/>
<path d="M49.1578 86.0141V87.4148C49.1578 87.5887 48.8862 87.7336 48.5609 87.7336H28.8215C28.4962 87.7336 28.2246 87.5887 28.2246 87.4148V86.0141C28.2246 85.8402 28.4962 85.6953 28.8215 85.6953H48.5609C48.8862 85.6953 49.1578 85.8402 49.1578 86.0141Z" fill="#1359CE"/>
<path d="M49.1578 88.8461V90.2468C49.1578 90.4207 48.8862 90.5656 48.5609 90.5656H28.8215C28.4962 90.5656 28.2246 90.4207 28.2246 90.2468V88.8461C28.2246 88.6722 28.4962 88.5273 28.8215 88.5273H48.5609C48.8862 88.5273 49.1578 88.6722 49.1578 88.8461Z" fill="#1359CE"/>
<path d="M38.7827 91.6742V93.0749C38.7827 93.2488 38.6457 93.3937 38.4817 93.3937H28.5257C28.3616 93.3937 28.2246 93.2488 28.2246 93.0749V91.6742C28.2246 91.5004 28.3616 91.3555 28.5257 91.3555H38.4817C38.6457 91.3555 38.7827 91.5004 38.7827 91.6742Z" fill="#1359CE"/>
<path d="M49.1626 106.799V108.2C49.1626 108.374 48.5723 108.519 47.8655 108.519H4.96706C4.26018 108.519 3.66992 108.374 3.66992 108.2V106.799C3.66992 106.625 4.26018 106.48 4.96706 106.48H47.8655C48.5723 106.48 49.1626 106.625 49.1626 106.799Z" fill="#1359CE"/>
<path d="M26.6152 110.729V112.13C26.6152 112.304 26.3175 112.448 25.9609 112.448H4.32416C3.96763 112.448 3.66992 112.304 3.66992 112.13V110.729C3.66992 110.555 3.96763 110.41 4.32416 110.41H25.9609C26.3175 110.41 26.6152 110.555 26.6152 110.729Z" fill="#1359CE"/>
<path d="M82.3883 70.7598H98.5954L112.316 85.0667V112.889C112.316 116.363 109.493 119.185 106.01 119.185H82.3884C78.914 119.185 76.0918 116.363 76.0918 112.889V77.0563C76.0917 73.582 78.914 70.7598 82.3883 70.7598Z" fill="#1057CD"/>
<path opacity="0.302" fill-rule="evenodd" clip-rule="evenodd" d="M98.5762 70.7598V84.955H112.315L98.5762 70.7598Z" fill="#043FA0"/>
<path d="M100.589 95.9537H87.8192C87.2324 95.9537 86.748 95.4787 86.748 94.8919C86.748 94.3051 87.2324 93.8301 87.8192 93.8301H100.589C101.176 93.8301 101.651 94.3051 101.651 94.8919C101.651 95.4787 101.176 95.9537 100.589 95.9537ZM96.3326 108.724H87.8192C87.2324 108.724 86.748 108.249 86.748 107.662C86.748 107.075 87.2324 106.6 87.8192 106.6H96.3326C96.9194 106.6 97.3944 107.075 97.3944 107.662C97.3944 108.249 96.9194 108.724 96.3326 108.724ZM100.589 104.467H87.8192C87.2324 104.467 86.748 103.992 86.748 103.405C86.748 102.818 87.2324 102.343 87.8192 102.343H100.589C101.176 102.343 101.651 102.818 101.651 103.405C101.651 103.992 101.176 104.467 100.589 104.467ZM100.589 100.21H87.8192C87.2324 100.21 86.748 99.7353 86.748 99.1486C86.748 98.5618 87.2324 98.0868 87.8192 98.0868H100.589C101.176 98.0868 101.651 98.5618 101.651 99.1486C101.651 99.7353 101.176 100.21 100.589 100.21Z" fill="white"/>
<path d="M65.0036 55.1582V95.216H53.9141" stroke="#1057CD" stroke-width="3.11365"/>
<path d="M65.0022 55.1582V95.216H76.0918" stroke="#1057CD" stroke-width="3.11365"/>
<path fill-rule="evenodd" clip-rule="evenodd" d="M66.6091 51.4442C66.609 51.1162 66.5117 50.7957 66.3295 50.5231C66.1472 50.2505 65.8883 50.038 65.5853 49.9126C65.2823 49.7872 64.9489 49.7544 64.6273 49.8184C64.3057 49.8825 64.0103 50.0405 63.7785 50.2724C63.5467 50.5043 63.3888 50.7998 63.3249 51.1214C63.2611 51.4431 63.294 51.7764 63.4195 52.0793C63.5451 52.3823 63.7577 52.6411 64.0304 52.8233C64.3031 53.0054 64.6237 53.1025 64.9516 53.1024C65.3912 53.102 65.8127 52.9272 66.1234 52.6162C66.4342 52.3053 66.6089 51.8838 66.6091 51.4442ZM63.1977 46.5875V39.8658H44.1053C43.3594 39.8649 42.6442 39.5682 42.1168 39.0406C41.5894 38.5131 41.2929 37.7979 41.2922 37.0519V25.122C41.293 24.3762 41.5897 23.6611 42.1171 23.1337C42.6444 22.6063 43.3595 22.3096 44.1053 22.3088H47.4831V18.0561H44.1053C43.3595 18.0552 42.6444 17.7585 42.1171 17.2311C41.5897 16.7037 41.293 15.9887 41.2922 15.2428V3.3127C41.2932 2.56695 41.5899 1.85204 42.1173 1.32475C42.6446 0.797472 43.3596 0.50087 44.1053 0.5L85.797 0.5C86.5429 0.50087 87.2579 0.797532 87.7853 1.32491C88.3126 1.85229 88.6093 2.56731 88.6102 3.31313V15.2426C88.6093 15.9884 88.3127 16.7035 87.7853 17.2309C87.2579 17.7583 86.5429 18.055 85.797 18.0558H82.4201V22.3088H85.797C86.5429 22.3096 87.2579 22.6063 87.7853 23.1337C88.3127 23.6611 88.6093 24.3762 88.6102 25.122V37.0519C88.6095 37.7979 88.3129 38.5131 87.7855 39.0406C87.2581 39.5682 86.543 39.8649 85.797 39.8658H66.7047V46.5875C67.4174 46.8465 68.0646 47.2585 68.601 47.7946C69.1373 48.3307 69.5497 48.9777 69.8091 49.6903H86.8775C87.3425 49.6903 87.7885 49.875 88.1173 50.2039C88.4462 50.5327 88.6309 50.9787 88.6309 51.4437C88.6309 51.9087 88.4462 52.3547 88.1173 52.6836C87.7885 53.0124 87.3425 53.1971 86.8775 53.1971H69.8091C69.4487 54.1965 68.7888 55.0604 67.9195 55.6711C67.0501 56.2817 66.0136 56.6094 64.9512 56.6094C63.8888 56.6094 62.8523 56.2817 61.9829 55.6711C61.1136 55.0604 60.4537 54.1965 60.0933 53.1971H43.0249C42.5599 53.1971 42.1139 53.0124 41.785 52.6836C41.4562 52.3547 41.2715 51.9087 41.2715 51.4437C41.2715 50.9787 41.4562 50.5327 41.785 50.2039C42.1139 49.875 42.5599 49.6903 43.0249 49.6903H60.0933C60.3527 48.9777 60.765 48.3306 61.3014 47.7946C61.8377 47.2585 62.485 46.8465 63.1977 46.5875ZM79.8593 31.0861C79.8589 31.4333 79.9615 31.7728 80.1541 32.0617C80.3467 32.3506 80.6206 32.5759 80.9412 32.7092C81.2619 32.8424 81.6148 32.8775 81.9554 32.8101C82.296 32.7427 82.609 32.5759 82.8547 32.3306C83.1005 32.0853 83.268 31.7727 83.336 31.4322C83.4041 31.0918 83.3697 30.7388 83.2371 30.4179C83.1045 30.097 82.8798 29.8226 82.5913 29.6294C82.3028 29.4363 81.9634 29.333 81.6162 29.3327H81.6068C81.3769 29.3329 81.1493 29.3784 80.9369 29.4667C80.7246 29.5549 80.5318 29.6842 80.3695 29.8471C80.2072 30.0099 80.0786 30.2032 79.991 30.4158C79.9035 30.6284 79.8587 30.8562 79.8593 31.0861ZM69.554 29.3327C69.0889 29.3327 68.6429 29.5174 68.3141 29.8463C67.9853 30.1751 67.8005 30.6211 67.8005 31.0861C67.8005 31.5512 67.9853 31.9972 68.3141 32.326C68.6429 32.6548 69.0889 32.8395 69.554 32.8395H76.8525C77.3176 32.8395 77.7636 32.6548 78.0924 32.326C78.4212 31.9972 78.606 31.5512 78.606 31.0861C78.606 30.6211 78.4212 30.1751 78.0924 29.8463C77.7636 29.5174 77.3176 29.3327 76.8525 29.3327H69.554ZM58.7429 29.3327C58.277 29.334 57.8306 29.5201 57.5017 29.8503C57.1729 30.1804 56.9886 30.6276 56.9892 31.0935C56.9898 31.5595 57.1754 32.0061 57.5051 32.3354C57.8348 32.6647 58.2817 32.8496 58.7477 32.8496C59.2136 32.8496 59.6605 32.6647 59.9902 32.3354C60.3199 32.0061 60.5055 31.5595 60.5061 31.0935C60.5067 30.6276 60.3224 30.1804 59.9936 29.8503C59.6647 29.5201 59.2183 29.334 58.7524 29.3327H58.7429ZM53.5144 29.3327C53.0484 29.334 52.602 29.5201 52.2732 29.8503C51.9444 30.1804 51.76 30.6276 51.7606 31.0935C51.7613 31.5595 51.9468 32.0061 52.2765 32.3354C52.6062 32.6647 53.0531 32.8496 53.5191 32.8496C53.985 32.8496 54.432 32.6647 54.7617 32.3354C55.0914 32.0061 55.2769 31.5595 55.2775 31.0935C55.2782 30.6276 55.0938 30.1804 54.765 29.8503C54.4362 29.5201 53.9898 29.334 53.5238 29.3327H53.5144ZM50.049 31.0861C50.049 30.6211 49.8642 30.1751 49.5354 29.8463C49.2066 29.5174 48.7606 29.3327 48.2956 29.3327H48.2869C47.9405 29.3345 47.6024 29.4388 47.3152 29.6326C47.028 29.8263 46.8047 30.1008 46.6734 30.4213C46.542 30.7419 46.5086 31.0941 46.5773 31.4337C46.6459 31.7732 46.8136 32.0848 47.0592 32.3291C47.3048 32.5734 47.6172 32.7396 47.9571 32.8065C48.297 32.8734 48.6491 32.8382 48.9689 32.7052C49.2888 32.5722 49.5621 32.3475 49.7544 32.0593C49.9467 31.7712 50.0493 31.4325 50.0493 31.0861H50.049ZM79.8593 9.27803C79.8589 9.62523 79.9615 9.96475 80.1541 10.2537C80.3467 10.5425 80.6206 10.7678 80.9412 10.9011C81.2619 11.0343 81.6148 11.0694 81.9554 11.002C82.296 10.9346 82.609 10.7678 82.8547 10.5225C83.1005 10.2772 83.268 9.96459 83.336 9.62413C83.4041 9.28367 83.3697 8.93066 83.2371 8.60977C83.1045 8.28887 82.8798 8.01449 82.5913 7.82134C82.3028 7.62818 81.9634 7.52492 81.6162 7.52462H81.6068C81.3769 7.52476 81.1492 7.57026 80.9369 7.6585C80.7245 7.74674 80.5317 7.87599 80.3694 8.03886C80.2071 8.20173 80.0785 8.39501 79.9909 8.60765C79.9034 8.82028 79.8587 9.04809 79.8593 9.27803ZM67.801 9.27803C67.801 9.74307 67.9857 10.1891 68.3145 10.5179C68.6434 10.8467 69.0894 11.0314 69.5544 11.0314H76.853C77.318 11.0314 77.764 10.8467 78.0928 10.5179C78.4217 10.1891 78.6064 9.74307 78.6064 9.27803C78.6064 8.813 78.4217 8.36701 78.0928 8.03818C77.764 7.70935 77.318 7.52462 76.853 7.52462H69.5544C69.0894 7.52462 68.6434 7.70935 68.3145 8.03818C67.9857 8.36701 67.801 8.813 67.801 9.27803ZM56.9938 9.27803C56.9933 9.62538 57.0957 9.96509 57.2883 10.2542C57.4808 10.5433 57.7547 10.7688 58.0755 10.9022C58.3962 11.0356 58.7492 11.0709 59.09 11.0037C59.4308 10.9364 59.744 10.7696 59.9899 10.5244C60.2359 10.2791 60.4036 9.96644 60.4719 9.62587C60.5401 9.28529 60.5059 8.93212 60.3734 8.61102C60.2409 8.28993 60.0162 8.01533 59.7277 7.82195C59.4391 7.62857 59.0997 7.52509 58.7524 7.52462H58.7429C58.5129 7.52466 58.2851 7.57007 58.0726 7.65826C57.8602 7.74644 57.6672 7.87567 57.5047 8.03854C57.3422 8.2014 57.2135 8.39471 57.1258 8.6074C57.0381 8.82009 56.9933 9.04799 56.9938 9.27803ZM51.7664 9.27803C51.766 9.62532 51.8685 9.96495 52.061 10.254C52.2536 10.543 52.5275 10.7684 52.8482 10.9017C53.1689 11.0351 53.5219 11.0703 53.8626 11.003C54.2033 10.9357 54.5164 10.7688 54.7623 10.5235C55.0081 10.2783 55.1758 9.96562 55.2439 9.62508C55.3121 9.28455 55.2778 8.93145 55.1452 8.61044C55.0127 8.28943 54.788 8.01493 54.4994 7.82165C54.2109 7.62838 53.8715 7.52501 53.5242 7.52462H53.5143C53.2843 7.52467 53.0565 7.5701 52.8441 7.6583C52.6317 7.7465 52.4387 7.87574 52.2763 8.03861C52.1139 8.20149 51.9852 8.3948 51.8976 8.60748C51.8101 8.82016 51.7653 9.04803 51.7659 9.27803H51.7664ZM46.5379 9.27803C46.5374 9.62529 46.6399 9.96489 46.8324 10.2539C47.0249 10.5429 47.2988 10.7683 47.6195 10.9017C47.9401 11.035 48.2931 11.0703 48.6337 11.003C48.9744 10.9358 49.2875 10.769 49.5334 10.5238C49.7793 10.2786 49.947 9.96603 50.0153 9.62555C50.0835 9.28507 50.0493 8.932 49.9169 8.61097C49.7845 8.28995 49.5599 8.0154 49.2714 7.82203C48.983 7.62866 48.6437 7.52516 48.2964 7.52462H48.2869C48.0568 7.52459 47.829 7.56995 47.6164 7.6581C47.4039 7.74625 47.2108 7.87547 47.0483 8.03834C46.8858 8.20122 46.757 8.39455 46.6693 8.60728C46.5816 8.82 46.5367 9.04794 46.5372 9.27803H46.5379Z" fill="#FFCD00"/>
</svg>
