<svg width="124" height="114" viewBox="0 0 124 114" fill="none" xmlns="http://www.w3.org/2000/svg">
<path d="M40.1729 9.63672H71.5411L98.0959 37.3272V91.1758C98.0959 97.9002 92.6336 103.363 85.8912 103.363H40.1731C33.4487 103.363 27.9863 97.9002 27.9863 91.1758V21.8234C27.9862 15.0991 33.4486 9.63672 40.1729 9.63672Z" fill="#1057CD"/>
<path opacity="0.302" fill-rule="evenodd" clip-rule="evenodd" d="M71.502 9.6377V37.1119H98.0927L71.502 9.6377Z" fill="#09326C"/>
<path d="M75.3966 58.4022H50.6806C49.5449 58.4022 48.6074 57.4828 48.6074 56.3471C48.6074 55.2114 49.5449 54.292 50.6806 54.292H75.3966C76.5324 54.292 77.4517 55.2114 77.4517 56.3471C77.4517 57.4828 76.5324 58.4022 75.3966 58.4022ZM67.1579 83.1181H50.6806C49.5449 83.1181 48.6074 82.1987 48.6074 81.063C48.6074 79.9274 49.5449 79.0079 50.6806 79.0079H67.1579C68.2937 79.0079 69.213 79.9274 69.213 81.063C69.213 82.1987 68.2937 83.1181 67.1579 83.1181ZM75.3966 74.8795H50.6806C49.5449 74.8795 48.6074 73.96 48.6074 72.8244C48.6074 71.6887 49.5449 70.7693 50.6806 70.7693H75.3966C76.5324 70.7693 77.4517 71.6887 77.4517 72.8244C77.4517 73.96 76.5324 74.8795 75.3966 74.8795ZM75.3966 66.6408H50.6806C49.5449 66.6408 48.6074 65.7214 48.6074 64.5857C48.6074 63.4501 49.5449 62.5306 50.6806 62.5306H75.3966C76.5324 62.5306 77.4517 63.4501 77.4517 64.5857C77.4517 65.7214 76.5324 66.6408 75.3966 66.6408Z" fill="white"/>
<path d="M1.98633 12.1367V1.63672H11.9863" stroke="#FED132" stroke-width="3" stroke-linecap="round"/>
<path d="M111.736 1.88672L122.236 1.88672L122.236 11.8867" stroke="#FED132" stroke-width="3" stroke-linecap="round"/>
<path d="M122.236 101.637L122.236 112.137L112.236 112.137" stroke="#FED132" stroke-width="3" stroke-linecap="round"/>
<path d="M12.4863 111.887L1.98633 111.887L1.98633 101.887" stroke="#FED132" stroke-width="3" stroke-linecap="round"/>
</svg>
