<svg width="110" height="113" viewBox="0 0 110 113" fill="none" xmlns="http://www.w3.org/2000/svg">
<path d="M89.2219 12.8233V107.526C89.2219 110.447 86.8543 112.814 83.9337 112.814H5.28816C2.36759 112.814 0 110.447 0 107.526V12.8233C0 9.90275 2.36759 7.53516 5.28816 7.53516H83.9337C86.8543 7.53516 89.2219 9.90275 89.2219 12.8233Z" fill="#1057CD"/>
<path d="M82.8434 17.4376V102.899C82.8434 104.846 81.265 106.425 79.318 106.425H9.91411C7.96707 106.425 6.38867 104.846 6.38867 102.899V17.4376C6.38867 15.4905 7.96707 13.9121 9.91411 13.9121H79.318C81.265 13.9121 82.8434 15.4905 82.8434 17.4376Z" fill="#F5F5F5"/>
<path d="M62.1538 8.95363L61.5808 12.5549L61.1769 15.1171C61.0514 15.9129 60.3656 16.499 59.5601 16.499H29.6431C28.8353 16.499 28.1483 15.9098 28.0253 15.1114L27.077 8.95363C26.7825 7.20255 28.1575 5.59852 29.9414 5.59852H39.0093C39.0093 2.50475 41.5137 0 44.607 0C47.7008 0 50.2051 2.50475 50.2051 5.59852H59.2731C61.0733 5.59852 62.432 7.20255 62.1538 8.95363Z" fill="#8AC5FF"/>
<path d="M46.5065 5.52199C46.5065 6.56976 45.6553 7.42093 44.6075 7.42093C43.5602 7.42093 42.709 6.56976 42.709 5.52199C42.709 4.47501 43.5602 3.62305 44.6075 3.62305C45.6553 3.62305 46.5065 4.47501 46.5065 5.52199Z" fill="white"/>
<path d="M29.7296 85.0869V98.8789C29.7296 99.8525 28.9404 100.642 27.9668 100.642H14.1748C13.2013 100.642 12.4121 99.8525 12.4121 98.8789V85.0869C12.4121 84.1134 13.2013 83.3242 14.1748 83.3242H27.9668C28.9404 83.3242 29.7296 84.1134 29.7296 85.0869Z" fill="#1057CD"/>
<path d="M19.3307 96.0231C19.1213 96.0231 18.9119 95.9432 18.7521 95.7833L15.7886 92.8202C15.4689 92.5009 15.4689 91.9827 15.7886 91.663C16.1083 91.3433 16.6262 91.3433 16.9459 91.663L19.3307 94.0474L25.197 88.1812C25.5167 87.8615 26.0346 87.8615 26.3543 88.1812C26.6739 88.5009 26.6739 89.0188 26.3543 89.3384L19.9094 95.7833C19.7495 95.9432 19.5401 96.0231 19.3307 96.0231Z" fill="#E9E9FF"/>
<path d="M76.8212 87.4506V88.3042C76.8212 88.7159 76.4975 89.04 76.0854 89.04H36.2065C35.7944 89.04 35.4707 88.7159 35.4707 88.3042V87.4506C35.4707 87.0389 35.7944 86.7148 36.2065 86.7148H76.0854C76.4975 86.7148 76.8212 87.0389 76.8212 87.4506Z" fill="#CFCFFF"/>
<path d="M60.6236 95.6638V96.5174C60.6236 96.9291 60.2999 97.2531 59.8878 97.2531H36.2065C35.7944 97.2531 35.4707 96.9291 35.4707 96.5174V95.6638C35.4707 95.252 35.7944 94.928 36.2065 94.928H59.8878C60.2999 94.928 60.6236 95.252 60.6236 95.6638Z" fill="#CFCFFF"/>
<path d="M76.8205 95.6638V96.5174C76.8205 96.9291 76.4968 97.2531 76.0847 97.2531H65.5031C65.091 97.2531 64.7673 96.9291 64.7673 96.5174V95.6638C64.7673 95.252 65.091 94.928 65.5031 94.928H76.0847C76.4968 94.928 76.8205 95.252 76.8205 95.6638Z" fill="#CFCFFF"/>
<g opacity="0.2">
<path d="M70.9706 112.818H33.3192L0.00390625 13.7177V12.8191C0.00390625 9.91081 2.36568 7.53096 5.29207 7.53096H27.2202C27.5903 6.41979 28.6481 5.5918 29.9349 5.5918H34.8878L70.9706 112.818Z" fill="white"/>
<path d="M89.215 106.63V109.293C89.215 111.232 87.6459 112.818 85.6895 112.818H80.6303L42.7852 0.303431C43.3489 0.109773 43.966 0.00390625 44.6004 0.00390625C47.7028 0.00390625 50.2061 2.50683 50.2061 5.59159H55.2473L89.215 106.63Z" fill="white"/>
</g>
<path d="M104.433 113.006H63.4004C58.9682 113.006 56.4558 107.925 59.1446 104.403L77.2262 80.7248V61.9023H90.6073V80.7248L108.689 104.403C111.378 107.925 108.865 113.006 104.433 113.006Z" fill="#BBDEFA"/>
<path d="M77.2246 61.9023H90.6054V66.8186H77.2246V61.9023Z" fill="#70C1F9"/>
<path d="M91.1302 88.4707H76.6993C75.4449 88.4707 74.2622 89.0556 73.5009 90.0526L61.2903 106.043C60.695 106.822 60.5757 107.802 60.9591 108.692C61.3514 109.603 62.5782 110.305 63.5699 110.305H104.258C105.25 110.305 106.478 109.603 106.871 108.691C107.254 107.801 107.134 106.821 106.54 106.043L94.3285 90.0525C93.5672 89.0556 92.3845 88.4707 91.1302 88.4707Z" fill="#FED132"/>
<path d="M92.1016 60.6025V64.2364C92.1016 65.0093 91.4751 65.6358 90.7022 65.6358H77.1279C76.3551 65.6358 75.7285 65.0093 75.7285 64.2364V60.6025C75.7285 59.8297 76.3551 59.2031 77.1279 59.2031H90.7022C91.4751 59.2031 92.1016 59.8297 92.1016 60.6025Z" fill="#BBDEFA"/>
<path d="M82.3394 70.1157V70.1245C82.3394 70.5567 81.988 70.9081 81.5557 70.9081H78.791V69.332H81.5557C81.988 69.332 82.3394 69.6834 82.3394 70.1157Z" fill="#4F5D99"/>
<path d="M82.3394 74.5805V74.5893C82.3394 75.0216 81.988 75.3729 81.5557 75.3729H78.791V73.7969H81.5557C81.988 73.7969 82.3394 74.1482 82.3394 74.5805Z" fill="#4F5D99"/>
<path d="M82.3394 79.0476V79.0564C82.3394 79.4886 81.988 79.84 81.5557 79.84H78.791V78.2639H81.5557C81.988 78.2639 82.3394 78.6153 82.3394 79.0476Z" fill="#4F5D99"/>
<path d="M81.4674 97.7096C81.4674 98.3614 80.9415 98.8873 80.2969 98.8873C79.6451 98.8873 79.1191 98.3614 79.1191 97.7096C79.1191 97.065 79.6451 96.5391 80.2969 96.5391C80.9415 96.5391 81.4674 97.065 81.4674 97.7096Z" fill="white"/>
<path d="M88.0251 104.241C88.0251 104.674 87.6756 105.023 87.2474 105.023C86.8143 105.023 86.4648 104.674 86.4648 104.241C86.4648 103.812 86.8143 103.463 87.2474 103.463C87.6756 103.463 88.0251 103.812 88.0251 104.241Z" fill="white"/>
<path d="M91.8532 101.256C91.8532 101.689 91.5038 102.039 91.0755 102.039C90.6424 102.039 90.293 101.689 90.293 101.256C90.293 100.828 90.6424 100.479 91.0755 100.479C91.5038 100.479 91.8532 100.828 91.8532 101.256Z" fill="white"/>
<path d="M87.4983 98.2454C87.4983 98.5691 87.2371 98.8303 86.9169 98.8303C86.5932 98.8303 86.332 98.5691 86.332 98.2454C86.332 97.9253 86.5932 97.6641 86.9169 97.6641C87.2371 97.6641 87.4983 97.9253 87.4983 98.2454Z" fill="white"/>
<path d="M80.0728 102.982C80.0728 103.396 79.7394 103.729 79.3307 103.729C78.9174 103.729 78.584 103.396 78.584 102.982C78.584 102.574 78.9174 102.24 79.3307 102.24C79.7394 102.24 80.0728 102.574 80.0728 102.982Z" fill="white"/>
<path d="M83.7195 101.306C83.7195 101.565 83.5107 101.774 83.2548 101.774C82.9959 101.774 82.7871 101.565 82.7871 101.306C82.7871 101.05 82.9959 100.841 83.2548 100.841C83.5107 100.841 83.7195 101.05 83.7195 101.306Z" fill="white"/>
<path d="M91.8532 101.256C91.8532 101.689 91.5038 102.039 91.0755 102.039C90.6424 102.039 90.293 101.689 90.293 101.256C90.293 100.828 90.6424 100.479 91.0755 100.479C91.5038 100.479 91.8532 100.828 91.8532 101.256Z" fill="white"/>
<path d="M85.1364 94.2387C85.1364 94.6717 84.787 95.0212 84.3587 95.0212C83.9256 95.0212 83.5762 94.6717 83.5762 94.2387C83.5762 93.8104 83.9256 93.4609 84.3587 93.4609C84.787 93.4609 85.1364 93.8104 85.1364 94.2387Z" fill="white"/>
<path d="M83.2021 105.797C83.2021 106.115 82.9452 106.372 82.6302 106.372C82.3117 106.372 82.0547 106.115 82.0547 105.797C82.0547 105.482 82.3117 105.225 82.6302 105.225C82.9452 105.225 83.2021 105.482 83.2021 105.797Z" fill="white"/>
<g opacity="0.2">
<path d="M94.8837 113.006H80.9602L72.3145 87.1494L77.2228 80.7277V65.5254H79.006L94.8837 113.006Z" fill="white"/>
<path d="M102.405 113.006H98.4598L82.582 65.5251H86.5359L90.6064 77.7103V80.7274L92.3986 83.0783L102.405 113.006Z" fill="white"/>
</g>
<g opacity="0.3">
<path d="M68.2385 101.952C68.7372 102.282 70.107 101.102 71.3081 99.3176C72.5023 97.5265 73.0643 95.8125 72.5726 95.4753C72.0739 95.145 70.6971 96.3253 69.5028 98.1096C68.3088 99.9007 67.7466 101.615 68.2385 101.952Z" fill="white"/>
<path d="M65.0628 106.161C65.3756 106.338 66.2349 105.706 66.9883 104.749C67.7374 103.789 68.0899 102.871 67.7815 102.69C67.4687 102.513 66.605 103.145 65.8559 104.102C65.1069 105.062 64.7542 105.98 65.0628 106.161Z" fill="white"/>
</g>
<path d="M29.8647 47.1384C29.8048 47.1603 29.7382 47.1293 29.7164 47.0694L28.725 44.355C28.7031 44.2951 28.7341 44.2285 28.794 44.2066C28.8539 44.1848 28.9205 44.2157 28.9424 44.2756L29.9337 46.99C29.9556 47.0499 29.9246 47.1165 29.8647 47.1384Z" fill="#364F66"/>
<path d="M29.0253 47.8496C28.9654 47.8715 28.8988 47.8406 28.8769 47.7807L26.7641 41.9956C26.7422 41.9357 26.7731 41.8691 26.833 41.8473C26.893 41.8254 26.9595 41.8563 26.9814 41.9163L29.0943 47.7013C29.1162 47.7612 29.0852 47.8278 29.0253 47.8496Z" fill="#364F66"/>
<path d="M28.1655 48.6805C28.1056 48.7024 28.039 48.6714 28.0171 48.6115L26.307 43.9292C26.2851 43.8693 26.3161 43.8027 26.376 43.7809C26.4359 43.759 26.5025 43.7899 26.5244 43.8499L28.2345 48.5322C28.2564 48.5921 28.2254 48.6586 28.1655 48.6805Z" fill="#364F66"/>
<path d="M27.2113 49.4667C27.1514 49.4886 27.0848 49.4576 27.063 49.3977L26.1293 46.8413C26.1074 46.7814 26.1384 46.7149 26.1983 46.693C26.2582 46.6711 26.3248 46.7021 26.3467 46.762L27.2803 49.3184C27.3022 49.3783 27.2712 49.4448 27.2113 49.4667Z" fill="#364F66"/>
<path d="M63.5754 53.6657C63.5155 53.6876 63.4489 53.6566 63.4271 53.5967L62.4357 50.8824C62.4138 50.8225 62.4448 50.7559 62.5047 50.734C62.5646 50.7121 62.6312 50.7431 62.6531 50.803L63.6444 53.5174C63.6663 53.5773 63.6353 53.6438 63.5754 53.6657Z" fill="#364F66"/>
<path d="M62.7343 54.377C62.6744 54.3989 62.6078 54.3679 62.5859 54.308L60.473 48.523C60.4512 48.4631 60.4821 48.3965 60.542 48.3746C60.6019 48.3527 60.6685 48.3837 60.6904 48.4436L62.8033 54.2286C62.8251 54.2885 62.7942 54.3551 62.7343 54.377Z" fill="#364F66"/>
<path d="M61.8784 55.2098C61.8185 55.2317 61.7519 55.2007 61.73 55.1408L60.0199 50.4585C59.998 50.3986 60.029 50.332 60.0889 50.3102C60.1488 50.2883 60.2154 50.3192 60.2373 50.3791L61.9474 55.0614C61.9693 55.1214 61.9383 55.1879 61.8784 55.2098Z" fill="#364F66"/>
<path d="M60.924 55.9935C60.8641 56.0154 60.7975 55.9845 60.7757 55.9246L59.8422 53.3687C59.8203 53.3088 59.8513 53.2422 59.9112 53.2203C59.9711 53.1984 60.0377 53.2294 60.0595 53.2893L60.993 55.8452C61.0149 55.9051 60.9839 55.9717 60.924 55.9935Z" fill="#364F66"/>
<path d="M40.8951 73.1947C40.3772 73.3839 39.8018 73.1164 39.6124 72.5979C39.4232 72.0799 39.6908 71.5045 40.2087 71.3153C40.7267 71.1262 41.3021 71.3937 41.4913 71.9117C41.6806 72.4302 41.4131 73.0056 40.8951 73.1947ZM40.2881 71.5327C39.89 71.6781 39.6843 72.1203 39.8298 72.5185C39.9754 72.9172 40.4176 73.1228 40.8157 72.9774C41.2139 72.832 41.4195 72.3897 41.2739 71.9911C41.1285 71.5929 40.6862 71.3873 40.2881 71.5327Z" fill="#364F66"/>
<path d="M52.6027 28.1711C52.0842 28.3605 51.5088 28.0929 51.3196 27.575C51.1303 27.0565 51.3978 26.4811 51.9163 26.2917C52.4342 26.1025 53.0096 26.3701 53.199 26.8886C53.3882 27.4065 53.1206 27.9819 52.6027 28.1711ZM51.9957 26.5091C51.597 26.6547 51.3914 27.0969 51.537 27.4956C51.6824 27.8937 52.1246 28.0993 52.5233 27.9537C52.9214 27.8083 53.1271 27.3661 52.9816 26.9679C52.836 26.5693 52.3938 26.3637 51.9957 26.5091Z" fill="#364F66"/>
<path d="M38.0929 50.3014C38.0436 50.3194 37.9867 50.3018 37.9568 50.2562C37.9215 50.2024 37.9363 50.1309 37.9898 50.0963C38.4353 49.8044 38.9168 49.5631 39.4215 49.3787C39.4814 49.3569 39.548 49.3878 39.5699 49.4477C39.5918 49.5076 39.5608 49.5742 39.5009 49.5961C39.0126 49.7744 38.5468 50.0077 38.1167 50.2891C38.109 50.2944 38.1009 50.2985 38.0929 50.3014Z" fill="#364F66"/>
<path d="M35.5525 53.3177C35.5254 53.3275 35.4952 53.3271 35.4669 53.3153C35.4083 53.2898 35.3815 53.2215 35.4065 53.1631C35.812 52.2284 36.4264 51.3803 37.1835 50.7091C37.2321 50.6679 37.3047 50.6708 37.347 50.719C37.389 50.7668 37.3845 50.8399 37.337 50.8825C36.6046 51.531 36.0107 52.3512 35.6191 53.2549C35.6055 53.2851 35.5811 53.3072 35.5525 53.3177Z" fill="#364F66"/>
<path d="M34.9913 55.7818C34.9776 55.7868 34.9628 55.7892 34.9471 55.7889C34.8836 55.7863 34.8339 55.7323 34.8358 55.6685C34.8587 55.0846 34.9557 54.5029 35.1243 53.9396C35.1424 53.8789 35.2064 53.8435 35.2685 53.8623C35.3294 53.8809 35.3643 53.9451 35.3458 54.0065C35.1827 54.5504 35.0889 55.1128 35.0675 55.6777C35.0653 55.7259 35.0343 55.7661 34.9913 55.7818Z" fill="#364F66"/>
<path d="M60.3598 74.199C63.5652 73.0283 65.2146 69.4807 64.0439 66.2753C62.8732 63.0699 59.3257 61.4205 56.1203 62.5912C52.9149 63.7619 51.2654 67.3094 52.4362 70.5148C53.6069 73.7202 57.1544 75.3697 60.3598 74.199Z" fill="#F9C81B"/>
<path d="M64.0452 66.2771C65.2153 69.4809 63.5648 73.0307 60.361 74.2008C57.1572 75.3709 53.6074 73.7204 52.4373 70.5166C52.1739 69.7954 52.0538 69.0534 52.0623 68.3276C53.0625 67.9728 54.253 68.1204 55.3403 68.2635C55.9618 68.3418 56.6956 68.372 57.0968 67.8956C57.356 67.587 57.398 67.1541 57.6157 66.8185C58.2638 65.817 60.1112 66.1106 60.593 65.0189C60.8457 64.4425 60.5695 63.7154 60.8951 63.1755C60.955 63.0799 61.0267 62.9976 61.1121 62.9243C62.4245 63.6168 63.4958 64.7727 64.0452 66.2771Z" fill="#FED132"/>
<path d="M52.998 66.0477L43.3956 58.2859C42.937 57.9152 42.8658 57.2426 43.2366 56.7839C43.6071 56.3251 44.2794 56.2541 44.7386 56.6247L54.341 64.3866C55.0469 64.9573 53.7039 66.6184 52.998 66.0477Z" fill="#DBE7FE"/>
<path d="M52.9971 66.0463L52.9193 65.9829C53.4757 65.6185 53.916 64.7534 53.4468 64.3718L43.8449 56.6106C43.7786 56.558 43.7102 56.5135 43.6356 56.4788C43.99 56.322 44.4149 56.3652 44.7377 56.6243L54.3396 64.3855C55.047 64.9578 53.7045 66.6186 52.9971 66.0463Z" fill="#C6D7F4"/>
<path d="M64.1099 38.4472C67.0778 37.3633 68.6051 34.0785 67.5211 31.1106C66.4371 28.1427 63.1524 26.6154 60.1845 27.6994C57.2165 28.7834 55.6893 32.0681 56.7733 35.036C57.8572 38.004 61.142 39.5312 64.1099 38.4472Z" fill="#324566"/>
<path d="M67.5231 31.1106C68.6066 34.077 67.0783 37.3639 64.1119 38.4474C61.1454 39.5308 57.8585 38.0025 56.7751 35.0361C56.5312 34.3683 56.42 33.6812 56.4279 33.0092C57.354 32.6807 58.4563 32.8173 59.4631 32.9499C60.0385 33.0223 60.7179 33.0503 61.0895 32.6093C61.3294 32.3235 61.3683 31.9227 61.5698 31.6119C62.17 30.6846 63.8805 30.9564 64.3266 29.9456C64.5606 29.4119 64.3049 28.7387 64.6064 28.2387C64.6618 28.1503 64.7282 28.0741 64.8073 28.0062C66.0225 28.6473 67.0144 29.7176 67.5231 31.1106Z" fill="#26404F"/>
<path d="M57.3161 35.3255L49.482 38.1868C48.9281 38.3891 48.3148 38.1041 48.1125 37.55C47.9101 36.996 48.1953 36.3828 48.7492 36.1805L56.5834 33.3192C57.4831 32.9906 58.2159 34.9969 57.3161 35.3255Z" fill="#DBE7FE"/>
<path d="M57.402 35.2888C57.3547 34.6366 56.8438 33.8759 56.2618 34.0884L48.4291 36.9492C48.2825 37.0027 48.1558 37.0837 48.0519 37.1861C48.049 36.7507 48.3181 36.34 48.7536 36.181L56.5863 33.3202C57.4549 33.003 58.1704 34.8668 57.402 35.2888Z" fill="#C6D7F4"/>
<path d="M47.8091 43.1582C50.7771 42.0742 52.3043 38.7895 51.2203 35.8215C50.1363 32.8536 46.8516 31.3264 43.8837 32.4103C40.9158 33.4943 39.3885 36.779 40.4725 39.747C41.5565 42.7149 44.8412 44.2422 47.8091 43.1582Z" fill="#F9C81B"/>
<path d="M51.2204 35.8215C52.3038 38.788 50.7756 42.0748 47.8091 43.1583C44.8426 44.2417 41.5558 42.7135 40.4724 39.747C40.2285 39.0792 40.1173 38.3922 40.1251 37.7201C41.0512 37.3916 42.1535 37.5283 43.1603 37.6608C43.7358 37.7333 44.4152 37.7612 44.7867 37.3202C45.0267 37.0344 45.0656 36.6336 45.2671 36.3229C45.8673 35.3955 47.5778 35.6674 48.0239 34.6566C48.2579 34.1228 48.0021 33.4496 48.3036 32.9497C48.359 32.8612 48.4254 32.785 48.5045 32.7171C49.7197 33.3583 50.7117 34.4286 51.2204 35.8215Z" fill="#FED132"/>
<path d="M45.7627 43.3505L44.065 53.3895C44.0017 53.7861 43.7279 54.0968 43.3757 54.2254C43.2106 54.2857 43.0284 54.3061 42.8424 54.2765C42.2598 54.1839 41.8629 53.6365 41.9553 53.0541L43.6531 43.0151C43.8034 42.0696 45.913 42.4049 45.7627 43.3505Z" fill="#DBE7FE"/>
<path d="M42.6872 52.5996C42.5955 53.1836 42.9935 53.7301 43.5753 53.8226C43.6825 53.838 43.7872 53.8395 43.8908 53.824C43.7648 54.0088 43.5831 54.1496 43.3753 54.2255C43.2112 54.2854 43.0275 54.3054 42.841 54.2768C42.2592 54.1843 41.8633 53.637 41.9552 53.0529L43.6527 43.0148C43.7082 42.6647 44.0334 42.4889 44.4121 42.4597C44.4012 42.4909 44.3918 42.5266 44.3869 42.5606L42.6872 52.5996Z" fill="#C6D7F4"/>
<path d="M29.4975 71.367C32.5842 70.2397 34.1725 66.8236 33.0452 63.7369C31.9179 60.6502 28.5017 59.0619 25.4151 60.1892C22.3284 61.3166 20.7401 64.7327 21.8674 67.8194C22.9947 70.906 26.4109 72.4944 29.4975 71.367Z" fill="#F9C81B"/>
<path d="M33.0488 63.7368C34.1756 66.8219 32.5862 70.2403 29.5011 71.367C26.416 72.4938 22.9976 70.9044 21.8709 67.8193C21.6172 67.1248 21.5016 66.4103 21.5097 65.7113C22.4729 65.3697 23.6193 65.5118 24.6663 65.6497C25.2648 65.725 25.9714 65.7541 26.3578 65.2954C26.6074 64.9982 26.6478 64.5814 26.8574 64.2582C27.4816 63.2938 29.2605 63.5765 29.7245 62.5253C29.9678 61.9702 29.7018 61.27 30.0154 60.7501C30.073 60.6581 30.1421 60.5788 30.2243 60.5082C31.4881 61.175 32.5197 62.2881 33.0488 63.7368Z" fill="#FED132"/>
<path d="M31.2471 62.6516L40.4219 57.6487C40.9423 57.3651 41.5884 57.5577 41.8707 58.0752C42.1531 58.5931 41.9624 59.2417 41.4444 59.5241L32.2696 64.527C32.222 64.553 32.1729 64.575 32.1237 64.593C31.2257 64.9984 30.3491 63.057 31.2471 62.6516Z" fill="#DBE7FE"/>
<path d="M41.5804 57.7366C41.4933 57.7561 41.4087 57.7894 41.326 57.8345L32.1526 62.8364C31.5479 63.1094 31.7472 64.0756 32.2148 64.5545C32.1857 64.5701 32.155 64.5813 32.1244 64.5925C31.2267 64.9997 30.3491 63.0587 31.2469 62.6514L40.4224 57.6487C40.8048 57.4396 41.2565 57.4879 41.5804 57.7366Z" fill="#C6D7F4"/>
<path d="M45.4114 63.0619C48.9729 61.7611 50.8057 57.8193 49.5049 54.2578C48.2041 50.6962 44.2624 48.8634 40.7008 50.1642C37.1392 51.465 35.3065 55.4068 36.6072 58.9684C37.908 62.5299 41.8498 64.3627 45.4114 63.0619Z" fill="#324566"/>
<path d="M49.5071 54.2573C50.8072 57.8171 48.9733 61.7613 45.4135 63.0614C41.8537 64.3616 37.9095 62.5276 36.6094 58.9679C36.3167 58.1665 36.1833 57.3421 36.1927 56.5356C37.304 56.1414 38.6268 56.3054 39.835 56.4645C40.5255 56.5514 41.3408 56.585 41.7866 56.0557C42.0746 55.7128 42.1213 55.2318 42.3631 54.8589C43.0833 53.7461 45.1359 54.0723 45.6713 52.8594C45.952 52.2189 45.6451 51.411 46.007 50.8111C46.0734 50.7049 46.1531 50.6135 46.248 50.532C47.7063 51.3014 48.8966 52.5858 49.5071 54.2573Z" fill="#26404F"/>
<path d="M41.0511 32.3863C41.0034 32.4037 40.9477 32.388 40.9169 32.3446C40.8802 32.2919 40.8924 32.2201 40.9444 32.1831C41.3652 31.8858 41.8258 31.6449 42.3136 31.4667C42.3735 31.4449 42.44 31.4758 42.4619 31.5357C42.4838 31.5956 42.4528 31.6622 42.3929 31.6841C41.9248 31.8551 41.4823 32.0864 41.0784 32.3721C41.0698 32.3783 41.0606 32.3828 41.0511 32.3863Z" fill="#364F66"/>
<path d="M38.983 39.0201C38.9231 39.0419 38.8565 39.011 38.8347 38.9511C38.0714 36.8612 38.58 34.4781 40.1308 32.8806C40.1759 32.8346 40.2489 32.8338 40.2939 32.8781C40.3402 32.9225 40.341 32.9955 40.2964 33.0412C38.8074 34.5759 38.3189 36.8645 39.052 38.8717C39.0739 38.9316 39.0429 38.9982 38.983 39.0201Z" fill="#364F66"/>
</svg>
