<svg width="85" height="104" viewBox="0 0 85 104" fill="none" xmlns="http://www.w3.org/2000/svg">
<path d="M26.4542 9.39502H57.8224L84.3772 37.0855V90.9341C84.3772 97.6585 78.9148 103.121 72.1724 103.121H26.4543C19.7299 103.121 14.2676 97.6585 14.2676 90.9341V21.5817C14.2675 14.8574 19.7298 9.39502 26.4542 9.39502Z" fill="#1057CD"/>
<path opacity="0.302" fill-rule="evenodd" clip-rule="evenodd" d="M57.7832 9.39575V36.87H84.374L57.7832 9.39575Z" fill="#09326C"/>
<path d="M60.6289 56.2578H72.1715V91.7004H60.6289V56.2578Z" fill="white"/>
<path d="M43.5586 66.6172H55.1012V91.7009H43.5586V66.6172Z" fill="white"/>
<path d="M26.4883 77.7578H38.0309V91.7001H26.4883V77.7578Z" fill="white"/>
<path d="M27.5923 43.9915V48.7098C27.5923 52.1752 24.7949 54.9729 21.3292 54.9729H17.1537C13.688 54.9729 10.8906 52.1752 10.8906 48.7098V43.9915C10.8906 42.8223 11.8091 41.7646 12.9783 41.7646H25.5046C26.6738 41.7646 27.5923 42.8223 27.5923 43.9915Z" fill="#FEA832"/>
<path d="M19.2423 0.552734C17.7391 0.552734 16.2361 0.719612 14.7327 1.09554C8.05216 2.64044 2.66601 7.94308 1.03746 14.5821C-0.590949 21.2627 1.28799 28.0268 6.08958 32.745C7.80163 34.4571 8.80374 37.004 8.80374 39.7599V40.2192C8.80374 43.6846 11.6011 46.6215 15.0669 46.6215H23.4177C26.8834 46.6215 29.6808 43.6846 29.6808 40.2192V39.7599C29.6808 37.0457 30.7247 34.4152 32.5619 32.6198C36.0693 29.0707 38.0316 24.3526 38.0316 19.3421C38.0316 8.81992 29.5139 0.552734 19.2423 0.552734Z" fill="#FED132"/>
<path fill-rule="evenodd" clip-rule="evenodd" d="M26.9491 21.4799C26.3706 21.1467 26.0113 20.5258 26.0113 19.8589C26.0113 19.1923 26.3706 18.5714 26.9474 18.2385C27.5395 17.8981 27.7857 17.1909 27.5327 16.5571C27.2156 15.7564 26.7838 15.0085 26.2525 14.334C25.8292 13.7969 25.0938 13.6563 24.5018 13.9989C23.9249 14.334 23.2064 14.335 22.6279 14.0014C22.051 13.6677 21.6935 13.0459 21.6952 12.3778C21.6952 11.6943 21.206 11.1271 20.5297 11.0293C19.6796 10.9062 18.816 10.9068 17.9625 11.0318C17.2879 11.1303 16.7988 11.6972 16.8004 12.3793C16.8004 13.0465 16.4428 13.6681 15.866 14.0014C15.2874 14.3346 14.5706 14.334 13.9921 13.9992C13.4001 13.6566 12.6647 13.798 12.2413 14.335C11.9782 14.6696 11.7353 15.0274 11.5211 15.399C11.3069 15.7699 11.1197 16.1586 10.9612 16.5538C10.7065 17.1887 10.9527 17.8969 11.5447 18.2381C12.1233 18.5711 12.4826 19.1923 12.4826 19.8589C12.4826 20.5254 12.1233 21.1461 11.5464 21.4796C10.9544 21.82 10.7082 22.5268 10.9612 23.1605C11.2783 23.9617 11.7101 24.7096 12.2413 25.3837C12.6647 25.9208 13.4001 26.0614 13.9921 25.7189C14.569 25.3837 15.2875 25.383 15.866 25.7164C16.4428 26.05 16.8004 26.6719 16.8004 27.34C16.7987 28.0232 17.2895 28.5904 17.9642 28.6885C18.3876 28.7497 18.8126 28.7802 19.2376 28.7802C19.6694 28.7802 20.1012 28.7488 20.5313 28.6859C21.206 28.5872 21.6951 28.0209 21.6951 27.3388C21.6934 26.6712 22.051 26.0496 22.6278 25.7164C23.2063 25.3831 23.9232 25.3838 24.5017 25.7185C25.0937 26.0611 25.8291 25.9201 26.2524 25.3827C26.5156 25.0479 26.7585 24.6902 26.9727 24.3191C27.1852 23.9482 27.3758 23.5594 27.5326 23.1639C27.7874 22.529 27.5412 21.8206 26.9491 21.4799ZM21.5417 21.1841C21.1891 21.7971 20.6173 22.2357 19.9326 22.4189C19.2495 22.6021 18.5343 22.5082 17.9221 22.1539C16.6571 21.4233 16.2219 19.7995 16.9522 18.5337C17.4414 17.6846 18.3353 17.2093 19.2511 17.2093C19.7015 17.2093 20.1552 17.3233 20.5718 17.5638C21.8368 18.2943 22.272 19.9186 21.5417 21.1841Z" fill="white"/>
</svg>
