<svg width="139" height="113" viewBox="0 0 139 113" fill="none" xmlns="http://www.w3.org/2000/svg">
<path d="M36.0742 41.6514H8.79688" stroke="#8AC5FF" stroke-width="2.92956"/>
<path d="M38.3916 23.8284H29.2138L23.5054 14.8574H8.20898" stroke="#8AC5FF" stroke-width="2.92956"/>
<circle cx="4.87109" cy="14.8574" r="3.40609" stroke="#8AC5FF" stroke-width="2.93"/>
<path d="M38.3916 57.6579H29.2138L23.5054 66.6289H8.20898" stroke="#8AC5FF" stroke-width="2.92956"/>
<circle cx="4.87109" cy="4.87109" r="3.40609" transform="matrix(1 0 0 -1 0 71.5)" stroke="#8AC5FF" stroke-width="2.93"/>
<circle cx="4.87109" cy="4.87109" r="3.40609" transform="matrix(1 0 0 -1 0 46.5225)" stroke="#8AC5FF" stroke-width="2.93"/>
<path d="M102.121 39.835L129.398 39.835" stroke="#8AC5FF" stroke-width="2.92956"/>
<path d="M99.8037 57.6579L108.981 57.6579L114.69 66.6289L129.986 66.6289" stroke="#8AC5FF" stroke-width="2.92956"/>
<circle cx="133.324" cy="66.6289" r="3.40609" transform="rotate(-180 133.324 66.6289)" stroke="#8AC5FF" stroke-width="2.93"/>
<path d="M99.8037 23.8284L108.981 23.8284L114.69 14.8574L129.986 14.8574" stroke="#8AC5FF" stroke-width="2.92956"/>
<circle cx="4.87109" cy="4.87109" r="3.40609" transform="matrix(-1 -8.74228e-08 -8.74228e-08 1 138.195 9.98633)" stroke="#8AC5FF" stroke-width="2.93"/>
<circle cx="4.87109" cy="4.87109" r="3.40609" transform="matrix(-1 -8.74228e-08 -8.74228e-08 1 138.195 34.9639)" stroke="#8AC5FF" stroke-width="2.93"/>
<path d="M46.3956 0H77.7638L104.319 27.6905V81.5391C104.319 88.2635 98.8562 93.7258 92.1139 93.7258H46.3957C39.6713 93.7258 34.209 88.2635 34.209 81.5391V12.1867C34.2089 5.46235 39.6712 0 46.3956 0Z" fill="#1057CD"/>
<path d="M92.1337 93.7266L60.7655 93.7266L34.2107 66.0361L34.2107 12.1874C34.2107 5.46306 39.6731 0.000711511 46.4155 0.000712101L92.1336 0.000716098C98.858 0.000716686 104.32 5.46307 104.32 12.1874L104.32 81.5398C104.32 88.2642 98.8581 93.7266 92.1337 93.7266Z" fill="#1057CD"/>
<path d="M92.41 23.453H46.9463C45.8105 23.453 44.873 22.5335 44.873 21.3979C44.873 20.2622 45.8105 19.3428 46.9463 19.3428L92.41 19.3428C93.5458 19.3428 94.4651 20.2622 94.4651 21.3979C94.4651 22.5335 93.5458 23.453 92.41 23.453Z" fill="white"/>
<path d="M92.41 33.5799H46.9463C45.8105 33.5799 44.873 32.6605 44.873 31.5248C44.873 30.3892 45.8105 29.4697 46.9463 29.4697L92.41 29.4697C93.5458 29.4697 94.4651 30.3892 94.4651 31.5248C94.4651 32.6605 93.5458 33.5799 92.41 33.5799Z" fill="white"/>
<path d="M92.41 43.7069H46.9463C45.8105 43.7069 44.873 42.7875 44.873 41.6518C44.873 40.5161 45.8105 39.5967 46.9463 39.5967L92.41 39.5967C93.5458 39.5967 94.4651 40.5161 94.4651 41.6518C94.4651 42.7875 93.5458 43.7069 92.41 43.7069Z" fill="white"/>
<path d="M47.5928 53.8338H84.8179C85.9537 53.8338 86.873 52.9144 86.873 51.7787C86.873 50.6431 85.9537 49.7236 84.8179 49.7236H47.5928C46.457 49.7236 45.5195 50.6431 45.5195 51.7787C45.5195 52.9144 46.457 53.8338 47.5928 53.8338Z" fill="white"/>
<path d="M89.3574 92C89.3574 93.64 87.2935 94.9917 86.8801 96.5036C86.4535 98.0667 87.533 100.245 86.7226 101.613C85.899 103.003 83.4216 103.169 82.2666 104.297C81.1116 105.424 80.941 107.843 79.517 108.647C78.1159 109.438 75.8846 108.384 74.2834 108.8C72.7346 109.204 71.3499 111.219 69.6699 111.219C67.9899 111.219 66.6052 109.204 65.0565 108.8C63.4552 108.384 61.224 109.438 59.8229 108.647C58.3988 107.843 58.2282 105.424 57.0732 104.297C55.9182 103.169 53.4409 103.003 52.6173 101.613C51.8068 100.245 52.8863 98.0667 52.4598 96.5036C52.0463 94.9917 49.9824 93.64 49.9824 92C49.9824 90.36 52.0463 89.0083 52.4598 87.4964C52.8863 85.9333 51.8068 83.7552 52.6173 82.3874C53.4409 80.9973 55.9182 80.8307 57.0732 79.7032C58.2282 78.5757 58.3988 76.1573 59.8229 75.3534C61.224 74.5622 63.4552 75.616 65.0565 75.1996C66.6052 74.796 67.9899 72.7812 69.6699 72.7812C71.3499 72.7812 72.7346 74.796 74.2834 75.1996C75.8846 75.616 78.1159 74.5622 79.517 75.3534C80.941 76.1573 81.1116 78.5757 82.2666 79.7032C83.4216 80.8307 85.899 80.9973 86.7226 82.3874C87.533 83.7552 86.4535 85.9333 86.8801 87.4964C87.2935 89.0083 89.3574 90.36 89.3574 92Z" fill="#FED132"/>
<path d="M75.3596 86.2729L67.8653 93.5889L63.9803 89.7996C63.137 88.9764 61.7687 88.9764 60.9254 89.7996C60.0821 90.6228 60.0821 91.9585 60.9254 92.7817L66.3756 98.1021C67.1959 98.9028 68.5281 98.9028 69.3484 98.1021L78.4112 89.255C79.2545 88.4318 79.2545 87.0961 78.4112 86.2729C77.5679 85.4497 76.2029 85.4497 75.3596 86.2729Z" fill="#FFFCEE"/>
</svg>
