<svg width="199" height="57" viewBox="0 0 199 57" fill="none" xmlns="http://www.w3.org/2000/svg">
<path d="M10.7288 22.415C8.16626 25.3984 6.70209 28.9831 6.31614 32.967C5.43946 38.9675 9.70064 43.8518 15.9979 46.3183C28.9166 51.2542 44.1181 50.672 58.49 50.749C72.5968 50.7136 86.8139 49.7901 101.181 49.8566C101.507 49.8606 101.838 49.8647 102.173 49.869C116.786 50.0785 131.267 50.3106 145.79 49.7975C160.172 49.1185 175.052 48.6207 188.372 43.6419C191.296 42.4118 194.281 40.7265 195.695 38.162C199.791 32.4712 193.603 26.8483 188.176 24.0032C186.207 22.8996 184.184 21.938 182.103 21.0388C180.21 20.2226 178.3 19.4666 176.357 18.8094C173.312 17.7506 170.159 17.1006 166.978 16.4554C166.537 16.3598 166.12 16.2351 165.822 16.1099C165.524 15.9848 165.367 15.8716 165.385 15.7993C165.403 15.7267 165.595 15.6995 165.915 15.7142C166.235 15.7291 166.66 15.7835 167.1 15.8614C170.295 16.3836 173.581 16.9368 176.733 17.9083C178.704 18.4967 180.64 19.1811 182.558 19.925C184.083 20.5178 185.512 21.1148 186.996 21.8056C187.373 22.3336 187.972 22.877 189.227 23.6903C189.849 24.095 190.785 24.6777 191.492 25.0759C192.123 25.429 192.617 25.6683 193.098 25.9193C193.59 26.1753 194.065 26.4414 194.584 26.8568C195.487 27.5864 196.355 28.2971 197.166 29.2085C197.465 29.5496 197.746 29.9056 198.011 30.3107C199.652 33.0252 198.987 36.7307 197.634 39.1589C197.275 39.8937 196.761 40.633 196.25 41.224C195.21 42.3385 194.125 43.1066 193.227 43.7162C192.404 44.2702 191.641 44.7673 190.885 45.2381C190.382 45.5016 189.861 45.7542 189.374 45.9779C186.101 47.4675 182.698 48.4862 179.276 49.3372C176.572 49.8693 173.767 50.3227 170.073 50.8395C168.515 51.056 166.907 51.225 165.422 51.3625C163.178 51.5717 161.105 51.726 159.268 51.9421C158.057 52.0849 156.745 52.1546 155.465 52.2128C153.742 52.2916 152.008 52.355 150.46 52.5713C149.483 52.7076 148.582 52.851 147.754 52.9811C146.434 53.1881 145.274 53.3629 144.223 53.4204C142.247 53.5284 140.537 53.6927 139.031 53.8322C137.225 53.9994 135.692 54.1311 134.359 54.0741C134.156 54.0654 133.925 54.0528 133.664 54.0382C132.275 53.9614 130.076 53.8349 126.922 53.9818C125.807 54.0339 124.731 54.139 123.708 54.2399C122.221 54.3867 120.725 54.5257 119.182 54.4785C118.945 54.4715 118.698 54.4375 118.474 54.4064C118.188 54.3669 117.94 54.3322 117.794 54.364C117.365 54.4574 116.686 54.5612 115.959 54.6732C115.408 54.7556 114.825 54.8425 114.294 54.9332C110.239 54.991 106.18 55.0254 102.138 55.0676C101.815 55.0711 101.496 55.0747 101.181 55.0784C99.7397 55.0953 98.1445 55.1326 96.6758 55.1795C95.7365 55.0611 94.7352 54.9623 93.7397 54.8972C92.4025 54.8131 90.68 54.8318 88.4303 54.8681C86.7934 54.894 84.8454 54.9306 82.6349 54.9358C78.4811 54.9493 74.2479 55.1559 71.5112 55.3358C70.937 55.3741 70.3582 55.4132 69.7375 55.4546C67.3759 55.6072 64.451 55.8149 58.8486 56.0007C53.5513 56.1712 49.0318 56.1373 45.6241 56.0442C43.8928 55.9979 42.4439 55.9385 41.3335 55.8949C39.4549 55.8223 37.1018 55.6885 34.7665 55.4902C31.114 55.1922 27.3911 54.6752 25.2991 54.3277C24.5744 54.2116 23.7591 54.0728 22.9118 53.9124C20.6163 53.462 17.6864 52.8761 13.851 51.3566C9.81315 49.6934 7.43468 48.0274 5.30167 45.8199C4.44599 44.9108 3.83019 43.9577 3.30886 42.9368C2.57324 41.4699 1.98249 39.881 1.44057 37.6984C1.31843 37.1962 1.19741 36.6511 1.10199 36.0647C0.927665 34.9823 0.845892 33.9025 0.954744 32.691C0.958864 32.646 0.963362 32.6014 0.968199 32.5574C1.00665 32.2144 1.06427 31.9099 1.1251 31.6139C1.20036 31.2488 1.28026 30.8957 1.34431 30.495C1.58671 28.9718 1.95417 27.5137 2.39559 26.238C2.95839 24.599 3.63235 23.2891 4.10576 22.5206C4.94855 21.1439 5.94642 19.6915 7.10097 18.3623C7.98819 17.3374 8.96423 16.3839 9.96626 15.5754C12.8299 13.2137 17.2194 10.682 21.8733 8.81443C23.6652 8.08858 25.1914 7.66178 27.1868 7.17251C28.4073 6.87681 29.8438 6.554 31.5714 6.1865C32.5718 5.97343 33.3906 5.72307 34.1408 5.49914C34.8372 5.29196 35.4938 5.10381 36.1921 4.99374C36.7967 4.89923 37.1831 4.93608 37.5612 4.96939C37.9802 5.00716 38.3742 5.04333 39.0057 4.90861C39.3388 4.83755 39.7562 4.70882 40.2222 4.56378C40.4063 4.50645 40.6036 4.44569 40.8136 4.38355C40.8062 4.40712 40.8068 4.427 40.8091 4.44174C40.8258 4.5458 41.4702 4.49436 42.1118 4.4477C42.3677 4.42898 42.6239 4.41062 42.8358 4.40259C43.6353 4.36906 45.0323 4.17798 46.1396 4.02334C46.606 3.95784 47.0359 3.93342 47.541 3.90623C47.9883 3.88233 48.4657 3.85997 49.0938 3.80521C49.4507 3.77418 49.729 3.77159 49.9594 3.76985C50.1263 3.7686 50.2686 3.76773 50.3996 3.75657C50.513 3.74689 50.6009 3.70624 50.6998 3.66053C50.7711 3.62762 50.8485 3.59197 50.9456 3.5634C51.1776 3.4951 51.4819 3.44816 51.6986 3.4374C51.7996 3.43232 51.8761 3.43566 51.9526 3.43898C52.0417 3.44285 52.1304 3.4469 52.2514 3.4385C52.8063 3.39997 53.3439 3.30825 53.9071 3.21427C54.5261 3.111 55.1771 3.00494 55.9164 2.9648C56.1501 2.95207 56.3845 2.95204 56.6197 2.95155C56.8644 2.95118 57.1029 2.95092 57.3049 2.93831C58.1253 2.88703 58.8963 2.74445 59.612 2.61492C60.0884 2.52874 60.541 2.44838 60.9456 2.40611C61.6964 2.32809 62.098 2.20702 62.3938 2.11754C62.5473 2.07121 62.6728 2.03328 62.8061 2.01471C62.9291 2.00807 63.054 2.00182 63.1765 1.99607C63.2892 1.99445 63.4058 1.99281 63.5147 1.9827C63.523 1.98193 63.5311 1.98095 63.5393 1.98018C64.2238 1.95245 64.9218 1.9349 65.5701 1.92227C67.0466 1.89251 68.5515 1.86797 70.11 1.73989C70.4414 1.71255 70.7785 1.65619 71.1228 1.59922C71.5445 1.52941 71.9779 1.45845 72.4242 1.43846C73.4846 1.39095 74.5883 1.39825 75.622 1.41094C77.1916 1.42919 78.7826 1.4513 80.1897 1.29836C80.6532 1.2479 81.1065 1.17679 81.563 1.10558C81.8174 1.0659 82.0737 1.02602 82.3329 0.990033C82.2796 1.04147 82.2519 1.08896 82.2261 1.13325C82.1729 1.22455 82.1269 1.30266 81.8801 1.37666C81.2965 1.55151 80.6424 1.78805 80.7218 1.93918C80.7434 1.98019 80.729 2.02734 80.7132 2.07487C80.6735 2.19414 80.6326 2.31576 81.178 2.34947C81.5454 2.37212 82.4937 2.42145 83.0969 2.3105C83.228 2.28631 83.3071 2.24469 83.3951 2.19845C83.5535 2.11539 83.7413 2.01686 84.3185 1.97619C84.4157 1.96936 84.5216 1.9626 84.631 1.95597C85.0627 1.92968 85.5344 1.90137 85.7125 1.83339C85.9161 1.75512 85.8697 1.67427 85.8154 1.57999C85.7448 1.45723 85.6602 1.31133 86.0992 1.11873C86.1863 1.08066 86.3541 1.06337 86.4811 1.05031C86.5705 1.0411 86.639 1.03384 86.6456 1.023C86.6529 1.01055 86.6236 0.986 86.5861 0.95495C86.4543 0.845475 86.2234 0.653774 87.1584 0.617406C87.4115 0.607641 87.7021 0.608607 87.9633 0.609652C88.3481 0.611182 88.669 0.612648 88.7111 0.579015C88.7268 0.566262 88.7379 0.552607 88.747 0.538523C89.0545 0.533881 89.3627 0.529382 89.6717 0.525023C90.0764 0.552908 90.6075 0.535631 91.2902 0.514271C91.4553 0.509102 91.6296 0.503832 91.8109 0.498847C92.4101 0.492216 93.0123 0.486026 93.6169 0.480517C94.0964 0.486085 94.6088 0.501566 95.1521 0.5325C96.2325 0.594702 97.1487 0.716992 98.0659 0.837041C98.451 0.887662 98.8336 0.938087 99.2224 0.983577C99.0714 0.992672 98.9353 1.00269 98.8307 1.01503C98.115 1.09953 97.8319 1.24588 97.5711 1.38051C97.3978 1.47008 97.2343 1.55455 96.9627 1.61234C96.4656 1.71825 96.5184 1.82974 96.5565 1.91211C96.5763 1.95485 96.5914 1.98989 96.5256 2.01218C96.4725 2.03005 96.3493 2.04041 96.2223 2.05117C96.1116 2.06054 95.9973 2.07034 95.9245 2.08538C95.037 2.26835 95.3041 2.35844 95.7002 2.48927C95.9155 2.56152 96.1676 2.64641 96.285 2.76618C96.3864 2.89347 96.3535 2.93188 95.8897 2.99287C96.2531 3.04928 96.6174 3.10585 96.9826 3.16258C97.1253 3.15564 97.2328 3.11363 97.384 3.04438C97.6537 2.92068 98.5417 2.86069 99.2407 2.81462C99.5641 2.79326 99.8464 2.77472 100.006 2.75384C100.854 2.64295 100.605 2.51268 100.385 2.39793C100.264 2.3348 100.153 2.27637 100.238 2.22856C100.274 2.20812 100.221 2.18932 100.168 2.17014C100.127 2.15531 100.085 2.14025 100.083 2.12405C100.07 2.00638 100.571 1.91038 101.038 1.82159C101.082 1.81338 101.125 1.80522 101.167 1.7971C101.385 1.75499 101.583 1.71428 101.701 1.67315C101.744 1.6582 101.778 1.6431 101.809 1.62845C101.856 1.60707 101.901 1.58668 101.972 1.56878C102.134 1.52801 102.468 1.4976 102.833 1.46523C103.021 1.44862 103.216 1.43145 103.4 1.41187C103.639 1.3865 103.725 1.33921 103.816 1.28976C103.879 1.25482 103.946 1.21882 104.07 1.1887C104.293 1.13419 104.744 1.11216 105.161 1.09278C105.343 1.08431 105.519 1.07608 105.667 1.06582C105.727 1.06164 105.757 1.05356 105.763 1.04254C106.46 1.00399 107.123 0.966877 107.765 0.932296C110.959 0.762243 113.775 0.64041 117.931 0.898168C118.705 0.94719 119.565 0.975936 120.419 0.995009C123.137 1.1578 125.864 1.35796 128.596 1.59732C129.13 1.74094 129.782 1.87717 130.55 2.00595C132.006 2.24911 133.515 2.4022 135.278 2.59877C136.609 2.74706 138.027 2.91417 139.741 3.17467C142.573 3.60841 145.486 4.07176 148.771 4.59776C152.057 5.12069 155.748 5.77677 158.403 6.28643C159.82 6.55638 161.334 6.94888 162.704 7.32187C164.66 7.85119 166.391 8.35456 167.493 8.44427C167.845 8.47258 168.187 8.46075 168.539 8.45449C168.786 8.44927 169.028 8.44496 169.262 8.45477C169.853 8.61157 170.432 8.76849 171.012 8.92888C172.06 9.30283 173.623 9.82873 175.231 10.1538C175.822 10.3341 176.425 10.5218 177.008 10.7079C178.255 11.1048 179.513 11.524 180.716 11.946C181.127 12.0896 181.538 12.2359 181.943 12.3822C181.947 12.3836 181.95 12.385 181.954 12.3864C182.754 12.6762 183.599 12.9917 184.391 13.2994C184.728 13.4305 185.068 13.5648 185.419 13.705C186.296 14.0559 187.159 14.4155 188.013 14.7884C188.452 14.9804 188.913 15.1859 189.368 15.395C190.088 15.7258 190.844 16.0865 191.55 16.4431C192.73 17.038 193.86 17.6536 194.979 18.3418C195.162 18.4548 195.326 18.5735 195.437 18.6723C195.548 18.7712 195.599 18.8425 195.581 18.8724C195.562 18.9022 195.475 18.8888 195.336 18.8367C195.198 18.7846 195.017 18.6974 194.829 18.5951C193.686 17.9711 192.533 17.4198 191.334 16.8899C190.615 16.5733 189.85 16.2536 189.12 15.9628C188.657 15.7784 188.192 15.5978 187.747 15.4302C186.881 15.1037 186.008 14.7901 185.122 14.4852C184.767 14.3631 184.424 14.2473 184.083 14.1344C183.281 13.8684 182.427 13.5951 181.618 13.3469C181.613 13.3454 181.609 13.3439 181.604 13.3423C181.199 13.2179 180.786 13.0932 180.376 12.9718C179.163 12.6127 177.897 12.2566 176.643 11.9218C175.978 11.7446 175.3 11.5683 174.625 11.3978C174.248 11.3024 173.867 11.2077 173.49 11.1152C173.281 11.064 173.077 11.0141 172.874 10.9651C168.142 9.82466 163.338 8.87565 158.522 8.07935C153.715 7.28509 148.868 6.63973 144.024 6.12559C139.168 5.61018 134.309 5.22518 129.44 4.956C120.03 4.43725 110.65 4.35532 101.213 4.65474C79.6073 5.45171 57.7549 6.09426 36.8233 10.3142C32.5663 11.2205 28.2518 12.362 24.2605 13.8617C20.2406 15.3789 16.4901 17.2474 13.3738 19.8217C12.4356 20.6004 11.5426 21.4596 10.7288 22.415Z" fill="#FA9600" fill-opacity="0.63"/>
</svg>
