<svg width="117" height="21" viewBox="0 0 117 21" fill="none" xmlns="http://www.w3.org/2000/svg">
<path d="M48.7907 10.9716C48.8523 10.9676 48.915 10.9633 48.9788 10.9589C51.6411 10.751 55.0025 9.87668 58.1225 8.3251C62.1354 6.33795 65.7753 3.41452 70.392 1.48776C72.0457 0.856529 73.7006 0.163933 76.1549 0.142095C77.0725 0.170341 78.0927 0.23975 79.2777 0.671599C80.4738 1.06353 81.8312 2.22433 82.3758 3.38537C83.434 5.68496 83.3074 7.09828 83.5834 8.50819C83.8243 10.1101 84.1729 11.5738 84.7454 12.9873C85.8146 15.5985 86.669 17.0891 88.8346 17.3082C92.5075 17.5971 97.0379 15.6327 101.089 13.8174C103.87 12.5366 106.635 11.1074 109.369 9.62296C110.564 8.97426 111.75 8.31517 112.949 7.63621C113.868 7.11301 114.695 6.64388 115.605 6.11383C115.73 6.04126 115.866 5.99377 115.983 5.98365C116.099 5.97361 116.188 6.00136 116.229 6.06354C116.27 6.12578 116.262 6.21858 116.207 6.32261C116.152 6.42649 116.055 6.53292 115.939 6.61994C115.087 7.25795 114.321 7.83365 113.455 8.46738C112.514 9.15685 111.622 9.80712 110.666 10.4865C110.35 10.3229 110.018 10.2577 109.58 10.4096C109.36 10.4851 109.054 10.649 108.861 10.8348C108.69 11.0003 108.59 11.1686 108.496 11.3284C108.397 11.4954 108.304 11.6535 108.143 11.7869C107.867 12.015 107.666 12.2886 107.426 12.5921C107.337 12.703 107.248 12.8155 107.154 12.9273C106.236 13.5476 105.324 14.1498 104.397 14.743C104.022 14.917 103.664 15.0861 103.371 15.2613C103.112 15.417 102.904 15.604 102.706 15.8021C102.562 15.8904 102.42 15.9774 102.278 16.0634C101.304 16.6505 100.36 17.1987 99.3827 17.7316C98.5562 18.0349 97.7083 18.3403 96.5788 18.7675C96.1277 18.9365 95.5849 19.0999 95.1305 19.2194C94.4159 19.412 93.7785 19.5565 93.1797 19.7717C92.8006 19.9094 92.3719 19.9744 91.9381 20.0241C91.3846 20.0852 90.7848 20.1264 90.2607 20.2961C89.9219 20.4039 89.634 20.5106 89.317 20.5994C88.8442 20.7399 88.3813 20.8287 87.9841 20.7861C87.2126 20.7035 86.5217 20.6069 85.894 20.4311C85.1511 20.2254 84.5259 19.911 84.1483 19.4826C84.091 19.4177 84.0285 19.3407 83.9612 19.253C83.6007 18.787 83.1307 18.0418 82.4352 17.1315C82.1891 16.8117 81.9219 16.5289 81.6726 16.2552C81.3078 15.8524 80.9755 15.459 80.8075 14.965C80.7919 14.9193 80.7852 14.868 80.782 14.8166C80.7791 14.7827 80.7777 14.749 80.7765 14.7165C80.7724 14.6086 80.7701 14.5154 80.721 14.4815C80.5765 14.3806 80.392 14.2086 80.1902 14.0032C80.0425 13.8537 79.8913 13.7012 79.7396 13.5517C79.1838 12.2155 78.782 10.8195 78.4794 9.49569C78.3394 8.89011 78.2174 8.29911 78.0966 7.76167C78.1799 7.45889 78.2483 7.1633 78.2801 6.88146C78.3231 6.51793 78.2422 6.06599 78.1376 5.75691C78.0471 5.52145 78.0487 5.44178 77.888 5.24861C77.6481 4.96281 76.8176 4.83039 76.1549 4.87986C75.9933 4.89229 75.8072 4.92533 75.6607 4.96532C75.536 4.99856 75.3949 5.0402 75.2532 5.08879C74.6972 5.2824 73.9834 5.55999 72.5362 6.28703C71.1621 6.98544 69.9665 7.63622 69.0572 8.13113C68.5966 8.38342 68.208 8.60024 67.9181 8.77384C67.416 9.07415 66.7992 9.43688 66.1772 9.80405C65.2007 10.3808 64.2065 10.9666 63.6526 11.3223C63.4558 11.449 63.25 11.585 63.0268 11.7314C62.4075 12.1366 61.6577 12.6265 60.5611 13.2287C59.4074 13.8594 58.6445 14.1769 57.8243 14.4627C57.4908 14.5782 57.1617 14.5929 56.817 14.6066C56.3317 14.6238 55.8264 14.6367 55.2427 14.9111C55.1083 14.9744 54.9623 15.0572 54.8115 15.1417C54.5325 15.2976 54.2375 15.4593 53.8879 15.5434C53.7676 15.5722 53.6547 15.574 53.5445 15.5749C53.4233 15.576 53.305 15.5762 53.1813 15.6099C52.7035 15.7402 52.2559 15.8617 51.827 15.9634C51.2893 16.0916 50.8126 16.1776 50.5162 16.1916C50.1403 16.2096 49.7156 16.2691 49.2942 16.3206C49.1321 16.3406 48.9711 16.3607 48.8118 16.3787C48.392 16.4281 47.9142 16.4637 47.4715 16.4362C46.2225 16.3323 44.1254 16.2965 42.0552 14.7527C41.3161 14.1859 40.8891 13.5098 40.5398 12.7674C40.3232 12.3057 40.141 11.8087 39.9392 11.3088C39.8249 11.0266 39.661 10.8548 39.5146 10.7177C39.3798 10.5913 39.2617 10.4958 39.2115 10.3692C39.1672 10.2579 39.2154 10.1413 39.2565 10.0255C39.3027 9.89804 39.3403 9.77231 39.2492 9.70429C39.2004 9.66807 39.114 9.65759 39.0143 9.65394C38.9747 9.65229 38.9342 9.65274 38.8927 9.65293C38.9081 9.63707 38.9211 9.62223 38.9307 9.61082C38.9998 9.53117 38.9551 9.42069 38.9011 9.31775C38.8792 9.2761 38.8547 9.23459 38.8364 9.19444C38.7764 9.04821 38.5334 8.90712 38.3154 8.83603C38.2486 8.81339 38.1891 8.7754 38.1216 8.72954C38.0911 8.71122 38.0603 8.69204 38.0286 8.67237C37.9194 8.60556 37.8132 8.53605 37.6487 8.47218C37.5582 8.43673 37.4961 8.39121 37.445 8.35375C37.4091 8.32689 37.3728 8.30304 37.3406 8.29214C37.312 8.28262 37.2827 8.30755 37.2504 8.33591C37.2272 8.35633 37.2024 8.37856 37.1752 8.39111C37.1105 8.42108 37.0364 8.42098 36.9858 8.39955C36.9628 8.3897 36.9459 8.37523 36.9291 8.36092C36.9096 8.34425 36.8902 8.32759 36.8619 8.31889C36.7332 8.27919 36.5968 8.3002 36.4692 8.3287C36.3258 8.35989 36.1896 8.39909 36.043 8.37624C35.9953 8.36913 35.9448 8.35081 35.896 8.33407C35.8458 8.31642 35.7926 8.30117 35.7513 8.30121C35.5817 8.30152 35.4411 8.41124 35.3218 8.51862C35.241 8.5904 35.1674 8.66137 35.0859 8.70248C34.936 8.77854 34.8802 8.90309 34.8428 8.99267C34.8229 9.0395 34.8067 9.07819 34.7804 9.09984C34.752 9.11025 34.7222 9.12097 34.6933 9.13117C34.665 9.1373 34.6352 9.14403 34.6107 9.15842C34.6089 9.15951 34.6071 9.16079 34.6053 9.16188C34.4346 9.22086 34.2514 9.2806 34.0598 9.34624C33.6277 9.4947 33.1588 9.66942 32.6886 9.93966C32.5887 9.99727 32.4953 10.0828 32.3974 10.1697C32.283 10.2735 32.1552 10.3826 32.0074 10.4421C31.6551 10.5842 31.2628 10.67 30.8904 10.7346C30.3235 10.8348 29.7645 10.9004 29.3067 11.1109C29.1468 11.1826 29.0098 11.2686 28.8603 11.3559C28.778 11.4043 28.6918 11.4531 28.6064 11.4972C28.6151 11.445 28.6168 11.3973 28.6179 11.3529C28.6203 11.2613 28.6227 11.183 28.6959 11.1017C28.8699 10.9094 29.0396 10.6532 28.9806 10.5087C28.9647 10.4694 28.9596 10.4228 28.9548 10.3758C28.9425 10.2578 28.9303 10.1381 28.7443 10.1239C28.6193 10.1147 28.2913 10.0967 28.1181 10.2194C28.0793 10.2464 28.0603 10.2894 28.0388 10.3371C28.0056 10.4102 27.9671 10.4951 27.8381 10.5515C27.8177 10.5609 27.795 10.5694 27.7695 10.5768C27.7401 10.5854 27.7082 10.594 27.6751 10.6026C27.5434 10.6369 27.3973 10.675 27.3523 10.7458C27.3006 10.8273 27.3279 10.9062 27.3597 10.9981C27.4006 11.1179 27.4516 11.2598 27.3416 11.4597C27.3199 11.4992 27.2694 11.52 27.2314 11.5358C27.2046 11.5469 27.1842 11.5556 27.1838 11.5664C27.1835 11.5789 27.1966 11.6025 27.2132 11.6323C27.2723 11.7374 27.374 11.9213 27.0868 11.9784C27.0094 11.9938 26.9186 11.9996 26.8358 12.005C26.7145 12.0128 26.6143 12.0192 26.6065 12.0535C26.6037 12.0664 26.6024 12.0802 26.6018 12.0943C26.5067 12.1065 26.4127 12.1184 26.3159 12.1308C26.1865 12.1134 26.018 12.1453 25.8037 12.1855C25.7516 12.1953 25.6966 12.2055 25.6396 12.2155C25.4503 12.239 25.2595 12.2625 25.0681 12.2854C24.9157 12.2937 24.7504 12.2933 24.5734 12.2786C24.2215 12.2484 23.9005 12.1559 23.5878 12.0634C23.4558 12.0245 23.327 11.9852 23.1953 11.9509C23.2433 11.9377 23.2851 11.924 23.317 11.9089C23.5348 11.8052 23.6062 11.6519 23.6713 11.5111C23.7142 11.4174 23.7538 11.3292 23.8324 11.2642C23.9762 11.1449 23.9432 11.0361 23.9189 10.9558C23.9063 10.9141 23.8964 10.8799 23.9142 10.8559C23.9286 10.8367 23.9666 10.8228 24.0058 10.8084C24.0399 10.7959 24.0757 10.7828 24.0965 10.7658C24.3506 10.5592 24.2512 10.4781 24.1076 10.36C24.0289 10.2947 23.9356 10.2182 23.8806 10.1032C23.8295 9.98025 23.8347 9.94126 23.9729 9.86752C23.8493 9.82226 23.7247 9.77693 23.602 9.73105C23.5582 9.74193 23.5306 9.78649 23.4933 9.8592C23.4267 9.98911 23.1543 10.0734 22.9435 10.1373C22.8447 10.167 22.7591 10.1927 22.7123 10.2174C22.4635 10.3487 22.557 10.4715 22.6402 10.5799C22.686 10.6394 22.7285 10.6945 22.708 10.7441C22.6992 10.7653 22.7182 10.7826 22.7373 10.8002C22.7521 10.8139 22.7673 10.8277 22.77 10.8438C22.7891 10.9601 22.6453 11.0681 22.5072 11.1679C22.4287 11.2251 22.3539 11.2796 22.3153 11.3318C22.3035 11.3477 22.2945 11.3636 22.2862 11.3789C22.274 11.4013 22.262 11.4227 22.2416 11.4423C22.1956 11.4868 22.0908 11.5258 21.9771 11.5676C21.9187 11.589 21.8578 11.6113 21.8006 11.6356C21.7266 11.6672 21.7035 11.7166 21.6792 11.7682C21.662 11.8047 21.6439 11.8423 21.6066 11.8756C21.5391 11.9359 21.3938 11.9702 21.2584 12.0009C21.1989 12.0143 21.1414 12.0273 21.0933 12.0416C21.0737 12.0474 21.0648 12.0563 21.0637 12.0674C20.8409 12.1245 20.6248 12.1793 20.4144 12.2306C19.3581 12.4817 18.386 12.6774 16.9444 12.4401C16.6733 12.3938 16.3798 12.3658 16.0808 12.3427C15.1394 12.1679 14.2092 11.9144 13.3208 11.5958C13.1719 11.4402 12.9831 11.2875 12.7534 11.1356C12.5553 11.0054 12.3592 10.8944 12.1437 10.7837C11.9599 10.6964 11.7813 10.6039 11.6055 10.4962C11.419 10.3829 11.1788 10.2188 10.9667 9.99891C10.6335 9.67969 10.2951 9.04118 10.3459 8.41191C10.3921 7.78333 10.6356 7.40638 10.8702 7.08844C11.6524 6.14172 12.449 5.67697 13.0626 4.99768C13.2081 4.8391 13.3325 4.67437 13.3884 4.56703C13.4419 4.44319 13.4184 4.54401 13.4609 4.58158C13.4932 4.60244 13.4061 4.49486 13.2546 4.41662C13.1123 4.3372 12.9266 4.26544 12.7576 4.21164C12.3911 4.09479 11.9862 3.91945 11.5387 3.76449C11.2739 3.66291 10.9889 3.56976 10.7148 3.51889C10.4575 3.46977 10.256 3.46581 10.0763 3.53298C9.96407 3.57617 9.8506 3.65797 9.73876 3.73782C9.65909 3.79469 9.57974 3.85038 9.50204 3.89091C9.32605 3.86625 9.15322 3.84313 8.96919 3.8203C8.65278 3.69704 8.09661 3.56166 7.62463 3.67227C7.4344 3.65336 7.23854 3.63528 7.04441 3.61783C6.594 3.58093 6.24937 3.54795 5.83637 3.51664C5.70423 3.50634 5.56877 3.4963 5.43088 3.48651C5.42957 3.4864 5.42826 3.48628 5.42696 3.48617C5.15041 3.46643 4.8536 3.44804 4.60833 3.42976C4.4981 3.42202 4.38666 3.41446 4.274 3.40707C3.98775 3.38833 3.69142 3.37071 3.39231 3.35387C3.23426 3.3449 3.0712 3.33641 2.90813 3.328C2.67023 3.31364 2.42573 3.29992 2.1776 3.28674C1.77633 3.26543 1.36432 3.24551 0.93865 3.22725C0.86904 3.2242 0.801272 3.2089 0.750747 3.18369C0.700239 3.15843 0.670854 3.12545 0.669543 3.09031C0.668238 3.05515 0.695158 3.01985 0.74375 2.9908C0.792312 2.96185 0.858733 2.94175 0.927969 2.93353C1.35197 2.88366 1.76302 2.83605 2.16364 2.7905C2.41124 2.76235 2.65529 2.73469 2.8931 2.70819C3.05663 2.69141 3.21937 2.67512 3.37775 2.6591C3.67724 2.62893 3.97481 2.59981 4.26225 2.57222C4.37535 2.56132 4.48731 2.55059 4.59812 2.54004C4.8451 2.51547 5.14559 2.49135 5.42514 2.46881C5.42683 2.46868 5.42853 2.46855 5.43022 2.46841C5.56834 2.45731 5.7043 2.4465 5.83698 2.43605C6.25457 2.40438 6.60518 2.37491 7.06401 2.35022C7.28719 2.33667 7.5135 2.32459 7.73172 2.31332C7.85324 2.30704 7.97257 2.30102 8.08793 2.29533C8.15263 2.2924 8.20848 2.28933 8.28612 2.28704C9.86943 2.24066 11.3813 2.17464 13.1071 2.50114C13.5092 2.58901 13.9952 2.70897 14.4873 3.02508C14.7671 3.21493 15.056 3.47433 15.2337 3.91734C15.4123 4.36591 15.3626 4.8386 15.2592 5.16945C14.7958 6.39417 14.1856 6.85217 13.7087 7.46827C13.3304 7.90502 12.9451 8.44158 12.9592 8.56375C12.9623 8.5801 13.0011 8.5189 12.9935 8.38437C12.9887 8.24961 12.9144 8.10578 12.8837 8.06312C12.8198 7.97913 12.944 8.0686 13.1523 8.12159C13.4264 8.20645 13.6977 8.28299 13.97 8.35236C18.1941 9.51456 22.5525 8.26693 27.2918 7.27374C29.0131 6.90009 30.2753 6.32972 31.9373 5.32524C32.7721 4.83638 34.1012 4.14024 35.5863 4.00274C37.0558 3.85412 38.3081 4.10707 39.4204 4.40047C41.0522 4.77357 42.9018 6.15756 43.7489 7.54996C44.7847 9.1949 45.2386 10.2577 45.6317 10.4906C45.9503 10.7598 46.6332 10.9771 47.7362 10.9984C48.0558 11.0051 48.4155 10.9962 48.7907 10.9716Z" fill="#FED132"/>
</svg>
