<svg width="16" height="16" viewBox="0 0 16 16" fill="none" xmlns="http://www.w3.org/2000/svg">
<path d="M12.0646 15.5117H3.44704C2.52636 15.5117 1.66074 15.1532 1.00963 14.5021C0.35856 13.851 0 12.9854 0 12.0646V11.2029C0 10.7269 0.385804 10.3411 0.861767 10.3411C1.33773 10.3411 1.72353 10.7269 1.72353 11.2029V12.0646C1.72353 12.525 1.90283 12.9578 2.22831 13.2833C2.55387 13.6089 2.98667 13.7882 3.44704 13.7882H12.0646C12.525 13.7882 12.9578 13.6089 13.2833 13.2833C13.6089 12.9578 13.7882 12.525 13.7882 12.0646V11.2029C13.7882 10.7269 14.174 10.3411 14.6499 10.3411C15.1259 10.3411 15.5117 10.7269 15.5117 11.2029V12.0646C15.5117 12.9853 15.1532 13.8509 14.5021 14.5021C13.851 15.1532 12.9853 15.5117 12.0646 15.5117ZM7.75584 12.0646C7.63663 12.0646 7.52315 12.0404 7.41989 11.9967C7.32356 11.956 7.23304 11.8969 7.15384 11.8195C7.15381 11.8195 7.15381 11.8195 7.15378 11.8195C7.15321 11.8189 7.15263 11.8183 7.15206 11.8178C7.15191 11.8177 7.15173 11.8174 7.15158 11.8173C7.1511 11.8169 7.15068 11.8164 7.15023 11.816C7.14992 11.8157 7.14965 11.8154 7.14935 11.8151C7.14905 11.8148 7.14866 11.8144 7.14839 11.8142C7.14779 11.8136 7.14713 11.8129 7.14652 11.8123L3.69945 8.3652C3.36293 8.02867 3.36293 7.48302 3.69945 7.14646C4.03598 6.80994 4.58166 6.80991 4.91819 7.14646L6.89411 9.12238V0.861767C6.89408 0.385804 7.27988 0 7.75584 0C8.23181 0 8.61764 0.385804 8.61764 0.861767V9.12235L10.5935 7.14646C10.93 6.80994 11.4758 6.80994 11.8123 7.14646C12.1488 7.48299 12.1488 8.02867 11.8123 8.3652L8.3652 11.8122C8.36459 11.8128 8.36393 11.8135 8.36333 11.8141C8.363 11.8144 8.36264 11.8148 8.36237 11.815C8.36206 11.8154 8.36179 11.8156 8.36149 11.8159C8.36107 11.8164 8.36059 11.8168 8.36017 11.8172C8.36002 11.8174 8.35981 11.8176 8.35966 11.8177C8.35911 11.8183 8.35854 11.8189 8.35797 11.8194C8.35794 11.8194 8.35794 11.8194 8.35791 11.8195C8.34843 11.8287 8.33882 11.8377 8.32901 11.8464C8.25685 11.9108 8.17648 11.9609 8.0915 11.9968C8.09119 11.9969 8.09095 11.997 8.09065 11.9971C8.09032 11.9972 8.09005 11.9974 8.08972 11.9975C7.98701 12.0408 7.87424 12.0646 7.75584 12.0646Z" fill="white"/>
</svg>
