<svg width="14" height="15" viewBox="0 0 14 15" fill="none" xmlns="http://www.w3.org/2000/svg">
<path d="M0.667669 4.47236H13.299C13.453 4.47236 13.5998 4.40891 13.7054 4.2971C13.8111 4.18529 13.8659 4.03491 13.8572 3.88117L13.8502 3.7361C13.7594 2.26805 12.5323 1.11809 11.0561 1.11809H10.3378V0.559045C10.3378 0.250452 10.0873 0 9.77871 0C9.47011 0 9.21966 0.250452 9.21966 0.559045V1.11809H4.7473V0.559045C4.7473 0.250452 4.49685 0 4.18825 0C3.87966 0 3.62921 0.250452 3.62921 0.559045V1.11809H2.91084C1.43468 1.11809 0.207296 2.26833 0.116451 3.73722L0.109463 3.88145C0.100518 4.03491 0.155584 4.18529 0.260964 4.29738C0.366344 4.40947 0.513932 4.47236 0.667669 4.47236Z" fill="white"/>
<path d="M13.9447 6.13589C13.9374 5.83261 13.6892 5.59082 13.3859 5.59082H0.581018C0.277736 5.59082 0.0297991 5.83261 0.0219724 6.13589C-0.0280621 8.13867 0.00743733 10.1345 0.127632 12.0685C0.214843 13.4717 1.3388 14.5954 2.74145 14.6826C4.14912 14.7709 5.5663 14.8151 6.98348 14.8151C8.40038 14.8151 9.81812 14.7709 11.225 14.6823C12.6282 14.5951 13.7518 13.4711 13.8393 12.0682C13.9595 10.1345 13.995 8.13839 13.9447 6.13589ZM9.7787 8.94509C9.31554 8.94509 8.94014 8.56969 8.94014 8.10652C8.94014 7.64335 9.31554 7.26796 9.7787 7.26796C10.2419 7.26796 10.6173 7.64335 10.6173 8.10652C10.6173 8.56969 10.2419 8.94509 9.7787 8.94509ZM10.6173 10.9017C10.6173 11.3649 10.2419 11.7403 9.7787 11.7403C9.31554 11.7403 8.94014 11.3649 8.94014 10.9017C8.94014 10.4386 9.31554 10.0632 9.7787 10.0632C10.2419 10.0632 10.6173 10.4386 10.6173 10.9017ZM4.18825 10.0632C4.65142 10.0632 5.02682 10.4386 5.02682 10.9017C5.02682 11.3649 4.65142 11.7403 4.18825 11.7403C3.72509 11.7403 3.34969 11.3649 3.34969 10.9017C3.34969 10.4386 3.72509 10.0632 4.18825 10.0632ZM3.34969 8.10652C3.34969 7.64335 3.72509 7.26796 4.18825 7.26796C4.65142 7.26796 5.02682 7.64335 5.02682 8.10652C5.02682 8.56969 4.65142 8.94509 4.18825 8.94509C3.72509 8.94509 3.34969 8.56969 3.34969 8.10652ZM6.14491 10.9017C6.14491 10.4386 6.52031 10.0632 6.98348 10.0632C7.44665 10.0632 7.82205 10.4386 7.82205 10.9017C7.82205 11.3649 7.44665 11.7403 6.98348 11.7403C6.52031 11.7403 6.14491 11.3649 6.14491 10.9017ZM6.98348 8.94509C6.52031 8.94509 6.14491 8.56969 6.14491 8.10652C6.14491 7.64335 6.52031 7.26796 6.98348 7.26796C7.44665 7.26796 7.82205 7.64335 7.82205 8.10652C7.82205 8.56969 7.44665 8.94509 6.98348 8.94509Z" fill="white"/>
</svg>
