<svg width="13" height="15" viewBox="0 0 13 15" fill="none" xmlns="http://www.w3.org/2000/svg">
<path d="M8.8079 2.62424C8.8079 3.36405 8.55385 3.98381 8.04855 4.49191C7.54324 4.99721 6.92069 5.25126 6.18088 5.25126C5.44386 5.25126 4.8213 4.99721 4.31599 4.49191C3.81069 3.9866 3.55664 3.36405 3.55664 2.62424C3.55664 1.88442 3.81069 1.26466 4.31599 0.756561C4.8213 0.248465 5.44665 0 6.18367 0C6.92348 0 7.54324 0.254048 8.05134 0.759353C8.55944 1.26466 8.81069 1.88722 8.8079 2.62424Z" fill="white"/>
<path d="M12.2697 5.88309V11.9244C12.2697 12.2566 12.0129 12.5302 11.6834 12.5526C10.7761 12.6168 9.88276 12.8234 9.03965 13.1639C8.13513 13.5269 7.28923 14.0238 6.52988 14.638C6.29816 14.8222 5.97153 14.8222 5.73982 14.638C4.98046 14.0238 4.13457 13.5269 3.23004 13.1639C2.38694 12.8234 1.49358 12.6168 0.586265 12.5526C0.25684 12.5302 0 12.2538 0 11.9244V5.88309C0.00279174 5.53412 0.284757 5.25216 0.633725 5.25216C0.656059 5.25216 0.675601 5.25216 0.697935 5.25495C1.52987 5.3387 2.35623 5.57042 3.17979 5.95288C4.22949 6.44144 5.21776 7.12262 6.13624 7.99923C7.05752 7.12542 8.043 6.44144 9.0927 5.95288C9.91347 5.57042 10.7426 5.3387 11.5746 5.25495C11.9207 5.21866 12.2334 5.46991 12.2697 5.81888C12.2669 5.84122 12.2697 5.86355 12.2697 5.88309Z" fill="white"/>
</svg>
