<svg width="22" height="32" viewBox="0 0 22 32" fill="none" xmlns="http://www.w3.org/2000/svg">
<path d="M12.2439 0.993858C13.1916 0.831699 15.3933 4.09967 16.1647 5.38834C18.1061 8.63267 19.875 12.7217 21.7589 16.1175C22.2163 17.3796 21.4295 17.1555 20.9589 16.8935C19.6482 16.1657 13.3593 9.08018 12.3092 7.19037C11.2749 5.32663 10.5345 1.28777 12.2426 0.99404L12.2439 0.993858Z" fill="black"/>
<path d="M3.35008 12.8038C3.98185 12.843 6.30566 13.4493 6.93388 13.674C9.27658 14.5084 16.9675 18.8962 18.8719 20.2718C19.9473 21.0468 18.7641 20.9661 17.6834 20.8249C14.0017 20.3412 4.37569 17.6226 2.10121 15.5045C0.813965 14.3056 0.815579 12.6453 3.35008 12.8038Z" fill="black"/>
<path d="M5.32343 26.806C9.31082 26.2804 13.7114 27.6126 17.6329 28.1587L18.0689 28.6911L17.3667 29.4383C15.1081 29.8062 12.7456 30.6768 10.52 31.0356C8.59091 31.3464 3.50084 32.1278 2.5325 30.1193C1.67571 28.3438 3.52365 27.0459 5.32089 26.8083L5.32343 26.806Z" fill="black"/>
</svg>
