<svg width="122" height="122" viewBox="0 0 122 122" fill="none" xmlns="http://www.w3.org/2000/svg">
<path d="M99.1 11.1121V112.752C99.1 114.03 98.0628 115.068 96.7847 115.068H19.6864C18.4083 115.068 17.3711 114.03 17.3711 112.752V11.1121C17.3711 9.83411 18.4083 8.79688 19.6864 8.79688H96.7847C98.0628 8.79688 99.1 9.83411 99.1 11.1121Z" fill="#1057CD"/>
<path d="M21.0742 20.2243V109.726C21.0742 110.631 21.8082 111.365 22.7137 111.365H69.4304C70.0444 111.365 70.6334 111.121 71.0675 110.687L88.9115 92.8429V18.9859H25.6876L25.2973 16.168L22.1045 18.2985C21.4606 18.728 21.0742 19.4506 21.0742 20.2243Z" fill="#0B3B89"/>
<path d="M92.1537 18.0594V89.6012L78.2621 94.6947L73.6316 108.123H26.6317C25.353 108.123 24.3164 107.087 24.3164 105.808V18.0594C24.3164 16.7807 25.353 15.7441 26.6317 15.7441H89.8384C91.1172 15.7441 92.1537 16.7807 92.1537 18.0594Z" fill="#F5F5F5"/>
<path d="M92.153 89.5996L73.6309 108.122V91.9149C73.6309 90.6362 74.6674 89.5996 75.9461 89.5996H92.153Z" fill="#E6E6E6"/>
<path d="M81.5353 15.7441V20.2427C81.5353 23.4331 78.9376 26.0309 75.7471 26.0309H40.7218C37.5313 26.0309 34.9336 23.4331 34.9336 20.2427V15.7441H81.5353Z" fill="#E6E6E6"/>
<path d="M34.9336 8.79688H81.5353V15.7427H34.9336V8.79688Z" fill="#0B3B89"/>
<path d="M78.0632 8.79311V20.2414C78.0632 21.5201 77.0266 22.5567 75.7479 22.5567H40.7235C39.4447 22.5567 38.4082 21.5201 38.4082 20.2414V8.79311L51.2596 8.79334C51.0887 8.05917 51.0306 7.28171 51.1047 6.48016C51.4246 3.01999 54.2608 0.256724 57.7275 0.0175565C61.913 -0.271157 65.398 3.03875 65.398 7.16247C65.398 7.72346 65.3334 8.26963 65.2114 8.79334L78.0632 8.79311Z" fill="#8AC5FF"/>
<path d="M40.4991 45.8649C40.0511 45.8649 39.6195 45.6917 39.2956 45.3801L33.4294 39.7397C32.7381 39.0749 32.7165 37.9757 33.3813 37.2845C34.046 36.5934 35.1455 36.5719 35.8364 37.2364L40.3949 41.6199L47.5437 33.5046C48.1774 32.7853 49.2749 32.7154 49.9947 33.3495C50.714 33.9834 50.7837 35.0809 50.1498 35.8005L41.8019 45.2766C41.4886 45.632 41.0441 45.8441 40.5709 45.8635C40.547 45.8645 40.5229 45.8649 40.4991 45.8649Z" fill="#FED132"/>
<path d="M80.3466 41.1252H55.8048C54.8456 41.1252 54.0684 40.348 54.0684 39.3888C54.0684 38.4296 54.8456 37.6523 55.8048 37.6523H80.3466C81.3059 37.6523 82.0831 38.4296 82.0831 39.3888C82.0831 40.348 81.3059 41.1252 80.3466 41.1252Z" fill="#1057CD"/>
<path d="M40.4991 66.2928C40.0511 66.2928 39.6195 66.1196 39.2956 65.808L33.4294 60.1675C32.7381 59.5028 32.7165 58.4035 33.3813 57.7124C34.046 57.0211 35.1455 56.9995 35.8364 57.6642L40.3977 62.0501L47.5586 53.9533C48.1936 53.2349 49.2911 53.1675 50.0097 53.8031C50.7282 54.4384 50.7955 55.5358 50.16 56.2542L41.7998 65.7068C41.4863 66.061 41.042 66.2722 40.5692 66.2914C40.5459 66.2923 40.5222 66.2928 40.4991 66.2928Z" fill="#FED132"/>
<path d="M80.3466 61.4709H55.8048C54.8456 61.4709 54.0684 60.6937 54.0684 59.7345C54.0684 58.7753 54.8456 57.998 55.8048 57.998H80.3466C81.3059 57.998 82.0831 58.7753 82.0831 59.7345C82.0831 60.6937 81.3059 61.4709 80.3466 61.4709Z" fill="#1057CD"/>
<path d="M80.3468 82.5706H76.295C75.3358 82.5706 74.5586 81.7933 74.5586 80.8341C74.5586 79.8749 75.3358 79.0977 76.295 79.0977H80.3468C81.306 79.0977 82.0832 79.8749 82.0832 80.8341C82.0832 81.7933 81.306 82.5706 80.3468 82.5706Z" fill="#1057CD"/>
<path d="M68.1915 82.5706H55.8048C54.8456 82.5706 54.0684 81.7933 54.0684 80.8341C54.0684 79.8749 54.8456 79.0977 55.8048 79.0977H68.1915C69.1507 79.0977 69.9279 79.8749 69.9279 80.8341C69.9279 81.7933 69.1507 82.5706 68.1915 82.5706Z" fill="#1057CD"/>
<path d="M46.7753 87.8946H36.1251C35.1659 87.8946 34.3887 87.1174 34.3887 86.1582V75.5079C34.3887 74.5487 35.1659 73.7715 36.1251 73.7715H46.7753C47.7346 73.7715 48.5118 74.5487 48.5118 75.5079V86.1582C48.5118 87.1171 47.7346 87.8946 46.7753 87.8946ZM37.8616 84.4217H45.0389V77.2444H37.8616V84.4217Z" fill="#FD646F"/>
<path fill-rule="evenodd" clip-rule="evenodd" d="M108.572 15.0625L93.7211 16.2146C93.2689 16.2497 92.8981 16.5039 92.7024 16.913L86.2749 30.3499C86.0792 30.759 86.1139 31.2073 86.3705 31.5814L94.7935 43.8663C95.05 44.2402 95.4556 44.4342 95.9077 44.3992L110.758 43.2471C111.21 43.212 111.581 42.9578 111.777 42.5487L118.204 29.1118C118.4 28.7027 118.365 28.2543 118.109 27.8803L109.686 15.5955C109.429 15.2214 109.024 15.0274 108.572 15.0625Z" fill="#F2D1A5"/>
<path fill-rule="evenodd" clip-rule="evenodd" d="M108.572 15.0631L93.7219 16.2151C93.4959 16.2326 93.2901 16.3049 93.1165 16.424L102.241 29.7314L118.327 28.4834C118.311 28.2735 118.238 28.0679 118.11 27.8809L109.686 15.5961C109.43 15.222 109.025 15.028 108.572 15.0631Z" fill="#E3A76F"/>
<path fill-rule="evenodd" clip-rule="evenodd" d="M93.1164 16.4232C92.9428 16.5423 92.8011 16.7081 92.7032 16.9127L86.2757 30.3496C86.08 30.7587 86.1147 31.2071 86.3713 31.5811L94.7943 43.866C94.9225 44.0529 95.0881 44.1949 95.2781 44.2858L102.241 29.7306L93.1164 16.4232Z" fill="#ECBA78"/>
<path fill-rule="evenodd" clip-rule="evenodd" d="M112.736 28.9174L108.017 29.2836L98.7874 15.8224L103.506 15.4563L112.736 28.9174Z" fill="#C48958"/>
<path fill-rule="evenodd" clip-rule="evenodd" d="M106.309 34.9984L109.251 34.7702C109.703 34.7353 110.074 34.4809 110.269 34.0718L112.735 28.9173L108.016 29.2833L105.704 34.1162C105.606 34.3208 105.624 34.5449 105.752 34.7319C105.88 34.9189 106.083 35.0159 106.309 34.9984Z" fill="#E3A76F"/>
<path fill-rule="evenodd" clip-rule="evenodd" d="M14.4293 85.4246L3.00498 97.0243C2.65707 97.3776 2.53803 97.8328 2.67781 98.2751L7.26915 112.802C7.40894 113.244 7.76804 113.548 8.25573 113.637L24.2716 116.564C24.7591 116.653 25.2374 116.502 25.5852 116.149L37.0095 104.549C37.3573 104.196 37.4765 103.741 37.3367 103.298L32.7453 88.7718C32.6056 88.3296 32.2463 88.0253 31.7588 87.9363L15.7429 85.0094C15.2553 84.9202 14.7771 85.0714 14.4293 85.4246Z" fill="#F2D1A5"/>
<path fill-rule="evenodd" clip-rule="evenodd" d="M14.4313 85.4242L3.00693 97.0238C2.83303 97.2004 2.71626 97.4025 2.66053 97.6158L20.0093 100.786L32.3847 88.221C32.2165 88.0786 32.0048 87.9802 31.761 87.9357L15.7449 85.009C15.2573 84.9199 14.7792 85.071 14.4313 85.4242Z" fill="#E3A76F"/>
<path fill-rule="evenodd" clip-rule="evenodd" d="M2.66011 97.6156C2.60438 97.8288 2.60945 98.0533 2.67936 98.2745L7.2707 112.801C7.41049 113.243 7.76958 113.548 8.25728 113.637L24.2731 116.563C24.5169 116.608 24.7584 116.592 24.9824 116.522L20.0089 100.786L2.66011 97.6156Z" fill="#ECBA78"/>
<path fill-rule="evenodd" clip-rule="evenodd" d="M28.0828 92.5889L24.4526 96.275L6.90331 93.0678L10.5337 89.3818L28.0828 92.5889Z" fill="#C48958"/>
<path fill-rule="evenodd" clip-rule="evenodd" d="M27.2518 101.71L29.5147 99.4122C29.8626 99.059 29.9816 98.6037 29.8418 98.1614L28.0805 92.5888L24.4502 96.2748L26.1016 101.5C26.1715 101.721 26.351 101.873 26.5948 101.917C26.8387 101.962 27.0779 101.886 27.2518 101.71Z" fill="#E3A76F"/>
</svg>
