<svg width="121" height="106" viewBox="0 0 121 106" fill="none" xmlns="http://www.w3.org/2000/svg">
<path d="M108.386 74.9556H107.812C105.932 74.9556 104.991 72.6827 106.32 71.3521L106.725 70.9472C107.55 70.1224 107.55 68.7866 106.725 67.9618L100.226 61.4628C99.4013 60.638 98.0655 60.638 97.2407 61.4628L96.8358 61.8677C95.5052 63.1973 93.2323 62.2562 93.2323 60.3754V59.8019C93.2327 58.6365 92.2871 57.6914 91.1218 57.6914H81.9294C80.764 57.6914 79.8189 58.6365 79.8189 59.8022V60.3754C79.8189 62.2565 77.546 63.1973 76.2154 61.8681L75.8104 61.4628C74.9856 60.6384 73.6499 60.6384 72.8254 61.4628L66.3261 67.9621C65.5013 68.7866 65.5013 70.1224 66.3261 70.9472L66.7314 71.3524C68.0606 72.6827 67.1195 74.9556 65.2387 74.9556H64.6652C63.4998 74.9556 62.5547 75.9007 62.5547 77.0661V86.2585C62.5547 87.4239 63.4998 88.369 64.6655 88.369H65.2387C67.1198 88.369 68.0609 90.6419 66.7314 91.9725L66.3261 92.3774C65.5017 93.2023 65.5017 94.538 66.3261 95.3628L72.8254 101.862C73.6502 102.687 74.986 102.687 75.8104 101.862L76.2157 101.457C77.546 100.127 79.8189 101.068 79.8189 102.949V103.523C79.8189 104.688 80.764 105.633 81.9294 105.633H91.1218C91.9953 105.633 92.7429 105.102 93.0633 104.346C93.0655 104.341 93.0673 104.336 93.0695 104.331C93.0849 104.294 93.0999 104.257 93.1131 104.219C93.1291 104.174 93.1438 104.128 93.1566 104.082C93.1628 104.06 93.1679 104.037 93.1745 104.014C93.1858 103.969 93.195 103.924 93.2023 103.878C93.2063 103.854 93.2096 103.831 93.2125 103.808C93.2188 103.766 93.2231 103.723 93.2261 103.68C93.2283 103.664 93.2294 103.646 93.2294 103.63C93.2316 103.594 93.2323 103.558 93.2323 103.523V102.95C93.2323 101.068 95.5052 100.127 96.8358 101.457L97.2407 101.862C98.0655 102.687 99.4013 102.687 100.226 101.862L106.725 95.3628C107.55 94.538 107.55 93.2023 106.725 92.3778L106.32 91.9725C104.991 90.6423 105.932 88.3694 107.812 88.3694H108.386C108.421 88.3694 108.457 88.3683 108.493 88.3661C108.51 88.3661 108.527 88.3654 108.543 88.3632C108.586 88.3602 108.629 88.3558 108.671 88.3496C108.694 88.3467 108.717 88.3434 108.741 88.3394C108.787 88.3321 108.832 88.3226 108.877 88.3112C108.9 88.305 108.923 88.2999 108.945 88.2937C108.991 88.2805 109.037 88.2659 109.082 88.2498C109.12 88.2366 109.157 88.2216 109.194 88.2066C109.199 88.2044 109.204 88.2022 109.209 88.2C109.965 87.8792 110.496 87.1316 110.496 86.2585V77.0661C110.496 75.9007 109.551 74.9556 108.386 74.9556ZM79.7688 81.6623C79.7688 77.9304 82.7937 74.9055 86.5256 74.9055C90.2575 74.9055 93.2824 77.9304 93.2824 81.6623C93.2824 85.3942 90.2575 88.4191 86.5256 88.4191C82.7937 88.4191 79.7688 85.3942 79.7688 81.6623Z" fill="#1057CD"/>
<path d="M86.5265 99.0686C96.1396 99.0686 103.932 91.2763 103.932 81.6632C103.932 72.0501 96.1396 64.2578 86.5265 64.2578C86.2317 64.2578 85.9376 64.2651 85.6468 64.2798C76.7338 64.7231 69.5863 71.8705 69.143 80.7835C69.1284 81.0743 69.1211 81.3684 69.1211 81.6632C69.1211 91.2763 76.9134 99.0686 86.5265 99.0686ZM86.5265 88.42C82.7946 88.42 79.7697 85.3951 79.7697 81.6632C79.7697 77.9313 82.7946 74.9064 86.5265 74.9064C90.2584 74.9064 93.2833 77.9313 93.2833 81.6632C93.2833 85.3951 90.2584 88.42 86.5265 88.42Z" fill="#1061E2"/>
<path d="M95.0036 73.6366C95.0036 73.6355 95.0025 73.6355 95.0025 73.6355C94.8705 73.495 94.7344 73.3582 94.5943 73.2251C94.5248 73.1578 94.4528 73.0923 94.3822 73.0268C94.3108 72.9614 94.2381 72.8981 94.1653 72.8337C94.1642 72.8326 94.1642 72.8315 94.1631 72.8315C94.0903 72.7693 94.0168 72.7079 93.9429 72.6468C93.7209 72.4617 93.4912 72.2872 93.2552 72.1212C93.2417 72.1109 93.2274 72.1003 93.2139 72.0919C93.1503 72.0473 93.087 72.0038 93.0237 71.9613C92.9209 71.8915 92.8171 71.8242 92.7121 71.7598C92.6477 71.7192 92.5833 71.6786 92.5179 71.6402C92.437 71.5916 92.3558 71.5447 92.2746 71.4979C92.2593 71.4884 92.2428 71.4793 92.226 71.4709C92.1678 71.4376 92.1097 71.4054 92.0504 71.3743C92.0069 71.3505 91.9634 71.3264 91.9187 71.3048C91.873 71.2799 91.8273 71.2569 91.7816 71.2342C91.7567 71.2207 91.7318 71.2082 91.7059 71.1958C91.6444 71.1643 91.5822 71.1354 91.5208 71.1062C91.4875 71.0897 91.4531 71.0733 91.4191 71.0586C91.365 71.0327 91.3101 71.0078 91.2549 70.9837C91.2278 70.9712 91.2007 70.9599 91.1737 70.9485C91.1137 70.9215 91.0522 70.8955 90.9911 70.8706C90.9557 70.856 90.9206 70.8414 90.8851 70.8278C90.8298 70.8052 90.775 70.7832 90.719 70.7624C90.6909 70.7499 90.6616 70.7397 90.6338 70.7302C90.5694 70.7053 90.505 70.6815 90.4407 70.6588C90.4081 70.646 90.3759 70.6347 90.343 70.6245C90.2713 70.5996 90.1985 70.5747 90.1246 70.5517C90.1184 70.5488 90.1133 70.5477 90.1071 70.5455C90.027 70.5195 89.9451 70.4946 89.8639 70.4697C89.8419 70.4635 89.8192 70.4562 89.7966 70.45C89.7402 70.4332 89.6832 70.4178 89.6261 70.4021C89.5771 70.3885 89.5284 70.3754 89.4787 70.3626C89.4308 70.3501 89.3818 70.3377 89.3331 70.3264C89.2969 70.3161 89.2592 70.3066 89.2219 70.2993C89.1484 70.2806 89.0745 70.2638 89.0006 70.2485C88.9809 70.2444 88.9611 70.2393 88.9407 70.236C88.8843 70.2236 88.8284 70.2122 88.772 70.2016C88.7132 70.1892 88.6539 70.179 88.5946 70.1684C88.5862 70.1662 88.5782 70.1654 88.5698 70.1643C88.4856 70.1486 88.4004 70.1343 88.3163 70.1215C88.2292 70.108 88.1429 70.0956 88.0555 70.0842C87.99 70.0758 87.9238 70.0678 87.8562 70.0605C87.8137 70.0553 87.7709 70.0502 87.7274 70.0458C87.7025 70.0436 87.6777 70.0407 87.6517 70.0396C87.5756 70.0312 87.4988 70.0239 87.422 70.0188C87.125 69.9961 86.8247 69.9844 86.5226 69.9844C80.0745 69.9844 74.8477 75.2112 74.8477 81.6593C74.8477 81.9618 74.859 82.2617 74.882 82.5591C74.8872 82.6359 74.8945 82.7127 74.9029 82.7884C74.9036 82.8144 74.9069 82.8393 74.9091 82.8645C74.9131 82.908 74.9182 82.9504 74.9234 82.9932C74.9307 83.0605 74.9391 83.1271 74.9475 83.1926C74.9588 83.2796 74.9713 83.366 74.9848 83.4534C74.9973 83.5375 75.0119 83.6227 75.0272 83.7069C75.0283 83.7149 75.0294 83.7233 75.0316 83.7317C75.0419 83.791 75.0525 83.8499 75.0649 83.9091C75.0752 83.9655 75.0865 84.0214 75.0989 84.0774C75.1022 84.0982 75.1074 84.118 75.1117 84.1377C75.1271 84.2116 75.1439 84.2851 75.1626 84.359C75.1699 84.3963 75.179 84.4336 75.1893 84.4702C75.201 84.5189 75.2134 84.5679 75.2259 84.6154C75.2383 84.6652 75.2518 84.7142 75.2654 84.7628C75.2811 84.8202 75.2965 84.8773 75.3129 84.9333C75.3191 84.9563 75.3264 84.979 75.3327 85.0009C75.3579 85.0818 75.3828 85.1641 75.4087 85.2438C75.4106 85.25 75.4117 85.2555 75.415 85.2617C75.4376 85.3352 75.4625 85.408 75.4874 85.4797C75.498 85.513 75.5093 85.5452 75.5218 85.5774C75.5448 85.6418 75.5686 85.7061 75.5935 85.7705C75.603 85.7987 75.6132 85.8279 75.6256 85.8557C75.6465 85.9121 75.6684 85.9669 75.6911 86.0222C75.7046 86.0573 75.7193 86.0928 75.7339 86.1279C75.7588 86.1893 75.7848 86.2504 75.8118 86.3107C75.8232 86.3378 75.8345 86.3649 75.8469 86.3919C75.8707 86.4468 75.8959 86.502 75.9219 86.5558C75.9365 86.5902 75.953 86.6246 75.9695 86.6579C75.9987 86.7189 76.0276 86.7815 76.0591 86.8426C76.0715 86.8685 76.0839 86.8934 76.0975 86.9187C76.1202 86.9644 76.1432 87.0097 76.1681 87.0555C76.1897 87.1001 76.2138 87.144 76.2376 87.1875C76.2687 87.2467 76.3008 87.3049 76.3341 87.3631C76.3425 87.3795 76.3517 87.3963 76.3612 87.4117C76.408 87.4929 76.4545 87.5737 76.5035 87.6549C76.5419 87.7204 76.5825 87.7848 76.6231 87.8492C76.7372 88.0339 76.8575 88.2146 76.9845 88.3923C77.1505 88.6279 77.325 88.8576 77.5101 89.08C77.5712 89.1535 77.6326 89.2274 77.6948 89.3002C77.6948 89.3013 77.6959 89.3013 77.697 89.3024C77.7614 89.3751 77.8246 89.4476 77.8901 89.5193C77.9556 89.5898 78.0211 89.6615 78.0884 89.731C78.2215 89.8715 78.3587 90.0076 78.4987 90.1396C78.4987 90.1396 78.4987 90.1403 78.4998 90.1403C80.5917 92.1202 83.4147 93.3346 86.5226 93.3346C92.9707 93.3346 98.1975 88.1078 98.1975 81.6597C98.1975 78.5514 96.9831 75.7284 95.0036 73.6366ZM86.5226 88.4161C82.7907 88.4161 79.7658 85.3912 79.7658 81.6593C79.7658 77.9274 82.7907 74.9025 86.5226 74.9025C90.2545 74.9025 93.2794 77.9274 93.2794 81.6593C93.2794 85.3912 90.2545 88.4161 86.5226 88.4161Z" fill="#FED132"/>
<rect y="76.7793" width="60.7983" height="8.08197" fill="#8AC5FF"/>
<rect x="112.256" y="76.7793" width="7.99367" height="8.08197" fill="#8AC5FF"/>
<path d="M108.386 17.2642H107.812C105.932 17.2642 104.991 14.9913 106.32 13.6607L106.725 13.2558C107.55 12.431 107.55 11.0952 106.725 10.2704L100.226 3.77142C99.4013 2.94662 98.0655 2.94662 97.2407 3.77142L96.8358 4.17633C95.5052 5.50589 93.2323 4.56477 93.2323 2.684V2.11048C93.2327 0.945142 92.2871 0 91.1218 0H81.9294C80.764 0 79.8189 0.945142 79.8189 2.11084V2.684C79.8189 4.56514 77.546 5.50589 76.2154 4.17669L75.8104 3.77142C74.9856 2.94698 73.6499 2.94698 72.8254 3.77142L66.3261 10.2707C65.5013 11.0952 65.5013 12.431 66.3261 13.2558L66.7314 13.661C68.0606 14.9913 67.1195 17.2642 65.2387 17.2642H64.6652C63.4998 17.2642 62.5547 18.2093 62.5547 19.3747V28.5671C62.5547 29.7325 63.4998 30.6776 64.6655 30.6776H65.2387C67.1198 30.6776 68.0609 32.9505 66.7314 34.2811L66.3261 34.686C65.5017 35.5108 65.5017 36.8466 66.3261 37.6714L72.8254 44.1704C73.6502 44.9952 74.986 44.9952 75.8104 44.1704L76.2157 43.7655C77.546 42.4359 79.8189 43.3767 79.8189 45.2578V45.8313C79.8189 46.9967 80.764 47.9418 81.9294 47.9418H91.1218C91.9953 47.9418 92.7429 47.4107 93.0633 46.6547C93.0655 46.6495 93.0673 46.6444 93.0695 46.6393C93.0849 46.6024 93.0999 46.5654 93.1131 46.5274C93.1291 46.4824 93.1438 46.4367 93.1566 46.3902C93.1628 46.3683 93.1679 46.3456 93.1745 46.3226C93.1858 46.2779 93.195 46.2322 93.2023 46.1865C93.2063 46.1627 93.2096 46.1397 93.2125 46.117C93.2188 46.0746 93.2231 46.0318 93.2261 45.9882C93.2283 45.9725 93.2294 45.955 93.2294 45.9385C93.2316 45.903 93.2323 45.8668 93.2323 45.8313V45.2582C93.2323 43.377 95.5052 42.4359 96.8358 43.7655L97.2407 44.1707C98.0655 44.9952 99.4013 44.9952 100.226 44.1707L106.725 37.6714C107.55 36.8466 107.55 35.5108 106.725 34.6864L106.32 34.2811C104.991 32.9508 105.932 30.678 107.812 30.678H108.386C108.421 30.678 108.457 30.6769 108.493 30.6747C108.51 30.6747 108.527 30.6739 108.543 30.6718C108.586 30.6688 108.629 30.6644 108.671 30.6582C108.694 30.6553 108.717 30.652 108.741 30.648C108.787 30.6407 108.832 30.6312 108.877 30.6198C108.9 30.6136 108.923 30.6085 108.945 30.6023C108.991 30.5891 109.037 30.5745 109.082 30.5584C109.12 30.5452 109.157 30.5302 109.194 30.5152C109.199 30.513 109.204 30.5108 109.209 30.5086C109.965 30.1878 110.496 29.4402 110.496 28.5671V19.3747C110.496 18.2093 109.551 17.2642 108.386 17.2642ZM79.7688 23.9709C79.7688 20.239 82.7937 17.2141 86.5256 17.2141C90.2575 17.2141 93.2824 20.239 93.2824 23.9709C93.2824 27.7028 90.2575 30.7277 86.5256 30.7277C82.7937 30.7277 79.7688 27.7028 79.7688 23.9709Z" fill="#1057CD"/>
<path d="M86.5265 41.3772C96.1396 41.3772 103.932 33.5849 103.932 23.9718C103.932 14.3587 96.1396 6.56641 86.5265 6.56641C86.2317 6.56641 85.9376 6.57372 85.6468 6.58835C76.7338 7.03166 69.5863 14.1791 69.143 23.0921C69.1284 23.3829 69.1211 23.677 69.1211 23.9718C69.1211 33.5849 76.9134 41.3772 86.5265 41.3772ZM86.5265 30.7286C82.7946 30.7286 79.7697 27.7037 79.7697 23.9718C79.7697 20.2399 82.7946 17.215 86.5265 17.215C90.2584 17.215 93.2833 20.2399 93.2833 23.9718C93.2833 27.7037 90.2584 30.7286 86.5265 30.7286Z" fill="#1061E2"/>
<path d="M95.0036 15.9471C95.0036 15.946 95.0025 15.946 95.0025 15.946C94.8705 15.8056 94.7344 15.6688 94.5943 15.5356C94.5248 15.4683 94.4528 15.4028 94.3822 15.3374C94.3108 15.2719 94.2381 15.2086 94.1653 15.1442C94.1642 15.1431 94.1642 15.1421 94.1631 15.1421C94.0903 15.0799 94.0168 15.0184 93.9429 14.9573C93.7209 14.7723 93.4912 14.5978 93.2552 14.4317C93.2417 14.4215 93.2274 14.4109 93.2139 14.4025C93.1503 14.3578 93.087 14.3143 93.0237 14.2719C92.9209 14.202 92.8171 14.1347 92.7121 14.0704C92.6477 14.0298 92.5833 13.9892 92.5179 13.9507C92.437 13.9021 92.3558 13.8553 92.2746 13.8085C92.2593 13.799 92.2428 13.7898 92.226 13.7814C92.1678 13.7481 92.1097 13.7159 92.0504 13.6848C92.0069 13.6611 91.9634 13.6369 91.9187 13.6153C91.873 13.5905 91.8273 13.5674 91.7816 13.5447C91.7567 13.5312 91.7318 13.5188 91.7059 13.5063C91.6444 13.4749 91.5822 13.446 91.5208 13.4167C91.4875 13.4003 91.4531 13.3838 91.4191 13.3692C91.365 13.3432 91.3101 13.3183 91.2549 13.2942C91.2278 13.2818 91.2007 13.2704 91.1737 13.2591C91.1137 13.232 91.0522 13.206 90.9911 13.1812C90.9557 13.1665 90.9206 13.1519 90.8851 13.1384C90.8298 13.1157 90.775 13.0938 90.719 13.0729C90.6909 13.0605 90.6616 13.0502 90.6338 13.0407C90.5694 13.0158 90.505 12.9921 90.4407 12.9694C90.4081 12.9566 90.3759 12.9453 90.343 12.935C90.2713 12.9101 90.1985 12.8853 90.1246 12.8622C90.1184 12.8593 90.1133 12.8582 90.1071 12.856C90.027 12.83 89.9451 12.8052 89.8639 12.7803C89.8419 12.7741 89.8192 12.7668 89.7966 12.7605C89.7402 12.7437 89.6832 12.7284 89.6261 12.7126C89.5771 12.6991 89.5284 12.6859 89.4787 12.6731C89.4308 12.6607 89.3818 12.6483 89.3331 12.6369C89.2969 12.6267 89.2592 12.6172 89.2219 12.6098C89.1484 12.5912 89.0745 12.5744 89.0006 12.559C88.9809 12.555 88.9611 12.5499 88.9407 12.5466C88.8843 12.5341 88.8284 12.5228 88.772 12.5122C88.7132 12.4998 88.6539 12.4895 88.5946 12.4789C88.5862 12.4767 88.5782 12.476 88.5698 12.4749C88.4856 12.4592 88.4004 12.4449 88.3163 12.4321C88.2292 12.4186 88.1429 12.4061 88.0555 12.3948C87.99 12.3864 87.9238 12.3783 87.8562 12.371C87.8137 12.3659 87.7709 12.3608 87.7274 12.3564C87.7025 12.3542 87.6777 12.3513 87.6517 12.3502C87.5756 12.3417 87.4988 12.3344 87.422 12.3293C87.125 12.3066 86.8247 12.2949 86.5226 12.2949C80.0745 12.2949 74.8477 17.5217 74.8477 23.9698C74.8477 24.2723 74.859 24.5723 74.882 24.8696C74.8872 24.9464 74.8945 25.0232 74.9029 25.099C74.9036 25.1249 74.9069 25.1498 74.9091 25.175C74.9131 25.2186 74.9182 25.261 74.9234 25.3038C74.9307 25.3711 74.9391 25.4377 74.9475 25.5031C74.9588 25.5902 74.9713 25.6765 74.9848 25.7639C74.9973 25.8481 75.0119 25.9333 75.0272 26.0174C75.0283 26.0254 75.0294 26.0339 75.0316 26.0423C75.0419 26.1015 75.0525 26.1604 75.0649 26.2197C75.0752 26.276 75.0865 26.332 75.0989 26.3879C75.1022 26.4088 75.1074 26.4285 75.1117 26.4483C75.1271 26.5222 75.1439 26.5957 75.1626 26.6696C75.1699 26.7069 75.179 26.7442 75.1893 26.7808C75.201 26.8294 75.2134 26.8784 75.2259 26.926C75.2383 26.9757 75.2518 27.0247 75.2654 27.0734C75.2811 27.1308 75.2965 27.1879 75.3129 27.2438C75.3191 27.2669 75.3264 27.2895 75.3327 27.3115C75.3579 27.3923 75.3828 27.4746 75.4087 27.5544C75.4106 27.5606 75.4117 27.5661 75.415 27.5723C75.4376 27.6458 75.4625 27.7186 75.4874 27.7903C75.498 27.8236 75.5093 27.8557 75.5218 27.8879C75.5448 27.9523 75.5686 28.0167 75.5935 28.0811C75.603 28.1092 75.6132 28.1385 75.6256 28.1663C75.6465 28.2226 75.6684 28.2775 75.6911 28.3327C75.7046 28.3678 75.7193 28.4033 75.7339 28.4384C75.7588 28.4999 75.7848 28.5609 75.8118 28.6213C75.8232 28.6484 75.8345 28.6754 75.8469 28.7025C75.8707 28.7574 75.8959 28.8126 75.9219 28.8664C75.9365 28.9007 75.953 28.9351 75.9695 28.9684C75.9987 29.0295 76.0276 29.092 76.0591 29.1531C76.0715 29.1791 76.0839 29.204 76.0975 29.2292C76.1202 29.2749 76.1432 29.3203 76.1681 29.366C76.1897 29.4106 76.2138 29.4545 76.2376 29.498C76.2687 29.5573 76.3008 29.6154 76.3341 29.6736C76.3425 29.6901 76.3517 29.7069 76.3612 29.7223C76.408 29.8035 76.4545 29.8843 76.5035 29.9655C76.5419 30.031 76.5825 30.0953 76.6231 30.1597C76.7372 30.3444 76.8575 30.5251 76.9845 30.7029C77.1505 30.9384 77.325 31.1681 77.5101 31.3905C77.5712 31.464 77.6326 31.5379 77.6948 31.6107C77.6948 31.6118 77.6959 31.6118 77.697 31.6129C77.7614 31.6857 77.8246 31.7581 77.8901 31.8298C77.9556 31.9004 78.0211 31.9721 78.0884 32.0416C78.2215 32.182 78.3587 32.3181 78.4987 32.4501C78.4987 32.4501 78.4987 32.4509 78.4998 32.4509C80.5917 34.4308 83.4147 35.6451 86.5226 35.6451C92.9707 35.6451 98.1975 30.4183 98.1975 23.9702C98.1975 20.8619 96.9831 18.0389 95.0036 15.9471ZM86.5226 30.7267C82.7907 30.7267 79.7658 27.7018 79.7658 23.9698C79.7658 20.2379 82.7907 17.213 86.5226 17.213C90.2545 17.213 93.2794 20.2379 93.2794 23.9698C93.2794 27.7018 90.2545 30.7267 86.5226 30.7267Z" fill="#FED132"/>
<rect y="19.0898" width="60.7983" height="8.08197" fill="#8AC5FF"/>
<rect x="112.256" y="19.0898" width="7.99367" height="8.08197" fill="#8AC5FF"/>
<path d="M11.864 59.5249L12.4375 59.5249C14.3183 59.5249 15.2594 61.7977 13.9302 63.1284L13.5249 63.5333C12.7001 64.3581 12.7001 65.6939 13.5249 66.5187L20.0242 73.0176C20.8487 73.8424 22.1845 73.8424 23.0093 73.0176L23.4142 72.6127C24.7448 71.2832 27.0177 72.2243 27.0177 74.1051L27.0177 74.6786C27.0173 75.8439 27.9629 76.7891 29.1282 76.7891L38.3206 76.7891C39.486 76.7891 40.4311 75.8439 40.4311 74.6782L40.4311 74.1051C40.4311 72.2239 42.704 71.2832 44.0346 72.6124L44.4396 73.0176C45.2644 73.8421 46.6001 73.8421 47.4246 73.0176L53.9239 66.5183C54.7487 65.6939 54.7487 64.3581 53.9239 63.5333L53.5186 63.128C52.1894 61.7977 53.1305 59.5249 55.0113 59.5249L55.5848 59.5249C56.7502 59.5249 57.6953 58.5797 57.6953 57.4144L57.6953 48.2219C57.6953 47.0566 56.7502 46.1115 55.5845 46.1115L55.0113 46.1115C53.1302 46.1115 52.1891 43.8386 53.5186 42.5079L53.9239 42.103C54.7483 41.2782 54.7483 39.9424 53.9239 39.1176L47.4246 32.6187C46.5998 31.7939 45.264 31.7939 44.4395 32.6187L44.0343 33.0236C42.704 34.3532 40.4311 33.4124 40.4311 31.5313L40.4311 30.9577C40.4311 29.7924 39.486 28.8473 38.3206 28.8473L29.1282 28.8473C28.2547 28.8473 27.5071 29.3784 27.1867 30.1344C27.1845 30.1395 27.1827 30.1446 27.1805 30.1498C27.1651 30.1867 27.1501 30.2236 27.1369 30.2617C27.1209 30.3067 27.1062 30.3524 27.0934 30.3988C27.0872 30.4208 27.0821 30.4435 27.0755 30.4665C27.0642 30.5111 27.055 30.5569 27.0477 30.6026C27.0437 30.6264 27.0404 30.6494 27.0375 30.6721C27.0312 30.7145 27.0268 30.7573 27.0239 30.8008C27.0217 30.8166 27.0206 30.8341 27.0206 30.8506C27.0184 30.886 27.0177 30.9223 27.0177 30.9577L27.0177 31.5309C27.0177 33.412 24.7448 34.3532 23.4142 33.0236L23.0093 32.6183C22.1845 31.7939 20.8487 31.7939 20.0242 32.6183L13.5249 39.1176C12.7001 39.9424 12.7001 41.2782 13.5249 42.1027L13.9302 42.5079C15.2594 43.8382 14.3183 46.1111 12.4375 46.1111L11.864 46.1111C11.8289 46.1111 11.7927 46.1122 11.7572 46.1144C11.7404 46.1144 11.7228 46.1151 11.7074 46.1173C11.6635 46.1202 11.6211 46.1246 11.5787 46.1308C11.5556 46.1338 11.533 46.1371 11.5088 46.1411C11.4635 46.1484 11.4177 46.1579 11.3731 46.1693C11.3501 46.1755 11.3274 46.1806 11.3055 46.1868C11.259 46.2 11.2133 46.2146 11.1683 46.2307C11.1303 46.2439 11.0933 46.2589 11.0564 46.2739C11.0512 46.2761 11.0458 46.2783 11.041 46.2804C10.2846 46.6012 9.75351 47.3489 9.75351 48.2219L9.75351 57.4144C9.75351 58.5797 10.6986 59.5249 11.864 59.5249ZM40.4812 52.8182C40.4812 56.5501 37.4563 59.575 33.7244 59.575C29.9925 59.575 26.9676 56.5501 26.9676 52.8182C26.9676 49.0862 29.9925 46.0614 33.7244 46.0614C37.4563 46.0613 40.4812 49.0862 40.4812 52.8182Z" fill="#1057CD"/>
<path d="M33.7235 35.4099C24.1104 35.4099 16.3181 43.2022 16.3181 52.8153C16.3181 62.4284 24.1104 70.2207 33.7235 70.2207C34.0183 70.2207 34.3124 70.2134 34.6032 70.1988C43.5162 69.7554 50.6636 62.608 51.107 53.695C51.1216 53.4042 51.1289 53.1101 51.1289 52.8153C51.1289 43.2022 43.3366 35.4099 33.7235 35.4099ZM33.7235 46.0585C37.4554 46.0585 40.4803 49.0834 40.4803 52.8153C40.4803 56.5472 37.4554 59.5721 33.7235 59.5721C29.9916 59.5721 26.9667 56.5472 26.9667 52.8153C26.9667 49.0834 29.9916 46.0585 33.7235 46.0585Z" fill="#1061E2"/>
<path d="M25.2464 60.842C25.2464 60.8431 25.2475 60.8431 25.2475 60.8431C25.3795 60.9835 25.5156 61.1203 25.6557 61.2534C25.7252 61.3207 25.7972 61.3862 25.8678 61.4517C25.9392 61.5172 26.0119 61.5804 26.0847 61.6448C26.0858 61.6459 26.0858 61.647 26.0869 61.647C26.1597 61.7092 26.2332 61.7706 26.3071 61.8317C26.5291 62.0168 26.7588 62.1913 26.9948 62.3573C27.0083 62.3676 27.0226 62.3782 27.0361 62.3866C27.0997 62.4312 27.163 62.4747 27.2263 62.5172C27.3291 62.587 27.4329 62.6543 27.5379 62.7187C27.6023 62.7593 27.6667 62.7999 27.7321 62.8383C27.813 62.887 27.8942 62.9338 27.9754 62.9806C27.9907 62.9901 28.0072 62.9993 28.024 63.0077C28.0822 63.0409 28.1403 63.0731 28.1996 63.1042C28.2431 63.128 28.2866 63.1521 28.3313 63.1737C28.377 63.1986 28.4227 63.2216 28.4684 63.2443C28.4933 63.2578 28.5182 63.2703 28.5441 63.2827C28.6056 63.3142 28.6678 63.3431 28.7292 63.3723C28.7625 63.3888 28.7969 63.4053 28.8309 63.4199C28.885 63.4459 28.9399 63.4707 28.9951 63.4949C29.0222 63.5073 29.0493 63.5186 29.0763 63.53C29.1363 63.557 29.1978 63.583 29.2589 63.6079C29.2943 63.6225 29.3294 63.6372 29.3649 63.6507C29.4202 63.6734 29.475 63.6953 29.531 63.7162C29.5591 63.7286 29.5884 63.7388 29.6162 63.7483C29.6806 63.7732 29.745 63.797 29.8093 63.8197C29.8419 63.8325 29.8741 63.8438 29.907 63.854C29.9787 63.8789 30.0515 63.9038 30.1254 63.9268C30.1316 63.9298 30.1367 63.9309 30.1429 63.9331C30.223 63.959 30.3049 63.9839 30.3861 64.0088C30.4081 64.015 30.4308 64.0223 30.4534 64.0285C30.5098 64.0453 30.5668 64.0607 30.6239 64.0764C30.6729 64.09 30.7216 64.1031 30.7713 64.1159C30.8192 64.1284 30.8682 64.1408 30.9169 64.1521C30.9531 64.1624 30.9908 64.1719 31.0281 64.1792C31.1016 64.1979 31.1755 64.2147 31.2494 64.2301C31.2691 64.2341 31.2889 64.2392 31.3093 64.2425C31.3657 64.2549 31.4216 64.2663 31.478 64.2769C31.5368 64.2893 31.5961 64.2996 31.6554 64.3102C31.6638 64.3124 31.6718 64.3131 31.6802 64.3142C31.7644 64.3299 31.8496 64.3442 31.9337 64.357C32.0208 64.3705 32.1071 64.3829 32.1945 64.3943C32.26 64.4027 32.3262 64.4107 32.3938 64.4181C32.4363 64.4232 32.4791 64.4283 32.5226 64.4327C32.5475 64.4349 32.5723 64.4378 32.5983 64.4389C32.6744 64.4473 32.7512 64.4546 32.828 64.4598C33.125 64.4824 33.4253 64.4941 33.7274 64.4941C40.1755 64.4941 45.4023 59.2673 45.4023 52.8192C45.4023 52.5167 45.391 52.2168 45.368 51.9194C45.3628 51.8426 45.3555 51.7658 45.3471 51.6901C45.3464 51.6641 45.3431 51.6393 45.3409 51.614C45.3369 51.5705 45.3317 51.5281 45.3266 51.4853C45.3193 51.418 45.3109 51.3514 45.3025 51.2859C45.2911 51.1989 45.2787 51.1126 45.2652 51.0251C45.2527 50.941 45.2381 50.8558 45.2228 50.7717C45.2217 50.7636 45.2206 50.7552 45.2184 50.7468C45.2081 50.6875 45.1975 50.6286 45.1851 50.5694C45.1748 50.5131 45.1635 50.4571 45.1511 50.4011C45.1478 50.3803 45.1426 50.3605 45.1383 50.3408C45.1229 50.2669 45.1061 50.1934 45.0874 50.1195C45.0801 50.0822 45.071 50.0449 45.0607 50.0083C45.049 49.9597 45.0366 49.9106 45.0241 49.8631C45.0117 49.8134 44.9982 49.7643 44.9846 49.7157C44.9689 49.6583 44.9535 49.6012 44.9371 49.5452C44.9309 49.5222 44.9236 49.4995 44.9173 49.4776C44.8921 49.3967 44.8672 49.3144 44.8413 49.2347C44.8394 49.2285 44.8383 49.223 44.835 49.2168C44.8124 49.1433 44.7875 49.0705 44.7626 48.9988C44.752 48.9655 44.7407 48.9333 44.7282 48.9011C44.7052 48.8368 44.6814 48.7724 44.6565 48.708C44.647 48.6798 44.6368 48.6506 44.6244 48.6228C44.6035 48.5665 44.5816 48.5116 44.5589 48.4564C44.5454 48.4212 44.5307 48.3858 44.5161 48.3507C44.4912 48.2892 44.4652 48.2281 44.4382 48.1678C44.4268 48.1407 44.4155 48.1136 44.4031 48.0866C44.3793 48.0317 44.3541 47.9765 44.3281 47.9227C44.3135 47.8883 44.297 47.8539 44.2805 47.8207C44.2513 47.7596 44.2224 47.697 44.1909 47.6359C44.1785 47.61 44.166 47.5851 44.1525 47.5599C44.1298 47.5141 44.1068 47.4688 44.0819 47.4231C44.0603 47.3784 44.0362 47.3345 44.0124 47.291C43.9813 47.2318 43.9491 47.1736 43.9159 47.1155C43.9075 47.099 43.8983 47.0822 43.8888 47.0668C43.842 46.9856 43.7955 46.9048 43.7465 46.8236C43.7081 46.7581 43.6675 46.6937 43.6269 46.6294C43.5128 46.4446 43.3925 46.264 43.2655 46.0862C43.0995 45.8506 42.925 45.6209 42.7399 45.3985C42.6788 45.325 42.6174 45.2511 42.5552 45.1784C42.5552 45.1773 42.5541 45.1773 42.553 45.1762C42.4886 45.1034 42.4254 45.0309 42.3599 44.9593C42.2944 44.8887 42.2289 44.817 42.1616 44.7475C42.0285 44.607 41.8913 44.471 41.7513 44.3389C41.7513 44.3389 41.7513 44.3382 41.7502 44.3382C39.6583 42.3583 36.8353 41.1439 33.7274 41.1439C27.2793 41.1439 22.0525 46.3708 22.0525 52.8189C22.0525 55.9271 23.2669 58.7501 25.2464 60.842ZM33.7274 46.0624C37.4593 46.0624 40.4842 49.0873 40.4842 52.8192C40.4842 56.5511 37.4593 59.576 33.7274 59.576C29.9955 59.576 26.9706 56.5511 26.9706 52.8192C26.9706 49.0873 29.9955 46.0624 33.7274 46.0624Z" fill="#FED132"/>
<rect x="120.25" y="57.6992" width="60.7983" height="8.08197" transform="rotate(180 120.25 57.6992)" fill="#8AC5FF"/>
<rect x="7.99414" y="57.6992" width="7.99367" height="8.08197" transform="rotate(180 7.99414 57.6992)" fill="#8AC5FF"/>
</svg>
