<svg width="146" height="21" viewBox="0 0 146 21" fill="none" xmlns="http://www.w3.org/2000/svg">
<path d="M70.8775 5.24342C72.3632 6.17821 73.2732 7.69436 73.7396 8.69281C74.2251 9.73174 74.492 10.3624 74.7247 10.6759C74.9973 11.2671 76.4421 11.755 78.2457 11.6369C78.343 11.6322 78.4422 11.6253 78.5431 11.6161C82.8683 11.119 87.3522 7.9522 91.9506 5.59017C95.9778 3.69818 99.2998 1.03058 105.393 0.536589C106.444 0.578794 107.592 0.643956 108.968 1.28597C110.602 1.98571 111.688 3.88326 111.95 5.04587C112.285 6.27439 112.373 7.24911 112.515 8.17999C112.771 10.0221 113.126 11.6634 113.781 13.2624C114.28 14.4841 114.796 15.5878 115.431 16.3399C117.561 19.2378 123.734 16.997 128.18 15.1028C131.411 13.7012 134.547 12.0868 137.677 10.3812C139.034 9.64174 140.416 8.86352 141.751 8.09997C142.794 7.49946 143.75 6.94663 144.778 6.33853C144.92 6.2547 145.072 6.19629 145.201 6.17805C145.33 6.15989 145.426 6.183 145.467 6.2452C145.508 6.30744 145.492 6.40492 145.425 6.51712C145.358 6.62915 145.245 6.74656 145.112 6.84485C144.141 7.56109 143.24 8.22407 142.252 8.93411C141.208 9.68815 140.106 10.4675 139.057 11.1974C138.731 11.0396 138.356 10.9989 137.846 11.1922C137.585 11.291 137.238 11.4774 137.024 11.6742C136.831 11.851 136.715 12.0278 136.605 12.1954C136.49 12.3702 136.363 12.5474 136.171 12.697C135.844 12.9525 135.579 13.2603 135.305 13.5793C135.205 13.6954 135.104 13.813 134.998 13.9299C133.917 14.6301 132.873 15.2891 131.79 15.9418C131.368 16.1321 130.929 16.3335 130.601 16.5182C130.302 16.6859 130.058 16.8831 129.826 17.0905C129.652 17.1887 129.473 17.2887 129.299 17.3851C128.199 17.9952 127.07 18.5835 125.883 19.1336C124.92 19.4363 123.898 19.7472 122.545 20.1032C121.971 20.2527 121.347 20.359 120.79 20.4215C119.901 20.5268 119.112 20.5485 118.344 20.589C117.857 20.6159 117.315 20.5324 116.777 20.3828C116.071 20.1876 115.397 19.8772 114.751 19.6384C114.343 19.4898 113.963 19.3239 113.626 19.1469C113.088 18.8641 112.649 18.5487 112.36 18.1988C111.817 17.5366 111.381 16.9818 111.016 16.4955C110.586 15.9156 110.266 15.4342 110.134 14.9455C110.131 14.9366 110.129 14.9276 110.127 14.9187C110.105 14.8386 110.084 14.7463 110.061 14.643C109.946 14.1013 109.777 13.247 109.329 12.0989C109.171 11.692 108.977 11.3212 108.795 10.9511C108.531 10.4192 108.292 9.88764 108.238 9.30173C108.23 9.21397 108.248 9.12125 108.265 9.03333C108.286 8.92149 108.305 8.82601 108.265 8.7792C108.147 8.64488 108.003 8.41262 107.849 8.1806C107.735 8.00263 107.616 7.83052 107.494 7.67174C107.345 7.02439 107.17 6.4474 107.018 6.18918C106.841 5.91907 106.911 6.06267 106.782 6.00264C106.658 5.96212 106.277 5.89115 105.807 5.89034C105.685 5.80983 105.55 5.73604 105.393 5.67251C105.313 5.61785 105.215 5.57175 105.101 5.53808C104.794 5.44088 104.303 5.48266 103.643 5.62825C103.154 5.7354 102.554 5.90311 101.835 6.10914C100.493 6.49319 99.1646 7.20682 98.3587 7.71959C98.1836 7.83057 98.0171 7.93918 97.8322 8.06004C97.1323 8.51764 96.2658 9.09671 94.5607 10.1531C92.9447 11.1543 91.5118 11.9536 90.4158 12.5375C89.856 12.8366 89.3876 13.0794 89.0272 13.2741C88.4131 13.6063 87.6487 13.9971 86.8545 14.3744C85.6198 14.9663 84.3092 15.5014 83.5506 15.8028C83.2804 15.9117 82.9901 16.0274 82.6792 16.1441C81.7993 16.4637 80.7264 16.8568 79.0234 17.0714C78.8669 17.0899 78.7152 17.1048 78.568 17.1165C77.1279 17.2266 76.0848 17.1431 74.9495 16.8697C74.4501 16.7447 74.0108 16.5088 73.566 16.2192C72.9499 15.8063 72.3269 15.3226 71.4855 14.6771C71.293 14.5281 71.079 14.3618 70.8759 14.1853C70.4964 13.856 70.1362 13.4683 69.899 13.045C69.8162 12.8975 69.7699 12.7581 69.7285 12.6249C69.6831 12.4783 69.6436 12.3386 69.5719 12.2021C69.3053 11.6914 69.0918 11.2704 68.9115 10.9596C68.6803 10.5557 68.5112 10.3345 68.4315 10.1914C68.2868 9.9326 68.0679 9.7964 67.8148 9.6999C67.6271 9.62775 67.4224 9.57573 67.1824 9.50117C67.164 9.49555 67.1459 9.48992 67.1279 9.48428C66.6492 9.3326 66.0849 9.22252 65.6187 9.23926C65.1376 9.26142 64.8686 9.36065 64.3568 9.65573C63.9691 9.88226 63.4705 10.0798 62.7423 10.3516C62.2869 10.5203 61.7372 10.7207 61.0384 10.9527C60.6456 11.0823 60.3365 11.2618 60.0405 11.4224C59.7748 11.568 59.5168 11.6984 59.2327 11.7466C58.9756 11.7904 58.8056 11.7203 58.6332 11.6559C58.4389 11.5842 58.2764 11.5112 58.0275 11.5849C57.8923 11.6245 57.7466 11.709 57.5648 11.8077C57.4929 11.8467 57.4149 11.8879 57.3308 11.9293C57.3317 11.9068 57.3295 11.8872 57.3271 11.8725C57.322 11.8423 57.2956 11.82 57.2542 11.8033C57.1533 11.7623 56.9628 11.752 56.7651 11.7376C56.6553 11.7295 56.5372 11.7212 56.4485 11.706C56.176 11.6462 55.5606 11.6804 55.182 11.7051C55.0081 11.7169 54.844 11.6927 54.647 11.6636C54.4825 11.6372 54.3133 11.6061 54.0792 11.5922C53.9465 11.5843 53.8417 11.557 53.7545 11.5342C53.6914 11.5177 53.6372 11.5035 53.587 11.5008C53.5442 11.4984 53.5067 11.5297 53.4738 11.5646C53.4487 11.5898 53.4214 11.617 53.3872 11.6353C53.3056 11.6788 53.1982 11.6938 53.1215 11.6822C53.0862 11.6769 53.0579 11.6657 53.0299 11.6546C52.9972 11.6417 52.9646 11.6286 52.9197 11.6247C52.7138 11.6069 52.5097 11.6448 52.2937 11.6836C52.076 11.726 51.8441 11.7694 51.5789 11.741C51.4954 11.7321 51.4058 11.7107 51.3184 11.6898C51.227 11.668 51.1374 11.6468 51.0609 11.6414C50.7603 11.6192 50.4917 11.6948 50.2299 11.7639C50.0571 11.8098 49.8918 11.8527 49.7371 11.8621C49.448 11.8791 49.3167 11.9687 49.2052 12.0348C49.1491 12.069 49.1032 12.0972 49.0551 12.1054C49.011 12.1026 48.9662 12.0993 48.9223 12.0957C48.882 12.0887 48.8403 12.0815 48.801 12.0833C48.798 12.0835 48.795 12.0838 48.7921 12.084C48.545 12.06 48.2987 12.0264 48.0519 11.9925C47.5261 11.9168 46.9898 11.8401 46.4167 11.8692C46.2975 11.8755 46.175 11.9107 46.0497 11.9464C45.8962 11.9901 45.7382 12.0347 45.5773 12.0281C45.1952 12.0125 44.7968 11.9424 44.4276 11.8733C43.8663 11.7694 43.2911 11.666 42.7846 11.7507C42.6159 11.7786 42.4499 11.828 42.2829 11.8777C42.1898 11.9055 42.096 11.9334 42.0013 11.9575C42.0226 11.9085 42.0344 11.8624 42.0455 11.8193C42.0683 11.7306 42.088 11.6547 42.1798 11.5923C42.3967 11.4447 42.6415 11.2399 42.619 11.0851C42.6129 11.0432 42.62 10.9968 42.6276 10.9501C42.6466 10.8329 42.6662 10.7133 42.4715 10.6537C42.3403 10.6136 42.0014 10.5203 41.7802 10.6041C41.7321 10.6223 41.702 10.6604 41.6685 10.7026C41.6085 10.7785 41.536 10.8684 41.3285 10.8838C41.2941 10.8864 41.2567 10.8886 41.2181 10.8905C41.0641 10.8981 40.8909 10.9063 40.8243 10.9667C40.7477 11.0363 40.7612 11.119 40.7769 11.2155C40.7973 11.3411 40.8218 11.4903 40.6556 11.6643C40.6227 11.6987 40.5615 11.709 40.5152 11.7168C40.4826 11.7223 40.4576 11.7267 40.4548 11.7372C40.4517 11.7494 40.4612 11.7751 40.4735 11.8077C40.5165 11.9225 40.5917 12.1232 40.2535 12.1214C40.1619 12.1208 40.0574 12.1082 39.9635 12.0968C39.8252 12.0799 39.71 12.0659 39.6935 12.0979C39.6873 12.11 39.6828 12.1232 39.6789 12.1369C39.568 12.1296 39.458 12.1222 39.3493 12.1148C39.2106 12.0717 39.0138 12.0688 38.7671 12.0651C38.7072 12.0641 38.6441 12.0631 38.5785 12.0615C38.362 12.0464 38.1449 12.0312 37.9274 12.0157C37.7549 11.9935 37.573 11.9606 37.3825 11.9117C37.0002 11.8136 36.6688 11.6617 36.3446 11.5131C36.208 11.4505 36.0725 11.3883 35.9349 11.331C35.9895 11.3265 36.0388 11.3207 36.0769 11.3116C36.3377 11.2492 36.4461 11.112 36.5458 10.9858C36.6121 10.9018 36.6747 10.8226 36.7753 10.7736C36.9594 10.6838 36.9451 10.5708 36.9347 10.4873C36.9293 10.4439 36.9253 10.4085 36.9501 10.3883C36.9701 10.3722 37.0151 10.3658 37.0615 10.3593C37.102 10.3535 37.1438 10.3475 37.1709 10.3349C37.4989 10.1815 37.4051 10.0826 37.2691 9.93883C37.194 9.85952 37.1063 9.76643 37.0688 9.64295C37.0374 9.5125 37.0509 9.47514 37.2215 9.4295C37.0921 9.36115 36.9627 9.29277 36.8331 9.22436C36.7812 9.2267 36.7406 9.26523 36.6832 9.32958C36.5806 9.44452 36.258 9.47647 36.0053 9.50128C35.8881 9.51277 35.7873 9.52285 35.7296 9.53895C35.4237 9.62457 35.5067 9.76216 35.58 9.88325C35.6203 9.9499 35.6574 10.0116 35.6251 10.0568C35.6114 10.0762 35.6293 10.0965 35.6474 10.1172C35.6614 10.1333 35.6757 10.1496 35.6757 10.1658C35.6755 10.2837 35.4933 10.3647 35.324 10.4399C35.2271 10.4829 35.1346 10.5242 35.0826 10.5693C35.0668 10.5831 35.0541 10.5973 35.0422 10.611C35.0247 10.6311 35.0078 10.6503 34.9817 10.6662C34.9224 10.7026 34.8021 10.7242 34.6701 10.7477C34.6025 10.7597 34.5319 10.7723 34.4649 10.7877C34.3782 10.8076 34.3455 10.853 34.311 10.9005C34.2867 10.934 34.2611 10.9685 34.2156 10.996C34.1332 11.0458 33.9696 11.0588 33.8184 11.0708C33.7525 11.076 33.6887 11.0813 33.6348 11.0891C33.6129 11.0923 33.6021 11.0999 33.5994 11.1108C33.3506 11.1383 33.1129 11.167 32.8816 11.1951C31.7216 11.3358 30.7205 11.457 29.231 11.2805C28.9503 11.2471 28.6486 11.2393 28.3444 11.2445C27.3604 11.1581 26.3936 11.0704 25.4144 10.9807C25.2259 10.8666 24.9955 10.7677 24.7206 10.6862C24.1934 10.5327 23.652 10.4821 23.025 10.4228C22.547 10.3783 22.0195 10.329 21.4213 10.2303C20.3881 10.0633 19.332 9.9148 18.1626 9.81374C16.9518 9.71122 15.6442 9.62162 14.6557 9.57352C14.1584 9.54859 13.5684 9.43437 13.0887 9.33196C12.3512 9.18583 11.7198 9.06029 11.3264 9.21561C11.2051 9.26527 11.0944 9.35333 10.9614 9.43889C10.8719 9.49989 10.787 9.55968 10.707 9.60424C10.5966 9.59612 10.4916 9.58844 10.3926 9.58115C10.2897 9.57446 10.1877 9.56821 10.0866 9.56235C9.7108 9.45751 9.11784 9.3561 8.55854 9.50918C8.3401 9.50685 8.12138 9.50707 7.90899 9.50906C7.45039 9.51435 6.995 9.53017 6.54101 9.55833C6.39424 9.56718 6.2422 9.57813 6.09299 9.59012C6.09157 9.59021 6.09016 9.5903 6.08874 9.5904C5.787 9.61475 5.48209 9.64562 5.18537 9.68161C5.05559 9.6976 4.9331 9.71331 4.80271 9.73199C4.48155 9.77728 4.15461 9.83239 3.83815 9.89475C3.67298 9.92702 3.50289 9.96354 3.33388 10.0029C3.06218 10.0661 2.78947 10.1379 2.52149 10.2195C2.08887 10.3522 1.66544 10.5051 1.27977 10.7089C1.21985 10.7404 1.15285 10.7651 1.09805 10.772C1.04162 10.78 1.00116 10.7692 0.978966 10.7418C0.957222 10.7143 0.955813 10.6709 0.983748 10.6165C1.00968 10.5635 1.06282 10.5054 1.12148 10.4612C1.50065 10.1811 1.91492 9.95908 2.34356 9.75603C2.60867 9.6313 2.87979 9.51624 3.15097 9.41054C3.31975 9.34487 3.49 9.28251 3.65573 9.22419C3.9732 9.11287 4.30379 9.00882 4.62889 8.91534C4.76111 8.87759 4.88503 8.84294 5.01698 8.80792C5.31898 8.72729 5.631 8.65211 5.94024 8.58393C5.9421 8.58352 5.94396 8.58312 5.94582 8.58271C6.0975 8.54925 6.25205 8.51691 6.40162 8.48676C6.86746 8.39355 7.33718 8.31344 7.81166 8.24504C8.05754 8.20889 8.31967 8.17526 8.57174 8.14534C8.71348 8.12857 8.85996 8.11255 8.99719 8.09796C9.07325 8.09007 9.15092 8.08242 9.22959 8.075C9.61681 8.03763 10.0012 8.00728 10.3926 7.98338C11.7608 7.90062 13.1618 7.8637 14.5554 7.82828C16.3245 7.78498 18.0975 7.75623 19.8691 7.73271C21.6325 7.70906 23.3928 7.69151 25.1646 7.67744C35.6146 7.50615 46.8279 7.8678 56.4444 6.945C56.9654 6.84125 57.4633 6.71512 57.9404 6.5627C59.2335 6.16603 60.0977 5.59295 61.9253 4.64986C63.9147 3.52964 66.9584 3.69092 68.6884 4.2684C68.7079 4.27392 68.7275 4.27949 68.7472 4.28512C69.4357 4.48376 70.1675 4.78373 70.8775 5.24342Z" fill="#FED132"/>
</svg>
