<svg width="129" height="110" viewBox="0 0 129 110" fill="none" xmlns="http://www.w3.org/2000/svg">
<path d="M123.492 109.377H79.7734C78.6171 109.377 77.6797 108.44 77.6797 107.283V65.1544C77.6797 62.0725 80.1779 59.5742 83.2599 59.5742H122.458C125.54 59.5742 128.039 62.0725 128.039 65.1544V104.83C128.039 107.342 126.003 109.377 123.492 109.377Z" fill="#FED132"/>
<path d="M79.7734 109.378H123.492C126.003 109.378 128.039 107.342 128.039 104.831V68.8466L123.691 64.4987C122.981 63.7062 121.95 63.207 120.802 63.207H78.0299C77.804 63.8134 77.6797 64.4695 77.6797 65.1548V107.284C77.6797 108.44 78.6171 109.378 79.7734 109.378Z" fill="url(#paint0_linear_1_1526)"/>
<path d="M80.0426 63.6484C80.8124 66.0646 83.0571 67.7049 85.5931 67.7049H101.054C100.849 67.7049 100.647 67.6934 100.447 67.6722L94.1701 61.3997C93.0949 60.2716 91.5848 59.5918 89.9531 59.5918H83.3726C81.5939 59.5918 80.0018 60.3903 78.9336 61.6473C79.4217 62.2224 79.8036 62.8976 80.0426 63.6484Z" fill="url(#paint1_linear_1_1526)"/>
<path d="M120.803 109.376H69.856C67.7145 109.376 65.9785 107.64 65.9785 105.499V67.0825C65.9785 64.941 67.7145 63.2051 69.856 63.2051H120.803C122.945 63.2051 124.681 64.941 124.681 67.0825V105.499C124.681 107.64 122.945 109.376 120.803 109.376Z" fill="url(#paint2_linear_1_1526)"/>
<path d="M119.285 69.5326C118.223 68.408 116.719 67.7051 115.05 67.7051H65.9785V105.5C65.9785 107.641 67.7145 109.377 69.856 109.377H120.803C122.945 109.377 124.681 107.641 124.681 105.5V74.9286L119.285 69.5326Z" fill="url(#paint3_linear_1_1526)"/>
<path d="M80.0434 63.6474C80.8132 66.0636 83.0579 67.7039 85.5939 67.7039H101.054C100.85 67.7039 100.648 67.6924 100.447 67.6712L95.9788 63.2051H79.8809C79.9402 63.35 79.9956 63.4964 80.0434 63.6474Z" fill="url(#paint4_linear_1_1526)"/>
<path d="M101.545 69.1737V67.7049H101.055C98.5195 67.7049 96.2749 66.0646 95.505 63.6484C94.7352 61.2321 92.4905 59.5918 89.9545 59.5918H83.374C80.1573 59.5918 77.5488 62.1997 77.5488 65.417V69.1737H101.545Z" fill="#EFBA00"/>
<path d="M80.0436 63.6484C79.2737 61.2321 77.0291 59.5918 74.4936 59.5918H67.9131C64.6958 59.5918 62.0879 62.1997 62.0879 65.417V103.624C62.0879 106.801 64.6636 109.377 67.8407 109.377H122.465C121.587 109.377 120.875 108.665 120.875 107.787V73.5302C120.875 70.3134 118.267 67.7049 115.05 67.7049H85.5941C83.0581 67.7049 80.8134 66.0646 80.0436 63.6484Z" fill="#FED132"/>
<path d="M61.4314 49.9533H17.7128C16.5565 49.9533 15.6191 49.0159 15.6191 47.8596V5.73056C15.6191 2.64864 18.1174 0.150391 21.1993 0.150391H60.3979C63.4798 0.150391 65.9781 2.64864 65.9781 5.73056V45.4067C65.9781 47.918 63.9427 49.9533 61.4314 49.9533Z" fill="#1057CD"/>
<path d="M17.7128 49.9537H61.4314C63.9427 49.9537 65.9781 47.9179 65.9781 45.4071V9.42275L61.6302 5.07484C60.9202 4.28235 59.8892 3.7832 58.7415 3.7832H15.9693C15.7434 4.38952 15.6191 5.04566 15.6191 5.73098V47.86C15.6191 49.0163 16.5565 49.9537 17.7128 49.9537Z" fill="#0145B6"/>
<path d="M58.7425 49.9523H7.79541C5.65391 49.9523 3.91797 48.2163 3.91797 46.0748V7.65869C3.91797 5.51719 5.65391 3.78125 7.79541 3.78125H58.7425C60.884 3.78125 62.62 5.51719 62.62 7.65869V46.0748C62.62 48.2163 60.884 49.9523 58.7425 49.9523Z" fill="url(#paint5_linear_1_1526)"/>
<path d="M57.224 10.1088C56.1623 8.98418 54.6583 8.28125 52.9893 8.28125H3.91797V46.076C3.91797 48.2175 5.65391 49.9534 7.79541 49.9534H58.7425C60.884 49.9534 62.62 48.2175 62.62 46.076V15.5048L57.224 10.1088Z" fill="url(#paint6_linear_1_1526)"/>
<path d="M39.4821 9.74987V8.28111H38.9925C36.457 8.28111 34.2124 6.64077 33.4425 4.22454C32.6727 1.80831 30.428 0.167969 27.892 0.167969H21.3115C18.0948 0.167969 15.4863 2.77591 15.4863 5.99319V9.74987H39.4821Z" fill="#0040A8"/>
<path d="M17.983 4.22454C17.2132 1.80831 14.9685 0.167969 12.433 0.167969H5.85256C2.63528 0.167969 0.0273438 2.77591 0.0273438 5.99319V44.2005C0.0273438 47.3775 2.60308 49.9533 5.78011 49.9533H60.4049C59.5264 49.9533 58.8144 49.2413 58.8144 48.3628V14.1063C58.8144 10.8895 56.2065 8.28111 52.9892 8.28111H23.5335C20.9975 8.28111 18.7529 6.64077 17.983 4.22454Z" fill="#1057CD"/>
<path d="M94.6612 49.3963L102.2 41.8572C102.544 41.5018 102.734 41.0257 102.729 40.5315C102.725 40.0373 102.527 39.5646 102.177 39.2151C101.828 38.8657 101.355 38.6675 100.861 38.6632C100.367 38.6589 99.8907 38.8489 99.5352 39.1922L95.2115 43.5158L95.2109 26.5C95.2109 24.5005 94.4166 22.5829 93.0028 21.1691C91.5889 19.7552 89.6713 18.9609 87.6719 18.9609L78.248 18.9609C77.7482 18.9609 77.2688 19.1595 76.9153 19.513C76.5619 19.8664 76.3633 20.3458 76.3633 20.8457C76.3633 21.3456 76.5619 21.825 76.9153 22.1784C77.2688 22.5319 77.7482 22.7305 78.248 22.7305L87.6719 22.7305C88.6716 22.7305 89.6304 23.1276 90.3373 23.8345C91.0442 24.5415 91.4414 25.5002 91.4414 26.5L91.442 43.5158L87.1203 39.1941C86.7648 38.8507 86.2887 38.6608 85.7945 38.6651C85.3004 38.6693 84.8276 38.8676 84.4782 39.217C84.1287 39.5665 83.9305 40.0392 83.9262 40.5334C83.9219 41.0275 84.1119 41.5036 84.4552 41.8591L91.9943 49.3982C92.1693 49.5737 92.3773 49.7129 92.6063 49.808C92.8353 49.903 93.0808 49.9519 93.3287 49.9519C93.5766 49.9519 93.8221 49.903 94.051 49.808C94.28 49.7129 94.488 49.5737 94.6631 49.3982L94.6612 49.3963Z" fill="#8AC5FF"/>
<path d="M28.1533 60.1467L20.6142 67.6857C20.2709 68.0412 20.0809 68.5173 20.0852 69.0115C20.0895 69.5057 20.2877 69.9784 20.6372 70.3278C20.9866 70.6773 21.4593 70.8755 21.9535 70.8798C22.4477 70.8841 22.9238 70.6941 23.2793 70.3508L27.6029 66.0271L27.6035 83.043C27.6035 85.0425 28.3978 86.96 29.8117 88.3739C31.2255 89.7877 33.1431 90.582 35.1426 90.582L44.5664 90.582C45.0663 90.582 45.5457 90.3835 45.8991 90.03C46.2526 89.6765 46.4512 89.1971 46.4512 88.6973C46.4512 88.1974 46.2526 87.718 45.8991 87.3645C45.5457 87.0111 45.0663 86.8125 44.5664 86.8125L35.1426 86.8125C34.1429 86.8125 33.1841 86.4154 32.4771 85.7084C31.7702 85.0015 31.3731 84.0427 31.3731 83.043L31.3724 66.0271L35.6942 70.3489C36.0496 70.6922 36.5257 70.8822 37.0199 70.8779C37.5141 70.8736 37.9868 70.6754 38.3363 70.3259C38.6857 69.9765 38.8839 69.5038 38.8882 69.0096C38.8925 68.5154 38.7026 68.0393 38.3592 67.6839L30.8202 60.1448C30.6451 59.9693 30.4371 59.83 30.2081 59.735C29.9792 59.64 29.7337 59.5911 29.4858 59.5911C29.2379 59.5911 28.9924 59.64 28.7634 59.735C28.5344 59.83 28.3264 59.9693 28.1514 60.1448L28.1533 60.1467Z" fill="#8AC5FF"/>
<defs>
<linearGradient id="paint0_linear_1_1526" x1="115.022" y1="100.657" x2="93.4388" y2="79.0743" gradientUnits="userSpaceOnUse">
<stop stop-color="#FF9517" stop-opacity="0"/>
<stop offset="0.3074" stop-color="#EE8421" stop-opacity="0.305882"/>
<stop offset="0.6784" stop-color="#E07728" stop-opacity="0.678431"/>
<stop offset="1" stop-color="#DB722B"/>
</linearGradient>
<linearGradient id="paint1_linear_1_1526" x1="98.4543" y1="74.0426" x2="81.6899" y2="57.2782" gradientUnits="userSpaceOnUse">
<stop stop-color="#FF9517" stop-opacity="0"/>
<stop offset="0.3074" stop-color="#EE8421" stop-opacity="0.305882"/>
<stop offset="0.6784" stop-color="#E07728" stop-opacity="0.678431"/>
<stop offset="1" stop-color="#DB722B"/>
</linearGradient>
<linearGradient id="paint2_linear_1_1526" x1="95.3294" y1="46.7812" x2="95.3294" y2="109.863" gradientUnits="userSpaceOnUse">
<stop stop-color="#FFFCF8"/>
<stop offset="0.1875" stop-color="#FAF8F6"/>
<stop offset="0.4041" stop-color="#ECEEF2"/>
<stop offset="0.6353" stop-color="#D5DCEA"/>
<stop offset="0.875" stop-color="#B5C4DF"/>
<stop offset="1" stop-color="#A1B5D8"/>
</linearGradient>
<linearGradient id="paint3_linear_1_1526" x1="124.284" y1="91.5458" x2="107.863" y2="89.9936" gradientUnits="userSpaceOnUse">
<stop stop-color="#A1B5D8" stop-opacity="0"/>
<stop offset="0.6699" stop-color="#8190A4" stop-opacity="0.670588"/>
<stop offset="1" stop-color="#748290"/>
</linearGradient>
<linearGradient id="paint4_linear_1_1526" x1="98.2872" y1="73.8737" x2="83.0284" y2="58.6149" gradientUnits="userSpaceOnUse">
<stop stop-color="#A1B5D8" stop-opacity="0"/>
<stop offset="0.6699" stop-color="#8190A4" stop-opacity="0.670588"/>
<stop offset="1" stop-color="#748290"/>
</linearGradient>
<linearGradient id="paint5_linear_1_1526" x1="33.2689" y1="-12.6426" x2="33.2689" y2="50.4396" gradientUnits="userSpaceOnUse">
<stop stop-color="#FFFCF8"/>
<stop offset="0.1875" stop-color="#FAF8F6"/>
<stop offset="0.4041" stop-color="#ECEEF2"/>
<stop offset="0.6353" stop-color="#D5DCEA"/>
<stop offset="0.875" stop-color="#B5C4DF"/>
<stop offset="1" stop-color="#A1B5D8"/>
</linearGradient>
<linearGradient id="paint6_linear_1_1526" x1="62.2237" y1="32.122" x2="45.8028" y2="30.5698" gradientUnits="userSpaceOnUse">
<stop stop-color="#A1B5D8" stop-opacity="0"/>
<stop offset="0.6699" stop-color="#8190A4" stop-opacity="0.670588"/>
<stop offset="1" stop-color="#748290"/>
</linearGradient>
</defs>
</svg>
