<svg width="73" height="73" viewBox="0 0 73 73" fill="none" xmlns="http://www.w3.org/2000/svg">
<path d="M0.0403363 18.0966C0.0322267 12.2313 0.0241171 6.36401 0.00992528 0.498741C0.00789788 0.158137 0.0869665 0 0.470145 0C3.50516 0.0121644 6.53816 0.0081096 9.57318 0.0081096C9.7009 0.0081096 9.82457 0.0263562 9.8935 0.158137C9.75564 0.261535 9.74145 0.409535 9.74145 0.565645C9.74145 2.63562 9.75361 4.7056 9.73334 6.77557C9.72726 7.31892 10.0415 7.30675 10.4206 7.30675C12.3649 7.30067 14.3072 7.30675 16.2514 7.3027C16.4704 7.3027 16.7137 7.36555 16.886 7.15267C17.1861 7.44867 17.0239 7.82171 17.0279 8.15623C17.0441 9.29158 17.0239 10.429 17.0158 11.5643C16.7542 11.5602 16.6103 11.7528 16.4582 11.915C15.7101 12.7118 14.8363 13.3727 13.9179 13.9282C9.6563 16.503 5.01558 17.8695 0.0403363 18.0966Z" fill="#638DFA"/>
<path d="M44.8479 7.15066C45.1479 7.44666 44.9858 7.8197 44.9898 8.15423C45.006 9.28957 44.9858 10.4269 44.9776 11.5623C44.7161 11.5582 44.5722 11.7508 44.4201 11.913C43.672 12.7098 42.7982 13.3707 41.8798 13.9262C37.6182 16.5031 32.9775 17.8695 28.0022 18.0966C27.9941 12.2313 27.988 6.36403 27.9718 0.49876C27.9718 0.158156 28.0488 -0.0020084 28.432 1.90024e-05C31.467 0.0121834 34.5 0.00812861 37.5351 0.00812861C37.6628 0.00812861 37.7865 0.0263752 37.8554 0.158156C37.7175 0.261554 37.7033 0.409554 37.7033 0.565664C37.7033 2.63564 37.7155 4.70562 37.6952 6.77559C37.6891 7.31894 38.0034 7.30677 38.3825 7.30677C40.3268 7.30069 42.269 7.30677 44.2133 7.30272C44.4323 7.30272 44.6756 7.36557 44.8479 7.15269V7.15066Z" fill="#638DFA"/>
<path d="M55.9722 18.0966C55.9641 12.2313 55.958 6.36403 55.9418 0.49876C55.9418 0.158156 56.0188 -0.0020084 56.402 1.90024e-05C59.437 0.0121834 62.47 0.00812861 65.505 0.00812861C65.6328 0.00812861 65.7564 0.0263752 65.8254 0.158156C65.6875 0.261554 65.6733 0.409554 65.6733 0.565664C65.6733 2.63564 65.6855 4.70562 65.6652 6.77559C65.6591 7.31894 65.9734 7.30677 66.3525 7.30677C68.2968 7.30069 70.239 7.30677 72.1833 7.30272C72.4022 7.30272 72.6455 7.36557 72.8179 7.15269C73.1179 7.44869 72.9557 7.82173 72.9598 8.15625C72.976 9.2916 72.9557 10.429 72.9476 11.5643C72.6861 11.5603 72.5421 11.7529 72.3901 11.9151C71.642 12.7118 70.7682 13.3728 69.8497 13.9283C65.5881 16.5051 60.9474 17.8716 55.9722 18.0986V18.0966Z" fill="#638DFA"/>
<path d="M35.2761 34.0337C35.2761 32.3388 35.2356 30.6419 35.2944 28.949C35.3207 28.1928 35.1606 27.9515 34.3395 27.9536C25.6136 27.988 16.8856 27.9677 8.15965 27.99C7.49061 27.99 7.27368 27.8562 7.2899 27.1426C7.34261 24.9935 7.30815 22.8425 7.30815 20.6914C8.11911 20.6914 8.9321 20.6914 9.74306 20.6914C9.74306 22.1086 9.75522 23.5257 9.73292 24.9408C9.72684 25.3666 9.78158 25.5551 10.2905 25.5531C18.4345 25.5349 26.5806 25.5349 34.7247 25.5531C35.2356 25.5531 35.2903 25.3666 35.2822 24.9408C35.2599 23.5237 35.2721 22.1086 35.2721 20.6914C36.0831 20.6914 36.896 20.6914 37.707 20.6914C37.707 22.1086 37.7192 23.5257 37.6969 24.9408C37.6908 25.3666 37.7455 25.5551 38.2544 25.5531C46.3985 25.5349 54.5446 25.5349 62.6886 25.5531C63.1995 25.5531 63.2543 25.3666 63.2462 24.9408C63.2239 23.5237 63.236 22.1086 63.236 20.6914C64.047 20.6914 64.86 20.6914 65.6709 20.6914C65.6709 22.8932 65.6466 25.0929 65.6851 27.2926C65.6953 27.8806 65.5189 27.986 64.9715 27.984C56.1949 27.9657 47.4162 27.984 38.6396 27.9495C37.8185 27.9454 37.6583 28.1867 37.6847 28.945C37.7435 30.6378 37.7029 32.3348 37.7029 34.0297C36.892 34.0297 36.0831 34.0297 35.2721 34.0297L35.2761 34.0337Z" fill="#B7CCE0"/>
<path d="M46.2427 37.703C49.89 37.703 53.5394 37.6766 57.1867 37.7111C62.0788 37.7577 65.8396 41.7294 65.6632 46.6114C65.5071 50.9095 61.9085 54.5568 57.6104 54.7048C55.6681 54.7717 53.7239 54.7169 51.518 54.7169C52.0513 55.2238 52.4142 55.5907 52.8014 55.9293C53.0852 56.1767 53.1177 56.3449 52.8298 56.6511C51.4917 58.0743 51.5039 58.0865 50.1232 56.7079C49.1906 55.7773 48.2783 54.8264 47.3193 53.9222C46.9645 53.5877 47.0071 53.4093 47.3335 53.093C48.5885 51.8766 49.8211 50.6378 51.0436 49.3869C51.3315 49.0929 51.5221 49.0159 51.8201 49.3646C52.2134 49.8248 52.9332 50.208 52.998 50.6926C53.067 51.2116 52.254 51.5542 51.8728 52.0164C51.8282 52.0712 51.7877 52.132 51.735 52.1989C51.9357 52.3854 52.1729 52.2942 52.3797 52.2881C54.3523 52.2313 56.3392 52.4949 58.2956 52.1584C61.3449 51.6333 63.4696 48.8111 63.2243 45.7295C62.981 42.662 60.4204 40.1886 57.3367 40.1501C53.6387 40.1034 49.9407 40.1359 46.2407 40.1359C46.2407 39.3249 46.2407 38.514 46.2407 37.703H46.2427Z" fill="#B7CCE0"/>
<path d="M26.7399 54.7279C23.0683 54.7279 19.3987 54.7076 15.7271 54.738C12.9698 54.7603 10.5653 56.6965 9.9186 59.3341C9.26172 62.0184 10.464 64.7696 12.8867 66.1219C13.5578 66.497 14.2775 66.8011 15.0337 66.8193C17.0956 66.868 19.1575 66.8355 21.414 66.8355C20.9416 66.3915 20.5989 66.0286 20.2137 65.7205C19.8265 65.4103 19.9137 65.2075 20.2279 64.8913C21.5315 63.5795 21.5194 63.5674 22.825 64.873C23.7739 65.8218 24.7105 66.7828 25.6776 67.7134C25.9817 68.0053 26.006 68.1777 25.6897 68.4858C24.4186 69.7205 23.1656 70.9755 21.9309 72.2446C21.6248 72.5609 21.4363 72.5548 21.1565 72.2345C20.7591 71.7783 20.0556 71.3972 19.9786 70.9065C19.9056 70.4423 20.6942 70.0814 21.0713 69.6435C21.1322 69.5725 21.193 69.5036 21.3531 69.3211C19.4454 69.3211 17.6633 69.3292 15.8792 69.3211C13.6348 69.309 11.6824 68.5426 10.022 67.0261C7.54451 64.7615 6.65448 61.0939 7.81821 57.9129C8.99815 54.6873 12.0555 52.3822 15.425 52.3254C19.196 52.2605 22.969 52.3031 26.7399 52.2991C26.7399 53.11 26.7399 53.921 26.7399 54.7319V54.7279Z" fill="#B7CCE0"/>
<path d="M35.2758 34.0332C36.0867 34.0332 36.8957 34.0332 37.7066 34.0332C40.3078 34.0413 42.9089 34.0656 45.5101 34.0433C46.0656 34.0393 46.2825 34.167 46.2298 34.7509C46.173 35.3774 46.2035 36.0119 46.1974 36.6425C46.0555 36.6911 45.8973 36.7155 45.7757 36.7945C43.4746 38.307 40.9363 39.268 38.3027 40.01C34.5358 41.0703 30.6918 41.6218 26.7911 41.8103C26.783 39.4078 26.7911 37.0074 26.7546 34.6049C26.7465 34.0839 26.9796 34.0474 27.3912 34.0494C30.0207 34.0555 32.6503 34.0413 35.2778 34.0332H35.2758Z" fill="#638DFA"/>
<path d="M26.7393 54.7271C26.7393 53.9162 26.7393 53.1052 26.7393 52.2942C26.7474 51.2846 26.7717 50.2729 26.7555 49.2633C26.7494 48.8416 26.8102 48.6328 27.3191 48.6348C33.4337 48.653 39.5463 48.649 45.661 48.6388C46.0807 48.6388 46.2489 48.7463 46.2246 49.1883C46.1861 49.8674 46.2023 50.5507 46.1942 51.2339C46.0523 51.2826 45.8941 51.3069 45.7725 51.386C43.4714 52.8984 40.9331 53.8594 38.2995 54.6014C34.5326 55.6618 30.6886 56.2132 26.7879 56.4018C26.7717 55.8442 26.7555 55.2867 26.7393 54.7271Z" fill="#638DFA"/>
<path d="M26.7888 70.9936C26.7807 68.5932 26.7888 66.1907 26.7523 63.7903C26.7442 63.2733 26.9712 63.2307 27.3869 63.2327C30.0164 63.2449 32.6439 63.2388 35.2735 63.2388C38.6856 63.2388 42.0977 63.251 45.5098 63.2267C46.0633 63.2226 46.2843 63.3443 46.2316 63.9322C46.1748 64.5587 46.2052 65.1932 46.1991 65.8258C46.0572 65.8744 45.8991 65.8988 45.7774 65.9778C43.4763 67.4903 40.938 68.4513 38.3044 69.1933C34.5375 70.2536 30.6936 70.8051 26.7928 70.9936H26.7888Z" fill="#638DFA"/>
<path d="M9.74231 20.6959C8.93135 20.6959 8.11836 20.6959 7.3074 20.6959C5.0874 20.6918 2.86537 20.6736 0.645363 20.6918C0.162842 20.6959 -0.033816 20.5803 0.00470458 20.0674C0.0533622 19.4145 0.0310608 18.7556 0.0391704 18.1008C5.01441 17.8737 9.65513 16.5072 13.9167 13.9304C14.8351 13.3749 15.7089 12.714 16.4571 11.9172C16.6111 11.755 16.7531 11.5624 17.0146 11.5665C17.0207 14.4231 17.0146 17.2797 17.047 20.1343C17.0531 20.6553 16.826 20.6918 16.4145 20.6898C14.1904 20.6796 11.9664 20.6918 9.74231 20.6979V20.6959Z" fill="#638DFA"/>
<path d="M37.7075 20.6959C36.8966 20.6959 36.0836 20.6959 35.2726 20.6959C33.0526 20.6918 30.8306 20.6736 28.6106 20.6918C28.1281 20.6959 27.9314 20.5803 27.9699 20.0674C28.0186 19.4145 27.9963 18.7556 28.0044 18.1008C32.9796 17.8737 37.6203 16.5072 41.8819 13.9304C42.8004 13.3749 43.6742 12.714 44.4223 11.9172C44.5764 11.755 44.7183 11.5624 44.9798 11.5665C44.9859 14.4231 44.9798 17.2797 45.0122 20.1343C45.0183 20.6553 44.7913 20.6918 44.3797 20.6898C42.1556 20.6796 39.9316 20.6918 37.7075 20.6979V20.6959Z" fill="#638DFA"/>
<path d="M65.6743 20.6959C64.8634 20.6959 64.0504 20.6959 63.2394 20.6959C61.0194 20.6918 58.7974 20.6736 56.5774 20.6918C56.0948 20.6959 55.8982 20.5803 55.9367 20.0674C55.9854 19.4145 55.9631 18.7556 55.9712 18.1008C60.9464 17.8737 65.5871 16.5072 69.8487 13.9304C70.7671 13.3749 71.641 12.714 72.3891 11.9172C72.5432 11.755 72.6851 11.5624 72.9466 11.5665C72.9527 14.4231 72.9466 17.2797 72.979 20.1343C72.9851 20.6553 72.7581 20.6918 72.3465 20.6898C70.1224 20.6796 67.8984 20.6918 65.6743 20.6979V20.6959Z" fill="#638DFA"/>
<path d="M26.7876 41.8104C30.6883 41.6219 34.5323 41.0724 38.2992 40.0101C40.9348 39.2681 43.4711 38.3071 45.7722 36.7946C45.8938 36.7156 46.052 36.6912 46.1939 36.6426C46.2081 36.9953 46.2243 37.3501 46.2405 37.7029C46.2405 38.5139 46.2405 39.3248 46.2405 40.1358C46.2324 41.1718 46.204 42.2078 46.2263 43.2418C46.2365 43.6817 46.0844 43.7912 45.6647 43.7912C39.5501 43.779 33.4355 43.779 27.3208 43.7912C26.9072 43.7912 26.7187 43.6959 26.7552 43.2478C26.7957 42.7714 26.7795 42.2889 26.7876 41.8104Z" fill="url(#paint0_linear_115_614)"/>
<path d="M26.7876 56.4003C30.6883 56.2117 34.5323 55.6623 38.2992 54.5999C40.9348 53.8579 43.4711 52.8969 45.7722 51.3845C45.8938 51.3054 46.052 51.2811 46.1939 51.2324C46.202 53.4301 46.1979 55.6299 46.2243 57.8276C46.2304 58.2594 46.0966 58.3831 45.6688 58.3831C39.5521 58.3709 33.4375 58.3709 27.3208 58.3831C26.9072 58.3831 26.7187 58.2898 26.7552 57.8397C26.7957 57.3633 26.7795 56.8808 26.7876 56.4003Z" fill="url(#paint1_linear_115_614)"/>
<path d="M26.7876 70.994C30.6883 70.8055 34.5323 70.256 38.2992 69.1937C40.9348 68.4517 43.4711 67.4907 45.7722 65.9782C45.8938 65.8992 46.052 65.8748 46.1939 65.8262C46.202 68.0239 46.1979 70.2236 46.2243 72.4213C46.2304 72.8531 46.0966 72.9768 45.6688 72.9768C39.5521 72.9647 33.4375 72.9647 27.3208 72.9768C26.9072 72.9768 26.7187 72.8836 26.7552 72.4335C26.7957 71.957 26.7795 71.4745 26.7876 70.994Z" fill="url(#paint2_linear_115_614)"/>
<path d="M16.8833 7.15078C16.711 7.36366 16.4697 7.30081 16.2487 7.30081C14.3044 7.30486 12.3622 7.30081 10.4179 7.30486C10.0408 7.30486 9.72657 7.31906 9.73063 6.77369C9.7509 4.70371 9.73874 2.63373 9.73874 0.563758C9.73874 0.409675 9.75293 0.259647 9.89079 0.15625C12.2223 2.48776 14.5518 4.81724 16.8833 7.14875V7.15078Z" fill="#B7CCE0"/>
<path d="M44.8502 7.15078C44.6779 7.36366 44.4366 7.30081 44.2156 7.30081C42.2714 7.30486 40.3291 7.30081 38.3848 7.30486C38.0077 7.30486 37.6935 7.31906 37.6975 6.77369C37.7178 4.70371 37.7057 2.63373 37.7057 0.563758C37.7057 0.409675 37.7198 0.259647 37.8577 0.15625C40.1892 2.48776 42.5187 4.81724 44.8502 7.14875V7.15078Z" fill="#B7CCE0"/>
<path d="M72.8154 7.15078C72.6431 7.36366 72.4018 7.30081 72.1809 7.30081C70.2366 7.30486 68.2943 7.30081 66.35 7.30486C65.9729 7.30486 65.6587 7.31906 65.6628 6.77369C65.683 4.70371 65.6709 2.63373 65.6709 0.563758C65.6709 0.409675 65.6851 0.259647 65.8229 0.15625C68.1544 2.48776 70.4839 4.81724 72.8154 7.14875V7.15078Z" fill="#B7CCE0"/>
<defs>
<linearGradient id="paint0_linear_115_614" x1="36.4956" y1="36.6426" x2="36.4956" y2="43.7912" gradientUnits="userSpaceOnUse">
<stop stop-color="#638DFA"/>
<stop offset="1" stop-color="#638DFA" stop-opacity="0"/>
</linearGradient>
<linearGradient id="paint1_linear_115_614" x1="36.4876" y1="51.2324" x2="36.4876" y2="58.3831" gradientUnits="userSpaceOnUse">
<stop stop-color="#638DFA"/>
<stop offset="1" stop-color="#638DFA" stop-opacity="0"/>
</linearGradient>
<linearGradient id="paint2_linear_115_614" x1="36.4876" y1="65.8262" x2="36.4876" y2="72.9768" gradientUnits="userSpaceOnUse">
<stop stop-color="#638DFA"/>
<stop offset="1" stop-color="#638DFA" stop-opacity="0"/>
</linearGradient>
</defs>
</svg>
