<svg width="67" height="60" viewBox="0 0 67 60" fill="none" xmlns="http://www.w3.org/2000/svg">
<path d="M59.8418 17.1194C63.3957 18.8902 65.8043 21.176 65.935 25.273C66.0397 28.4559 66.2468 31.6373 66.4882 34.8111C66.6253 36.6588 65.9163 38.2272 64.3781 38.9063C60.5973 40.578 56.688 41.956 52.8151 43.4076C52.4744 43.5348 51.9799 43.3548 51.5865 43.2245C49.8436 42.6558 48.0464 42.1967 46.3898 41.4341C38.1035 37.5996 38.5273 37.0862 39.5688 29.0091C39.7211 27.8139 39.7032 26.6011 39.7918 25.3956C40.112 21.2 42.5348 18.1549 46.5967 16.9689C47.9934 19.4232 49.6681 21.5437 52.9566 21.634C56.2408 21.7242 58.2096 19.9771 59.8375 17.1193L59.8418 17.1194Z" fill="#B7CCE0"/>
<path d="M21.0686 18.2932C24.6225 20.0641 27.0311 22.3498 27.1618 26.4468C27.2665 29.6297 27.4736 32.8111 27.715 35.9849C27.8521 37.8326 27.1431 39.401 25.6049 40.0801C21.8241 41.7519 17.9148 43.1299 14.0419 44.5814C13.7012 44.7087 13.2067 44.5286 12.8133 44.3983C11.0704 43.8297 9.27316 43.3705 7.61663 42.6079C-0.66974 38.7734 -0.245868 38.2601 0.795583 30.1829C0.947938 28.9877 0.930036 27.775 1.01865 26.5694C1.3388 22.3738 3.76156 19.3287 7.82354 18.1427C9.22017 20.597 10.8949 22.7175 14.1834 22.8078C17.4676 22.8981 19.4364 21.1509 21.0643 18.2931L21.0686 18.2932Z" fill="#B7CCE0"/>
<path d="M53.6941 0.233702C58.3944 0.362839 61.9375 4.07981 61.8178 8.74618C61.6993 13.3699 57.6372 17.2023 53.0625 17.0083C48.6712 16.8194 44.7584 12.5758 44.9633 8.22762C45.1793 3.62792 49.028 0.105503 53.6898 0.237851L53.6941 0.233702Z" fill="#B7CCE0"/>
<path d="M14.9201 1.40753C19.6203 1.53667 23.1634 5.25364 23.0438 9.92C22.9253 14.5437 18.8632 18.3761 14.2885 18.1822C9.89719 17.9932 5.98439 13.7496 6.18922 9.40144C6.40523 4.80175 10.254 1.27933 14.9157 1.41168L14.9201 1.40753Z" fill="#B7CCE0"/>
<path d="M39.8674 32.3928C43.4213 34.1637 45.8299 36.4494 45.9607 40.5464C46.0653 43.7293 46.2724 46.9107 46.5139 50.0845C46.6509 51.9322 45.942 53.5006 44.4037 54.1797C40.6229 55.8515 36.7136 57.2295 32.8407 58.6811C32.5 58.8083 32.0055 58.6282 31.6122 58.4979C29.8692 57.9293 28.072 57.4701 26.4155 56.7075C18.1291 52.873 18.553 52.3597 19.5944 44.2825C19.7468 43.0873 19.7289 41.8746 19.8175 40.6691C20.1376 36.4735 22.5604 33.4283 26.6224 32.2423C28.019 34.6966 29.6937 36.8171 32.9822 36.9075C36.2664 36.9977 38.2352 35.2505 39.8631 32.3927L39.8674 32.3928Z" fill="#638DFA"/>
<path d="M33.7189 15.5091C38.4192 15.6382 41.9623 19.3552 41.8426 24.0216C41.7241 28.6453 37.662 32.4777 33.0873 32.2837C28.696 32.0948 24.7832 27.8512 24.9881 23.503C25.2041 18.9033 29.0528 15.3809 33.7145 15.5132L33.7189 15.5091Z" fill="#638DFA"/>
</svg>
