<svg width="50" height="55" viewBox="0 0 50 55" fill="none" xmlns="http://www.w3.org/2000/svg">
<path d="M25 0C30.0912 0 35.1823 0 40.2735 0C41.285 0 41.3574 0.0740884 41.3574 1.11133C41.3574 4.34867 41.3671 7.58762 41.3462 10.825C41.3429 11.2985 41.4653 11.4338 41.9453 11.4289C44.2791 11.4032 46.6129 11.4161 48.9483 11.4177C49.9066 11.4177 50 11.5095 50 12.4404C50 21.9978 50 31.5568 50 41.1142C50 42.0516 49.905 42.1466 48.9676 42.1466C43.0115 42.1466 37.0555 42.1531 31.0994 42.1337C30.6001 42.1337 30.4648 42.2465 30.4745 42.7538C30.5067 44.7059 30.5115 46.658 30.4729 48.6084C30.4616 49.1705 30.6468 49.2688 31.1542 49.2543C32.4008 49.2189 33.649 49.2382 34.8972 49.2446C35.5705 49.2478 35.7396 49.4234 35.7412 50.1111C35.746 51.3191 35.746 52.5254 35.7412 53.7334C35.738 54.3922 35.5447 54.579 34.8699 54.579C28.2905 54.5806 21.7095 54.5806 15.1301 54.579C14.4553 54.579 14.2668 54.3938 14.2636 53.7302C14.2588 52.5222 14.2588 51.3159 14.2636 50.1079C14.2668 49.4202 14.4327 49.2478 15.1108 49.2462C16.4186 49.2398 17.7265 49.2333 19.0343 49.2511C19.3886 49.2559 19.5271 49.1754 19.5239 48.7888C19.5062 46.716 19.4981 44.6431 19.5287 42.5718C19.5368 42.0661 19.2582 42.1482 18.9618 42.1482C12.9848 42.1482 7.00941 42.1482 1.03241 42.1482C0.096637 42.1482 0.00322123 42.0532 0.00322123 41.1126C0 31.5745 0 22.0365 0 12.4984C0 11.4901 0.0740884 11.4177 1.11455 11.4177C3.44833 11.4177 5.78373 11.4064 8.11751 11.4273C8.54594 11.4305 8.65385 11.3017 8.65224 10.8846C8.63613 7.60695 8.64257 4.32773 8.64418 1.05012C8.64257 0.0950264 8.73599 0 9.66692 0C14.7774 0 19.8895 0 25 0ZM24.9678 37.3035C31.4876 37.3035 38.0057 37.3035 44.5255 37.3003C44.8186 37.3003 45.1649 37.4356 45.1649 36.8751C45.1504 30.1556 45.152 23.4345 45.1649 16.715C45.1649 16.3478 45.028 16.2898 44.7091 16.2962C43.7637 16.3139 42.8166 16.3284 41.8728 16.2914C41.4202 16.2737 41.3059 16.3977 41.3075 16.8535C41.3284 20.5563 41.3188 24.2575 41.3188 27.9603C41.3188 28.8333 41.2624 28.8913 40.3959 28.8913C30.1346 28.8913 19.8734 28.8913 9.61216 28.8913C8.74243 28.8913 8.68606 28.8333 8.68606 27.9651C8.68606 24.2623 8.67801 20.5611 8.69733 16.8583C8.69894 16.4106 8.59747 16.2721 8.13845 16.2914C7.23489 16.3317 6.3265 16.3349 5.42295 16.2914C4.92849 16.2672 4.83829 16.4363 4.8399 16.8938C4.8544 23.4925 4.85601 30.0928 4.83829 36.6915C4.83829 37.202 4.98164 37.3164 5.47449 37.3164C11.9733 37.3003 18.4722 37.3051 24.971 37.3051L24.9678 37.3035ZM25.0016 27.7719C29.8496 27.7719 34.6991 27.7638 39.5471 27.7831C40.0512 27.7848 40.2236 27.7026 40.2219 27.1405C40.1978 20.5418 40.1978 13.9431 40.2219 7.34441C40.2236 6.78392 40.0496 6.69373 39.5439 6.69373C29.8463 6.70822 20.1488 6.70822 10.4513 6.69373C9.93751 6.69373 9.77645 6.7968 9.77806 7.34764C9.79899 13.9463 9.80061 20.545 9.77806 27.1437C9.77645 27.7139 9.96006 27.7848 10.4577 27.7831C15.3057 27.7654 20.1553 27.7719 25.0032 27.7719H25.0016ZM24.9984 40.9741V40.9564C25.5412 40.9564 26.0839 40.9564 26.6283 40.9564C33.8117 40.9628 40.995 40.9628 48.1784 40.987C48.7051 40.9886 48.8404 40.8678 48.8404 40.3299C48.821 31.3346 48.8275 22.3409 48.8275 13.3456C48.8275 13.2248 48.8178 13.1024 48.8291 12.9832C48.8597 12.6788 48.7502 12.5612 48.4248 12.5644C46.1909 12.5773 43.957 12.5757 41.7246 12.5644C41.4041 12.5644 41.3011 12.6739 41.3123 12.9848C41.3317 13.5276 41.3462 14.0736 41.3075 14.6131C41.2753 15.0577 41.4557 15.1462 41.8583 15.1382C43.0051 15.114 44.1518 15.1285 45.2986 15.1301C46.1426 15.1317 46.2634 15.2558 46.265 16.1046C46.265 23.2283 46.265 30.3505 46.265 37.4742C46.265 38.3601 46.2183 38.4084 45.3485 38.4084C41.2028 38.4084 37.0587 38.4084 32.913 38.4084C23.4764 38.4084 14.0381 38.4084 4.60153 38.4084C3.82844 38.4084 3.74307 38.3295 3.74307 37.5999C3.74307 30.3762 3.7463 23.1526 3.73502 15.9274C3.73502 15.3476 3.97984 15.1237 4.52261 15.1285C5.24739 15.1334 5.97217 15.1414 6.69534 15.1269C7.33636 15.114 8.18194 15.3975 8.56204 15.0238C8.97275 14.6196 8.62486 13.7627 8.69733 13.1104C8.75209 12.6208 8.52822 12.5564 8.10624 12.5596C6.01404 12.5789 3.92024 12.5886 1.82805 12.5548C1.2901 12.5451 1.16609 12.6917 1.1677 13.2199C1.18541 22.2555 1.18541 31.2895 1.1677 40.325C1.1677 40.8549 1.2901 40.987 1.82483 40.9854C9.55096 40.966 17.2771 40.9725 25.0032 40.9725L24.9984 40.9741ZM24.9388 5.55502C29.8286 5.55502 34.7185 5.55019 39.6083 5.56468C40.0528 5.56468 40.2413 5.49704 40.2203 4.98808C40.1768 3.90253 40.1785 2.81375 40.2203 1.7298C40.238 1.24984 40.0705 1.17575 39.6405 1.17897C36.4612 1.19669 33.2818 1.18864 30.1024 1.18864C23.5424 1.18864 16.9823 1.19347 10.4223 1.17736C9.94395 1.17736 9.75551 1.25628 9.77967 1.78779C9.82638 2.8524 9.82315 3.92185 9.77967 4.98647C9.75873 5.49059 9.94073 5.56629 10.3901 5.56629C15.2397 5.5518 20.0892 5.55663 24.9388 5.55663V5.55502ZM25.0274 50.3914C22.0123 50.3914 18.9956 50.3994 15.9805 50.3817C15.5537 50.3785 15.4265 50.4993 15.4507 50.9197C15.4845 51.5607 15.4925 52.2082 15.449 52.8492C15.4168 53.313 15.5698 53.4081 16.0144 53.4065C19.6753 53.3871 23.3346 53.3952 26.9956 53.3952C29.3487 53.3952 31.7018 53.3855 34.0549 53.4048C34.4511 53.4081 34.5719 53.3002 34.5526 52.9056C34.5204 52.2629 34.5107 51.6171 34.5542 50.976C34.5864 50.4928 34.4253 50.3785 33.9566 50.3817C30.9818 50.4027 28.0054 50.393 25.0306 50.393L25.0274 50.3914ZM24.963 49.2656C26.2482 49.2656 27.5351 49.2462 28.8204 49.2768C29.2553 49.2865 29.3535 49.148 29.3487 48.7341C29.3261 47.1073 29.3487 45.479 29.3342 43.8507C29.3293 43.2966 29.587 42.5171 29.2246 42.2465C28.8478 41.963 28.1101 42.1724 27.5335 42.1386C27.2323 42.1209 27.1631 42.2368 27.1695 42.5171C27.1856 43.3208 27.1888 44.1245 27.1727 44.9282C27.1502 46.0508 26.3143 46.964 25.2207 47.0912C24.1979 47.2104 23.238 46.5178 22.9223 45.4726C22.7548 44.9153 22.8675 44.3548 22.8289 43.7975C22.7918 43.2628 23.0608 42.5074 22.7258 42.2481C22.3699 41.9727 21.6547 42.174 21.0991 42.1386C20.7625 42.116 20.6529 42.2191 20.6562 42.5702C20.6723 44.6592 20.6723 46.7498 20.6562 48.8404C20.6529 49.1947 20.7754 49.2784 21.1071 49.2736C22.3924 49.2575 23.6793 49.2672 24.9646 49.2672L24.963 49.2656ZM25.9825 43.6912C26.004 42.5906 25.459 42.0747 24.3477 42.1434C24.3074 42.1466 24.2672 42.1466 24.2269 42.1434C24.0417 42.1321 23.9821 42.2288 23.9853 42.4011C23.9998 43.3047 23.974 44.2114 24.0336 45.1118C24.0691 45.6417 24.4685 45.901 24.9871 45.9251C25.4961 45.9493 25.9245 45.595 25.9728 45.0747C26.0147 44.6173 25.9825 44.1518 25.9825 43.6912Z" fill="#1970EB"/>
<path d="M24.9667 37.305C18.4679 37.305 11.969 37.3002 5.47019 37.3163C4.97734 37.3163 4.83239 37.2035 4.834 36.6914C4.85171 30.0927 4.8501 23.4924 4.83561 16.8937C4.83561 16.4379 4.92419 16.2671 5.41865 16.2913C6.32221 16.3364 7.2306 16.3316 8.13415 16.2913C8.59479 16.272 8.69626 16.4105 8.69304 16.8582C8.67371 20.561 8.68176 24.2622 8.68176 27.965C8.68176 28.8348 8.73813 28.8911 9.60787 28.8911C19.8691 28.8911 30.1304 28.8911 40.3916 28.8911C41.2581 28.8911 41.3145 28.8332 41.3145 27.9602C41.3145 24.2574 41.3241 20.5562 41.3032 16.8534C41.3 16.3976 41.4159 16.2736 41.8685 16.2913C42.8124 16.3283 43.7594 16.3138 44.7048 16.2961C45.0237 16.2897 45.1606 16.3477 45.1606 16.7149C45.1494 23.4344 45.1477 30.1555 45.1606 36.875C45.1606 37.4339 44.8143 37.3002 44.5212 37.3002C38.0014 37.3034 31.4833 37.3034 24.9635 37.3034L24.9667 37.305Z" fill="#F0F7FF"/>
<path d="M25.0015 27.7735C20.1536 27.7735 15.304 27.767 10.4561 27.7848C9.95999 27.7864 9.77477 27.7155 9.77638 27.1453C9.80054 20.5466 9.79893 13.9479 9.77638 7.34924C9.77477 6.79841 9.93583 6.69372 10.4496 6.69533C20.1471 6.70983 29.8447 6.70983 39.5422 6.69533C40.0479 6.69533 40.2219 6.78391 40.2203 7.34602C40.1977 13.9447 40.1977 20.5434 40.2203 27.1421C40.2219 27.7042 40.0495 27.788 39.5454 27.7848C34.6975 27.7654 29.8479 27.7735 24.9999 27.7735H25.0015ZM36.7446 18.5253C36.6914 18.3707 36.8299 18.3143 36.904 18.2338C37.8688 17.1998 37.8655 16.9566 36.8718 15.9612C35.9086 14.9965 35.6944 14.9948 34.6459 15.9322C34.5606 16.0079 34.4945 16.1561 34.3608 16.111C34.1853 16.0514 34.2594 15.8742 34.2449 15.7438C34.2368 15.6649 34.2449 15.5827 34.2433 15.5022C34.2223 14.5342 33.9324 14.2427 32.9838 14.2379C32.8034 14.2379 32.6214 14.2379 32.441 14.2379C31.2717 14.2379 31.0575 14.4537 31.0317 15.6391C31.0285 15.7921 31.1138 16.0015 30.9463 16.0836C30.7337 16.1899 30.6451 15.9483 30.5276 15.8356C29.6884 15.0367 29.3357 15.0351 28.5224 15.8469C28.408 15.9612 28.2936 16.074 28.1809 16.1883C27.4545 16.9179 27.461 17.3077 28.1841 18.0663C28.3098 18.1984 28.5948 18.2966 28.4692 18.5269C28.3822 18.6864 28.1374 18.5881 27.9651 18.5913C26.9649 18.6075 26.6412 18.928 26.6283 19.9378C26.6267 20.0989 26.6283 20.2599 26.6283 20.421C26.6347 21.5549 26.9166 21.8367 28.0521 21.8609C28.1986 21.8641 28.4064 21.7627 28.4869 21.943C28.5691 22.1283 28.3548 22.2104 28.2534 22.3199C27.4352 23.1913 27.4304 23.5118 28.2437 24.3251C29.0082 25.0897 29.8168 25.1364 30.6693 24.4653C30.9012 24.2817 31.0188 24.2704 31.0349 24.599C31.0414 24.7391 31.0462 24.8808 31.0349 25.0209C30.9898 25.5863 31.1799 26.0308 31.7484 26.1902C32.6568 26.4463 33.8438 26.2047 34.0983 25.7425C34.1643 25.6233 34.1998 25.4816 34.2159 25.3447C34.2417 25.1256 34.2368 24.9034 34.2465 24.6827C34.2513 24.5651 34.2143 24.4202 34.3335 24.3541C34.472 24.2784 34.5396 24.4266 34.625 24.5007C35.7572 25.4816 35.8893 25.4783 36.9346 24.4314C37.0345 24.3316 37.1375 24.2366 37.2326 24.1319C37.7254 23.5955 37.7158 23.0753 37.2294 22.5406C37.0522 22.3457 36.78 22.2136 36.7204 21.9076C38.3632 21.7111 38.6145 21.5613 38.6467 20.785C38.6982 19.5191 38.0647 18.7648 36.7462 18.5221L36.7446 18.5253ZM24.9838 12.3099C27.1549 12.3099 29.3244 12.3116 31.4956 12.3099C32.2687 12.3099 32.4023 12.1714 32.4072 11.3935C32.412 10.5898 32.3991 9.7861 32.4104 8.98241C32.4184 8.44929 32.1672 8.21414 31.647 8.21414C27.2049 8.21575 22.7628 8.21414 18.3207 8.21414C17.8311 8.21414 17.5814 8.44285 17.5879 8.95019C17.5975 9.75389 17.5879 10.5576 17.5911 11.3613C17.5943 12.1811 17.7199 12.3083 18.5317 12.3099C20.6819 12.3132 22.8337 12.3099 24.9838 12.3099ZM20.9895 21.7031C20.9895 22.307 20.9879 22.9094 20.9895 23.5134C20.9927 24.4089 21.3148 24.6247 22.0751 24.1866C22.3859 24.0079 22.4729 24.1206 22.6082 24.3638C22.9383 24.9597 23.2959 25.5379 23.6293 26.1323C23.8467 26.522 24.1527 26.6171 24.5312 26.4141C25.0257 26.15 25.5105 25.8681 25.9872 25.5734C26.3239 25.3656 26.4302 25.0789 26.2095 24.7069C25.8745 24.1383 25.5749 23.5456 25.2141 22.9948C24.9903 22.6517 24.9967 22.4874 25.3833 22.2781C25.9856 21.9511 25.9872 21.4856 25.409 21.141C24.2558 20.4548 23.093 19.7848 21.922 19.1309C21.3632 18.8184 21.0056 19.0504 20.9927 19.7107C20.9798 20.3743 20.9895 21.0379 20.9895 21.7014V21.7031ZM16.185 17.1418C14.8176 17.1418 13.4502 17.1482 12.0828 17.1386C11.6898 17.1354 11.3789 17.2449 11.3661 17.6733C11.3532 18.1452 11.6834 18.2515 12.0989 18.2499C14.7935 18.2435 17.488 18.2435 20.1826 18.2499C20.5643 18.2499 20.8816 18.1726 20.8913 17.7168C20.9025 17.2272 20.5772 17.137 20.1649 17.1402C18.8377 17.1482 17.5106 17.1434 16.1834 17.1434L16.185 17.1418ZM15.5215 14.2395C14.3763 14.2395 13.2328 14.2459 12.0876 14.2362C11.6995 14.233 11.3806 14.3329 11.3661 14.7629C11.35 15.2284 11.6689 15.3492 12.0908 15.3476C14.3602 15.3395 16.6279 15.3411 18.8973 15.3476C19.2935 15.3476 19.5786 15.2364 19.5802 14.7903C19.5802 14.3393 19.2871 14.2346 18.8941 14.2379C17.7699 14.2459 16.6457 14.2411 15.5215 14.2411V14.2395ZM14.9416 20.2889C13.9978 20.2889 13.054 20.2954 12.1102 20.2857C11.693 20.2809 11.3725 20.4146 11.3693 20.8688C11.3661 21.3036 11.6898 21.4148 12.0747 21.4148C13.9624 21.4115 15.8516 21.4115 17.7393 21.4148C18.1387 21.4148 18.4914 21.3358 18.4753 20.8446C18.4592 20.3695 18.1162 20.2841 17.7151 20.2873C16.7906 20.2954 15.8677 20.2905 14.9432 20.2905L14.9416 20.2889Z" fill="#F0F7FF"/>
<path d="M24.9986 40.9747C17.2725 40.9747 9.54636 40.9682 1.82023 40.9876C1.28551 40.9876 1.16149 40.8555 1.1631 40.3272C1.18082 31.2917 1.18082 22.2577 1.1631 13.2221C1.1631 12.6939 1.28551 12.5489 1.82345 12.557C3.91565 12.5908 6.00945 12.5811 8.10164 12.5618C8.52201 12.5586 8.7475 12.623 8.69274 13.1126C8.62026 13.7649 8.96815 14.6218 8.55744 15.026C8.17895 15.3997 7.33176 15.1162 6.69074 15.1291C5.96596 15.1436 5.24118 15.1372 4.51802 15.1307C3.97524 15.1259 3.72881 15.3498 3.73042 15.9296C3.74331 23.1532 3.73848 30.3768 3.73848 37.6021C3.73848 38.3317 3.82384 38.4106 4.59694 38.4106C14.0335 38.4106 23.4718 38.4106 32.9084 38.4106C37.0541 38.4106 41.1982 38.4106 45.3439 38.4106C46.2137 38.4106 46.2604 38.3623 46.2604 37.4764C46.2604 30.3527 46.2604 23.2305 46.2604 16.1068C46.2604 15.258 46.1396 15.1339 45.294 15.1323C44.1472 15.1307 43.0005 15.1162 41.8537 15.1404C41.4511 15.1484 41.2707 15.0599 41.3029 14.6153C41.3416 14.0742 41.3254 13.5282 41.3077 12.987C41.2965 12.6761 41.4011 12.565 41.72 12.5666C43.954 12.5779 46.1879 12.5779 48.4202 12.5666C48.7456 12.565 48.8551 12.681 48.8245 12.9854C48.8132 13.1046 48.8229 13.227 48.8229 13.3478C48.8229 22.3431 48.818 31.3368 48.8358 40.332C48.8358 40.8684 48.7021 40.9908 48.1738 40.9892C40.9904 40.965 33.8071 40.965 26.6237 40.9586C26.081 40.9586 25.5382 40.9586 24.9938 40.9586V40.9763L24.9986 40.9747Z" fill="#77ABF4"/>
<path d="M24.9393 5.55507C20.0897 5.55507 15.2401 5.55024 10.3906 5.56474C9.9428 5.56474 9.75919 5.48904 9.78013 4.98491C9.82362 3.9203 9.82684 2.85085 9.78013 1.78623C9.75758 1.25472 9.94441 1.17419 10.4228 1.1758C16.9828 1.19191 23.5429 1.18708 30.1029 1.18708C33.2823 1.18708 36.4616 1.19513 39.641 1.17742C40.071 1.1758 40.2385 1.24989 40.2208 1.72825C40.1805 2.8138 40.1773 3.90258 40.2208 4.98653C40.2417 5.49548 40.0517 5.56474 39.6088 5.56313C34.7189 5.54863 29.8291 5.55346 24.9393 5.55346V5.55507ZM32.1323 2.6769V2.67046C31.873 2.67046 31.6088 2.64147 31.3543 2.67851C31.0387 2.72361 30.7922 2.87501 30.789 3.25511C30.7858 3.63522 31.029 3.81561 31.3447 3.83816C31.8617 3.8752 32.3851 3.87681 32.9021 3.83332C33.2178 3.80594 33.4643 3.59817 33.4514 3.23417C33.4401 2.90239 33.2033 2.73166 32.9118 2.68495C32.6589 2.64469 32.3932 2.6769 32.1339 2.6769H32.1323ZM36.2506 3.85265C36.5099 3.85265 36.7725 3.87359 37.0302 3.84782C37.3587 3.81561 37.6051 3.64327 37.6164 3.28571C37.6277 2.89755 37.3764 2.69462 37.0205 2.6769C36.5228 2.65113 36.0203 2.64791 35.5226 2.68173C35.1941 2.70428 34.9621 2.91205 34.9653 3.268C34.9686 3.62394 35.2069 3.80594 35.5339 3.84782C35.7707 3.87681 36.0122 3.85426 36.2522 3.85426L36.2506 3.85265ZM27.8915 3.85104C28.1508 3.85104 28.415 3.87681 28.6694 3.8446C28.9867 3.80594 29.2348 3.66582 29.246 3.28088C29.2573 2.90078 29.0302 2.7075 28.7113 2.68334C28.1943 2.64469 27.6709 2.64791 27.1539 2.68334C26.8269 2.70589 26.5789 2.92816 26.5853 3.26961C26.5917 3.60945 26.8446 3.80272 27.1732 3.8446C27.4099 3.87359 27.6515 3.85104 27.8915 3.85104Z" fill="#F0F7FF"/>
<path d="M25.0281 50.3942C28.0045 50.3942 30.9793 50.4054 33.9541 50.3829C34.4244 50.3797 34.5855 50.494 34.5517 50.9772C34.5082 51.6182 34.5178 52.2641 34.55 52.9067C34.5694 53.3013 34.4486 53.4092 34.0524 53.406C31.6993 53.3867 29.3461 53.3963 26.993 53.3963C23.3321 53.3963 19.6728 53.3883 16.0118 53.4076C15.5673 53.4092 15.4143 53.3142 15.4465 52.8503C15.49 52.2093 15.4836 51.5619 15.4481 50.9208C15.4256 50.5005 15.5528 50.3813 15.978 50.3829C18.9931 50.4006 22.0098 50.3925 25.0249 50.3925L25.0281 50.3942Z" fill="#77ABF4"/>
<path d="M24.9637 49.2658C23.6785 49.2658 22.3916 49.2562 21.1063 49.2723C20.7745 49.2771 20.6537 49.1917 20.6553 48.839C20.6698 46.75 20.6714 44.6594 20.6553 42.5689C20.6521 42.2177 20.7616 42.1163 21.0983 42.1372C21.6539 42.1727 22.369 41.9713 22.725 42.2467C23.06 42.506 22.791 43.2614 22.8281 43.7962C22.8667 44.3534 22.754 44.9139 22.9215 45.4712C23.2372 46.5165 24.1971 47.2091 25.2198 47.0899C26.3134 46.9626 27.1493 46.0494 27.1719 44.9268C27.188 44.1231 27.1848 43.3194 27.1687 42.5157C27.1638 42.2355 27.2331 42.1195 27.5327 42.1372C28.1109 42.1694 28.8469 41.9617 29.2238 42.2451C29.5862 42.5173 29.3269 43.2953 29.3333 43.8493C29.3495 45.4776 29.3253 47.1044 29.3478 48.7327C29.3543 49.1466 29.2544 49.2851 28.8196 49.2755C27.5343 49.2465 26.2474 49.2642 24.9621 49.2642L24.9637 49.2658Z" fill="#F0F7FF"/>
<path d="M25.9807 43.6925C25.9807 44.1548 26.0145 44.6186 25.971 45.076C25.9227 45.5963 25.4943 45.9506 24.9853 45.9265C24.4683 45.9023 24.0673 45.643 24.0318 45.1131C23.9722 44.2128 23.9964 43.306 23.9835 42.4024C23.9803 42.2317 24.0399 42.1335 24.2251 42.1447C24.2654 42.148 24.3056 42.1463 24.3459 42.1447C25.4572 42.076 26.0022 42.5919 25.9807 43.6925Z" fill="#7AADF4"/>
<path d="M36.7446 18.5245C38.0631 18.7671 38.6967 19.5214 38.6451 20.7874C38.6129 21.5637 38.3616 21.7135 36.7188 21.91C36.7784 22.216 37.0506 22.3497 37.2278 22.543C37.7142 23.0777 37.7238 23.5979 37.231 24.1343C37.136 24.2373 37.0329 24.334 36.933 24.4338C35.8861 25.4807 35.7557 25.484 34.6234 24.5031C34.538 24.429 34.4704 24.2808 34.3319 24.3565C34.2111 24.4226 34.2497 24.5691 34.2449 24.6851C34.2352 24.9057 34.2385 25.128 34.2143 25.347C34.1982 25.4823 34.1628 25.6257 34.0967 25.7449C33.8423 26.2055 32.6552 26.4487 31.7468 26.1926C31.1783 26.0332 30.9882 25.5886 31.0333 25.0233C31.0446 24.8832 31.0398 24.7415 31.0333 24.6013C31.0172 24.2728 30.8997 24.2857 30.6677 24.4677C29.8173 25.1409 29.0088 25.0942 28.2421 24.3275C27.4304 23.5142 27.4336 23.1937 28.2518 22.3223C28.3533 22.2144 28.5675 22.1306 28.4853 21.9454C28.4048 21.765 28.1987 21.8665 28.0505 21.8633C26.915 21.8375 26.6315 21.5557 26.6267 20.4234C26.6267 20.2623 26.6251 20.1013 26.6267 19.9402C26.6396 18.932 26.9633 18.6098 27.9635 18.5937C28.1358 18.5905 28.3823 18.6904 28.4676 18.5293C28.5933 18.2974 28.3082 18.1991 28.1825 18.0687C27.4594 17.3101 27.4529 16.9203 28.1793 16.1907C28.2921 16.0763 28.408 15.9636 28.5208 15.8492C29.3341 15.0375 29.6869 15.0391 30.526 15.838C30.6436 15.9507 30.7322 16.1907 30.9448 16.086C31.1123 16.0022 31.0253 15.7929 31.0301 15.6415C31.0559 14.4561 31.2701 14.2402 32.4394 14.2402C32.6198 14.2402 32.8018 14.2402 32.9822 14.2402C33.9308 14.2451 34.2208 14.5366 34.2417 15.5046C34.2433 15.5851 34.2352 15.6656 34.2433 15.7462C34.2578 15.8766 34.1853 16.0538 34.3593 16.1134C34.4929 16.1585 34.559 16.0103 34.6443 15.9346C35.6929 14.9972 35.9055 15.0004 36.8702 15.9636C37.8656 16.959 37.8672 17.2022 36.9024 18.2362C36.8283 18.3167 36.6898 18.3731 36.743 18.5277L36.7446 18.5245ZM36.387 17.2601C36.263 16.901 36.0488 16.7721 35.8829 16.6111C35.6671 16.4001 35.5737 16.661 35.4545 16.7608C35.1018 17.0588 34.8312 17.6225 34.2594 17.3536C33.264 16.8849 33.0257 17.1973 33.0965 15.8202C33.1143 15.474 33.0418 15.3371 32.6472 15.3274C32.172 15.3161 32.1125 15.5303 32.1447 15.9072C32.193 16.4935 32.1302 16.9139 31.4279 17.2118C30.6645 17.5339 30.257 17.2859 29.8431 16.7641C29.5918 16.4484 29.4259 16.5499 29.1747 16.785C28.9025 17.0411 28.8928 17.1989 29.1811 17.4325C29.6933 17.8464 29.9848 18.2523 29.6289 19.0157C29.3116 19.6938 28.8977 19.85 28.2695 19.7808C27.8781 19.7373 27.7751 19.8742 27.7622 20.2704C27.7445 20.8583 28.1503 20.6972 28.408 20.6634C29.2617 20.5539 29.4646 21.1353 29.7336 21.7473C29.9784 22.303 29.6498 22.5639 29.3374 22.8748C29.252 22.9601 29.1715 23.0503 29.0813 23.1292C28.9234 23.2677 28.8928 23.366 29.0603 23.5577C29.3631 23.9055 29.6079 24.0457 29.9413 23.5979C30.2941 23.1244 30.6758 22.9682 31.3313 23.2065C32.1044 23.4868 32.2284 23.9587 32.1447 24.6287C32.0931 25.0475 32.2896 25.1151 32.6649 25.128C33.0901 25.1425 33.0998 24.9396 33.1014 24.6207C33.103 24.2518 32.9725 23.8443 33.2995 23.5351C33.9292 22.9408 34.7442 22.936 35.3289 23.5947C35.7025 24.0167 35.928 23.9007 36.2034 23.5399C36.54 23.097 36.0472 22.9601 35.87 22.8264C35.1855 22.3062 35.5656 21.7747 35.7557 21.2206C35.9312 20.7117 36.3258 20.6618 36.7687 20.6746C36.9089 20.6779 37.0506 20.6698 37.1907 20.6746C37.4098 20.6859 37.4935 20.6086 37.5273 20.3702C37.6063 19.8097 37.3196 19.7083 36.8702 19.784C36.0214 19.9273 35.7992 19.3459 35.5398 18.7242C35.3128 18.1814 35.6059 17.8947 35.9409 17.5951C36.0891 17.4615 36.263 17.3536 36.3903 17.2601H36.387Z" fill="#1970EB"/>
<path d="M24.9849 12.3067C22.8348 12.3067 20.683 12.3083 18.5328 12.3067C17.7211 12.3067 17.5954 12.1779 17.5922 11.3581C17.589 10.5544 17.5987 9.75069 17.589 8.94699C17.5825 8.43965 17.8322 8.21094 18.3218 8.21094C22.7639 8.21094 27.206 8.21094 31.6481 8.21094C32.1683 8.21094 32.4212 8.44609 32.4115 8.9792C32.3986 9.7829 32.4115 10.5866 32.4083 11.3903C32.4034 12.1682 32.2682 12.3067 31.4967 12.3067C29.3256 12.31 27.1561 12.3067 24.9849 12.3067ZM24.9962 11.1149H30.118C31.2825 11.1149 31.2583 11.1149 31.2905 9.97778C31.3034 9.50587 31.1762 9.38186 30.701 9.38508C27.1061 9.40601 23.5096 9.39635 19.9147 9.39635C18.7068 9.39635 18.7245 9.39635 18.7132 10.6285C18.71 11.0231 18.8179 11.1278 19.2109 11.1245C21.1388 11.1036 23.0667 11.1149 24.9962 11.1149Z" fill="#1970EB"/>
<path d="M20.9898 21.7021C20.9898 21.0385 20.9801 20.3749 20.993 19.7113C21.0059 19.051 21.3635 18.8191 21.9224 19.1315C23.0933 19.7854 24.2561 20.4554 25.4093 21.1416C25.9892 21.4862 25.9859 21.9517 25.3836 22.2787C24.997 22.4897 24.989 22.6539 25.2145 22.9954C25.5752 23.5462 25.8748 24.1389 26.2098 24.7075C26.4289 25.0795 26.3242 25.3662 25.9876 25.574C25.5108 25.8687 25.0244 26.149 24.5316 26.4147C24.1514 26.6177 23.847 26.521 23.6296 26.1329C23.2962 25.5386 22.9387 24.9603 22.6085 24.3644C22.4732 24.1212 22.3878 24.0085 22.0754 24.1872C21.3152 24.6237 20.9946 24.4095 20.9898 23.514C20.9866 22.91 20.9898 22.3077 20.9898 21.7037V21.7021ZM22.1044 22.8295C22.7035 22.538 23.0369 22.7377 23.2882 23.2322C23.57 23.783 23.897 24.3113 24.2062 24.8492C24.3077 25.0264 24.3802 25.2019 24.6588 25.0328C24.9084 24.8798 24.9374 24.7542 24.7876 24.5126C24.4832 24.0197 24.2239 23.4979 23.9099 23.0099C23.5974 22.5251 23.4621 22.0806 24.0516 21.6731C23.4814 21.3445 22.9596 21.0514 22.4458 20.7437C22.1929 20.5924 22.0963 20.631 22.1011 20.9402C22.114 21.541 22.1044 22.1434 22.1044 22.8295Z" fill="#1970EB"/>
<path d="M16.1849 17.1416C17.5121 17.1416 18.8392 17.1465 20.1664 17.1384C20.5787 17.1352 20.904 17.2254 20.8927 17.715C20.8831 18.1708 20.5658 18.2481 20.1841 18.2481C17.4895 18.2433 14.7949 18.2433 12.1004 18.2481C11.6848 18.2481 11.3547 18.1418 11.3676 17.6715C11.3788 17.2431 11.6913 17.1336 12.0843 17.1368C13.4517 17.1465 14.8191 17.14 16.1865 17.14L16.1849 17.1416Z" fill="#1970EB"/>
<path d="M15.5211 14.2374C16.6453 14.2374 17.7695 14.2422 18.8937 14.2342C19.2851 14.231 19.5799 14.3373 19.5799 14.7866C19.5799 15.2328 19.2932 15.3455 18.897 15.3439C16.6276 15.3375 14.3598 15.3359 12.0905 15.3439C11.6701 15.3439 11.3512 15.2247 11.3657 14.7593C11.3802 14.3276 11.6975 14.2278 12.0873 14.2326C13.2324 14.2439 14.376 14.2358 15.5211 14.2358V14.2374Z" fill="#1970EB"/>
<path d="M14.9412 20.2882C15.8657 20.2882 16.7885 20.293 17.713 20.2849C18.1157 20.2817 18.4588 20.3671 18.4733 20.8422C18.4894 21.3351 18.1366 21.414 17.7372 21.4124C15.8496 21.4108 13.9603 21.4091 12.0727 21.4124C11.6877 21.4124 11.364 21.3012 11.3672 20.8664C11.3704 20.4138 11.6909 20.2785 12.1081 20.2833C13.0519 20.293 13.9957 20.2865 14.9396 20.2865L14.9412 20.2882Z" fill="#1970EB"/>
<path d="M36.3874 17.2593C36.2602 17.3528 36.0879 17.4607 35.9381 17.5943C35.6031 17.8939 35.3115 18.1806 35.537 18.7234C35.7963 19.3451 36.0186 19.9281 36.8674 19.7832C37.3168 19.7075 37.6034 19.8089 37.5245 20.3694C37.4907 20.6078 37.4053 20.6835 37.1879 20.6738C37.0478 20.6674 36.906 20.6755 36.7659 20.6738C36.323 20.661 35.9268 20.7125 35.7528 21.2198C35.5628 21.7739 35.1827 22.3054 35.8672 22.8256C36.0444 22.9609 36.5372 23.0962 36.2006 23.5391C35.9252 23.8999 35.6997 24.0159 35.326 23.5939C34.7414 22.9335 33.9264 22.94 33.2967 23.5343C32.9697 23.8435 33.1002 24.251 33.0985 24.6199C33.0969 24.9388 33.0873 25.1433 32.6621 25.1272C32.2884 25.1143 32.0903 25.0467 32.1418 24.6279C32.2256 23.9579 32.1016 23.486 31.3285 23.2057C30.6746 22.969 30.2929 23.1236 29.9385 23.5971C29.6035 24.0465 29.3603 23.9047 29.0575 23.5568C28.89 23.3652 28.9222 23.2669 29.0784 23.1284C29.1686 23.0495 29.2492 22.9577 29.3345 22.8739C29.647 22.5631 29.9756 22.3006 29.7307 21.7465C29.4618 21.1345 29.2588 20.553 28.4052 20.6626C28.1475 20.6964 27.7416 20.8575 27.7594 20.2696C27.7706 19.8734 27.8737 19.7365 28.2667 19.78C28.8932 19.8508 29.3088 19.693 29.6261 19.0149C29.982 18.2499 29.6905 17.8456 29.1783 17.4317C28.89 17.1981 28.8997 17.0403 29.1719 16.7842C29.4231 16.5491 29.589 16.4476 29.8403 16.7633C30.2542 17.2851 30.6617 17.5348 31.4251 17.211C32.1273 16.9131 32.1902 16.4927 32.1418 15.9064C32.1112 15.5295 32.1708 15.3153 32.6443 15.3266C33.0406 15.3363 33.113 15.4732 33.0937 15.8194C33.0228 17.1965 33.2612 16.8841 34.2566 17.3528C34.8283 17.6217 35.0989 17.0596 35.4517 16.76C35.5708 16.6586 35.6643 16.3977 35.8801 16.6103C36.046 16.7729 36.2602 16.9018 36.3842 17.2593H36.3874ZM30.1721 20.2068C30.1656 21.6144 31.2286 22.7 32.617 22.7032C33.9796 22.7064 35.1247 21.5935 35.1424 20.2454C35.1601 18.9102 34.0069 17.7538 32.6572 17.749C31.2528 17.7457 30.1801 18.8071 30.1737 20.2052L30.1721 20.2068Z" fill="#F0F7FF"/>
<path d="M24.994 11.1185C23.0661 11.1185 21.1366 11.1073 19.2087 11.1282C18.8157 11.133 18.7078 11.0267 18.711 10.6321C18.7223 9.40001 18.7046 9.40001 19.9125 9.40001C23.5074 9.40001 27.1039 9.40967 30.6988 9.38873C31.174 9.38551 31.3012 9.50953 31.2883 9.98144C31.2561 11.1185 31.2803 11.1185 30.1158 11.1185C28.4085 11.1185 26.7013 11.1185 24.994 11.1185Z" fill="#1970EB" fill-opacity="0.56"/>
<path d="M22.1041 22.8299C22.1041 22.1437 22.1122 21.5414 22.1009 20.9406C22.0944 20.6314 22.1911 20.5927 22.4456 20.7441C22.9593 21.0517 23.4812 21.3449 24.0513 21.6734C23.4619 22.0809 23.5955 22.5255 23.9096 23.0103C24.2237 23.4967 24.483 24.0185 24.7874 24.513C24.9372 24.7546 24.9082 24.8802 24.6585 25.0332C24.3815 25.2023 24.309 25.0268 24.206 24.8496C23.8983 24.3116 23.5698 23.7834 23.2879 23.2325C23.0367 22.7381 22.7033 22.54 22.1041 22.8299Z" fill="#1970EB" fill-opacity="0.54"/>
<path d="M30.1725 20.2082C30.179 18.8085 31.2517 17.7471 32.6561 17.752C34.0058 17.7552 35.159 18.9132 35.1413 20.2484C35.1236 21.5965 33.98 22.7094 32.6158 22.7062C31.2275 22.7014 30.1645 21.6175 30.1709 20.2098L30.1725 20.2082ZM33.9559 20.2388C33.9591 19.493 33.3873 18.8875 32.6593 18.8681C31.9507 18.8488 31.271 19.5301 31.2839 20.2468C31.2967 20.9474 31.9442 21.5885 32.6384 21.5868C33.3599 21.5852 33.9527 20.9796 33.9559 20.2372V20.2388Z" fill="#1970EB"/>
<path d="M33.9564 20.2386C33.9532 20.9795 33.3604 21.5867 32.6389 21.5883C31.9463 21.5899 31.2972 20.9472 31.2844 20.2482C31.2715 19.5299 31.9512 18.8502 32.6598 18.8695C33.3878 18.8889 33.9596 19.4945 33.9564 20.2402V20.2386Z" fill="#1970EB" fill-opacity="0.55"/>
<path d="M26.2529 3.18298C26.2529 2.7594 26.5963 2.41602 27.0199 2.41602H28.7072C29.1308 2.41602 29.4742 2.7594 29.4742 3.18298V3.33637C29.4742 3.75995 29.1308 4.10333 28.7072 4.10333H27.0199C26.5963 4.10333 26.2529 3.75995 26.2529 3.33637V3.18298Z" fill="#1970EB"/>
<path d="M30.7627 3.18298C30.7627 2.7594 31.1061 2.41602 31.5297 2.41602H33.217C33.6406 2.41602 33.9839 2.7594 33.9839 3.18298V3.33637C33.9839 3.75995 33.6405 4.10333 33.217 4.10333H31.5297C31.1061 4.10333 30.7627 3.75995 30.7627 3.33637V3.18298Z" fill="#1970EB"/>
<path d="M34.79 3.18298C34.79 2.7594 35.1334 2.41602 35.557 2.41602H37.2443C37.6679 2.41602 38.0113 2.7594 38.0113 3.18298V3.33637C38.0113 3.75995 37.6679 4.10333 37.2443 4.10333H35.557C35.1334 4.10333 34.79 3.75995 34.79 3.33637V3.18298Z" fill="#1970EB"/>
</svg>
