<svg width="133" height="46" viewBox="0 0 133 46" fill="none" xmlns="http://www.w3.org/2000/svg">
<path d="M5.11787 33.5949H11.8221V37.5457H0V16.5353H5.11787V33.5949ZM22.1647 37.7851C20.5285 37.7851 19.052 37.4359 17.735 36.7377C16.438 36.0393 15.4105 35.0416 14.6523 33.7447C13.9141 32.4477 13.5448 30.9313 13.5448 29.1955C13.5448 27.4794 13.9241 25.973 14.6822 24.676C15.4405 23.3592 16.4779 22.3515 17.7949 21.6531C19.1117 20.9549 20.5883 20.6057 22.2244 20.6057C23.8605 20.6057 25.3371 20.9549 26.6539 21.6531C27.9709 22.3515 29.0085 23.3592 29.7666 24.676C30.5249 25.973 30.904 27.4794 30.904 29.1955C30.904 30.9114 30.5149 32.4278 29.7367 33.7447C28.9786 35.0416 27.931 36.0393 26.5941 36.7377C25.2772 37.4359 23.8008 37.7851 22.1647 37.7851ZM22.1647 33.3556C23.1423 33.3556 23.9704 32.9964 24.6487 32.2781C25.3471 31.5599 25.6963 30.5323 25.6963 29.1955C25.6963 27.8586 25.3571 26.8309 24.6786 26.1127C24.0203 25.3944 23.2022 25.0352 22.2244 25.0352C21.2267 25.0352 20.3988 25.3944 19.7403 26.1127C19.0818 26.8111 18.7527 27.8386 18.7527 29.1955C18.7527 30.5323 19.0718 31.5599 19.7103 32.2781C20.3688 32.9964 21.1868 33.3556 22.1647 33.3556ZM40.2635 20.6057C41.4406 20.6057 42.4683 20.8451 43.3461 21.324C44.244 21.8029 44.9323 22.4313 45.4112 23.2095V20.8451H50.5293V37.5158C50.5293 39.0521 50.22 40.4389 49.6014 41.6759C49.0028 42.933 48.0751 43.9307 46.818 44.6689C45.5808 45.4072 44.0345 45.7763 42.1789 45.7763C39.7048 45.7763 37.6995 45.1877 36.1631 44.0104C34.6267 42.8532 33.7489 41.2768 33.5294 39.2817H38.5875C38.747 39.9201 39.1261 40.4189 39.7247 40.7781C40.3232 41.1571 41.0615 41.3468 41.9395 41.3468C42.9969 41.3468 43.835 41.0375 44.4535 40.4189C45.0921 39.8203 45.4112 38.8527 45.4112 37.5158V35.1513C44.9125 35.9294 44.2241 36.5681 43.3461 37.0668C42.4683 37.5457 41.4406 37.7851 40.2635 37.7851C38.8868 37.7851 37.6395 37.4359 36.5222 36.7377C35.4048 36.0192 34.517 35.0117 33.8585 33.7148C33.2201 32.3978 32.9007 30.8813 32.9007 29.1654C32.9007 27.4495 33.2201 25.9431 33.8585 24.6461C34.517 23.3492 35.4048 22.3515 36.5222 21.6531C37.6395 20.9549 38.8868 20.6057 40.2635 20.6057ZM45.4112 29.1955C45.4112 27.9184 45.0522 26.9107 44.3338 26.1726C43.6354 25.4343 42.7774 25.0651 41.7599 25.0651C40.7424 25.0651 39.8744 25.4343 39.156 26.1726C38.4578 26.8908 38.1086 27.8885 38.1086 29.1654C38.1086 30.4425 38.4578 31.4601 39.156 32.2182C39.8744 32.9565 40.7424 33.3257 41.7599 33.3257C42.7774 33.3257 43.6354 32.9565 44.3338 32.2182C45.0522 31.4801 45.4112 30.4724 45.4112 29.1955ZM57.1051 19.1091C56.2071 19.1091 55.4688 18.8497 54.8902 18.331C54.3316 17.7923 54.0521 17.1339 54.0521 16.3557C54.0521 15.5576 54.3316 14.8991 54.8902 14.3804C55.4688 13.8416 56.2071 13.5723 57.1051 13.5723C57.9829 13.5723 58.7013 13.8416 59.26 14.3804C59.8385 14.8991 60.1278 15.5576 60.1278 16.3557C60.1278 17.1339 59.8385 17.7923 59.26 18.331C58.7013 18.8497 57.9829 19.1091 57.1051 19.1091ZM59.6491 20.8451V37.5457H54.531V20.8451H59.6491ZM68.7752 15.398V37.5457H63.6571V15.398H68.7752ZM71.7657 29.1654C71.7657 27.4495 72.085 25.9431 72.7234 24.6461C73.3819 23.3492 74.2698 22.3515 75.3871 21.6531C76.5045 20.9549 77.7515 20.6057 79.1284 20.6057C80.3055 20.6057 81.3331 20.8451 82.211 21.324C83.1089 21.8029 83.7973 22.4313 84.2761 23.2095V20.8451H89.3942V37.5457H84.2761V35.1813C83.7774 35.9595 83.079 36.5879 82.1812 37.0668C81.3032 37.5457 80.2756 37.7851 79.0984 37.7851C77.7417 37.7851 76.5045 37.4359 75.3871 36.7377C74.2698 36.0192 73.3819 35.0117 72.7234 33.7148C72.085 32.3978 71.7657 30.8813 71.7657 29.1654ZM84.2761 29.1955C84.2761 27.9184 83.9171 26.9107 83.1987 26.1726C82.5003 25.4343 81.6424 25.0651 80.6248 25.0651C79.6071 25.0651 78.7393 25.4343 78.0209 26.1726C77.3225 26.8908 76.9735 27.8885 76.9735 29.1654C76.9735 30.4425 77.3225 31.4601 78.0209 32.2182C78.7393 32.9565 79.6071 33.3257 80.6248 33.3257C81.6424 33.3257 82.5003 32.9565 83.1987 32.2182C83.9171 31.4801 84.2761 30.4724 84.2761 29.1955ZM98.5138 23.2095C98.9927 22.4313 99.6811 21.8029 100.579 21.324C101.477 20.8451 102.505 20.6057 103.662 20.6057C105.038 20.6057 106.286 20.9549 107.403 21.6531C108.52 22.3515 109.398 23.3492 110.037 24.6461C110.695 25.9431 111.024 27.4495 111.024 29.1654C111.024 30.8813 110.695 32.3978 110.037 33.7148C109.398 35.0117 108.52 36.0192 107.403 36.7377C106.286 37.4359 105.038 37.7851 103.662 37.7851C102.484 37.7851 101.457 37.5557 100.579 37.0967C99.7011 36.6178 99.0127 35.9894 98.5138 35.2112V37.5457H93.396V15.398H98.5138V23.2095ZM105.817 29.1654C105.817 27.8885 105.457 26.8908 104.739 26.1726C104.041 25.4343 103.173 25.0651 102.135 25.0651C101.118 25.0651 100.25 25.4343 99.5315 26.1726C98.8332 26.9107 98.4839 27.9184 98.4839 29.1955C98.4839 30.4724 98.8332 31.4801 99.5315 32.2182C100.25 32.9565 101.118 33.3257 102.135 33.3257C103.153 33.3257 104.021 32.9565 104.739 32.2182C105.457 31.4601 105.817 30.4425 105.817 29.1654Z" fill="#253858"/>
<path d="M116.873 20.1262C115.996 20.1262 115.203 19.976 114.494 19.6755C113.797 19.3751 113.244 18.9425 112.835 18.3777C112.427 17.8129 112.216 17.146 112.204 16.3769H114.908C114.944 16.8937 115.125 17.3022 115.449 17.6026C115.785 17.9031 116.242 18.0533 116.819 18.0533C117.408 18.0533 117.87 17.9151 118.207 17.6387C118.543 17.3503 118.712 16.9778 118.712 16.5211C118.712 16.1486 118.597 15.8422 118.369 15.6018C118.141 15.3615 117.852 15.1752 117.504 15.0431C117.167 14.8989 116.699 14.7426 116.098 14.5744C115.281 14.3341 114.614 14.0997 114.097 13.8714C113.592 13.6311 113.154 13.2766 112.781 12.8079C112.421 12.3273 112.24 11.6904 112.24 10.8973C112.24 10.1522 112.427 9.50331 112.799 8.95054C113.172 8.39776 113.695 7.97718 114.367 7.68877C115.04 7.38835 115.809 7.23814 116.675 7.23814C117.973 7.23814 119.024 7.55659 119.829 8.19348C120.646 8.81835 121.097 9.69558 121.181 10.8252H118.405C118.381 10.3926 118.195 10.0381 117.846 9.76167C117.51 9.47327 117.059 9.32907 116.494 9.32907C116.002 9.32907 115.605 9.45524 115.305 9.7076C115.016 9.95995 114.872 10.3265 114.872 10.8071C114.872 11.1436 114.98 11.426 115.197 11.6543C115.425 11.8706 115.701 12.0509 116.026 12.1951C116.362 12.3273 116.831 12.4835 117.432 12.6637C118.249 12.9041 118.916 13.1444 119.433 13.3847C119.949 13.6251 120.394 13.9856 120.766 14.4663C121.139 14.9469 121.325 15.5778 121.325 16.3589C121.325 17.0318 121.151 17.6567 120.802 18.2335C120.454 18.8103 119.943 19.273 119.27 19.6215C118.597 19.9579 117.798 20.1262 116.873 20.1262ZM126.037 9.45524V12.6097H130.272V14.6105H126.037V17.9451H130.813V20H123.513V7.40037H130.813V9.45524H126.037Z" fill="#253858"/>
</svg>
