<svg width="192" height="191" viewBox="0 0 192 191" fill="none" xmlns="http://www.w3.org/2000/svg">
<path d="M54.8997 176.316L9.7701 95.4248L54.8997 14.5338H145.1L190.23 95.4248L145.1 176.316H54.8997Z" stroke="#1164E9" stroke-width="2"/>
<path d="M46.9641 176.8L1.83456 95.9092L46.9641 15.0182H137.165L182.294 95.9092L137.165 176.8H46.9641Z" fill="#1164E9" stroke="#1164E9" stroke-width="2"/>
<path d="M67.1959 128.395C63.9699 128.355 61.4081 125.746 61.416 122.496C61.416 119.168 64.0569 116.574 67.4015 116.622C70.6037 116.661 73.205 119.302 73.205 122.52C73.205 125.802 70.5088 128.442 67.1959 128.403V128.395ZM66.3657 125.533C69.3307 126.031 71.0228 124.283 70.3665 122.038C69.1489 123.105 67.781 124.299 66.3657 125.533ZM64.1755 123.058C64.8173 122.474 65.4686 121.881 66.1305 121.279C66.814 120.657 67.5088 120.024 68.2159 119.381C65.1955 119.168 63.9699 120.401 64.1755 123.058Z" fill="white"/>
<path d="M67.1959 128.395C63.9699 128.355 61.4081 125.746 61.416 122.496C61.416 119.168 64.0569 116.574 67.4015 116.622C70.6037 116.661 73.205 119.302 73.205 122.52C73.205 125.802 70.5088 128.442 67.1959 128.403V128.395ZM66.3657 125.533C69.3307 126.031 71.0228 124.283 70.3665 122.038C69.1489 123.105 67.781 124.299 66.3657 125.533ZM64.1755 123.058C64.8173 122.474 65.4686 121.881 66.1305 121.279C66.814 120.657 67.5088 120.024 68.2159 119.381C65.1955 119.168 63.9699 120.401 64.1755 123.058Z" stroke="white"/>
<path d="M77.5497 133.596C77.431 131.239 77.4955 128.873 77.56 126.507C77.6888 121.786 77.8175 117.065 76.4902 112.414C78.0004 113.252 78.7199 114.628 78.7358 116.265C78.7703 119.236 78.7765 122.21 78.7828 125.184C78.788 127.662 78.7933 130.14 78.8148 132.616C78.8227 133.628 78.38 133.794 77.5497 133.588V133.596Z" fill="white"/>
<path d="M77.5497 133.596C77.431 131.239 77.4955 128.873 77.56 126.507C77.6888 121.786 77.8175 117.065 76.4902 112.414C78.0004 113.252 78.7199 114.628 78.7358 116.265C78.7703 119.236 78.7765 122.21 78.7828 125.184C78.788 127.662 78.7933 130.14 78.8148 132.616C78.8227 133.628 78.38 133.794 77.5497 133.588V133.596Z" stroke="white"/>
<path d="M106.58 68.0126C106.596 65.3163 108.77 63.1104 111.459 63.0708C114.21 63.0313 116.471 65.2926 116.456 68.0758C116.44 70.772 114.265 72.9859 111.585 73.0255C108.873 73.0729 106.572 70.7641 106.58 68.0126ZM111.546 65.7196C110.138 65.767 109.11 66.9056 109.237 68.2181C109.371 69.6255 110.257 70.3213 111.601 70.3688C112.898 70.4083 113.91 69.2065 113.799 67.8781C113.68 66.4549 112.763 65.854 111.546 65.7196Z" fill="white"/>
<path d="M106.58 68.0126C106.596 65.3163 108.77 63.1104 111.459 63.0708C114.21 63.0313 116.471 65.2926 116.456 68.0758C116.44 70.772 114.265 72.9859 111.585 73.0255C108.873 73.0729 106.572 70.7641 106.58 68.0126ZM111.546 65.7196C110.138 65.767 109.11 66.9056 109.237 68.2181C109.371 69.6255 110.257 70.3213 111.601 70.3688C112.898 70.4083 113.91 69.2065 113.799 67.8781C113.68 66.4549 112.763 65.854 111.546 65.7196Z" stroke="white"/>
<path d="M97.9547 133.631C96.1203 130.571 96.6501 127.946 98.3422 125.29C102.177 119.257 105.83 113.113 109.696 107.104C111.151 104.835 111.894 102.51 111.752 99.8376C111.673 98.3354 111.744 96.8252 111.736 95.315C111.736 94.1527 111.76 93.2355 110.463 92.3578C108.811 91.2272 109.507 89.0923 109.791 87.4398C110.02 86.0798 111.388 85.8743 112.669 85.8901C116.124 85.9138 119.58 85.9138 123.035 85.8901C124.379 85.8822 125.573 86.0798 126.103 87.511C126.727 89.2109 126.229 92.089 125.028 92.682C124.15 93.109 124 93.6387 124.063 94.4294C124.071 94.5559 124.063 94.6824 124.063 94.8089C124.15 105.515 123.256 102.328 128.752 111.287C131.638 115.991 134.516 120.696 137.489 125.345C139.181 128.002 139.742 130.627 137.923 133.418C137.663 133.821 137.576 134.066 137.987 134.517C139.892 136.62 139.046 139.142 138.809 141.506C138.698 142.59 137.702 143.309 136.54 143.475C135.797 143.578 135.038 143.594 134.286 143.594C105.767 143.594 77.2469 143.594 48.735 143.594C47.9839 143.594 47.2169 143.594 46.4816 143.459C45.1691 143.23 44.2598 142.352 44.1096 141.095C43.9198 139.482 44.0226 137.838 44.0779 136.209C44.0937 135.806 44.2993 135.213 44.5998 135.047C46.7583 133.837 46.2365 131.805 46.2444 129.939C46.2602 125.606 46.2286 121.265 46.2523 116.932C46.276 112.963 48.1895 110.298 51.961 109.041C52.8149 108.756 53.0442 108.543 52.807 107.523C50.1503 96.0819 54.8074 85.6133 64.9993 79.9363C67.0076 78.8135 67.1104 78.1968 65.529 76.6233C63.7105 74.7969 61.9393 72.923 60.0496 71.1756C58.7608 69.9737 58.5236 68.8905 60.018 67.7915C61.3147 66.8427 61.0063 66.1152 59.9547 65.2139C58.7213 64.1544 57.8832 62.6204 55.7562 63.1027C54.76 63.3241 51.2968 59.608 51.1387 58.5247C51.0043 57.655 51.281 56.9276 51.9056 56.3108C54.0405 54.1839 56.1516 52.0254 58.3101 49.9221C59.5831 48.6808 60.785 48.7045 62.0896 49.9221C62.9198 50.6891 63.6867 51.5193 64.4853 52.3179C64.8965 52.7291 65.363 53.2351 65.2207 53.7807C64.5328 56.3583 66.8653 57.1173 68.0117 58.588C68.6759 59.434 69.0633 58.6908 69.4824 58.2875C71.554 56.3504 71.5777 56.3425 73.5228 58.2875C81.5165 66.2813 89.5103 74.2829 97.5198 82.2688C98.5556 83.2967 99.3858 84.2534 97.8836 85.5185C97.1561 86.1352 97.7887 86.4673 98.1366 86.8626C100.182 89.1345 100.103 91.3748 97.8994 93.5834C96.658 94.8247 95.4245 96.0898 94.1595 97.3075C92.7204 98.6991 91.5819 98.6753 90.1033 97.2758C89.107 96.3349 88.3638 94.6745 86.6322 96.5168C86.0471 97.1414 85.2643 96.3745 84.7188 95.8289C82.7184 93.8285 80.7021 91.8439 78.7333 89.8198C78.0771 89.1477 77.6264 88.7602 76.5511 89.3533C74.5427 90.4523 72.3209 90.563 70.2177 89.5351C69.3243 89.0923 68.7313 89.3295 68.0276 89.8356C62.5086 93.7178 60.4845 101.419 63.3942 107.46C63.8291 108.353 64.3114 108.756 65.3788 108.725C68.0117 108.63 70.6526 108.67 73.2935 108.701C78.0059 108.749 81.3268 111.848 81.4058 116.505C81.4296 118.102 81.9988 118.458 83.3667 118.284C83.6751 118.245 83.9913 118.284 84.3076 118.284C88.6247 118.284 88.5852 118.284 88.4191 113.983C88.3796 112.931 87.9922 112.694 87.0671 112.749C86.1262 112.805 85.1853 112.765 84.2444 112.757C83.8016 112.757 83.3588 112.781 82.9318 112.718C80.8365 112.386 80.3384 110.986 80.6626 106.392C80.7891 104.598 81.5877 103.783 83.4062 103.775C89.5024 103.751 95.5906 103.744 101.687 103.775C103.529 103.783 104.32 104.598 104.375 106.4C104.415 107.594 104.407 108.788 104.375 109.982C104.328 111.88 103.537 112.67 101.576 112.749C100.382 112.797 99.1882 112.821 97.9943 112.742C97.0059 112.678 96.6975 113.002 96.7292 113.999C96.8003 116.387 96.7766 118.774 96.745 121.162C96.6975 124.689 94.7999 126.61 91.2419 126.665C88.4191 126.713 85.5885 126.705 82.7658 126.665C81.8091 126.65 81.3979 126.918 81.4533 127.938C81.5482 129.749 80.8919 132.026 81.7616 133.244C82.6156 134.438 85.035 133.584 86.7587 133.615C90.3958 133.687 94.0409 133.639 97.9626 133.639L97.9547 133.631ZM60.1208 60.4382C58.8162 61.3 60.1603 61.6558 60.5082 62.0274C62.8249 64.4706 62.8407 64.4469 63.6788 64.012C64.4853 63.2451 65.2681 62.4465 66.1062 61.7191C66.6755 61.2288 66.549 60.9284 66.0904 60.4065C63.1175 57.0382 63.0937 57.0224 60.1208 60.4382ZM59.4724 108.646C59.9547 108.701 60.445 108.843 60.864 108.543C57.9306 100.249 59.512 93.2276 66.549 87.6928C66.8574 87.4477 67.1973 87.2342 66.6913 86.8626C66.122 85.6292 65.5448 84.4036 65.4025 83.0436C64.683 83.0041 64.2877 83.439 63.8449 83.7711C56.7683 89.1002 53.7558 96.1452 54.9497 104.945C55.4795 108.843 55.4953 108.843 59.4724 108.646ZM77.571 133.568C78.4013 133.774 78.844 133.607 78.8361 132.595C78.7887 127.148 78.8282 121.692 78.7571 116.244C78.7333 114.6 78.0217 113.232 76.5115 112.394C75.6655 111.658 74.6613 111.374 73.5702 111.374C67.0471 111.374 60.524 111.334 54.0088 111.397C51.1545 111.429 48.9801 113.572 48.9406 116.394C48.8615 121.787 48.9169 127.179 48.8852 132.572C48.8852 133.37 49.0829 133.655 49.9289 133.655C59.1482 133.607 68.3596 133.592 77.5789 133.568H77.571ZM117.801 133.631C122.513 133.631 127.218 133.592 131.93 133.655C133.654 133.679 135.022 133.165 135.884 131.647C136.761 130.097 136.397 128.642 135.488 127.227C134.239 125.274 133.013 123.305 131.827 121.312C131.4 120.593 130.934 120.245 130.033 120.316C126.601 120.593 123.304 119.85 120.054 118.814C116.354 117.644 112.717 116.228 108.747 116.213C107.656 116.213 106.929 116.442 106.32 117.47C104.383 120.767 102.327 123.993 100.295 127.227C99.4017 128.65 99.038 130.113 99.9156 131.655C100.777 133.188 102.169 133.663 103.877 133.647C108.526 133.6 113.167 133.631 117.817 133.631H117.801ZM91.5423 140.882C95.3771 140.882 99.204 140.882 103.039 140.882C113.405 140.882 123.77 140.882 134.136 140.866C134.856 140.866 135.955 141.198 136.2 140.431C136.579 139.269 136.611 137.893 136.176 136.731C135.868 135.9 134.832 136.296 134.12 136.296C105.727 136.28 77.3338 136.28 48.9406 136.28C48.4978 136.28 48.055 136.248 47.6202 136.304C47.3355 136.343 46.8611 136.47 46.8216 136.652C46.5053 137.877 46.4421 139.198 46.782 140.368C47.0588 141.34 48.2053 140.858 48.9564 140.858C63.1491 140.89 77.3497 140.882 91.5423 140.882ZM73.2935 74.6941C78.1008 74.7178 82.2598 79.4144 80.6626 83.8185C79.5319 86.9338 80.7417 88.3649 82.6867 90.0411C83.5881 90.816 84.442 91.662 85.209 92.5713C85.9285 93.4252 86.4266 93.2987 87.1461 92.5634C89.5973 90.0411 92.0642 87.5347 94.6181 85.1152C95.5036 84.2692 95.3534 83.8264 94.5627 83.0516C91.147 79.7149 87.8024 76.315 84.4262 72.9388C80.4333 68.9459 76.4325 64.945 72.4395 60.9521C71.973 60.4856 71.633 59.8372 70.8186 60.6833C68.2094 63.3953 65.529 66.052 62.8486 68.6928C62.2635 69.27 62.2714 69.6337 62.8486 70.1872C64.4774 71.7528 66.1062 73.3262 67.6322 74.9945C68.3992 75.8327 69.0317 75.975 70.0122 75.3741C70.9926 74.7732 72.147 74.6941 73.2935 74.6941ZM129.194 117.691C129.313 116.893 128.831 116.505 128.546 116.047C126.878 113.319 125.257 110.559 123.502 107.895C121.991 105.602 121.335 103.143 121.398 100.431C121.446 98.3591 121.406 96.2875 121.398 94.2159C121.398 93.6545 121.477 93.0141 120.608 93.0378C118.615 93.1011 116.283 92.342 114.733 93.3541C113.65 94.0578 114.298 96.4219 114.425 98.0033C114.78 102.534 113.634 106.535 110.906 110.164C110.155 111.168 109.333 112.22 109.008 113.595C116.085 113.524 122.157 117.968 129.194 117.683V117.691ZM73.2302 77.3508C70.3363 77.3349 68.1066 79.5568 68.1145 82.4427C68.1224 85.2734 70.4708 87.6138 73.2539 87.5742C75.9581 87.5347 78.2589 85.2338 78.3143 82.5139C78.3696 79.6912 76.0846 77.3666 73.2302 77.3508ZM92.6414 106.408C89.9451 106.408 87.2489 106.479 84.5606 106.377C83.1532 106.321 83.1849 107.128 83.3114 108.029C83.4221 108.859 82.663 110.156 84.4895 110.14C89.8107 110.093 95.1399 110.093 100.461 110.14C102.414 110.156 101.536 108.764 101.703 107.895C101.9 106.843 101.6 106.313 100.343 106.369C97.7808 106.471 95.2032 106.4 92.6414 106.4V106.408ZM86.9959 124.048C88.4982 124.048 90.0005 124.072 91.5028 124.048C93.1553 124.017 94.0725 123.139 94.1041 121.486C94.1437 118.98 94.0488 116.474 94.1437 113.975C94.199 112.512 93.266 112.821 92.42 112.742C91.4079 112.655 90.9335 112.955 91.0126 114.07C91.0995 115.319 91.0363 116.568 91.0284 117.826C91.0284 119.887 89.9689 120.917 87.8499 120.917C86.3476 120.917 84.8453 120.965 83.343 120.901C82.1412 120.846 81.4058 120.917 81.39 122.53C81.3742 124.285 82.3625 124.064 83.43 124.056C84.616 124.048 85.8099 124.056 86.9959 124.056V124.048ZM62.477 54.1523C61.7417 53.3853 61.1803 52.5946 60.4291 52.0728C59.7808 51.6221 59.5041 52.4998 59.1482 52.8398C57.6064 54.3104 56.1595 55.8918 54.6018 57.3387C53.4475 58.414 54.6018 58.8173 55.1079 59.3628C55.5981 59.9005 56.0251 60.7861 56.9818 59.7503C58.5552 58.0503 60.2473 56.4611 61.8919 54.8164C62.0975 54.6109 62.2793 54.3816 62.477 54.1523ZM117.919 90.4128C119.485 90.4128 121.043 90.3969 122.608 90.4207C123.304 90.4365 123.604 90.223 123.596 89.4639C123.596 88.697 123.256 88.5151 122.576 88.5151C119.453 88.5309 116.322 88.5309 113.199 88.5151C112.472 88.5151 112.226 88.7761 112.211 89.4956C112.203 90.2704 112.543 90.4444 113.223 90.4286C114.788 90.3969 116.346 90.4207 117.911 90.4128H117.919ZM95.3297 87.9221C93.8274 89.4798 92.3409 91.0769 90.7991 92.6188C90.214 93.2039 90.1349 93.5359 90.7675 94.2317C91.7163 95.2833 92.4279 95.7261 93.4637 94.3582C94.0962 93.5201 94.9422 92.8401 95.6855 92.089C97.0454 90.729 96.9268 89.3401 95.3297 87.9221Z" fill="white"/>
<path d="M122.159 78.8192C122.19 81.1754 120.411 83.0177 118.071 83.0493C115.746 83.073 113.841 81.2545 113.809 78.9615C113.77 76.6764 115.644 74.7472 117.937 74.7077C120.237 74.6681 122.127 76.5025 122.159 78.8271V78.8192ZM118.071 77.3248C117.13 77.4039 116.513 77.8941 116.482 78.8192C116.45 79.7443 116.98 80.3373 117.944 80.3768C118.909 80.4164 119.463 79.9024 119.502 78.9378C119.542 77.9732 118.972 77.4829 118.079 77.3169L118.071 77.3248Z" fill="white"/>
<path d="M122.159 78.8192C122.19 81.1754 120.411 83.0177 118.071 83.0493C115.746 83.073 113.841 81.2545 113.809 78.9615C113.77 76.6764 115.644 74.7472 117.937 74.7077C120.237 74.6681 122.127 76.5025 122.159 78.8271V78.8192ZM118.071 77.3248C117.13 77.4039 116.513 77.8941 116.482 78.8192C116.45 79.7443 116.98 80.3373 117.944 80.3768C118.909 80.4164 119.463 79.9024 119.502 78.9378C119.542 77.9732 118.972 77.4829 118.079 77.3169L118.071 77.3248Z" stroke="white"/>
<path d="M74.992 82.2825C74.9445 83.4764 74.4069 84.1643 73.2999 84.2354C72.1851 84.3066 71.4972 83.674 71.4102 82.5987C71.3074 81.4048 72.019 80.6695 73.1734 80.6299C74.2408 80.5983 74.8576 81.2941 74.9999 82.2746L74.992 82.2825Z" fill="white"/>
<path d="M74.992 82.2825C74.9445 83.4764 74.4069 84.1643 73.2999 84.2354C72.1851 84.3066 71.4972 83.674 71.4102 82.5987C71.3074 81.4048 72.019 80.6695 73.1734 80.6299C74.2408 80.5983 74.8576 81.2941 74.9999 82.2746L74.992 82.2825Z" stroke="white"/>
</svg>
