<svg width="191" height="191" viewBox="0 0 191 191" fill="none" xmlns="http://www.w3.org/2000/svg">
<path d="M54.4349 176.355L9.30526 95.4639L54.4349 14.5729H144.635L189.765 95.4639L144.635 176.355H54.4349Z" fill="#1164E9" stroke="#3C81ED" stroke-width="2"/>
<path d="M46.8841 176.363L1.75448 95.4717L46.8841 14.5807H137.085L182.214 95.4717L137.085 176.363H46.8841Z" stroke="#3C81ED" stroke-width="2"/>
<path d="M103.521 61.1875C105.645 61.842 107.875 61.7136 110.042 62.0957C114.348 62.8598 118.598 63.7649 122.431 66.0104C125.293 67.689 126.947 69.9501 126.718 73.4983C126.511 76.7177 126.634 79.9591 126.696 83.191C126.715 84.2182 126.543 84.6535 125.375 84.6066C123.223 84.5189 123.22 84.5972 123.22 82.4832C123.22 80.7232 123.22 78.9632 123.22 77.4286C106.944 83.8706 90.7565 83.8769 74.4559 77.46C74.4559 80.955 74.434 84.6911 74.4684 88.4241C74.4809 89.8209 75.5958 90.4879 76.6105 91.0986C79.0814 92.5862 81.8186 93.4036 84.6152 94.0174C91.173 95.4549 97.8092 95.7586 104.489 95.2701C105.303 95.2106 106.174 95.0791 105.877 96.3599C105.667 97.265 106.681 98.6743 104.555 98.7714C96.8759 99.1159 89.2658 98.8904 81.7904 96.8735C79.2913 96.2002 76.9143 95.2294 74.459 93.7763C74.459 97.3402 74.4026 100.65 74.4872 103.954C74.5185 105.235 75.6334 105.896 76.6105 106.475C79.4134 108.135 82.5107 109.031 85.6769 109.623C91.6866 110.747 97.7465 111.201 103.86 110.653C104.492 110.597 105.519 110.246 105.72 110.844C106.017 111.734 105.826 112.798 105.776 113.785C105.761 114.092 105.391 114.048 105.144 114.064C96.0899 114.671 87.1456 114.242 78.5021 111.164C77.1617 110.688 75.9184 109.939 74.4621 109.234C74.4621 112.654 74.4246 115.914 74.4809 119.175C74.506 120.556 75.6365 121.216 76.6606 121.818C79.4635 123.465 82.5483 124.367 85.7144 124.971C91.7274 126.121 97.7841 126.5 103.9 126.024C104.505 125.977 105.757 125.081 105.833 126.8C105.942 129.278 105.97 129.278 104.151 129.4C103.904 129.415 103.619 129.356 103.528 129.697H101.652C101.104 129.086 100.415 129.494 99.7884 129.437C98.9429 129.44 98.0973 129.444 97.2549 129.447C96.8321 129.472 96.3341 129.124 96.021 129.697H93.5187C93.3465 129.196 92.9143 129.418 92.5948 129.387C88.2136 128.949 83.8417 128.385 79.6859 126.869C76.2347 125.61 72.8274 124.185 70.9922 120.625V70.8865C71.8753 68.0867 74.008 66.4895 76.4915 65.2901C80.0084 63.5833 83.7853 62.7283 87.6342 62.08C89.5884 61.7512 91.6177 61.9172 93.5093 61.1875H95.072C95.379 61.7794 95.8926 61.3973 96.3122 61.4474H97.2455C98.3009 61.4474 99.3531 61.4474 100.409 61.4412C100.831 61.413 101.329 61.7606 101.639 61.1875H103.515H103.521ZM98.7957 78.7126C103.396 78.7659 107.956 78.3494 112.447 77.3911C115.644 76.7083 118.823 75.8659 121.563 73.9587C123.73 72.4492 123.718 70.9741 121.563 69.4302C120.116 68.3936 118.475 67.7328 116.8 67.1816C112.278 65.6941 107.599 65.0677 102.87 64.8015C95.7579 64.4038 88.7209 64.8767 81.8468 66.8528C79.7047 67.4666 77.5813 68.2026 75.79 69.6056C73.9799 71.0211 73.983 72.3834 75.7775 73.7864C77.0176 74.7573 78.4488 75.3711 79.9207 75.8972C86.0276 78.0832 92.3756 78.6563 98.7957 78.7126Z" fill="white"/>
<path d="M113.156 129.452C112.144 129.233 111.891 128.5 111.891 127.592C111.891 115.926 111.891 104.261 111.891 92.5981C111.891 91.2546 112.555 90.5844 113.895 90.5844C119.936 90.5844 125.977 90.5844 132.015 90.5781C132.497 90.5781 132.914 90.6251 133.28 91.0103C136.365 94.2422 139.666 97.2675 142.616 100.631C142.619 109.544 142.622 118.454 142.641 127.367C142.641 127.836 142.3 128.419 142.935 128.77C143.092 129.552 142.779 129.866 141.996 129.709C141.918 129.383 141.664 129.368 141.398 129.368C131.984 129.396 122.567 129.427 113.153 129.455L113.156 129.452ZM114.515 109.995C114.515 115.156 114.54 120.317 114.493 125.478C114.484 126.496 114.637 126.919 115.812 126.912C123.525 126.856 131.242 126.869 138.955 126.9C139.848 126.903 140.23 126.778 140.223 125.738C140.173 118.544 140.186 111.351 140.214 104.154C140.214 103.368 140.054 103.052 139.196 103.093C137.74 103.165 136.277 103.124 134.818 103.111C132.065 103.086 130.443 101.48 130.43 98.7676C130.424 97.3082 130.377 95.8457 130.449 94.3894C130.493 93.4906 130.205 93.2651 129.322 93.2745C124.84 93.3215 120.356 93.3309 115.874 93.2714C114.772 93.2558 114.477 93.5815 114.49 94.6682C114.546 99.776 114.515 104.887 114.515 109.995ZM139.503 100.296C137.32 97.969 135.401 95.924 133.265 93.6441C133.265 95.6515 133.277 97.2581 133.258 98.8678C133.249 99.8042 133.556 100.34 134.611 100.305C136.108 100.258 137.605 100.293 139.5 100.293L139.503 100.296Z" fill="white"/>
</svg>
