<svg width="144" height="125" viewBox="0 0 144 125" fill="none" xmlns="http://www.w3.org/2000/svg">
<path d="M40.007 123.249L5.90503 62.1249L40.007 1H108.165L142.265 62.1249L108.165 123.249H40.007Z" stroke="white" stroke-width="1.51129"/>
<path d="M35.102 124.029L1 62.9042L35.102 1.7793H103.262L137.365 62.9042L103.262 124.029H35.102Z" stroke="white" stroke-width="1.51129"/>
<path d="M64.334 89.1335C52.816 87.7045 44.618 81.6625 40.356 70.9222C33.658 54.039 43.971 35.618 61.806 32.0733C72.895 29.8684 84.893 34.8811 91.081 44.2898C91.575 45.0434 92 45.8082 91.078 46.4724C90.054 47.2121 89.499 46.4278 88.957 45.6714C82.929 37.2619 74.717 33.4689 64.435 34.2587C53.067 35.1323 42.905 44.742 41.194 56.1044C39.047 70.3611 47.775 83.1915 61.878 86.2085C69.439 87.8275 76.437 86.1865 82.739 81.6785C83.155 81.3835 83.565 81.0765 83.956 80.7495C84.631 80.1885 85.34 80.0745 85.898 80.8105C86.44 81.5255 86.161 82.1955 85.494 82.7395C82.507 85.1765 79.18 86.9765 75.482 88.0705C73.657 88.6095 71.809 89.0445 69.897 89.1315C68.041 88.7685 66.188 88.7685 64.332 89.1315L64.334 89.1335Z" fill="white"/>
<path d="M71.357 67.4752C71.385 65.5214 70.673 64.1845 69.281 63.2077C68.014 62.3201 66.596 61.7507 65.13 61.2902C63.573 60.8018 62.08 60.1738 60.732 59.2443C57.812 57.2348 56.989 54.3851 57.642 51.0582C58.228 48.0689 60.134 46.224 63.082 45.5765C64.103 45.3532 64.441 44.9764 64.363 43.9549C64.296 43.0422 64.876 42.4282 65.792 42.4003C66.716 42.3724 67.38 43.0031 67.293 43.874C67.171 45.1132 67.762 45.3839 68.775 45.6658C71.726 46.4892 73.802 49.1295 74.053 52.1857C74.126 53.0873 73.749 53.7711 72.848 53.9609C71.941 54.1534 71.343 53.665 71.05 52.8109C70.975 52.5932 70.964 52.356 70.902 52.1327C69.895 48.4373 66.501 46.9358 63.043 48.6523C59.911 50.2069 59.576 54.6419 62.44 56.7659C63.724 57.7176 65.214 58.2479 66.713 58.7503C68.256 59.2695 69.764 59.8668 71.128 60.7683C74.056 62.7053 74.863 65.5549 74.291 68.8065C73.752 71.8655 71.712 73.6518 68.748 74.3831C67.899 74.5924 67.171 74.6766 67.285 75.8956C67.363 76.7276 66.71 77.3026 65.87 77.3136C64.96 77.3246 64.327 76.7556 64.371 75.8346C64.416 74.8886 64.02 74.7486 63.193 74.6119C59.833 74.0537 57.514 72.22 56.609 68.8261C56.33 67.7822 56.414 66.7998 57.634 66.4648C58.778 66.1522 59.28 66.8947 59.607 67.8939C60.885 71.8041 66.085 73.476 69.47 71.0673C70.774 70.1407 71.363 68.8205 71.357 67.4696V67.4752Z" fill="white"/>
<path d="M107.245 60.1397V63.9746C107.405 64.0499 107.565 64.1253 107.725 64.2007C108.495 63.3661 109.235 62.4981 110.045 61.6999C112.065 59.7098 114.875 59.6317 116.775 61.4766C118.655 63.3019 118.655 66.2046 116.695 68.2002C113.205 71.7421 109.695 75.2643 106.154 78.7533C104.017 80.8603 101.345 80.8633 99.227 78.7723C95.721 75.3123 92.241 71.8258 88.777 68.3231C86.701 66.2214 86.639 63.408 88.562 61.4961C90.452 59.6177 93.313 59.7266 95.398 61.7724C96.188 62.5483 96.952 63.3494 97.734 64.1448C98.211 63.7262 98.016 63.2824 98.016 62.9C98.032 58.2529 98.032 53.6058 98.021 48.9559C98.021 48.0069 98.088 47.0524 99.305 47.0719C100.522 47.0914 100.544 48.0655 100.544 49.0005C100.533 54.9036 100.539 60.8067 100.544 66.707C100.544 67.4662 100.583 68.2365 99.696 68.5687C98.878 68.8729 98.395 68.3119 97.901 67.8179C96.489 66.4028 95.091 64.9766 93.662 63.5782C92.537 62.4758 91.273 62.3837 90.343 63.2936C89.389 64.2286 89.469 65.4399 90.619 66.5954C94.027 70.02 97.446 73.4391 100.874 76.8473C102.166 78.1313 103.196 78.1393 104.477 76.8663C107.905 73.4586 111.325 70.0396 114.735 66.6149C115.835 65.5013 115.935 64.2258 115.035 63.3103C114.105 62.3781 112.865 62.4618 111.735 63.5782C110.275 65.0101 108.835 66.4642 107.395 67.9156C106.883 68.4291 106.367 68.8896 105.571 68.5128C105.192 67.9825 105.259 67.3713 105.259 66.7712C105.259 59.1265 105.259 51.4818 105.259 43.837C105.259 42.7011 105.144 41.5512 105.767 40.5101C105.884 40.485 106.004 40.4627 106.121 40.4375C106.099 41.0209 106.459 41.18 106.955 41.1827V62.6181C107.056 62.6181 107.155 62.6181 107.255 62.6181V60.1397H107.245ZM107.095 63.8713C107.134 63.7932 107.195 63.7206 107.195 63.6508C107.195 63.581 107.126 63.514 107.087 63.4471C107.05 63.5168 106.989 63.5866 106.989 63.6564C106.989 63.7262 107.053 63.7932 107.095 63.8713Z" fill="white"/>
</svg>
