<svg width="144" height="124" viewBox="0 0 144 124" fill="none" xmlns="http://www.w3.org/2000/svg">
<path d="M40.795 122.325L6.95099 61.6623L40.795 1H108.439L142.281 61.6623L108.439 122.325H40.795Z" stroke="white" stroke-width="1.49985"/>
<path d="M34.844 122.688L1 62.0255L34.844 1.36328H102.487L136.331 62.0255L102.487 122.688H34.844Z" stroke="white" stroke-width="1.49985"/>
<path d="M58.825 83.4877C56.406 83.4577 54.485 81.5007 54.491 79.0637C54.491 76.5677 56.471 74.6227 58.979 74.6587C61.381 74.6877 63.332 76.6687 63.332 79.0817C63.332 81.5427 61.31 83.5227 58.825 83.4937V83.4877ZM58.202 81.3407C60.426 81.7147 61.695 80.4037 61.203 78.7197C60.29 79.5207 59.264 80.4157 58.202 81.3407ZM56.56 79.4847C57.041 79.0477 57.53 78.6027 58.026 78.1507C58.539 77.6847 59.06 77.2097 59.59 76.7277C57.325 76.5677 56.406 77.4927 56.56 79.4847Z" fill="white"/>
<path d="M58.825 83.4877C56.406 83.4577 54.485 81.5007 54.491 79.0637C54.491 76.5677 56.471 74.6227 58.979 74.6587C61.381 74.6877 63.332 76.6687 63.332 79.0817C63.332 81.5427 61.31 83.5227 58.825 83.4937V83.4877ZM58.202 81.3407C60.426 81.7147 61.695 80.4037 61.203 78.7197C60.29 79.5207 59.264 80.4157 58.202 81.3407ZM56.56 79.4847C57.041 79.0477 57.53 78.6027 58.026 78.1507C58.539 77.6847 59.06 77.2097 59.59 76.7277C57.325 76.5677 56.406 77.4927 56.56 79.4847Z" stroke="white"/>
<path d="M88.362 38.2049C88.374 36.1829 90.004 34.5286 92.02 34.4989C94.084 34.4693 95.78 36.1651 95.768 38.2523C95.756 40.2743 94.125 41.9345 92.115 41.9642C90.081 41.9997 88.356 40.2683 88.362 38.2049ZM92.085 36.4853C91.03 36.5209 90.259 37.3747 90.354 38.359C90.455 39.4145 91.119 39.9363 92.127 39.9719C93.099 40.0015 93.858 39.1002 93.775 38.1041C93.686 37.0368 92.999 36.5861 92.085 36.4853Z" fill="white"/>
<path d="M88.362 38.2049C88.374 36.1829 90.004 34.5286 92.02 34.4989C94.084 34.4693 95.78 36.1651 95.768 38.2523C95.756 40.2743 94.125 41.9345 92.115 41.9642C90.081 41.9997 88.356 40.2683 88.362 38.2049ZM92.085 36.4853C91.03 36.5209 90.259 37.3747 90.354 38.359C90.455 39.4145 91.119 39.9363 92.127 39.9719C93.099 40.0015 93.858 39.1002 93.775 38.1041C93.686 37.0368 92.999 36.5861 92.085 36.4853Z" stroke="white"/>
<path d="M81.894 87.4144C80.518 85.1194 80.916 83.1504 82.185 81.1584C85.06 76.6344 87.8 72.0269 90.699 67.5204C91.79 65.8187 92.348 64.0754 92.241 62.0712C92.182 60.9446 92.235 59.8121 92.229 58.6796C92.229 57.8079 92.247 57.1201 91.275 56.4619C90.035 55.614 90.557 54.0131 90.771 52.7738C90.942 51.7539 91.968 51.5998 92.929 51.6116C95.52 51.6294 98.111 51.6294 100.702 51.6116C101.71 51.6057 102.606 51.7539 103.003 52.8272C103.471 54.102 103.098 56.2603 102.197 56.705C101.538 57.0252 101.426 57.4225 101.473 58.0155C101.479 58.1103 101.473 58.2052 101.473 58.3001C101.538 66.3286 100.868 63.939 104.989 70.6572C107.154 74.1854 109.311 77.7134 111.541 81.1994C112.811 83.1924 113.231 85.1604 111.871 87.2534C111.671 87.5564 111.611 87.7404 111.911 88.0784C113.341 89.6554 112.711 91.5464 112.531 93.3194C112.451 94.1324 111.701 94.6714 110.831 94.7964C110.271 94.8734 109.701 94.8854 109.14 94.8854C87.752 94.8854 66.365 94.8854 44.983 94.8854C44.42 94.8854 43.844 94.8854 43.293 94.7844C42.309 94.6124 41.627 93.9544 41.514 93.0114C41.372 91.8014 41.449 90.5684 41.49 89.3474C41.502 89.0444 41.656 88.5994 41.882 88.4754C43.501 87.5684 43.109 86.0444 43.115 84.6444C43.127 81.3954 43.103 78.1404 43.121 74.8904C43.139 71.9142 44.574 69.916 47.402 68.9732C48.043 68.7597 48.215 68.5996 48.037 67.8347C46.044 59.2547 49.537 51.4041 57.18 47.1467C58.686 46.3047 58.763 45.8422 57.577 44.6622C56.213 43.2925 54.885 41.8872 53.468 40.5768C52.502 39.6755 52.324 38.8632 53.444 38.039C54.417 37.3275 54.186 36.7819 53.397 36.106C52.472 35.3114 51.843 34.1611 50.248 34.5228C49.501 34.6888 46.904 31.902 46.785 31.0896C46.685 30.4374 46.892 29.8919 47.361 29.4294C48.962 27.8343 50.545 26.2156 52.164 24.6383C53.118 23.7074 54.019 23.7252 54.998 24.6383C55.62 25.2135 56.196 25.8361 56.794 26.435C57.103 26.7433 57.453 27.1228 57.346 27.5319C56.83 29.4649 58.579 30.0342 59.439 31.1371C59.937 31.7715 60.228 31.2141 60.542 30.9117C62.095 29.459 62.113 29.4531 63.572 30.9117C69.567 36.9065 75.561 42.9071 81.568 48.8959C82.345 49.6667 82.967 50.3842 81.841 51.3329C81.295 51.7954 81.77 52.0445 82.03 52.3409C83.564 54.0447 83.505 55.7247 81.853 57.381C80.922 58.3119 79.997 59.2607 79.048 60.1738C77.969 61.2174 77.115 61.1996 76.006 60.1501C75.259 59.4445 74.702 58.1993 73.403 59.5809C72.964 60.0493 72.377 59.4741 71.968 59.065C70.468 57.5648 68.956 56.0765 67.479 54.5586C66.987 54.0546 66.649 53.764 65.843 54.2087C64.337 55.0329 62.671 55.1159 61.093 54.3451C60.423 54.0131 59.979 54.1909 59.451 54.5704C55.312 57.4818 53.794 63.2571 55.976 67.7873C56.302 68.4573 56.664 68.7597 57.465 68.736C59.439 68.6648 61.419 68.6945 63.4 68.7182C66.934 68.7538 69.424 71.0781 69.484 74.5704C69.501 75.7684 69.928 76.0354 70.954 75.9044C71.185 75.8754 71.423 75.9044 71.66 75.9044C74.897 75.9044 74.868 75.9044 74.743 72.6791C74.713 71.8905 74.423 71.7126 73.729 71.7541C73.024 71.7956 72.318 71.766 71.612 71.76C71.28 71.76 70.948 71.7778 70.628 71.7304C69.057 71.4814 68.683 70.4318 68.926 66.9868C69.021 65.6408 69.62 65.0301 70.984 65.0241C75.555 65.0063 80.121 65.0004 84.693 65.0241C86.074 65.0301 86.667 65.6408 86.709 66.9927C86.738 67.8881 86.733 68.7834 86.709 69.6788C86.673 71.1019 86.08 71.6948 84.61 71.7541C83.714 71.7897 82.819 71.8075 81.924 71.7482C81.183 71.7007 80.951 71.9439 80.975 72.691C81.028 74.4814 81.011 76.2724 80.987 78.0634C80.951 80.7074 79.528 82.1484 76.86 82.1904C74.743 82.2254 72.62 82.2194 70.503 82.1904C69.786 82.1784 69.478 82.3794 69.519 83.1444C69.59 84.5024 69.098 86.2104 69.75 87.1234C70.391 88.0184 72.205 87.3784 73.498 87.4024C76.225 87.4554 78.959 87.4194 81.9 87.4194L81.894 87.4144ZM53.521 32.5246C52.543 33.1709 53.551 33.4377 53.812 33.7164C55.549 35.5486 55.561 35.5308 56.19 35.2047C56.794 34.6295 57.382 34.0307 58.01 33.4851C58.437 33.1175 58.342 32.8922 57.998 32.5008C55.769 29.9749 55.751 29.963 53.521 32.5246ZM53.035 68.6767C53.397 68.7182 53.765 68.8249 54.079 68.5996C51.879 62.3796 53.065 57.1142 58.342 52.9635C58.573 52.7797 58.828 52.6196 58.449 52.3409C58.022 51.4159 57.589 50.4969 57.482 49.477C56.943 49.4473 56.646 49.7735 56.314 50.0225C51.007 54.019 48.748 59.3022 49.644 65.9017C50.041 68.8249 50.053 68.8249 53.035 68.6767ZM66.608 87.3664C67.23 87.5204 67.562 87.3964 67.557 86.6374C67.521 82.5514 67.551 78.4604 67.497 74.3754C67.479 73.1416 66.946 72.1158 65.813 71.4873C65.179 70.9358 64.426 70.7224 63.607 70.7224C58.716 70.7224 53.824 70.6927 48.938 70.7402C46.797 70.7639 45.167 72.3708 45.137 74.4874C45.078 78.5314 45.119 82.5754 45.096 86.6194C45.096 87.2184 45.244 87.4314 45.878 87.4314C52.792 87.3964 59.7 87.3844 66.614 87.3664H66.608ZM96.777 87.4144C100.311 87.4144 103.839 87.3844 107.373 87.4314C108.666 87.4494 109.691 87.0644 110.341 85.9254C111.001 84.7634 110.721 83.6724 110.041 82.6114C109.105 81.1464 108.185 79.6704 107.296 78.1754C106.976 77.6364 106.626 77.3754 105.95 77.4284C103.377 77.6364 100.904 77.0784 98.467 76.3024C95.692 75.4244 92.964 74.3634 89.988 74.3514C89.17 74.3514 88.624 74.5234 88.167 75.2944C86.715 77.7664 85.173 80.1854 83.649 82.6114C82.979 83.6784 82.706 84.7754 83.365 85.9314C84.011 87.0814 85.054 87.4374 86.335 87.4254C89.822 87.3904 93.302 87.4144 96.789 87.4144H96.777ZM77.085 92.8514C79.961 92.8514 82.831 92.8514 85.707 92.8514C93.48 92.8514 101.254 92.8514 109.027 92.8394C109.571 92.8394 110.391 93.0884 110.571 92.5134C110.861 91.6414 110.881 90.6104 110.561 89.7384C110.321 89.1154 109.551 89.4124 109.016 89.4124C87.723 89.4004 66.43 89.4004 45.137 89.4004C44.805 89.4004 44.473 89.3764 44.147 89.4184C43.933 89.4474 43.578 89.5424 43.548 89.6794C43.311 90.5984 43.263 91.5884 43.518 92.4654C43.726 93.1954 44.586 92.8334 45.149 92.8334C55.792 92.8574 66.442 92.8514 77.085 92.8514ZM63.4 43.2154C67.005 43.2332 70.124 46.7554 68.926 50.0581C68.078 52.3943 68.986 53.4675 70.444 54.7246C71.12 55.3057 71.761 55.9401 72.336 56.622C72.875 57.2624 73.249 57.1676 73.788 56.6161C75.627 54.7246 77.477 52.8449 79.392 51.0305C80.056 50.3961 79.943 50.064 79.35 49.4829C76.789 46.9807 74.281 44.431 71.749 41.8991C68.754 38.9047 65.754 35.9044 62.76 32.91C62.41 32.5601 62.155 32.0739 61.544 32.7084C59.587 34.7422 57.577 36.7345 55.567 38.715C55.128 39.1478 55.134 39.4206 55.567 39.8356C56.789 41.0097 58.01 42.1896 59.154 43.4408C59.73 44.0693 60.204 44.176 60.939 43.7254C61.674 43.2747 62.54 43.2154 63.4 43.2154ZM105.321 75.4604C105.41 74.8614 105.049 74.5704 104.835 74.2264C103.584 72.181 102.369 70.1116 101.052 68.1134C99.92 66.3938 99.428 64.5498 99.475 62.516C99.511 60.9624 99.481 59.4089 99.475 57.8554C99.475 57.4344 99.534 56.9541 98.882 56.9719C97.388 57.0193 95.639 56.4501 94.476 57.2091C93.664 57.7368 94.15 59.5097 94.245 60.6956C94.512 64.0932 93.652 67.0935 91.607 69.8152C91.043 70.5682 90.427 71.3568 90.183 72.3886C95.49 72.3352 100.044 75.6674 105.321 75.4544V75.4604ZM63.353 45.2078C61.182 45.1959 59.51 46.8621 59.516 49.0264C59.522 51.1491 61.283 52.9042 63.37 52.8746C65.398 52.8449 67.124 51.1195 67.165 49.0797C67.207 46.9629 65.493 45.2196 63.353 45.2078ZM77.909 66.9987C75.887 66.9987 73.866 67.052 71.849 66.9749C70.794 66.9334 70.818 67.5382 70.913 68.2142C70.996 68.8368 70.426 69.8092 71.796 69.7974C75.787 69.7618 79.783 69.7618 83.774 69.7974C85.238 69.8092 84.58 68.7656 84.705 68.1134C84.853 67.3248 84.628 66.9275 83.685 66.969C81.764 67.0461 79.831 66.9927 77.909 66.9927V66.9987ZM73.676 80.2274C74.802 80.2274 75.929 80.2454 77.056 80.2274C78.295 80.2034 78.983 79.5454 79.006 78.3064C79.036 76.4264 78.965 74.5474 79.036 72.6732C79.078 71.5762 78.378 71.8075 77.743 71.7482C76.984 71.683 76.629 71.9083 76.688 72.7443C76.753 73.6812 76.706 74.6184 76.7 75.5604C76.7 77.1064 75.905 77.8794 74.316 77.8794C73.19 77.8794 72.063 77.9144 70.936 77.8674C70.035 77.8264 69.484 77.8794 69.472 79.0894C69.46 80.4054 70.201 80.2394 71.002 80.2334C71.891 80.2274 72.786 80.2334 73.676 80.2334V80.2274ZM55.288 27.8106C54.737 27.2355 54.316 26.6425 53.753 26.2512C53.266 25.9132 53.059 26.5713 52.792 26.8263C51.636 27.9292 50.551 29.1151 49.383 30.2002C48.517 31.0066 49.383 31.309 49.762 31.7182C50.13 32.1214 50.45 32.7855 51.167 32.0087C52.347 30.7339 53.616 29.542 54.85 28.3087C55.004 28.1545 55.14 27.9826 55.288 27.8106ZM96.866 55.0033C98.04 55.0033 99.208 54.9914 100.382 55.0092C100.904 55.0211 101.129 54.861 101.123 54.2917C101.123 53.7166 100.868 53.5802 100.359 53.5802C98.016 53.5921 95.668 53.5921 93.326 53.5802C92.781 53.5802 92.597 53.7759 92.585 54.3155C92.579 54.8966 92.834 55.027 93.344 55.0151C94.518 54.9914 95.686 55.0092 96.86 55.0033H96.866ZM79.925 53.1355C78.799 54.3036 77.684 55.5014 76.528 56.6576C76.089 57.0964 76.03 57.3454 76.504 57.8672C77.216 58.6559 77.749 58.9879 78.526 57.9621C79 57.3336 79.635 56.8236 80.192 56.2603C81.212 55.2405 81.123 54.1988 79.925 53.1355Z" fill="white"/>
<path d="M100.044 46.3089C100.067 48.0759 98.7329 49.4575 96.9779 49.4812C95.2349 49.499 93.806 48.1352 93.782 46.4156C93.752 44.702 95.158 43.2552 96.877 43.2256C98.603 43.1959 100.02 44.5716 100.044 46.3148V46.3089ZM96.9779 45.1882C96.2719 45.2475 95.81 45.6152 95.786 46.3089C95.763 47.0027 96.16 47.4474 96.883 47.477C97.607 47.5067 98.0219 47.1213 98.0509 46.3979C98.0809 45.6745 97.654 45.3068 96.984 45.1823L96.9779 45.1882Z" fill="white"/>
<path d="M100.044 46.3089C100.067 48.0759 98.7329 49.4575 96.9779 49.4812C95.2349 49.499 93.806 48.1352 93.782 46.4156C93.752 44.702 95.158 43.2552 96.877 43.2256C98.603 43.1959 100.02 44.5716 100.044 46.3148V46.3089ZM96.9779 45.1882C96.2719 45.2475 95.81 45.6152 95.786 46.3089C95.763 47.0027 96.16 47.4474 96.883 47.477C97.607 47.5067 98.0219 47.1213 98.0509 46.3979C98.0809 45.6745 97.654 45.3068 96.984 45.1823L96.9779 45.1882Z" stroke="white"/>
<path d="M64.672 48.9061C64.637 49.8014 64.234 50.3173 63.403 50.3707C62.567 50.424 62.051 49.9497 61.986 49.1433C61.909 48.2479 62.443 47.6965 63.309 47.6668C64.109 47.6431 64.572 48.1649 64.678 48.9002L64.672 48.9061Z" fill="white"/>
<path d="M64.672 48.9061C64.637 49.8014 64.234 50.3173 63.403 50.3707C62.567 50.424 62.051 49.9497 61.986 49.1433C61.909 48.2479 62.443 47.6965 63.309 47.6668C64.109 47.6431 64.572 48.1649 64.678 48.9002L64.672 48.9061Z" stroke="white"/>
</svg>
