<svg width="145" height="125" viewBox="0 0 145 125" fill="none" xmlns="http://www.w3.org/2000/svg">
<path d="M35.1494 123.426L1 62.2163L35.1494 1.00635H103.404L137.553 62.2163L103.404 123.426H35.1494Z" stroke="white" stroke-width="1.51339"/>
<path d="M72.6485 43.0552C74.2555 43.5505 75.9425 43.4534 77.5825 43.7425C80.8405 44.3207 84.0565 45.0056 86.9575 46.7047C89.1235 47.9749 90.3745 49.6859 90.2015 52.3708C90.0455 54.8069 90.1375 57.2596 90.1845 59.7052C90.1995 60.4825 90.0685 60.8119 89.1845 60.7764C87.5565 60.71 87.5545 60.7693 87.5545 59.1697C87.5545 57.8379 87.5545 56.5061 87.5545 55.3449C75.2385 60.2195 62.9895 60.2242 50.6545 55.3686C50.6545 58.0132 50.6385 60.8404 50.6645 63.6651C50.6735 64.722 51.5175 65.2268 52.2855 65.6889C54.1555 66.8145 56.2265 67.4331 58.3425 67.8975C63.3045 68.9853 68.3265 69.2151 73.3805 68.8454C73.9975 68.8004 74.6555 68.7009 74.4305 69.6701C74.2715 70.355 75.0395 71.4214 73.4305 71.4948C67.6205 71.7555 61.8615 71.5849 56.2045 70.0588C54.3135 69.5493 52.5155 68.8146 50.6575 67.7151C50.6575 70.4119 50.6145 72.9167 50.6785 75.4173C50.7025 76.3863 51.5455 76.8863 52.2855 77.3243C54.4065 78.5803 56.7495 79.2583 59.1455 79.7063C63.6935 80.5573 68.2785 80.9003 72.9045 80.4853C73.3835 80.4433 74.1605 80.1773 74.3125 80.6303C74.5375 81.3033 74.3925 82.1093 74.3545 82.8553C74.3435 83.0873 74.0635 83.0543 73.8765 83.0663C67.0255 83.5263 60.2575 83.2013 53.7165 80.8723C52.7025 80.5123 51.7615 79.9453 50.6595 79.4123C50.6595 82.0003 50.6315 84.4673 50.6735 86.9343C50.6925 87.9793 51.5485 88.4793 52.3235 88.9343C54.4445 90.1803 56.7785 90.8633 59.1745 91.3203C63.7245 92.1903 68.3075 92.4763 72.9355 92.1163C73.3925 92.0813 74.3405 91.4033 74.3975 92.7043C74.4805 94.5783 74.5015 94.5783 73.1255 94.6713C72.9375 94.6833 72.7225 94.6383 72.6535 94.8963H71.2335C70.8195 94.4343 70.2975 94.7423 69.8235 94.6993C69.1845 94.7023 68.5445 94.7043 67.9065 94.7063C67.5865 94.7253 67.2105 94.4623 66.9735 94.8963H65.0795C64.9495 94.5173 64.6225 94.6853 64.3805 94.6613C61.0655 94.3303 57.7575 93.9033 54.6125 92.7563C52.0005 91.8033 49.4225 90.7253 48.0339 88.0313V50.3944C48.7022 48.2758 50.3155 47.0673 52.1955 46.1596C54.8565 44.8681 57.7145 44.2212 60.6265 43.7306C62.1055 43.4818 63.6415 43.6074 65.0725 43.0552H66.2555C66.4875 43.5031 66.8755 43.214 67.1935 43.2519H67.8995C68.6985 43.2519 69.4945 43.2519 70.2935 43.2472C70.6135 43.2259 70.9895 43.4889 71.2245 43.0552H72.6435H72.6485ZM69.0725 56.3165C72.5535 56.3568 76.0045 56.0416 79.4025 55.3164C81.8225 54.7998 84.2275 54.1624 86.3005 52.7192C87.9405 51.5769 87.9315 50.4608 86.3005 49.2925C85.2065 48.5081 83.9645 48.0081 82.6965 47.591C79.2745 46.4653 75.7345 45.9914 72.1555 45.79C66.7745 45.489 61.4495 45.8468 56.2475 47.3422C54.6265 47.8066 53.0195 48.3635 51.6645 49.4252C50.2945 50.4963 50.2975 51.5272 51.6545 52.5888C52.5935 53.3235 53.6765 53.7879 54.7905 54.1861C59.4115 55.8402 64.2145 56.2738 69.0725 56.3165Z" fill="white"/>
<path d="M79.9386 94.7112C79.1736 94.5452 78.9816 93.9902 78.9816 93.3032C78.9816 84.4762 78.9816 75.6482 78.9816 66.8234C78.9816 65.8068 79.4836 65.2996 80.4976 65.2996C85.0696 65.2996 89.6406 65.2996 94.2096 65.2949C94.5746 65.2949 94.8896 65.3304 95.1666 65.6219C97.5006 68.0675 99.9986 70.3567 102.231 72.9019C102.234 79.6462 102.236 86.3882 102.25 93.1322C102.25 93.4882 101.992 93.9292 102.473 94.1942C102.592 94.7862 102.355 95.0232 101.762 94.9052C101.703 94.6592 101.511 94.6472 101.31 94.6472C94.1856 94.6682 87.0596 94.6922 79.9366 94.7132L79.9386 94.7112ZM80.9676 79.9872C80.9676 83.8932 80.9856 87.7982 80.9506 91.7032C80.9436 92.4742 81.0596 92.7932 81.9486 92.7892C87.7846 92.7462 93.6236 92.7562 99.4606 92.7792C100.137 92.7822 100.426 92.6872 100.421 91.9002C100.383 86.4572 100.393 81.0132 100.414 75.5682C100.414 74.9732 100.293 74.7332 99.6436 74.7642C98.5416 74.8192 97.4346 74.7882 96.3306 74.7792C94.2476 74.7602 93.0196 73.5441 93.0106 71.4918C93.0056 70.3875 92.9696 69.2808 93.0246 68.1789C93.0576 67.4988 92.8396 67.3282 92.1716 67.3353C88.7806 67.3708 85.3866 67.3779 81.9956 67.3329C81.1616 67.321 80.9386 67.5675 80.9486 68.3898C80.9906 72.2549 80.9676 76.1222 80.9676 79.9872ZM99.8756 72.6483C98.2236 70.8875 96.7716 69.3401 95.1546 67.6149C95.1546 69.1339 95.1646 70.3496 95.1506 71.5677C95.1426 72.2762 95.3756 72.6815 96.1736 72.6554C97.3066 72.6199 98.4396 72.6459 99.8736 72.6459L99.8756 72.6483Z" fill="white"/>
<path d="M40.8623 123.42L6.71289 62.2099L40.8623 1H109.116L143.266 62.2099L109.116 123.42H40.8623Z" stroke="white" stroke-width="1.51339"/>
</svg>
