<svg width="412" height="447" viewBox="0 0 412 447" fill="none" xmlns="http://www.w3.org/2000/svg">
<path d="M170.96 101.754V82.9072H161.103V101.754H152.26L166.037 115.523L179.813 101.754H170.96Z" fill="#1164E9"/>
<path d="M187.996 123.524H144.072V113.688H147.666V119.938H184.417V113.688H188.011L187.996 123.524Z" fill="#BED6FA"/>
<path d="M119.816 96.6016H83.8809C82.1582 96.6016 80.7617 97.9981 80.7617 99.7207V133.755C80.7617 135.478 82.1582 136.874 83.8809 136.874H119.816C121.538 136.874 122.935 135.478 122.935 133.755V99.7207C122.935 97.9981 121.538 96.6016 119.816 96.6016Z" fill="#BED6FA"/>
<path d="M83.4354 136.873H120.272C120.98 136.873 121.66 136.592 122.161 136.091C122.662 135.59 122.943 134.911 122.943 134.202V127.494L118.46 121.728C118.082 121.242 117.598 120.847 117.044 120.576C116.491 120.305 115.882 120.164 115.266 120.164C114.65 120.164 114.041 120.305 113.488 120.576C112.934 120.847 112.45 121.242 112.072 121.728L109.601 124.894C109.297 125.283 108.913 125.602 108.475 125.83C108.036 126.058 107.554 126.188 107.061 126.213C106.568 126.238 106.075 126.156 105.616 125.974C105.157 125.792 104.742 125.513 104.401 125.156L96.4794 116.869C96.0815 116.451 95.5986 116.123 95.0633 115.907C94.528 115.691 93.9527 115.593 93.376 115.618C92.7993 115.643 92.2347 115.791 91.72 116.052C91.2054 116.313 90.7527 116.682 90.3924 117.133L80.7715 129.126V134.208C80.773 134.914 81.0542 135.591 81.5533 136.09C82.0525 136.59 82.7292 136.871 83.4354 136.873Z" fill="#1164E9"/>
<path d="M110.972 109.048C110.972 109.824 110.742 110.583 110.311 111.228C109.88 111.874 109.268 112.377 108.551 112.674C107.834 112.971 107.045 113.049 106.284 112.897C105.523 112.746 104.823 112.372 104.275 111.824C103.726 111.275 103.352 110.576 103.201 109.814C103.049 109.053 103.127 108.264 103.424 107.547C103.722 106.83 104.225 106.218 104.87 105.787C105.515 105.356 106.274 105.126 107.05 105.126C108.09 105.126 109.088 105.539 109.823 106.275C110.559 107.01 110.972 108.008 110.972 109.048Z" fill="#F9CF70"/>
<path d="M325.075 65.708H272.821C271.075 65.708 269.66 67.1232 269.66 68.869V105.49C269.66 107.236 271.075 108.651 272.821 108.651H325.075C326.821 108.651 328.236 107.236 328.236 105.49V68.869C328.236 67.1232 326.821 65.708 325.075 65.708Z" fill="#BED6FA"/>
<path d="M292.533 80.2405V93.9869C292.533 94.1173 292.567 94.2456 292.631 94.3594C292.695 94.4731 292.787 94.5684 292.898 94.6361C293.01 94.7038 293.137 94.7417 293.267 94.746C293.398 94.7503 293.527 94.7209 293.643 94.6607L308.617 86.8741C308.746 86.8073 308.854 86.7045 308.927 86.5782C308.999 86.4518 309.034 86.3072 309.027 86.1616C309.02 86.016 308.971 85.8756 308.886 85.7571C308.801 85.6386 308.684 85.5471 308.548 85.4935L293.574 79.5278C293.458 79.4815 293.333 79.4645 293.209 79.4782C293.085 79.492 292.966 79.536 292.863 79.6065C292.76 79.6769 292.676 79.7716 292.619 79.8822C292.561 79.9928 292.532 80.1159 292.533 80.2405Z" fill="#1164E9"/>
<path d="M245.181 57.7686H197.252V89.1994H245.181V57.7686Z" fill="#1164E9"/>
<path d="M244.363 97.1472H197.644C197.312 97.1478 196.983 97.0829 196.676 96.9561C196.369 96.8293 196.09 96.6431 195.855 96.4083C195.62 96.1735 195.433 95.8946 195.306 95.5877C195.179 95.2807 195.114 94.9518 195.115 94.6196V62.425C195.115 61.7555 195.381 61.1133 195.854 60.6398C196.328 60.1664 196.97 59.9004 197.639 59.9004H207.696C208.249 59.9003 208.787 60.0818 209.227 60.4169C209.666 60.7521 209.984 61.2225 210.131 61.7557L211.528 64.9003C211.674 65.4335 211.992 65.9039 212.432 66.239C212.872 66.5742 213.41 66.7557 213.963 66.7556H244.36C245.03 66.756 245.672 67.0221 246.145 67.4955C246.618 67.9689 246.885 68.6108 246.885 69.2802V94.6196C246.885 94.9511 246.82 95.2795 246.694 95.586C246.567 95.8924 246.382 96.1709 246.148 96.4057C245.913 96.6404 245.635 96.8267 245.329 96.9539C245.023 97.0811 244.695 97.1468 244.363 97.1472Z" fill="#BED6FA"/>
<path d="M158.041 47.3579C158.042 53.0274 156.361 58.5697 153.211 63.2838C150.062 67.998 145.585 71.6723 140.347 73.8421C135.109 76.0119 129.345 76.5798 123.785 75.4739C118.224 74.368 113.116 71.6381 109.107 67.6292C105.098 63.6204 102.368 58.5128 101.262 52.9522C100.156 47.3917 100.723 41.628 102.893 36.3901C105.062 31.1521 108.737 26.6752 113.451 23.5253C118.165 20.3755 123.707 18.6943 129.376 18.6943C136.978 18.6943 144.269 21.7141 149.645 27.0896C155.021 32.465 158.041 39.7557 158.041 47.3579Z" fill="#BED6FA"/>
<path d="M138.178 40.8615C138.178 42.6023 137.661 44.304 136.694 45.7515C135.727 47.199 134.352 48.3271 132.744 48.9933C131.136 49.6595 129.366 49.8338 127.659 49.4942C125.951 49.1546 124.383 48.3163 123.152 47.0853C121.921 45.8543 121.083 44.286 120.743 42.5786C120.403 40.8712 120.578 39.1015 121.244 37.4931C121.91 35.8848 123.038 34.5102 124.486 33.543C125.933 32.5758 127.635 32.0596 129.376 32.0596C131.71 32.0596 133.949 32.987 135.6 34.6376C137.25 36.2883 138.178 38.5271 138.178 40.8615Z" fill="#1164E9"/>
<path d="M129.375 76.0247C134.794 76.0331 140.104 74.4972 144.683 71.5968C144.031 63.9015 141.239 50.0968 129.647 49.6761V49.6611C129.554 49.6611 129.466 49.6611 129.375 49.6611C129.283 49.6611 129.195 49.6611 129.102 49.6611V49.6746C117.508 50.0953 114.719 63.9001 114.066 71.5953C118.645 74.4958 123.955 76.0322 129.375 76.0247Z" fill="#1164E9"/>
<path d="M302.255 26.842H278.256V11.9996C278.256 8.81709 279.52 5.76495 281.771 3.51459C284.021 1.26424 287.073 0 290.256 0C293.438 0 296.49 1.26424 298.741 3.51459C300.991 5.76495 302.255 8.81709 302.255 11.9996V26.842ZM283.073 22.0248H297.438V11.9996C297.367 10.1422 296.579 8.38449 295.24 7.09548C293.901 5.80647 292.115 5.08639 290.256 5.08639C288.397 5.08639 286.611 5.80647 285.271 7.09548C283.932 8.38449 283.144 10.1422 283.073 11.9996V22.0248Z" fill="#1164E9"/>
<path d="M290.256 51.2488C285.743 51.2488 281.415 49.4565 278.224 46.266C275.032 43.0755 273.238 38.748 273.236 34.2351V21.5894C273.237 20.4283 273.698 19.3148 274.519 18.4938C275.34 17.6728 276.454 17.2113 277.615 17.2109H302.894C303.469 17.2109 304.039 17.3242 304.57 17.5442C305.101 17.7643 305.584 18.0868 305.99 18.4934C306.397 18.8999 306.719 19.3826 306.94 19.9138C307.16 20.445 307.273 21.0144 307.273 21.5894V34.2351C307.271 38.7474 305.478 43.0745 302.287 46.2649C299.096 49.4553 294.768 51.248 290.256 51.2488Z" fill="#BED6FA"/>
<path d="M294.824 29.8145C294.825 28.977 294.595 28.1554 294.16 27.4396C293.726 26.7237 293.102 26.1412 292.359 25.7557C291.615 25.3702 290.78 25.1966 289.945 25.2539C289.109 25.3112 288.305 25.5971 287.621 26.0804C286.937 26.5637 286.399 27.2258 286.066 27.9942C285.733 28.7627 285.618 29.608 285.733 30.4375C285.848 31.2671 286.189 32.0491 286.718 32.698C287.248 33.3469 287.946 33.8376 288.735 34.1166L286.094 41.5873H294.417L291.777 34.1166C292.667 33.8028 293.438 33.2205 293.984 32.45C294.53 31.6795 294.823 30.7587 294.824 29.8145Z" fill="#1164E9"/>
<path d="M412 146.068H371.291V197.242H412V146.068Z" fill="#BED6FA"/>
<path d="M406.107 155.525H377.186V157.355H406.107V155.525Z" fill="#1164E9"/>
<path d="M406.107 161.007H377.186V162.837H406.107V161.007Z" fill="#1164E9"/>
<path d="M406.107 166.494H377.186V168.324H406.107V166.494Z" fill="#1164E9"/>
<path d="M406.107 171.978H377.186V173.808H406.107V171.978Z" fill="#ABD0EE"/>
<path d="M406.107 177.465H377.186V179.295H406.107V177.465Z" fill="#1164E9"/>
<path d="M406.107 183.3H377.186V185.13H406.107V183.3Z" fill="#1164E9"/>
<path d="M406.107 172.329H377.186V174.158H406.107V172.329Z" fill="#1164E9"/>
<path d="M406.107 189.135H377.186V190.965H406.107V189.135Z" fill="#1164E9"/>
<path d="M375.569 147.633C375.355 147.633 375.151 147.548 375.001 147.397C374.85 147.246 374.766 147.042 374.766 146.829V145.308C374.766 145.095 374.85 144.89 375.001 144.74C375.151 144.589 375.355 144.504 375.569 144.504C375.782 144.504 375.986 144.588 376.137 144.739C376.288 144.89 376.373 145.095 376.373 145.308V146.829C376.373 147.042 376.288 147.247 376.137 147.398C375.986 147.549 375.782 147.633 375.569 147.633Z" fill="#ABD0EE"/>
<path d="M379.588 147.633C379.375 147.633 379.171 147.548 379.02 147.397C378.87 147.246 378.785 147.042 378.785 146.829V145.308C378.785 145.095 378.87 144.89 379.02 144.74C379.171 144.589 379.375 144.504 379.588 144.504C379.801 144.504 380.005 144.589 380.156 144.74C380.306 144.89 380.391 145.095 380.391 145.308V146.829C380.391 147.042 380.306 147.246 380.156 147.397C380.005 147.548 379.801 147.633 379.588 147.633Z" fill="#ABD0EE"/>
<path d="M383.609 147.633C383.396 147.633 383.191 147.549 383.041 147.398C382.89 147.247 382.805 147.042 382.805 146.829V145.308C382.805 145.095 382.89 144.89 383.041 144.739C383.191 144.588 383.396 144.504 383.609 144.504C383.822 144.504 384.026 144.589 384.177 144.74C384.327 144.89 384.412 145.095 384.412 145.308V146.829C384.412 147.042 384.327 147.246 384.177 147.397C384.026 147.548 383.822 147.633 383.609 147.633Z" fill="#ABD0EE"/>
<path d="M387.626 147.633C387.413 147.633 387.209 147.548 387.059 147.397C386.908 147.246 386.824 147.042 386.824 146.829V145.308C386.824 145.095 386.908 144.89 387.059 144.74C387.209 144.589 387.413 144.504 387.626 144.504C387.839 144.504 388.043 144.589 388.194 144.74C388.344 144.89 388.429 145.095 388.429 145.308V146.829C388.429 147.042 388.344 147.246 388.194 147.397C388.043 147.548 387.839 147.633 387.626 147.633Z" fill="#ABD0EE"/>
<path d="M391.648 147.633C391.435 147.633 391.231 147.549 391.08 147.398C390.929 147.247 390.844 147.042 390.844 146.829V145.308C390.844 145.095 390.929 144.89 391.08 144.739C391.231 144.588 391.435 144.504 391.648 144.504C391.861 144.504 392.066 144.589 392.216 144.74C392.366 144.89 392.451 145.095 392.451 145.308V146.829C392.451 147.042 392.366 147.246 392.216 147.397C392.066 147.548 391.861 147.633 391.648 147.633Z" fill="#ABD0EE"/>
<path d="M395.664 147.633C395.451 147.633 395.247 147.548 395.096 147.397C394.946 147.246 394.861 147.042 394.861 146.829V145.308C394.861 145.095 394.946 144.89 395.096 144.74C395.247 144.589 395.451 144.504 395.664 144.504C395.877 144.504 396.082 144.588 396.233 144.739C396.383 144.89 396.468 145.095 396.468 145.308V146.829C396.468 147.042 396.383 147.247 396.233 147.398C396.082 147.549 395.877 147.633 395.664 147.633Z" fill="#ABD0EE"/>
<path d="M399.683 147.633C399.47 147.633 399.265 147.549 399.114 147.398C398.964 147.247 398.879 147.042 398.879 146.829V145.308C398.879 145.095 398.964 144.89 399.114 144.739C399.265 144.588 399.47 144.504 399.683 144.504C399.896 144.504 400.1 144.589 400.251 144.74C400.401 144.89 400.486 145.095 400.486 145.308V146.829C400.486 147.042 400.401 147.246 400.251 147.397C400.1 147.548 399.896 147.633 399.683 147.633Z" fill="#ABD0EE"/>
<path d="M403.701 147.633C403.488 147.633 403.284 147.548 403.133 147.397C402.983 147.246 402.898 147.042 402.898 146.829V145.308C402.898 145.095 402.983 144.89 403.133 144.74C403.284 144.589 403.488 144.504 403.701 144.504C403.914 144.504 404.119 144.588 404.27 144.739C404.42 144.89 404.505 145.095 404.505 145.308V146.829C404.505 147.042 404.42 147.247 404.27 147.398C404.119 147.549 403.914 147.633 403.701 147.633Z" fill="#ABD0EE"/>
<path d="M407.722 147.633C407.509 147.633 407.304 147.549 407.153 147.398C407.003 147.247 406.918 147.042 406.918 146.829V145.308C406.918 145.095 407.003 144.89 407.153 144.739C407.304 144.588 407.509 144.504 407.722 144.504C407.935 144.504 408.139 144.589 408.29 144.74C408.44 144.89 408.525 145.095 408.525 145.308V146.829C408.525 147.042 408.44 147.246 408.29 147.397C408.139 147.548 407.935 147.633 407.722 147.633Z" fill="#ABD0EE"/>
<path d="M11.9794 236.71H63.4128C66.5899 236.71 69.6369 237.972 71.8834 240.218C74.13 242.465 75.3921 245.512 75.3921 248.689C75.3921 251.866 74.13 254.913 71.8834 257.16C69.6369 259.406 66.5899 260.668 63.4128 260.668H31.3979C27.1572 271.09 14.1776 270.52 14.1776 270.52C16.0958 269.677 17.7309 268.3 18.8873 266.553C20.0438 264.806 20.6727 262.763 20.6988 260.668H11.9794C8.80224 260.668 5.75524 259.406 3.50868 257.16C1.26211 254.913 0 251.866 0 248.689C0 245.512 1.26211 242.465 3.50868 240.218C5.75524 237.972 8.80224 236.71 11.9794 236.71Z" fill="#ABD0EE"/>
<path d="M48.0098 248.624C48.0098 249.283 48.205 249.926 48.5709 250.474C48.9368 251.022 49.4568 251.448 50.0652 251.701C50.6737 251.953 51.3432 252.019 51.9892 251.89C52.6351 251.762 53.2285 251.445 53.6943 250.979C54.1601 250.514 54.4774 249.92 54.6061 249.275C54.7348 248.629 54.669 247.959 54.4172 247.351C54.1654 246.742 53.7388 246.222 53.1913 245.856C52.6438 245.49 52.0001 245.294 51.3415 245.294C50.4581 245.294 49.6109 245.645 48.9861 246.269C48.3613 246.894 48.0101 247.741 48.0098 248.624Z" fill="#1164E9"/>
<path d="M34.3672 248.624C34.3672 249.283 34.5625 249.927 34.9285 250.474C35.2944 251.022 35.8145 251.449 36.423 251.701C37.0316 251.953 37.7012 252.019 38.3472 251.89C38.9932 251.762 39.5866 251.445 40.0523 250.979C40.5181 250.513 40.8353 249.92 40.9638 249.274C41.0922 248.628 41.0263 247.958 40.7742 247.35C40.5222 246.741 40.0953 246.221 39.5477 245.855C39 245.489 38.3561 245.294 37.6975 245.294C37.2601 245.294 36.8271 245.38 36.423 245.547C36.019 245.715 35.6519 245.96 35.3426 246.269C35.0334 246.578 34.7881 246.945 34.6207 247.35C34.4533 247.754 34.3672 248.187 34.3672 248.624Z" fill="#1164E9"/>
<path d="M362.533 39.2484V35.8403L358.24 34.6424C358.003 33.7641 357.657 32.919 357.21 32.1267L359.396 28.2604L356.986 25.851L353.14 28.0238C352.34 27.5637 351.485 27.2074 350.595 26.9636L349.415 22.7139H346.005L344.825 26.9636C343.935 27.2075 343.079 27.5637 342.279 28.0238L338.434 25.851L336.025 28.2604L338.209 32.1267C337.762 32.9187 337.416 33.7639 337.179 34.6424L332.885 35.8403V39.2499L337.212 40.4479C337.451 41.3039 337.795 42.1272 338.235 42.8992L336.017 46.8224L338.427 49.2332L342.372 47.0036C343.134 47.4315 343.944 47.7659 344.786 47.9994L346 52.3718H349.41L350.625 47.9994C351.466 47.7661 352.277 47.4317 353.038 47.0036L356.984 49.2332L359.395 46.8224L357.177 42.8992C357.619 42.1279 357.965 41.3051 358.206 40.4494L362.533 39.2484ZM347.709 43.9623C346.428 43.9623 345.176 43.5824 344.111 42.8708C343.046 42.1591 342.216 41.1475 341.726 39.964C341.235 38.7805 341.107 37.4783 341.357 36.222C341.607 34.9656 342.224 33.8117 343.13 32.906C344.036 32.0003 345.19 31.3836 346.446 31.1339C347.703 30.8842 349.005 31.0126 350.188 31.5031C351.372 31.9935 352.383 32.8238 353.095 33.889C353.806 34.9542 354.186 36.2065 354.185 37.4875C354.185 38.3382 354.018 39.1806 353.692 39.9666C353.366 40.7525 352.889 41.4666 352.287 42.068C351.686 42.6694 350.971 43.1464 350.185 43.4717C349.399 43.797 348.557 43.9642 347.706 43.9638L347.709 43.9623Z" fill="#1164E9"/>
<path d="M96.3089 191.455C96.3089 194.022 95.5477 196.532 94.1214 198.666C92.6952 200.801 90.6681 202.464 88.2964 203.447C85.9246 204.429 83.3149 204.686 80.7971 204.185C78.2793 203.685 75.9665 202.448 74.1513 200.633C72.336 198.818 71.0999 196.505 70.599 193.987C70.0982 191.47 70.3552 188.86 71.3376 186.488C72.32 184.116 73.9837 182.089 76.1182 180.663C78.2527 179.237 80.7621 178.476 83.3293 178.476C86.7717 178.476 90.0731 179.843 92.5073 182.277C94.9414 184.711 96.3089 188.013 96.3089 191.455Z" fill="#ABD0EE"/>
<path d="M91.6108 187.447C92.8656 187.208 94.1008 186.876 95.3064 186.454C95.0329 185.809 94.7073 185.188 94.3331 184.596C93.6697 184.819 92.9704 185.025 92.2157 185.195C92.2966 184.967 92.3819 184.745 92.4732 184.539C92.6857 184.035 92.9534 183.557 93.2714 183.113C92.8213 182.58 92.3296 182.084 91.8009 181.629C91.3021 182.267 90.8902 182.968 90.576 183.714C90.3085 184.336 90.0858 184.976 89.9097 185.63C88.0752 185.9 86.2235 186.036 84.3692 186.038V178.524C84.0263 178.497 83.6834 178.471 83.3345 178.471C82.9856 178.471 82.6427 178.497 82.2998 178.524V185.985C80.5096 185.901 78.7285 185.679 76.972 185.323C76.8115 184.776 76.6179 184.238 76.3925 183.714C76.0546 182.902 75.5979 182.145 75.0373 181.468C74.5061 181.913 74.0114 182.401 73.5579 182.926C73.9734 183.464 74.3107 184.059 74.5596 184.691C74.1658 184.567 73.7884 184.434 73.4306 184.293C73.2015 184.203 72.9619 184.088 72.7268 183.982C72.3266 184.551 71.9731 185.152 71.6696 185.779C71.9856 185.928 72.315 186.078 72.6729 186.214C73.5222 186.544 74.3908 186.822 75.2739 187.047C75.5192 188.196 75.6694 189.363 75.7231 190.536H70.4058C70.3848 190.835 70.3594 191.135 70.3594 191.434C70.3594 191.827 70.3833 192.215 70.4178 192.599H75.7126C75.663 193.971 75.4774 195.335 75.1586 196.671C74.3109 196.89 73.4768 197.16 72.6609 197.478C72.4288 197.569 72.2117 197.664 71.9945 197.759C72.339 198.374 72.7326 198.959 73.1715 199.51C73.2554 199.476 73.3377 199.437 73.4186 199.405C73.7076 199.293 74.0101 199.185 74.317 199.08C74.1424 199.447 73.936 199.798 73.7001 200.128C74.1656 200.646 74.6718 201.126 75.214 201.563C75.6841 200.946 76.0745 200.272 76.376 199.558C76.5337 199.194 76.6785 198.812 76.8102 198.409C78.6134 198.034 80.4435 197.802 82.2833 197.716V204.36C82.6262 204.387 82.9676 204.413 83.318 204.413C83.6684 204.413 84.0113 204.387 84.3528 204.36V197.686C86.2525 197.687 88.1496 197.83 90.028 198.114C90.179 198.613 90.358 199.102 90.564 199.58C90.8427 200.237 91.1943 200.859 91.6122 201.437C92.1498 200.986 92.6505 200.493 93.1097 199.962C92.825 199.524 92.5843 199.058 92.3909 198.573C92.912 198.697 93.4032 198.836 93.8883 198.984C94.2995 198.406 94.6626 197.794 94.974 197.156C93.9045 196.8 92.8131 196.514 91.7066 196.299C91.4465 195.089 91.2912 193.858 91.2424 192.62H96.2497C96.2827 192.235 96.3082 191.848 96.3082 191.455C96.3082 191.156 96.2827 190.856 96.2617 190.557H91.2469C91.293 189.513 91.4147 188.473 91.6108 187.447ZM82.2938 195.663C80.65 195.735 79.0128 195.916 77.3927 196.204C77.6166 195.021 77.7497 193.823 77.7911 192.62H82.2938V195.663ZM82.2938 190.549H77.7866C77.7458 189.54 77.6413 188.534 77.4736 187.538C79.0674 187.817 80.6775 187.992 82.2938 188.064V190.549ZM84.3632 188.113C86.0618 188.114 87.7588 188.007 89.444 187.794C89.3012 188.707 89.2112 189.628 89.1745 190.551H84.3632V188.113ZM84.3632 195.615V192.62H89.17C89.2078 193.735 89.3239 194.845 89.5173 195.943C87.808 195.724 86.0865 195.614 84.3632 195.614V195.615Z" fill="#1164E9"/>
<path d="M349.121 251.337C349.121 251.553 349.057 251.763 348.937 251.943C348.818 252.122 348.648 252.262 348.448 252.344C348.249 252.427 348.03 252.448 347.819 252.406C347.607 252.365 347.413 252.261 347.261 252.109C347.108 251.956 347.004 251.762 346.962 251.551C346.92 251.339 346.941 251.12 347.023 250.921C347.106 250.722 347.245 250.551 347.424 250.432C347.603 250.312 347.814 250.247 348.029 250.247C348.319 250.247 348.596 250.362 348.801 250.566C349.005 250.771 349.121 251.048 349.121 251.337Z" fill="#1164E9"/>
<path d="M340.868 251.337C340.868 251.553 340.804 251.763 340.685 251.943C340.565 252.122 340.395 252.262 340.196 252.344C339.996 252.427 339.777 252.448 339.566 252.406C339.354 252.365 339.16 252.261 339.008 252.109C338.855 251.956 338.751 251.762 338.709 251.551C338.667 251.339 338.688 251.12 338.77 250.921C338.853 250.722 338.992 250.551 339.171 250.432C339.35 250.312 339.561 250.247 339.777 250.247C340.066 250.247 340.343 250.362 340.548 250.566C340.753 250.771 340.868 251.048 340.868 251.337Z" fill="#1164E9"/>
<path d="M332.614 251.337C332.614 251.553 332.55 251.763 332.431 251.943C332.311 252.122 332.141 252.262 331.942 252.344C331.743 252.427 331.523 252.448 331.312 252.406C331.101 252.365 330.906 252.261 330.754 252.109C330.601 251.956 330.497 251.762 330.455 251.551C330.413 251.339 330.434 251.12 330.517 250.921C330.599 250.722 330.738 250.551 330.917 250.432C331.096 250.312 331.307 250.247 331.523 250.247C331.812 250.247 332.089 250.362 332.294 250.566C332.499 250.771 332.614 251.048 332.614 251.337Z" fill="#1164E9"/>
<path d="M324.362 251.337C324.362 251.553 324.298 251.763 324.178 251.943C324.058 252.122 323.888 252.262 323.689 252.344C323.49 252.427 323.271 252.448 323.059 252.406C322.848 252.365 322.654 252.261 322.501 252.109C322.349 251.956 322.245 251.762 322.202 251.551C322.16 251.339 322.182 251.12 322.264 250.921C322.346 250.722 322.486 250.551 322.665 250.432C322.844 250.312 323.054 250.247 323.27 250.247C323.559 250.247 323.837 250.362 324.041 250.566C324.246 250.771 324.361 251.048 324.362 251.337Z" fill="#1164E9"/>
<path d="M357.377 251.339C357.377 251.554 357.313 251.765 357.193 251.944C357.073 252.123 356.903 252.262 356.704 252.345C356.504 252.427 356.285 252.448 356.074 252.406C355.863 252.364 355.669 252.26 355.516 252.108C355.364 251.956 355.26 251.762 355.218 251.55C355.176 251.339 355.197 251.12 355.28 250.921C355.362 250.722 355.502 250.551 355.681 250.431C355.86 250.311 356.07 250.247 356.286 250.247C356.429 250.247 356.571 250.275 356.704 250.33C356.836 250.385 356.957 250.465 357.058 250.566C357.159 250.668 357.24 250.788 357.295 250.921C357.349 251.053 357.377 251.195 357.377 251.339Z" fill="#1164E9"/>
<path d="M357.377 243.481C357.377 243.697 357.313 243.907 357.194 244.087C357.074 244.266 356.904 244.406 356.705 244.488C356.506 244.571 356.286 244.592 356.075 244.551C355.864 244.509 355.669 244.405 355.517 244.253C355.364 244.1 355.26 243.906 355.218 243.695C355.176 243.483 355.197 243.264 355.28 243.065C355.362 242.866 355.501 242.696 355.68 242.576C355.86 242.456 356.07 242.391 356.286 242.391C356.575 242.391 356.852 242.506 357.057 242.71C357.262 242.915 357.377 243.192 357.377 243.481Z" fill="#1164E9"/>
<path d="M357.377 235.631C357.377 235.847 357.313 236.057 357.193 236.236C357.073 236.415 356.903 236.555 356.704 236.637C356.504 236.719 356.285 236.741 356.074 236.699C355.863 236.657 355.669 236.553 355.516 236.401C355.364 236.248 355.26 236.054 355.218 235.843C355.176 235.631 355.197 235.412 355.28 235.213C355.362 235.014 355.502 234.844 355.681 234.724C355.86 234.604 356.07 234.54 356.286 234.54C356.575 234.54 356.853 234.655 357.058 234.859C357.262 235.064 357.377 235.342 357.377 235.631Z" fill="#1164E9"/>
<path d="M357.377 227.776C357.377 227.991 357.313 228.202 357.194 228.381C357.074 228.561 356.904 228.7 356.705 228.783C356.506 228.865 356.286 228.887 356.075 228.845C355.864 228.803 355.669 228.7 355.517 228.547C355.364 228.395 355.26 228.201 355.218 227.989C355.176 227.778 355.197 227.559 355.28 227.36C355.362 227.161 355.501 226.99 355.68 226.87C355.86 226.75 356.07 226.686 356.286 226.686C356.575 226.686 356.852 226.801 357.057 227.005C357.262 227.209 357.377 227.487 357.377 227.776Z" fill="#1164E9"/>
<path d="M357.377 219.926C357.377 220.141 357.313 220.352 357.193 220.531C357.073 220.71 356.903 220.849 356.704 220.932C356.504 221.014 356.285 221.036 356.074 220.993C355.863 220.951 355.669 220.848 355.516 220.695C355.364 220.543 355.26 220.349 355.218 220.137C355.176 219.926 355.197 219.707 355.28 219.508C355.362 219.309 355.502 219.138 355.681 219.019C355.86 218.899 356.07 218.835 356.286 218.834C356.429 218.834 356.571 218.862 356.704 218.917C356.836 218.972 356.957 219.052 357.058 219.154C357.159 219.255 357.24 219.375 357.295 219.508C357.349 219.64 357.377 219.782 357.377 219.926Z" fill="#1164E9"/>
<path d="M357.377 212.071C357.377 212.286 357.313 212.497 357.194 212.676C357.074 212.855 356.904 212.995 356.705 213.078C356.506 213.16 356.286 213.182 356.075 213.14C355.864 213.098 355.669 212.994 355.517 212.842C355.364 212.69 355.26 212.496 355.218 212.284C355.176 212.073 355.197 211.854 355.28 211.654C355.362 211.455 355.501 211.285 355.68 211.165C355.86 211.045 356.07 210.981 356.286 210.98C356.575 210.98 356.852 211.095 357.057 211.3C357.262 211.504 357.377 211.781 357.377 212.071Z" fill="#1164E9"/>
<path d="M357.377 204.217C357.377 204.432 357.313 204.643 357.194 204.822C357.074 205.002 356.904 205.141 356.705 205.224C356.506 205.306 356.286 205.328 356.075 205.286C355.864 205.244 355.669 205.14 355.517 204.988C355.364 204.836 355.26 204.642 355.218 204.43C355.176 204.219 355.197 204 355.28 203.801C355.362 203.601 355.501 203.431 355.68 203.311C355.86 203.191 356.07 203.127 356.286 203.127C356.575 203.127 356.852 203.242 357.057 203.446C357.262 203.65 357.377 203.928 357.377 204.217Z" fill="#1164E9"/>
<path d="M357.377 196.37C357.377 196.585 357.313 196.796 357.194 196.975C357.074 197.155 356.904 197.294 356.705 197.377C356.506 197.459 356.286 197.481 356.075 197.439C355.864 197.397 355.669 197.294 355.517 197.141C355.364 196.989 355.26 196.795 355.218 196.583C355.176 196.372 355.197 196.153 355.28 195.954C355.362 195.755 355.501 195.584 355.68 195.464C355.86 195.344 356.07 195.28 356.286 195.28C356.575 195.28 356.852 195.395 357.057 195.599C357.262 195.803 357.377 196.081 357.377 196.37Z" fill="#1164E9"/>
<path d="M357.377 188.508C357.377 188.724 357.313 188.934 357.193 189.113C357.073 189.292 356.903 189.432 356.704 189.514C356.504 189.597 356.285 189.618 356.074 189.576C355.863 189.534 355.669 189.43 355.516 189.278C355.364 189.125 355.26 188.931 355.218 188.72C355.176 188.509 355.197 188.29 355.28 188.09C355.362 187.891 355.502 187.721 355.681 187.601C355.86 187.481 356.07 187.417 356.286 187.417C356.429 187.417 356.571 187.445 356.704 187.499C356.836 187.554 356.957 187.635 357.058 187.736C357.159 187.837 357.24 187.958 357.295 188.09C357.349 188.223 357.377 188.365 357.377 188.508Z" fill="#1164E9"/>
<path d="M357.377 180.656C357.377 180.871 357.313 181.082 357.194 181.261C357.074 181.44 356.904 181.58 356.705 181.663C356.506 181.745 356.286 181.767 356.075 181.725C355.864 181.683 355.669 181.579 355.517 181.427C355.364 181.275 355.26 181.081 355.218 180.869C355.176 180.658 355.197 180.439 355.28 180.239C355.362 180.04 355.501 179.87 355.68 179.75C355.86 179.63 356.07 179.566 356.286 179.565C356.575 179.565 356.852 179.68 357.057 179.885C357.262 180.089 357.377 180.366 357.377 180.656Z" fill="#1164E9"/>
<path d="M357.377 172.802C357.377 173.017 357.313 173.228 357.194 173.407C357.074 173.587 356.904 173.726 356.705 173.809C356.506 173.891 356.286 173.913 356.075 173.871C355.864 173.829 355.669 173.725 355.517 173.573C355.364 173.421 355.26 173.227 355.218 173.015C355.176 172.804 355.197 172.585 355.28 172.386C355.362 172.186 355.501 172.016 355.68 171.896C355.86 171.776 356.07 171.712 356.286 171.712C356.575 171.712 356.852 171.826 357.057 172.031C357.262 172.235 357.377 172.513 357.377 172.802Z" fill="#1164E9"/>
<path d="M357.377 164.945C357.377 165.16 357.313 165.371 357.193 165.55C357.073 165.729 356.903 165.868 356.704 165.951C356.504 166.033 356.285 166.055 356.074 166.012C355.863 165.97 355.669 165.867 355.516 165.714C355.364 165.562 355.26 165.368 355.218 165.156C355.176 164.945 355.197 164.726 355.28 164.527C355.362 164.328 355.502 164.158 355.681 164.038C355.86 163.918 356.07 163.854 356.286 163.853C356.429 163.853 356.571 163.881 356.704 163.936C356.836 163.991 356.957 164.071 357.058 164.173C357.159 164.274 357.24 164.394 357.295 164.527C357.349 164.659 357.377 164.801 357.377 164.945Z" fill="#1164E9"/>
<path d="M357.377 157.096C357.377 157.312 357.313 157.523 357.194 157.702C357.074 157.881 356.904 158.021 356.705 158.103C356.506 158.186 356.286 158.208 356.075 158.166C355.864 158.124 355.669 158.02 355.517 157.868C355.364 157.716 355.26 157.521 355.218 157.31C355.176 157.099 355.197 156.88 355.28 156.68C355.362 156.481 355.501 156.311 355.68 156.191C355.86 156.071 356.07 156.007 356.286 156.006C356.429 156.006 356.571 156.034 356.703 156.089C356.836 156.144 356.956 156.224 357.057 156.325C357.159 156.426 357.239 156.547 357.294 156.679C357.349 156.811 357.377 156.953 357.377 157.096Z" fill="#1164E9"/>
<path d="M357.377 149.242C357.377 149.457 357.313 149.668 357.193 149.847C357.073 150.026 356.903 150.165 356.704 150.248C356.504 150.33 356.285 150.351 356.074 150.309C355.863 150.267 355.669 150.163 355.516 150.011C355.364 149.859 355.26 149.665 355.218 149.453C355.176 149.242 355.197 149.023 355.28 148.824C355.362 148.625 355.502 148.454 355.681 148.334C355.86 148.215 356.07 148.15 356.286 148.15C356.575 148.15 356.853 148.265 357.058 148.47C357.262 148.675 357.377 148.952 357.377 149.242Z" fill="#1164E9"/>
<path d="M357.377 141.389C357.377 141.604 357.313 141.815 357.194 141.994C357.074 142.173 356.904 142.313 356.705 142.396C356.506 142.478 356.286 142.5 356.075 142.458C355.864 142.416 355.669 142.312 355.517 142.16C355.364 142.008 355.26 141.814 355.218 141.602C355.176 141.391 355.197 141.172 355.28 140.973C355.362 140.773 355.501 140.603 355.68 140.483C355.86 140.363 356.07 140.299 356.286 140.299C356.575 140.299 356.852 140.413 357.057 140.618C357.262 140.822 357.377 141.099 357.377 141.389Z" fill="#1164E9"/>
<path d="M357.377 133.536C357.377 133.752 357.313 133.962 357.193 134.142C357.073 134.321 356.903 134.46 356.704 134.542C356.504 134.625 356.285 134.646 356.074 134.604C355.863 134.562 355.669 134.458 355.516 134.306C355.364 134.153 355.26 133.959 355.218 133.748C355.176 133.537 355.197 133.318 355.28 133.118C355.362 132.919 355.502 132.749 355.681 132.629C355.86 132.509 356.07 132.445 356.286 132.445C356.575 132.445 356.853 132.56 357.058 132.765C357.262 132.969 357.377 133.247 357.377 133.536Z" fill="#1164E9"/>
<path d="M357.377 125.679C357.377 125.895 357.313 126.105 357.194 126.284C357.074 126.464 356.904 126.603 356.705 126.686C356.506 126.769 356.286 126.79 356.075 126.748C355.864 126.706 355.669 126.603 355.517 126.45C355.364 126.298 355.26 126.104 355.218 125.893C355.176 125.681 355.197 125.462 355.28 125.263C355.362 125.064 355.501 124.893 355.68 124.773C355.86 124.653 356.07 124.589 356.286 124.589C356.429 124.589 356.571 124.617 356.703 124.671C356.836 124.726 356.956 124.806 357.057 124.908C357.159 125.009 357.239 125.129 357.294 125.261C357.349 125.394 357.377 125.536 357.377 125.679Z" fill="#1164E9"/>
<path d="M357.377 117.829C357.377 118.044 357.313 118.255 357.193 118.434C357.073 118.613 356.903 118.753 356.704 118.835C356.504 118.917 356.285 118.939 356.074 118.897C355.863 118.854 355.669 118.751 355.516 118.598C355.364 118.446 355.26 118.252 355.218 118.04C355.176 117.829 355.197 117.61 355.28 117.411C355.362 117.212 355.502 117.042 355.681 116.922C355.86 116.802 356.07 116.738 356.286 116.737C356.575 116.737 356.853 116.852 357.058 117.057C357.262 117.262 357.377 117.539 357.377 117.829Z" fill="#1164E9"/>
<path d="M357.377 109.976C357.377 110.191 357.313 110.402 357.194 110.581C357.074 110.761 356.904 110.9 356.705 110.983C356.506 111.065 356.286 111.087 356.075 111.045C355.864 111.003 355.669 110.9 355.517 110.747C355.364 110.595 355.26 110.401 355.218 110.189C355.176 109.978 355.197 109.759 355.28 109.56C355.362 109.36 355.501 109.19 355.68 109.07C355.86 108.95 356.07 108.886 356.286 108.886C356.575 108.886 356.852 109.001 357.057 109.205C357.262 109.409 357.377 109.687 357.377 109.976Z" fill="#1164E9"/>
<path d="M357.377 102.121C357.377 102.337 357.313 102.547 357.193 102.726C357.073 102.906 356.903 103.045 356.704 103.127C356.504 103.21 356.285 103.231 356.074 103.189C355.863 103.147 355.669 103.043 355.516 102.891C355.364 102.738 355.26 102.544 355.218 102.333C355.176 102.122 355.197 101.903 355.28 101.703C355.362 101.504 355.502 101.334 355.681 101.214C355.86 101.094 356.07 101.03 356.286 101.03C356.575 101.03 356.853 101.145 357.058 101.35C357.262 101.554 357.377 101.832 357.377 102.121Z" fill="#1164E9"/>
<path d="M355.016 94.7742C355.016 94.9897 354.952 95.2002 354.832 95.3793C354.712 95.5583 354.542 95.6978 354.342 95.7801C354.143 95.8624 353.924 95.8839 353.713 95.8418C353.502 95.7997 353.307 95.6959 353.155 95.5435C353.003 95.3912 352.899 95.1971 352.857 94.9857C352.815 94.7744 352.836 94.5553 352.918 94.3562C353.001 94.1571 353.14 93.9868 353.319 93.8669C353.498 93.747 353.709 93.6829 353.924 93.6826C354.068 93.6824 354.21 93.7105 354.342 93.7653C354.475 93.8201 354.595 93.9005 354.697 94.0019C354.798 94.1033 354.879 94.2237 354.933 94.3562C354.988 94.4887 355.016 94.6308 355.016 94.7742Z" fill="#1164E9"/>
<path d="M348.795 90.3684C348.795 90.584 348.732 90.7948 348.612 90.974C348.492 91.1533 348.322 91.293 348.123 91.3755C347.923 91.458 347.704 91.4796 347.493 91.4376C347.281 91.3955 347.087 91.2917 346.935 91.1392C346.782 90.9868 346.678 90.7925 346.636 90.5811C346.594 90.3696 346.616 90.1504 346.698 89.9512C346.781 89.752 346.92 89.5818 347.1 89.462C347.279 89.3422 347.49 89.2783 347.705 89.2783C347.849 89.2781 347.99 89.3061 348.123 89.3609C348.255 89.4156 348.375 89.4959 348.477 89.5971C348.578 89.6984 348.658 89.8186 348.713 89.951C348.768 90.0833 348.796 90.2252 348.795 90.3684Z" fill="#1164E9"/>
<path d="M341.077 89.3587C341.077 89.5742 341.013 89.7849 340.894 89.9642C340.774 90.1434 340.604 90.2831 340.405 90.3657C340.206 90.4482 339.987 90.4699 339.775 90.428C339.564 90.386 339.369 90.2824 339.217 90.13C339.064 89.9777 338.96 89.7836 338.918 89.5723C338.876 89.3609 338.897 89.1418 338.98 88.9425C339.062 88.7433 339.201 88.573 339.381 88.453C339.56 88.333 339.77 88.2689 339.986 88.2686C340.275 88.2686 340.552 88.3834 340.757 88.5878C340.962 88.7922 341.077 89.0694 341.077 89.3587Z" fill="#1164E9"/>
<path d="M333.224 89.3587C333.224 89.5743 333.16 89.7851 333.04 89.9643C332.92 90.1436 332.75 90.2833 332.551 90.3658C332.351 90.4483 332.132 90.4699 331.921 90.4279C331.709 90.3858 331.515 90.282 331.363 90.1295C331.21 89.9771 331.106 89.7828 331.064 89.5714C331.022 89.3599 331.044 89.1407 331.126 88.9415C331.209 88.7423 331.349 88.5721 331.528 88.4523C331.707 88.3325 331.918 88.2686 332.133 88.2686C332.422 88.269 332.699 88.3839 332.904 88.5883C333.108 88.7926 333.223 89.0697 333.224 89.3587Z" fill="#1164E9"/>
<path d="M94.2018 48.4026C94.2018 48.6182 94.1378 48.829 94.018 49.0083C93.8983 49.1875 93.728 49.3273 93.5288 49.4098C93.3296 49.4923 93.1104 49.5139 92.899 49.4718C92.6875 49.4297 92.4933 49.3259 92.3408 49.1735C92.1883 49.021 92.0845 48.8268 92.0425 48.6153C92.0004 48.4038 92.022 48.1846 92.1045 47.9855C92.187 47.7863 92.3267 47.616 92.506 47.4962C92.6853 47.3764 92.896 47.3125 93.1116 47.3125C93.4006 47.3129 93.6777 47.4279 93.882 47.6322C94.0864 47.8366 94.2014 48.1136 94.2018 48.4026Z" fill="#1164E9"/>
<path d="M86.3482 48.4026C86.3482 48.6182 86.2844 48.8289 86.1646 49.0081C86.0449 49.1873 85.8748 49.3271 85.6756 49.4096C85.4765 49.4922 85.2574 49.5138 85.046 49.4719C84.8346 49.43 84.6403 49.3263 84.4878 49.174C84.3353 49.0217 84.2314 48.8276 84.1891 48.6162C84.1469 48.4049 84.1683 48.1857 84.2505 47.9865C84.3328 47.7873 84.4723 47.6169 84.6514 47.4969C84.8305 47.377 85.0411 47.3128 85.2566 47.3125C85.5459 47.3125 85.8233 47.4273 86.028 47.6317C86.2326 47.8361 86.3478 48.1134 86.3482 48.4026Z" fill="#1164E9"/>
<path d="M78.4928 48.4026C78.4928 48.6182 78.4288 48.829 78.3091 49.0083C78.1893 49.1875 78.019 49.3273 77.8198 49.4098C77.6206 49.4923 77.4014 49.5139 77.19 49.4718C76.9785 49.4297 76.7843 49.3259 76.6318 49.1735C76.4794 49.021 76.3755 48.8268 76.3335 48.6153C76.2914 48.4038 76.313 48.1846 76.3955 47.9855C76.478 47.7863 76.6177 47.616 76.797 47.4962C76.9763 47.3764 77.187 47.3125 77.4026 47.3125C77.6916 47.3129 77.9687 47.4279 78.173 47.6322C78.3774 47.8366 78.4924 48.1136 78.4928 48.4026Z" fill="#1164E9"/>
<path d="M70.6666 48.6238C70.6663 48.8393 70.6021 49.05 70.4822 49.229C70.3622 49.4081 70.1919 49.5476 69.9926 49.6299C69.7934 49.7122 69.5743 49.7335 69.3629 49.6913C69.1515 49.6491 68.9574 49.5451 68.8051 49.3926C68.6528 49.2401 68.5492 49.0459 68.5072 48.8344C68.4653 48.623 68.4869 48.4039 68.5695 48.2048C68.652 48.0057 68.7918 47.8355 68.971 47.7158C69.1502 47.5961 69.3609 47.5322 69.5765 47.5322C69.7198 47.5322 69.8616 47.5604 69.994 47.6153C70.1264 47.6702 70.2466 47.7506 70.3478 47.852C70.4491 47.9534 70.5294 48.0737 70.5841 48.2062C70.6387 48.3386 70.6668 48.4805 70.6666 48.6238Z" fill="#1164E9"/>
<path d="M63.356 51.1311C63.356 51.3467 63.2922 51.5574 63.1724 51.7367C63.0526 51.916 62.8823 52.0557 62.6832 52.1382C62.484 52.2207 62.2648 52.2423 62.0533 52.2003C61.8418 52.1582 61.6475 52.0544 61.495 51.9019C61.3426 51.7495 61.2389 51.5552 61.1968 51.3438C61.1547 51.1323 61.1763 50.9131 61.2588 50.7139C61.3413 50.5147 61.4811 50.3445 61.6603 50.2247C61.8396 50.1049 62.0504 50.041 62.266 50.041C62.555 50.0414 62.832 50.1563 63.0364 50.3607C63.2407 50.565 63.3556 50.8421 63.356 51.1311Z" fill="#1164E9"/>
<path d="M58.4537 57.0672C58.4534 57.2827 58.3892 57.4932 58.2693 57.6723C58.1494 57.8513 57.9791 57.9908 57.78 58.0731C57.5809 58.1555 57.3618 58.1769 57.1505 58.1348C56.9392 58.0927 56.7451 57.9889 56.5927 57.8365C56.4403 57.6842 56.3365 57.4901 56.2944 57.2787C56.2523 57.0674 56.2738 56.8484 56.3561 56.6492C56.4384 56.4501 56.5779 56.2798 56.757 56.1599C56.936 56.04 57.1466 55.9759 57.362 55.9756C57.5054 55.9754 57.6475 56.0035 57.78 56.0583C57.9125 56.1131 58.033 56.1935 58.1344 56.2949C58.2358 56.3963 58.3162 56.5167 58.371 56.6492C58.4258 56.7818 58.4539 56.9238 58.4537 57.0672Z" fill="#1164E9"/>
<path d="M55.7615 65.8005C56.3644 65.8005 56.8531 65.3117 56.8531 64.7089C56.8531 64.106 56.3644 63.6172 55.7615 63.6172C55.1586 63.6172 54.6699 64.106 54.6699 64.7089C54.6699 65.3117 55.1586 65.8005 55.7615 65.8005Z" fill="#1164E9"/>
<path d="M56.8531 72.5623C56.8531 72.7782 56.7891 72.9893 56.6692 73.1688C56.5492 73.3483 56.3787 73.4882 56.1793 73.5708C55.9798 73.6535 55.7603 73.6751 55.5486 73.633C55.3368 73.5908 55.1423 73.4869 54.9896 73.3342C54.837 73.1815 54.733 72.987 54.6909 72.7753C54.6488 72.5635 54.6704 72.344 54.753 72.1446C54.8356 71.9451 54.9755 71.7746 55.1551 71.6547C55.3346 71.5347 55.5456 71.4707 55.7615 71.4707C56.051 71.4707 56.3287 71.5857 56.5334 71.7904C56.7381 71.9951 56.8531 72.2728 56.8531 72.5623Z" fill="#1164E9"/>
<path d="M55.7615 81.5074C56.3644 81.5074 56.8531 81.0187 56.8531 80.4158C56.8531 79.8129 56.3644 79.3242 55.7615 79.3242C55.1586 79.3242 54.6699 79.8129 54.6699 80.4158C54.6699 81.0187 55.1586 81.5074 55.7615 81.5074Z" fill="#1164E9"/>
<path d="M55.76 89.358C56.3621 89.358 56.8502 88.8699 56.8502 88.2678C56.8502 87.6658 56.3621 87.1777 55.76 87.1777C55.158 87.1777 54.6699 87.6658 54.6699 88.2678C54.6699 88.8699 55.158 89.358 55.76 89.358Z" fill="#1164E9"/>
<path d="M56.8531 96.1204C56.8534 96.3364 56.7897 96.5476 56.6699 96.7273C56.5501 96.907 56.3797 97.0471 56.1803 97.13C55.9809 97.2129 55.7613 97.2347 55.5495 97.1927C55.3376 97.1508 55.143 97.0469 54.9902 96.8943C54.8373 96.7417 54.7332 96.5472 54.691 96.3354C54.6488 96.1236 54.6703 95.9041 54.7529 95.7045C54.8354 95.505 54.9753 95.3344 55.1549 95.2144C55.3344 95.0944 55.5456 95.0303 55.7615 95.0303C56.0508 95.0303 56.3282 95.1451 56.5329 95.3495C56.7376 95.5539 56.8527 95.8312 56.8531 96.1204Z" fill="#1164E9"/>
<path d="M56.8531 103.975C56.8531 104.191 56.7891 104.402 56.6692 104.582C56.5492 104.761 56.3787 104.901 56.1793 104.984C55.9798 105.066 55.7603 105.088 55.5486 105.046C55.3368 105.004 55.1423 104.9 54.9896 104.747C54.837 104.594 54.733 104.4 54.6909 104.188C54.6488 103.976 54.6704 103.757 54.753 103.557C54.8356 103.358 54.9755 103.187 55.1551 103.068C55.3346 102.948 55.5456 102.884 55.7615 102.884C55.9049 102.884 56.0468 102.912 56.1793 102.967C56.3117 103.021 56.432 103.102 56.5334 103.203C56.6348 103.305 56.7152 103.425 56.77 103.557C56.8249 103.69 56.8531 103.832 56.8531 103.975Z" fill="#1164E9"/>
<path d="M55.7615 112.918C56.3644 112.918 56.8531 112.43 56.8531 111.827C56.8531 111.224 56.3644 110.735 55.7615 110.735C55.1586 110.735 54.6699 111.224 54.6699 111.827C54.6699 112.43 55.1586 112.918 55.7615 112.918Z" fill="#1164E9"/>
<path d="M56.8531 119.683C56.8531 119.899 56.7891 120.11 56.6692 120.289C56.5492 120.469 56.3787 120.609 56.1793 120.691C55.9798 120.774 55.7603 120.795 55.5486 120.753C55.3368 120.711 55.1423 120.607 54.9896 120.455C54.837 120.302 54.733 120.107 54.6909 119.896C54.6488 119.684 54.6704 119.464 54.753 119.265C54.8356 119.065 54.9755 118.895 55.1551 118.775C55.3346 118.655 55.5456 118.591 55.7615 118.591C56.051 118.591 56.3287 118.706 56.5334 118.911C56.7381 119.116 56.8531 119.393 56.8531 119.683Z" fill="#1164E9"/>
<path d="M56.8531 127.535C56.8534 127.751 56.7897 127.962 56.6699 128.142C56.5501 128.322 56.3797 128.462 56.1803 128.545C55.9809 128.627 55.7613 128.649 55.5495 128.607C55.3376 128.565 55.143 128.461 54.9902 128.309C54.8373 128.156 54.7332 127.962 54.691 127.75C54.6488 127.538 54.6703 127.319 54.7529 127.119C54.8354 126.919 54.9753 126.749 55.1549 126.629C55.3344 126.509 55.5456 126.445 55.7615 126.445C56.0508 126.445 56.3282 126.56 56.5329 126.764C56.7376 126.968 56.8527 127.246 56.8531 127.535Z" fill="#1164E9"/>
<path d="M55.76 136.481C56.3621 136.481 56.8502 135.993 56.8502 135.391C56.8502 134.789 56.3621 134.301 55.76 134.301C55.158 134.301 54.6699 134.789 54.6699 135.391C54.6699 135.993 55.158 136.481 55.76 136.481Z" fill="#1164E9"/>
<path d="M55.7615 144.336C56.3644 144.336 56.8531 143.847 56.8531 143.244C56.8531 142.641 56.3644 142.153 55.7615 142.153C55.1586 142.153 54.6699 142.641 54.6699 143.244C54.6699 143.847 55.1586 144.336 55.7615 144.336Z" fill="#1164E9"/>
<path d="M56.8531 151.093C56.8531 151.309 56.7891 151.52 56.6692 151.7C56.5492 151.879 56.3787 152.019 56.1793 152.102C55.9798 152.184 55.7603 152.206 55.5486 152.164C55.3368 152.122 55.1423 152.018 54.9896 151.865C54.837 151.713 54.733 151.518 54.6909 151.306C54.6488 151.095 54.6704 150.875 54.753 150.676C54.8356 150.476 54.9755 150.306 55.1551 150.186C55.3346 150.066 55.5456 150.002 55.7615 150.002C56.051 150.002 56.3287 150.117 56.5334 150.321C56.7381 150.526 56.8531 150.804 56.8531 151.093Z" fill="#1164E9"/>
<path d="M55.7615 160.041C56.3644 160.041 56.8531 159.552 56.8531 158.95C56.8531 158.347 56.3644 157.858 55.7615 157.858C55.1586 157.858 54.6699 158.347 54.6699 158.95C54.6699 159.552 55.1586 160.041 55.7615 160.041Z" fill="#1164E9"/>
<path d="M56.8531 166.803C56.8531 167.019 56.7891 167.23 56.6692 167.41C56.5492 167.589 56.3787 167.729 56.1793 167.812C55.9798 167.894 55.7603 167.916 55.5486 167.874C55.3368 167.832 55.1423 167.728 54.9896 167.575C54.837 167.423 54.733 167.228 54.6909 167.016C54.6488 166.805 54.6704 166.585 54.753 166.386C54.8356 166.186 54.9755 166.016 55.1551 165.896C55.3346 165.776 55.5456 165.712 55.7615 165.712C55.9049 165.712 56.0468 165.74 56.1793 165.795C56.3117 165.85 56.432 165.93 56.5334 166.031C56.6348 166.133 56.7152 166.253 56.77 166.386C56.8249 166.518 56.8531 166.66 56.8531 166.803Z" fill="#1164E9"/>
<path d="M55.7615 175.749C56.3644 175.749 56.8531 175.26 56.8531 174.657C56.8531 174.054 56.3644 173.565 55.7615 173.565C55.1586 173.565 54.6699 174.054 54.6699 174.657C54.6699 175.26 55.1586 175.749 55.7615 175.749Z" fill="#1164E9"/>
<path d="M55.7615 183.602C56.3644 183.602 56.8531 183.114 56.8531 182.511C56.8531 181.908 56.3644 181.419 55.7615 181.419C55.1586 181.419 54.6699 181.908 54.6699 182.511C54.6699 183.114 55.1586 183.602 55.7615 183.602Z" fill="#1164E9"/>
<path d="M55.7615 191.454C56.3644 191.454 56.8531 190.965 56.8531 190.362C56.8531 189.759 56.3644 189.271 55.7615 189.271C55.1586 189.271 54.6699 189.759 54.6699 190.362C54.6699 190.965 55.1586 191.454 55.7615 191.454Z" fill="#1164E9"/>
<path d="M55.7615 199.31C56.3644 199.31 56.8531 198.821 56.8531 198.218C56.8531 197.615 56.3644 197.127 55.7615 197.127C55.1586 197.127 54.6699 197.615 54.6699 198.218C54.6699 198.821 55.1586 199.31 55.7615 199.31Z" fill="#1164E9"/>
<path d="M56.8531 206.072C56.8531 206.288 56.7891 206.499 56.6692 206.679C56.5492 206.858 56.3787 206.998 56.1793 207.081C55.9798 207.163 55.7603 207.185 55.5486 207.143C55.3368 207.101 55.1423 206.997 54.9896 206.844C54.837 206.691 54.733 206.497 54.6909 206.285C54.6488 206.073 54.6704 205.854 54.753 205.654C54.8356 205.455 54.9755 205.284 55.1551 205.164C55.3346 205.044 55.5456 204.98 55.7615 204.98C56.051 204.98 56.3287 205.095 56.5334 205.3C56.7381 205.505 56.8531 205.783 56.8531 206.072Z" fill="#1164E9"/>
<path d="M56.8531 213.924C56.8531 214.14 56.7891 214.351 56.6692 214.53C56.5492 214.71 56.3787 214.85 56.1793 214.932C55.9798 215.015 55.7603 215.036 55.5486 214.994C55.3368 214.952 55.1423 214.848 54.9896 214.696C54.837 214.543 54.733 214.348 54.6909 214.137C54.6488 213.925 54.6704 213.705 54.753 213.506C54.8356 213.306 54.9755 213.136 55.1551 213.016C55.3346 212.896 55.5456 212.832 55.7615 212.832C55.9049 212.832 56.0468 212.86 56.1793 212.915C56.3117 212.97 56.432 213.05 56.5334 213.152C56.6348 213.253 56.7152 213.373 56.77 213.506C56.8249 213.638 56.8531 213.78 56.8531 213.924Z" fill="#1164E9"/>
<path d="M56.8531 221.776C56.8534 221.992 56.7897 222.203 56.6699 222.383C56.5501 222.563 56.3797 222.703 56.1803 222.786C55.9809 222.868 55.7613 222.89 55.5495 222.848C55.3376 222.806 55.143 222.702 54.9902 222.55C54.8373 222.397 54.7332 222.203 54.691 221.991C54.6488 221.779 54.6703 221.56 54.7529 221.36C54.8354 221.16 54.9753 220.99 55.1549 220.87C55.3344 220.75 55.5456 220.686 55.7615 220.686C56.0508 220.686 56.3282 220.801 56.5329 221.005C56.7376 221.209 56.8527 221.487 56.8531 221.776Z" fill="#1164E9"/>
<path d="M55.7615 230.725C56.3644 230.725 56.8531 230.236 56.8531 229.633C56.8531 229.03 56.3644 228.542 55.7615 228.542C55.1586 228.542 54.6699 229.03 54.6699 229.633C54.6699 230.236 55.1586 230.725 55.7615 230.725Z" fill="#1164E9"/>
<path d="M56.8531 237.485C56.8531 237.701 56.7891 237.912 56.6692 238.091C56.5492 238.271 56.3787 238.411 56.1793 238.493C55.9798 238.576 55.7603 238.598 55.5486 238.556C55.3368 238.513 55.1423 238.409 54.9896 238.257C54.837 238.104 54.733 237.91 54.6909 237.698C54.6488 237.486 54.6704 237.267 54.753 237.067C54.8356 236.868 54.9755 236.697 55.1551 236.577C55.3346 236.457 55.5456 236.393 55.7615 236.393C56.051 236.393 56.3287 236.508 56.5334 236.713C56.7381 236.918 56.8531 237.195 56.8531 237.485Z" fill="#1164E9"/>
<path d="M56.8531 245.337C56.8534 245.553 56.7897 245.764 56.6699 245.944C56.5501 246.124 56.3797 246.264 56.1803 246.347C55.9809 246.43 55.7613 246.451 55.5495 246.41C55.3376 246.368 55.143 246.264 54.9902 246.111C54.8373 245.959 54.7332 245.764 54.691 245.552C54.6488 245.34 54.6703 245.121 54.7529 244.921C54.8354 244.722 54.9753 244.551 55.1549 244.431C55.3344 244.311 55.5456 244.247 55.7615 244.247C56.0508 244.247 56.3282 244.362 56.5329 244.566C56.7376 244.771 56.8527 245.048 56.8531 245.337Z" fill="#1164E9"/>
<path d="M178.776 64.5577L183.609 57.3701H174.08L178.776 64.5577Z" fill="#1164E9"/>
<path d="M177.76 28.5974C177.76 28.3819 177.824 28.1713 177.944 27.9923C178.064 27.8133 178.235 27.6738 178.434 27.5914C178.633 27.5091 178.852 27.4877 179.063 27.5298C179.275 27.5719 179.469 27.6757 179.621 27.828C179.773 27.9804 179.877 28.1745 179.919 28.3858C179.961 28.5971 179.94 28.8162 179.858 29.0153C179.775 29.2145 179.636 29.3847 179.457 29.5046C179.278 29.6245 179.067 29.6887 178.852 29.689C178.562 29.689 178.284 29.574 178.08 29.3693C177.875 29.1645 177.76 28.8869 177.76 28.5974Z" fill="#1164E9"/>
<path d="M177.76 36.4544C177.76 36.2389 177.824 36.0282 177.944 35.8489C178.063 35.6697 178.234 35.53 178.433 35.4474C178.632 35.3649 178.851 35.3432 179.062 35.3851C179.274 35.4271 179.468 35.5307 179.62 35.6831C179.773 35.8354 179.877 36.0295 179.919 36.2408C179.961 36.4522 179.94 36.6713 179.858 36.8706C179.775 37.0698 179.636 37.2401 179.457 37.3601C179.278 37.4801 179.067 37.5442 178.852 37.5445C178.562 37.5445 178.285 37.4297 178.08 37.2253C177.876 37.0209 177.76 36.7437 177.76 36.4544Z" fill="#1164E9"/>
<path d="M177.76 44.3074C177.76 44.092 177.824 43.8814 177.944 43.7024C178.064 43.5233 178.235 43.3838 178.434 43.3015C178.633 43.2192 178.852 43.1977 179.063 43.2398C179.275 43.2819 179.469 43.3857 179.621 43.5381C179.773 43.6905 179.877 43.8846 179.919 44.0959C179.961 44.3072 179.94 44.5263 179.858 44.7254C179.775 44.9245 179.636 45.0948 179.457 45.2147C179.278 45.3346 179.067 45.3988 178.852 45.399C178.708 45.3992 178.566 45.3711 178.434 45.3164C178.301 45.2616 178.181 45.1812 178.079 45.0798C177.978 44.9784 177.898 44.8579 177.843 44.7254C177.788 44.5929 177.76 44.4508 177.76 44.3074Z" fill="#1164E9"/>
<path d="M177.76 52.158C177.76 51.9425 177.824 51.7319 177.944 51.5529C178.064 51.3738 178.235 51.2343 178.434 51.152C178.633 51.0697 178.852 51.0482 179.063 51.0903C179.275 51.1325 179.469 51.2362 179.621 51.3886C179.773 51.541 179.877 51.7351 179.919 51.9464C179.961 52.1577 179.94 52.3768 179.858 52.5759C179.775 52.7751 179.636 52.9453 179.457 53.0652C179.278 53.1851 179.067 53.2493 178.852 53.2496C178.562 53.2496 178.284 53.1346 178.08 52.9298C177.875 52.7251 177.76 52.4475 177.76 52.158Z" fill="#1164E9"/>
<path d="M251.737 33.4768C251.737 33.6924 251.673 33.9031 251.553 34.0823C251.433 34.2615 251.263 34.4013 251.064 34.4838C250.865 34.5664 250.646 34.588 250.434 34.5461C250.223 34.5042 250.029 34.4005 249.876 34.2482C249.724 34.0959 249.62 33.9018 249.578 33.6904C249.535 33.4791 249.557 33.2599 249.639 33.0607C249.721 32.8615 249.861 32.6911 250.04 32.5712C250.219 32.4512 250.43 32.387 250.645 32.3867C250.934 32.3867 251.212 32.5015 251.416 32.7059C251.621 32.9103 251.736 33.1876 251.737 33.4768Z" fill="#1164E9"/>
<path d="M251.737 25.6254C251.737 25.8409 251.673 26.0516 251.553 26.2308C251.433 26.4101 251.263 26.5498 251.064 26.6324C250.865 26.7149 250.646 26.7366 250.434 26.6947C250.223 26.6527 250.029 26.549 249.876 26.3967C249.724 26.2444 249.62 26.0503 249.578 25.839C249.535 25.6276 249.557 25.4084 249.639 25.2092C249.721 25.01 249.861 24.8397 250.04 24.7197C250.219 24.5997 250.43 24.5355 250.645 24.5352C250.934 24.5352 251.212 24.65 251.416 24.8544C251.621 25.0588 251.736 25.3361 251.737 25.6254Z" fill="#1164E9"/>
<path d="M33.4107 207.92L38.2443 200.733H28.7207L33.4107 207.92Z" fill="#1164E9"/>
<path d="M33.4827 133.786C34.0848 133.786 34.5729 133.298 34.5729 132.696C34.5729 132.094 34.0848 131.606 33.4827 131.606C32.8807 131.606 32.3926 132.094 32.3926 132.696C32.3926 133.298 32.8807 133.786 33.4827 133.786Z" fill="#1164E9"/>
<path d="M33.4842 141.643C34.0871 141.643 34.5759 141.154 34.5759 140.552C34.5759 139.949 34.0871 139.46 33.4842 139.46C32.8814 139.46 32.3926 139.949 32.3926 140.552C32.3926 141.154 32.8814 141.643 33.4842 141.643Z" fill="#1164E9"/>
<path d="M33.4842 149.495C34.0871 149.495 34.5759 149.006 34.5759 148.403C34.5759 147.8 34.0871 147.312 33.4842 147.312C32.8814 147.312 32.3926 147.8 32.3926 148.403C32.3926 149.006 32.8814 149.495 33.4842 149.495Z" fill="#1164E9"/>
<path d="M33.4842 157.351C34.0871 157.351 34.5759 156.862 34.5759 156.259C34.5759 155.656 34.0871 155.167 33.4842 155.167C32.8814 155.167 32.3926 155.656 32.3926 156.259C32.3926 156.862 32.8814 157.351 33.4842 157.351Z" fill="#1164E9"/>
<path d="M33.4827 165.199C34.0848 165.199 34.5729 164.711 34.5729 164.109C34.5729 163.507 34.0848 163.019 33.4827 163.019C32.8807 163.019 32.3926 163.507 32.3926 164.109C32.3926 164.711 32.8807 165.199 33.4827 165.199Z" fill="#1164E9"/>
<path d="M32.3926 171.965C32.3926 171.75 32.4565 171.539 32.5762 171.36C32.696 171.18 32.8661 171.041 33.0652 170.958C33.2643 170.876 33.4834 170.854 33.6949 170.896C33.9063 170.938 34.1005 171.041 34.2531 171.194C34.4056 171.346 34.5095 171.54 34.5517 171.752C34.594 171.963 34.5726 172.182 34.4903 172.381C34.408 172.58 34.2686 172.751 34.0895 172.871C33.9104 172.991 33.6998 173.055 33.4842 173.055C33.195 173.055 32.9176 172.94 32.7129 172.736C32.5082 172.532 32.393 172.254 32.3926 171.965Z" fill="#1164E9"/>
<path d="M33.4842 180.912C34.0871 180.912 34.5759 180.423 34.5759 179.82C34.5759 179.217 34.0871 178.729 33.4842 178.729C32.8814 178.729 32.3926 179.217 32.3926 179.82C32.3926 180.423 32.8814 180.912 33.4842 180.912Z" fill="#1164E9"/>
<path d="M33.4842 188.764C34.0871 188.764 34.5759 188.275 34.5759 187.672C34.5759 187.069 34.0871 186.58 33.4842 186.58C32.8814 186.58 32.3926 187.069 32.3926 187.672C32.3926 188.275 32.8814 188.764 33.4842 188.764Z" fill="#1164E9"/>
<path d="M32.3926 195.524C32.3926 195.309 32.4565 195.098 32.5762 194.919C32.696 194.739 32.8661 194.6 33.0652 194.517C33.2643 194.435 33.4834 194.413 33.6949 194.455C33.9063 194.497 34.1005 194.601 34.2531 194.753C34.4056 194.905 34.5095 195.099 34.5517 195.311C34.594 195.522 34.5726 195.741 34.4903 195.94C34.408 196.14 34.2686 196.31 34.0895 196.43C33.9104 196.55 33.6998 196.614 33.4842 196.614C33.341 196.615 33.1991 196.586 33.0666 196.532C32.9342 196.477 32.8138 196.397 32.7125 196.296C32.6111 196.194 32.5306 196.074 32.4757 195.942C32.4209 195.809 32.3926 195.668 32.3926 195.524Z" fill="#1164E9"/>
<path d="M390.625 60.3701L385.793 67.5577H395.315L390.625 60.3701Z" fill="#1164E9"/>
<path d="M391.644 135.595C391.644 135.81 391.58 136.022 391.461 136.201C391.341 136.381 391.17 136.521 390.971 136.604C390.772 136.687 390.552 136.709 390.34 136.667C390.128 136.625 389.934 136.521 389.781 136.368C389.628 136.216 389.524 136.021 389.482 135.81C389.439 135.598 389.461 135.378 389.544 135.179C389.626 134.979 389.766 134.808 389.946 134.688C390.125 134.568 390.336 134.504 390.552 134.504C390.695 134.504 390.837 134.532 390.97 134.587C391.102 134.642 391.223 134.722 391.324 134.823C391.425 134.924 391.506 135.045 391.561 135.177C391.616 135.309 391.644 135.451 391.644 135.595Z" fill="#1164E9"/>
<path d="M391.644 127.743C391.644 127.959 391.58 128.17 391.461 128.35C391.341 128.53 391.17 128.67 390.971 128.753C390.772 128.835 390.552 128.857 390.34 128.815C390.128 128.773 389.934 128.669 389.781 128.517C389.628 128.364 389.524 128.17 389.482 127.958C389.439 127.746 389.461 127.527 389.544 127.327C389.626 127.128 389.766 126.957 389.946 126.837C390.125 126.717 390.336 126.653 390.552 126.653C390.841 126.653 391.119 126.768 391.324 126.972C391.528 127.176 391.643 127.454 391.644 127.743Z" fill="#1164E9"/>
<path d="M391.644 119.889C391.644 120.105 391.58 120.316 391.461 120.496C391.341 120.676 391.17 120.816 390.971 120.899C390.772 120.982 390.552 121.003 390.34 120.962C390.128 120.92 389.934 120.816 389.781 120.663C389.628 120.511 389.524 120.316 389.482 120.104C389.439 119.892 389.461 119.673 389.544 119.473C389.626 119.274 389.766 119.103 389.946 118.983C390.125 118.863 390.336 118.799 390.552 118.799C390.695 118.799 390.837 118.827 390.97 118.882C391.102 118.936 391.223 119.017 391.324 119.118C391.425 119.219 391.506 119.339 391.561 119.472C391.616 119.604 391.644 119.746 391.644 119.889Z" fill="#1164E9"/>
<path d="M390.557 113.126C391.16 113.126 391.648 112.638 391.648 112.035C391.648 111.432 391.16 110.943 390.557 110.943C389.954 110.943 389.465 111.432 389.465 112.035C389.465 112.638 389.954 113.126 390.557 113.126Z" fill="#1164E9"/>
<path d="M391.644 104.182C391.644 104.398 391.58 104.609 391.461 104.789C391.341 104.968 391.17 105.108 390.971 105.191C390.772 105.274 390.552 105.296 390.34 105.254C390.128 105.212 389.934 105.108 389.781 104.956C389.628 104.803 389.524 104.608 389.482 104.397C389.439 104.185 389.461 103.965 389.544 103.766C389.626 103.566 389.766 103.396 389.946 103.276C390.125 103.156 390.336 103.092 390.552 103.092C390.695 103.091 390.837 103.119 390.97 103.174C391.102 103.229 391.223 103.309 391.324 103.41C391.425 103.512 391.506 103.632 391.561 103.764C391.616 103.897 391.644 104.038 391.644 104.182Z" fill="#1164E9"/>
<path d="M391.644 96.3318C391.644 96.5477 391.58 96.7588 391.46 96.9383C391.34 97.1178 391.169 97.2577 390.97 97.3403C390.77 97.423 390.551 97.4446 390.339 97.4025C390.127 97.3603 389.933 97.2564 389.78 97.1037C389.628 96.951 389.524 96.7565 389.482 96.5448C389.439 96.333 389.461 96.1135 389.544 95.9141C389.626 95.7146 389.766 95.5441 389.946 95.4242C390.125 95.3042 390.336 95.2402 390.552 95.2402C390.842 95.2402 391.119 95.3552 391.324 95.5599C391.529 95.7646 391.644 96.0423 391.644 96.3318Z" fill="#1164E9"/>
<path d="M391.644 88.472C391.644 88.6879 391.58 88.8991 391.461 89.0788C391.341 89.2586 391.17 89.3987 390.971 89.4816C390.772 89.5644 390.552 89.5862 390.34 89.5443C390.128 89.5023 389.934 89.3985 389.781 89.2459C389.628 89.0933 389.524 88.8988 389.482 88.687C389.439 88.4752 389.461 88.2556 389.544 88.0561C389.626 87.8565 389.766 87.6859 389.946 87.5659C390.125 87.4459 390.336 87.3818 390.552 87.3818C390.695 87.3816 390.837 87.4097 390.97 87.4644C391.102 87.5191 391.223 87.5994 391.324 87.7006C391.425 87.8018 391.506 87.9221 391.561 88.0544C391.616 88.1868 391.644 88.3287 391.644 88.472Z" fill="#1164E9"/>
<path d="M391.644 80.6204C391.644 80.8364 391.58 81.0476 391.461 81.2273C391.341 81.407 391.17 81.5471 390.971 81.63C390.772 81.7128 390.552 81.7347 390.34 81.6927C390.128 81.6508 389.934 81.5469 389.781 81.3943C389.628 81.2417 389.524 81.0472 389.482 80.8354C389.439 80.6236 389.461 80.4041 389.544 80.2045C389.626 80.0049 389.766 79.8344 389.946 79.7144C390.125 79.5943 390.336 79.5303 390.552 79.5303C390.841 79.5303 391.119 79.6451 391.324 79.8495C391.528 80.0539 391.643 80.3311 391.644 80.6204Z" fill="#1164E9"/>
<path d="M391.644 72.7669C391.644 72.9829 391.58 73.1941 391.461 73.3738C391.341 73.5535 391.17 73.6937 390.971 73.7765C390.772 73.8594 390.552 73.8812 390.34 73.8393C390.128 73.7973 389.934 73.6935 389.781 73.5409C389.628 73.3883 389.524 73.1937 389.482 72.982C389.439 72.7702 389.461 72.5506 389.544 72.351C389.626 72.1515 389.766 71.9809 389.946 71.8609C390.125 71.7409 390.336 71.6768 390.552 71.6768C390.695 71.6766 390.837 71.7047 390.97 71.7594C391.102 71.8141 391.223 71.8943 391.324 71.9956C391.425 72.0968 391.506 72.2171 391.561 72.3494C391.616 72.4818 391.644 72.6237 391.644 72.7669Z" fill="#1164E9"/>
<path d="M304.257 317.535H164.383V446.748H304.257V317.535Z" fill="#ABD0EE"/>
<path d="M304.256 317.535H260.516V446.748H304.256V317.535Z" fill="#64B4FF"/>
<path d="M264.503 415.869H160.775V441.613H264.503V415.869Z" fill="#1164E9"/>
<path d="M307.862 415.869H264.506V441.613H307.862V415.869Z" fill="#ABD0EE"/>
<path d="M262.733 417.639V439.843H162.545V417.639H262.733ZM264.503 415.869H160.775V441.611H264.503V415.869Z" fill="#ABD0EE"/>
<path d="M203.634 426.532H169.467V430.96H203.634V426.532Z" fill="white"/>
<path d="M226.497 426.531H224.006V430.959H226.497V426.531Z" fill="#9AB4EF"/>
<path d="M221.515 426.531H219.023V430.959H221.515V426.531Z" fill="#F9CF70"/>
<path d="M216.53 426.531H214.039V430.959H216.53V426.531Z" fill="#9AB4EF"/>
<path d="M211.551 426.531H209.059V430.959H211.551V426.531Z" fill="#F9CF70"/>
<path d="M255.81 422.341H243.904V434.247H255.81V422.341Z" fill="#ABD0EE"/>
<path d="M170.451 420.341H169.469V421.323H170.451V420.341Z" fill="white"/>
<path d="M173.391 420.341H172.408V421.323H173.391V420.341Z" fill="#9AB4EF"/>
<path d="M176.335 420.341H175.352V421.323H176.335V420.341Z" fill="#9AB4EF"/>
<path d="M264.503 384.802H160.775V410.546H264.503V384.802Z" fill="#1164E9"/>
<path d="M307.862 384.802H264.506V410.546H307.862V384.802Z" fill="#ABD0EE"/>
<path d="M262.733 386.572V408.774H162.545V386.572H262.733ZM264.503 384.802H160.775V410.544H264.503V384.802Z" fill="#ABD0EE"/>
<path d="M203.634 395.461H169.467V399.889H203.634V395.461Z" fill="white"/>
<path d="M226.498 395.461H224.006V399.889H226.498V395.461Z" fill="#9AB4EF"/>
<path d="M221.514 395.461H219.023V399.889H221.514V395.461Z" fill="#F9CF70"/>
<path d="M216.531 395.461H214.039V399.889H216.531V395.461Z" fill="#9AB4EF"/>
<path d="M211.551 395.461H209.059V399.889H211.551V395.461Z" fill="#F9CF70"/>
<path d="M255.81 391.275H243.904V403.181H255.81V391.275Z" fill="#ABD0EE"/>
<path d="M170.451 389.275H169.469V390.257H170.451V389.275Z" fill="white"/>
<path d="M173.39 389.275H172.408V390.257H173.39V389.275Z" fill="#9AB4EF"/>
<path d="M176.335 389.275H175.352V390.257H176.335V389.275Z" fill="#9AB4EF"/>
<path d="M264.503 353.734H160.775V379.478H264.503V353.734Z" fill="#1164E9"/>
<path d="M307.862 353.734H264.506V379.478H307.862V353.734Z" fill="#ABD0EE"/>
<path d="M262.735 355.5V377.702H162.547V355.5H262.735ZM264.504 353.73H160.777V379.472H264.504V353.733V353.73Z" fill="#ABD0EE"/>
<path d="M203.634 364.396H169.467V368.824H203.634V364.396Z" fill="white"/>
<path d="M226.497 364.396H224.006V368.823H226.497V364.396Z" fill="#9AB4EF"/>
<path d="M221.515 364.396H219.023V368.823H221.515V364.396Z" fill="#F9CF70"/>
<path d="M216.53 364.396H214.039V368.823H216.53V364.396Z" fill="#9AB4EF"/>
<path d="M211.551 364.396H209.059V368.823H211.551V364.396Z" fill="#F9CF70"/>
<path d="M255.81 360.206H243.904V372.112H255.81V360.206Z" fill="#ABD0EE"/>
<path d="M170.451 358.206H169.469V359.188H170.451V358.206Z" fill="white"/>
<path d="M173.391 358.206H172.408V359.188H173.391V358.206Z" fill="#9AB4EF"/>
<path d="M176.335 358.206H175.352V359.188H176.335V358.206Z" fill="#9AB4EF"/>
<path d="M264.503 322.667H160.775V348.411H264.503V322.667Z" fill="#1164E9"/>
<path d="M307.862 322.667H264.506V348.411H307.862V322.667Z" fill="#ABD0EE"/>
<path d="M262.733 324.437V346.641H162.545V324.437H262.733ZM264.503 322.667H160.775V348.409H264.503V322.671V322.667Z" fill="#ABD0EE"/>
<path d="M203.634 333.329H169.467V337.757H203.634V333.329Z" fill="white"/>
<path d="M226.498 333.329H224.006V337.757H226.498V333.329Z" fill="#9AB4EF"/>
<path d="M221.514 333.329H219.023V337.757H221.514V333.329Z" fill="#F9CF70"/>
<path d="M216.53 333.33H214.039V337.757H216.53V333.33Z" fill="#9AB4EF"/>
<path d="M211.551 333.329H209.059V337.757H211.551V333.329Z" fill="#F9CF70"/>
<path d="M255.81 329.142H243.904V341.048H255.81V329.142Z" fill="#ABD0EE"/>
<path d="M170.451 327.138H169.469V328.12H170.451V327.138Z" fill="white"/>
<path d="M173.39 327.138H172.408V328.12H173.39V327.138Z" fill="#9AB4EF"/>
<path d="M176.335 327.138H175.352V328.12H176.335V327.138Z" fill="#9AB4EF"/>
<path d="M294.119 421.58H278.246C275.968 421.58 274.121 423.427 274.121 425.705V431.777C274.121 434.055 275.968 435.902 278.246 435.902H294.119C296.397 435.902 298.244 434.055 298.244 431.777V425.705C298.244 423.427 296.397 421.58 294.119 421.58Z" fill="#1164E9"/>
<path d="M287.974 430.73V426.758C287.974 426.187 287.511 425.724 286.94 425.724H285.422C284.851 425.724 284.389 426.187 284.389 426.758V430.73C284.389 431.301 284.851 431.763 285.422 431.763H286.94C287.511 431.763 287.974 431.301 287.974 430.73Z" fill="#ABD0EE"/>
<path d="M294.119 390.513H278.246C275.968 390.513 274.121 392.36 274.121 394.639V400.711C274.121 402.989 275.968 404.836 278.246 404.836H294.119C296.397 404.836 298.244 402.989 298.244 400.711V394.639C298.244 392.36 296.397 390.513 294.119 390.513Z" fill="#1164E9"/>
<path d="M287.974 399.66V395.687C287.974 395.117 287.511 394.654 286.94 394.654H285.422C284.851 394.654 284.389 395.117 284.389 395.687V399.66C284.389 400.231 284.851 400.693 285.422 400.693H286.94C287.511 400.693 287.974 400.231 287.974 399.66Z" fill="#ABD0EE"/>
<path d="M294.119 359.449H278.246C275.968 359.449 274.121 361.296 274.121 363.574V369.646C274.121 371.925 275.968 373.772 278.246 373.772H294.119C296.397 373.772 298.244 371.925 298.244 369.646V363.574C298.244 361.296 296.397 359.449 294.119 359.449Z" fill="#1164E9"/>
<path d="M287.974 368.596V364.623C287.974 364.052 287.511 363.59 286.94 363.59H285.422C284.851 363.59 284.389 364.052 284.389 364.623V368.596C284.389 369.166 284.851 369.629 285.422 369.629H286.94C287.511 369.629 287.974 369.166 287.974 368.596Z" fill="#ABD0EE"/>
<path d="M294.119 328.379H278.246C275.968 328.379 274.121 330.226 274.121 332.504V338.576C274.121 340.854 275.968 342.701 278.246 342.701H294.119C296.397 342.701 298.244 340.854 298.244 338.576V332.504C298.244 330.226 296.397 328.379 294.119 328.379Z" fill="#1164E9"/>
<path d="M287.974 337.526V333.553C287.974 332.982 287.511 332.52 286.94 332.52H285.422C284.851 332.52 284.389 332.982 284.389 333.553V337.526C284.389 338.096 284.851 338.559 285.422 338.559H286.94C287.511 338.559 287.974 338.096 287.974 337.526Z" fill="#ABD0EE"/>
<path d="M304.257 193.455H164.383V322.668H304.257V193.455Z" fill="#ABD0EE"/>
<path d="M304.256 193.455H260.516V322.668H304.256V193.455Z" fill="#64B5FF"/>
<path d="M264.503 291.794H160.775V317.537H264.503V291.794Z" fill="#1164E9"/>
<path d="M307.862 291.793H264.506V317.537H307.862V291.793Z" fill="#ABD0EE"/>
<path d="M262.733 293.559V315.765H162.545V293.559H262.733ZM264.503 291.789H160.775V317.531H264.503V291.793V291.789Z" fill="#ABD0EE"/>
<path d="M203.634 302.453H169.467V306.881H203.634V302.453Z" fill="white"/>
<path d="M226.498 302.452H224.006V306.88H226.498V302.452Z" fill="#ABD0EE"/>
<path d="M221.514 302.452H219.023V306.88H221.514V302.452Z" fill="#F9CF70"/>
<path d="M216.53 302.452H214.039V306.88H216.53V302.452Z" fill="#ABD0EE"/>
<path d="M211.551 302.452H209.059V306.88H211.551V302.452Z" fill="#F9CF70"/>
<path d="M255.81 298.265H243.904V310.171H255.81V298.265Z" fill="#ABD0EE"/>
<path d="M170.451 296.261H169.469V297.243H170.451V296.261Z" fill="white"/>
<path d="M173.39 296.261H172.408V297.243H173.39V296.261Z" fill="#ABD0EE"/>
<path d="M176.335 296.261H175.352V297.243H176.335V296.261Z" fill="#ABD0EE"/>
<path d="M264.503 260.726H160.775V286.469H264.503V260.726Z" fill="#1164E9"/>
<path d="M307.862 260.726H264.506V286.469H307.862V260.726Z" fill="#ABD0EE"/>
<path d="M262.733 262.494V284.696H162.545V262.494H262.733ZM264.503 260.727H160.775V286.469H264.503V260.727Z" fill="#ABD0EE"/>
<path d="M203.634 271.383H169.467V275.811H203.634V271.383Z" fill="white"/>
<path d="M226.498 271.384H224.006V275.812H226.498V271.384Z" fill="#ABD0EE"/>
<path d="M221.514 271.384H219.023V275.812H221.514V271.384Z" fill="#F9CF70"/>
<path d="M216.531 271.384H214.039V275.812H216.531V271.384Z" fill="#ABD0EE"/>
<path d="M211.551 271.384H209.059V275.812H211.551V271.384Z" fill="#F9CF70"/>
<path d="M255.81 267.198H243.904V279.104H255.81V267.198Z" fill="#ABD0EE"/>
<path d="M170.451 265.198H169.469V266.18H170.451V265.198Z" fill="white"/>
<path d="M173.39 265.198H172.408V266.18H173.39V265.198Z" fill="#ABD0EE"/>
<path d="M176.335 265.198H175.352V266.18H176.335V265.198Z" fill="#ABD0EE"/>
<path d="M264.503 229.658H160.775V255.402H264.503V229.658Z" fill="#1164E9"/>
<path d="M307.862 229.658H264.506V255.402H307.862V229.658Z" fill="#ABD0EE"/>
<path d="M262.733 231.428V253.63H162.545V231.428H262.733ZM264.503 229.658H160.775V255.4H264.503V229.658Z" fill="#ABD0EE"/>
<path d="M203.634 240.32H169.467V244.747H203.634V240.32Z" fill="white"/>
<path d="M226.498 240.319H224.006V244.747H226.498V240.319Z" fill="#ABD0EE"/>
<path d="M221.514 240.319H219.023V244.747H221.514V240.319Z" fill="#F9CF70"/>
<path d="M216.531 240.319H214.039V244.747H216.531V240.319Z" fill="#ABD0EE"/>
<path d="M211.551 240.319H209.059V244.747H211.551V240.319Z" fill="#F9CF70"/>
<path d="M255.81 236.129H243.904V248.035H255.81V236.129Z" fill="#ABD0EE"/>
<path d="M170.451 234.129H169.469V235.112H170.451V234.129Z" fill="white"/>
<path d="M173.39 234.129H172.408V235.112H173.39V234.129Z" fill="#ABD0EE"/>
<path d="M176.335 234.129H175.352V235.112H176.335V234.129Z" fill="#ABD0EE"/>
<path d="M264.503 198.595H160.775V224.339H264.503V198.595Z" fill="#1164E9"/>
<path d="M307.862 198.595H264.506V224.339H307.862V198.595Z" fill="#ABD0EE"/>
<path d="M262.733 200.365V222.567H162.545V200.365H262.733ZM264.503 198.595H160.775V224.337H264.503V198.595Z" fill="#ABD0EE"/>
<path d="M203.634 209.254H169.467V213.682H203.634V209.254Z" fill="white"/>
<path d="M226.498 209.255H224.006V213.683H226.498V209.255Z" fill="#ABD0EE"/>
<path d="M221.514 209.255H219.023V213.683H221.514V209.255Z" fill="#F9CF70"/>
<path d="M216.531 209.255H214.039V213.683H216.531V209.255Z" fill="#ABD0EE"/>
<path d="M211.551 209.255H209.059V213.683H211.551V209.255Z" fill="#F9CF70"/>
<path d="M255.81 205.068H243.904V216.974H255.81V205.068Z" fill="#ABD0EE"/>
<path d="M170.451 203.068H169.469V204.05H170.451V203.068Z" fill="white"/>
<path d="M173.39 203.068H172.408V204.05H173.39V203.068Z" fill="#ABD0EE"/>
<path d="M176.335 203.068H175.352V204.05H176.335V203.068Z" fill="#ABD0EE"/>
<path d="M294.119 297.501H278.246C275.968 297.501 274.121 299.348 274.121 301.627V307.699C274.121 309.977 275.968 311.824 278.246 311.824H294.119C296.397 311.824 298.244 309.977 298.244 307.699V301.627C298.244 299.348 296.397 297.501 294.119 297.501Z" fill="#1164E9"/>
<path d="M287.974 306.652V302.679C287.974 302.109 287.511 301.646 286.94 301.646H285.422C284.851 301.646 284.389 302.109 284.389 302.679V306.652C284.389 307.223 284.851 307.685 285.422 307.685H286.94C287.511 307.685 287.974 307.223 287.974 306.652Z" fill="#ABD0EE"/>
<path d="M294.119 266.435H278.246C275.968 266.435 274.121 268.282 274.121 270.56V276.632C274.121 278.911 275.968 280.758 278.246 280.758H294.119C296.397 280.758 298.244 278.911 298.244 276.632V270.56C298.244 268.282 296.397 266.435 294.119 266.435Z" fill="#1164E9"/>
<path d="M287.974 275.582V271.609C287.974 271.039 287.511 270.576 286.94 270.576H285.422C284.851 270.576 284.389 271.039 284.389 271.609V275.582C284.389 276.152 284.851 276.615 285.422 276.615H286.94C287.511 276.615 287.974 276.152 287.974 275.582Z" fill="#ABD0EE"/>
<path d="M294.119 235.371H278.246C275.968 235.371 274.121 237.218 274.121 239.496V245.568C274.121 247.846 275.968 249.693 278.246 249.693H294.119C296.397 249.693 298.244 247.846 298.244 245.568V239.496C298.244 237.218 296.397 235.371 294.119 235.371Z" fill="#1164E9"/>
<path d="M287.974 244.518V240.545C287.974 239.974 287.511 239.512 286.94 239.512H285.422C284.851 239.512 284.389 239.974 284.389 240.545V244.518C284.389 245.088 284.851 245.551 285.422 245.551H286.94C287.511 245.551 287.974 245.088 287.974 244.518Z" fill="#ABD0EE"/>
<path d="M294.119 204.301H278.246C275.968 204.301 274.121 206.148 274.121 208.426V214.498C274.121 216.776 275.968 218.623 278.246 218.623H294.119C296.397 218.623 298.244 216.776 298.244 214.498V208.426C298.244 206.148 296.397 204.301 294.119 204.301Z" fill="#1164E9"/>
<path d="M287.974 213.45V209.477C287.974 208.906 287.511 208.444 286.94 208.444H285.422C284.851 208.444 284.389 208.906 284.389 209.477V213.45C284.389 214.02 284.851 214.483 285.422 214.483H286.94C287.511 214.483 287.974 214.02 287.974 213.45Z" fill="#ABD0EE"/>
<path d="M320.674 142.494V211.607H307.198V210.916H302.144V211.607H287.975V212.994H302.144V213.687H307.198V212.994H320.674V242.674H307.198V241.986H302.144V242.677H287.975V244.064H302.144V244.757H307.198V244.064H320.674V273.744H307.198V273.052H302.144V273.744H287.975V275.131H302.144V275.824H307.198V275.131H320.674V304.811H287.975V306.198H320.674V335.69H307.198V334.996H302.144V335.69H287.975V337.076H302.144V337.77H307.198V337.072H320.674V366.752H307.198V366.059H302.144V366.752H287.975V368.139H302.144V368.832H307.198V368.139H320.674V397.819H307.198V397.118H302.144V397.81H287.975V399.197H302.144V399.89H307.198V399.197H320.674V428.877H307.198V428.185H302.144V428.877H287.975V430.265H302.144V430.957H307.198V430.265H322.058V142.675C321.595 142.608 321.133 142.557 320.674 142.494Z" fill="#64B4FF"/>
<path d="M321.571 143.023C323.069 143.023 324.284 141.808 324.284 140.31C324.284 138.811 323.069 137.596 321.571 137.596C320.072 137.596 318.857 138.811 318.857 140.31C318.857 141.808 320.072 143.023 321.571 143.023Z" fill="#F9CF70"/>
<path d="M319.571 214.176C321.069 214.176 322.284 212.961 322.284 211.462C322.284 209.964 321.069 208.749 319.571 208.749C318.072 208.749 316.857 209.964 316.857 211.462C316.857 212.961 318.072 214.176 319.571 214.176Z" fill="#F9CF70"/>
<path d="M319.571 245.127C321.069 245.127 322.284 243.913 322.284 242.414C322.284 240.915 321.069 239.701 319.571 239.701C318.072 239.701 316.857 240.915 316.857 242.414C316.857 243.913 318.072 245.127 319.571 245.127Z" fill="#F9CF70"/>
<path d="M319.571 276.31C321.069 276.31 322.284 275.095 322.284 273.596C322.284 272.098 321.069 270.883 319.571 270.883C318.072 270.883 316.857 272.098 316.857 273.596C316.857 275.095 318.072 276.31 319.571 276.31Z" fill="#F9CF70"/>
<path d="M319.571 307.031C321.069 307.031 322.284 305.815 322.284 304.316C322.284 302.818 321.069 301.604 319.571 301.604C318.072 301.604 316.857 302.818 316.857 304.316C316.857 305.815 318.072 307.031 319.571 307.031Z" fill="#F9CF70"/>
<path d="M319.571 337.982C321.069 337.982 322.284 336.768 322.284 335.269C322.284 333.77 321.069 332.556 319.571 332.556C318.072 332.556 316.857 333.77 316.857 335.269C316.857 336.768 318.072 337.982 319.571 337.982Z" fill="#F9CF70"/>
<path d="M319.571 368.934C321.069 368.934 322.284 367.719 322.284 366.221C322.284 364.722 321.069 363.507 319.571 363.507C318.072 363.507 316.857 364.722 316.857 366.221C316.857 367.719 318.072 368.934 319.571 368.934Z" fill="#F9CF70"/>
<path d="M319.571 399.886C321.069 399.886 322.284 398.671 322.284 397.172C322.284 395.674 321.069 394.459 319.571 394.459C318.072 394.459 316.857 395.674 316.857 397.172C316.857 398.671 318.072 399.886 319.571 399.886Z" fill="#F9CF70"/>
<path d="M319.571 430.837C321.069 430.837 322.284 429.622 322.284 428.124C322.284 426.625 321.069 425.411 319.571 425.411C318.072 425.411 316.857 426.625 316.857 428.124C316.857 429.622 318.072 430.837 319.571 430.837Z" fill="#F9CF70"/>
</svg>
