<svg width="209" height="138" viewBox="0 0 209 138" fill="none" xmlns="http://www.w3.org/2000/svg">
<g filter="url(#filter0_d_2_1728)">
<path d="M182.708 10.416H137.154C135.872 10.416 134.835 11.4394 134.835 12.7036C134.835 11.4394 133.797 10.416 132.515 10.416H86.9594C85.6795 10.416 84.6401 11.4394 84.6401 12.7036V72.7433C84.6401 74.0075 85.6795 75.0308 86.9594 75.0308H124.897C126.155 76.1509 127.821 76.8313 129.649 76.8313H140.019C141.846 76.8313 143.513 76.1491 144.771 75.0308H182.708C183.99 75.0308 185.028 74.0075 185.028 72.7433V12.7036C185.028 11.4394 183.99 10.416 182.708 10.416Z" fill="#495F6A"/>
<path d="M90.5597 9.47852H133.332C134.161 9.47852 134.834 10.1425 134.834 10.9598V69.5858C134.834 70.403 134.161 71.067 133.332 71.067H90.5597C89.7311 71.067 89.0579 70.403 89.0579 69.5858V10.9598C89.0579 10.1425 89.7311 9.47852 90.5597 9.47852Z" fill="#FFEACA"/>
<path d="M136.339 9.47852H179.112C179.941 9.47852 180.614 10.1425 180.614 10.9598V69.5858C180.614 70.403 179.941 71.067 179.112 71.067H136.339C135.511 71.067 134.838 70.403 134.838 69.5858V10.9598C134.838 10.1425 135.511 9.47852 136.339 9.47852Z" fill="#FFEACA"/>
<g style="mix-blend-mode:multiply">
<path d="M90.5597 9.47852H133.332C134.161 9.47852 134.834 10.1425 134.834 10.9598V69.5858C134.834 70.403 134.161 71.067 133.332 71.067H90.5597C89.7311 71.067 89.0579 70.403 89.0579 69.5858V10.9598C89.0579 10.1425 89.7311 9.47852 90.5597 9.47852Z" fill="#80B7E5" fill-opacity="0.57"/>
<path d="M136.339 9.47852H179.112C179.941 9.47852 180.614 10.1425 180.614 10.9598V69.5858C180.614 70.403 179.941 71.067 179.112 71.067H136.339C135.511 71.067 134.838 70.403 134.838 69.5858V10.9598C134.838 10.1425 135.511 9.47852 136.339 9.47852Z" fill="#80B7E5" fill-opacity="0.57"/>
</g>
<path d="M92.0878 10.8652V66.9938C92.0878 67.7582 92.7167 68.3766 93.4898 68.3766H132.486C133.26 68.3766 133.887 67.7563 133.887 66.9938V9.5937C133.887 9.5937 133.878 9.58823 133.875 9.58458C133.706 9.51891 133.523 9.48242 133.331 9.48242H93.4916C92.7167 9.48242 92.0897 10.1026 92.0897 10.8652H92.0878Z" fill="white"/>
<path d="M135.791 9.58275C135.791 9.58275 135.782 9.58823 135.778 9.5937V66.9938C135.778 67.7582 136.407 68.3766 137.18 68.3766H176.176C176.951 68.3766 177.578 67.7563 177.578 66.9938V10.8652C177.578 10.1008 176.949 9.48242 176.176 9.48242H136.335C136.143 9.48242 135.96 9.51891 135.791 9.58458V9.58275Z" fill="white"/>
<path d="M98.1427 16.2914H130.195C130.565 16.2914 130.865 15.9959 130.865 15.6311C130.865 15.2662 130.565 14.9707 130.195 14.9707H98.1427C97.7728 14.9707 97.4732 15.2662 97.4732 15.6311C97.4732 15.9959 97.7728 16.2914 98.1427 16.2914Z" fill="#CCBBA2"/>
<path d="M130.193 19.4805H98.1427C97.7728 19.4805 97.4732 19.776 97.4732 20.1408C97.4732 20.5057 97.7728 20.8012 98.1427 20.8012H130.195C130.565 20.8012 130.865 20.5057 130.865 20.1408C130.865 19.776 130.565 19.4805 130.195 19.4805H130.193Z" fill="#CCBBA2"/>
<path d="M130.193 23.9902H98.1427C97.7728 23.9902 97.4732 24.2858 97.4732 24.6506C97.4732 25.0154 97.7728 25.311 98.1427 25.311H130.195C130.565 25.311 130.865 25.0154 130.865 24.6506C130.865 24.2858 130.565 23.9902 130.195 23.9902H130.193Z" fill="#CCBBA2"/>
<path d="M130.193 28.4961H98.1427C97.7728 28.4961 97.4732 28.7916 97.4732 29.1565C97.4732 29.5213 97.7728 29.8168 98.1427 29.8168H130.195C130.565 29.8168 130.865 29.5213 130.865 29.1565C130.865 28.7916 130.565 28.4961 130.195 28.4961H130.193Z" fill="#CCBBA2"/>
<path d="M130.193 33.0059H98.1427C97.7728 33.0059 97.4732 33.3014 97.4732 33.6662C97.4732 34.0311 97.7728 34.3266 98.1427 34.3266H130.195C130.565 34.3266 130.865 34.0311 130.865 33.6662C130.865 33.3014 130.565 33.0059 130.195 33.0059H130.193Z" fill="#CCBBA2"/>
<path d="M130.193 37.5195H98.1427C97.7728 37.5195 97.4732 37.8151 97.4732 38.1799C97.4732 38.5447 97.7728 38.8402 98.1427 38.8402H130.195C130.565 38.8402 130.865 38.5447 130.865 38.1799C130.865 37.8151 130.565 37.5195 130.195 37.5195H130.193Z" fill="#CCBBA2"/>
<path d="M130.193 42.0254H98.1427C97.7728 42.0254 97.4732 42.3209 97.4732 42.6857C97.4732 43.0506 97.7728 43.3461 98.1427 43.3461H130.195C130.565 43.3461 130.865 43.0506 130.865 42.6857C130.865 42.3209 130.565 42.0254 130.195 42.0254H130.193Z" fill="#CCBBA2"/>
<path d="M130.193 46.5352H98.1427C97.7728 46.5352 97.4732 46.8307 97.4732 47.1955C97.4732 47.5604 97.7728 47.8559 98.1427 47.8559H130.195C130.565 47.8559 130.865 47.5604 130.865 47.1955C130.865 46.8307 130.565 46.5352 130.195 46.5352H130.193Z" fill="#CCBBA2"/>
<path d="M130.193 51.0469H98.1427C97.7728 51.0469 97.4732 51.3424 97.4732 51.7072C97.4732 52.0721 97.7728 52.3676 98.1427 52.3676H130.195C130.565 52.3676 130.865 52.0721 130.865 51.7072C130.865 51.3424 130.565 51.0469 130.195 51.0469H130.193Z" fill="#CCBBA2"/>
<path d="M130.193 55.5547H98.1427C97.7728 55.5547 97.4732 55.8502 97.4732 56.215C97.4732 56.5799 97.7728 56.8754 98.1427 56.8754H130.195C130.565 56.8754 130.865 56.5799 130.865 56.215C130.865 55.8502 130.565 55.5547 130.195 55.5547H130.193Z" fill="#CCBBA2"/>
<path d="M130.193 60.4375H98.1427C97.7728 60.4375 97.4732 60.733 97.4732 61.0979C97.4732 61.4627 97.7728 61.7582 98.1427 61.7582H130.195C130.565 61.7582 130.865 61.4627 130.865 61.0979C130.865 60.733 130.565 60.4375 130.195 60.4375H130.193Z" fill="#CCBBA2"/>
<g style="mix-blend-mode:screen" opacity="0.3">
<path d="M99.7891 9.31055V43.0089C99.7891 48.735 104.494 53.3758 110.3 53.3758H117.151C122.956 53.3758 127.662 48.735 127.662 43.0089V9.31055H99.7891Z" fill="#FFEACA"/>
</g>
<path d="M171.399 33H139.346C138.976 33 138.677 33.2955 138.677 33.6604C138.677 34.0252 138.976 34.3207 139.346 34.3207H171.399C171.769 34.3207 172.068 34.0252 172.068 33.6604C172.068 33.2955 171.769 33 171.399 33Z" fill="#CCBBA2"/>
<path d="M171.399 37.5078H139.346C138.976 37.5078 138.677 37.8033 138.677 38.1682C138.677 38.533 138.976 38.8285 139.346 38.8285H171.399C171.769 38.8285 172.068 38.533 172.068 38.1682C172.068 37.8033 171.769 37.5078 171.399 37.5078Z" fill="#CCBBA2"/>
<path d="M171.399 42.0176H139.346C138.976 42.0176 138.677 42.3131 138.677 42.6779C138.677 43.0428 138.976 43.3383 139.346 43.3383H171.399C171.769 43.3383 172.068 43.0428 172.068 42.6779C172.068 42.3131 171.769 42.0176 171.399 42.0176Z" fill="#CCBBA2"/>
<path d="M151.079 21.0956C150.951 21.3109 151.023 21.5881 151.241 21.714L154.352 23.5218C154.423 23.5637 154.504 23.5838 154.585 23.5838C154.746 23.5838 154.898 23.4981 154.981 23.3612C155.109 23.146 155.037 22.8687 154.818 22.7428L151.707 20.9351C151.637 20.8949 151.556 20.873 151.474 20.873C151.313 20.873 151.162 20.9588 151.08 21.0956H151.079Z" fill="#CCBBA2"/>
<path d="M148.326 22.625C148.078 22.625 147.874 22.8257 147.871 23.0719L147.837 26.6346C147.835 26.8827 148.039 27.087 148.294 27.0906H148.296C148.546 27.0906 148.751 26.89 148.755 26.6437L148.788 23.0829C148.788 22.9625 148.742 22.8476 148.657 22.7618C148.572 22.6761 148.457 22.6268 148.326 22.6268V22.625Z" fill="#CCBBA2"/>
<path d="M154.552 26.2441C154.474 26.2441 154.395 26.2642 154.326 26.3025L151.182 28.0556C151.075 28.1158 150.999 28.2124 150.966 28.3274C150.932 28.4441 150.947 28.5663 151.008 28.6703C151.09 28.8126 151.243 28.9002 151.408 28.9002C151.487 28.9002 151.565 28.8801 151.633 28.8418L154.778 27.0887C154.885 27.0285 154.961 26.9319 154.994 26.8169C155.027 26.7002 155.012 26.578 154.951 26.474C154.87 26.3317 154.716 26.2441 154.552 26.2441Z" fill="#CCBBA2"/>
<path d="M162.174 15.3319C162.046 15.5454 162.118 15.8226 162.337 15.9503L165.067 17.5374C165.137 17.5775 165.216 17.5994 165.3 17.5994C165.461 17.5994 165.612 17.5137 165.694 17.3768C165.821 17.1616 165.749 16.8861 165.533 16.7584L162.803 15.1714C162.733 15.1313 162.653 15.1094 162.57 15.1094C162.409 15.1094 162.257 15.1951 162.176 15.3319H162.174Z" fill="#CCBBA2"/>
<path d="M159.809 16.6465C159.56 16.6465 159.354 16.8471 159.352 17.0934L159.325 20.2183C159.323 20.4663 159.526 20.6707 159.78 20.6743H159.782C160.031 20.6743 160.237 20.4736 160.238 20.2274L160.266 17.1025C160.268 16.8544 160.065 16.6501 159.809 16.6483V16.6465Z" fill="#CCBBA2"/>
<path d="M165.27 19.8203C165.192 19.8203 165.112 19.8404 165.044 19.8787L162.286 21.4165C162.066 21.5387 161.989 21.8142 162.113 22.0312C162.194 22.1735 162.346 22.2611 162.512 22.2611C162.59 22.2611 162.667 22.241 162.738 22.2027L165.497 20.6649C165.717 20.5427 165.795 20.2672 165.669 20.0502C165.588 19.9097 165.434 19.8203 165.27 19.8203Z" fill="#CCBBA2"/>
<path d="M168.976 15.1039C168.895 14.9616 168.743 14.874 168.579 14.874C168.499 14.874 168.421 14.8941 168.353 14.9324L166.579 15.9211L162.815 13.7339C162.745 13.6938 162.666 13.6719 162.582 13.6719C162.499 13.6719 162.425 13.6919 162.357 13.7302L158.576 15.839L156.756 14.8248C156.688 14.7865 156.61 14.7664 156.531 14.7664C156.366 14.7664 156.213 14.854 156.131 14.9962C156.007 15.2133 156.085 15.4888 156.305 15.611L158.094 16.6088L158.057 20.6841L156.039 21.8096L151.853 19.3761L151.849 17.2382C151.849 16.9901 151.644 16.7876 151.391 16.7876C151.269 16.7876 151.154 16.835 151.067 16.9208C150.98 17.0065 150.934 17.1196 150.934 17.24L150.938 19.4746L146.671 21.8534C146.528 21.9318 146.44 22.0814 146.438 22.2419L146.39 27.4427C146.39 27.6033 146.475 27.7547 146.615 27.8368L151.158 30.4782C151.228 30.5183 151.309 30.5402 151.391 30.5402C151.472 30.5402 151.546 30.5201 151.616 30.4818L156.207 27.9225C156.349 27.8422 156.438 27.6945 156.44 27.5339L156.484 22.6013L158.521 21.4648L162.04 23.5116L162.044 25.6021C162.044 25.8502 162.249 26.0527 162.503 26.0527C162.754 26.0527 162.96 25.8502 162.96 25.6003L162.956 23.5171L166.751 21.401C166.894 21.3225 166.982 21.173 166.984 21.0124L167.023 16.7146L168.802 15.7223C168.91 15.6621 168.986 15.5654 169.019 15.4505C169.052 15.3337 169.035 15.2133 168.976 15.1075V15.1039ZM155.526 27.2603L151.396 29.5624L147.309 27.1873L147.351 22.5083L151.42 20.239C151.452 20.239 151.483 20.2317 151.513 20.2244L155.567 22.5812L155.525 27.2603H155.526ZM166.071 20.7388L162.503 22.729L158.972 20.6768L159.009 16.6344L162.577 14.6442L166.108 16.6964L166.071 20.7388Z" fill="#CCBBA2"/>
<path d="M159.989 55.9197C159.967 55.8357 159.923 55.7591 159.862 55.6989C159.769 55.6077 159.643 55.5566 159.514 55.5566C159.473 55.5566 159.431 55.5621 159.39 55.5731C159.127 55.6406 158.97 55.9051 159.037 56.1641L160.063 60.0861C160.119 60.2995 160.315 60.4491 160.539 60.4491C160.579 60.4491 160.622 60.4437 160.663 60.4327C160.925 60.3652 161.082 60.1007 161.016 59.8417L159.987 55.9178L159.989 55.9197Z" fill="#CCBBA2"/>
<path d="M164.16 60.7076C164.065 60.7988 164.014 60.9192 164.012 61.0487C164.012 61.1782 164.06 61.3004 164.15 61.3898C164.243 61.4847 164.367 61.5376 164.502 61.5376C164.637 61.5376 164.755 61.4883 164.848 61.3989L167.779 58.5605C167.972 58.3726 167.975 58.0661 167.783 57.8728C167.691 57.7815 167.567 57.7305 167.435 57.7305C167.304 57.7305 167.184 57.7797 167.091 57.8691L164.16 60.7076Z" fill="#CCBBA2"/>
<path d="M166.404 54.7747C166.624 54.7747 166.818 54.6288 166.877 54.419C166.925 54.2512 166.877 54.0706 166.752 53.9466C166.692 53.8882 166.617 53.8444 166.535 53.8225L162.577 52.7389C162.535 52.728 162.49 52.7207 162.446 52.7207C162.226 52.7207 162.032 52.8666 161.972 53.0764C161.937 53.2005 161.954 53.3318 162.019 53.4449C162.083 53.558 162.189 53.6383 162.314 53.6729L166.273 54.7565C166.315 54.7675 166.359 54.7747 166.404 54.7747Z" fill="#CCBBA2"/>
<path d="M146.493 52.2341C146.471 52.1502 146.426 52.0736 146.365 52.0134C146.273 51.924 146.147 51.8711 146.018 51.8711C145.977 51.8711 145.934 51.8766 145.894 51.8857C145.766 51.9185 145.661 51.997 145.594 52.1082C145.527 52.2195 145.509 52.3509 145.542 52.4749L146.443 55.9172C146.498 56.1306 146.695 56.2802 146.918 56.2802C146.959 56.2802 147.002 56.2747 147.042 56.2656C147.17 56.2327 147.275 56.1543 147.342 56.043C147.408 55.9318 147.427 55.8004 147.394 55.6764L146.493 52.2341Z" fill="#CCBBA2"/>
<path d="M150.048 56.4059C149.954 56.4971 149.902 56.6175 149.9 56.747C149.9 56.8765 149.949 56.9987 150.045 57.0936C150.137 57.1848 150.261 57.2359 150.392 57.2359C150.524 57.2359 150.644 57.1866 150.736 57.0972L153.309 54.6054C153.403 54.5142 153.455 54.3938 153.455 54.2643C153.455 54.1348 153.407 54.0125 153.311 53.9177C153.219 53.8265 153.095 53.7754 152.963 53.7754C152.832 53.7754 152.712 53.8246 152.619 53.914L150.048 56.4059Z" fill="#CCBBA2"/>
<path d="M152.061 51.3017C152.281 51.3017 152.476 51.1558 152.535 50.946C152.581 50.7782 152.535 50.5976 152.409 50.4736C152.35 50.4152 152.276 50.3714 152.193 50.3495L148.719 49.3991C148.677 49.3882 148.632 49.3809 148.588 49.3809C148.368 49.3809 148.174 49.5268 148.114 49.7366C148.079 49.8606 148.096 49.992 148.161 50.1051C148.225 50.2182 148.331 50.2984 148.457 50.3331L151.93 51.2835C151.973 51.2944 152.017 51.3017 152.061 51.3017Z" fill="#CCBBA2"/>
<path d="M169.728 58.5883L168.228 52.8603C168.206 52.7764 168.162 52.6998 168.101 52.6396C168.042 52.5812 167.966 52.5374 167.884 52.5155L162.105 50.9321C162.062 50.9212 162.018 50.9139 161.973 50.9139C161.844 50.9139 161.722 50.9631 161.629 51.0525L157.558 54.9964L154.962 54.285L153.791 49.8139L155.505 48.1174C155.672 47.9514 155.692 47.696 155.568 47.5081V47.4935L155.481 47.4078H155.476C155.387 47.3311 155.276 47.291 155.158 47.291C155.026 47.291 154.902 47.3421 154.81 47.4333L153.101 49.1243L148.305 47.8109C148.263 47.8 148.218 47.7927 148.174 47.7927C148.044 47.7927 147.922 47.8419 147.83 47.9313L144.282 51.3681L142.026 50.7497C141.983 50.7387 141.939 50.7314 141.895 50.7314C141.675 50.7314 141.48 50.8774 141.421 51.0853C141.386 51.2094 141.403 51.3407 141.467 51.4538C141.532 51.5669 141.638 51.6472 141.763 51.6819L144.014 52.2984L145.261 57.0596C145.305 57.2256 145.437 57.3587 145.605 57.4044L150.382 58.7123L151.022 60.9871C151.081 61.1969 151.276 61.3428 151.496 61.3428C151.54 61.3428 151.584 61.3373 151.627 61.3245C151.888 61.2534 152.041 60.9852 151.969 60.728L151.338 58.4916L154.716 55.219L157.29 55.9231L158.681 61.2333L156.928 62.9681C156.761 63.1341 156.741 63.3895 156.867 63.5774V63.634L156.959 63.6796C157.048 63.7544 157.159 63.7945 157.277 63.7945C157.409 63.7945 157.533 63.7434 157.625 63.6522L159.458 61.839L164.846 63.3147C164.888 63.3257 164.933 63.333 164.977 63.333C165.106 63.333 165.228 63.2837 165.321 63.1944L169.601 59.0498C169.725 58.9294 169.776 58.7506 169.732 58.5828L169.728 58.5883ZM150.663 57.7911L146.139 56.5525L144.965 52.0686L148.316 48.8233L152.842 50.062L154.017 54.5458L150.665 57.7911H150.663ZM164.833 62.3133L159.685 60.9032L159.676 60.894H159.672C159.647 60.8703 159.619 60.8521 159.589 60.8357L158.243 55.6951L162.118 51.9427L167.35 53.3747L168.707 58.5609L164.833 62.3133Z" fill="#CCBBA2"/>
<g style="mix-blend-mode:screen" opacity="0.3">
<path d="M142.743 9.31055V43.0089C142.743 48.735 147.448 53.3758 153.254 53.3758H160.105C165.91 53.3758 170.616 48.735 170.616 43.0089V9.31055H142.743Z" fill="#FFEACA"/>
</g>
<path d="M46.6286 45.5762H31.2215C30.0702 45.5762 29.1368 46.4968 29.1368 47.6324V116.698C29.1368 117.834 30.0702 118.754 31.2215 118.754H46.6286C47.78 118.754 48.7134 117.834 48.7134 116.698V47.6324C48.7134 46.4968 47.78 45.5762 46.6286 45.5762Z" fill="#162F42"/>
<path d="M38.9615 99.4941C35.6018 99.4941 32.8776 102.181 32.8776 105.495C32.8776 108.808 35.6018 111.495 38.9615 111.495C42.3211 111.495 45.0454 108.808 45.0454 105.495C45.0454 102.181 42.3211 99.4941 38.9615 99.4941ZM38.9615 110.002C36.4377 110.002 34.3911 107.984 34.3911 105.495C34.3911 103.005 36.4377 100.987 38.9615 100.987C41.4852 100.987 43.5319 103.005 43.5319 105.495C43.5319 107.984 41.4852 110.002 38.9615 110.002Z" fill="#DAF2ED"/>
<path d="M41.9479 59.2129H35.9001C35.5104 59.2129 35.1945 59.5245 35.1945 59.9088V86.9575C35.1945 87.3418 35.5104 87.6534 35.9001 87.6534H41.9479C42.3376 87.6534 42.6535 87.3418 42.6535 86.9575V59.9088C42.6535 59.5245 42.3376 59.2129 41.9479 59.2129Z" fill="#D1EA82"/>
<g style="mix-blend-mode:screen">
<path d="M31.5093 45.5762V110.583C31.5093 112.592 33.159 114.219 35.1957 114.219C37.2323 114.219 38.8821 112.592 38.8821 110.583V45.5762H31.5093Z" fill="#162F42"/>
</g>
<path d="M95.2426 112.072L85.1937 117.217C83.1711 118.253 80.6794 117.474 79.629 115.479L49.2538 57.7515C48.2034 55.7566 48.9932 53.2991 51.0158 52.2631L61.0647 47.1187C63.0873 46.0827 65.579 46.8617 66.6294 48.8566L97.0046 106.582C98.055 108.577 97.2652 111.034 95.2426 112.07V112.072Z" fill="#162F42"/>
<path d="M65.0902 60.4179L59.7224 63.1657C59.3765 63.3428 59.2416 63.7629 59.4211 64.104L72.0546 88.1117C72.2341 88.4529 72.6601 88.5859 73.0059 88.4088L78.3738 85.661C78.7197 85.4839 78.8545 85.0639 78.675 84.7227L66.0415 60.715C65.862 60.3739 65.4361 60.2409 65.0902 60.4179Z" fill="#6BC4A6"/>
<path d="M85.4023 99.4961C82.0427 99.4961 79.3185 102.183 79.3185 105.497C79.3185 108.81 82.0427 111.497 85.4023 111.497C88.762 111.497 91.4862 108.81 91.4862 105.497C91.4862 102.183 88.762 99.4961 85.4023 99.4961ZM85.4023 110.004C82.8786 110.004 80.8319 107.986 80.8319 105.497C80.8319 103.007 82.8786 100.989 85.4023 100.989C87.9261 100.989 89.9728 103.007 89.9728 105.497C89.9728 107.986 87.9261 110.004 85.4023 110.004Z" fill="#DAF2ED"/>
<g style="mix-blend-mode:screen">
<path d="M56.253 49.5879L51.017 52.2669C50.556 52.5041 50.1611 52.8165 49.8344 53.1783L80.0051 110.514C80.9432 112.295 83.1683 112.991 84.9744 112.066C86.7826 111.141 87.4862 108.946 86.548 107.165L56.253 49.5879Z" fill="#162F42"/>
</g>
<path d="M27.0531 45.5762H11.646C10.4947 45.5762 9.56128 46.4968 9.56128 47.6324V116.698C9.56128 117.834 10.4947 118.754 11.646 118.754H27.0531C28.2045 118.754 29.1379 117.834 29.1379 116.698V47.6324C29.1379 46.4968 28.2045 45.5762 27.0531 45.5762Z" fill="#162F42"/>
<path d="M19.3482 99.4941C15.9886 99.4941 13.2643 102.181 13.2643 105.495C13.2643 108.808 15.9886 111.495 19.3482 111.495C22.7079 111.495 25.4321 108.808 25.4321 105.495C25.4321 102.181 22.7079 99.4941 19.3482 99.4941ZM19.3482 110.002C16.8245 110.002 14.7778 107.984 14.7778 105.495C14.7778 103.005 16.8245 100.987 19.3482 100.987C21.872 100.987 23.9186 103.005 23.9186 105.495C23.9186 107.984 21.872 110.002 19.3482 110.002Z" fill="#C4DFF2"/>
<g style="mix-blend-mode:screen">
<path d="M11.9772 45.5762V110.583C11.9772 112.592 13.6269 114.219 15.6636 114.219C17.7002 114.219 19.35 112.592 19.35 110.583V45.5762H11.9772Z" fill="#162F42"/>
</g>
<path d="M22.3743 59.2129H16.3265C15.9368 59.2129 15.6209 59.5245 15.6209 59.9088V86.9575C15.6209 87.3418 15.9368 87.6534 16.3265 87.6534H22.3743C22.764 87.6534 23.0799 87.3418 23.0799 86.9575V59.9088C23.0799 59.5245 22.764 59.2129 22.3743 59.2129Z" fill="#C4DFF2"/>
<path d="M167.86 42.2885L167.131 43.0084C167.065 43.0727 167.065 43.1765 167.131 43.2408C167.196 43.3052 167.301 43.3052 167.366 43.2408L168.096 42.521C168.161 42.4566 168.161 42.3528 168.096 42.2885C168.031 42.2241 167.926 42.2241 167.86 42.2885Z" fill="#162F42"/>
<path d="M183.512 29.1818L181.43 27.1289L173.385 35.0639L175.467 37.1168L183.512 29.1818Z" fill="#5192C2"/>
<g style="mix-blend-mode:screen" opacity="0.5">
<path d="M181.844 27.5391L182.771 28.4533L178.292 32.871C178.127 33.0341 177.859 33.0341 177.693 32.871L177.365 32.5474C177.2 32.3843 177.2 32.1199 177.365 31.9568L181.844 27.5391Z" fill="#6F9795"/>
</g>
<path d="M167.645 42.2862L168.825 39.5566L170.906 41.6094L168.138 42.7724C167.827 42.9035 167.513 42.5933 167.645 42.2862Z" fill="#5192C2"/>
<g style="mix-blend-mode:screen" opacity="0.5">
<path d="M167.817 42.4587L169.55 40.2754L170.181 40.8975L167.967 42.6068C167.718 42.7992 167.622 42.7051 167.817 42.4593L167.817 42.4587Z" fill="#6F9795"/>
</g>
<path d="M187.933 20.9485L189.774 22.764C190.134 23.1194 190.134 23.6966 189.774 24.0524L184.255 29.4959C184.138 29.611 183.949 29.611 183.832 29.4959L181.108 26.8087C180.991 26.6937 180.991 26.5074 181.108 26.3924L186.627 20.9489C186.987 20.5935 187.573 20.5931 187.933 20.9489L187.933 20.9485Z" fill="#162F42"/>
<path d="M184.542 22.3049C184.346 22.4979 184.346 22.8099 184.542 23.0029L187.78 26.1969C187.976 26.3899 187.976 26.7019 187.78 26.8949L184.586 30.0451C184.381 30.2472 184.082 30.3407 183.802 30.2666C183.409 30.1628 182.905 30.3164 182.521 30.6952C182.004 31.2044 181.901 31.9279 182.289 32.3109L182.643 32.6599C182.839 32.853 183.155 32.853 183.351 32.6599L188.842 27.2439L189.196 26.8949C189.392 26.7019 189.392 26.3899 189.196 26.1969L185.25 22.3049C185.054 22.1119 184.738 22.1119 184.542 22.3049H184.542Z" fill="#FF5B07"/>
<path d="M173.455 35.13C173.248 34.9254 172.911 34.9254 172.703 35.13L172.319 35.5093L171.934 35.8887C171.727 36.0932 171.727 36.4253 171.934 36.6298L173.875 38.5442C174.083 38.7488 174.419 38.7488 174.627 38.5442L175.011 38.1649L175.396 37.7855C175.603 37.5809 175.603 37.2489 175.396 37.0444L173.455 35.13Z" fill="#162F42"/>
<path d="M171.934 36.6319C171.727 36.4274 171.39 36.4274 171.183 36.6319L170.798 37.0113L170.413 37.3906C170.206 37.5952 170.206 37.9272 170.413 38.1318L172.354 40.0462C172.562 40.2507 172.898 40.2507 173.106 40.0462L173.49 39.6668L173.875 39.2875C174.082 39.0829 174.082 38.7509 173.875 38.5463L171.934 36.6319Z" fill="#162F42"/>
<path d="M170.415 38.128C170.208 37.9235 169.871 37.9235 169.664 38.128L169.279 38.5074L168.895 38.8867C168.687 39.0913 168.687 39.4233 168.895 39.6279L170.836 41.5423C171.043 41.7468 171.38 41.7468 171.587 41.5423L171.972 41.1629L172.356 40.7835C172.564 40.579 172.564 40.247 172.356 40.0424L170.415 38.128Z" fill="#162F42"/>
<path d="M187.71 21.7519C187.454 21.4994 187.039 21.4994 186.783 21.7519C186.527 22.0044 186.527 22.4135 186.783 22.666C187.039 22.9185 187.454 22.9185 187.71 22.666C187.966 22.4135 187.966 22.0044 187.71 21.7519Z" fill="#3A7BAD"/>
</g>
<defs>
<filter id="filter0_d_2_1728" x="0.241893" y="0.887256" width="208.083" height="137.044" filterUnits="userSpaceOnUse" color-interpolation-filters="sRGB">
<feFlood flood-opacity="0" result="BackgroundImageFix"/>
<feColorMatrix in="SourceAlpha" type="matrix" values="0 0 0 0 0 0 0 0 0 0 0 0 0 0 0 0 0 0 127 0" result="hardAlpha"/>
<feOffset dx="4.48047" dy="5.37657"/>
<feGaussianBlur stdDeviation="6.89993"/>
<feComposite in2="hardAlpha" operator="out"/>
<feColorMatrix type="matrix" values="0 0 0 0 0 0 0 0 0 0 0 0 0 0 0 0 0 0 0.25 0"/>
<feBlend mode="normal" in2="BackgroundImageFix" result="effect1_dropShadow_2_1728"/>
<feBlend mode="normal" in="SourceGraphic" in2="effect1_dropShadow_2_1728" result="shape"/>
</filter>
</defs>
</svg>
