<svg width="100" height="98" viewBox="0 0 100 98" fill="none" xmlns="http://www.w3.org/2000/svg">
<ellipse cx="49.6712" cy="49" rx="49.6712" ry="49" fill="white"/>
<ellipse cx="49.6712" cy="49" rx="49.6712" ry="49" fill="#5DD0B4" fill-opacity="0.37"/>
<path d="M50.6572 25.8053C50.9256 25.6739 51.2215 25.6081 51.468 25.4218C51.8186 25.3287 52.1364 25.137 52.4706 25C52.5199 25 52.5637 25 52.613 25.0055C52.6349 25.011 52.6569 25.0219 52.6788 25.0219C52.9308 25.1917 53.2157 25.2904 53.4896 25.4109C53.8676 25.5752 54.2292 25.7834 54.6291 25.8985C54.6784 25.9752 54.7606 25.9861 54.8373 26.0135C55.1277 26.1395 55.4126 26.271 55.7029 26.397C55.9768 26.5176 56.2453 26.6326 56.5192 26.7531C56.7219 26.8463 56.9192 26.9394 57.1219 27.0325C57.2588 27.0928 57.3958 27.1585 57.5327 27.2188C57.9053 27.3941 58.2724 27.5913 58.6668 27.7174C59.2749 28.0515 59.9159 28.309 60.5514 28.572C61.2581 28.9172 61.9704 29.2404 62.699 29.5307C62.951 29.7006 63.2359 29.7992 63.5153 29.9088C63.6413 29.969 63.7618 30.0567 63.9098 30.0676C64.1179 30.2101 64.3535 30.3032 64.5891 30.3854C64.9452 30.5443 65.3013 30.7086 65.6629 30.8675C65.7999 30.9333 65.9368 30.9935 66.0683 31.0593C66.2381 31.1414 66.4025 31.251 66.5942 31.2784C66.8956 31.4701 67.2243 31.5907 67.553 31.7276C67.6406 31.7769 67.7338 31.8208 67.8214 31.8701L67.8105 31.9194C67.668 31.9194 67.5311 31.9194 67.3886 31.9194C63.6906 31.9194 59.9871 31.9194 56.2891 31.9194C56.1248 31.9194 55.9549 31.9413 55.7906 31.9577C55.7139 31.9851 55.6317 32.0016 55.5824 32.0728C55.1989 32.2755 55.0948 32.6152 55.1222 33.0206C55.177 33.3164 55.3194 33.541 55.5824 33.6944C55.7522 33.8259 55.944 33.8314 56.1467 33.8314C59.7899 33.8314 63.4276 33.8314 67.0709 33.8314C67.027 33.8697 66.9832 33.9136 66.9339 33.9519C66.8463 33.9848 66.7586 34.0122 66.6709 34.0451C66.3532 34.193 66.019 34.2916 65.7232 34.4888C65.0109 34.7463 64.3371 35.0915 63.6468 35.3928C62.9675 35.6886 62.2772 35.9625 61.6252 36.3186C61.2691 36.4063 60.9623 36.609 60.6226 36.7405C60.4638 36.8227 60.2775 36.8501 60.146 36.9816C59.9488 37.0144 59.7899 37.1185 59.6146 37.2007C59.2694 37.3377 58.9243 37.4746 58.6065 37.6609C58.2997 37.765 57.9984 37.891 57.7245 38.0608C57.6533 38.0608 57.5821 38.0608 57.5327 38.132C57.2205 38.269 56.9082 38.406 56.5959 38.5484C56.2508 38.6854 55.9056 38.8223 55.5879 39.0086C55.566 39.0086 55.544 39.0086 55.5221 39.0196C55.1825 39.173 54.8483 39.3264 54.5086 39.4798C53.884 39.7537 53.254 40.0331 52.6295 40.307C52.4925 40.318 52.372 40.2522 52.2514 40.1975C51.7255 39.9619 51.1996 39.7318 50.6736 39.4962C49.9614 39.1784 49.2437 38.8552 48.5315 38.5375C48.1973 38.3841 47.8577 38.2307 47.5235 38.0773C47.4577 38.0499 47.392 38.0225 47.3262 38.0006C47.0578 37.8746 46.7839 37.7431 46.5154 37.6171C46.1703 37.4965 45.869 37.2774 45.5074 37.1952C45.1732 36.9925 44.8116 36.8336 44.4391 36.7131C44.187 36.5433 43.9076 36.4337 43.6282 36.3296C42.916 36.0009 42.2148 35.6612 41.4806 35.3763C40.8671 35.0476 40.2315 34.7847 39.596 34.5107C39.218 34.3464 38.8619 34.1382 38.462 34.0231C38.1387 33.8369 37.8046 33.678 37.4484 33.5575C37.1252 33.3767 36.791 33.2233 36.4404 33.0973C36.3308 33.048 36.2158 32.9987 36.1062 32.9494C36.0131 32.8453 35.8597 32.8507 35.7611 32.7686C35.6734 32.6973 35.4707 32.7521 35.5036 32.5439C35.5255 32.5439 35.5474 32.5439 35.5638 32.533C36.1993 32.2645 36.8403 32.007 37.4539 31.6783C38.1442 31.4263 38.7962 31.0921 39.4645 30.7963C39.8042 30.6484 40.1658 30.5388 40.4726 30.3251C40.741 30.2539 40.9931 30.1498 41.2232 29.9964C41.3492 29.9964 41.4533 29.9416 41.5464 29.8595C41.8751 29.7554 42.1819 29.602 42.4832 29.4431C42.7845 29.339 43.0804 29.213 43.3598 29.0486C43.4255 29.0212 43.4913 28.9993 43.557 28.9719C43.9022 28.835 44.2473 28.698 44.5705 28.5117C45.2389 28.2159 45.9128 27.9201 46.5812 27.6297C46.6962 27.5804 46.8058 27.5311 46.9208 27.4818C46.9866 27.4434 47.0578 27.4106 47.1235 27.3722C47.5563 27.1421 48.0494 27.0435 48.4658 26.775C48.8438 26.6107 49.2218 26.4463 49.5998 26.2765C49.7861 26.1943 49.9888 26.1614 50.1477 26.0245C50.323 25.9533 50.5038 25.8766 50.6791 25.8053H50.6572Z" fill="#2CB090"/>
<path d="M48.3714 72.6462C48.103 72.5969 47.829 72.5476 47.5606 72.4983C46.8648 72.3613 46.1745 72.2298 45.4788 72.0929C45.1884 72.0271 44.8926 71.9614 44.6022 71.8957C44.2023 71.8025 43.7968 71.7149 43.3969 71.6217C43.3531 71.6217 43.3093 71.6108 43.2654 71.6053C43.2435 71.5943 43.2216 71.5834 43.1997 71.5724C42.997 71.5231 42.7888 71.4793 42.5861 71.43C41.8958 71.2656 41.2 71.1013 40.5097 70.9424C40.2084 70.8054 39.8797 70.7671 39.5619 70.6849C39.1839 70.5918 38.8059 70.4986 38.4224 70.4055C38.2854 70.3617 38.1485 70.3233 38.017 70.2795C37.8143 70.2357 37.6171 70.1864 37.4144 70.1425C37.3924 70.1316 37.3705 70.1316 37.3486 70.1316C37.3267 70.1206 37.3048 70.1042 37.2829 70.0932C37.0089 70.022 36.7405 69.9508 36.4666 69.8796C36.1105 69.7809 35.7653 69.6549 35.3928 69.6056C35.3709 69.5947 35.3489 69.5892 35.327 69.5947C35.2065 69.5015 35.0641 69.4961 34.9216 69.4687C34.8997 69.4687 34.8778 69.4632 34.8559 69.4577L34.7901 69.4194C34.6532 69.3865 34.5162 69.3536 34.3792 69.3262C33.7054 69.1345 33.037 68.9427 32.3631 68.7455C32.0947 68.6743 31.8208 68.6031 31.5523 68.5318C30.8127 68.3236 30.0786 68.1209 29.339 67.9128C29.0979 67.8032 28.8459 67.7265 28.5775 67.6936C28.1721 67.5293 27.7447 67.4252 27.3229 67.3156C27.301 67.3046 27.2791 67.3046 27.2572 67.3046C26.9832 67.1677 26.6764 67.1129 26.3806 67.0362C26.019 66.9266 25.6629 66.8225 25.3013 66.713C25.2246 66.6746 25.1424 66.6417 25.0603 66.6034C25.5259 66.3788 25.9861 66.1651 26.4409 65.946C26.7586 65.798 27.0764 65.6446 27.3886 65.4967C27.4818 65.4639 27.5859 65.4474 27.6571 65.3707C27.7612 65.3543 27.8488 65.3159 27.9255 65.2392C27.9475 65.2392 27.9694 65.2283 27.9858 65.2173C28.0296 65.1954 28.0789 65.1735 28.1228 65.1571C28.183 65.1625 28.2269 65.1406 28.2597 65.0968C28.4953 65.0091 28.7144 64.8722 28.9829 65.0037C29.1089 65.0639 29.2568 65.0639 29.3993 65.0913C29.4212 65.0913 29.4431 65.0968 29.465 65.1023C29.4869 65.1132 29.5088 65.1297 29.5307 65.1406L30.347 65.3598C30.3909 65.3598 30.4347 65.3652 30.4785 65.3707C30.6648 65.4912 30.8949 65.4748 31.0921 65.557C31.4975 65.6666 31.903 65.7707 32.3138 65.8802L32.3303 65.8912H32.3467C32.3741 65.8912 32.4015 65.8967 32.4289 65.9021C32.4508 65.9021 32.4727 65.9076 32.4946 65.9131C32.5494 65.9679 32.6261 65.9679 32.6973 65.9734C32.7193 65.9734 32.7412 65.9788 32.7631 65.9843C32.785 65.9953 32.8069 66.0117 32.8288 66.0227C32.9439 66.0501 33.0589 66.0774 33.174 66.1048C33.8862 66.2911 34.5929 66.5212 35.3216 66.6527C35.6064 66.7787 35.9078 66.828 36.2036 66.9047C36.5816 66.9978 36.9596 67.0965 37.3377 67.1896C37.9786 67.4033 38.6361 67.5621 39.2935 67.7155C39.6715 67.8141 40.0386 67.9566 40.433 67.9949C40.433 67.9949 40.4769 68.0223 40.4933 68.0333C40.7672 68.1045 41.0357 68.1757 41.3096 68.2524C42.093 68.4551 42.8765 68.6578 43.6544 68.8605C43.9229 68.9318 44.1913 69.003 44.4597 69.0742C44.8323 69.1783 45.2048 69.2879 45.5774 69.392C45.8787 69.4632 46.18 69.5344 46.4758 69.6001C46.7772 69.7371 47.1059 69.7864 47.4236 69.8686C47.6866 69.9289 47.9441 70.0275 48.2235 70.0165C48.2564 70.0713 48.3057 70.0658 48.355 70.0603C48.3988 70.0603 48.4426 70.0658 48.4919 70.0713C48.5139 70.0713 48.5413 70.0713 48.5632 70.0713C49.237 70.0877 49.9109 70.1261 50.5738 69.9343C51.3134 69.7809 51.9599 69.4467 52.5789 68.9099C52.1735 68.8222 51.8448 68.751 51.5161 68.6743C51.2093 68.5811 50.9025 68.488 50.5793 68.4606C49.9328 68.2524 49.2754 68.0881 48.6015 67.9785C48.2618 67.8525 47.9112 67.7648 47.5496 67.721C47.2483 67.584 46.9196 67.5402 46.6019 67.469C45.9116 67.3046 45.2158 67.1403 44.5255 66.9814C44.2242 66.8444 43.8955 66.8061 43.5777 66.7294C43.1997 66.6363 42.8217 66.5431 42.4436 66.45C42.3998 66.45 42.356 66.4445 42.3122 66.439C42.2902 66.4281 42.2683 66.4116 42.2464 66.4007C42.0437 66.3514 41.8355 66.3021 41.6328 66.2528C41.589 66.2528 41.5452 66.2418 41.5013 66.2418C41.1562 66.1103 40.7946 66.0281 40.4275 65.9734C40.0714 65.8857 39.7099 65.8035 39.3538 65.7159C39.3318 65.7159 39.3099 65.7104 39.288 65.7049C39.2661 65.694 39.2442 65.6775 39.2223 65.6666C39.1072 65.6392 38.9922 65.6118 38.8771 65.5844C38.028 65.3817 37.1788 65.179 36.3296 64.9763C36.094 64.8722 35.8311 64.8393 35.5845 64.7845C35.1846 64.6914 34.7847 64.5982 34.3792 64.5051C34.3573 64.4942 34.3354 64.4887 34.3135 64.4942C34.2916 64.4832 34.2697 64.4668 34.2478 64.4558C33.9519 64.3846 33.6616 64.3134 33.3657 64.2367C33.3219 64.2367 33.2781 64.2312 33.2342 64.2257C32.9987 64.1216 32.7466 64.0723 32.4892 64.034C32.1111 63.9463 31.7331 63.8532 31.3496 63.7655C31.3277 63.7546 31.3058 63.7491 31.2839 63.7546L31.2181 63.7162C31.0154 63.6669 30.8072 63.6176 30.6045 63.5683C30.1772 63.4806 29.7718 63.3163 29.328 63.2889C29.0048 63.1519 28.6651 63.0917 28.32 63.0259C28.0132 62.9054 27.668 62.878 27.3886 62.6753C27.29 62.5438 27.1969 62.4123 27.0983 62.2753C26.9942 61.9357 27.0161 61.6015 27.1202 61.2728C27.2078 61.1577 27.301 61.0482 27.3886 60.9331C27.5913 60.8345 27.7886 60.714 28.0187 60.6866C28.0351 60.6866 28.0515 60.6866 28.057 60.6701H28.2433C28.5939 60.7852 28.961 60.8619 29.328 60.9222L29.3609 60.9331H29.3938C29.3938 60.9331 29.4376 60.9605 29.4595 60.9715C29.7554 61.0427 30.0457 61.1139 30.3416 61.1906C31.0154 61.3495 31.6838 61.5084 32.3577 61.6618C32.6864 61.7878 33.0261 61.8535 33.3712 61.9192C33.6999 62.0179 34.0341 62.111 34.3738 62.1439C34.9435 62.3466 35.5352 62.4616 36.1269 62.5931C36.5487 62.7027 36.9651 62.8287 37.3979 62.8835C37.3979 62.8835 37.4417 62.9109 37.4582 62.9218C37.754 62.993 38.0499 63.0643 38.3402 63.141C39.036 63.2998 39.7263 63.4642 40.4221 63.6231C40.7453 63.7546 41.085 63.8258 41.4301 63.8806C41.7534 64.0066 42.0985 64.0504 42.4327 64.1326L43.3147 64.3517C43.3586 64.3517 43.4024 64.3572 43.4462 64.3627C43.7695 64.4996 44.1146 64.5544 44.4597 64.6202C44.7939 64.7023 45.1281 64.79 45.4623 64.8722C45.7582 64.9434 46.0485 65.0146 46.3444 65.0858C47.0347 65.2502 47.7195 65.4529 48.4207 65.5679C48.722 65.7049 49.0508 65.7487 49.3685 65.82C49.7465 65.9131 50.1246 66.0062 50.5026 66.0994C50.5464 66.0994 50.5902 66.1048 50.6341 66.1103C50.656 66.1213 50.6779 66.1377 50.6998 66.1487L51.3134 66.2966C51.5106 66.3404 51.7133 66.3842 51.9106 66.4336C52.4474 66.5705 52.9843 66.702 53.5267 66.839C53.5705 66.839 53.6144 66.8444 53.6582 66.8499C53.6801 66.8609 53.702 66.8773 53.7239 66.8883C53.8171 66.9321 53.8938 66.9321 53.9321 66.8116C53.9705 66.6856 54.0088 66.5596 54.0527 66.4336C54.1568 66.1048 54.2828 65.7871 54.2718 65.431C54.3978 65.1078 54.3156 64.7736 54.3321 64.4448C54.3375 64.3079 54.228 64.3024 54.1294 64.2805C53.5925 64.1545 53.0556 64.023 52.5241 63.897C52.1461 63.8039 51.7626 63.7162 51.3846 63.6231C51.3627 63.6231 51.3408 63.6176 51.3189 63.6121C51.16 63.5683 51.0066 63.5299 50.8477 63.4861C50.8039 63.4861 50.7601 63.4751 50.7162 63.4697C50.6834 63.4587 50.656 63.4478 50.6231 63.4368H50.6286C49.9383 63.267 49.248 63.1026 48.5577 62.9383C48.2071 62.8068 47.8455 62.7355 47.4784 62.6753C47.1223 62.5876 46.7607 62.5 46.4046 62.4123C46.1581 62.3466 45.9061 62.2808 45.6595 62.2151C45.6157 62.2151 45.5719 62.2041 45.5281 62.2041C45.1884 62.1165 44.8542 62.0343 44.5145 61.9466L43.1066 61.607C43.1066 61.607 43.0627 61.6015 43.0408 61.596C42.986 61.5412 42.9093 61.5412 42.8381 61.5357C42.7943 61.5357 42.7559 61.5303 42.7121 61.5248H42.7011C42.6628 61.47 42.619 61.459 42.5587 61.47L40.3454 60.9276C40.0769 60.8619 39.803 60.7961 39.5345 60.7304C39.1565 60.6373 38.7785 60.5496 38.395 60.4565C38.3731 60.4455 38.3512 60.44 38.3293 60.4455C38.3074 60.4346 38.2854 60.4181 38.2635 60.4072C38.0553 60.3579 37.8526 60.314 37.6445 60.2647C37.4691 60.2209 37.2938 60.1825 37.1185 60.1387C36.9158 60.0894 36.7076 60.0401 36.5049 59.9853C35.9461 59.8484 35.3873 59.7169 34.8285 59.5799C34.8066 59.5799 34.7847 59.5744 34.7627 59.569C34.7189 59.558 34.6751 59.5416 34.6367 59.5306C34.6093 59.5251 34.582 59.5196 34.5546 59.5142C34.1546 59.4101 33.7602 59.2895 33.3493 59.2348C33.3164 59.18 33.2726 59.1635 33.2123 59.18C32.8343 59.0868 32.4508 58.9992 32.0728 58.9061C32.0509 58.8951 32.029 58.8951 32.007 58.8951C31.9742 58.8513 31.9249 58.8513 31.8756 58.8567C31.7605 58.8294 31.6455 58.802 31.5304 58.7746C31.1305 58.6814 30.736 58.539 30.3251 58.4952C30.3251 58.4952 30.2813 58.4678 30.2649 58.4568C29.9471 58.3856 29.6294 58.3089 29.3171 58.2377C29.1637 58.1993 29.0103 58.161 28.8569 58.1281C28.3638 57.9473 27.805 57.9692 27.3722 57.6241C27.2955 57.5364 27.2188 57.4433 27.1421 57.3556C27.1257 57.3337 27.1147 57.3118 27.0983 57.2899L27.0873 57.2241C26.9668 56.879 26.9887 56.5448 27.1476 56.2161C27.2243 56.1284 27.301 56.0353 27.3777 55.9476C27.6407 55.7011 27.9694 55.6573 28.3145 55.6682C28.583 55.734 28.8569 55.7997 29.1253 55.8655C29.5253 55.9586 29.9307 56.0517 30.3306 56.1449C30.9278 56.3421 31.5414 56.4517 32.1495 56.6051L33.4862 56.9228C33.7766 56.994 34.0725 57.0653 34.3628 57.142C34.5874 57.1858 34.8011 57.2899 35.0367 57.2844C35.475 57.4378 35.9187 57.5529 36.3789 57.6131L36.4118 57.6241H36.4447C36.4447 57.6241 36.4885 57.6515 36.5104 57.6624C36.8062 57.7336 37.0966 57.8049 37.3924 57.8761C37.7047 57.9363 38.006 58.0678 38.3293 58.0898C39.025 58.2651 39.7208 58.4404 40.4166 58.6157C40.7727 58.7033 41.1288 58.7855 41.4904 58.8732C41.7862 58.9444 42.0766 59.0156 42.3724 59.0868C43.0846 59.2622 43.8023 59.4375 44.5145 59.6128C44.8104 59.684 45.1007 59.7552 45.3966 59.8319C45.8677 59.947 46.3334 60.0565 46.8046 60.1716C46.8484 60.1716 46.8922 60.1826 46.936 60.188C46.958 60.199 46.9799 60.2099 47.0018 60.2209C47.0785 60.2592 47.1552 60.2702 47.2374 60.2538C47.2976 60.3524 47.3962 60.3031 47.4784 60.3195C47.7797 60.4565 48.1085 60.4948 48.4207 60.577C48.8261 60.6592 49.2096 60.8235 49.626 60.8509C49.6479 60.8509 49.6698 60.8564 49.6917 60.8619C49.7137 60.8728 49.7356 60.8893 49.7575 60.9002C49.9602 60.9495 50.1684 60.9989 50.3711 61.0482C51.0504 61.207 51.7078 61.4207 52.3981 61.5248C52.7433 61.6179 53.083 61.7165 53.4719 61.8206C53.3459 61.5796 53.209 61.4097 53.0556 61.2563C52.8912 61.0427 52.7323 60.8235 52.5132 60.6592H52.5077C52.5077 60.6592 52.4694 60.6154 52.4474 60.5934H52.442C52.442 60.5934 52.4036 60.5441 52.3817 60.5277H52.3762C52.3762 60.5277 52.3379 60.4893 52.3214 60.4729C52.2338 60.3962 52.1461 60.325 52.0585 60.2483C51.8886 60.0949 51.7133 59.9524 51.5161 59.8429C51.5161 59.8429 51.4723 59.8155 51.4504 59.7991C51.16 59.5744 50.8422 59.3882 50.5026 59.2512C50.4368 59.2238 50.3711 59.1964 50.3053 59.1635C50.0588 58.9992 49.7849 58.8951 49.5 58.8348C49.1822 58.6705 48.8316 58.6157 48.4919 58.5116C48.4481 58.5061 48.4043 58.5006 48.3605 58.4952C48.3495 58.4787 48.3331 58.4678 48.3112 58.4732V58.4842C48.2838 58.4732 48.2509 58.4623 48.2235 58.4459C48.2016 58.4459 48.1797 58.4404 48.1578 58.4349C48.1358 58.4239 48.1139 58.4075 48.092 58.3965C47.9112 58.3472 47.725 58.2979 47.5442 58.2486C47.4291 58.2212 47.3141 58.1993 47.1935 58.1719C46.9634 58.0569 46.7169 58.013 46.4704 57.9637C46.1417 57.8377 45.802 57.761 45.4623 57.6953C45.1391 57.5583 44.7939 57.4981 44.4543 57.4268C43.7859 57.2296 43.1175 57.0433 42.4382 56.9009C42.0985 56.8133 41.7643 56.7256 41.4246 56.6325C40.8877 56.4955 40.3508 56.364 39.814 56.227C39.792 56.227 39.7701 56.2216 39.7482 56.2161C39.7263 56.2051 39.7044 56.1887 39.6825 56.1777C39.299 56.0846 38.9155 55.986 38.532 55.8929C38.154 55.7997 37.7705 55.7121 37.3924 55.6189C37.3705 55.608 37.3486 55.6025 37.3267 55.608C37.3048 55.597 37.2829 55.5806 37.261 55.5696C36.9651 55.4984 36.6748 55.4272 36.3789 55.3505C35.6886 55.1752 34.9928 54.9999 34.3025 54.8245C34.0067 54.7533 33.7163 54.6821 33.4205 54.6109C33.0425 54.5177 32.6645 54.4301 32.281 54.337C31.8536 54.2274 31.4263 54.1123 30.999 54.0028C30.8894 53.9808 30.7799 53.9589 30.6703 53.9315C30.6484 53.9315 30.6265 53.9261 30.6045 53.9206C30.1772 53.811 29.7499 53.7014 29.3226 53.5919C29.2787 53.5919 29.2349 53.5864 29.1911 53.5809C29.1692 53.57 29.1472 53.5535 29.1253 53.5426C28.9226 53.4933 28.7144 53.444 28.5117 53.3946C27.7721 53.2139 27.038 53.0331 26.2984 52.8523C26.03 52.7865 25.756 52.7208 25.4876 52.655C25.3451 52.6222 25.2027 52.5838 25 52.5345C25.4602 52.288 25.882 52.0634 26.2984 51.8387C26.9942 51.4826 27.69 51.1211 28.3803 50.765L30.3251 49.7459C30.6648 49.5706 30.999 49.3953 31.3387 49.2255C31.6948 49.0885 32.018 48.8858 32.3467 48.6941C33.0808 48.3654 33.7821 47.9709 34.4888 47.5929C34.7408 47.4778 35.0038 47.3737 35.2339 47.2039C35.2777 47.1765 35.3216 47.1546 35.3709 47.1272C35.5517 47.0341 35.7324 46.9409 35.9132 46.8478C35.9352 46.8314 35.9571 46.8149 35.979 46.804C36.0228 46.7821 36.0721 46.7601 36.1159 46.7382C36.1598 46.7163 36.2091 46.6944 36.2529 46.6725C36.2967 46.6506 36.346 46.6287 36.3899 46.6067C36.6967 46.4753 37.0089 46.3493 37.2774 46.1411C37.3267 46.1411 37.3815 46.1465 37.3979 46.0808C37.7759 45.8945 38.1594 45.7028 38.5375 45.5165C38.7182 45.4124 38.9045 45.3083 39.0853 45.2042C39.2606 45.1714 39.3921 45.0563 39.5455 44.9741C39.5674 44.9577 39.5948 44.9467 39.6167 44.9303C39.6606 44.9084 39.7099 44.8865 39.7537 44.8646C39.7975 44.8427 39.8468 44.8207 39.8907 44.7988C39.9345 44.7988 39.9783 44.7988 40.0221 44.7988L40.0331 44.8646C40.0331 45.3576 39.9674 45.8507 40.1098 46.3383C40.192 46.541 40.2029 46.7766 40.3618 46.9519C40.4056 47.0834 40.444 47.2149 40.559 47.297C40.9644 48.0531 41.578 48.5955 42.3012 49.0392C42.3669 49.1433 42.4875 49.1762 42.5806 49.2364C42.8052 49.4282 43.0737 49.5432 43.3257 49.6912C44.016 50.0527 44.7172 50.3815 45.4678 50.5842C45.7856 50.7485 46.1307 50.8307 46.4758 50.9074C46.7607 51.0005 47.0456 51.0937 47.3469 51.1211C47.3962 51.1978 47.4729 51.1923 47.5496 51.1758L48.4865 51.3621C48.8261 51.4114 49.1603 51.4607 49.5 51.51C49.7904 51.5374 50.0752 51.6196 50.3711 51.5867C50.519 51.6799 50.6888 51.6251 50.8477 51.6415C51.0011 51.6415 51.16 51.6415 51.3134 51.6415C51.3791 51.6415 51.4504 51.647 51.5161 51.6525C51.8503 51.7237 52.1845 51.7292 52.5241 51.6963C52.6611 51.7182 52.7981 51.7237 52.9405 51.6963C53.6089 51.6853 54.2773 51.658 54.9457 51.5758C54.9895 51.5758 55.0388 51.5648 55.0826 51.5648C55.7346 51.4991 56.392 51.4279 57.0275 51.2525C57.285 51.258 57.5206 51.1594 57.7671 51.1101L58.3807 50.9622L58.4464 50.9238L58.5122 50.9129C58.8792 50.8362 59.2408 50.743 59.586 50.5842C59.8873 50.502 60.1886 50.4088 60.4625 50.25C60.5173 50.25 60.5721 50.25 60.5995 50.1897C60.9611 50.0911 61.2898 49.9158 61.6076 49.7186C61.8979 49.598 62.1773 49.4556 62.4184 49.2474C62.4677 49.2364 62.528 49.2474 62.5499 49.1817C62.5773 49.1543 62.5992 49.1323 62.6266 49.105C63.3059 48.7215 63.8592 48.1955 64.3085 47.571C64.4345 47.3957 64.5605 47.308 64.7687 47.3463C64.9604 47.445 65.1741 47.4395 65.3768 47.4778C65.7767 47.5545 66.1712 47.6641 66.5821 47.6915C66.9436 47.7791 67.2998 47.8668 67.6613 47.949C68.3462 48.1517 69.02 48.3982 69.6774 48.6886L70.6033 49.1762C70.6033 49.1762 70.6581 49.2145 70.6855 49.2364C70.9978 49.4611 71.31 49.6857 71.6168 49.9103C71.7319 50.0199 71.8415 50.1349 71.9565 50.2445C72.1811 50.491 72.4003 50.7376 72.6249 50.9841C72.6523 51.0608 72.6797 51.143 72.7564 51.1868C72.9591 51.5429 73.1673 51.9045 73.37 52.2606C73.4795 52.551 73.5946 52.8413 73.7042 53.1372C73.7042 53.1591 73.7042 53.181 73.7151 53.2029C73.7809 53.5371 73.8521 53.8713 73.9178 54.2109C74.011 54.7424 73.9781 55.2847 74 55.8216C73.9945 55.9586 73.989 56.0901 73.9836 56.227C73.9836 56.2928 73.9726 56.3585 73.9671 56.4243C73.9562 56.4681 73.9452 56.5174 73.9288 56.5612C73.8795 56.7859 73.8356 57.0105 73.7863 57.2406C73.737 57.4159 73.6822 57.5967 73.6329 57.772C73.5672 57.9309 73.5015 58.0897 73.4412 58.2431C73.2604 58.5773 73.0796 58.917 72.8933 59.2512C72.8933 59.2512 72.8659 59.2895 72.8495 59.3115C72.8386 59.3334 72.8331 59.3553 72.8221 59.3717C72.8002 59.3991 72.7783 59.421 72.7564 59.4484C72.7399 59.4703 72.718 59.4977 72.7016 59.5196H72.6961C72.4934 59.7717 72.2907 60.0182 72.0935 60.2592C72.0716 60.2812 72.0496 60.3086 72.0277 60.3305C72.0058 60.3524 71.9839 60.3743 71.962 60.3962C71.9401 60.4181 71.9182 60.44 71.8962 60.462C71.8743 60.4839 71.8469 60.5113 71.825 60.5332C71.8031 60.5551 71.7812 60.577 71.7593 60.5989C71.7374 60.6208 71.71 60.6427 71.6881 60.6647C71.458 60.8619 71.2333 61.0646 71.0032 61.2618C70.8553 61.3056 70.7622 61.4043 70.6745 61.5248C70.3294 61.733 70.0281 62.0069 69.7267 62.2699C69.7048 62.2863 69.6829 62.3082 69.661 62.3247C68.9488 62.8451 68.2475 63.382 67.5792 63.9518C67.4093 63.9846 67.3217 64.138 67.1957 64.2257C66.982 64.3681 66.7629 64.5106 66.5821 64.6914C66.3136 64.8393 66.0835 65.0365 65.8534 65.2338L65.5028 65.4967C65.5028 65.4967 65.4535 65.5406 65.4261 65.5679C64.7741 65.9788 64.1606 66.45 63.547 66.9102C63.3497 67.0472 63.1525 67.1841 62.9553 67.3156C62.8402 67.4033 62.7252 67.4854 62.6156 67.5731C62.2485 67.7758 61.9089 68.0114 61.5747 68.2689C61.235 68.4661 60.9008 68.6743 60.5995 68.9208C60.3968 68.9975 60.2379 69.14 60.0626 69.266C59.8489 69.381 59.6243 69.4906 59.449 69.6659C58.7752 70.0056 58.1506 70.4219 57.5041 70.8054C56.7645 71.1889 56.0304 71.5724 55.2908 71.9504C55.247 71.9724 55.1977 71.9943 55.1538 72.0162C54.6608 72.2024 54.1677 72.3942 53.6692 72.5805C53.6472 72.5914 53.6253 72.6079 53.6034 72.6188C53.5815 72.6188 53.5596 72.6243 53.5377 72.6298C53.2035 72.7174 52.8693 72.8106 52.5296 72.8982C52.3488 72.9256 52.168 72.953 51.9873 72.9804C51.8722 72.9804 51.7626 72.964 51.6585 73.0242C51.6147 73.0242 51.5709 73.0242 51.5216 73.0242C51.1052 72.9147 50.6669 72.9914 50.2451 72.9037C50.0205 72.8763 49.7958 72.8489 49.5712 72.8215C49.1713 72.7613 48.7659 72.6955 48.3659 72.6353L48.3714 72.6462Z" fill="#2CB090"/>
<path d="M67.6032 33.8977C67.6032 33.8977 67.647 33.8977 67.6635 33.8867C68.3812 33.8867 69.0934 33.8922 69.8111 33.8977C69.8111 35.607 69.8111 37.3218 69.8165 39.0311C69.8165 39.3598 69.7344 39.694 69.8768 40.0172C69.8987 40.061 69.9206 40.1049 69.948 40.1487C70.1069 40.439 70.2603 40.7349 70.4192 41.0252C70.4411 41.2225 70.5561 41.3814 70.6274 41.5567C70.6931 41.7155 70.7534 41.8744 70.8191 42.0333L71.1643 43.2386C71.23 43.4851 71.2903 43.7316 71.356 43.9837C71.4272 44.4548 71.4984 44.9205 71.5697 45.3916C71.5587 45.693 71.367 45.9011 71.1916 46.1203C71.0218 46.2189 70.8575 46.3175 70.6876 46.4161C70.3753 46.5038 70.0576 46.586 69.7453 46.6736C69.6084 46.6736 69.4769 46.6791 69.3399 46.6846C68.8907 46.6846 68.4414 46.6846 67.9922 46.6846C67.5539 46.6572 67.1321 46.5476 66.7212 46.4052C66.5678 46.312 66.4144 46.2244 66.261 46.1312C65.987 45.8518 65.7789 45.5505 65.9049 45.1287L66.0418 44.2466C66.113 43.8905 66.1843 43.5344 66.261 43.1838C66.3651 42.8441 66.4746 42.5045 66.5787 42.1648C66.628 42.0114 66.6773 41.8525 66.7321 41.6991C66.8636 41.5402 66.8965 41.332 66.9787 41.1513C67.1704 40.7732 67.3622 40.4007 67.5539 40.0227H67.5594C67.6361 39.9186 67.5977 39.7926 67.5977 39.672C67.5977 37.7491 67.6032 35.8206 67.6087 33.8977H67.6032Z" fill="#2CB090"/>
<path d="M41.9899 37.7203C42.1706 37.7861 42.346 37.8573 42.5267 37.923C42.6034 37.9997 42.6911 38.0381 42.7952 38.0545C43.0143 38.1586 43.239 38.2572 43.4581 38.3613C43.7759 38.5038 44.0936 38.6462 44.4114 38.7832C45.1291 39.1009 45.8413 39.4187 46.5589 39.7364C47.178 40.0487 47.8081 40.3281 48.449 40.5911C48.8216 40.7664 49.1886 40.9636 49.5831 41.0896C49.5941 41.128 49.616 41.1499 49.6543 41.1389C49.9228 41.254 50.1912 41.369 50.4597 41.4841C50.7829 41.6649 51.1171 41.8237 51.4732 41.9443C51.6266 42.0155 51.7855 42.0867 51.9389 42.1579C52.1197 42.2401 52.3005 42.3223 52.4812 42.4099C52.8264 42.3716 53.1168 42.1963 53.4071 42.0264C53.4674 42.0264 53.5276 42.0374 53.5496 41.9662C53.9057 41.8676 54.2234 41.6868 54.5521 41.5389C54.8315 41.4348 55.1164 41.3307 55.3684 41.1608C55.4397 41.1499 55.5164 41.1444 55.5657 41.0841C55.9108 40.9527 56.2614 40.8212 56.5792 40.6239C57.264 40.361 57.9324 40.0542 58.5898 39.7309C59.302 39.4515 59.9923 39.1447 60.6771 38.7996C61.0004 38.69 61.3126 38.5476 61.614 38.3832C61.8167 38.3449 61.9865 38.2353 62.1563 38.1312C62.3481 38.0983 62.5124 37.9942 62.6877 37.9121C62.8466 37.9011 63.1151 37.5888 63.1041 38.06C63.1041 38.3942 63.1041 38.7284 63.1041 39.0626C63.1041 39.4022 63.1041 39.7364 63.1041 40.0761V41.0787C63.1041 41.4183 63.1041 41.7525 63.1041 42.0922V43.0948C63.1041 43.4344 63.1041 43.7686 63.1041 44.1083C63.1041 44.4425 63.1041 44.7767 63.1041 45.1109C63.0658 45.4505 63.1479 45.8012 62.9672 46.1244C62.8247 46.3271 62.6878 46.5243 62.5453 46.727C62.4193 46.8202 62.2988 46.9243 62.2111 47.0557C61.9865 47.2146 61.7674 47.379 61.5427 47.5379C61.2305 47.7186 60.9127 47.894 60.6004 48.0747C60.5785 48.0747 60.5566 48.0748 60.5402 48.0912C60.2005 48.2391 59.8608 48.3925 59.5266 48.5404C59.1924 48.6555 58.8583 48.7705 58.5241 48.8856C58.3214 48.9513 58.1187 49.0116 57.9159 49.0773C57.8064 49.1047 57.6913 49.1321 57.5818 49.154C57.1983 49.2417 56.8202 49.3239 56.4367 49.4115C56.1245 49.4608 55.8122 49.5101 55.4999 49.554C55.2205 49.5868 54.9466 49.6197 54.6672 49.6526C53.5989 49.7238 52.536 49.7676 51.4677 49.7457C51.2705 49.669 51.0623 49.6909 50.8596 49.6909L49.3859 49.5485C49.0846 49.4279 48.7558 49.4444 48.4436 49.3567C48.0875 49.2855 47.7259 49.2143 47.3698 49.1431C47.3369 49.0992 47.2931 49.0718 47.2328 49.0883C46.9644 49.0171 46.6959 48.9458 46.4329 48.8746C46.1426 48.765 45.8467 48.6555 45.5564 48.5514C44.8332 48.2775 44.1539 47.9049 43.48 47.5269C43.3047 47.3954 43.1239 47.2584 42.9486 47.127C42.7897 46.9736 42.6308 46.8147 42.472 46.6613C42.3405 46.4805 42.209 46.2997 42.0775 46.1189C42.0501 46.0093 42.0227 45.8943 41.9953 45.7847C41.9953 45.6423 41.9844 45.4944 41.9844 45.3519C41.9844 42.9195 41.9844 40.4815 41.9844 38.049C41.9844 37.9395 41.9953 37.8299 42.0063 37.7148L41.9899 37.7203Z" fill="#2CB090"/>
</svg>
