<svg width="54" height="54" viewBox="0 0 54 54" fill="none" xmlns="http://www.w3.org/2000/svg">
<path d="M8.43701 27.1101H1.582C0.709001 27.1101 0 27.8099 0 28.6899V52.4199C0 53.2899 0.709001 54 1.582 54H8.43701C9.31001 54 10.019 53.2899 10.019 52.4199V28.6899C10.019 27.8099 9.31001 27.1101 8.43701 27.1101Z" fill="#0E5BCA"/>
<path d="M53.524 29.2399C50.552 26.3399 45.702 26.6598 43.138 29.9498L39.76 34.2999C40.332 35.2499 40.661 36.3599 40.661 37.5499V39.5499C40.661 40.4199 39.952 41.1298 39.079 41.1298H28.954C28.056 41.1298 27.331 40.3799 27.374 39.4699C27.415 38.6199 28.148 37.9699 29 37.9699H37.497C37.497 37.5199 37.525 37.24 37.339 36.81C36.516 34.93 34.813 33.5398 32.787 33.1398C31.993 32.9798 31.689 33.0099 28.86 33.0099C27.628 33.0099 26.478 32.4599 25.707 31.4999C24.333 29.7799 22.284 28.7899 20.084 28.7899H15.842C14.922 28.7899 14.022 28.97 13.187 29.31L13.137 53.11C14.428 53.7 15.84 53.9999 17.256 53.9999H34.108C37.608 53.9999 40.796 52.2199 42.634 49.2399L53.766 31.2099C54.155 30.5799 54.055 29.7599 53.524 29.2399Z" fill="#0E5BCA"/>
<path d="M30.5849 28.6899C38.4939 28.6899 44.9289 22.2501 44.9289 14.3401C44.9289 6.43009 38.4939 0 30.5849 0C22.6769 0 16.2419 6.43009 16.2419 14.3401C16.2419 22.2501 22.6769 28.6899 30.5849 28.6899ZM26.3099 18.23C26.7879 17.5 27.7679 17.29 28.4989 17.77C29.3219 18.31 29.5689 18.3101 30.5849 18.3101C31.5959 18.2901 31.9979 17.5 32.0769 17.03C32.1479 16.61 32.0679 16.04 31.2849 15.77C29.9709 15.3 28.6239 14.77 27.6689 14.02C25.4879 12.31 26.1619 8.40988 29.0179 7.37988H29.019C29.123 6.60988 29.7839 6.01001 30.5849 6.01001C31.3529 6.01001 31.9929 6.56003 32.1369 7.28003C32.1519 7.29003 32.3959 7.35007 32.9099 7.57007C33.9139 8.01007 34.1829 9.32012 33.4399 10.1201C33.0049 10.5901 32.3279 10.76 31.7249 10.54C31.2129 10.36 30.5909 10.2101 30.1199 10.3501C29.6999 10.4801 29.5859 10.91 29.5609 11.04C29.5099 11.32 29.5839 11.5 29.6229 11.53C30.2199 12 31.33 12.43 32.338 12.78C34.405 13.51 35.5539 15.43 35.1969 17.55C34.9039 19.3 33.6659 20.6699 32.1629 21.1899C32.1119 22.0199 31.4259 22.6799 30.5849 22.6799C29.8069 22.6799 29.1609 22.1101 29.0299 21.3701C28.3329 21.2501 27.6939 21.0199 26.7679 20.4199C26.0369 19.9399 25.8309 18.96 26.3099 18.23Z" fill="#0E5BCA"/>
</svg>
