<svg width="24" height="24" viewBox="0 0 24 24" fill="none" xmlns="http://www.w3.org/2000/svg">
<path d="M23.1211 0.53216C22.9434 0.354426 22.6824 0.288653 22.4417 0.360849L1.53993 6.6314C0.618833 6.90771 0 7.73944 0 8.7014C0 9.65001 0.637007 10.4945 1.54918 10.7552L10.3761 13.2772L12.8981 22.1041C13.1587 23.0162 14.0033 23.6533 14.9523 23.6533C15.9138 23.6533 16.7456 23.0345 17.0219 22.1134L23.2924 1.21157C23.3647 0.970846 23.2989 0.709894 23.1211 0.53216ZM1.36648 8.70108C1.36648 8.34757 1.59395 8.04184 1.93257 7.94027L20.2387 2.44842L10.73 11.9571L1.92455 9.4413C1.596 9.34738 1.36648 9.04315 1.36648 8.70108ZM15.7131 21.7207C15.6115 22.0593 15.3058 22.2868 14.9519 22.2868C14.6101 22.2868 14.3059 22.0573 14.212 21.7287L11.6962 12.9233L21.2049 3.41462L15.7131 21.7207Z" fill="black"/>
</svg>
