<svg width="80" height="80" viewBox="0 0 80 80" fill="none" xmlns="http://www.w3.org/2000/svg">
<mask id="mask0_1_236" style="mask-type:luminance" maskUnits="userSpaceOnUse" x="0" y="0" width="80" height="80">
<path d="M80 0H0V80H80V0Z" fill="white"/>
</mask>
<g mask="url(#mask0_1_236)">
<path d="M32.5 16.25C32.5 14.26 33.29 12.35 34.697 10.95C36.103 9.53995 38.011 8.75 40 8.75C41.989 8.75 43.897 9.53995 45.303 10.95C46.71 12.35 47.5 14.26 47.5 16.25V24.3799H56.25V16.8799C56.25 12.5699 54.538 8.42988 51.49 5.37988C48.443 2.33988 44.31 0.620117 40 0.620117C35.69 0.620117 31.557 2.33988 28.51 5.37988C25.462 8.42988 23.75 12.5699 23.75 16.8799V24.3799H32.5V16.25Z" fill="#0E5BCA"/>
<path d="M75 49.3799C77.416 49.3799 79.375 47.42 79.375 45C79.375 42.58 77.416 40.6201 75 40.6201C72.584 40.6201 70.625 42.58 70.625 45C70.625 47.42 72.584 49.3799 75 49.3799Z" fill="#0E5BCA"/>
<path d="M29.375 79.3799C31.791 79.3799 33.75 77.42 33.75 75C33.75 72.58 31.791 70.6201 29.375 70.6201C26.959 70.6201 25 72.58 25 75C25 77.42 26.959 79.3799 29.375 79.3799Z" fill="#0E5BCA"/>
<path d="M50.625 79.3799C53.041 79.3799 55 77.42 55 75C55 72.58 53.041 70.6201 50.625 70.6201C48.209 70.6201 46.25 72.58 46.25 75C46.25 77.42 48.209 79.3799 50.625 79.3799Z" fill="#0E5BCA"/>
<path d="M73.125 19.3799C75.541 19.3799 77.5 17.42 77.5 15C77.5 12.58 75.541 10.6201 73.125 10.6201C70.709 10.6201 68.75 12.58 68.75 15C68.75 17.42 70.709 19.3799 73.125 19.3799Z" fill="#0E5BCA"/>
<path d="M73.125 79.3799C75.541 79.3799 77.5 77.42 77.5 75C77.5 72.58 75.541 70.6201 73.125 70.6201C70.709 70.6201 68.75 72.58 68.75 75C68.75 77.42 70.709 79.3799 73.125 79.3799Z" fill="#0E5BCA"/>
<path d="M5 49.3799C7.416 49.3799 9.375 47.42 9.375 45C9.375 42.58 7.416 40.6201 5 40.6201C2.584 40.6201 0.625 42.58 0.625 45C0.625 47.42 2.584 49.3799 5 49.3799Z" fill="#0E5BCA"/>
<path d="M6.875 19.3799C9.291 19.3799 11.25 17.42 11.25 15C11.25 12.58 9.291 10.6201 6.875 10.6201C4.459 10.6201 2.5 12.58 2.5 15C2.5 17.42 4.459 19.3799 6.875 19.3799Z" fill="#0E5BCA"/>
<path d="M71.25 59.3701V67.1001C72.482 66.8001 73.768 66.8001 75 67.1001V57.5C75 57 74.802 56.5299 74.451 56.1699C74.099 55.8199 73.622 55.6201 73.125 55.6201H61.875V46.8701H67.103C66.799 45.6401 66.799 44.3601 67.103 43.1201H61.875V34.3701H73.125C73.622 34.3701 74.099 34.1801 74.451 33.8301C74.802 33.4701 75 33 75 32.5V22.8999C73.768 23.1999 72.482 23.1999 71.25 22.8999V30.6201H61.875V30C61.875 29.5 61.677 29.0299 61.326 28.6699C60.974 28.3199 60.497 28.1201 60 28.1201H20C19.503 28.1201 19.026 28.3199 18.674 28.6699C18.323 29.0299 18.125 29.5 18.125 30V30.6201H8.75V22.8999C7.518 23.1999 6.232 23.1999 5 22.8999V32.5C5 33 5.198 33.4701 5.549 33.8301C5.901 34.1801 6.378 34.3701 6.875 34.3701H18.125V43.1201H12.898C13.201 44.3601 13.201 45.6401 12.898 46.8701H18.125V55.6201H6.875C6.378 55.6201 5.901 55.8199 5.549 56.1699C5.198 56.5299 5 57 5 57.5V67.1001C6.232 66.8001 7.518 66.8001 8.75 67.1001V59.3701H18.125V60C18.125 60.5 18.323 60.9701 18.674 61.3301C19.026 61.6801 19.503 61.8701 20 61.8701H27.5V67.1001C28.732 66.8001 30.018 66.8001 31.25 67.1001V61.8701H48.75V67.1001C49.982 66.8001 51.268 66.8001 52.5 67.1001V61.8701H60C60.497 61.8701 60.974 61.6801 61.326 61.3301C61.677 60.9701 61.875 60.5 61.875 60V59.3701H71.25ZM35.265 51.78L31.175 47.6899C30.823 47.3399 30.626 46.8601 30.626 46.3601C30.626 45.8701 30.823 45.39 31.175 45.04C31.527 44.69 32.003 44.49 32.501 44.49C32.998 44.49 33.475 44.69 33.826 45.04L36.591 47.8L46.174 38.22C46.348 38.05 46.555 37.9101 46.783 37.8101C47.01 37.7201 47.254 37.6699 47.501 37.6699C47.747 37.6699 47.991 37.7201 48.219 37.8101C48.446 37.9101 48.653 38.05 48.827 38.22C49.001 38.4 49.139 38.6001 49.233 38.8301C49.327 39.0601 49.376 39.3 49.375 39.55C49.375 39.8 49.327 40.04 49.232 40.27C49.138 40.49 48.999 40.7001 48.825 40.8701L37.916 51.78C37.564 52.13 37.087 52.3301 36.59 52.3301C36.093 52.3301 35.616 52.13 35.265 51.78Z" fill="#0E5BCA"/>
<path d="M6.875 79.3799C9.291 79.3799 11.25 77.42 11.25 75C11.25 72.58 9.291 70.6201 6.875 70.6201C4.459 70.6201 2.5 72.58 2.5 75C2.5 77.42 4.459 79.3799 6.875 79.3799Z" fill="#0E5BCA"/>
</g>
</svg>
