<?xml version="1.0" encoding="utf-8"?>
<!-- Generator: Adobe Illustrator 16.0.0, SVG Export Plug-In . SVG Version: 6.00 Build 0)  -->
<!DOCTYPE svg PUBLIC "-//W3C//DTD SVG 1.1//EN" "http://www.w3.org/Graphics/SVG/1.1/DTD/svg11.dtd">
<svg version="1.1" id="Layer_1" xmlns="http://www.w3.org/2000/svg" xmlns:xlink="http://www.w3.org/1999/xlink" x="0px" y="0px"
	 width="548.836px" height="466.854px" viewBox="0 0 548.836 466.854" enable-background="new 0 0 548.836 466.854"
	 xml:space="preserve">
<g id="Background_Simple" transform="translate(1097.338 50.058)">
	<g id="Group_1" transform="translate(0 0)">
		<path id="Path_1" fill="#4F7EEF" d="M-1096.558,195.091c0,0-7.386,51.318,23.313,108.579
			c26.744,49.888,75.144,84.656,132.668,99.388c37.969,9.724,77.1,9.267,115.611,6.863c49.548-3.092,104.63-0.2,150.373-18.865
			c71.207-29.063,114.717-105.156,118.02-175.787c2.134-45.637-15.416-98.043-62.084-122.094
			c-17.276-8.898-36.467-15.521-51.6-27.698c-18.133-14.586-26.043-35.76-39.584-53.427c-16.726-21.827-40.683-34.263-66.683-44.318
			c-84.5-32.687-165.13-18.019-230.966,25.165C-1073.326,36.077-1100.492,169.934-1096.558,195.091z"/>
		<path id="Path_2" opacity="0.7" fill="#4F7EEF" enable-background="new    " d="M-1096.558,195.091
			c0,0-7.386,51.318,23.313,108.579c26.744,49.888,75.144,84.656,132.668,99.388c37.969,9.724,77.1,9.267,115.611,6.863
			c49.548-3.092,104.63-0.2,150.373-18.865c71.207-29.063,114.717-105.156,118.02-175.787
			c2.134-45.637-15.416-98.043-62.084-122.094c-17.276-8.898-36.467-15.521-51.6-27.698c-18.133-14.586-26.043-35.76-39.584-53.427
			c-16.726-21.827-40.683-34.263-66.683-44.318c-84.5-32.687-165.13-18.019-230.966,25.165
			C-1073.326,36.077-1100.492,169.934-1096.558,195.091z"/>
	</g>
</g>
<g id="Group_3" transform="translate(39.278 0)">
	<rect id="Rectangle_1" x="30.558" y="101.927" fill="#749CED" width="180.614" height="207.037"/>
	<rect id="Rectangle_2" x="38.705" y="112.88" fill="#749CED" width="164.319" height="196.084"/>
	<rect id="Rectangle_3" x="38.705" y="146.535" fill="#749CED" width="164.319" height="10.951"/>
	<g id="Group_2" transform="translate(130.564)">
		<rect id="Rectangle_4" x="30.558" y="2.372" fill="#749CED" width="11.827" height="3.694"/>
		<rect id="Rectangle_5" x="30.558" y="7.546" fill="#749CED" width="11.827" height="3.696"/>
		<rect id="Rectangle_6" x="30.558" y="12.721" fill="#749CED" width="11.827" height="3.696"/>
		<rect id="Rectangle_7" x="30.558" y="17.895" fill="#749CED" width="11.827" height="3.696"/>
		<rect id="Rectangle_8" x="30.558" y="23.069" fill="#749CED" width="11.827" height="3.696"/>
		<rect id="Rectangle_9" x="30.558" y="28.243" fill="#749CED" width="11.827" height="3.694"/>
		<rect id="Rectangle_10" x="30.558" y="33.418" fill="#749CED" width="11.827" height="3.694"/>
		<rect id="Rectangle_11" x="30.558" y="38.592" fill="#749CED" width="11.827" height="3.696"/>
		<rect id="Rectangle_12" x="30.558" y="43.766" fill="#749CED" width="11.827" height="3.696"/>
		<rect id="Rectangle_13" x="30.558" y="48.941" fill="#749CED" width="11.827" height="3.696"/>
		<rect id="Rectangle_14" x="30.558" y="54.115" fill="#749CED" width="11.827" height="3.696"/>
		<rect id="Rectangle_15" x="30.558" y="59.289" fill="#749CED" width="11.827" height="3.694"/>
		<rect id="Rectangle_16" x="30.558" y="64.463" fill="#749CED" width="11.827" height="3.696"/>
		<rect id="Rectangle_17" x="30.558" y="69.638" fill="#749CED" width="11.827" height="3.696"/>
		<rect id="Rectangle_18" x="30.558" y="74.812" fill="#749CED" width="11.827" height="3.696"/>
		<rect id="Rectangle_19" x="30.558" y="79.986" fill="#749CED" width="11.827" height="3.696"/>
		<rect id="Rectangle_20" x="30.558" y="85.161" fill="#749CED" width="11.827" height="3.694"/>
		<rect id="Rectangle_21" x="30.558" y="90.335" fill="#749CED" width="11.827" height="3.694"/>
		<rect id="Rectangle_22" x="30.558" y="95.509" fill="#749CED" width="11.827" height="3.696"/>
		<rect id="Rectangle_23" x="30.558" y="100.683" fill="#749CED" width="11.827" height="3.696"/>
	</g>
</g>
<g id="Group_5" transform="translate(243.994 0)">
	<rect id="Rectangle_24" x="30.558" y="101.927" fill="#749CED" width="92.285" height="207.037"/>
	<rect id="Rectangle_25" x="37.755" y="112.88" fill="#749CED" width="77.892" height="196.084"/>
	<rect id="Rectangle_26" x="37.755" y="146.535" fill="#749CED" width="77.892" height="10.951"/>
	<g id="Group_4" transform="translate(42.235)">
		<rect id="Rectangle_27" x="30.559" y="2.372" fill="#749CED" width="11.826" height="3.694"/>
		<rect id="Rectangle_28" x="30.559" y="7.546" fill="#749CED" width="11.826" height="3.696"/>
		<rect id="Rectangle_29" x="30.559" y="12.721" fill="#749CED" width="11.826" height="3.696"/>
		<rect id="Rectangle_30" x="30.559" y="17.895" fill="#749CED" width="11.826" height="3.696"/>
		<rect id="Rectangle_31" x="30.559" y="23.069" fill="#749CED" width="11.826" height="3.696"/>
		<rect id="Rectangle_32" x="30.559" y="28.243" fill="#749CED" width="11.826" height="3.694"/>
		<rect id="Rectangle_33" x="30.559" y="33.418" fill="#749CED" width="11.826" height="3.694"/>
		<rect id="Rectangle_34" x="30.559" y="38.592" fill="#749CED" width="11.826" height="3.696"/>
		<rect id="Rectangle_35" x="30.559" y="43.766" fill="#749CED" width="11.826" height="3.696"/>
		<rect id="Rectangle_36" x="30.559" y="48.941" fill="#749CED" width="11.826" height="3.696"/>
		<rect id="Rectangle_37" x="30.559" y="54.115" fill="#749CED" width="11.826" height="3.696"/>
		<rect id="Rectangle_38" x="30.559" y="59.289" fill="#749CED" width="11.826" height="3.694"/>
		<rect id="Rectangle_39" x="30.559" y="64.463" fill="#749CED" width="11.826" height="3.696"/>
		<rect id="Rectangle_40" x="30.559" y="69.638" fill="#749CED" width="11.826" height="3.696"/>
		<rect id="Rectangle_41" x="30.559" y="74.812" fill="#749CED" width="11.826" height="3.696"/>
		<rect id="Rectangle_42" x="30.559" y="79.986" fill="#749CED" width="11.826" height="3.696"/>
		<rect id="Rectangle_43" x="30.559" y="85.161" fill="#749CED" width="11.826" height="3.694"/>
		<rect id="Rectangle_44" x="30.559" y="90.335" fill="#749CED" width="11.826" height="3.694"/>
		<rect id="Rectangle_45" x="30.559" y="95.509" fill="#749CED" width="11.826" height="3.696"/>
		<rect id="Rectangle_46" x="30.559" y="100.683" fill="#749CED" width="11.826" height="3.696"/>
	</g>
</g>
<rect id="Rectangle_47" x="30.558" y="280.425" fill="#749CED" stroke="#4F7EEF" width="259.915" height="45.524"/>
<path id="Path_3" fill="#749CED" stroke="#4F7EEF" d="M50.404,290.334c0,3.042-2.466,5.509-5.509,5.509s-5.509-2.467-5.509-5.509
	s2.465-5.508,5.507-5.509c3.042-0.003,5.509,2.463,5.511,5.505C50.404,290.331,50.404,290.332,50.404,290.334z"/>
<rect id="Rectangle_48" x="60.732" y="284.825" fill="#749CED" stroke="#4F7EEF" width="14.459" height="11.017"/>
<rect id="Rectangle_49" x="78.635" y="284.825" fill="#749CED" stroke="#4F7EEF" width="14.459" height="11.017"/>
<rect id="Rectangle_50" x="30.558" y="175.803" fill="#749CED" stroke="#4F7EEF" width="259.915" height="104.756"/>
<rect id="Rectangle_51" x="30.558" y="326.02" fill="#749CED" stroke="#4F7EEF" width="259.915" height="140.334"/>
<rect id="Rectangle_52" x="94.795" y="179.756" fill="#749CED" stroke="#4F7EEF" width="131.44" height="96.85"/>
<g id="Group_6" transform="translate(67.013 60.706)">
	<path id="Path_4" fill="#749CED" stroke="#4F7EEF" d="M32.425,200.043c-1.828,6.14,1.668,12.6,7.809,14.427
		c6.14,1.827,12.599-1.669,14.427-7.809c0.643-2.159,0.643-4.459,0-6.618H32.425z"/>
	<path id="Path_5" fill="#749CED" stroke="#4F7EEF" d="M48.043,191.163v-15.36h-9v15.36c-6.726,2.484-10.164,9.951-7.678,16.678
		c2.486,6.726,9.952,10.163,16.678,7.679c6.726-2.485,10.163-9.953,7.678-16.679C54.406,195.283,51.601,192.478,48.043,191.163z"/>
</g>
<g id="Group_7" transform="translate(119.524 60.706)">
	<path id="Path_6" fill="#749CED" stroke="#4F7EEF" d="M32.42,200.043c-1.827,6.141,1.67,12.599,7.811,14.426
		c6.141,1.826,12.6-1.671,14.426-7.813c0.642-2.157,0.642-4.456,0-6.613H32.42z"/>
	<path id="Path_7" fill="#749CED" stroke="#4F7EEF" d="M48.043,191.163v-15.36h-9v15.36c-6.726,2.484-10.164,9.951-7.678,16.678
		c2.486,6.726,9.953,10.163,16.678,7.679c6.726-2.485,10.164-9.953,7.678-16.679C54.406,195.283,51.601,192.478,48.043,191.163z"/>
</g>
<g id="Group_8" transform="translate(95.519 71.208)">
	<path id="Path_8" fill="#749CED" stroke="#4F7EEF" d="M31.94,193.755c-1.352,4.549,1.24,9.332,5.789,10.684
		c4.548,1.353,9.332-1.239,10.684-5.788c0.475-1.598,0.475-3.299,0-4.896H31.94z"/>
	<path id="Path_9" fill="#749CED" stroke="#4F7EEF" d="M43.51,187.181v-11.378h-6.667v11.378c-4.982,1.841-7.528,7.372-5.687,12.354
		c1.841,4.98,7.372,7.527,12.354,5.688c4.982-1.842,7.528-7.373,5.688-12.354C48.223,190.233,46.146,188.155,43.51,187.181z"/>
</g>
<g id="Group_9" transform="translate(73.758 18.017)">
	<rect id="Rectangle_53" x="36.412" y="175.803" fill="#749CED" stroke="#4F7EEF" width="5.854" height="7.513"/>
	<path id="Rectangle_54" fill="#749CED" stroke="#4F7EEF" d="M34.358,183.33h9.959c2.099,0,3.8,1.701,3.8,3.8l0,0v18.224l0,0H30.558
		l0,0V187.13C30.558,185.031,32.259,183.33,34.358,183.33L34.358,183.33z"/>
</g>
<g id="Group_10" transform="translate(110.768 18.017)">
	<rect id="Rectangle_55" x="36.412" y="175.803" fill="#749CED" stroke="#4F7EEF" width="5.854" height="7.513"/>
	<path id="Rectangle_56" fill="#749CED" stroke="#4F7EEF" d="M34.358,183.33h9.959c2.099,0,3.8,1.701,3.8,3.8l0,0v18.224l0,0H30.558
		l0,0V187.13C30.558,185.031,32.259,183.33,34.358,183.33L34.358,183.33z"/>
</g>
<g id="Group_11" transform="translate(142.836 18.017)">
	<rect id="Rectangle_57" x="36.412" y="175.803" fill="#749CED" stroke="#4F7EEF" width="5.854" height="7.513"/>
	<path id="Rectangle_58" fill="#749CED" stroke="#4F7EEF" d="M34.358,183.33h9.959c2.099,0,3.8,1.701,3.8,3.8l0,0v18.224l0,0H30.558
		l0,0V187.13C30.558,185.031,32.259,183.33,34.358,183.33L34.358,183.33z"/>
</g>
<g id="Group_12" transform="translate(166.01 18.017)">
	<rect id="Rectangle_59" x="36.412" y="175.803" fill="#749CED" stroke="#4F7EEF" width="5.854" height="7.513"/>
	<path id="Rectangle_60" fill="#749CED" stroke="#4F7EEF" d="M34.358,183.33h9.959c2.099,0,3.8,1.701,3.8,3.8l0,0v18.224l0,0H30.558
		l0,0V187.13C30.558,185.031,32.26,183.33,34.358,183.33L34.358,183.33z"/>
</g>
<rect id="Rectangle_61" x="94.795" y="223.24" fill="#749CED" stroke="#4F7EEF" width="131.44" height="9.884"/>
<g id="Group_13" transform="translate(17.701 156.712)">
	<path id="Path_10" fill="#749CED" stroke="#4F7EEF" d="M30.558,175.803l2.63,4.85h14.946l2.64-4.85H30.558z"/>
	<path id="Path_11" fill="#749CED" stroke="#4F7EEF" d="M99.363,175.803l2.63,4.85h14.947l2.64-4.85H99.363z"/>
	<path id="Path_12" fill="#749CED" stroke="#4F7EEF" d="M168.166,175.803l2.63,4.85h14.949l2.64-4.85H168.166z"/>
	<path id="Path_13" fill="#749CED" stroke="#4F7EEF" d="M236.971,175.803l2.63,4.85h14.95l2.64-4.85H236.971z"/>
	<path id="Path_14" fill="#749CED" stroke="#4F7EEF" d="M30.558,207.655l2.63,4.852h14.946l2.64-4.852H30.558z"/>
	<path id="Path_15" fill="#749CED" stroke="#4F7EEF" d="M99.363,207.655l2.63,4.852h14.947l2.64-4.852H99.363z"/>
	<path id="Path_16" fill="#749CED" stroke="#4F7EEF" d="M168.166,207.655l2.63,4.852h14.949l2.64-4.852H168.166z"/>
	<path id="Path_17" fill="#749CED" stroke="#4F7EEF" d="M236.971,207.655l2.63,4.852h14.95l2.64-4.852H236.971z"/>
</g>
<line id="Line_1" fill="none" stroke="#4F7EEF" x1="33.476" y1="332.518" x2="286.286" y2="332.518"/>
<line id="Line_2" fill="none" stroke="#4F7EEF" x1="33.476" y1="364.226" x2="286.286" y2="364.226"/>
<g id="Group_15" transform="translate(121.274 55.417)">
	<path id="Path_18" fill="#749CED" stroke="#4F7EEF" d="M358.711,212.06l-5.188-20.146v-5.508h-7.344v5.508l-5.187,20.146
		c-0.295,1.144,0.394,2.309,1.533,2.604c0.176,0.045,0.355,0.066,0.535,0.066h13.58c1.18,0,2.135-0.956,2.135-2.136
		C358.777,212.413,358.756,212.235,358.711,212.06z"/>
	<path id="Path_19" fill="#749CED" stroke="#4F7EEF" d="M354.465,201.879h-9.226l-2.723,10.573
		c-0.076,0.301,0.107,0.606,0.408,0.683c0.045,0.011,0.09,0.017,0.137,0.017h13.578c0.311,0,0.563-0.253,0.563-0.563
		c0-0.046-0.006-0.092-0.018-0.136L354.465,201.879z"/>
</g>
<g id="Group_16" transform="translate(152.623 55.417)">
	<path id="Path_20" fill="#749CED" stroke="#4F7EEF" d="M358.709,212.06l-5.186-20.146v-5.508h-7.345v5.508l-5.186,20.146
		c-0.295,1.144,0.391,2.309,1.533,2.604c0.176,0.045,0.354,0.066,0.534,0.066h13.578c1.181,0,2.138-0.956,2.138-2.136
		C358.778,212.413,358.754,212.235,358.709,212.06z"/>
	<path id="Path_21" fill="#749CED" stroke="#4F7EEF" d="M354.463,201.879h-9.223l-2.726,10.573c-0.073,0.301,0.107,0.606,0.41,0.683
		c0.045,0.011,0.09,0.017,0.135,0.017h13.58c0.312,0,0.563-0.253,0.563-0.563c0-0.046-0.006-0.092-0.019-0.136L354.463,201.879z"/>
</g>
<line id="Line_3" fill="none" stroke="#4F7EEF" x1="470.61" y1="246.494" x2="470.61" y2="186.406"/>
<rect id="Rectangle_62" x="344.793" y="270.055" fill="#749CED" stroke="#4F7EEF" width="198.891" height="117.132"/>
<rect id="Rectangle_63" x="350.291" y="274.707" fill="#749CED" stroke="#4F7EEF" width="187.898" height="112.479"/>
<g id="Group_17" transform="translate(109.732 133.636)">
	<path id="Path_22" fill="#749CED" stroke="#4F7EEF" d="M340.925,186.407l6.766,9.3h52.437l7.198-9.3H340.925z"/>
	<rect id="Rectangle_64" x="354.395" y="191.711" fill="#749CED" stroke="#4F7EEF" width="40.697" height="3.999"/>
</g>
<rect id="Rectangle_65" x="411.196" y="304.592" fill="#749CED" stroke="#4F7EEF" width="33.403" height="10.114"/>
<g id="Group_18" transform="translate(113.557 104.488)">
	<rect id="Rectangle_66" x="345.865" y="186.407" fill="#749CED" stroke="#4F7EEF" width="4.939" height="12.093"/>
	<path id="Rectangle_67" fill="#749CED" stroke="#4F7EEF" d="M344.725,192.759h7.217c2.1,0,3.801,1.7,3.801,3.8l0,0v14.783l0,0
		h-14.815l0,0v-14.783C340.926,194.46,342.627,192.759,344.725,192.759L344.725,192.759z"/>
</g>
<g id="Group_19" transform="translate(133.906 104.488)">
	<rect id="Rectangle_68" x="345.866" y="186.407" fill="#749CED" stroke="#4F7EEF" width="4.938" height="12.093"/>
	<path id="Rectangle_69" fill="#749CED" stroke="#4F7EEF" d="M344.725,192.759h7.217c2.101,0,3.802,1.7,3.802,3.8l0,0v14.783l0,0
		h-14.818l0,0v-14.783C340.925,194.46,342.626,192.759,344.725,192.759L344.725,192.759z"/>
</g>
<g id="Group_20" transform="translate(154.255 104.488)">
	<rect id="Rectangle_70" x="345.865" y="186.407" fill="#749CED" stroke="#4F7EEF" width="4.938" height="12.093"/>
	<path id="Rectangle_71" fill="#749CED" stroke="#4F7EEF" d="M344.726,192.759h7.217c2.098,0,3.799,1.7,3.799,3.8l0,0v14.783l0,0
		h-14.816l0,0v-14.783C340.925,194.46,342.626,192.759,344.726,192.759L344.726,192.759z"/>
</g>
<rect id="Rectangle_72" x="411.196" y="295.888" fill="#749CED" stroke="#4F7EEF" width="33.403" height="8.704"/>
<rect id="Rectangle_73" x="350.291" y="314.031" fill="#749CED" stroke="#4F7EEF" width="187.898" height="7.612"/>
<g id="Group_23" transform="translate(41.546 143.377)">
	
		<rect id="Rectangle_74" x="364.71" y="205.753" fill="#749CED" stroke="#4F7EEF" stroke-linecap="round" stroke-linejoin="round" width="13.004" height="39.643"/>
	<g id="Group_22">
		<rect id="Rectangle_75" x="340.925" y="186.405" fill="#749CED" stroke="#4F7EEF" width="60.574" height="50.109"/>
		<rect id="Rectangle_76" x="345.141" y="189.896" fill="#749CED" stroke="#4F7EEF" width="52.142" height="43.132"/>
		<g id="Group_21" transform="translate(9.028 8.92)">
			<path id="Path_23" fill="#749CED" stroke="#4F7EEF" d="M347.298,191.278l16.119,11.62l-10.871,6"/>
			<path id="Path_24" fill="#749CED" stroke="#4F7EEF" d="M371.29,192.027l-7.873,10.871l3.75,14.244"/>
			<line id="Line_4" fill="none" stroke="#4F7EEF" x1="363.417" y1="202.9" x2="380.284" y2="212.646"/>
			<path id="Path_25" fill="#749CED" stroke="#4F7EEF" d="M348.796,190.343c0,2.174-1.762,3.936-3.937,3.936
				c-2.174,0-3.936-1.762-3.936-3.936s1.762-3.938,3.936-3.938c0,0,0,0,0.002,0C347.034,186.405,348.796,188.168,348.796,190.343
				L348.796,190.343z"/>
			<path id="Path_26" fill="#749CED" stroke="#4F7EEF" d="M356.481,208.898c0,2.174-1.762,3.938-3.936,3.938
				s-3.937-1.764-3.937-3.938s1.763-3.936,3.937-3.936S356.481,206.724,356.481,208.898L356.481,208.898z"/>
			<path id="Path_27" fill="#749CED" stroke="#4F7EEF" d="M375.225,192.028c0,2.175-1.762,3.938-3.936,3.938
				s-3.938-1.763-3.938-3.938c0-2.174,1.765-3.936,3.938-3.936S375.225,189.856,375.225,192.028L375.225,192.028z"/>
			<path id="Path_28" fill="#749CED" stroke="#4F7EEF" d="M384.221,212.646c0,2.174-1.762,3.938-3.936,3.938
				c-2.175,0-3.937-1.763-3.938-3.937c0-2.174,1.762-3.937,3.937-3.937c0,0,0,0,0.002,0
				C382.458,208.711,384.219,210.473,384.221,212.646z"/>
			<ellipse id="Ellipse_1" fill="#749CED" stroke="#4F7EEF" cx="367.165" cy="217.145" rx="3.936" ry="3.936"/>
		</g>
	</g>
</g>
<g id="Group_24" transform="translate(122.893 176.677)">
	
		<rect id="Rectangle_77" x="362.332" y="186.407" fill="#749CED" stroke="#4F7EEF" stroke-linecap="round" stroke-linejoin="round" width="15.857" height="3.487"/>
	<path id="Path_29" fill="#749CED" stroke="#4F7EEF" d="M340.926,211.779v-7.814c0-2.289,0.989-4.466,2.715-5.97l9.653-8.416h35.199
		l9.172,8.43c1.634,1.5,2.563,3.614,2.563,5.831v9.208L340.926,211.779z"/>
	<path id="Path_30" fill="#749CED" stroke="#4F7EEF" d="M387.547,199.566c0,3.24-7.603,5.867-16.97,5.867
		c-9.364,0-16.967-2.627-16.967-5.867c0-3.238,7.6-5.865,16.967-5.865C379.947,193.701,387.547,196.328,387.547,199.566z"/>
</g>
<rect id="Rectangle_78" x="344.793" y="387.187" fill="#749CED" stroke="#4F7EEF" width="199.674" height="79.167"/>
<line id="Line_5" fill="none" stroke="#4F7EEF" x1="344.73" y1="428.415" x2="543.581" y2="428.415"/>
<rect id="Rectangle_79" x="482.372" y="387.187" fill="#749CED" stroke="#4F7EEF" width="62.096" height="79.167"/>
<rect id="Rectangle_80" x="340.924" y="387.187" fill="#749CED" stroke="#4F7EEF" width="207.412" height="7.611"/>
<path id="Path_31" fill="#749CED" stroke="#4F7EEF" d="M442.411,394.866l3.135,5.782h17.82l3.146-5.782H442.411z"/>
<path id="Path_32" fill="#749CED" stroke="#4F7EEF" d="M442.411,428.17l3.135,5.78h17.82l3.146-5.78H442.411z"/>
<path id="Path_33" fill="#749CED" stroke="#4F7EEF" d="M375.495,394.866l3.135,5.782h17.82l3.146-5.782H375.495z"/>
<path id="Path_34" fill="#749CED" stroke="#4F7EEF" d="M375.495,428.17l3.135,5.78h17.82l3.146-5.78H375.495z"/>
<line id="Line_6" fill="none" stroke="#4F7EEF" x1="466.663" y1="207.025" x2="521.862" y2="207.025"/>
<line id="Line_7" fill="none" stroke="#3E93FC" stroke-width="3" x1="461.774" y1="207.025" x2="466.663" y2="207.025"/>
<line id="Line_8" fill="none" stroke="#4F7EEF" x1="502.42" y1="207.614" x2="502.42" y2="244.727"/>
<g id="Group_10865" transform="translate(0 -5413)">
	<g id="Device" transform="translate(1141.311 5724.656)">
		<g id="Group_28" transform="translate(0 0)">
			<rect id="Rectangle_81" x="-1074.009" y="7.028" fill="#263238" stroke="#263238" width="9.726" height="10.992"/>
			<rect id="Rectangle_82" x="-1079.084" y="2.797" fill="#263238" stroke="#263238" width="18.606" height="6.767"/>
			<rect id="Rectangle_83" x="-1090.501" y="14.637" fill="#FFFFFF" stroke="#263238" width="41.863" height="111.636"/>
			<ellipse id="Ellipse_2" fill="#263238" stroke="#263238" cx="-1074.221" cy="47.833" rx="10.783" ry="10.783"/>
			<path id="Path_35" fill="#FFFFFF" stroke="#263238" d="M-986.305,154.698l-19.2-24.102h-55.395l-19.049,24.102H-986.305z"/>
			<path id="Rectangle_84" fill="#FFFFFF" stroke="#263238" d="M-1069.358,123.737h89.223l0,0v1.521c0,3.13-2.537,5.667-5.667,5.667
				h-77.889c-3.13,0-5.667-2.537-5.667-5.667V123.737L-1069.358,123.737z"/>
			<g id="Group_27" transform="translate(64.371 15.178)">
				
					<rect id="Rectangle_85" x="-1097.878" y="-33.42" transform="matrix(0.8378 -0.546 0.546 0.8378 -159.312 -599.0584)" fill="#FFFFFF" stroke="#263238" width="20.064" height="4.012"/>
				
					<rect id="Rectangle_86" x="-1084.943" y="-45.97" transform="matrix(0.8378 -0.546 0.546 0.8378 -152.6573 -593.7397)" fill="#263238" stroke="#263238" width="18.727" height="12.039"/>
			</g>
			<rect id="Rectangle_87" x="-1071.472" y="-50.058" fill="#263238" stroke="#263238" width="3.806" height="12.263"/>
			<rect id="Rectangle_88" x="-1073.586" y="-38.641" fill="#FFFFFF" stroke="#263238" width="7.611" height="24.103"/>
			<rect id="Rectangle_89" x="-1078.661" y="-17.077" fill="#FFFFFF" stroke="#263238" width="17.76" height="13.954"/>
			<path id="Path_36" fill="#FFFFFF" stroke="#263238" d="M-1032.205-23.751l-20.229,17.087l-44.9,3.959l1.01,11.548l54.186-4.777
				l18.314-13.663L-1032.205-23.751z"/>
		</g>
	</g>
	<g id="Characters_2" transform="translate(1361.933 5592.146)">
		<g id="Group_42" transform="translate(0 0)">
			<path id="Path_37" fill="#B5B5B5" stroke="#263238" d="M-921.149-25.094l-2.019,21.183c0,0-11.698-0.807-15.129-7.665
				c-3.43-6.856-1.899-15.826-1.899-15.826l1.493-8.182c3.943-1.868,8.563-1.641,12.306,0.606
				C-920.141-31.147-921.149-25.094-921.149-25.094z"/>
			<g id="Group_29" transform="translate(77.555 22.655)">
				<path id="Path_38" fill="#FFFFFF" stroke="#263238" d="M-1081.898,20.216l42.885-10.452l21.265-59.821
					c0,0,5.045,9.368,8.647,13.693c3.605,4.325,10.451,8.289,10.451,8.289s-7.207,39.282-9.729,51.9
					c-2.523,12.617-2.884,14.774-6.125,17.658c-3.242,2.884-42.166,27.381-42.166,27.381s12.973,24.146,14.416,41.081
					c1.44,16.938,2.521,36.761,2.521,36.761s-31.713-50.453-43.246-65.229c-11.531-14.774-16.217-37.111-13.693-48.646
					S-1081.898,20.216-1081.898,20.216z"/>
				<path id="Path_39" fill="none" stroke="#263238" d="M-1066.657,31.707l9.985,37.16l7.313-44.008"/>
				<path id="Path_40" fill="none" stroke="#263238" d="M-1037.827,10.804c7.037,2.93,11.979,9.383,12.975,16.938"/>
				<path id="Path_41" fill="none" stroke="#263238" d="M-1029.9,10.804c0,0,13.701,2.883,14.416,17.3"/>
				<path id="Path_42" fill="none" stroke="#263238" d="M-1080.713,34.228l18.021,37.481l-3.963,6.847l9.008,7.208l2.523,14.057"/>
			</g>
			<path id="Path_43" fill="#263238" stroke="#263238" d="M-1067.579,10.542c0,0-21.264,6.847-28.109,20.182
				c-6.846,13.336,9.729,37.479,12.252,46.488c2.523,9.011-1.082,12.253-4.325,9.731c-3.243-2.522-6.848,2.521-3.244,8.288
				c3.604,5.766,23.425,1.439,29.913-1.801c6.486-3.24,5.045-24.865,1.441-38.921c-3.604-14.054-7.93-29.91-5.768-36.759
				C-1063.257,10.906-1067.579,10.542-1067.579,10.542z"/>
			<g id="Group_32" transform="translate(27.323 16.647)">
				<path id="Path_44" fill="#FFFFFF" stroke="#263238" d="M-1027.702-35.402c0,0,10.45,12.612,11.177,17.659
					c0.438,2.618,0.56,5.28,0.359,7.928c0,0,5.045,5.768,6.127,6.487s4.686,2.883,2.523,5.766c-1.416,1.749-3.52,2.802-5.768,2.883
					c0,0,0.36,11.174-0.722,16.219s-3.244,6.848-7.207,7.208c-3.963,0.358-9.01,0.359-9.01,0.359l-3.965,20.183l5.047,26.308
					l-37.488-40.724c0,0,3.601-14.776,3.601-17.659s-5.404-8.289-0.722-23.425C-1059.063-21.35-1027.702-35.402-1027.702-35.402z"/>
				<path id="Path_45" fill="#263238" stroke="#263238" d="M-1064.1,3.163c0,0,6.486,2.161,8.29-2.522
					c1.803-4.683-1.082-10.452,7.928-15.5s24.867-8.648,28.108-16.938c3.244-8.289-0.36-16.938-5.403-18.019
					c-5.045-1.08-11.172,1.8-20.9,2.162c-9.728,0.362-38.256,0.212-47.266,13.907c-9.009,13.693-0.306,38.348,2.219,43.753
					c2.525,5.404,2.522,19.461,12.974,20.181c10.453,0.721,17.66-7.207,18.381-12.973C-1059.05,11.446-1064.1,3.163-1064.1,3.163z"
					/>
				<g id="Group_30" transform="translate(30.715 31.233)" opacity="0.5">
					<path id="Path_46" fill="#FFFFFF" d="M-1097.342-32.399l51.9-17.659c0,0,9.369,5.766,2.883,13.335l-26.668,8.648l-27.75-0.722
						L-1097.342-32.399z"/>
					<line id="Line_9" fill="none" x1="-1097.338" y1="-32.399" x2="-1045.444" y2="-50.058"/>
					<line id="Line_10" fill="none" x1="-1074.635" y1="-38.886" x2="-1069.228" y2="-28.076"/>
				</g>
				<g id="Group_31" transform="translate(30.715 31.233)">
					<path id="Path_47" fill="none" stroke="#263238" d="M-1097.342-32.399l51.9-17.659c0,0,9.369,5.766,2.883,13.335l-26.668,8.648
						l-27.75-0.722L-1097.342-32.399z"/>
					
						<line id="Line_11" fill="none" stroke="#263238" stroke-width="2" stroke-linecap="round" x1="-1097.338" y1="-32.399" x2="-1045.444" y2="-50.058"/>
					<line id="Line_12" fill="none" stroke="#263238" x1="-1074.635" y1="-38.886" x2="-1069.228" y2="-28.076"/>
				</g>
				<path id="Path_48" fill="#FFFFFF" stroke="#263238" d="M-1057.254,5.682c-1.082,0-10.451-12.614-15.135-9.01
					c-4.687,3.604-0.361,16.577,5.404,19.1c5.768,2.523,10.453-3.6,10.453-3.6"/>
				<path id="Path_49" fill="#263238" d="M-1022.297-8.733c0,1.791-0.646,3.244-1.439,3.244c-0.795,0-1.442-1.453-1.442-3.244
					s0.646-3.244,1.442-3.244C-1022.942-11.978-1022.297-10.525-1022.297-8.733z"/>
			</g>
			<g id="Group_33" transform="translate(25.604 97.253)">
				<path id="Path_50" fill="#FFFFFF" stroke="#263238" d="M-1065.984-50.058c0,0,18.738,15.5,29.191,32.434
					c10.451,16.936,37.117,47.21,41.443,57.3c4.323,10.09,7.928,20.542,7.928,29.191c0,8.647,0.721,74.238,0.721,75.679v45.408
					h-110.637c0,0,6.848-94.78,6.848-114.961c0-20.182-8.648-38.563-2.162-67.391C-1086.165-21.228-1075.353-37.805-1065.984-50.058
					z"/>
				<path id="Path_51" fill="none" stroke="#263238" d="M-1073.192-39.606l40,55.138l10.091-3.243l-0.721,12.253l25.227,13.334"/>
				<path id="Path_52" fill="none" stroke="#263238" d="M-997.635,142.7h-58.2v9.311h53.539"/>
			</g>
			<g id="Group_36" transform="translate(157.978)">
				<g id="Group_34" transform="translate(25.131 44.539)">
					<path id="Rectangle_90" fill="#FFFFFF" stroke="#263238" d="M-1096.036-46.744h5.449l0,0v16.18
						c0,1.186-0.963,2.146-2.148,2.146l0,0h-1.151c-1.187,0-2.146-0.961-2.148-2.146L-1096.036-46.744L-1096.036-46.744z"/>
					<rect id="Rectangle_91" x="-1097.338" y="-50.058" fill="#FFFFFF" stroke="#263238" width="8.055" height="5.448"/>
				</g>
				<g id="Group_35">
					<path id="Path_53" fill="#92E3A9" stroke="#263238" stroke-linecap="round" stroke-linejoin="round" d="M-1040.596-34.578
						c0,0,2.823,4.439,2.42,7.063c-0.404,2.624-4.236,14.122-5.447,14.323c-1.209,0.199-1.412-1.212-1.008-5.245
						c0.401-4.034,1.008-6.658,1.008-7.868S-1042.817-36.998-1040.596-34.578z"/>
					<path id="Path_54" fill="#51D8B0" stroke="#263238" stroke-linecap="round" stroke-linejoin="round" d="M-1094.866-40.022
						c0,0-4.641,8.069-1.211,12.71c3.428,4.639,10.895,5.043,10.895,5.043s1.212,9.079,3.025,10.49
						c1.816,1.411,6.254,7.666,6.859,9.887c0.604,2.22,4.842-0.606,4.842-2.421c0-1.815-3.027-9.078-3.834-11.102
						c-0.807-2.021,1.01-7.464,1.615-9.278c0.272-0.929,0.682-1.813,1.209-2.622c0,0,5.852,5.646,6.457,8.876
						c0.604,3.228-1.01,15.13,0.6,16.543c1.61,1.413,5.85,1.009,6.658-1.413c0.807-2.422,2.219-16.543,2.219-18.964
						c0-2.422-3.834-10.692-3.834-10.692s6.254,6.254,6.455,8.473c0.201,2.221-1.613,16.342-0.6,16.744
						c1.013,0.403,2.623,1.009,4.032-0.2c1.412-1.209,2.623-4.438,2.623-4.438s4.035-9.482,5.65-13.92
						c1.613-4.438,3.025-9.482-0.607-11.3c-5.424-2.826-11.016-5.319-16.741-7.465c-10.289-4.034-24.814-7.062-30.062-3.229
						C-1093.858-44.465-1094.866-40.022-1094.866-40.022z"/>
					<line id="Line_13" fill="none" stroke="#263238" x1="-1085.181" y1="-22.27" x2="-1085.989" y2="-36.795"/>
					<path id="Path_55" fill="none" stroke="#263238" d="M-1085.383-27.514c0,0-8.07-0.2-8.875-10.491"/>
					<path id="Path_56" fill="none" stroke="#263238" d="M-1044.631-18.437c0,0,2.623-7.666,0.399-11.301
						c-2.223-3.635-10.69-9.278-10.69-9.278"/>
				</g>
			</g>
			<g id="Group_41" transform="translate(38.578 69.887)">
				<g id="Group_37" transform="translate(115.452 14.276)">
					<path id="Path_57" fill="#B5B5B5" stroke="#263238" d="M-1097.338,17.629c0.709-0.474,13.266-13.74,13.5-14.687
						c0.234-0.947,0.473-13.74,1.895-16.583c1.423-2.844,6.16-11.135,6.4-13.74c0.24-2.606,0.236-11.371,0-14.45
						c-0.238-3.079,2.842-3.315,4.975-0.474c2.134,2.842,2.601,6.87,2.601,10.423s0.238,6.4,0.713,7.106
						c0.473,0.707,4.5,4.265,6.4,4.736c1.897,0.475,13.264-5.211,16.582-6.398c3.315-1.189,5.446-10.9,5.922-11.846
						c0.475-0.942,0.711-8.054,0.946-9.713c0.236-1.659,3.316-3.79,4.5,0.237c1.185,4.027,0.709,13.5,0.476,16.109
						c-0.236,2.607,0,8.054-1.187,9.476c-1.186,1.422-8.766,8.054-9.475,9c-0.711,0.946-3.553,10.187-4.5,11.609
						c-0.947,1.422-9,4.5-14.451,7.815c-3.938,2.533-7.662,5.386-11.133,8.528c0,0,1.658,1.898,0,3.553
						c-1.406,1.211-3.008,2.172-4.738,2.843l-4.975,11.847L-1097.338,17.629z"/>
					<path id="Path_58" fill="#51D8B0" stroke="#263238" stroke-linecap="round" stroke-linejoin="round" d="M-1047.591-1.557
						c0.949-1.422,3.791-10.661,4.5-11.609c0.711-0.948,8.291-7.58,9.475-9c1.187-1.42,0.949-6.87,1.187-9.476
						c0.236-2.606,0.711-12.082-0.475-16.109c-1.185-4.027-4.265-1.895-4.5-0.237c-0.234,1.658-0.474,8.768-0.945,9.714
						c-0.475,0.946-2.607,10.659-5.924,11.845c-3.316,1.184-14.688,6.87-16.582,6.398c-1.896-0.47-5.924-4.025-6.4-4.735
						c-0.476-0.71-0.709-3.555-0.709-7.107s-0.475-7.58-2.607-10.423c-2.131-2.843-5.211-2.606-4.975,0.474
						c0.238,3.08,0.238,11.846,0,14.45c-0.236,2.606-4.973,10.9-6.4,13.74c-1.426,2.84-1.655,15.636-1.893,16.583
						c-0.123,0.491-3.553,4.29-6.93,7.899l12.649,10.833l0.209-0.5c1.73-0.672,3.332-1.634,4.738-2.844c1.658-1.658,0-3.553,0-3.553
						c3.471-3.143,7.193-5.995,11.133-8.528C-1056.591,2.944-1048.539-0.136-1047.591-1.557z"/>
					<line id="Line_14" fill="none" stroke="#263238" x1="-1043.089" y1="-13.165" x2="-1051.142" y2="-7.245"/>
				</g>
				<g id="Group_38" transform="translate(0 64.449)">
					<path id="Path_59" fill="#FFFFFF" stroke="#263238" d="M-1087.248-49.663c0,0,12.253-2.163,19.462,3.602
						c7.207,5.763,9.73,16.578,10.09,17.659c0.358,1.081,34.236,32.073,34.236,32.073l42.523-39.28l20.899,20.542
						c0,0-26.668,33.873-40.36,46.849c-13.695,12.974-23.785,19.1-26.31,20.181s-5.045,0-7.928-1.8s-62.707-61.984-62.707-61.984"/>
					<path id="Path_60" fill="none" stroke="#263238" d="M-1087.968-24.434c0,0,11.172-10.45,16.938-10.813
						c5.767-0.359,9.73,4.324,9.73,4.324"/>
					<path id="Path_61" fill="none" stroke="#263238" d="M-1093.734-33.086c0,0,13.693-9.01,21.621-4.686"/>
					<path id="Path_62" fill="none" stroke="#263238" d="M-1023.46,3.674c0,0-9.37,19.821-7.93,29.191"/>
					<path id="Path_63" fill="none" stroke="#263238" d="M-1025.262,4.754c0,0-9.729,6.127-13.334,17.659"/>
				</g>
				<g id="Group_39" transform="translate(157.56)">
					<path id="Rectangle_92" fill="#FFFFFF" stroke="#263238" d="M-1096.035-46.742h5.449l0,0v16.178
						c0,1.187-0.964,2.147-2.148,2.146l0,0h-1.151c-1.187,0-2.148-0.961-2.148-2.146L-1096.035-46.742L-1096.035-46.742z"/>
					<rect id="Rectangle_93" x="-1097.338" y="-50.058" fill="#FFFFFF" stroke="#263238" width="8.055" height="5.449"/>
				</g>
				<g id="Group_40" transform="translate(167.746)">
					<path id="Rectangle_94" fill="#FFFFFF" stroke="#263238" d="M-1096.036-46.742h5.449l0,0v16.178
						c0,1.187-0.963,2.147-2.148,2.146l0,0h-1.151c-1.187,0-2.146-0.961-2.148-2.146L-1096.036-46.742L-1096.036-46.742z"/>
					<rect id="Rectangle_95" x="-1097.339" y="-50.058" fill="#FFFFFF" stroke="#263238" width="8.055" height="5.449"/>
				</g>
				<rect id="Rectangle_96" x="-953.932" y="-38.45" fill="#263238" stroke="#263238" width="34.586" height="17.767"/>
			</g>
		</g>
	</g>
	<g id="Character_1" transform="translate(1150.242 5676.79)">
		<g id="Group_48" transform="translate(0 0)">
			<g id="Group_43" transform="translate(63.729)">
				<path id="Path_64" fill="#FFFFFF" stroke="#263238" d="M-1082.619-11.96c0,0-0.414,13.659,2.484,19.042
					c2.898,5.382,7.864,7.45,8.279,12c0.415,4.549-1.657,10.763,1.242,12.418c2.899,1.653,23.593,22.354,30.218,21.94
					s13.66-9.934,13.66-9.934l14.9,9.52l19.868-40.978l-13.245-12c0,0-5.383-32.293-12.833-41.4
					c-7.45-9.105-35.184-11.59-49.258-4.967s-19.041,21.524-22.353,24.421c-3.312,2.897-10.348,5.8-6.623,11.176
					S-1082.619-11.96-1082.619-11.96z"/>
				<path id="Path_65" fill="#263238" stroke="#263238" d="M-1008.939,8.321c1.578-1.228,3.155-4.388,4.45-7.621l-0.725-0.656
					c0,0-5.382-32.287-12.832-41.396c-7.45-9.105-35.184-11.59-49.258-4.967s-19.041,21.524-22.353,24.421
					c-3.312,2.897-10.348,5.8-6.623,11.176c3.474,5.021,12.341-0.398,13.522-1.15l0.138-0.09c3.841-1.216,7.579-2.738,11.176-4.555
					c3.349-1.943,6.533-4.159,9.521-6.624c0,0-8.693,14.488-5.382,19.042c3.311,4.556,13.246,2.484,13.246,2.484
					s6.623,8.693,10.762,6.623c4.139-2.07-1.655-9.935,4.554-12.832c6.209-2.898,11.176,9.52,11.176,11.59
					S-1012.664,11.22-1008.939,8.321z"/>
				<path id="Path_66" fill="#51D8B0" stroke="#263238" stroke-linecap="round" stroke-linejoin="round" d="M-1004.419,0.763
					l-28.942,33.636c0,0-7.036-0.827-12-4.553c-4.964-3.727-9.106-12.833-9.106-12.833s21.11-23.18,31.872-29.8
					c9.394-5.781,12.479-6.831,13.112-7c-0.366-1.4-0.752-2.818-1.158-4.225c-2.249,0.993-8.847,4.302-19.4,12.883
					c-11.538,9.375-35.944,33.815-42.048,39.966c0.037,1.076,0.589,2.068,1.483,2.67c2.9,1.654,23.593,22.353,30.217,21.938
					c1.365-0.124,2.691-0.521,3.9-1.168c1.263-5.155,3.443-12.979,5.209-16.218c2.144-3.932,23.4-26.975,29.177-33.2
					L-1004.419,0.763z"/>
				<path id="Path_67" fill="#FFFFFF" stroke="#263238" d="M-1041.225,6.253c0,0-3.725-13.246,1.242-15.73
					c4.967-2.482,11.176,2.9,12,8.693c0.824,5.793-2.07,12.833-2.07,12.833c1.728,3.747,2.304,7.924,1.655,12"/>
				<path id="Path_68" fill="#263238" d="M-1062.521,16.507c0.822,1.6,0.818,3.239-0.011,3.665s-2.167-0.523-2.99-2.121
					c-0.823-1.598-0.818-3.239,0.011-3.665S-1063.344,14.909-1062.521,16.507z"/>
				<path id="Path_69" fill="none" stroke="#263238" d="M-1073.22,8.811c0,0,0.482-5.785,7.472-4.58"/>
			</g>
			<g id="Group_45" transform="translate(123.072 57.262)">
				<path id="Path_70" fill="#FFFFFF" stroke="#263238" d="M-1052.093-50.058l-31.292,49.898l12.263,8.88l28.754-54.126
					L-1052.093-50.058z"/>
				<g id="Group_44" transform="translate(0 5.497)">
					<path id="Path_71" fill="#FFFFFF" stroke="#263238" d="M-1044.481-50.059c0,0-24.1,41.862-28.755,51.164
						c-4.655,9.303-18.183,32.138-19.029,45.669c-0.846,13.532-5.073,93.029-5.073,93.029h97.257c0,0,7.188-60.469,6.766-83.727
						s-6.343-57.509-24.1-80.767S-1044.481-50.059-1044.481-50.059z"/>
					<path id="Path_72" fill="none" stroke="#263238" d="M-1036.024-43.716c0,0-14.377,27.063-24.1,42.708
						s-22.411,32.561-25.794,42.285c-3.383,9.728-3.383,13.953-3.383,13.953"/>
				</g>
			</g>
			<g id="Group_47" transform="translate(0 102.93)">
				<path id="Path_73" fill="#51D8B0" stroke="#263238" stroke-linecap="round" stroke-linejoin="round" d="M-1037.695,22.674
					l-11.418-8.457c0,0-5.5-13.954-8.88-17.76c-3.38-3.808-8.034-2.961-10.995-6.344s-6.342-10.994-8.034-11.841
					c-1.692-0.845-5.5,1.27-5.5,4.651s3.806,8.88,3.806,10.147v1.271c0,0-14.377-4.229-16.069-2.96
					c-1.692,1.268-3.383,5.5-2.114,7.611c1.27,2.109,3.806,2.96,3.806,4.649c0,1.691-2.961,7.188-1.269,9.3
					c1.183,1.387,2.618,2.533,4.229,3.385c0,0,0,8.032,2.538,11.418c2.538,3.384,21.988,5.919,27.908,6.765
					c5.92,0.846,23.257,9.3,23.257,9.3L-1037.695,22.674z"/>
				<g id="Group_46" transform="translate(55.837)">
					<path id="Path_74" fill="#FFFFFF" stroke="#263238" d="M-981.474-50.06c0,0-18.183,8.881-24.949,32.139
						c-6.766,23.257-10.994,47.357-10.994,47.357s-4.228-0.845-4.228,1.692c0.043,1.282-0.099,2.563-0.423,3.806l-73.578-13.95
						l-1.692,34.676c0,0,95.566,17.757,100.641,17.757c5.075,0,10.572-1.692,12.263-5.92c1.691-4.229,29.178-65.965,29.178-65.965"
						/>
					<path id="Path_75" fill="none" stroke="#263238" d="M-973.017-30.608c0,0,14.377,8.034,16.914,19.028"/>
					<path id="Path_76" fill="none" stroke="#263238" d="M-983.166-18.345c1.269,0,22.834,1.69,27.486,13.953"/>
					<path id="Path_77" fill="none" stroke="#263238" d="M-963.291,19.29c0,0,16.491-7.611,21.566-24.102"/>
					<path id="Path_78" fill="none" stroke="#263238" d="M-1018.263,35.357c0,0,8.457,15.646,8.034,26.642"/>
					<path id="Path_79" fill="none" stroke="#263238" d="M-1013.188,32.819c0,0,8.457,1.691,14.377,13.108"/>
				</g>
			</g>
		</g>
		<path id="Path_80" fill="#263238" stroke="#263238" d="M-843.654,119.684h-15.223c-2.944,0.117-5.442,2.199-6.09,5.074
			l-15.73,77.806h25.373l15.729-77.806c0.575-2.154-0.703-4.366-2.857-4.941C-842.844,119.712-843.248,119.667-843.654,119.684z"/>
	</g>
	<g id="Bottles" transform="translate(1082.299 5853.29)">
		<g id="Group_57" transform="translate(16.764 19.346)">
			<g id="Group_50" transform="translate(11.246)">
				<g id="Group_49" transform="translate(1.805 1.505)">
					<path id="Rectangle_97" fill="#FFFFFF" stroke="#263238" stroke-linecap="round" stroke-linejoin="round" d="M-1097.338-50.059
						h10.231l0,0v48.605c0,2.228-1.804,4.032-4.031,4.033l0,0h-2.168c-2.227,0-4.032-1.806-4.032-4.032v-0.001V-50.059
						L-1097.338-50.059z"/>
					<path id="Path_81" fill="#FFE51A" stroke="#263238" stroke-linecap="round" stroke-linejoin="round" d="M-1097.338-30.646
						v28.109c0,2.825,2.29,5.115,5.114,5.116c2.825,0,5.115-2.29,5.116-5.114c0-0.001,0-0.001,0-0.002v-28.109H-1097.338z"/>
				</g>
				
					<rect id="Rectangle_98" x="-1097.338" y="-50.06" fill="#FFFFFF" stroke="#263238" stroke-linecap="round" stroke-linejoin="round" width="13.841" height="9.629"/>
			</g>
			<g id="Group_52" transform="translate(31.143)">
				<g id="Group_51" transform="translate(1.805 1.504)">
					<path id="Path_82" fill="#FFFFFF" stroke="#263238" stroke-linecap="round" stroke-linejoin="round" d="M-1092.222,2.581
						L-1092.222,2.581c-2.826,0-5.116-2.291-5.116-5.116v-47.519h10.23v47.521C-1087.11,0.292-1089.399,2.58-1092.222,2.581z"/>
					<path id="Path_83" fill="#24DDFF" stroke="#263238" stroke-linecap="round" stroke-linejoin="round" d="M-1097.338-30.646
						v28.109c0,2.825,2.29,5.115,5.114,5.116c2.825,0,5.115-2.29,5.116-5.114c0-0.001,0-0.002,0-0.002v-28.109H-1097.338z"/>
				</g>
				
					<rect id="Rectangle_99" x="-1097.338" y="-50.06" fill="#FFFFFF" stroke="#263238" stroke-linecap="round" stroke-linejoin="round" width="13.842" height="9.629"/>
			</g>
			<g id="Group_54" transform="translate(51.041)">
				<g id="Group_53" transform="translate(1.805 1.504)">
					<path id="Path_84" fill="#FFFFFF" stroke="#263238" stroke-linecap="round" stroke-linejoin="round" d="M-1092.22,2.581
						L-1092.22,2.581c-2.826,0-5.116-2.291-5.116-5.116v-47.519h10.23v47.521C-1087.108,0.292-1089.397,2.58-1092.22,2.581z"/>
					<path id="Path_85" fill="#BC6EFF" stroke="#263238" stroke-linecap="round" stroke-linejoin="round" d="M-1097.338-30.646
						v28.109c0,2.825,2.29,5.116,5.115,5.117c0.001,0,0.002,0,0.003,0l0,0c2.825,0,5.115-2.29,5.115-5.115v-0.001v-28.11H-1097.338z
						"/>
				</g>
				
					<rect id="Rectangle_100" x="-1097.338" y="-50.06" fill="#FFFFFF" stroke="#263238" stroke-linecap="round" stroke-linejoin="round" width="13.841" height="9.629"/>
			</g>
			<g id="Group_56" transform="translate(70.937)">
				<g id="Group_55" transform="translate(1.806 1.504)">
					<path id="Path_86" fill="#FFFFFF" stroke="#263238" stroke-linecap="round" stroke-linejoin="round" d="M-1092.222,2.581
						L-1092.222,2.581c-2.826,0-5.116-2.291-5.116-5.116v-47.519h10.23v47.521C-1087.11,0.292-1089.399,2.58-1092.222,2.581z"/>
					<path id="Path_87" fill="#FFEB7E" stroke="#263238" stroke-linecap="round" stroke-linejoin="round" d="M-1097.338-30.646
						v28.109c0,2.825,2.29,5.115,5.115,5.115s5.115-2.29,5.115-5.115v-28.109H-1097.338z"/>
				</g>
				
					<rect id="Rectangle_101" x="-1097.338" y="-50.06" fill="#FFFFFF" stroke="#263238" stroke-linecap="round" stroke-linejoin="round" width="13.842" height="9.629"/>
			</g>
			<path id="Path_88" fill="#FFFFFF" stroke="#263238" stroke-linecap="round" stroke-linejoin="round" d="M-1003.908-35.238h-89.1
				v3.028h89.1v31.571h-93.43v7.354h99.486v-41.953H-1003.908z"/>
		</g>
		<g id="Group_58" transform="translate(404.282 12.501)">
			<path id="Path_89" fill="#FFFFFF" stroke="#263238" d="M-1057.385,7.565l-11.652-45.254V-50.06h-16.494v12.371l-11.651,45.254
				c-0.662,2.566,0.881,5.186,3.448,5.848c0.392,0.103,0.796,0.152,1.199,0.152h30.5c2.652,0.001,4.801-2.146,4.803-4.799
				C-1057.233,8.361-1057.286,7.959-1057.385,7.565z"/>
			<path id="Path_90" fill="#749CED" d="M-1066.924-15.304h-20.72l-6.114,23.75c-0.175,0.679,0.235,1.368,0.913,1.542
				c0.103,0.025,0.207,0.039,0.312,0.039h30.5c0.699,0,1.267-0.566,1.267-1.266c0-0.106-0.015-0.212-0.041-0.315L-1066.924-15.304z"
				/>
		</g>
		<g id="Group_60" transform="translate(448.047 7.199)">
			<path id="Path_91" fill="#FFFFFF" stroke="#263238" d="M-1067.59-23.927v-26.133h-15.313v26.133
				c-11.445,4.229-17.293,16.937-13.064,28.379c4.23,11.444,16.937,17.293,28.379,13.063c11.445-4.229,17.293-16.937,13.064-28.379
				C-1056.763-16.917-1061.535-21.688-1067.59-23.927z"/>
			<g id="Group_59" transform="translate(2.356 41.236)">
				<path id="Path_92" fill="#FEEB7E" d="M-1096.524-50.059c-3.104,10.447,2.85,21.435,13.297,24.538
					c10.447,3.104,21.435-2.849,24.539-13.296c1.09-3.669,1.09-7.573,0-11.242H-1096.524z"/>
			</g>
		</g>
		<g id="Group_62" transform="translate(503.569 0)">
			<path id="Path_93" fill="#FFFFFF" stroke="#263238" d="M-1077.703-2.18v-47.879h-10.109v47.88
				c-7.553,2.792-11.412,11.178-8.621,18.73c2.793,7.553,11.179,11.413,18.73,8.621c7.553-2.791,11.414-11.178,8.621-18.73
				C-1070.559,2.447-1073.707-0.701-1077.703-2.18L-1077.703-2.18z"/>
			<g id="Group_61" transform="translate(1.555 57.849)">
				<path id="Path_94" fill="#92E3A9" d="M-1096.797-50.059c-2.051,6.896,1.877,14.147,8.772,16.197s14.146-1.879,16.195-8.772
					c0.721-2.423,0.721-5.001,0-7.425H-1096.797z"/>
			</g>
		</g>
	</g>
</g>
</svg>
