<svg xmlns="http://www.w3.org/2000/svg" width="613.403" height="433.86" viewBox="0 0 613.403 433.86">
  <g id="Group_11023" data-name="Group 11023" transform="translate(-261.25 -100.135)">
    <g id="Group_10932" data-name="Group 10932" transform="translate(-61 -43.247)">
      <g id="Group_20" data-name="Group 20" transform="translate(322.25 353.931)">
        <g id="Group_18" data-name="Group 18" transform="translate(533.052)">
          <g id="Group_17" data-name="Group 17">
            <path id="Path_16" data-name="Path 16" d="M651.621,397.9H629.133c-3.057,0-5.767-2.909-6.714-7.2l-9.537-43.347c-.389-1.773.449-3.615,1.707-3.76a223.9,223.9,0,0,1,51.58-.006c1.256.146,2.092,1.989,1.7,3.76L658.335,390.7C657.39,394.991,654.68,397.9,651.621,397.9Z" transform="translate(-600.203 -179.454)" fill="#13a77a"/>
            <ellipse id="Ellipse_1" data-name="Ellipse 1" cx="25.344" cy="2.088" rx="25.344" ry="2.088" transform="translate(14.984 165.193)" fill="#2e3062"/>
            <path id="Path_17" data-name="Path 17" d="M682.127,364.193c-11.336-2.986-28.655,20.544-33.915,43.482V374.251c2.644-4.688,7.685-11.743,16.838-19.2,14.234-11.593,27.337-26.471,15.98-29.463-10.643-2.8-26.559,17.764-32.818,39.273v-42.92a45.412,45.412,0,0,1,9.64-10.494c8.971-7.307,17.229-16.682,10.072-18.568-6.211-1.636-15.272,9.358-19.712,21.759V300.73A66.049,66.049,0,0,1,652.83,284c6.6-14.56,10.162-29.56,1.463-28.445S639.941,282.6,644.7,302.507v7.159c-3.217-14.568-14.252-29.656-21.455-27.759-7.157,1.885,1.1,11.261,10.072,18.568,6.828,5.561,10.025,10.767,11.383,13.567v33.812C639.543,324.8,622.1,301,610.7,304c-11.356,2.992,1.746,17.869,15.98,29.461,10.757,8.761,15.836,16.97,18.018,21.436v40.545c-5.514-22.632-22.512-45.475-33.69-42.53-11.356,2.992-1.617,13.864,14.38,27.014a75.539,75.539,0,0,1,19.31,23.5v19.1a5.907,5.907,0,0,0,3.51,0v-7.6c2.225-4.5,7.309-12.617,17.935-21.271C680.381,382.06,693.484,367.184,682.127,364.193Z" transform="translate(-606.086 -255.494)" fill="#5cd9b3"/>
          </g>
        </g>
        <g id="Group_19" data-name="Group 19" transform="translate(0 100.173)">
          <path id="Path_18" data-name="Path 18" d="M384.842,425.267h4.336L373.137,383.6a52.383,52.383,0,0,1,6.027-15.287c6.626-11.578,11.629-25.089,3.146-24.153-7.362.813-12.558,16.4-12.2,31.583l-5.764-14.972c-.993-4.935-2.423-11.976-1.963-19.918,1.069-18.4-1.311-36.021-10.209-31.215s-4.239,35.052,9.131,54.5l2.965,7.7c-9.5-14.344-27.622-26.009-34.586-20.983-6.921,4.994,5.85,11.663,18.531,15.807,9.651,3.157,15.248,7.435,17.868,9.884l14.008,36.385c-15.1-22.672-43.732-41.052-54.75-33.1-10.981,7.923,9.283,18.5,29.4,25.081,15.2,4.971,24.071,11.7,28.268,15.6Z" transform="translate(-322.25 -308.833)" fill="#41d2a6"/>
        </g>
      </g>
      <g id="Group_66" data-name="Group 66" transform="translate(786.23 254.497)">
        <path id="Path_19" data-name="Path 19" d="M599.739,234.489s14.716,20.987,21.836,36.2c12.538,16.061,12.284,25.691,23.165,37.238l-5.916,5.463-21.887-29.895c-1.187-1.951-3.148-4.4-4.43-6.637L600.24,255.476Z" transform="translate(-542.586 -174.502)" fill="#fff"/>
        <g id="Group_21" data-name="Group 21" transform="translate(41.552 199.032)">
          <path id="Path_20" data-name="Path 20" d="M591.432,308.527c.024,7.3.128,13.894.3,19.9,1.309,45.833,6.4,66.839,8.75,91.815,2.648,1.164,6.03-.209,8.28-1.581l.4-86.7.366-23.43Z" transform="translate(-591.432 -308.527)" fill="#fda893"/>
          <path id="Path_21" data-name="Path 21" d="M591.432,308.527c.024,7.3.128,13.894.3,19.9a9.449,9.449,0,0,1,6.975-.049c4.885,1.76,6.179,3.568,10.457,3.583l.366-23.43Z" transform="translate(-591.432 -308.527)" fill="#fd896b"/>
        </g>
        <g id="Group_24" data-name="Group 24" transform="translate(48.82 306.529)">
          <g id="Group_23" data-name="Group 23">
            <g id="Group_22" data-name="Group 22">
              <path id="Path_22" data-name="Path 22" d="M603.46,368.048s1.668-2.348,3.035-2.28,12.085,8.213,15.708,8.825,2.982,3.285,2.351,4.656-28.8.122-28.8.122-.956-8.355-.094-10.936S600.651,368.714,603.46,368.048Z" transform="translate(-595.302 -365.766)" fill="#fff"/>
            </g>
          </g>
        </g>
        <path id="Path_23" data-name="Path 23" d="M576.34,306.653l.323,20.561,1.448,92.718,7.043.37c2.505-26.67,8.857-41.4,10.3-89.95.21-7.073.336-14.919.351-23.7Z" transform="translate(-563.131 -111.14)" fill="#fda893"/>
        <path id="Path_24" data-name="Path 24" d="M576.34,306.653l.323,20.561a20.3,20.3,0,0,1,8.034,1.14,29.985,29.985,0,0,0,10.754,2c.21-7.073.336-14.919.351-23.7Z" transform="translate(-563.131 -111.14)" fill="#fd896b"/>
        <g id="Group_25" data-name="Group 25" transform="translate(0.996 307.06)">
          <path id="Path_25" data-name="Path 25" d="M588.183,367.1a33.2,33.2,0,0,0-4.661-1.046c-1.014,0-7.948,7.465-10.243,7.869-4.162.732-4.289,7.206-1.773,7.576,7.281,1.069,19.824-1.779,19.824-1.779s1.307-8.286.856-10.9S590.208,367.9,588.183,367.1Z" transform="translate(-569.837 -366.049)" fill="#fff"/>
        </g>
        <g id="Group_26" data-name="Group 26" transform="translate(1.546 138.883)">
          <path id="Path_26" data-name="Path 26" d="M570.13,345.821a4.585,4.585,0,0,0,.349.845c.918,1.782,3.959,5.551,12.583,3.016.278-.081.547-.154.809-.216a12.647,12.647,0,0,1,4.6-.336c5.011.593,7.92,4.15,18.155.943,9.225-2.89,11.618-.338,15.907,1.054a15.125,15.125,0,0,0,2.823.637,9.851,9.851,0,0,0,1.523.073c4.019-.1,7.884-2.449,10.2-4.179a24.234,24.234,0,0,0,2.2-1.837c-.2-.826-.4-1.713-.6-2.65-.774-3.617-1.559-8-2.336-12.78q-.352-2.155-.7-4.41c-.56-3.636-1.11-7.414-1.636-11.2v0a.326.326,0,0,1-.009-.062q-.333-2.349-.644-4.686l-.03-.22c-.671-4.99-1.292-9.863-1.839-14.275-.207-1.686-.4-3.3-.59-4.83-1.012-8.408-1.645-14.207-1.645-14.207l-24.553,1-22.313-.913a22.935,22.935,0,0,0-2.071,7.542c-.177,1.48-.764,3.617-.98,5.412-.571,4.727-1.863,9.963-2.659,15.988q-.315,2.361-.64,4.778c-1.534,11.266-3.309,23.06-5.011,31.4C570.727,343.2,570.427,344.574,570.13,345.821Z" transform="translate(-570.13 -276.499)" fill="#2e3062"/>
        </g>
        <g id="Group_33" data-name="Group 33" transform="translate(8.134 56.499)">
          <g id="Group_30" data-name="Group 30">
            <g id="Group_28" data-name="Group 28">
              <g id="Group_27" data-name="Group 27">
                <path id="Path_27" data-name="Path 27" d="M623.637,277.34l5.133,50.823c-20.777,9.167-53.6,0-53.6,0l8.588-43.944-10.124-40.473,7.283-3.666,1.474-.744h0l3.2-1.611,2.331-1.172,7.781-3.921,13.99,1.814,4.845.625,4.3.554,1.669.216,2.141.278.547,22.854a27.011,27.011,0,0,1,2.826,10.139,10.514,10.514,0,0,1-2.165,6.795l0,0-.028.038c-.075.1-.145.188-.22.278l.024,1.039Z" transform="translate(-573.638 -232.632)" fill="#fff"/>
              </g>
            </g>
            <g id="Group_29" data-name="Group 29" transform="translate(14.292)">
              <path id="Path_28" data-name="Path 28" d="M603.018,234.446c-1.32,3.756-3.777,6.817-9.02,7.371a13.665,13.665,0,0,1-12.75-5.264l7.781-3.921Z" transform="translate(-581.248 -232.632)" fill="#fff"/>
            </g>
          </g>
          <g id="Group_32" data-name="Group 32" transform="translate(22.5 43.317)">
            <g id="Group_31" data-name="Group 31">
              <path id="Path_29" data-name="Path 29" d="M613.093,255.975l.024,1.039v.075a65.277,65.277,0,0,1-14.9,3.416,61.359,61.359,0,0,1-12.032.148.619.619,0,1,1,.107-1.234,63.339,63.339,0,0,0,27.017-3.722C613.237,255.793,613.168,255.885,613.093,255.975Z" transform="translate(-585.619 -255.697)" fill="#fff"/>
            </g>
          </g>
        </g>
        <g id="Group_49" data-name="Group 49" transform="translate(11.428)">
          <g id="Group_41" data-name="Group 41">
            <path id="Path_30" data-name="Path 30" d="M597.49,216.3s.505-10.707-6.006-12.763c-10.14-3.2-12.962,2.056-14.527,5.531-2.006,4.453-1.149,13.188,4.9,14.031C590.887,224.363,596.931,219.3,597.49,216.3Z" transform="translate(-574.869 -202.548)" fill="#18315b"/>
            <path id="Path_31" data-name="Path 31" d="M604.548,248.187a11.135,11.135,0,0,0,10.9-8.851c.777-3.715,1.536-7,1.536-8.851v-.047c.047-.584.073-1.168.077-1.743.069-8.447-5.138-23.877-23.457-21.425,0,0-15.2,1.735-16.93,16.589,0,0-.721,6.853-1.2,11.815l-.024.261a11.131,11.131,0,0,0,11.08,12.252Z" transform="translate(-575.392 -198.63)" fill="#18315b"/>
            <g id="Group_38" data-name="Group 38" transform="translate(32.92 31.17)">
              <path id="Path_32" data-name="Path 32" d="M594.7,220.8s2.618-3.315,4.564-.573-.806,10.838-5.568,8.861Z" transform="translate(-592.245 -219.145)" fill="#fd896b"/>
              <g id="Group_35" data-name="Group 35" transform="translate(2.083 2.902)">
                <g id="Group_34" data-name="Group 34">
                  <path id="Path_33" data-name="Path 33" d="M594.432,225.233a.4.4,0,0,0,.389-.28,6.1,6.1,0,0,1,3.491-3.523.377.377,0,0,0,.233-.492.411.411,0,0,0-.518-.223,6.794,6.794,0,0,0-3.981,4.032.379.379,0,0,0,.278.471A.372.372,0,0,0,594.432,225.233Z" transform="translate(-594.03 -220.69)" fill="#d65c48"/>
                </g>
              </g>
              <g id="Group_36" data-name="Group 36" transform="translate(3.497 4.405)">
                <path id="Path_34" data-name="Path 34" d="M596.522,223.272a.417.417,0,0,0,.218-.062.37.37,0,0,0,.12-.528,3.611,3.611,0,0,0-1.51-1.159.41.41,0,0,0-.531.193.374.374,0,0,0,.2.505,2.888,2.888,0,0,1,1.163.873A.406.406,0,0,0,596.522,223.272Z" transform="translate(-594.783 -221.49)" fill="#d65c48"/>
              </g>
              <g id="Group_37" data-name="Group 37" transform="translate(0 8.476)">
                <path id="Path_35" data-name="Path 35" d="M594.194,225.076a2.824,2.824,0,1,0,2.725-.881.514.514,0,0,1,.1-.537,3.4,3.4,0,1,1-3.343,1.185C593.849,224.922,594.021,225,594.194,225.076Z" transform="translate(-592.921 -223.658)" fill="#fff"/>
              </g>
            </g>
            <path id="Path_36" data-name="Path 36" d="M583.486,229.047v9.933s4.616,3.561,8.218,3.871,4.842-3.933,4.842-3.933v-9.244Z" transform="translate(-568.285 -179.281)" fill="#fda893"/>
            <path id="Path_37" data-name="Path 37" d="M583.486,229.565v3.963c2.417,2.682,6.706,3.632,13.058,2.695l0-6.029Z" transform="translate(-568.285 -178.826)" fill="#fd896b"/>
            <path id="Path_38" data-name="Path 38" d="M609.088,231.2c-.115.96-.25,1.934-.423,2.907-1.142,6.459-5.226,13.435-10.385,14.605-11.139,2.528-15.764-6.22-17.547-12.675-.2-.717.173-1.538.017-2.387a65.026,65.026,0,0,1-1.367-6.551c-.126-1.561-.216-3.1-.282-4.494a9.123,9.123,0,0,1,5.646-8.939c5.121-2.038,12.9-3.651,20.262.67a9.2,9.2,0,0,1,4.488,7.781A68.873,68.873,0,0,1,609.088,231.2Z" transform="translate(-572.143 -194.595)" fill="#fda893"/>
            <g id="Group_39" data-name="Group 39" transform="translate(22.158 34.458)">
              <path id="Path_39" data-name="Path 39" d="M587.851,228.04a.432.432,0,0,1-.071-.858l1.485-.25-2.047-5.452a.432.432,0,1,1,.809-.3l2.417,6.434-2.522.424A.476.476,0,0,1,587.851,228.04Z" transform="translate(-587.19 -220.895)" fill="#fd896b"/>
            </g>
            <path id="Path_40" data-name="Path 40" d="M590.38,221.666c0,.952.49,1.726,1.1,1.726s1.1-.774,1.1-1.726-.49-1.726-1.1-1.726S590.38,220.712,590.38,221.666Z" transform="translate(-562.232 -187.277)" fill="#18315b"/>
            <path id="Path_41" data-name="Path 41" d="M583.922,221.666c0,.952.49,1.726,1.1,1.726s1.1-.774,1.1-1.726-.49-1.726-1.1-1.726S583.922,220.712,583.922,221.666Z" transform="translate(-567.902 -187.277)" fill="#18315b"/>
            <path id="Path_42" data-name="Path 42" d="M595.209,218.636a21.076,21.076,0,0,0-4.565-.391c-.5.019-.9.4-.832.793l0,.011a.7.7,0,0,0,.794.5,23.978,23.978,0,0,1,6.26.392.818.818,0,0,0-.332-.684A2.637,2.637,0,0,0,595.209,218.636Z" transform="translate(-562.738 -188.773)" fill="#18315b"/>
            <path id="Path_43" data-name="Path 43" d="M584.06,218.772a21.04,21.04,0,0,1,4.56-.451c.5.009.905.381.843.781l0,.009a.7.7,0,0,1-.789.511,24.073,24.073,0,0,0-6.254.479.82.82,0,0,1,.323-.687A2.65,2.65,0,0,1,584.06,218.772Z" transform="translate(-569.229 -188.702)" fill="#18315b"/>
            <path id="Path_44" data-name="Path 44" d="M595.025,226.072a4.916,4.916,0,0,1-4.979,4.306c-3.6,0-4.609-2.55-4.956-4.306Z" transform="translate(-566.877 -181.893)" fill="#fff"/>
            <g id="Group_40" data-name="Group 40" transform="translate(20.949 49.727)">
              <path id="Path_45" data-name="Path 45" d="M588.82,230.393a4.219,4.219,0,0,0,1.989-.582.424.424,0,1,0-.445-.721h0a3.424,3.424,0,0,1-1.544.454,3.629,3.629,0,0,1-1.63-.456.423.423,0,1,0-.437.725A4.408,4.408,0,0,0,588.82,230.393Z" transform="translate(-586.547 -229.026)" fill="#fd896b"/>
            </g>
            <path id="Path_46" data-name="Path 46" d="M610.088,230.837c-.1.088-.2.056-.3-.113-1.471-2.594-.088-7.769-4.443-9.753a9.235,9.235,0,0,1-4.505-4.616,9.386,9.386,0,0,1-2.734,2.488,78.478,78.478,0,0,1-10.213,4.973,17.061,17.061,0,0,0-3.42,1.72l.092.026a7.8,7.8,0,0,0-.387,5.98c1.054,3.638-.3,9.64-2.642,11.024.041-.1,1.8-4.252.806-7.638-.573-1.942-.567-5.029-1.11-6.881-.6-.413-1.987-1.11-2.457-1.39-.133-1.593-.229-3.161-.3-4.581a9.29,9.29,0,0,1,5.953-9.114c5.4-2.075,13.593-3.719,21.359.684a9.336,9.336,0,0,1,4.733,7.933A68.165,68.165,0,0,1,610.088,230.837Z" transform="translate(-572.693 -195.246)" fill="#18315b"/>
          </g>
          <g id="Group_48" data-name="Group 48" transform="translate(2.776 30.808)">
            <path id="Path_47" data-name="Path 47" d="M582.466,220.946s-3.042-3.692-4.838-1.029.856,10.823,5.251,8.9Z" transform="translate(-576.703 -218.952)" fill="#fda893"/>
            <g id="Group_42" data-name="Group 42" transform="translate(0 7.937)">
              <path id="Path_48" data-name="Path 48" d="M582.756,225.242a2.809,2.809,0,0,1,.248,2.006,2.832,2.832,0,1,1-2.676-3.523.649.649,0,0,0,.03-.545,3.381,3.381,0,1,0,3.176,4.2,3.349,3.349,0,0,0-.218-2.239Z" transform="translate(-576.87 -223.178)" fill="#fff"/>
            </g>
            <g id="Group_44" data-name="Group 44" transform="translate(1.287 2.729)">
              <g id="Group_43" data-name="Group 43">
                <path id="Path_49" data-name="Path 49" d="M581.373,224.816a.371.371,0,0,1-.357-.27,5.746,5.746,0,0,0-3.221-3.422.371.371,0,0,1,.263-.695,6.4,6.4,0,0,1,3.673,3.916.369.369,0,0,1-.359.471Z" transform="translate(-577.555 -220.405)" fill="#fd896b"/>
              </g>
            </g>
            <g id="Group_47" data-name="Group 47" transform="translate(2.195 4.188)">
              <g id="Group_46" data-name="Group 46">
                <g id="Group_45" data-name="Group 45">
                  <path id="Path_50" data-name="Path 50" d="M578.411,222.912a.359.359,0,0,1-.2-.06.371.371,0,0,1-.113-.513,3.4,3.4,0,0,1,1.4-1.125.371.371,0,0,1,.3.678,2.693,2.693,0,0,0-1.072.849A.369.369,0,0,1,578.411,222.912Z" transform="translate(-578.039 -221.182)" fill="#fd896b"/>
                </g>
              </g>
            </g>
          </g>
        </g>
        <g id="Group_56" data-name="Group 56" transform="translate(0 71.896)">
          <path id="Path_51" data-name="Path 51" d="M666.195,272.672a50.153,50.153,0,0,1-64.02,65.44q-1.693-.623-3.341-1.367a50.179,50.179,0,0,1-13.238-8.718q-1.158-1.056-2.248-2.188a50,50,0,0,1-10.554-16.469q-.341-.868-.644-1.748a50.2,50.2,0,0,1,47.875-66.788q1.82.02,3.623.173a50.249,50.249,0,0,1,15.182,3.713q1.592.665,3.132,1.435a49.945,49.945,0,0,1,23.517,24.8C665.731,271.518,665.968,272.1,666.195,272.672Z" transform="translate(-569.307 -240.83)" fill="#ffce4f"/>
          <path id="Path_52" data-name="Path 52" d="M640.033,256.827,606.394,334.96a49.8,49.8,0,0,1-13.46.248l38.5-87.931A49.924,49.924,0,0,1,640.033,256.827Z" transform="translate(-548.561 -235.17)" fill="#fff" opacity="0.3"/>
          <path id="Path_53" data-name="Path 53" d="M617.082,241l-38.051,87.02q-1.158-1.056-2.248-2.188l36.676-85.005Q615.279,240.852,617.082,241Z" transform="translate(-562.742 -240.829)" fill="#fff" opacity="0.3"/>
          <path id="Path_54" data-name="Path 54" d="M628.156,244.336,588.37,336.294q-1.693-.623-3.341-1.367L625.024,242.9Q626.615,243.566,628.156,244.336Z" transform="translate(-555.502 -239.012)" fill="#fff" opacity="0.3"/>
          <path id="Path_55" data-name="Path 55" d="M652.108,271.641c.225.573.436,1.151.637,1.728a40.108,40.108,0,0,1-74.58,29.3c-.244-.56-.484-1.127-.71-1.7a40.1,40.1,0,1,1,74.654-29.331Z" transform="translate(-564.593 -236.116)" fill="#fa8a00"/>
          <path id="Path_56" data-name="Path 56" d="M652.116,271.768a40.156,40.156,0,0,1-23.3,50.264c-.449.177-.9.34-1.345.5a39.911,39.911,0,0,1-27-.146c-1.074-.391-2.128-.824-3.17-1.305a40.14,40.14,0,0,1-12.619-9.176,38.058,38.058,0,0,1-2.46-2.93,39.7,39.7,0,0,1-4.687-7.9,40.109,40.109,0,0,1,30.988-52.438,38.825,38.825,0,0,1,3.959-.5,40.054,40.054,0,0,1,15.749,1.983q1.62.544,3.2,1.23a39.991,39.991,0,0,1,19.349,17.71C651.258,269.935,651.7,270.842,652.116,271.768Z" transform="translate(-563.964 -234.514)" fill="#ffac00"/>
          <path id="Path_57" data-name="Path 57" d="M632.847,264.121l-23.306,53.473a39.85,39.85,0,0,1-13.725,2.278l28.864-66.225A39.846,39.846,0,0,1,632.847,264.121Z" transform="translate(-546.031 -229.577)" fill="#fff" opacity="0.2"/>
          <path id="Path_58" data-name="Path 58" d="M609.288,248.083l-27.8,63.769a38.058,38.058,0,0,1-2.46-2.93l26.3-60.341A38.825,38.825,0,0,1,609.288,248.083Z" transform="translate(-560.77 -234.462)" fill="#fff" opacity="0.2"/>
          <path id="Path_59" data-name="Path 59" d="M621.188,250.369l-30.959,71.036c-1.074-.391-2.128-.824-3.17-1.305l30.929-70.961Q619.607,249.683,621.188,250.369Z" transform="translate(-553.721 -233.535)" fill="#fff" opacity="0.2"/>
          <g id="Group_55" data-name="Group 55" transform="translate(29.394 21.039)">
            <g id="Group_53" data-name="Group 53" transform="translate(1.039 1.974)">
              <g id="Group_52" data-name="Group 52">
                <g id="Group_51" data-name="Group 51">
                  <g id="Group_50" data-name="Group 50">
                    <path id="Path_60" data-name="Path 60" d="M618.778,299.4l2.436,6.2-7.876,3.1-2.327-5.921c-5.719,1.859-11.732,2.481-15.9,1.732l.471-11.279a28.824,28.824,0,0,0,14.311-1.495c3.743-1.47,4.776-2.779,4.25-4.12-1.932-4.917-22,7.546-27.725-7.037-2.481-6.312.015-13.42,8.675-18.305l-2.394-6.09,7.878-3.095,2.349,5.978a31.367,31.367,0,0,1,12.615-1.215l-.214,11.112a25.921,25.921,0,0,0-12.036,1.375c-3.854,1.516-4.644,3.116-4.116,4.456,1.842,4.693,21.928-7.713,27.592,6.7C629.139,287.525,626.846,294.489,618.778,299.4Z" transform="translate(-585.511 -253.084)" fill="#fa8a00"/>
                  </g>
                </g>
              </g>
            </g>
            <g id="Group_54" data-name="Group 54">
              <path id="Path_61" data-name="Path 61" d="M618.223,298.351l2.438,6.2-7.878,3.095-2.327-5.923c-5.719,1.861-11.73,2.481-15.9,1.732l.472-11.278a28.824,28.824,0,0,0,14.311-1.495c3.743-1.472,4.776-2.781,4.25-4.122-1.932-4.915-22,7.546-27.724-7.035-2.481-6.314.015-13.422,8.673-18.307l-2.393-6.089,7.877-3.1,2.349,5.98a31.369,31.369,0,0,1,12.615-1.217l-.212,11.112a25.942,25.942,0,0,0-12.036,1.377c-3.856,1.514-4.646,3.114-4.119,4.455,1.844,4.693,21.93-7.713,27.592,6.7C628.586,286.474,626.291,293.44,618.223,298.351Z" transform="translate(-584.958 -252.033)" fill="#ffce4f"/>
            </g>
          </g>
        </g>
        <g id="Group_64" data-name="Group 64" transform="translate(3.427 67.054)">
          <g id="Group_62" data-name="Group 62">
            <g id="Group_61" data-name="Group 61">
              <g id="Group_60" data-name="Group 60">
                <g id="Group_59" data-name="Group 59">
                  <path id="Path_62" data-name="Path 62" d="M599.123,301.9c.86-1.424-2.385-2.994-3.5-4.68s-3.262-6.487-2.184-6.874a14.885,14.885,0,0,1,3.365-.494c.945-.1,2.179-1.194,1.495-1.75s-3.726-.74-5.14-.485c-.5.094-1.639.663-2.321.917a4.313,4.313,0,0,1-3.127.077c-.392-1.313-.792-2.776-1.138-3.557-1.35-.6-7.418.192-7.736,3.307a43.855,43.855,0,0,0,1.121,4.855c3.258,8.823,7.028,10.432,8.534,11.176a2.217,2.217,0,0,0,2.631-.7,1.98,1.98,0,0,0,2.235-.93c2.4.567,2.844-1.022,2.844-1.022S598.261,303.321,599.123,301.9Z" transform="translate(-564.366 -197.324)" fill="#fff"/>
                  <g id="Group_57" data-name="Group 57">
                    <path id="Path_63" data-name="Path 63" d="M587.751,249.323c-2.573,19.689-3.989,32.511-4.571,36.43-.03.2-.056.368-.081.52-.06.374-.1.567-.1.567l-2.975,1-.52.177-.011.006-7.009,2.363c-.111-.325-.212-.663-.308-1.012-3.722-13.3,3.657-50.566,3.657-50.566C583.589,235.33,587.751,249.323,587.751,249.323Z" transform="translate(-571.131 -238.252)" fill="#fff"/>
                  </g>
                  <g id="Group_58" data-name="Group 58" transform="translate(1.049 48.588)">
                    <path id="Path_64" data-name="Path 64" d="M593.65,304.6a15.9,15.9,0,0,1-8.538,3.647c-7.429-17.488-12.021-29.156-13.422-41.593l4.667-1.093,1.609-.379h.009l4.537-1.061s.051.161.15.46c.056.177.131.4.218.667.905,2.858,3.394,11.005,5.518,19.689C591.019,295.656,593.65,304.6,593.65,304.6Z" transform="translate(-571.69 -264.124)" fill="#fff"/>
                  </g>
                </g>
              </g>
            </g>
          </g>
          <g id="Group_63" data-name="Group 63" transform="translate(5.495 47.501)">
            <path id="Path_65" data-name="Path 65" d="M580.435,264.632s.051.161.15.46c-1.33.222-2.635.5-3.645.717l-.011.006c-1.132.254-1.9.451-1.927.454a.793.793,0,0,1-.186.026.757.757,0,0,1-.734-.573.762.762,0,0,1,.547-.924c.188-.047,3.029-.77,5.983-1.255-.03.2-.056.368-.081.52C580.47,264.439,580.435,264.632,580.435,264.632Z" transform="translate(-574.057 -263.545)" fill="#fff"/>
          </g>
        </g>
        <g id="Group_65" data-name="Group 65" transform="translate(90.758 125.945)">
          <path id="Path_66" data-name="Path 66" d="M622.222,276.444l1.951-.556s1.861-4.308.616-5.79a1.436,1.436,0,0,0-1.728-.344Z" transform="translate(-613.603 -269.61)" fill="#fd896b"/>
          <path id="Path_67" data-name="Path 67" d="M632.881,281.658a5.307,5.307,0,0,0,1.07-6.008,5.367,5.367,0,0,0-3.1-2.689c-4.943-1.855-9.486-1.763-9.833.428-.131.823,2.333,2.518,4.658,3.033a20.784,20.784,0,0,1-5.3-1.358c-2.573-1.085-3.559,2.37-.334,3.758a16,16,0,0,0,3.846,1.393,14.913,14.913,0,0,1-4.47-1.177c-1.471-.849-2.7,1.538.259,3.069,1.375.71,2.956,1.514,2.956,1.514s-2.188-.706-3.328-1.063-2.637.451-.813,2.122c1.433,1.315,5.552,4.6,7.82,3.054A66.582,66.582,0,0,0,632.881,281.658Z" transform="translate(-617.633 -267.818)" fill="#fda893"/>
        </g>
      </g>
      <g id="Group_71" data-name="Group 71" transform="translate(519.375 143.382)">
        <g id="Group_70" data-name="Group 70" transform="translate(3.652 96.797)">
          <g id="Group_67" data-name="Group 67" transform="translate(97.521 76.381)">
            <rect id="Rectangle_2" data-name="Rectangle 2" width="59.667" height="255.656" transform="translate(0)" fill="#fff" opacity="0.3"/>
            <path id="Path_68" data-name="Path 68" d="M481.086,350.228c21.141-6.528,40.96-18.234,59.667-30.818v98.249H481.086Z" transform="translate(-481.086 -162.002)" fill="#fff" opacity="0.5"/>
          </g>
          <g id="Group_68" data-name="Group 68" transform="translate(0 147.422)">
            <rect id="Rectangle_3" data-name="Rectangle 3" width="59.667" height="184.616" fill="#fff" opacity="0.2"/>
            <path id="Path_69" data-name="Path 69" d="M477.781,339a105.346,105.346,0,0,0,11.045,1.014V402.1H429.159V340.6C439.717,337.115,455.166,335.693,477.781,339Z" transform="translate(-429.158 -217.484)" fill="#fff" opacity="0.5"/>
          </g>
          <g id="Group_69" data-name="Group 69" transform="translate(195.043)">
            <rect id="Rectangle_4" data-name="Rectangle 4" width="59.667" height="332.037" fill="#fff" opacity="0.2"/>
            <path id="Path_70" data-name="Path 70" d="M592.679,291.819V441.885H533.014V317.3C554.219,302.9,573.983,291.742,592.679,291.819Z" transform="translate(-533.013 -109.847)" fill="#fff" opacity="0.5"/>
          </g>
        </g>
        <path id="Path_71" data-name="Path 71" d="M683.158,143.382,629.315,154.93l14.459,14.181-82.44,84.044L532.4,224.78,430.1,329.074a10.092,10.092,0,0,0,.137,14.273h0a10.094,10.094,0,0,0,14.275-.137l88.166-89.882L561.61,281.7l96.574-98.456,14.459,14.183Z" transform="translate(-427.214 -143.382)" fill="#fff" opacity="0.5"/>
      </g>
      <g id="Group_106" data-name="Group 106" transform="translate(363.765 316.129)">
        <g id="Group_72" data-name="Group 72" transform="translate(52.788 166.855)">
          <path id="Path_72" data-name="Path 72" d="M438.867,408.539h-53.3a9.9,9.9,0,0,1,9.9-9.9h.092s11.311-1.476,11.311-10.714V332.8h10.692v55.128c0,9.238,11.311,10.714,11.311,10.714h.092A9.9,9.9,0,0,1,438.867,408.539Z" transform="translate(-360.959 -316.673)" fill="#41d2a6"/>
          <path id="Path_73" data-name="Path 73" d="M407.6,332.8v2.193l-10.692,3.174V332.8Z" transform="translate(-350.999 -316.673)" fill="#41d2a6"/>
          <path id="Path_74" data-name="Path 74" d="M474.98,340.334H372.464a19.618,19.618,0,0,1,19.361-16.123l31.9.085,31.9-.085A19.618,19.618,0,0,1,474.98,340.334Z" transform="translate(-372.464 -324.211)" fill="#41d2a6"/>
        </g>
        <g id="Group_105" data-name="Group 105">
          <g id="Group_73" data-name="Group 73" transform="translate(27.264 62.422)">
            <path id="Path_75" data-name="Path 75" d="M419.98,269.214c-2.678,9.9-16.179,35.683-21.421,39.377-6.823,4.812-28.216,13.839-39.343,18.444-2.008.83,5.439,9.616,5.439,9.616s28.777-7.317,40.5-14.8c3.317-2.118,10.5-9.308,19.6-23.719,2.757-4.37,9.142-13.054,9.852-19.255C435.421,271.736,427.38,266.825,419.98,269.214Z" transform="translate(-358.873 -268.603)" fill="#ebebeb"/>
          </g>
          <g id="Group_100" data-name="Group 100" transform="translate(27.973)">
            <g id="Group_76" data-name="Group 76" transform="translate(0 140.188)">
              <g id="Group_75" data-name="Group 75" transform="translate(1.119 94.568)">
                <path id="Path_76" data-name="Path 76" d="M378.984,360.366l.37,10.771s-2.661,1.972-8.166.992l-2.248-11.582Z" transform="translate(-351.862 -360.366)" fill="#fda893"/>
                <g id="Group_74" data-name="Group 74" transform="translate(0 9.403)">
                  <path id="Path_77" data-name="Path 77" d="M381.668,367.647s-1.7-2.351-3.076-2.272-12.113,8.367-15.759,9.011-3.467,5.18-2.034,5.7c1.632.586,28.591.081,28.591.081s1.023-9.591.135-12.183S384.5,368.3,381.668,367.647Z" transform="translate(-359.846 -365.373)" fill="#fff"/>
                </g>
              </g>
              <path id="Path_78" data-name="Path 78" d="M415.643,312.8s-41.675-6.877-54.191.962c-9.49,5.944,14.769,93.034,14.769,93.034,4.353,1.358,10.359.719,13-.95,0,0,3.8-11.625.27-41.591-.47-3.983,0-13.069-4.242-29.156l31.724-14.006Z" transform="translate(-359.251 -310.011)" fill="#1d1a45"/>
              <path id="Path_79" data-name="Path 79" d="M367.179,358.768s.426,5.255,1.168,7.041c0,0,11.927,2.109,15.86-2.6l-.518-5.266S373.788,360.084,367.179,358.768Z" transform="translate(-352.289 -267.922)" fill="#2e3062"/>
            </g>
            <g id="Group_80" data-name="Group 80" transform="translate(48.989 49.31)">
              <path id="Path_80" data-name="Path 80" d="M429.845,262.506s11.55,3.771,17.723,9.191,1.01,21.6,1.161,30.783-1.365,62.514-14.523,69.215c-9.939,5.059-51.77-2.624-48.711-16.256a446.893,446.893,0,0,0,8.571-48.28c1.767-14.874,1.022-25.86,2.678-32.033s20.989-13.253,20.989-13.253Z" transform="translate(-385.336 -261.401)" fill="#fff"/>
              <g id="Group_79" data-name="Group 79" transform="translate(21.289 7.948)">
                <path id="Path_83" data-name="Path 83" d="M396.672,320.642l5.635,15.434L412.474,321.4l.82-46.954.018-2.269-2.692-.48-.486,3.041Z" transform="translate(-396.672 -260.718)" fill="#1fc690"/>
                <path id="Path_84" data-name="Path 84" d="M403.84,274.744l1.242,1.667L407,274.451l.018-2.269-2.692-.48Z" transform="translate(-390.377 -260.718)" fill="#ededed"/>
                <path id="Path_85" data-name="Path 85" d="M411.893,274.312l-5.382,5.324-3.792-5.444,4.639-8.339Z" transform="translate(-391.362 -265.853)" fill="#1fc690"/>
              </g>
              <path id="Path_86" data-name="Path 86" d="M412.651,261.795l1.581,1.215a15.77,15.77,0,0,1,1.255,1.061,3.384,3.384,0,0,1,1.215,3.822,4.415,4.415,0,0,1-.214.753h0l-3.628,14.746-7.837-14.461A9.239,9.239,0,0,0,412.651,261.795Z" transform="translate(-368.05 -261.468)" fill="#ebebeb"/>
              <path id="Path_87" data-name="Path 87" d="M404.187,261.621s-5.153,4.986-4.135,9.578l3.587,9.561,6.179-11.191A9.9,9.9,0,0,1,404.187,261.621Z" transform="translate(-372.532 -261.621)" fill="#ebebeb"/>
            </g>
            <g id="Group_96" data-name="Group 96" transform="translate(61.17)">
              <path id="Path_88" data-name="Path 88" d="M394.839,258.234a17.042,17.042,0,1,0,13.815-19.747A17.044,17.044,0,0,0,394.839,258.234Z" transform="translate(-389.404 -232.856)" fill="#1d1a45"/>
              <path id="Path_89" data-name="Path 89" d="M397,257.685s-4.984-.471-5.174-5.195c-.16-4.021,4.9-2.289,3.953-5.287s-2.342-5.627,1.493-7.1c3.352-1.285,3.831,1.084,7.781-3.174,4.665-5.029,10.472,3.683,15.328,3.116,7.163-.836,8.767,3.016,10.032,6.1s-1.069,5.816-1.069,5.816Z" transform="translate(-391.822 -235.365)" fill="#1d1a45"/>
              <g id="Group_84" data-name="Group 84" transform="translate(4.053 28.269)">
                <path id="Path_90" data-name="Path 90" d="M399.011,251.726s-3.285-3.076-4.742.2,2.866,11.443,7.332,8.476Z" transform="translate(-393.98 -250.417)" fill="#fd896b"/>
                <g id="Group_81" data-name="Group 81" transform="translate(1.094 3.307)">
                  <path id="Path_91" data-name="Path 91" d="M399.559,256.371a.417.417,0,0,1-.445-.229A6.418,6.418,0,0,0,394.9,253a.416.416,0,0,1,.154-.817,7.151,7.151,0,0,1,4.806,3.6.415.415,0,0,1-.193.554A.462.462,0,0,1,399.559,256.371Z" transform="translate(-394.563 -252.178)" fill="#d65c48"/>
                </g>
                <g id="Group_83" data-name="Group 83" transform="translate(2.57 4.497)">
                  <g id="Group_82" data-name="Group 82">
                    <path id="Path_92" data-name="Path 92" d="M395.837,254.963a.417.417,0,0,1-.456-.571,3.818,3.818,0,0,1,1.316-1.508.415.415,0,0,1,.466.687,3.025,3.025,0,0,0-1.016,1.144A.415.415,0,0,1,395.837,254.963Z" transform="translate(-395.349 -252.812)" fill="#d65c48"/>
                  </g>
                </g>
              </g>
              <path id="Path_93" data-name="Path 93" d="M414.287,257.926l1.521,8.609s-1.555,5.627-6.6,6.282c-3.433.447-5.946-3.78-5.946-3.78l-1.463-8.278Z" transform="translate(-383.058 -215.556)" fill="#fda893"/>
              <path id="Path_94" data-name="Path 94" d="M414.287,257.926l.674,3.82c-1.872,3-5.9,4.376-12.177,4.552l-.98-5.54Z" transform="translate(-383.058 -215.556)" fill="#fd896b"/>
              <path id="Path_95" data-name="Path 95" d="M425.736,249.217a85.313,85.313,0,0,1,.806,11.071c-.013.864-.054,1.681-.13,2.419-.691,6.663-3.3,18.343-16.786,16.053-5.957-1.009-9.657-6.791-11.937-12.932a62.261,62.261,0,0,1-2.928-11.629,9.125,9.125,0,0,1,3.208-8.455c6.738-5.568,14.919-5.382,20.474-4.3A9.1,9.1,0,0,1,425.736,249.217Z" transform="translate(-389.338 -230.559)" fill="#fda893"/>
              <path id="Path_96" data-name="Path 96" d="M401.169,251.808c.161.918-.18,1.747-.764,1.85s-1.189-.558-1.352-1.476.18-1.748.764-1.852S401.006,250.888,401.169,251.808Z" transform="translate(-385.508 -222.235)" fill="#1d1a45"/>
              <path id="Path_97" data-name="Path 97" d="M407.765,250.642c.161.918-.18,1.747-.764,1.85s-1.189-.558-1.352-1.476.18-1.748.764-1.852S407.6,249.722,407.765,250.642Z" transform="translate(-379.717 -223.258)" fill="#1d1a45"/>
              <path id="Path_98" data-name="Path 98" d="M397.3,249.671s4.1-2.518,7.747-1.653l-.006,1.624a14.526,14.526,0,0,0-7.176,1.8C397.513,250.762,397.147,250.47,397.3,249.671Z" transform="translate(-387.043 -224.414)" fill="#1d1a45"/>
              <path id="Path_99" data-name="Path 99" d="M411.681,247.023s-4.712-.963-7.843,1.1l.561,1.523a14.523,14.523,0,0,1,7.358-.764C411.855,248.12,412.1,247.718,411.681,247.023Z" transform="translate(-381.272 -225.326)" fill="#1d1a45"/>
              <g id="Group_87" data-name="Group 87" transform="translate(20.091 27.224)">
                <g id="Group_86" data-name="Group 86">
                  <g id="Group_85" data-name="Group 85">
                    <path id="Path_100" data-name="Path 100" d="M405.108,257.72a4.459,4.459,0,0,0,1.425-.573.415.415,0,0,0-.443-.7c-.344.214-1.189.607-1.613.445a.454.454,0,0,1-.269-.346,62.744,62.744,0,0,1-.86-6.308.415.415,0,0,0-.826.077,61.111,61.111,0,0,0,.888,6.459,1.266,1.266,0,0,0,.77.894A1.742,1.742,0,0,0,405.108,257.72Z" transform="translate(-402.52 -249.861)" fill="#fd896b"/>
                  </g>
                </g>
              </g>
              <path id="Path_101" data-name="Path 101" d="M401.394,256.719c.631,1.623,2.289,4.52,6.03,3.857s4.3-3.675,4.321-5.689Z" transform="translate(-383.418 -218.223)" fill="#fff"/>
              <g id="Group_88" data-name="Group 88" transform="translate(22.055 42.859)">
                <path id="Path_102" data-name="Path 102" d="M405.844,259.825a4.362,4.362,0,0,0,1.895-.911.415.415,0,0,0-.547-.625,3.509,3.509,0,0,1-1.493.717,3.334,3.334,0,0,1-1.564-.175.416.416,0,0,0-.308.772A4.15,4.15,0,0,0,405.844,259.825Z" transform="translate(-403.566 -258.186)" fill="#fd896b"/>
              </g>
              <path id="Path_103" data-name="Path 103" d="M398.484,262.938a17.4,17.4,0,0,1-1.271-4.909c.049-2.045,1.478-3.5.6-5.3s.768-4.216,2.192-4.819,5.013-.479,8.136-2.7c2.979-2.122,8.831-2.015,10.123-.09,1.561,2.331.086,2.838,3.613,5.035,1.4.875.466,3.959.586,5.835a12.466,12.466,0,0,0,.312,2.182l.094.46,3.642-.644c-.1-2.924-.43-6.113-.77-8.769a9.1,9.1,0,0,0-7.292-7.773c-5.555-1.08-13.734-1.268-20.476,4.3a9.126,9.126,0,0,0-3.206,8.451,66.4,66.4,0,0,0,2.053,9.035Z" transform="translate(-389.338 -230.559)" fill="#1d1a45"/>
              <g id="Group_95" data-name="Group 95" transform="translate(35.553 22.569)">
                <path id="Path_104" data-name="Path 104" d="M411.033,254.1a15.321,15.321,0,0,1-.28-2.883c0-1.324.165-2.552,1.384-3.32a2.278,2.278,0,0,1,3.121.224c2.494,2.582,1.9,12.093-3.309,10.834Z" transform="translate(-410.753 -247.382)" fill="#fda893"/>
                <g id="Group_91" data-name="Group 91" transform="translate(1.07 2.724)">
                  <g id="Group_90" data-name="Group 90">
                    <g id="Group_89" data-name="Group 89">
                      <path id="Path_105" data-name="Path 105" d="M411.917,254.856a.413.413,0,0,0,.261-.426,6.426,6.426,0,0,1,1.966-4.873.415.415,0,0,0-.558-.616,7.153,7.153,0,0,0-2.235,5.57.414.414,0,0,0,.454.372A.367.367,0,0,0,411.917,254.856Z" transform="translate(-411.323 -248.833)" fill="#fd896b"/>
                    </g>
                  </g>
                </g>
                <g id="Group_94" data-name="Group 94" transform="translate(1.558 5.115)">
                  <g id="Group_93" data-name="Group 93">
                    <g id="Group_92" data-name="Group 92">
                      <path id="Path_106" data-name="Path 106" d="M413.835,251.434a.416.416,0,0,0,.092-.723,3.788,3.788,0,0,0-1.908-.6.416.416,0,1,0-.041.83,3.016,3.016,0,0,1,1.463.447A.415.415,0,0,0,413.835,251.434Z" transform="translate(-411.583 -250.106)" fill="#fd896b"/>
                    </g>
                  </g>
                </g>
              </g>
            </g>
            <g id="Group_99" data-name="Group 99" transform="translate(19.65 142.2)">
              <g id="Group_98" data-name="Group 98" transform="translate(4.519 92.555)">
                <path id="Path_107" data-name="Path 107" d="M391.414,360.366l.9,12.034a24.348,24.348,0,0,1-8.692-.272l-2.248-11.582Z" transform="translate(-363.999 -360.366)" fill="#fda893"/>
                <g id="Group_97" data-name="Group 97" transform="translate(0 9.403)">
                  <path id="Path_108" data-name="Path 108" d="M393.941,367.647s-1.7-2.351-3.076-2.272-12.111,8.367-15.759,9.011-3.465,5.18-2.032,5.7c1.63.586,28.589.081,28.589.081s1.025-9.591.137-12.183S396.776,368.3,393.941,367.647Z" transform="translate(-372.12 -365.373)" fill="#fff"/>
                </g>
              </g>
              <path id="Path_109" data-name="Path 109" d="M456.742,312.862s-72.276-3.976-84.68-.039c-10.673,3.386,18.5,93.712,18.5,93.712,4.353,1.358,10.4-.531,12.765-2.9,0,0,2.22-5.392-1.313-35.358-.47-3.983-.965-16.4-5.208-32.486l47.944.242c10.271,0,13.52-8.663,12.44-18.876Z" transform="translate(-369.714 -311.083)" fill="#2e3062"/>
              <path id="Path_110" data-name="Path 110" d="M379.66,361.421a24.7,24.7,0,0,0,1.454,5.535s8.776,1.527,15.25-3.232l-.539-5.4S386.982,361.351,379.66,361.421Z" transform="translate(-360.981 -269.604)" fill="#524e86"/>
            </g>
          </g>
          <g id="Group_103" data-name="Group 103" transform="translate(39.799 57.708)">
            <path id="Path_111" data-name="Path 111" d="M390.772,300.231s-10.881,1.841-15.419,5.628-10.624,7.05-9.715,9.011,7.313-2.2,7.313-2.2,1.525,3.531,6.77,5.065,16.463-7.484,16.463-7.484Z" transform="translate(-365.548 -236.119)" fill="#fda893"/>
            <g id="Group_102" data-name="Group 102" transform="translate(24.974)">
              <g id="Group_101" data-name="Group 101">
                <path id="Path_112" data-name="Path 112" d="M450.811,266.093c-6.07,9.2-29.3,41.007-34.541,44.7-6.823,4.812-25.911,14.808-37.039,19.411-2.008.832,4.46,10.292,4.46,10.292s27.451-8.96,39.174-16.444c3.317-2.118,17.111-15.935,25.9-28.191,3.014-4.2,7.914-10.029,8.624-16.232C458.208,272.493,455.966,268.673,450.811,266.093Z" transform="translate(-378.845 -266.093)" fill="#ebebeb"/>
              </g>
            </g>
          </g>
          <g id="Group_104" data-name="Group 104" transform="translate(0 92.792)">
            <rect id="Rectangle_5" data-name="Rectangle 5" width="60.4" height="7.871" rx="1.15" transform="translate(22.589 43.277)" fill="#fff"/>
            <path id="Path_113" data-name="Path 113" d="M356.785,335.921,344.5,289.9a4.072,4.072,0,0,1,3.934-5.121h27.042a4.073,4.073,0,0,1,3.921,2.969l13.533,48.177Z" transform="translate(-344.356 -284.773)" fill="#fff"/>
            <path id="Path_114" data-name="Path 114" d="M364.846,287.747l13.42,47.779h3.089l-13.42-47.779a4.075,4.075,0,0,0-3.921-2.973h-3.089A4.077,4.077,0,0,1,364.846,287.747Z" transform="translate(-329.807 -284.774)" fill="#fff" opacity="0.6"/>
            <path id="Path_115" data-name="Path 115" d="M364.518,302.059a4.229,4.229,0,0,1-4.224,5.5,7.336,7.336,0,0,1-6.768-5.5,4.23,4.23,0,0,1,4.224-5.5A7.338,7.338,0,0,1,364.518,302.059Z" transform="translate(-336.433 -274.424)" fill="#1ec38b"/>
          </g>
        </g>
      </g>
    </g>
  </g>
</svg>
