<svg width="187" height="185" viewBox="0 0 187 185" fill="none" xmlns="http://www.w3.org/2000/svg">
<g filter="url(#filter0_d_163_487)">
<ellipse cx="93.7784" cy="87.4851" rx="58.7784" ry="57.6028" fill="white"/>
<path d="M93.7783 26.8579C127.853 26.8579 155.581 53.9443 155.581 87.4849C155.581 121.026 127.853 148.112 93.7783 148.112C59.7036 148.112 31.9756 121.026 31.9756 87.4849C31.9757 53.9443 59.7037 26.8579 93.7783 26.8579Z" stroke="#7235EE" stroke-width="6.04847"/>
</g>
<path d="M89.2215 119.258C88.5366 119.046 88.8386 117.279 88.7905 116.66L68.4375 116.667C67.3774 116.633 66.552 115.858 66.1191 114.946V60.9756C66.2711 60.4814 67.0272 59.6718 67.5082 59.4795C69.3667 58.7295 79.4172 59.7103 79.8424 59.2603C79.8924 59.2064 79.8232 58.243 79.9713 57.8046C80.7717 55.4297 84.0712 56.7873 85.7103 56.3892C85.9566 56.3296 86.7743 53.5605 89.5062 53.4663C92.7769 53.3548 92.9808 56.02 93.885 56.3277C95.0182 56.7123 96.8325 56.0354 98.235 56.595C99.9434 57.2757 99.3355 59.1276 99.4625 59.2622C99.8954 59.7179 110.117 58.6391 111.981 59.5853C112.537 59.8679 113.361 60.7314 113.332 61.4083L113.317 88.9705C113.828 88.7917 115.337 89.1724 115.337 89.6916V103.105H122.118C122.228 103.105 123.129 103.76 123.129 103.826V118.825C123.129 118.856 122.726 119.258 122.696 119.258H89.2215ZM97.7348 58.1065H92.9731C92.2728 58.1065 91.738 55.1912 89.7987 55.2047C87.4996 55.2201 87.64 57.6488 86.276 58.0469C85.4852 58.2776 81.5739 57.7584 81.5739 58.5391V63.0101H97.7348V58.1065ZM79.8424 60.991H68.4432C68.3932 60.991 67.9334 61.4352 67.8699 61.5717V114.348C67.9334 114.485 68.3932 114.929 68.4432 114.929H88.7886V112.91H71.6177C71.4984 112.91 70.0709 111.514 70.3037 111.05V65.1562C69.9612 64.4274 71.4407 63.0101 71.9063 63.0101H79.8424V60.991ZM111.587 61.2794C111.304 61.3736 110.962 60.991 110.866 60.991H99.4663V63.0101H107.402C107.603 63.0101 108.99 64.1774 108.99 64.3081V88.9705H111.587V61.2794ZM107.258 64.7408H72.0506V111.181H88.7886V103.826C88.7886 103.795 89.1907 103.393 89.2215 103.393H96.5804V89.6916C96.5804 89.6397 97.25 88.9705 97.3019 88.9705H107.258V64.7408ZM102.641 90.7012H98.312V102.96C98.312 102.991 98.7141 103.393 98.7449 103.393H113.174C113.205 103.393 113.607 102.991 113.607 102.96V90.7012H109.278V95.7491C109.278 95.7798 108.876 96.1817 108.845 96.1817H103.074C103.043 96.1817 102.641 95.7798 102.641 95.7491V90.7012ZM107.549 90.6993H104.37V94.453H107.549V90.6993ZM93.9832 105.124H90.5201V117.527H104.949V105.124H100.621V110.172C100.621 110.202 100.219 110.604 100.188 110.604H94.416C94.3853 110.604 93.9832 110.202 93.9832 110.172V105.124ZM98.8911 105.122H95.7128V108.875H98.8911V105.122ZM111.01 105.124H106.97V117.527H121.399V105.124H117.647V110.172C117.647 110.202 117.245 110.604 117.214 110.604H111.443C111.412 110.604 111.01 110.202 111.01 110.172V105.124ZM115.918 105.122H112.739V108.875H115.918V105.122Z" fill="#040404"/>
<path d="M74.3594 69.4993C74.4748 69.1243 75.0154 69.0916 75.354 69.0513C76.2679 68.9436 83.4614 68.9109 83.8269 69.1282C83.9886 69.2243 84.0636 69.8666 84.3214 69.9339C84.6311 70.0147 86.6397 68.0417 86.7898 69.7916C86.9129 71.2089 84.4811 71.6627 84.2194 72.43C83.7769 73.7261 84.7427 77.8432 83.7673 78.6124C82.9766 79.2354 75.8196 78.8739 74.3594 78.5835V69.4974V69.4993ZM82.4398 70.7973H76.0909L76.0947 72.8165C77.4857 71.1646 78.6093 73.7088 79.3596 73.6415C79.7483 73.6068 83.0362 71.3819 82.4398 70.7973ZM76.0909 73.1049V77.1432H82.4398V73.9722C81.2758 73.9337 80.2562 75.8164 79.1884 75.6644C78.8536 75.6164 77.1567 74.2991 76.8047 73.978C76.4526 73.6568 76.5315 73.0876 76.0909 73.1069V73.1049Z" fill="#050506"/>
<path d="M74.3594 81.4708C74.6095 81.0804 82.89 81.0035 83.5903 81.3304C83.7269 81.3939 84.1713 81.8535 84.1713 81.9035V90.5569C84.1713 90.5877 83.7692 90.9896 83.7384 90.9896H74.7923C74.7615 90.9896 74.3594 90.5877 74.3594 90.5569V81.4708ZM82.4398 89.2589V83.3457C82.4398 83.3149 82.0377 82.913 82.0069 82.913H76.0909V89.2589H82.4398Z" fill="#070808"/>
<path d="M74.3594 103.103V94.0167C74.3594 93.9859 74.7615 93.584 74.7923 93.584H83.7384C83.7692 93.584 84.1713 93.9859 84.1713 94.0167V102.67C84.1713 102.72 83.7269 103.18 83.5903 103.243C83.0093 103.514 74.3594 103.566 74.3594 103.103ZM82.4398 95.3147H76.0909V101.661H82.4398V95.3147Z" fill="#060707"/>
<path d="M103.361 71.0874C104.023 71.2912 104.263 72.597 102.761 72.7873C99.6518 73.1796 91.8022 73.145 88.6258 72.8354C86.5557 72.6335 86.9232 71.0874 87.4888 71.0874H103.361Z" fill="#060707"/>
<path d="M87.4905 76.567C86.4401 76.2728 87.1154 74.9671 88.6276 74.819C91.804 74.5094 99.6535 74.4729 102.763 74.8671C104.583 75.0978 103.653 76.567 103.363 76.567H87.4905Z" fill="#0A0A0A"/>
<path d="M86.6253 97.9122C85.4401 97.7103 85.6922 95.8931 86.6253 95.8931H94.9943C95.8331 95.8931 95.8331 97.9122 94.9943 97.9122C92.6837 97.9122 88.6838 98.2622 86.6253 97.9122Z" fill="#202020"/>
<path d="M96.0039 84.6433H86.3362C86.0611 84.6433 85.2126 83.2491 86.6902 82.9914C87.833 82.7934 94.6071 82.7049 95.5094 82.9703C96.4117 83.2357 96.2521 83.9318 96.0019 84.6433H96.0039Z" fill="#0A0A0A"/>
<path d="M96.0028 86.9512C96.3568 87.1877 96.326 88.3819 95.5102 88.6242C94.6079 88.8896 87.8338 88.8011 86.691 88.603C85.2115 88.3473 86.0619 86.9512 86.337 86.9512C87.628 86.9512 95.6026 86.682 96.0047 86.9512H96.0028Z" fill="#0A0A0A"/>
<path d="M86.3363 99.9307H94.9939C95.0459 99.9307 95.6635 100.538 95.6904 100.692C95.7808 100.988 95.067 101.661 94.9939 101.661H86.3363C85.863 101.661 85.6418 100.211 86.3363 99.9307Z" fill="#040404"/>
<defs>
<filter id="filter0_d_163_487" x="0.73756" y="0.322641" width="186.082" height="183.729" filterUnits="userSpaceOnUse" color-interpolation-filters="sRGB">
<feFlood flood-opacity="0" result="BackgroundImageFix"/>
<feColorMatrix in="SourceAlpha" type="matrix" values="0 0 0 0 0 0 0 0 0 0 0 0 0 0 0 0 0 0 127 0" result="hardAlpha"/>
<feOffset dy="4.70227"/>
<feGaussianBlur stdDeviation="14.1068"/>
<feComposite in2="hardAlpha" operator="out"/>
<feColorMatrix type="matrix" values="0 0 0 0 0.447059 0 0 0 0 0.207843 0 0 0 0 0.933333 0 0 0 0.6 0"/>
<feBlend mode="normal" in2="BackgroundImageFix" result="effect1_dropShadow_163_487"/>
<feBlend mode="normal" in="SourceGraphic" in2="effect1_dropShadow_163_487" result="shape"/>
</filter>
</defs>
</svg>
