<svg width="128" height="108" viewBox="0 0 128 108" fill="none" xmlns="http://www.w3.org/2000/svg">
<path d="M51.7225 12.7193L51.7916 12.8732C63.5305 9.39485 75.8155 7.9854 88.0312 8.55495L88.0555 8.38737C83.5578 7.27998 78.9009 6.65284 74.2774 6.65284C66.3902 6.65284 58.59 8.45937 51.7225 12.7193ZM112.377 16.9461L112.377 16.9463C115.594 19.5489 118.372 22.6493 120.692 26.0714L120.876 26.3426L120.847 26.0162C120.6 23.2051 119.999 20.57 118.778 18.1821L118.768 18.1635L118.751 18.1514C115.428 15.8032 111.681 14.4968 107.819 13.4953L107.752 13.6499C107.982 13.7928 108.211 13.9355 108.439 14.0783C109.809 14.9507 111.111 15.9133 112.377 16.9461ZM122.196 21.403C122.875 24.0835 123.157 26.8843 122.923 29.6341H122.855L122.925 29.7604C123.171 30.205 123.417 30.6702 123.647 31.1152C124.297 32.4322 124.859 33.7681 125.351 35.1414L125.457 35.4387L125.515 35.1281C126.4 30.3224 125.461 25.1369 122.344 21.3283L122.196 21.403ZM54.7828 4.83308L54.7828 4.83354C42.4619 6.48722 31.0949 10.4192 22.3788 17.2919C13.6599 24.1668 7.59829 33.9808 5.88724 47.3863L6.04776 47.435C13.5558 32.3715 27.8735 22.0263 43.0792 15.9246L43.0899 15.9203L43.0991 15.9134C50.2424 10.4731 58.5076 6.17858 67.4002 4.85894C81.5768 3.51201 95.5329 7.78793 109.087 11.9406C111.325 12.6264 113.553 13.3089 115.768 13.9621L115.851 13.8193C106.581 4.88668 94.243 2.36863 81.6207 2.36863C72.8582 2.36863 63.9684 3.58074 55.8513 4.68749C55.4936 4.73627 55.1374 4.78483 54.7828 4.83308ZM6.82695 76.545L6.96521 76.4513C4.78455 71.3546 3.51903 65.8633 3.13172 60.3203L2.96575 60.3006C1.12564 66.1151 2.64728 72.3808 6.82695 76.545ZM26.1893 84.7316H26.1915H26.2612H26.418L26.3325 84.6002C13.29 64.5355 20.2642 36.6718 37.1162 21.1043L37.0185 20.9668C29.9068 24.7542 22.1262 29.9418 16.0322 36.3589C9.93827 42.7759 5.52537 50.4284 5.16351 59.1436L5.16294 59.1436L5.16368 59.1535C5.71839 66.591 6.82875 72.8835 9.87666 77.368C12.9302 81.8607 17.918 84.5252 26.1893 84.7316ZM29.2204 84.8575C30.3524 84.8743 31.4508 84.8745 32.5493 84.8236L32.5497 84.8388L32.5499 84.8388H32.55H32.5503L32.551 84.8388L32.5524 84.8388L32.5543 84.8387C32.5544 84.8387 32.5546 84.8386 32.5547 84.8386L32.5557 84.8386C32.556 84.8386 32.5563 84.8386 32.5565 84.8385C45.1143 84.1582 66.5262 77.6799 85.1171 67.7956C94.4141 62.8526 103.01 57.0554 109.443 50.7012C115.875 44.3479 120.153 37.4299 120.794 30.2457L120.796 30.2208L120.785 30.1987C112.856 15.0353 98.25 10.2616 82.7675 10.2616C71.3596 10.2616 59.4611 12.8536 49.4173 15.8356L49.4212 15.8625L49.4115 15.8382C37.096 20.7961 27.9617 32.574 23.9401 45.8375C19.9212 59.092 21.0032 73.8467 29.1366 84.7819V84.8563L29.2204 84.8575ZM32.5497 84.8236C32.5497 84.8236 32.5497 84.8236 32.5497 84.8236ZM33.513 86.8995L33.5034 87.0678C36.5411 87.655 39.6333 87.7997 42.7227 87.6434L42.7258 87.6572C57.7032 85.5671 75.2258 81.3065 90.4621 73.672C105.698 66.0377 118.656 55.025 124.488 39.4267L124.498 39.4011L124.491 39.3747C124.277 38.5874 124.049 37.8191 123.855 37.1758L123.855 37.1758L123.854 37.1722C123.447 36.0106 123.007 34.8485 122.53 33.7218L122.427 33.4788L122.369 33.7362C120.784 40.7215 116.078 47.4123 109.491 53.5531C102.905 59.6931 94.4444 65.2775 85.3632 70.0506C67.1993 79.5976 46.5671 85.8917 33.513 86.8995ZM57.7264 105.676L57.7259 105.67C74.0647 104.993 92.304 98.9481 105.796 88.3441C119.335 77.7038 128.1 62.4673 125.355 43.458L125.31 43.1474L125.192 43.4381C119.392 57.7107 104.378 69.4037 87.207 77.4582C70.0382 85.5116 50.7326 89.9181 36.3745 89.6318L36.3437 89.7967C46.5495 93.5134 57.3707 90.9839 67.5241 88.6105C68.2293 88.4456 68.9312 88.2816 69.6295 88.1204L69.6314 88.1199C80.4726 85.3435 91.2482 82.3573 102.026 79.3706C104.908 78.572 107.79 77.7733 110.673 76.9786C110.997 76.8912 111.269 76.9548 111.478 77.1011C111.688 77.2487 111.839 77.4843 111.907 77.7458C111.975 78.0072 111.96 78.2882 111.847 78.5246C111.735 78.7581 111.526 78.9535 111.195 79.0458C105.61 80.0603 98.7817 82.1429 91.3992 84.4239C91.0934 84.5184 90.7867 84.6132 90.4791 84.7083C83.3554 86.9104 75.7455 89.2627 68.2489 91.0025C60.4281 92.8175 52.736 93.9645 45.8533 93.5799C38.9711 93.1953 32.9051 91.2798 28.3272 86.9768L28.3035 86.9545L28.2711 86.9537C23.3301 86.828 18.3752 85.9363 13.8432 83.9087L13.596 83.7981L13.7355 84.0302C22.9654 99.3804 40.3664 107.196 57.7264 105.676ZM43.8195 107.008L43.8186 107.008C29.0204 104.869 17.1146 94.5167 9.74427 81.7117L9.73398 81.6938L9.71664 81.6826C4.94079 78.6027 1.13591 73.7645 0.260689 68.0093C-0.47569 63.0527 1.2252 58 3.12537 53.4478L3.13107 53.4341L3.13182 53.4193C3.99341 36.4222 12.1395 18.923 27.5506 10.9592C39.307 5.64198 58.5026 0.591554 76.773 0.120798C95.0509 -0.350151 112.366 3.7625 120.407 16.7293L120.417 16.7452L120.433 16.7555C127.735 21.5661 129.339 31.447 126.688 39.4245L126.68 39.4468L126.685 39.4697C131.274 60.2333 122.569 77.318 108.081 89.2195C93.5901 101.123 73.3183 107.836 54.7976 107.846C51.0503 107.846 47.3745 107.56 43.8195 107.008Z" stroke="#222222" stroke-opacity="0.93" stroke-width="0.170143"/>
</svg>
