<svg width="269" height="169" viewBox="0 0 269 169" fill="none" xmlns="http://www.w3.org/2000/svg">
<g filter="url(#filter0_d_2065_193)">
<path d="M121.243 148.454C121.243 148.454 121.239 148.449 121.238 148.444C119.85 141.231 118.463 134.014 117.002 126.817C117.021 126.787 117.03 126.747 117.022 126.702C116.173 122.202 115.246 117.696 114.284 113.219C114.288 113.194 114.29 113.166 114.282 113.137C113.789 110.973 113.3 108.806 112.805 106.64C113.999 102.403 115.191 98.1652 116.386 93.9277C117.566 89.7329 118.798 85.5247 119.602 81.2299C119.617 81.1449 119.57 81.0835 119.509 81.0572C119.515 80.9873 119.485 80.9132 119.398 80.8899C117.656 80.3874 115.83 80.3751 114.086 79.8578C114.227 78.2849 114.36 76.7097 114.472 75.1349C114.481 74.9976 114.338 74.9704 114.253 75.0344C111.274 74.1021 108.224 73.6571 105.146 73.2551C104.942 72.3742 104.74 71.4933 104.536 70.6124C104.274 69.4934 104.01 68.3744 103.743 67.258C103.539 66.3996 103.439 65.3722 102.999 64.598C102.271 63.306 100.79 63.7356 99.7149 64.2597C99.6372 63.7029 99.5547 63.1462 99.4577 62.5923C99.4576 62.5873 99.4552 62.5849 99.4527 62.5799C99.4435 62.4754 99.3595 62.3724 99.2297 62.4072C84.1525 66.4748 68.5823 67.9846 53.0454 68.5244C49.2595 68.6568 45.2993 68.6305 41.8459 70.4539C41.8292 70.4617 41.8197 70.4718 41.8103 70.4844C41.7598 70.5004 41.7196 70.546 41.716 70.6159C41.7107 70.7256 41.7609 70.8293 41.8442 70.8925C41.8523 70.9397 41.8604 70.9869 41.8685 71.0341C41.6467 71.0608 41.4275 71.0974 41.2086 71.149C41.2058 71.1291 41.203 71.1092 41.2003 71.0893C41.1947 71.0471 41.1723 71.0151 41.1478 70.9931C41.1049 70.8943 41.0142 70.8212 40.8886 70.8211C40.8765 70.8214 40.8693 70.824 40.8573 70.8267C40.8476 70.8244 40.8402 70.8196 40.8281 70.8173C38.6384 70.6375 36.4374 70.6299 34.2466 70.7915C34.0461 70.1199 33.8771 68.7898 33.2355 68.4457C32.472 68.0366 30.9984 68.5808 30.1938 68.7109C29.3459 68.8493 28.4981 68.9951 27.6531 69.1609L27.6248 68.8C27.6185 68.7154 27.5569 68.6518 27.4723 68.6484C23.7913 68.5645 19.9316 69.6952 16.6267 71.3113C16.5405 71.3529 16.5498 71.4649 16.6017 71.5312C16.6043 71.5411 16.6069 71.551 16.6119 71.5634C17.0215 72.3007 17.2502 73.0615 17.3041 73.9078C12.9302 74.5201 8.51448 74.8266 4.11321 75.1278C4.08664 75.1283 4.06267 75.1388 4.04353 75.1491L4.04932 75.4705C4.06877 75.4776 4.09306 75.4846 4.11958 75.4816C10.2509 75.06 16.4137 74.6402 22.4502 73.378C25.543 72.7305 28.5706 71.815 31.7061 71.3885C34.6825 70.9825 37.6817 70.9051 40.6761 71.0944C40.6931 71.1015 40.7102 71.1087 40.7319 71.1108C40.7755 71.1149 40.8099 71.1467 40.8252 71.1887C40.8353 71.2135 40.85 71.2281 40.8672 71.2428C39.7547 71.5781 38.7424 72.2505 38.0006 73.1819C38.0006 73.1819 37.9958 73.182 37.9934 73.1846C37.9767 73.1998 37.9626 73.2176 37.9483 73.2328C37.9242 73.2332 37.9025 73.2386 37.8787 73.2565C37.2264 73.7924 37.1153 75.0009 37.9659 75.4157C38.6484 75.7491 39.789 74.9571 39.3132 74.1637C39.3107 74.1587 39.3058 74.1538 39.3009 74.1489C39.827 73.5831 40.4295 73.0955 41.1519 72.8299C41.2577 73.6055 41.3634 74.3786 41.4691 75.1516C40.2653 75.5162 39.1102 76.3035 38.6068 77.4621C38.5606 77.443 38.5051 77.4466 38.4551 77.4924C37.7897 78.1033 37.8679 79.2259 38.8374 79.3992C39.2519 79.4735 39.6517 79.4035 39.9452 79.0664C40.1605 78.818 40.3264 78.3687 40.0488 78.1124C40.0464 78.1124 40.0439 78.11 40.0414 78.1075C40.4694 77.5909 41.0664 77.2006 41.7194 76.9737C41.8416 77.8562 41.9663 78.741 42.0885 79.6235C41.047 80.0148 40.1223 80.7179 39.593 81.6428C39.5809 81.6455 39.5689 81.6482 39.5569 81.6534C39.1667 81.8503 38.8679 82.1626 38.8183 82.6271C38.7706 83.0667 38.9764 83.4914 39.3405 83.7237C40.0567 84.181 41.3661 83.5129 40.8734 82.5802C41.2941 82.1958 41.8473 81.926 42.3877 81.7487C42.5067 82.5888 42.6281 83.4264 42.7496 84.2665C41.9793 84.5604 41.2628 85.0178 40.6933 85.5894C40.6836 85.5896 40.674 85.5898 40.6643 85.59C40.1163 85.7501 39.5618 86.0822 39.4158 86.6956C39.2855 87.2414 39.5918 87.7465 40.0176 88.0474C40.4752 88.3701 41.0362 88.3967 41.484 88.0392C41.8793 87.7226 42.157 87.1789 41.9787 86.6714C42.2986 86.4584 42.6605 86.2969 43.0255 86.1728C43.1912 87.3236 43.3617 88.4717 43.5298 89.6225C42.6106 89.9616 41.7608 90.5312 41.1193 91.2638C41.1096 91.264 41.0976 91.2667 41.088 91.2719C40.6449 91.4872 40.1529 91.8032 40.0855 92.3528C40.0287 92.82 40.3508 93.2649 40.7222 93.4946C41.4893 93.9659 42.62 93.1641 42.3718 92.2591C42.8224 91.9265 43.3035 91.678 43.808 91.5213C43.9705 92.6272 44.1378 93.7331 44.3027 94.839C43.4055 95.1952 42.5894 95.7592 41.998 96.4559C41.9836 96.4587 41.9668 96.464 41.95 96.4743C41.1852 96.9326 40.9337 98.1262 41.8172 98.6202C42.6153 99.0685 43.6088 98.2943 43.3968 97.3886C43.7573 97.1499 44.1618 96.9403 44.5888 96.7751C44.7756 98.0202 44.9647 99.2627 45.1538 100.508C44.3189 100.833 43.5409 101.369 43.027 102.074C42.5169 102.193 42.0207 102.539 41.9076 103.1C41.8009 103.618 42.0996 104.105 42.5317 104.351C42.9686 104.6 43.5537 104.621 43.9659 104.304C44.3448 104.015 44.4875 103.484 44.2791 103.049C44.2741 103.039 44.2668 103.035 44.2618 103.025C44.624 102.746 45.0157 102.497 45.4253 102.304C45.6119 103.54 45.7985 104.777 45.985 106.012C45.1766 106.329 44.4591 106.869 43.916 107.567C43.9112 107.567 43.9087 107.562 43.9062 107.563C43.4764 107.439 43.0576 107.93 42.8951 108.295C42.6954 108.745 42.7878 109.314 43.1988 109.6C43.9378 110.117 45.4958 109.568 45.1403 108.473C45.4909 108.22 45.8641 108.016 46.2673 107.866C46.3879 108.661 46.5061 109.457 46.6268 110.252C46.6322 110.284 46.6447 110.309 46.662 110.328C46.6866 110.622 46.716 110.916 46.7431 111.209C45.9317 111.499 45.1961 111.974 44.599 112.621C44.5819 112.611 44.5649 112.607 44.5431 112.605C44.1025 112.556 43.6947 112.985 43.5278 113.374C43.3586 113.771 43.4792 114.165 43.7839 114.446C44.1131 114.749 44.5555 114.902 44.9774 114.72C45.3202 114.571 45.5699 114.215 45.5726 113.829C45.5724 113.819 45.5699 113.811 45.5673 113.804C45.9617 113.432 46.4326 113.154 46.9364 112.958C47.092 114.218 47.2814 115.476 47.4852 116.733C46.6642 117.02 45.9164 117.486 45.3488 118.165C44.9295 118.228 44.5133 118.457 44.3763 118.899C44.2508 119.307 44.3845 119.756 44.7011 120.029C45.4079 120.641 46.6611 120.203 46.6258 119.179C46.6256 119.172 46.6231 119.165 46.6205 119.157C46.9704 118.866 47.3576 118.632 47.7699 118.455C47.9618 119.583 48.1561 120.713 48.3456 121.841C47.472 122.166 46.588 122.717 46.1234 123.481C45.7058 123.631 45.286 123.933 45.1785 124.404C45.0799 124.829 45.2741 125.282 45.6072 125.537C45.9698 125.814 46.5345 125.915 46.9385 125.673C47.2874 125.465 47.6837 124.931 47.5334 124.498C47.8908 124.222 48.2734 124.005 48.6692 123.846C48.8385 124.929 48.9958 126.015 49.1266 127.107C49.1004 127.13 49.0841 127.163 49.0897 127.207C49.1035 127.299 49.1172 127.389 49.1309 127.481C48.1499 127.873 47.3136 128.527 46.722 129.478C46.6953 129.474 46.6688 129.477 46.64 129.49C46.2329 129.69 45.8504 130.048 45.8644 130.554C45.8767 130.973 46.1946 131.315 46.5594 131.453C46.9583 131.6 47.3747 131.515 47.7057 131.247C47.9986 131.012 48.2942 130.657 48.0295 130.313C48.431 129.932 48.9085 129.618 49.4166 129.394C49.606 130.652 49.7953 131.907 49.9823 133.164C49.0036 133.557 48.1484 134.229 47.6523 135.121C47.5869 135.112 47.52 135.151 47.5019 135.218C47.4445 135.254 47.3223 135.309 47.2937 135.332C47.2247 135.391 47.1655 135.456 47.1113 135.532C47.003 135.689 46.9339 135.875 46.9204 136.067C46.8917 136.484 47.1306 136.873 47.482 137.068C47.8676 137.28 48.3447 137.213 48.6878 136.948C48.9976 136.707 49.2262 136.254 48.9182 135.921C49.3174 135.552 49.7637 135.245 50.2502 135.026C50.4217 136.231 50.5884 137.437 50.7406 138.645C50.7463 138.693 50.7686 138.727 50.7981 138.751C50.8065 138.819 50.8149 138.883 50.8234 138.95C50.0368 139.275 49.3243 139.824 48.7824 140.587C47.9675 140.947 47.4843 142.018 48.3531 142.639C48.7227 142.904 49.255 142.948 49.6293 142.672C49.9369 142.444 50.1221 141.994 49.9993 141.616C50.3323 141.325 50.6906 141.099 51.0646 140.937C51.2287 142.267 51.3975 143.595 51.5761 144.923C50.7497 145.317 50.0483 145.944 49.6242 146.809C48.8934 147.013 48.3954 148.204 49.1272 148.725C49.7488 149.17 50.8492 148.692 50.6406 147.842C50.9959 147.448 51.4056 147.124 51.8506 146.884C52.0225 148.112 52.2041 149.342 52.3953 150.567C51.5372 150.942 50.8035 151.522 50.4011 152.248C50.3962 152.248 50.3938 152.248 50.389 152.248C49.4922 152.624 49.3072 153.886 50.139 154.463C50.9635 155.036 52.2218 154.344 51.8572 153.281C51.8419 153.237 51.8099 153.208 51.7734 153.191C52.0489 152.926 52.3686 152.703 52.7182 152.53C53.0975 154.808 53.5153 157.08 53.9933 159.337C52.068 159.62 50.132 159.976 48.2364 160.429C48.2172 160.434 48.2029 160.445 48.191 160.455L49.9033 160.422C51.1505 160.184 52.3976 159.943 53.6423 159.702C53.5226 160.031 52.287 160.107 52.051 160.152C51.6441 160.229 51.2373 160.312 50.8306 160.399L52.5574 160.366C53.0005 160.283 53.446 160.202 53.8916 160.131C53.9495 160.123 53.9964 160.047 53.993 159.99C53.9796 159.783 53.9817 159.768 53.9433 159.644C53.989 159.636 54.0371 159.625 54.0829 159.617C54.1834 159.699 54.3799 159.608 54.343 159.437C53.8466 157.096 53.4225 154.744 53.0345 152.386C53.3895 152.245 53.7648 152.153 54.1433 152.111C54.1489 152.151 54.1545 152.193 54.16 152.233C54.1147 152.264 54.0843 152.319 54.0976 152.389C54.5771 154.73 55.0614 157.071 55.5481 159.412C55.5612 159.471 55.6348 159.532 55.6951 159.523L55.8806 159.497C55.8867 159.565 55.9024 159.632 55.9301 159.693C55.9208 159.718 55.919 159.748 55.9317 159.783C55.9393 159.805 55.947 159.828 55.9546 159.85C55.9546 159.85 55.9547 159.852 55.9547 159.855L55.9553 159.89C55.9633 159.932 55.9784 159.964 56.003 159.986C56.0066 160.053 56.0512 160.115 56.1355 160.101C56.2487 160.083 56.3596 160.069 56.4729 160.052C56.5105 160.131 56.5409 160.21 56.5689 160.289L56.8877 160.283C56.8643 160.189 56.8264 160.095 56.7789 160.008C62.1816 159.239 67.6045 158.515 72.985 157.587C76.1993 157.246 79.4628 156.949 82.6541 156.407C86.1321 155.814 89.5757 155.192 93.0925 154.881C93.112 154.888 93.1315 154.895 93.158 154.892C97.3091 154.386 101.451 153.793 105.597 153.245C109.22 152.767 112.882 152.231 116.534 152.024C116.522 152.036 116.513 152.049 116.506 152.067C116.036 152.155 115.488 152.153 115.198 152.191C114.569 152.273 113.94 152.357 113.311 152.442C112.053 152.61 110.795 152.779 109.537 152.95C106.958 153.301 104.382 153.657 101.806 154.021C96.8079 154.725 91.8046 155.404 86.8098 156.153C86.7903 156.143 86.7709 156.136 86.7443 156.139C82.0084 156.773 77.3271 157.758 72.5659 158.195C70.4096 158.394 68.2771 158.841 66.146 159.226C64.4892 159.527 62.8277 159.83 61.1843 160.203L62.8942 160.17C70.6736 158.561 78.603 157.903 86.4194 156.472C86.444 156.496 86.4804 156.51 86.5262 156.505C92.0647 155.758 97.5917 154.917 103.125 154.14C105.889 153.753 108.656 153.371 111.422 152.996C112.743 152.819 114.064 152.642 115.385 152.464C115.597 152.435 115.857 152.428 116.125 152.408C102.605 155.204 88.863 156.534 75.2222 158.526C71.9355 159.005 68.6518 159.522 65.3842 160.123L67.338 160.085C79.9238 158.002 92.6131 156.699 105.213 154.698C109.038 154.091 112.853 153.408 116.646 152.615C116.661 152.619 116.673 152.624 116.687 152.624C116.738 152.623 116.774 152.597 116.797 152.562C116.828 152.531 116.839 152.491 116.834 152.447C116.838 152.394 116.837 152.344 116.831 152.292C116.963 152.255 117.085 152.202 117.193 152.133C117.222 152.15 117.256 152.157 117.295 152.151C117.42 152.129 117.54 152.077 117.647 152.007C117.703 152.024 117.768 152.01 117.81 151.947C117.9 151.81 117.875 151.656 117.844 151.505C117.804 151.306 117.761 151.105 117.719 150.907C117.82 150.892 117.919 150.88 118.021 150.866C118.114 150.852 118.169 150.786 118.187 150.711C118.242 150.68 118.282 150.619 118.263 150.54C116.466 142.893 114.589 135.278 113.097 127.56C111.635 119.999 110.109 112.449 108.599 104.899C107.749 100.643 106.875 96.3906 105.996 92.1406C106.017 92.1103 106.026 92.0702 106.016 92.0256C104.841 86.8989 103.568 81.8016 102.364 76.688C101.921 72.7486 100.773 68.9325 100.445 64.976C100.436 64.8739 100.358 64.8231 100.264 64.8374C100.11 64.8653 99.9557 64.8906 99.8017 64.921C99.7937 64.8788 99.7856 64.8341 99.7752 64.7919C99.7666 64.7173 99.7556 64.6452 99.747 64.5706C100.859 64.0708 102.276 63.595 102.869 65.1264C103.16 65.8785 103.275 66.7635 103.463 67.5475C103.905 69.4108 104.342 71.2766 104.774 73.1425C104.793 73.222 104.811 73.3014 104.83 73.3832C104.816 73.4334 104.827 73.483 104.861 73.5172C105.671 77.0383 106.442 80.5651 107.243 84.0889C107.251 84.1211 107.266 84.1458 107.28 84.1654C108.018 87.982 108.947 91.7625 109.863 95.5358C109.863 95.5407 109.868 95.5456 109.87 95.5506C110.297 97.4116 110.727 99.2726 111.162 101.134C111.162 101.153 111.167 101.173 111.175 101.191C111.599 103.009 112.021 104.828 112.443 106.647C112.429 106.707 112.444 106.754 112.477 106.791C112.974 108.942 113.47 111.091 113.953 113.245C113.961 113.282 113.978 113.307 114 113.326C114.73 117.614 115.588 121.919 116.577 126.15C117.927 133.623 119.475 141.061 120.902 148.52C120.902 148.535 120.902 148.548 120.907 148.563C120.91 148.57 120.912 148.58 120.915 148.587C120.931 148.672 120.947 148.756 120.963 148.841C120.971 148.888 120.996 148.917 121.023 148.937C121.53 150.657 121.701 152.655 119.904 153.616C118.315 154.467 116.305 154.747 114.56 155.085C112.564 155.472 110.56 155.822 108.556 156.157C108.512 156.135 108.462 156.146 108.423 156.179C106.634 156.478 104.841 156.761 103.051 157.04C96.0961 158.125 89.1154 159.012 82.1259 159.807L85.5554 159.741C86.0641 159.684 86.5729 159.629 87.0792 159.569C87.0969 159.616 87.1195 159.663 87.1397 159.71L87.444 159.705C87.4212 159.648 87.3985 159.591 87.3733 159.536C87.5493 159.516 87.7253 159.495 87.9013 159.474C87.9145 159.539 87.935 159.6 87.9626 159.66C87.9 159.668 87.8349 159.677 87.7722 159.683C87.7553 159.684 87.7409 159.691 87.7266 159.699L90.6754 159.643C92.1167 159.453 93.5556 159.261 94.9944 159.064C95.0138 159.066 95.033 159.063 95.0498 159.055C98.7419 158.546 102.431 157.999 106.112 157.412C106.156 157.429 106.204 157.423 106.24 157.393C106.75 157.311 107.263 157.233 107.774 157.151C110.556 156.699 113.341 156.242 116.113 155.728C116.151 155.74 116.192 155.731 116.226 155.706C116.729 155.611 117.232 155.519 117.735 155.423C119.341 155.108 121.553 154.248 121.706 152.42C121.709 152.41 121.713 152.403 121.715 152.39C121.752 152.001 121.764 151.609 121.75 151.221C121.786 150.288 121.525 149.323 121.241 148.464L121.243 148.454ZM23.0912 72.8847C21.2671 73.2835 19.4319 73.6028 17.5884 73.865C17.5467 73.0259 17.3122 72.2154 16.8886 71.4982C18.5445 70.7487 20.239 70.1255 21.9971 69.6855C23 69.4345 24.0183 69.2306 25.0402 69.0963C25.4982 69.0352 27.2235 68.6507 27.3522 69.2215C27.0007 69.293 26.6494 69.3695 26.3005 69.451C25.5692 69.622 24.2031 69.6981 23.7031 70.3756C23.6816 70.386 23.6625 70.4013 23.646 70.424C23.5755 70.5351 23.4928 70.6363 23.4101 70.7376C23.4077 70.7427 23.4054 70.7452 23.403 70.7502C23.3455 70.7762 23.303 70.8319 23.3335 70.9111C23.5543 71.5 23.7775 72.0889 23.9983 72.6803C23.6976 72.7509 23.3944 72.819 23.0936 72.8846L23.0912 72.8847ZM23.8758 71.2446C23.8962 71.3015 23.9165 71.3585 23.9369 71.4154C23.9084 71.4434 23.8799 71.4713 23.8514 71.4993C23.8286 71.4399 23.8057 71.378 23.7829 71.3187C23.8114 71.2907 23.8424 71.2652 23.8758 71.2446ZM23.6789 71.044C23.6612 70.997 23.6434 70.95 23.6256 70.903C23.6564 70.8675 23.6848 70.832 23.7131 70.7966C23.736 70.8585 23.7564 70.9179 23.7792 70.9798C23.7434 71.0004 23.7099 71.021 23.6789 71.044ZM24.0823 72.113C24.0417 72.0016 23.9986 71.8903 23.9579 71.7789C23.9865 71.7534 24.0125 71.7255 24.0411 71.7C24.0818 71.8164 24.125 71.9327 24.1657 72.0491C24.1371 72.0695 24.1109 72.09 24.0823 72.113ZM24.2702 72.6153C24.2397 72.5361 24.2118 72.4594 24.1814 72.3802C24.2076 72.3598 24.2338 72.3393 24.26 72.3189C24.293 72.4105 24.3261 72.5021 24.3592 72.5937C24.3303 72.6017 24.299 72.6073 24.2702 72.6153ZM31.7025 71.0521C29.314 71.3721 26.9911 71.9749 24.6503 72.5258C24.4353 71.8594 24.1938 71.1961 23.9213 70.5534C24.2097 70.1964 24.9354 70.1152 25.3345 70.0078C25.7985 69.8818 26.2652 69.7707 26.7344 69.6645C27.555 69.4818 28.3832 69.3263 29.2118 69.1858C30.1391 69.0284 31.0736 68.8685 32.0089 68.7533C32.7779 68.6588 33.1433 68.8263 33.5099 69.5968C33.6882 69.9698 33.7904 70.4114 33.9136 70.8153C33.1754 70.8744 32.4375 70.9533 31.7 71.0522L31.7025 71.0521ZM37.9189 74.9531C37.6631 74.6963 37.6184 74.3631 37.7047 74.0549C37.7061 74.1372 37.7172 74.2167 37.7307 74.2912C37.7868 74.5917 37.9982 75.0612 38.328 75.1271C38.3425 75.1294 38.357 75.1291 38.3715 75.1288C38.3836 75.1336 38.3958 75.1358 38.4079 75.1381C38.2414 75.1512 38.0665 75.0998 37.9214 74.953L37.9189 74.9531ZM38.4753 75.1268C38.4897 75.1191 38.5016 75.1089 38.511 75.0962C38.681 74.8736 38.8557 74.651 39.0427 74.433C39.0489 74.7818 38.7835 75.0661 38.4753 75.1268ZM38.4037 74.7743C38.3723 74.7699 38.3385 74.7755 38.305 74.7936C38.372 74.7549 38.1848 74.5542 38.1674 74.5271C38.0951 74.4039 38.0538 74.2601 38.0368 74.1184C38.0109 73.8896 38.0173 73.5754 38.1784 73.3978C39.0394 72.3769 40.1547 71.6577 41.4597 71.4083C42.1555 71.2754 42.8828 71.2814 43.5743 71.4426C43.9164 71.5232 44.2663 71.6386 44.5763 71.8122C45.0766 72.0917 46.3405 73.1865 45.2251 73.7612C44.2086 72.7264 43.1283 72.0318 41.6385 72.352C40.2644 72.6475 39.2194 73.6471 38.3989 74.7744L38.4037 74.7743ZM45.8322 73.6673C45.8228 73.6849 45.8207 73.7024 45.8114 73.72C45.7087 73.9189 45.5235 74.1019 45.3122 74.1707C44.9615 74.2871 44.5898 74.0375 44.622 73.678C44.7571 73.8001 44.8923 73.932 45.0253 74.0691C45.0868 74.1327 45.1617 74.1337 45.2215 74.1002C45.2604 74.1119 45.3039 74.1136 45.3494 74.0928C45.5746 73.9887 45.7314 73.8412 45.8322 73.6673ZM42.5332 74.9418C42.4898 74.9451 42.444 74.9485 42.3982 74.9544C42.1909 74.9808 41.9813 75.0172 41.7721 75.0686C41.659 74.2906 41.5483 73.5127 41.4353 72.7347C41.6781 72.6678 41.9117 72.6284 42.1362 72.6191C42.2686 73.3942 42.4009 74.1668 42.5332 74.9418ZM39.5656 78.9167C39.6325 78.7409 39.7189 78.5748 39.8175 78.4184C39.8409 78.6447 39.7328 78.8113 39.5656 78.9167ZM39.232 79.0402C39.0875 79.0654 38.9401 79.0633 38.8114 79.0283C38.7968 79.0236 38.7846 79.0189 38.7725 79.0141C38.6032 78.7382 38.591 78.4593 38.6438 78.1742C38.6652 78.1563 38.6818 78.1361 38.6908 78.101C39.1134 76.615 40.4031 75.7902 41.8004 75.4319C43.1543 75.0844 45.6946 75.4146 45.9468 77.2142C45.9552 77.2738 45.985 77.3206 46.0218 77.3523C46.0434 77.4765 46.0505 77.6035 46.0286 77.731C46.0044 77.8586 45.9551 77.9418 45.8765 78.0006C44.4972 75.3328 39.9528 76.2724 39.2296 79.0403L39.232 79.0402ZM42.0341 76.8755C42.301 76.8056 42.5708 76.7605 42.8411 76.7453C42.987 77.6024 43.133 78.462 43.2765 79.3215C42.9849 79.3595 42.6961 79.4249 42.4126 79.5101C42.2857 78.6327 42.1587 77.7529 42.0317 76.8755L42.0341 76.8755ZM40.3124 83.3586C40.3749 83.2054 40.4569 83.0618 40.5536 82.9303C40.5498 83.1223 40.4533 83.2687 40.3124 83.3586ZM39.9834 83.4696C39.7663 83.4887 39.5356 83.4184 39.3755 83.252C39.0677 82.9289 39.1266 82.5764 39.3243 82.2859C39.3528 82.3901 39.5227 82.4367 39.5761 82.3185C40.1978 80.8835 41.3993 79.9881 42.8977 79.75C44.4251 79.5089 46.2022 79.8561 46.9358 81.4147C46.9558 81.4542 46.9828 81.4761 47.0121 81.493C47.089 81.8729 47.0957 82.2441 46.7245 82.4282C46.7145 82.4084 46.7021 82.3912 46.6897 82.3715C46.6888 82.3217 46.6733 82.2696 46.6339 82.2255C45.6576 81.1377 44.237 80.8708 42.8709 81.2135C41.7309 81.4996 40.2522 82.1635 39.9835 83.4721L39.9834 83.4696ZM46.3623 82.5697C46.2142 82.5327 46.1014 82.4401 46.0696 82.2837C46.1605 82.3667 46.249 82.4522 46.3329 82.5478C46.3427 82.5576 46.3525 82.5624 46.3623 82.5697ZM44.0337 83.9328C43.7155 83.9738 43.3979 84.0472 43.0857 84.1479C42.9644 83.3153 42.8431 82.4827 42.7241 81.6475C42.8107 81.6234 42.8949 81.6044 42.9791 81.5853C43.2005 81.5362 43.4198 81.5046 43.6394 81.4904C43.7724 82.3053 43.9055 83.1203 44.0337 83.9353L44.0337 83.9328ZM40.1051 87.6719C39.4574 87.126 39.7167 86.4979 40.2293 86.1217C40.1774 86.19 40.128 86.2608 40.0809 86.3314C40.0621 86.3592 40.0578 86.3892 40.0631 86.4165C39.9338 86.748 40.0011 87.1305 40.2359 87.4251C40.4015 87.6338 40.676 87.8478 40.9524 87.9023C40.6638 87.9777 40.3626 87.8862 40.1075 87.6718L40.1051 87.6719ZM41.4417 87.5739C41.3998 87.5274 41.3414 87.5011 41.2813 87.5172C41.238 87.5305 41.1946 87.5363 41.1512 87.5396C41.2869 87.2953 41.4643 87.085 41.6713 86.9041C41.7022 87.1453 41.6002 87.384 41.4417 87.5739ZM40.8605 87.4929C40.4493 87.3338 40.1643 86.8034 40.3983 86.3802C42.17 84.2826 46.0095 83.1048 47.6421 86.0195C47.6695 86.0663 47.7038 86.093 47.7403 86.1098C47.7652 86.2838 47.7878 86.4628 47.7497 86.6305C47.7092 86.7983 47.6165 86.8823 47.5021 86.9692C47.4797 86.9298 47.4572 86.8903 47.4324 86.8534C47.4292 86.8086 47.4115 86.7641 47.3672 86.7226C46.3868 85.8068 45.214 85.2111 43.8739 85.526C42.748 85.7893 41.3198 86.3027 40.858 87.4929L40.8605 87.4929ZM47.2312 87.2162C47.1972 87.2069 47.1632 87.1975 47.1266 87.1808C46.9416 87.0996 46.7697 86.9484 46.747 86.7594C46.8573 86.847 46.9653 86.9421 47.0734 87.0398C47.1078 87.0715 47.1467 87.0857 47.1854 87.0899C47.203 87.1295 47.2183 87.1716 47.2311 87.2137L47.2312 87.2162ZM43.3643 86.0666C43.5157 86.0238 43.6672 85.9835 43.814 85.9508C43.9944 85.91 44.1679 85.8842 44.3368 85.8735C44.3724 86.1071 44.4105 86.3431 44.4461 86.5767C44.5833 87.4863 44.7133 88.3985 44.8433 89.3107C44.5154 89.3469 44.1856 89.413 43.8636 89.5114C43.6956 88.3632 43.53 87.2174 43.3619 86.0691L43.3643 86.0666ZM41.7232 93.1364C41.4201 93.3466 41.0677 93.3608 40.7759 93.1247C40.4817 92.8886 40.2767 92.5062 40.4778 92.131C40.5409 92.0126 40.6309 91.9162 40.7333 91.832C40.5872 92.1712 40.6358 92.5915 40.8657 92.8812C40.9967 93.0432 41.1875 93.1741 41.3995 93.1401C41.5681 93.112 41.6844 92.9951 41.7153 92.835C41.8292 92.7182 41.9456 92.6088 42.0646 92.5068C42.0497 92.7563 41.9523 92.98 41.7208 93.1389L41.7232 93.1364ZM41.4921 92.6499C41.4921 92.6499 41.4708 92.6702 41.4614 92.6853C41.4306 92.7233 41.3974 92.7563 41.3667 92.7943C41.3596 92.8044 41.355 92.8145 41.3504 92.827C41.2036 92.8598 40.9867 92.4876 40.9631 92.3833C40.9159 92.1799 40.9559 91.9872 41.0541 91.8059C41.0565 91.8008 41.0564 91.7959 41.0587 91.7883C41.7067 91.0158 42.606 90.3779 43.585 90.0052L43.5852 90.0127C43.5852 90.0127 43.6019 90.0024 43.6115 89.9972C44.0746 89.8239 44.551 89.7125 45.0286 89.6735C45.089 89.6723 45.1518 89.6736 45.2099 89.6775C45.2098 89.6725 45.2097 89.6675 45.2096 89.6625C46.4191 89.6119 47.5988 90.0529 48.4316 91.2232C48.454 91.2552 48.4833 91.2771 48.5126 91.2915C48.5415 91.423 48.5536 91.5574 48.5077 91.6879C48.4365 91.8961 48.2616 91.9767 48.0765 91.893C48.0666 91.8807 48.0591 91.8684 48.0445 91.8587C45.9643 90.3808 43.1601 90.6913 41.4946 92.6523L41.4921 92.6499ZM48.6994 92.0032C48.7819 91.8895 48.8231 91.7665 48.8401 91.6366C48.8761 91.8877 48.7938 92.1509 48.5596 92.29C48.3803 92.3956 48.1427 92.4849 47.9438 92.4389C47.7351 92.3881 47.6331 92.2255 47.5863 92.0395C47.6767 92.0951 47.767 92.1482 47.8551 92.2088C47.9163 92.2525 47.9766 92.2488 48.0244 92.223C48.2582 92.3232 48.551 92.2154 48.7018 92.0032L48.6994 92.0032ZM44.1446 91.4276C44.4694 91.3541 44.7998 91.3203 45.1332 91.3214C45.2827 92.3753 45.4273 93.4317 45.5744 94.4882C45.2564 94.5391 44.9389 94.6175 44.6292 94.7231C44.4668 93.6246 44.307 92.5286 44.147 91.43L44.1446 91.4276ZM42.8551 98.1667C42.6036 98.4207 42.2127 98.4506 41.9241 98.2543C41.5377 97.9925 41.5229 97.5716 41.6879 97.2096C41.6907 97.5036 41.8174 97.8302 41.9948 98.0212C42.2215 98.266 42.6262 98.2034 42.7486 97.8896C42.8485 97.8004 42.9532 97.7112 43.0652 97.6268C43.0567 97.8263 43.007 98.0142 42.8551 98.1691L42.8551 98.1667ZM42.5398 97.6942C42.5206 97.7045 42.504 97.7198 42.4898 97.7375C42.4804 97.7501 42.4732 97.7553 42.4637 97.7654C42.4614 97.768 42.4566 97.7705 42.4542 97.7756C42.4542 97.7756 42.4543 97.7781 42.4519 97.7806C42.3237 97.9052 42.1932 97.7706 42.1229 97.6224C42.025 97.4199 41.9415 97.2097 41.9954 96.9818C41.9998 96.9593 41.9995 96.9394 41.9943 96.9196C42.5826 96.183 43.4723 95.5503 44.4486 95.1603C44.5207 95.1364 44.5927 95.1126 44.6648 95.0938C44.6697 95.0937 44.6769 95.0911 44.6817 95.0885C44.6816 95.0835 44.6815 95.0785 44.6814 95.0735C46.4674 94.4361 48.4784 94.6219 49.4608 96.4474C49.4919 96.5664 49.4914 96.6736 49.4357 96.7993C49.4171 96.8395 49.3421 96.9681 49.2682 97.0218C47.5314 95.1634 44.1501 96.1604 42.5422 97.6966L42.5398 97.6942ZM49.577 97.133C49.6834 97.0039 49.7647 96.8254 49.7857 96.648C49.8552 96.8859 49.8068 97.1486 49.5928 97.3396C49.2409 97.6554 48.7321 97.4408 48.7313 96.9922C48.7925 97.0384 48.8514 97.0871 48.9079 97.1384C48.908 97.1434 48.908 97.1484 48.9105 97.1508C49.0512 97.4497 49.4091 97.3356 49.5745 97.1306L49.577 97.133ZM44.9129 96.6567C45.2155 96.5562 45.5281 96.4779 45.8412 96.4246C46.0136 97.6799 46.1885 98.9352 46.3657 100.188C46.0692 100.228 45.7685 100.297 45.4682 100.392C45.2815 99.147 45.0947 97.9019 44.9104 96.6543L44.9129 96.6567ZM42.6558 104C42.3358 103.804 42.1385 103.447 42.262 103.063C42.3467 102.8 42.5416 102.624 42.764 102.498C42.7453 102.533 42.7315 102.568 42.7152 102.603C42.6792 102.616 42.6483 102.644 42.6371 102.694C42.6282 102.734 42.6241 102.777 42.62 102.817C42.6109 102.849 42.6115 102.879 42.6192 102.909C42.6258 103.138 42.7191 103.356 42.8721 103.532C43.0028 103.682 43.2787 103.841 43.4382 103.711C43.4623 103.705 43.4863 103.697 43.5076 103.675C43.6644 103.527 43.8284 103.379 43.9974 103.239C44.1932 104.048 43.2568 104.37 42.6559 104.003L42.6558 104ZM43.3888 103.383C43.3573 103.378 43.3236 103.384 43.2949 103.402C43.2018 103.464 43.0504 103.237 43.0105 103.168C42.9556 103.072 42.9248 102.971 42.9107 102.864C43.42 101.897 44.2557 101.213 45.2106 100.846C45.2178 100.843 45.2226 100.84 45.2298 100.838C47.0654 100.14 49.3158 100.602 50.4504 102.432C50.4554 102.44 50.4603 102.442 50.4652 102.45C50.4323 102.635 50.3189 102.774 50.1482 102.825C49.1469 102.094 47.7926 101.347 46.5207 101.553C45.3452 101.743 44.2189 102.522 43.3887 103.378L43.3888 103.383ZM50.773 102.232C50.7284 102.173 50.6815 102.116 50.637 102.06C50.8506 102.248 50.981 102.512 50.834 102.801C50.736 102.995 50.4853 103.16 50.2859 103.226C50.2067 103.252 50.1293 103.249 50.0565 103.228C50.1388 103.241 50.2054 103.18 50.2353 103.1C50.5191 103.024 50.768 102.763 50.7552 102.451C50.8097 102.393 50.83 102.31 50.7706 102.232L50.773 102.232ZM45.7346 102.171C46.0081 102.067 46.2918 101.989 46.5786 101.948C46.5907 101.948 46.6027 101.948 46.6148 101.945C46.67 102.33 46.7229 102.716 46.7806 103.101C46.9075 103.976 47.0391 104.848 47.1708 105.72C47.1105 105.727 47.0527 105.733 46.9948 105.741C46.7587 105.776 46.5277 105.83 46.3019 105.902C46.1128 104.659 45.9213 103.414 45.7346 102.171ZM43.482 109.358C43.1797 109.206 43.0743 108.855 43.1603 108.534C43.2259 108.288 43.4445 107.948 43.7086 107.858C43.6804 107.898 43.6546 107.941 43.6287 107.982C43.5852 107.982 43.5421 108.001 43.5163 108.046C43.1957 108.62 44.0757 109.591 44.5924 109.04C44.6375 108.992 44.6437 108.937 44.6307 108.887C44.6973 108.826 44.7662 108.765 44.8377 108.709C44.8394 109.339 43.989 109.61 43.482 109.358ZM44.2914 108.826C44.1615 108.859 44.0423 108.814 43.9387 108.696C43.8376 108.581 43.7427 108.408 43.7543 108.246C43.7735 108.238 43.7902 108.228 43.8043 108.207C44.5092 107.234 45.43 106.452 46.6015 106.17C47.8572 105.869 49.9554 106.066 50.6675 107.376C50.685 107.408 50.7096 107.43 50.734 107.444C50.7727 107.712 50.8129 108.2 50.5344 108.166C50.5102 108.164 50.4861 108.167 50.4644 108.169C48.9499 106.309 45.6823 107.312 44.2939 108.829L44.2914 108.826ZM51.0096 107.317C51.0163 107.289 51.0182 107.262 51.0104 107.232C51.4547 107.353 51.845 107.824 51.6289 108.304C51.4942 108.603 51.2101 108.656 50.9155 108.664C50.7005 108.668 50.5112 108.622 50.3931 108.5C50.3955 108.5 50.4003 108.5 50.4027 108.5C50.4149 108.507 50.4247 108.514 50.4393 108.519C50.7066 108.604 50.9519 108.409 51.0416 108.156C51.1335 107.892 51.0989 107.584 51.0072 107.319L51.0096 107.317ZM46.5843 107.763C46.7237 107.723 46.8656 107.688 47.0125 107.66C47.1498 107.635 47.2968 107.615 47.4487 107.599C47.616 108.705 47.7857 109.811 47.9554 110.917C47.9313 110.917 47.9072 110.92 47.8855 110.926C47.6036 110.966 47.3269 111.029 47.0553 111.109C47.0185 110.81 46.9817 110.512 46.9474 110.213C46.9494 110.193 46.954 110.176 46.9487 110.154C46.9378 110.084 46.9269 110.017 46.916 109.947C46.8986 109.783 46.8787 109.622 46.8613 109.457C46.8583 109.425 46.8458 109.403 46.8285 109.383C46.7439 108.844 46.6641 108.302 46.5819 107.763L46.5843 107.763ZM44.0775 114.254C43.8229 114.064 43.6907 113.837 43.808 113.509C43.8908 113.273 44.1015 113.037 44.3413 112.938C44.3391 112.948 44.3392 112.955 44.337 112.965C44.0797 113.436 44.2687 114.267 44.8049 114.394C44.5938 114.481 44.3371 114.446 44.08 114.254L44.0775 114.254ZM44.963 114.052C44.5432 113.948 44.4584 113.401 44.6185 113.032C45.4406 112.134 46.4712 111.538 47.6557 111.311C48.9776 111.062 50.7035 111.38 51.6883 112.403C51.7203 112.435 51.7543 112.449 51.7882 112.451C51.8799 112.576 51.9452 112.717 51.9578 112.881C51.9735 113.08 51.915 113.321 51.7254 113.389C51.7205 113.384 51.718 113.379 51.7106 113.375C50.5674 112.544 49.2738 111.951 47.8641 112.284C46.7406 112.55 45.6337 113.06 44.9606 114.052L44.963 114.052ZM47.2869 112.831C47.5535 112.746 47.8254 112.681 48.0951 112.634C48.136 112.626 48.177 112.622 48.218 112.617C48.4148 113.884 48.6116 115.151 48.8084 116.421C48.4902 116.462 48.1773 116.525 47.8696 116.611C47.6633 115.354 47.4643 114.094 47.2869 112.831ZM44.8988 119.741C44.6973 119.553 44.6072 119.246 44.6918 118.977C44.7511 118.787 44.8913 118.654 45.0588 118.566C45.0259 118.617 44.9905 118.665 44.9577 118.718C44.946 118.738 44.9391 118.758 44.937 118.776C44.9276 118.793 44.9231 118.811 44.9211 118.831C44.895 119.125 45.0576 119.439 45.2665 119.632C45.4335 119.783 45.6993 119.92 45.9177 119.841C45.6166 120.024 45.1912 120.014 44.9013 119.743L44.8988 119.741ZM45.8776 119.49C45.4849 119.553 45.2898 119.185 45.1992 118.845C46.111 117.564 47.4578 116.955 48.9649 116.794C49.5557 116.731 50.1594 116.717 50.7482 116.812C51.1214 116.873 53.33 117.703 52.4307 118.475C51.6399 117.625 50.088 117.583 49.0374 117.733C47.7891 117.911 46.7032 118.515 45.88 119.49L45.8776 119.49ZM52.6531 117.409C53.2467 117.236 53.3403 118.273 53.1343 118.643C53.001 118.883 52.7778 118.969 52.5212 118.939C52.2549 118.91 52.1056 118.803 52.0295 118.602C52.1005 118.653 52.1691 118.707 52.233 118.765C52.2895 118.817 52.3499 118.82 52.4003 118.802C52.4495 118.848 52.5223 118.867 52.5986 118.811C53.1234 118.439 53.0169 117.893 52.6555 117.409L52.6531 117.409ZM48.149 118.308C48.3483 118.242 48.5551 118.183 48.7669 118.141C48.8632 118.122 48.9668 118.108 49.068 118.093C49.2457 119.236 49.4233 120.379 49.601 121.523C49.519 121.534 49.4395 121.546 49.3576 121.56C49.1505 121.596 48.9292 121.653 48.7058 121.719C48.5258 120.581 48.3386 119.446 48.149 118.308ZM46.5211 125.44C46.2103 125.486 45.8526 125.345 45.6573 125.095C45.3085 124.645 45.5431 124.255 45.8859 123.974C45.7521 124.325 45.9086 124.699 46.1193 124.991C46.2828 125.217 46.705 125.451 46.8703 125.107C46.9817 124.987 47.0956 124.875 47.2121 124.771C47.1624 125.096 46.7838 125.405 46.5188 125.445L46.5211 125.44ZM46.7229 124.84C46.7061 124.845 46.6918 124.853 46.675 124.864C46.4986 124.992 46.3658 124.727 46.2885 124.594C46.1839 124.422 46.1202 124.241 46.1673 124.038C46.6905 122.775 48.4622 122.013 49.7016 121.879C51.0423 121.734 52.3534 122.232 53.3225 123.183C53.3446 123.205 53.369 123.22 53.3934 123.229C53.4559 123.348 53.5041 123.474 53.5139 123.616C53.5174 123.678 53.4559 124.285 53.2971 124.188C53.258 124.164 53.2217 124.16 53.188 124.168C51.1981 122.606 48.3416 122.825 46.7205 124.838L46.7229 124.84ZM53.7103 123.121C54.1735 123.217 54.4726 123.727 54.2226 124.198C54.0567 124.51 53.476 124.731 53.1565 124.565C53.1854 124.562 53.2119 124.554 53.2358 124.541C53.524 124.715 53.8053 124.238 53.8583 123.961C53.9135 123.67 53.8621 123.365 53.7104 123.124L53.7103 123.121ZM49.0076 123.722C49.3055 123.629 49.6089 123.574 49.9153 123.548C50.0986 124.738 50.2819 125.926 50.4628 127.116C50.417 127.122 50.3736 127.128 50.3254 127.136C50.0292 127.189 49.7406 127.262 49.462 127.355C49.3363 126.141 49.1792 124.93 49.0052 123.722L49.0076 123.722ZM47.2848 131.085C47.0692 131.186 46.8155 131.184 46.601 131.081C46.3403 130.956 46.1443 130.671 46.2113 130.366C46.2538 130.178 46.3696 130.033 46.5076 129.916C46.4349 130.172 46.4693 130.475 46.5941 130.695C46.8113 131.082 47.2161 131.156 47.503 130.859C47.5271 130.854 47.551 130.841 47.5675 130.818C47.6171 130.752 47.674 130.691 47.726 130.628C47.6668 130.829 47.4477 131.007 47.2824 131.085L47.2848 131.085ZM47.4058 130.557C47.3938 130.562 47.3818 130.567 47.37 130.58C47.2343 130.695 47.127 130.772 46.9651 130.635C46.8866 130.569 46.8361 130.448 46.815 130.349C46.7649 130.121 46.8487 129.942 46.9661 129.755C46.9966 129.705 46.9958 129.66 46.9782 129.623C47.7563 128.556 48.7775 127.846 50.0724 127.575C51.6898 127.235 52.8793 127.818 54.0108 128.935C53.7288 129.646 53.4416 129.796 53.1515 129.383C53.0655 129.304 52.9773 129.231 52.8866 129.163C52.7104 129.037 52.5299 128.938 52.3302 128.855C51.7435 128.607 51.0977 128.567 50.4763 128.674C49.301 128.873 48.1176 129.571 47.4034 130.559L47.4058 130.557ZM54.4331 129.044C54.6162 129.148 54.7069 129.358 54.757 129.589C54.8517 130.018 54.7112 130.262 54.3247 130.399C54.1158 130.473 53.8658 130.545 53.6546 130.484C53.4044 130.412 53.2337 130.191 53.1785 129.943C53.2348 129.982 53.2934 130.018 53.3544 130.052C54.1153 130.446 54.6216 129.718 54.4355 129.044L54.4331 129.044ZM49.7187 129.264C49.9875 129.167 50.2616 129.092 50.5338 129.044C50.606 129.033 50.6783 129.021 50.7506 129.012C50.9425 130.277 51.1296 131.54 51.3166 132.805C50.9744 132.851 50.6328 132.93 50.3037 133.039C50.124 131.776 49.9297 130.516 49.7163 129.261L49.7187 129.264ZM48.0045 136.836C47.7028 136.849 47.4168 136.663 47.2981 136.379C47.1895 136.119 47.2495 135.829 47.4318 135.621C47.4408 135.852 47.5486 136.07 47.6945 136.254C47.8304 136.426 48.054 136.631 48.2649 136.535C48.3012 136.541 48.3421 136.533 48.3752 136.49C48.4746 136.373 48.5764 136.259 48.6831 136.15C48.8255 136.541 48.299 136.82 48.0069 136.834L48.0045 136.836ZM48.2399 136.221C48.2399 136.221 48.2181 136.221 48.2062 136.227C48.0621 136.277 47.9007 136.033 47.8335 135.925C47.7639 135.814 47.7256 135.7 47.7185 135.578C47.728 135.568 47.7399 135.558 47.7469 135.543C49.0229 133.018 53.4174 132.069 55.1213 134.653C55.1511 134.698 55.1901 134.722 55.2314 134.731C55.2749 134.865 55.2702 135.009 55.2049 135.14C55.142 135.266 55.0417 135.333 54.9291 135.387C53.7536 134.642 52.5897 134.136 51.1762 134.398C49.9988 134.617 49.0133 135.301 48.2399 136.221ZM55.4702 134.574C55.4702 134.574 55.4699 134.562 55.4698 134.555C55.7833 134.79 55.8842 135.294 55.6586 135.645C55.3649 136.107 54.7355 136.039 54.5413 135.584C54.595 135.616 54.6464 135.649 54.7001 135.683C54.7227 135.73 54.7668 135.764 54.8369 135.765C54.8369 135.765 54.8417 135.765 54.8441 135.765C54.9001 135.784 54.9506 135.773 54.9911 135.74C55.2242 135.673 55.4186 135.465 55.5037 135.232C55.5843 135.011 55.5632 134.777 55.4702 134.574ZM50.562 134.9C50.8692 134.79 51.1892 134.716 51.5269 134.685C51.551 134.684 51.5752 134.684 51.5993 134.681C51.6076 134.741 51.6184 134.8 51.6267 134.862C51.8087 136.113 51.9907 137.365 52.1728 138.618C51.8086 138.652 51.4499 138.726 51.1018 138.845C51.0628 138.559 51.0262 138.274 50.9872 137.985C50.9843 137.955 50.9693 137.931 50.9545 137.911C50.8301 136.909 50.6985 135.905 50.562 134.9ZM49.4208 142.359C49.1444 142.574 48.7301 142.512 48.4748 142.288C48.0918 141.949 48.1715 141.543 48.4219 141.227C48.3485 141.58 48.5058 141.993 48.7589 142.232C49.0022 142.462 49.4883 142.485 49.5851 142.092C49.5895 142.072 49.5891 142.05 49.5839 142.03C49.61 142.002 49.6336 141.971 49.6597 141.944C49.6336 142.104 49.5685 142.244 49.4208 142.359ZM49.2168 142.034L49.2168 142.037C49.0921 142.084 48.9622 141.984 48.8728 141.849C48.7412 141.652 48.6696 141.429 48.7184 141.191C50.3306 138.686 53.6439 138.074 55.7408 140.344C55.7532 140.359 55.7678 140.366 55.7824 140.373C55.9012 140.665 56.0437 141.198 55.706 141.227C53.6551 139.763 50.7446 139.807 49.2144 142.034L49.2168 142.034ZM56.0578 140.236C56.0667 140.196 56.066 140.156 56.0459 140.114C56.4854 140.235 56.7805 140.658 56.5674 141.166C56.4516 141.442 56.23 141.613 55.946 141.676C55.6572 141.739 55.2693 141.664 55.213 141.351C55.3302 141.421 55.4475 141.496 55.5625 141.576C55.6359 141.627 55.7081 141.613 55.7556 141.567C56.0024 141.585 56.199 141.37 56.2473 141.102C56.3023 140.802 56.217 140.489 56.0578 140.236ZM51.362 140.817C51.7173 140.695 52.0857 140.626 52.4599 140.609C52.6474 141.899 52.8325 143.189 53.0201 144.479C52.6321 144.536 52.2546 144.635 51.8948 144.777C51.714 143.457 51.538 142.137 51.362 140.817ZM50.0239 148.481C49.7967 148.608 49.463 148.589 49.2617 148.411C48.9007 148.092 49.101 147.54 49.4218 147.244C49.3305 147.672 49.5738 148.171 49.9329 148.391C49.9482 148.433 49.9849 148.462 50.0286 148.474C50.0286 148.474 50.0239 148.476 50.0239 148.479L50.0239 148.481ZM51.824 146.48C51.824 146.48 51.7998 146.476 51.79 146.471C51.7902 146.479 51.7903 146.489 51.7929 146.496C51.1011 146.853 50.5118 147.398 50.0818 148.074C49.8617 147.792 49.6329 147.562 49.7538 147.166C51.0346 144.504 54.901 143.879 56.6113 146.419C56.6138 146.423 56.6187 146.426 56.6236 146.431C56.5381 147.317 55.8437 146.588 55.5074 146.43C55.2272 146.298 54.9306 146.197 54.6299 146.13C54.0719 146.004 53.4967 145.992 52.9357 146.098C52.5456 146.17 52.1736 146.304 51.8264 146.48L51.824 146.48ZM56.9562 146.387C56.9819 146.334 56.9856 146.274 56.941 146.21C56.9261 146.188 56.9112 146.169 56.894 146.149C57.2881 146.303 57.3971 146.852 57.0508 147.213C56.7188 147.558 56.004 147.577 55.8768 147.086C56.1118 147.258 56.3588 147.423 56.6315 147.271C56.9233 147.108 56.9787 146.696 56.9539 146.39L56.9562 146.387ZM52.169 146.721C52.531 146.564 52.9132 146.457 53.3014 146.415C53.4832 147.657 53.665 148.898 53.8493 150.14C53.4662 150.197 53.0838 150.294 52.7166 150.429C52.5252 149.194 52.3435 147.958 52.1666 146.721L52.169 146.721ZM51.2453 154.183C50.9391 154.356 50.5618 154.333 50.2849 154.117C49.8879 153.805 49.8479 153.325 50.0512 152.945C50.0514 152.955 50.0467 152.962 50.0469 152.972C50.0571 153.274 50.1916 153.627 50.3961 153.848C50.6005 154.066 50.9295 154.087 51.1933 153.979C51.2796 153.945 51.3117 153.845 51.2909 153.766C51.3708 153.642 51.4605 153.523 51.5575 153.412C51.5923 153.733 51.5681 154 51.2453 154.183ZM52.9701 152.029C52.9701 152.029 52.9699 152.016 52.9674 152.011C52.9579 152.024 52.9484 152.032 52.9365 152.039C52.1161 152.367 51.4062 152.926 51.0163 153.676C50.8476 153.7 50.7006 153.72 50.5742 153.545C50.4702 153.405 50.4094 153.247 50.3582 153.086C50.37 153.071 50.3793 153.053 50.3862 153.03C51.0477 150.461 56.1645 149.243 57.3461 151.935C57.3587 151.965 57.376 151.984 57.398 151.999C57.4147 152.121 57.4241 152.237 57.3852 152.363C57.3624 152.436 57.3298 152.506 57.2851 152.569C57.2544 152.612 57.2189 152.65 57.1808 152.683C57.169 152.696 57.157 152.704 57.1427 152.714C57.135 152.687 57.1224 152.66 57.0978 152.633C56.0744 151.615 54.3664 151.486 52.9725 152.029L52.9701 152.029ZM57.6807 151.864C58.05 152.113 58.3412 152.457 57.9386 152.903C57.7491 153.114 57.4607 153.199 57.1931 153.229C56.9905 153.25 56.8532 153.273 56.7608 152.973C56.7455 152.923 56.7444 152.866 56.7458 152.806C56.7825 152.836 56.8192 152.862 56.8561 152.894C56.8684 152.906 56.8829 152.911 56.8976 152.918C56.9254 152.99 56.9844 153.043 57.0739 153.052C57.2482 153.068 57.4168 152.906 57.5159 152.777C57.7024 152.534 57.7996 152.163 57.6855 151.864L57.6807 151.864ZM117.543 151.72C117.538 151.598 117.361 151.522 117.288 151.655C117.283 151.655 117.279 151.653 117.271 151.653C113.375 151.817 109.455 152.433 105.589 152.946C101.506 153.488 97.4157 153.998 93.3384 154.582C93.3164 154.565 93.2872 154.555 93.251 154.559C89.9057 154.872 86.595 155.359 83.2941 155.988C79.9787 156.62 76.581 156.842 73.2355 157.275C73.2086 157.261 73.1795 157.254 73.1434 157.26C67.5294 158.235 61.867 158.939 56.2339 159.797C56.2288 159.782 56.2238 159.77 56.2211 159.755C56.2373 159.717 56.239 159.675 56.2116 159.631C56.1792 159.574 56.1661 159.517 56.1577 159.457C72.1909 157.226 88.2266 155.001 104.26 152.762C108.658 152.15 113.056 151.559 117.454 150.944C117.481 151.088 117.508 151.232 117.534 151.376C117.551 151.463 117.594 151.59 117.591 151.694C117.574 151.705 117.56 151.712 117.543 151.72ZM100.275 66.1157C100.318 66.5087 100.371 66.899 100.429 67.2892C100.586 68.3578 100.786 69.4207 100.994 70.481C101.092 70.9775 101.191 71.4741 101.286 71.9708C100.784 69.7198 100.304 67.4635 99.8622 65.1965C100.325 65.1602 100.229 65.7029 100.275 66.1157ZM105.676 91.7953C105.671 91.8153 105.669 91.8353 105.675 91.8601C107.201 99.4798 108.663 107.113 110.201 114.728C111.75 122.394 113.127 130.129 114.926 137.738C115.93 141.989 116.959 146.233 117.951 150.486C99.9968 152.971 82.051 155.516 64.0996 158.019C62.8248 158.198 61.5501 158.382 60.2754 158.566C59.0392 158.744 57.6974 159.094 56.4509 159.103C55.6103 159.109 55.6884 158.619 55.5271 157.844C55.4108 157.291 55.297 156.737 55.1806 156.181C54.94 155.027 54.6969 153.87 54.4514 152.716C54.4872 152.69 54.5106 152.652 54.5024 152.598C54.4776 152.426 54.4528 152.257 54.4279 152.086C55.1522 152.054 55.8677 152.213 56.4617 152.597C56.4687 152.981 56.3994 153.426 56.8487 153.56C57.2398 153.677 57.7735 153.529 58.0878 153.277C58.414 153.011 58.5968 152.559 58.4539 152.14C58.2958 151.677 57.8349 151.44 57.4027 151.318C56.7277 150.329 55.4506 149.977 54.1458 150.102C53.9689 148.867 53.792 147.629 53.6127 146.394C54.2647 146.376 54.9317 146.526 55.5735 146.877C55.4609 147.871 56.7224 148.021 57.282 147.44C57.8773 146.82 57.5006 145.624 56.5948 145.771C55.7439 144.805 54.6336 144.326 53.3286 144.438C53.1412 143.158 52.9563 141.878 52.7665 140.598C53.4917 140.616 54.225 140.824 54.9201 141.19C54.8547 141.58 55.1045 141.901 55.4878 141.991C55.9391 142.097 56.4409 141.921 56.719 141.536C57.2566 140.798 56.7229 139.605 55.7742 139.78C55.7573 139.783 55.7454 139.791 55.7334 139.796C54.7833 138.957 53.6189 138.56 52.4743 138.59C52.2815 137.28 52.0889 135.973 51.8937 134.663C52.737 134.669 53.4866 134.971 54.2115 135.381C54.2116 135.386 54.2116 135.389 54.2117 135.394C54.2276 136.276 55.3081 136.576 55.8498 135.933C56.1052 135.629 56.1699 135.197 56.0399 134.82C55.9177 134.471 55.599 134.081 55.2083 134.118C55.2083 134.118 55.2059 134.118 55.2034 134.118C54.3365 133.068 52.9714 132.658 51.6107 132.767C51.4213 131.507 51.2319 130.247 51.0401 128.987C51.4409 128.977 51.8334 129.039 52.2134 129.209C52.4691 129.323 52.6682 129.509 52.8719 129.687C52.7943 130.072 52.9941 130.435 53.3101 130.675C53.6971 130.97 54.306 130.838 54.7004 130.604C55.1689 130.323 55.2137 129.864 55.0599 129.371C54.9496 129.014 54.6956 128.593 54.3049 128.635C53.2743 127.618 52.1585 126.969 50.752 127.078C50.5712 125.893 50.3928 124.71 50.2096 123.525C51.0381 123.514 51.8783 123.754 52.6582 124.263C52.6595 124.602 52.9225 124.851 53.2548 124.927C53.6648 125.019 54.1304 124.848 54.3974 124.516C54.9787 123.795 54.4243 122.788 53.5686 122.765C53.5444 122.765 53.5228 122.768 53.5036 122.776C52.506 121.848 51.2222 121.394 49.895 121.484C49.8595 121.258 49.8265 121.032 49.791 120.806C49.6488 119.889 49.509 118.97 49.3693 118.05C50.1459 117.98 51.0145 118.049 51.702 118.394C51.7007 118.858 51.8942 119.136 52.3551 119.242C52.77 119.338 53.1667 119.233 53.4062 118.848C53.81 118.197 53.4649 116.608 52.4804 117.078C52.4517 117.091 52.4351 117.112 52.421 117.134C51.895 116.636 51.1497 116.433 50.4504 116.375C50.0125 116.338 49.5631 116.339 49.1144 116.378C48.9225 115.113 48.733 113.845 48.5459 112.58C49.3911 112.559 50.1172 112.902 50.8494 113.309C50.8229 113.581 51.1094 113.795 51.3692 113.867C51.7601 113.974 52.2306 113.943 52.5171 113.616C52.7775 113.319 52.8504 112.809 52.7277 112.435C52.5771 111.985 52.1306 111.876 51.7159 111.924C50.8032 111.149 49.4708 110.813 48.2953 110.875C48.1329 109.772 47.9681 108.668 47.8056 107.563C48.5758 107.538 49.4216 107.681 49.9764 108.171C49.8289 109.101 51.368 109.241 51.8281 108.634C52.4253 107.85 51.6264 106.821 50.7787 106.84C50.7763 106.84 50.7739 106.84 50.769 106.84C50.0455 105.969 48.6553 105.645 47.5277 105.681C47.3456 104.424 47.1635 103.168 46.9814 101.911C47.8054 101.92 48.6116 102.283 49.3301 102.736C49.3254 102.748 49.3209 102.763 49.3187 102.778C49.2792 103.133 49.678 103.544 50.0005 103.61C50.3813 103.69 50.8567 103.394 51.0833 103.096C51.6049 102.415 50.8686 101.507 50.1486 101.501C50.1486 101.501 50.1486 101.501 50.1461 101.501C49.2263 100.599 48.0666 100.058 46.7247 100.136C46.5426 98.8785 46.3605 97.6209 46.1808 96.3632C46.9959 96.2828 47.8025 96.3994 48.4718 96.8028C48.2186 97.503 49.0445 98.0181 49.6355 97.6977C50.315 97.3282 50.2919 96.3168 49.6471 95.9304C49.6154 95.9111 49.5839 95.9067 49.5549 95.9097C48.6899 94.6976 47.303 94.283 45.8995 94.4271C45.7503 93.3907 45.6011 92.3517 45.4496 91.3153C46.0592 91.361 46.6712 91.5362 47.259 91.8414C47.2559 92.2103 47.4269 92.5809 47.7726 92.7288C48.094 92.8672 48.5286 92.7143 48.8028 92.5146C49.3561 92.1127 49.2784 91.0201 48.6291 90.7833C47.7244 89.6492 46.448 89.2051 45.1518 89.2699C45.1131 88.9964 45.0719 88.7231 45.0331 88.4497C44.9064 87.5848 44.7772 86.7174 44.6457 85.8526C45.2912 85.8751 45.8656 86.1133 46.4087 86.4892C46.3093 86.7354 46.4016 87.0327 46.6011 87.2407C46.9162 87.5686 47.363 87.6947 47.7774 87.4948C48.6515 87.0693 48.7011 85.7973 47.8091 85.3682C47.7921 85.3611 47.7775 85.3589 47.763 85.3567C46.9259 84.2188 45.6523 83.7946 44.3493 83.8869C44.2261 83.0792 44.1004 82.2741 43.9723 81.4666C44.5886 81.4772 45.1761 81.6379 45.6945 81.9794C45.5234 82.9422 46.7346 83.2554 47.3629 82.7275C48.1316 82.0797 47.6546 81.0819 46.9416 80.6669C46.1662 79.6001 44.9073 79.1881 43.6235 79.2725C43.4851 78.4253 43.3418 77.5782 43.196 76.7311C43.9963 76.7631 44.753 77.0601 45.2763 77.6781C45.1589 78.0019 45.2404 78.3667 45.5435 78.5628C45.8491 78.7613 46.2244 78.6743 46.4934 78.4498C47.086 77.955 47.07 76.9309 46.313 76.619C46.2643 76.5999 46.2234 76.6082 46.1876 76.6313C45.6704 75.4125 44.1704 74.893 42.8733 74.9104C42.7363 74.1429 42.5968 73.3754 42.4526 72.6105C43.1565 72.6594 43.7733 72.9715 44.3519 73.439C44.352 73.4439 44.3472 73.4465 44.3449 73.4491C44.0204 74.35 45.1248 74.765 45.7345 74.2773C46.0132 74.0576 46.1977 73.7051 46.2177 73.3434C46.2453 72.8618 45.971 72.5206 45.6346 72.223C45.6346 72.223 45.6298 72.2231 45.6273 72.2182C45.0778 71.486 44.0932 71.1485 43.2431 71.0302C42.8774 70.9799 42.5099 70.967 42.1431 70.9915C42.1325 70.9393 42.1243 70.8872 42.1137 70.8325C42.123 70.8124 42.125 70.7924 42.1246 70.77C42.1317 70.7574 42.1387 70.7473 42.1433 70.7323C42.1728 70.6245 42.2466 70.5683 42.3477 70.5439C42.3958 70.533 42.4218 70.5026 42.4357 70.4675C45.7215 68.9988 49.3279 68.967 52.8603 68.8469C56.6462 68.7195 60.4287 68.5348 64.2073 68.2704C71.7115 67.7477 79.198 66.9087 86.6104 65.5827C90.8175 64.8316 94.9924 63.8992 99.1255 62.7906C99.2602 63.5631 99.3973 64.3331 99.5416 65.1054C99.5499 65.1626 99.5582 65.2198 99.5665 65.2769C99.5668 65.2944 99.5767 65.3091 99.5818 65.324C101.23 74.2149 103.407 83.0409 105.673 91.7729L105.676 91.7953ZM52.0191 112.26C52.1887 112.284 52.3396 112.348 52.4179 112.538C52.4988 112.736 52.4651 113.009 52.3912 113.202C52.3265 113.365 52.2173 113.469 52.0807 113.532C52.1848 113.408 52.2518 113.24 52.2682 113.077C52.3014 112.777 52.2091 112.48 52.0191 112.262L52.0191 112.26ZM48.0564 86.0838C48.0968 86.1827 48.1132 86.2896 48.1151 86.3967C48.106 86.2922 48.0848 86.1879 48.0564 86.0838ZM46.3163 77.3392C46.3423 77.3063 46.356 77.2636 46.3478 77.2065C46.3394 77.1443 46.3214 77.0849 46.3082 77.0253C46.578 77.2469 46.6737 77.599 46.4915 77.9414C46.4073 78.1001 46.2531 78.2551 46.0802 78.3132C46.1826 78.229 46.2601 78.1054 46.2987 77.9701C46.3603 77.767 46.3563 77.5453 46.3163 77.3367L46.3163 77.3392ZM110.157 95.5326C110.169 95.505 110.173 95.4725 110.165 95.4377C109.249 91.6645 108.422 87.8745 107.576 84.0875C107.588 84.0549 107.594 84.0198 107.586 83.9801C106.816 80.5131 106.024 77.0515 105.222 73.5925C108.254 73.9955 111.22 74.4894 114.176 75.3225C113.342 83.6255 112.486 91.9114 111.292 100.169C110.923 98.6234 110.545 97.0779 110.157 95.5376L110.157 95.5326ZM111.53 101.164C112.535 94.1935 113.421 87.193 114.055 80.1724C115.738 80.7682 117.57 80.7954 119.3 81.2033C117.437 89.541 114.961 97.7284 112.64 105.94C112.275 104.347 111.904 102.757 111.527 101.166L111.53 101.164ZM88.2662 159.612C88.2313 159.555 88.2037 159.496 88.1808 159.431C88.3254 159.413 88.4676 159.396 88.6123 159.378C88.6327 159.438 88.6531 159.499 88.6759 159.559C88.5385 159.576 88.4035 159.594 88.2662 159.612ZM88.9483 159.524C88.9483 159.524 88.948 159.506 88.9453 159.494C88.9275 159.444 88.9073 159.392 88.8895 159.343C89.0871 159.319 89.2848 159.295 89.4825 159.269C89.4926 159.294 89.5051 159.316 89.5296 159.336C89.5639 159.362 89.5911 159.397 89.6087 159.436C89.3894 159.465 89.17 159.492 88.9482 159.521L88.9483 159.524ZM89.8811 159.404C89.8811 159.404 89.8808 159.386 89.8757 159.374C89.853 159.319 89.8256 159.275 89.7959 159.233C89.9188 159.218 90.0418 159.204 90.1647 159.189C90.1851 159.246 90.203 159.303 90.2234 159.36C90.1101 159.374 89.9968 159.389 89.8835 159.404L89.8811 159.404ZM90.4982 159.324C90.4802 159.267 90.4599 159.211 90.4395 159.154C90.683 159.124 90.9264 159.089 91.1699 159.06C91.1758 159.122 91.1889 159.179 91.2141 159.233C90.9755 159.265 90.7368 159.295 90.4982 159.324ZM91.513 159.195C91.513 159.195 91.5079 159.185 91.5054 159.181C91.4684 159.136 91.4458 159.087 91.4399 159.03C91.4399 159.03 91.4399 159.027 91.4398 159.025C91.517 159.016 91.5941 159.004 91.6712 158.995C91.6715 159.01 91.6766 159.025 91.6841 159.043C91.7066 159.084 91.7291 159.124 91.7516 159.166C91.6721 159.177 91.5901 159.186 91.5106 159.198L91.513 159.195ZM92.048 159.125C92.0156 159.069 91.9832 159.014 91.9508 158.958C92.0665 158.943 92.1798 158.928 92.2955 158.914C92.3182 158.971 92.3434 159.027 92.3686 159.082C92.2625 159.096 92.1565 159.111 92.0504 159.123L92.048 159.125ZM92.6458 159.046C92.623 158.99 92.5979 158.935 92.5727 158.878C92.7896 158.849 93.0065 158.82 93.2234 158.791C93.2317 158.851 93.2448 158.908 93.2651 158.96C93.0579 158.989 92.8506 159.018 92.6433 159.044L92.6458 159.046ZM93.5567 158.919C93.5244 158.868 93.5017 158.816 93.4933 158.754C93.5994 158.739 93.7078 158.725 93.8139 158.71L93.814 158.715C93.8246 158.77 93.8352 158.824 93.8483 158.879C93.7519 158.893 93.6531 158.905 93.5567 158.919ZM94.1159 158.844C94.1052 158.787 94.0921 158.732 94.079 158.675C94.2983 158.646 94.5176 158.617 94.7393 158.585C94.7302 158.615 94.7308 158.65 94.7484 158.687C94.7585 158.709 94.771 158.732 94.781 158.751C94.5593 158.783 94.3375 158.812 94.1158 158.841L94.1159 158.844ZM95.0678 158.713C95.0402 158.659 95.0127 158.605 94.9852 158.553C95.1322 158.533 95.2816 158.512 95.4286 158.492C95.4288 158.505 95.4291 158.52 95.4342 158.532C95.447 158.574 95.4623 158.616 95.4775 158.658C95.3426 158.678 95.2052 158.696 95.0702 158.713L95.0678 158.713ZM95.7523 158.621C95.7344 158.566 95.714 158.509 95.6961 158.455C96.0624 158.403 96.4311 158.351 96.7974 158.299C96.7786 158.329 96.7696 158.367 96.7849 158.411C96.7926 158.434 96.8002 158.453 96.8054 158.473C96.4535 158.522 96.1041 158.569 95.7522 158.618L95.7523 158.621ZM97.0825 158.436C97.0698 158.401 97.0595 158.366 97.0469 158.334C97.0367 158.307 97.0195 158.287 97.0023 158.273C97.2264 158.241 97.4529 158.209 97.677 158.177C97.6926 158.234 97.7056 158.289 97.7212 158.346C97.5091 158.378 97.2971 158.409 97.085 158.438L97.0825 158.436ZM98.0006 158.301C97.9851 158.244 97.9696 158.189 97.9541 158.132C98.2095 158.095 98.4649 158.058 98.7203 158.02C98.7205 158.033 98.7184 158.045 98.721 158.06C98.7291 158.105 98.7443 158.147 98.7548 158.189C98.5042 158.226 98.2536 158.264 98.0005 158.298L98.0006 158.301ZM99.0271 158.152C99.0116 158.094 98.9985 158.037 98.9757 157.983C99.1589 157.957 99.342 157.929 99.5251 157.903C99.5262 157.962 99.5369 158.02 99.5572 158.074C99.3813 158.1 99.2054 158.126 99.0271 158.152ZM99.8488 158.034C99.8165 157.982 99.7986 157.927 99.7975 157.865C99.8818 157.853 99.9685 157.839 100.053 157.828C100.26 157.796 100.467 157.762 100.674 157.731C100.697 157.788 100.722 157.845 100.745 157.902C100.446 157.947 100.148 157.988 99.8463 158.031L99.8488 158.034ZM101.022 157.862C100.997 157.805 100.974 157.745 100.949 157.688C101.164 157.657 101.38 157.62 101.595 157.589C101.613 157.651 101.636 157.71 101.67 157.764C101.456 157.796 101.239 157.83 101.025 157.864L101.022 157.862ZM101.996 157.713C101.942 157.664 101.904 157.608 101.877 157.546C102.171 157.501 102.465 157.455 102.756 157.41C102.756 157.417 102.756 157.425 102.759 157.432C102.777 157.484 102.795 157.536 102.81 157.585C102.538 157.628 102.265 157.671 101.993 157.711L101.996 157.713ZM103.089 157.545C103.069 157.486 103.051 157.426 103.028 157.367C103.25 157.333 103.474 157.299 103.696 157.264C103.721 157.324 103.746 157.381 103.771 157.44C103.545 157.474 103.316 157.511 103.089 157.545ZM104.06 157.395C104.033 157.335 104.005 157.278 103.975 157.222C104.214 157.185 104.45 157.15 104.688 157.111C104.698 157.128 104.711 157.145 104.733 157.16C104.777 157.189 104.802 157.233 104.822 157.278C104.569 157.317 104.313 157.355 104.06 157.395ZM105.619 157.155C105.448 157.183 105.277 157.207 105.106 157.235C105.088 157.168 105.06 157.109 105.021 157.057C105.298 157.012 105.572 156.964 105.849 156.919C105.859 156.944 105.877 156.966 105.906 156.983C105.955 157.009 105.987 157.046 106.007 157.093C105.877 157.113 105.749 157.135 105.619 157.155ZM106.286 157.048C106.266 156.981 106.233 156.919 106.189 156.865C106.495 156.814 106.801 156.764 107.107 156.713C107.107 156.718 107.107 156.725 107.112 156.73C107.142 156.787 107.177 156.841 107.209 156.898C106.903 156.946 106.595 156.997 106.289 157.048L106.286 157.048ZM107.498 156.85C107.463 156.788 107.428 156.727 107.391 156.665C107.743 156.606 108.094 156.55 108.448 156.49C108.479 156.555 108.509 156.619 108.539 156.683C108.192 156.74 107.845 156.796 107.498 156.853L107.498 156.85ZM108.818 156.638C108.818 156.638 108.818 156.618 108.81 156.608C108.785 156.554 108.758 156.499 108.73 156.445C108.978 156.403 109.229 156.363 109.477 156.321C109.503 156.316 109.528 156.313 109.554 156.307C109.555 156.35 109.572 156.392 109.612 156.421C109.631 156.435 109.634 156.473 109.635 156.505C109.363 156.55 109.09 156.593 108.816 156.638L108.818 156.638ZM109.909 156.46C109.908 156.383 109.883 156.316 109.833 156.259C110.053 156.223 110.269 156.186 110.489 156.152C110.489 156.152 110.489 156.152 110.489 156.155C110.519 156.219 110.551 156.283 110.584 156.347C110.36 156.384 110.134 156.423 109.909 156.46ZM110.868 156.299C110.838 156.233 110.803 156.171 110.77 156.107C111.011 156.067 111.255 156.028 111.498 155.988C111.498 155.993 111.498 155.998 111.498 156.003C111.516 156.063 111.537 156.122 111.557 156.182C111.326 156.221 111.097 156.26 110.866 156.299L110.868 156.299ZM111.834 156.134C111.813 156.069 111.791 156.008 111.768 155.943C111.985 155.909 112.201 155.873 112.418 155.836C112.421 155.848 112.423 155.861 112.431 155.873C112.458 155.922 112.488 155.969 112.516 156.016C112.289 156.055 112.06 156.095 111.834 156.131L111.834 156.134ZM112.812 155.968C112.777 155.909 112.744 155.85 112.707 155.791C112.999 155.743 113.29 155.692 113.581 155.642C113.607 155.704 113.634 155.763 113.662 155.825C113.378 155.872 113.096 155.92 112.812 155.971L112.812 155.968ZM114.693 155.648C114.442 155.693 114.192 155.732 113.941 155.777C113.914 155.715 113.886 155.653 113.858 155.594C114.181 155.536 114.501 155.477 114.822 155.414C114.835 155.486 114.858 155.552 114.895 155.614C114.825 155.625 114.758 155.637 114.693 155.648ZM115.216 155.566C115.216 155.566 115.206 155.548 115.198 155.541C115.144 155.49 115.105 155.433 115.091 155.359C115.334 155.309 115.577 155.26 115.82 155.205C115.821 155.215 115.823 155.225 115.828 155.235C115.863 155.311 115.903 155.385 115.943 155.459C115.686 155.497 115.442 155.531 115.216 155.563L115.216 155.566ZM116.228 155.419C116.183 155.328 116.135 155.239 116.085 155.15C116.319 155.098 116.554 155.041 116.785 154.985C116.816 155.094 116.854 155.203 116.895 155.309C116.666 155.348 116.442 155.385 116.225 155.417L116.228 155.419ZM117.174 155.261C117.138 155.145 117.098 155.028 117.052 154.917C117.209 154.877 117.367 154.836 117.524 154.794C117.524 154.796 117.524 154.801 117.524 154.803C117.577 154.922 117.629 155.041 117.685 155.157C117.514 155.195 117.343 155.228 117.172 155.259L117.174 155.261ZM117.969 155.097C117.913 154.97 117.853 154.847 117.79 154.724C117.949 154.678 118.108 154.633 118.264 154.585C118.327 154.713 118.387 154.844 118.452 154.97C118.291 155.016 118.13 155.056 117.966 155.094L117.969 155.097ZM118.721 154.893C118.661 154.762 118.596 154.633 118.533 154.505C118.704 154.452 118.872 154.399 119.04 154.343C119.076 154.48 119.129 154.611 119.204 154.729C119.048 154.787 118.887 154.842 118.721 154.893ZM119.47 154.622C119.396 154.506 119.338 154.385 119.299 154.251C119.508 154.175 119.712 154.089 119.911 153.993C119.958 154.079 120.008 154.168 120.06 154.251C120.075 154.276 120.095 154.291 120.114 154.3C119.916 154.419 119.7 154.525 119.473 154.622L119.47 154.622ZM120.308 154.177C120.307 154.154 120.304 154.13 120.289 154.105C120.245 154.024 120.197 153.945 120.15 153.866C120.229 153.822 120.305 153.776 120.382 153.727C120.458 153.805 120.517 153.886 120.572 153.98C120.489 154.049 120.398 154.113 120.308 154.174L120.308 154.177ZM120.784 153.794C120.737 153.71 120.677 153.634 120.611 153.565C120.67 153.519 120.727 153.473 120.785 153.423C120.836 153.486 120.893 153.548 120.95 153.606C120.95 153.606 120.95 153.606 120.952 153.606C120.9 153.67 120.843 153.73 120.786 153.789L120.784 153.794ZM121.117 153.384C121.073 153.332 121.026 153.283 120.979 153.234C120.996 153.217 121.01 153.199 121.027 153.181C121.044 153.188 121.063 153.193 121.085 153.192C121.102 153.192 121.119 153.192 121.133 153.192C121.271 153.189 121.294 153.016 121.213 152.946C121.286 152.845 121.352 152.734 121.41 152.618C121.362 152.901 121.263 153.157 121.117 153.384Z" fill="#231F20"/>
<path d="M152.445 43.5106C150.777 43.1248 149.09 42.9924 147.586 43.0924C142.31 43.4455 136.818 46.3215 134.006 51.0433C130.62 50.4727 127.13 50.8481 124.038 52.5392C120.217 54.6295 117.637 58.8364 116.936 63.1699C115.976 69.1049 119.266 75.4461 123.931 78.7463C124.414 79.0878 124.965 78.424 124.599 77.9669C121.671 74.322 118.875 70.2935 118.714 65.3774C118.531 59.8646 122.409 54.7533 127.433 53.205C129.294 52.6318 131.21 52.5612 133.105 52.8362C133.091 52.8709 133.073 52.9021 133.059 52.9368C130.98 58.1175 133.087 64.4805 138.121 66.7207C141.367 68.1648 147.038 67.8613 148.733 64.0526C151.337 58.1964 141.432 53.4619 137.727 52.055C137.088 51.8128 136.437 51.606 135.781 51.4302C136.882 49.7768 138.409 48.4055 140.047 47.3613C143.316 45.279 147.284 44.3722 151.093 44.8211C151.339 44.8501 151.595 44.8936 151.858 44.9458C151.629 45.6688 151.484 46.423 151.436 47.1878C151.218 50.7151 153.812 53.2561 156.781 54.3647C158.649 55.0633 161.672 54.8605 161.426 52.0879C161.04 47.7239 157.581 45.0726 153.715 43.8563C153.784 43.7236 153.851 43.591 153.927 43.4613C157.709 36.9596 167.637 39.9843 173.183 41.7873C173.347 41.8412 173.423 41.6031 173.271 41.5315C168.719 39.4018 163.756 37.8512 158.723 38.6734C155.985 39.1207 153.693 41.0299 152.443 43.51L152.445 43.5106ZM142.802 56.8605C144.496 57.9724 147.786 60.3167 147.177 62.8639C146.738 64.6997 144.484 65.3601 142.919 65.5659C140.67 65.8599 138.22 65.1099 136.539 63.5293C134.312 61.4345 133.658 57.9029 134.274 54.9534C134.403 54.3371 134.591 53.7446 134.832 53.1794C137.685 53.8967 140.432 55.3062 142.802 56.8616L142.802 56.8605ZM159.945 52.4816C159.908 54.4758 155.703 52.2682 155.097 51.856C152.851 50.3259 152.428 47.6876 153.143 45.2874C156.383 46.3418 160.013 48.9451 159.945 52.4805L159.945 52.4816Z" fill="#231F20" fill-opacity="0.15"/>
<g clip-path="url(#clip0_2065_193)">
<path fill-rule="evenodd" clip-rule="evenodd" d="M254.74 0.023299C255.666 1.05564 256.623 1.9121 257.305 2.95209C258.15 4.25207 258.72 5.72794 259.484 7.0891C261.041 9.84965 262.649 12.572 264.221 15.3249C264.91 16.5331 264.621 19.4236 263.731 20.4789C262.442 22.016 260.648 21.8936 259.373 20.1578C259.098 19.7907 258.891 19.3701 258.602 18.8807C254.162 22.0466 249.736 25.1665 245.363 28.3477C243.569 29.6476 241.931 31.177 240.092 32.4158C239.114 33.0735 237.854 33.2723 236.764 33.777C233.05 35.4976 229.374 37.3099 225.63 38.9616C224.689 39.3746 223.533 39.4663 222.51 39.3899C219.908 39.1911 218.425 37.1646 218.121 33.9835C217.847 31.0623 218.966 28.7453 221.227 27.0324C225.119 24.0806 229.055 21.1825 233.102 18.4601C237.95 15.1949 242.924 12.1208 247.853 8.97789C248.899 8.31261 250.011 7.76203 251.004 7.02792C251.323 6.79086 251.597 6.01087 251.456 5.68205C250.781 4.08384 250.967 2.75327 252.546 2.14916C253.687 1.71328 254.228 1.11682 254.599 0.107416C254.636 0.0080051 254.858 -0.0225828 254.747 0.030946L254.74 0.023299ZM225.534 30.2059C223.214 28.0877 221.316 28.8753 220.093 32.5611C220.464 32.6988 220.827 32.9129 221.22 32.9588C222.613 33.1423 224.044 33.1805 225.423 33.4482C226.831 33.7311 228.566 33.2035 229.522 34.817C229.589 34.9317 230.034 34.9164 230.234 34.817C231.116 34.3888 231.976 33.8994 233.206 33.2417C232.509 33.0811 232.228 32.9894 231.939 32.9588C229.025 32.6605 226.105 32.3776 223.192 32.0717C222.436 31.9953 221.398 32.087 221.598 30.8941C221.783 29.7929 222.665 30.2059 223.384 30.2518C224.096 30.2976 224.822 30.1906 225.549 30.137C226.513 30.3359 227.469 30.5729 228.44 30.7182C230.293 31.0012 232.368 30.8176 233.962 31.5976C235.482 32.347 236.03 31.5976 237.098 30.94C236.764 30.7335 236.646 30.5959 236.505 30.5806C233.54 30.2747 230.582 29.9459 227.61 29.7318C226.935 29.6782 226.216 30.03 225.519 30.1982L225.534 30.2059ZM256.4 13.5737C255.555 12.2737 254.688 10.989 253.88 9.66612C253.354 8.80202 252.805 8.51908 251.834 9.13848C249.67 10.5073 247.453 11.7843 245.274 13.1225C241.634 15.3631 238.017 17.6343 234.37 19.8672C233.621 20.326 233.221 20.8307 233.718 21.6642C234.844 23.5683 235.86 25.5642 237.135 27.3612C239.351 30.4888 238.61 29.7853 241.805 28.1947C241.946 28.1259 242.079 28.0265 242.212 27.9347C246.393 24.9371 250.552 21.9166 254.747 18.9495C257.757 16.816 257.779 16.8466 256.4 13.5737ZM253.242 4.00737C253.368 4.29795 253.428 4.5503 253.561 4.74912C254.925 6.84439 256.46 8.8479 257.646 11.0426C258.98 13.5125 259.995 16.166 261.189 18.7201C261.307 18.9801 261.715 19.2172 262.012 19.2325C262.241 19.2478 262.708 18.9037 262.716 18.7278C262.738 17.8943 262.886 16.9078 262.531 16.2502C260.403 12.312 258.142 8.45025 255.956 4.54266C255.274 3.31914 254.406 3.41855 253.25 4.01501L253.242 4.00737ZM223.74 27.5447C227.765 27.9271 231.271 28.2635 234.785 28.5924C234.874 28.4241 234.963 28.2482 235.052 28.08C234.548 27.713 234.096 27.1241 233.532 27.0094C231.383 26.5812 229.062 26.8106 227.209 25.3348C227.068 25.2277 226.676 25.2889 226.498 25.4112C225.675 26 224.897 26.6424 223.748 27.5371L223.74 27.5447ZM220.59 34.8399C221.494 37.547 225.119 37.784 228.447 35.5282C225.845 35.2987 223.31 35.077 220.59 34.8399ZM228.818 23.813C228.855 23.9889 228.899 24.1648 228.936 24.3406C230.085 24.4859 231.234 24.6389 232.672 24.8224C232.302 23.7136 232.028 22.9107 231.716 21.9854C230.664 22.6507 229.737 23.2318 228.818 23.813Z" fill="#222222" fill-opacity="0.13"/>
</g>
<g clip-path="url(#clip1_2065_193)">
<path fill-rule="evenodd" clip-rule="evenodd" d="M182.493 83.047C184.545 83.597 186.259 83.7094 187.635 84.9691C189.028 86.2407 190.433 89.3338 188.862 91.5576C187.612 93.3259 186.156 94.5915 184.035 95.0174C182.349 95.3545 179.552 94.1421 179.018 92.4565C178.497 90.8183 177.992 89.044 178.629 87.2993C179.122 85.945 179.964 84.7858 181.157 83.9696C181.684 83.6148 182.04 82.7927 182.493 83.047ZM179.729 89.4698C179.792 89.9371 179.844 90.4043 179.924 90.8656C180.211 92.4861 180.899 93.1721 182.424 93.592C183.45 93.8759 184.333 93.4678 185.239 93.1544C186.901 92.5748 188.369 90.2209 188.094 88.63C187.687 86.3294 185.766 84.6025 183.49 84.5611C183.026 84.5551 182.481 84.6379 182.109 84.8923C180.526 85.9568 179.586 87.4235 179.729 89.4817V89.4698Z" fill="black" fill-opacity="0.22"/>
</g>
</g>
<defs>
<filter id="filter0_d_2065_193" x="0.0435181" y="0" width="268.56" height="168.455" filterUnits="userSpaceOnUse" color-interpolation-filters="sRGB">
<feFlood flood-opacity="0" result="BackgroundImageFix"/>
<feColorMatrix in="SourceAlpha" type="matrix" values="0 0 0 0 0 0 0 0 0 0 0 0 0 0 0 0 0 0 127 0" result="hardAlpha"/>
<feOffset dy="4"/>
<feGaussianBlur stdDeviation="2"/>
<feComposite in2="hardAlpha" operator="out"/>
<feColorMatrix type="matrix" values="0 0 0 0 0 0 0 0 0 0 0 0 0 0 0 0 0 0 0.25 0"/>
<feBlend mode="normal" in2="BackgroundImageFix" result="effect1_dropShadow_2065_193"/>
<feBlend mode="normal" in="SourceGraphic" in2="effect1_dropShadow_2065_193" result="shape"/>
</filter>
<clipPath id="clip0_2065_193">
<rect width="46.5291" height="39.4048" fill="white" transform="translate(218.075)"/>
</clipPath>
<clipPath id="clip1_2065_193">
<rect width="11.2251" height="12.0768" fill="white" transform="translate(178.331 83)"/>
</clipPath>
</defs>
</svg>
