<svg width="48" height="50" viewBox="0 0 48 50" fill="none" xmlns="http://www.w3.org/2000/svg">
<path d="M15.2001 5.83333L9.6001 11.6667H15.2001V5.83333Z" fill="white"/>
<path d="M1.6 8.33333H0V0H8V1.66667H1.6V8.33333Z" fill="white"/>
<path d="M8 50.0007H0V41.6673H1.6V48.334H8V50.0007Z" fill="white"/>
<path d="M48.0005 50.0007H40.0005V48.334H46.4005V41.6673H48.0005V50.0007Z" fill="white"/>
<path d="M48.0005 8.33333H46.4005V1.66667H40.0005V0H48.0005V8.33333Z" fill="white"/>
<path d="M16.8001 5V13.3333H8.80005V45H39.2001V5H16.8001ZM28.8001 25.8333H24.8001V30H23.2001V25.8333H19.2001V24.1667H23.2001V20H24.8001V24.1667H28.8001V25.8333Z" fill="white"/>
</svg>
