<svg width="80" height="80" viewBox="0 0 80 80" fill="none" xmlns="http://www.w3.org/2000/svg">
<path d="M79.46 68.3899H73.45V61.45C73.45 57.88 70.74 54.97 67.42 54.97H53.72V57.6399V57.6699H67.41C69.35 57.6699 70.95 59.35 70.95 61.46V68.4099H65.1801C64.8801 68.4099 64.63 68.67 64.63 68.99V79.4099C64.63 79.7299 64.8801 80 65.1801 80H79.46C79.75 80 80 79.7299 80 79.4099V68.99C80 68.66 79.75 68.3899 79.46 68.3899Z" fill="#0E5BCA"/>
<path d="M79.46 35.1101H65.1801C64.8801 35.1101 64.63 35.38 64.63 35.7V39.5601H53.72V42.25H64.63V46.1201C64.63 46.4401 64.8801 46.7 65.1801 46.7H79.46C79.75 46.7 80 46.4401 80 46.1201V35.7C80 35.36 79.75 35.1101 79.46 35.1101Z" fill="#0E5BCA"/>
<path d="M0 56.3999V72.54C0 75.17 9.96998 79 25.6 79C41.24 79 51.22 75.17 51.22 72.54V56.3999C46.55 59.7899 36.03 61.53 25.6 61.53C15.19 61.53 4.67 59.7899 0 56.3999ZM7.76001 72.45C5.25001 72.45 3.21997 70.2601 3.21997 67.5701C3.21997 64.8901 5.25001 62.7 7.76001 62.7C10.25 62.7 12.28 64.8801 12.28 67.5701C12.28 70.2801 10.25 72.45 7.76001 72.45ZM40.27 69.79C43.09 69.25 45.5501 68.53 47.4301 67.73C48.0701 67.45 48.7901 67.78 49.05 68.48C49.31 69.16 49 69.94 48.35 70.22C46.3 71.1 43.74 71.8499 40.71 72.4399C40.64 72.4499 40.56 72.47 40.49 72.47C39.9 72.47 39.38 72.0101 39.26 71.3701C39.14 70.6101 39.58 69.92 40.27 69.79Z" fill="#0E5BCA"/>
<path d="M0 16V32.1799C0 34.8199 9.96998 38.6399 25.6 38.6399C41.24 38.6399 51.22 34.8199 51.22 32.1799V16C46.55 19.39 36.03 21.1499 25.6 21.1499C15.19 21.1499 4.67 19.39 0 16ZM8.68005 32.3101C6.17005 32.3101 4.14001 30.1199 4.14001 27.4199C4.14001 24.7499 6.17005 22.5601 8.68005 22.5601C11.1701 22.5601 13.2 24.7299 13.2 27.4199C13.2 30.1299 11.1801 32.3101 8.68005 32.3101ZM37.0601 30.0701C40.3901 29.6101 43.41 28.9301 45.78 28.1101C46.45 27.8801 47.15 28.28 47.35 28.97C47.56 29.68 47.2001 30.4399 46.55 30.6599C43.99 31.5399 40.91 32.24 37.38 32.73C37.33 32.74 37.28 32.74 37.21 32.74C36.59 32.74 36.06 32.2501 35.98 31.5701C35.89 30.8401 36.3701 30.1701 37.0601 30.0701Z" fill="#0E5BCA"/>
<path d="M25.61 18.45C41.24 18.45 51.22 14.62 51.22 11.98C51.22 9.34998 41.24 5.51001 25.61 5.51001C9.98999 5.51001 0.0100098 9.34998 0.0100098 11.98C0.0100098 14.62 9.98999 18.45 25.61 18.45Z" fill="#0E5BCA"/>
<path d="M79.46 0H65.1801C64.8801 0 64.63 0.270088 64.63 0.590088V11.01C64.63 11.33 64.8801 11.5901 65.1801 11.5901H70.95V18.52C70.95 20.62 69.36 22.3301 67.41 22.3301H53.72V25.03H67.41C70.73 25.03 73.4399 22.12 73.4399 18.54V11.6101H79.4399C79.7399 11.6101 79.99 11.34 79.99 11.02V0.570068C80 0.250068 79.75 0 79.46 0Z" fill="#0E5BCA"/>
<path d="M0 36.2V52.3401V52.3899C0 55.0299 9.96998 58.8501 25.6 58.8501C41.24 58.8501 51.22 55.0299 51.22 52.3899V52.3401V36.2C46.55 39.59 36.03 41.3301 25.6 41.3301C15.19 41.3301 4.67 39.59 0 36.2ZM7.76001 52.3101C5.25001 52.3101 3.21997 50.1199 3.21997 47.4299C3.21997 44.7499 5.25001 42.5601 7.76001 42.5601C10.25 42.5601 12.28 44.7399 12.28 47.4299C12.28 50.1199 10.25 52.3101 7.76001 52.3101ZM40.27 49.6299C43.13 49.0699 45.53 48.3901 47.42 47.5701C48.05 47.2901 48.78 47.6201 49.04 48.3201C49.3 49.0001 48.99 49.7801 48.34 50.0601C46.29 50.9401 43.72 51.7 40.7 52.28C40.6199 52.3 40.54 52.3101 40.48 52.3101C39.88 52.3101 39.36 51.85 39.25 51.21C39.14 50.47 39.58 49.7699 40.27 49.6299Z" fill="#0E5BCA"/>
</svg>
