<svg width="49" height="51" viewBox="0 0 49 51" fill="none" xmlns="http://www.w3.org/2000/svg">
<path fill-rule="evenodd" clip-rule="evenodd" d="M19.6754 51C18.701 51 17.8152 50.2827 17.6676 49.2665C17.1066 45.2915 15.0988 42.2132 11.8508 40.3004C10.4925 39.4934 9.10478 39.0152 7.74653 38.0887C3.96708 35.4885 -0.432447 30.9457 0.246674 24.0119C0.689579 19.1104 4.55762 15.763 8.0418 13.3123C9.04572 12.595 12.4118 15.2549 11.3193 16.0021C8.18944 18.1241 4.61667 20.8737 4.26235 24.4004C3.8785 28.3754 5.82728 31.8124 10.0201 34.6816C11.1717 35.4885 12.6185 36.0265 13.8882 36.7737C18.1696 39.2842 20.9451 43.4983 21.6833 48.6688C21.8604 49.8942 20.9156 51 19.6754 51ZM13.8882 14.2985C17.4904 11.8777 21.1813 9.12805 21.7128 4.76452C22.3033 0.191784 19.3802 -0.914042 17.9333 0.699866C16.0436 2.79197 21.1223 4.55531 10.7288 11.4593C9.51815 12.2662 12.2051 15.4044 13.8882 14.2985Z" fill="#F1F9FF"/>
<path fill-rule="evenodd" clip-rule="evenodd" d="M2.28499 51C1.04485 51 0.0999878 49.8942 0.27715 48.6688C1.01532 43.6776 3.64323 39.5532 7.68843 37.0128C9.28289 35.9966 8.24944 38.6566 10.7297 38.6267C11.4974 38.6267 11.9403 39.344 11.2612 39.7026C7.36363 41.6453 4.97194 44.634 4.29282 49.2665C4.14519 50.2827 3.2889 51 2.28499 51ZM13.9777 38.1186C14.0958 38.1186 14.2139 38.0887 14.332 38.029C18.0524 35.4288 22.3929 30.9158 21.7433 24.0119C20.7394 13.6111 5.4739 10.8316 4.29282 4.46565C3.99755 2.82186 5.17863 1.98501 4.02708 0.699866C2.58026 -0.914042 -0.342917 0.191784 0.247623 4.76452C0.57242 7.21527 2.01924 9.57636 4.44046 11.6386C8.7514 15.2549 17.1961 18.9012 17.6981 24.4004C18.0819 28.3754 16.1627 31.8124 11.9698 34.6816C11.1136 35.2793 10.0801 35.4885 10.464 36.2058C11.0545 37.3714 13.4167 38.1186 13.9777 38.1186Z" fill="#F1F9FF"/>
<path fill-rule="evenodd" clip-rule="evenodd" d="M17.4352 7.78358H4.53192C2.99652 7.78358 2.99652 5.3926 4.53192 5.3926H17.4352C19.0002 5.3926 19.0002 7.78358 17.4352 7.78358ZM18.2915 4.40633H3.67564C2.14023 4.40633 2.14023 2.01535 3.67564 2.01535H18.2915C19.8564 2.01535 19.8564 4.40633 18.2915 4.40633ZM16.638 21.6213H5.32915C3.79375 21.6213 3.79375 19.2304 5.32915 19.2304H16.638C18.2029 19.2304 18.2029 21.6213 16.638 21.6213ZM18.3506 26.7022H15.8998C14.3349 26.7022 14.3349 24.3112 15.8998 24.3112H18.3506C19.886 24.3112 19.886 26.7022 18.3506 26.7022ZM12.6223 26.7022H9.34482C7.77989 26.7022 7.77989 24.3112 9.34482 24.3112H12.6223C14.1873 24.3112 14.1873 26.7022 12.6223 26.7022ZM6.09685 26.7022H3.64611C2.08118 26.7022 2.08118 24.3112 3.64611 24.3112H6.09685C7.63226 24.3112 7.63226 26.7022 6.09685 26.7022ZM16.8447 31.8129H5.15199C3.58706 31.8129 3.58706 29.4219 5.15199 29.4219H16.8447C18.3801 29.4219 18.3801 31.8129 16.8447 31.8129ZM16.7856 45.8001H5.18151C3.61658 45.8001 3.61658 43.4091 5.18151 43.4091H16.7856C18.3506 43.4091 18.3506 45.8001 16.7856 45.8001ZM18.0258 49.0279H3.97091C2.40598 49.0279 2.40598 46.6369 3.97091 46.6369H18.0258C19.5612 46.6369 19.5612 49.0279 18.0258 49.0279Z" fill="#F1F9FF"/>
<path fill-rule="evenodd" clip-rule="evenodd" d="M38.7463 36.7737C33.7563 36.7737 29.4749 33.0976 28.6186 28.1662L24.9867 26.9409C24.4553 26.7615 24.4553 25.9845 24.9867 25.8051L28.6186 24.5798C29.4749 19.6484 33.7563 15.9723 38.7463 15.9723C44.386 15.9723 48.9922 20.6347 48.9922 26.373C48.9922 32.1113 44.386 36.7737 38.7463 36.7737ZM33.1953 28.8536L35.6755 30.2882L38.1558 28.8536V26.7316L35.6755 25.2672L33.1953 26.7316V28.8536ZM41.1971 24.251V22.129L38.7463 20.6645L36.2661 22.129V24.251L38.7463 25.6856L41.1971 24.251ZM39.3369 26.7316V28.8536L41.7876 30.2882L44.2679 28.8536V26.7316L41.7876 25.2672L39.3369 26.7316ZM38.7463 29.8698C38.1558 30.2583 37.0042 30.9457 36.2661 31.3343C36.2956 32.3803 36.4137 33.3666 35.6755 33.3666C34.9374 33.3666 35.0555 32.3803 35.085 31.3343C34.1992 30.8561 32.6638 29.9296 32.3094 29.7204C32.1323 29.6008 32.0142 29.3916 32.0142 29.1824V26.373C32.0142 26.1638 32.1323 25.9845 32.3094 25.8649L35.085 24.251V21.7704C35.085 21.5612 35.2031 21.3818 35.3803 21.2623L38.4511 19.4691C38.6282 19.3495 38.8349 19.3495 39.0416 19.4691L41.7876 21.083C42.6734 20.545 43.4707 19.9473 43.825 20.5749C44.2088 21.2324 43.2935 21.6508 42.3782 22.129V24.251L45.1537 25.8649C45.3309 25.9845 45.449 26.1638 45.449 26.373V29.1824C45.449 29.3916 45.3309 29.6008 45.1537 29.7204C44.6813 29.9894 42.1419 31.5734 41.7876 31.5734C41.4923 31.5734 39.5731 30.3779 38.7463 29.8698Z" fill="#F1F9FF"/>
<path fill-rule="evenodd" clip-rule="evenodd" d="M14.2737 27.7778C11.3505 27.7778 11.3505 23.2947 14.2737 23.2947C17.1969 23.2947 17.1969 27.7778 14.2737 27.7778Z" fill="#F1F9FF"/>
<path fill-rule="evenodd" clip-rule="evenodd" d="M7.71801 27.7778C4.79484 27.7778 4.79484 23.2947 7.71801 23.2947C10.6412 23.2947 10.6412 27.7778 7.71801 27.7778Z" fill="#F1F9FF"/>
</svg>
