<svg width="959" height="458" viewBox="0 0 959 458" fill="none" xmlns="http://www.w3.org/2000/svg">
<path d="M8.86958 183.565C8.86958 118.944 56.702 73.3288 124.808 73.3288C192.913 73.3288 241.063 118.944 241.063 183.565C241.063 248.186 192.913 293.801 124.808 293.801C56.702 293.801 8.86958 248.186 8.86958 183.565ZM68.1057 183.565C68.1057 221.578 91.23 248.503 124.808 248.503C158.385 248.503 181.826 221.578 181.826 183.565C181.826 145.553 158.385 118.627 124.808 118.627C91.23 118.627 68.1057 145.553 68.1057 183.565ZM264.531 290L264.531 133.198L308.879 133.198L315.848 150.304C328.202 137 346.258 129.397 367.164 129.397C404.227 129.397 429.885 154.739 429.885 190.851V290H374.133V200.037C374.133 185.466 363.68 175.012 349.425 175.012C332.32 175.012 320.282 187.683 320.282 206.056V290H264.531ZM450.844 211.758C450.844 163.292 485.689 129.397 535.422 129.397C582.304 129.397 614.931 162.025 614.931 209.223C614.931 214.925 614.614 220.627 613.981 226.012H506.596C510.714 242.484 526.552 252.938 547.459 252.938C560.13 252.938 575.018 248.503 590.857 240.267L607.329 277.646C583.571 288.733 560.13 293.801 540.49 293.801C487.273 293.801 450.844 259.907 450.844 211.758ZM535.422 170.261C520.85 170.261 509.763 179.447 506.596 193.385H561.397C559.496 179.447 549.36 170.261 535.422 170.261Z" fill="#77AFFF"/>
<path d="M123.292 153.699C125.05 151.465 127.223 150.311 130.074 151.438C132.898 152.558 133.57 154.866 133.557 157.678C133.489 169.728 133.496 181.778 133.557 193.822C133.57 196.07 132.953 197.895 131.486 199.626C126.34 205.698 121.255 211.817 116.225 217.976C114.697 219.848 112.946 220.996 110.447 220.774C106.401 220.264 104.385 216.192 106.32 212.267C107.82 209.22 110.318 206.885 112.491 204.329C114.745 201.686 116.931 198.982 119.259 196.405C121.038 194.446 121.69 192.286 121.669 189.696C121.602 179.544 121.622 169.399 121.649 159.248C121.649 157.255 121.479 155.175 123.285 153.686L123.292 153.699Z" fill="#4B4B4B"/>
<path d="M123.287 153.697C122.703 155.529 122.649 157.408 122.656 159.313C122.683 169.928 122.622 180.549 122.71 191.163C122.724 193.203 122.14 194.739 120.775 196.269C116.668 200.879 112.669 205.582 108.698 210.312C105.14 214.553 105.751 217.934 110.456 220.786C107.937 223.651 105.622 224.194 103.199 222.497C100.972 220.934 100.259 217.746 101.889 214.996C104.4 210.755 107.937 207.253 111.271 203.69C115.426 199.242 117.836 194.719 117.408 188.298C116.79 178.965 117.238 169.559 117.252 160.185C117.252 156.374 119.451 154.06 123.294 153.704L123.287 153.697Z" fill="#E5EDF8"/>
<path d="M281 274C281 263.507 289.507 255 300 255H940C950.493 255 959 263.507 959 274V439C959 449.493 950.493 458 940 458H300C289.507 458 281 449.493 281 439V274Z" fill="#F0F7FF"/>
<path d="M308.602 337V312.176H312.757V333.104H323.721V337H308.602ZM331.675 337.517C330.33 337.517 329.193 337.264 328.262 336.759C327.331 336.241 326.624 335.558 326.141 334.707C325.67 333.857 325.434 332.92 325.434 331.897C325.434 331.001 325.584 330.196 325.883 329.484C326.181 328.76 326.641 328.139 327.262 327.622C327.882 327.093 328.687 326.662 329.675 326.329C330.422 326.088 331.296 325.869 332.296 325.674C333.307 325.478 334.399 325.3 335.571 325.139C336.755 324.967 337.99 324.783 339.277 324.588L337.795 325.433C337.806 324.145 337.519 323.197 336.933 322.588C336.347 321.979 335.358 321.674 333.968 321.674C333.129 321.674 332.319 321.87 331.537 322.261C330.756 322.651 330.21 323.324 329.899 324.277L326.107 323.088C326.566 321.513 327.44 320.249 328.727 319.295C330.026 318.341 331.773 317.865 333.968 317.865C335.623 317.865 337.077 318.135 338.329 318.675C339.594 319.215 340.53 320.1 341.139 321.33C341.473 321.985 341.674 322.657 341.743 323.347C341.812 324.025 341.846 324.766 341.846 325.57V337H338.209V332.966L338.812 333.621C337.973 334.966 336.99 335.954 335.864 336.586C334.749 337.207 333.353 337.517 331.675 337.517ZM332.503 334.207C333.445 334.207 334.249 334.041 334.916 333.707C335.583 333.374 336.111 332.966 336.502 332.483C336.904 332.001 337.174 331.547 337.312 331.121C337.531 330.593 337.651 329.989 337.674 329.311C337.709 328.622 337.726 328.064 337.726 327.639L339.002 328.018C337.749 328.214 336.674 328.386 335.778 328.536C334.882 328.685 334.111 328.829 333.468 328.967C332.824 329.093 332.255 329.237 331.761 329.398C331.279 329.57 330.871 329.771 330.537 330.001C330.204 330.231 329.945 330.495 329.761 330.794C329.589 331.093 329.503 331.443 329.503 331.845C329.503 332.305 329.618 332.713 329.848 333.069C330.078 333.414 330.411 333.69 330.848 333.897C331.296 334.104 331.847 334.207 332.503 334.207ZM355.109 337.517C353.293 337.517 351.77 337.086 350.541 336.224C349.311 335.362 348.386 334.19 347.765 332.707C347.144 331.213 346.834 329.541 346.834 327.691C346.834 325.818 347.144 324.14 347.765 322.657C348.386 321.174 349.294 320.008 350.489 319.157C351.696 318.296 353.184 317.865 354.954 317.865C356.712 317.865 358.235 318.296 359.522 319.157C360.821 320.008 361.827 321.174 362.539 322.657C363.252 324.128 363.608 325.806 363.608 327.691C363.608 329.553 363.257 331.225 362.556 332.707C361.855 334.19 360.867 335.362 359.591 336.224C358.315 337.086 356.821 337.517 355.109 337.517ZM346.127 337V312.176H350.316V323.933H349.799V337H346.127ZM354.471 333.794C355.551 333.794 356.442 333.523 357.143 332.983C357.844 332.443 358.361 331.713 358.695 330.794C359.04 329.863 359.212 328.829 359.212 327.691C359.212 326.565 359.04 325.542 358.695 324.622C358.35 323.691 357.816 322.956 357.091 322.416C356.367 321.864 355.448 321.588 354.333 321.588C353.276 321.588 352.414 321.847 351.747 322.364C351.081 322.87 350.587 323.582 350.265 324.502C349.954 325.41 349.799 326.473 349.799 327.691C349.799 328.898 349.954 329.961 350.265 330.88C350.587 331.8 351.087 332.518 351.765 333.035C352.454 333.541 353.356 333.794 354.471 333.794Z" fill="#202020"/>
<path d="M308.945 381V356.176H319.202C319.443 356.176 319.754 356.187 320.133 356.21C320.512 356.222 320.863 356.256 321.185 356.314C322.621 356.532 323.805 357.009 324.736 357.744C325.678 358.48 326.374 359.411 326.822 360.537C327.281 361.652 327.511 362.893 327.511 364.261C327.511 366.283 327 368.025 325.977 369.484C324.954 370.932 323.385 371.829 321.271 372.174L319.495 372.329H313.099V381H308.945ZM323.202 381L318.306 370.898L322.529 369.967L327.908 381H323.202ZM313.099 368.45H319.03C319.26 368.45 319.518 368.438 319.805 368.415C320.093 368.392 320.357 368.346 320.598 368.277C321.288 368.105 321.828 367.801 322.219 367.364C322.621 366.927 322.903 366.433 323.064 365.881C323.236 365.33 323.322 364.789 323.322 364.261C323.322 363.732 323.236 363.192 323.064 362.64C322.903 362.077 322.621 361.577 322.219 361.14C321.828 360.704 321.288 360.399 320.598 360.227C320.357 360.158 320.093 360.118 319.805 360.106C319.518 360.083 319.26 360.072 319.03 360.072H313.099V368.45ZM339.998 381.517C338.113 381.517 336.458 381.109 335.033 380.293C333.608 379.477 332.493 378.345 331.689 376.897C330.896 375.449 330.499 373.783 330.499 371.898C330.499 369.863 330.89 368.099 331.671 366.605C332.453 365.1 333.539 363.933 334.93 363.106C336.32 362.278 337.929 361.865 339.757 361.865C341.687 361.865 343.325 362.318 344.67 363.226C346.026 364.123 347.031 365.393 347.687 367.036C348.342 368.68 348.589 370.616 348.428 372.846H344.308V371.329C344.296 369.306 343.94 367.829 343.239 366.898C342.538 365.967 341.434 365.502 339.929 365.502C338.228 365.502 336.964 366.031 336.136 367.088C335.309 368.134 334.895 369.668 334.895 371.691C334.895 373.576 335.309 375.035 336.136 376.07C336.964 377.104 338.171 377.621 339.757 377.621C340.779 377.621 341.659 377.397 342.394 376.949C343.141 376.489 343.716 375.828 344.118 374.966L348.221 376.208C347.508 377.885 346.405 379.19 344.911 380.121C343.428 381.052 341.791 381.517 339.998 381.517ZM333.585 372.846V369.708H346.394V372.846H333.585ZM360.187 381.517C358.268 381.517 356.63 381.092 355.274 380.241C353.918 379.38 352.878 378.207 352.154 376.725C351.441 375.242 351.079 373.564 351.068 371.691C351.079 369.783 351.453 368.094 352.188 366.623C352.935 365.14 353.992 363.979 355.36 363.14C356.728 362.29 358.354 361.865 360.239 361.865C362.353 361.865 364.141 362.399 365.6 363.468C367.071 364.525 368.031 365.973 368.479 367.812L364.342 368.933C364.02 367.933 363.485 367.157 362.738 366.605C361.991 366.042 361.141 365.761 360.187 365.761C359.107 365.761 358.216 366.019 357.515 366.536C356.814 367.042 356.297 367.743 355.963 368.64C355.63 369.536 355.464 370.553 355.464 371.691C355.464 373.461 355.86 374.892 356.653 375.983C357.446 377.075 358.624 377.621 360.187 377.621C361.29 377.621 362.158 377.368 362.79 376.863C363.434 376.357 363.916 375.627 364.238 374.673L368.479 375.621C367.904 377.518 366.899 378.977 365.462 380C364.026 381.011 362.267 381.517 360.187 381.517ZM379.479 381.517C377.617 381.517 375.991 381.098 374.601 380.259C373.21 379.42 372.13 378.265 371.36 376.794C370.601 375.311 370.222 373.61 370.222 371.691C370.222 369.737 370.613 368.025 371.394 366.554C372.176 365.083 373.262 363.933 374.652 363.106C376.043 362.278 377.652 361.865 379.479 361.865C381.353 361.865 382.985 362.284 384.375 363.123C385.766 363.962 386.846 365.123 387.616 366.605C388.386 368.076 388.771 369.772 388.771 371.691C388.771 373.622 388.38 375.328 387.599 376.811C386.829 378.282 385.749 379.437 384.358 380.276C382.967 381.103 381.341 381.517 379.479 381.517ZM379.479 377.621C381.134 377.621 382.364 377.069 383.168 375.966C383.973 374.863 384.375 373.438 384.375 371.691C384.375 369.886 383.967 368.45 383.151 367.381C382.335 366.301 381.111 365.761 379.479 365.761C378.365 365.761 377.445 366.013 376.721 366.519C376.008 367.013 375.48 367.709 375.135 368.605C374.79 369.49 374.618 370.519 374.618 371.691C374.618 373.495 375.026 374.938 375.842 376.018C376.669 377.087 377.882 377.621 379.479 377.621ZM392.397 381V362.382H396.069V366.916L395.621 366.329C395.851 365.709 396.155 365.146 396.535 364.64C396.925 364.123 397.391 363.698 397.931 363.364C398.391 363.054 398.896 362.813 399.448 362.64C400.011 362.456 400.586 362.347 401.172 362.313C401.758 362.267 402.327 362.29 402.879 362.382V366.261C402.327 366.1 401.689 366.048 400.965 366.105C400.252 366.163 399.609 366.364 399.034 366.709C398.46 367.019 397.988 367.416 397.621 367.898C397.264 368.381 397 368.933 396.828 369.553C396.655 370.162 396.569 370.823 396.569 371.536V381H392.397ZM413.124 381.517C411.411 381.517 409.917 381.086 408.642 380.224C407.366 379.362 406.377 378.19 405.676 376.707C404.975 375.225 404.625 373.553 404.625 371.691C404.625 369.806 404.975 368.128 405.676 366.657C406.389 365.174 407.395 364.008 408.693 363.157C409.992 362.296 411.52 361.865 413.279 361.865C415.049 361.865 416.531 362.296 417.727 363.157C418.933 364.008 419.847 365.174 420.468 366.657C421.088 368.14 421.398 369.818 421.398 371.691C421.398 373.541 421.088 375.213 420.468 376.707C419.847 378.19 418.922 379.362 417.692 380.224C416.462 381.086 414.94 381.517 413.124 381.517ZM413.762 377.794C414.876 377.794 415.773 377.541 416.451 377.035C417.14 376.518 417.64 375.8 417.951 374.88C418.272 373.961 418.433 372.898 418.433 371.691C418.433 370.473 418.272 369.41 417.951 368.502C417.64 367.582 417.152 366.87 416.485 366.364C415.819 365.847 414.957 365.588 413.899 365.588C412.785 365.588 411.865 365.864 411.141 366.416C410.417 366.956 409.883 367.691 409.538 368.622C409.193 369.542 409.021 370.565 409.021 371.691C409.021 372.829 409.187 373.863 409.521 374.794C409.865 375.713 410.388 376.443 411.089 376.983C411.791 377.523 412.681 377.794 413.762 377.794ZM418.433 381V367.933H417.916V356.176H422.105V381H418.433Z" fill="#202020"/>
<path d="M308.257 425V400.176H324.29V404.072H312.412V410.192H322.221V414.088H312.412V421.104H324.29V425H308.257ZM328.598 425V400.176H332.753V421.104H343.717V425H328.598ZM346.465 425V400.176H350.671L362.187 417.673V400.176H366.393V425H362.187L350.671 407.502V425H346.465Z" fill="#202020"/>
<rect x="456" y="312" width="2" height="113" rx="1" fill="black"/>
<path d="M485.11 339V324.18H479.572V321.528H494.08V324.18H488.568V339H485.11ZM506.745 326.26V339H504.093L503.677 337.154C502.741 338.532 501.155 339.312 499.309 339.312C496.397 339.312 494.317 337.31 494.317 334.45V326.26H497.645V333.904C497.645 335.49 498.763 336.582 500.323 336.582C502.117 336.582 503.417 335.23 503.417 333.28V326.26H506.745ZM510.01 339V326.26H512.662L513.078 328.236C513.806 326.858 515.184 326.052 516.848 326.052C517.29 326.052 517.862 326.104 518.382 326.234L518.07 328.886C517.628 328.782 517.082 328.704 516.588 328.704C514.612 328.704 513.338 330.238 513.338 332.422V339H510.01ZM520.316 339V326.26H522.968L523.384 328.106C524.346 326.728 525.932 325.948 527.778 325.948C530.69 325.948 532.744 327.95 532.744 330.81V339H529.416V331.33C529.416 329.77 528.298 328.678 526.764 328.678C524.97 328.678 523.644 330.03 523.644 331.98V339H520.316ZM541.917 339V320.696H545.245V327.898C546.155 326.65 547.663 325.948 549.379 325.948C552.291 325.948 554.345 327.95 554.345 330.81V339H551.017V331.33C551.017 329.77 549.899 328.678 548.365 328.678C546.571 328.678 545.245 330.03 545.245 331.98V339H541.917ZM556.648 332.63C556.648 328.704 559.482 325.948 563.512 325.948C567.568 325.948 570.402 328.704 570.402 332.63C570.402 336.556 567.568 339.312 563.512 339.312C559.482 339.312 556.648 336.556 556.648 332.63ZM560.028 332.63C560.028 335.022 561.484 336.712 563.512 336.712C565.566 336.712 567.022 335.022 567.022 332.63C567.022 330.212 565.566 328.548 563.512 328.548C561.484 328.548 560.028 330.212 560.028 332.63ZM585.107 326.26V339H582.455L582.039 337.154C581.103 338.532 579.517 339.312 577.671 339.312C574.759 339.312 572.679 337.31 572.679 334.45V326.26H576.007V333.904C576.007 335.49 577.125 336.582 578.685 336.582C580.479 336.582 581.779 335.23 581.779 333.28V326.26H585.107ZM588.373 339V326.26H591.025L591.441 328.236C592.169 326.858 593.547 326.052 595.211 326.052C595.653 326.052 596.225 326.104 596.745 326.234L596.433 328.886C595.991 328.782 595.445 328.704 594.951 328.704C592.975 328.704 591.701 330.238 591.701 332.422V339H588.373ZM598.028 329.796C598.028 327.56 600.056 325.948 602.994 325.948C604.476 325.948 606.062 326.26 607.674 326.832L606.946 329.224C605.672 328.73 604.398 328.418 603.254 328.418C602.058 328.418 601.278 328.964 601.278 329.796C601.278 332.11 608.09 330.42 608.09 335.36C608.09 337.674 606.01 339.312 602.994 339.312C601.434 339.312 599.718 338.974 597.924 338.298L598.626 335.932C600.108 336.53 601.512 336.842 602.734 336.842C604.008 336.842 604.814 336.244 604.814 335.36C604.814 332.942 598.028 334.632 598.028 329.796ZM615.945 332.63C615.945 328.704 618.779 325.948 622.809 325.948C626.865 325.948 629.699 328.704 629.699 332.63C629.699 336.556 626.865 339.312 622.809 339.312C618.779 339.312 615.945 336.556 615.945 332.63ZM619.325 332.63C619.325 335.022 620.781 336.712 622.809 336.712C624.863 336.712 626.319 335.022 626.319 332.63C626.319 330.212 624.863 328.548 622.809 328.548C620.781 328.548 619.325 330.212 619.325 332.63ZM632.798 339V328.782H630.432V326.26H632.798V324.492C632.798 322.048 634.566 320.384 637.114 320.384C638.024 320.384 638.986 320.514 640 320.774L639.558 323.27C638.96 323.114 638.414 323.036 637.92 323.036C636.854 323.036 636.126 323.764 636.126 324.83V326.26H639.246V328.782H636.126V339H632.798ZM665.137 326.26L661.003 339H657.779L655.283 330.056L652.813 339H649.589L645.429 326.26H648.783L651.253 335.204L653.749 326.26H656.843L659.313 335.204L661.809 326.26H665.137ZM666.105 332.63C666.105 328.704 668.939 325.948 672.969 325.948C677.025 325.948 679.859 328.704 679.859 332.63C679.859 336.556 677.025 339.312 672.969 339.312C668.939 339.312 666.105 336.556 666.105 332.63ZM669.485 332.63C669.485 335.022 670.941 336.712 672.969 336.712C675.023 336.712 676.479 335.022 676.479 332.63C676.479 330.212 675.023 328.548 672.969 328.548C670.941 328.548 669.485 330.212 669.485 332.63ZM682.344 339V326.26H684.996L685.412 328.236C686.14 326.858 687.518 326.052 689.182 326.052C689.624 326.052 690.196 326.104 690.716 326.234L690.404 328.886C689.962 328.782 689.416 328.704 688.922 328.704C686.946 328.704 685.672 330.238 685.672 332.422V339H682.344ZM692.65 339V320.696H695.848V331.694L700.71 326.26H704.506L699.02 332.214L704.714 339H700.866L696.862 334.164L695.848 335.204V339H692.65ZM712.042 339V326.26H715.37V339H712.042ZM711.73 322.62C711.73 321.45 712.562 320.618 713.706 320.618C714.876 320.618 715.708 321.45 715.708 322.62C715.708 323.79 714.876 324.622 713.706 324.622C712.562 324.622 711.73 323.79 711.73 322.62ZM718.641 339V326.26H721.293L721.709 328.106C722.671 326.728 724.257 325.948 726.103 325.948C729.015 325.948 731.069 327.95 731.069 330.81V339H727.741V331.33C727.741 329.77 726.623 328.678 725.089 328.678C723.295 328.678 721.969 330.03 721.969 331.98V339H718.641ZM738.397 322.516V326.26H741.933V328.782H738.397V334.866C738.397 335.932 739.125 336.66 740.191 336.66C740.685 336.66 741.231 336.582 741.829 336.426L742.271 338.922C741.257 339.182 740.295 339.312 739.385 339.312C736.837 339.312 735.069 337.648 735.069 335.204V328.782H732.703V326.26H735.069V322.516H738.397ZM743.094 332.63C743.094 328.704 745.928 325.948 749.958 325.948C754.014 325.948 756.848 328.704 756.848 332.63C756.848 336.556 754.014 339.312 749.958 339.312C745.928 339.312 743.094 336.556 743.094 332.63ZM746.474 332.63C746.474 335.022 747.93 336.712 749.958 336.712C752.012 336.712 753.468 335.022 753.468 332.63C753.468 330.212 752.012 328.548 749.958 328.548C747.93 328.548 746.474 330.212 746.474 332.63ZM765.449 339V326.26H768.101L768.517 328.002C769.531 326.676 771.013 325.948 772.703 325.948C774.549 325.948 776.057 326.832 776.785 328.288C777.955 326.78 779.541 325.948 781.387 325.948C784.169 325.948 786.145 327.872 786.145 330.602V339H782.817V331.122C782.817 329.692 781.803 328.678 780.347 328.678C778.657 328.678 777.461 329.952 777.461 331.772V339H774.133V331.122C774.133 329.692 773.119 328.678 771.689 328.678C769.973 328.678 768.777 329.952 768.777 331.772V339H765.449ZM789.211 339V326.26H792.539V339H789.211ZM788.899 322.62C788.899 321.45 789.731 320.618 790.875 320.618C792.045 320.618 792.877 321.45 792.877 322.62C792.877 323.79 792.045 324.622 790.875 324.622C789.731 324.622 788.899 323.79 788.899 322.62ZM795.81 339V326.26H798.462L798.878 328.106C799.84 326.728 801.426 325.948 803.272 325.948C806.184 325.948 808.238 327.95 808.238 330.81V339H804.91V331.33C804.91 329.77 803.792 328.678 802.258 328.678C800.464 328.678 799.138 330.03 799.138 331.98V339H795.81ZM823.515 326.26V339H820.863L820.447 337.154C819.511 338.532 817.925 339.312 816.079 339.312C813.167 339.312 811.087 337.31 811.087 334.45V326.26H814.415V333.904C814.415 335.49 815.533 336.582 817.093 336.582C818.887 336.582 820.187 335.23 820.187 333.28V326.26H823.515ZM831.356 322.516V326.26H834.892V328.782H831.356V334.866C831.356 335.932 832.084 336.66 833.15 336.66C833.644 336.66 834.19 336.582 834.788 336.426L835.23 338.922C834.216 339.182 833.254 339.312 832.344 339.312C829.796 339.312 828.028 337.648 828.028 335.204V328.782H825.662V326.26H828.028V322.516H831.356ZM836.053 332.63C836.053 328.704 838.731 325.948 842.579 325.948C846.193 325.948 848.715 328.574 848.715 332.396C848.715 332.76 848.689 333.124 848.663 333.462H839.381C839.615 335.49 841.227 336.842 843.411 336.842C844.503 336.842 845.751 336.504 847.077 335.776L848.091 338.038C846.297 338.922 844.503 339.312 842.995 339.312C838.887 339.312 836.053 336.556 836.053 332.63ZM842.579 328.418C840.863 328.418 839.589 329.64 839.381 331.46H845.517C845.413 329.64 844.243 328.418 842.579 328.418ZM850.347 329.796C850.347 327.56 852.375 325.948 855.313 325.948C856.795 325.948 858.381 326.26 859.993 326.832L859.265 329.224C857.991 328.73 856.717 328.418 855.573 328.418C854.377 328.418 853.597 328.964 853.597 329.796C853.597 332.11 860.409 330.42 860.409 335.36C860.409 337.674 858.329 339.312 855.313 339.312C853.753 339.312 852.037 338.974 850.243 338.298L850.945 335.932C852.427 336.53 853.831 336.842 855.053 336.842C856.327 336.842 857.133 336.244 857.133 335.36C857.133 332.942 850.347 334.632 850.347 329.796ZM861.784 333.748V331.2H873.12V333.748H861.784ZM480.248 361.588C480.248 359.534 482.146 358.052 484.85 358.052C486.176 358.052 487.632 358.338 489.114 358.936L488.646 360.47C487.346 359.924 486.098 359.638 485.006 359.638C483.368 359.638 482.302 360.418 482.302 361.588C482.302 364.708 489.53 362.836 489.53 367.672C489.53 369.804 487.632 371.312 484.85 371.312C483.394 371.312 481.808 371 480.144 370.35L480.638 368.816C482.094 369.414 483.472 369.726 484.694 369.726C486.384 369.726 487.502 368.894 487.502 367.672C487.502 364.474 480.248 366.32 480.248 361.588ZM495.601 354.62V358.364H499.579V360.002H495.601V367.438C495.601 368.738 496.485 369.622 497.785 369.622C498.331 369.622 498.929 369.518 499.579 369.362L499.865 370.974C498.981 371.208 498.149 371.312 497.343 371.312C495.081 371.312 493.547 369.804 493.547 367.62V360.002H490.921V358.364H493.547V354.62H495.601ZM502.605 371V358.364H504.269L504.529 360.756C505.153 359.144 506.635 358.156 508.455 358.156C508.923 358.156 509.495 358.234 510.041 358.364L509.807 360.054C509.313 359.95 508.793 359.872 508.299 359.872C506.141 359.872 504.659 361.614 504.659 364.162V371H502.605ZM511.213 364.682C511.213 360.782 513.761 358.052 517.375 358.052C520.755 358.052 523.095 360.678 523.095 364.448C523.095 364.708 523.095 364.942 523.069 365.202H513.293C513.475 367.88 515.347 369.726 517.999 369.726C519.143 369.726 520.469 369.388 521.821 368.66L522.471 370.09C520.807 370.922 519.195 371.312 517.791 371.312C513.943 371.312 511.213 368.582 511.213 364.682ZM517.375 359.638C515.113 359.638 513.501 361.328 513.293 363.876H521.093C521.015 361.38 519.507 359.638 517.375 359.638ZM525.048 367.516C525.048 364.864 527.232 363.33 530.82 363.33C531.704 363.33 532.666 363.434 533.654 363.694V362.394C533.654 360.782 532.406 359.638 530.56 359.638C529.208 359.638 527.83 359.95 526.374 360.574L525.802 359.066C527.57 358.39 529.182 358.052 530.794 358.052C533.654 358.052 535.63 359.82 535.63 362.446V368.556C535.63 369.258 536.046 369.7 536.774 369.7C536.982 369.7 537.294 369.648 537.45 369.622L537.606 371.182C537.19 371.26 536.722 371.312 536.254 371.312C534.876 371.312 533.992 370.506 533.836 369.206C532.822 370.532 531.184 371.312 529.442 371.312C526.946 371.312 525.048 369.674 525.048 367.516ZM527.076 367.386C527.076 368.764 528.298 369.804 529.936 369.804C532.12 369.804 533.654 368.244 533.654 366.008V364.942C532.77 364.734 531.912 364.63 531.054 364.63C528.558 364.63 527.076 365.67 527.076 367.386ZM539.793 371V358.364H541.457L541.717 360.574C542.601 358.962 544.161 358.052 546.059 358.052C548.035 358.052 549.621 359.118 550.219 360.808C551.207 359.092 552.845 358.052 554.847 358.052C557.551 358.052 559.449 359.924 559.449 362.55V371H557.369V362.862C557.369 361.068 556.095 359.794 554.275 359.794C552.169 359.794 550.661 361.406 550.661 363.668V371H548.581V362.862C548.581 361.068 547.307 359.794 545.461 359.794C543.355 359.794 541.847 361.406 541.847 363.668V371H539.793ZM565.254 352.696V368.088C565.254 369.024 565.852 369.622 566.788 369.622C567.152 369.622 567.594 369.544 568.036 369.44L568.296 371.078C567.594 371.234 566.918 371.312 566.346 371.312C564.396 371.312 563.2 370.142 563.2 368.27V352.696H565.254ZM570.484 371V358.364H572.538V371H570.484ZM570.12 354.516C570.12 353.71 570.692 353.138 571.524 353.138C572.33 353.138 572.902 353.71 572.902 354.516C572.902 355.322 572.33 355.894 571.524 355.894C570.692 355.894 570.12 355.322 570.12 354.516ZM576.524 371V358.364H578.188L578.448 360.678C579.306 359.014 580.996 358.052 582.998 358.052C585.806 358.052 587.808 359.976 587.808 362.758V371H585.728V363.07C585.728 361.146 584.35 359.794 582.4 359.794C580.216 359.794 578.578 361.458 578.578 363.876V371H576.524ZM590.642 364.682C590.642 360.782 593.19 358.052 596.804 358.052C600.184 358.052 602.524 360.678 602.524 364.448C602.524 364.708 602.524 364.942 602.498 365.202H592.722C592.904 367.88 594.776 369.726 597.428 369.726C598.572 369.726 599.898 369.388 601.25 368.66L601.9 370.09C600.236 370.922 598.624 371.312 597.22 371.312C593.372 371.312 590.642 368.582 590.642 364.682ZM596.804 359.638C594.542 359.638 592.93 361.328 592.722 363.876H600.522C600.444 361.38 598.936 359.638 596.804 359.638ZM621.965 358.364L616.089 372.898C615.049 375.524 613.749 376.72 611.721 376.72C611.227 376.72 610.577 376.642 609.953 376.486L610.239 374.822C610.707 374.952 611.175 375.03 611.513 375.03C612.787 375.03 613.541 374.302 614.217 372.534L614.867 370.896L609.641 358.364H611.799L615.855 368.608L619.781 358.364H621.965ZM623.234 364.682C623.234 360.782 625.912 358.052 629.682 358.052C633.426 358.052 636.104 360.782 636.104 364.682C636.104 368.582 633.426 371.312 629.682 371.312C625.912 371.312 623.234 368.582 623.234 364.682ZM625.366 364.682C625.366 367.62 627.134 369.648 629.682 369.648C632.204 369.648 633.998 367.62 633.998 364.682C633.998 361.77 632.204 359.716 629.682 359.716C627.134 359.716 625.366 361.77 625.366 364.682ZM650.249 358.364V371H648.585L648.325 368.686C647.441 370.35 645.751 371.312 643.749 371.312C640.941 371.312 638.965 369.388 638.965 366.606V358.364H641.019V366.32C641.019 368.244 642.423 369.57 644.347 369.57C646.531 369.57 648.169 367.906 648.169 365.488V358.364H650.249ZM654.201 371V358.364H655.865L656.125 360.756C656.749 359.144 658.231 358.156 660.051 358.156C660.519 358.156 661.091 358.234 661.637 358.364L661.403 360.054C660.909 359.95 660.389 359.872 659.895 359.872C657.737 359.872 656.255 361.614 656.255 364.162V371H654.201ZM669.734 371V358.364H671.398L671.658 360.756C672.282 359.144 673.764 358.156 675.584 358.156C676.052 358.156 676.624 358.234 677.17 358.364L676.936 360.054C676.442 359.95 675.922 359.872 675.428 359.872C673.27 359.872 671.788 361.614 671.788 364.162V371H669.734ZM678.342 364.682C678.342 360.782 680.89 358.052 684.504 358.052C687.884 358.052 690.224 360.678 690.224 364.448C690.224 364.708 690.224 364.942 690.198 365.202H680.422C680.604 367.88 682.476 369.726 685.128 369.726C686.272 369.726 687.598 369.388 688.95 368.66L689.6 370.09C687.936 370.922 686.324 371.312 684.92 371.312C681.072 371.312 678.342 368.582 678.342 364.682ZM684.504 359.638C682.242 359.638 680.63 361.328 680.422 363.876H688.222C688.144 361.38 686.636 359.638 684.504 359.638ZM692.281 361.588C692.281 359.534 694.179 358.052 696.883 358.052C698.209 358.052 699.665 358.338 701.147 358.936L700.679 360.47C699.379 359.924 698.131 359.638 697.039 359.638C695.401 359.638 694.335 360.418 694.335 361.588C694.335 364.708 701.563 362.836 701.563 367.672C701.563 369.804 699.665 371.312 696.883 371.312C695.427 371.312 693.841 371 692.177 370.35L692.671 368.816C694.127 369.414 695.505 369.726 696.727 369.726C698.417 369.726 699.535 368.894 699.535 367.672C699.535 364.474 692.281 366.32 692.281 361.588ZM703.727 364.682C703.727 360.782 706.275 358.052 709.889 358.052C713.269 358.052 715.609 360.678 715.609 364.448C715.609 364.708 715.609 364.942 715.583 365.202H705.807C705.989 367.88 707.861 369.726 710.513 369.726C711.657 369.726 712.983 369.388 714.335 368.66L714.985 370.09C713.321 370.922 711.709 371.312 710.305 371.312C706.457 371.312 703.727 368.582 703.727 364.682ZM709.889 359.638C707.627 359.638 706.015 361.328 705.807 363.876H713.607C713.529 361.38 712.021 359.638 709.889 359.638ZM717.562 367.516C717.562 364.864 719.746 363.33 723.334 363.33C724.218 363.33 725.18 363.434 726.168 363.694V362.394C726.168 360.782 724.92 359.638 723.074 359.638C721.722 359.638 720.344 359.95 718.888 360.574L718.316 359.066C720.084 358.39 721.696 358.052 723.308 358.052C726.168 358.052 728.144 359.82 728.144 362.446V368.556C728.144 369.258 728.56 369.7 729.288 369.7C729.496 369.7 729.808 369.648 729.964 369.622L730.12 371.182C729.704 371.26 729.236 371.312 728.768 371.312C727.39 371.312 726.506 370.506 726.35 369.206C725.336 370.532 723.698 371.312 721.956 371.312C719.46 371.312 717.562 369.674 717.562 367.516ZM719.59 367.386C719.59 368.764 720.812 369.804 722.45 369.804C724.634 369.804 726.168 368.244 726.168 366.008V364.942C725.284 364.734 724.426 364.63 723.568 364.63C721.072 364.63 719.59 365.67 719.59 367.386ZM732.306 371V358.364H733.97L734.23 360.756C734.854 359.144 736.336 358.156 738.156 358.156C738.624 358.156 739.196 358.234 739.742 358.364L739.508 360.054C739.014 359.95 738.494 359.872 738 359.872C735.842 359.872 734.36 361.614 734.36 364.162V371H732.306ZM740.915 364.682C740.915 360.808 743.567 358.052 747.285 358.052C748.819 358.052 750.327 358.52 751.757 359.482L750.899 360.912C749.807 360.158 748.715 359.768 747.545 359.768C744.893 359.768 743.047 361.77 743.047 364.682C743.047 367.594 744.893 369.622 747.545 369.622C748.715 369.622 749.807 369.206 750.899 368.452L751.757 369.882C750.327 370.844 748.819 371.312 747.285 371.312C743.567 371.312 740.915 368.582 740.915 364.682ZM754.492 371V352.696H756.546V360.574C757.404 358.988 759.042 358.052 760.966 358.052C763.774 358.052 765.776 359.976 765.776 362.758V371H763.696V363.07C763.696 361.146 762.318 359.794 760.368 359.794C758.184 359.794 756.546 361.458 756.546 363.876V371H754.492ZM792.546 358.364L788.386 371H786.358L783.264 360.808L780.144 371H778.116L773.982 358.364H776.062L779.182 368.556L782.276 358.364H784.226L787.346 368.556L790.44 358.364H792.546ZM795.26 371V358.364H797.314V371H795.26ZM794.896 354.516C794.896 353.71 795.468 353.138 796.3 353.138C797.106 353.138 797.678 353.71 797.678 354.516C797.678 355.322 797.106 355.894 796.3 355.894C795.468 355.894 794.896 355.322 794.896 354.516ZM804.602 354.62V358.364H808.58V360.002H804.602V367.438C804.602 368.738 805.486 369.622 806.786 369.622C807.332 369.622 807.93 369.518 808.58 369.362L808.866 370.974C807.982 371.208 807.15 371.312 806.344 371.312C804.082 371.312 802.548 369.804 802.548 367.62V360.002H799.922V358.364H802.548V354.62H804.602ZM811.605 371V352.696H813.659V360.574C814.517 358.988 816.155 358.052 818.079 358.052C820.887 358.052 822.889 359.976 822.889 362.758V371H820.809V363.07C820.809 361.146 819.431 359.794 817.481 359.794C815.297 359.794 813.659 361.458 813.659 363.876V371H811.605ZM479.936 396.63C479.936 392.704 482.614 389.948 486.462 389.948C490.076 389.948 492.598 392.574 492.598 396.396C492.598 396.76 492.572 397.124 492.546 397.462H483.264C483.498 399.49 485.11 400.842 487.294 400.842C488.386 400.842 489.634 400.504 490.96 399.776L491.974 402.038C490.18 402.922 488.386 403.312 486.878 403.312C482.77 403.312 479.936 400.556 479.936 396.63ZM486.462 392.418C484.746 392.418 483.472 393.64 483.264 395.46H489.4C489.296 393.64 488.126 392.418 486.462 392.418ZM495.824 403V392.782H493.458V390.26H495.824V388.492C495.824 386.048 497.592 384.384 500.14 384.384C501.05 384.384 502.012 384.514 503.026 384.774L502.584 387.27C501.986 387.114 501.44 387.036 500.946 387.036C499.88 387.036 499.152 387.764 499.152 388.83V390.26H504.378V389.09C504.378 386.334 506.588 384.384 509.708 384.384C511.06 384.384 512.516 384.618 514.102 385.086L513.504 387.608C512.256 387.218 511.19 386.984 510.254 386.984C508.72 386.984 507.706 387.894 507.706 389.22V390.26H515.844V403H512.516V392.782H507.706V403H504.378V392.782H499.152V403H495.824ZM518.346 396.63C518.346 392.704 521.128 389.948 525.08 389.948C526.77 389.948 528.434 390.442 529.968 391.43L528.616 393.666C527.628 392.99 526.614 392.6 525.548 392.6C523.312 392.6 521.726 394.264 521.726 396.63C521.726 398.996 523.312 400.66 525.548 400.66C526.614 400.66 527.628 400.244 528.616 399.568L529.968 401.83C528.434 402.818 526.77 403.312 525.08 403.312C521.128 403.312 518.346 400.53 518.346 396.63ZM531.97 403V390.26H535.298V403H531.97ZM531.658 386.62C531.658 385.45 532.49 384.618 533.634 384.618C534.804 384.618 535.636 385.45 535.636 386.62C535.636 387.79 534.804 388.622 533.634 388.622C532.49 388.622 531.658 387.79 531.658 386.62ZM537.814 396.63C537.814 392.704 540.492 389.948 544.34 389.948C547.954 389.948 550.476 392.574 550.476 396.396C550.476 396.76 550.45 397.124 550.424 397.462H541.142C541.376 399.49 542.988 400.842 545.172 400.842C546.264 400.842 547.512 400.504 548.838 399.776L549.852 402.038C548.058 402.922 546.264 403.312 544.756 403.312C540.648 403.312 537.814 400.556 537.814 396.63ZM544.34 392.418C542.624 392.418 541.35 393.64 541.142 395.46H547.278C547.174 393.64 546.004 392.418 544.34 392.418ZM552.759 403V390.26H555.411L555.827 392.106C556.789 390.728 558.375 389.948 560.221 389.948C563.133 389.948 565.187 391.95 565.187 394.81V403H561.859V395.33C561.859 393.77 560.741 392.678 559.207 392.678C557.413 392.678 556.087 394.03 556.087 395.98V403H552.759ZM567.49 396.63C567.49 392.704 570.272 389.948 574.224 389.948C575.914 389.948 577.578 390.442 579.112 391.43L577.76 393.666C576.772 392.99 575.758 392.6 574.692 392.6C572.456 392.6 570.87 394.264 570.87 396.63C570.87 398.996 572.456 400.66 574.692 400.66C575.758 400.66 576.772 400.244 577.76 399.568L579.112 401.83C577.578 402.818 575.914 403.312 574.224 403.312C570.272 403.312 567.49 400.53 567.49 396.63ZM593.431 390.26L587.763 404.43C586.619 407.316 585.007 408.72 582.667 408.72C582.121 408.72 581.419 408.642 580.691 408.486L581.133 405.886C581.575 405.99 582.017 406.068 582.355 406.068C583.499 406.068 584.175 405.444 584.773 403.962L585.215 402.844L579.963 390.26H583.447L586.749 399.23L589.973 390.26H593.431ZM600.824 399.516C600.824 396.864 603.008 395.33 606.596 395.33C607.48 395.33 608.442 395.434 609.43 395.694V394.394C609.43 392.782 608.182 391.638 606.336 391.638C604.984 391.638 603.606 391.95 602.15 392.574L601.578 391.066C603.346 390.39 604.958 390.052 606.57 390.052C609.43 390.052 611.406 391.82 611.406 394.446V400.556C611.406 401.258 611.822 401.7 612.55 401.7C612.758 401.7 613.07 401.648 613.226 401.622L613.382 403.182C612.966 403.26 612.498 403.312 612.03 403.312C610.652 403.312 609.768 402.506 609.612 401.206C608.598 402.532 606.96 403.312 605.218 403.312C602.722 403.312 600.824 401.674 600.824 399.516ZM602.852 399.386C602.852 400.764 604.074 401.804 605.712 401.804C607.896 401.804 609.43 400.244 609.43 398.008V396.942C608.546 396.734 607.688 396.63 606.83 396.63C604.334 396.63 602.852 397.67 602.852 399.386ZM615.568 403V390.364H617.232L617.492 392.678C618.35 391.014 620.04 390.052 622.042 390.052C624.85 390.052 626.852 391.976 626.852 394.758V403H624.772V395.07C624.772 393.146 623.394 391.794 621.444 391.794C619.26 391.794 617.622 393.458 617.622 395.876V403H615.568ZM641.673 384.696V403H640.009L639.749 400.894C638.839 402.454 637.279 403.312 635.407 403.312C632.079 403.312 629.687 400.556 629.687 396.682C629.687 392.808 632.079 390.052 635.407 390.052C637.201 390.052 638.709 390.884 639.593 392.366V384.696H641.673ZM631.819 396.682C631.819 399.594 633.509 401.622 635.901 401.622C638.085 401.622 639.619 400.01 639.619 397.696V395.668C639.619 393.38 638.085 391.742 635.901 391.742C633.509 391.742 631.819 393.796 631.819 396.682ZM650.727 393.796C650.727 391.56 652.755 389.948 655.693 389.948C657.175 389.948 658.761 390.26 660.373 390.832L659.645 393.224C658.371 392.73 657.097 392.418 655.953 392.418C654.757 392.418 653.977 392.964 653.977 393.796C653.977 396.11 660.789 394.42 660.789 399.36C660.789 401.674 658.709 403.312 655.693 403.312C654.133 403.312 652.417 402.974 650.623 402.298L651.325 399.932C652.807 400.53 654.211 400.842 655.433 400.842C656.707 400.842 657.513 400.244 657.513 399.36C657.513 396.942 650.727 398.632 650.727 393.796ZM662.528 399.308C662.528 396.63 664.712 395.07 668.404 395.07C669.184 395.07 670.042 395.148 670.874 395.33V394.654C670.874 393.354 669.834 392.418 668.248 392.418C666.948 392.418 665.544 392.73 664.062 393.328L663.23 391.014C665.128 390.286 666.922 389.948 668.638 389.948C671.862 389.948 673.994 391.872 673.994 394.706V399.88C673.994 400.426 674.332 400.79 674.878 400.79C675.138 400.79 675.424 400.738 675.528 400.712L675.762 403.13C675.216 403.234 674.618 403.312 673.994 403.312C672.694 403.312 671.706 402.662 671.264 401.596C670.172 402.688 668.638 403.312 667.078 403.312C664.426 403.312 662.528 401.648 662.528 399.308ZM665.726 399.126C665.726 400.166 666.688 400.972 667.936 400.972C669.704 400.972 670.874 399.75 670.874 398.008V397.254C670.198 397.072 669.496 396.994 668.794 396.994C666.896 396.994 665.726 397.8 665.726 399.126ZM688.85 390.26L683.65 403H680.582L675.382 390.26H678.866L682.116 399.23L685.392 390.26H688.85ZM690.672 403V390.26H694V403H690.672ZM690.36 386.62C690.36 385.45 691.192 384.618 692.336 384.618C693.506 384.618 694.338 385.45 694.338 386.62C694.338 387.79 693.506 388.622 692.336 388.622C691.192 388.622 690.36 387.79 690.36 386.62ZM697.271 403V390.26H699.923L700.339 392.106C701.301 390.728 702.887 389.948 704.733 389.948C707.645 389.948 709.699 391.95 709.699 394.81V403H706.371V395.33C706.371 393.77 705.253 392.678 703.719 392.678C701.925 392.678 700.599 394.03 700.599 395.98V403H697.271ZM724.976 390.26V402.766C724.976 406.224 722.09 408.72 718.112 408.72C716.474 408.72 714.628 408.356 712.704 407.55L713.614 405.08C715.226 405.808 716.682 406.12 717.852 406.12C720.088 406.12 721.648 404.794 721.648 402.896V401.544C720.738 402.688 719.412 403.312 717.826 403.312C714.42 403.312 712.002 400.556 712.002 396.63C712.002 392.704 714.42 389.948 717.826 389.948C719.542 389.948 720.972 390.65 721.908 391.898L722.324 390.26H724.976ZM715.382 396.63C715.382 398.996 716.76 400.686 718.684 400.686C720.478 400.686 721.726 399.334 721.726 397.488V395.772C721.726 393.9 720.478 392.574 718.684 392.574C716.76 392.574 715.382 394.238 715.382 396.63ZM727.591 393.796C727.591 391.56 729.619 389.948 732.557 389.948C734.039 389.948 735.625 390.26 737.237 390.832L736.509 393.224C735.235 392.73 733.961 392.418 732.817 392.418C731.621 392.418 730.841 392.964 730.841 393.796C730.841 396.11 737.653 394.42 737.653 399.36C737.653 401.674 735.573 403.312 732.557 403.312C730.997 403.312 729.281 402.974 727.487 402.298L728.189 399.932C729.671 400.53 731.075 400.842 732.297 400.842C733.571 400.842 734.377 400.244 734.377 399.36C734.377 396.942 727.591 398.632 727.591 393.796ZM739.809 401.206C739.809 399.984 740.693 399.126 741.889 399.126C743.111 399.126 743.969 399.984 743.969 401.206C743.969 402.402 743.111 403.286 741.889 403.286C740.693 403.286 739.809 402.402 739.809 401.206Z" fill="black"/>
<path d="M940.937 216L913.531 260.943L921.7 272.066L926.59 260.809L940.937 216Z" fill="#14345B"/>
<path d="M913.535 260.945L940.94 216.004L897.398 261.351L913.535 260.945Z" fill="#5697F1"/>
<path d="M921.258 260.751L943.15 260.2L940.938 216.004L921.258 260.751Z" fill="#5697F1"/>
<path d="M869.411 331.25C870.444 331.075 871.452 330.866 872.418 330.624L872.603 331.335C871.614 331.583 870.58 331.799 869.519 331.977L869.411 331.25ZM889.193 310.791L888.433 310.966L886.982 308.559L887.383 308.344C887.383 308.344 887.383 308.344 887.382 308.343C887.374 308.328 887.366 308.313 887.358 308.298L888.032 307.907C888.046 307.933 888.06 307.958 888.074 307.984L888.075 307.986C888.563 308.885 888.938 309.827 889.193 310.791ZM894.894 309.631L894.895 309.631C895.381 309.316 895.871 308.986 896.354 308.646L896.796 309.24C896.304 309.584 895.808 309.919 895.315 310.239C894.938 310.483 894.549 310.721 894.156 310.95L893.786 310.312C894.161 310.092 894.532 309.864 894.894 309.631ZM873.72 313.925C872.62 313.454 871.73 312.852 871.053 312.136L871.666 311.659C872.273 312.294 873.062 312.816 874.008 313.227L873.72 313.925ZM884.402 304.643C883.659 303.995 882.856 303.43 882.005 302.958L882.369 302.291C883.282 302.792 884.143 303.396 884.94 304.092L884.402 304.643ZM870.349 307.469L869.572 307.44C869.67 306.648 869.906 305.807 870.282 304.933C870.363 304.746 870.449 304.564 870.54 304.389L871.202 304.76C871.131 304.9 871.064 305.043 871.002 305.188L871.001 305.189C870.662 305.975 870.442 306.741 870.349 307.469ZM918.459 279.958L917.731 279.721C918.062 278.765 918.365 277.804 918.634 276.852L919.379 277.036C919.104 278.004 918.795 278.984 918.459 279.958ZM877.329 329.775L877.051 329.094C878.012 328.687 878.928 328.233 879.78 327.743L880.169 328.37C879.923 328.512 879.671 328.651 879.416 328.787C878.755 329.137 878.053 329.469 877.329 329.775ZM886.286 323.054C885.657 323.89 884.951 324.68 884.178 325.411L883.666 324.869C884.397 324.175 885.065 323.426 885.661 322.634L886.286 323.054ZM864.593 332.545C863.567 332.611 862.518 332.647 861.463 332.656L861.477 331.915C862.512 331.907 863.543 331.87 864.55 331.806L864.593 332.545ZM888.688 318.729L887.975 318.459C888.327 317.521 888.572 316.574 888.705 315.634L889.477 315.699C889.334 316.705 889.07 317.72 888.688 318.729ZM889.395 312.422L889.672 313.105C888.682 313.485 887.674 313.814 886.665 314.085L886.488 313.37C887.464 313.107 888.439 312.789 889.395 312.422ZM900.697 306.196L900.206 305.639C900.972 304.981 901.73 304.289 902.47 303.575L903.003 304.095C902.249 304.823 901.476 305.527 900.697 306.196ZM881.696 314.213L881.76 314.949C880.666 315.038 879.603 315.051 878.59 314.989L878.669 314.25C879.639 314.309 880.653 314.297 881.696 314.213ZM905.836 300.04C906.502 299.279 907.159 298.493 907.793 297.692L908.395 298.137C907.751 298.951 907.085 299.751 906.407 300.523L905.836 300.04ZM911.301 294.169L910.667 293.76C911.233 292.92 911.782 292.062 912.305 291.198L912.965 291.567C912.433 292.444 911.875 293.316 911.301 294.169ZM914.659 286.953C915.115 286.049 915.549 285.133 915.955 284.22L916.663 284.504C916.25 285.433 915.807 286.364 915.344 287.281L914.659 286.953ZM877.5 301.515C876.483 301.428 875.504 301.521 874.631 301.796L874.354 301.113C875.336 300.795 876.448 300.678 877.616 300.779L877.5 301.515Z" stroke="black" stroke-width="0.909925"/>
</svg>
