<svg xmlns="http://www.w3.org/2000/svg" width="33.818" height="23.25" viewBox="0 0 33.818 23.25">
  <g id="Group_13491" data-name="Group 13491" transform="translate(0 -2)">
    <path id="Path_21135" data-name="Path 21135" d="M9.313,4.836A11.688,11.688,0,0,1,16.909,2a10.856,10.856,0,0,1,10.919,9.678A6.812,6.812,0,0,1,26.815,25.25H7.992A7.89,7.89,0,0,1,0,17.467,7.835,7.835,0,0,1,6.218,9.873,8.889,8.889,0,0,1,9.313,4.836Zm1.38,1.6a6.259,6.259,0,0,0-2.437,4.346v.947l-.941.1a5.748,5.748,0,0,0-5.2,5.635,5.775,5.775,0,0,0,5.878,5.669H26.815a4.711,4.711,0,1,0,0-9.416H25.759V12.663a8.7,8.7,0,0,0-8.85-8.55,9.575,9.575,0,0,0-6.216,2.325Z" fill="#2582f3" fill-rule="evenodd"/>
    <path id="Path_21145" data-name="Path 21145" d="M11.644,7.929,6.782,12.79l-.8-.8L10.844,7.13H6.56V6h6.214v6.214h-1.13Z" transform="translate(7.531 5.407)" fill="#2582f3" stroke="#2582f3" stroke-width="0.5"/>
  </g>
</svg>
