<svg width="235" height="60" viewBox="0 0 235 60" fill="none" xmlns="http://www.w3.org/2000/svg">
<rect width="235" height="60" rx="10" fill="#1C53A1"/>
<path d="M52.5594 33.52V36.256C52.0634 36.592 51.4314 36.84 50.6634 37C49.8954 37.16 49.0794 37.24 48.2154 37.24C46.9194 37.24 45.7594 37.056 44.7354 36.688C43.7114 36.304 42.8474 35.768 42.1434 35.08C41.4554 34.376 40.9274 33.52 40.5594 32.512C40.1914 31.504 40.0074 30.384 40.0074 29.152C40.0074 27.952 40.1914 26.848 40.5594 25.84C40.9274 24.832 41.4554 23.976 42.1434 23.272C42.8474 22.552 43.7034 21.992 44.7114 21.592C45.7354 21.192 46.8954 20.992 48.1914 20.992C49.0074 20.992 49.7914 21.08 50.5434 21.256C51.3114 21.432 51.9834 21.72 52.5594 22.12V24.856C51.9674 24.504 51.3354 24.232 50.6634 24.04C50.0074 23.832 49.2474 23.728 48.3834 23.728C46.6554 23.728 45.3114 24.232 44.3514 25.24C43.3914 26.248 42.9114 27.552 42.9114 29.152C42.9114 30.752 43.3994 32.048 44.3754 33.04C45.3674 34.016 46.7354 34.504 48.4794 34.504C49.2794 34.504 50.0074 34.416 50.6634 34.24C51.3354 34.064 51.9674 33.824 52.5594 33.52ZM59.807 37.264C58.895 37.264 58.071 37.104 57.335 36.784C56.599 36.464 55.983 36.024 55.487 35.464C54.991 34.904 54.607 34.24 54.335 33.472C54.079 32.688 53.951 31.84 53.951 30.928C53.951 30.016 54.079 29.176 54.335 28.408C54.607 27.624 54.991 26.96 55.487 26.416C55.983 25.856 56.599 25.424 57.335 25.12C58.071 24.8 58.895 24.64 59.807 24.64C60.719 24.64 61.535 24.8 62.255 25.12C62.991 25.424 63.607 25.856 64.103 26.416C64.599 26.96 64.975 27.624 65.231 28.408C65.503 29.176 65.639 30.016 65.639 30.928C65.639 31.84 65.503 32.688 65.231 33.472C64.975 34.24 64.599 34.904 64.103 35.464C63.607 36.024 62.991 36.464 62.255 36.784C61.535 37.104 60.719 37.264 59.807 37.264ZM59.807 27.064C59.247 27.064 58.759 27.168 58.343 27.376C57.943 27.584 57.615 27.864 57.359 28.216C57.103 28.568 56.911 28.984 56.783 29.464C56.655 29.928 56.591 30.416 56.591 30.928C56.591 31.44 56.655 31.936 56.783 32.416C56.911 32.896 57.103 33.312 57.359 33.664C57.615 34.016 57.943 34.296 58.343 34.504C58.759 34.712 59.247 34.816 59.807 34.816C60.351 34.816 60.823 34.712 61.223 34.504C61.623 34.296 61.951 34.016 62.207 33.664C62.479 33.312 62.671 32.896 62.783 32.416C62.911 31.936 62.975 31.44 62.975 30.928C62.975 30.416 62.911 29.928 62.783 29.464C62.671 28.984 62.479 28.568 62.207 28.216C61.951 27.864 61.623 27.584 61.223 27.376C60.823 27.168 60.351 27.064 59.807 27.064ZM78.3795 30.256V37H75.6675V29.704C75.6675 28.776 75.4675 28.096 75.0675 27.664C74.6835 27.232 74.0755 27.016 73.2435 27.016C72.4275 27.016 71.7555 27.296 71.2275 27.856C70.7155 28.4 70.4595 29.2 70.4595 30.256V37H67.7475V24.88H70.4595V26.896C70.8275 26.176 71.3315 25.624 71.9715 25.24C72.6275 24.84 73.3635 24.64 74.1795 24.64C75.1875 24.64 76.0195 24.888 76.6755 25.384C77.3315 25.88 77.7955 26.584 78.0675 27.496C78.4195 26.6 78.9555 25.904 79.6755 25.408C80.3955 24.896 81.2515 24.64 82.2435 24.64C83.5715 24.64 84.5795 25.088 85.2675 25.984C85.9555 26.88 86.2995 28.16 86.2995 29.824V37H83.5875V30.184C83.5875 29.128 83.3875 28.336 82.9875 27.808C82.6035 27.28 81.9955 27.016 81.1635 27.016C80.3475 27.016 79.6755 27.296 79.1475 27.856C78.6355 28.4 78.3795 29.2 78.3795 30.256ZM97.4567 30.952C97.4567 29.656 97.2087 28.688 96.7127 28.048C96.2167 27.392 95.5047 27.064 94.5767 27.064C93.7767 27.064 93.0727 27.336 92.4647 27.88C91.8727 28.424 91.5767 29.28 91.5767 30.448V31.432C91.5767 32.6 91.8567 33.456 92.4167 34C92.9767 34.544 93.6407 34.816 94.4087 34.816C95.4007 34.816 96.1527 34.488 96.6647 33.832C97.1927 33.16 97.4567 32.2 97.4567 30.952ZM95.3207 37.24C94.4727 37.24 93.7207 37.048 93.0647 36.664C92.4247 36.264 91.9287 35.672 91.5767 34.888V41.68H88.8647V24.88H91.5767V27.064C91.9447 26.28 92.4567 25.68 93.1127 25.264C93.7847 24.848 94.5687 24.64 95.4647 24.64C96.2487 24.64 96.9287 24.808 97.5047 25.144C98.0967 25.464 98.5847 25.904 98.9687 26.464C99.3687 27.024 99.6647 27.696 99.8567 28.48C100.049 29.248 100.145 30.072 100.145 30.952C100.145 31.816 100.041 32.632 99.8327 33.4C99.6407 34.168 99.3447 34.832 98.9447 35.392C98.5447 35.952 98.0407 36.4 97.4327 36.736C96.8247 37.072 96.1207 37.24 95.3207 37.24ZM104.311 30.952C104.311 32.232 104.559 33.2 105.055 33.856C105.551 34.496 106.255 34.816 107.167 34.816C107.951 34.816 108.647 34.544 109.255 34C109.879 33.456 110.191 32.6 110.191 31.432V30.448C110.191 29.28 109.911 28.424 109.351 27.88C108.791 27.336 108.127 27.064 107.359 27.064C106.351 27.064 105.591 27.4 105.079 28.072C104.567 28.744 104.311 29.704 104.311 30.952ZM110.191 37V34.816C109.823 35.616 109.295 36.224 108.607 36.64C107.919 37.04 107.135 37.24 106.255 37.24C105.471 37.24 104.791 37.08 104.215 36.76C103.639 36.44 103.159 36 102.775 35.44C102.391 34.88 102.103 34.216 101.911 33.448C101.719 32.68 101.623 31.848 101.623 30.952C101.623 30.104 101.719 29.296 101.911 28.528C102.119 27.76 102.423 27.088 102.823 26.512C103.223 25.936 103.727 25.48 104.335 25.144C104.959 24.808 105.679 24.64 106.495 24.64C107.343 24.64 108.079 24.848 108.703 25.264C109.343 25.68 109.839 26.272 110.191 27.04V24.88H112.903V37H110.191ZM118.341 30.184V37H115.677V24.88H118.341V27.16C118.677 26.376 119.157 25.76 119.781 25.312C120.421 24.848 121.277 24.648 122.349 24.712V27.424C121.053 27.312 120.061 27.464 119.373 27.88C118.685 28.28 118.341 29.048 118.341 30.184ZM128.828 26.848C127.868 26.848 127.14 27.144 126.644 27.736C126.148 28.312 125.852 29.088 125.756 30.064H131.636C131.572 29.024 131.308 28.232 130.844 27.688C130.38 27.128 129.708 26.848 128.828 26.848ZM133.628 36.52C133.116 36.776 132.5 36.96 131.78 37.072C131.076 37.184 130.396 37.24 129.74 37.24C127.436 37.24 125.748 36.672 124.676 35.536C123.62 34.384 123.092 32.864 123.092 30.976C123.092 30.064 123.22 29.216 123.476 28.432C123.732 27.648 124.1 26.976 124.58 26.416C125.076 25.856 125.684 25.424 126.404 25.12C127.124 24.8 127.956 24.64 128.9 24.64C129.844 24.64 130.652 24.8 131.324 25.12C132.012 25.424 132.572 25.856 133.004 26.416C133.436 26.976 133.748 27.648 133.94 28.432C134.148 29.2 134.252 30.048 134.252 30.976V31.912H125.78C125.924 32.824 126.316 33.536 126.956 34.048C127.596 34.56 128.548 34.816 129.812 34.816C130.516 34.816 131.188 34.76 131.828 34.648C132.468 34.52 133.068 34.368 133.628 34.192V36.52ZM152.812 26.704C152.812 28.448 152.316 29.8 151.324 30.76C150.332 31.704 148.844 32.176 146.86 32.176H143.932V37H141.052V21.232H146.86C148.844 21.232 150.332 21.728 151.324 22.72C152.316 23.696 152.812 25.024 152.812 26.704ZM146.572 29.656C147.804 29.704 148.676 29.456 149.188 28.912C149.716 28.368 149.98 27.648 149.98 26.752C149.98 25.888 149.716 25.192 149.188 24.664C148.676 24.12 147.804 23.848 146.572 23.848H143.932V29.656H146.572ZM159.169 36.952C159.073 36.984 158.921 37.008 158.713 37.024C158.505 37.056 158.249 37.072 157.945 37.072C156.889 37.072 156.049 36.808 155.425 36.28C154.801 35.752 154.489 34.896 154.489 33.712V19.984H157.201V33.376C157.201 33.84 157.337 34.168 157.609 34.36C157.881 34.552 158.209 34.648 158.593 34.648C158.705 34.648 158.801 34.648 158.881 34.648C158.961 34.648 159.057 34.64 159.169 34.624V36.952ZM162.858 30.952C162.858 32.232 163.106 33.2 163.602 33.856C164.098 34.496 164.802 34.816 165.714 34.816C166.498 34.816 167.194 34.544 167.802 34C168.426 33.456 168.738 32.6 168.738 31.432V30.448C168.738 29.28 168.458 28.424 167.898 27.88C167.338 27.336 166.674 27.064 165.906 27.064C164.898 27.064 164.138 27.4 163.626 28.072C163.114 28.744 162.858 29.704 162.858 30.952ZM168.738 37V34.816C168.37 35.616 167.842 36.224 167.154 36.64C166.466 37.04 165.682 37.24 164.802 37.24C164.018 37.24 163.338 37.08 162.762 36.76C162.186 36.44 161.706 36 161.322 35.44C160.938 34.88 160.65 34.216 160.458 33.448C160.266 32.68 160.17 31.848 160.17 30.952C160.17 30.104 160.266 29.296 160.458 28.528C160.666 27.76 160.97 27.088 161.37 26.512C161.77 25.936 162.274 25.48 162.882 25.144C163.506 24.808 164.226 24.64 165.042 24.64C165.89 24.64 166.626 24.848 167.25 25.264C167.89 25.68 168.386 26.272 168.738 27.04V24.88H171.45V37H168.738ZM184.856 29.824V37H182.144V29.704C182.144 28.776 181.944 28.096 181.544 27.664C181.16 27.232 180.552 27.016 179.72 27.016C178.904 27.016 178.232 27.296 177.704 27.856C177.192 28.4 176.936 29.2 176.936 30.256V37H174.224V24.88H176.936V26.896C177.304 26.176 177.808 25.624 178.448 25.24C179.104 24.84 179.84 24.64 180.656 24.64C182.016 24.64 183.056 25.096 183.776 26.008C184.496 26.92 184.856 28.192 184.856 29.824ZM196.083 33.592C196.083 34.648 195.715 35.52 194.979 36.208C194.259 36.896 193.067 37.24 191.403 37.24C190.475 37.24 189.635 37.152 188.883 36.976C188.131 36.784 187.523 36.568 187.059 36.328V33.76C187.587 34.064 188.259 34.336 189.075 34.576C189.891 34.816 190.691 34.936 191.475 34.936C192.147 34.936 192.659 34.816 193.011 34.576C193.363 34.32 193.539 33.992 193.539 33.592C193.539 33.208 193.347 32.888 192.963 32.632C192.595 32.376 191.923 32.136 190.947 31.912C189.507 31.592 188.475 31.128 187.851 30.52C187.243 29.912 186.939 29.128 186.939 28.168C186.939 27.064 187.339 26.2 188.139 25.576C188.939 24.952 190.051 24.64 191.475 24.64C192.291 24.64 193.059 24.728 193.779 24.904C194.499 25.064 195.083 25.272 195.531 25.528V28.024C194.795 27.688 194.091 27.424 193.419 27.232C192.747 27.04 192.091 26.944 191.451 26.944C190.795 26.944 190.291 27.048 189.939 27.256C189.603 27.464 189.435 27.768 189.435 28.168C189.435 28.536 189.603 28.848 189.939 29.104C190.275 29.344 190.939 29.576 191.931 29.8C193.387 30.12 194.443 30.584 195.099 31.192C195.755 31.784 196.083 32.584 196.083 33.592Z" fill="white"/>
</svg>
