<svg width="187" height="184" viewBox="0 0 187 184" fill="none" xmlns="http://www.w3.org/2000/svg">
<g filter="url(#filter0_d_163_488)">
<ellipse cx="93.7784" cy="87.1575" rx="58.7784" ry="57.6028" fill="white"/>
<path d="M93.7783 26.5303C127.853 26.5303 155.581 53.6167 155.581 87.1572C155.581 120.698 127.853 147.784 93.7783 147.784C59.7036 147.784 31.9756 120.698 31.9756 87.1572C31.9757 53.6167 59.7037 26.5303 93.7783 26.5303Z" stroke="#FCA700" stroke-width="6.04847"/>
</g>
<path d="M85.9137 72.114C84.3488 71.0044 85.3921 67.5593 85.0959 65.7718C84.708 65.8367 82.7248 65.6858 82.6388 65.7718C82.5089 65.9016 82.8834 67.2843 82.442 67.7216C82.0828 68.0768 80.7244 68.1455 80.1856 68.2277C79.8856 68.5103 81.6797 69.6008 81.2651 70.6186C81.139 70.9261 77.91 74.1955 77.5107 74.4553C76.2172 75.2994 75.2026 73.1853 74.8645 73.5462C74.7861 74.1249 74.7135 75.7634 74.1136 75.9659C73.7639 76.0843 69.1345 76.0881 68.6262 75.9945C67.4359 75.773 67.8027 74.3961 67.4932 73.5462C66.8226 73.7659 65.9704 74.8945 65.2387 74.6921C64.8948 74.5966 61.2798 71.0311 61.1919 70.7409C60.8327 69.5645 61.9084 69.1883 62.174 68.2277C61.341 68.1322 59.9214 68.1475 59.7246 67.0952C59.6214 66.5414 59.6252 62.2655 59.759 61.8225C60.015 60.9726 61.4919 61.1025 62.174 60.86C62.4358 60.5009 60.6168 59.6014 61.2588 58.2074C61.3677 57.9705 64.7323 54.6362 64.9826 54.5617C66.3048 54.1645 67.1665 55.7839 67.4951 55.5452C67.7664 54.7278 67.5658 53.3013 68.6262 53.095C69.1841 52.9881 73.4257 52.9976 73.8996 53.1351C74.7613 53.3834 74.7861 54.8176 74.8645 55.5452C75.1339 55.8336 76.2401 54.0403 77.5202 54.6304C77.7992 54.7603 81.2555 58.3334 81.33 58.6084C81.5326 59.3398 80.4034 60.1916 80.1837 60.8619C80.8619 61.1541 81.6759 60.8848 82.2471 61.3584C82.956 61.9447 82.5089 63.1917 82.6369 63.3216C82.7229 63.4094 84.7042 63.2567 85.094 63.3216V57.9018C85.094 57.6784 86.3436 56.4199 86.825 56.5631L113.396 56.6146C115.85 57.1685 114.732 61.727 114.973 63.5278C126.192 63.8028 130.76 78.798 121.505 85.2929C117.319 88.2301 114.552 87.237 109.858 87.4586C109.844 87.1435 109.258 87.1435 109.244 87.4586C109.239 87.5254 109.252 87.5961 109.244 87.6629C108.555 87.5674 108.939 87.9016 108.914 88.2435C108.841 89.2633 108.633 90.5886 109.04 91.5492C108.893 92.8287 109.153 94.007 107.494 94.4004H80.9116C78.2233 93.9765 79.9315 89.2594 79.1596 87.4567H71.0757C69.9407 87.4567 67.1932 88.656 66.1997 89.332C58.8648 94.3259 61.7785 105.971 70.4891 107.071C70.8789 107.121 71.2897 107.283 71.1788 106.684C71.1846 106.722 71.4138 107.169 71.5858 107.092C71.4693 105.991 71.8476 104.64 71.3833 103.617C71.4329 102.967 71.2648 102.087 71.3871 101.51C71.4119 101.392 72.7207 100.103 73.1181 100.34H99.3225C99.8632 100.195 101.057 101.293 101.057 101.673V107.092L103.503 107.083C104.63 95.7563 120.32 92.8688 125.317 103.199C132.493 118.033 108.677 127.334 103.864 111.55C103.742 111.147 103.576 109.63 103.503 109.56C103.383 109.443 101.464 109.623 101.057 109.55V114.97C101.057 115.323 99.6626 116.448 99.1181 116.305C90.8183 115.724 81.4963 117.061 73.3168 116.311C70.0917 116.015 71.4597 111.536 71.1788 109.346C62.4453 109.075 56.9656 99.5815 61.0448 91.7516C62.6517 88.6674 66.3124 85.7685 69.8509 85.4171C71.5342 85.249 78.2845 85.7761 79.1653 85.1115C80.0404 84.4508 78.1737 79.0768 80.7397 78.502L107.494 78.4695C109.153 78.8648 108.895 80.0412 109.04 81.3207C108.629 82.2851 108.845 83.6048 108.914 84.6265C108.937 84.9702 108.557 85.3025 109.244 85.207C109.252 85.2738 109.239 85.3445 109.244 85.4114C109.258 85.7265 109.844 85.7265 109.858 85.4114C114.944 85.652 120.015 85.3159 122.785 80.4346C126.457 73.9607 122.235 66.358 114.974 65.7737V70.9891C114.974 71.2412 113.725 72.6773 113.245 72.5341C104.745 72.0376 95.5586 73.1624 87.1422 72.5226C86.8976 72.2629 86.1066 71.6785 85.9137 72.114ZM80.3652 63.3407C79.643 62.4889 73.848 64.1867 78.5291 59.0954L76.9127 57.2754C76.3471 57.0176 74.9046 59.3646 73.5786 58.9865C72.3157 58.6256 72.9099 56.1009 72.522 55.5318C72.2507 55.1346 70.6152 55.4325 70.0764 55.3294C69.6503 55.444 69.8509 58.4117 69.2013 58.8356C68.0301 59.6014 66.6105 57.8598 65.7278 57.1971C65.4794 57.1532 63.6796 58.807 63.9012 59.2271C64.1744 59.7466 65.3113 60.6346 65.5463 61.2839C66.4252 63.7264 62.4644 62.7869 61.9925 63.3407C61.9237 63.4209 61.9218 65.2027 61.9696 65.4662C62.1606 66.4994 65.0037 65.5827 65.5482 66.8011C66.2226 68.3079 63.5802 69.3296 64.1171 70.4735C64.1572 70.5594 65.3629 71.774 65.4507 71.8199C66.1156 72.1617 68.5765 68.5771 69.486 70.8383C69.7019 71.3749 69.7841 73.5672 69.9713 73.7277C70.1586 73.8881 72.1475 73.6608 72.6118 73.7506C72.4781 66.6521 76.0223 72.0261 76.7789 71.8943C77.14 71.4551 78.2405 70.6912 78.4564 70.2711C78.7755 69.6523 76.5229 68.2601 76.7331 67.1525C76.9948 65.7813 79.3048 66.083 80.3881 65.978C80.2964 65.5159 80.5218 63.524 80.3652 63.3388V63.3407ZM112.724 58.8185H87.4498C87.3485 58.8185 87.1135 59.1565 87.1365 59.3284L87.3485 70.4792H112.726V58.8185H112.724ZM82.23 80.5015C82.0924 80.532 81.7848 80.6466 81.6166 80.7058C81.4944 80.7478 81.1963 80.5836 81.2001 80.8261C81.3472 82.9306 80.9365 85.207 81.4122 87.2523C81.3912 88.2034 81.2192 91.3831 81.3988 92.0362C81.4313 92.1565 82.0714 92.3322 82.23 92.3666C82.6713 92.4601 82.5662 92.3627 82.6388 92.3666C90.4724 92.7122 98.8334 91.8337 106.583 92.3666C106.606 92.3666 106.776 92.653 106.99 92.5709C107.001 92.4372 106.98 92.2978 106.99 92.1622C107.313 88.5089 106.749 84.4087 106.99 80.7077C107.011 80.3601 107.062 80.2284 106.684 80.3009L106.579 80.5034C106.218 80.427 105.372 80.4843 104.942 80.5034C104.73 80.1653 104.166 80.299 103.818 80.2952C97.4807 80.2284 89.0223 79.6994 82.9178 80.2837C82.5032 80.3238 82.3771 80.469 82.2242 80.5034L82.23 80.5015ZM79.0583 85.4094V85.6138C79.192 85.545 79.192 85.4782 79.0583 85.4094ZM113.702 99.1728C101.313 100.666 104.502 120.313 117.233 117.225C128.047 114.601 125.399 97.7634 113.702 99.1728ZM98.8066 102.389L73.4296 102.593V114.048H98.8066V102.389Z" fill="#272324"/>
<path d="M109.245 87.6601C109.121 88.8155 109.333 89.9518 109.253 91.0518C109.234 91.3191 109.047 91.4986 109.041 91.5464C108.634 90.5839 108.842 89.2604 108.915 88.2407C108.94 87.8988 108.556 87.5646 109.245 87.6601Z" fill="#131112"/>
<path d="M109.246 85.2061C108.558 85.3016 108.938 84.9693 108.915 84.6256C108.846 83.6039 108.63 82.2823 109.041 81.3198C109.047 81.3676 109.234 81.5452 109.253 81.8144C109.334 82.9144 109.122 84.0526 109.246 85.2061Z" fill="#131112"/>
<path d="M71.3829 103.617C71.847 104.64 71.4688 105.99 71.5853 107.092C71.4134 107.168 71.1842 106.723 71.1785 106.683C71.0066 105.649 71.3141 104.524 71.3829 103.615V103.617Z" fill="#1B1718"/>
<path d="M87.1423 72.5237C86.4279 72.4702 86.4871 72.5199 85.9141 72.1151C86.107 71.6798 86.8959 72.2659 87.1423 72.5237Z" fill="#161314"/>
<path d="M109.859 87.4565C109.655 87.466 109.45 87.4507 109.246 87.4565C109.259 87.1415 109.846 87.1415 109.859 87.4565Z" fill="#131112"/>
<path d="M109.859 85.4095C109.846 85.7245 109.259 85.7245 109.246 85.4095C109.45 85.4152 109.657 85.3999 109.859 85.4095Z" fill="#131112"/>
<path d="M104.948 80.5017C97.8404 80.8264 90.4882 80.9295 83.3463 80.7156C82.9565 80.7042 82.5725 80.7347 82.2305 80.5017C82.3833 80.4693 82.5094 80.3222 82.924 80.2821C89.0285 79.6958 97.4869 80.2267 103.824 80.2936C104.17 80.2974 104.734 80.1637 104.948 80.5017Z" fill="#1B1718"/>
<path d="M81.6166 80.7058C81.5707 82.4417 81.6758 84.193 81.6242 85.9308C81.6109 86.393 81.4198 86.815 81.4102 87.2523C80.9345 85.2089 81.3434 82.9306 81.1982 80.8261C81.1962 80.5836 81.4943 80.7478 81.6147 80.7058H81.6166Z" fill="#161314"/>
<path d="M106.584 80.5017L106.689 80.2993C107.067 80.2287 107.014 80.3585 106.995 80.706C106.798 80.7805 106.624 80.5093 106.586 80.5017H106.584Z" fill="#1B1718"/>
<path d="M106.995 92.1602C106.983 92.2938 107.004 92.4332 106.995 92.5687C106.781 92.6508 106.609 92.3663 106.588 92.3644L106.997 92.1602H106.995Z" fill="#1B1718"/>
<path d="M82.6392 92.3653C82.5666 92.3615 82.6717 92.4589 82.2305 92.3653H82.6392Z" fill="#1B1718"/>
<path d="M79.0586 85.4097C79.1927 85.4786 79.1927 85.5456 79.0586 85.6146V85.4097Z" fill="#131112"/>
<path d="M84.8415 107.552C85.4892 108.191 84.8281 109.192 83.9588 109.33C82.6768 109.534 78.3549 109.501 77.0098 109.347C76.0201 109.232 75.5444 108.719 75.9953 107.71C76.4404 106.719 77.3117 107.294 78.0282 107.307C79.1344 107.326 84.3639 107.08 84.8415 107.552Z" fill="#292527"/>
<path d="M93.8345 107.138C94.6864 106.892 96.5602 107.016 96.5698 108.213C96.5851 110.065 93.4411 109.855 93.1144 108.791C92.9234 108.171 93.1794 107.327 93.8345 107.138Z" fill="#2D292A"/>
<path d="M90.5585 109.08C89.7942 110.012 86.8175 109.779 87.3887 107.854C87.8798 106.202 92.0832 107.222 90.5585 109.08Z" fill="#2D292A"/>
<path d="M96.5553 85.4082L104.332 85.8168C104.429 86.067 104.57 86.1033 104.559 86.5292C104.551 86.8214 104.385 86.9035 104.332 87.0429L96.7598 87.4516C96.1159 87.3312 95.3956 87.6464 95.3325 86.5158C95.2695 85.3852 95.8961 85.559 96.5553 85.4062V85.4082Z" fill="#252122"/>
<path d="M90.5646 85.2474C93.2987 84.6363 94.2177 87.4665 91.539 87.6632C89.1717 87.837 89.1048 85.5739 90.5646 85.2474Z" fill="#292527"/>
<path d="M85.3002 85.2051C85.218 85.7836 85.5867 85.7836 85.5045 85.2051C87.7317 85.2872 88.0335 87.2288 86.1177 87.6584C86.1998 87.0799 85.8312 87.0799 85.9133 87.6584C85.7834 87.6698 85.6344 87.6679 85.5045 87.6584C85.5867 87.0799 85.218 87.0799 85.3002 87.6584C84.8971 87.5916 84.5953 87.5324 84.2764 87.2498L84.072 86.8412C84.0471 86.7782 83.8752 86.7133 83.86 86.5148C83.8332 86.1769 84.0261 86.1406 84.072 86.0241L84.2764 85.6156C84.561 85.3616 84.9277 85.228 85.3002 85.207V85.2051Z" fill="#292527"/>
<path d="M96.5566 85.4096C96.7362 85.3676 96.8547 85.2225 97.2483 85.19C98.1558 85.1155 103.792 85.1136 104.205 85.3943C104.415 85.5357 104.293 85.7171 104.333 85.8183L96.5566 85.4096Z" fill="#434041"/>
<path d="M104.334 87.0454C104.293 87.1466 104.416 87.3261 104.206 87.4694C103.787 87.7558 98.3609 87.7425 97.4534 87.6737C97.0655 87.6451 96.9088 87.4808 96.7617 87.4541L104.334 87.0454Z" fill="#434041"/>
<path d="M85.5055 87.6629C85.4386 87.659 85.366 87.6743 85.3011 87.6629C85.2189 87.0844 85.5876 87.0844 85.5055 87.6629Z" fill="#434041"/>
<path d="M86.1187 87.6629C86.0595 87.6762 85.985 87.6571 85.9144 87.6629C85.8322 87.0844 86.2009 87.0844 86.1187 87.6629Z" fill="#434041"/>
<path d="M85.5055 85.2053C85.5876 85.7838 85.2189 85.7838 85.3011 85.2053C85.3679 85.2015 85.4386 85.2034 85.5055 85.2053Z" fill="#434041"/>
<path d="M84.0723 86.0228C84.1353 85.8663 84.1086 85.7632 84.2766 85.6143L84.0723 86.0228Z" fill="#434041"/>
<path d="M84.2766 87.2494C84.1066 87.0986 84.1353 86.9974 84.0723 86.8408L84.2766 87.2494Z" fill="#434041"/>
<path d="M89.3936 63.5251L89.6993 63.7294L89.8044 63.5251C90.9623 63.4334 97.7145 63.378 98.3507 63.6759C99.3251 64.1305 98.8628 65.5723 97.6724 65.7633C96.7419 65.9122 96.0522 65.5799 95.2364 65.5628C93.6773 65.5303 91.9673 65.5036 90.4177 65.5704C90.0872 65.2018 89.9363 65.3069 90.0089 65.7747C88.3791 65.8779 87.8021 63.8345 89.3956 63.5251H89.3936ZM97.0687 65.3661V65.5704C97.2024 65.5016 97.2024 65.4348 97.0687 65.3661Z" fill="#292527"/>
<path d="M101.996 63.6343C102.096 63.577 102.04 63.3441 102.378 63.3021C104.949 62.9718 105.278 65.4595 103.4 65.7592C101.534 66.0571 100.014 64.7817 101.996 63.6362V63.6343Z" fill="#292527"/>
<path d="M107.956 63.364C111.006 62.6671 111.201 66.3977 107.918 65.7677C106.626 65.5195 106.464 63.7057 107.956 63.364Z" fill="#272324"/>
<path d="M90.4167 65.5693C90.3938 65.5693 90.369 65.7507 90.008 65.7736C89.9354 65.3039 90.0882 65.2009 90.4167 65.5693Z" fill="#161314"/>
<path d="M89.8032 63.5247L89.6982 63.729L89.3926 63.5247C89.5129 63.5018 89.6676 63.5361 89.8013 63.5247H89.8032Z" fill="#161314"/>
<path d="M114.71 112.554C114.248 112.926 113.523 112.918 113.017 112.624C112.792 112.493 109.458 109.166 109.351 108.929C108.871 107.886 109.691 106.746 110.828 107.245C111.443 107.514 113.564 110.224 113.948 109.953C113.963 109.773 114.026 109.578 114.15 109.447C115.046 108.49 118.642 103.769 119.42 103.645C120.322 103.502 121.011 104.624 120.551 105.398L114.71 112.55V112.554Z" fill="#272324"/>
<path d="M70.1038 60.0949C75.3485 59.1916 77.9202 65.507 73.7397 68.4347C71.8157 69.7829 68.7472 69.1031 67.406 67.1933C65.6673 64.7145 67.0181 60.6277 70.1019 60.0968L70.1038 60.0949ZM70.7171 62.3445C67.9314 62.8353 68.4625 67.4359 71.8482 66.7484C74.3721 66.2366 73.8582 61.7907 70.7171 62.3445Z" fill="#262223"/>
<path d="M97.0684 65.3638C97.2025 65.4327 97.2025 65.4997 97.0684 65.5687V65.3638Z" fill="#161314"/>
<defs>
<filter id="filter0_d_163_488" x="0.73756" y="-0.00499582" width="186.082" height="183.729" filterUnits="userSpaceOnUse" color-interpolation-filters="sRGB">
<feFlood flood-opacity="0" result="BackgroundImageFix"/>
<feColorMatrix in="SourceAlpha" type="matrix" values="0 0 0 0 0 0 0 0 0 0 0 0 0 0 0 0 0 0 127 0" result="hardAlpha"/>
<feOffset dy="4.70227"/>
<feGaussianBlur stdDeviation="14.1068"/>
<feComposite in2="hardAlpha" operator="out"/>
<feColorMatrix type="matrix" values="0 0 0 0 0.988235 0 0 0 0 0.654902 0 0 0 0 0 0 0 0 0.65 0"/>
<feBlend mode="normal" in2="BackgroundImageFix" result="effect1_dropShadow_163_488"/>
<feBlend mode="normal" in="SourceGraphic" in2="effect1_dropShadow_163_488" result="shape"/>
</filter>
</defs>
</svg>
