<svg width="54" height="54" viewBox="0 0 54 54" fill="none" xmlns="http://www.w3.org/2000/svg">
<path d="M49.064 44.3398C48.58 44.8198 48.04 45.2301 47.444 45.5601C46.346 46.2001 45.098 46.5498 43.757 46.5498C42.417 46.5498 41.169 46.2001 40.07 45.5601C39.474 45.2301 38.934 44.8198 38.45 44.3398C35.489 46.0998 33.516 49.3598 33.516 53.0698C33.516 53.5898 33.925 54 34.447 54H53.068C53.589 54 53.999 53.5898 53.999 53.0698C53.999 49.3598 52.025 46.0998 49.064 44.3398Z" fill="#0E5BCA"/>
<path d="M27 14.8999C28.543 14.8999 29.793 13.6501 29.793 12.1001C29.793 10.5601 28.543 9.31006 27 9.31006C25.458 9.31006 24.207 10.5601 24.207 12.1001C24.207 13.6501 25.458 14.8999 27 14.8999Z" fill="#0E5BCA"/>
<path d="M15.549 44.3398C15.065 44.8198 14.524 45.2301 13.929 45.5601C12.83 46.2001 11.582 46.5498 10.242 46.5498C8.901 46.5498 7.65299 46.2001 6.55499 45.5601C5.95899 45.2301 5.419 44.8198 4.935 44.3398C1.974 46.0998 0 49.3598 0 53.0698C0 53.5898 0.41 54 0.931 54H19.552C20.074 54 20.483 53.5898 20.483 53.0698C20.483 49.3598 18.509 46.0998 15.549 44.3398Z" fill="#0E5BCA"/>
<path d="M10.243 44.6899C13.328 44.6899 15.829 42.1901 15.829 39.1001C15.829 36.0201 13.328 33.52 10.243 33.52C7.15701 33.52 4.65601 36.0201 4.65601 39.1001C4.65601 42.1901 7.15701 44.6899 10.243 44.6899Z" fill="#0E5BCA"/>
<path d="M43.762 44.6899C46.847 44.6899 49.348 42.1901 49.348 39.1001C49.348 36.0201 46.847 33.52 43.762 33.52C40.677 33.52 38.176 36.0201 38.176 39.1001C38.176 42.1901 40.677 44.6899 43.762 44.6899Z" fill="#0E5BCA"/>
<path d="M38.969 10.3303C38.913 9.98027 38.652 9.68004 38.317 9.59004L37.032 9.20039C36.809 8.45039 36.511 7.73025 36.138 7.06025L36.771 5.88008C36.939 5.57008 36.92 5.18008 36.715 4.88008C36.045 3.97008 35.207 3.13008 34.239 2.38008C33.941 2.16008 33.55 2.14025 33.215 2.31025L32.042 2.96016C31.371 2.59016 30.645 2.29004 29.9 2.09004L29.528 0.77998C29.416 0.42998 29.118 0.170059 28.746 0.110059C27.591 -0.0399414 26.418 -0.0399414 25.245 0.110059C24.891 0.170059 24.574 0.42998 24.481 0.77998L24.109 2.09004C23.345 2.29004 22.638 2.59016 21.967 2.96016L20.776 2.31025C20.459 2.14025 20.068 2.16008 19.77 2.38008C18.82 3.09008 17.982 3.93008 17.275 4.88008C17.07 5.16008 17.033 5.57008 17.219 5.88008L17.871 7.06025C17.498 7.75025 17.2 8.45039 16.977 9.20039L15.692 9.59004C15.338 9.68004 15.096 9.98027 15.04 10.3303C14.835 11.5103 14.835 12.7003 15.04 13.8703C15.096 14.2303 15.338 14.5103 15.673 14.6203L16.977 15.01C17.2 15.75 17.498 16.4801 17.871 17.1501L17.219 18.32C17.033 18.66 17.07 19.0503 17.275 19.3303C18.001 20.3003 18.839 21.13 19.789 21.82C20.068 22.03 20.459 22.0501 20.776 21.8801L21.949 21.2502C22.638 21.6202 23.364 21.9203 24.109 22.1203L24.481 23.4201C24.574 23.7601 24.872 24.0203 25.245 24.0803C25.822 24.1703 26.418 24.2102 26.995 24.2102C27.591 24.2102 28.187 24.1703 28.764 24.0803C29.118 24.0203 29.416 23.7601 29.528 23.4201L29.9 22.1203C30.645 21.9203 31.371 21.6202 32.042 21.2502L33.233 21.8801C33.55 22.0501 33.941 22.03 34.22 21.8C35.207 21.1 36.026 20.2603 36.715 19.3303C36.92 19.0303 36.939 18.66 36.771 18.34L36.138 17.1501C36.511 16.4801 36.809 15.75 37.032 15.01L38.317 14.6203C38.671 14.5103 38.913 14.2103 38.969 13.8503C39.136 12.7003 39.136 11.5103 38.969 10.3303ZM26.995 16.76C24.425 16.76 22.34 14.6703 22.34 12.1003C22.34 9.53029 24.425 7.45039 26.995 7.45039C29.565 7.45039 31.65 9.53029 31.65 12.1003C31.65 14.6703 29.565 16.76 26.995 16.76Z" fill="#0E5BCA"/>
<path d="M32.3081 45.7401C28.8891 46.8101 25.1141 46.8101 21.6951 45.7401C21.2001 45.5901 20.6801 45.86 20.5281 46.35C20.3731 46.84 20.6461 47.3599 21.1351 47.5199C23.0261 48.1099 24.9991 48.4101 27.0011 48.4101C29.0041 48.4101 30.9771 48.1099 32.8681 47.5199C33.3571 47.3599 33.6301 46.84 33.4751 46.35C33.3241 45.86 32.8061 45.5901 32.3081 45.7401Z" fill="#0E5BCA"/>
<path d="M44.692 28.86C44.692 29.46 44.663 30.0501 44.604 30.6301C44.552 31.1401 44.925 31.6001 45.437 31.6501C45.468 31.6501 45.499 31.6603 45.532 31.6603C46.003 31.6603 46.408 31.3 46.456 30.82C46.521 30.17 46.554 29.52 46.554 28.86C46.554 23.71 44.568 18.8504 40.964 15.1804C40.604 14.8104 40.013 14.8003 39.647 15.1603C39.28 15.5203 39.273 16.1102 39.633 16.4802C42.895 19.8102 44.692 24.2 44.692 28.86Z" fill="#0E5BCA"/>
<path d="M8.47098 31.6599C8.50398 31.6599 8.53498 31.6597 8.56598 31.6497C9.07898 31.5997 9.45096 31.1397 9.39896 30.6297C9.33996 30.0497 9.31097 29.4597 9.31097 28.8597C9.31097 24.0697 11.195 19.5898 14.616 16.2298C14.983 15.8698 14.99 15.2799 14.63 14.9099C14.27 14.5499 13.681 14.5397 13.312 14.8997C9.53098 18.6097 7.44897 23.5697 7.44897 28.8597C7.44897 29.5197 7.48197 30.1796 7.54697 30.8196C7.59497 31.2996 7.99998 31.6599 8.47098 31.6599Z" fill="#0E5BCA"/>
<path d="M27 26.0698C26.486 26.0698 26.069 26.48 26.069 27V30.2598L18.9939 35.5601C18.5829 35.8701 18.499 36.4601 18.806 36.8701C18.99 37.1101 19.27 37.2402 19.552 37.2402C19.746 37.2402 19.9429 37.1801 20.1099 37.0601L27 31.8901L33.8909 37.0601C34.0579 37.1801 34.254 37.2402 34.449 37.2402C34.731 37.2402 35.011 37.1101 35.194 36.8701C35.502 36.4601 35.4179 35.8701 35.0069 35.5601L27.931 30.2598V27C27.931 26.48 27.515 26.0698 27 26.0698Z" fill="#0E5BCA"/>
</svg>
