<svg width="90" height="88" viewBox="0 0 90 88" fill="none" xmlns="http://www.w3.org/2000/svg">
<ellipse cx="44.6027" cy="44" rx="44.6027" ry="44" fill="white"/>
<ellipse cx="44.6027" cy="44" rx="44.6027" ry="44" fill="#054194" fill-opacity="0.31"/>
<path d="M26.4633 53.62C25.2886 54.2391 25.7886 54.8132 26.3839 55.2894C27.5003 56.1783 27.63 57.2074 27.204 58.5249C26.7728 59.8583 26.4791 61.2525 26.2754 62.6414C26.0558 64.1493 27.2384 65.1705 27.7437 66.5092C28.9845 64.6441 29.8945 62.8504 28.876 60.6652C28.6591 60.1995 28.6988 59.6202 28.5294 59.1254C27.9818 57.5143 27.9845 56.0672 29.5162 54.9481C30.2226 54.4322 29.6459 54.0433 29.175 53.6174C30.7411 53.2523 32.056 52.6862 33.1301 51.6676C33.4978 51.3184 33.9237 51.3528 34.3655 51.3898C37.1354 51.6253 39.4344 53.8714 39.5244 56.6704C39.6328 60.0567 39.5561 63.4483 39.5852 66.8399C39.5905 67.451 39.4 67.6944 38.7545 67.6917C31.4475 67.6759 24.1378 67.6759 16.8308 67.6917C16.1959 67.6917 15.9948 67.4774 16.0001 66.8505C16.0318 63.4165 15.9578 59.98 16.0583 56.5487C16.1377 53.8264 18.7462 51.4295 21.4632 51.366C21.8785 51.3555 22.2013 51.448 22.532 51.7417C23.6034 52.6915 24.8733 53.2841 26.4686 53.6174L26.4633 53.62Z" fill="#064194"/>
<path d="M27.8524 52.6948C23.9898 52.753 20.8337 49.7159 20.7517 45.8613C20.667 41.8745 23.7703 38.6575 27.7386 38.6099C31.5614 38.5649 34.7705 41.6602 34.8525 45.4751C34.9398 49.4593 31.863 52.6339 27.8524 52.6948Z" fill="#064194"/>
<path d="M42.3283 51.8653C51.3364 51.8653 60.2307 51.8653 69.1251 51.8653C71.3923 51.8653 71.7812 51.4711 71.7812 49.1616C71.7812 42.0265 71.7812 34.8941 71.7812 27.7591C71.7812 25.7141 71.35 25.2881 69.3103 25.2881C58.4767 25.2881 47.6432 25.2881 36.8097 25.2881C34.7514 25.2881 34.3758 25.6744 34.3731 27.7723C34.3731 30.4152 34.3996 33.0581 34.344 35.6984C34.3361 36.0846 34.8043 37.0159 33.971 36.8518C33.3149 36.7222 32.0741 36.8915 32.135 35.4761C32.2064 33.7618 32.1508 32.0422 32.1508 30.3252C32.1508 29.357 32.1482 28.3887 32.1508 27.4178C32.1614 24.505 33.6191 23.0129 36.5187 23.0077C42.5082 22.9944 48.4977 23.0024 54.4846 23.0024C59.5059 23.0024 64.5245 22.9971 69.5457 23.0024C72.4982 23.0077 73.9903 24.5077 73.9929 27.4839C73.9982 34.8386 73.9982 42.1932 73.9929 49.5478C73.9903 52.6564 72.5828 54.0744 69.4849 54.077C61.3816 54.085 53.2782 54.0797 45.1749 54.0797C43.7939 54.0797 42.845 53.3407 42.3283 51.8627V51.8653Z" fill="#054194"/>
<path d="M43.3992 37.3395C43.5227 37.3395 43.6459 37.3408 43.7694 37.3389C43.8784 37.3374 43.9309 37.3892 43.9297 37.4973C43.9294 37.5282 43.9297 37.5591 43.9297 37.5899C43.9303 37.967 43.9312 37.9645 44.2842 38.1013C44.3472 38.1257 44.378 38.1053 44.4163 38.0658C44.4985 37.9812 44.5846 37.9 44.6665 37.815C44.7523 37.7258 44.8304 37.7307 44.9159 37.8187C45.0879 37.9957 45.2627 38.1695 45.4387 38.3421C45.523 38.4249 45.5178 38.5012 45.4366 38.5808C45.3523 38.6636 45.2717 38.7507 45.1846 38.83C45.1299 38.8797 45.1142 38.926 45.1602 38.9884C45.1753 39.0088 45.1908 39.0329 45.1939 39.057C45.2266 39.3 45.38 39.3525 45.5943 39.3194C45.6496 39.3111 45.7074 39.3173 45.7639 39.3191C45.8556 39.3222 45.9081 39.3676 45.9084 39.4624C45.909 39.7298 45.9093 39.9972 45.9074 40.2643C45.9068 40.3597 45.8519 40.4017 45.7586 40.4011C45.6354 40.4002 45.5116 40.4051 45.3887 40.3992C45.3137 40.3959 45.2927 40.4354 45.2562 40.4928C45.0947 40.7472 45.1617 40.9304 45.3915 41.1045C45.5505 41.2249 45.5369 41.2848 45.3943 41.4272C45.2414 41.5794 45.0892 41.732 44.9369 41.8848C44.8174 42.0046 44.7674 42.0046 44.6427 41.8836C44.6316 41.8728 44.6183 41.8635 44.6099 41.8511C44.4596 41.631 44.2836 41.5658 44.0393 41.7221C43.9661 41.7687 43.9201 41.7946 43.9272 41.887C43.9356 41.9944 43.9272 42.1028 43.9303 42.2106C43.934 42.3264 43.8809 42.3835 43.7657 42.3835C43.5138 42.3835 43.2618 42.3832 43.0101 42.3835C42.8943 42.3835 42.8391 42.3285 42.8471 42.2118C42.8486 42.1914 42.8437 42.1701 42.8474 42.1504C42.8993 41.8771 42.8162 41.6989 42.5229 41.6319C42.4392 41.6128 42.3957 41.6121 42.341 41.6733C42.2657 41.7573 42.182 41.8342 42.1026 41.9144C42.0276 41.9904 41.9526 41.9944 41.8754 41.9175C41.6935 41.736 41.5113 41.5547 41.3301 41.3728C41.2541 41.2966 41.2553 41.2206 41.335 41.1468C41.3575 41.1258 41.3761 41.0996 41.4008 41.082C41.6095 40.9347 41.6879 40.7686 41.5323 40.5246C41.4801 40.4428 41.4542 40.3884 41.348 40.3992C41.2411 40.4101 41.1324 40.4017 41.0244 40.402C40.9262 40.402 40.8678 40.3603 40.8678 40.2557C40.8678 39.9935 40.8675 39.7314 40.8672 39.4689C40.8672 39.3654 40.9243 39.321 41.0222 39.3188C41.0478 39.3182 41.0744 39.3145 41.0991 39.3191C41.3819 39.375 41.5567 39.2768 41.6228 38.9829C41.6391 38.9103 41.6385 38.8732 41.5873 38.8257C41.5008 38.7454 41.4202 38.6586 41.3356 38.5759C41.2587 38.5009 41.2544 38.4277 41.3325 38.3499C41.511 38.1726 41.6901 37.9954 41.8655 37.815C41.9538 37.724 42.0319 37.7289 42.1128 37.8206C42.1298 37.8397 42.1502 37.8558 42.1684 37.874C42.4386 38.1393 42.4377 38.1371 42.7826 37.9833C42.8443 37.9558 42.848 37.9169 42.8474 37.8629C42.8453 37.7394 42.8474 37.6162 42.8468 37.4927C42.8465 37.3911 42.8968 37.3408 42.9978 37.3404C43.1315 37.3401 43.2652 37.3404 43.3989 37.3404L43.3992 37.3395ZM43.3887 40.8016C43.9118 40.8019 44.3305 40.3854 44.3305 39.8647C44.3305 39.3438 43.9096 38.9174 43.3949 38.9171C42.8666 38.9171 42.4454 39.338 42.4463 39.8654C42.4472 40.3872 42.8638 40.8013 43.3887 40.8016Z" fill="#054194"/>
<path d="M48.7564 37.342C48.7339 37.342 48.7107 37.342 48.6882 37.342C47.8212 37.329 47.7633 37.4777 47.8015 36.5044C47.8069 36.3578 47.7735 36.2575 47.6166 36.237C47.4263 36.2125 47.279 35.9635 47.0375 36.1879C46.4134 36.7656 46.4039 36.7547 45.7921 36.1347C45.6407 35.9813 45.4879 35.8285 45.3344 35.6777C45.1537 35.5011 45.1475 35.3265 45.3344 35.1505C45.4006 35.0884 45.464 35.0229 45.5274 34.9581C45.7962 34.684 45.8091 34.4589 45.5888 34.141C45.494 34.0039 45.3617 34.066 45.2478 34.0646C44.5166 34.0565 44.5166 34.0599 44.5173 33.3362C44.5173 33.0524 44.5241 32.768 44.5159 32.4843C44.5084 32.2217 44.6394 32.1112 44.887 32.1098C44.9777 32.1098 45.0684 32.1098 45.1598 32.1098C45.5479 32.1098 45.7055 31.9639 45.7743 31.5737C45.8016 31.4203 45.6816 31.378 45.6093 31.307C45.0309 30.7389 45.0766 30.7586 45.6093 30.2205C45.801 30.0275 45.9974 29.8392 46.189 29.6455C46.3684 29.4641 46.541 29.4648 46.7136 29.6537C46.7674 29.7123 46.8241 29.7676 46.8807 29.8242C47.1842 30.1264 47.3513 30.1366 47.721 29.9101C47.8451 29.8344 47.7981 29.7314 47.7974 29.6428C47.7905 28.8004 47.7373 28.8134 48.6445 28.8222C48.8832 28.8243 49.1213 28.8257 49.36 28.8222C49.611 28.8188 49.7426 28.9334 49.744 29.1885C49.744 29.2683 49.744 29.3474 49.744 29.4272C49.7454 29.8754 49.8368 29.9831 50.2583 30.0889C50.4111 30.127 50.4602 30.0172 50.5359 29.9436C50.9147 29.5748 51.2907 29.5798 51.664 29.9586C51.8393 30.1359 52.0194 30.3098 52.1974 30.4845C52.3863 30.6693 52.4054 30.8514 52.196 31.0362C52.1285 31.0963 52.0685 31.1658 52.0044 31.23C51.7588 31.4762 51.7466 31.779 51.9614 32.0464C52.0344 32.1371 52.1244 32.1064 52.2097 32.1091C52.357 32.1139 52.505 32.1091 52.6523 32.1091C52.8999 32.1105 53.0343 32.2278 53.0343 32.4829C53.0343 32.8806 53.0336 33.2782 53.0329 33.6752C53.0329 33.9385 52.9149 34.081 52.6373 34.0619C52.5582 34.0565 52.4784 34.0619 52.3986 34.0619C51.9928 34.0619 51.8584 34.1758 51.7677 34.5755C51.7309 34.7372 51.8564 34.7951 51.9389 34.879C52.2895 35.2333 52.2913 35.5847 51.9444 35.9335C51.752 36.1265 51.5563 36.3161 51.3687 36.5133C51.1791 36.7131 51.0004 36.7077 50.8169 36.5099C50.763 36.4519 50.7044 36.3973 50.6484 36.3407C50.3626 36.0522 50.1757 36.0385 49.8368 36.2629C49.7269 36.3359 49.7426 36.4341 49.7454 36.5324C49.7726 37.4791 49.6928 37.3318 48.8921 37.342C48.8464 37.342 48.8014 37.342 48.7557 37.342H48.7564ZM50.4015 33.0988C50.4049 32.1746 49.6942 31.4571 48.7748 31.4578C47.8588 31.4578 47.1248 32.1876 47.1289 33.0927C47.1324 33.9794 47.8601 34.7146 48.7489 34.7297C49.6485 34.7447 50.3981 34.0053 50.4015 33.0988Z" fill="#054194"/>
<path d="M43.3794 40.7252C42.8637 40.7249 42.454 40.318 42.4531 39.8051C42.4522 39.2867 42.8662 38.8727 43.3854 38.873C43.8914 38.873 44.305 39.2922 44.305 39.8045C44.305 40.3164 43.8935 40.7255 43.3794 40.7252Z" fill="white"/>
<path d="M57.9297 31.4658V46.81" stroke="#054194" stroke-width="1.32278"/>
<path d="M57.2656 31.5508L62.5558 31.4652" stroke="#054194" stroke-width="1.05822"/>
<path d="M57.2656 46.3662L62.5558 46.2806" stroke="#054194" stroke-width="1.05822"/>
<path d="M54.8906 38.873L62.8263 38.873" stroke="#054194" stroke-width="1.05822"/>
<rect x="64.1484" y="29.3496" width="4.49744" height="4.49744" rx="0.793666" fill="#054194"/>
<rect x="64.1484" y="36.4922" width="4.49744" height="4.49744" rx="0.793666" fill="#054194"/>
<rect x="64.1484" y="43.3711" width="4.49744" height="4.49744" rx="0.793666" fill="#054194"/>
</svg>
