<svg width="630" height="386" viewBox="0 0 630 386" fill="none" xmlns="http://www.w3.org/2000/svg">
<path d="M361.183 324.499C361.183 298.71 361.183 275.266 361.183 275.266H291.142C291.142 275.266 291.142 298.71 291.142 324.499C291.142 343.255 256.121 356.736 256.121 356.736H396.203C396.203 356.736 361.183 343.255 361.183 324.499Z" fill="url(#paint0_linear_818_342)"/>
<path d="M396.203 356.734H256.121V364.353H396.203V356.734Z" fill="url(#paint1_linear_818_342)"/>
<path d="M493.679 286.401H158.649C151.627 286.401 145.934 280.708 145.934 273.685V45.3286C145.934 38.3059 151.627 32.6129 158.649 32.6129H493.679C500.702 32.6129 506.395 38.3059 506.395 45.3286V273.685C506.395 280.708 500.702 286.401 493.679 286.401Z" fill="url(#paint2_linear_818_342)"/>
<path d="M497.579 45.3278V253.417C497.579 255.57 495.83 257.32 493.682 257.32H158.649C158.43 257.32 158.211 257.303 158.004 257.264C156.153 256.955 154.746 255.352 154.746 253.417V45.3278C154.746 43.1744 156.495 41.4247 158.649 41.4247H493.682C495.83 41.4247 497.579 43.1744 497.579 45.3278Z" fill="url(#paint3_linear_818_342)"/>
<path d="M345.476 276.255H306.856C304.429 276.255 302.46 274.287 302.46 271.859C302.46 269.431 304.429 267.463 306.856 267.463H345.476C347.903 267.463 349.872 269.431 349.872 271.859C349.871 274.287 347.903 276.255 345.476 276.255Z" stroke="white" stroke-width="1.5715" stroke-miterlimit="10"/>
<path d="M617.092 103.06C602.376 104.886 600.895 106.366 599.069 121.083C597.243 106.366 595.763 104.886 581.046 103.06C595.763 101.234 597.243 99.7539 599.069 85.0368C600.895 99.7539 602.375 101.234 617.092 103.06Z" fill="#43BBFF"/>
<path d="M59.2588 218.391C44.5422 220.217 43.0617 221.697 41.2358 236.414C39.4099 221.697 37.93 220.217 23.2129 218.391C37.9295 216.565 39.4099 215.085 41.2358 200.368C43.0617 215.085 44.5422 216.565 59.2588 218.391Z" fill="#8CACFF"/>
<path d="M585.562 44.569C576.584 45.6827 575.681 46.5856 574.567 55.5637C573.454 46.5856 572.55 45.6827 563.573 44.569C572.551 43.4553 573.454 42.5524 574.567 33.5743C575.681 42.5519 576.584 43.4547 585.562 44.569Z" fill="white"/>
<path d="M22.8464 180.731C13.8683 181.844 12.9654 182.747 11.8517 191.725C10.738 182.747 9.83516 181.844 0.857056 180.731C9.83516 179.617 10.738 178.714 11.8517 169.736C12.9654 178.714 13.8683 179.617 22.8464 180.731Z" fill="white"/>
<path d="M82.1815 148.3H24.0571C15.213 148.3 8.04346 141.131 8.04346 132.286V74.1626C8.04346 65.3185 15.213 58.1489 24.0571 58.1489H82.1815C91.0256 58.1489 98.1952 65.3185 98.1952 74.1626V132.287C98.1946 141.13 91.0256 148.3 82.1815 148.3Z" fill="#61A2FF"/>
<path d="M78.4207 96.3664C76.9531 96.7819 75.4861 97.198 74.0185 97.6136C72.87 97.9388 71.1787 98.7301 70.0291 98.1547C69.7442 98.0123 69.5564 97.5917 69.742 97.2984C70.4548 96.1729 72.187 95.9851 73.3876 95.6519C74.8575 95.2443 76.3278 94.8366 77.7976 94.4289C79.0538 94.0801 79.6863 96.0075 78.4207 96.3664Z" fill="white"/>
<path d="M70.9907 82.7438C65.5529 89.1254 65.7688 89.0122 64.9859 89.3155C64.3758 89.5522 63.7387 88.9252 63.8756 88.3162C64.0483 87.544 63.9843 87.7504 69.4884 81.4209C70.3358 80.4473 71.8257 81.7641 70.9907 82.7438Z" fill="white"/>
<path d="M51.5588 83.4609C51.3546 81.9345 51.1511 80.4075 50.947 78.881C50.7653 77.5234 50.2863 75.9324 50.7619 74.6101C50.9711 74.0291 51.7949 74.0998 52.0966 74.531C52.8822 75.656 52.8043 77.4555 52.9747 78.7773C53.1716 80.3043 53.369 81.8313 53.5658 83.3583C53.7318 84.6419 51.7292 84.7367 51.5588 83.4609Z" fill="white"/>
<path d="M34.8339 98.517C32.5157 98.3331 30.1593 98.1693 27.8713 97.7409C26.6398 97.5104 27.057 95.7266 28.2616 95.8657C30.5838 96.1332 32.8903 96.4595 35.2209 96.6586C36.44 96.7629 36.0346 98.6124 34.8339 98.517Z" fill="white"/>
<path d="M39.8129 88.988C38.6363 88.2215 37.4851 87.4195 36.3405 86.6058C35.2958 85.8634 33.8198 85.136 33.2652 83.9539C32.9708 83.327 33.6931 82.7589 34.2594 82.8486C34.9694 82.9619 35.0771 83.2008 37.5479 84.9757C38.6633 85.777 39.7938 86.5559 40.9008 87.3685C41.7896 88.0218 40.7477 89.5971 39.8129 88.988Z" fill="white"/>
<path d="M67.4367 103.709C67.4367 107.344 66.0819 110.661 63.85 113.186C62.1452 115.114 60.9457 117.415 60.3535 119.881C60.0703 121.05 59.9234 122.258 59.9234 123.481V128.994C59.9234 130.796 58.4626 132.256 56.6602 132.256H49.577C47.7746 132.256 46.3144 130.795 46.3144 128.994V123.481C46.3144 122.26 46.1719 121.052 45.891 119.881C45.3078 117.429 44.1296 115.138 42.4293 113.23C40.0437 110.555 38.6479 106.977 38.8162 103.072C39.1336 95.7231 45.0935 89.7463 52.4426 89.407C60.6586 89.0285 67.4367 95.5778 67.4367 103.709Z" fill="white"/>
<path d="M57.0298 123.757L55.4714 123.717C55.4927 123.47 55.9761 116.479 56.9906 108.233C55.0996 108.777 53.1694 109.024 51.2364 108.966C51.1018 115.666 50.3896 124.755 50.3879 124.783L48.8301 124.739C48.8318 124.71 49.5524 115.566 49.6802 108.847C46.7019 108.429 46.0727 106.797 45.9409 106.091C45.72 104.909 46.283 103.646 47.2801 103.088C48.834 102.218 51.025 103.541 51.2257 107.335C53.2412 107.407 55.251 107.119 57.2109 106.479C57.3825 105.086 57.4947 103.752 58.1889 102.701C58.9617 101.532 60.3048 101.077 61.3147 101.518C62.8922 102.206 63.4171 105.182 60.2908 106.932C59.7485 107.236 59.1597 107.48 58.6264 107.683C57.5233 116.484 57.0747 123.243 57.0298 123.757ZM58.8563 105.856C61.4527 104.724 61.1723 103.357 60.7472 103.06C59.3105 103.264 59.0969 103.942 58.8563 105.856ZM47.4999 105.239C47.2116 106.416 48.5121 106.997 49.6494 107.193C49.4211 104.48 47.8694 103.729 47.4999 105.239Z" fill="#A1BBFF"/>
<path d="M60.353 119.881C60.0699 121.05 59.9229 122.258 59.9229 123.481V128.993C59.9229 130.796 58.4621 132.256 56.6597 132.256H49.5765C47.7742 132.256 46.3139 130.795 46.3139 128.993V123.481C46.3139 122.26 46.1715 121.052 45.8905 119.881H60.353Z" fill="#81A1C7"/>
<path d="M334.68 37.6393L333.683 37.2613L341.956 15.4391L366.54 23.2704L378.481 5.71233L379.363 6.31236L366.975 24.5282L342.595 16.7625L334.68 37.6393Z" fill="#43BBFF"/>
<path d="M340.738 38.0601C342.274 43.0517 339.472 48.3432 334.48 49.8792C329.489 51.4151 324.197 48.6135 322.661 43.622C321.125 38.6305 323.927 33.3389 328.918 31.8029C333.91 30.2675 339.202 33.0686 340.738 38.0601Z" fill="#43BBFF"/>
<path d="M372.852 22.9051C373.845 26.1329 372.034 29.5543 368.806 30.5474C365.578 31.5405 362.156 29.7292 361.164 26.5014C360.17 23.2735 361.982 19.8522 365.21 18.859C368.437 17.8659 371.858 19.6778 372.852 22.9051Z" fill="#43BBFF"/>
<path d="M380.936 5.39344C381.277 6.50434 380.654 7.68199 379.543 8.0235C378.432 8.36558 377.255 7.74199 376.913 6.63108C376.571 5.52017 377.195 4.34254 378.306 4.00102C379.417 3.65894 380.594 4.28253 380.936 5.39344Z" fill="#43BBFF"/>
<path d="M347.115 14.6132C347.936 17.2831 346.438 20.1134 343.768 20.9349C341.098 21.7565 338.268 20.2581 337.446 17.5882C336.625 14.9183 338.123 12.088 340.793 11.2665C343.463 10.445 346.293 11.9434 347.115 14.6132Z" fill="#43BBFF"/>
<path d="M381.953 241.492L382.69 240.72L365.815 224.598L347.011 242.265L328.666 231.573L328.129 232.494L347.162 243.587L365.809 226.068L381.953 241.492Z" fill="#196FE8"/>
<path d="M376.672 244.484C377.438 249.65 382.248 253.216 387.413 252.449C392.579 251.683 396.146 246.874 395.379 241.708C394.612 236.542 389.803 232.976 384.637 233.742C379.472 234.509 375.905 239.318 376.672 244.484Z" fill="#196FE8"/>
<path d="M341.163 244.658C341.658 247.998 344.769 250.304 348.109 249.808C351.45 249.313 353.756 246.203 353.26 242.862C352.764 239.521 349.654 237.215 346.314 237.711C342.973 238.207 340.667 241.317 341.163 244.658Z" fill="#196FE8"/>
<path d="M326.319 232.344C326.489 233.493 327.56 234.287 328.709 234.116C329.859 233.946 330.653 232.875 330.482 231.726C330.311 230.576 329.241 229.783 328.091 229.953C326.942 230.124 326.148 231.194 326.319 232.344Z" fill="#196FE8"/>
<path d="M360.812 226.078C361.222 228.841 363.794 230.749 366.558 230.339C369.321 229.929 371.228 227.357 370.818 224.594C370.408 221.831 367.836 219.923 365.073 220.333C362.31 220.743 360.402 223.316 360.812 226.078Z" fill="#196FE8"/>
<path d="M280.978 161.718H146.124C137.62 161.718 130.726 154.824 130.726 146.319V15.9629C130.726 7.45861 137.62 0.564362 146.124 0.564362H280.978C289.482 0.564362 296.377 7.45861 296.377 15.9629V146.32C296.377 154.824 289.482 161.718 280.978 161.718Z" fill="#206BD6"/>
<path d="M274.266 32.7961H152.839C150.355 32.7961 148.341 30.7829 148.341 28.2986C148.341 25.8149 150.355 23.8011 152.839 23.8011H274.266C276.75 23.8011 278.763 25.8149 278.763 28.2986C278.763 30.7823 276.75 32.7961 274.266 32.7961Z" fill="white"/>
<path d="M274.266 50.7851H152.839C150.355 50.7851 148.341 48.7713 148.341 46.2876C148.341 43.8039 150.355 41.7901 152.839 41.7901H274.266C276.75 41.7901 278.763 43.8039 278.763 46.2876C278.763 48.7713 276.75 50.7851 274.266 50.7851Z" fill="white"/>
<path d="M160.709 136.984H148.341V103.442C148.341 100.027 151.11 97.2582 154.525 97.2582C157.94 97.2582 160.709 100.027 160.709 103.442V136.984Z" fill="white"/>
<path opacity="0.8" d="M190.221 136.982H177.854V92.1697C177.854 88.7545 180.622 85.986 184.037 85.986C187.452 85.986 190.221 88.7545 190.221 92.1697V136.982Z" fill="#6CA8FF"/>
<path d="M219.733 136.981H207.365V114.708C207.365 111.293 210.134 108.524 213.549 108.524C216.964 108.524 219.733 111.293 219.733 114.708V136.981Z" fill="white"/>
<path d="M249.247 136.982H236.88V92.1697C236.88 88.7545 239.648 85.986 243.063 85.986C246.479 85.986 249.247 88.7545 249.247 92.1697V136.982Z" fill="white"/>
<path opacity="0.8" d="M278.761 136.982H266.394V75.2644C266.394 71.8492 269.162 69.0807 272.577 69.0807C275.993 69.0807 278.761 71.8492 278.761 75.2644V136.982Z" fill="#6CA8FF"/>
<path d="M296.643 211.41H193.789C191.916 211.41 190.398 209.892 190.398 208.019C190.398 206.146 191.916 204.628 193.789 204.628H296.643C298.516 204.628 300.034 206.146 300.034 208.019C300.034 209.892 298.516 211.41 296.643 211.41Z" fill="white"/>
<path d="M296.844 227.661H238.851C236.978 227.661 235.46 226.143 235.46 224.27C235.46 222.397 236.978 220.879 238.851 220.879H296.844C298.717 220.879 300.235 222.397 300.235 224.27C300.235 226.143 298.717 227.661 296.844 227.661Z" fill="white"/>
<path d="M18.2851 22.3342C9.70966 22.3342 9.69564 35.6618 18.2851 35.6618C26.8606 35.6618 26.8746 22.3342 18.2851 22.3342Z" fill="#8CACFF"/>
<path d="M103.887 7.81097C99.7261 7.81097 99.7193 14.2773 103.887 14.2773C108.048 14.2779 108.055 7.81097 103.887 7.81097Z" fill="white"/>
<path d="M608.238 356.086C608.032 355.351 607.661 354.713 607.123 354.172C606.886 353.954 606.648 353.735 606.412 353.516C605.581 352.75 604.521 352.257 603.373 352.257C602.781 352.235 602.229 352.358 601.717 352.627C601.184 352.801 600.723 353.097 600.333 353.516C599.581 354.336 599.023 355.411 599.074 356.555C599.125 356.936 599.177 357.317 599.228 357.697C599.432 358.425 599.801 359.058 600.333 359.594C600.552 359.831 600.771 360.068 600.989 360.305C601.382 360.728 601.847 361.027 602.385 361.202C602.902 361.473 603.459 361.598 604.056 361.575C604.654 361.598 605.21 361.473 605.727 361.202C606.265 361.027 606.73 360.728 607.123 360.305C607.882 359.479 608.445 358.393 608.393 357.239C608.341 356.855 608.29 356.47 608.238 356.086Z" fill="white"/>
<path d="M313.379 378.925C308.914 378.925 308.906 385.865 313.379 385.865C317.845 385.865 317.852 378.925 313.379 378.925Z" fill="white"/>
<path d="M314.774 126.716C310.308 126.716 310.301 133.656 314.774 133.656C319.239 133.656 319.247 126.716 314.774 126.716Z" fill="white"/>
<path d="M624.326 154.025C617.274 154.025 617.263 164.983 624.326 164.983C631.377 164.983 631.389 154.025 624.326 154.025Z" fill="#8CACFF"/>
<path d="M121.715 337.661C121.61 337.561 121.504 337.462 121.399 337.361C119.121 335.199 115.62 335.191 113.333 337.361C113.227 337.461 113.122 337.561 113.016 337.661C109.092 341.384 112.139 348.162 117.366 348.162C122.587 348.162 125.63 341.376 121.715 337.661Z" fill="white"/>
<path d="M559.215 103.573H531.581C528.059 103.573 525.204 106.429 525.204 109.95V133.098C525.204 136.62 528.059 139.475 531.581 139.475H536.275C536.955 139.475 537.606 139.745 538.086 140.226L542.802 144.941C544.208 146.348 546.489 146.348 547.895 144.941L552.611 140.226C553.092 139.745 555.986 139.475 556.665 139.475H559.215C562.738 139.475 565.593 136.62 565.593 133.098V109.95C565.593 106.429 562.738 103.573 559.215 103.573Z" fill="#2392FF"/>
<path d="M558.671 113.754C557.9 112.983 556.65 112.983 555.879 113.754L544.214 125.42L537.158 118.364C536.386 117.592 535.136 117.592 534.365 118.364C533.594 119.135 533.594 120.385 534.365 121.156L542.8 129.59C542.802 129.593 542.806 129.595 542.81 129.598C542.812 129.602 542.815 129.605 542.818 129.608C543.589 130.379 544.839 130.379 545.61 129.608L558.672 116.547C559.442 115.775 559.442 114.525 558.671 113.754Z" fill="white"/>
<path d="M115.65 371.149H26.8286C19.659 371.149 13.847 365.338 13.847 358.168V285.293C13.847 278.124 19.659 272.312 26.8286 272.312H115.65C122.82 272.312 128.632 278.124 128.632 285.293V358.168C128.632 365.338 122.82 371.149 115.65 371.149Z" fill="#2B65B8"/>
<path d="M128.682 284.978V357.853C128.682 365.023 122.868 370.831 115.697 370.831H102C109.17 370.831 114.985 365.024 114.985 357.853V284.978C114.985 277.808 109.171 272 102 272H115.697C122.868 272.001 128.682 277.808 128.682 284.978Z" fill="url(#paint4_linear_818_342)"/>
<path d="M536.074 5.65921H447.052C444.043 5.65921 441.603 8.09917 441.603 11.1089V31.0923V44.2146C441.603 45.6777 443.333 46.4521 444.424 45.478L452.952 37.8654C453.263 37.5884 453.664 37.4353 454.08 37.4353H536.074C539.083 37.4353 541.523 34.9954 541.523 31.9856V11.1083C541.523 8.09861 539.083 5.65921 536.074 5.65921Z" fill="#2B65B8"/>
<path d="M529.211 18.6594H456.88C455.597 18.6594 454.557 17.6197 454.557 16.3366C454.557 15.0536 455.597 14.0139 456.88 14.0139H529.211C530.495 14.0139 531.534 15.0536 531.534 16.3366C531.534 17.6197 530.495 18.6594 529.211 18.6594Z" fill="white"/>
<path d="M529.211 29.2312H456.88C455.597 29.2312 454.557 28.191 454.557 26.9085C454.557 25.6254 455.597 24.5857 456.88 24.5857H529.211C530.495 24.5857 531.534 25.626 531.534 26.9085C531.534 28.191 530.495 29.2312 529.211 29.2312Z" fill="white"/>
<path d="M100.269 371.351H308.626C318.311 371.351 326.163 363.5 326.163 353.814V352.405C326.163 342.72 318.312 334.868 308.626 334.868H100.269C90.5839 334.868 82.7324 342.719 82.7324 352.405V353.814C82.7324 363.5 90.5839 371.351 100.269 371.351Z" fill="url(#paint5_linear_818_342)"/>
<path d="M139.924 366.392H303.354C310.464 366.392 316.228 360.629 316.228 353.518C316.228 346.408 310.465 340.644 303.354 340.644H139.924C132.814 340.644 127.05 346.408 127.05 353.518C127.05 360.629 132.814 366.392 139.924 366.392Z" fill="white"/>
<path d="M95.781 365.155L100.328 360.609C102.075 361.928 104.24 362.721 106.593 362.721C112.34 362.721 117.015 358.045 117.015 352.298C117.015 346.551 112.34 341.876 106.593 341.876C100.846 341.876 96.1701 346.551 96.1701 352.298C96.1701 354.843 97.0893 357.175 98.6095 358.986L94.111 363.485L95.781 365.155ZM106.593 360.358C102.148 360.358 98.5327 356.743 98.5327 352.298C98.5327 347.855 102.149 344.239 106.593 344.239C111.036 344.239 114.652 347.855 114.652 352.298C114.652 356.743 111.036 360.358 106.593 360.358Z" fill="white"/>
<path d="M252.077 304.345H256.596C255.857 303.691 254.932 303.3 253.926 303.3H140.706C134.782 303.3 129.98 308.802 129.98 315.588V323.393C129.98 330.18 134.782 335.682 140.706 335.682L252.66 335.638L252.077 304.345Z" fill="url(#paint6_linear_818_342)"/>
<path d="M187.801 303.326C182.137 303.326 177.544 308.588 177.544 315.078V323.898C177.544 330.388 182.136 335.649 187.801 335.649H258.283V333.677H257.992L240.074 331.732L236.452 315.454C236.452 315.454 243.442 306.46 243.898 306.228C244.353 305.996 257.992 305.292 257.992 305.292L258.283 305.288V303.326L187.801 303.326Z" fill="#52A1FF"/>
<path d="M253.71 319.433C253.71 309.916 258.003 305.303 258.003 305.303H189.243C184.04 305.303 179.821 310.135 179.821 316.097V322.886C179.821 328.847 184.04 333.68 189.243 333.68H258.003C258.003 333.68 253.71 331.417 253.71 319.433Z" fill="#F4F4F4"/>
<path d="M179.825 316.095V322.885C179.825 323.777 179.921 324.644 180.1 325.473C182.419 318.973 186.864 312.712 195.325 310.698C215.079 305.998 258.007 305.301 258.007 305.301H189.246C184.043 305.301 179.825 310.134 179.825 316.095Z" fill="#DAEEF7"/>
<path d="M125.226 278.464H120.705C121.445 277.945 122.37 277.635 123.377 277.635H236.641C242.567 277.635 247.371 282 247.371 287.385V293.578C247.371 298.964 242.567 303.329 236.641 303.329L124.643 303.294L125.226 278.464Z" fill="#2B65B8"/>
<path d="M189.528 277.659C195.195 277.659 199.789 281.833 199.789 286.983V293.982C199.789 299.132 195.195 303.306 189.528 303.306H119.017V301.741H119.308L137.234 300.198L140.857 287.282C140.857 287.282 133.864 280.145 133.408 279.961C132.952 279.777 119.308 279.218 119.308 279.218L119.017 279.216V277.659H189.528Z" fill="#2368B9"/>
<path d="M123.589 290.434C123.589 282.883 119.294 279.222 119.294 279.222H188.081C193.287 279.222 197.506 283.057 197.506 287.787V293.174C197.506 297.905 193.287 301.739 188.081 301.739H119.294C119.294 301.739 123.589 299.943 123.589 290.434Z" fill="#F4F4F4"/>
<path d="M197.506 287.788V293.175C197.506 293.883 197.409 294.571 197.231 295.229C194.911 290.071 190.465 285.102 182 283.505C162.238 279.776 119.294 279.223 119.294 279.223H188.081C193.286 279.223 197.506 283.057 197.506 287.788Z" fill="#DAEEF7"/>
<path d="M234.08 252.902H237.65C237.066 252.385 236.335 252.076 235.54 252.076H146.094C141.415 252.076 137.621 256.423 137.621 261.784V267.95C137.621 273.312 141.415 277.658 146.094 277.658L234.54 277.623L234.08 252.902Z" fill="url(#paint7_linear_818_342)"/>
<path d="M183.298 252.098C178.823 252.098 175.194 256.255 175.194 261.382V268.351C175.194 273.478 178.822 277.635 183.298 277.635H238.98V276.076H238.75L224.594 274.54L221.733 261.68C221.733 261.68 227.255 254.574 227.616 254.391C227.976 254.207 238.75 253.652 238.75 253.652L238.98 253.649V252.099H183.298V252.098Z" fill="#009DFF"/>
<path d="M235.372 264.823C235.372 257.304 238.763 253.66 238.763 253.66H184.441C180.331 253.66 176.999 257.477 176.999 262.187V267.551C176.999 272.26 180.331 276.078 184.441 276.078H238.763C238.763 276.078 235.372 274.29 235.372 264.823Z" fill="#F4F4F4"/>
<path d="M176.996 262.185V267.549C176.996 268.254 177.072 268.939 177.213 269.594C179.045 264.459 182.557 259.512 189.241 257.922C204.847 254.208 238.761 253.658 238.761 253.658H184.439C180.328 253.658 176.996 257.476 176.996 262.185Z" fill="#DAEEF7"/>
<path d="M435.878 268.414C431.692 263.589 425.71 257.115 424.816 256.201C423.346 254.699 422.049 256.281 423.229 258.007C424.553 259.944 430.194 268.415 430.194 268.415H435.878V268.414Z" fill="#FFC6B3"/>
<path d="M442.727 279.705C441.791 277.326 441.567 274.57 435.878 268.415C431.293 263.456 423.134 273.68 423.345 276.654C423.556 279.628 430.222 284.81 432.165 286.337C433.507 287.392 443.921 282.737 442.727 279.705Z" fill="#FFC6B3"/>
<path d="M435.858 280.862C434.88 278.779 431.098 274.498 430.29 273.657C428.757 272.059 429.701 270.232 432.031 271.794C434.574 273.498 438.333 271.842 439.382 273.27C440.29 274.507 443.349 279.529 442.615 282.659C441.925 285.596 437.761 284.914 435.858 280.862Z" fill="#FFC6B3"/>
<path d="M429.718 290.427C431.695 296.747 459.129 339.599 475.838 347.307C477.026 347.855 478.156 348.224 479.217 348.392C484.723 349.262 490.772 343.381 496.555 334.669C507.66 317.925 517.768 290.71 521.106 280.695C526.185 265.461 516.453 230.347 498.682 249.807C483.489 266.447 474.754 308.584 473.065 310.7C471.37 312.81 447.562 281.08 445.025 279.385C442.483 277.696 427.601 283.658 429.718 290.427Z" fill="white"/>
<path d="M475.837 347.308C477.025 347.856 478.155 348.225 479.216 348.392C484.722 349.263 490.771 343.382 496.554 334.669L490.54 281.428C485.783 297.67 476.985 331.758 475.837 347.308Z" fill="url(#paint8_linear_818_342)"/>
<path d="M486.775 363.037C486.196 379.517 582.65 377.597 584.662 363.037C586.674 348.477 597.802 265.005 581.185 253.191C562.147 239.653 508.501 234.77 498.681 249.807C487.109 267.531 487.354 356.565 486.775 363.037Z" fill="url(#paint9_linear_818_342)"/>
<path d="M571.389 278.979C571.389 278.979 574.8 312.713 579.134 324.013C581.282 329.614 542.684 329.35 542.684 329.35L565.971 346.446H606.916L590.578 304.261L571.389 278.979Z" fill="url(#paint10_linear_818_342)"/>
<path d="M539.942 331.745C534.542 330.362 527.535 325.865 523.672 328.166C519.81 330.467 517.83 336.091 519.842 340.437C521.855 344.783 535.099 342.482 537.68 340.437C540.261 338.392 539.942 331.745 539.942 331.745Z" fill="#FFC6B3"/>
<path d="M580.727 253.19C605.456 268.762 630.615 336.473 622.614 350.929C611.841 370.392 538.84 347.582 535.032 345.466C531.225 343.351 533.34 327.082 542.225 328.774C551.11 330.467 585.381 335.329 587.92 333.398C590.458 331.467 546.456 231.609 580.727 253.19Z" fill="white"/>
<path d="M546.001 242.98C547.734 250.886 542.667 256.222 533.419 255.471C521.561 254.508 526.415 242.205 526.415 242.205L540.424 244.076L546.001 242.98Z" fill="white"/>
<path d="M546.13 244.077C547.008 251.938 526.048 253.564 526.252 245.93C526.303 243.793 526.366 241.312 526.417 238.831C526.531 232.444 526.608 226.12 526.608 226.12L531.264 221.884L536.99 218.893L544.407 215.039C543.733 227.596 545.385 237.413 546.13 244.077Z" fill="#FFC6B3"/>
<path d="M540.423 219.286C540.423 219.286 536.873 238.728 526.415 238.829C526.529 232.442 526.605 226.118 526.605 226.118L531.262 221.882L536.988 218.892L540.423 219.286Z" fill="#FF9673"/>
<path d="M543.646 219.13C547.083 218.728 550.129 217.985 553.566 217.583C555.376 209.66 561.252 203.166 562.306 194.207C563.073 187.688 560.502 183.979 557.576 183.726C554.185 169.899 539.042 164.982 525.881 169.952C520.804 171.765 515.891 169.545 512.66 165.284C512.444 164.999 512.05 164.895 511.739 165.072C509.409 166.397 509.293 170.388 510.564 172.905C509.389 172.978 508.057 172.265 507.113 171.245C506.73 170.832 506.059 170.975 505.891 171.513C505.095 174.069 506.576 177.045 508.34 179.082C505.876 178.92 504.34 178.335 503.431 176.354C503.173 175.79 502.362 175.754 502.12 176.324C499.763 181.892 505.997 196.907 513.607 201.643C517.423 204.019 519.156 208.973 522.977 211.34C526.798 213.708 532.038 214.374 535.68 211.741C538.1 214.301 541.226 216.57 543.646 219.13Z" fill="url(#paint11_linear_818_342)"/>
<path d="M515.042 187.819C509.401 198.537 506.58 228.856 522.448 230.831C538.841 232.871 547.762 217.01 550.018 208.689C552.275 200.368 540.992 183.726 540.992 183.726L515.042 187.819Z" fill="#FFC6B3"/>
<path d="M513.368 180.156C511.857 182.611 511.691 185.622 512.924 188.183C514.157 190.745 516.768 192.812 519.885 193.694C521.804 194.237 523.516 194.454 525.531 194.626C528.308 194.863 531.129 195.109 533.715 195.994C538.034 197.473 540.406 200.533 541.683 204.173C543.254 208.652 542.758 211.952 547.785 214.841C552.118 210.374 555.506 205.097 555.802 199.34C556.098 193.583 554.125 187.761 550.267 182.997C546.724 178.624 540.775 177.431 534.777 175.826C528.778 174.221 516.261 175.458 513.368 180.156Z" fill="url(#paint12_linear_818_342)"/>
<path d="M545.859 213.129C548.538 209.745 557.494 210.591 555.801 217.361C554.109 224.13 544.166 222.861 542.897 219.053L545.859 213.129Z" fill="#FFC6B3"/>
<path d="M533.655 216.224C533.484 217.867 531.689 219.026 529.646 218.814C527.604 218.601 526.087 217.096 526.258 215.453C526.43 213.81 528.224 212.65 530.267 212.863C532.31 213.076 533.826 214.581 533.655 216.224Z" fill="#FF9673"/>
<path d="M532.237 213.056C532.062 213.056 531.914 212.923 531.897 212.745C531.759 211.212 531.218 210.439 530.089 210.16C529.003 209.889 527.902 210.399 527.277 211.451C527.181 211.613 526.971 211.665 526.809 211.569C526.647 211.473 526.595 211.264 526.691 211.101C527.473 209.784 528.872 209.154 530.253 209.497C531.674 209.849 532.413 210.862 532.577 212.684C532.594 212.872 532.455 213.037 532.267 213.054C532.258 213.055 532.247 213.056 532.237 213.056Z" fill="url(#paint13_linear_818_342)"/>
<path d="M519.43 210.559C519.254 210.559 519.106 210.426 519.089 210.248C518.952 208.716 518.411 207.942 517.282 207.662C516.196 207.392 515.096 207.901 514.471 208.953C514.376 209.115 514.164 209.167 514.003 209.072C513.842 208.976 513.788 208.767 513.885 208.604C514.667 207.288 516.062 206.658 517.445 207C518.866 207.352 519.605 208.364 519.77 210.187C519.787 210.375 519.647 210.54 519.46 210.557C519.451 210.558 519.439 210.559 519.43 210.559Z" fill="url(#paint14_linear_818_342)"/>
<path d="M523.141 212.053C523.012 212.05 522.848 212.144 522.841 212.29C522.836 212.395 522.826 212.5 522.807 212.604C522.797 212.662 522.784 212.719 522.77 212.776C522.763 212.801 522.756 212.827 522.749 212.853C522.746 212.863 522.746 212.864 522.745 212.868C522.744 212.87 522.745 212.868 522.743 212.872C522.707 212.971 522.669 213.069 522.623 213.164C522.598 213.217 522.57 213.269 522.541 213.32C522.53 213.338 522.519 213.357 522.508 213.375C522.504 213.382 522.507 213.379 522.504 213.384C522.501 213.387 522.503 213.385 522.498 213.391C522.421 213.501 522.345 213.61 522.269 213.721C522.299 213.677 522.302 213.671 522.27 213.718C522.255 213.74 522.24 213.762 522.224 213.783C522.193 213.827 522.16 213.869 522.126 213.91C522.038 214.017 521.952 214.106 521.893 214.235C521.858 214.313 521.809 214.406 521.769 214.468C521.718 214.546 521.696 214.632 521.745 214.719C521.787 214.796 521.872 214.849 521.963 214.839C522.092 214.824 522.22 214.796 522.346 214.764C522.519 214.718 522.629 214.617 522.756 214.497C522.952 214.309 523.112 214.101 523.216 213.848C523.416 213.366 523.498 212.833 523.417 212.315C523.396 212.173 523.291 212.057 523.141 212.053Z" fill="#FF4F4F"/>
<path d="M527.347 223.365C526.498 224.408 524.978 225.195 522.685 225.03C522.278 225.002 521.905 224.933 521.567 224.829C517.962 223.752 518.266 218.974 519.592 218.532C519.764 218.47 519.958 218.49 520.165 218.601C522.146 219.692 524.826 219.754 526.448 219.408C526.828 219.325 527.153 219.367 527.408 219.491C528.465 220.002 528.548 221.922 527.347 223.365Z" fill="#F20000"/>
<path d="M527.346 223.366C526.497 224.409 524.977 225.196 522.685 225.031C522.277 225.003 521.905 224.934 521.566 224.831C521.56 224.762 521.559 224.693 521.559 224.616C521.559 223.049 522.926 221.778 524.611 221.778C525.814 221.778 526.856 222.427 527.346 223.366Z" fill="#FF4F4F"/>
<path d="M526.746 220.521C525.024 220.98 521.034 220.658 519.896 219.84C519.357 219.454 519.26 219.015 519.591 218.532C519.764 218.47 519.957 218.49 520.164 218.601C522.146 219.691 524.825 219.754 526.448 219.408C526.827 219.325 527.152 219.367 527.408 219.491C527.546 220.051 527.231 220.391 526.746 220.521Z" fill="white"/>
<path d="M532.087 207.391C531.786 207.147 531.34 207.014 530.965 206.936C530.576 206.854 530.171 206.826 529.775 206.814C528.95 206.789 528.125 206.949 527.345 207.214C527.283 207.236 527.305 207.343 527.371 207.329C528.158 207.167 528.958 207.138 529.758 207.198C530.14 207.227 530.512 207.293 530.887 207.369C531.257 207.443 531.657 207.555 532.034 207.562C532.12 207.564 532.148 207.44 532.087 207.391Z" fill="url(#paint15_linear_818_342)"/>
<path d="M521.173 205.716C520.784 205.068 520.059 204.673 519.372 204.405C518.66 204.125 517.926 204.006 517.162 204.026C517.066 204.029 517.058 204.186 517.155 204.197C517.866 204.279 518.579 204.482 519.232 204.776C519.883 205.07 520.445 205.509 521.08 205.829C521.152 205.865 521.21 205.778 521.173 205.716Z" fill="url(#paint16_linear_818_342)"/>
<path d="M519.987 214.385C519.819 216.001 518.054 217.141 516.046 216.932C514.037 216.722 512.545 215.243 512.714 213.627C512.882 212.012 514.647 210.871 516.656 211.081C518.664 211.29 520.156 212.77 519.987 214.385Z" fill="#FF9673"/>
<path d="M551.35 217.439C551.135 216.927 550.686 216.537 550.15 216.39C549.87 216.314 549.566 216.317 549.282 216.363C549.245 216.37 549.205 216.378 549.166 216.386C549.303 216.181 549.449 215.983 549.605 215.796C550.14 215.158 550.793 214.664 551.446 214.156C551.466 214.14 551.471 214.117 551.471 214.096C551.535 214.069 551.594 214.032 551.659 214.009C551.727 213.984 551.711 213.874 551.635 213.882C550.606 213.986 549.825 214.596 549.126 215.32C548.377 216.095 547.504 217.044 547.247 218.122C547.215 218.26 547.205 218.4 547.209 218.537C547.183 219.006 547.326 219.481 547.642 219.832C547.805 220.012 548.021 220.164 548.246 220.256C548.39 220.315 548.499 220.327 548.645 220.354C548.746 220.373 548.794 220.402 548.914 220.395C549.001 220.39 549.078 220.362 549.153 220.327C549.389 220.29 549.612 220.223 549.808 220.093C550.297 219.873 550.813 219.579 551.129 219.139C551.477 218.655 551.584 217.996 551.35 217.439Z" fill="#FF9673"/>
<path d="M583.755 369.589H515.338C513.787 369.589 512.53 370.846 512.53 372.398C512.53 373.949 513.787 375.205 515.338 375.205H583.755C585.306 375.205 586.563 373.948 586.563 372.398C586.563 370.846 585.306 369.589 583.755 369.589Z" fill="url(#paint17_linear_818_342)"/>
<path d="M534.69 375.206H433.394C431.024 375.206 428.963 373.577 428.415 371.271L412.421 303.898C411.658 300.683 414.095 297.599 417.4 297.599H518.696C521.067 297.599 523.127 299.228 523.675 301.534L539.669 368.907C540.432 372.121 537.994 375.206 534.69 375.206Z" fill="white"/>
<path d="M534.689 375.206H528.715C532.018 375.206 534.458 372.125 533.691 368.908L517.697 301.535C517.15 299.231 515.093 297.601 512.721 297.601H518.695C521.067 297.601 523.124 299.231 523.671 301.535L539.665 368.908C540.432 372.125 537.992 375.206 534.689 375.206Z" fill="url(#paint18_linear_818_342)"/>
<path d="M478.952 336.404C479.627 340.352 476.972 343.552 473.025 343.552C469.077 343.552 465.331 340.352 464.656 336.404C463.982 332.456 466.636 329.256 470.583 329.256C474.531 329.256 478.277 332.456 478.952 336.404Z" fill="url(#paint19_linear_818_342)"/>
<path d="M477.078 112.578H429.682C425.645 112.578 422.373 109.306 422.373 105.269V76.3092C422.373 72.2727 425.645 69 429.682 69H477.078C481.115 69 484.387 72.2722 484.387 76.3092V105.269C484.387 109.306 481.115 112.578 477.078 112.578Z" fill="url(#paint20_linear_818_342)"/>
<path d="M462.09 192.192H332.794C329.042 192.192 326 189.15 326 185.397V89.2039C326 85.4517 329.042 82.4095 332.794 82.4095H462.09C465.843 82.4095 468.885 85.4511 468.885 89.2039V185.397C468.885 189.15 465.843 192.192 462.09 192.192Z" fill="white"/>
<rect x="326.014" y="110.014" width="143.971" height="80.9714" stroke="#1358BF" stroke-width="2.02858"/>
<path d="M325 94.3712C325 87.5388 330.539 82 337.371 82H459.162C465.995 82 471.534 87.5388 471.534 94.3712V110.4H325V94.3712Z" fill="#206BD6"/>
<circle cx="339.14" cy="95.8304" r="4.30547" fill="white"/>
<circle cx="351.788" cy="95.8304" r="4.30547" fill="white"/>
<circle cx="364.435" cy="96.3362" r="4.30547" fill="white"/>
<rect x="339.141" y="124.909" width="40.6335" height="35.7942" rx="2.45166" fill="#5C9CF7"/>
<rect x="393.755" y="128.111" width="58.9038" height="3.20877" rx="1.60438" fill="#0056B3"/>
<rect x="392.609" y="155.615" width="58.9038" height="3.20877" rx="1.60438" fill="#0056B3"/>
<rect x="393.755" y="137.279" width="50.8819" height="3.20877" rx="1.60438" fill="#0056B3"/>
<rect x="392.609" y="164.783" width="50.8819" height="3.20877" rx="1.60438" fill="#0056B3"/>
<rect x="393.755" y="146.447" width="41.2556" height="3.20877" rx="1.60438" fill="#0056B3"/>
<rect x="392.609" y="173.951" width="41.2556" height="3.20877" rx="1.60438" fill="#0056B3"/>
<defs>
<linearGradient id="paint0_linear_818_342" x1="317.636" y1="297.904" x2="335.219" y2="419.23" gradientUnits="userSpaceOnUse">
<stop stop-color="#00123D"/>
<stop offset="0.0261" stop-color="#00133D"/>
<stop offset="1" stop-color="#002C3D"/>
</linearGradient>
<linearGradient id="paint1_linear_818_342" x1="317.095" y1="297.981" x2="334.678" y2="419.306" gradientUnits="userSpaceOnUse">
<stop stop-color="#00123D"/>
<stop offset="0.0261" stop-color="#00133D"/>
<stop offset="1" stop-color="#002C3D"/>
</linearGradient>
<linearGradient id="paint2_linear_818_342" x1="326.164" y1="44.3351" x2="326.164" y2="484.543" gradientUnits="userSpaceOnUse">
<stop stop-color="#00123D"/>
<stop offset="0.0261" stop-color="#00133D"/>
<stop offset="1" stop-color="#002C3D"/>
</linearGradient>
<linearGradient id="paint3_linear_818_342" x1="326.163" y1="-68.2005" x2="326.163" y2="316.885" gradientUnits="userSpaceOnUse">
<stop stop-color="#3461A1"/>
<stop offset="0.476666" stop-color="#B9CDFF"/>
<stop offset="1" stop-color="#D2E9FF"/>
</linearGradient>
<linearGradient id="paint4_linear_818_342" x1="113.73" y1="348.523" x2="119.195" y2="235.108" gradientUnits="userSpaceOnUse">
<stop stop-color="#2B65B8"/>
<stop offset="1" stop-color="white"/>
</linearGradient>
<linearGradient id="paint5_linear_818_342" x1="204.448" y1="315.807" x2="204.448" y2="384.195" gradientUnits="userSpaceOnUse">
<stop stop-color="#2765FF"/>
<stop offset="0.0734" stop-color="#286DFF"/>
<stop offset="0.703" stop-color="#32AEFF"/>
<stop offset="1" stop-color="#36C7FF"/>
</linearGradient>
<linearGradient id="paint6_linear_818_342" x1="193.289" y1="306.508" x2="193.289" y2="340.393" gradientUnits="userSpaceOnUse">
<stop stop-color="#3461A1"/>
<stop offset="0.556666" stop-color="#286DFF"/>
<stop offset="0.846666" stop-color="#32AEFF"/>
</linearGradient>
<linearGradient id="paint7_linear_818_342" x1="187.111" y1="285.106" x2="187.731" y2="252.233" gradientUnits="userSpaceOnUse">
<stop stop-color="#3461A1"/>
<stop offset="0.656666" stop-color="#0075FF"/>
<stop offset="1" stop-color="#00B3FF"/>
</linearGradient>
<linearGradient id="paint8_linear_818_342" x1="486.196" y1="337.245" x2="486.196" y2="288.927" gradientUnits="userSpaceOnUse">
<stop offset="0.00022856" stop-color="white"/>
<stop offset="0.6808" stop-color="#4F9BF4"/>
<stop offset="1" stop-color="#A4CDE2" stop-opacity="0.42"/>
</linearGradient>
<linearGradient id="paint9_linear_818_342" x1="540.598" y1="382.976" x2="534.462" y2="220.382" gradientUnits="userSpaceOnUse">
<stop stop-color="#2B65B8"/>
<stop offset="0.5" stop-color="#2E91FF"/>
<stop offset="1" stop-color="#286FFF"/>
</linearGradient>
<linearGradient id="paint10_linear_818_342" x1="574.8" y1="337.243" x2="574.8" y2="288.925" gradientUnits="userSpaceOnUse">
<stop offset="0.00022856" stop-color="white"/>
<stop offset="0.6808" stop-color="#4F9BF4"/>
<stop offset="1" stop-color="#4F9BF4"/>
</linearGradient>
<linearGradient id="paint11_linear_818_342" x1="533.555" y1="177.709" x2="525.183" y2="223.463" gradientUnits="userSpaceOnUse">
<stop stop-color="#00123D"/>
<stop offset="0.0261" stop-color="#00133D"/>
<stop offset="1" stop-color="#002C3D"/>
</linearGradient>
<linearGradient id="paint12_linear_818_342" x1="536.65" y1="177.229" x2="527.923" y2="224.92" gradientUnits="userSpaceOnUse">
<stop stop-color="#00123D"/>
<stop offset="0.0261" stop-color="#00133D"/>
<stop offset="1" stop-color="#002C3D"/>
</linearGradient>
<linearGradient id="paint13_linear_818_342" x1="532.579" y1="211.23" x2="526.644" y2="211.23" gradientUnits="userSpaceOnUse">
<stop stop-color="#00123D"/>
<stop offset="0.0261" stop-color="#00133D"/>
<stop offset="1" stop-color="#002C3D"/>
</linearGradient>
<linearGradient id="paint14_linear_818_342" x1="519.771" y1="208.733" x2="513.837" y2="208.733" gradientUnits="userSpaceOnUse">
<stop stop-color="#00123D"/>
<stop offset="0.0261" stop-color="#00133D"/>
<stop offset="1" stop-color="#002C3D"/>
</linearGradient>
<linearGradient id="paint15_linear_818_342" x1="532.119" y1="207.187" x2="527.308" y2="207.187" gradientUnits="userSpaceOnUse">
<stop stop-color="#00123D"/>
<stop offset="0.0261" stop-color="#00133D"/>
<stop offset="1" stop-color="#002C3D"/>
</linearGradient>
<linearGradient id="paint16_linear_818_342" x1="521.185" y1="204.931" x2="517.085" y2="204.931" gradientUnits="userSpaceOnUse">
<stop stop-color="#00123D"/>
<stop offset="0.0261" stop-color="#00133D"/>
<stop offset="1" stop-color="#002C3D"/>
</linearGradient>
<linearGradient id="paint17_linear_818_342" x1="533.191" y1="330.689" x2="555.896" y2="388.587" gradientUnits="userSpaceOnUse">
<stop stop-color="#78B9FF"/>
<stop offset="0.6037" stop-color="#A6DAFF"/>
<stop offset="1" stop-color="#BFEDFF"/>
</linearGradient>
<linearGradient id="paint18_linear_818_342" x1="524.538" y1="334.083" x2="547.243" y2="391.98" gradientUnits="userSpaceOnUse">
<stop stop-color="#78B9FF"/>
<stop offset="0.6037" stop-color="#A6DAFF"/>
<stop offset="1" stop-color="#BFEDFF"/>
</linearGradient>
<linearGradient id="paint19_linear_818_342" x1="465.102" y1="321.869" x2="476.319" y2="358.592" gradientUnits="userSpaceOnUse">
<stop stop-color="#78B9FF"/>
<stop offset="0.6037" stop-color="#A6DAFF"/>
<stop offset="1" stop-color="#BFEDFF"/>
</linearGradient>
<linearGradient id="paint20_linear_818_342" x1="454.713" y1="58.1337" x2="452.199" y2="119.729" gradientUnits="userSpaceOnUse">
<stop stop-color="white"/>
<stop offset="0.6037" stop-color="#A6CAFF"/>
<stop offset="1" stop-color="#BFD5FF"/>
</linearGradient>
</defs>
</svg>
