<svg xmlns="http://www.w3.org/2000/svg" width="79.541" height="66.422" viewBox="0 0 79.541 66.422">
  <g id="Group_5780" data-name="Group 5780" transform="translate(-277 -1640.685)">
    <path id="Rectangle_494" data-name="Rectangle 494" d="M21,0h1.474a22,22,0,0,1,22,22v.474a22,22,0,0,1-22,22H0a0,0,0,0,1,0,0V21A21,21,0,0,1,21,0Z" transform="translate(293.646 1675.659) rotate(-45)" fill="#d9e8ff"/>
    <g id="Group_2168" data-name="Group 2168" transform="translate(277 1640.685)">
      <g id="Rectangle_493" data-name="Rectangle 493" transform="translate(0 11.703)" fill="none" stroke="#131b46" stroke-width="3">
        <rect width="40.337" height="32.062" rx="2" stroke="none"/>
        <rect x="1.5" y="1.5" width="37.337" height="29.062" rx="0.5" fill="none"/>
      </g>
      <g id="Path_15475" data-name="Path 15475" fill="none">
        <path d="M5.776,0H34.654c1.595,0,2.888.606,2.888,1.353l2.888,12.181c0,.747-40.429.747-40.429,0L2.888,1.353C2.888.606,4.181,0,5.776,0Z" stroke="none"/>
        <path d="M 5.775585174560547 3.000004768371582 C 5.706035614013672 3.000004768371582 5.640476226806641 3.002214431762695 5.579135894775391 3.006044387817383 L 3.713722229003906 10.87427425384521 C 6.9666748046875 10.99808788299561 12.68566513061523 11.09455490112305 20.21455383300781 11.09455490112305 C 27.74344253540039 11.09455490112305 33.46243286132812 10.99808788299561 36.71538543701172 10.87427425384521 L 34.84997177124023 3.006044387817383 C 34.78863143920898 3.002215385437012 34.72306442260742 3.000004768371582 34.65351486206055 3.000004768371582 L 5.775585174560547 3.000004768371582 M 5.775585174560547 4.76837158203125e-06 L 34.65351486206055 4.76837158203125e-06 C 36.24840545654297 4.76837158203125e-06 37.54131317138672 0.6059350967407227 37.54131317138672 1.353394508361816 L 40.42910385131836 13.53396415710449 C 40.42910385131836 14.2814245223999 3.814697265625e-06 14.2814245223999 3.814697265625e-06 13.53396415710449 L 2.887794494628906 1.353394508361816 C 2.887794494628906 0.6059350967407227 4.180702209472656 4.76837158203125e-06 5.775585174560547 4.76837158203125e-06 Z" stroke="none" fill="#131b46"/>
      </g>
    </g>
    <path id="Path_15476" data-name="Path 15476" d="M290.226,1665.6l5.461,5.461,10.292-10.292" transform="translate(0.453 0.688)" fill="none" stroke="#1e7eed" stroke-linecap="round" stroke-width="3"/>
  </g>
</svg>
