<svg xmlns="http://www.w3.org/2000/svg" width="359.136" height="377.178" viewBox="0 0 359.136 377.178">
  <g id="OBJECTS" transform="translate(-40.343 -36.63)">
    <g id="Group_1" data-name="Group 1" transform="translate(56.405 380.008)">
      <ellipse id="Ellipse_1" data-name="Ellipse 1" cx="163.506" cy="6.895" rx="163.506" ry="6.895" fill="#bacdff"/>
    </g>
    <g id="Group_217" data-name="Group 217" transform="translate(40.343 36.631)">
      <g id="Group_206" data-name="Group 206">
        <path id="Path_1" data-name="Path 1" d="M337.42,358.773c12.49-6.649,25.048-13.5,35.343-22.816,16.152-14.611,25.91-35.069,26.668-55.918s-7.487-41.864-22.541-57.44c-7.133-7.38-15.789-13.675-21.175-22.222-6.092-9.667-7.362-21.172-10.191-32.044a115.776,115.776,0,0,0-24.3-46.072c-15.293-17.806-36.678-31.6-60.765-36.376s-50.767.157-69.445,14.968c-15.938,12.637-25.082,31.126-39.928,44.848a87.662,87.662,0,0,1-32.455,18.834c-17.186,5.55-38.095,6.5-52.474,17.6-14.6,11.272-22.029,29.217-24.639,46.183-5.467,35.528,8.567,71.823,32.445,99.522,17.532,20.336,37.445,36.666,64.491,43.974,31.014,8.379,64.425,5.432,96.17,5.822C269.96,378.072,305.85,375.578,337.42,358.773Z" transform="translate(-40.343 -43.447)" fill="#bacdff" opacity="0.29"/>
        <g id="Group_2" data-name="Group 2" transform="translate(46.516 198.921)">
          <path id="Path_2" data-name="Path 2" d="M182.709,285.074a.212.212,0,0,0-.193.045c-1.316,1.147-2.539,2.365-3.725,3.61-.594.622-1.165,1.26-1.75,1.891s-1.12,1.291-1.682,1.938q-3.316,3.913-6.271,8.084a139.253,139.253,0,0,0-10.509,17.492c-.76,1.526-1.494,3.066-2.225,4.608s-1.372,3.13-2.039,4.7c-.337.785-.654,1.579-.98,2.371-.3.8-.6,1.605-.888,2.414-.56,1.623-1.107,3.246-1.519,4.923s-.731,3.383-.994,5.1l-.183,1.29-.109,1.314c-.057.88-.1,1.759-.121,2.644s-.013,1.771.009,2.659a25.454,25.454,0,0,0,.247,2.7,29.313,29.313,0,0,0,1.2,5.456.232.232,0,0,0,.295.146.226.226,0,0,0,.092-.057l.007-.007a33.885,33.885,0,0,0,3.5-4.274c.977-1.438,1.971-2.857,2.847-4.294.443-.718.854-1.44,1.256-2.162l.582-1.088.6-1.084q1.176-2.174,2.145-4.394c.659-1.479,1.33-2.96,1.907-4.469.294-.754.57-1.513.844-2.274.3-.755.606-1.506.892-2.265l.875-2.271c.289-.76.552-1.527.868-2.278.6-1.513,1.2-3.029,1.768-4.558,2.376-6.08,4.73-12.213,7.012-18.448,1.154-3.11,2.247-6.269,3.339-9.45,1.068-3.2,2.13-6.409,3.049-9.754v0A.21.21,0,0,0,182.709,285.074Z" transform="translate(-102.526 -271.206)" fill="#3e8f7d"/>
          <path id="Path_3" data-name="Path 3" d="M146.742,301.795a121.671,121.671,0,0,0-4.246-16.5q-.681-2.039-1.461-4.063c-.257-.675-.525-1.347-.8-2.02l-.859-2.009a58.392,58.392,0,0,0-4.127-7.9.22.22,0,0,0-.3-.067.224.224,0,0,0-.093.125v0a77.086,77.086,0,0,0-1.835,8.669c-.465,2.858-.8,5.691-1.065,8.51a164.534,164.534,0,0,0-.656,16.767c.024,2.774.119,5.541.266,8.3.081,1.38.2,2.755.381,4.127s.371,2.742.633,4.107A54.982,54.982,0,0,0,134.758,328a36.052,36.052,0,0,0,3.921,8.084,3.469,3.469,0,0,0,5.942-.325l.017-.033a28.235,28.235,0,0,0,1.73-4.318,40.083,40.083,0,0,0,1.1-4.293,49.87,49.87,0,0,0,.938-8.525,57.777,57.777,0,0,0-.381-8.438C147.692,307.356,147.249,304.571,146.742,301.795Z" transform="translate(-99.911 -268.929)" fill="#276b5b"/>
          <path id="Path_4" data-name="Path 4" d="M124.739,352.765c-.07-.512-.156-1.022-.26-1.521s-.228-.993-.367-1.482a27.134,27.134,0,0,0-.925-2.9,42.444,42.444,0,0,0-2.635-5.444,45.686,45.686,0,0,0-7.31-9.7c-.733-.726-1.495-1.431-2.274-2.119-.8-.676-1.619-1.336-2.484-1.96a26.983,26.983,0,0,0-5.763-3.265.243.243,0,0,0-.316.137.232.232,0,0,0-.017.079v.008a48.652,48.652,0,0,0,.239,6.472c.1,1.018.217,2.023.363,3s.294,1.95.474,2.9a86.417,86.417,0,0,0,2.755,10.841c.271.867.583,1.716.874,2.568s.6,1.7.953,2.521.7,1.645,1.119,2.444.862,1.591,1.317,2.376a25.644,25.644,0,0,0,1.547,2.317,28.2,28.2,0,0,0,1.777,2.273,27.011,27.011,0,0,0,4.769,4.425l.092.064a3.018,3.018,0,0,0,4.2-.761,3.289,3.289,0,0,0,.206-.343,17.462,17.462,0,0,0,1.238-3.351c.134-.549.279-1.107.379-1.655s.158-1.083.21-1.621a27.841,27.841,0,0,0,.131-3.2A30.191,30.191,0,0,0,124.739,352.765Z" transform="translate(-95.76 -276.845)" fill="#276b5b"/>
          <path id="Path_5" data-name="Path 5" d="M182.714,284.844a.4.4,0,0,0-.554.126c-2.2,3.494-4.273,7.049-6.3,10.637s-3.97,7.218-5.85,10.883-3.684,7.369-5.413,11.109-3.384,7.515-4.927,11.337-3.017,7.675-4.334,11.585-2.55,7.85-3.567,11.853a101.609,101.609,0,0,0-3.56,24.516v0a.664.664,0,1,0,1.328.007v-.01a100.4,100.4,0,0,1,3.393-24.219c.988-3.976,2.185-7.9,3.48-11.789s2.728-7.737,4.251-11.547,3.141-7.585,4.848-11.318,3.484-7.437,5.338-11.1,3.78-7.294,5.775-10.883,4.051-7.152,6.216-10.63l0-.005A.4.4,0,0,0,182.714,284.844Z" transform="translate(-102.34 -271.165)" fill="#276b5b"/>
          <path id="Path_6" data-name="Path 6" d="M143.013,339.828l-.447-7.083-.228-3.541-.266-3.538q-1.028-14.156-2.539-28.27c-1-9.41-2.128-18.8-3.52-28.17a.4.4,0,0,0-.8.116v.006c1.345,9.346,2.429,18.742,3.386,28.143s1.767,18.82,2.408,28.25l.249,3.536.212,3.537.414,7.076c.217,4.72.48,9.438.618,14.16.377,9.443.474,18.892.509,28.339v.011a.661.661,0,1,0,1.322-.011c-.077-9.465-.218-18.93-.638-28.385C143.537,349.276,143.252,344.553,143.013,339.828Z" transform="translate(-100.475 -268.883)" fill="#3e8f7d"/>
          <path id="Path_7" data-name="Path 7" d="M121.887,366.9a111.113,111.113,0,0,0-4.688-14.958,147.05,147.05,0,0,0-6.466-14.231,144.2,144.2,0,0,0-7.88-13.486.4.4,0,0,0-.674.438l.007.01a143.681,143.681,0,0,1,7.524,13.554,145.9,145.9,0,0,1,6.1,14.241A109.368,109.368,0,0,1,120.1,367.29c.526,2.514.923,5.049,1.223,7.591a70.7,70.7,0,0,1,.4,7.643v.042a1.086,1.086,0,0,0,2.171-.042,72.877,72.877,0,0,0-.582-7.884C122.945,372.035,122.48,369.45,121.887,366.9Z" transform="translate(-95.725 -276.799)" fill="#3e8f7d"/>
          <path id="Path_8" data-name="Path 8" d="M134.512,334.266c-.154-.94-.356-1.865-.565-2.79l-.339-1.38c-.122-.457-.262-.908-.4-1.361A121.7,121.7,0,0,0,124,308.153a126.163,126.163,0,0,0-12.619-18.514,105.812,105.812,0,0,0-7.553-8.273c-1.326-1.316-2.706-2.587-4.124-3.814a50.559,50.559,0,0,0-4.449-3.484.21.21,0,0,0-.315.247l0,.006c1.34,3.507,2.7,6.908,4.043,10.284l3.99,10.035q3.953,9.954,7.6,19.745,1.8,4.915,3.5,9.815c.546,1.64,1.125,3.268,1.65,4.909l.806,2.455.4,1.226.433,1.215.928,2.408.5,1.193c.176.4.363.789.534,1.186.7,1.585,1.534,3.138,2.387,4.7q.664,1.164,1.407,2.321c.483.774,1,1.546,1.552,2.314a34.038,34.038,0,0,0,3.871,4.588l.058.055a2.747,2.747,0,0,0,3.884-.116,2.788,2.788,0,0,0,.517-.783,21.583,21.583,0,0,0,1.023-3.018,25.574,25.574,0,0,0,.624-2.985c.147-.988.253-1.974.327-2.957s.063-1.948.057-2.919A40.577,40.577,0,0,0,134.512,334.266Z" transform="translate(-94.693 -269.622)" fill="#3e8f7d"/>
          <path id="Path_9" data-name="Path 9" d="M129.339,342.443c-.288-1.132-.624-2.252-.933-3.378l-.474-1.686-.52-1.673c-1.346-4.473-2.934-8.868-4.636-13.212s-3.583-8.619-5.6-12.825-4.165-8.346-6.45-12.41-4.7-8.052-7.251-11.955q-1.9-2.932-3.926-5.786c-1.349-1.9-2.719-3.781-4.181-5.617a.4.4,0,0,0-.632.5l.005.007c1.417,1.817,2.772,3.71,4.091,5.613s2.605,3.839,3.85,5.8q3.745,5.865,7.1,11.969t6.292,12.406c1.961,4.2,3.791,8.463,5.434,12.8s3.178,8.705,4.469,13.152l.5,1.663.452,1.675c.295,1.119.617,2.231.89,3.355.534,2.252,1.094,4.5,1.527,6.769a136.033,136.033,0,0,1,2.832,27.523v.022a.96.96,0,0,0,1.919-.022,137.782,137.782,0,0,0-3.146-27.859C130.489,346.974,129.9,344.711,129.339,342.443Z" transform="translate(-94.654 -269.582)" fill="#276b5b"/>
          <path id="Path_10" data-name="Path 10" d="M123.3,414.995h26.591l4.021-29.447H119.274Z" transform="translate(-98.187 -285.626)" fill="#9ab4ef"/>
          <path id="Path_11" data-name="Path 11" d="M121.256,420.995h31.123l.4-2.909H120.854Z" transform="translate(-98.414 -290.296)" fill="#9ab4ef"/>
        </g>
        <g id="Group_7" data-name="Group 7" transform="translate(126.38 67.511)">
          <g id="Group_4" data-name="Group 4" transform="translate(5.47)">
            <g id="Group_3" data-name="Group 3">
              <path id="Path_12" data-name="Path 12" d="M206.774,128.04V115.454h-6.583V128.04h-5.905l9.2,9.195,9.2-9.195Z" transform="translate(-194.286 -115.454)" fill="#f9cf70"/>
            </g>
          </g>
          <g id="Group_6" data-name="Group 6" transform="translate(0 20.554)">
            <g id="Group_5" data-name="Group 5">
              <path id="Path_13" data-name="Path 13" d="M217.233,146.02H187.9v-6.569h2.4v4.174h24.543v-4.174h2.4Z" transform="translate(-187.9 -139.451)" fill="#5e60f4"/>
            </g>
          </g>
        </g>
        <g id="Group_8" data-name="Group 8" transform="translate(84.103 76.657)">
          <rect id="Rectangle_2" data-name="Rectangle 2" width="28.164" height="26.895" rx="2.083" transform="translate(0)" fill="#9ab4ef"/>
          <path id="Path_14" data-name="Path 14" d="M140.322,155.155h24.6a1.784,1.784,0,0,0,1.784-1.784v-4.48l-2.994-3.85a2.7,2.7,0,0,0-4.266,0l-1.65,2.114a2.3,2.3,0,0,1-3.473.175l-5.29-5.534a2.7,2.7,0,0,0-4.065.176l-6.425,8.009v3.394A1.784,1.784,0,0,0,140.322,155.155Z" transform="translate(-138.538 -128.26)" fill="#5e60f4"/>
          <path id="Path_15" data-name="Path 15" d="M161.216,135.4a2.62,2.62,0,1,1-2.619-2.619A2.619,2.619,0,0,1,161.216,135.4Z" transform="translate(-141.041 -127.087)" fill="#f9cf70"/>
        </g>
        <g id="Group_9" data-name="Group 9" transform="translate(210.25 56.025)">
          <rect id="Rectangle_3" data-name="Rectangle 3" width="39.118" height="28.678" rx="2.111" fill="#9ab4ef"/>
          <path id="Path_16" data-name="Path 16" d="M303.658,113.29v9.18a.507.507,0,0,0,.741.45l10-5.2a.507.507,0,0,0-.046-.922l-10-3.984A.507.507,0,0,0,303.658,113.29Z" transform="translate(-288.383 -103.584)" fill="#5e60f4"/>
        </g>
        <g id="Group_10" data-name="Group 10" transform="translate(160.471 50.723)">
          <rect id="Rectangle_4" data-name="Rectangle 4" width="32.008" height="20.99" transform="translate(1.424)" fill="#5e60f4"/>
          <path id="Path_17" data-name="Path 17" d="M260.589,122.388h-31.2A1.686,1.686,0,0,1,227.7,120.7V99.2a1.686,1.686,0,0,1,1.686-1.686h6.716a1.686,1.686,0,0,1,1.626,1.239l.933,2.1a1.686,1.686,0,0,0,1.626,1.239h20.3a1.687,1.687,0,0,1,1.686,1.686V120.7A1.686,1.686,0,0,1,260.589,122.388Z" transform="translate(-227.703 -96.091)" fill="#9ab4ef"/>
        </g>
        <g id="Group_11" data-name="Group 11" transform="translate(97.425 24.628)">
          <path id="Path_18" data-name="Path 18" d="M192.379,84.527a19.143,19.143,0,1,1-19.143-19.142A19.143,19.143,0,0,1,192.379,84.527Z" transform="translate(-154.093 -65.385)" fill="#9ab4ef"/>
          <path id="Path_19" data-name="Path 19" d="M181.336,81.683a5.878,5.878,0,1,1-5.878-5.878A5.878,5.878,0,0,1,181.336,81.683Z" transform="translate(-156.316 -66.88)" fill="#5e60f4"/>
          <path id="Path_20" data-name="Path 20" d="M174.73,107.136a19.048,19.048,0,0,0,10.223-2.957c-.435-5.139-2.3-14.358-10.041-14.639V89.53c-.062,0-.121,0-.182,0s-.12,0-.182,0v.009c-7.743.281-9.605,9.5-10.041,14.639A19.053,19.053,0,0,0,174.73,107.136Z" transform="translate(-155.588 -68.85)" fill="#5e60f4"/>
        </g>
        <g id="Group_12" data-name="Group 12" transform="translate(212.639 12.145)">
          <path id="Path_21" data-name="Path 21" d="M308.553,68.736H292.526V58.824a8.013,8.013,0,0,1,16.027,0Zm-12.81-3.217h9.593V58.824a4.8,4.8,0,0,0-9.593,0Z" transform="translate(-289.174 -50.811)" fill="#5e60f4"/>
          <path id="Path_22" data-name="Path 22" d="M299.978,86.962h0A11.366,11.366,0,0,1,288.612,75.6V67.155a2.925,2.925,0,0,1,2.924-2.924h16.882a2.924,2.924,0,0,1,2.924,2.924V75.6A11.366,11.366,0,0,1,299.978,86.962Z" transform="translate(-288.612 -52.737)" fill="#9ab4ef"/>
          <path id="Path_23" data-name="Path 23" d="M304.421,73.545a3.05,3.05,0,1,0-4.066,2.873l-1.764,4.989h5.558l-1.763-4.989A3.048,3.048,0,0,0,304.421,73.545Z" transform="translate(-290.005 -53.636)" fill="#5e60f4"/>
        </g>
        <g id="Group_15" data-name="Group 15" transform="translate(278.121 108.646)">
          <g id="Group_13" data-name="Group 13" transform="translate(0 1.045)">
            <rect id="Rectangle_5" data-name="Rectangle 5" width="27.186" height="34.175" fill="#9ab4ef"/>
            <rect id="Rectangle_6" data-name="Rectangle 6" width="19.314" height="1.222" transform="translate(3.936 6.314)" fill="#ccc"/>
            <rect id="Rectangle_7" data-name="Rectangle 7" width="19.314" height="1.222" transform="translate(3.936 9.977)" fill="#ccc"/>
            <rect id="Rectangle_8" data-name="Rectangle 8" width="19.314" height="1.222" transform="translate(3.936 13.64)" fill="#ccc"/>
            <rect id="Rectangle_9" data-name="Rectangle 9" width="19.314" height="1.222" transform="translate(3.936 17.303)" fill="#ccc"/>
            <rect id="Rectangle_10" data-name="Rectangle 10" width="19.314" height="1.222" transform="translate(3.936 20.967)" fill="#ccc"/>
            <rect id="Rectangle_11" data-name="Rectangle 11" width="19.314" height="1.222" transform="translate(3.936 24.629)" fill="#ccc"/>
            <rect id="Rectangle_12" data-name="Rectangle 12" width="19.314" height="1.222" transform="translate(3.936 28.293)" fill="#ccc"/>
          </g>
          <g id="Group_14" data-name="Group 14" transform="translate(2.321)">
            <path id="Path_24" data-name="Path 24" d="M368.312,165.571h0a.537.537,0,0,1-.536-.537v-1.016a.537.537,0,0,1,.536-.537h0a.537.537,0,0,1,.537.537v1.016A.537.537,0,0,1,368.312,165.571Z" transform="translate(-367.776 -163.481)" fill="#5e60f4"/>
            <path id="Path_25" data-name="Path 25" d="M371.446,165.571h0a.537.537,0,0,1-.536-.537v-1.016a.537.537,0,0,1,.536-.537h0a.537.537,0,0,1,.536.537v1.016A.537.537,0,0,1,371.446,165.571Z" transform="translate(-368.226 -163.481)" fill="#5e60f4"/>
            <path id="Path_26" data-name="Path 26" d="M374.58,165.571h0a.537.537,0,0,1-.537-.537v-1.016a.537.537,0,0,1,.537-.537h0a.537.537,0,0,1,.536.537v1.016A.537.537,0,0,1,374.58,165.571Z" transform="translate(-368.675 -163.481)" fill="#5e60f4"/>
            <path id="Path_27" data-name="Path 27" d="M377.713,165.571h0a.537.537,0,0,1-.536-.537v-1.016a.537.537,0,0,1,.536-.537h0a.537.537,0,0,1,.536.537v1.016A.537.537,0,0,1,377.713,165.571Z" transform="translate(-369.125 -163.481)" fill="#5e60f4"/>
            <path id="Path_28" data-name="Path 28" d="M380.847,165.571h0a.537.537,0,0,1-.537-.537v-1.016a.537.537,0,0,1,.537-.537h0a.537.537,0,0,1,.536.537v1.016A.537.537,0,0,1,380.847,165.571Z" transform="translate(-369.575 -163.481)" fill="#5e60f4"/>
            <path id="Path_29" data-name="Path 29" d="M383.98,165.571h0a.537.537,0,0,1-.536-.537v-1.016a.537.537,0,0,1,.536-.537h0a.537.537,0,0,1,.537.537v1.016A.537.537,0,0,1,383.98,165.571Z" transform="translate(-370.025 -163.481)" fill="#5e60f4"/>
            <path id="Path_30" data-name="Path 30" d="M387.114,165.571h0a.537.537,0,0,1-.537-.537v-1.016a.537.537,0,0,1,.537-.537h0a.537.537,0,0,1,.536.537v1.016A.537.537,0,0,1,387.114,165.571Z" transform="translate(-370.474 -163.481)" fill="#5e60f4"/>
            <path id="Path_31" data-name="Path 31" d="M390.247,165.571h0a.537.537,0,0,1-.536-.537v-1.016a.537.537,0,0,1,.536-.537h0a.537.537,0,0,1,.537.537v1.016A.537.537,0,0,1,390.247,165.571Z" transform="translate(-370.924 -163.481)" fill="#5e60f4"/>
            <path id="Path_32" data-name="Path 32" d="M393.381,165.571h0a.537.537,0,0,1-.537-.537v-1.016a.537.537,0,0,1,.537-.537h0a.537.537,0,0,1,.536.537v1.016A.537.537,0,0,1,393.381,165.571Z" transform="translate(-371.374 -163.481)" fill="#5e60f4"/>
          </g>
        </g>
        <g id="Group_17" data-name="Group 17" transform="translate(30.165 170.223)">
          <path id="Path_33" data-name="Path 33" d="M83.566,235.376h34.348a8,8,0,0,1,8,8h0a8,8,0,0,1-8,8H96.534c-2.832,6.96-11.5,6.579-11.5,6.579a7.285,7.285,0,0,0,4.355-6.579H83.566a8,8,0,0,1-8-8h0A8,8,0,0,1,83.566,235.376Z" transform="translate(-75.563 -235.376)" fill="#9ab4ef"/>
          <g id="Group_16" data-name="Group 16" transform="translate(13.841 5.732)">
            <path id="Path_34" data-name="Path 34" d="M113,244.293a2.224,2.224,0,1,0,2.225-2.224A2.225,2.225,0,0,0,113,244.293Z" transform="translate(-94.777 -242.069)" fill="#5e60f4"/>
            <path id="Path_35" data-name="Path 35" d="M102.362,244.293a2.224,2.224,0,1,0,2.224-2.224A2.224,2.224,0,0,0,102.362,244.293Z" transform="translate(-93.25 -242.069)" fill="#5e60f4"/>
            <path id="Path_36" data-name="Path 36" d="M91.723,244.293a2.224,2.224,0,1,0,2.224-2.224A2.225,2.225,0,0,0,91.723,244.293Z" transform="translate(-91.723 -242.069)" fill="#5e60f4"/>
          </g>
        </g>
        <path id="Path_37" data-name="Path 37" d="M354.919,79.562V77.286l-2.867-.8a7.275,7.275,0,0,0-.688-1.68l1.46-2.582-1.61-1.609-2.568,1.451a7.255,7.255,0,0,0-1.7-.708l-.788-2.838h-2.277l-.788,2.838a7.256,7.256,0,0,0-1.7.708l-2.568-1.451-1.609,1.609,1.459,2.582a7.236,7.236,0,0,0-.688,1.68l-2.868.8v2.277l2.89.8A7.227,7.227,0,0,0,338.692,82l-1.481,2.62,1.609,1.61,2.635-1.489a7.242,7.242,0,0,0,1.612.665l.811,2.92h2.277l.811-2.92a7.227,7.227,0,0,0,1.612-.665l2.635,1.489,1.61-1.61L351.342,82a7.226,7.226,0,0,0,.687-1.636Zm-9.9,3.148a4.325,4.325,0,1,1,4.325-4.324A4.325,4.325,0,0,1,345.017,82.711Z" transform="translate(-82.647 -41.207)" fill="#9ab4ef"/>
        <g id="Group_18" data-name="Group 18" transform="translate(77.148 131.334)">
          <path id="Path_38" data-name="Path 38" d="M147.753,198.639a8.668,8.668,0,1,1-8.668-8.668A8.668,8.668,0,0,1,147.753,198.639Z" transform="translate(-130.418 -189.971)" fill="#9ab4ef"/>
          <path id="Path_39" data-name="Path 39" d="M144.617,195.962a17.192,17.192,0,0,0,2.468-.663,8.627,8.627,0,0,0-.65-1.241c-.443.149-.91.287-1.414.4.054-.152.111-.3.172-.438a4.928,4.928,0,0,1,.533-.952,8.8,8.8,0,0,0-.982-.991,6.1,6.1,0,0,0-.818,1.392,9.485,9.485,0,0,0-.445,1.28,25.585,25.585,0,0,1-3.7.272v-5.018c-.229-.018-.458-.035-.691-.035s-.462.017-.691.035v4.983a23.491,23.491,0,0,1-3.558-.442,9.442,9.442,0,0,0-.387-1.075,5.919,5.919,0,0,0-.905-1.5,8.692,8.692,0,0,0-.988.974,4.812,4.812,0,0,1,.669,1.179c-.263-.083-.515-.172-.754-.266-.153-.06-.313-.137-.47-.208a8.646,8.646,0,0,0-.706,1.2c.211.1.431.2.67.291a14.991,14.991,0,0,0,1.737.556,14.287,14.287,0,0,1,.3,2.33h-3.551c-.014.2-.031.4-.031.6,0,.262.016.521.039.778H134a13.868,13.868,0,0,1-.37,2.719,14.844,14.844,0,0,0-1.668.539c-.155.061-.3.124-.445.188a8.715,8.715,0,0,0,.786,1.169c.056-.023.111-.049.165-.07.193-.075.395-.147.6-.217a4.636,4.636,0,0,1-.412.7,8.693,8.693,0,0,0,1.011.958,6.16,6.16,0,0,0,.776-1.339q.158-.364.29-.767a23.27,23.27,0,0,1,3.655-.463v4.437c.229.018.457.035.691.035s.463-.017.691-.035V202.8a25.375,25.375,0,0,1,3.79.286,9.272,9.272,0,0,0,.358.979,6.351,6.351,0,0,0,.7,1.24,8.811,8.811,0,0,0,1-.985,5.315,5.315,0,0,1-.48-.928c.348.083.676.176,1,.275a8.681,8.681,0,0,0,.725-1.221,17.4,17.4,0,0,0-2.182-.572,14.4,14.4,0,0,1-.31-2.457h3.344c.022-.257.039-.516.039-.778,0-.2-.017-.4-.031-.6h-3.349A14.48,14.48,0,0,1,144.617,195.962Zm-6.222,5.487a25.005,25.005,0,0,0-3.273.361,15.779,15.779,0,0,0,.266-2.393h3.007Zm0-3.415h-3.01a16,16,0,0,0-.209-2.011,25.168,25.168,0,0,0,3.219.351Zm1.382-1.627a27.019,27.019,0,0,0,3.393-.213,16.055,16.055,0,0,0-.18,1.841h-3.213Zm0,5.01v-2h3.21a15.909,15.909,0,0,0,.232,2.219A27.137,27.137,0,0,0,139.777,201.416Z" transform="translate(-130.418 -189.971)" fill="#353dc9"/>
        </g>
        <g id="Group_19" data-name="Group 19" transform="translate(66.677 43.741)">
          <path id="Path_40" data-name="Path 40" d="M353.971,252.784a.728.728,0,1,1-.729-.728A.729.729,0,0,1,353.971,252.784Z" transform="translate(-151.82 -111.288)" fill="#9ab4ef"/>
          <path id="Path_41" data-name="Path 41" d="M353.971,246.661a.728.728,0,1,1-.729-.729A.728.728,0,0,1,353.971,246.661Z" transform="translate(-151.82 -110.409)" fill="#9ab4ef"/>
          <path id="Path_42" data-name="Path 42" d="M353.971,240.537a.728.728,0,1,1-.729-.728A.729.729,0,0,1,353.971,240.537Z" transform="translate(-151.82 -109.531)" fill="#9ab4ef"/>
          <path id="Path_43" data-name="Path 43" d="M353.971,234.414a.728.728,0,1,1-.729-.729A.729.729,0,0,1,353.971,234.414Z" transform="translate(-151.82 -108.652)" fill="#9ab4ef"/>
          <path id="Path_44" data-name="Path 44" d="M353.971,228.29a.728.728,0,1,1-.729-.728A.729.729,0,0,1,353.971,228.29Z" transform="translate(-151.82 -107.773)" fill="#9ab4ef"/>
          <path id="Path_45" data-name="Path 45" d="M353.971,222.167a.728.728,0,1,1-.729-.729A.728.728,0,0,1,353.971,222.167Z" transform="translate(-151.82 -106.894)" fill="#9ab4ef"/>
          <path id="Path_46" data-name="Path 46" d="M353.971,216.043a.728.728,0,1,1-.729-.728A.729.729,0,0,1,353.971,216.043Z" transform="translate(-151.82 -106.015)" fill="#9ab4ef"/>
          <path id="Path_47" data-name="Path 47" d="M353.971,209.92a.728.728,0,1,1-.729-.728A.729.729,0,0,1,353.971,209.92Z" transform="translate(-151.82 -105.137)" fill="#9ab4ef"/>
          <path id="Path_48" data-name="Path 48" d="M353.971,203.8a.728.728,0,1,1-.729-.728A.729.729,0,0,1,353.971,203.8Z" transform="translate(-151.82 -104.258)" fill="#9ab4ef"/>
          <path id="Path_49" data-name="Path 49" d="M353.971,197.673a.728.728,0,1,1-.729-.729A.728.728,0,0,1,353.971,197.673Z" transform="translate(-151.82 -103.379)" fill="#9ab4ef"/>
          <path id="Path_50" data-name="Path 50" d="M353.971,191.549a.728.728,0,1,1-.729-.728A.729.729,0,0,1,353.971,191.549Z" transform="translate(-151.82 -102.5)" fill="#9ab4ef"/>
          <path id="Path_51" data-name="Path 51" d="M353.971,185.426a.728.728,0,1,1-.729-.728A.729.729,0,0,1,353.971,185.426Z" transform="translate(-151.82 -101.621)" fill="#9ab4ef"/>
          <path id="Path_52" data-name="Path 52" d="M353.971,179.3a.728.728,0,1,1-.729-.729A.728.728,0,0,1,353.971,179.3Z" transform="translate(-151.82 -100.743)" fill="#9ab4ef"/>
          <path id="Path_53" data-name="Path 53" d="M353.971,173.179a.728.728,0,1,1-.729-.728A.728.728,0,0,1,353.971,173.179Z" transform="translate(-151.82 -99.864)" fill="#9ab4ef"/>
          <path id="Path_54" data-name="Path 54" d="M353.971,167.056a.728.728,0,1,1-.729-.729A.729.729,0,0,1,353.971,167.056Z" transform="translate(-151.82 -98.985)" fill="#9ab4ef"/>
          <path id="Path_55" data-name="Path 55" d="M353.971,160.932a.728.728,0,1,1-.729-.728A.729.729,0,0,1,353.971,160.932Z" transform="translate(-151.82 -98.106)" fill="#9ab4ef"/>
          <path id="Path_56" data-name="Path 56" d="M353.971,154.809a.728.728,0,1,1-.729-.729A.729.729,0,0,1,353.971,154.809Z" transform="translate(-151.82 -97.227)" fill="#9ab4ef"/>
          <path id="Path_57" data-name="Path 57" d="M353.971,148.685a.728.728,0,1,1-.729-.728A.728.728,0,0,1,353.971,148.685Z" transform="translate(-151.82 -96.349)" fill="#9ab4ef"/>
          <path id="Path_58" data-name="Path 58" d="M353.971,142.562a.728.728,0,1,1-.729-.729A.729.729,0,0,1,353.971,142.562Z" transform="translate(-151.82 -95.47)" fill="#9ab4ef"/>
          <path id="Path_59" data-name="Path 59" d="M353.971,136.438a.728.728,0,1,1-.729-.728A.729.729,0,0,1,353.971,136.438Z" transform="translate(-151.82 -94.591)" fill="#9ab4ef"/>
          <path id="Path_60" data-name="Path 60" d="M353.971,130.315a.728.728,0,1,1-.729-.729A.729.729,0,0,1,353.971,130.315Z" transform="translate(-151.82 -93.712)" fill="#9ab4ef"/>
          <path id="Path_61" data-name="Path 61" d="M352.131,124.585a.728.728,0,1,1-.729-.729A.728.728,0,0,1,352.131,124.585Z" transform="translate(-151.556 -92.89)" fill="#9ab4ef"/>
          <path id="Path_62" data-name="Path 62" d="M347.282,121.15a.728.728,0,1,1-.728-.728A.727.727,0,0,1,347.282,121.15Z" transform="translate(-150.861 -92.397)" fill="#9ab4ef"/>
          <path id="Path_63" data-name="Path 63" d="M341.264,120.364a.728.728,0,1,1-.729-.728A.729.729,0,0,1,341.264,120.364Z" transform="translate(-149.997 -92.284)" fill="#9ab4ef"/>
          <path id="Path_64" data-name="Path 64" d="M335.14,120.364a.728.728,0,1,1-.728-.728A.729.729,0,0,1,335.14,120.364Z" transform="translate(-149.118 -92.284)" fill="#9ab4ef"/>
          <path id="Path_65" data-name="Path 65" d="M148.77,88.429a.728.728,0,1,1-.728-.728A.729.729,0,0,1,148.77,88.429Z" transform="translate(-122.371 -87.701)" fill="#9ab4ef"/>
          <path id="Path_66" data-name="Path 66" d="M142.647,88.429a.728.728,0,1,1-.729-.728A.729.729,0,0,1,142.647,88.429Z" transform="translate(-121.493 -87.701)" fill="#9ab4ef"/>
          <path id="Path_67" data-name="Path 67" d="M136.523,88.429a.728.728,0,1,1-.728-.728A.729.729,0,0,1,136.523,88.429Z" transform="translate(-120.614 -87.701)" fill="#9ab4ef"/>
          <path id="Path_68" data-name="Path 68" d="M130.422,88.6a.728.728,0,1,1-.728-.729A.728.728,0,0,1,130.422,88.6Z" transform="translate(-119.738 -87.725)" fill="#9ab4ef"/>
          <path id="Path_69" data-name="Path 69" d="M124.72,90.558a.728.728,0,1,1-.728-.728A.729.729,0,0,1,124.72,90.558Z" transform="translate(-118.92 -88.007)" fill="#9ab4ef"/>
          <path id="Path_70" data-name="Path 70" d="M120.9,95.186a.728.728,0,1,1-.729-.729A.728.728,0,0,1,120.9,95.186Z" transform="translate(-118.372 -88.671)" fill="#9ab4ef"/>
          <circle id="Ellipse_2" data-name="Ellipse 2" cx="0.729" cy="0.729" r="0.729" transform="translate(0 10.888)" fill="#9ab4ef"/>
          <path id="Path_71" data-name="Path 71" d="M119.65,107.266a.729.729,0,1,1-.729-.729A.729.729,0,0,1,119.65,107.266Z" transform="translate(-118.192 -90.404)" fill="#9ab4ef"/>
          <circle id="Ellipse_3" data-name="Ellipse 3" cx="0.729" cy="0.729" r="0.729" transform="translate(0 21.378)" fill="#9ab4ef"/>
          <circle id="Ellipse_4" data-name="Ellipse 4" cx="0.728" cy="0.728" r="0.728" transform="translate(0 26.623)" fill="#9ab4ef"/>
          <path id="Path_72" data-name="Path 72" d="M119.65,125.636a.729.729,0,1,1-.729-.728A.729.729,0,0,1,119.65,125.636Z" transform="translate(-118.192 -93.041)" fill="#9ab4ef"/>
          <path id="Path_73" data-name="Path 73" d="M119.65,131.76a.729.729,0,1,1-.729-.729A.729.729,0,0,1,119.65,131.76Z" transform="translate(-118.192 -93.919)" fill="#9ab4ef"/>
          <circle id="Ellipse_5" data-name="Ellipse 5" cx="0.729" cy="0.729" r="0.729" transform="translate(0 42.356)" fill="#9ab4ef"/>
          <path id="Path_74" data-name="Path 74" d="M119.65,144.007a.729.729,0,1,1-.729-.729A.729.729,0,0,1,119.65,144.007Z" transform="translate(-118.192 -95.677)" fill="#9ab4ef"/>
          <path id="Path_75" data-name="Path 75" d="M119.65,150.13a.729.729,0,1,1-.729-.728A.729.729,0,0,1,119.65,150.13Z" transform="translate(-118.192 -96.556)" fill="#9ab4ef"/>
          <circle id="Ellipse_6" data-name="Ellipse 6" cx="0.728" cy="0.728" r="0.728" transform="translate(0 58.091)" fill="#9ab4ef"/>
          <circle id="Ellipse_7" data-name="Ellipse 7" cx="0.729" cy="0.729" r="0.729" transform="translate(0 63.335)" fill="#9ab4ef"/>
          <path id="Path_76" data-name="Path 76" d="M119.65,168.5a.729.729,0,1,1-.729-.729A.729.729,0,0,1,119.65,168.5Z" transform="translate(-118.192 -99.192)" fill="#9ab4ef"/>
          <circle id="Ellipse_8" data-name="Ellipse 8" cx="0.729" cy="0.729" r="0.729" transform="translate(0 73.824)" fill="#9ab4ef"/>
          <path id="Path_77" data-name="Path 77" d="M119.65,180.748a.729.729,0,1,1-.729-.729A.729.729,0,0,1,119.65,180.748Z" transform="translate(-118.192 -100.95)" fill="#9ab4ef"/>
          <circle id="Ellipse_9" data-name="Ellipse 9" cx="0.729" cy="0.729" r="0.729" transform="translate(0 84.314)" fill="#9ab4ef"/>
          <circle id="Ellipse_10" data-name="Ellipse 10" cx="0.729" cy="0.729" r="0.729" transform="translate(0 89.559)" fill="#9ab4ef"/>
          <circle id="Ellipse_11" data-name="Ellipse 11" cx="0.729" cy="0.729" r="0.729" transform="translate(0 94.803)" fill="#9ab4ef"/>
          <circle id="Ellipse_12" data-name="Ellipse 12" cx="0.729" cy="0.729" r="0.729" transform="translate(0 100.048)" fill="#9ab4ef"/>
          <path id="Path_78" data-name="Path 78" d="M119.65,211.365a.729.729,0,1,1-.729-.729A.729.729,0,0,1,119.65,211.365Z" transform="translate(-118.192 -105.344)" fill="#9ab4ef"/>
          <path id="Path_79" data-name="Path 79" d="M119.65,217.489a.729.729,0,1,1-.729-.729A.729.729,0,0,1,119.65,217.489Z" transform="translate(-118.192 -106.223)" fill="#9ab4ef"/>
          <path id="Path_80" data-name="Path 80" d="M119.65,223.612a.729.729,0,1,1-.729-.728A.729.729,0,0,1,119.65,223.612Z" transform="translate(-118.192 -107.102)" fill="#9ab4ef"/>
          <circle id="Ellipse_13" data-name="Ellipse 13" cx="0.729" cy="0.729" r="0.729" transform="translate(0 121.027)" fill="#9ab4ef"/>
          <path id="Path_81" data-name="Path 81" d="M119.65,235.859a.729.729,0,1,1-.729-.729A.729.729,0,0,1,119.65,235.859Z" transform="translate(-118.192 -108.859)" fill="#9ab4ef"/>
          <path id="Path_82" data-name="Path 82" d="M119.65,241.982a.729.729,0,1,1-.729-.728A.729.729,0,0,1,119.65,241.982Z" transform="translate(-118.192 -109.738)" fill="#9ab4ef"/>
        </g>
        <g id="Group_20" data-name="Group 20" transform="translate(146.426 20.026)">
          <path id="Path_83" data-name="Path 83" d="M214.436,100.341l3.228-4.8H211.3Z" transform="translate(-211.304 -65.111)" fill="#9ab4ef"/>
          <path id="Path_84" data-name="Path 84" d="M214.166,60.74a.728.728,0,1,1,.729.729A.729.729,0,0,1,214.166,60.74Z" transform="translate(-211.715 -60.012)" fill="#9ab4ef"/>
          <path id="Path_85" data-name="Path 85" d="M214.166,66.863a.728.728,0,1,1,.729.729A.729.729,0,0,1,214.166,66.863Z" transform="translate(-211.715 -60.891)" fill="#9ab4ef"/>
          <path id="Path_86" data-name="Path 86" d="M214.166,72.987a.728.728,0,1,1,.729.729A.729.729,0,0,1,214.166,72.987Z" transform="translate(-211.715 -61.77)" fill="#9ab4ef"/>
          <path id="Path_87" data-name="Path 87" d="M214.166,79.111a.728.728,0,1,1,.729.728A.729.729,0,0,1,214.166,79.111Z" transform="translate(-211.715 -62.648)" fill="#9ab4ef"/>
          <path id="Path_88" data-name="Path 88" d="M214.166,85.234a.728.728,0,1,1,.729.729A.728.728,0,0,1,214.166,85.234Z" transform="translate(-211.715 -63.527)" fill="#9ab4ef"/>
          <path id="Path_89" data-name="Path 89" d="M214.166,91.357a.728.728,0,1,1,.729.729A.729.729,0,0,1,214.166,91.357Z" transform="translate(-211.715 -64.406)" fill="#9ab4ef"/>
        </g>
        <g id="Group_21" data-name="Group 21" transform="translate(194.374)">
          <path id="Path_90" data-name="Path 90" d="M270.514,36.631l-3.228,4.8h6.359Z" transform="translate(-267.287 -36.631)" fill="#9ab4ef"/>
          <path id="Path_91" data-name="Path 91" d="M271.606,76.792a.728.728,0,1,1-.729-.728A.729.729,0,0,1,271.606,76.792Z" transform="translate(-267.698 -42.29)" fill="#9ab4ef"/>
          <path id="Path_92" data-name="Path 92" d="M271.606,70.669a.728.728,0,1,1-.729-.728A.729.729,0,0,1,271.606,70.669Z" transform="translate(-267.698 -41.411)" fill="#9ab4ef"/>
          <path id="Path_93" data-name="Path 93" d="M271.606,64.545a.728.728,0,1,1-.729-.728A.729.729,0,0,1,271.606,64.545Z" transform="translate(-267.698 -40.532)" fill="#9ab4ef"/>
          <path id="Path_94" data-name="Path 94" d="M271.606,58.422a.728.728,0,1,1-.729-.729A.728.728,0,0,1,271.606,58.422Z" transform="translate(-267.698 -39.653)" fill="#9ab4ef"/>
          <path id="Path_95" data-name="Path 95" d="M271.606,52.3a.728.728,0,1,1-.729-.728A.729.729,0,0,1,271.606,52.3Z" transform="translate(-267.698 -38.775)" fill="#9ab4ef"/>
          <path id="Path_96" data-name="Path 96" d="M271.606,46.175a.728.728,0,1,1-.729-.728A.729.729,0,0,1,271.606,46.175Z" transform="translate(-267.698 -37.896)" fill="#9ab4ef"/>
        </g>
        <g id="Group_22" data-name="Group 22" transform="translate(49.349 100.033)">
          <path id="Path_97" data-name="Path 97" d="M101.093,212.125l3.228-4.8H97.961Z" transform="translate(-97.961 -161.16)" fill="#9ab4ef"/>
          <circle id="Ellipse_14" data-name="Ellipse 14" cx="0.728" cy="0.728" r="0.728" transform="translate(2.451 0)" fill="#9ab4ef"/>
          <circle id="Ellipse_15" data-name="Ellipse 15" cx="0.729" cy="0.729" r="0.729" transform="translate(2.451 5.244)" fill="#9ab4ef"/>
          <circle id="Ellipse_16" data-name="Ellipse 16" cx="0.729" cy="0.729" r="0.729" transform="translate(2.451 10.489)" fill="#9ab4ef"/>
          <circle id="Ellipse_17" data-name="Ellipse 17" cx="0.729" cy="0.729" r="0.729" transform="translate(2.451 15.734)" fill="#9ab4ef"/>
          <circle id="Ellipse_18" data-name="Ellipse 18" cx="0.728" cy="0.728" r="0.728" transform="translate(2.451 20.979)" fill="#9ab4ef"/>
          <path id="Path_98" data-name="Path 98" d="M100.823,184.771a.728.728,0,1,1,.729.728A.729.729,0,0,1,100.823,184.771Z" transform="translate(-98.372 -157.819)" fill="#9ab4ef"/>
          <circle id="Ellipse_19" data-name="Ellipse 19" cx="0.729" cy="0.729" r="0.729" transform="translate(2.451 31.468)" fill="#9ab4ef"/>
          <circle id="Ellipse_20" data-name="Ellipse 20" cx="0.729" cy="0.729" r="0.729" transform="translate(2.451 36.713)" fill="#9ab4ef"/>
          <path id="Path_99" data-name="Path 99" d="M100.823,203.141a.728.728,0,1,1,.729.728A.728.728,0,0,1,100.823,203.141Z" transform="translate(-98.372 -160.455)" fill="#9ab4ef"/>
        </g>
        <g id="Group_23" data-name="Group 23" transform="translate(287.806 52.461)">
          <path id="Path_100" data-name="Path 100" d="M379.6,97.882l-3.227,4.8h6.359Z" transform="translate(-376.374 -97.882)" fill="#9ab4ef"/>
          <path id="Path_101" data-name="Path 101" d="M380.693,156.414a.729.729,0,1,1-.729-.728A.728.728,0,0,1,380.693,156.414Z" transform="translate(-376.785 -106.178)" fill="#9ab4ef"/>
          <path id="Path_102" data-name="Path 102" d="M380.693,150.29a.729.729,0,1,1-.729-.728A.729.729,0,0,1,380.693,150.29Z" transform="translate(-376.785 -105.299)" fill="#9ab4ef"/>
          <path id="Path_103" data-name="Path 103" d="M380.693,144.167a.729.729,0,1,1-.729-.728A.728.728,0,0,1,380.693,144.167Z" transform="translate(-376.785 -104.42)" fill="#9ab4ef"/>
          <circle id="Ellipse_21" data-name="Ellipse 21" cx="0.729" cy="0.729" r="0.729" transform="translate(2.451 33.774)" fill="#9ab4ef"/>
          <path id="Path_104" data-name="Path 104" d="M380.693,131.92a.729.729,0,1,1-.729-.728A.728.728,0,0,1,380.693,131.92Z" transform="translate(-376.785 -102.662)" fill="#9ab4ef"/>
          <path id="Path_105" data-name="Path 105" d="M380.693,125.8a.729.729,0,1,1-.729-.729A.729.729,0,0,1,380.693,125.8Z" transform="translate(-376.785 -101.784)" fill="#9ab4ef"/>
          <path id="Path_106" data-name="Path 106" d="M380.693,119.673a.729.729,0,1,1-.729-.728A.728.728,0,0,1,380.693,119.673Z" transform="translate(-376.785 -100.905)" fill="#9ab4ef"/>
          <path id="Path_107" data-name="Path 107" d="M380.693,113.549a.729.729,0,1,1-.729-.728A.729.729,0,0,1,380.693,113.549Z" transform="translate(-376.785 -100.026)" fill="#9ab4ef"/>
          <path id="Path_108" data-name="Path 108" d="M380.693,107.426a.729.729,0,1,1-.729-.728A.728.728,0,0,1,380.693,107.426Z" transform="translate(-376.785 -99.147)" fill="#9ab4ef"/>
        </g>
        <g id="Group_196" data-name="Group 196" transform="translate(224.004 136.868)">
          <g id="Group_186" data-name="Group 186" transform="translate(0 38.641)">
            <g id="Group_104" data-name="Group 104" transform="translate(0 82.861)">
              <g id="Group_24" data-name="Group 24" transform="translate(2.408)">
                <rect id="Rectangle_13" data-name="Rectangle 13" width="93.41" height="86.29" fill="#83a0f0"/>
              </g>
              <g id="Group_25" data-name="Group 25" transform="translate(66.607)">
                <rect id="Rectangle_14" data-name="Rectangle 14" width="29.21" height="86.29" fill="#5e60f4"/>
              </g>
              <g id="Group_103" data-name="Group 103" transform="translate(0 3.429)">
                <g id="Group_94" data-name="Group 94">
                  <g id="Group_42" data-name="Group 42" transform="translate(0 62.24)">
                    <g id="Group_26" data-name="Group 26">
                      <rect id="Rectangle_15" data-name="Rectangle 15" width="69.271" height="17.192" fill="#5e60f4"/>
                    </g>
                    <g id="Group_27" data-name="Group 27" transform="translate(69.271)">
                      <rect id="Rectangle_16" data-name="Rectangle 16" width="28.954" height="17.192" fill="#a0b7ea"/>
                    </g>
                    <g id="Group_28" data-name="Group 28" transform="translate(0 0)">
                      <path id="Path_109" data-name="Path 109" d="M369.971,416.148v14.828H303.064V416.148h66.907m1.182-1.182H301.882v17.191h69.271V414.966Z" transform="translate(-301.882 -414.966)" fill="#83a0f0"/>
                    </g>
                    <g id="Group_37" data-name="Group 37" transform="translate(5.805 4.322)">
                      <g id="Group_35" data-name="Group 35" transform="translate(0 2.796)">
                        <g id="Group_30" data-name="Group 30">
                          <g id="Group_29" data-name="Group 29">
                            <rect id="Rectangle_17" data-name="Rectangle 17" width="22.817" height="2.957" fill="#fff"/>
                          </g>
                        </g>
                        <g id="Group_31" data-name="Group 31" transform="translate(36.421)">
                          <rect id="Rectangle_18" data-name="Rectangle 18" width="1.664" height="2.957" fill="#9ab4ef"/>
                        </g>
                        <g id="Group_32" data-name="Group 32" transform="translate(33.094)">
                          <rect id="Rectangle_19" data-name="Rectangle 19" width="1.664" height="2.957" fill="#f9cf70"/>
                        </g>
                        <g id="Group_33" data-name="Group 33" transform="translate(29.766)">
                          <rect id="Rectangle_20" data-name="Rectangle 20" width="1.664" height="2.957" fill="#9ab4ef"/>
                        </g>
                        <g id="Group_34" data-name="Group 34" transform="translate(26.439)">
                          <rect id="Rectangle_21" data-name="Rectangle 21" width="1.664" height="2.957" fill="#f9cf70"/>
                        </g>
                      </g>
                      <g id="Group_36" data-name="Group 36" transform="translate(49.71)">
                        <rect id="Rectangle_22" data-name="Rectangle 22" width="7.951" height="7.951" fill="#83a0f0"/>
                      </g>
                    </g>
                    <g id="Group_41" data-name="Group 41" transform="translate(5.805 2.986)">
                      <g id="Group_38" data-name="Group 38">
                        <rect id="Rectangle_23" data-name="Rectangle 23" width="0.656" height="0.656" fill="#fff"/>
                      </g>
                      <g id="Group_39" data-name="Group 39" transform="translate(1.964)">
                        <rect id="Rectangle_24" data-name="Rectangle 24" width="0.656" height="0.656" fill="#9ab4ef"/>
                      </g>
                      <g id="Group_40" data-name="Group 40" transform="translate(3.929)">
                        <rect id="Rectangle_25" data-name="Rectangle 25" width="0.656" height="0.656" fill="#9ab4ef"/>
                      </g>
                    </g>
                  </g>
                  <g id="Group_59" data-name="Group 59" transform="translate(0 41.493)">
                    <g id="Group_43" data-name="Group 43">
                      <rect id="Rectangle_26" data-name="Rectangle 26" width="69.271" height="17.192" fill="#5e60f4"/>
                    </g>
                    <g id="Group_44" data-name="Group 44" transform="translate(69.271)">
                      <rect id="Rectangle_27" data-name="Rectangle 27" width="28.954" height="17.192" fill="#a0b7ea"/>
                    </g>
                    <g id="Group_45" data-name="Group 45" transform="translate(0 0)">
                      <path id="Path_110" data-name="Path 110" d="M369.971,391.925v14.827H303.064V391.925h66.907m1.182-1.182H301.882v17.191h69.271V390.743Z" transform="translate(-301.882 -390.743)" fill="#83a0f0"/>
                    </g>
                    <g id="Group_54" data-name="Group 54" transform="translate(5.805 4.322)">
                      <g id="Group_52" data-name="Group 52" transform="translate(0 2.796)">
                        <g id="Group_47" data-name="Group 47">
                          <g id="Group_46" data-name="Group 46">
                            <rect id="Rectangle_28" data-name="Rectangle 28" width="22.817" height="2.957" fill="#fff"/>
                          </g>
                        </g>
                        <g id="Group_48" data-name="Group 48" transform="translate(36.421)">
                          <rect id="Rectangle_29" data-name="Rectangle 29" width="1.664" height="2.957" fill="#9ab4ef"/>
                        </g>
                        <g id="Group_49" data-name="Group 49" transform="translate(33.094)">
                          <rect id="Rectangle_30" data-name="Rectangle 30" width="1.664" height="2.957" fill="#f9cf70"/>
                        </g>
                        <g id="Group_50" data-name="Group 50" transform="translate(29.766)">
                          <rect id="Rectangle_31" data-name="Rectangle 31" width="1.664" height="2.957" fill="#9ab4ef"/>
                        </g>
                        <g id="Group_51" data-name="Group 51" transform="translate(26.439)">
                          <rect id="Rectangle_32" data-name="Rectangle 32" width="1.664" height="2.957" fill="#f9cf70"/>
                        </g>
                      </g>
                      <g id="Group_53" data-name="Group 53" transform="translate(49.71)">
                        <rect id="Rectangle_33" data-name="Rectangle 33" width="7.951" height="7.951" fill="#83a0f0"/>
                      </g>
                    </g>
                    <g id="Group_58" data-name="Group 58" transform="translate(5.805 2.986)">
                      <g id="Group_55" data-name="Group 55">
                        <rect id="Rectangle_34" data-name="Rectangle 34" width="0.656" height="0.656" fill="#fff"/>
                      </g>
                      <g id="Group_56" data-name="Group 56" transform="translate(1.964)">
                        <rect id="Rectangle_35" data-name="Rectangle 35" width="0.656" height="0.656" fill="#9ab4ef"/>
                      </g>
                      <g id="Group_57" data-name="Group 57" transform="translate(3.929)">
                        <rect id="Rectangle_36" data-name="Rectangle 36" width="0.656" height="0.656" fill="#9ab4ef"/>
                      </g>
                    </g>
                  </g>
                  <g id="Group_76" data-name="Group 76" transform="translate(0 20.747)">
                    <g id="Group_60" data-name="Group 60">
                      <rect id="Rectangle_37" data-name="Rectangle 37" width="69.271" height="17.192" fill="#5e60f4"/>
                    </g>
                    <g id="Group_61" data-name="Group 61" transform="translate(69.271)">
                      <rect id="Rectangle_38" data-name="Rectangle 38" width="28.954" height="17.192" fill="#a0b7ea"/>
                    </g>
                    <g id="Group_62" data-name="Group 62" transform="translate(0 0)">
                      <path id="Path_111" data-name="Path 111" d="M369.971,367.7v14.827H303.064V367.7h66.907m1.182-1.182H301.882v17.191h69.271V366.52Z" transform="translate(-301.882 -366.52)" fill="#83a0f0"/>
                    </g>
                    <g id="Group_71" data-name="Group 71" transform="translate(5.805 4.322)">
                      <g id="Group_69" data-name="Group 69" transform="translate(0 2.796)">
                        <g id="Group_64" data-name="Group 64">
                          <g id="Group_63" data-name="Group 63">
                            <rect id="Rectangle_39" data-name="Rectangle 39" width="22.817" height="2.957" fill="#fff"/>
                          </g>
                        </g>
                        <g id="Group_65" data-name="Group 65" transform="translate(36.421)">
                          <rect id="Rectangle_40" data-name="Rectangle 40" width="1.664" height="2.957" fill="#9ab4ef"/>
                        </g>
                        <g id="Group_66" data-name="Group 66" transform="translate(33.094)">
                          <rect id="Rectangle_41" data-name="Rectangle 41" width="1.664" height="2.957" fill="#f9cf70"/>
                        </g>
                        <g id="Group_67" data-name="Group 67" transform="translate(29.766)">
                          <rect id="Rectangle_42" data-name="Rectangle 42" width="1.664" height="2.957" fill="#9ab4ef"/>
                        </g>
                        <g id="Group_68" data-name="Group 68" transform="translate(26.439)">
                          <rect id="Rectangle_43" data-name="Rectangle 43" width="1.664" height="2.957" fill="#f9cf70"/>
                        </g>
                      </g>
                      <g id="Group_70" data-name="Group 70" transform="translate(49.71)">
                        <rect id="Rectangle_44" data-name="Rectangle 44" width="7.951" height="7.951" fill="#83a0f0"/>
                      </g>
                    </g>
                    <g id="Group_75" data-name="Group 75" transform="translate(5.805 2.986)">
                      <g id="Group_72" data-name="Group 72">
                        <rect id="Rectangle_45" data-name="Rectangle 45" width="0.656" height="0.656" fill="#fff"/>
                      </g>
                      <g id="Group_73" data-name="Group 73" transform="translate(1.964)">
                        <rect id="Rectangle_46" data-name="Rectangle 46" width="0.656" height="0.656" fill="#9ab4ef"/>
                      </g>
                      <g id="Group_74" data-name="Group 74" transform="translate(3.929)">
                        <rect id="Rectangle_47" data-name="Rectangle 47" width="0.656" height="0.656" fill="#9ab4ef"/>
                      </g>
                    </g>
                  </g>
                  <g id="Group_93" data-name="Group 93">
                    <g id="Group_77" data-name="Group 77">
                      <rect id="Rectangle_48" data-name="Rectangle 48" width="69.271" height="17.192" fill="#5e60f4"/>
                    </g>
                    <g id="Group_78" data-name="Group 78" transform="translate(69.271)">
                      <rect id="Rectangle_49" data-name="Rectangle 49" width="28.954" height="17.192" fill="#a0b7ea"/>
                    </g>
                    <g id="Group_79" data-name="Group 79" transform="translate(0 0)">
                      <path id="Path_112" data-name="Path 112" d="M369.971,343.479v14.828H303.064V343.479h66.907m1.182-1.182H301.882v17.191h69.271V342.3Z" transform="translate(-301.882 -342.297)" fill="#83a0f0"/>
                    </g>
                    <g id="Group_88" data-name="Group 88" transform="translate(5.805 4.322)">
                      <g id="Group_86" data-name="Group 86" transform="translate(0 2.796)">
                        <g id="Group_81" data-name="Group 81">
                          <g id="Group_80" data-name="Group 80">
                            <rect id="Rectangle_50" data-name="Rectangle 50" width="22.817" height="2.957" fill="#fff"/>
                          </g>
                        </g>
                        <g id="Group_82" data-name="Group 82" transform="translate(36.421)">
                          <rect id="Rectangle_51" data-name="Rectangle 51" width="1.664" height="2.957" fill="#9ab4ef"/>
                        </g>
                        <g id="Group_83" data-name="Group 83" transform="translate(33.094)">
                          <rect id="Rectangle_52" data-name="Rectangle 52" width="1.664" height="2.957" fill="#f9cf70"/>
                        </g>
                        <g id="Group_84" data-name="Group 84" transform="translate(29.766)">
                          <rect id="Rectangle_53" data-name="Rectangle 53" width="1.664" height="2.957" fill="#9ab4ef"/>
                        </g>
                        <g id="Group_85" data-name="Group 85" transform="translate(26.439)">
                          <rect id="Rectangle_54" data-name="Rectangle 54" width="1.664" height="2.957" fill="#f9cf70"/>
                        </g>
                      </g>
                      <g id="Group_87" data-name="Group 87" transform="translate(49.71)">
                        <rect id="Rectangle_55" data-name="Rectangle 55" width="7.951" height="7.951" fill="#83a0f0"/>
                      </g>
                    </g>
                    <g id="Group_92" data-name="Group 92" transform="translate(5.805 2.986)">
                      <g id="Group_89" data-name="Group 89">
                        <rect id="Rectangle_56" data-name="Rectangle 56" width="0.656" height="0.656" fill="#fff"/>
                      </g>
                      <g id="Group_90" data-name="Group 90" transform="translate(1.964)">
                        <rect id="Rectangle_57" data-name="Rectangle 57" width="0.656" height="0.656" fill="#9ab4ef"/>
                      </g>
                      <g id="Group_91" data-name="Group 91" transform="translate(3.929)">
                        <rect id="Rectangle_58" data-name="Rectangle 58" width="0.656" height="0.656" fill="#9ab4ef"/>
                      </g>
                    </g>
                  </g>
                </g>
                <g id="Group_95" data-name="Group 95" transform="translate(75.693 66.053)">
                  <rect id="Rectangle_59" data-name="Rectangle 59" width="16.11" height="9.565" rx="2.755" fill="#5e60f4"/>
                </g>
                <g id="Group_96" data-name="Group 96" transform="translate(82.551 68.82)">
                  <rect id="Rectangle_60" data-name="Rectangle 60" width="4.033" height="2.394" rx="0.69" transform="translate(2.394 0) rotate(90)" fill="#83a0f0"/>
                </g>
                <g id="Group_97" data-name="Group 97" transform="translate(75.693 45.307)">
                  <rect id="Rectangle_61" data-name="Rectangle 61" width="16.11" height="9.565" rx="2.755" fill="#5e60f4"/>
                </g>
                <g id="Group_98" data-name="Group 98" transform="translate(82.551 48.073)">
                  <rect id="Rectangle_62" data-name="Rectangle 62" width="4.033" height="2.394" rx="0.69" transform="translate(2.394 0) rotate(90)" fill="#83a0f0"/>
                </g>
                <g id="Group_99" data-name="Group 99" transform="translate(75.693 24.56)">
                  <rect id="Rectangle_63" data-name="Rectangle 63" width="16.11" height="9.565" rx="2.755" fill="#5e60f4"/>
                </g>
                <g id="Group_100" data-name="Group 100" transform="translate(82.551 27.326)">
                  <rect id="Rectangle_64" data-name="Rectangle 64" width="4.033" height="2.394" rx="0.69" transform="translate(2.394 0) rotate(90)" fill="#83a0f0"/>
                </g>
                <g id="Group_101" data-name="Group 101" transform="translate(75.693 3.813)">
                  <rect id="Rectangle_65" data-name="Rectangle 65" width="16.11" height="9.565" rx="2.755" fill="#5e60f4"/>
                </g>
                <g id="Group_102" data-name="Group 102" transform="translate(82.551 6.579)">
                  <rect id="Rectangle_66" data-name="Rectangle 66" width="4.033" height="2.394" rx="0.69" transform="translate(2.394 0) rotate(90)" fill="#83a0f0"/>
                </g>
              </g>
            </g>
            <g id="Group_185" data-name="Group 185">
              <g id="Group_105" data-name="Group 105" transform="translate(2.408)">
                <rect id="Rectangle_67" data-name="Rectangle 67" width="93.41" height="86.29" fill="#83a0f0"/>
              </g>
              <g id="Group_106" data-name="Group 106" transform="translate(66.607)">
                <rect id="Rectangle_68" data-name="Rectangle 68" width="29.21" height="86.29" fill="#5e60f4"/>
              </g>
              <g id="Group_184" data-name="Group 184" transform="translate(0 3.429)">
                <g id="Group_175" data-name="Group 175">
                  <g id="Group_123" data-name="Group 123" transform="translate(0 62.24)">
                    <g id="Group_107" data-name="Group 107">
                      <rect id="Rectangle_69" data-name="Rectangle 69" width="69.271" height="17.192" fill="#5e60f4"/>
                    </g>
                    <g id="Group_108" data-name="Group 108" transform="translate(69.271)">
                      <rect id="Rectangle_70" data-name="Rectangle 70" width="28.954" height="17.192" fill="#a0b7ea"/>
                    </g>
                    <g id="Group_109" data-name="Group 109" transform="translate(0 0)">
                      <path id="Path_113" data-name="Path 113" d="M369.971,319.4V334.23H303.064V319.4h66.907m1.182-1.182H301.882v17.191h69.271V318.221Z" transform="translate(-301.882 -318.221)" fill="#83a0f0"/>
                    </g>
                    <g id="Group_118" data-name="Group 118" transform="translate(5.805 4.322)">
                      <g id="Group_116" data-name="Group 116" transform="translate(0 2.796)">
                        <g id="Group_111" data-name="Group 111">
                          <g id="Group_110" data-name="Group 110">
                            <rect id="Rectangle_71" data-name="Rectangle 71" width="22.817" height="2.957" fill="#fff"/>
                          </g>
                        </g>
                        <g id="Group_112" data-name="Group 112" transform="translate(36.421)">
                          <rect id="Rectangle_72" data-name="Rectangle 72" width="1.664" height="2.957" fill="#9ab4ef"/>
                        </g>
                        <g id="Group_113" data-name="Group 113" transform="translate(33.094)">
                          <rect id="Rectangle_73" data-name="Rectangle 73" width="1.664" height="2.957" fill="#f9cf70"/>
                        </g>
                        <g id="Group_114" data-name="Group 114" transform="translate(29.766)">
                          <rect id="Rectangle_74" data-name="Rectangle 74" width="1.664" height="2.957" fill="#9ab4ef"/>
                        </g>
                        <g id="Group_115" data-name="Group 115" transform="translate(26.439)">
                          <rect id="Rectangle_75" data-name="Rectangle 75" width="1.664" height="2.957" fill="#f9cf70"/>
                        </g>
                      </g>
                      <g id="Group_117" data-name="Group 117" transform="translate(49.71)">
                        <rect id="Rectangle_76" data-name="Rectangle 76" width="7.951" height="7.951" fill="#83a0f0"/>
                      </g>
                    </g>
                    <g id="Group_122" data-name="Group 122" transform="translate(5.805 2.986)">
                      <g id="Group_119" data-name="Group 119">
                        <rect id="Rectangle_77" data-name="Rectangle 77" width="0.656" height="0.656" fill="#fff"/>
                      </g>
                      <g id="Group_120" data-name="Group 120" transform="translate(1.964)">
                        <rect id="Rectangle_78" data-name="Rectangle 78" width="0.656" height="0.656" fill="#9ab4ef"/>
                      </g>
                      <g id="Group_121" data-name="Group 121" transform="translate(3.929)">
                        <rect id="Rectangle_79" data-name="Rectangle 79" width="0.656" height="0.656" fill="#9ab4ef"/>
                      </g>
                    </g>
                  </g>
                  <g id="Group_140" data-name="Group 140" transform="translate(0 41.493)">
                    <g id="Group_124" data-name="Group 124">
                      <rect id="Rectangle_80" data-name="Rectangle 80" width="69.271" height="17.192" fill="#5e60f4"/>
                    </g>
                    <g id="Group_125" data-name="Group 125" transform="translate(69.271)">
                      <rect id="Rectangle_81" data-name="Rectangle 81" width="28.954" height="17.192" fill="#a0b7ea"/>
                    </g>
                    <g id="Group_126" data-name="Group 126" transform="translate(0 0)">
                      <path id="Path_114" data-name="Path 114" d="M369.971,295.18v14.827H303.064V295.18h66.907M371.153,294H301.882v17.191h69.271V294Z" transform="translate(-301.882 -293.998)" fill="#83a0f0"/>
                    </g>
                    <g id="Group_135" data-name="Group 135" transform="translate(5.805 4.322)">
                      <g id="Group_133" data-name="Group 133" transform="translate(0 2.796)">
                        <g id="Group_128" data-name="Group 128">
                          <g id="Group_127" data-name="Group 127">
                            <rect id="Rectangle_82" data-name="Rectangle 82" width="22.817" height="2.957" fill="#fff"/>
                          </g>
                        </g>
                        <g id="Group_129" data-name="Group 129" transform="translate(36.421)">
                          <rect id="Rectangle_83" data-name="Rectangle 83" width="1.664" height="2.957" fill="#9ab4ef"/>
                        </g>
                        <g id="Group_130" data-name="Group 130" transform="translate(33.094)">
                          <rect id="Rectangle_84" data-name="Rectangle 84" width="1.664" height="2.957" fill="#f9cf70"/>
                        </g>
                        <g id="Group_131" data-name="Group 131" transform="translate(29.766)">
                          <rect id="Rectangle_85" data-name="Rectangle 85" width="1.664" height="2.957" fill="#9ab4ef"/>
                        </g>
                        <g id="Group_132" data-name="Group 132" transform="translate(26.439)">
                          <rect id="Rectangle_86" data-name="Rectangle 86" width="1.664" height="2.957" fill="#f9cf70"/>
                        </g>
                      </g>
                      <g id="Group_134" data-name="Group 134" transform="translate(49.71)">
                        <rect id="Rectangle_87" data-name="Rectangle 87" width="7.951" height="7.951" fill="#83a0f0"/>
                      </g>
                    </g>
                    <g id="Group_139" data-name="Group 139" transform="translate(5.805 2.986)">
                      <g id="Group_136" data-name="Group 136">
                        <rect id="Rectangle_88" data-name="Rectangle 88" width="0.656" height="0.656" fill="#fff"/>
                      </g>
                      <g id="Group_137" data-name="Group 137" transform="translate(1.964)">
                        <rect id="Rectangle_89" data-name="Rectangle 89" width="0.656" height="0.656" fill="#9ab4ef"/>
                      </g>
                      <g id="Group_138" data-name="Group 138" transform="translate(3.929)">
                        <rect id="Rectangle_90" data-name="Rectangle 90" width="0.656" height="0.656" fill="#9ab4ef"/>
                      </g>
                    </g>
                  </g>
                  <g id="Group_157" data-name="Group 157" transform="translate(0 20.747)">
                    <g id="Group_141" data-name="Group 141">
                      <rect id="Rectangle_91" data-name="Rectangle 91" width="69.271" height="17.192" fill="#5e60f4"/>
                    </g>
                    <g id="Group_142" data-name="Group 142" transform="translate(69.271)">
                      <rect id="Rectangle_92" data-name="Rectangle 92" width="28.954" height="17.192" fill="#a0b7ea"/>
                    </g>
                    <g id="Group_143" data-name="Group 143" transform="translate(0 0)">
                      <path id="Path_115" data-name="Path 115" d="M369.971,270.957v14.827H303.064V270.957h66.907m1.182-1.182H301.882v17.191h69.271V269.775Z" transform="translate(-301.882 -269.775)" fill="#83a0f0"/>
                    </g>
                    <g id="Group_152" data-name="Group 152" transform="translate(5.805 4.322)">
                      <g id="Group_150" data-name="Group 150" transform="translate(0 2.796)">
                        <g id="Group_145" data-name="Group 145">
                          <g id="Group_144" data-name="Group 144">
                            <rect id="Rectangle_93" data-name="Rectangle 93" width="22.817" height="2.957" fill="#fff"/>
                          </g>
                        </g>
                        <g id="Group_146" data-name="Group 146" transform="translate(36.421)">
                          <rect id="Rectangle_94" data-name="Rectangle 94" width="1.664" height="2.957" fill="#9ab4ef"/>
                        </g>
                        <g id="Group_147" data-name="Group 147" transform="translate(33.094)">
                          <rect id="Rectangle_95" data-name="Rectangle 95" width="1.664" height="2.957" fill="#f9cf70"/>
                        </g>
                        <g id="Group_148" data-name="Group 148" transform="translate(29.766)">
                          <rect id="Rectangle_96" data-name="Rectangle 96" width="1.664" height="2.957" fill="#9ab4ef"/>
                        </g>
                        <g id="Group_149" data-name="Group 149" transform="translate(26.439)">
                          <rect id="Rectangle_97" data-name="Rectangle 97" width="1.664" height="2.957" fill="#f9cf70"/>
                        </g>
                      </g>
                      <g id="Group_151" data-name="Group 151" transform="translate(49.71)">
                        <rect id="Rectangle_98" data-name="Rectangle 98" width="7.951" height="7.951" fill="#83a0f0"/>
                      </g>
                    </g>
                    <g id="Group_156" data-name="Group 156" transform="translate(5.805 2.986)">
                      <g id="Group_153" data-name="Group 153">
                        <rect id="Rectangle_99" data-name="Rectangle 99" width="0.656" height="0.656" fill="#fff"/>
                      </g>
                      <g id="Group_154" data-name="Group 154" transform="translate(1.964)">
                        <rect id="Rectangle_100" data-name="Rectangle 100" width="0.656" height="0.656" fill="#9ab4ef"/>
                      </g>
                      <g id="Group_155" data-name="Group 155" transform="translate(3.929)">
                        <rect id="Rectangle_101" data-name="Rectangle 101" width="0.656" height="0.656" fill="#9ab4ef"/>
                      </g>
                    </g>
                  </g>
                  <g id="Group_174" data-name="Group 174">
                    <g id="Group_158" data-name="Group 158">
                      <rect id="Rectangle_102" data-name="Rectangle 102" width="69.271" height="17.192" fill="#5e60f4"/>
                    </g>
                    <g id="Group_159" data-name="Group 159" transform="translate(69.271)">
                      <rect id="Rectangle_103" data-name="Rectangle 103" width="28.954" height="17.192" fill="#a0b7ea"/>
                    </g>
                    <g id="Group_160" data-name="Group 160" transform="translate(0 0)">
                      <path id="Path_116" data-name="Path 116" d="M369.971,246.734v14.827H303.064V246.734h66.907m1.182-1.182H301.882v17.191h69.271V245.552Z" transform="translate(-301.882 -245.552)" fill="#83a0f0"/>
                    </g>
                    <g id="Group_169" data-name="Group 169" transform="translate(5.805 4.322)">
                      <g id="Group_167" data-name="Group 167" transform="translate(0 2.796)">
                        <g id="Group_162" data-name="Group 162">
                          <g id="Group_161" data-name="Group 161">
                            <rect id="Rectangle_104" data-name="Rectangle 104" width="22.817" height="2.957" fill="#fff"/>
                          </g>
                        </g>
                        <g id="Group_163" data-name="Group 163" transform="translate(36.421)">
                          <rect id="Rectangle_105" data-name="Rectangle 105" width="1.664" height="2.957" fill="#9ab4ef"/>
                        </g>
                        <g id="Group_164" data-name="Group 164" transform="translate(33.094)">
                          <rect id="Rectangle_106" data-name="Rectangle 106" width="1.664" height="2.957" fill="#f9cf70"/>
                        </g>
                        <g id="Group_165" data-name="Group 165" transform="translate(29.766)">
                          <rect id="Rectangle_107" data-name="Rectangle 107" width="1.664" height="2.957" fill="#9ab4ef"/>
                        </g>
                        <g id="Group_166" data-name="Group 166" transform="translate(26.439)">
                          <rect id="Rectangle_108" data-name="Rectangle 108" width="1.664" height="2.957" fill="#f9cf70"/>
                        </g>
                      </g>
                      <g id="Group_168" data-name="Group 168" transform="translate(49.71)">
                        <rect id="Rectangle_109" data-name="Rectangle 109" width="7.951" height="7.951" fill="#83a0f0"/>
                      </g>
                    </g>
                    <g id="Group_173" data-name="Group 173" transform="translate(5.805 2.986)">
                      <g id="Group_170" data-name="Group 170">
                        <rect id="Rectangle_110" data-name="Rectangle 110" width="0.656" height="0.656" fill="#fff"/>
                      </g>
                      <g id="Group_171" data-name="Group 171" transform="translate(1.964)">
                        <rect id="Rectangle_111" data-name="Rectangle 111" width="0.656" height="0.656" fill="#9ab4ef"/>
                      </g>
                      <g id="Group_172" data-name="Group 172" transform="translate(3.929)">
                        <rect id="Rectangle_112" data-name="Rectangle 112" width="0.656" height="0.656" fill="#9ab4ef"/>
                      </g>
                    </g>
                  </g>
                </g>
                <g id="Group_176" data-name="Group 176" transform="translate(75.693 66.053)">
                  <rect id="Rectangle_113" data-name="Rectangle 113" width="16.11" height="9.565" rx="2.755" fill="#5e60f4"/>
                </g>
                <g id="Group_177" data-name="Group 177" transform="translate(82.551 68.82)">
                  <rect id="Rectangle_114" data-name="Rectangle 114" width="4.033" height="2.394" rx="0.69" transform="translate(2.394 0) rotate(90)" fill="#83a0f0"/>
                </g>
                <g id="Group_178" data-name="Group 178" transform="translate(75.693 45.307)">
                  <rect id="Rectangle_115" data-name="Rectangle 115" width="16.11" height="9.565" rx="2.755" fill="#5e60f4"/>
                </g>
                <g id="Group_179" data-name="Group 179" transform="translate(82.551 48.073)">
                  <rect id="Rectangle_116" data-name="Rectangle 116" width="4.033" height="2.394" rx="0.69" transform="translate(2.394 0) rotate(90)" fill="#83a0f0"/>
                </g>
                <g id="Group_180" data-name="Group 180" transform="translate(75.693 24.56)">
                  <rect id="Rectangle_117" data-name="Rectangle 117" width="16.11" height="9.565" rx="2.755" fill="#5e60f4"/>
                </g>
                <g id="Group_181" data-name="Group 181" transform="translate(82.551 27.326)">
                  <rect id="Rectangle_118" data-name="Rectangle 118" width="4.033" height="2.394" rx="0.69" transform="translate(2.394 0) rotate(90)" fill="#83a0f0"/>
                </g>
                <g id="Group_182" data-name="Group 182" transform="translate(75.693 3.813)">
                  <rect id="Rectangle_119" data-name="Rectangle 119" width="16.11" height="9.565" rx="2.755" fill="#5e60f4"/>
                </g>
                <g id="Group_183" data-name="Group 183" transform="translate(82.551 6.579)">
                  <rect id="Rectangle_120" data-name="Rectangle 120" width="4.033" height="2.394" rx="0.69" transform="translate(2.394 0) rotate(90)" fill="#83a0f0"/>
                </g>
              </g>
            </g>
          </g>
          <path id="Path_117" data-name="Path 117" d="M421.5,201.158v46.155h-9v-.462h-3.375v.462h-9.462v.926h9.462v.463H412.5v-.463h9V268.06h-9V267.6h-3.375v.462h-9.462v.926h9.462v.463H412.5v-.463h9v19.821h-9v-.462h-3.375v.462h-9.462v.926h9.462v.463H412.5v-.463h9v19.821H399.663v.926H421.5v19.695h-9v-.463h-3.375v.463h-9.462v.926h9.462v.463H412.5V331.1h9v19.821h-9v-.463h-3.375v.463h-9.462v.926h9.462v.463H412.5v-.463h9v19.821h-9V371.2h-3.375v.462h-9.462v.926h9.462v.463H412.5v-.463h9v19.821h-9v-.462h-3.375v.462h-9.462v.927h9.462v.462H412.5v-.462h9.924V201.279C422.115,201.234,421.806,201.2,421.5,201.158Z" transform="translate(-315.915 -197.11)" fill="#9ab4ef"/>
          <g id="Group_187" data-name="Group 187" transform="translate(104.233 0)">
            <circle id="Ellipse_22" data-name="Ellipse 22" cx="1.812" cy="1.812" r="1.812" fill="#f9cf70"/>
          </g>
          <g id="Group_188" data-name="Group 188" transform="translate(104.233 48.854)">
            <circle id="Ellipse_23" data-name="Ellipse 23" cx="1.812" cy="1.812" r="1.812" fill="#f9cf70"/>
          </g>
          <g id="Group_189" data-name="Group 189" transform="translate(104.233 69.524)">
            <circle id="Ellipse_24" data-name="Ellipse 24" cx="1.812" cy="1.812" r="1.812" fill="#f9cf70"/>
          </g>
          <g id="Group_190" data-name="Group 190" transform="translate(104.233 90.347)">
            <circle id="Ellipse_25" data-name="Ellipse 25" cx="1.812" cy="1.812" r="1.812" fill="#f9cf70"/>
          </g>
          <g id="Group_191" data-name="Group 191" transform="translate(104.233 110.863)">
            <circle id="Ellipse_26" data-name="Ellipse 26" cx="1.812" cy="1.812" r="1.812" fill="#f9cf70"/>
          </g>
          <g id="Group_192" data-name="Group 192" transform="translate(104.233 131.533)">
            <circle id="Ellipse_27" data-name="Ellipse 27" cx="1.812" cy="1.812" r="1.812" fill="#f9cf70"/>
          </g>
          <g id="Group_193" data-name="Group 193" transform="translate(104.233 152.203)">
            <circle id="Ellipse_28" data-name="Ellipse 28" cx="1.812" cy="1.812" r="1.812" fill="#f9cf70"/>
          </g>
          <g id="Group_194" data-name="Group 194" transform="translate(104.233 172.873)">
            <circle id="Ellipse_29" data-name="Ellipse 29" cx="1.812" cy="1.812" r="1.812" fill="#f9cf70"/>
          </g>
          <g id="Group_195" data-name="Group 195" transform="translate(104.233 193.543)">
            <circle id="Ellipse_30" data-name="Ellipse 30" cx="1.812" cy="1.812" r="1.812" fill="#f9cf70"/>
          </g>
        </g>
        <g id="Group_205" data-name="Group 205" transform="translate(108.951 111.991)">
          <g id="Group_204" data-name="Group 204" transform="translate(0)">
            <g id="Group_203" data-name="Group 203">
              <path id="Path_118" data-name="Path 118" d="M167.55,185.766V391.529a18.122,18.122,0,0,0,.907,5.687,18.449,18.449,0,0,0,17.477,12.7h86.553a18.449,18.449,0,0,0,17.477-12.7,18.121,18.121,0,0,0,.907-5.687V185.766a18.428,18.428,0,0,0-18.384-18.379H185.934a18.415,18.415,0,0,0-18.384,18.379Z" transform="translate(-167.55 -167.387)" fill="#353dc9"/>
              <g id="Group_197" data-name="Group 197" transform="translate(5.964 0.616)">
                <path id="Path_119" data-name="Path 119" d="M192.327,168.106a17.834,17.834,0,0,0-17.814,17.814V391.7a17.834,17.834,0,0,0,17.814,17.814H277.4A17.834,17.834,0,0,0,295.217,391.7V185.92A17.834,17.834,0,0,0,277.4,168.106Z" transform="translate(-174.513 -168.106)" fill="#1b29af"/>
              </g>
              <g id="Group_198" data-name="Group 198" transform="translate(6.721 1.369)">
                <rect id="Rectangle_121" data-name="Rectangle 121" width="119.19" height="239.724" rx="20.742" fill="#353dc9"/>
              </g>
              <path id="Path_120" data-name="Path 120" d="M194.4,176h14.636v1.3a7.186,7.186,0,0,0,7.187,7.187H257a7.6,7.6,0,0,0,7.6-7.6V176h12.816a12.529,12.529,0,0,1,12.529,12.53V391.167a12.529,12.529,0,0,1-12.529,12.53H194.4a12.529,12.529,0,0,1-12.529-12.53V188.534A12.529,12.529,0,0,1,194.4,176Z" transform="translate(-169.606 -168.624)" fill="#83a0f0"/>
              <path id="Path_121" data-name="Path 121" d="M250.274,178.23a1.264,1.264,0,1,0,0-2.528H237.006a1.264,1.264,0,1,0,0,2.528Z" transform="translate(-177.336 -168.58)" fill="#f9cf70"/>
              <g id="Group_200" data-name="Group 200" transform="translate(77.641 6.568)">
                <g id="Group_199" data-name="Group 199">
                  <path id="Path_122" data-name="Path 122" d="M261.46,176.685a1.63,1.63,0,1,1-1.63-1.63,1.63,1.63,0,0,1,1.63,1.63Z" transform="translate(-258.2 -175.055)" fill="#f9cf70"/>
                  <path id="Path_123" data-name="Path 123" d="M260.839,176.81a.884.884,0,1,1-.884-.884.884.884,0,0,1,.884.884Z" transform="translate(-258.325 -175.18)" fill="#353dc9"/>
                </g>
              </g>
              <g id="Group_201" data-name="Group 201" transform="translate(1.275 49.109)">
                <path id="Path_124" data-name="Path 124" d="M171.567,225.99a1.265,1.265,0,1,0-2.529,0v17.931a1.265,1.265,0,0,0,2.529,0Z" transform="translate(-169.038 -224.725)" fill="#1b29af"/>
              </g>
              <g id="Group_202" data-name="Group 202" transform="translate(1.275 78.037)">
                <path id="Path_125" data-name="Path 125" d="M171.567,259.765a1.265,1.265,0,1,0-2.529,0V277.7a1.265,1.265,0,0,0,2.529,0Z" transform="translate(-169.038 -258.5)" fill="#1b29af"/>
              </g>
              <rect id="Rectangle_122" data-name="Rectangle 122" width="5.964" height="2.965" transform="translate(5.964 27.54) rotate(180)" fill="#1b29af"/>
              <rect id="Rectangle_123" data-name="Rectangle 123" width="5.964" height="2.965" transform="translate(5.964 218.173) rotate(180)" fill="#1b29af"/>
            </g>
          </g>
        </g>
      </g>
      <g id="Group_216" data-name="Group 216" transform="translate(67.554 209.137)">
        <path id="Path_126" data-name="Path 126" d="M199.312,323.122s-9.691,11.292-21.273-1.223c0,0-11.428.482-25.158,15.612v65.321l71.075.749V339.753A42.888,42.888,0,0,0,199.312,323.122Z" transform="translate(-124.048 -286.708)" fill="#f9cf70"/>
        <path id="Path_127" data-name="Path 127" d="M190.6,399.753c-8.618,4.948-25.464,4.5-34.853,4.244-27.391-.735-17.58-42.206-8.754-59.223s16.93-2.531,17.351,11.182c.228,7.445-1.617,17.06-5.723,23.691,10.46.56,32.549,9.371,32.549,9.371C186.639,394.123,190.6,399.753,190.6,399.753Z" transform="translate(-121.881 -288.883)" fill="#f9cf70"/>
        <path id="Path_128" data-name="Path 128" d="M194.279,402.967c9.2,3.746,25.837,1.039,35.107-.47,27.044-4.4,11.759-44.184.73-59.862S213,342.4,214.423,356.043c.773,7.408,3.891,16.689,8.849,22.709-10.291,1.959-31,13.652-31,13.652C197.449,396.857,194.279,402.967,194.279,402.967Z" transform="translate(-129.701 -288.736)" fill="#f9cf70"/>
        <path id="Path_129" data-name="Path 129" d="M226.5,412.475,139.9,409.706l5.355,14.341,50.426,15.493,32.114-10.487Z" transform="translate(-122.184 -299.309)" fill="#1b29af"/>
        <path id="Path_130" data-name="Path 130" d="M218.732,388.913l-.751,15.393H151.8l-1.668-32.226Z" transform="translate(-123.654 -293.909)" fill="#f9cf70"/>
        <path id="Path_131" data-name="Path 131" d="M219.679,398.025l1.334-5.393a.719.719,0,0,0-.485-.86L218.7,391.2a.721.721,0,0,1-.494-.557l-.31-1.675a.721.721,0,0,0-.708-.588H215.7a.72.72,0,0,1-.611-.338l-.911-1.458a.718.718,0,0,0-.976-.237l-1.73,1.025a.722.722,0,0,1-.719.009l-1.015-.568a.719.719,0,0,0-.952.231l-3.638,5.5a.719.719,0,0,0,.224,1.011l.806.492a.72.72,0,0,0,.915-.137h0a.719.719,0,0,1,1.25.588l-.037.239a.72.72,0,0,0,.392.756l7.135,3.521a.729.729,0,0,0,.146.054c.447.11,2.639.57,3.6-.817A.7.7,0,0,0,219.679,398.025Z" transform="translate(-131.531 -295.943)" fill="#febac7"/>
        <path id="Path_132" data-name="Path 132" d="M163.209,398.025l-1.335-5.393a.72.72,0,0,1,.486-.86l1.827-.567a.721.721,0,0,0,.494-.557l.31-1.675a.72.72,0,0,1,.707-.588h1.495a.72.72,0,0,0,.611-.338l.91-1.458a.719.719,0,0,1,.977-.237l1.73,1.025a.722.722,0,0,0,.719.009l1.015-.568a.719.719,0,0,1,.952.231l3.638,5.5a.719.719,0,0,1-.224,1.011l-.806.492a.72.72,0,0,1-.915-.137h0a.72.72,0,0,0-1.25.588l.038.239a.719.719,0,0,1-.393.756l-7.135,3.521a.73.73,0,0,1-.146.054c-.448.11-2.64.57-3.6-.817A.681.681,0,0,1,163.209,398.025Z" transform="translate(-125.335 -295.943)" fill="#febac7"/>
        <g id="Group_207" data-name="Group 207" transform="translate(39.782 95.862)">
          <path id="Path_133" data-name="Path 133" d="M243.5,394.521l-64.341,39.064a25.9,25.9,0,0,1,9.223,16.163L255.4,416a12.286,12.286,0,0,0,4.444-18.152h0A12.287,12.287,0,0,0,243.5,394.521Z" transform="translate(-167.6 -392.736)" fill="#5e60f4"/>
          <path id="Path_134" data-name="Path 134" d="M198.89,447.354l4.085,3.449-8.082,4.07c-2.417-2.081-7.133-6.1-7.835-6.365C186.108,448.145,198.89,447.354,198.89,447.354Z" transform="translate(-168.727 -400.575)" fill="#1b29af"/>
          <path id="Path_135" data-name="Path 135" d="M177.221,440.43l-10.715,6.038a1.653,1.653,0,0,0-.622,2.263c2.826,4.929,12.255,20.862,17.238,23.028,0,0,4.022-1.292,2.482-6.552a16.573,16.573,0,0,1,.532-10.125S185.785,442.822,177.221,440.43Z" transform="translate(-165.664 -399.581)" fill="#1b29af"/>
        </g>
        <g id="Group_208" data-name="Group 208" transform="translate(0 100.866)">
          <path id="Path_136" data-name="Path 136" d="M136.782,399.77l67.98,32.319a25.9,25.9,0,0,0-7.531,17.017l-70.106-26.762a12.285,12.285,0,0,1-6.267-17.605h0A12.285,12.285,0,0,1,136.782,399.77Z" transform="translate(-119.216 -398.578)" fill="#5e60f4"/>
          <path id="Path_137" data-name="Path 137" d="M217.855,437.7l11.275,4.917a1.652,1.652,0,0,1,.848,2.188c-2.31,5.191-10.07,22-14.806,24.662,0,0-4.133-.876-3.136-6.265a16.572,16.572,0,0,0-1.559-10.017S209.578,440.954,217.855,437.7Z" transform="translate(-132.309 -404.193)" fill="#1b29af"/>
        </g>
        <g id="Group_214" data-name="Group 214" transform="translate(52.237)">
          <g id="Group_209" data-name="Group 209" transform="translate(2.791 26.393)">
            <path id="Path_138" data-name="Path 138" d="M197.165,320.733a13.746,13.746,0,0,1-3.548-.791c-3.879-1.459-6.6-4.819-8.436-8.316,0,0-.159,6.626-.455,8.669a6.8,6.8,0,0,1-1.262,3.194l8.606,6.964,4.379-4.623S196.725,323.418,197.165,320.733Z" transform="translate(-183.464 -311.626)" fill="#ef947a"/>
            <path id="Path_139" data-name="Path 139" d="M196.027,328.19c-1.459.743-2.9,1.5-4.267,2.257a48.4,48.4,0,0,0-7.992-5.487,3.952,3.952,0,0,1-.3.443l8.606,6.964Z" transform="translate(-183.464 -313.54)" fill="#c97865"/>
            <path id="Path_140" data-name="Path 140" d="M194.161,320.369a15.013,15.013,0,0,1-6.907-5.773,22.767,22.767,0,0,0,3.591,6.956,11.533,11.533,0,0,0,3.029,2.933,6.491,6.491,0,0,0,3.211,1.008c.116-.922.334-2.569.624-4.334A13.747,13.747,0,0,1,194.161,320.369Z" transform="translate(-184.008 -312.052)" fill="#1b29af"/>
          </g>
          <g id="Group_213" data-name="Group 213">
            <path id="Path_141" data-name="Path 141" d="M184.713,308.385c1.8,3.75,4.488,7.342,8.357,8.871a15.22,15.22,0,0,0,7.025.784c2.87-.271,4.824-1.253,6.116-3.916a22.556,22.556,0,0,0,1.573-6.9c.457-3.428.464-6.82.63-10.262.132-2.756-.054-4.719-2.441-6.641A11.061,11.061,0,0,1,203,291.64a4.5,4.5,0,0,1-3.02.1,11.231,11.231,0,0,1-2.66-1.805,3.355,3.355,0,0,0-3-.767c-3.236,1.176-5.163,4.592-5.538,8.013-.245,2.238.179,6.654-3.142,6.931a10.291,10.291,0,0,0-1.256-2.715,2.275,2.275,0,0,0-2.073-1,2.4,2.4,0,0,0-1.622,1.3,4.3,4.3,0,0,0,.081,4.123A6.054,6.054,0,0,0,184.713,308.385Z" transform="translate(-180.206 -281.992)" fill="#ef947a"/>
            <g id="Group_211" data-name="Group 211" transform="translate(13.483 13.84)">
              <g id="Group_210" data-name="Group 210" transform="translate(1.588 14.159)">
                <path id="Path_142" data-name="Path 142" d="M197.8,313.5a16.084,16.084,0,0,0,7.821,1.342c-.778,1.168-1.857,2.551-3.238,2.795a3.456,3.456,0,0,1-2.974-1.119A8.746,8.746,0,0,1,197.8,313.5Z" transform="translate(-197.802 -313.502)" fill="#f5edec"/>
                <path id="Path_143" data-name="Path 143" d="M197.8,313.5c.135.361.279.741.441,1.118a13.613,13.613,0,0,0,5.615,1.431c.29.009.586.005.883-.014a13.288,13.288,0,0,0,.881-1.193A16.084,16.084,0,0,1,197.8,313.5Z" transform="translate(-197.802 -313.502)" fill="#ddd7d7"/>
              </g>
              <path id="Path_144" data-name="Path 144" d="M201.805,310.389a.277.277,0,0,1,.044-.551l2.807.038c-.176-2.439-.243-4.913-.2-7.355a.277.277,0,1,1,.554.009c-.042,2.527.033,5.086.224,7.606a.277.277,0,0,1-.28.3l-3.108-.041Z" transform="translate(-196.755 -297.728)" fill="#1b29af"/>
              <path id="Path_145" data-name="Path 145" d="M196.506,297.566a6.113,6.113,0,0,1,1.515-.436c.763-.164,2.509-.476,2.533.755a1.32,1.32,0,0,1-.615,1.066,3.015,3.015,0,0,1-1.2.421,5.416,5.416,0,0,1-1.711.056,1.566,1.566,0,0,1-.8-.314.98.98,0,0,1,.247-1.527Zm12.923,1.232a5.545,5.545,0,0,0-1.213-.773c-.625-.341-2.072-1.065-2.411.005a1.2,1.2,0,0,0,.263,1.092,2.725,2.725,0,0,0,.941.679,4.928,4.928,0,0,0,1.483.491,1.422,1.422,0,0,0,.785-.067.893.893,0,0,0,.178-1.4Z" transform="translate(-195.948 -296.97)" fill="#1b29af"/>
              <path id="Path_146" data-name="Path 146" d="M198.848,305.368a.959.959,0,1,1-.812-1.086A.959.959,0,0,1,198.848,305.368Zm8.847-.336a.959.959,0,1,0,.812,1.086A.959.959,0,0,0,207.695,305.033Z" transform="translate(-196.091 -298.018)" fill="#1b29af"/>
            </g>
            <g id="Group_212" data-name="Group 212" transform="translate(2.244)">
              <path id="Path_147" data-name="Path 147" d="M207.664,286.013c.782-1.567-.878-4.08-2.492-4.76a9.722,9.722,0,0,0-5.183-.182l-5.929.873a15.62,15.62,0,0,0-5.018,1.323,10.009,10.009,0,0,0-4.248,4.712,22.114,22.114,0,0,0-1.667,6.216,19.888,19.888,0,0,0-.226,5.006,2.359,2.359,0,0,1,1.861,1.014,10.291,10.291,0,0,1,1.256,2.715c3.321-.277,2.9-4.694,3.142-6.932.375-3.422,2.3-6.837,5.538-8.013a3.355,3.355,0,0,1,3,.767,11.233,11.233,0,0,0,2.66,1.805,4.5,4.5,0,0,0,3.02-.1,11.062,11.062,0,0,0,2.969-1.318c2.387,1.922,2.573,3.885,2.441,6.641-.036.741-.064,1.479-.091,2.217l.8-2.261c.182-.51.363-1.02.5-1.544A8.667,8.667,0,0,0,207.664,286.013Z" transform="translate(-182.825 -280.811)" fill="#1b29af"/>
            </g>
            <path id="Path_148" data-name="Path 148" d="M184.5,308.184a.219.219,0,0,1-.108-.05,3.677,3.677,0,0,0-2.236-.905.208.208,0,1,1-.005-.415,3.976,3.976,0,0,1,2.169.737,2.492,2.492,0,0,0-1.7-2.087.208.208,0,0,1,.116-.4,2.868,2.868,0,0,1,2,2.932.207.207,0,0,1-.129.175A.21.21,0,0,1,184.5,308.184Z" transform="translate(-180.455 -284.291)" fill="#1b29af"/>
          </g>
        </g>
        <path id="Path_149" data-name="Path 149" d="M166.517,345.182c2.462,6.7,3.366,13.024,4.015,20.016,1.023,11.011,7.766,14.376,17.3,17.728l-9.868,9.1-22.987-7.05Z" transform="translate(-124.349 -290.049)" fill="#e5b75c"/>
        <path id="Path_150" data-name="Path 150" d="M195.24,329.347l-2.46,6.9-16.337-11.986,4.179-3.611Z" transform="translate(-127.429 -286.529)" fill="#eaece9"/>
        <path id="Path_151" data-name="Path 151" d="M199.066,328.705l5.574,5.3,2.3-10.353L203.87,321.9Z" transform="translate(-130.676 -286.708)" fill="#eaece9"/>
        <path id="Path_152" data-name="Path 152" d="M216.713,342.237c-2.462,6.7-3.366,13.024-4.015,20.015-1.023,11.012-7.765,14.377-17.3,17.728l9.868,9.1,22.988-7.049Z" transform="translate(-130.149 -289.627)" fill="#e5b75c"/>
        <g id="Group_215" data-name="Group 215" transform="translate(35.928 72.76)">
          <rect id="Rectangle_124" data-name="Rectangle 124" width="56.749" height="40.103" rx="4.55" transform="translate(56.749 40.103) rotate(-180)" fill="#9ab4ef"/>
          <path id="Path_153" data-name="Path 153" d="M162.108,414.473h54.861a.944.944,0,0,0,.944-.943h0a.944.944,0,0,0-.944-.944H162.108a.943.943,0,0,0-.944.944h0A.943.943,0,0,0,162.108,414.473Z" transform="translate(-161.164 -372.483)" fill="#746980"/>
          <circle id="Ellipse_31" data-name="Ellipse 31" cx="0.402" cy="0.402" r="0.402" transform="translate(9.107 40.573)" fill="#9e8fae"/>
          <rect id="Rectangle_125" data-name="Rectangle 125" width="3.246" height="0.805" transform="translate(14.129 41.378) rotate(-180)" fill="#9e8fae"/>
        </g>
      </g>
    </g>
  </g>
</svg>
