<svg width="29" height="25" viewBox="0 0 29 25" fill="none" xmlns="http://www.w3.org/2000/svg">
<path d="M26.3289 22.7295H15.6357C15.3897 22.7295 15.1902 22.929 15.1902 23.175V24.5117C15.1902 24.7578 15.3897 24.9572 15.6357 24.9572H26.3289C26.575 24.9572 26.7744 24.7578 26.7744 24.5117V23.175C26.7744 22.929 26.575 22.7295 26.3289 22.7295Z" fill="#1164E9"/>
<path d="M28.5871 11.4876L24.8445 1.19994C24.687 0.766558 24.3702 0.409572 23.9585 0.201804C23.5469 -0.00596486 23.0715 -0.0488629 22.6293 0.0818601C22.1871 0.212583 21.8115 0.507078 21.579 0.905274C21.3465 1.30347 21.2746 1.77536 21.3781 2.2247L23.1826 10.053C23.8039 10.1371 24.3802 10.4237 24.8222 10.8683C25.3676 11.4146 25.6739 12.1549 25.6739 12.9268C25.6739 13.6986 25.3676 14.439 24.8222 14.9852L21.4806 18.3268C21.3971 18.4098 21.2842 18.4564 21.1665 18.4564C21.0488 18.4564 20.9359 18.4098 20.8524 18.3268C20.7694 18.2433 20.7228 18.1304 20.7228 18.0127C20.7228 17.895 20.7694 17.7821 20.8524 17.6986L24.194 14.357C24.5653 13.976 24.7716 13.4641 24.7682 12.9321C24.7648 12.4002 24.5519 11.891 24.1758 11.5148C23.7996 11.1386 23.2904 10.9258 22.7584 10.9224C22.2264 10.919 21.7145 11.1253 21.3336 11.4966L17.5152 15.3149C17.0595 15.7696 16.6981 16.31 16.4519 16.9049C16.2056 17.4997 16.0795 18.1374 16.0806 18.7813V21.8377H25.8826V20.8397C25.884 20.309 26.0735 19.7959 26.4173 19.3917L27.3574 18.2867C28.1448 17.3631 28.6734 16.2474 28.8894 15.0531C29.1054 13.8588 29.0011 12.6285 28.5871 11.4876Z" fill="#1164E9"/>
<path d="M13.8543 22.7295H3.16112C2.91505 22.7295 2.71558 22.929 2.71558 23.175V24.5117C2.71558 24.7578 2.91505 24.9572 3.16112 24.9572H13.8543C14.1003 24.9572 14.2998 24.7578 14.2998 24.5117V23.175C14.2998 22.929 14.1003 22.7295 13.8543 22.7295Z" fill="#1164E9"/>
<path d="M3.60668 20.8397V21.8377H13.4087V18.7813C13.4098 18.1374 13.2837 17.4997 13.0375 16.9049C12.7912 16.31 12.4299 15.7696 11.9741 15.3149L8.15572 11.4966C7.77476 11.1253 7.26286 10.919 6.73089 10.9224C6.19893 10.9258 5.68972 11.1386 5.31355 11.5148C4.93739 11.891 4.72455 12.4002 4.72114 12.9321C4.71772 13.4641 4.924 13.976 5.2953 14.357L8.63691 17.6986C8.7199 17.7821 8.76647 17.895 8.76647 18.0127C8.76647 18.1304 8.7199 18.2433 8.63691 18.3268C8.55343 18.4098 8.44051 18.4564 8.3228 18.4564C8.20509 18.4564 8.09217 18.4098 8.00869 18.3268L4.66708 14.9852C4.12173 14.439 3.81543 13.6986 3.81543 12.9268C3.81543 12.1549 4.12173 11.4146 4.66708 10.8683C5.10912 10.4237 5.68538 10.1371 6.3067 10.053L8.11117 2.2247C8.21466 1.77536 8.14284 1.30347 7.91034 0.905274C7.67784 0.507078 7.30218 0.212583 6.86 0.0818601C6.41781 -0.0488629 5.94241 -0.00596486 5.53077 0.201804C5.11913 0.409572 4.80226 0.766558 4.6448 1.19994L0.902199 11.4876C0.488195 12.6285 0.383887 13.8588 0.599896 15.0531C0.815904 16.2474 1.34451 17.3631 2.13191 18.2867L3.07202 19.3917C3.41585 19.7959 3.60528 20.309 3.60668 20.8397Z" fill="#1164E9"/>
<path d="M12.9624 4.90867C13.2085 4.90867 13.4079 4.7092 13.4079 4.46313C13.4079 4.21706 13.2085 4.01758 12.9624 4.01758C12.7163 4.01758 12.5168 4.21706 12.5168 4.46313C12.5168 4.7092 12.7163 4.90867 12.9624 4.90867Z" fill="#1164E9"/>
<path d="M16.5261 8.47264C16.7722 8.47264 16.9717 8.27316 16.9717 8.02709C16.9717 7.78102 16.7722 7.58154 16.5261 7.58154C16.28 7.58154 16.0806 7.78102 16.0806 8.02709C16.0806 8.27316 16.28 8.47264 16.5261 8.47264Z" fill="#1164E9"/>
<path d="M20.9839 6.24367C20.985 5.11093 20.6776 3.99928 20.0947 3.02801C19.5119 2.05674 18.6755 1.26252 17.6755 0.730584C16.6754 0.198644 15.5494 -0.0509346 14.4182 0.0086322C13.287 0.068199 12.1934 0.434662 11.2548 1.06869C10.3161 1.70273 9.56781 2.58039 9.09018 3.60751C8.61255 4.63462 8.42363 5.77241 8.54368 6.89876C8.66373 8.02512 9.08822 9.09752 9.77161 10.0009C10.455 10.9043 11.3715 11.6045 12.4227 12.0264L14.3755 14.9564C14.4162 15.0174 14.4713 15.0674 14.536 15.102C14.6007 15.1366 14.6729 15.1547 14.7462 15.1547C14.8196 15.1547 14.8918 15.1366 14.9564 15.102C15.0211 15.0674 15.0762 15.0174 15.1169 14.9564L17.0698 12.0264C18.2224 11.5597 19.21 10.7606 19.9071 9.73085C20.6041 8.70106 20.9789 7.48716 20.9839 6.24367ZM11.6274 4.46147C11.6274 4.19711 11.7058 3.93868 11.8526 3.71887C11.9995 3.49906 12.2083 3.32774 12.4525 3.22658C12.6968 3.12541 12.9655 3.09894 13.2248 3.15051C13.4841 3.20209 13.7222 3.32939 13.9092 3.51632C14.0961 3.70326 14.2234 3.94142 14.275 4.20071C14.3266 4.45999 14.3001 4.72875 14.1989 4.97299C14.0978 5.21722 13.9264 5.42598 13.7066 5.57285C13.4868 5.71973 13.2284 5.79812 12.964 5.79812C12.6095 5.79812 12.2695 5.65729 12.0189 5.40662C11.7682 5.15595 11.6274 4.81597 11.6274 4.46147ZM12.8335 8.78641C12.7494 8.86757 12.6369 8.91248 12.5201 8.91146C12.4033 8.91045 12.2915 8.86359 12.2089 8.78098C12.1263 8.69837 12.0794 8.58662 12.0784 8.4698C12.0774 8.35298 12.1223 8.24043 12.2035 8.1564L16.659 3.70092C16.743 3.61976 16.8555 3.57485 16.9724 3.57587C17.0892 3.57688 17.2009 3.62374 17.2835 3.70635C17.3661 3.78896 17.413 3.90071 17.414 4.01753C17.415 4.13435 17.3701 4.2469 17.289 4.33093L12.8335 8.78641ZM15.1918 8.02586C15.1918 7.76149 15.2702 7.50307 15.417 7.28326C15.5639 7.06345 15.7727 6.89213 16.0169 6.79096C16.2611 6.68979 16.5299 6.66332 16.7892 6.7149C17.0485 6.76647 17.2866 6.89377 17.4736 7.08071C17.6605 7.26764 17.7878 7.50581 17.8394 7.76509C17.8909 8.02437 17.8645 8.29313 17.7633 8.53737C17.6621 8.78161 17.4908 8.99036 17.271 9.13724C17.0512 9.28411 16.7928 9.3625 16.5284 9.3625C16.1739 9.3625 15.8339 9.22168 15.5833 8.97101C15.3326 8.72034 15.1918 8.38036 15.1918 8.02586Z" fill="#1164E9"/>
</svg>
