<svg width="72" height="87" viewBox="0 0 72 87" fill="none" xmlns="http://www.w3.org/2000/svg">
<g clip-path="url(#clip0_94_4697)">
<path d="M71.5488 46.6268C71.5488 58.6594 71.5488 70.6897 71.5488 82.7222C71.5488 84.8869 70.5087 86.3542 68.6722 86.7693C68.2957 86.8538 67.8951 86.8611 67.5066 86.8611C48.7819 86.8658 30.0573 86.8658 11.3327 86.8611C8.88085 86.8611 7.39911 85.3697 7.36773 82.9321C7.35808 82.1551 7.70077 81.1512 7.22777 80.6661C6.75234 80.1786 5.7436 80.5527 4.97135 80.5141C4.55144 80.4924 4.1267 80.5213 3.70438 80.5069C1.66517 80.4296 0.197888 79.0276 0.0313726 76.9907C0.00723982 76.6915 0.0168929 76.3874 0.0168929 76.0857C0.0144797 55.1868 0.0193062 34.2902 0 13.3937C0 12.4622 0.243741 11.7309 0.844646 11.0142C3.673 7.64285 6.46758 4.24254 9.2525 0.834994C9.73515 0.243741 10.2781 0 11.0383 0C27.4703 0.0144797 43.9048 0.0096531 60.3367 0.0120664C62.6607 0.0120664 64.169 1.53485 64.1907 3.86365C64.1956 4.49594 64.2196 5.13062 64.1834 5.76291C64.1545 6.24556 64.3307 6.39035 64.7989 6.37104C65.6412 6.33967 66.4882 6.3614 67.3303 6.36381C70.1057 6.36864 71.5439 7.81902 71.5439 10.6208C71.5439 20.1194 71.5439 29.6181 71.5439 39.1167C71.5439 41.6194 71.5439 44.1219 71.5439 46.6245L71.5488 46.6268ZM61.5481 40.292C61.5481 28.2909 61.5481 16.2896 61.5481 4.28839C61.5481 2.90317 61.3479 2.66184 60.1146 2.66184C44.4067 2.65702 28.6987 2.66426 12.9907 2.64253C12.2691 2.64253 12.1508 2.90076 12.1605 3.53304C12.1943 5.67361 12.1967 7.81419 12.1653 9.95476C12.1291 12.327 10.657 13.775 8.30167 13.7943C6.76441 13.8064 5.22475 13.8474 3.6899 13.7774C2.85491 13.7388 2.65702 13.9921 2.65702 14.8127C2.68114 35.2556 2.67633 55.7009 2.67633 76.1436C2.67633 77.6665 2.84767 77.8306 4.40664 77.8306C22.8586 77.8306 41.3104 77.8306 59.7623 77.8306C61.4227 77.8306 61.5506 77.7027 61.5506 76.0206C61.5506 64.1111 61.5506 52.1992 61.5506 40.2896L61.5481 40.292ZM68.8894 46.6245C68.8894 34.7754 68.8894 22.9237 68.8894 11.0745C68.8894 10.8042 68.887 10.5315 68.8894 10.2613C68.899 9.44798 68.5226 9.02566 67.6875 9.03771C66.8743 9.04978 66.0514 9.10529 65.2478 9.02083C64.3597 8.9267 64.1739 9.23319 64.1739 10.0996C64.2004 32.1111 64.1956 54.1225 64.1907 76.134C64.1907 76.6432 64.2028 77.1693 64.0893 77.6592C63.667 79.5006 62.2118 80.5069 60.0254 80.5069C44.0471 80.5069 28.0663 80.5069 12.0881 80.5069C10.7029 80.5069 10.0127 81.1883 10.0175 82.5509C10.0223 84.035 10.1937 84.2113 11.6923 84.2113C30.2046 84.2113 48.7168 84.2113 67.229 84.2113C68.6963 84.2113 68.8917 84.0086 68.8917 82.534C68.8917 70.5642 68.8917 58.5919 68.8917 46.6221L68.8894 46.6245ZM9.54209 4.66004C7.76833 6.80785 6.15144 8.76502 4.53213 10.7222C4.28839 11.0166 4.28839 11.2121 4.73244 11.2121C5.9632 11.2121 7.19639 11.2434 8.42234 11.1855C9.1439 11.1517 9.54933 10.7149 9.5445 9.93786C9.53244 8.26064 9.53968 6.581 9.53968 4.65762L9.54209 4.66004Z" fill="#1164E9"/>
<path d="M61.5478 40.2916C61.5478 52.2011 61.5478 64.113 61.5478 76.0226C61.5478 77.707 61.4224 77.8326 59.7597 77.8326C41.3077 77.8326 22.8558 77.8326 4.40393 77.8326C2.84495 77.8326 2.6736 77.6661 2.6736 76.1456C2.6736 55.7028 2.67843 35.2576 2.6543 14.8147C2.6543 13.9917 2.85218 13.7408 3.68717 13.7794C5.22202 13.8494 6.7617 13.8084 8.29895 13.7963C10.6519 13.777 12.1264 12.3314 12.1626 9.95677C12.194 7.81619 12.1916 5.67561 12.1578 3.53504C12.1481 2.90036 12.2664 2.64213 12.9879 2.64455C28.6959 2.66626 44.4039 2.65902 60.112 2.66386C61.3451 2.66386 61.5455 2.90276 61.5455 4.29039C61.5455 16.2916 61.5455 28.2928 61.5455 40.2941L61.5478 40.2916ZM37.2848 39.3166C35.7379 39.3311 34.7895 40.0504 34.1716 41.2231C33.7687 41.9882 33.2377 42.5046 32.3714 42.7145C30.5687 43.1489 29.7168 44.387 29.6613 46.1849C29.6396 46.9402 29.3692 47.5122 28.7998 47.9828C27.3084 49.2135 26.9318 50.7291 27.7041 52.5053C28.0226 53.2365 28.0613 53.9435 27.7282 54.6819C26.9078 56.492 27.3084 58.0292 28.8262 59.2793C29.4054 59.7572 29.63 60.346 29.6662 61.0892C29.7241 62.2717 30.0522 63.3867 31.1744 63.9997C31.7198 64.2989 31.6378 64.5426 31.3892 64.9698C30.1946 67.0259 29.0242 69.0965 27.8465 71.1599C27.5521 71.6738 27.5087 72.2 27.8755 72.6851C28.2327 73.1605 28.7176 73.3221 29.3137 73.1798C30.1922 72.9723 31.0827 72.8154 31.9586 72.603C32.451 72.4823 32.7358 72.5668 32.8806 73.1122C33.0809 73.8651 33.3753 74.5963 33.6094 75.342C33.817 76.0034 34.0945 76.6114 34.8788 76.6959C35.6655 76.7804 36.054 76.2518 36.3991 75.6413C37.6106 73.4911 38.8582 71.3602 40.0552 69.2027C40.3351 68.6983 40.5354 68.4835 41.134 68.8166C42.0583 69.3354 43.0671 69.3305 43.9865 68.7996C44.5585 68.469 44.749 68.6983 45.0072 69.1568C46.2259 71.336 47.4761 73.5007 48.7069 75.6751C49.035 76.2543 49.4139 76.761 50.1572 76.7008C50.9391 76.6356 51.2529 76.0564 51.4651 75.388C51.7114 74.6133 52.013 73.8555 52.2278 73.0736C52.3677 72.5644 52.6357 72.4872 53.0893 72.5957C53.8495 72.7792 54.6194 72.9263 55.3796 73.1049C56.0504 73.2618 56.702 73.351 57.1943 72.7188C57.7204 72.0431 57.4091 71.4301 57.0471 70.8027C55.9177 68.8479 54.8053 66.8835 53.6951 64.9191C53.5502 64.6658 53.2149 64.3857 53.7241 64.1228C54.8583 63.534 55.3362 62.5252 55.382 61.3112C55.4181 60.3388 55.8092 59.6148 56.5404 58.9849C57.7783 57.9231 58.0993 56.5667 57.4766 55.0681C57.0543 54.0497 57.0881 53.1109 57.496 52.1047C58.0944 50.6278 57.7614 49.2956 56.5645 48.2627C55.8043 47.6063 55.4133 46.8533 55.3723 45.8567C55.3 44.1577 54.3491 43.1345 52.7466 42.7217C51.8923 42.5022 51.3421 42.0148 50.9342 41.2448C50.121 39.7076 48.8372 39.0705 47.1021 39.3988C46.3345 39.5435 45.6226 39.4711 44.9663 38.9692C43.376 37.7577 41.7541 37.7433 40.1518 38.9522C39.5315 39.4205 38.8559 39.5435 38.1102 39.418C37.7843 39.3626 37.4537 39.3336 37.2872 39.3119L37.2848 39.3166ZM32.7986 25.6864C39.7584 25.6864 46.7159 25.6864 53.6758 25.6864C53.9172 25.6864 54.1584 25.7009 54.3974 25.6817C55.2106 25.6117 55.7198 25.1025 55.727 24.3688C55.7343 23.6328 55.2347 23.1092 54.4238 23.0295C54.156 23.003 53.881 23.0198 53.6106 23.0198C39.6933 23.0198 25.7759 23.0198 11.8585 23.0198C11.6486 23.0198 11.4362 23.0126 11.2263 23.0198C10.314 23.0657 9.72279 23.6111 9.74208 24.3809C9.76139 25.1193 10.3333 25.6334 11.1973 25.6792C11.4386 25.6913 11.68 25.6817 11.9213 25.6817C18.8812 25.6817 25.8386 25.6817 32.7986 25.6817V25.6864ZM32.1662 36.6042C39.341 36.6042 46.5131 36.6042 53.6879 36.6042C54.0185 36.6042 54.3587 36.6283 54.6797 36.5704C55.3675 36.4449 55.7198 35.9911 55.7174 35.2986C55.7174 34.5987 55.3385 34.1692 54.6603 34.0389C54.3684 33.9833 54.0594 34.0099 53.7578 34.0099C39.3193 34.0099 24.883 34.0099 10.4443 34.0099C10.1427 34.0099 9.83379 33.9833 9.54179 34.0412C8.86366 34.1788 8.48236 34.6398 8.4896 35.3178C8.49684 35.9911 8.8709 36.4545 9.55869 36.5727C9.88206 36.6283 10.2199 36.6042 10.5505 36.6042C17.7541 36.6042 24.9579 36.6042 32.1615 36.6042H32.1662ZM43.5546 14.6988C45.6033 14.6988 47.6522 14.6988 49.7011 14.6988C51.2673 14.6988 52.836 14.7231 54.4021 14.6867C55.4592 14.6603 56.0457 13.6756 55.5823 12.79C55.2492 12.1529 54.6676 12.0998 54.0377 12.0998C49.0954 12.107 44.1553 12.1046 39.213 12.1046C37.1327 12.1046 35.055 12.1142 32.9747 12.0998C32.1542 12.0949 31.6425 12.4642 31.5147 13.2678C31.3819 14.0955 32.0384 14.694 33.0664 14.6965C36.5609 14.7061 40.0577 14.6988 43.552 14.7012L43.5546 14.6988ZM17.1315 69.4923C19.4796 69.4923 21.8278 69.4971 24.1758 69.4923C25.2474 69.4899 25.8507 68.9903 25.8362 68.148C25.8217 67.3348 25.2498 66.8522 24.2194 66.8497C19.5231 66.8425 14.8269 66.8425 10.1306 66.8497C9.06155 66.8497 8.44858 67.3638 8.46547 68.1988C8.47994 69.0265 9.08809 69.4923 10.1789 69.4946C12.4956 69.4995 14.8148 69.4946 17.1315 69.4946V69.4923ZM17.1485 47.5869C19.4386 47.5869 21.7288 47.5869 24.0191 47.5869C25.1582 47.5869 25.8073 47.0922 25.7976 46.2452C25.7879 45.4343 25.1509 44.9275 24.077 44.9275C19.4362 44.9203 14.7956 44.9203 10.1523 44.9275C9.08568 44.9275 8.46064 45.4512 8.4727 46.279C8.48477 47.102 9.1074 47.5846 10.1861 47.5869C12.5077 47.5918 14.8269 47.5869 17.1485 47.5869ZM16.2435 58.5239C18.3527 58.5239 20.4618 58.5408 22.5686 58.5166C23.4712 58.507 24.0046 57.9955 24.0191 57.24C24.0336 56.4606 23.4495 55.9151 22.5252 55.9128C18.3382 55.9031 14.1512 55.9079 9.9617 55.9079C9.66004 55.9079 9.36079 55.92 9.09774 56.1058C8.60543 56.4485 8.35445 56.9143 8.50408 57.5031C8.68266 58.215 9.20394 58.5215 9.91585 58.5215C12.025 58.5215 14.1342 58.5215 16.2435 58.5215V58.5239Z" fill="#1164E9"/>
<mask id="mask0_94_4697" style="mask-type:luminance" maskUnits="userSpaceOnUse" x="0" y="0" width="64" height="81">
<path d="M63.7632 0.554688H0.566406V80.0379H63.7632V0.554688Z" fill="white"/>
<path d="M61.5478 40.2916C61.5478 52.2011 61.5478 64.113 61.5478 76.0226C61.5478 77.707 61.4224 77.8326 59.7597 77.8326C41.3077 77.8326 22.8558 77.8326 4.40393 77.8326C2.84495 77.8326 2.6736 77.6661 2.6736 76.1456C2.6736 55.7028 2.67843 35.2576 2.6543 14.8147C2.6543 13.9917 2.85218 13.7408 3.68717 13.7794C5.22202 13.8494 6.7617 13.8084 8.29895 13.7963C10.6519 13.777 12.1264 12.3314 12.1626 9.95677C12.194 7.81619 12.1916 5.67561 12.1578 3.53504C12.1481 2.90036 12.2664 2.64213 12.9879 2.64455C28.6959 2.66626 44.4039 2.65902 60.112 2.66386C61.3451 2.66386 61.5455 2.90276 61.5455 4.29039C61.5455 16.2916 61.5455 28.2928 61.5455 40.2941L61.5478 40.2916ZM37.2848 39.3166C35.7379 39.3311 34.7895 40.0504 34.1716 41.2231C33.7687 41.9882 33.2377 42.5046 32.3714 42.7145C30.5687 43.1489 29.7168 44.387 29.6613 46.1849C29.6396 46.9402 29.3692 47.5122 28.7998 47.9828C27.3084 49.2135 26.9318 50.7291 27.7041 52.5053C28.0226 53.2365 28.0613 53.9435 27.7282 54.6819C26.9078 56.492 27.3084 58.0292 28.8262 59.2793C29.4054 59.7572 29.63 60.346 29.6662 61.0892C29.7241 62.2717 30.0522 63.3867 31.1744 63.9997C31.7198 64.2989 31.6378 64.5426 31.3892 64.9698C30.1946 67.0259 29.0242 69.0965 27.8465 71.1599C27.5521 71.6738 27.5087 72.2 27.8755 72.6851C28.2327 73.1605 28.7176 73.3221 29.3137 73.1798C30.1922 72.9723 31.0827 72.8154 31.9586 72.603C32.451 72.4823 32.7358 72.5668 32.8806 73.1122C33.0809 73.8651 33.3753 74.5963 33.6094 75.342C33.817 76.0034 34.0945 76.6114 34.8788 76.6959C35.6655 76.7804 36.054 76.2518 36.3991 75.6413C37.6106 73.4911 38.8582 71.3602 40.0552 69.2027C40.3351 68.6983 40.5354 68.4835 41.134 68.8166C42.0583 69.3354 43.0671 69.3305 43.9865 68.7996C44.5585 68.469 44.749 68.6983 45.0072 69.1568C46.2259 71.336 47.4761 73.5007 48.7069 75.6751C49.035 76.2543 49.4139 76.761 50.1572 76.7008C50.9391 76.6356 51.2529 76.0564 51.4651 75.388C51.7114 74.6133 52.013 73.8555 52.2278 73.0736C52.3677 72.5644 52.6357 72.4872 53.0893 72.5957C53.8495 72.7792 54.6194 72.9263 55.3796 73.1049C56.0504 73.2618 56.702 73.351 57.1943 72.7188C57.7204 72.0431 57.4091 71.4301 57.0471 70.8027C55.9177 68.8479 54.8053 66.8835 53.6951 64.9191C53.5502 64.6658 53.2149 64.3857 53.7241 64.1228C54.8583 63.534 55.3362 62.5252 55.382 61.3112C55.4181 60.3388 55.8092 59.6148 56.5404 58.9849C57.7783 57.9231 58.0993 56.5667 57.4766 55.0681C57.0543 54.0497 57.0881 53.1109 57.496 52.1047C58.0944 50.6278 57.7614 49.2956 56.5645 48.2627C55.8043 47.6063 55.4133 46.8533 55.3723 45.8567C55.3 44.1577 54.3491 43.1345 52.7466 42.7217C51.8923 42.5022 51.3421 42.0148 50.9342 41.2448C50.121 39.7076 48.8372 39.0705 47.1021 39.3988C46.3345 39.5435 45.6226 39.4711 44.9663 38.9692C43.376 37.7577 41.7541 37.7433 40.1518 38.9522C39.5315 39.4205 38.8559 39.5435 38.1102 39.418C37.7843 39.3626 37.4537 39.3336 37.2872 39.3119L37.2848 39.3166ZM32.7986 25.6864C39.7584 25.6864 46.7159 25.6864 53.6758 25.6864C53.9172 25.6864 54.1584 25.7009 54.3974 25.6817C55.2106 25.6117 55.7198 25.1025 55.727 24.3688C55.7343 23.6328 55.2347 23.1092 54.4238 23.0295C54.156 23.003 53.881 23.0198 53.6106 23.0198C39.6933 23.0198 25.7759 23.0198 11.8585 23.0198C11.6486 23.0198 11.4362 23.0126 11.2263 23.0198C10.314 23.0657 9.72279 23.6111 9.74208 24.3809C9.76139 25.1193 10.3333 25.6334 11.1973 25.6792C11.4386 25.6913 11.68 25.6817 11.9213 25.6817C18.8812 25.6817 25.8386 25.6817 32.7986 25.6817V25.6864ZM32.1662 36.6042C39.341 36.6042 46.5131 36.6042 53.6879 36.6042C54.0185 36.6042 54.3587 36.6283 54.6797 36.5704C55.3675 36.4449 55.7198 35.9911 55.7174 35.2986C55.7174 34.5987 55.3385 34.1692 54.6603 34.0389C54.3684 33.9833 54.0594 34.0099 53.7578 34.0099C39.3193 34.0099 24.883 34.0099 10.4443 34.0099C10.1427 34.0099 9.83379 33.9833 9.54179 34.0412C8.86366 34.1788 8.48236 34.6398 8.4896 35.3178C8.49684 35.9911 8.8709 36.4545 9.55869 36.5727C9.88206 36.6283 10.2199 36.6042 10.5505 36.6042C17.7541 36.6042 24.9579 36.6042 32.1615 36.6042H32.1662ZM43.5546 14.6988C45.6033 14.6988 47.6522 14.6988 49.7011 14.6988C51.2673 14.6988 52.836 14.7231 54.4021 14.6867C55.4592 14.6603 56.0457 13.6756 55.5823 12.79C55.2492 12.1529 54.6676 12.0998 54.0377 12.0998C49.0954 12.107 44.1553 12.1046 39.213 12.1046C37.1327 12.1046 35.055 12.1142 32.9747 12.0998C32.1542 12.0949 31.6425 12.4642 31.5147 13.2678C31.3819 14.0955 32.0384 14.694 33.0664 14.6965C36.5609 14.7061 40.0577 14.6988 43.552 14.7012L43.5546 14.6988ZM17.1315 69.4923C19.4796 69.4923 21.8278 69.4971 24.1758 69.4923C25.2474 69.4899 25.8507 68.9903 25.8362 68.148C25.8217 67.3348 25.2498 66.8522 24.2194 66.8497C19.5231 66.8425 14.8269 66.8425 10.1306 66.8497C9.06155 66.8497 8.44858 67.3638 8.46547 68.1988C8.47994 69.0265 9.08809 69.4923 10.1789 69.4946C12.4956 69.4995 14.8148 69.4946 17.1315 69.4946V69.4923ZM17.1485 47.5869C19.4386 47.5869 21.7288 47.5869 24.0191 47.5869C25.1582 47.5869 25.8073 47.0922 25.7976 46.2452C25.7879 45.4343 25.1509 44.9275 24.077 44.9275C19.4362 44.9203 14.7956 44.9203 10.1523 44.9275C9.08568 44.9275 8.46064 45.4512 8.4727 46.279C8.48477 47.102 9.1074 47.5846 10.1861 47.5869C12.5077 47.5918 14.8269 47.5869 17.1485 47.5869ZM16.2435 58.5239C18.3527 58.5239 20.4618 58.5408 22.5686 58.5166C23.4712 58.507 24.0046 57.9955 24.0191 57.24C24.0336 56.4606 23.4495 55.9151 22.5252 55.9128C18.3382 55.9031 14.1512 55.9079 9.9617 55.9079C9.66004 55.9079 9.36079 55.92 9.09774 56.1058C8.60543 56.4485 8.35445 56.9143 8.50408 57.5031C8.68266 58.215 9.20394 58.5215 9.91585 58.5215C12.025 58.5215 14.1342 58.5215 16.2435 58.5215V58.5239Z" fill="black"/>
</mask>
<g mask="url(#mask0_94_4697)">
<path d="M61.5478 40.2916C61.5478 52.2011 61.5478 64.113 61.5478 76.0226C61.5478 77.707 61.4224 77.8326 59.7597 77.8326C41.3077 77.8326 22.8558 77.8326 4.40393 77.8326C2.84495 77.8326 2.6736 77.6661 2.6736 76.1456C2.6736 55.7028 2.67843 35.2576 2.6543 14.8147C2.6543 13.9917 2.85218 13.7408 3.68717 13.7794C5.22202 13.8494 6.7617 13.8084 8.29895 13.7963C10.6519 13.777 12.1264 12.3314 12.1626 9.95677C12.194 7.81619 12.1916 5.67561 12.1578 3.53504C12.1481 2.90036 12.2664 2.64213 12.9879 2.64455C28.6959 2.66626 44.4039 2.65902 60.112 2.66386C61.3451 2.66386 61.5455 2.90276 61.5455 4.29039C61.5455 16.2916 61.5455 28.2928 61.5455 40.2941L61.5478 40.2916ZM37.2848 39.3166C35.7379 39.3311 34.7895 40.0504 34.1716 41.2231C33.7687 41.9882 33.2377 42.5046 32.3714 42.7145C30.5687 43.1489 29.7168 44.387 29.6613 46.1849C29.6396 46.9402 29.3692 47.5122 28.7998 47.9828C27.3084 49.2135 26.9318 50.7291 27.7041 52.5053C28.0226 53.2365 28.0613 53.9435 27.7282 54.682C26.9078 56.492 27.3084 58.0292 28.8262 59.2793C29.4054 59.7572 29.63 60.346 29.6662 61.0892C29.7241 62.2717 30.0522 63.3867 31.1744 63.9997C31.7198 64.2989 31.6378 64.5426 31.3892 64.9698C30.1946 67.0259 29.0242 69.0965 27.8465 71.1599C27.5521 71.6738 27.5087 72.2 27.8755 72.6851C28.2327 73.1605 28.7176 73.3221 29.3137 73.1798C30.1922 72.9723 31.0827 72.8154 31.9586 72.603C32.451 72.4823 32.7358 72.5668 32.8806 73.1122C33.0809 73.8651 33.3753 74.5963 33.6094 75.342C33.817 76.0034 34.0945 76.6114 34.8788 76.6959C35.6655 76.7804 36.054 76.2518 36.3991 75.6413C37.6106 73.4911 38.8582 71.3602 40.0552 69.2027C40.3351 68.6983 40.5354 68.4835 41.134 68.8166C42.0583 69.3354 43.0671 69.3305 43.9865 68.7996C44.5585 68.469 44.749 68.6983 45.0072 69.1568C46.2259 71.336 47.4761 73.5007 48.7069 75.6751C49.035 76.2543 49.4139 76.761 50.1572 76.7008C50.9391 76.6356 51.2529 76.0564 51.4651 75.388C51.7114 74.6133 52.013 73.8555 52.2278 73.0736C52.3677 72.5644 52.6357 72.4872 53.0893 72.5957C53.8495 72.7792 54.6194 72.9263 55.3796 73.1049C56.0504 73.2618 56.702 73.351 57.1943 72.7188C57.7204 72.0431 57.4091 71.4301 57.0471 70.8027C55.9177 68.8479 54.8053 66.8835 53.6951 64.9191C53.5502 64.6658 53.2149 64.3857 53.7241 64.1228C54.8583 63.534 55.3362 62.5252 55.382 61.3112C55.4181 60.3388 55.8092 59.6148 56.5404 58.9849C57.7783 57.9231 58.0993 56.5667 57.4766 55.0681C57.0543 54.0497 57.0881 53.1109 57.496 52.1047C58.0944 50.6277 57.7614 49.2956 56.5645 48.2627C55.8043 47.6063 55.4133 46.8533 55.3723 45.8567C55.3 44.1577 54.3491 43.1345 52.7466 42.7217C51.8923 42.5022 51.3421 42.0147 50.9342 41.2448C50.121 39.7076 48.8372 39.0705 47.1021 39.3988C46.3345 39.5435 45.6226 39.4711 44.9663 38.9692C43.376 37.7577 41.7541 37.7433 40.1518 38.9522C39.5315 39.4205 38.8559 39.5435 38.1102 39.418C37.7843 39.3626 37.4537 39.3336 37.2872 39.3119L37.2848 39.3166ZM32.7986 25.6864C39.7584 25.6864 46.7159 25.6864 53.6758 25.6864C53.9172 25.6864 54.1584 25.7009 54.3974 25.6817C55.2106 25.6117 55.7198 25.1025 55.727 24.3688C55.7343 23.6328 55.2347 23.1092 54.4238 23.0295C54.156 23.003 53.881 23.0198 53.6106 23.0198C39.6933 23.0198 25.7759 23.0198 11.8585 23.0198C11.6486 23.0198 11.4362 23.0126 11.2263 23.0198C10.314 23.0657 9.72279 23.6111 9.74208 24.3809C9.76139 25.1193 10.3333 25.6334 11.1973 25.6792C11.4386 25.6913 11.68 25.6817 11.9213 25.6817C18.8812 25.6817 25.8386 25.6817 32.7986 25.6817V25.6864ZM32.1662 36.6042C39.341 36.6042 46.5131 36.6042 53.6879 36.6042C54.0185 36.6042 54.3587 36.6283 54.6797 36.5704C55.3675 36.4449 55.7198 35.9911 55.7174 35.2986C55.7174 34.5987 55.3385 34.1692 54.6603 34.0389C54.3684 33.9833 54.0594 34.0099 53.7578 34.0099C39.3193 34.0099 24.883 34.0099 10.4443 34.0099C10.1427 34.0099 9.83379 33.9833 9.54179 34.0412C8.86366 34.1788 8.48236 34.6398 8.4896 35.3178C8.49684 35.9911 8.8709 36.4545 9.55869 36.5727C9.88206 36.6283 10.2199 36.6042 10.5505 36.6042C17.7541 36.6042 24.9579 36.6042 32.1615 36.6042H32.1662ZM43.5546 14.6988C45.6033 14.6988 47.6522 14.6988 49.7011 14.6988C51.2673 14.6988 52.836 14.7231 54.4021 14.6867C55.4592 14.6603 56.0457 13.6756 55.5823 12.79C55.2492 12.1529 54.6676 12.0998 54.0377 12.0998C49.0954 12.107 44.1553 12.1046 39.213 12.1046C37.1327 12.1046 35.055 12.1142 32.9747 12.0998C32.1542 12.0949 31.6425 12.4642 31.5147 13.2678C31.3819 14.0955 32.0384 14.694 33.0664 14.6965C36.5609 14.7061 40.0577 14.6988 43.552 14.7012L43.5546 14.6988ZM17.1315 69.4923C19.4796 69.4923 21.8278 69.4971 24.1758 69.4923C25.2474 69.4899 25.8507 68.9903 25.8362 68.148C25.8217 67.3348 25.2498 66.8522 24.2194 66.8497C19.5231 66.8425 14.8269 66.8425 10.1306 66.8497C9.06155 66.8497 8.44858 67.3638 8.46547 68.1988C8.47994 69.0265 9.08809 69.4923 10.1789 69.4946C12.4956 69.4995 14.8148 69.4946 17.1315 69.4946V69.4923ZM17.1485 47.5869C19.4386 47.5869 21.7288 47.5869 24.0191 47.5869C25.1582 47.5869 25.8073 47.0922 25.7976 46.2452C25.7879 45.4343 25.1509 44.9275 24.077 44.9275C19.4362 44.9203 14.7956 44.9203 10.1523 44.9275C9.08568 44.9275 8.46064 45.4512 8.4727 46.279C8.48477 47.1019 9.1074 47.5846 10.1861 47.5869C12.5077 47.5918 14.8269 47.5869 17.1485 47.5869ZM16.2435 58.5239C18.3527 58.5239 20.4618 58.5408 22.5686 58.5166C23.4712 58.507 24.0046 57.9955 24.0191 57.24C24.0336 56.4606 23.4495 55.9151 22.5252 55.9128C18.3382 55.9031 14.1512 55.9079 9.9617 55.9079C9.66004 55.9079 9.36079 55.92 9.09774 56.1058C8.60543 56.4485 8.35445 56.9143 8.50408 57.5031C8.68266 58.215 9.20394 58.5215 9.91585 58.5215C12.025 58.5215 14.1342 58.5215 16.2435 58.5215V58.5239Z" stroke="#1164E9" stroke-width="4.176"/>
</g>
<path d="M68.89 46.6248C68.89 58.5946 68.89 70.5668 68.89 82.5367C68.89 84.0111 68.692 84.214 67.2272 84.214C48.715 84.214 30.2027 84.214 11.6905 84.214C10.1918 84.214 10.0205 84.0401 10.0157 82.5536C10.0108 81.191 10.701 80.5096 12.0862 80.5096C28.0645 80.5096 44.0453 80.5096 60.0236 80.5096C62.21 80.5096 63.6652 79.5057 64.0876 77.6618C64.2009 77.172 64.1889 76.6459 64.1889 76.1367C64.1936 54.1252 64.1985 32.1138 64.1719 10.1022C64.1719 9.23588 64.3577 8.93179 65.2458 9.0235C66.0519 9.10797 66.8724 9.05004 67.6857 9.0404C68.5232 9.02833 68.8972 9.45065 68.8875 10.2639C68.8851 10.5342 68.8875 10.8069 68.8875 11.0772C68.8875 22.9264 68.8875 34.7779 68.8875 46.6272L68.89 46.6248Z" fill="#FEFEFE"/>
<path d="M9.54219 4.66016C9.54219 6.58354 9.53253 8.26317 9.547 9.9404C9.55183 10.7151 9.1464 11.1543 8.42483 11.1881C7.19647 11.246 5.96571 11.2146 4.73494 11.2146C4.2933 11.2146 4.2909 11.0191 4.53463 10.7247C6.15395 8.76754 7.76842 6.81038 9.5446 4.66256L9.54219 4.66016Z" fill="#FDFDFE"/>
<path d="M37.2851 39.3183C37.4516 39.34 37.7822 39.369 38.1081 39.4245C38.8561 39.5501 39.5294 39.427 40.1497 38.9587C41.752 37.7498 43.3738 37.7617 44.9641 38.9757C45.6205 39.4777 46.3349 39.5501 47.0998 39.4053C48.8351 39.077 50.1213 39.7142 50.9321 41.2514C51.34 42.0213 51.8879 42.5087 52.7445 42.7283C54.3493 43.141 55.3002 44.1642 55.3702 45.8632C55.4112 46.8599 55.8022 47.6128 56.5624 48.2691C57.7593 49.3021 58.0923 50.6318 57.4939 52.1112C57.0884 53.1151 57.0522 54.0562 57.4745 55.0746C58.0972 56.5757 57.7738 57.9295 56.5383 58.9914C55.8045 59.6213 55.416 60.3453 55.3798 61.3177C55.3339 62.5341 54.8562 63.5428 53.722 64.1293C53.2126 64.3922 53.5481 64.6722 53.6929 64.9256C54.803 66.89 55.918 68.8544 57.045 70.8092C57.407 71.4366 57.7183 72.0496 57.1922 72.7253C56.7022 73.3575 56.0483 73.2683 55.3775 73.1114C54.6148 72.9328 53.8474 72.7881 53.0872 72.6023C52.6336 72.4937 52.3656 72.5709 52.2257 73.0801C52.0109 73.862 51.7117 74.6197 51.463 75.3945C51.2508 76.0629 50.937 76.6421 50.1551 76.7073C49.4118 76.7675 49.0305 76.2607 48.7047 75.6816C47.474 73.5072 46.2238 71.3449 45.0051 69.1633C44.7469 68.7024 44.5564 68.4732 43.9844 68.8061C43.0673 69.337 42.0562 69.3419 41.1319 68.8231C40.5333 68.4876 40.333 68.7024 40.0531 69.2091C38.8561 71.3666 37.6085 73.4976 36.397 75.6478C36.0519 76.2583 35.6609 76.7892 34.8767 76.7024C34.0923 76.6179 33.8148 76.0097 33.6073 75.3485C33.3732 74.6028 33.0788 73.874 32.8784 73.1187C32.7337 72.5757 32.4489 72.4912 31.9565 72.6095C31.0805 72.8219 30.1901 72.9786 29.3116 73.1862C28.7132 73.3286 28.2304 73.167 27.8734 72.6915C27.5064 72.204 27.5499 71.6803 27.8444 71.1664C29.0244 69.1005 30.195 67.0324 31.3871 64.9763C31.6357 64.5491 31.7177 64.303 31.1723 64.0061C30.05 63.3932 29.7194 62.2782 29.6639 61.0957C29.6277 60.3525 29.4033 59.7636 28.8241 59.2858C27.3061 58.0357 26.9057 56.4985 27.7261 54.6885C28.0616 53.95 28.0205 53.2454 27.702 52.5117C26.9297 50.7356 27.3061 49.22 28.7977 47.9892C29.3671 47.5187 29.6349 46.9444 29.6592 46.1913C29.7122 44.3935 30.5641 43.1555 32.3693 42.721C33.2356 42.5135 33.7665 41.9947 34.1695 41.2296C34.7849 40.0592 35.7333 39.3376 37.2827 39.3232L37.2851 39.3183ZM31.8166 69.8728C32.1424 69.8294 32.473 69.8053 32.794 69.7377C34.0103 69.489 34.4784 69.7619 34.908 70.954C35.0287 71.2846 35.06 71.6611 35.4148 72.0207C36.1967 70.6523 36.9617 69.3178 37.8256 67.8095C36.1364 68.0798 35.048 67.4716 34.2709 66.2312C34.1599 66.055 34.003 65.7003 33.7714 66.1178C33.0909 67.3486 32.2486 68.4924 31.7779 69.8343C31.7562 69.8679 31.7345 69.9018 31.7153 69.9356C31.749 69.9139 31.7828 69.8945 31.819 69.8728H31.8166ZM37.5265 41.9585C37.0703 41.9102 36.6938 42.0213 36.479 42.4749C35.7912 43.9252 34.6836 44.852 33.1149 45.2333C32.5913 45.3587 32.3331 45.6748 32.3162 46.2662C32.2775 47.8203 31.6236 49.1065 30.4338 50.1105C30.0091 50.4676 29.898 50.8587 30.1297 51.3871C30.7621 52.8327 30.8151 54.2951 30.1466 55.7456C29.8618 56.361 29.9874 56.8459 30.5134 57.2561C31.7756 58.236 32.2654 59.5898 32.3307 61.1272C32.3499 61.5953 32.5285 61.8559 32.9798 61.9572C34.5846 62.312 35.743 63.2387 36.4573 64.7156C36.7083 65.2345 37.0607 65.302 37.6351 65.2152C38.9647 65.0149 40.3017 65.0536 41.4142 65.9779C42.2033 66.6318 42.9539 66.5377 43.7117 65.9609C44.8555 65.0898 46.1538 64.9955 47.4957 65.2441C47.9807 65.3335 48.3089 65.2803 48.5503 64.829C49.3201 63.3811 50.4108 62.3337 52.0737 61.967C52.5201 61.868 52.7905 61.5542 52.7905 61.0499C52.7856 59.5464 53.3261 58.2939 54.5158 57.3431C55.0782 56.8942 55.2471 56.3657 54.9309 55.6779C54.3204 54.3506 54.2793 52.9991 54.9117 51.6671C55.2664 50.9166 55.0757 50.3759 54.4532 49.8644C53.3695 48.9739 52.8097 47.7889 52.8122 46.3892C52.8122 45.6774 52.5056 45.366 51.8589 45.1971C50.5485 44.8568 49.4746 44.1666 48.8905 42.8973C48.4634 41.9706 47.7514 41.8354 46.8778 42.0622C46.0429 42.2795 45.2634 42.0911 44.5177 41.734C44.0302 41.5 43.574 41.203 43.1059 40.9304C42.744 40.7204 42.4013 40.6359 42.0127 40.9039C40.6636 41.8378 39.2495 42.5377 37.5288 41.9585H37.5265ZM53.5289 69.9718C52.7783 68.6396 52.0857 67.4161 51.3955 66.1878C51.2483 65.9247 51.0745 65.7895 50.8742 66.1129C50.0851 67.3871 48.9871 68.0845 47.2712 67.8408C48.1424 69.3588 48.9026 70.6837 49.7207 72.1052C50.4415 70.3756 51.7108 69.6636 53.5289 69.9693V69.9718Z" fill="#FDFDFE"/>
<path d="M32.7992 25.6867C25.8394 25.6867 18.8819 25.6867 11.922 25.6867C11.6806 25.6867 11.4393 25.6963 11.198 25.6842C10.3316 25.6361 9.76207 25.1244 9.74276 24.3859C9.72105 23.6161 10.3147 23.0708 11.2269 23.0248C11.4369 23.0152 11.6493 23.0248 11.8592 23.0248C25.7766 23.0248 39.6939 23.0248 53.6113 23.0248C53.8816 23.0248 54.1543 23.008 54.4245 23.0344C55.233 23.1117 55.7349 23.6353 55.7277 24.3738C55.7205 25.1075 55.2113 25.6167 54.3981 25.6867C54.159 25.7059 53.9153 25.6915 53.6764 25.6915C46.7166 25.6915 39.7591 25.6915 32.7992 25.6915V25.6867Z" fill="#FDFDFE"/>
<path d="M32.167 36.6054C24.9634 36.6054 17.7598 36.6054 10.5562 36.6054C10.2255 36.6054 9.88768 36.6296 9.5643 36.5741C8.87651 36.4559 8.50246 35.9902 8.49522 35.3192C8.48798 34.6435 8.86928 34.1825 9.5474 34.0426C9.83699 33.9822 10.1483 34.0111 10.45 34.0111C24.8886 34.0111 39.3248 34.0111 53.7635 34.0111C54.0651 34.0111 54.374 33.9822 54.666 34.0401C55.3441 34.1705 55.7206 34.6025 55.723 35.2999C55.723 35.9925 55.373 36.4462 54.6852 36.5717C54.3644 36.632 54.024 36.6054 53.6934 36.6054C46.5188 36.6054 39.3465 36.6054 32.1719 36.6054H32.167Z" fill="#FDFDFE"/>
<path d="M43.5555 14.6968C40.061 14.6968 36.5641 14.7016 33.0698 14.6943C32.0393 14.692 31.3854 14.0935 31.518 13.2657C31.6459 12.4621 32.1576 12.0929 32.9781 12.0977C35.0559 12.1098 37.1361 12.1025 39.2165 12.1025C44.1588 12.1025 49.0988 12.1074 54.0411 12.0977C54.6734 12.0977 55.2551 12.1484 55.5857 12.7879C56.0466 13.6736 55.4626 14.6606 54.4055 14.6847C52.8394 14.7234 51.2731 14.6968 49.7045 14.6968C47.6556 14.6968 45.6067 14.6968 43.5578 14.6968H43.5555Z" fill="#FDFDFE"/>
<path d="M17.1312 69.4943C14.8144 69.4943 12.4953 69.4966 10.1785 69.4943C9.08531 69.4943 8.47957 69.026 8.4651 68.1983C8.45062 67.3658 9.06118 66.8517 10.1303 66.8492C14.8265 66.8419 19.5227 66.8419 24.219 66.8492C25.2494 66.8492 25.8239 67.3343 25.8358 68.1476C25.8503 68.9898 25.247 69.4894 24.1756 69.4918C21.8274 69.499 19.4793 69.4918 17.1312 69.4918V69.4943Z" fill="#FDFDFE"/>
<path d="M17.1486 47.5867C14.827 47.5867 12.5078 47.5891 10.1863 47.5867C9.10993 47.5867 8.4873 47.1016 8.47283 46.2787C8.46076 45.451 9.08581 44.9297 10.1525 44.9273C14.7931 44.9201 19.4339 44.9201 24.0771 44.9273C25.151 44.9273 25.7881 45.434 25.7977 46.245C25.8073 47.0895 25.1606 47.5844 24.0192 47.5867C21.7289 47.5891 19.4388 47.5867 17.1486 47.5867Z" fill="#FDFDFE"/>
<path d="M16.2433 58.525C14.1342 58.525 12.025 58.525 9.91578 58.525C9.20144 58.525 8.68259 58.2185 8.50401 57.5066C8.35681 56.9178 8.60538 56.452 9.09769 56.1093C9.36073 55.9259 9.65997 55.9114 9.96163 55.9114C14.1487 55.9114 18.3357 55.9065 22.5252 55.9162C23.4494 55.9162 24.031 56.4616 24.0189 57.2435C24.0069 57.9988 23.4712 58.5105 22.5686 58.5201C20.4594 58.5443 18.3501 58.5274 16.2433 58.5274V58.525Z" fill="#FDFDFE"/>
<path d="M37.5259 41.9573C39.2442 42.5365 40.6583 41.8366 42.0098 40.9027C42.3983 40.6348 42.741 40.7193 43.1031 40.9292C43.5712 41.202 44.0274 41.4988 44.5149 41.7329C45.2606 42.09 46.0399 42.2783 46.875 42.061C47.7486 41.8342 48.4605 41.9718 48.8877 42.8961C49.4716 44.1654 50.5456 44.8556 51.856 45.1959C52.5027 45.3624 52.8092 45.6762 52.8092 46.388C52.8092 47.7853 53.3667 48.9727 54.4503 49.8632C55.0753 50.3749 55.266 50.9154 54.9088 51.6659C54.2789 52.9981 54.3175 54.3494 54.9281 55.6767C55.2443 56.3645 55.0753 56.8954 54.513 57.342C53.3233 58.2927 52.7826 59.5452 52.7875 61.0487C52.7875 61.553 52.5172 61.8668 52.0708 61.9658C50.408 62.3326 49.3173 63.3799 48.5473 64.8279C48.3085 65.2791 47.9802 65.3323 47.4928 65.243C46.151 64.9945 44.8527 65.0886 43.7088 65.9597C42.951 66.5365 42.2005 66.6306 41.4114 65.9767C40.2964 65.0524 38.9594 65.0137 37.6321 65.214C37.0578 65.3009 36.7055 65.2334 36.4545 64.7144C35.7401 63.2351 34.5818 62.3108 32.977 61.9562C32.5232 61.8572 32.3471 61.5941 32.3278 61.126C32.2626 59.5886 31.7728 58.2373 30.5105 57.2551C29.9845 56.8472 29.8591 56.3621 30.1437 55.7444C30.8123 54.2939 30.7591 52.8291 30.1269 51.386C29.8952 50.8575 30.0062 50.469 30.4309 50.1093C31.6206 49.1054 32.2747 47.8215 32.3133 46.265C32.3278 45.6738 32.5883 45.3575 33.112 45.2321C34.6807 44.8532 35.7908 43.9266 36.4762 42.4737C36.691 42.0201 37.0699 41.9115 37.5235 41.9573H37.5259ZM32.6898 53.5989C32.5402 58.9613 37.0409 63.5006 42.4973 63.5174C48.0141 63.5344 52.4062 59.1254 52.4352 53.6061C52.4665 47.959 47.6328 43.7286 42.5552 43.7263C37.3136 43.7238 32.5185 48.2198 32.6898 53.5989Z" fill="#1164E9"/>
<path d="M53.5281 69.9683C51.7102 69.6626 50.4408 70.3746 49.72 72.104C48.9018 70.6803 48.1416 69.3554 47.2705 67.8398C48.9863 68.0835 50.0819 67.3838 50.8736 66.1119C51.0739 65.7885 51.2476 65.9213 51.3947 66.1868C52.0825 67.4127 52.7752 68.6387 53.5281 69.9708V69.9683Z" fill="#1164E9"/>
<path d="M31.7783 69.8338C32.2513 68.4919 33.0936 67.3481 33.7742 66.1173C34.0058 65.6998 34.1602 66.0545 34.2736 66.2307C35.0508 67.4688 36.1415 68.0769 37.8284 67.809C36.9645 69.3173 36.2018 70.6519 35.4176 72.0202C35.0604 71.6606 35.0291 71.2841 34.9107 70.9535C34.4812 69.7638 34.013 69.4887 32.7967 69.7372C32.4757 69.8023 32.1451 69.8289 31.8194 69.8723L31.7783 69.8313V69.8338Z" fill="#1164E9"/>
<path d="M31.8167 69.8706C31.7829 69.8923 31.7491 69.9117 31.7129 69.9334C31.7346 69.8995 31.7563 69.8659 31.7757 69.832L31.8142 69.8706H31.8167Z" fill="#669DEF"/>
<path d="M32.6899 53.5993C32.5209 48.2201 37.3137 43.7242 42.5553 43.7266C47.6352 43.7289 52.4666 47.9619 52.4353 53.6066C52.4063 59.1257 48.0141 63.5347 42.4974 63.5179C37.041 63.5009 32.5426 58.9616 32.6899 53.5993ZM42.5723 60.8295C46.2187 60.979 49.8676 58.0107 49.8169 53.5438C49.7686 49.3905 46.5324 46.3594 42.5167 46.3425C38.5686 46.3257 35.2141 49.6608 35.2599 53.5921C35.3082 57.8442 38.7882 61.0201 42.5723 60.8295Z" fill="#FDFDFE"/>
<path d="M42.5724 60.8308C38.7883 61.0215 35.3083 57.8455 35.2602 53.5934C35.2168 49.6622 38.5687 46.327 42.5168 46.3438C46.5326 46.3608 49.7687 49.3919 49.817 53.545C49.8677 58.0121 46.2188 60.9804 42.5724 60.8308ZM41.9014 57.0057C42.3793 57.0323 42.7486 56.8441 43.0381 56.511C44.2038 55.1741 45.3742 53.842 46.5109 52.4809C47.0876 51.7882 47.032 51.0763 46.4457 50.5599C45.8568 50.0435 45.0604 50.1327 44.462 50.8084C44.0227 51.3031 43.5956 51.8076 43.1878 52.3289C42.385 53.3488 41.4526 53.5033 40.3908 52.7921C39.6451 52.2927 38.9476 52.3506 38.4673 52.9515C37.9654 53.5812 38.0403 54.2136 38.7715 54.8361C39.5244 55.4805 40.3232 56.0718 41.1027 56.6823C41.3416 56.8682 41.5925 57.0419 41.899 57.0033L41.9014 57.0057Z" fill="#1164E9"/>
<path d="M41.9016 57.0067C41.5927 57.0429 41.3441 56.8716 41.1052 56.6857C40.3232 56.0752 39.5268 55.4815 38.7739 54.8395C38.0427 54.2145 37.9654 53.5846 38.4699 52.9547C38.9476 52.3538 39.6475 52.2959 40.3932 52.7955C41.4582 53.5082 42.3906 53.3538 43.1902 52.3321C43.598 51.8133 44.0252 51.3065 44.4644 50.8118C45.063 50.1361 45.8593 50.0443 46.4481 50.5633C47.0346 51.0797 47.0925 51.7916 46.5133 52.4842C45.3767 53.8453 44.2062 55.1773 43.0407 56.5144C42.751 56.845 42.3818 57.0357 41.904 57.0091L41.9016 57.0067Z" fill="#FDFDFE"/>
</g>
<defs>
<clipPath id="clip0_94_4697">
<rect width="71.5488" height="87" fill="white"/>
</clipPath>
</defs>
</svg>
