<svg width="514" height="625" viewBox="0 0 514 625" fill="none" xmlns="http://www.w3.org/2000/svg">
<path d="M514 334.963C514 421.404 514 507.828 514 594.269C514 609.82 506.528 620.361 493.335 623.343C490.63 623.95 487.752 624.002 484.961 624.002C350.445 624.036 215.929 624.036 81.4134 624.002C63.7992 624.002 53.1545 613.288 52.9291 595.777C52.8598 590.195 55.3216 582.983 51.9236 579.498C48.5082 575.996 41.2615 578.683 35.7137 578.406C32.6971 578.25 29.6458 578.458 26.6119 578.354C11.9624 577.799 1.42161 567.727 0.225378 553.094C0.0520102 550.945 0.121357 548.76 0.121357 546.593C0.104021 396.457 0.138694 246.338 0 96.219C0 89.527 1.75101 84.2739 6.06786 79.1249C26.3865 54.9055 46.4625 30.478 66.4691 5.99852C69.9364 1.75101 73.8372 0 79.2983 0C197.344 0.104021 315.408 0.069347 433.453 0.0866838C450.149 0.0866838 460.984 11.0262 461.14 27.7561C461.175 32.2984 461.348 36.8579 461.088 41.4002C460.88 44.8675 462.146 45.9077 465.509 45.769C471.56 45.5436 477.645 45.6997 483.695 45.717C503.633 45.7517 513.965 56.1711 513.965 76.299C513.965 144.536 513.965 212.774 513.965 281.011C513.965 298.99 513.965 316.968 513.965 334.946L514 334.963ZM442.156 289.454C442.156 203.239 442.156 117.023 442.156 30.8074C442.156 20.8561 440.718 19.1224 431.858 19.1224C319.014 19.0878 206.169 19.1398 93.3237 18.9837C88.14 18.9837 87.2905 20.8388 87.3599 25.381C87.6026 40.7587 87.6199 56.1364 87.3946 71.5141C87.1345 88.5561 76.5591 98.9582 59.6384 99.0969C48.5949 99.1836 37.5341 99.4783 26.5079 98.9755C20.5094 98.6981 19.0878 100.518 19.0878 106.413C19.2611 253.273 19.2265 400.15 19.2265 547.009C19.2265 557.949 20.4574 559.128 31.6569 559.128C164.214 559.128 296.77 559.128 429.327 559.128C441.255 559.128 442.174 558.209 442.174 546.125C442.174 460.568 442.174 374.994 442.174 289.437L442.156 289.454ZM494.895 334.946C494.895 249.823 494.895 164.682 494.895 79.5584C494.895 77.6166 494.878 75.6576 494.895 73.7159C494.964 67.8734 492.26 64.8395 486.261 64.9261C480.419 65.0128 474.507 65.4116 468.734 64.8048C462.354 64.1286 461.019 66.3304 461.019 72.5543C461.21 230.683 461.175 388.811 461.14 546.94C461.14 550.598 461.227 554.377 460.412 557.897C457.378 571.125 446.924 578.354 431.217 578.354C316.43 578.354 201.626 578.354 86.8398 578.354C76.8885 578.354 71.9302 583.249 71.9648 593.038C71.9995 603.7 73.2304 604.966 83.9966 604.966C216.987 604.966 349.977 604.966 482.967 604.966C493.508 604.966 494.912 603.51 494.912 592.917C494.912 506.927 494.912 420.919 494.912 334.929L494.895 334.946ZM68.5495 33.4773C55.807 48.907 44.1914 62.9671 32.5584 77.0272C30.8074 79.1423 30.8074 80.5465 33.9974 80.5465C42.8391 80.5465 51.6982 80.7719 60.5053 80.3558C65.6889 80.1131 68.6015 76.9752 68.5668 71.3927C68.4802 59.3437 68.5322 47.2773 68.5322 33.4599L68.5495 33.4773Z" fill="#20539C"/>
<mask id="path-2-outside-1_2093_2474" maskUnits="userSpaceOnUse" x="4.07031" y="4.00195" width="454" height="571" fill="black">
<rect fill="white" x="4.07031" y="4.00195" width="454" height="571"/>
<path d="M442.156 289.455C442.156 375.012 442.156 460.586 442.156 546.143C442.156 558.244 441.255 559.146 429.31 559.146C296.753 559.146 164.196 559.146 31.6395 559.146C20.4399 559.146 19.209 557.95 19.209 547.027C19.209 400.168 19.2437 253.291 19.0703 106.431C19.0703 100.519 20.4919 98.7164 26.4904 98.9938C37.5166 99.4966 48.5775 99.2019 59.621 99.1152C76.5243 98.9765 87.1171 88.5918 87.3771 71.5324C87.6025 56.1547 87.5852 40.777 87.3424 25.3993C87.2731 20.8398 88.1226 18.9847 93.3063 19.0021C206.151 19.1581 318.996 19.1061 431.841 19.1408C440.7 19.1408 442.139 20.8571 442.139 30.8257C442.139 117.041 442.139 203.257 442.139 289.473L442.156 289.455ZM267.853 282.451C256.74 282.555 249.927 287.722 245.488 296.147C242.593 301.643 238.779 305.353 232.555 306.861C219.605 309.982 213.485 318.876 213.086 331.792C212.93 337.218 210.988 341.327 206.897 344.708C196.183 353.549 193.478 364.437 199.026 377.197C201.314 382.45 201.592 387.529 199.199 392.834C193.305 405.837 196.183 416.88 207.087 425.861C211.248 429.294 212.861 433.524 213.121 438.863C213.537 447.358 215.894 455.368 223.956 459.772C227.874 461.921 227.285 463.672 225.499 466.741C216.917 481.512 208.509 496.387 200.049 511.21C197.934 514.902 197.622 518.682 200.257 522.167C202.823 525.582 206.307 526.743 210.589 525.721C216.9 524.23 223.297 523.103 229.59 521.577C233.127 520.71 235.173 521.317 236.213 525.235C237.652 530.644 239.767 535.897 241.449 541.254C242.94 546.005 244.934 550.373 250.568 550.98C256.22 551.587 259.011 547.79 261.49 543.404C270.193 527.957 279.156 512.649 287.755 497.15C289.766 493.526 291.205 491.983 295.505 494.376C302.145 498.103 309.392 498.068 315.997 494.254C320.106 491.879 321.475 493.526 323.33 496.82C332.085 512.475 341.066 528.026 349.908 543.647C352.265 547.808 354.987 551.448 360.327 551.015C365.944 550.547 368.198 546.386 369.723 541.584C371.492 536.019 373.659 530.575 375.202 524.958C376.207 521.3 378.132 520.745 381.391 521.525C386.852 522.843 392.383 523.9 397.844 525.183C402.663 526.31 407.344 526.951 410.881 522.409C414.66 517.555 412.424 513.151 409.823 508.644C401.71 494.601 393.718 480.489 385.743 466.377C384.702 464.557 382.293 462.545 385.951 460.656C394.099 456.426 397.532 449.179 397.861 440.458C398.121 433.472 400.93 428.271 406.183 423.746C415.076 416.118 417.382 406.374 412.909 395.608C409.875 388.292 410.118 381.548 413.048 374.319C417.347 363.709 414.955 354.139 406.356 346.719C400.895 342.003 398.086 336.594 397.792 329.434C397.272 317.229 390.441 309.878 378.929 306.913C372.792 305.336 368.839 301.834 365.909 296.303C360.067 285.26 350.844 280.683 338.379 283.041C332.865 284.081 327.751 283.561 323.036 279.955C311.611 271.252 299.96 271.148 288.449 279.833C283.993 283.197 279.139 284.081 273.782 283.179C271.441 282.781 269.066 282.573 267.87 282.417L267.853 282.451ZM235.624 184.533C285.623 184.533 335.605 184.533 385.604 184.533C387.338 184.533 389.071 184.637 390.788 184.499C396.63 183.996 400.288 180.338 400.34 175.067C400.392 169.78 396.803 166.018 390.978 165.446C389.054 165.255 387.078 165.376 385.136 165.376C285.155 165.376 185.174 165.376 85.1927 165.376C83.6844 165.376 82.1588 165.324 80.6505 165.376C74.0972 165.706 69.8497 169.624 69.9883 175.154C70.127 180.459 74.2359 184.152 80.4424 184.481C82.1761 184.568 83.9098 184.499 85.6434 184.499C135.643 184.499 185.624 184.499 235.624 184.499V184.533ZM231.081 262.965C282.624 262.965 334.148 262.965 385.691 262.965C388.066 262.965 390.51 263.138 392.816 262.722C397.757 261.821 400.288 258.561 400.271 253.586C400.271 248.558 397.549 245.472 392.677 244.536C390.58 244.137 388.36 244.328 386.193 244.328C282.468 244.328 178.759 244.328 75.0333 244.328C72.8662 244.328 70.6471 244.137 68.5494 244.553C63.6778 245.541 60.9386 248.853 60.9906 253.724C61.0426 258.561 63.7298 261.89 68.6708 262.739C70.9939 263.138 73.421 262.965 75.7962 262.965C127.546 262.965 179.297 262.965 231.047 262.965H231.081ZM312.894 105.599C327.612 105.599 342.331 105.599 357.05 105.599C368.302 105.599 379.571 105.773 390.822 105.512C398.416 105.322 402.629 98.2484 399.3 91.8858C396.907 87.3089 392.729 86.9275 388.204 86.9275C352.699 86.9795 317.21 86.9621 281.705 86.9621C266.76 86.9621 251.834 87.0315 236.889 86.9275C230.995 86.8928 227.319 89.5453 226.401 95.3184C225.447 101.265 230.163 105.564 237.548 105.582C262.652 105.651 287.773 105.599 312.876 105.616L312.894 105.599ZM123.073 499.23C139.942 499.23 156.811 499.265 173.679 499.23C181.377 499.213 185.711 495.624 185.607 489.573C185.503 483.731 181.394 480.264 173.992 480.246C140.254 480.194 106.517 480.194 72.7796 480.246C65.0994 480.246 60.6959 483.939 60.8172 489.938C60.9212 495.884 65.2901 499.23 73.1263 499.247C89.7696 499.282 106.43 499.247 123.073 499.247V499.23ZM123.195 341.864C139.647 341.864 156.1 341.864 172.553 341.864C180.736 341.864 185.399 338.31 185.33 332.225C185.26 326.4 180.684 322.759 172.969 322.759C139.63 322.707 106.292 322.707 72.9356 322.759C65.2728 322.759 60.7825 326.521 60.8692 332.468C60.9559 338.38 65.4288 341.847 73.1783 341.864C89.8563 341.899 106.517 341.864 123.195 341.864ZM116.694 420.434C131.846 420.434 146.998 420.556 162.133 420.382C168.617 420.313 172.449 416.638 172.553 411.211C172.657 405.612 168.461 401.693 161.821 401.676C131.742 401.607 101.663 401.641 71.566 401.641C69.3989 401.641 67.2491 401.728 65.3594 403.063C61.8227 405.525 60.0197 408.871 61.0946 413.101C62.3775 418.215 66.1223 420.417 71.2366 420.417C86.3889 420.417 101.541 420.417 116.694 420.417V420.434Z"/>
</mask>
<path d="M442.156 289.455C442.156 375.012 442.156 460.586 442.156 546.143C442.156 558.244 441.255 559.146 429.31 559.146C296.753 559.146 164.196 559.146 31.6395 559.146C20.4399 559.146 19.209 557.95 19.209 547.027C19.209 400.168 19.2437 253.291 19.0703 106.431C19.0703 100.519 20.4919 98.7164 26.4904 98.9938C37.5166 99.4966 48.5775 99.2019 59.621 99.1152C76.5243 98.9765 87.1171 88.5918 87.3771 71.5324C87.6025 56.1547 87.5852 40.777 87.3424 25.3993C87.2731 20.8398 88.1226 18.9847 93.3063 19.0021C206.151 19.1581 318.996 19.1061 431.841 19.1408C440.7 19.1408 442.139 20.8571 442.139 30.8257C442.139 117.041 442.139 203.257 442.139 289.473L442.156 289.455ZM267.853 282.451C256.74 282.555 249.927 287.722 245.488 296.147C242.593 301.643 238.779 305.353 232.555 306.861C219.605 309.982 213.485 318.876 213.086 331.792C212.93 337.218 210.988 341.327 206.897 344.708C196.183 353.549 193.478 364.437 199.026 377.197C201.314 382.45 201.592 387.529 199.199 392.834C193.305 405.837 196.183 416.88 207.087 425.861C211.248 429.294 212.861 433.524 213.121 438.863C213.537 447.358 215.894 455.368 223.956 459.772C227.874 461.921 227.285 463.672 225.499 466.741C216.917 481.512 208.509 496.387 200.049 511.21C197.934 514.902 197.622 518.682 200.257 522.167C202.823 525.582 206.307 526.743 210.589 525.721C216.9 524.23 223.297 523.103 229.59 521.577C233.127 520.71 235.173 521.317 236.213 525.235C237.652 530.644 239.767 535.897 241.449 541.254C242.94 546.005 244.934 550.373 250.568 550.98C256.22 551.587 259.011 547.79 261.49 543.404C270.193 527.957 279.156 512.649 287.755 497.15C289.766 493.526 291.205 491.983 295.505 494.376C302.145 498.103 309.392 498.068 315.997 494.254C320.106 491.879 321.475 493.526 323.33 496.82C332.085 512.475 341.066 528.026 349.908 543.647C352.265 547.808 354.987 551.448 360.327 551.015C365.944 550.547 368.198 546.386 369.723 541.584C371.492 536.019 373.659 530.575 375.202 524.958C376.207 521.3 378.132 520.745 381.391 521.525C386.852 522.843 392.383 523.9 397.844 525.183C402.663 526.31 407.344 526.951 410.881 522.409C414.66 517.555 412.424 513.151 409.823 508.644C401.71 494.601 393.718 480.489 385.743 466.377C384.702 464.557 382.293 462.545 385.951 460.656C394.099 456.426 397.532 449.179 397.861 440.458C398.121 433.472 400.93 428.271 406.183 423.746C415.076 416.118 417.382 406.374 412.909 395.608C409.875 388.292 410.118 381.548 413.048 374.319C417.347 363.709 414.955 354.139 406.356 346.719C400.895 342.003 398.086 336.594 397.792 329.434C397.272 317.229 390.441 309.878 378.929 306.913C372.792 305.336 368.839 301.834 365.909 296.303C360.067 285.26 350.844 280.683 338.379 283.041C332.865 284.081 327.751 283.561 323.036 279.955C311.611 271.252 299.96 271.148 288.449 279.833C283.993 283.197 279.139 284.081 273.782 283.179C271.441 282.781 269.066 282.573 267.87 282.417L267.853 282.451ZM235.624 184.533C285.623 184.533 335.605 184.533 385.604 184.533C387.338 184.533 389.071 184.637 390.788 184.499C396.63 183.996 400.288 180.338 400.34 175.067C400.392 169.78 396.803 166.018 390.978 165.446C389.054 165.255 387.078 165.376 385.136 165.376C285.155 165.376 185.174 165.376 85.1927 165.376C83.6844 165.376 82.1588 165.324 80.6505 165.376C74.0972 165.706 69.8497 169.624 69.9883 175.154C70.127 180.459 74.2359 184.152 80.4424 184.481C82.1761 184.568 83.9098 184.499 85.6434 184.499C135.643 184.499 185.624 184.499 235.624 184.499V184.533ZM231.081 262.965C282.624 262.965 334.148 262.965 385.691 262.965C388.066 262.965 390.51 263.138 392.816 262.722C397.757 261.821 400.288 258.561 400.271 253.586C400.271 248.558 397.549 245.472 392.677 244.536C390.58 244.137 388.36 244.328 386.193 244.328C282.468 244.328 178.759 244.328 75.0333 244.328C72.8662 244.328 70.6471 244.137 68.5494 244.553C63.6778 245.541 60.9386 248.853 60.9906 253.724C61.0426 258.561 63.7298 261.89 68.6708 262.739C70.9939 263.138 73.421 262.965 75.7962 262.965C127.546 262.965 179.297 262.965 231.047 262.965H231.081ZM312.894 105.599C327.612 105.599 342.331 105.599 357.05 105.599C368.302 105.599 379.571 105.773 390.822 105.512C398.416 105.322 402.629 98.2484 399.3 91.8858C396.907 87.3089 392.729 86.9275 388.204 86.9275C352.699 86.9795 317.21 86.9621 281.705 86.9621C266.76 86.9621 251.834 87.0315 236.889 86.9275C230.995 86.8928 227.319 89.5453 226.401 95.3184C225.447 101.265 230.163 105.564 237.548 105.582C262.652 105.651 287.773 105.599 312.876 105.616L312.894 105.599ZM123.073 499.23C139.942 499.23 156.811 499.265 173.679 499.23C181.377 499.213 185.711 495.624 185.607 489.573C185.503 483.731 181.394 480.264 173.992 480.246C140.254 480.194 106.517 480.194 72.7796 480.246C65.0994 480.246 60.6959 483.939 60.8172 489.938C60.9212 495.884 65.2901 499.23 73.1263 499.247C89.7696 499.282 106.43 499.247 123.073 499.247V499.23ZM123.195 341.864C139.647 341.864 156.1 341.864 172.553 341.864C180.736 341.864 185.399 338.31 185.33 332.225C185.26 326.4 180.684 322.759 172.969 322.759C139.63 322.707 106.292 322.707 72.9356 322.759C65.2728 322.759 60.7825 326.521 60.8692 332.468C60.9559 338.38 65.4288 341.847 73.1783 341.864C89.8563 341.899 106.517 341.864 123.195 341.864ZM116.694 420.434C131.846 420.434 146.998 420.556 162.133 420.382C168.617 420.313 172.449 416.638 172.553 411.211C172.657 405.612 168.461 401.693 161.821 401.676C131.742 401.607 101.663 401.641 71.566 401.641C69.3989 401.641 67.2491 401.728 65.3594 403.063C61.8227 405.525 60.0197 408.871 61.0946 413.101C62.3775 418.215 66.1223 420.417 71.2366 420.417C86.3889 420.417 101.541 420.417 116.694 420.417V420.434Z" fill="#20539C"/>
<path d="M442.156 289.455C442.156 375.012 442.156 460.586 442.156 546.143C442.156 558.244 441.255 559.146 429.31 559.146C296.753 559.146 164.196 559.146 31.6395 559.146C20.4399 559.146 19.209 557.95 19.209 547.027C19.209 400.168 19.2437 253.291 19.0703 106.431C19.0703 100.519 20.4919 98.7164 26.4904 98.9938C37.5166 99.4966 48.5775 99.2019 59.621 99.1152C76.5243 98.9765 87.1171 88.5918 87.3771 71.5324C87.6025 56.1547 87.5852 40.777 87.3424 25.3993C87.2731 20.8398 88.1226 18.9847 93.3063 19.0021C206.151 19.1581 318.996 19.1061 431.841 19.1408C440.7 19.1408 442.139 20.8571 442.139 30.8257C442.139 117.041 442.139 203.257 442.139 289.473L442.156 289.455ZM267.853 282.451C256.74 282.555 249.927 287.722 245.488 296.147C242.593 301.643 238.779 305.353 232.555 306.861C219.605 309.982 213.485 318.876 213.086 331.792C212.93 337.218 210.988 341.327 206.897 344.708C196.183 353.549 193.478 364.437 199.026 377.197C201.314 382.45 201.592 387.529 199.199 392.834C193.305 405.837 196.183 416.88 207.087 425.861C211.248 429.294 212.861 433.524 213.121 438.863C213.537 447.358 215.894 455.368 223.956 459.772C227.874 461.921 227.285 463.672 225.499 466.741C216.917 481.512 208.509 496.387 200.049 511.21C197.934 514.902 197.622 518.682 200.257 522.167C202.823 525.582 206.307 526.743 210.589 525.721C216.9 524.23 223.297 523.103 229.59 521.577C233.127 520.71 235.173 521.317 236.213 525.235C237.652 530.644 239.767 535.897 241.449 541.254C242.94 546.005 244.934 550.373 250.568 550.98C256.22 551.587 259.011 547.79 261.49 543.404C270.193 527.957 279.156 512.649 287.755 497.15C289.766 493.526 291.205 491.983 295.505 494.376C302.145 498.103 309.392 498.068 315.997 494.254C320.106 491.879 321.475 493.526 323.33 496.82C332.085 512.475 341.066 528.026 349.908 543.647C352.265 547.808 354.987 551.448 360.327 551.015C365.944 550.547 368.198 546.386 369.723 541.584C371.492 536.019 373.659 530.575 375.202 524.958C376.207 521.3 378.132 520.745 381.391 521.525C386.852 522.843 392.383 523.9 397.844 525.183C402.663 526.31 407.344 526.951 410.881 522.409C414.66 517.555 412.424 513.151 409.823 508.644C401.71 494.601 393.718 480.489 385.743 466.377C384.702 464.557 382.293 462.545 385.951 460.656C394.099 456.426 397.532 449.179 397.861 440.458C398.121 433.472 400.93 428.271 406.183 423.746C415.076 416.118 417.382 406.374 412.909 395.608C409.875 388.292 410.118 381.548 413.048 374.319C417.347 363.709 414.955 354.139 406.356 346.719C400.895 342.003 398.086 336.594 397.792 329.434C397.272 317.229 390.441 309.878 378.929 306.913C372.792 305.336 368.839 301.834 365.909 296.303C360.067 285.26 350.844 280.683 338.379 283.041C332.865 284.081 327.751 283.561 323.036 279.955C311.611 271.252 299.96 271.148 288.449 279.833C283.993 283.197 279.139 284.081 273.782 283.179C271.441 282.781 269.066 282.573 267.87 282.417L267.853 282.451ZM235.624 184.533C285.623 184.533 335.605 184.533 385.604 184.533C387.338 184.533 389.071 184.637 390.788 184.499C396.63 183.996 400.288 180.338 400.34 175.067C400.392 169.78 396.803 166.018 390.978 165.446C389.054 165.255 387.078 165.376 385.136 165.376C285.155 165.376 185.174 165.376 85.1927 165.376C83.6844 165.376 82.1588 165.324 80.6505 165.376C74.0972 165.706 69.8497 169.624 69.9883 175.154C70.127 180.459 74.2359 184.152 80.4424 184.481C82.1761 184.568 83.9098 184.499 85.6434 184.499C135.643 184.499 185.624 184.499 235.624 184.499V184.533ZM231.081 262.965C282.624 262.965 334.148 262.965 385.691 262.965C388.066 262.965 390.51 263.138 392.816 262.722C397.757 261.821 400.288 258.561 400.271 253.586C400.271 248.558 397.549 245.472 392.677 244.536C390.58 244.137 388.36 244.328 386.193 244.328C282.468 244.328 178.759 244.328 75.0333 244.328C72.8662 244.328 70.6471 244.137 68.5494 244.553C63.6778 245.541 60.9386 248.853 60.9906 253.724C61.0426 258.561 63.7298 261.89 68.6708 262.739C70.9939 263.138 73.421 262.965 75.7962 262.965C127.546 262.965 179.297 262.965 231.047 262.965H231.081ZM312.894 105.599C327.612 105.599 342.331 105.599 357.05 105.599C368.302 105.599 379.571 105.773 390.822 105.512C398.416 105.322 402.629 98.2484 399.3 91.8858C396.907 87.3089 392.729 86.9275 388.204 86.9275C352.699 86.9795 317.21 86.9621 281.705 86.9621C266.76 86.9621 251.834 87.0315 236.889 86.9275C230.995 86.8928 227.319 89.5453 226.401 95.3184C225.447 101.265 230.163 105.564 237.548 105.582C262.652 105.651 287.773 105.599 312.876 105.616L312.894 105.599ZM123.073 499.23C139.942 499.23 156.811 499.265 173.679 499.23C181.377 499.213 185.711 495.624 185.607 489.573C185.503 483.731 181.394 480.264 173.992 480.246C140.254 480.194 106.517 480.194 72.7796 480.246C65.0994 480.246 60.6959 483.939 60.8172 489.938C60.9212 495.884 65.2901 499.23 73.1263 499.247C89.7696 499.282 106.43 499.247 123.073 499.247V499.23ZM123.195 341.864C139.647 341.864 156.1 341.864 172.553 341.864C180.736 341.864 185.399 338.31 185.33 332.225C185.26 326.4 180.684 322.759 172.969 322.759C139.63 322.707 106.292 322.707 72.9356 322.759C65.2728 322.759 60.7825 326.521 60.8692 332.468C60.9559 338.38 65.4288 341.847 73.1783 341.864C89.8563 341.899 106.517 341.864 123.195 341.864ZM116.694 420.434C131.846 420.434 146.998 420.556 162.133 420.382C168.617 420.313 172.449 416.638 172.553 411.211C172.657 405.612 168.461 401.693 161.821 401.676C131.742 401.607 101.663 401.641 71.566 401.641C69.3989 401.641 67.2491 401.728 65.3594 403.063C61.8227 405.525 60.0197 408.871 61.0946 413.101C62.3775 418.215 66.1223 420.417 71.2366 420.417C86.3889 420.417 101.541 420.417 116.694 420.417V420.434Z" stroke="#20539C" stroke-width="30" mask="url(#path-2-outside-1_2093_2474)"/>
<path d="M494.897 334.948C494.897 420.938 494.897 506.945 494.897 592.936C494.897 603.528 493.475 604.985 482.952 604.985C349.962 604.985 216.971 604.985 83.9811 604.985C73.215 604.985 71.9841 603.736 71.9494 593.057C71.9147 583.268 76.873 578.373 86.8243 578.373C201.611 578.373 316.415 578.373 431.202 578.373C446.909 578.373 457.363 571.161 460.397 557.915C461.211 554.396 461.125 550.617 461.125 546.959C461.159 388.83 461.194 230.702 461.003 72.5732C461.003 66.3493 462.338 64.1648 468.718 64.8236C474.509 65.4304 480.403 65.0143 486.246 64.945C492.262 64.8583 494.949 67.8922 494.879 73.7347C494.862 75.6764 494.879 77.6355 494.879 79.5772C494.879 164.701 494.879 249.841 494.879 334.965L494.897 334.948Z" fill="#FEFEFE"/>
<path d="M68.5518 33.4766C68.5518 47.294 68.4824 59.3603 68.5864 71.4094C68.6211 76.9745 65.7085 80.1298 60.5248 80.3725C51.7004 80.7886 42.8587 80.5632 34.017 80.5632C30.8443 80.5632 30.827 79.1589 32.578 77.0438C44.211 62.9837 55.8092 48.9236 68.5691 33.4939L68.5518 33.4766Z" fill="#FDFDFE"/>
<path d="M267.854 282.45C269.05 282.606 271.425 282.814 273.766 283.213C279.14 284.115 283.977 283.231 288.433 279.867C299.944 271.182 311.595 271.268 323.019 279.989C327.735 283.595 332.867 284.115 338.362 283.075C350.828 280.717 360.068 285.294 365.893 296.337C368.823 301.868 372.759 305.37 378.913 306.947C390.442 309.912 397.273 317.263 397.776 329.468C398.07 336.628 400.879 342.037 406.34 346.752C414.939 354.173 417.331 363.725 413.032 374.353C410.119 381.565 409.859 388.326 412.893 395.642C417.366 406.426 415.043 416.151 406.167 423.78C400.896 428.305 398.105 433.506 397.845 440.492C397.515 449.23 394.083 456.477 385.935 460.69C382.276 462.579 384.686 464.59 385.726 466.411C393.701 480.523 401.711 494.635 409.807 508.678C412.408 513.185 414.644 517.589 410.865 522.443C407.345 526.985 402.647 526.344 397.828 525.217C392.349 523.934 386.836 522.894 381.375 521.559C378.116 520.779 376.191 521.334 375.186 524.992C373.643 530.609 371.493 536.052 369.707 541.618C368.182 546.42 365.928 550.581 360.311 551.049C354.971 551.482 352.232 547.841 349.891 543.681C341.05 528.06 332.069 512.526 323.314 496.854C321.459 493.543 320.09 491.896 315.981 494.288C309.393 498.102 302.129 498.137 295.489 494.41C291.189 492 289.75 493.543 287.739 497.183C279.14 512.682 270.177 527.991 261.474 543.438C258.995 547.824 256.186 551.638 250.552 551.014C244.917 550.407 242.924 546.038 241.433 541.288C239.751 535.931 237.636 530.695 236.197 525.269C235.157 521.368 233.111 520.761 229.574 521.611C223.281 523.137 216.884 524.263 210.573 525.754C206.274 526.777 202.806 525.616 200.241 522.2C197.605 518.698 197.917 514.936 200.033 511.244C208.51 496.403 216.919 481.546 225.483 466.775C227.269 463.706 227.858 461.938 223.94 459.805C215.878 455.402 213.503 447.392 213.104 438.897C212.844 433.558 211.232 429.327 207.071 425.895C196.166 416.914 193.289 405.871 199.183 392.868C201.593 387.563 201.298 382.501 199.01 377.23C193.462 364.471 196.166 353.583 206.881 344.741C210.972 341.361 212.896 337.235 213.07 331.825C213.451 318.91 219.571 310.016 232.539 306.895C238.763 305.404 242.577 301.677 245.472 296.181C249.893 287.773 256.706 282.589 267.837 282.485L267.854 282.45ZM228.569 501.951C230.909 501.639 233.284 501.466 235.59 500.98C244.328 499.194 247.691 501.154 250.777 509.718C251.644 512.093 251.869 514.798 254.418 517.381C260.035 507.551 265.531 497.964 271.737 487.128C259.602 489.07 251.783 484.701 246.2 475.79C245.403 474.524 244.276 471.976 242.612 474.975C237.723 483.817 231.672 492.034 228.291 501.674C228.135 501.916 227.979 502.159 227.841 502.402C228.083 502.246 228.326 502.107 228.586 501.951H228.569ZM269.588 301.417C266.311 301.07 263.606 301.868 262.063 305.127C257.122 315.546 249.165 322.204 237.896 324.943C234.134 325.844 232.279 328.115 232.158 332.363C231.88 343.528 227.182 352.768 218.635 359.98C215.584 362.546 214.786 365.355 216.45 369.151C220.993 379.536 221.374 390.042 216.572 400.462C214.526 404.883 215.428 408.367 219.207 411.314C228.274 418.353 231.793 428.079 232.262 439.123C232.4 442.486 233.683 444.358 236.925 445.086C248.454 447.635 256.776 454.292 261.907 464.902C263.71 468.63 266.242 469.115 270.368 468.491C279.92 467.052 289.525 467.33 297.517 473.97C303.186 478.668 308.578 477.992 314.022 473.848C322.239 467.59 331.566 466.913 341.206 468.699C344.69 469.341 347.048 468.959 348.782 465.717C354.312 455.315 362.148 447.791 374.094 445.156C377.301 444.445 379.243 442.191 379.243 438.568C379.208 427.767 383.091 418.769 391.638 411.939C395.678 408.714 396.891 404.917 394.62 399.976C390.234 390.441 389.939 380.732 394.482 371.163C397.03 365.771 395.66 361.887 391.188 358.212C383.403 351.815 379.381 343.302 379.399 333.247C379.399 328.133 377.197 325.896 372.551 324.683C363.137 322.238 355.422 317.28 351.226 308.161C348.158 301.504 343.043 300.533 336.767 302.162C330.769 303.723 325.169 302.37 319.812 299.804C316.31 298.123 313.033 295.99 309.67 294.031C307.07 292.523 304.608 291.916 301.817 293.841C292.125 300.55 281.966 305.578 269.605 301.417H269.588ZM384.548 502.662C379.156 493.092 374.18 484.302 369.222 475.478C368.164 473.588 366.916 472.617 365.477 474.94C359.808 484.094 351.92 489.104 339.593 487.353C345.852 498.258 351.313 507.776 357.19 517.988C362.368 505.563 371.487 500.448 384.548 502.644V502.662Z" fill="#FDFDFE"/>
<path d="M235.624 184.532C185.625 184.532 135.643 184.532 85.6436 184.532C83.9099 184.532 82.1763 184.601 80.4426 184.514C74.2187 184.168 70.1272 180.492 69.9885 175.187C69.8325 169.657 74.0973 165.739 80.6506 165.409C82.1589 165.34 83.6846 165.409 85.1928 165.409C185.174 165.409 285.155 165.409 385.136 165.409C387.078 165.409 389.037 165.288 390.978 165.478C396.786 166.033 400.392 169.795 400.34 175.1C400.288 180.371 396.63 184.029 390.788 184.532C389.071 184.67 387.32 184.566 385.604 184.566C335.605 184.566 285.623 184.566 235.624 184.566V184.532Z" fill="#FDFDFE"/>
<path d="M231.084 262.964C179.334 262.964 127.584 262.964 75.8337 262.964C73.4585 262.964 71.0314 263.138 68.7083 262.739C63.7673 261.89 61.0801 258.544 61.0281 253.724C60.9761 248.87 63.7153 245.558 68.5869 244.553C70.6673 244.119 72.9037 244.327 75.0708 244.327C178.797 244.327 282.505 244.327 386.231 244.327C388.398 244.327 390.617 244.119 392.715 244.535C397.586 245.472 400.291 248.575 400.308 253.585C400.308 258.561 397.794 261.82 392.853 262.722C390.548 263.155 388.103 262.964 385.728 262.964C334.186 262.964 282.661 262.964 231.119 262.964H231.084Z" fill="#FDFDFE"/>
<path d="M312.895 105.598C287.791 105.598 262.67 105.632 237.567 105.58C230.164 105.563 225.466 101.264 226.419 95.3171C227.338 89.544 231.014 86.8914 236.908 86.9261C251.835 87.0128 266.779 86.9608 281.724 86.9608C317.229 86.9608 352.718 86.9955 388.223 86.9261C392.765 86.9261 396.944 87.2902 399.319 91.8844C402.63 98.247 398.435 105.338 390.841 105.511C379.59 105.789 368.338 105.598 357.069 105.598C342.35 105.598 327.631 105.598 312.912 105.598H312.895Z" fill="#FDFDFE"/>
<path d="M123.071 499.23C106.427 499.23 89.7667 499.247 73.1234 499.23C65.2699 499.23 60.9183 495.866 60.8143 489.92C60.7103 483.939 65.0965 480.246 72.7767 480.228C106.514 480.176 140.251 480.176 173.989 480.228C181.391 480.228 185.518 483.713 185.604 489.556C185.708 495.606 181.374 499.195 173.677 499.212C156.808 499.264 139.939 499.212 123.071 499.212V499.23Z" fill="#FDFDFE"/>
<path d="M123.194 341.863C106.516 341.863 89.8555 341.88 73.1775 341.863C65.4453 341.863 60.9724 338.378 60.8684 332.466C60.7817 326.52 65.272 322.775 72.9348 322.758C106.273 322.706 139.612 322.706 172.968 322.758C180.683 322.758 185.26 326.398 185.329 332.224C185.398 338.291 180.752 341.846 172.552 341.863C156.099 341.88 139.647 341.863 123.194 341.863Z" fill="#FDFDFE"/>
<path d="M116.694 420.433C101.542 420.433 86.3897 420.433 71.2374 420.433C66.1057 420.433 62.3783 418.231 61.0954 413.117C60.0379 408.887 61.8236 405.541 65.3603 403.079C67.25 401.761 69.3997 401.657 71.5668 401.657C101.646 401.657 131.725 401.622 161.822 401.692C168.462 401.692 172.64 405.61 172.553 411.227C172.467 416.653 168.618 420.329 162.134 420.398C146.982 420.572 131.829 420.45 116.694 420.45V420.433Z" fill="#FDFDFE"/>
<path d="M269.585 301.418C281.929 305.579 292.088 300.551 301.797 293.842C304.588 291.917 307.05 292.524 309.651 294.032C313.014 295.992 316.291 298.124 319.793 299.806C325.15 302.371 330.749 303.724 336.748 302.163C343.024 300.534 348.138 301.522 351.207 308.162C355.402 317.281 363.117 322.239 372.531 324.684C377.177 325.88 379.379 328.134 379.379 333.248C379.379 343.286 383.384 351.816 391.168 358.213C395.658 361.889 397.028 365.772 394.462 371.164C389.937 380.734 390.214 390.442 394.601 399.977C396.872 404.918 395.658 408.732 391.619 411.94C383.072 418.77 379.188 427.768 379.223 438.569C379.223 442.192 377.281 444.446 374.074 445.157C362.129 447.792 354.293 455.316 348.762 465.718C347.046 468.96 344.688 469.342 341.186 468.7C331.547 466.915 322.22 467.591 314.002 473.849C308.558 477.993 303.167 478.669 297.498 473.971C289.488 467.331 279.883 467.053 270.348 468.492C266.222 469.116 263.691 468.631 261.888 464.903C256.756 454.276 248.435 447.636 236.906 445.088C233.646 444.377 232.381 442.487 232.242 439.124C231.774 428.08 228.255 418.372 219.187 411.316C215.408 408.386 214.507 404.901 216.552 400.463C221.355 390.043 220.973 379.52 216.431 369.153C214.767 365.356 215.564 362.565 218.615 359.981C227.162 352.769 231.861 343.546 232.138 332.364C232.242 328.117 234.114 325.845 237.876 324.944C249.145 322.222 257.12 315.565 262.044 305.128C263.587 301.869 266.309 301.089 269.568 301.418H269.585ZM234.843 385.05C233.768 423.573 266.101 456.183 305.299 456.304C344.931 456.426 376.484 424.752 376.692 385.102C376.917 344.534 342.192 314.143 305.715 314.126C268.06 314.108 233.612 346.407 234.843 385.05Z" fill="#20539C"/>
<path d="M384.544 502.661C371.484 500.465 362.365 505.58 357.187 518.004C351.309 507.776 345.848 498.258 339.59 487.37C351.916 489.121 359.787 484.094 365.474 474.957C366.913 472.634 368.161 473.588 369.218 475.495C374.159 484.302 379.135 493.109 384.544 502.679V502.661Z" fill="#20539C"/>
<path d="M228.289 501.675C231.687 492.035 237.738 483.818 242.627 474.976C244.291 471.977 245.4 474.525 246.215 475.791C251.798 484.685 259.634 489.054 271.752 487.129C265.546 497.965 260.067 507.552 254.433 517.382C251.867 514.799 251.642 512.094 250.792 509.719C247.706 501.172 244.343 499.196 235.605 500.981C233.299 501.449 230.924 501.64 228.584 501.952L228.289 501.657V501.675Z" fill="#20539C"/>
<path d="M228.57 501.951C228.327 502.107 228.084 502.246 227.824 502.402C227.98 502.159 228.136 501.917 228.275 501.674L228.552 501.951H228.57Z" fill="#669DEF"/>
<path d="M234.84 385.05C233.626 346.406 268.057 314.108 305.712 314.125C342.206 314.142 376.914 344.551 376.689 385.102C376.481 424.751 344.928 456.425 305.296 456.304C266.098 456.182 233.782 423.572 234.84 385.05ZM305.834 436.991C332.03 438.065 358.243 416.741 357.879 384.651C357.532 354.814 334.283 333.039 305.435 332.918C277.072 332.797 252.974 356.756 253.303 384.998C253.65 415.545 278.65 438.36 305.834 436.991Z" fill="#FDFDFE"/>
<path d="M305.838 436.989C278.654 438.359 253.654 415.543 253.308 384.996C252.996 356.755 277.076 332.795 305.439 332.916C334.288 333.038 357.536 354.813 357.883 384.649C358.247 416.74 332.034 438.064 305.838 436.989ZM301.018 409.51C304.451 409.701 307.104 408.349 309.184 405.956C317.558 396.352 325.966 386.782 334.132 377.004C338.275 372.028 337.876 366.914 333.664 363.204C329.433 359.494 323.712 360.135 319.413 364.989C316.257 368.543 313.189 372.167 310.259 375.912C304.492 383.239 297.794 384.349 290.166 379.24C284.809 375.652 279.798 376.068 276.348 380.385C272.742 384.909 273.28 389.452 278.533 393.924C283.942 398.553 289.68 402.801 295.28 407.187C296.996 408.522 298.799 409.77 301.001 409.493L301.018 409.51Z" fill="#20539C"/>
<path d="M301.016 409.51C298.797 409.77 297.011 408.539 295.295 407.204C289.677 402.818 283.956 398.553 278.547 393.941C273.294 389.451 272.739 384.926 276.363 380.401C279.795 376.084 284.823 375.668 290.18 379.257C297.831 384.377 304.529 383.268 310.273 375.928C313.203 372.201 316.272 368.56 319.427 365.006C323.727 360.152 329.448 359.493 333.678 363.221C337.891 366.931 338.307 372.045 334.146 377.021C325.981 386.799 317.572 396.368 309.199 405.973C307.118 408.348 304.466 409.718 301.033 409.527L301.016 409.51Z" fill="#FDFDFE"/>
</svg>
