<svg width="25" height="26" viewBox="0 0 25 26" fill="none" xmlns="http://www.w3.org/2000/svg">
<path d="M18.3813 14.8049C16.2105 14.8034 14.129 13.9403 12.594 12.4053C11.059 10.8703 10.196 8.78884 10.1944 6.61802C10.1927 6.24019 10.2189 5.86275 10.2728 5.48879H10.1944C10.0297 5.48879 9.86506 5.49663 9.70822 5.50447C9.34032 4.79194 8.78369 4.1942 8.09913 3.77655C7.41457 3.3589 6.62841 3.1374 5.8265 3.13623H5.4893C5.28151 3.13683 5.08239 3.21964 4.93546 3.36658C4.78853 3.51351 4.70572 3.71262 4.70512 3.92042V7.7394C3.78115 8.6357 3.09637 9.74914 2.71328 10.9781H1.56837C1.15279 10.9793 0.754576 11.1449 0.460714 11.4388C0.166851 11.7327 0.00122058 12.1309 0 12.5465L0 15.6832C0.00122058 16.0988 0.166851 16.497 0.460714 16.7909C0.754576 17.0847 1.15279 17.2504 1.56837 17.2516H2.71328C3.09637 18.4805 3.78115 19.594 4.70512 20.4903V23.5251C4.70634 23.9406 4.87197 24.3389 5.16583 24.6327C5.45969 24.9266 5.8579 25.0922 6.27349 25.0934H7.84186C8.25744 25.0922 8.65565 24.9266 8.94952 24.6327C9.24338 24.3389 9.40901 23.9406 9.41023 23.5251V22.7017C9.66901 22.7252 9.93564 22.7409 10.1944 22.7409H14.8995C15.1583 22.7409 15.4249 22.7252 15.6837 22.7017V23.5251C15.6849 23.9406 15.8506 24.3389 16.1444 24.6327C16.4383 24.9266 16.8365 25.0922 17.2521 25.0934H18.8205C19.236 25.0922 19.6343 24.9266 19.9281 24.6327C20.222 24.3389 20.3876 23.9406 20.3888 23.5251V20.4903C21.1331 19.7616 21.7246 18.8918 22.1285 17.9317C22.5325 16.9716 22.7408 15.9406 22.7414 14.899V13.5424C21.4375 14.3688 19.9251 14.8068 18.3813 14.8049ZM7.05767 11.7623C6.90258 11.7623 6.75096 11.7163 6.622 11.6301C6.49304 11.5439 6.39253 11.4215 6.33318 11.2782C6.27383 11.1349 6.2583 10.9772 6.28856 10.8251C6.31881 10.673 6.3935 10.5333 6.50317 10.4236C6.61284 10.3139 6.75257 10.2392 6.90469 10.209C7.0568 10.1787 7.21448 10.1942 7.35777 10.2536C7.50106 10.3129 7.62353 10.4135 7.7097 10.5424C7.79587 10.6714 7.84186 10.823 7.84186 10.9781C7.84126 11.1859 7.75845 11.385 7.61151 11.5319C7.46458 11.6789 7.26547 11.7617 7.05767 11.7623Z" fill="#1C529E"/>
<path d="M18.381 0C17.072 0 15.7923 0.38817 14.7039 1.11542C13.6155 1.84268 12.7672 2.87635 12.2663 4.08573C11.7653 5.2951 11.6342 6.62587 11.8896 7.90974C12.145 9.19361 12.7754 10.3729 13.701 11.2985C14.6266 12.2242 15.8059 12.8545 17.0898 13.1099C18.3736 13.3653 19.7044 13.2342 20.9138 12.7333C22.1232 12.2323 23.1568 11.384 23.8841 10.2956C24.6113 9.20717 24.9995 7.92755 24.9995 6.61853C24.9965 4.86411 24.2982 3.18241 23.0577 1.94184C21.8171 0.701279 20.1354 0.00300637 18.381 0ZM18.0046 5.83434H18.7652C19.2422 5.8347 19.7021 6.01161 20.0564 6.33096C20.4107 6.6503 20.6342 7.08949 20.6839 7.56385C20.7335 8.03822 20.6059 8.51418 20.3254 8.89999C20.045 9.28581 19.6317 9.55416 19.1652 9.65333V9.66901C19.1667 9.77199 19.148 9.87427 19.11 9.97C19.072 10.0657 19.0155 10.153 18.9438 10.227C18.8721 10.3009 18.7865 10.3599 18.6919 10.4008C18.5974 10.4416 18.4957 10.4634 18.3927 10.465C18.2898 10.4665 18.1875 10.4478 18.0918 10.4098C17.996 10.3718 17.9087 10.3153 17.8348 10.2436C17.7609 10.1719 17.7018 10.0863 17.661 9.99174C17.6202 9.89719 17.5983 9.79552 17.5968 9.69254H16.8597C16.6517 9.69254 16.4522 9.60992 16.3052 9.46285C16.1581 9.31579 16.0755 9.11633 16.0755 8.90835C16.0755 8.70037 16.1581 8.50091 16.3052 8.35385C16.4522 8.20678 16.6517 8.12416 16.8597 8.12416H18.7652C18.8609 8.12416 18.9527 8.08616 19.0203 8.01851C19.088 7.95086 19.126 7.85911 19.126 7.76344C19.126 7.66777 19.088 7.57602 19.0203 7.50837C18.9527 7.44072 18.8609 7.40271 18.7652 7.40271H18.0046C17.5287 7.40311 17.0694 7.22741 16.7153 6.90944C16.3612 6.59148 16.1373 6.15374 16.0867 5.68053C16.0361 5.20733 16.1623 4.73212 16.4411 4.34644C16.7199 3.96075 17.1316 3.69187 17.5968 3.59157V3.56805C17.5953 3.46507 17.614 3.36279 17.652 3.26706C17.69 3.17132 17.7464 3.08401 17.8182 3.0101C17.963 2.86083 18.1612 2.77522 18.3692 2.7721C18.5772 2.76898 18.7779 2.8486 18.9272 2.99346C19.0011 3.06519 19.0601 3.15077 19.101 3.24532C19.1418 3.33987 19.1636 3.44154 19.1652 3.54452H19.9101C20.1181 3.54452 20.3176 3.62714 20.4646 3.7742C20.6117 3.92127 20.6943 4.12073 20.6943 4.32871C20.6943 4.53668 20.6117 4.73615 20.4646 4.88321C20.3176 5.03027 20.1181 5.11289 19.9101 5.11289H18.0046C17.9572 5.11277 17.9102 5.12201 17.8664 5.1401C17.8226 5.15818 17.7827 5.18475 17.7492 5.21827C17.7157 5.25179 17.6891 5.29161 17.6711 5.33543C17.653 5.37925 17.6437 5.42621 17.6438 5.47362C17.6431 5.5212 17.6519 5.56846 17.6697 5.61258C17.6876 5.6567 17.7141 5.69678 17.7478 5.73044C17.7814 5.76409 17.8215 5.79063 17.8656 5.80848C17.9097 5.82633 17.957 5.83513 18.0046 5.83434Z" fill="#1C529E"/>
</svg>
