<svg width="121" height="61" viewBox="0 0 121 61" fill="none" xmlns="http://www.w3.org/2000/svg">
<path d="M8.65468 -0.000209622C10.6733 -0.00415365 12.6296 0.69888 14.1839 1.98686L60.4915 40.6917L106.885 3.36919C107.769 2.65154 108.786 2.11562 109.878 1.79223C110.969 1.46884 112.114 1.36435 113.246 1.48478C114.378 1.60521 115.475 1.94816 116.474 2.49395C117.473 3.03974 118.354 3.7776 119.067 4.6651C119.785 5.54881 120.321 6.56564 120.644 7.65715C120.967 8.74865 121.072 9.89331 120.952 11.0253C120.831 12.1573 120.488 13.2544 119.942 14.2534C119.397 15.2525 118.659 16.1338 117.771 16.8468L65.9344 58.5754C64.3885 59.8461 62.4494 60.5408 60.4483 60.5408C58.4472 60.5408 56.5081 59.8461 54.9623 58.5754L3.12542 15.378C2.2506 14.6528 1.52746 13.762 0.997412 12.7569C0.467363 11.7517 0.140821 10.6518 0.0364924 9.52024C-0.0678367 8.38867 0.052102 7.24763 0.389426 6.16248C0.726749 5.07733 1.27483 4.0694 2.00229 3.19639C2.80622 2.20533 3.81973 1.40467 4.96996 0.851967C6.12019 0.299259 7.37858 0.00822928 8.65468 -0.000209622Z" fill="#2F4264"/>
</svg>
