<svg width="121" height="61" viewBox="0 0 121 61" fill="none" xmlns="http://www.w3.org/2000/svg">
<path d="M8.65468 3.45184e-05C10.6733 -0.00390951 12.6296 0.699124 14.1839 1.98711L60.4915 40.6919L106.885 3.36943C107.769 2.65178 108.786 2.11586 109.878 1.79247C110.969 1.46908 112.114 1.3646 113.246 1.48502C114.378 1.60545 115.475 1.94841 116.474 2.4942C117.473 3.03999 118.354 3.77784 119.067 4.66535C119.785 5.54906 120.321 6.56589 120.644 7.65739C120.967 8.7489 121.072 9.89356 120.952 11.0256C120.831 12.1576 120.488 13.2547 119.942 14.2537C119.397 15.2527 118.659 16.134 117.771 16.847L65.9344 58.5756C64.3885 59.8463 62.4494 60.541 60.4483 60.541C58.4472 60.541 56.5081 59.8463 54.9623 58.5756L3.12542 15.3783C2.2506 14.653 1.52746 13.7623 0.997412 12.7571C0.467363 11.7519 0.140821 10.6521 0.0364924 9.52048C-0.0678367 8.38891 0.052102 7.24788 0.389426 6.16273C0.726749 5.07758 1.27483 4.06964 2.00229 3.19664C2.80622 2.20558 3.81973 1.40492 4.96996 0.852211C6.12019 0.299504 7.37858 0.00847342 8.65468 3.45184e-05Z" fill="white"/>
</svg>
