<svg width="50" height="50" viewBox="0 0 50 50" fill="none" xmlns="http://www.w3.org/2000/svg">
<path d="M27.5837 39.6551H29.3079V44.8275H27.5837V39.6551Z" fill="white"/>
<path d="M19.4358 42.2405H8.14355C8.6765 43.2791 9.48558 44.1506 10.4818 44.7591C11.478 45.3676 12.6227 45.6896 13.7901 45.6896C14.9575 45.6896 16.1022 45.3676 17.0984 44.7591C18.0946 44.1506 18.9029 43.2791 19.4358 42.2405Z" fill="white"/>
<path d="M21.5487 39.6548C21.5487 39.4261 21.4579 39.2069 21.2962 39.0452C21.1346 38.8835 20.9153 38.7927 20.6867 38.7927H6.89356C6.66493 38.7927 6.44566 38.8835 6.28399 39.0452C6.12232 39.2069 6.03149 39.4261 6.03149 39.6548C6.03149 39.8834 6.12232 40.1027 6.28399 40.2644C6.44566 40.426 6.66493 40.5168 6.89356 40.5168H20.6867C20.9153 40.5168 21.1346 40.426 21.2962 40.2644C21.4579 40.1027 21.5487 39.8834 21.5487 39.6548Z" fill="white"/>
<path d="M7.90789 31.5331L8.42513 33.6193H19.151L19.6682 31.5382C19.7536 31.2036 19.9048 30.8894 20.1129 30.6138C20.321 30.3382 20.5819 30.1068 20.8803 29.9331C23.0531 28.6342 24.8257 26.7616 26.0036 24.521C27.1815 22.2803 27.719 19.7584 27.557 17.2322C27.3141 13.8845 25.8716 10.7368 23.4944 8.36724C21.1172 5.99764 17.965 4.56523 14.6165 4.33307C11.5349 4.14878 8.48054 5.00361 5.94228 6.76075C3.40402 8.51789 1.52861 11.0757 0.616199 14.0249C-0.296215 16.9742 -0.192878 20.1442 0.909671 23.0277C2.01222 25.9112 4.05024 28.3415 6.69754 29.9296C6.99501 30.1039 7.25509 30.3353 7.4628 30.6105C7.67052 30.8857 7.82178 31.1992 7.90789 31.5331ZM4.0372 22.9788L5.10703 21.9081C5.05358 21.7891 5.00444 21.6701 4.95703 21.5503H3.44496C3.21632 21.5503 2.99705 21.4595 2.83538 21.2978C2.67371 21.1361 2.58289 20.9169 2.58289 20.6882V15.5158C2.58289 15.2872 2.67371 15.0679 2.83538 14.9062C2.99705 14.7446 3.21632 14.6538 3.44496 14.6538H4.95703C5.00444 14.5339 5.05358 14.415 5.10703 14.296L4.0372 13.2253C3.87559 13.0636 3.7848 12.8444 3.7848 12.6158C3.7848 12.3872 3.87559 12.168 4.0372 12.0063L7.69409 8.34945C7.8588 8.19369 8.07689 8.10691 8.30358 8.10691C8.53026 8.10691 8.74835 8.19369 8.91306 8.34945L9.98289 9.41927C10.1027 9.36669 10.2217 9.31669 10.3415 9.26841V7.7572C10.3415 7.52857 10.4323 7.3093 10.594 7.14763C10.7557 6.98596 10.9749 6.89513 11.2036 6.89513H16.376C16.6046 6.89513 16.8239 6.98596 16.9856 7.14763C17.1472 7.3093 17.2381 7.52857 17.2381 7.7572V9.26841C17.3579 9.31669 17.4769 9.36669 17.5967 9.41927L18.6665 8.34945C18.8312 8.19369 19.0493 8.10691 19.276 8.10691C19.5027 8.10691 19.7208 8.19369 19.8855 8.34945L23.5424 12.0063C23.704 12.168 23.7948 12.3872 23.7948 12.6158C23.7948 12.8444 23.704 13.0636 23.5424 13.2253L22.4725 14.296C22.526 14.415 22.5751 14.5339 22.6225 14.6538H24.1346C24.3632 14.6538 24.5825 14.7446 24.7442 14.9062C24.9059 15.0679 24.9967 15.2872 24.9967 15.5158V20.6882C24.9967 20.9169 24.9059 21.1361 24.7442 21.2978C24.5825 21.4595 24.3632 21.5503 24.1346 21.5503H22.6225C22.5751 21.6701 22.526 21.7891 22.4725 21.9081L23.5424 22.9788C23.704 23.1404 23.7948 23.3596 23.7948 23.5882C23.7948 23.8168 23.704 24.0361 23.5424 24.1977L19.8855 27.8546C19.7208 28.0104 19.5027 28.0972 19.276 28.0972C19.0493 28.0972 18.8312 28.0104 18.6665 27.8546L17.5967 26.7848C17.4769 26.8382 17.3579 26.8874 17.2381 26.9348V28.4469C17.2381 28.6755 17.1472 28.8948 16.9856 29.0564C16.8239 29.2181 16.6046 29.3089 16.376 29.3089H11.2036C10.9749 29.3089 10.7557 29.2181 10.594 29.0564C10.4323 28.8948 10.3415 28.6755 10.3415 28.4469V26.9348C10.2217 26.8874 10.1027 26.8382 9.98289 26.7848L8.91306 27.8546C8.74835 28.0104 8.53026 28.0972 8.30358 28.0972C8.07689 28.0972 7.8588 28.0104 7.69409 27.8546L4.0372 24.1977C3.87559 24.0361 3.7848 23.8168 3.7848 23.5882C3.7848 23.3596 3.87559 23.1404 4.0372 22.9788Z" fill="white"/>
<path d="M13.7896 22.4134C16.1701 22.4134 18.0999 20.4836 18.0999 18.1031C18.0999 15.7225 16.1701 13.7927 13.7896 13.7927C11.4091 13.7927 9.47925 15.7225 9.47925 18.1031C9.47925 20.4836 11.4091 22.4134 13.7896 22.4134Z" fill="white"/>
<path d="M6.03149 36.207C6.03149 36.4356 6.12232 36.6549 6.28399 36.8166C6.44566 36.9783 6.66493 37.0691 6.89356 37.0691H20.6867C20.9153 37.0691 21.1346 36.9783 21.2962 36.8166C21.4579 36.6549 21.5487 36.4356 21.5487 36.207C21.5487 35.9784 21.4579 35.7591 21.2962 35.5974C21.1346 35.4358 20.9153 35.3449 20.6867 35.3449H6.89356C6.66493 35.3449 6.44566 35.4358 6.28399 35.5974C6.12232 35.7591 6.03149 35.9784 6.03149 36.207Z" fill="white"/>
<path d="M34.4792 36.2073H36.2034V44.828H34.4792V36.2073Z" fill="white"/>
<path d="M5.86551 23.5909L8.30344 26.0288L9.19654 25.1357C9.32634 25.0059 9.49416 24.921 9.67557 24.8933C9.85698 24.8655 10.0425 24.8964 10.2052 24.9814C10.6083 25.193 11.0291 25.369 11.4629 25.5072C11.6379 25.5623 11.7908 25.6717 11.8993 25.8196C12.0079 25.9675 12.0664 26.1462 12.0664 26.3296V27.5874H15.5146V26.3296C15.5146 26.1462 15.5731 25.9675 15.6817 25.8196C15.7902 25.6717 15.9431 25.5623 16.1181 25.5072C16.5519 25.369 16.9727 25.193 17.3758 24.9814C17.5385 24.8964 17.724 24.8655 17.9054 24.8933C18.0868 24.921 18.2547 25.0059 18.3845 25.1357L19.2776 26.0288L21.7155 23.5909L20.8224 22.6977C20.6927 22.5679 20.6077 22.4001 20.58 22.2187C20.5522 22.0373 20.5831 21.8518 20.6681 21.6891C20.8796 21.2862 21.0555 20.8657 21.194 20.4322C21.249 20.2572 21.3584 20.1043 21.5063 19.9958C21.6542 19.8873 21.8329 19.8288 22.0164 19.8288H23.2724V16.3805H22.0146C21.8312 16.3805 21.6525 16.322 21.5046 16.2135C21.3567 16.1049 21.2473 15.9521 21.1922 15.7771C21.0538 15.3436 20.8779 14.923 20.6664 14.5202C20.5814 14.3575 20.5505 14.172 20.5783 13.9906C20.606 13.8092 20.6909 13.6413 20.8207 13.5115L21.7138 12.6184L19.2759 10.1805L18.3827 11.0736C18.2529 11.2033 18.0851 11.2883 17.9037 11.316C17.7223 11.3438 17.5368 11.3129 17.3741 11.2279C16.9712 11.0159 16.5503 10.8399 16.1164 10.7021C15.9414 10.647 15.7885 10.5376 15.68 10.3897C15.5714 10.2418 15.5129 10.0631 15.5129 9.87965V8.62189H12.0655V9.87965C12.0655 10.0631 12.007 10.2418 11.8985 10.3897C11.7899 10.5376 11.6371 10.647 11.4621 10.7021C11.0281 10.8399 10.6072 11.0159 10.2043 11.2279C10.0416 11.3129 9.85611 11.3438 9.67471 11.316C9.4933 11.2883 9.32548 11.2033 9.19568 11.0736L8.30257 10.1805L5.86551 12.6184L6.75861 13.5115C6.88834 13.6413 6.97326 13.8092 7.00101 13.9906C7.02877 14.172 6.99791 14.3575 6.91292 14.5202C6.70143 14.923 6.52547 15.3436 6.38706 15.7771C6.33202 15.9521 6.22259 16.1049 6.07468 16.2135C5.92677 16.322 5.7481 16.3805 5.56464 16.3805H4.30688V19.8288H5.56464C5.7481 19.8288 5.92677 19.8873 6.07468 19.9958C6.22259 20.1043 6.33202 20.2572 6.38706 20.4322C6.52547 20.8657 6.70143 21.2862 6.91292 21.6891C6.99791 21.8518 7.02877 22.0373 7.00101 22.2187C6.97326 22.4001 6.88834 22.5679 6.75861 22.6977L5.86551 23.5909ZM13.7896 12.0702C14.9832 12.0702 16.1499 12.4241 17.1422 13.0872C18.1346 13.7502 18.908 14.6927 19.3648 15.7953C19.8215 16.898 19.941 18.1113 19.7082 19.2819C19.4753 20.4525 18.9006 21.5277 18.0567 22.3717C17.2127 23.2156 16.1375 23.7903 14.9669 24.0232C13.7963 24.256 12.583 24.1365 11.4803 23.6798C10.3777 23.223 9.43523 22.4496 8.77215 21.4572C8.10908 20.4649 7.75516 19.2982 7.75516 18.1046C7.75699 16.5048 8.39335 14.9709 9.52464 13.8396C10.6559 12.7083 12.1898 12.072 13.7896 12.0702Z" fill="white"/>
<path d="M34.4792 4.31012H46.5482V7.7584H34.4792V4.31012Z" fill="white"/>
<path d="M15.5142 0V2.69828C19.1256 3.1351 22.4731 4.81329 24.9838 7.44572C27.4945 10.0782 29.0125 13.5012 29.278 17.1293C29.4601 19.9704 28.8555 22.8067 27.5307 25.3266C26.2059 27.8464 24.2122 29.9524 21.7685 31.4129C21.6652 31.471 21.5746 31.5489 21.5018 31.6423C21.429 31.7357 21.3754 31.8426 21.3443 31.9569L20.9219 33.6448C21.3996 33.6846 21.8566 33.8574 22.241 34.1438C22.6254 34.4302 22.9219 34.8186 23.0967 35.265C23.2714 35.7113 23.3176 36.1977 23.2299 36.669C23.1421 37.1402 22.9241 37.5775 22.6004 37.931C22.8992 38.2574 23.1084 38.6556 23.2077 39.0868C23.307 39.518 23.2931 39.9676 23.1671 40.3918C23.0412 40.816 22.8076 41.2004 22.4891 41.5076C22.1706 41.8148 21.778 42.0343 21.3495 42.1448C20.8944 43.4211 20.1185 44.5587 19.0966 45.4484C18.0746 46.3381 16.8409 46.9499 15.5142 47.225V50H49.9969V0H15.5142ZM32.7555 12.069H43.1004V13.7931H32.7555V12.069ZM32.7555 15.5172H43.1004V17.2414H32.7555V15.5172ZM32.7555 18.9655H43.1004V20.6897H32.7555V18.9655ZM48.2728 45.6897C48.2728 45.9183 48.182 46.1376 48.0203 46.2992C47.8586 46.4609 47.6393 46.5517 47.4107 46.5517H24.1348V44.8276H25.859V38.7931C25.859 38.5645 25.9498 38.3452 26.1115 38.1835C26.2732 38.0219 26.4924 37.931 26.7211 37.931H30.1693C30.398 37.931 30.6172 38.0219 30.7789 38.1835C30.9406 38.3452 31.0314 38.5645 31.0314 38.7931V44.8276H32.7555V35.3448C32.7555 35.1162 32.8464 34.8969 33.008 34.7353C33.1697 34.5736 33.389 34.4828 33.6176 34.4828H37.0659C37.2945 34.4828 37.5138 34.5736 37.6755 34.7353C37.8371 34.8969 37.928 35.1162 37.928 35.3448V44.8276H39.6521V31.8966C39.6521 31.6679 39.7429 31.4486 39.9046 31.287C40.0663 31.1253 40.2855 31.0345 40.5142 31.0345H43.9624C44.1911 31.0345 44.4103 31.1253 44.572 31.287C44.7337 31.4486 44.8245 31.6679 44.8245 31.8966V44.8276H46.5486V28.4483H48.2728V45.6897ZM48.2728 20.6897H44.8245V18.9655H48.2728V20.6897ZM48.2728 17.2414H44.8245V15.5172H48.2728V17.2414ZM48.2728 13.7931H44.8245V12.069H48.2728V13.7931ZM48.2728 8.62069C48.2728 8.84932 48.182 9.06859 48.0203 9.23026C47.8586 9.39193 47.6393 9.48276 47.4107 9.48276H33.6176C33.389 9.48276 33.1697 9.39193 33.008 9.23026C32.8464 9.06859 32.7555 8.84932 32.7555 8.62069V3.44828C32.7555 3.21964 32.8464 3.00037 33.008 2.8387C33.1697 2.67703 33.389 2.58621 33.6176 2.58621H47.4107C47.6393 2.58621 47.8586 2.67703 48.0203 2.8387C48.182 3.00037 48.2728 3.21964 48.2728 3.44828V8.62069Z" fill="white"/>
<path d="M41.3765 32.7595H43.1006V44.8285H41.3765V32.7595Z" fill="white"/>
</svg>
