<svg width="83" height="83" viewBox="0 0 83 83" fill="none" xmlns="http://www.w3.org/2000/svg">
<circle cx="41.5" cy="41.5" r="41.5" fill="url(#paint0_radial_2141_3)"/>
<path d="M63.1987 44.2931L61.5349 51.8103C61.4922 51.9677 61.4124 52.1125 61.3021 52.2327L56.1297 57.4051C55.9667 57.566 55.7467 57.6558 55.5177 57.6551C55.4046 57.6581 55.2924 57.6345 55.1901 57.5862C55.0318 57.5228 54.8962 57.4133 54.8008 57.2718C54.7055 57.1304 54.6549 56.9636 54.6556 56.7931V46.612L53.2073 43H46.897C46.7103 43.001 46.5285 42.9404 46.3797 42.8276L42.9314 40.2414C42.7503 40.102 42.6299 39.8982 42.5952 39.6724L41.7332 33.6379C41.7159 33.5055 41.7286 33.3709 41.7704 33.244C41.8122 33.1172 41.8819 33.0014 41.9746 32.9051L46.0349 28.8534V26.9741L44.5608 25.5086C44.4328 25.3795 44.3489 25.2134 44.321 25.0338C44.2931 24.8542 44.3227 24.6704 44.4056 24.5086L46.1297 21.0603C46.2198 20.8694 46.3805 20.721 46.578 20.6465L49.3366 19.5431C46.2897 18.3967 43.042 17.8798 39.7898 18.0235C36.5375 18.1672 33.3481 18.9686 30.4142 20.3793L33.4056 21.5C33.5701 21.5624 33.7118 21.6732 33.8118 21.818C33.9119 21.9627 33.9657 22.1344 33.9659 22.3103V27.4827C33.9668 27.6325 33.9282 27.7799 33.854 27.91C33.7799 28.0401 33.6728 28.1485 33.5435 28.2241L25.2504 33.1983L24.4659 37.1379C24.4392 37.2672 24.3834 37.3888 24.3028 37.4933C24.2221 37.5979 24.1187 37.6827 24.0004 37.7414C23.8805 37.7993 23.7489 37.8286 23.6158 37.8271C23.4827 37.8256 23.3517 37.7933 23.2332 37.7327L20.6728 36.4569L20.259 37.6983L23.3021 42.2586L29.0263 43.8965C29.2396 43.9552 29.4219 44.0942 29.5349 44.2845L31.9056 48.2327L38.3797 49.0431C38.5006 49.0579 38.617 49.0981 38.7212 49.1611C38.8254 49.2241 38.915 49.3085 38.9843 49.4087C39.0535 49.5089 39.1007 49.6226 39.1228 49.7423C39.1449 49.8621 39.1414 49.9851 39.1125 50.1034L38.2504 53.5517C38.2225 53.6723 38.1663 53.7846 38.0866 53.8793L34.7677 58.0258L33.9918 61.931L35.0263 65.5603C38.5541 66.4384 42.2347 66.5083 45.7933 65.7648C49.3519 65.0213 52.6966 63.4835 55.5777 61.2663C58.4588 59.0492 60.8019 56.2098 62.432 52.9603C64.0621 49.7108 64.9371 46.135 64.9918 42.5L63.1987 44.2931Z" fill="white"/>
<path d="M37.2073 50.6298L31.2762 49.8884C31.1453 49.8728 31.0198 49.8274 30.9092 49.7557C30.7986 49.6839 30.7059 49.5878 30.6383 49.4746L28.2331 45.4574L22.5262 43.8281C22.3271 43.7741 22.155 43.6482 22.0435 43.4746L18.5952 38.3022C18.5213 38.1936 18.4736 38.0694 18.4556 37.9393C18.4377 37.8092 18.45 37.6768 18.4917 37.5522L19.3538 34.966C19.3946 34.8498 19.4596 34.7435 19.5446 34.6543C19.6295 34.5651 19.7325 34.4949 19.8466 34.4484C19.9607 34.402 20.0833 34.3803 20.2064 34.3848C20.3296 34.3893 20.4503 34.4199 20.5607 34.4746L23.0004 35.6902L23.6383 32.4833C23.6616 32.3651 23.7097 32.2532 23.7796 32.1551C23.8495 32.057 23.9394 31.9749 24.0435 31.9143L32.2417 26.9919V22.9057L28.4055 21.4746C25.4103 23.284 22.8433 25.7216 20.8817 28.6194C18.9201 31.5172 17.6105 34.8061 17.0435 38.2591L18.3366 40.8453L21.7504 45.9746C21.8462 46.1141 21.8973 46.2795 21.8969 46.4488V50.4746L24.19 53.5264L27.4573 55.1643C27.6468 55.2604 27.7941 55.4231 27.871 55.6212L31.19 64.2505C31.8021 64.5177 32.4314 64.7591 33.0693 64.9746L32.2762 62.1988C32.236 62.0674 32.23 61.9279 32.259 61.7936L33.121 57.4833C33.148 57.3503 33.2072 57.226 33.2935 57.1212L36.621 52.9574L37.2073 50.6298Z" fill="white"/>
<path d="M46.2241 24.7244L47.5086 26.0089C47.6674 26.1733 47.7569 26.3924 47.7586 26.621V29.2072C47.7569 29.4357 47.6674 29.6549 47.5086 29.8193L43.5 33.8193L44.25 39.0779L47.181 41.2762H53.7931C53.9658 41.276 54.1345 41.3277 54.2774 41.4245C54.4204 41.5213 54.5309 41.6589 54.5948 41.8193L56.319 46.1296C56.3605 46.2308 56.381 46.3393 56.3793 46.4486V54.7158L59.9052 51.19L61.569 43.6727C61.6117 43.5153 61.6915 43.3705 61.8017 43.2503L64.9138 40.1469C64.5649 36.0014 63.1527 32.0161 60.8134 28.576C58.4742 25.1359 55.2872 22.3574 51.5603 20.5089L47.5172 22.1296L46.2241 24.7244Z" fill="white"/>
<path d="M23.2327 54.9741C23.1124 54.918 23.0085 54.8319 22.931 54.7241L20.3448 51.2759C20.232 51.1271 20.1714 50.9453 20.1724 50.7586V46.7069L16.8707 41.75C16.8503 41.7233 16.833 41.6944 16.8189 41.6638L16.7414 41.5086C16.7327 41.7241 16.7241 41.931 16.7241 42.1379C16.7268 46.3927 17.8541 50.5711 19.9917 54.2499C22.1293 57.9287 25.2013 60.9771 28.8965 63.0862L26.3879 56.5517L23.2327 54.9741Z" fill="white"/>
<path d="M63.2761 21.4483C64.2284 21.4483 65.0003 20.6764 65.0003 19.7241C65.0003 18.7719 64.2284 18 63.2761 18C62.3239 18 61.552 18.7719 61.552 19.7241C61.552 20.6764 62.3239 21.4483 63.2761 21.4483Z" fill="white"/>
<path d="M64.1382 62.8279H63.2762V61.9659C63.2762 61.7372 63.1853 61.5179 63.0237 61.3563C62.862 61.1946 62.6427 61.1038 62.4141 61.1038C62.1855 61.1038 61.9662 61.1946 61.8045 61.3563C61.6428 61.5179 61.552 61.7372 61.552 61.9659V62.8279H60.6899C60.4613 62.8279 60.242 62.9187 60.0804 63.0804C59.9187 63.2421 59.8279 63.4614 59.8279 63.69C59.8279 63.9186 59.9187 64.1379 60.0804 64.2996C60.242 64.4612 60.4613 64.5521 60.6899 64.5521H61.552V65.4141C61.552 65.6428 61.6428 65.862 61.8045 66.0237C61.9662 66.1854 62.1855 66.2762 62.4141 66.2762C62.6427 66.2762 62.862 66.1854 63.0237 66.0237C63.1853 65.862 63.2762 65.6428 63.2762 65.4141V64.5521H64.1382C64.3669 64.5521 64.5861 64.4612 64.7478 64.2996C64.9095 64.1379 65.0003 63.9186 65.0003 63.69C65.0003 63.4614 64.9095 63.2421 64.7478 63.0804C64.5861 62.9187 64.3669 62.8279 64.1382 62.8279Z" fill="white"/>
<path d="M17.5862 21.4483H18.4483V22.3103C18.4483 22.539 18.5391 22.7583 18.7008 22.9199C18.8624 23.0816 19.0817 23.1724 19.3103 23.1724C19.539 23.1724 19.7582 23.0816 19.9199 22.9199C20.0816 22.7583 20.1724 22.539 20.1724 22.3103V21.4483H21.0345C21.2631 21.4483 21.4824 21.3575 21.644 21.1958C21.8057 21.0341 21.8965 20.8148 21.8965 20.5862C21.8965 20.3576 21.8057 20.1383 21.644 19.9766C21.4824 19.815 21.2631 19.7241 21.0345 19.7241H20.1724V18.8621C20.1724 18.6334 20.0816 18.4142 19.9199 18.2525C19.7582 18.0908 19.539 18 19.3103 18C19.0817 18 18.8624 18.0908 18.7008 18.2525C18.5391 18.4142 18.4483 18.6334 18.4483 18.8621V19.7241H17.5862C17.3576 19.7241 17.1383 19.815 16.9766 19.9766C16.8149 20.1383 16.7241 20.3576 16.7241 20.5862C16.7241 20.8148 16.8149 21.0341 16.9766 21.1958C17.1383 21.3575 17.3576 21.4483 17.5862 21.4483Z" fill="white"/>
<path d="M19.3103 60.2418H18.4483V59.3798C18.4483 59.1511 18.3575 58.9319 18.1958 58.7702C18.0341 58.6085 17.8148 58.5177 17.5862 58.5177C17.3576 58.5177 17.1383 58.6085 16.9766 58.7702C16.815 58.9319 16.7241 59.1511 16.7241 59.3798V60.2418H15.8621C15.6334 60.2418 15.4142 60.3327 15.2525 60.4943C15.0908 60.656 15 60.8753 15 61.1039C15 61.3325 15.0908 61.5518 15.2525 61.7135C15.4142 61.8752 15.6334 61.966 15.8621 61.966H16.7241V62.828C16.7241 63.0567 16.815 63.276 16.9766 63.4376C17.1383 63.5993 17.3576 63.6901 17.5862 63.6901C17.8148 63.6901 18.0341 63.5993 18.1958 63.4376C18.3575 63.276 18.4483 63.0567 18.4483 62.828V61.966H19.3103C19.539 61.966 19.7583 61.8752 19.9199 61.7135C20.0816 61.5518 20.1724 61.3325 20.1724 61.1039C20.1724 60.8753 20.0816 60.656 19.9199 60.4943C19.7583 60.3327 19.539 60.2418 19.3103 60.2418Z" fill="white"/>
<path d="M24.4825 64.552H23.6204V63.6899C23.6204 63.4613 23.5296 63.242 23.3679 63.0803C23.2062 62.9187 22.987 62.8278 22.7583 62.8278C22.5297 62.8278 22.3104 62.9187 22.1488 63.0803C21.9871 63.242 21.8963 63.4613 21.8963 63.6899V64.552H21.0342C20.8056 64.552 20.5863 64.6428 20.4246 64.8045C20.2629 64.9661 20.1721 65.1854 20.1721 65.414C20.1721 65.6427 20.2629 65.8619 20.4246 66.0236C20.5863 66.1853 20.8056 66.2761 21.0342 66.2761H21.8963V67.1382C21.8963 67.3668 21.9871 67.5861 22.1488 67.7478C22.3104 67.9094 22.5297 68.0002 22.7583 68.0002C22.987 68.0002 23.2062 67.9094 23.3679 67.7478C23.5296 67.5861 23.6204 67.3668 23.6204 67.1382V66.2761H24.4825C24.7111 66.2761 24.9304 66.1853 25.092 66.0236C25.2537 65.8619 25.3445 65.6427 25.3445 65.414C25.3445 65.1854 25.2537 64.9661 25.092 64.8045C24.9304 64.6428 24.7111 64.552 24.4825 64.552Z" fill="white"/>
<defs>
<radialGradient id="paint0_radial_2141_3" cx="0" cy="0" r="1" gradientUnits="userSpaceOnUse" gradientTransform="translate(41.5 41.5) rotate(90) scale(41.5)">
<stop stop-color="#00B3FF"/>
<stop offset="1" stop-color="#1C529F"/>
</radialGradient>
</defs>
</svg>
