<svg width="55" height="55" viewBox="0 0 55 55" fill="none" xmlns="http://www.w3.org/2000/svg">
<circle cx="27.1363" cy="27.1363" r="27.1363" fill="url(#paint0_radial_873_356)" style=""/>
<path d="M41.3245 28.9642L40.2366 33.8796C40.2087 33.9825 40.1565 34.0773 40.0844 34.1558L36.7022 37.538C36.5956 37.6432 36.4518 37.7019 36.302 37.7015C36.2281 37.7034 36.1547 37.688 36.0878 37.6564C35.9843 37.6149 35.8956 37.5433 35.8333 37.4509C35.771 37.3584 35.7379 37.2493 35.7383 37.1378V30.4805L34.7913 28.1187H30.665C30.543 28.1193 30.4241 28.0797 30.3268 28.0059L28.072 26.3148C27.9536 26.2237 27.8749 26.0905 27.8522 25.9428L27.2885 21.9969C27.2772 21.9103 27.2855 21.8223 27.3128 21.7394C27.3402 21.6564 27.3858 21.5807 27.4463 21.5178L30.1013 18.8684V17.6395L29.1374 16.6813C29.0537 16.5969 28.9989 16.4882 28.9807 16.3708C28.9624 16.2533 28.9818 16.1332 29.036 16.0274L30.1634 13.7726C30.2222 13.6478 30.3273 13.5507 30.4565 13.502L32.2603 12.7805C30.268 12.0309 28.1444 11.6929 26.0177 11.7868C23.8911 11.8808 21.8056 12.4048 19.8872 13.3273L21.8432 14.0601C21.9508 14.1009 22.0434 14.1734 22.1088 14.268C22.1743 14.3626 22.2094 14.4749 22.2096 14.59V17.9721C22.2101 18.0701 22.1849 18.1664 22.1364 18.2515C22.0879 18.3366 22.0179 18.4074 21.9334 18.4569L16.5106 21.7094L15.9977 24.2855C15.9802 24.3701 15.9437 24.4496 15.891 24.5179C15.8382 24.5863 15.7706 24.6418 15.6933 24.6801C15.6149 24.718 15.5288 24.7372 15.4418 24.7362C15.3547 24.7352 15.2691 24.7141 15.1916 24.6745L13.5174 23.8402L13.2468 24.6519L15.2367 27.6339L18.9796 28.7049C19.1191 28.7433 19.2383 28.8342 19.3122 28.9586L20.8624 31.5403L25.0957 32.0702C25.1748 32.0798 25.2509 32.1061 25.319 32.1473C25.3871 32.1886 25.4458 32.2437 25.491 32.3092C25.5363 32.3747 25.5672 32.4491 25.5816 32.5274C25.5961 32.6057 25.5938 32.6862 25.5749 32.7635L25.0112 35.0183C24.9929 35.0972 24.9562 35.1706 24.9041 35.2325L22.7338 37.9439L22.2265 40.4974L22.9029 42.8706C25.2097 43.4448 27.6164 43.4905 29.9434 43.0043C32.2703 42.5181 34.4574 41.5126 36.3413 40.0628C38.2252 38.613 39.7573 36.7564 40.8232 34.6316C41.8891 32.5068 42.4613 30.1686 42.497 27.7917L41.3245 28.9642Z" fill="white" style="fill:white;fill-opacity:1;"/>
<path d="M24.3293 33.1072L20.451 32.6224C20.3654 32.6122 20.2833 32.5825 20.211 32.5356C20.1387 32.4887 20.0781 32.4258 20.0339 32.3518L18.4612 29.725L14.7295 28.6596C14.5993 28.6243 14.4868 28.542 14.4138 28.4285L12.1591 25.0463C12.1108 24.9753 12.0796 24.8941 12.0678 24.809C12.0561 24.724 12.0642 24.6373 12.0914 24.5559L12.6551 22.8648C12.6818 22.7888 12.7243 22.7193 12.7799 22.661C12.8354 22.6026 12.9027 22.5568 12.9773 22.5264C13.0519 22.496 13.1321 22.4818 13.2126 22.4848C13.2931 22.4877 13.3721 22.5077 13.4443 22.5435L15.0396 23.3383L15.4567 21.2414C15.4719 21.1641 15.5034 21.091 15.5491 21.0268C15.5948 20.9627 15.6536 20.909 15.7216 20.8693L21.0824 17.6506V14.9787L18.5739 14.043C16.6154 15.2261 14.9369 16.82 13.6542 18.7149C12.3715 20.6097 11.5152 22.7602 11.1444 25.0181L11.99 26.7092L14.2222 30.0632C14.2849 30.1544 14.3183 30.2626 14.318 30.3733V33.0057L15.8175 35.0012L17.9539 36.0722C18.0778 36.1351 18.1741 36.2414 18.2244 36.371L20.3947 42.0136C20.7949 42.1883 21.2064 42.3462 21.6235 42.4871L21.1049 40.672C21.0786 40.5861 21.0747 40.4949 21.0936 40.407L21.6573 37.5886C21.675 37.5016 21.7137 37.4203 21.7701 37.3518L23.946 34.6292L24.3293 33.1072Z" fill="white" style="fill:white;fill-opacity:1;"/>
<path d="M30.2253 16.1686L31.0652 17.0085C31.169 17.116 31.2275 17.2593 31.2286 17.4087V19.0998C31.2275 19.2492 31.169 19.3925 31.0652 19.5L28.444 22.1156L28.9344 25.5541L30.851 26.9916H35.1745C35.2874 26.9914 35.3977 27.0252 35.4912 27.0886C35.5847 27.1519 35.657 27.2418 35.6987 27.3467L36.8261 30.1652C36.8533 30.2313 36.8667 30.3023 36.8656 30.3737V35.7796L39.1711 33.4741L40.259 28.5586C40.287 28.4557 40.3392 28.361 40.4112 28.2824L42.4462 26.2531C42.2181 23.5425 41.2946 20.9365 39.765 18.6871C38.2354 16.4376 36.1515 14.6208 33.7145 13.4121L31.0708 14.4719L30.2253 16.1686Z" fill="white" style="fill:white;fill-opacity:1;"/>
<path d="M15.1916 35.9475C15.1129 35.9108 15.045 35.8545 14.9943 35.784L13.3032 33.5293C13.2294 33.432 13.1898 33.3131 13.1905 33.191V30.5417L11.0315 27.3004C11.0182 27.2829 11.0068 27.264 10.9977 27.244L10.9469 27.1426C10.9413 27.2835 10.9357 27.4188 10.9357 27.5541C10.9374 30.3362 11.6745 33.0684 13.0723 35.4739C14.4701 37.8795 16.4788 39.8728 18.8951 41.2519L17.2547 36.9791L15.1916 35.9475Z" fill="white" style="fill:white;fill-opacity:1;"/>
<path d="M41.3752 14.0263C41.9978 14.0263 42.5026 13.5215 42.5026 12.8989C42.5026 12.2762 41.9978 11.7715 41.3752 11.7715C40.7526 11.7715 40.2478 12.2762 40.2478 12.8989C40.2478 13.5215 40.7526 14.0263 41.3752 14.0263Z" fill="white" style="fill:white;fill-opacity:1;"/>
<path d="M41.939 41.0844H41.3753V40.5207C41.3753 40.3712 41.3159 40.2278 41.2102 40.1221C41.1045 40.0164 40.9611 39.957 40.8116 39.957C40.6621 39.957 40.5187 40.0164 40.413 40.1221C40.3073 40.2278 40.2479 40.3712 40.2479 40.5207V41.0844H39.6842C39.5347 41.0844 39.3913 41.1438 39.2856 41.2495C39.1799 41.3552 39.1205 41.4986 39.1205 41.6481C39.1205 41.7976 39.1799 41.941 39.2856 42.0467C39.3913 42.1524 39.5347 42.2118 39.6842 42.2118H40.2479V42.7755C40.2479 42.925 40.3073 43.0684 40.413 43.1741C40.5187 43.2798 40.6621 43.3392 40.8116 43.3392C40.9611 43.3392 41.1045 43.2798 41.2102 43.1741C41.3159 43.0684 41.3753 42.925 41.3753 42.7755V42.2118H41.939C42.0885 42.2118 42.2318 42.1524 42.3376 42.0467C42.4433 41.941 42.5027 41.7976 42.5027 41.6481C42.5027 41.4986 42.4433 41.3552 42.3376 41.2495C42.2318 41.1438 42.0885 41.0844 41.939 41.0844Z" fill="white" style="fill:white;fill-opacity:1;"/>
<path d="M11.4994 14.0263H12.0631V14.59C12.0631 14.7395 12.1225 14.8828 12.2282 14.9886C12.3339 15.0943 12.4773 15.1537 12.6268 15.1537C12.7763 15.1537 12.9196 15.0943 13.0254 14.9886C13.1311 14.8828 13.1905 14.7395 13.1905 14.59V14.0263H13.7542C13.9037 14.0263 14.047 13.9669 14.1527 13.8612C14.2585 13.7555 14.3178 13.6121 14.3178 13.4626C14.3178 13.3131 14.2585 13.1697 14.1527 13.064C14.047 12.9583 13.9037 12.8989 13.7542 12.8989H13.1905V12.3352C13.1905 12.1857 13.1311 12.0423 13.0254 11.9366C12.9196 11.8309 12.7763 11.7715 12.6268 11.7715C12.4773 11.7715 12.3339 11.8309 12.2282 11.9366C12.1225 12.0423 12.0631 12.1857 12.0631 12.3352V12.8989H11.4994C11.3499 12.8989 11.2065 12.9583 11.1008 13.064C10.9951 13.1697 10.9357 13.3131 10.9357 13.4626C10.9357 13.6121 10.9951 13.7555 11.1008 13.8612C11.2065 13.9669 11.3499 14.0263 11.4994 14.0263Z" fill="white" style="fill:white;fill-opacity:1;"/>
<path d="M12.6267 39.393H12.063V38.8293C12.063 38.6798 12.0036 38.5364 11.8979 38.4307C11.7922 38.325 11.6488 38.2656 11.4993 38.2656C11.3498 38.2656 11.2064 38.325 11.1007 38.4307C10.995 38.5364 10.9356 38.6798 10.9356 38.8293V39.393H10.3719C10.2224 39.393 10.079 39.4524 9.97333 39.5581C9.86762 39.6638 9.80823 39.8072 9.80823 39.9567C9.80823 40.1062 9.86762 40.2496 9.97333 40.3553C10.079 40.461 10.2224 40.5204 10.3719 40.5204H10.9356V41.0841C10.9356 41.2336 10.995 41.377 11.1007 41.4827C11.2064 41.5884 11.3498 41.6478 11.4993 41.6478C11.6488 41.6478 11.7922 41.5884 11.8979 41.4827C12.0036 41.377 12.063 41.2336 12.063 41.0841V40.5204H12.6267C12.7762 40.5204 12.9196 40.461 13.0253 40.3553C13.131 40.2496 13.1904 40.1062 13.1904 39.9567C13.1904 39.8072 13.131 39.6638 13.0253 39.5581C12.9196 39.4524 12.7762 39.393 12.6267 39.393Z" fill="white" style="fill:white;fill-opacity:1;"/>
<path d="M16.0089 42.2114H15.4452V41.6477C15.4452 41.4982 15.3858 41.3548 15.2801 41.2491C15.1744 41.1434 15.031 41.084 14.8815 41.084C14.732 41.084 14.5886 41.1434 14.4829 41.2491C14.3772 41.3548 14.3178 41.4982 14.3178 41.6477V42.2114H13.7541C13.6046 42.2114 13.4612 42.2708 13.3555 42.3765C13.2498 42.4822 13.1904 42.6256 13.1904 42.7751C13.1904 42.9246 13.2498 43.068 13.3555 43.1737C13.4612 43.2794 13.6046 43.3388 13.7541 43.3388H14.3178V43.9025C14.3178 44.052 14.3772 44.1953 14.4829 44.3011C14.5886 44.4068 14.732 44.4662 14.8815 44.4662C15.031 44.4662 15.1744 44.4068 15.2801 44.3011C15.3858 44.1953 15.4452 44.052 15.4452 43.9025V43.3388H16.0089C16.1584 43.3388 16.3018 43.2794 16.4075 43.1737C16.5132 43.068 16.5726 42.9246 16.5726 42.7751C16.5726 42.6256 16.5132 42.4822 16.4075 42.3765C16.3018 42.2708 16.1584 42.2114 16.0089 42.2114Z" fill="white" style="fill:white;fill-opacity:1;"/>
<defs>
<radialGradient id="paint0_radial_873_356" cx="0" cy="0" r="1" gradientUnits="userSpaceOnUse" gradientTransform="translate(27.1363 27.1363) rotate(90) scale(27.1363)">
<stop stop-color="#2883FE" style="stop-color:#2883FE;stop-color:color(display-p3 0.1569 0.5137 0.9961);stop-opacity:1;"/>
<stop offset="1" stop-color="#064EB6" style="stop-color:#064EB6;stop-color:color(display-p3 0.0237 0.3058 0.7125);stop-opacity:1;"/>
</radialGradient>
</defs>
</svg>
