<svg width="80" height="80" viewBox="0 0 80 80" fill="none" xmlns="http://www.w3.org/2000/svg">
<path d="M26.03 4.37984C26.03 4.10984 26.11 3.85985 26.25 3.63985C26.39 3.41985 26.5999 3.24986 26.8299 3.14986C27.0699 3.04986 27.3299 3.02003 27.5799 3.07003C27.8299 3.12003 28.06 3.2499 28.24 3.4399C28.42 3.6199 28.5399 3.86008 28.5899 4.12008C28.6399 4.37008 28.61 4.63984 28.52 4.87984C28.42 5.12984 28.25 5.33994 28.04 5.47994C27.83 5.62994 27.5799 5.70992 27.3199 5.70992C26.9799 5.70992 26.65 5.57003 26.41 5.32003C26.17 5.07003 26.03 4.72984 26.03 4.37984ZM17.41 67.3501C17.16 67.3501 16.9099 67.43 16.6999 67.58C16.4799 67.72 16.3199 67.9299 16.2199 68.1699C16.1199 68.4199 16.1 68.6799 16.15 68.9399C16.2 69.1999 16.32 69.4401 16.5 69.6201C16.68 69.8101 16.91 69.9399 17.16 69.99C17.41 70.04 17.67 70.0099 17.91 69.9099C18.14 69.8099 18.34 69.6399 18.49 69.4199C18.63 69.1999 18.6999 68.9499 18.6999 68.6799C18.6999 68.3299 18.5699 67.99 18.3199 67.74C18.0799 67.49 17.75 67.3501 17.41 67.3501ZM20.7099 69.77C20.4499 69.77 20.2 69.84 19.99 69.99C19.78 70.14 19.61 70.34 19.51 70.59C19.42 70.83 19.3899 71.1001 19.4399 71.3601C19.4899 71.6101 19.61 71.85 19.79 72.04C19.97 72.22 20.1999 72.3499 20.4499 72.3999C20.6999 72.4499 20.9599 72.43 21.1999 72.32C21.4399 72.22 21.64 72.05 21.78 71.83C21.92 71.62 22 71.3601 22 71.1001C22 70.7401 21.86 70.3999 21.62 70.1599C21.38 69.9099 21.0499 69.77 20.7099 69.77ZM76.8 37.2199C76.54 37.2199 76.2899 37.2999 76.0799 37.4499C75.8699 37.5899 75.6999 37.8 75.6099 38.04C75.5099 38.29 75.48 38.55 75.53 38.81C75.58 39.07 75.71 39.3099 75.89 39.4899C76.07 39.6799 76.3 39.8101 76.55 39.8601C76.8 39.9101 77.06 39.88 77.29 39.78C77.53 39.68 77.73 39.51 77.87 39.29C78.01 39.07 78.0899 38.82 78.0899 38.55C78.0899 38.2 77.9499 37.8601 77.7099 37.6101C77.4699 37.3601 77.14 37.2199 76.8 37.2199ZM76.74 41.29C76.4799 41.29 76.23 41.37 76.02 41.52C75.81 41.66 75.64 41.8701 75.55 42.1101C75.45 42.3601 75.4199 42.6198 75.4699 42.8798C75.5199 43.1398 75.6499 43.38 75.8299 43.56C76.0099 43.75 76.24 43.8799 76.49 43.9299C76.74 43.9799 76.9999 43.9501 77.2299 43.8501C77.4699 43.7501 77.67 43.5801 77.81 43.3601C77.95 43.1401 78.03 42.8901 78.03 42.6201C78.03 42.2701 77.89 41.9299 77.65 41.6799C77.41 41.4299 77.0799 41.29 76.74 41.29ZM23.65 7.4399C23.91 7.4399 24.15 7.35993 24.37 7.21993C24.58 7.06993 24.7399 6.86008 24.8399 6.62008C24.9399 6.38008 24.97 6.11006 24.92 5.85006C24.87 5.59006 24.74 5.35988 24.56 5.16988C24.38 4.97988 24.15 4.86002 23.9 4.81002C23.65 4.75002 23.39 4.77984 23.16 4.87984C22.92 4.97984 22.7199 5.15008 22.5799 5.37008C22.4399 5.59008 22.3599 5.85007 22.3599 6.11007C22.3599 6.46007 22.5 6.80001 22.74 7.05001C22.98 7.30001 23.31 7.4399 23.65 7.4399ZM12.25 36.9699C13.37 40.3899 15.53 43.3499 18.4 45.4099C18.52 44.0899 19.1199 42.8699 20.0699 41.9699C21.0099 41.0799 22.25 40.58 23.54 40.58H23.9699L23.99 23.1999C23.99 22.2599 24.2299 21.34 24.6899 20.53C25.1399 19.71 25.7999 19.04 26.5999 18.58C27.3899 18.12 28.2899 17.8799 29.1999 17.8899C30.1099 17.8999 31 18.1599 31.79 18.6399C31.9 17.8799 32.18 17.15 32.61 16.52C33.04 15.89 33.62 15.37 34.28 15.01C31.37 13.73 28.1899 13.74 24.8499 13.75C24.5699 13.75 24.29 13.75 24.01 13.75C22.59 13.75 20.92 13.2901 18.93 12.3501L8.34994 31.2299C9.54994 32.3999 11.43 34.5199 12.25 36.9699ZM53.37 27.8C53 27.58 52.59 27.4699 52.17 27.4599C51.74 27.4599 51.3299 27.57 50.9599 27.78C50.1799 28.25 49.76 29.13 49.76 30.33V44.1101C49.76 44.4601 49.62 44.8 49.38 45.05C49.14 45.3 48.8099 45.4399 48.4699 45.4399C48.1299 45.4399 47.8 45.3 47.56 45.05C47.31 44.8 47.18 44.4601 47.18 44.1101V23.1599C47.18 21.8699 46.56 21.2299 46.03 20.9099C45.59 20.6699 45.0999 20.54 44.5999 20.54C44.0999 20.54 43.61 20.6699 43.17 20.9099C42.65 21.2199 42.02 21.8699 42.02 23.1599V44.1101C42.02 44.4601 41.89 44.8 41.65 45.05C41.4 45.3 41.0699 45.4399 40.7299 45.4399C40.3899 45.4399 40.0599 45.3 39.8199 45.05C39.5799 44.8 39.4399 44.4601 39.4399 44.1101V19.6399C39.4399 17.6999 38.06 17.01 36.87 17.01C35.68 17.01 34.29 17.6998 34.29 19.6298V44.1101C34.29 44.4601 34.15 44.8 33.91 45.05C33.67 45.29 33.34 45.4299 33 45.4299H32.99C32.82 45.4299 32.66 45.4 32.5 45.33C32.34 45.27 32.1999 45.17 32.0799 45.04C31.9599 44.92 31.87 44.7701 31.8 44.6101C31.74 44.4501 31.6999 44.2801 31.6999 44.1001L31.7199 23.2099C31.7199 22.4999 31.4499 21.83 30.9599 21.33C30.4799 20.83 29.83 20.55 29.15 20.55C28.46 20.55 27.8099 20.83 27.3199 21.33C26.8399 21.82 26.5699 22.4999 26.5699 23.1999L26.54 51.3798C26.54 51.7298 26.41 52.07 26.17 52.32C25.92 52.57 25.6 52.7099 25.25 52.7099C25.08 52.7099 24.91 52.6701 24.76 52.6001C24.6 52.5401 24.4599 52.44 24.3399 52.32C24.2199 52.19 24.13 52.0498 24.06 51.8798C24 51.7198 23.9599 51.5501 23.9599 51.3701L23.9699 43.2399H23.54C22.86 43.2399 22.2099 43.52 21.7199 44.02C21.2399 44.51 20.9699 45.1799 20.9599 45.8899V55.1799C20.9599 59.2599 22.41 63.19 25.02 66.25C26.67 68.2 27.52 70.9501 27.9 72.6001H49.05C49.26 70.3501 49.7 68.6301 50.41 67.3701C50.55 67.1201 50.6899 66.8701 50.8299 66.6201C52.7599 63.2001 54.5799 59.9801 54.5799 56.1201L54.5899 30.33C54.5899 29.17 54.16 28.27 53.37 27.8ZM5.72994 30.59L17.2199 10.07C17.4899 9.60003 17.56 9.03997 17.42 8.50997C17.28 7.97997 16.95 7.52996 16.49 7.24996L14.24 5.91988L0.749964 30.01L2.98995 31.34C3.45995 31.62 3.99998 31.69 4.51998 31.55C5.02998 31.41 5.46994 31.06 5.72994 30.59ZM50.11 75.26H27.13C26.6 75.26 26.0899 75.4801 25.7099 75.8701C25.3399 76.2501 25.13 76.78 25.13 77.33V80H52.11V77.33C52.11 76.78 51.9 76.2501 51.53 75.8701C51.15 75.4801 50.6399 75.26 50.11 75.26ZM57.16 48.55L61.2299 46.1399C64.6499 44.0899 67.24 40.8399 68.5 36.9699C69.31 34.5199 71.2 32.3999 72.39 31.2299L61.8199 12.3501C59.8299 13.2901 58.16 13.75 56.74 13.75C56.46 13.75 56.18 13.75 55.9 13.75C52.06 13.74 48.4399 13.7299 45.1999 15.6599L41.7199 17.7299C41.8199 18.0099 41.8899 18.29 41.9399 18.58C42.7599 18.11 43.69 17.8701 44.63 17.8701C45.58 17.8801 46.4999 18.1301 47.3299 18.6101C48.8699 19.5301 49.76 21.1899 49.76 23.1599V25.4299C50.51 25.0099 51.3599 24.79 52.2199 24.8C53.0799 24.81 53.92 25.0499 54.66 25.49C56.26 26.4499 57.18 28.21 57.17 30.33L57.16 48.55ZM75.02 30.59C75.28 31.06 75.7199 31.41 76.2299 31.55C76.7399 31.69 77.29 31.62 77.75 31.34L80 30.01L66.51 5.91988L64.26 7.24996C63.8 7.52996 63.4599 7.97997 63.3299 8.50997C63.1899 9.03997 63.26 9.60003 63.52 10.07L75.02 30.59ZM76.38 45.3899C76.04 45.3199 75.69 45.39 75.41 45.59C75.13 45.79 74.9299 46.0899 74.8599 46.4399C73.1299 55.6899 67.95 63.88 60.42 69.24L61.01 67.9599C61.08 67.7999 61.13 67.6299 61.14 67.4499C61.15 67.2799 61.1199 67.0999 61.0699 66.9399C61.0099 66.7699 60.92 66.6199 60.81 66.49C60.69 66.36 60.56 66.2499 60.4 66.1799C60.25 66.0999 60.08 66.06 59.91 66.05C59.74 66.04 59.57 66.0698 59.41 66.1298C59.25 66.1898 59.0999 66.2799 58.9799 66.3999C58.8499 66.5199 58.75 66.66 58.68 66.82L56.24 72.1201C56.15 72.3201 56.1 72.54 56.12 72.77C56.13 72.99 56.1999 73.2099 56.3199 73.3999C56.4299 73.5899 56.59 73.7401 56.78 73.8501C56.97 73.9601 57.19 74.02 57.41 74.02H57.4499L63.0999 73.83C63.2599 73.83 63.4299 73.7899 63.5899 73.7199C63.7399 73.6399 63.88 73.5399 64 73.4099C64.11 73.2899 64.2 73.1399 64.26 72.9699C64.32 72.8099 64.3499 72.6399 64.3399 72.4599C64.3399 72.2899 64.2999 72.1099 64.2299 71.9599C64.1599 71.7999 64.0599 71.65 63.9399 71.53C63.8099 71.41 63.67 71.32 63.51 71.26C63.35 71.2 63.18 71.1699 63.01 71.1699L62.1899 71.1999C70.0899 65.4299 75.54 56.7399 77.4 46.9499C77.46 46.5999 77.3899 46.2399 77.1999 45.9499C77.0099 45.6599 76.71 45.4499 76.38 45.3899ZM31.8599 4.36007C38.6099 2.62007 45.71 2.98988 52.26 5.41988L51.2299 5.56002C51.0699 5.58002 50.9 5.63993 50.75 5.71993C50.61 5.80993 50.48 5.93003 50.37 6.07003C50.27 6.21003 50.19 6.35999 50.15 6.52999C50.1 6.69999 50.09 6.88001 50.12 7.05001C50.14 7.23001 50.19 7.40001 50.28 7.55001C50.36 7.70001 50.4799 7.8299 50.61 7.9399C50.75 8.0399 50.8999 8.11988 51.0699 8.16988C51.2299 8.20988 51.3999 8.21991 51.5699 8.19991L57.2199 7.42989C57.4399 7.39989 57.6399 7.30988 57.8199 7.16988C57.9999 7.03988 58.1399 6.85986 58.2299 6.64986C58.3199 6.43986 58.3499 6.20994 58.3299 5.97994C58.3099 5.75994 58.2299 5.54006 58.11 5.35006L54.89 0.560018C54.69 0.280018 54.39 0.079979 54.06 0.019979C53.72 -0.040021 53.3799 0.0399497 53.0999 0.23995C52.8199 0.43995 52.63 0.740047 52.56 1.09005C52.5 1.43005 52.57 1.79004 52.77 2.08004L53.39 3.00997C46.29 0.319969 38.5699 -0.110011 31.2299 1.77999C31.0699 1.81999 30.92 1.88996 30.78 1.99996C30.64 2.09996 30.5299 2.22984 30.4399 2.37984C30.3499 2.52984 30.3 2.70008 30.27 2.87008C30.25 3.04008 30.25 3.21985 30.29 3.38985C30.34 3.55985 30.41 3.72007 30.51 3.86007C30.61 4.00007 30.74 4.11992 30.88 4.20992C31.03 4.29992 31.1899 4.35984 31.3599 4.37984C31.5199 4.40984 31.6899 4.40007 31.8599 4.36007ZM5.39999 43.05L6.12997 44.1298C6.32997 44.4198 6.61993 44.6099 6.95993 44.6699C7.28993 44.7299 7.63 44.6499 7.91 44.4599C8.19 44.2599 8.37992 43.9501 8.44992 43.6101C8.50992 43.2701 8.43996 42.9101 8.24996 42.6201L5.01998 37.8C4.88998 37.61 4.71999 37.4601 4.52999 37.3601C4.32999 37.2601 4.10998 37.2099 3.88998 37.2299C3.65998 37.2399 3.44997 37.3099 3.25997 37.4299C3.07997 37.5499 2.92991 37.7199 2.81991 37.9299L0.149989 43.06C-0.0100113 43.37 -0.0399771 43.73 0.0600229 44.07C0.150023 44.41 0.380018 44.6901 0.680018 44.8601C0.980018 45.0301 1.34 45.0599 1.66 44.9599C1.99 44.8599 2.27002 44.63 2.43002 44.31L2.84994 43.5C3.70994 52.15 7.36996 60.26 13.25 66.51C13.37 66.63 13.51 66.73 13.66 66.8C13.82 66.87 13.99 66.9099 14.16 66.9099C14.33 66.9199 14.5 66.89 14.65 66.82C14.81 66.76 14.9599 66.66 15.0799 66.54C15.1999 66.42 15.3 66.2701 15.37 66.1101C15.43 65.9501 15.4699 65.7801 15.4699 65.6101C15.4699 65.4301 15.44 65.26 15.38 65.09C15.32 64.93 15.2299 64.7799 15.11 64.6599C9.58995 58.7999 6.16999 51.18 5.39999 43.05Z" fill="#0E5BCA"/>
</svg>
