<svg width="179" height="67" viewBox="0 0 179 67" fill="none" xmlns="http://www.w3.org/2000/svg">
<mask id="mask0_1_93" style="mask-type:luminance" maskUnits="userSpaceOnUse" x="0" y="0" width="179" height="67">
<path d="M179 0H0V66.1274H179V0Z" fill="white"/>
</mask>
<g mask="url(#mask0_1_93)">
<path d="M73.01 33.8801H79.66V37.8201H67.9399V16.8801H73.01V33.8801ZM89.92 38.0602C88.3 38.0602 86.83 37.7101 85.53 37.0101C84.24 36.3201 83.22 35.3202 82.47 34.0302C81.74 32.7402 81.37 31.2301 81.37 29.5001C81.37 27.7901 81.75 26.2901 82.5 24.9901C83.25 23.6801 84.28 22.6801 85.58 21.9801C86.89 21.2901 88.35 20.9401 89.98 20.9401C91.6 20.9401 93.06 21.2901 94.37 21.9801C95.68 22.6801 96.7 23.6801 97.46 24.9901C98.21 26.2901 98.58 27.7901 98.58 29.5001C98.58 31.2101 98.2001 32.7202 97.4301 34.0302C96.6801 35.3202 95.6401 36.3201 94.3101 37.0101C93.0001 37.7101 91.54 38.0602 89.92 38.0602ZM89.92 33.6401C90.89 33.6401 91.71 33.2801 92.38 32.5701C93.07 31.8501 93.42 30.8301 93.42 29.5001C93.42 28.1701 93.08 27.1402 92.41 26.4302C91.76 25.7102 90.95 25.3501 89.98 25.3501C88.99 25.3501 88.17 25.7102 87.51 26.4302C86.86 27.1202 86.53 28.1501 86.53 29.5001C86.53 30.8301 86.85 31.8501 87.48 32.5701C88.14 33.2801 88.95 33.6401 89.92 33.6401ZM107.87 20.9401C109.03 20.9401 110.05 21.1801 110.92 21.6501C111.81 22.1301 112.5 22.7602 112.97 23.5302V21.1802H118.05V37.7902C118.05 39.3202 117.74 40.7002 117.13 41.9302C116.53 43.1802 115.61 44.1802 114.37 44.9102C113.14 45.6502 111.61 46.0201 109.77 46.0201C107.31 46.0201 105.32 45.4301 103.8 44.2601C102.28 43.1101 101.41 41.5302 101.19 39.5502H106.2C106.36 40.1802 106.74 40.6802 107.33 41.0402C107.93 41.4202 108.66 41.6001 109.53 41.6001C110.58 41.6001 111.41 41.3002 112.02 40.6802C112.65 40.0802 112.97 39.1202 112.97 37.7902V35.4302C112.48 36.2102 111.79 36.8401 110.92 37.3401C110.05 37.8201 109.03 38.0602 107.87 38.0602C106.5 38.0602 105.26 37.7101 104.16 37.0101C103.05 36.3001 102.17 35.2901 101.51 34.0001C100.88 32.6901 100.56 31.1801 100.56 29.4701C100.56 27.7601 100.88 26.2601 101.51 24.9601C102.17 23.6701 103.05 22.6801 104.16 21.9801C105.26 21.2901 106.5 20.9401 107.87 20.9401ZM112.97 29.5001C112.97 28.2201 112.62 27.2201 111.9 26.4901C111.21 25.7501 110.36 25.3801 109.35 25.3801C108.34 25.3801 107.48 25.7501 106.77 26.4901C106.08 27.2001 105.73 28.1901 105.73 29.4701C105.73 30.7401 106.08 31.7501 106.77 32.5101C107.48 33.2401 108.34 33.6101 109.35 33.6101C110.36 33.6101 111.21 33.2401 111.9 32.5101C112.62 31.7701 112.97 30.7701 112.97 29.5001ZM124.57 19.4501C123.68 19.4501 122.95 19.1902 122.37 18.6702C121.82 18.1402 121.54 17.4801 121.54 16.7001C121.54 15.9101 121.82 15.2501 122.37 14.7401C122.95 14.2001 123.68 13.9302 124.57 13.9302C125.44 13.9302 126.15 14.2001 126.71 14.7401C127.28 15.2501 127.57 15.9101 127.57 16.7001C127.57 17.4801 127.28 18.1402 126.71 18.6702C126.15 19.1902 125.44 19.4501 124.57 19.4501ZM127.09 21.1802V37.8201H122.02V21.1802H127.09ZM136.14 15.7501V37.8201H131.07V15.7501H136.14ZM139.11 29.4701C139.11 27.7601 139.42 26.2601 140.06 24.9601C140.71 23.6701 141.59 22.6801 142.7 21.9801C143.81 21.2901 145.04 20.9401 146.41 20.9401C147.58 20.9401 148.59 21.1801 149.47 21.6501C150.36 22.1301 151.04 22.7602 151.51 23.5302V21.1802H156.59V37.8201H151.51V35.4601C151.02 36.2401 150.33 36.8601 149.44 37.3401C148.57 37.8201 147.55 38.0602 146.38 38.0602C145.03 38.0602 143.81 37.7101 142.7 37.0101C141.59 36.3001 140.71 35.2901 140.06 34.0001C139.42 32.6901 139.11 31.1801 139.11 29.4701ZM151.51 29.5001C151.51 28.2201 151.16 27.2201 150.44 26.4901C149.75 25.7501 148.9 25.3801 147.89 25.3801C146.88 25.3801 146.02 25.7501 145.31 26.4901C144.62 27.2001 144.27 28.1901 144.27 29.4701C144.27 30.7401 144.62 31.7501 145.31 32.5101C146.02 33.2401 146.88 33.6101 147.89 33.6101C148.9 33.6101 149.75 33.2401 150.44 32.5101C151.16 31.7701 151.51 30.7701 151.51 29.5001ZM165.63 23.5302C166.11 22.7602 166.79 22.1301 167.68 21.6501C168.57 21.1801 169.59 20.9401 170.74 20.9401C172.1 20.9401 173.34 21.2901 174.45 21.9801C175.56 22.6801 176.43 23.6701 177.06 24.9601C177.71 26.2601 178.04 27.7601 178.04 29.4701C178.04 31.1801 177.71 32.6901 177.06 34.0001C176.43 35.2901 175.56 36.3001 174.45 37.0101C173.34 37.7101 172.1 38.0602 170.74 38.0602C169.57 38.0602 168.55 37.8301 167.68 37.3701C166.81 36.8901 166.13 36.2701 165.63 35.4901V37.8201H160.56V15.7501H165.63V23.5302ZM172.87 29.4701C172.87 28.1901 172.52 27.2001 171.81 26.4901C171.11 25.7501 170.25 25.3801 169.22 25.3801C168.21 25.3801 167.35 25.7501 166.64 26.4901C165.95 27.2201 165.6 28.2201 165.6 29.5001C165.6 30.7701 165.95 31.7701 166.64 32.5101C167.35 33.2401 168.21 33.6101 169.22 33.6101C170.23 33.6101 171.09 33.2401 171.81 32.5101C172.52 31.7501 172.87 30.7401 172.87 29.4701Z" fill="#253858"/>
<path d="M66.08 45.9001V47.9001H68.75V49.1602H66.08V51.2701H69.09V52.5701H64.49V44.6001H69.09V45.9001H66.08ZM75.75 51.3002H78.36V52.5701H74.16V44.6101H75.75V51.3002ZM89.78 52.5701H88.1899L84.59 47.1101V52.5701H83V44.6001H84.59L88.1899 50.0701V44.6001H89.78V52.5701Z" fill="#253858"/>
<path d="M155.62 49.4H157.74V50.42H154.33V43.97H155.62V49.4ZM161.87 43.97V50.42H160.58V43.97H161.87ZM169.55 43.97V45.01H167.83V50.42H166.55V45.01H164.83V43.97H169.55ZM173.8 45.01V46.63H175.97V47.66H173.8V49.37H176.24V50.42H172.51V43.96H176.24V45.01H173.8Z" fill="#253858"/>
<path d="M19.7 13.01C18.67 18.68 17.22 24.57 14.24 29.51C13.66 30.46 12.94 31.64 12.04 32.53C13.43 32.5 14.83 32.49 16.23 32.47C16.59 31.34 16.87 30.21 17.14 29.17C18.48 23.89 19.23 18.45 19.7 13.01Z" fill="#1368E4"/>
<path d="M18.58 27.22C18.21 28.92 17.81 30.72 17.25 32.45C17.19 32.61 17.14 32.7799 17.09 32.9399C17.03 33.0999 16.97 33.26 16.92 33.42C16.35 34.97 15.63 36.46 14.66 37.74C14.48 37.98 14.26 38.26 14 38.52C14.97 38.6 15.9501 38.66 16.9301 38.74C17.5901 37.01 18.09 35.2 18.5 33.4C18.53 33.24 18.56 33.08 18.6 32.92C18.63 32.75 18.66 32.5899 18.7 32.4399C18.84 31.7499 18.98 31.06 19.1 30.37C19.36 28.93 19.58 27.47 19.78 26.01V20.5C19.46 22.76 19.07 25 18.58 27.22Z" fill="#1469E5"/>
<path d="M19.78 12.1001C19.76 12.4101 19.74 12.7101 19.71 13.0101C19.74 12.8701 19.76 12.7301 19.78 12.5901V12.1001Z" fill="#FCFCFC"/>
<path d="M19.78 42.11V39.91V39.4399V38.95V33.38V32.9V32.42V31.95C19.76 32.11 19.7199 32.27 19.6899 32.42C19.6599 32.58 19.62 32.74 19.59 32.9C19.56 33.06 19.52 33.23 19.48 33.39C19.07 35.23 18.56 37.0501 17.91 38.8101C17.85 38.9701 17.79 39.13 17.73 39.29C17.67 39.44 17.61 39.6 17.55 39.74C17.35 40.25 17.13 40.74 16.91 41.23C16.52 42.04 16.06 43.02 15.46 43.8C17.03 43.87 18.6101 43.94 20.1801 44.02C19.9201 43.44 19.78 42.81 19.78 42.11Z" fill="#1368E4"/>
<path d="M20.7199 44.91C20.4999 44.63 20.32 44.34 20.18 44.02C18.6 43.95 17.0299 43.8801 15.4499 43.8C16.0599 43.0201 16.51 42.05 16.9 41.23C17.13 40.75 17.35 40.25 17.55 39.75C17.61 39.6 17.67 39.44 17.73 39.29C17.79 39.13 17.84 38.9799 17.9 38.8199C18.56 37.0599 19.06 35.24 19.48 33.39C19.51 33.23 19.5499 33.07 19.5799 32.91C19.6199 32.75 19.65 32.5901 19.68 32.4301C19.72 32.2701 19.74 32.11 19.78 31.96V26.89V26.02C19.58 27.48 19.36 28.93 19.1 30.37C18.97 31.06 18.8399 31.76 18.6999 32.45C18.6599 32.61 18.63 32.77 18.6 32.92C18.56 33.08 18.53 33.25 18.5 33.41C18.09 35.22 17.59 37.01 16.93 38.74C15.95 38.67 14.98 38.6 14 38.53C14.25 38.27 14.48 37.99 14.66 37.75C15.63 36.46 16.35 34.9801 16.92 33.4301C16.98 33.2701 17.0299 33.0999 17.0899 32.9399C17.1399 32.7799 17.19 32.62 17.25 32.46C17.81 30.72 18.2199 28.92 18.5799 27.23C19.0699 25.01 19.46 22.76 19.78 20.51V15.85V13.66V12.6C19.75 12.74 19.7199 12.88 19.6999 13.02C19.2199 18.46 18.48 23.9 17.15 29.17C16.88 30.22 16.59 31.35 16.23 32.47C14.84 32.49 13.44 32.51 12.04 32.53C12.94 31.65 13.67 30.47 14.24 29.51C17.22 24.57 18.6799 18.68 19.7099 13.01C19.7399 12.7 19.76 12.4 19.78 12.1V10.8101V10.55V9.60999V9.5C19.78 9.44 19.77 9.37995 19.76 9.31995C19.74 8.86995 19.6699 8.44002 19.5799 8.02002C18.7599 14.16 17.46 20.3199 14.99 25.9399C14.52 27.0199 14 28.07 13.41 29.09C13.1 29.61 12.77 30.1 12.42 30.59C12.08 31.06 11.69 31.46 11.29 31.87C11.08 32.09 10.8499 32.25 10.5899 32.41C10.4699 32.49 10.36 32.5601 10.28 32.6801C10.22 32.7601 10.1 32.94 10.11 33.04C10.13 33.33 10.42 33.49 10.67 33.51C11.09 33.54 11.5 33.47 11.91 33.47C12.76 33.47 13.6099 33.45 14.4599 33.45C14.9499 33.45 15.43 33.4301 15.91 33.4301C15.32 35.0401 14.5399 36.56 13.4399 37.72C13.2999 37.87 13.1399 38.03 12.9599 38.15C12.6999 38.34 12.32 38.38 12.11 38.63C11.9 38.9 12.09 39.28 12.4 39.39C12.76 39.53 13.1799 39.47 13.5699 39.48C13.9999 39.48 14.42 39.51 14.85 39.54C15.14 39.56 15.4299 39.58 15.7099 39.61C15.7899 39.62 16.54 39.71 16.56 39.67C16.23 40.45 15.8699 41.2099 15.4699 41.9399C15.2399 42.3499 15.01 42.75 14.75 43.13C14.62 43.32 14.48 43.49 14.31 43.65C14.16 43.78 13.97 43.92 13.91 44.12C13.86 44.3 13.99 44.53 14.16 44.63C14.48 44.8 14.8699 44.74 15.2099 44.75C15.6499 44.77 16.09 44.7901 16.53 44.8101C17.44 44.8601 18.36 44.9 19.27 44.95C19.53 44.9599 19.79 44.97 20.05 44.98C20.18 44.99 20.31 45 20.43 45C20.49 45 20.77 44.98 20.8 45.02C20.77 44.97 20.7499 44.95 20.7199 44.91Z" fill="white"/>
<path d="M43.6899 10.1399C43.6899 10.9499 43.04 11.5999 42.23 11.5999H25.59C24.78 11.5999 24.12 10.9499 24.12 10.1399C24.12 9.31989 24.78 8.66992 25.59 8.66992H42.23C43.03 8.66992 43.6899 9.31989 43.6899 10.1399Z" fill="#2883FE"/>
<path d="M43.6899 17.7899C43.6899 18.5999 43.04 19.2599 42.23 19.2599H25.59C24.78 19.2599 24.12 18.5999 24.12 17.7899C24.12 16.9799 24.78 16.3198 25.59 16.3198H42.23C43.03 16.3198 43.6899 16.9799 43.6899 17.7899Z" fill="#2883FE"/>
<path d="M43.6899 33.0999C43.6899 33.9099 43.04 34.5698 42.23 34.5698H25.59C24.78 34.5698 24.12 33.9099 24.12 33.0999C24.12 32.2899 24.78 31.6299 25.59 31.6299H42.23C43.03 31.6299 43.6899 32.2899 43.6899 33.0999Z" fill="#2883FE"/>
<path d="M43.6899 40.75C43.6899 41.57 43.04 42.22 42.23 42.22H25.59C24.78 42.22 24.12 41.57 24.12 40.75C24.12 39.94 24.78 39.29 25.59 39.29H42.23C43.03 39.29 43.6899 39.94 43.6899 40.75Z" fill="#2883FE"/>
<path d="M38.8 25.4399C38.8 26.2599 38.15 26.91 37.34 26.91H25.58C24.77 26.91 24.12 26.2599 24.12 25.4399C24.12 24.6299 24.77 23.98 25.58 23.98H37.34C38.15 23.98 38.8 24.6299 38.8 25.4399Z" fill="#2883FE"/>
<path d="M43.97 46.79H43.0699H38.79H34.8199H34.7H34.0699H31.84H31.34H26.27H24.53C23.22 46.79 22.1 46.3399 21.17 45.4399C21.09 45.3499 21 45.26 20.92 45.17C20.87 45.12 20.83 45.06 20.79 45.01C18.66 44.91 16.52 44.81 14.38 44.71C14.28 44.71 14.19 44.67 14.11 44.61C14.08 44.59 14.06 44.57 14.04 44.54C13.87 44.36 13.8 44.08 14.04 43.89C14.68 43.37 15.04 42.7 15.46 41.95C15.87 41.22 16.23 40.4501 16.55 39.6801C15.19 39.5801 13.82 39.48 12.45 39.37C11.84 39.33 11.8099 38.44 12.4399 38.42C12.2299 38.42 12.68 38.32 12.58 38.37C12.99 38.17 13.12 38.05 13.42 37.72C14.53 36.57 15.3 35.0499 15.89 33.4399C14.11 33.4599 12.3399 33.49 10.5699 33.51C10.1099 33.51 9.87006 32.84 10.3101 32.61C10.3901 32.57 10.47 32.53 10.53 32.48C12.49 31.13 13.98 28.23 14.97 25.95C17.44 20.33 18.7401 14.18 19.5601 8.03003C19.5201 7.85003 19.4801 7.67 19.4301 7.5H19.4399C18.4599 3.21 14.6499 0 10.0699 0C8.74995 0 7.48997 0.27001 6.33997 0.76001C6.27997 0.78001 6.22003 0.809966 6.16003 0.839966C6.11003 0.859966 6.06001 0.880034 6.01001 0.910034C2.60001 2.37003 0.18002 5.7 0.0200195 9.62H0V10.04V10.8199V46.49C0 47.74 0.110059 48.95 0.310059 50.12C0.990059 54 2.79999 57.41 5.73999 60.36C9.56999 64.2 14.16 66.13 19.54 66.13H20.85H42.53H43.55C43.56 66.13 43.58 66.12 43.6 66.12H43.9399C49.2399 66.12 53.55 61.79 53.55 56.46C53.58 51.1 49.28 46.79 43.97 46.79Z" fill="#2883FE"/>
<path opacity="0.7" d="M43.97 46.7699H43.0699H38.79H34.8199H34.7H34.0699H31.84H31.34H26.27H24.53C23.22 46.7699 22.1 46.3199 21.17 45.4199C21.08 45.3399 21 45.2499 20.92 45.1599C20.87 45.0999 20.83 45.0499 20.79 44.9999C18.66 44.8999 16.52 44.7998 14.38 44.6998C14.28 44.6898 14.19 44.6498 14.11 44.5898L23.8199 66.0898H42.5601H43.58C43.59 66.0898 43.61 66.0898 43.63 66.0898H43.97C49.27 66.0898 53.58 61.7599 53.58 56.4299C53.58 51.0999 49.27 46.7699 43.97 46.7699Z" fill="url(#paint0_linear_1_93)"/>
</g>
<defs>
<linearGradient id="paint0_linear_1_93" x1="14.11" y1="55.3398" x2="53.58" y2="55.3398" gradientUnits="userSpaceOnUse">
<stop stop-color="#095CD8"/>
<stop offset="0.7672" stop-color="#207AF5"/>
</linearGradient>
</defs>
</svg>
