<svg width="196" height="73" viewBox="0 0 196 73" fill="none" xmlns="http://www.w3.org/2000/svg">
<mask id="mask0_1_262" style="mask-type:luminance" maskUnits="userSpaceOnUse" x="0" y="0" width="196" height="73">
<path d="M195.336 0H0.727051V72.3372H195.336V0Z" fill="white"/>
</mask>
<g mask="url(#mask0_1_262)">
<path d="M79.9061 35.966H87.2141V40.271H74.3281V17.37H79.9061V35.964V35.966ZM98.4861 40.534C96.7021 40.534 95.0931 40.154 93.6581 39.393C92.2451 38.633 91.1261 37.545 90.2991 36.131C89.4941 34.718 89.0921 33.064 89.0921 31.173C89.0921 29.282 89.5051 27.661 90.3321 26.248C91.1591 24.813 92.2901 23.715 93.7251 22.953C95.1601 22.192 96.7681 21.81 98.5521 21.81C100.336 21.81 101.945 22.19 103.38 22.953C104.815 23.713 105.946 24.813 106.773 26.248C107.599 27.661 108.013 29.303 108.013 31.173C108.013 33.043 107.59 34.696 106.741 36.131C105.915 37.545 104.774 38.633 103.316 39.393C101.881 40.154 100.272 40.534 98.4881 40.534H98.4861ZM98.4861 35.704C99.5511 35.704 100.453 35.312 101.194 34.531C101.955 33.749 102.337 32.628 102.337 31.171C102.337 29.715 101.966 28.593 101.227 27.812C100.51 27.03 99.6191 26.638 98.5521 26.638C97.4861 26.638 96.5621 27.03 95.8441 27.812C95.1271 28.572 94.7681 29.693 94.7681 31.171C94.7681 32.649 95.1151 33.749 95.8111 34.531C96.5281 35.312 97.4191 35.704 98.4861 35.704ZM118.212 21.808C119.495 21.808 120.616 22.069 121.572 22.59C122.55 23.113 123.301 23.797 123.822 24.645V22.068H129.4V40.238C129.4 41.912 129.063 43.424 128.388 44.771C127.735 46.142 126.725 47.228 125.354 48.033C124.005 48.838 122.32 49.24 120.298 49.24C117.602 49.24 115.416 48.598 113.741 47.315C112.066 46.054 111.109 44.336 110.871 42.162H116.383C116.557 42.858 116.97 43.402 117.623 43.792C118.276 44.205 119.08 44.412 120.037 44.412C121.189 44.412 122.104 44.075 122.777 43.4C123.473 42.747 123.82 41.692 123.82 40.236V37.658C123.276 38.506 122.525 39.202 121.57 39.746C120.612 40.269 119.493 40.528 118.21 40.528C116.709 40.528 115.35 40.148 114.133 39.387C112.914 38.604 111.947 37.506 111.23 36.092C110.534 34.657 110.187 33.004 110.187 31.134C110.187 29.264 110.536 27.622 111.23 26.209C111.947 24.795 112.914 23.707 114.133 22.947C115.352 22.186 116.711 21.804 118.21 21.804L118.212 21.808ZM123.824 31.171C123.824 29.779 123.432 28.681 122.65 27.876C121.889 27.071 120.953 26.669 119.844 26.669C118.735 26.669 117.789 27.071 117.005 27.876C116.245 28.658 115.863 29.746 115.863 31.138C115.863 32.53 116.243 33.64 117.005 34.466C117.789 35.271 118.735 35.673 119.844 35.673C120.953 35.673 121.887 35.271 122.65 34.466C123.434 33.661 123.824 32.563 123.824 31.171ZM136.569 20.178C135.591 20.178 134.785 19.895 134.155 19.33C133.547 18.743 133.243 18.026 133.243 17.177C133.243 16.329 133.547 15.59 134.155 15.025C134.785 14.438 135.591 14.144 136.569 14.144C137.548 14.144 138.309 14.438 138.919 15.025C139.549 15.59 139.864 16.308 139.864 17.177C139.864 18.047 139.549 18.743 138.919 19.33C138.311 19.895 137.527 20.178 136.569 20.178ZM139.342 22.069V40.273H133.764V22.069H139.342ZM149.288 16.132V40.273H143.709V16.132H149.288ZM152.548 31.138C152.548 29.268 152.895 27.626 153.591 26.213C154.309 24.799 155.276 23.711 156.494 22.951C157.713 22.19 159.072 21.808 160.571 21.808C161.854 21.808 162.973 22.069 163.931 22.59C164.91 23.113 165.66 23.797 166.181 24.645V22.068H171.759V40.271H166.181V37.693C165.637 38.541 164.876 39.226 163.898 39.748C162.94 40.271 161.821 40.53 160.538 40.53C159.06 40.53 157.711 40.15 156.492 39.389C155.274 38.606 154.307 37.508 153.589 36.094C152.893 34.659 152.546 33.006 152.546 31.136L152.548 31.138ZM166.183 31.171C166.183 29.779 165.791 28.681 165.009 27.876C164.249 27.071 163.313 26.669 162.203 26.669C161.094 26.669 160.148 27.071 159.364 27.876C158.604 28.658 158.224 29.746 158.224 31.138C158.224 32.53 158.604 33.64 159.364 34.466C160.148 35.271 161.094 35.673 162.203 35.673C163.313 35.673 164.247 35.271 165.009 34.466C165.793 33.661 166.183 32.563 166.183 31.171ZM181.701 24.647C182.224 23.799 182.974 23.115 183.953 22.592C184.932 22.069 186.051 21.81 187.313 21.81C188.814 21.81 190.173 22.19 191.39 22.953C192.608 23.713 193.564 24.801 194.26 26.215C194.977 27.628 195.336 29.27 195.336 31.14C195.336 33.01 194.977 34.663 194.26 36.098C193.564 37.512 192.606 38.61 191.39 39.393C190.171 40.154 188.812 40.534 187.313 40.534C186.03 40.534 184.909 40.284 183.953 39.783C182.996 39.261 182.245 38.576 181.701 37.728V40.273H176.123V16.132H181.701V24.647ZM189.662 31.138C189.662 29.746 189.27 28.658 188.488 27.876C187.728 27.071 186.78 26.669 185.649 26.669C184.519 26.669 183.594 27.071 182.813 27.876C182.052 28.681 181.67 29.779 181.67 31.171C181.67 32.563 182.05 33.661 182.813 34.466C183.596 35.271 184.542 35.673 185.649 35.673C186.757 35.673 187.705 35.271 188.488 34.466C189.27 33.64 189.662 32.53 189.662 31.138Z" fill="white"/>
<path d="M73.36 50.2111V52.3931H76.291V53.7781H73.36V56.0841H76.665V57.5061H71.613V48.7881H76.665V50.2091H73.36V50.2111ZM83.989 56.1231H86.857V57.5081H82.242V48.8021H83.989V56.1231ZM99.404 57.5081H97.657L93.702 51.5331V57.5081H91.955V48.7901H93.702L97.657 54.7761V48.7901H99.404V57.5081Z" fill="white"/>
<path d="M171.765 54.035H174.093V55.158H170.348V48.094H171.765V54.035ZM178.636 48.094V55.158H177.219V48.094H178.636ZM187.071 48.094V49.238H185.189V55.16H183.772V49.238H181.89V48.094H187.073H187.071ZM191.749 49.238V51.009H194.127V52.132H191.749V54.004H194.431V55.158H190.333V48.084H194.431V49.238H191.749Z" fill="white"/>
<path d="M22.3921 14.2319C21.2551 20.4389 19.6541 26.8809 16.3831 32.2799C15.7511 33.3209 14.9511 34.6119 13.9611 35.5809C15.4931 35.5589 17.0361 35.5439 18.5681 35.5219C18.9641 34.2899 19.2801 33.0499 19.5721 31.9129C21.0461 26.1319 21.8691 20.1889 22.3901 14.2319H22.3921Z" fill="white"/>
<path d="M21.153 29.779C20.75 31.636 20.303 33.601 19.685 35.502C19.627 35.678 19.568 35.855 19.51 36.03C19.451 36.206 19.385 36.383 19.327 36.559C18.703 38.261 17.911 39.881 16.846 41.283C16.642 41.546 16.398 41.854 16.113 42.141C17.184 42.221 18.262 42.295 19.342 42.377C20.069 40.484 20.619 38.511 21.06 36.537C21.097 36.362 21.134 36.184 21.169 36.009C21.206 35.834 21.243 35.656 21.278 35.488C21.432 34.732 21.586 33.977 21.719 33.221C22.006 31.643 22.255 30.052 22.468 28.459V22.429C22.115 24.893 21.69 27.352 21.153 29.779Z" fill="white"/>
<path d="M22.474 13.2329C22.445 13.5709 22.424 13.8999 22.395 14.2319C22.424 14.0779 22.453 13.9309 22.474 13.7769V13.2349V13.2329Z" fill="#FCFCFC"/>
<path d="M22.478 46.0671V34.9531C22.449 35.1291 22.412 35.2981 22.375 35.4661C22.338 35.6411 22.301 35.8191 22.266 35.9941C22.229 36.1701 22.186 36.3471 22.149 36.5231C21.694 38.5411 21.137 40.5281 20.417 42.4581C20.351 42.6331 20.292 42.8031 20.226 42.9781C20.16 43.1481 20.094 43.3161 20.027 43.4781C19.799 44.0271 19.565 44.5711 19.316 45.1001C18.891 45.9951 18.384 47.0591 17.723 47.9091C19.454 47.9891 21.185 48.0711 22.917 48.1511C22.624 47.5201 22.476 46.8311 22.476 46.0671H22.478Z" fill="white"/>
<path d="M23.5041 49.1319C23.2621 48.8239 23.0631 48.4999 22.9091 48.1569C21.1781 48.0769 19.4461 47.9949 17.7151 47.9149C18.3821 47.0649 18.8811 46.0009 19.3061 45.1059C19.5631 44.5769 19.7971 44.0349 20.0181 43.4839C20.0841 43.3139 20.1501 43.1459 20.2161 42.9839C20.2831 42.8089 20.3411 42.6389 20.4081 42.4639C21.1271 40.5409 21.6851 38.5469 22.1391 36.5289C22.1761 36.3529 22.2191 36.1759 22.2561 35.9999C22.2931 35.8249 22.3301 35.6469 22.3651 35.4719C22.4021 35.3019 22.4311 35.1269 22.4681 34.9589V28.4659C22.2561 30.0569 22.0141 31.6429 21.7201 33.2279C21.5791 33.9759 21.4331 34.7389 21.2791 35.4949C21.2421 35.6709 21.2051 35.8479 21.1701 36.0159C21.1331 36.1909 21.0961 36.3689 21.0611 36.5439C20.6121 38.5249 20.0621 40.4909 19.3451 42.3839C18.2671 42.3039 17.1961 42.2299 16.1161 42.1499C16.3951 41.8629 16.6441 41.5549 16.8491 41.2919C17.9141 39.8899 18.7051 38.2699 19.3291 36.5679C19.3961 36.3919 19.4541 36.2149 19.5131 36.0389C19.5711 35.8639 19.6301 35.6859 19.6881 35.5109C20.3041 33.6099 20.7531 31.6369 21.1561 29.7879C21.6921 27.3589 22.1181 24.9019 22.4701 22.4379V13.7879C22.4411 13.9419 22.4121 14.0959 22.3901 14.2429C21.8621 20.1989 21.0471 26.1419 19.5811 31.9159C19.2861 33.0599 18.9731 34.2999 18.5771 35.5249C17.0441 35.5379 15.5021 35.5619 13.9691 35.5829C14.9521 34.6219 15.7591 33.3309 16.3911 32.2819C19.6631 26.8829 21.2621 20.4409 22.4001 14.2349C22.4291 13.8969 22.4591 13.5679 22.4801 13.2369V10.3899C22.4801 10.3239 22.4651 10.2569 22.4591 10.1909C22.4291 9.70692 22.3551 9.2369 22.2601 8.7749C21.3491 15.4959 19.9261 22.2309 17.2121 28.3789C16.6911 29.5599 16.1261 30.7109 15.4731 31.8199C15.1351 32.3909 14.7691 32.9269 14.3791 33.4639C14.0121 33.9759 13.5791 34.4169 13.1471 34.8659C12.9131 35.1069 12.6551 35.2829 12.3691 35.4599C12.2441 35.5399 12.1191 35.6219 12.0311 35.7469C11.9651 35.8349 11.8321 36.0329 11.8401 36.1429C11.8621 36.4639 12.1851 36.6339 12.4641 36.6549C12.9181 36.6919 13.3751 36.6179 13.8291 36.6179C14.7611 36.6179 15.6931 36.5889 16.6311 36.5889C17.1591 36.5889 17.6881 36.5759 18.2161 36.5759C17.5711 38.3279 16.7191 40.0009 15.5101 41.2629C15.3481 41.4319 15.1801 41.6079 14.9811 41.7399C14.6951 41.9389 14.2771 41.9819 14.0491 42.2609C13.8151 42.5559 14.0281 42.9729 14.3571 43.0899C14.7611 43.2439 15.2231 43.1769 15.6481 43.1849C16.1181 43.1929 16.5881 43.2219 17.0561 43.2589C17.3721 43.2809 17.6881 43.3019 18.0021 43.3329C18.0891 43.3409 18.9121 43.4429 18.9341 43.3999C18.5751 44.2499 18.1771 45.0859 17.7301 45.8879C17.4811 46.3279 17.2311 46.7669 16.9451 47.1859C16.8061 47.3909 16.6441 47.5819 16.4611 47.7519C16.2991 47.8979 16.0871 48.0459 16.0211 48.2639C15.9621 48.4689 16.1081 48.7189 16.2921 48.8219C16.6441 49.0129 17.0701 48.9469 17.4501 48.9609C17.9331 48.9739 18.4191 49.0049 18.8951 49.0269C19.8991 49.0779 20.9051 49.1219 21.9091 49.1729C22.1961 49.1869 22.4821 49.2019 22.7671 49.2099C22.9071 49.2179 23.0461 49.2239 23.1841 49.2319C23.2431 49.2319 23.5581 49.2099 23.5881 49.2469C23.5581 49.2019 23.5291 49.1729 23.5001 49.1379L23.5041 49.1319Z" fill="white"/>
<path d="M48.7481 11.086C48.7481 11.973 48.0291 12.693 47.1421 12.693H28.8531C27.9661 12.693 27.2461 11.973 27.2461 11.086C27.2461 10.199 27.9661 9.479 28.8531 9.479H47.1421C48.0211 9.479 48.7481 10.199 48.7481 11.086Z" fill="white"/>
<path d="M48.7481 19.463C48.7481 20.35 48.0291 21.07 47.1421 21.07H28.8531C27.9661 21.07 27.2461 20.35 27.2461 19.463C27.2461 18.576 27.9661 17.857 28.8531 17.857H47.1421C48.0211 17.849 48.7481 18.576 48.7481 19.463Z" fill="white"/>
<path d="M48.7481 36.2051C48.7481 37.0921 48.0291 37.8121 47.1421 37.8121H28.8531C27.9661 37.8121 27.2461 37.0921 27.2461 36.2051C27.2461 35.3181 27.9661 34.5991 28.8531 34.5991H47.1421C48.0211 34.5991 48.7481 35.3181 48.7481 36.2051Z" fill="white"/>
<path d="M48.7481 44.5821C48.7481 45.4691 48.0291 46.1891 47.1421 46.1891H28.8531C27.9661 46.1891 27.2461 45.4691 27.2461 44.5821C27.2461 43.6951 27.9661 42.9761 28.8531 42.9761H47.1421C48.0211 42.9761 48.7481 43.6951 48.7481 44.5821Z" fill="white"/>
<path d="M43.3751 27.8331C43.3751 28.7201 42.6551 29.4401 41.7681 29.4401H28.8411C27.9541 29.4401 27.2341 28.7201 27.2341 27.8331C27.2341 26.9461 27.9541 26.2271 28.8411 26.2271H41.7681C42.6551 26.2271 43.3751 26.9461 43.3751 27.8331Z" fill="white"/>
<path d="M49.0521 51.178H27.688C26.251 51.178 25.0171 50.687 23.9971 49.704C23.9021 49.609 23.806 49.513 23.718 49.41C23.668 49.351 23.623 49.293 23.58 49.24C21.233 49.129 18.885 49.02 16.537 48.91C16.428 48.903 16.3251 48.86 16.2371 48.794C16.2081 48.772 16.1791 48.749 16.1571 48.719C15.9741 48.521 15.9001 48.22 16.1571 48.016C16.8611 47.444 17.2571 46.709 17.7191 45.888C18.1731 45.089 18.5631 44.252 18.9221 43.4C17.4191 43.291 15.9131 43.18 14.4101 43.071C13.7431 43.026 13.7141 42.043 14.3951 42.022C14.166 42.03 14.6661 41.913 14.5491 41.971C15.0031 41.751 15.143 41.618 15.481 41.267C16.691 40.006 17.5421 38.341 18.1871 36.58C16.2351 36.601 14.2911 36.631 12.3401 36.654C11.8401 36.662 11.5771 35.921 12.0611 35.679C12.1481 35.634 12.2301 35.584 12.3021 35.533C14.4511 34.059 16.0891 30.883 17.1811 28.395C19.8951 22.247 21.3261 15.513 22.2291 8.79199C22.1841 8.59299 22.1331 8.39599 22.0831 8.20499H22.0901C21.0201 3.50799 16.8221 0 11.7971 0C10.3451 0 8.95905 0.299999 7.69705 0.835999C7.63105 0.857999 7.56405 0.886985 7.49805 0.915985C7.44705 0.937985 7.38906 0.96099 7.33606 0.98999C3.58706 2.58899 0.925047 6.23501 0.748047 10.527H0.727051V50.854C0.727051 52.219 0.844052 53.547 1.07205 54.824C1.82005 59.065 3.80107 62.799 7.03607 66.028C11.2401 70.231 16.2961 72.337 22.2071 72.337H48.5901C48.6041 72.337 48.6271 72.329 48.6411 72.329H49.0151C54.8471 72.329 59.5791 67.597 59.5791 61.765C59.6161 55.904 54.8841 51.178 49.0521 51.178Z" fill="white"/>
<path opacity="0.7" d="M49.0491 51.1631H27.6851C26.2471 51.1631 25.0141 50.6721 23.9951 49.6891C23.8911 49.5931 23.8031 49.4981 23.7161 49.3941C23.6651 49.3361 23.6201 49.2771 23.5771 49.2251C21.2301 49.1161 18.8821 49.0041 16.5351 48.8951C16.4251 48.8881 16.3221 48.8451 16.2341 48.7781L26.9021 72.2991H48.6241C48.6381 72.2991 48.661 72.299 48.675 72.291H49.0491C54.8811 72.291 59.6131 67.5591 59.6131 61.7271C59.6131 55.8951 54.8811 51.1631 49.0491 51.1631Z" fill="white"/>
</g>
</svg>
