<?xml version="1.0" encoding="utf-8"?>
<!-- Generator: Adobe Illustrator 16.0.0, SVG Export Plug-In . SVG Version: 6.00 Build 0)  -->
<!DOCTYPE svg PUBLIC "-//W3C//DTD SVG 1.1//EN" "http://www.w3.org/Graphics/SVG/1.1/DTD/svg11.dtd">
<svg version="1.1" id="Layer_1" xmlns="http://www.w3.org/2000/svg" xmlns:xlink="http://www.w3.org/1999/xlink" x="0px" y="0px"
	 width="275.334px" height="107.667px" viewBox="0 0 275.334 107.667" enable-background="new 0 0 275.334 107.667"
	 xml:space="preserve">
<g>
	<g>
		<path fill="#FFFFFF" d="M115.363,55.029H125.5v5.824h-17.741V29.417h7.604V55.029z"/>
		<path fill="#FFFFFF" d="M147.221,37.265c1.941,1.023,3.469,2.498,4.58,4.425s1.668,4.18,1.668,6.759
			c0,2.578-0.557,4.832-1.668,6.758c-1.111,1.928-2.639,3.402-4.58,4.424c-1.941,1.023-4.143,1.535-6.603,1.535
			s-4.669-0.512-6.625-1.535c-1.956-1.021-3.491-2.496-4.603-4.424c-1.111-1.926-1.667-4.18-1.667-6.758
			c0-2.579,0.556-4.832,1.667-6.759s2.646-3.401,4.603-4.425c1.956-1.022,4.165-1.533,6.625-1.533S145.279,36.243,147.221,37.265z
			 M136.95,43.891c-0.993,1.052-1.489,2.571-1.489,4.558s0.496,3.498,1.489,4.535c0.993,1.038,2.216,1.556,3.668,1.556
			s2.668-0.518,3.646-1.556c0.978-1.037,1.468-2.549,1.468-4.535s-0.49-3.506-1.468-4.558c-0.979-1.052-2.194-1.579-3.646-1.579
			S137.943,42.839,136.95,43.891z"/>
		<path fill="#FFFFFF" d="M171.743,37.021c1.363,0.86,2.371,2.031,3.024,3.513v-4.491h7.559v24.678c0,2.313-0.445,4.395-1.334,6.248
			c-0.89,1.852-2.254,3.326-4.091,4.424c-1.839,1.096-4.12,1.645-6.848,1.645c-3.735,0-6.722-0.883-8.96-2.645
			c-2.238-1.766-3.579-4.158-4.023-7.182h7.514c0.237,1.008,0.779,1.793,1.623,2.355c0.846,0.564,1.949,0.846,3.313,0.846
			c1.571,0,2.838-0.453,3.803-1.355c0.963-0.906,1.445-2.35,1.445-4.336v-4.357c-0.653,1.482-1.661,2.652-3.024,3.512
			c-1.364,0.861-2.994,1.291-4.892,1.291c-2.045,0-3.875-0.512-5.49-1.535c-1.617-1.021-2.891-2.496-3.824-4.424
			c-0.934-1.926-1.4-4.18-1.4-6.758c0-2.608,0.467-4.869,1.4-6.781s2.207-3.379,3.824-4.402c1.615-1.022,3.445-1.533,5.49-1.533
			C168.749,35.732,170.379,36.162,171.743,37.021z M165.363,44.001c-0.994,1.067-1.49,2.55-1.49,4.447s0.496,3.379,1.49,4.446
			c0.992,1.067,2.304,1.601,3.935,1.601c1.601,0,2.912-0.548,3.935-1.646c1.023-1.096,1.535-2.563,1.535-4.401
			c0-1.868-0.512-3.342-1.535-4.425c-1.022-1.081-2.334-1.623-3.935-1.623C167.667,42.401,166.355,42.935,165.363,44.001z"/>
		<path fill="#FFFFFF" d="M188.105,26.194c0.83-0.756,1.927-1.134,3.291-1.134c1.363,0,2.46,0.378,3.29,1.134
			c0.829,0.756,1.245,1.712,1.245,2.868c0,1.127-0.416,2.067-1.245,2.823c-0.83,0.756-1.927,1.134-3.29,1.134
			c-1.364,0-2.461-0.378-3.291-1.134s-1.244-1.696-1.244-2.823C186.861,27.906,187.275,26.95,188.105,26.194z M195.176,36.042
			v24.811h-7.604V36.042H195.176z"/>
		<path fill="#FFFFFF" d="M208.025,27.951v32.903h-7.604V27.951H208.025z"/>
		<path fill="#FFFFFF" d="M227.59,37.021c1.361,0.86,2.371,2.031,3.023,3.513v-4.491h7.559v24.811h-7.559v-4.49
			c-0.652,1.482-1.662,2.652-3.023,3.512c-1.365,0.861-2.996,1.291-4.893,1.291c-2.045,0-3.875-0.512-5.49-1.535
			c-1.617-1.021-2.891-2.496-3.824-4.424c-0.934-1.926-1.4-4.18-1.4-6.758c0-2.608,0.467-4.869,1.4-6.781s2.207-3.379,3.824-4.402
			c1.615-1.022,3.445-1.533,5.49-1.533C224.594,35.732,226.225,36.162,227.59,37.021z M221.209,44.001
			c-0.994,1.067-1.49,2.55-1.49,4.447s0.496,3.379,1.49,4.446c0.992,1.067,2.305,1.601,3.934,1.601c1.602,0,2.914-0.548,3.936-1.646
			c1.023-1.096,1.535-2.563,1.535-4.401c0-1.868-0.512-3.342-1.535-4.425c-1.021-1.081-2.334-1.623-3.936-1.623
			C223.514,42.401,222.201,42.935,221.209,44.001z"/>
		<path fill="#FFFFFF" d="M264.385,37.265c1.615,1.023,2.889,2.49,3.822,4.402s1.402,4.173,1.402,6.781
			c0,2.578-0.469,4.832-1.402,6.758c-0.934,1.928-2.207,3.402-3.822,4.424c-1.617,1.023-3.447,1.535-5.492,1.535
			c-1.898,0-3.527-0.43-4.891-1.291c-1.365-0.859-2.357-2.029-2.98-3.512v4.49h-7.604V27.951h7.604v12.583
			c0.623-1.481,1.615-2.652,2.98-3.513c1.363-0.859,2.992-1.289,4.891-1.289C260.938,35.732,262.768,36.243,264.385,37.265z
			 M252.512,44.024c-1.023,1.083-1.533,2.557-1.533,4.425c0,1.838,0.51,3.306,1.533,4.401c1.023,1.098,2.334,1.646,3.936,1.646
			c1.629,0,2.941-0.533,3.936-1.601c0.992-1.067,1.488-2.549,1.488-4.446s-0.496-3.38-1.488-4.447
			c-0.994-1.066-2.307-1.601-3.936-1.601C254.846,42.401,253.535,42.943,252.512,44.024z"/>
	</g>
</g>
<g>
	<path fill="#FFFFFF" d="M110.679,73.232V76.8h4.874v2.104h-4.874v3.704h5.458v2.203h-8.207V71.049h8.207v2.184H110.679z"/>
	<path fill="#FFFFFF" d="M127.152,82.706h4.62v2.105h-7.368V71.049h2.749V82.706z"/>
	<path fill="#FFFFFF" d="M151.306,84.812h-2.749l-6.16-9.357v9.357h-2.748V71.049h2.748l6.16,9.435v-9.435h2.749V84.812z"/>
</g>
<path fill="#FFFFFF" d="M35.218,21.936c-0.038,0.456-0.073,0.91-0.114,1.365c0.038-0.206,0.077-0.415,0.114-0.622V21.936z"/>
<path fill="#FFFFFF" d="M36.621,70.869c-0.328-0.418-0.597-0.861-0.809-1.331c-2.362-0.112-4.722-0.224-7.084-0.334
	c0.906-1.16,1.591-2.61,2.175-3.832c0.347-0.725,0.667-1.465,0.972-2.211c0.093-0.227,0.181-0.456,0.271-0.684
	c0.091-0.235,0.175-0.472,0.263-0.707c0.981-2.623,1.745-5.339,2.36-8.087c0.052-0.24,0.112-0.48,0.164-0.719
	c0.05-0.239,0.1-0.478,0.148-0.716c0.049-0.234,0.093-0.469,0.138-0.704V43.98v-1.29c-0.288,2.169-0.624,4.333-1.015,6.487
	c-0.188,1.025-0.392,2.057-0.605,3.09c-0.051,0.239-0.1,0.476-0.151,0.714c-0.052,0.241-0.101,0.481-0.154,0.72
	c-0.605,2.698-1.357,5.385-2.344,7.964c-1.467-0.107-2.933-0.213-4.397-0.322c0.384-0.389,0.721-0.81,0.997-1.17
	c1.45-1.914,2.528-4.123,3.381-6.441c0.088-0.239,0.17-0.48,0.254-0.721c0.082-0.238,0.163-0.476,0.24-0.716
	c0.843-2.594,1.449-5.278,2-7.805c0.726-3.312,1.307-6.656,1.795-10.018v-6.948V24.25v-1.572c-0.037,0.207-0.076,0.416-0.114,0.622
	c-0.716,8.124-1.833,16.221-3.834,24.091c-0.396,1.558-0.83,3.248-1.371,4.924c-2.094,0.025-4.188,0.051-6.281,0.078
	c1.345-1.313,2.437-3.074,3.298-4.496c4.46-7.36,6.637-16.137,8.188-24.597c0.041-0.455,0.076-0.909,0.114-1.365v-1.919v-0.388
	v-1.402v-0.166c-0.004-0.09-0.02-0.176-0.026-0.266c-0.045-0.656-0.139-1.298-0.267-1.928c-1.237,9.16-3.183,18.336-6.884,26.72
	c-0.709,1.605-1.482,3.178-2.373,4.688c-0.459,0.778-0.96,1.512-1.489,2.241c-0.504,0.696-1.09,1.296-1.685,1.912
	c-0.319,0.332-0.668,0.568-1.055,0.813c-0.172,0.108-0.338,0.223-0.463,0.386c-0.088,0.116-0.271,0.387-0.263,0.539
	c0.026,0.444,0.473,0.671,0.853,0.7c0.615,0.046,1.245-0.051,1.861-0.052c1.272-0.005,2.544-0.035,3.816-0.038
	c0.719-0.002,1.439-0.015,2.158-0.024c-0.883,2.392-2.038,4.667-3.692,6.385c-0.222,0.229-0.449,0.469-0.716,0.653
	c-0.391,0.27-0.962,0.33-1.267,0.713c-0.317,0.401-0.026,0.967,0.419,1.132c0.552,0.207,1.185,0.118,1.762,0.133
	c0.642,0.013,1.282,0.053,1.923,0.098c0.428,0.032,0.859,0.064,1.289,0.096c0.12,0.011,1.243,0.152,1.268,0.093
	c-0.493,1.159-1.029,2.296-1.645,3.387c-0.338,0.602-0.676,1.2-1.068,1.769c-0.195,0.282-0.41,0.536-0.661,0.766
	c-0.216,0.196-0.512,0.4-0.6,0.696c-0.084,0.279,0.12,0.621,0.369,0.76c0.476,0.262,1.06,0.172,1.577,0.187
	c0.658,0.019,1.316,0.059,1.973,0.092c1.371,0.071,2.742,0.131,4.112,0.196c0.392,0.02,0.782,0.035,1.173,0.054
	c0.19,0.01,0.379,0.019,0.569,0.027c0.082,0.004,0.508-0.03,0.552,0.024C36.697,70.964,36.658,70.917,36.621,70.869z"/>
<path fill="#FFFFFF" d="M71.026,19.012c0,1.21-0.981,2.191-2.192,2.191H43.906c-1.21,0-2.191-0.98-2.191-2.191l0,0
	c0-1.211,0.981-2.191,2.191-2.191h24.928C70.044,16.82,71.026,17.801,71.026,19.012L71.026,19.012z"/>
<path fill="#FFFFFF" d="M71.026,30.425c0,1.21-0.981,2.191-2.192,2.191H43.906c-1.21,0-2.191-0.98-2.191-2.191l0,0
	c0-1.21,0.981-2.192,2.191-2.192h24.928C70.044,28.233,71.026,29.215,71.026,30.425L71.026,30.425z"/>
<path fill="#FFFFFF" d="M71.026,53.253c0,1.211-0.981,2.191-2.192,2.191H43.906c-1.21,0-2.191-0.98-2.191-2.191l0,0
	c0-1.212,0.981-2.191,2.191-2.191h24.928C70.044,51.062,71.026,52.041,71.026,53.253L71.026,53.253z"/>
<path fill="#FFFFFF" d="M71.026,64.666c0,1.213-0.981,2.191-2.192,2.191H43.906c-1.21,0-2.191-0.979-2.191-2.191l0,0
	c0-1.211,0.981-2.19,2.191-2.19h24.928C70.044,62.476,71.026,63.455,71.026,64.666L71.026,64.666z"/>
<path fill="#FFFFFF" d="M63.714,41.839c0,1.21-0.981,2.191-2.192,2.191H43.906c-1.21,0-2.191-0.981-2.191-2.191l0,0
	c0-1.209,0.981-2.191,2.191-2.191h17.616C62.732,39.647,63.714,40.629,63.714,41.839L63.714,41.839z"/>
<path fill="#FFFFFF" d="M71.453,73.657H70.11h-6.418h-5.951h-0.176H56.63h-3.344h-0.752h-7.586h-2.606
	c-1.962,0-3.639-0.67-5.033-2.014c-0.135-0.129-0.258-0.265-0.381-0.399c-0.068-0.076-0.127-0.156-0.191-0.234
	c-3.2-0.148-6.401-0.302-9.602-0.45c-0.147-0.008-0.288-0.067-0.408-0.158c-0.04-0.03-0.076-0.062-0.109-0.099
	c-0.255-0.266-0.347-0.682-0.005-0.959c0.965-0.779,1.497-1.783,2.128-2.904c0.616-1.091,1.151-2.228,1.645-3.387
	c-2.048-0.148-4.097-0.298-6.145-0.446c-0.911-0.064-0.953-1.396-0.02-1.432c-0.307,0.013,0.369-0.148,0.214-0.074
	c0.625-0.3,0.813-0.483,1.274-0.965c1.655-1.718,2.809-3.993,3.692-6.385c-2.657,0.034-5.314,0.069-7.969,0.1
	c-0.677,0.01-1.036-1.001-0.378-1.328c0.115-0.059,0.226-0.13,0.333-0.205c2.929-2.014,5.159-6.344,6.655-9.731
	c3.702-8.384,5.647-17.56,6.884-26.72c-0.056-0.271-0.128-0.536-0.198-0.802h0.012c-1.464-6.398-7.183-11.18-14.026-11.18
	c-1.985,0-3.869,0.413-5.587,1.14c-0.089,0.034-0.177,0.072-0.266,0.108c-0.073,0.033-0.146,0.064-0.218,0.098
	c-5.106,2.183-8.736,7.147-8.978,12.997H5.635v0.618v1.172v53.175c0,1.863,0.16,3.665,0.469,5.405
	c1.019,5.776,3.724,10.866,8.127,15.271c5.731,5.73,12.625,8.597,20.677,8.597h1.962h32.474h1.527
	c0.024-0.002,0.047-0.006,0.07-0.007h0.511c7.95,0,14.4-6.448,14.4-14.4C85.853,80.104,79.402,73.657,71.453,73.657z"/>
<path opacity="0.7" fill="#FFFFFF" d="M71.451,73.645h-1.341h-6.418H57.74h-0.176h-0.935h-3.344h-0.752h-7.586h-2.606
	c-1.962,0-3.638-0.669-5.033-2.014c-0.135-0.129-0.258-0.265-0.381-0.398c-0.068-0.077-0.127-0.157-0.191-0.234
	c-3.199-0.149-6.401-0.303-9.601-0.451c-0.146-0.008-0.288-0.067-0.408-0.157l14.538,32.063h28.079h1.527
	c0.024-0.001,0.047-0.005,0.07-0.007h0.51c7.951,0,14.401-6.447,14.401-14.4S79.401,73.645,71.451,73.645z"/>
</svg>
