<?xml version="1.0" encoding="UTF-8"?>
<svg id="Layer_1" xmlns="http://www.w3.org/2000/svg" xmlns:xlink="http://www.w3.org/1999/xlink" viewBox="0 0 1009 371">
  <defs>
    <style>
      .cls-1 {
        fill: #fcfcfc;
      }

      .cls-2 {
        fill: #253858;
      }

      .cls-3 {
        fill: #1368e4;
      }

      .cls-4 {
        fill: #fff;
      }

      .cls-5 {
        fill: url(#linear-gradient);
        isolation: isolate;
        opacity: .7;
      }

      .cls-6 {
        fill: #1469e5;
      }

      .cls-7 {
        fill: #2883fe;
      }
    </style>
    <linearGradient id="linear-gradient" x1="79.54" y1="61.51" x2="302.03" y2="61.51" gradientTransform="translate(0 372) scale(1 -1)" gradientUnits="userSpaceOnUse">
      <stop offset="0" stop-color="#095cd8"/>
      <stop offset=".77" stop-color="#207af5"/>
    </linearGradient>
  </defs>
  <path class="cls-2" d="M411.56,190.09h37.48v22.08h-66.09v-117.45h28.61v95.36ZM506.85,213.51c-9.15,0-17.4-1.95-24.76-5.85-7.25-3.9-12.99-9.48-17.23-16.73-4.13-7.25-6.19-15.73-6.19-25.43s2.12-18.01,6.36-25.26c4.24-7.36,10.04-12.99,17.4-16.9,7.36-3.9,15.61-5.86,24.76-5.86s17.4,1.95,24.76,5.86c7.36,3.9,13.16,9.54,17.4,16.9,4.24,7.25,6.36,15.67,6.36,25.26s-2.17,18.07-6.52,25.43c-4.24,7.25-10.09,12.83-17.57,16.73-7.36,3.9-15.61,5.85-24.76,5.85ZM506.85,188.75c5.46,0,10.09-2.01,13.89-6.02,3.9-4.01,5.86-9.76,5.86-17.23s-1.9-13.22-5.69-17.23c-3.68-4.01-8.25-6.02-13.72-6.02s-10.21,2.01-13.89,6.02c-3.68,3.9-5.52,9.65-5.52,17.23s1.78,13.22,5.35,17.23c3.68,4.01,8.25,6.02,13.72,6.02ZM608.03,117.48c6.58,0,12.33,1.34,17.23,4.01,5.02,2.68,8.87,6.19,11.54,10.54v-13.22h28.61v93.19c0,8.59-1.73,16.34-5.19,23.25-3.35,7.03-8.53,12.6-15.56,16.73-6.92,4.13-15.56,6.19-25.93,6.19-13.83,0-25.04-3.29-33.63-9.87-8.59-6.47-13.5-15.28-14.72-26.43h28.27c.89,3.57,3.01,6.36,6.36,8.36,3.35,2.12,7.47,3.18,12.38,3.18,5.91,0,10.6-1.73,14.05-5.19,3.57-3.35,5.35-8.76,5.35-16.23v-13.22c-2.79,4.35-6.64,7.92-11.54,10.71-4.91,2.68-10.65,4.01-17.23,4.01-7.7,0-14.67-1.95-20.91-5.85-6.25-4.02-11.21-9.65-14.89-16.9-3.57-7.36-5.35-15.84-5.35-25.43s1.79-18.01,5.35-25.26c3.68-7.25,8.64-12.83,14.89-16.73,6.25-3.9,13.22-5.86,20.91-5.86ZM636.8,165.49c0-7.14-2.01-12.77-6.02-16.9-3.9-4.13-8.7-6.19-14.39-6.19s-10.54,2.06-14.56,6.19c-3.9,4.01-5.86,9.59-5.86,16.73s1.95,12.83,5.86,17.07c4.02,4.13,8.87,6.19,14.56,6.19s10.48-2.06,14.39-6.19c4.02-4.13,6.02-9.76,6.02-16.9ZM702.17,109.11c-5.02,0-9.15-1.45-12.38-4.35-3.12-3.01-4.68-6.69-4.68-11.04s1.56-8.14,4.68-11.04c3.23-3.01,7.36-4.52,12.38-4.52s8.92,1.51,12.05,4.52c3.23,2.9,4.85,6.58,4.85,11.04s-1.62,8.03-4.85,11.04c-3.12,2.9-7.14,4.35-12.05,4.35ZM716.39,118.82v93.36h-28.61v-93.36h28.61ZM767.41,88.37v123.81h-28.61v-123.81h28.61ZM784.12,165.33c0-9.59,1.78-18.01,5.35-25.26,3.68-7.25,8.64-12.83,14.89-16.73,6.25-3.9,13.22-5.86,20.91-5.86,6.58,0,12.32,1.34,17.23,4.01,5.02,2.68,8.87,6.19,11.54,10.54v-13.22h28.61v93.36h-28.61v-13.22c-2.79,4.35-6.69,7.86-11.71,10.54-4.91,2.68-10.65,4.01-17.23,4.01-7.58,0-14.5-1.95-20.75-5.85-6.25-4.02-11.21-9.65-14.89-16.9-3.57-7.36-5.35-15.84-5.35-25.43ZM854.06,165.49c0-7.14-2.01-12.77-6.02-16.9-3.9-4.13-8.7-6.19-14.39-6.19s-10.54,2.06-14.56,6.19c-3.9,4.01-5.85,9.59-5.85,16.73s1.95,12.83,5.85,17.07c4.02,4.13,8.87,6.19,14.56,6.19s10.48-2.06,14.39-6.19c4.02-4.13,6.02-9.76,6.02-16.9ZM933.65,132.03c2.68-4.35,6.53-7.86,11.55-10.54,5.02-2.68,10.76-4.01,17.23-4.01,7.7,0,14.67,1.95,20.91,5.86,6.25,3.9,11.15,9.48,14.72,16.73,3.68,7.25,5.52,15.67,5.52,25.26s-1.84,18.07-5.52,25.43c-3.57,7.25-8.48,12.88-14.72,16.9-6.25,3.9-13.22,5.85-20.91,5.85-6.58,0-12.33-1.28-17.23-3.85-4.91-2.68-8.76-6.19-11.55-10.54v13.05h-28.61v-123.81h28.61v43.67ZM974.47,165.33c0-7.14-2.01-12.72-6.02-16.73-3.9-4.13-8.76-6.19-14.56-6.19s-10.54,2.06-14.55,6.19c-3.9,4.13-5.86,9.76-5.86,16.9s1.95,12.77,5.86,16.9c4.02,4.13,8.87,6.19,14.55,6.19s10.54-2.06,14.56-6.19c4.01-4.24,6.02-9.93,6.02-17.07Z"/>
  <path class="cls-2" d="M372.49,257.52v11.19h15.03v7.1h-15.03v11.83h16.95v7.29h-25.91v-44.71h25.91v7.29h-16.95ZM427,287.84h14.71v7.1h-23.67v-44.65h8.96v37.55ZM506.06,294.94h-8.96l-20.28-30.64v30.64h-8.96v-44.71h8.96l20.28,30.7v-30.7h8.96v44.71Z"/>
  <path class="cls-2" d="M842.78,288.15h15.01v7.24h-24.15v-45.55h9.14v38.31ZM887.09,249.84v45.55h-9.14v-45.55h9.14ZM941.47,249.84v7.37h-12.14v38.18h-9.14v-38.18h-12.14v-7.37h33.41ZM971.63,257.22v11.42h15.34v7.24h-15.34v12.07h17.29v7.44h-26.43v-45.62h26.43v7.44h-17.29Z"/>
  <path class="cls-3" d="M111.07,72.99c-5.83,31.83-14.04,64.87-30.82,92.56-3.24,5.34-7.34,11.96-12.42,16.93,7.86-.11,15.77-.19,23.63-.3,2.03-6.32,3.65-12.68,5.15-18.51,7.56-29.65,11.78-60.13,14.45-90.68Z"/>
  <path class="cls-6" d="M104.75,152.73c-2.07,9.52-4.36,19.6-7.53,29.35-.3.9-.6,1.81-.9,2.71-.3.9-.64,1.81-.94,2.71-3.2,8.73-7.26,17.04-12.72,24.23-1.05,1.35-2.3,2.93-3.76,4.4,5.49.41,11.02.79,16.56,1.21,3.73-9.71,6.55-19.83,8.81-29.95.19-.9.38-1.81.56-2.71.19-.9.38-1.81.56-2.67.79-3.88,1.58-7.75,2.26-11.63,1.47-8.09,2.75-16.25,3.84-24.42v-30.93c-1.81,12.64-3.99,25.25-6.74,37.7Z"/>
  <path class="cls-1" d="M111.53,67.87c-.15,1.73-.26,3.42-.41,5.12.15-.79.3-1.54.41-2.33v-2.78Z"/>
  <path class="cls-3" d="M111.53,236.26v-57c-.15.9-.34,1.77-.53,2.63-.19.9-.38,1.81-.56,2.71-.19.9-.41,1.81-.6,2.71-2.33,10.35-5.19,20.54-8.88,30.44-.34.9-.64,1.77-.98,2.67-.34.87-.68,1.73-1.02,2.56-1.17,2.82-2.37,5.61-3.65,8.32-2.18,4.59-4.78,10.05-8.17,14.41,8.88.41,17.76.83,26.64,1.24-1.5-3.24-2.26-6.77-2.26-10.69Z"/>
  <path class="cls-4" d="M116.79,251.99c-1.24-1.58-2.26-3.24-3.05-5-8.88-.41-17.76-.83-26.64-1.24,3.42-4.36,5.98-9.82,8.16-14.41,1.32-2.71,2.52-5.49,3.65-8.32.34-.87.68-1.73,1.02-2.56.34-.9.64-1.77.98-2.67,3.69-9.86,6.55-20.09,8.88-30.44.19-.9.41-1.81.6-2.71.19-.9.38-1.81.56-2.71.19-.87.34-1.77.53-2.63v-33.3c-1.09,8.16-2.33,16.29-3.84,24.42-.72,3.84-1.47,7.75-2.26,11.63-.19.9-.38,1.81-.56,2.67-.19.9-.38,1.81-.56,2.71-2.3,10.16-5.12,20.24-8.8,29.95-5.53-.41-11.02-.79-16.56-1.2,1.43-1.47,2.71-3.05,3.76-4.4,5.46-7.19,9.52-15.5,12.72-24.23.34-.9.64-1.81.94-2.71.3-.9.6-1.81.9-2.71,3.16-9.75,5.46-19.87,7.53-29.35,2.75-12.46,4.93-25.06,6.74-37.7v-44.36c-.15.79-.3,1.58-.41,2.33-2.71,30.55-6.89,61.03-14.41,90.64-1.51,5.87-3.12,12.23-5.15,18.51-7.86.07-15.77.19-23.63.3,5.04-4.93,9.18-11.55,12.42-16.93,16.78-27.69,24.98-60.73,30.82-92.56.15-1.73.3-3.42.41-5.12v-14.6c0-.34-.08-.68-.11-1.02-.15-2.48-.53-4.89-1.02-7.26-4.67,34.47-11.97,69.01-25.89,100.54-2.67,6.06-5.57,11.96-8.92,17.65-1.73,2.93-3.61,5.68-5.61,8.43-1.88,2.63-4.1,4.89-6.32,7.19-1.2,1.24-2.52,2.14-3.99,3.05-.64.41-1.28.83-1.73,1.47-.34.45-1.02,1.47-.98,2.03.11,1.65,1.77,2.52,3.2,2.63,2.33.19,4.67-.19,7-.19,4.78,0,9.56-.15,14.37-.15,2.71,0,5.42-.07,8.13-.07-3.31,8.99-7.68,17.57-13.88,24.04-.83.87-1.69,1.77-2.71,2.45-1.47,1.02-3.61,1.24-4.78,2.67-1.2,1.51-.11,3.65,1.58,4.25,2.07.79,4.44.45,6.62.49,2.41.04,4.82.19,7.22.38,1.62.11,3.24.22,4.85.38.45.04,4.67.56,4.78.34-1.84,4.36-3.88,8.65-6.17,12.76-1.28,2.26-2.56,4.51-4.03,6.66-.71,1.05-1.54,2.03-2.48,2.9-.83.75-1.92,1.51-2.26,2.63-.3,1.05.45,2.33,1.39,2.86,1.81.98,3.99.64,5.94.71,2.48.07,4.97.23,7.41.34,5.15.26,10.31.49,15.46.75,1.47.07,2.94.15,4.4.19.72.04,1.43.07,2.14.11.3,0,1.92-.11,2.07.08-.15-.23-.3-.38-.45-.56Z"/>
  <path class="cls-7" d="M246.27,56.86c0,4.55-3.69,8.24-8.24,8.24h-93.8c-4.55,0-8.24-3.69-8.24-8.24s3.69-8.24,8.24-8.24h93.8c4.51,0,8.24,3.69,8.24,8.24Z"/>
  <path class="cls-7" d="M246.27,99.82c0,4.55-3.69,8.24-8.24,8.24h-93.8c-4.55,0-8.24-3.69-8.24-8.24s3.69-8.24,8.24-8.24h93.8c4.51-.04,8.24,3.69,8.24,8.24Z"/>
  <path class="cls-7" d="M246.27,185.69c0,4.55-3.69,8.24-8.24,8.24h-93.8c-4.55,0-8.24-3.69-8.24-8.24s3.69-8.24,8.24-8.24h93.8c4.51,0,8.24,3.69,8.24,8.24Z"/>
  <path class="cls-7" d="M246.27,228.65c0,4.55-3.69,8.24-8.24,8.24h-93.8c-4.55,0-8.24-3.69-8.24-8.24s3.69-8.24,8.24-8.24h93.8c4.51,0,8.24,3.69,8.24,8.24Z"/>
  <path class="cls-7" d="M218.72,142.75c0,4.55-3.69,8.24-8.24,8.24h-66.3c-4.55,0-8.24-3.69-8.24-8.24s3.69-8.24,8.24-8.24h66.3c4.55,0,8.24,3.69,8.24,8.24Z"/>
  <path class="cls-7" d="M247.85,262.48h-109.57c-7.37,0-13.7-2.52-18.93-7.56-.49-.49-.98-.98-1.43-1.51-.26-.3-.49-.6-.71-.87-12.04-.57-24.08-1.13-36.12-1.69-.56-.04-1.09-.26-1.54-.6-.15-.11-.3-.23-.41-.38-.94-1.02-1.32-2.56,0-3.61,3.61-2.93,5.64-6.7,8.01-10.91,2.33-4.1,4.33-8.39,6.17-12.76-7.71-.56-15.43-1.13-23.14-1.69-3.42-.23-3.57-5.27-.08-5.38-1.17.04,1.39-.56.79-.26,2.33-1.13,3.05-1.81,4.78-3.61,6.21-6.47,10.57-15.01,13.88-24.04-10.01.11-19.98.26-29.99.38-2.56.04-3.91-3.76-1.43-5,.45-.23.87-.49,1.24-.75,11.02-7.56,19.42-23.85,25.02-36.61,13.92-31.53,21.26-66.07,25.89-100.54-.23-1.02-.49-2.03-.75-3.01h.04C104.08,17.99,82.55,0,56.78,0c-7.45,0-14.56,1.54-21.03,4.29-.34.11-.68.26-1.02.41-.26.11-.56.23-.83.38C14.67,13.28,1.02,31.98.11,53.99h-.11v206.83c0,7,.6,13.81,1.77,20.36,3.84,21.75,14,40.9,30.59,57.46,21.56,21.56,47.49,32.36,77.81,32.36h135.31c.07,0,.19-.04.26-.04h1.92c29.91,0,54.18-24.27,54.18-54.18.19-30.06-24.08-54.3-53.99-54.3Z"/>
  <path class="cls-5" d="M247.85,262.4h-109.57c-7.38,0-13.7-2.52-18.93-7.56-.53-.49-.98-.98-1.43-1.51-.26-.3-.49-.6-.71-.87-12.04-.56-24.08-1.13-36.12-1.69-.56-.04-1.09-.26-1.54-.6l54.71,120.63h111.41c.07,0,.19,0,.26-.04h1.92c29.91,0,54.18-24.27,54.18-54.18s-24.27-54.18-54.18-54.18Z"/>
</svg>