<svg xmlns="http://www.w3.org/2000/svg" width="75" height="66.678" viewBox="0 0 75 66.678">
  <g id="Group_5781" data-name="Group 5781" transform="translate(-281 -1556.322)">
    <rect id="Rectangle_494" data-name="Rectangle 494" width="57" height="58" rx="22" transform="translate(299 1565)" fill="#ffebf4"/>
    <g id="secure" transform="translate(281 1556.322)">
      <path id="Path_18672" data-name="Path 18672" d="M38.336,39.689H35.07a1.353,1.353,0,1,1,0-2.706h3.265a2.258,2.258,0,0,0,2.255-2.255V4.961a2.258,2.258,0,0,0-2.255-2.255H4.961A2.258,2.258,0,0,0,2.706,4.961V34.728a2.258,2.258,0,0,0,2.255,2.255H8.226a1.353,1.353,0,1,1,0,2.706H4.961A4.965,4.965,0,0,1,0,34.728V4.961A4.965,4.965,0,0,1,4.961,0H38.336A4.965,4.965,0,0,1,43.3,4.961V34.728A4.965,4.965,0,0,1,38.336,39.689Z" fill="#131b46"/>
      <path id="Path_18673" data-name="Path 18673" d="M41.944,6.206H1.353a1.353,1.353,0,1,1,0-2.706H41.944a1.353,1.353,0,1,1,0,2.706Z" transform="translate(0 2.814)" fill="#131b46"/>
      <g id="Group_2200" data-name="Group 2200" transform="translate(10.824 18.039)">
        <path id="Path_18674" data-name="Path 18674" d="M16.824,35.257a1.345,1.345,0,0,1-.529-.108C15.875,34.97,6,30.671,6,21.824V14.575a1.353,1.353,0,0,1,.918-1.281l9.471-3.222a1.33,1.33,0,0,1,.87,0l9.471,3.222a1.349,1.349,0,0,1,.918,1.281v7.249c0,8.847-9.875,13.148-10.3,13.326a1.376,1.376,0,0,1-.529.106ZM8.706,15.544v6.28c0,6.04,6.233,9.635,8.116,10.582,1.88-.953,8.12-4.566,8.12-10.582v-6.28l-8.118-2.762Z" transform="translate(-6 -10)" fill="#f06aa3"/>
        <path id="Path_18675" data-name="Path 18675" d="M13.961,23.922a1.35,1.35,0,0,1-.956-.4L9.4,19.917A1.353,1.353,0,1,1,11.311,18l2.506,2.506,4.474-5.968a1.352,1.352,0,1,1,2.163,1.624l-5.412,7.216a1.345,1.345,0,0,1-.987.538.8.8,0,0,1-.094,0Z" transform="translate(-3.588 -6.783)" fill="#f06aa3"/>
      </g>
    </g>
  </g>
</svg>
