<svg width="622" height="32" viewBox="0 0 622 32" fill="none" xmlns="http://www.w3.org/2000/svg">
<path d="M0.164201 25V2.8929H15.8781V7.50275H5.58162V12.1126H15.0032V16.1504H5.58162V20.5584H16.08V25H0.164201ZM34.4978 14.7035V25H29.4842V14.7035C29.4842 13.6717 29.2711 12.9202 28.8449 12.4491C28.4411 11.9556 27.7905 11.7088 26.8932 11.7088C25.9735 11.7088 25.222 12.0229 24.6388 12.651C24.078 13.2567 23.7976 14.1876 23.7976 15.4438V25H18.7839V7.80558H23.7976V10.7667C24.2911 9.71234 24.9753 8.89356 25.8501 8.31031C26.725 7.72707 27.7569 7.43545 28.9458 7.43545C30.8301 7.43545 32.2209 8.07477 33.1182 9.35342C34.038 10.6321 34.4978 12.4154 34.4978 14.7035ZM50.4351 19.9191C50.4351 21.5566 49.8968 22.8801 48.82 23.8896C47.7433 24.8766 45.9711 25.3701 43.5035 25.3701C42.1576 25.3701 40.9238 25.2355 39.8022 24.9664C38.703 24.6747 37.8057 24.3495 37.1103 23.9905V19.7172C37.873 20.0985 38.8488 20.4687 40.0377 20.8276C41.2491 21.1865 42.4156 21.366 43.5372 21.366C44.2999 21.366 44.8719 21.2314 45.2533 20.9622C45.6346 20.693 45.8253 20.3453 45.8253 19.9191C45.8253 19.4929 45.6122 19.1452 45.186 18.876C44.7822 18.6068 44.0307 18.3488 42.9315 18.102C40.6659 17.6758 39.0844 17.0029 38.1871 16.0831C37.3122 15.1634 36.8748 14.0306 36.8748 12.6846C36.8748 11.0246 37.4692 9.73477 38.6582 8.81504C39.8471 7.89531 41.5071 7.43545 43.6381 7.43545C44.8495 7.43545 45.9823 7.55883 47.0366 7.80558C48.1134 8.05234 48.9995 8.35518 49.6949 8.7141V12.9538C48.5957 12.4827 47.5302 12.1126 46.4983 11.8434C45.4888 11.5518 44.513 11.406 43.5708 11.406C42.8306 11.406 42.2698 11.5294 41.8884 11.7761C41.5295 12.0004 41.35 12.3257 41.35 12.7519C41.35 13.1333 41.5407 13.4585 41.9221 13.7277C42.3258 13.9969 43.1222 14.2661 44.3111 14.5353C46.6216 14.9839 48.2143 15.6569 49.0892 16.5542C49.9865 17.4291 50.4351 18.5507 50.4351 19.9191ZM52.5913 18.102V7.80558H57.6049V18.102C57.6049 19.1339 57.8068 19.8966 58.2106 20.3901C58.6368 20.8612 59.3098 21.0968 60.2295 21.0968C61.1492 21.0968 61.8895 20.7939 62.4503 20.1883C63.0111 19.5601 63.2915 18.618 63.2915 17.3618V7.80558H68.3052V25H63.2915V22.0726C62.798 23.1045 62.1138 23.912 61.239 24.4953C60.3641 25.0561 59.3434 25.3365 58.1769 25.3365C56.2926 25.3365 54.8906 24.7084 53.9709 23.4522C53.0511 22.1735 52.5913 20.3901 52.5913 18.102ZM76.537 15.9822V25H71.557V7.80558H76.537V11.1031C77.008 9.95909 77.6474 9.0618 78.4549 8.41126C79.2625 7.76072 80.3393 7.48032 81.6852 7.57005V12.651C79.9355 12.5164 78.6344 12.6958 77.782 13.1894C76.952 13.6829 76.537 14.6138 76.537 15.9822ZM90.9246 11.1704C89.8479 11.1704 89.0291 11.5181 88.4683 12.2135C87.9075 12.909 87.571 13.8848 87.4588 15.141H94.1885C94.0988 13.8175 93.7847 12.8304 93.2464 12.1799C92.7304 11.5069 91.9565 11.1704 90.9246 11.1704ZM98.0581 24.327C97.2954 24.6411 96.3869 24.8878 95.3326 25.0673C94.3007 25.2468 93.2688 25.3365 92.2369 25.3365C88.8945 25.3365 86.4494 24.5626 84.9015 23.0147C83.3537 21.4445 82.5798 19.291 82.5798 16.5542C82.5798 15.2307 82.7592 14.0081 83.1182 12.8865C83.4995 11.7649 84.0379 10.8003 84.7333 9.99274C85.4511 9.18518 86.3372 8.55707 87.3915 8.10842C88.4458 7.65977 89.6684 7.43545 91.0592 7.43545C92.4276 7.43545 93.6053 7.65977 94.5923 8.10842C95.5793 8.55707 96.3757 9.18518 96.9814 9.99274C97.6095 10.8003 98.0693 11.7649 98.361 12.8865C98.6526 14.0081 98.7984 15.2307 98.7984 16.5542V17.8665H87.5261C87.728 18.9657 88.2103 19.7845 88.973 20.3228C89.7581 20.8388 90.891 21.0968 92.3715 21.0968C93.381 21.0968 94.368 21.0183 95.3326 20.8612C96.3196 20.7042 97.2281 20.4911 98.0581 20.2219V24.327ZM111.054 16.386C111.054 17.9338 111.323 19.0891 111.861 19.8518C112.422 20.6145 113.219 20.9958 114.25 20.9958C115.125 20.9958 115.899 20.6818 116.572 20.0537C117.245 19.4256 117.582 18.4385 117.582 17.0926V15.713C117.582 14.3446 117.279 13.3464 116.673 12.7183C116.067 12.0902 115.327 11.7761 114.452 11.7761C113.331 11.7761 112.478 12.1799 111.895 12.9875C111.334 13.7726 111.054 14.9054 111.054 16.386ZM117.582 25V21.938C117.066 23.082 116.348 23.9345 115.428 24.4953C114.508 25.0561 113.465 25.3365 112.299 25.3365C111.244 25.3365 110.325 25.1122 109.54 24.6635C108.777 24.2149 108.138 23.598 107.622 22.8128C107.106 22.0053 106.724 21.0519 106.478 19.9527C106.231 18.8535 106.107 17.6646 106.107 16.386C106.107 15.1746 106.231 14.0306 106.478 12.9538C106.747 11.8771 107.139 10.9349 107.655 10.1273C108.194 9.29734 108.867 8.6468 109.674 8.17572C110.504 7.70464 111.48 7.4691 112.602 7.4691C113.768 7.4691 114.766 7.77194 115.596 8.37761C116.449 8.96085 117.111 9.76842 117.582 10.8003V7.80558H122.595V25H117.582ZM133.11 24.9327C132.975 24.9776 132.728 25.0224 132.369 25.0673C132.01 25.1122 131.584 25.1346 131.091 25.1346C129.476 25.1346 128.186 24.7308 127.221 23.9232C126.257 23.0932 125.774 21.781 125.774 19.9864V1.14317H130.788V19.3134C130.788 19.8293 130.945 20.1995 131.259 20.4238C131.573 20.6257 131.943 20.7266 132.369 20.7266C132.504 20.7266 132.616 20.7266 132.706 20.7266C132.818 20.7266 132.953 20.7154 133.11 20.693V24.9327ZM142.442 24.9327C142.307 24.9776 142.061 25.0224 141.702 25.0673C141.343 25.1122 140.916 25.1346 140.423 25.1346C138.808 25.1346 137.518 24.7308 136.553 23.9232C135.589 23.0932 135.106 21.781 135.106 19.9864V1.14317H140.12V19.3134C140.12 19.8293 140.277 20.1995 140.591 20.4238C140.905 20.6257 141.275 20.7266 141.702 20.7266C141.836 20.7266 141.948 20.7266 142.038 20.7266C142.15 20.7266 142.285 20.7154 142.442 20.693V24.9327ZM162.778 20.0873V24.3943C162.218 24.7084 161.556 24.9439 160.793 25.1009C160.053 25.2804 159.257 25.3701 158.404 25.3701C156.856 25.3701 155.499 25.1458 154.333 24.6972C153.189 24.2485 152.246 23.6316 151.506 22.8465C150.766 22.0614 150.205 21.1192 149.824 20.02C149.465 18.8984 149.285 17.687 149.285 16.386C149.285 15.0849 149.465 13.8848 149.824 12.7856C150.205 11.6864 150.755 10.7442 151.473 9.95909C152.213 9.17396 153.144 8.55707 154.265 8.10842C155.387 7.65977 156.688 7.43545 158.169 7.43545C159.088 7.43545 159.896 7.51396 160.591 7.67099C161.287 7.82802 161.982 8.07477 162.678 8.41126V12.7856C162.139 12.5388 161.567 12.3481 160.961 12.2135C160.356 12.0565 159.66 11.978 158.875 11.978C157.215 11.978 156.015 12.4154 155.275 13.2903C154.557 14.1652 154.198 15.1971 154.198 16.386C154.198 17.5749 154.579 18.5956 155.342 19.448C156.105 20.3004 157.316 20.7266 158.976 20.7266C159.873 20.7266 160.603 20.6706 161.163 20.5584C161.747 20.4238 162.285 20.2668 162.778 20.0873ZM180.954 14.7035V25H175.941V15.141C175.941 13.9969 175.728 13.1445 175.302 12.5837C174.898 12.0004 174.247 11.7088 173.35 11.7088C172.43 11.7088 171.679 12.0229 171.095 12.651C170.535 13.2567 170.254 14.1876 170.254 15.4438V25H165.241V1.14317H170.254V10.8003C170.748 9.72355 171.443 8.89356 172.34 8.31031C173.238 7.72707 174.303 7.43545 175.537 7.43545C177.377 7.43545 178.734 8.06356 179.609 9.31977C180.506 10.576 180.954 12.3706 180.954 14.7035ZM191.542 11.1704C190.465 11.1704 189.646 11.5181 189.085 12.2135C188.525 12.909 188.188 13.8848 188.076 15.141H194.806C194.716 13.8175 194.402 12.8304 193.863 12.1799C193.347 11.5069 192.574 11.1704 191.542 11.1704ZM198.675 24.327C197.912 24.6411 197.004 24.8878 195.95 25.0673C194.918 25.2468 193.886 25.3365 192.854 25.3365C189.512 25.3365 187.066 24.5626 185.519 23.0147C183.971 21.4445 183.197 19.291 183.197 16.5542C183.197 15.2307 183.376 14.0081 183.735 12.8865C184.117 11.7649 184.655 10.8003 185.35 9.99274C186.068 9.18518 186.954 8.55707 188.009 8.10842C189.063 7.65977 190.285 7.43545 191.676 7.43545C193.045 7.43545 194.222 7.65977 195.209 8.10842C196.196 8.55707 196.993 9.18518 197.598 9.99274C198.227 10.8003 198.686 11.7649 198.978 12.8865C199.27 14.0081 199.415 15.2307 199.415 16.5542V17.8665H188.143C188.345 18.9657 188.827 19.7845 189.59 20.3228C190.375 20.8388 191.508 21.0968 192.989 21.0968C193.998 21.0968 194.985 21.0183 195.95 20.8612C196.937 20.7042 197.845 20.4911 198.675 20.2219V24.327ZM214.664 20.0873V24.3943C214.103 24.7084 213.442 24.9439 212.679 25.1009C211.939 25.2804 211.142 25.3701 210.29 25.3701C208.742 25.3701 207.385 25.1458 206.219 24.6972C205.074 24.2485 204.132 23.6316 203.392 22.8465C202.652 22.0614 202.091 21.1192 201.71 20.02C201.351 18.8984 201.171 17.687 201.171 16.386C201.171 15.0849 201.351 13.8848 201.71 12.7856C202.091 11.6864 202.641 10.7442 203.358 9.95909C204.099 9.17396 205.03 8.55707 206.151 8.10842C207.273 7.65977 208.574 7.43545 210.054 7.43545C210.974 7.43545 211.782 7.51396 212.477 7.67099C213.173 7.82802 213.868 8.07477 214.563 8.41126V12.7856C214.025 12.5388 213.453 12.3481 212.847 12.2135C212.242 12.0565 211.546 11.978 210.761 11.978C209.101 11.978 207.901 12.4154 207.161 13.2903C206.443 14.1652 206.084 15.1971 206.084 16.386C206.084 17.5749 206.465 18.5956 207.228 19.448C207.991 20.3004 209.202 20.7266 210.862 20.7266C211.759 20.7266 212.488 20.6706 213.049 20.5584C213.632 20.4238 214.171 20.2668 214.664 20.0873ZM222.14 25H217.126V1.14317H222.14V15.6793L227.389 7.80558H233.076L226.952 16.2514L233.278 25H227.49L222.14 17.0926V25ZM247.562 19.9191C247.562 21.5566 247.023 22.8801 245.947 23.8896C244.87 24.8766 243.098 25.3701 240.63 25.3701C239.284 25.3701 238.05 25.2355 236.929 24.9664C235.83 24.6747 234.932 24.3495 234.237 23.9905V19.7172C235 20.0985 235.975 20.4687 237.164 20.8276C238.376 21.1865 239.542 21.366 240.664 21.366C241.427 21.366 241.999 21.2314 242.38 20.9622C242.761 20.693 242.952 20.3453 242.952 19.9191C242.952 19.4929 242.739 19.1452 242.313 18.876C241.909 18.6068 241.157 18.3488 240.058 18.102C237.793 17.6758 236.211 17.0029 235.314 16.0831C234.439 15.1634 234.001 14.0306 234.001 12.6846C234.001 11.0246 234.596 9.73477 235.785 8.81504C236.974 7.89531 238.634 7.43545 240.765 7.43545C241.976 7.43545 243.109 7.55883 244.163 7.80558C245.24 8.05234 246.126 8.35518 246.822 8.7141V12.9538C245.722 12.4827 244.657 12.1126 243.625 11.8434C242.615 11.5518 241.64 11.406 240.698 11.406C239.957 11.406 239.396 11.5294 239.015 11.7761C238.656 12.0004 238.477 12.3257 238.477 12.7519C238.477 13.1333 238.667 13.4585 239.049 13.7277C239.453 13.9969 240.249 14.2661 241.438 14.5353C243.748 14.9839 245.341 15.6569 246.216 16.5542C247.113 17.4291 247.562 18.5507 247.562 19.9191ZM259.679 16.386C259.679 17.9338 259.948 19.0891 260.487 19.8518C261.048 20.6145 261.844 20.9958 262.876 20.9958C263.751 20.9958 264.525 20.6818 265.198 20.0537C265.871 19.4256 266.207 18.4385 266.207 17.0926V15.713C266.207 14.3446 265.904 13.3464 265.299 12.7183C264.693 12.0902 263.953 11.7761 263.078 11.7761C261.956 11.7761 261.104 12.1799 260.52 12.9875C259.96 13.7726 259.679 14.9054 259.679 16.386ZM266.207 25V21.938C265.691 23.082 264.973 23.9345 264.054 24.4953C263.134 25.0561 262.091 25.3365 260.924 25.3365C259.87 25.3365 258.95 25.1122 258.165 24.6635C257.402 24.2149 256.763 23.598 256.247 22.8128C255.731 22.0053 255.35 21.0519 255.103 19.9527C254.856 18.8535 254.733 17.6646 254.733 16.386C254.733 15.1746 254.856 14.0306 255.103 12.9538C255.372 11.8771 255.765 10.9349 256.281 10.1273C256.819 9.29734 257.492 8.6468 258.3 8.17572C259.13 7.70464 260.105 7.4691 261.227 7.4691C262.394 7.4691 263.392 7.77194 264.222 8.37761C265.074 8.96085 265.736 9.76842 266.207 10.8003V7.80558H271.221V25H266.207ZM290.181 14.7035V25H285.167V14.7035C285.167 13.6717 284.954 12.9202 284.528 12.4491C284.124 11.9556 283.474 11.7088 282.576 11.7088C281.657 11.7088 280.905 12.0229 280.322 12.651C279.761 13.2567 279.481 14.1876 279.481 15.4438V25H274.467V7.80558H279.481V10.7667C279.974 9.71234 280.658 8.89356 281.533 8.31031C282.408 7.72707 283.44 7.43545 284.629 7.43545C286.513 7.43545 287.904 8.07477 288.801 9.35342C289.721 10.6321 290.181 12.4154 290.181 14.7035ZM297.37 16.386C297.37 17.9338 297.639 19.0891 298.177 19.8518C298.738 20.6145 299.534 20.9958 300.566 20.9958C301.441 20.9958 302.215 20.6818 302.888 20.0537C303.561 19.4256 303.897 18.4385 303.897 17.0926V15.713C303.897 14.3446 303.595 13.3464 302.989 12.7183C302.383 12.0902 301.643 11.7761 300.768 11.7761C299.646 11.7761 298.794 12.1799 298.211 12.9875C297.65 13.7726 297.37 14.9054 297.37 16.386ZM303.897 25V21.938C303.381 23.082 302.664 23.9345 301.744 24.4953C300.824 25.0561 299.781 25.3365 298.615 25.3365C297.56 25.3365 296.641 25.1122 295.855 24.6635C295.093 24.2149 294.453 23.598 293.937 22.8128C293.421 22.0053 293.04 21.0519 292.793 19.9527C292.547 18.8535 292.423 17.6646 292.423 16.386C292.423 15.1746 292.547 14.0306 292.793 12.9538C293.063 11.8771 293.455 10.9349 293.971 10.1273C294.509 9.29734 295.182 8.6468 295.99 8.17572C296.82 7.70464 297.796 7.4691 298.917 7.4691C300.084 7.4691 301.082 7.77194 301.912 8.37761C302.765 8.96085 303.426 9.76842 303.897 10.8003V1.14317H308.911V25H303.897ZM329.252 16.386C329.252 14.8606 328.972 13.7165 328.411 12.9538C327.873 12.1687 327.087 11.7761 326.055 11.7761C325.158 11.7761 324.373 12.0902 323.7 12.7183C323.05 13.3464 322.724 14.3446 322.724 15.713V17.0926C322.724 18.4385 323.038 19.4256 323.666 20.0537C324.317 20.6818 325.057 20.9958 325.887 20.9958C326.986 20.9958 327.816 20.6033 328.377 19.8181C328.96 19.033 329.252 17.8889 329.252 16.386ZM327.839 25.3365C326.695 25.3365 325.674 25.0561 324.777 24.4953C323.902 23.9345 323.218 23.082 322.724 21.938V25H317.711V1.14317H322.724V10.9013C323.195 9.84693 323.868 9.01693 324.743 8.41126C325.64 7.78315 326.695 7.4691 327.906 7.4691C328.983 7.4691 329.914 7.70464 330.699 8.17572C331.507 8.6468 332.168 9.28612 332.684 10.0937C333.2 10.8788 333.582 11.821 333.828 12.9202C334.098 13.9969 334.232 15.1522 334.232 16.386C334.232 17.6422 334.098 18.8199 333.828 19.9191C333.582 21.0183 333.189 21.9716 332.651 22.7792C332.112 23.5643 331.439 24.1924 330.632 24.6635C329.847 25.1122 328.916 25.3365 327.839 25.3365ZM340.843 16.386C340.843 17.9338 341.112 19.0891 341.651 19.8518C342.212 20.6145 343.008 20.9958 344.04 20.9958C344.915 20.9958 345.689 20.6818 346.362 20.0537C347.035 19.4256 347.371 18.4385 347.371 17.0926V15.713C347.371 14.3446 347.068 13.3464 346.463 12.7183C345.857 12.0902 345.117 11.7761 344.242 11.7761C343.12 11.7761 342.268 12.1799 341.684 12.9875C341.124 13.7726 340.843 14.9054 340.843 16.386ZM347.371 25V21.938C346.855 23.082 346.137 23.9345 345.218 24.4953C344.298 25.0561 343.255 25.3365 342.088 25.3365C341.034 25.3365 340.114 25.1122 339.329 24.6635C338.566 24.2149 337.927 23.598 337.411 22.8128C336.895 22.0053 336.514 21.0519 336.267 19.9527C336.02 18.8535 335.897 17.6646 335.897 16.386C335.897 15.1746 336.02 14.0306 336.267 12.9538C336.536 11.8771 336.929 10.9349 337.445 10.1273C337.983 9.29734 338.656 8.6468 339.464 8.17572C340.294 7.70464 341.269 7.4691 342.391 7.4691C343.558 7.4691 344.556 7.77194 345.386 8.37761C346.238 8.96085 346.9 9.76842 347.371 10.8003V7.80558H352.385V25H347.371ZM362.899 24.9327C362.764 24.9776 362.518 25.0224 362.159 25.0673C361.8 25.1122 361.374 25.1346 360.88 25.1346C359.265 25.1346 357.975 24.7308 357.011 23.9232C356.046 23.0932 355.564 21.781 355.564 19.9864V1.14317H360.577V19.3134C360.577 19.8293 360.734 20.1995 361.048 20.4238C361.362 20.6257 361.733 20.7266 362.159 20.7266C362.293 20.7266 362.406 20.7266 362.495 20.7266C362.607 20.7266 362.742 20.7154 362.899 20.693V24.9327ZM368.971 16.386C368.971 17.9338 369.241 19.0891 369.779 19.8518C370.34 20.6145 371.136 20.9958 372.168 20.9958C373.043 20.9958 373.817 20.6818 374.49 20.0537C375.163 19.4256 375.499 18.4385 375.499 17.0926V15.713C375.499 14.3446 375.196 13.3464 374.591 12.7183C373.985 12.0902 373.245 11.7761 372.37 11.7761C371.248 11.7761 370.396 12.1799 369.813 12.9875C369.252 13.7726 368.971 14.9054 368.971 16.386ZM375.499 25V21.938C374.983 23.082 374.265 23.9345 373.346 24.4953C372.426 25.0561 371.383 25.3365 370.216 25.3365C369.162 25.3365 368.242 25.1122 367.457 24.6635C366.694 24.2149 366.055 23.598 365.539 22.8128C365.023 22.0053 364.642 21.0519 364.395 19.9527C364.148 18.8535 364.025 17.6646 364.025 16.386C364.025 15.1746 364.148 14.0306 364.395 12.9538C364.664 11.8771 365.057 10.9349 365.573 10.1273C366.111 9.29734 366.784 8.6468 367.592 8.17572C368.422 7.70464 369.398 7.4691 370.519 7.4691C371.686 7.4691 372.684 7.77194 373.514 8.37761C374.366 8.96085 375.028 9.76842 375.499 10.8003V7.80558H380.513V25H375.499ZM399.473 14.7035V25H394.459V14.7035C394.459 13.6717 394.246 12.9202 393.82 12.4491C393.416 11.9556 392.766 11.7088 391.868 11.7088C390.949 11.7088 390.197 12.0229 389.614 12.651C389.053 13.2567 388.773 14.1876 388.773 15.4438V25H383.759V7.80558H388.773V10.7667C389.266 9.71234 389.95 8.89356 390.825 8.31031C391.7 7.72707 392.732 7.43545 393.921 7.43545C395.805 7.43545 397.196 8.07477 398.093 9.35342C399.013 10.6321 399.473 12.4154 399.473 14.7035ZM415.208 20.0873V24.3943C414.648 24.7084 413.986 24.9439 413.223 25.1009C412.483 25.2804 411.687 25.3701 410.834 25.3701C409.286 25.3701 407.929 25.1458 406.763 24.6972C405.619 24.2485 404.676 23.6316 403.936 22.8465C403.196 22.0614 402.635 21.1192 402.254 20.02C401.895 18.8984 401.715 17.687 401.715 16.386C401.715 15.0849 401.895 13.8848 402.254 12.7856C402.635 11.6864 403.185 10.7442 403.902 9.95909C404.643 9.17396 405.574 8.55707 406.695 8.10842C407.817 7.65977 409.118 7.43545 410.599 7.43545C411.518 7.43545 412.326 7.51396 413.021 7.67099C413.717 7.82802 414.412 8.07477 415.107 8.41126V12.7856C414.569 12.5388 413.997 12.3481 413.391 12.2135C412.786 12.0565 412.09 11.978 411.305 11.978C409.645 11.978 408.445 12.4154 407.705 13.2903C406.987 14.1652 406.628 15.1971 406.628 16.386C406.628 17.5749 407.009 18.5956 407.772 19.448C408.535 20.3004 409.746 20.7266 411.406 20.7266C412.303 20.7266 413.032 20.6706 413.593 20.5584C414.177 20.4238 414.715 20.2668 415.208 20.0873ZM425.241 11.1704C424.165 11.1704 423.346 11.5181 422.785 12.2135C422.224 12.909 421.888 13.8848 421.776 15.141H428.505C428.416 13.8175 428.102 12.8304 427.563 12.1799C427.047 11.5069 426.273 11.1704 425.241 11.1704ZM432.375 24.327C431.612 24.6411 430.704 24.8878 429.649 25.0673C428.618 25.2468 427.586 25.3365 426.554 25.3365C423.211 25.3365 420.766 24.5626 419.218 23.0147C417.671 21.4445 416.897 19.291 416.897 16.5542C416.897 15.2307 417.076 14.0081 417.435 12.8865C417.816 11.7649 418.355 10.8003 419.05 9.99274C419.768 9.18518 420.654 8.55707 421.708 8.10842C422.763 7.65977 423.985 7.43545 425.376 7.43545C426.744 7.43545 427.922 7.65977 428.909 8.10842C429.896 8.55707 430.693 9.18518 431.298 9.99274C431.926 10.8003 432.386 11.7649 432.678 12.8865C432.969 14.0081 433.115 15.2307 433.115 16.5542V17.8665H421.843C422.045 18.9657 422.527 19.7845 423.29 20.3228C424.075 20.8388 425.208 21.0968 426.688 21.0968C427.698 21.0968 428.685 21.0183 429.649 20.8612C430.636 20.7042 431.545 20.4911 432.375 20.2219V24.327ZM448.566 19.9191C448.566 21.5566 448.028 22.8801 446.951 23.8896C445.874 24.8766 444.102 25.3701 441.634 25.3701C440.288 25.3701 439.055 25.2355 437.933 24.9664C436.834 24.6747 435.937 24.3495 435.241 23.9905V19.7172C436.004 20.0985 436.98 20.4687 438.169 20.8276C439.38 21.1865 440.546 21.366 441.668 21.366C442.431 21.366 443.003 21.2314 443.384 20.9622C443.765 20.693 443.956 20.3453 443.956 19.9191C443.956 19.4929 443.743 19.1452 443.317 18.876C442.913 18.6068 442.162 18.3488 441.062 18.102C438.797 17.6758 437.215 17.0029 436.318 16.0831C435.443 15.1634 435.006 14.0306 435.006 12.6846C435.006 11.0246 435.6 9.73477 436.789 8.81504C437.978 7.89531 439.638 7.43545 441.769 7.43545C442.98 7.43545 444.113 7.55883 445.167 7.80558C446.244 8.05234 447.13 8.35518 447.826 8.7141V12.9538C446.727 12.4827 445.661 12.1126 444.629 11.8434C443.62 11.5518 442.644 11.406 441.702 11.406C440.961 11.406 440.401 11.5294 440.019 11.7761C439.66 12.0004 439.481 12.3257 439.481 12.7519C439.481 13.1333 439.672 13.4585 440.053 13.7277C440.457 13.9969 441.253 14.2661 442.442 14.5353C444.752 14.9839 446.345 15.6569 447.22 16.5542C448.117 17.4291 448.566 18.5507 448.566 19.9191ZM460.683 16.386C460.683 17.9338 460.953 19.0891 461.491 19.8518C462.052 20.6145 462.848 20.9958 463.88 20.9958C464.755 20.9958 465.529 20.6818 466.202 20.0537C466.875 19.4256 467.211 18.4385 467.211 17.0926V15.713C467.211 14.3446 466.908 13.3464 466.303 12.7183C465.697 12.0902 464.957 11.7761 464.082 11.7761C462.96 11.7761 462.108 12.1799 461.525 12.9875C460.964 13.7726 460.683 14.9054 460.683 16.386ZM467.211 25V21.938C466.695 23.082 465.977 23.9345 465.058 24.4953C464.138 25.0561 463.095 25.3365 461.928 25.3365C460.874 25.3365 459.954 25.1122 459.169 24.6635C458.407 24.2149 457.767 23.598 457.251 22.8128C456.735 22.0053 456.354 21.0519 456.107 19.9527C455.86 18.8535 455.737 17.6646 455.737 16.386C455.737 15.1746 455.86 14.0306 456.107 12.9538C456.376 11.8771 456.769 10.9349 457.285 10.1273C457.823 9.29734 458.496 8.6468 459.304 8.17572C460.134 7.70464 461.11 7.4691 462.231 7.4691C463.398 7.4691 464.396 7.77194 465.226 8.37761C466.078 8.96085 466.74 9.76842 467.211 10.8003V7.80558H472.225V25H467.211ZM480.451 15.9822V25H475.471V7.80558H480.451V11.1031C480.922 9.95909 481.562 9.0618 482.369 8.41126C483.177 7.76072 484.253 7.48032 485.599 7.57005V12.651C483.85 12.5164 482.549 12.6958 481.696 13.1894C480.866 13.6829 480.451 14.6138 480.451 15.9822ZM494.839 11.1704C493.762 11.1704 492.943 11.5181 492.382 12.2135C491.822 12.909 491.485 13.8848 491.373 15.141H498.103C498.013 13.8175 497.699 12.8304 497.161 12.1799C496.645 11.5069 495.871 11.1704 494.839 11.1704ZM501.972 24.327C501.21 24.6411 500.301 24.8878 499.247 25.0673C498.215 25.2468 497.183 25.3365 496.151 25.3365C492.809 25.3365 490.364 24.5626 488.816 23.0147C487.268 21.4445 486.494 19.291 486.494 16.5542C486.494 15.2307 486.673 14.0081 487.032 12.8865C487.414 11.7649 487.952 10.8003 488.647 9.99274C489.365 9.18518 490.251 8.55707 491.306 8.10842C492.36 7.65977 493.583 7.43545 494.973 7.43545C496.342 7.43545 497.519 7.65977 498.506 8.10842C499.493 8.55707 500.29 9.18518 500.896 9.99274C501.524 10.8003 501.983 11.7649 502.275 12.8865C502.567 14.0081 502.713 15.2307 502.713 16.5542V17.8665H491.44C491.642 18.9657 492.124 19.7845 492.887 20.3228C493.672 20.8388 494.805 21.0968 496.286 21.0968C497.295 21.0968 498.282 21.0183 499.247 20.8612C500.234 20.7042 501.142 20.4911 501.972 20.2219V24.327ZM510.156 3.12844C510.156 2.20871 510.448 1.49087 511.031 0.974927C511.637 0.458982 512.399 0.20101 513.319 0.20101C514.239 0.20101 514.99 0.458982 515.574 0.974927C516.179 1.49087 516.482 2.20871 516.482 3.12844C516.482 4.04816 516.179 4.766 515.574 5.28194C514.99 5.77546 514.239 6.02221 513.319 6.02221C512.399 6.02221 511.637 5.77546 511.031 5.28194C510.448 4.766 510.156 4.04816 510.156 3.12844ZM510.796 25V7.80558H515.809V25H510.796ZM534.757 14.7035V25H529.744V14.7035C529.744 13.6717 529.53 12.9202 529.104 12.4491C528.7 11.9556 528.05 11.7088 527.153 11.7088C526.233 11.7088 525.481 12.0229 524.898 12.651C524.337 13.2567 524.057 14.1876 524.057 15.4438V25H519.043V7.80558H524.057V10.7667C524.551 9.71234 525.235 8.89356 526.11 8.31031C526.984 7.72707 528.016 7.43545 529.205 7.43545C531.09 7.43545 532.48 8.07477 533.378 9.35342C534.297 10.6321 534.757 12.4154 534.757 14.7035ZM554.868 16.386C554.868 14.8606 554.588 13.7165 554.027 12.9538C553.489 12.1687 552.704 11.7761 551.672 11.7761C550.774 11.7761 549.989 12.0902 549.316 12.7183C548.666 13.3464 548.341 14.3446 548.341 15.713V17.0926C548.341 18.4385 548.655 19.4256 549.283 20.0537C549.933 20.6818 550.674 20.9958 551.504 20.9958C552.603 20.9958 553.433 20.6033 553.994 19.8181C554.577 19.033 554.868 17.8889 554.868 16.386ZM553.455 25.3365C552.311 25.3365 551.29 25.0561 550.393 24.4953C549.518 23.9345 548.834 23.082 548.341 21.938V31.5615H543.327V7.80558H548.341V10.9013C548.812 9.84693 549.485 9.01693 550.359 8.41126C551.257 7.78315 552.311 7.4691 553.522 7.4691C554.599 7.4691 555.53 7.70464 556.315 8.17572C557.123 8.6468 557.785 9.28612 558.301 10.0937C558.816 10.8788 559.198 11.821 559.445 12.9202C559.714 13.9969 559.848 15.1522 559.848 16.386C559.848 17.6422 559.714 18.8199 559.445 19.9191C559.198 21.0183 558.805 21.9716 558.267 22.7792C557.729 23.5643 557.056 24.1924 556.248 24.6635C555.463 25.1122 554.532 25.3365 553.455 25.3365ZM569.555 24.9327C569.421 24.9776 569.174 25.0224 568.815 25.0673C568.456 25.1122 568.03 25.1346 567.536 25.1346C565.921 25.1346 564.631 24.7308 563.667 23.9232C562.702 23.0932 562.22 21.781 562.22 19.9864V1.14317H567.233V19.3134C567.233 19.8293 567.39 20.1995 567.704 20.4238C568.018 20.6257 568.389 20.7266 568.815 20.7266C568.949 20.7266 569.062 20.7266 569.151 20.7266C569.263 20.7266 569.398 20.7154 569.555 20.693V24.9327ZM575.627 16.386C575.627 17.9338 575.897 19.0891 576.435 19.8518C576.996 20.6145 577.792 20.9958 578.824 20.9958C579.699 20.9958 580.473 20.6818 581.146 20.0537C581.819 19.4256 582.155 18.4385 582.155 17.0926V15.713C582.155 14.3446 581.852 13.3464 581.247 12.7183C580.641 12.0902 579.901 11.7761 579.026 11.7761C577.904 11.7761 577.052 12.1799 576.469 12.9875C575.908 13.7726 575.627 14.9054 575.627 16.386ZM582.155 25V21.938C581.639 23.082 580.921 23.9345 580.002 24.4953C579.082 25.0561 578.039 25.3365 576.872 25.3365C575.818 25.3365 574.898 25.1122 574.113 24.6635C573.351 24.2149 572.711 23.598 572.195 22.8128C571.679 22.0053 571.298 21.0519 571.051 19.9527C570.804 18.8535 570.681 17.6646 570.681 16.386C570.681 15.1746 570.804 14.0306 571.051 12.9538C571.32 11.8771 571.713 10.9349 572.229 10.1273C572.767 9.29734 573.44 8.6468 574.248 8.17572C575.078 7.70464 576.054 7.4691 577.175 7.4691C578.342 7.4691 579.34 7.77194 580.17 8.37761C581.022 8.96085 581.684 9.76842 582.155 10.8003V7.80558H587.169V25H582.155ZM603.134 20.0873V24.3943C602.574 24.7084 601.912 24.9439 601.149 25.1009C600.409 25.2804 599.612 25.3701 598.76 25.3701C597.212 25.3701 595.855 25.1458 594.689 24.6972C593.544 24.2485 592.602 23.6316 591.862 22.8465C591.122 22.0614 590.561 21.1192 590.18 20.02C589.821 18.8984 589.641 17.687 589.641 16.386C589.641 15.0849 589.821 13.8848 590.18 12.7856C590.561 11.6864 591.111 10.7442 591.828 9.95909C592.569 9.17396 593.5 8.55707 594.621 8.10842C595.743 7.65977 597.044 7.43545 598.524 7.43545C599.444 7.43545 600.252 7.51396 600.947 7.67099C601.643 7.82802 602.338 8.07477 603.033 8.41126V12.7856C602.495 12.5388 601.923 12.3481 601.317 12.2135C600.712 12.0565 600.016 11.978 599.231 11.978C597.571 11.978 596.371 12.4154 595.631 13.2903C594.913 14.1652 594.554 15.1971 594.554 16.386C594.554 17.5749 594.935 18.5956 595.698 19.448C596.461 20.3004 597.672 20.7266 599.332 20.7266C600.229 20.7266 600.958 20.6706 601.519 20.5584C602.102 20.4238 602.641 20.2668 603.134 20.0873ZM613.167 11.1704C612.091 11.1704 611.272 11.5181 610.711 12.2135C610.15 12.909 609.814 13.8848 609.702 15.141H616.431C616.342 13.8175 616.028 12.8304 615.489 12.1799C614.973 11.5069 614.199 11.1704 613.167 11.1704ZM620.301 24.327C619.538 24.6411 618.63 24.8878 617.575 25.0673C616.543 25.2468 615.512 25.3365 614.48 25.3365C611.137 25.3365 608.692 24.5626 607.144 23.0147C605.596 21.4445 604.823 19.291 604.823 16.5542C604.823 15.2307 605.002 14.0081 605.361 12.8865C605.742 11.7649 606.281 10.8003 606.976 9.99274C607.694 9.18518 608.58 8.55707 609.634 8.10842C610.689 7.65977 611.911 7.43545 613.302 7.43545C614.67 7.43545 615.848 7.65977 616.835 8.10842C617.822 8.55707 618.618 9.18518 619.224 9.99274C619.852 10.8003 620.312 11.7649 620.604 12.8865C620.895 14.0081 621.041 15.2307 621.041 16.5542V17.8665H609.769C609.971 18.9657 610.453 19.7845 611.216 20.3228C612.001 20.8388 613.134 21.0968 614.614 21.0968C615.624 21.0968 616.611 21.0183 617.575 20.8612C618.562 20.7042 619.471 20.4911 620.301 20.2219V24.327Z" fill="#1C53A1"/>
</svg>
