<svg width="321" height="468" viewBox="0 0 321 468" fill="none" xmlns="http://www.w3.org/2000/svg">
<path d="M184.796 468.01H6.70166C6.70166 468.01 17.2988 375.333 48.9227 322.404H154.586C154.586 322.404 193.23 360.598 184.796 468.01Z" fill="#38474F"/>
<path d="M142.001 329.778C128.504 330.711 115.053 331.546 101.515 331.738C88.0121 331.929 74.5038 331.69 61.0142 331.076C59.7936 331.021 59.8122 332.879 61.0142 332.962C74.4952 333.89 88.0021 334.36 101.515 334.39C103.328 334.394 105.146 334.38 106.963 334.374C106.962 334.43 106.94 334.47 106.944 334.529C107.547 342.268 108.237 350.002 108.9 357.736C109.311 362.54 109.106 373.425 116.874 371.786C117.531 371.647 118.126 370.908 118.079 370.225C117.269 358.261 116.925 346.268 116.967 334.277C125.326 334.141 133.689 333.866 141.999 333.29C144.246 333.134 144.26 329.622 142.001 329.778ZM114.785 368.517C112.771 367.65 112.665 363.488 112.517 361.831C112.254 358.872 111.989 355.915 111.725 352.957C111.176 346.812 110.641 340.668 110.045 334.528C110.039 334.466 110.007 334.423 109.996 334.364C111.509 334.354 113.022 334.333 114.536 334.313C114.176 345.717 114.279 357.122 114.785 368.517Z" fill="#263238"/>
<path d="M128.676 467.177C128.039 460.658 127.289 439.468 126.374 432.977C124.543 419.994 122.347 407.03 118.857 394.418C116.718 386.684 114.785 385.123 114.224 395.306C113.675 405.265 113.586 415.251 113.447 425.211C113.337 434.587 113.53 458.632 113.586 468.009H128.761C128.732 467.731 128.703 467.454 128.676 467.177Z" fill="#263238"/>
<path d="M189.011 431.674C189.011 431.674 162.991 444.464 151.34 438.915C132.477 429.955 133.698 413.893 127.9 322.405L152.561 262.734C149.232 293.194 163.046 313.5 174.615 344.791C175.003 345.818 175.391 346.871 175.78 347.926C176.556 350.145 177.333 352.393 178.082 354.722L178.748 356.802C184.795 376.166 189.372 399.856 189.011 431.674Z" fill="#B6B6B6"/>
<path d="M94.8763 322.399C100.754 377.256 95.3964 426.809 81.8523 436.276C65.8899 447.434 8.21655 431.804 8.21655 431.804C26.9768 317.498 62.7496 283.809 62.7496 283.809L94.8763 322.399Z" fill="#B6B6B6"/>
<path d="M125.524 59.2764C125.886 80.9993 133.791 102.525 147.578 119.316C153.934 127.06 161.768 134.332 164.041 144.088C166.061 152.753 163.169 162 158.109 169.318C153.049 176.636 145.999 182.318 138.867 187.637L118.237 190.156L102.692 62.7978L125.524 59.2764Z" fill="#263238"/>
<path d="M93.2086 23.7236C-5.22459 26.2408 54.7983 117.814 25.9222 143.893C5.50868 162.326 11.8953 187.863 11.8953 187.863C27.6557 163.356 103.991 197.952 100.27 143.694L65.6878 95.6632L93.2086 23.7236Z" fill="#263238"/>
<path d="M136.964 128.98C188.026 129.115 271.354 131.016 271.354 131.016L274.597 199.307C202.784 213.947 156.967 219.392 156.967 219.392L136.964 128.98Z" fill="#B6B6B6"/>
<path d="M152.128 132.929C153.176 127.081 114.323 129.213 114.323 129.213L81.4502 126.882C81.4502 126.882 13.8329 149.384 11.6138 159.398C9.83875 167.415 11.3846 248.539 46.5084 322.397H156.576C141.529 241.425 172.788 246.792 174.08 219.391C175.388 191.661 145.029 172.51 152.128 132.929Z" fill="#B6B6B6"/>
<path d="M150.243 175.389C143.791 161.543 135.862 148.419 128.686 134.951C128.368 134.353 127.499 134.866 127.781 135.465C134.328 149.29 140.149 163.516 147.434 176.984C148.435 178.835 151.108 177.246 150.243 175.389Z" fill="#8F8F8F"/>
<path d="M144.632 211.683C142.929 217.753 142.304 224.218 141.307 230.436C140.318 236.605 139.413 242.786 138.496 248.967C136.644 261.446 134.887 273.943 132.978 286.413C131.89 293.516 130.966 300.633 129.968 307.746C129.82 308.798 131.4 309.263 131.604 308.175C136.247 283.222 140.943 258.253 145.099 233.212C146.251 226.27 147.906 219.187 148.258 212.148C148.364 210.021 145.188 209.706 144.632 211.683Z" fill="#8F8F8F"/>
<path d="M82.1683 287.624C80.6798 279.326 78.9277 271.074 76.932 262.882C72.9637 246.602 67.9795 230.569 62.0112 214.91C58.9941 206.994 55.795 199.117 52.2822 191.401C58.9984 190.583 65.6945 189.604 72.4135 188.795C74.1628 188.584 74.4493 186.447 72.8004 185.794C68.7374 184.183 64.8722 181.884 61.0513 179.782C57.7477 177.966 54.5386 176.01 51.3882 173.946C56.3566 163.414 59.7391 152.402 61.9926 140.971C62.2089 139.873 60.5714 139.418 60.2935 140.525C57.4125 152.032 52.8911 163.188 47.4686 173.722C46.9843 174.663 47.3167 175.626 48.1562 176.215C51.7794 178.761 55.5472 181.143 59.4568 183.229C61.6043 184.375 63.8149 185.342 66.0426 186.271C60.4582 186.719 54.8724 187.135 49.2995 187.702C47.7078 187.864 46.8554 189.275 47.5259 190.748C61.2992 220.965 71.5898 252.5 77.6154 285.187C79.3159 294.408 80.2887 303.764 82.2027 312.94C82.5752 314.727 85.4003 314.345 85.3574 312.533C85.1654 304.165 83.6425 295.845 82.1683 287.624Z" fill="#8F8F8F"/>
<path d="M175.465 212.975C174.501 203.355 170.507 194.191 165.485 186.023C162.577 181.293 159.454 176.7 156.534 171.978C153.63 167.282 151.171 162.362 148.903 157.333C148.784 157.071 148.375 157.269 148.45 157.533C151.083 166.815 156.483 175.248 160.987 183.704C165.626 192.411 170.189 201.428 171.684 211.291C172.408 216.057 172.315 221 171.11 225.68C169.979 230.072 167.763 234.038 165.386 237.867C162.917 241.849 160.134 245.636 157.907 249.765C155.688 253.878 153.88 258.255 152.569 262.744C149.649 272.733 148.878 283.803 151.744 293.872C152.042 294.92 153.733 294.69 153.655 293.569C152.977 283.951 153.152 274.346 155.656 264.976C156.918 260.252 158.619 255.681 160.872 251.338C163.031 247.179 165.63 243.28 168.119 239.316C170.553 235.439 172.772 231.388 174.161 227.007C175.6 222.481 175.938 217.686 175.465 212.975Z" fill="#8F8F8F"/>
<path d="M127.889 322.399H94.8767C91.9356 283.395 80.6178 238.65 77.8442 208.772C75.1251 179.173 76.0964 139.061 76.0964 139.061L119.209 133.833C119.209 133.833 122.951 155.983 135.018 198.98C143.118 227.804 123.006 241.729 127.889 322.399Z" fill="white"/>
<path d="M134.003 234.744C133.781 235.687 133.588 236.658 133.393 237.657C120.494 240.957 107.539 243.982 94.4729 246.396C90.9214 247.062 87.3427 247.672 83.7927 248.227C83.5978 247.006 83.3772 245.813 83.1824 244.621C100.271 242.207 117.247 238.877 134.003 234.744Z" fill="#B5DFC4"/>
<path d="M121.012 89.6908L120.241 106.857L119.36 126.6L119.144 136.942C118.904 148.36 109.82 157.62 98.4091 158.077C86.9093 158.539 77.0672 149.906 76.0271 138.443L70.4885 77.4619L121.012 89.6908Z" fill="#AC635B"/>
<path d="M120.604 103.232L119.36 126.599C96.3105 128.982 85.3151 115.022 80.2722 100.756C89.8766 98.2389 120.604 103.232 120.604 103.232Z" fill="#824645"/>
<path d="M138.305 54.1946C137.957 20.1596 103.455 9.48359 79.1216 28.4645C61.2854 32.7194 40.6039 59.4509 62.2796 90.0304L138.305 54.1946Z" fill="#263238"/>
<path d="M125.634 31.8911C121.261 28.0789 115.67 26.2236 109.651 25.8468C94.3035 24.8512 76.1435 33.4842 68.1982 44.2719C56.5824 60.0337 59.2184 79.602 69.4717 94.5601C74.1522 101.46 80.4686 107.391 87.7464 111.498C100.494 118.72 117.234 120.89 129.396 112.72C138.179 106.843 143.239 96.3752 144.347 85.844C146.232 68.0493 139.512 44.0054 125.634 31.8911Z" fill="#AC635B"/>
<path d="M86.7864 30.3572C104.055 27.9432 125.062 33.7267 137.868 48.9785C128.214 15.3647 99.0812 20.2213 86.7864 30.3572Z" fill="#263238"/>
<path d="M92.5026 26.7998C101.17 54.5828 81.2464 85.8915 69.1622 91.5833C33.037 75.5536 57.1825 35.122 92.5026 26.7998Z" fill="#263238"/>
<path d="M132.677 63.721C133.536 65.7883 133.032 68.0318 131.551 68.7324C130.068 69.4315 128.168 68.3241 127.309 66.2568C126.448 64.1895 126.954 61.946 128.435 61.2469C129.918 60.5449 131.817 61.6538 132.677 63.721Z" fill="#263238"/>
<path d="M109.681 72.4015C110.54 74.4688 110.036 76.7122 108.555 77.4114C107.072 78.1119 105.172 77.0031 104.313 74.9358C103.452 72.8685 103.956 70.625 105.439 69.9259C106.92 69.2253 108.82 70.3342 109.681 72.4015Z" fill="#263238"/>
<path d="M125.716 74.9759C122.503 70.2969 119.069 65.8228 115.579 61.3559C115.241 60.9218 114.529 61.3444 114.843 61.8215C117.381 65.6796 119.939 69.4746 122.652 73.2166C123.964 75.0275 125.658 76.9143 126.221 79.1277C126.69 80.9801 125.779 82.6505 124.645 84.023C124.351 84.3797 124.573 84.9957 125.082 84.9556C126.837 84.8166 127.986 83.0101 128.092 81.3712C128.243 79.0217 126.999 76.8412 125.716 74.9759Z" fill="#263238"/>
<path d="M61.7523 83.786C56.7853 83.0582 51.1408 84.8404 48.6666 89.207C46.6065 92.8445 47.1265 97.4203 48.5219 101.361C50.3227 106.444 53.5634 111.108 58.0761 114.059C62.5889 117.01 68.4212 118.096 73.5342 116.388C78.6487 114.681 82.7976 109.999 83.3191 104.632C84.3234 94.3344 70.6761 85.0925 61.7523 83.786Z" fill="#AC635B"/>
<path d="M71.8562 100.604C67.1485 97.022 62.0297 96.9962 56.4883 98.181C55.666 98.3572 55.7878 99.7526 56.6588 99.6781C61.1759 99.2898 66.2846 102.098 69.3877 104.591C69.829 104.944 70.6656 105.003 71.1871 104.873C71.7344 104.737 72.3361 104.333 72.6154 103.831C73.2845 102.632 72.9034 101.4 71.8562 100.604Z" fill="#824645"/>
<path d="M133.175 42.201C131.108 39.0664 121.235 42.5434 120.599 46.2639C119.773 51.1048 136.729 47.5934 133.175 42.201Z" fill="#263238"/>
<path d="M98.2502 55.9349C95.4967 52.5095 84.5156 57.5323 84.1732 61.9376C83.5815 69.5879 101.627 60.1354 98.2502 55.9349Z" fill="#263238"/>
<path d="M122.834 89.5192C121.266 90.1925 119.305 90.6767 117.587 90.863C115.903 91.0463 113.098 90.7483 111.639 89.8386C111.085 89.4919 110.612 90.2555 110.993 90.757C112.493 92.7325 114.832 93.7339 117.676 93.6451C120.143 93.5678 122.19 92.3343 123.486 90.3014C123.731 89.916 123.266 89.3329 122.834 89.5192Z" fill="#263238"/>
<path d="M202.614 33.6824L175.738 31.1309C173.184 30.8887 171.273 28.6753 171.406 26.1123C171.516 23.9963 173.002 22.2041 175.061 21.7027L199.355 15.7988L202.614 33.6824Z" fill="#824645"/>
<path d="M258.049 45.0615C268.841 57.6558 274.596 66.392 281.863 78.0793L254.764 98.4929L239.14 55.4724L258.049 45.0615Z" fill="#AC635B"/>
<path d="M201.66 35.315C226.179 54.5266 243.17 66.7398 258.049 45.0641L231.052 14.1895L201.66 35.315Z" fill="#AC635B"/>
<path d="M155.201 89.5969C154.249 89.1728 153.61 88.2015 153.588 87.16C153.577 86.6485 153.692 86.1844 153.904 85.7789C154.613 84.4194 154.599 82.7962 153.755 81.5283C153.751 81.5212 153.747 81.5154 153.747 81.5154C153.398 80.9925 153.294 80.3822 153.414 79.812C153.523 79.239 153.855 78.7161 154.378 78.368C155.536 77.5972 155.731 75.9769 154.787 74.954L154.671 74.8236C154.183 74.2892 153.979 73.5572 154.116 72.8423L158.255 52.3915L162.106 33.5811L171.954 35.5581L166.056 64.48L163.963 74.8193C163.814 75.5313 163.342 76.1287 162.686 76.4325L162.498 76.5199C161.212 77.1115 160.875 78.676 161.626 79.8751C162.272 80.9166 161.981 82.2805 160.956 82.9638L160.935 82.9767C159.652 83.8406 159.066 85.3434 159.17 86.8892C159.185 87.1242 159.17 87.3706 159.12 87.6213C158.776 89.3405 156.914 90.372 155.201 89.5969Z" fill="#B6B6B6"/>
<path d="M164.386 64.8114L162.426 74.4974C162.379 74.7252 162.233 74.9115 162.027 75.0075L161.845 75.092C160.853 75.549 160.136 76.3727 159.825 77.4128C159.498 78.5059 159.671 79.7079 160.295 80.7021C160.495 81.0259 160.405 81.4442 160.061 81.672C158.376 82.8067 157.458 84.7952 157.606 86.9885C157.613 87.0931 157.604 87.2006 157.583 87.3109C157.51 87.6762 157.276 87.9842 156.944 88.1547C156.747 88.255 156.345 88.3911 155.841 88.1619C155.65 88.0773 155.485 87.9341 155.361 87.7493C155.236 87.5616 155.164 87.3395 155.159 87.1275C155.154 86.8968 155.199 86.6934 155.298 86.5057C156.289 84.6046 156.199 82.364 155.054 80.6434C154.922 80.4457 154.925 80.2566 154.958 80.1047C154.981 79.9815 155.051 79.8068 155.249 79.675C157.007 78.5045 157.488 76.1235 156.319 74.3685C156.206 74.1994 156.08 74.0376 155.964 73.9144L155.831 73.7639C155.806 73.7367 155.783 73.7081 155.765 73.6794C155.66 73.5218 155.623 73.3313 155.657 73.155L158.987 56.707C159.683 57.8173 160.369 58.8617 161.002 59.813C161.282 60.2327 161.561 60.6496 161.846 61.0723L162.817 62.5006C163.34 63.2699 163.865 64.0407 164.386 64.8114Z" fill="white"/>
<path d="M176.694 43.3948L154.435 38.9264C153.327 38.7044 152.609 37.6241 152.831 36.5167L154.59 27.7562C154.812 26.6473 155.891 25.9296 157 26.1516L179.259 30.62C180.367 30.8421 181.085 31.9209 180.863 33.0297L179.105 41.7902C178.882 42.9005 177.802 43.6183 176.694 43.3948Z" fill="white"/>
<path d="M177.619 27.9638L159.537 24.335C158.82 24.1903 158.121 24.6559 157.976 25.3736L157.487 27.8076C157.343 28.5254 157.808 29.2245 158.526 29.3678L176.606 32.9966C177.323 33.1413 178.023 32.6757 178.167 31.958L178.656 29.524C178.802 28.8062 178.336 28.1085 177.619 27.9638Z" fill="white"/>
<path d="M177.619 27.9639L166.923 25.8164C166.205 25.6717 165.506 26.1373 165.361 26.8551L164.873 29.2891C164.728 30.0069 165.193 30.706 165.911 30.8507L176.607 32.9982C177.325 33.1429 178.024 32.6773 178.169 31.9595L178.657 29.5255C178.802 28.8063 178.336 28.1086 177.619 27.9639Z" fill="#B5DFC4"/>
<path d="M177.679 38.4321L155.439 33.968C154.324 33.7445 153.604 32.66 153.827 31.5454L154.585 27.7676C154.809 26.653 155.893 25.9324 157.006 26.1559L179.246 30.62C180.361 30.8435 181.082 31.9279 180.858 33.0411L180.1 36.819C179.878 37.9335 178.794 38.6556 177.679 38.4321Z" fill="#B5DFC4"/>
<path d="M156.355 37.6905C156.236 37.7091 156.113 37.7077 155.987 37.6833C155.424 37.5702 155.059 37.0215 155.172 36.4584L156.723 28.7308C156.837 28.1678 157.38 27.8039 157.948 27.9157C158.511 28.0288 158.877 28.5775 158.764 29.1406L157.212 36.8682C157.125 37.3066 156.774 37.6246 156.355 37.6905Z" fill="white"/>
<path d="M159.647 38.3544C159.528 38.373 159.405 38.373 159.279 38.3472C158.716 38.2341 158.351 37.6854 158.464 37.1223L160.015 29.3933C160.129 28.8317 160.674 28.465 161.24 28.5781C161.805 28.6913 162.169 29.24 162.056 29.803L160.504 37.5321C160.417 37.9705 160.066 38.2885 159.647 38.3544Z" fill="white"/>
<path d="M162.939 39.0142C162.818 39.0329 162.695 39.0328 162.571 39.0071C162.008 38.8939 161.642 38.3452 161.755 37.7822L163.308 30.0545C163.424 29.4901 163.975 29.1262 164.533 29.2394C165.098 29.3526 165.462 29.9013 165.349 30.4643L163.796 38.1919C163.705 38.6303 163.356 38.9483 162.939 39.0142Z" fill="white"/>
<path d="M166.231 39.6738C166.114 39.6925 165.988 39.6925 165.863 39.6667C165.299 39.5535 164.935 39.0048 165.048 38.4418L166.598 30.7156C166.711 30.1526 167.257 29.7873 167.823 29.899C168.387 30.0122 168.751 30.5609 168.638 31.1225L167.088 38.8501C166.999 39.2899 166.648 39.6065 166.231 39.6738Z" fill="white"/>
<path d="M169.524 40.3349C169.406 40.3535 169.28 40.3536 169.156 40.3278C168.591 40.2146 168.227 39.6659 168.34 39.1043L169.891 31.3767C170.001 30.8151 170.55 30.4483 171.115 30.5601C171.68 30.6733 172.044 31.222 171.931 31.7836L170.381 39.5112C170.295 39.9495 169.942 40.2676 169.524 40.3349Z" fill="white"/>
<path d="M172.816 40.9942C172.699 41.0128 172.573 41.0128 172.448 40.987C171.884 40.8738 171.52 40.3251 171.633 39.7635L173.183 32.0359C173.299 31.4729 173.845 31.1076 174.408 31.2193C174.972 31.3325 175.336 31.8812 175.223 32.4442L173.673 40.1704C173.584 40.6102 173.235 40.9283 172.816 40.9942Z" fill="white"/>
<path d="M176.109 41.6557C175.992 41.6743 175.866 41.6743 175.741 41.6485C175.177 41.5354 174.813 40.9867 174.926 40.4236L176.476 32.696C176.586 32.1344 177.138 31.7677 177.701 31.8794C178.265 31.9926 178.629 32.5413 178.516 33.1043L176.966 40.8319C176.879 41.2717 176.526 41.5898 176.109 41.6557Z" fill="white"/>
<path d="M176.625 26.9599L176.47 27.7321L161.619 24.7508L161.774 23.9786C161.979 22.9543 162.735 22.1277 163.735 21.8225L165.139 21.3985C166.139 21.0933 166.89 20.2652 167.096 19.2366L167.1 19.2137C167.269 18.3713 167.027 17.5203 166.502 16.8398C165.361 15.37 164.838 13.4345 165.234 11.4646C166.004 7.62372 169.947 5.22693 173.789 6.4504C174.014 6.51917 174.226 6.60082 174.435 6.69681C176.976 7.81569 178.603 10.4976 178.372 13.2984C178.175 15.6436 176.829 17.5404 174.984 18.5662C174.249 18.9788 173.715 19.6736 173.549 20.5031L173.543 20.5317C173.337 21.5618 173.713 22.6148 174.519 23.2824L175.646 24.215C176.453 24.8812 176.831 25.9356 176.625 26.9599Z" fill="#8F8F8F"/>
<path d="M176.624 26.9599L176.469 27.7321L164.445 25.3181L164.6 24.5459C164.806 23.5216 165.556 22.6935 166.557 22.3883L167.961 21.9643C168.961 21.6591 169.716 20.8325 169.924 19.8025L169.928 19.7795C170.097 18.9371 169.855 18.0862 169.329 17.4057C168.189 15.9358 167.667 14.0003 168.063 12.0304C168.687 8.91875 171.389 6.75548 174.439 6.69531C176.979 7.8142 178.607 10.4961 178.376 13.2969C178.179 15.6421 176.833 17.5389 174.988 18.5646C174.253 18.9772 173.719 19.6721 173.553 20.5016L173.547 20.5302C173.341 21.5603 173.717 22.6133 174.522 23.2809L175.65 24.2135C176.452 24.8811 176.83 25.9355 176.624 26.9599Z" fill="#B6B6B6"/>
<path d="M167.921 18.4957L182.347 2.16226C183.663 0.673752 185.594 -0.119926 187.575 0.0147416L219.902 6.33981C223.557 7.05469 226.845 9.02599 229.199 11.9127L257.045 46.0752C251.728 44.1999 243.93 53.8258 230.146 49.4892C215.021 46.0165 197.848 19.7435 197.848 19.7435L187.187 14.1161L173.153 24.4655C171.616 25.5987 169.431 25.5113 167.968 24.0772C166.447 22.5858 166.51 20.0945 167.921 18.4957Z" fill="#AC635B"/>
<path d="M194.862 16.9557C188.834 26.5171 191.616 34.0642 198.262 34.4911C202.065 39.8577 206.193 40.7546 211.337 38.5555C206.21 44.4207 211.713 49.3819 215.445 49.5624C219.177 49.7443 231.745 42.8147 231.745 42.8147L215.137 11.9902L194.862 16.9557Z" fill="#AC635B"/>
<path d="M196.456 14.7478C197.055 13.4556 197.814 12.4699 198.909 11.5559C200.023 10.6261 201.219 9.9313 202.546 9.35252C205.116 8.23363 207.678 7.34541 210.471 6.99155C210.96 6.92995 211.076 7.758 210.592 7.85399C208.02 8.36257 205.418 9.23504 203.231 10.7049C202.178 11.4112 201.169 12.192 200.149 12.9441C199.066 13.7435 198.022 14.4727 196.86 15.1504C196.591 15.308 196.337 15.0043 196.456 14.7478Z" fill="#824645"/>
<path d="M198.154 30.3436C198.426 29.9467 198.469 29.3651 198.688 28.9267C198.887 28.5284 199.102 28.1316 199.347 27.7591C199.841 27.0027 200.442 26.3093 201.04 25.6359C202.32 24.1976 203.754 22.9254 205.424 21.9598C208.702 20.0645 212.503 19.3209 216.269 19.5387C216.808 19.5702 216.824 20.3811 216.274 20.3854C212.723 20.4183 209.331 21.6332 206.317 23.4698C204.853 24.3623 203.423 25.368 202.188 26.5629C201.579 27.1531 201.05 27.8093 200.526 28.4726C200.252 28.8193 199.974 29.1616 199.711 29.5169C199.449 29.8708 198.973 30.2189 198.827 30.6229C198.635 31.1487 197.864 30.7662 198.154 30.3436Z" fill="#824645"/>
<path d="M210.275 35.6767C210.457 35.2827 210.838 34.9575 211.146 34.6581C211.497 34.3171 211.899 34.0263 212.29 33.7326C213.043 33.1638 213.89 32.82 214.768 32.4876C216.524 31.8215 218.328 31.353 220.159 30.9447C220.712 30.8215 220.931 31.6066 220.397 31.7914C218.678 32.3816 217.029 33.191 215.456 34.0993C214.642 34.5692 213.868 35.0291 212.997 35.3901C212.254 35.6982 211.409 36.1924 210.596 36.2297C210.294 36.2426 210.165 35.9145 210.275 35.6767Z" fill="#824645"/>
<path d="M226.429 45.5021C228.037 44.3374 230.173 44.6082 231.803 45.5981C233.815 46.8202 235.017 49.0078 237.047 50.2327C238.707 51.2341 240.671 51.7326 242.607 51.6367C243.549 51.5894 244.47 51.396 245.354 51.065C246.317 50.7054 247.304 49.8416 248.363 49.9834C249.119 50.0851 249.475 50.863 249.232 51.5364C248.867 52.5478 247.559 52.9361 246.618 53.2068C245.667 53.4819 244.708 53.6509 243.718 53.6996C241.728 53.7985 239.738 53.5406 237.877 52.8071C235.89 52.0249 234.356 50.7155 232.938 49.1482C231.638 47.7112 229.34 45.1497 227.149 46.4606C226.502 46.8474 225.79 45.9649 226.429 45.5021Z" fill="#824645"/>
<path d="M268.476 55.4775C268.039 55.0191 237.742 95.2345 237.742 95.2345L274.595 199.309C330.565 187.864 325.156 163.3 312.384 132.408C303.096 109.94 268.476 55.4775 268.476 55.4775Z" fill="#B6B6B6"/>
<path d="M140.846 224.055L147.658 225.286C149.667 225.648 151.59 224.314 151.954 222.304L165.492 147.325L151.405 144.78L137.866 219.76C137.503 221.77 138.836 223.692 140.846 224.055Z" fill="white"/>
<path d="M144.678 222.305C147.367 222.791 149.939 221.004 150.424 218.317L161.446 157.279L150.154 162.427L140.688 216.559C140.204 219.246 141.991 221.819 144.678 222.305Z" fill="white"/>
<path d="M147.331 152.478L166.615 155.961C167.78 156.172 168.895 155.398 169.105 154.233L169.819 150.284C170.029 149.119 169.256 148.004 168.091 147.794L148.805 144.311C147.64 144.1 146.526 144.874 146.315 146.039L145.601 149.988C145.391 151.153 146.164 152.269 147.331 152.478Z" fill="white"/>
<path d="M145.528 203.782L132.563 170.778L97.6682 206.448C97.6682 206.448 113.29 231.828 145.528 203.782Z" fill="#AC635B"/>
<path d="M165.764 170.933L152.663 170.93L150.325 160.472L166.601 163.41C168.662 163.782 170.032 165.755 169.659 167.817C169.323 169.683 167.658 171.014 165.764 170.933Z" fill="#AC635B"/>
<path d="M153.947 170.393L137.33 185.153L132.559 170.777L150.325 160.472L153.947 170.393Z" fill="#AC635B"/>
<path d="M150.147 184.354L138.048 192.633L132.911 184.302L145.958 175.235L150.147 184.354Z" fill="#AC635B"/>
<path d="M145.751 185.184L160.095 183.982C162.128 183.812 163.731 182.18 163.863 180.144C164.015 177.827 162.224 175.843 159.903 175.757L145.959 175.237L145.751 185.184Z" fill="#AC635B"/>
<path d="M145.768 174.785C141.25 175.637 136.776 177.15 132.983 179.802C132.489 180.147 132.43 180.911 132.786 181.369C133.188 181.883 133.842 181.889 134.354 181.565C137.988 179.267 141.783 177.214 145.955 176.073C146.737 175.856 146.611 174.626 145.768 174.785Z" fill="#824645"/>
<path d="M140.49 195.613L156.659 195.82C158.951 195.848 160.92 194.197 161.288 191.934C161.708 189.36 159.92 186.949 157.335 186.601L138.963 184.695L140.49 195.613Z" fill="#AC635B"/>
<path d="M139.108 204.24L154.73 204.278C156.945 204.283 158.829 202.667 159.162 200.478C159.542 197.988 157.79 195.675 155.29 195.365L140.262 193.503L139.108 204.24Z" fill="#AC635B"/>
<path d="M97.6622 206.446L68.978 238.488L92.9889 274.496L119.662 214.059L97.6622 206.446Z" fill="#AC635B"/>
<path d="M83.2542 221.304L113.424 267.169C113.424 267.169 67.8133 326.754 43.3984 335.404C14.8146 345.531 6.71021 288.518 6.71021 288.518L83.2542 221.304Z" fill="#B6B6B6"/>
<path d="M9.38867 302.113C-4.02648 234.126 -0.260084 167.91 3.64383 161.566C5.40167 158.709 17.9945 152.974 24.3224 149.644L51.2745 286.064L9.38867 302.113Z" fill="#B6B6B6"/>
<path d="M76.8188 226.253C72.0224 230.326 67.15 234.24 62.2003 238.121C59.7648 240.031 57.3952 242.001 55.0328 243.999C53.1417 245.598 51.063 247.156 49.2321 248.882C46.8998 238.578 44.0245 228.487 39.7638 218.777C35.0949 208.132 29.2942 198.013 22.2428 188.77C18.2185 183.495 13.7802 178.608 9.25884 173.76C8.69582 173.157 7.87348 174.033 8.36917 174.649C15.5151 183.531 21.4878 193.481 27.0321 203.42C32.5907 213.383 37.2138 223.698 41.4257 234.293C43.6635 239.921 45.6018 245.671 47.1462 251.526C45.2422 252.206 43.3554 253.299 41.6907 254.309C39.5518 255.609 37.4745 257.079 35.6307 258.778C31.9804 262.144 29.1495 266.071 26.8558 270.457C26.4074 271.315 27.628 271.997 28.1567 271.196C30.6924 267.354 34.0734 263.906 37.6937 261.075C39.4501 259.702 41.2595 258.403 43.1807 257.27C43.5431 257.056 43.9242 256.873 44.2924 256.668C43.3139 258.33 42.4328 260.058 41.5819 261.72C39.6435 265.506 37.9387 269.411 36.4545 273.396C34.9846 277.34 33.7568 281.362 32.827 285.468C31.8686 289.696 31.5148 293.891 31.1194 298.19C31.0606 298.835 32.1337 298.978 32.2497 298.336C32.9889 294.236 34.2353 290.144 35.4029 286.145C36.5705 282.142 37.9215 278.172 39.5117 274.317C41.0776 270.525 42.8727 266.826 44.8726 263.243C46.7995 259.791 49.202 256.566 50.712 252.913C53.0543 251.19 55.1804 249.027 57.3207 247.078C59.6674 244.942 61.9997 242.803 64.2647 240.581C68.799 236.131 73.3519 231.763 78.0609 227.496C78.9047 226.729 77.6712 225.53 76.8188 226.253Z" fill="#8F8F8F"/>
<path d="M279.661 174.683C276.714 171.378 273.474 168.372 270.623 164.967C267.809 161.606 265.207 158.107 262.768 154.465C257.832 147.102 253.69 139.132 250.629 130.81C250.405 130.204 249.506 130.406 249.609 131.018C249.215 130.529 248.275 130.52 248.139 131.28C246.976 137.785 247.348 144.433 249.099 150.806C249.968 153.97 251.143 157.061 252.586 160.007C253.968 162.831 255.715 166.416 258.229 168.392C259.633 169.495 261.478 168.18 260.723 166.492C260.106 165.11 259.1 163.935 258.283 162.666C257.462 161.389 256.689 160.077 255.967 158.742C254.455 155.944 253.228 153.008 252.296 149.968C250.487 144.06 249.715 137.893 249.805 131.718C252.292 140.188 255.689 148.319 260.149 155.951C262.406 159.816 264.972 163.523 267.724 167.051C270.511 170.625 273.527 174.41 277.026 177.316C278.854 178.839 281.277 176.496 279.661 174.683Z" fill="#8F8F8F"/>
<path d="M88.4384 354.833C72.1838 352.96 55.8317 351.127 39.7791 347.899C38.9998 347.743 38.7491 348.926 39.5241 349.108C55.0152 352.735 70.4976 356.178 86.2952 358.174C86.3468 360.25 86.4027 362.326 86.4313 364.401C78.0834 363.383 69.7913 361.906 61.4634 360.73C53.0539 359.543 44.63 358.47 36.2119 357.344C36.54 355.367 36.8336 353.397 37.0098 351.387C37.1502 349.793 34.9698 349.25 34.5285 350.864C33.8495 353.346 33.3523 355.821 32.8939 358.353C32.7521 359.136 33.242 360.081 34.0973 360.199C42.9968 361.433 51.8849 362.738 60.7915 363.913C69.7039 365.089 78.6736 365.9 87.5516 367.317C88.49 367.466 89.1705 366.813 89.2135 365.901C89.3596 362.77 89.669 359.645 89.871 356.516C89.9197 355.784 89.1633 354.916 88.4384 354.833Z" fill="#8F8F8F"/>
<path d="M89.7123 294.05C85.0849 297.786 81.2712 302.682 77.373 307.15C73.2657 311.856 69.0094 316.426 64.6642 320.912C57.5354 328.271 46.9956 340.055 35.4772 335.178C34.6305 334.82 33.9228 336.231 34.7638 336.648C39.8525 339.167 45.7578 338.913 50.9095 336.691C56.65 334.215 61.1413 329.67 65.5238 325.349C70.3231 320.617 74.9447 315.703 79.4203 310.663C83.6995 305.844 88.2353 300.781 91.0189 294.918C91.3885 294.139 90.2796 293.592 89.7123 294.05Z" fill="#8F8F8F"/>
<path d="M178.748 356.801C168.095 357.966 157.471 359.52 146.873 361.073C146.153 361.184 145.209 360.519 145.071 359.797C144.461 356.718 143.961 353.638 143.296 350.559C143.101 349.671 143.601 348.867 144.544 348.784C153.476 347.869 162.353 346.37 171.285 345.206C172.396 345.067 173.505 344.928 174.613 344.79C175.002 345.817 175.39 346.87 175.778 347.925C174.335 348.119 172.893 348.313 171.45 348.479C163.101 349.45 154.694 350.144 146.372 351.309C146.926 353.306 147.509 355.303 148.093 357.3C158.079 355.94 168.066 355.22 178.08 354.72L178.748 356.801Z" fill="#8F8F8F"/>
</svg>
