<svg width="62" height="64" viewBox="0 0 62 64" fill="none" xmlns="http://www.w3.org/2000/svg">
<path d="M3.51746 49.9537L3.51693 49.938L3.51542 49.9224C2.93523 43.9169 5.54051 39.0238 9.10873 34.4863C11.055 32.0202 13.4345 29.8737 15.8514 27.7467L15.8539 27.7445C16.7082 26.9824 17.3883 26.3682 17.8891 25.8136C18.394 25.2544 18.7492 24.7217 18.9217 24.1109C19.0948 23.4976 19.0684 22.8605 18.9101 22.1196C18.7534 21.3863 18.4584 20.5135 18.0631 19.4194C17.4296 17.6464 16.7181 15.8834 16.0116 14.1328C15.5796 13.0624 15.1495 11.9966 14.7403 10.936L14.7401 10.9355C14.6595 10.7273 14.5789 10.53 14.4998 10.3365C14.3779 10.038 14.2598 9.74865 14.151 9.44263C13.9777 8.95462 13.8578 8.49812 13.8381 8.06381L13.8382 8.0638L13.8374 8.05193C13.8167 7.7524 13.8815 7.34677 14.0206 6.96944C14.1647 6.57832 14.3516 6.31639 14.5009 6.21484C14.643 6.11824 14.9756 6.04006 15.3969 6.06571C15.8147 6.09113 16.1529 6.20872 16.3043 6.33415L16.3042 6.33422L16.3117 6.34016C17.4912 7.27996 18.5381 8.49511 19.4325 9.76156L19.4329 9.76218C23.2688 15.1767 25.5858 21.3254 26.7778 27.8075C28.3756 36.5964 29.1673 45.4249 26.144 54.0432C23.5933 61.231 16.8458 64.5013 10.6673 61.5742C5.86595 59.2836 3.69337 55.2048 3.51746 49.9537ZM19.9898 33.7178L19.6218 33.3975L19.2925 33.7576C15.0676 38.3779 11.7052 42.538 10.5985 48.0792C10.3167 49.4581 10.3182 51.2575 11.0066 52.568L11.0074 52.5696C11.7166 53.9076 13.1012 55.3255 14.5629 55.843L14.5635 55.8432C16.7216 56.6041 18.6372 55.2905 19.5486 53.3739L19.5486 53.374L19.5513 53.3682C20.2881 51.767 21.024 49.9839 21.2033 48.1652L21.2034 48.1637C21.2783 47.3786 21.3958 46.5762 21.5164 45.7536C22.0312 42.2401 22.6002 38.3572 20.1249 33.8756L20.0822 33.7982L20.0155 33.7402L19.9898 33.7178Z" stroke="black"/>
<path d="M37.3703 2.60793C37.7956 3.09967 38.217 3.58617 38.6348 4.06852C40.8667 6.64537 42.9962 9.10411 45.0817 11.6124L45.0827 11.6137C46.01 12.7363 46.7291 13.6431 47.2023 14.4284C47.6775 15.217 47.9421 15.9427 47.8831 16.6954C47.8241 17.4463 47.4501 18.1309 46.8571 18.8539C46.2656 19.5751 45.4102 20.3883 44.3106 21.3926L44.3106 21.3927C36.8682 28.1868 34.8884 36.6708 36.8169 46.2812L37.3703 2.60793ZM37.3703 2.60793C38.4325 1.84876 39.2229 1.69909 39.8579 1.78603C40.6111 1.88916 41.2558 2.33099 42.0126 2.862L42.0127 2.86207C50.6102 8.8914 56.2792 16.7532 58.5044 27.1701L58.5045 27.1704C60.0294 34.2868 60.2571 41.1499 57.686 47.9051L57.6857 47.9058C56.6464 50.6494 55.2881 52.5355 53.594 53.7096C51.9043 54.8807 49.8268 55.3807 47.276 55.253C42.1338 54.9831 37.8739 51.5089 36.817 46.2819L37.3703 2.60793ZM51.6807 25.7652L51.5241 25.4432L51.1689 25.4878C50.8933 25.5223 50.664 25.5381 50.443 25.5533C50.324 25.5614 50.2074 25.5695 50.0873 25.5802C49.7736 25.6081 49.4352 25.6549 49.1303 25.8165L49.1302 25.8164L49.1204 25.8218C46.092 27.5151 43.9409 31.1633 42.8466 35.0816C41.7505 39.0067 41.6748 43.3424 42.9418 46.5105L42.9419 46.5109C43.2875 47.3729 44.0895 48.1674 44.9691 48.7554C45.8544 49.3472 46.9035 49.7869 47.8254 49.8734L47.8274 49.8736C48.2507 49.9116 48.6976 49.7902 49.1092 49.6064C49.5282 49.4194 49.9523 49.1491 50.3451 48.8381C51.1197 48.2249 51.8426 47.3969 52.1665 46.6188C55.0576 39.6736 55.0453 32.6833 51.6807 25.7652Z" stroke="black"/>
</svg>
