<svg width="37" height="43" viewBox="0 0 37 43" fill="none" xmlns="http://www.w3.org/2000/svg">
<path fill-rule="evenodd" clip-rule="evenodd" d="M9.79237 30.5601L34.4207 10.5198C34.7738 10.2362 34.8271 9.71776 34.5395 9.36424C34.2519 9.01073 33.737 8.9618 33.3878 9.24586L8.75994 29.2822C8.40643 29.5698 8.35354 30.0843 8.64114 30.4378C8.92479 30.7909 9.44322 30.8442 9.79277 30.5562L9.79237 30.5601Z" fill="#3D61FF"/>
<path fill-rule="evenodd" clip-rule="evenodd" d="M18.6776 41.2162L35.6145 38.4942C36.0617 38.4241 36.3653 37.9994 36.2909 37.5559C36.2165 37.1123 35.7962 36.8051 35.353 36.8755L18.4121 39.5972C17.9645 39.6712 17.6617 40.088 17.7357 40.5355C17.8057 40.9826 18.2265 41.2858 18.6736 41.2158L18.6776 41.2162Z" fill="#3D61FF"/>
<path fill-rule="evenodd" clip-rule="evenodd" d="M1.66433 19.0073L8.26864 1.68134C8.42816 1.25781 8.2169 0.784169 7.79337 0.62465C7.37025 0.461173 6.89621 0.676395 6.7371 1.09596L0.13319 18.418C-0.0263293 18.8415 0.184938 19.3151 0.608056 19.4786C1.03118 19.6421 1.50522 19.4269 1.6687 19.0038L1.66433 19.0073Z" fill="#3D61FF"/>
</svg>
