<svg width="1950" height="320" viewBox="0 0 1950 320" fill="none" xmlns="http://www.w3.org/2000/svg">
<g clip-path="url(#clip0_24_216)">
<rect width="1950" height="319.77" fill="white"/>
<rect y="-0.0136719" width="1950" height="319.774" fill="url(#paint0_linear_24_216)"/>
<path d="M254.685 98.3965V330.726" stroke="url(#paint1_linear_24_216)" stroke-width="1.85369" stroke-linecap="round"/>
<path d="M185.48 98.3965L183.623 329.528" stroke="url(#paint2_linear_24_216)" stroke-width="1.85369" stroke-linecap="round"/>
<path d="M111.332 88.5098V320.839" stroke="url(#paint3_linear_24_216)" stroke-width="1.85369" stroke-linecap="round"/>
<path d="M10.0117 268.297L348.605 267.684" stroke="url(#paint4_radial_24_216)" stroke-width="1.85369" stroke-linecap="round"/>
<path d="M22.3701 227.532L379.5 226.886" stroke="url(#paint5_radial_24_216)" stroke-width="1.85369" stroke-linecap="round"/>
<path d="M22.3701 183.043L360.964 182.43" stroke="url(#paint6_linear_24_216)" stroke-width="1.85369" stroke-linecap="round"/>
<path d="M22.3701 141.026L360.964 140.413" stroke="url(#paint7_radial_24_216)" stroke-width="1.85369" stroke-linecap="round"/>
<path d="M48.3066 88.5098V320.839" stroke="url(#paint8_linear_24_216)" stroke-width="1.85369" stroke-linecap="round"/>
<path d="M333.343 115.558V347.887" stroke="url(#paint9_linear_24_216)" stroke-width="1.85369" stroke-linecap="round"/>
<rect x="71.7871" y="159.874" width="27.1875" height="3.70739" rx="1.85369" fill="#5A0CBE"/>
<rect x="71.7871" y="204.675" width="26.8785" height="3.70739" rx="1.85369" fill="#5A0CBE"/>
<rect x="134.038" y="203.11" width="26.8785" height="3.70739" rx="1.85369" fill="#5A0CBE"/>
<rect x="134.038" y="156.167" width="26.8785" height="3.70739" rx="1.85369" fill="#5A0CBE"/>
<rect x="71.7871" y="245.755" width="26.8785" height="3.70739" rx="1.85369" fill="#2A9BC3"/>
<rect x="134.038" y="245.755" width="26.8785" height="3.70739" rx="1.85369" fill="#2A9BC3"/>
<rect x="134.038" y="291.782" width="26.8785" height="3.70739" rx="1.85369" fill="#2A9BC3"/>
<rect x="71.7871" y="289.929" width="27.1875" height="3.70739" rx="1.85369" fill="#2A9BC3"/>
<rect x="111" y="228" width="97" height="92" fill="#93DBFA"/>
<path d="M187.558 255.222L188.474 275.999L170.665 287.725L151.941 278.674L151.025 257.896L168.834 246.17L187.558 255.222Z" fill="url(#paint10_linear_24_216)"/>
<path d="M156.293 293.503L145.061 304.623L129.37 300.581L124.909 285.418L136.141 274.297L151.832 278.34L156.293 293.503Z" fill="url(#paint11_linear_24_216)"/>
<path d="M168.892 246.343L168.892 242.234" stroke="#27A8C4" stroke-width="0.699099" stroke-linecap="round"/>
<path d="M151.192 257.655L147.792 255.349" stroke="#27A8C4" stroke-width="0.699099" stroke-linecap="round"/>
<path d="M128.953 300.939L126.337 304.106" stroke="#27A8C4" stroke-width="0.699099" stroke-linecap="round"/>
<path d="M144.67 304.57L144.524 308.676" stroke="#27A8C4" stroke-width="0.699099" stroke-linecap="round"/>
<path d="M170.901 292.394L170.813 287.676" stroke="#27A8C4" stroke-width="0.699099" stroke-linecap="round"/>
<path d="M390.134 270.653C391.165 270.653 391.848 270.761 392.183 270.977C392.519 271.168 392.687 271.6 392.687 272.271C392.687 272.798 392.435 273.182 391.932 273.421C391.428 273.661 390.841 273.781 390.17 273.781L388.984 273.817C388.169 273.865 387.57 273.889 387.186 273.889C386.851 273.889 386.635 273.877 386.539 273.853C386.491 274.02 386.467 274.296 386.467 274.679C386.443 275.015 386.479 275.542 386.575 276.261C386.599 276.405 386.623 276.609 386.647 276.872C386.671 277.136 386.683 277.376 386.683 277.591C386.683 278.286 386.551 278.814 386.287 279.173C386.024 279.509 385.592 279.676 384.993 279.676C384.634 279.676 384.274 279.545 383.915 279.281C383.579 278.993 383.411 278.682 383.411 278.346C383.412 276.453 383.364 274.943 383.268 273.817C382.621 273.745 382.213 273.709 382.045 273.709C381.47 273.709 380.907 273.745 380.356 273.816C379.637 273.864 379.122 273.888 378.81 273.888C378.187 273.864 377.66 273.745 377.228 273.529C376.821 273.289 376.617 272.93 376.617 272.45C376.617 271.923 376.725 271.552 376.941 271.336C377.3 270.952 378.007 270.761 379.062 270.761C379.613 270.761 380.224 270.737 380.895 270.689C381.47 270.641 381.866 270.617 382.082 270.617C382.297 270.617 382.501 270.641 382.693 270.689C382.884 270.713 383.064 270.725 383.232 270.725C383.28 270.509 383.304 270.162 383.304 269.682C383.304 269.275 383.28 268.688 383.232 267.921C383.184 267.202 383.16 266.675 383.16 266.339C383.16 265.62 383.256 265.093 383.448 264.757C383.663 264.422 384.083 264.254 384.706 264.254C385.257 264.254 385.677 264.374 385.964 264.613C386.252 264.829 386.396 265.141 386.396 265.548C386.42 266.051 386.408 266.782 386.36 267.741L386.324 269.359C386.324 269.934 386.336 270.365 386.36 270.653C386.935 270.701 387.354 270.725 387.618 270.725C388.169 270.725 388.576 270.713 388.84 270.689L390.134 270.653Z" fill="#5AD7E9"/>
<path d="M423.859 303.576L420.99 305.115L420.434 292.702L423.067 291.291L433.098 298.621L430.203 300.174L423.331 294.945L423.859 303.576Z" fill="#54EB3C" fill-opacity="0.29"/>
<path d="M472.369 268.541C472.369 269.163 472.878 269.657 473.485 269.657C474.092 269.657 474.601 269.163 474.601 268.541C474.601 267.92 474.092 267.425 473.485 267.425C472.878 267.425 472.369 267.92 472.369 268.541ZM470.914 268.541C470.914 267.115 472.072 265.97 473.485 265.97C474.884 265.97 476.056 267.129 476.056 268.541C476.056 269.968 474.884 271.112 473.485 271.112C472.072 271.112 470.914 269.982 470.914 268.541ZM480.096 265.97L474.474 276.268H473.429L479.051 265.97H480.096ZM477.539 273.599C477.539 272.172 478.698 271.028 480.11 271.028C481.509 271.028 482.681 272.186 482.681 273.599C482.681 275.025 481.509 276.17 480.11 276.17C478.698 276.17 477.539 275.039 477.539 273.599ZM478.994 273.599C478.994 274.22 479.503 274.715 480.11 274.715C480.718 274.715 481.226 274.22 481.226 273.599C481.226 272.977 480.718 272.483 480.11 272.483C479.503 272.483 478.994 272.977 478.994 273.599Z" fill="#C4E10F" fill-opacity="0.37"/>
<path d="M521.123 293.433V295.723H510.818V293.433H521.123ZM521.123 297.931V300.221H510.818V297.931H521.123Z" fill="white" fill-opacity="0.6"/>
<rect x="1734.39" y="59.3166" width="198.71" height="120.833" stroke="#1358BF" stroke-width="2.78952"/>
<path d="M1733 38.0743C1733 28.679 1740.62 21.0625 1750.01 21.0625H1917.49C1926.88 21.0625 1934.5 28.6789 1934.5 38.0743V60.1158H1733V38.0743Z" fill="url(#paint12_linear_24_216)" fill-opacity="0.42"/>
<circle cx="1752.44" cy="40.0807" r="5.9205" fill="#2070E1"/>
<circle cx="1769.84" cy="40.0807" r="5.9205" fill="#2070E1"/>
<circle cx="1787.23" cy="40.7769" r="5.9205" fill="#2070E1"/>
<rect x="1752.44" y="80.0674" width="55.8756" height="49.221" rx="3.3713" fill="#6FAAE0"/>
<rect x="1827.55" y="84.4707" width="80.9993" height="4.41242" rx="2.20621" fill="#0056B3"/>
<rect x="1825.97" y="122.292" width="80.9993" height="4.41242" rx="2.20621" fill="#0056B3"/>
<rect x="1827.55" y="97.0771" width="69.9683" height="4.41242" rx="2.20621" fill="#0056B3"/>
<rect x="1825.97" y="134.899" width="69.9683" height="4.41242" rx="2.20621" fill="#0056B3"/>
<rect x="1827.55" y="109.685" width="56.7311" height="4.41242" rx="2.20621" fill="#0056B3"/>
<rect x="1825.97" y="147.505" width="56.7311" height="4.41242" rx="2.20621" fill="#0056B3"/>
<path d="M1655.04 204.879C1654.64 205.261 1654.62 205.894 1655 206.293L1661.23 212.793C1661.61 213.191 1662.25 213.205 1662.64 212.823C1663.04 212.441 1663.06 211.808 1662.67 211.409L1657.14 205.632L1662.92 200.098C1663.32 199.716 1663.33 199.083 1662.95 198.684C1662.57 198.285 1661.93 198.272 1661.53 198.654L1655.04 204.879ZM1943.99 210.799L1655.75 204.602L1655.71 206.601L1943.94 212.799L1943.99 210.799Z" fill="url(#paint13_linear_24_216)" fill-opacity="0.57"/>
<rect x="1689.1" y="232.665" width="10.5126" height="11.2801" rx="0.5" transform="rotate(-50.2807 1689.1 232.665)" stroke="#361A84"/>
<rect x="1706.03" y="275.902" width="15.4297" height="16.5562" rx="0.733868" transform="rotate(-50.2807 1706.03 275.902)" stroke="white" stroke-width="1.46774"/>
<path d="M1626.8 166.566L1643.91 162.293L1636.85 178.453L1626.8 166.566Z" stroke="#FFB27D" stroke-width="1.25416"/>
<path d="M494.026 238.478C488.352 229.835 482.68 221.191 477 212.551C476.43 211.683 476.007 210.774 475.99 209.719C475.954 207.455 477.774 205.734 480.298 205.725C482.504 205.716 484.711 205.795 486.918 205.833C494.762 205.971 502.607 206.108 510.452 206.247C513.831 206.306 517.21 206.363 520.588 206.432C522.673 206.475 524.601 205.887 526.323 204.783C530.826 201.894 535.278 198.924 539.758 195.998C540.079 195.787 540.112 195.624 539.967 195.271C539.221 193.454 539.948 191.335 541.596 190.418C543.389 189.421 545.507 189.862 546.729 191.486C546.813 191.596 546.891 191.71 546.966 191.825C550.594 197.351 554.224 202.877 557.85 208.405C558.927 210.048 558.852 211.972 557.676 213.292C556.097 215.064 553.522 215.135 551.859 213.421C551.604 213.157 551.466 213.171 551.191 213.353C546.766 216.269 542.316 219.146 537.914 222.096C536.094 223.316 534.735 224.954 533.885 227.025C529.465 237.791 525.012 248.545 520.572 259.302C519.921 260.88 519.28 262.462 518.622 264.037C517.893 265.786 516.235 266.887 514.501 266.762C513.252 266.672 512.299 266.025 511.524 265.084C511.36 264.885 511.22 264.666 511.078 264.449C505.393 255.792 499.711 247.134 494.027 238.477L494.026 238.478ZM531.622 228.693C531.716 228.592 531.765 228.471 531.776 228.335C531.979 227.861 532.206 227.395 532.381 226.91C533.367 224.192 535.177 222.154 537.561 220.586C540.675 218.538 543.792 216.496 546.906 214.449C548.145 213.634 549.378 212.811 550.615 211.992C550.777 211.925 550.748 211.824 550.67 211.708C550.508 211.464 550.349 211.218 550.188 210.973C547.765 207.291 545.342 203.609 542.918 199.927C542.362 199.075 541.781 198.237 541.262 197.362C541.02 196.956 540.852 196.962 540.481 197.207C536.032 200.146 531.592 203.097 527.106 205.977C525.145 207.236 522.96 207.899 520.594 207.86C518.786 207.83 516.977 207.815 515.168 207.794C515.002 207.745 514.834 207.731 514.666 207.782C514.262 207.941 514.637 208.098 514.696 208.189C519.8 215.986 524.913 223.776 530.031 231.564C530.101 231.67 530.132 231.874 530.291 231.842C530.458 231.809 530.469 231.615 530.485 231.461L530.494 231.44C530.586 231.351 530.623 231.238 530.628 231.114L530.632 231.1C530.915 230.546 531.167 229.981 531.334 229.38C531.476 229.169 531.588 228.946 531.619 228.689L531.589 228.686L531.62 228.69L531.622 228.693ZM529.086 234.833C529.107 234.787 529.129 234.741 529.15 234.696C529.15 234.696 529.163 234.68 529.162 234.68C529.262 234.461 529.347 234.234 529.465 234.024C529.645 233.7 529.591 233.439 529.386 233.128C524.736 226.066 520.098 218.998 515.457 211.929C514.615 210.646 513.776 209.36 512.927 208.079C512.813 207.905 512.734 207.643 512.427 207.74C512.325 207.73 512.222 207.713 512.12 207.71C502.802 207.543 493.484 207.375 484.167 207.21C482.806 207.186 481.442 207.102 480.086 207.174C477.815 207.293 476.729 209.292 477.868 211.218C478.472 212.24 479.176 213.203 479.836 214.193C480.028 214.499 480.216 214.807 480.414 215.11C490.956 231.168 501.498 247.226 512.04 263.285C512.191 263.516 512.34 263.748 512.496 263.976C513.764 265.831 515.928 265.777 517.094 263.861C517.219 263.656 517.321 263.435 517.413 263.212C519.428 258.335 521.44 253.458 523.451 248.578C525.126 244.513 526.796 240.447 528.47 236.381C528.677 235.862 528.884 235.343 529.092 234.824L529.089 234.832L529.086 234.833ZM545.068 191.839C544.58 191.427 544.004 191.276 543.383 191.332C541.453 191.503 540.476 193.573 541.555 195.224C544.422 199.611 547.303 203.988 550.18 208.37C550.993 209.609 551.801 210.853 552.622 212.087C553.252 213.032 554.317 213.432 555.367 213.138C556.786 212.742 557.614 211.088 556.968 209.94C557.057 209.605 556.809 209.393 556.658 209.163C553.034 203.63 549.403 198.1 545.77 192.573C545.583 192.289 545.402 191.989 545.068 191.839Z" fill="#080708"/>
<path d="M528.466 236.383C526.793 240.45 525.122 244.515 523.447 248.581C521.437 253.46 519.424 258.338 517.409 263.215C517.318 263.438 517.214 263.658 517.09 263.863C515.924 265.78 513.761 265.833 512.493 263.979C512.337 263.751 512.188 263.518 512.036 263.287C501.494 247.229 490.952 231.17 480.411 215.112C480.212 214.81 480.025 214.502 479.833 214.196C479.658 213.662 479.423 213.139 479.498 212.555C479.651 211.347 480.574 210.475 481.911 210.322C483.075 210.189 484.243 210.321 485.408 210.331C488.084 210.354 490.76 210.433 493.435 210.479C496.144 210.526 498.854 210.555 501.564 210.601C504.55 210.654 507.536 210.71 510.522 210.781C511.339 210.801 512.162 210.727 512.975 210.875C513.006 210.911 513.034 210.975 513.069 210.978C513.139 210.984 513.114 210.92 513.11 210.878C513.139 210.859 513.171 210.854 513.204 210.863C513.541 211.333 513.981 211.103 514.349 210.97C514.558 210.895 514.616 210.924 514.697 211.073C514.876 211.404 515.027 211.754 515.232 212.068C519.882 219.206 524.618 226.287 529.23 233.451C529.377 233.679 529.466 233.788 529.202 233.983C528.946 234.172 528.981 234.438 529.16 234.684L529.147 234.699C529.066 234.717 529.052 234.767 529.083 234.836L529.086 234.828C528.704 235.16 528.445 235.567 528.338 236.065C528.309 236.195 528.404 236.286 528.464 236.386L528.466 236.383ZM515.978 228.882C516.052 228.838 516.128 228.797 516.201 228.749C516.599 228.487 516.731 228.082 516.507 227.737C516.26 227.358 515.91 227.303 515.512 227.48C513.821 228.228 512.827 230.338 513.256 232.261C513.679 234.16 515.508 235.668 517.34 235.621C517.726 235.611 517.995 235.419 518.077 235.023C518.149 234.672 518.005 234.403 517.695 234.255C517.531 234.177 517.329 234.169 517.143 234.145C515.908 233.983 514.93 233.117 514.674 231.953C514.407 230.736 514.907 229.557 515.979 228.882L515.978 228.882ZM508.008 241.148C507.04 241.791 506.441 242.684 506.219 243.824C505.76 246.194 507.566 248.543 509.931 248.667C510.354 248.688 510.645 248.518 510.758 248.124C510.86 247.768 510.718 247.47 510.376 247.315C510.208 247.238 510.01 247.225 509.824 247.19C508.874 247.007 508.179 246.49 507.805 245.593C507.203 244.147 507.925 242.609 509.453 242.044C509.985 241.847 510.201 241.503 510.058 241.079C509.921 240.667 509.512 240.519 508.983 240.678C508.632 240.783 508.314 240.949 508.007 241.149L508.008 241.148ZM493.282 227.164C493.481 227.492 493.724 227.782 493.998 228.045C495.172 229.17 496.571 229.669 498.189 229.552C498.657 229.518 498.965 229.203 498.956 228.807C498.945 228.377 498.616 228.103 498.113 228.108C498.044 228.109 497.976 228.115 497.907 228.116C495.046 228.147 493.197 225.6 494.118 222.894C494.304 222.347 494.184 221.981 493.762 221.818C493.324 221.648 492.941 221.868 492.749 222.419C492.169 224.085 492.342 225.669 493.281 227.164L493.282 227.164ZM502.506 226.134C502.814 225.957 502.863 225.641 502.922 225.338C503.381 223.004 502.317 220.718 500.213 219.583C499.065 218.963 497.832 218.809 496.556 219.093C496.106 219.192 495.881 219.551 495.968 219.97C496.047 220.354 496.389 220.571 496.829 220.514C496.913 220.503 496.997 220.48 497.082 220.466C499.121 220.141 501.012 221.405 501.482 223.413C501.634 224.063 501.59 224.711 501.43 225.357C501.352 225.673 501.45 225.937 501.725 226.12C501.978 226.289 502.243 226.282 502.505 226.133L502.506 226.134ZM521.014 228.908C520.901 228.774 520.695 228.496 520.455 228.252C520.125 227.914 519.694 227.893 519.394 228.166C519.098 228.436 519.099 228.874 519.394 229.229C520.734 230.841 520.606 232.345 519.004 233.709C518.661 234.001 518.575 234.346 518.827 234.71C519.081 235.079 519.45 235.101 519.833 234.893C519.923 234.843 520.006 234.779 520.086 234.714C521.836 233.312 522.255 230.978 521.015 228.909L521.014 228.908ZM513.79 242.507C513.525 242.085 513.156 241.945 512.796 242.134C512.38 242.353 512.288 242.747 512.538 243.24C513.221 244.584 512.948 245.809 511.749 246.775C511.368 247.082 511.279 247.474 511.514 247.807C511.762 248.159 512.205 248.213 512.613 247.94C514.326 246.794 514.878 244.246 513.789 242.509L513.79 242.507ZM501.467 228.011C501.718 227.813 501.843 227.586 501.799 227.281C501.751 226.953 501.558 226.75 501.242 226.678C500.949 226.612 500.669 226.692 500.52 226.951C500.378 227.197 500.241 227.37 499.94 227.449C499.624 227.531 499.512 227.83 499.522 228.146C499.531 228.453 499.701 228.668 499.984 228.771C500.288 228.883 500.595 228.822 500.776 228.562C500.963 228.294 501.094 227.998 501.468 228.009L501.467 228.011ZM495.368 220.37C495.15 220.037 494.706 219.946 494.368 220.164C494.037 220.379 493.942 220.838 494.16 221.165C494.383 221.5 494.831 221.592 495.161 221.37C495.5 221.143 495.59 220.708 495.369 220.37L495.368 220.37ZM518.401 228.378C518.722 228.157 518.801 227.698 518.574 227.367C518.344 227.032 517.915 226.961 517.575 227.2C517.232 227.441 517.153 227.865 517.39 228.198C517.614 228.518 518.078 228.6 518.401 228.378ZM512.086 241.045C511.865 240.699 511.439 240.6 511.097 240.816C510.761 241.028 510.659 241.478 510.87 241.811C511.084 242.148 511.522 242.246 511.866 242.033C512.216 241.816 512.31 241.395 512.086 241.045Z" fill="#F3959A" fill-opacity="0.93"/>
<path d="M514.667 207.786C514.836 207.735 515.003 207.749 515.169 207.798C515.901 208.632 516.446 209.595 517.034 210.525C517.196 210.781 517.322 210.888 517.619 210.891C518.769 210.903 519.921 210.93 521.071 210.976C523.06 211.055 525.029 210.995 526.904 210.214C527.242 210.326 527.555 210.281 527.847 210.077C528.61 209.545 529.413 209.072 530.188 208.556C533.651 206.255 537.13 203.977 540.616 201.71C541.135 201.373 541.579 200.863 542.271 200.839C542.328 200.837 542.392 200.773 542.437 200.722C542.821 200.293 542.942 200.298 543.262 200.786C545.714 204.521 548.165 208.258 550.615 211.994C549.378 212.814 548.145 213.637 546.906 214.452C543.792 216.5 540.674 218.541 537.562 220.589C535.177 222.157 533.366 224.196 532.381 226.913C532.206 227.397 531.979 227.864 531.776 228.338C531.631 228.417 531.471 228.489 531.622 228.696L531.591 228.691L531.621 228.695C531.297 228.83 531.198 229.058 531.336 229.384C530.889 229.87 530.548 230.399 530.634 231.103C530.634 231.103 530.63 231.118 530.629 231.117C530.462 231.175 530.272 231.224 530.495 231.443L530.487 231.464C530.105 231.554 530.031 231.222 529.891 231.009C525.147 223.792 520.409 216.573 515.67 209.352C515.33 208.833 515.002 208.308 514.667 207.785L514.667 207.786ZM545.789 211.065C545.716 210.969 545.852 210.639 545.498 210.873C542.907 212.593 540.302 214.295 537.701 216.002C537.439 216.174 537.271 216.389 537.372 216.726C537.332 217.078 537.321 217.42 537.696 217.623C538.048 217.814 538.346 217.696 538.653 217.492C541.182 215.825 543.717 214.163 546.251 212.503C546.59 212.281 546.863 212.023 546.728 211.577C546.587 211.116 546.227 211.006 545.788 211.066L545.789 211.065ZM548.22 211.205C548.554 210.994 548.659 210.544 548.451 210.212C548.24 209.875 547.79 209.771 547.458 209.981C547.119 210.196 547.017 210.635 547.227 210.974C547.438 211.314 547.883 211.417 548.22 211.205ZM536.682 218.778C537.005 218.553 537.084 218.104 536.857 217.774C536.632 217.45 536.181 217.369 535.854 217.597C535.531 217.823 535.448 218.287 535.675 218.601C535.908 218.925 536.355 219.004 536.681 218.777L536.682 218.778Z" fill="#85D4F5"/>
<path d="M556.967 209.943C557.613 211.092 556.786 212.745 555.366 213.142C554.316 213.436 553.25 213.036 552.621 212.091C551.8 210.856 550.992 209.613 550.178 208.374C547.302 203.992 544.421 199.615 541.553 195.227C540.474 193.576 541.452 191.508 543.382 191.335C544.002 191.28 544.578 191.431 545.067 191.843C549.034 197.876 552.999 203.909 556.967 209.943Z" fill="#85D4F5"/>
<path d="M513.205 210.863C513.171 210.854 513.14 210.86 513.111 210.878C513.067 210.878 513.022 210.876 512.978 210.875C512.164 210.727 511.342 210.801 510.524 210.781C507.538 210.709 504.552 210.653 501.566 210.601C498.857 210.554 496.147 210.525 493.437 210.478C490.761 210.432 488.086 210.353 485.41 210.33C484.245 210.321 483.077 210.189 481.914 210.322C480.576 210.475 479.653 211.347 479.5 212.555C479.425 213.139 479.661 213.662 479.835 214.196C479.176 213.206 478.472 212.243 477.867 211.221C476.728 209.295 477.814 207.295 480.086 207.177C481.442 207.106 482.806 207.19 484.166 207.214C493.484 207.379 502.802 207.546 512.119 207.714C512.222 207.716 512.324 207.733 512.426 207.743C512.86 208.426 513.304 209.104 513.724 209.796C513.916 210.11 514.36 210.439 514.216 210.742C514.09 211.008 513.555 210.795 513.207 210.863L513.205 210.863Z" fill="#FBFAFA"/>
<path d="M526.905 210.212C525.03 210.993 523.061 211.053 521.072 210.974C519.922 210.928 518.771 210.902 517.62 210.889C517.323 210.886 517.196 210.78 517.035 210.523C516.447 209.593 515.902 208.63 515.171 207.796C516.979 207.817 518.788 207.832 520.597 207.863C522.963 207.902 525.148 207.239 527.109 205.98C531.595 203.1 536.036 200.149 540.484 197.21C540.855 196.964 541.024 196.958 541.265 197.365C541.784 198.24 542.365 199.077 542.921 199.93C542.87 200.089 542.748 200.18 542.613 200.263C537.345 203.527 532.438 207.363 526.907 210.213L526.905 210.212Z" fill="#FBFDFD"/>
<path d="M513.206 210.866C513.554 210.797 514.09 211.01 514.216 210.744C514.359 210.442 513.914 210.113 513.724 209.798C513.303 209.107 512.86 208.43 512.425 207.746C512.733 207.649 512.811 207.911 512.926 208.085C513.774 209.365 514.613 210.651 515.456 211.935C520.096 219.004 524.735 226.072 529.384 233.134C529.589 233.445 529.644 233.706 529.463 234.03C529.347 234.24 529.261 234.467 529.161 234.685C528.983 234.44 528.947 234.174 529.203 233.985C529.467 233.79 529.377 233.681 529.231 233.453C524.619 226.289 519.882 219.208 515.233 212.069C515.028 211.755 514.878 211.405 514.698 211.075C514.617 210.926 514.559 210.897 514.35 210.972C513.982 211.105 513.542 211.336 513.205 210.865L513.206 210.866Z" fill="#E99CA4"/>
<path d="M514.667 207.788C515.002 208.311 515.33 208.836 515.67 209.355C520.409 216.576 525.147 223.795 529.891 231.012C530.031 231.225 530.105 231.557 530.487 231.467C530.47 231.621 530.46 231.813 530.292 231.848C530.134 231.88 530.103 231.676 530.033 231.57C524.916 223.782 519.802 215.993 514.698 208.195C514.638 208.104 514.264 207.947 514.667 207.788Z" fill="#85B7CE"/>
<path d="M526.905 210.216C532.436 207.365 537.342 203.53 542.611 200.266C542.744 200.183 542.868 200.092 542.918 199.932C545.341 203.614 547.765 207.296 550.189 210.979C550.349 211.224 550.508 211.469 550.671 211.713C550.748 211.83 550.778 211.93 550.615 211.997C548.165 208.261 545.714 204.524 543.262 200.789C542.942 200.301 542.821 200.296 542.437 200.725C542.393 200.775 542.329 200.839 542.271 200.842C541.578 200.867 541.135 201.375 540.616 201.713C537.13 203.98 533.651 206.258 530.188 208.559C529.413 209.075 528.611 209.548 527.847 210.08C527.556 210.284 527.242 210.329 526.904 210.217L526.905 210.216Z" fill="#A4C6D3"/>
<path d="M556.965 209.947C552.998 203.914 549.032 197.88 545.065 191.846C545.397 191.996 545.578 192.296 545.766 192.581C549.399 198.108 553.031 203.637 556.654 209.17C556.805 209.401 557.053 209.612 556.965 209.947Z" fill="#70A8B8"/>
<path d="M530.633 231.105C530.546 230.401 530.889 229.872 531.335 229.386C531.168 229.986 530.915 230.553 530.633 231.105Z" fill="#85B7CE"/>
<path d="M528.469 236.381C528.408 236.281 528.314 236.191 528.343 236.06C528.45 235.564 528.709 235.156 529.091 234.823C528.884 235.342 528.677 235.861 528.469 236.381Z" fill="#E99CA4"/>
<path d="M531.334 229.382C531.196 229.056 531.296 228.827 531.62 228.692C531.589 228.949 531.476 229.17 531.334 229.382Z" fill="#85B7CE"/>
<path d="M530.493 231.442C530.269 231.223 530.46 231.174 530.628 231.116C530.623 231.24 530.586 231.353 530.493 231.442Z" fill="#85B7CE"/>
<path d="M531.621 228.7C531.471 228.493 531.631 228.42 531.775 228.342C531.763 228.478 531.715 228.599 531.621 228.7Z" fill="#85B7CE"/>
<path d="M529.083 234.836C529.052 234.765 529.066 234.714 529.148 234.695C529.127 234.742 529.105 234.788 529.083 234.836Z" fill="#E99CA4"/>
<path d="M515.978 228.885C514.907 229.56 514.406 230.738 514.674 231.956C514.929 233.119 515.907 233.985 517.142 234.147C517.33 234.172 517.53 234.179 517.694 234.257C518.006 234.405 518.149 234.674 518.077 235.025C517.996 235.42 517.727 235.613 517.339 235.623C515.508 235.67 513.678 234.162 513.255 232.264C512.825 230.34 513.821 228.23 515.511 227.482C515.91 227.306 516.261 227.359 516.507 227.74C516.731 228.085 516.599 228.49 516.2 228.751C516.128 228.798 516.053 228.84 515.978 228.884L515.978 228.885Z" fill="#0E0606"/>
<path d="M508.008 241.149C508.313 240.949 508.633 240.783 508.984 240.678C509.512 240.519 509.921 240.667 510.059 241.079C510.202 241.504 509.986 241.848 509.453 242.044C507.925 242.609 507.203 244.147 507.806 245.593C508.179 246.49 508.874 247.007 509.825 247.19C510.01 247.225 510.208 247.238 510.376 247.315C510.718 247.47 510.86 247.769 510.758 248.124C510.645 248.518 510.355 248.689 509.931 248.667C507.567 248.543 505.76 246.194 506.22 243.824C506.441 242.684 507.04 241.791 508.009 241.148L508.008 241.149Z" fill="#0E0606"/>
<path d="M493.283 227.164C492.343 225.669 492.171 224.085 492.75 222.419C492.942 221.866 493.325 221.648 493.764 221.818C494.185 221.981 494.306 222.347 494.12 222.894C493.199 225.599 495.047 228.149 497.908 228.116C497.977 228.115 498.046 228.108 498.115 228.108C498.617 228.103 498.947 228.376 498.958 228.806C498.967 229.203 498.66 229.517 498.19 229.552C496.572 229.669 495.172 229.17 494 228.045C493.726 227.782 493.483 227.491 493.284 227.163L493.283 227.164Z" fill="#0E0606"/>
<path d="M502.508 226.133C502.246 226.281 501.982 226.288 501.728 226.12C501.453 225.938 501.355 225.673 501.433 225.356C501.593 224.711 501.637 224.064 501.485 223.413C501.014 221.405 499.123 220.14 497.085 220.466C497 220.48 496.917 220.503 496.831 220.513C496.392 220.57 496.049 220.353 495.971 219.969C495.885 219.551 496.109 219.193 496.559 219.092C497.835 218.809 499.068 218.962 500.216 219.583C502.319 220.719 503.382 223.003 502.924 225.338C502.865 225.64 502.816 225.957 502.509 226.134L502.508 226.133Z" fill="#0E0606"/>
<path d="M521.013 228.911C522.253 230.981 521.834 233.314 520.084 234.716C520.003 234.78 519.921 234.845 519.83 234.895C519.448 235.103 519.08 235.08 518.825 234.712C518.573 234.348 518.658 234.004 519.002 233.711C520.604 232.347 520.732 230.843 519.392 229.231C519.097 228.876 519.096 228.438 519.392 228.168C519.692 227.894 520.122 227.916 520.453 228.254C520.692 228.498 520.899 228.776 521.012 228.91L521.013 228.911Z" fill="#0E0606"/>
<path d="M513.791 242.514C514.88 244.253 514.327 246.799 512.614 247.945C512.206 248.218 511.762 248.165 511.515 247.813C511.28 247.48 511.37 247.088 511.751 246.781C512.948 245.815 513.222 244.59 512.539 243.245C512.289 242.753 512.381 242.358 512.798 242.14C513.157 241.951 513.526 242.09 513.791 242.513L513.791 242.514Z" fill="#0E0606"/>
<path d="M501.469 228.012C501.095 228.001 500.964 228.296 500.777 228.565C500.596 228.825 500.289 228.885 499.985 228.774C499.702 228.671 499.532 228.456 499.522 228.149C499.513 227.833 499.625 227.534 499.941 227.452C500.241 227.373 500.379 227.201 500.521 226.953C500.67 226.693 500.95 226.614 501.243 226.681C501.559 226.753 501.752 226.956 501.8 227.284C501.845 227.588 501.719 227.815 501.468 228.013L501.469 228.012Z" fill="#180A0B"/>
<path d="M495.368 220.372C495.59 220.709 495.499 221.145 495.161 221.372C494.832 221.594 494.384 221.502 494.16 221.167C493.942 220.839 494.037 220.381 494.368 220.166C494.705 219.948 495.15 220.038 495.368 220.371L495.368 220.372Z" fill="#180A0B"/>
<path d="M518.403 228.375C518.079 228.598 517.616 228.515 517.391 228.196C517.156 227.862 517.234 227.439 517.576 227.198C517.916 226.958 518.346 227.03 518.576 227.365C518.803 227.695 518.724 228.156 518.403 228.375Z" fill="#180A0B"/>
<path d="M512.087 241.045C512.31 241.395 512.216 241.816 511.866 242.032C511.522 242.245 511.084 242.147 510.871 241.811C510.659 241.478 510.762 241.027 511.097 240.816C511.439 240.6 511.865 240.698 512.087 241.045Z" fill="#180A0B"/>
<path d="M512.974 210.876C513.02 210.878 513.066 210.878 513.111 210.88C513.115 210.923 513.142 210.988 513.07 210.982C513.035 210.98 513.006 210.914 512.974 210.877L512.974 210.876Z" fill="#E99CA4"/>
<path d="M545.79 211.066C546.229 211.007 546.588 211.117 546.729 211.577C546.864 212.023 546.592 212.281 546.253 212.504C543.719 214.163 541.184 215.825 538.655 217.492C538.347 217.695 538.05 217.814 537.697 217.623C537.322 217.42 537.333 217.079 537.374 216.726C537.542 216.505 537.76 216.344 537.991 216.192C540.592 214.486 543.192 212.776 545.791 211.066L545.79 211.066Z" fill="#03070B"/>
<path d="M545.789 211.06C543.189 212.77 540.591 214.48 537.989 216.187C537.758 216.339 537.54 216.5 537.372 216.721C537.272 216.384 537.44 216.168 537.701 215.997C540.302 214.29 542.906 212.589 545.498 210.868C545.852 210.634 545.716 210.965 545.789 211.06Z" fill="#90CEE4"/>
<path d="M548.218 211.207C547.882 211.419 547.437 211.316 547.226 210.976C547.016 210.637 547.118 210.198 547.457 209.983C547.788 209.773 548.238 209.878 548.45 210.213C548.658 210.546 548.554 210.997 548.218 211.207Z" fill="#0A1119"/>
<path d="M536.681 218.78C536.355 219.007 535.908 218.928 535.675 218.604C535.448 218.29 535.531 217.826 535.854 217.6C536.181 217.372 536.632 217.453 536.857 217.777C537.084 218.106 537.005 218.556 536.682 218.781L536.681 218.78Z" fill="#0A1119"/>
<path d="M651.605 251.949C654.969 248.201 658.333 244.454 661.694 240.703C662.032 240.327 662.408 240.014 662.902 239.875C663.964 239.576 665.001 240.219 665.32 241.406C665.598 242.444 665.836 243.493 666.093 244.537C667.005 248.248 667.917 251.959 668.828 255.671C669.221 257.269 669.615 258.868 670.003 260.467C670.242 261.454 670.759 262.289 671.494 262.962C673.415 264.723 675.367 266.45 677.303 268.195C677.443 268.32 677.523 268.315 677.672 268.203C678.434 267.625 679.523 267.704 680.16 268.366C680.853 269.086 680.909 270.138 680.296 270.916C680.255 270.969 680.211 271.02 680.166 271.07C678.015 273.467 675.865 275.864 673.713 278.259C673.074 278.971 672.158 279.175 671.391 278.786C670.359 278.263 670.005 277.059 670.606 276.063C670.698 275.91 670.674 275.847 670.555 275.74C668.631 274.019 666.721 272.282 664.784 270.576C663.983 269.871 663.043 269.435 661.962 269.293C656.341 268.552 650.723 267.794 645.104 267.042C644.281 266.932 643.456 266.827 642.632 266.714C641.718 266.588 640.993 265.945 640.836 265.112C640.723 264.513 640.909 263.984 641.255 263.502C641.329 263.399 641.414 263.306 641.499 263.212C644.867 259.458 648.237 255.704 651.606 251.949L651.605 251.949ZM660.894 268.434C660.953 268.467 661.016 268.474 661.082 268.463C661.33 268.499 661.578 268.548 661.828 268.57C663.231 268.696 664.416 269.295 665.451 270.222C666.803 271.433 668.153 272.647 669.505 273.858C670.043 274.341 670.584 274.819 671.124 275.299C671.175 275.367 671.219 275.341 671.264 275.29C671.359 275.183 671.455 275.078 671.55 274.971C672.982 273.372 674.414 271.772 675.847 270.172C676.179 269.805 676.501 269.427 676.848 269.073C677.01 268.908 676.986 268.83 676.824 268.686C674.886 266.957 672.944 265.234 671.029 263.48C670.192 262.713 669.607 261.767 669.331 260.648C669.121 259.792 668.902 258.939 668.687 258.084C668.689 258 668.675 257.919 668.63 257.846C668.505 257.676 668.477 257.872 668.442 257.911C665.406 261.285 662.375 264.663 659.344 268.043C659.303 268.089 659.211 268.129 659.246 268.2C659.282 268.275 659.375 268.255 659.449 268.244L659.46 268.245C659.514 268.278 659.571 268.281 659.631 268.268L659.638 268.268C659.933 268.332 660.231 268.381 660.535 268.385C660.652 268.425 660.771 268.45 660.896 268.433L660.894 268.418L660.895 268.433L660.894 268.434ZM657.687 268.005C657.711 268.009 657.736 268.014 657.76 268.018C657.76 268.018 657.769 268.022 657.769 268.022C657.884 268.041 658.002 268.053 658.115 268.083C658.29 268.127 658.407 268.069 658.528 267.934C661.274 264.865 664.025 261.801 666.776 258.736C667.275 258.179 667.776 257.624 668.274 257.065C668.341 256.989 668.455 256.919 668.371 256.787C668.363 256.737 668.358 256.687 668.347 256.639C667.265 252.23 666.185 247.821 665.102 243.413C664.944 242.77 664.814 242.117 664.611 241.487C664.272 240.432 663.195 240.17 662.43 240.946C662.024 241.358 661.658 241.809 661.275 242.243C661.154 242.372 661.032 242.499 660.915 242.63C654.665 249.593 648.416 256.557 642.167 263.52C642.077 263.621 641.986 263.72 641.898 263.821C641.183 264.65 641.477 265.662 642.525 265.972C642.637 266.005 642.754 266.026 642.87 266.042C645.417 266.383 647.965 266.723 650.513 267.063C652.636 267.345 654.759 267.626 656.882 267.908C657.152 267.941 657.422 267.974 657.692 268.007L657.688 268.006L657.687 268.005ZM679.923 270.178C680.056 269.897 680.055 269.606 679.952 269.321C679.631 268.434 678.535 268.231 677.892 268.945C676.183 270.841 674.48 272.743 672.775 274.643C672.293 275.181 671.808 275.716 671.329 276.256C670.962 276.67 670.906 277.222 671.176 277.68C671.539 278.299 672.421 278.482 672.881 278.035C673.05 278.035 673.119 277.892 673.208 277.792C675.363 275.397 677.514 272.999 679.665 270.6C679.775 270.476 679.894 270.354 679.923 270.178Z" fill="#080708"/>
<path d="M656.88 267.907C654.757 267.625 652.634 267.344 650.511 267.062C647.963 266.723 645.416 266.382 642.868 266.041C642.752 266.025 642.635 266.004 642.523 265.971C641.475 265.661 641.181 264.649 641.896 263.821C641.984 263.719 642.075 263.62 642.165 263.519C648.414 256.556 654.664 249.592 660.913 242.629C661.031 242.498 661.153 242.371 661.273 242.243C661.502 242.094 661.719 241.918 662.004 241.88C662.591 241.802 663.117 242.128 663.356 242.739C663.563 243.27 663.646 243.837 663.787 244.387C664.109 245.65 664.405 246.919 664.717 248.185C665.032 249.466 665.355 250.746 665.671 252.028C666.018 253.441 666.364 254.854 666.702 256.269C666.794 256.656 666.931 257.034 666.963 257.436C666.95 257.455 666.924 257.476 666.926 257.493C666.932 257.526 666.959 257.507 666.978 257.5C666.991 257.511 666.997 257.525 666.997 257.542C666.818 257.76 666.981 257.938 667.089 258.095C667.15 258.184 667.144 258.215 667.084 258.271C666.95 258.397 666.805 258.511 666.682 258.647C663.9 261.726 661.155 264.838 658.356 267.901C658.267 267.999 658.226 268.054 658.102 267.954C657.981 267.857 657.86 267.907 657.767 268.022L657.758 268.017C657.739 267.982 657.714 267.981 657.685 268.004L657.69 268.005C657.486 267.867 657.262 267.795 657.014 267.807C656.949 267.809 656.918 267.865 656.878 267.906L656.88 267.907ZM658.858 261.092C658.887 261.121 658.916 261.152 658.948 261.18C659.12 261.335 659.328 261.347 659.462 261.199C659.61 261.035 659.592 260.863 659.459 260.698C658.897 259.995 657.779 259.789 656.927 260.231C656.086 260.666 655.603 261.716 655.854 262.572C655.906 262.753 656.03 262.856 656.227 262.845C656.401 262.835 656.51 262.734 656.541 262.569C656.557 262.482 656.536 262.386 656.524 262.296C656.446 261.694 656.733 261.126 657.249 260.86C657.789 260.583 658.406 260.672 658.857 261.092L658.858 261.092ZM652.089 258.866C651.666 258.49 651.171 258.319 650.606 258.357C649.433 258.436 648.551 259.579 648.788 260.708C648.83 260.91 648.947 261.026 649.147 261.03C649.326 261.033 649.45 260.929 649.48 260.749C649.495 260.66 649.476 260.566 649.47 260.474C649.438 260.003 649.595 259.612 649.971 259.324C650.577 258.86 651.391 259.009 651.847 259.658C652.006 259.884 652.195 259.943 652.377 259.823C652.554 259.707 652.572 259.496 652.432 259.267C652.339 259.115 652.221 258.985 652.089 258.866L652.089 258.866ZM656.841 250.19C656.711 250.325 656.604 250.475 656.515 250.638C656.131 251.33 656.07 252.051 656.327 252.798C656.401 253.015 656.588 253.12 656.773 253.067C656.974 253.008 657.062 252.819 656.997 252.583C656.989 252.551 656.977 252.519 656.968 252.487C656.597 251.143 657.567 249.956 658.955 250.053C659.236 250.072 659.393 249.97 659.418 249.751C659.443 249.523 659.292 249.37 659.009 249.348C658.152 249.283 657.427 249.562 656.84 250.19L656.841 250.19ZM658.474 254.406C658.596 254.529 658.751 254.512 658.901 254.502C660.057 254.428 661.001 253.642 661.273 252.511C661.422 251.892 661.341 251.293 661.049 250.727C660.946 250.528 660.749 250.467 660.563 250.56C660.392 250.645 660.332 250.833 660.414 251.033C660.429 251.071 660.451 251.108 660.468 251.146C660.875 252.065 660.515 253.114 659.628 253.585C659.341 253.737 659.03 253.798 658.706 253.803C658.547 253.805 658.435 253.884 658.383 254.036C658.335 254.176 658.371 254.3 658.474 254.405L658.474 254.406ZM659.472 263.467C659.521 263.397 659.626 263.265 659.712 263.122C659.829 262.924 659.786 262.719 659.62 262.611C659.456 262.506 659.25 262.561 659.119 262.744C658.527 263.576 657.803 263.702 656.961 263.118C656.781 262.993 656.608 262.995 656.467 263.159C656.326 263.325 656.361 263.501 656.507 263.655C656.541 263.692 656.582 263.723 656.622 263.752C657.501 264.402 658.652 264.309 659.472 263.467L659.472 263.467ZM652.169 261.758C652.335 261.581 652.354 261.39 652.221 261.244C652.066 261.075 651.869 261.081 651.668 261.26C651.12 261.749 650.509 261.773 649.905 261.329C649.713 261.187 649.517 261.194 649.389 261.346C649.255 261.507 649.285 261.722 649.464 261.88C650.217 262.544 651.485 262.487 652.168 261.758L652.169 261.758ZM657.461 254.15C657.585 254.244 657.708 254.274 657.846 254.216C657.994 254.152 658.066 254.036 658.06 253.879C658.055 253.732 657.982 253.61 657.842 253.572C657.708 253.536 657.61 253.493 657.535 253.361C657.457 253.223 657.302 253.207 657.155 253.251C657.012 253.293 656.932 253.401 656.918 253.546C656.903 253.703 656.97 253.841 657.115 253.894C657.265 253.948 657.42 253.973 657.462 254.15L657.461 254.15ZM660.3 250.327C660.429 250.183 660.417 249.962 660.272 249.831C660.129 249.701 659.902 249.713 659.775 249.857C659.645 250.003 659.657 250.226 659.803 250.354C659.952 250.485 660.168 250.474 660.299 250.327L660.3 250.327ZM659.396 262.17C659.54 262.294 659.767 262.274 659.894 262.126C660.023 261.976 660.003 261.765 659.848 261.634C659.692 261.503 659.483 261.519 659.355 261.671C659.233 261.817 659.252 262.046 659.396 262.17ZM652.645 260.774C652.781 260.627 652.774 260.413 652.63 260.279C652.488 260.148 652.264 260.155 652.133 260.297C652.001 260.439 652.01 260.658 652.153 260.793C652.298 260.931 652.508 260.923 652.645 260.774Z" fill="#F3959A" fill-opacity="0.93"/>
<path d="M668.628 257.849C668.673 257.922 668.687 258.002 668.685 258.087C668.383 258.535 667.997 258.912 667.633 259.304C667.532 259.412 667.498 259.485 667.533 259.625C667.671 260.169 667.801 260.714 667.923 261.262C668.134 262.208 668.407 263.128 669.008 263.914C668.998 264.086 669.058 264.229 669.19 264.34C669.536 264.634 669.858 264.953 670.198 265.254C671.713 266.598 673.219 267.952 674.72 269.311C674.944 269.514 675.239 269.66 675.336 269.983C675.344 270.009 675.383 270.031 675.412 270.046C675.662 270.174 675.675 270.231 675.485 270.443C674.031 272.062 672.577 273.682 671.122 275.301C670.582 274.82 670.041 274.342 669.503 273.86C668.151 272.649 666.802 271.434 665.45 270.224C664.414 269.296 663.229 268.697 661.827 268.572C661.577 268.55 661.329 268.501 661.08 268.464C661.025 268.406 660.971 268.34 660.893 268.436L660.891 268.421L660.893 268.436C660.789 268.3 660.669 268.282 660.533 268.387C660.248 268.238 659.957 268.143 659.636 268.271C659.636 268.271 659.629 268.271 659.629 268.27C659.581 268.199 659.534 268.115 659.459 268.248L659.448 268.247C659.358 268.078 659.505 268.002 659.588 267.909C662.395 264.777 665.205 261.647 668.015 258.516C668.217 258.291 668.424 258.071 668.629 257.849L668.628 257.849ZM670.959 272.913C670.995 272.866 671.168 272.889 671.013 272.752C669.88 271.745 668.755 270.731 667.627 269.718C667.514 269.617 667.391 269.564 667.245 269.654C667.074 269.679 666.912 269.716 666.863 269.918C666.817 270.107 666.91 270.233 667.044 270.352C668.144 271.336 669.242 272.322 670.339 273.309C670.486 273.441 670.642 273.537 670.835 273.418C671.034 273.295 671.041 273.111 670.958 272.912L670.959 272.913ZM671.196 274.074C671.337 274.206 671.562 274.199 671.692 274.06C671.824 273.919 671.818 273.693 671.677 273.563C671.534 273.431 671.314 273.437 671.181 273.578C671.047 273.72 671.054 273.942 671.196 274.074ZM666.193 269.584C666.339 269.708 666.561 269.69 666.687 269.542C666.812 269.395 666.794 269.173 666.646 269.047C666.499 268.923 666.271 268.942 666.151 269.088C666.027 269.238 666.046 269.458 666.193 269.584L666.193 269.584Z" fill="#85D4F5"/>
<path d="M672.88 278.036C672.42 278.483 671.538 278.3 671.174 277.681C670.905 277.223 670.961 276.671 671.328 276.257C671.806 275.717 672.291 275.182 672.774 274.644C674.479 272.744 676.181 270.842 677.89 268.946C678.534 268.232 679.63 268.435 679.951 269.322C680.054 269.607 680.055 269.898 679.922 270.179C677.575 272.798 675.227 275.417 672.88 278.036Z" fill="#85D4F5"/>
<path d="M666.997 257.543C666.996 257.525 666.99 257.511 666.978 257.5C666.972 257.479 666.967 257.458 666.963 257.437C666.931 257.035 666.794 256.657 666.701 256.27C666.364 254.855 666.018 253.442 665.671 252.029C665.355 250.747 665.032 249.468 664.716 248.186C664.405 246.92 664.109 245.65 663.787 244.388C663.646 243.838 663.563 243.271 663.355 242.74C663.117 242.129 662.591 241.803 662.003 241.881C661.719 241.919 661.502 242.095 661.272 242.244C661.656 241.81 662.022 241.358 662.428 240.946C663.193 240.17 664.27 240.432 664.609 241.488C664.811 242.117 664.941 242.77 665.099 243.414C666.182 247.822 667.263 252.231 668.344 256.639C668.356 256.688 668.361 256.738 668.369 256.787C668.101 257.077 667.837 257.37 667.564 257.654C667.44 257.783 667.34 258.034 667.18 258.004C667.038 257.977 667.072 257.699 666.997 257.543L666.997 257.543Z" fill="#FBFAFA"/>
<path d="M669.01 263.913C668.408 263.127 668.135 262.207 667.925 261.261C667.803 260.714 667.672 260.168 667.535 259.625C667.499 259.484 667.534 259.411 667.634 259.304C667.999 258.911 668.385 258.535 668.686 258.086C668.902 258.941 669.12 259.794 669.331 260.65C669.607 261.769 670.191 262.715 671.028 263.482C672.943 265.236 674.885 266.96 676.823 268.688C676.985 268.833 677.009 268.911 676.847 269.075C676.5 269.429 676.178 269.806 675.846 270.175C675.765 270.17 675.707 270.124 675.65 270.071C673.457 267.997 671.04 266.164 669.01 263.914L669.01 263.913Z" fill="#FBFDFD"/>
<path d="M666.995 257.542C667.071 257.697 667.037 257.976 667.178 258.002C667.338 258.032 667.438 257.782 667.562 257.653C667.836 257.368 668.099 257.075 668.367 256.786C668.451 256.918 668.337 256.988 668.27 257.064C667.773 257.622 667.272 258.178 666.772 258.734C664.021 261.8 661.27 264.864 658.524 267.933C658.402 268.068 658.286 268.126 658.111 268.082C657.998 268.053 657.881 268.04 657.765 268.021C657.859 267.906 657.979 267.856 658.1 267.953C658.225 268.053 658.265 267.997 658.354 267.9C661.154 264.837 663.898 261.724 666.681 258.646C666.803 258.511 666.949 258.396 667.083 258.27C667.143 258.214 667.149 258.183 667.088 258.094C666.979 257.937 666.816 257.758 666.996 257.541L666.995 257.542Z" fill="#E99CA4"/>
<path d="M668.628 257.848C668.423 258.071 668.216 258.291 668.014 258.516C665.204 261.646 662.395 264.776 659.587 267.909C659.504 268.001 659.357 268.078 659.447 268.246C659.372 268.258 659.28 268.277 659.243 268.202C659.208 268.131 659.3 268.091 659.342 268.045C662.372 264.666 665.403 261.288 668.44 257.914C668.475 257.874 668.502 257.678 668.628 257.848Z" fill="#85B7CE"/>
<path d="M669.007 263.912C671.038 266.162 673.455 267.995 675.648 270.069C675.704 270.122 675.762 270.169 675.843 270.173C674.411 271.772 672.979 273.372 671.547 274.972C671.451 275.078 671.355 275.183 671.261 275.29C671.216 275.341 671.172 275.368 671.12 275.3C672.575 273.68 674.029 272.061 675.483 270.441C675.673 270.23 675.66 270.172 675.41 270.045C675.381 270.031 675.343 270.008 675.334 269.981C675.236 269.658 674.942 269.513 674.718 269.31C673.217 267.951 671.711 266.596 670.196 265.252C669.856 264.951 669.534 264.633 669.188 264.339C669.056 264.227 668.995 264.085 669.006 263.912L669.007 263.912Z" fill="#A4C6D3"/>
<path d="M672.878 278.034C675.225 275.415 677.572 272.797 679.92 270.177C679.891 270.352 679.772 270.475 679.661 270.599C677.511 272.998 675.359 275.396 673.205 277.792C673.115 277.892 673.047 278.035 672.878 278.034Z" fill="#70A8B8"/>
<path d="M659.635 268.269C659.956 268.141 660.248 268.236 660.532 268.386C660.229 268.382 659.93 268.333 659.635 268.269Z" fill="#85B7CE"/>
<path d="M656.88 267.908C656.92 267.867 656.951 267.811 657.016 267.809C657.263 267.797 657.487 267.868 657.691 268.007C657.421 267.974 657.151 267.941 656.88 267.908Z" fill="#E99CA4"/>
<path d="M660.534 268.386C660.67 268.28 660.79 268.299 660.894 268.434C660.77 268.452 660.651 268.426 660.534 268.386Z" fill="#85B7CE"/>
<path d="M659.458 268.246C659.533 268.113 659.58 268.197 659.629 268.268C659.569 268.281 659.512 268.278 659.458 268.246Z" fill="#85B7CE"/>
<path d="M660.892 268.435C660.97 268.339 661.024 268.405 661.079 268.463C661.014 268.474 660.951 268.467 660.892 268.435Z" fill="#85B7CE"/>
<path d="M657.686 268.004C657.716 267.981 657.741 267.981 657.76 268.017C657.736 268.013 657.711 268.009 657.686 268.004Z" fill="#E99CA4"/>
<path d="M658.857 261.092C658.406 260.671 657.788 260.582 657.248 260.86C656.732 261.125 656.446 261.693 656.524 262.295C656.535 262.386 656.557 262.482 656.541 262.569C656.51 262.734 656.401 262.835 656.227 262.844C656.03 262.855 655.906 262.753 655.853 262.572C655.603 261.715 656.085 260.666 656.927 260.23C657.779 259.788 658.897 259.994 659.459 260.697C659.592 260.863 659.61 261.035 659.462 261.198C659.327 261.347 659.12 261.335 658.947 261.18C658.916 261.152 658.887 261.121 658.857 261.091L658.857 261.092Z" fill="#0E0606"/>
<path d="M652.088 258.866C652.22 258.985 652.338 259.115 652.431 259.267C652.571 259.496 652.553 259.707 652.376 259.823C652.194 259.943 652.005 259.885 651.846 259.658C651.39 259.009 650.576 258.86 649.97 259.324C649.594 259.612 649.437 260.003 649.469 260.474C649.476 260.566 649.494 260.66 649.479 260.749C649.449 260.929 649.325 261.034 649.146 261.03C648.946 261.025 648.83 260.91 648.787 260.708C648.551 259.579 649.432 258.436 650.605 258.357C651.17 258.319 651.665 258.49 652.088 258.866L652.088 258.866Z" fill="#0E0606"/>
<path d="M656.84 250.189C657.428 249.561 658.152 249.283 659.009 249.348C659.293 249.369 659.443 249.523 659.418 249.75C659.393 249.969 659.236 250.071 658.955 250.052C657.567 249.955 656.596 251.143 656.968 252.486C656.977 252.518 656.989 252.55 656.998 252.582C657.063 252.818 656.975 253.007 656.774 253.066C656.588 253.12 656.402 253.014 656.327 252.798C656.07 252.05 656.131 251.329 656.515 250.637C656.605 250.475 656.711 250.324 656.841 250.19L656.84 250.189Z" fill="#0E0606"/>
<path d="M658.474 254.406C658.371 254.301 658.335 254.177 658.383 254.037C658.434 253.885 658.547 253.806 658.706 253.803C659.03 253.798 659.34 253.738 659.627 253.585C660.514 253.114 660.874 252.066 660.467 251.147C660.45 251.108 660.429 251.072 660.413 251.033C660.332 250.833 660.392 250.645 660.562 250.56C660.749 250.468 660.945 250.529 661.049 250.728C661.341 251.293 661.422 251.893 661.273 252.511C661 253.643 660.056 254.428 658.9 254.503C658.75 254.513 658.595 254.529 658.474 254.406L658.474 254.406Z" fill="#0E0606"/>
<path d="M659.471 263.465C658.651 264.307 657.5 264.4 656.622 263.75C656.581 263.72 656.54 263.69 656.506 263.653C656.36 263.499 656.325 263.323 656.467 263.157C656.607 262.993 656.78 262.99 656.96 263.116C657.802 263.701 658.526 263.573 659.118 262.742C659.249 262.558 659.455 262.504 659.619 262.609C659.785 262.716 659.829 262.922 659.711 263.12C659.626 263.263 659.52 263.395 659.471 263.465L659.471 263.465Z" fill="#0E0606"/>
<path d="M652.166 261.757C651.483 262.486 650.215 262.543 649.462 261.879C649.283 261.721 649.252 261.505 649.387 261.345C649.515 261.193 649.711 261.186 649.903 261.327C650.507 261.771 651.117 261.747 651.666 261.258C651.867 261.079 652.064 261.073 652.219 261.242C652.352 261.388 652.333 261.579 652.167 261.757L652.166 261.757Z" fill="#0E0606"/>
<path d="M657.461 254.15C657.42 253.973 657.264 253.948 657.115 253.894C656.97 253.841 656.903 253.704 656.918 253.547C656.931 253.401 657.011 253.294 657.154 253.251C657.302 253.207 657.457 253.223 657.535 253.361C657.609 253.493 657.707 253.536 657.842 253.572C657.983 253.61 658.055 253.732 658.06 253.879C658.065 254.036 657.994 254.152 657.845 254.216C657.708 254.275 657.585 254.244 657.461 254.151L657.461 254.15Z" fill="#180A0B"/>
<path d="M660.3 250.327C660.168 250.473 659.952 250.484 659.803 250.354C659.658 250.226 659.645 250.004 659.775 249.857C659.902 249.713 660.13 249.701 660.272 249.83C660.417 249.962 660.43 250.183 660.3 250.326L660.3 250.327Z" fill="#180A0B"/>
<path d="M659.398 262.17C659.253 262.045 659.234 261.817 659.356 261.671C659.484 261.519 659.693 261.503 659.849 261.634C660.004 261.764 660.024 261.976 659.895 262.125C659.768 262.274 659.541 262.294 659.398 262.17Z" fill="#180A0B"/>
<path d="M652.646 260.774C652.509 260.923 652.299 260.931 652.153 260.793C652.01 260.658 652.002 260.439 652.134 260.297C652.264 260.156 652.489 260.148 652.63 260.28C652.775 260.414 652.781 260.627 652.646 260.774Z" fill="#180A0B"/>
<path d="M666.961 257.435C666.966 257.457 666.972 257.478 666.976 257.5C666.957 257.507 666.929 257.528 666.923 257.493C666.92 257.476 666.947 257.455 666.961 257.435L666.961 257.435Z" fill="#E99CA4"/>
<path d="M670.959 272.913C671.041 273.113 671.034 273.296 670.835 273.419C670.642 273.538 670.487 273.442 670.339 273.31C669.242 272.324 668.144 271.337 667.044 270.354C666.91 270.234 666.817 270.109 666.863 269.919C666.913 269.717 667.074 269.68 667.245 269.655C667.37 269.707 667.474 269.789 667.574 269.879C668.701 270.892 669.83 271.903 670.959 272.914L670.959 272.913Z" fill="#03070B"/>
<path d="M670.961 272.911C669.833 271.9 668.703 270.889 667.576 269.877C667.476 269.787 667.372 269.704 667.247 269.652C667.394 269.563 667.516 269.616 667.629 269.717C668.757 270.729 669.882 271.744 671.015 272.75C671.17 272.888 670.997 272.865 670.961 272.911Z" fill="#90CEE4"/>
<path d="M671.195 274.073C671.053 273.941 671.046 273.719 671.18 273.577C671.314 273.436 671.533 273.429 671.677 273.562C671.817 273.692 671.823 273.917 671.692 274.058C671.561 274.198 671.336 274.205 671.195 274.073Z" fill="#0A1119"/>
<path d="M666.192 269.581C666.044 269.456 666.026 269.236 666.149 269.086C666.269 268.94 666.498 268.921 666.644 269.045C666.792 269.17 666.811 269.393 666.686 269.539C666.559 269.687 666.337 269.706 666.191 269.582L666.192 269.581Z" fill="#0A1119"/>
<rect x="1758.18" y="240.267" width="121.571" height="61.45" rx="3.32162" transform="rotate(0.422218 1758.18 240.267)" fill="#9A9EA6" fill-opacity="0.17"/>
<rect x="1763.91" y="245.081" width="110.367" height="48.9171" rx="1.20719" transform="rotate(0.422218 1763.91 245.081)" stroke="white" stroke-opacity="0.27" stroke-width="0.90725"/>
<circle cx="1771.7" cy="298.163" r="2.41403" transform="rotate(0.422218 1771.7 298.163)" fill="#FFAAAA" fill-opacity="0.36"/>
<path d="M1774.11 298.183L1873.67 298.75" stroke="#6E8FBE" stroke-width="0.90725"/>
<rect width="38.216" height="1.52301" rx="0.761505" transform="matrix(0.999973 0.00736904 0.00736904 -0.999973 1768.41 252.526)" fill="#D9D9D9" fill-opacity="0.4"/>
<rect width="38.216" height="1.52301" rx="0.761505" transform="matrix(0.999973 0.00736904 0.00736904 -0.999973 1768.28 270.333)" fill="#D9D9D9" fill-opacity="0.4"/>
<rect width="29.9374" height="1.52301" rx="0.761505" transform="matrix(0.999973 0.00736904 0.00736904 -0.999973 1768.23 276.01)" fill="#D9D9D9" fill-opacity="0.4"/>
<rect width="34.1334" height="1.52301" rx="0.761505" transform="matrix(0.999973 0.00736904 0.00736904 -0.999973 1768.19 281.688)" fill="#D9D9D9" fill-opacity="0.4"/>
<rect width="27.8961" height="1.52301" rx="0.761505" transform="matrix(0.999973 0.00736904 0.00736904 -0.999973 1768.15 287.362)" fill="#D9D9D9" fill-opacity="0.4"/>
<rect width="35.3809" height="1.52301" rx="0.761505" transform="matrix(0.999973 0.00736904 0.00736904 -0.999973 1768.37 258.082)" fill="#D9D9D9" fill-opacity="0.4"/>
<rect width="30.958" height="1.52301" rx="0.761505" transform="matrix(0.999973 0.00736904 0.00736904 -0.999973 1768.33 263.64)" fill="#D9D9D9" fill-opacity="0.4"/>
<rect x="1829.32" y="250.48" width="35.0425" height="31.4946" rx="2.26812" transform="rotate(0.422218 1829.32 250.48)" fill="white" fill-opacity="0.3"/>
<rect x="1829.06" y="286.471" width="35.0425" height="3.15544" rx="0.90725" transform="rotate(0.422218 1829.06 286.471)" fill="white" fill-opacity="0.3"/>
<path d="M1896.28 234.34C1896.48 234.149 1896.49 233.833 1896.3 233.633L1893.19 230.378C1893 230.178 1892.69 230.171 1892.49 230.361C1892.29 230.552 1892.28 230.869 1892.47 231.068L1895.23 233.962L1892.34 236.724C1892.14 236.914 1892.13 237.231 1892.32 237.431C1892.51 237.63 1892.83 237.638 1893.03 237.447L1896.28 234.34ZM1820.64 232.726L1895.93 234.478L1895.95 233.478L1820.66 231.727L1820.64 232.726Z" fill="url(#paint14_linear_24_216)" fill-opacity="0.51"/>
<path d="M604.657 264.724C604.262 270.567 600.84 272.542 595.226 270.132C594.754 269.932 594.433 269.775 593.908 270.061C589.359 272.528 585.047 271.764 581.268 268.579C578.822 266.517 575.87 265.46 573.281 263.698C567.595 259.82 564.277 254.502 562.716 247.929C561.387 242.335 561.192 236.708 562.185 231.044C562.269 230.56 561.997 229.85 562.974 229.549C563.291 230.914 562.889 232.224 562.792 233.514C562.297 240.106 563.32 246.408 565.9 252.527C567.695 256.786 570.828 259.665 574.537 262.114C574.918 262.366 575.24 262.896 575.775 262.523C576.175 262.242 575.917 261.788 575.902 261.399C575.775 258.385 576.934 256.017 578.633 255.789C580.367 255.554 582.143 257.533 582.994 260.314C583.783 262.893 582.772 264.549 580.59 265.74C583.893 269.746 588.523 270.836 593.091 268.499C590.556 266.373 589.61 263.525 589.146 260.458C588.939 259.108 588.924 257.78 590.243 256.998C591.64 256.169 592.978 256.742 594.068 257.661C596.893 260.043 597.355 263.067 596.301 266.487C595.614 268.716 596.419 269.695 598.759 269.632C601.813 269.549 603.237 267.532 602.486 264.365C603.134 264.449 603.777 264.536 604.425 264.62C604.51 264.645 604.591 264.68 604.66 264.73L604.657 264.724ZM593.969 266.919C595.669 263.864 595.329 260.69 593.07 258.861C592.51 258.406 591.834 257.912 591.098 258.284C590.287 258.693 590.518 259.513 590.652 260.222C591.14 262.758 591.606 265.312 593.969 266.919ZM579.425 257.711C578.613 257.149 578.256 257.889 577.939 258.386C576.999 259.865 577.442 261.294 578.112 262.767C578.916 264.535 579.914 264.095 580.868 263.061C581.936 261.907 580.934 258.331 579.425 257.711ZM576.137 262.47C575.991 262.551 575.755 262.658 575.763 262.677C575.832 262.876 575.904 263.093 576.047 263.233C576.243 263.433 576.495 263.439 576.464 263.075C576.446 262.866 576.252 262.673 576.134 262.463L576.137 262.47Z" fill="#3B208B"/>
<path d="M415.947 247.771L421.838 240.115L423.599 241.47L415.14 252.464L413.257 251.015L415.614 240.348L415.583 240.324L409.551 248.164L407.805 246.821L416.264 235.827L418.24 237.346L415.932 247.76L415.947 247.771ZM426.845 251.914L423.452 256.324C422.71 257.289 422.713 257.633 422.857 257.89L422.609 258.211L420.711 256.75C420.913 256.297 420.977 256.151 421.3 255.668C420.498 255.855 419.428 256.105 418.234 255.186C417.223 254.408 416.727 252.93 418.023 251.245C419.248 249.653 420.7 249.478 421.971 250.138L423.772 251.061C424.083 251.227 424.526 251.349 424.879 250.889C425.574 249.986 424.905 249.398 424.461 249.056C423.588 248.385 422.928 248.925 422.502 249.353L420.818 248.057C422.937 245.714 424.632 246.458 425.995 247.506C426.929 248.225 428.388 249.908 426.845 251.914ZM422.747 253.661L423.548 252.62C423.25 252.658 422.853 252.572 422.012 252.145C421.263 251.788 420.573 251.574 419.89 252.462C419.313 253.213 419.611 253.808 419.948 254.067C420.729 254.668 421.981 254.656 422.747 253.661ZM433.37 260.006C431.108 262.946 428.448 263.045 426.656 261.666C424.865 260.288 424.278 257.691 426.54 254.751C428.802 251.811 431.462 251.713 433.254 253.091C435.046 254.47 435.632 257.066 433.37 260.006ZM431.563 258.616C432.364 257.575 433.211 255.935 431.864 254.898C430.501 253.85 429.148 255.1 428.347 256.142C427.546 257.183 426.684 258.811 428.047 259.859C429.394 260.896 430.762 259.657 431.563 258.616ZM440.736 264.309L437.214 261.599L433.421 266.529L431.537 265.08L439.996 254.086L441.88 255.535L438.675 259.7L442.197 262.41L445.402 258.245L447.285 259.694L438.826 270.688L436.943 269.239L440.736 264.309Z" fill="#E3C62C" fill-opacity="0.33"/>
<path d="M561.853 300.179L562.715 298.111L563.272 298.343L561.188 303.343L560.631 303.111L561.603 300.778L559.465 299.887L558.493 302.22L557.936 301.988L560.02 296.988L560.577 297.22L559.715 299.288L561.853 300.179ZM566.926 301.632L566.39 301.409C566.596 300.465 566.063 300.055 565.674 299.892C564.928 299.582 564.051 300 563.502 301.317C563.012 302.493 562.975 303.541 563.992 303.965C564.354 304.116 565.061 304.165 565.734 303.081L566.27 303.304C565.261 305.098 563.965 304.657 563.659 304.529C562.726 304.14 562.121 303.021 562.922 301.099C563.564 299.561 564.725 298.794 565.923 299.293C566.975 299.732 567.191 300.762 566.926 301.632ZM568.812 300.653L566.978 305.054L569.053 305.919L568.803 306.518L566.171 305.421L568.255 300.421L568.812 300.653Z" fill="#1C6C63" fill-opacity="0.33"/>
<path d="M1599.1 237.771C1596.89 238.057 1594.69 238.367 1592.48 238.614C1591.63 238.709 1591.52 238.972 1591.71 239.818C1591.92 240.769 1592.13 241.624 1592.72 242.456C1593.93 244.171 1593.27 245.686 1591.23 246.184C1589.82 246.527 1588.39 246.502 1586.97 246.416C1585.71 246.339 1585.61 246.779 1586.06 247.787C1586.38 248.523 1586.75 249.217 1587.15 249.911C1587.86 251.109 1587.45 252.01 1586.09 252.338C1584.96 252.609 1583.78 252.612 1582.7 252.232C1581.24 251.724 1580.96 252.314 1580.93 253.612C1580.91 254.39 1580.63 255.181 1580.35 255.929C1579.93 257.086 1579.32 257.167 1578.53 256.172C1577.66 255.055 1576.68 254.028 1575.58 253.139C1574.72 252.241 1573.88 251.347 1573.03 250.449C1573.23 250.368 1573.45 250.286 1573.66 250.205C1574.41 249.924 1575.21 249.13 1574.66 248.67C1574.08 248.189 1574.4 246.609 1572.95 247.131C1571.93 247.496 1571.17 247.934 1571.74 249.193C1571.15 248.881 1570.57 248.572 1569.98 248.258C1569.15 247.769 1568.35 247.195 1567.36 247.023C1566.74 246.375 1565.9 246.108 1565.1 245.833C1560.55 244.272 1556.41 241.7 1551.71 240.517C1550.35 240.177 1550.2 239.163 1551.22 238.252C1556.47 233.552 1561.28 228.434 1565.92 223.147C1570.53 217.898 1574.53 212.169 1578.87 206.711C1579.69 205.675 1580.39 205.325 1581.59 206.041C1583.72 207.3 1586.06 208.105 1588.33 209.05C1594.8 211.746 1599.23 216.669 1602.77 222.503C1603.9 224.355 1605.06 226.194 1605.78 228.274C1606.43 230.152 1606.02 230.785 1604 230.854C1602.63 230.901 1601.26 230.981 1599.89 231.023C1598.97 231.052 1598.86 231.457 1599.2 232.235C1599.76 233.539 1600.16 234.917 1600.96 236.122C1600.58 236.95 1599.86 237.385 1599.09 237.774L1599.1 237.771ZM1581.44 244.602C1580.94 244.579 1580.49 244.329 1579.94 244.418C1577.98 244.734 1579.21 246.133 1579.17 246.935C1579.12 247.903 1580.03 247.645 1580.73 247.471C1582.88 246.95 1581.77 245.69 1581.43 244.593C1582.12 244.755 1582.04 245.507 1582.43 245.9C1582.83 246.284 1583.28 246.656 1583.76 246.206C1584.36 245.645 1583.58 245.539 1583.35 245.24C1583.18 245.021 1582.91 244.689 1582.97 244.517C1583.39 243.383 1582.71 242.728 1581.85 242.837C1581.12 242.933 1581.34 243.936 1581.44 244.607L1581.44 244.602ZM1576.82 244.108C1577.51 244.282 1577.59 243.791 1577.78 243.478C1579.42 240.836 1581.51 238.559 1583.68 236.359C1586.58 233.438 1589.44 230.479 1592.32 227.539C1592.74 227.111 1593.2 226.643 1592.65 226.084C1592.1 225.521 1591.63 225.956 1591.21 226.392C1589.76 227.859 1588.24 229.252 1586.87 230.781C1583.97 234.013 1580.77 236.992 1578.35 240.629C1577.64 241.685 1576.9 242.758 1576.83 244.107L1576.82 244.108ZM1572.83 240.303C1574.12 239.107 1575.35 238.06 1576.32 236.702C1579.61 232.089 1583.27 227.801 1587.44 223.956C1587.93 223.498 1588.67 223.032 1588.01 222.287C1587.36 221.549 1586.92 222.328 1586.48 222.716C1581.07 227.475 1577.01 233.362 1572.79 239.107C1572.58 239.387 1572.45 239.713 1572.83 240.308L1572.83 240.303ZM1567.17 236.138C1568.65 237.13 1569.96 237.151 1570.28 235.957C1570.65 234.622 1571.15 233.773 1572.52 233.394C1572.91 233.29 1573.14 232.614 1573.42 232.19C1573.6 231.912 1573.69 231.446 1573.93 231.347C1575.62 230.666 1576.14 229.095 1576.84 227.674C1577.54 226.222 1578.28 224.812 1579.41 223.637C1580.2 222.814 1580.97 221.972 1581.72 221.114C1581.99 220.807 1582.21 220.394 1581.83 220.041C1581.42 219.657 1581.14 220.003 1580.85 220.312C1579.17 222.104 1577.15 223.733 1576.34 226.078C1575.45 228.653 1572.93 229.782 1571.75 232.039C1571.42 232.66 1570.74 232.349 1570.23 232.022C1569.85 231.782 1569.48 231.365 1569.02 231.785C1568.61 232.158 1568.82 232.577 1568.98 233.033C1569.92 235.726 1569.89 235.753 1567.26 236.005C1567.23 236.008 1567.2 236.093 1567.16 236.143L1567.17 236.138ZM1588.18 242.927C1587.91 242.082 1587.47 241.526 1586.43 241.915C1585.41 242.295 1584.89 242.935 1585.29 244.024C1585.62 244.913 1586.31 245.26 1587.22 244.927C1588.14 244.593 1588.69 244.015 1588.18 242.925L1588.18 242.927ZM1574.41 247.156C1575.01 247.583 1575 248.379 1575.47 248.877C1575.84 249.271 1576.32 249.268 1576.71 248.958C1577.27 248.51 1576.73 248.318 1576.43 248.095C1575.98 247.755 1575.74 247.345 1575.96 246.775C1576.3 245.912 1575.26 246.062 1575.06 245.574C1574.99 245.385 1574.63 245.449 1574.51 245.684C1574.27 246.154 1574.21 246.648 1574.41 247.159L1574.41 247.156ZM1578.52 245.328C1577.53 245.316 1576.76 245.389 1576.66 246.048C1576.54 246.872 1577.01 247.669 1577.5 248.361C1577.57 248.451 1577.83 248.472 1577.95 248.424C1578.28 248.298 1578.31 247.991 1578.19 247.723C1577.82 246.961 1577.79 246.226 1578.52 245.326L1578.52 245.328ZM1584.99 244.191C1584.67 243.781 1584.75 242.788 1584.05 243.017C1583.12 243.319 1583.88 244.063 1584.04 244.558C1584.19 245.027 1584.24 245.951 1584.99 245.664C1585.75 245.371 1585.04 244.703 1584.99 244.189L1584.99 244.191Z" fill="#CA45D6" fill-opacity="0.56"/>
<path d="M1567.37 247.018C1568.35 247.19 1569.15 247.764 1569.99 248.253C1570.03 248.952 1570.97 249.827 1570.28 250.242C1569.35 250.801 1569.55 249.44 1569.09 249.061C1568.9 248.899 1568.71 248.806 1568.49 248.917C1568.18 249.071 1568.16 249.367 1568.28 249.642C1568.62 250.44 1568.68 251.629 1569.87 251.566C1571.1 251.497 1572.11 250.931 1571.84 249.371C1572.16 249.818 1572.46 250.276 1573.03 250.445C1573.88 251.343 1574.73 252.237 1575.58 253.135C1575.57 255.882 1575.84 258.602 1576.27 261.319C1576.43 262.37 1576.89 262.392 1577.6 261.922C1578.83 261.097 1580.09 260.293 1581.24 259.362C1586.31 255.276 1591.34 251.164 1596.36 247.032C1597.73 245.907 1598.1 245.945 1598.82 247.618C1600.13 250.686 1598.77 253.283 1597.03 255.568C1593.45 260.279 1588.87 263.846 1583.5 266.381C1582.73 266.746 1582.01 267.226 1581.3 267.717C1580.13 268.536 1578.9 269.038 1577.27 268.574C1577.37 269.24 1577.46 269.767 1577.53 270.298C1577.63 271.107 1577.8 271.471 1578.88 271.336C1583.11 270.813 1587.23 275.922 1586.2 280.234C1585.33 283.888 1584.05 285.158 1580.99 285.431C1578.52 285.651 1575.7 283.792 1575.11 281.361C1574.21 277.699 1573.5 273.997 1573.41 270.208C1573.4 269.951 1573.38 269.69 1573.37 269.433C1573.58 269.389 1573.93 269.379 1573.86 269.123C1573.5 267.677 1573.11 266.231 1571.31 265.917C1570.19 265.15 1569.85 264.024 1569.55 262.74C1568.33 257.562 1567.14 252.398 1567.37 247.026L1567.37 247.018ZM1582.34 278.817C1582.01 278.227 1581.85 277.846 1581.6 277.543C1581.07 276.892 1580.44 275.735 1579.76 275.996C1578.92 276.324 1579.57 277.501 1579.59 278.304C1579.6 278.695 1579.75 279.082 1579.84 279.474C1580.05 280.432 1580.65 281.177 1581.61 280.785C1582.48 280.43 1582.53 279.443 1582.34 278.814L1582.34 278.817Z" fill="#030404" fill-opacity="0.52"/>
<path d="M1592.33 277.923C1595.32 277.004 1597.57 275.03 1600.22 273.815C1605.24 271.507 1609.62 268.165 1613.66 264.469C1616.31 262.056 1618.55 259.206 1621 256.575C1621.45 256.097 1621.47 255.825 1620.95 255.386C1619.73 254.355 1619.06 252.945 1618.56 251.475C1616.95 246.741 1614.97 242.194 1611.93 238.068C1611.48 238.8 1611.77 240.083 1610.51 240.281C1609.59 240.429 1608.74 240.069 1607.91 239.707C1607.86 240.759 1607.79 241.66 1607.77 242.556C1607.7 244.938 1607.46 245.203 1605.16 245.342C1603.85 245.421 1602.54 245.495 1601.24 245.624C1600.87 245.659 1600.44 246.074 1600.23 245.499C1600.04 244.956 1600.49 244.583 1600.91 244.478C1601.9 244.228 1602.93 243.921 1603.94 243.961C1605.75 244.035 1606.53 243.344 1606.3 241.536C1606.28 241.367 1606.29 241.195 1606.29 241.025C1606.28 237.84 1606.29 237.822 1609.38 238.626C1609.93 238.767 1610.13 238.657 1610.17 238.138C1610.19 237.684 1610.16 237.221 1610.22 236.773C1610.29 236.189 1609.95 235.394 1610.74 235.111C1611.61 234.798 1612.11 235.473 1612.54 236.081C1615.45 240.153 1617.9 244.461 1619.51 249.238C1620.25 251.439 1620.89 253.767 1623.29 254.927C1623.98 255.258 1623.73 255.943 1623.37 256.414C1622.83 257.136 1622.24 257.845 1621.58 258.472C1618.98 260.96 1617.02 264.046 1614.28 266.4C1609.72 270.32 1604.83 273.733 1599.41 276.429C1597.02 277.622 1594.7 279.007 1592.31 280.232C1591.79 280.503 1591.28 280.761 1590.71 280.365C1590.14 279.973 1590.18 279.382 1590.25 278.813C1590.83 274.474 1589.86 270.54 1587.19 267.047C1586.98 266.774 1586.45 266.477 1586.97 266.067C1587.52 265.639 1587.78 266.178 1588.06 266.511C1589.86 268.672 1590.84 271.245 1591.56 273.902C1591.91 275.199 1592.35 276.489 1592.34 277.928L1592.33 277.923Z" fill="#0A0A0A" fill-opacity="0.53"/>
<path d="M1573.36 269.427C1573.38 269.684 1573.39 269.945 1573.4 270.202C1572.46 270.122 1571.96 270.885 1571.34 271.361C1569.11 273.053 1566.73 274.52 1564.31 275.908C1561.5 277.517 1558.2 276.884 1556.49 274.511C1554.18 271.338 1556.15 266.059 1560.18 264.904C1563.47 263.957 1566.64 263.909 1568.81 267.255C1569.03 267.594 1569.21 267.515 1569.49 267.354C1570.08 267.014 1570.7 266.712 1571.3 266.396C1571.96 267.422 1572.99 268.205 1573.36 269.427ZM1565.33 269.426C1563.84 268.931 1562.49 268.976 1561.21 269.471C1560.37 269.796 1559.75 270.662 1560.23 271.512C1560.61 272.178 1561.49 272.376 1562.32 271.778C1563.28 271.085 1564.42 270.64 1565.33 269.429L1565.33 269.426Z" fill="#040404" fill-opacity="0.51"/>
<path d="M1595.14 263.076C1595.87 261.571 1596.09 259.906 1598.25 260.082C1598.93 260.138 1599.15 259.43 1599.42 258.968C1600.22 257.594 1601.27 256.53 1602.68 255.776C1604.78 254.648 1606.33 252.881 1607.94 251.164C1608.48 250.579 1609.05 250.019 1609.62 249.456C1610.03 249.049 1610.47 248.635 1611.1 248.81C1611.36 248.881 1611.6 249.102 1611.6 249.439C1611.6 250.225 1610.89 250.132 1610.46 250.429C1609.67 250.971 1609 251.697 1608.35 252.411C1606.76 254.161 1604.98 255.651 1602.83 256.684C1601.84 257.16 1601.05 257.898 1600.45 258.845C1599.79 259.882 1599.25 261.081 1597.61 260.876C1597.09 260.809 1596.86 261.486 1596.56 261.907C1596.26 262.332 1596.31 263.095 1595.14 263.076Z" fill="#131313" fill-opacity="0.51"/>
<path d="M1599.83 266.762C1599.71 266.738 1599.43 266.769 1599.32 266.648C1599.07 266.376 1599.3 266.121 1599.51 265.92C1600.52 264.922 1601.53 263.921 1602.56 262.935C1604.83 260.763 1607.34 258.911 1609.94 257.162C1610.27 256.937 1610.63 256.674 1610.99 257.06C1611.39 257.489 1611.24 257.989 1610.82 258.238C1606.87 260.573 1603.44 263.542 1600.07 266.606C1600.02 266.644 1599.97 266.672 1599.83 266.762Z" fill="#0F0F0F" fill-opacity="0.53"/>
<path d="M1597.95 211.287C1597.87 211.263 1597.64 211.249 1597.47 211.14C1597.22 210.98 1597.32 210.692 1597.43 210.521C1598.37 209.025 1599.32 207.536 1600.52 206.227C1600.76 205.963 1601.13 205.919 1601.47 206.114C1601.74 206.27 1601.84 206.545 1601.82 206.843C1601.8 207.231 1598.5 211.116 1597.95 211.292L1597.95 211.287Z" fill="#0F0F0F" fill-opacity="0.53"/>
<path d="M1595.65 208.121C1595.11 208.311 1594.83 208.062 1594.87 207.572C1594.96 206.331 1595.07 205.088 1595.26 203.856C1595.35 203.221 1595.8 202.799 1596.48 203.056C1597.15 203.311 1596.88 203.763 1596.7 204.299C1596.39 205.201 1596.29 206.172 1596.09 207.11C1596.01 207.48 1596.1 207.929 1595.66 208.12L1595.65 208.121Z" fill="#131313" fill-opacity="0.51"/>
<path d="M1604.63 211.959C1604.75 212.261 1604.69 212.547 1604.44 212.723C1603.57 213.353 1602.68 213.961 1601.79 214.564C1601.52 214.743 1601.22 214.747 1601.05 214.453C1600.96 214.283 1600.91 213.916 1601.01 213.834C1601.91 213.061 1602.82 212.299 1603.78 211.605C1604.06 211.404 1604.43 211.634 1604.63 211.959Z" fill="#0F0F0F" fill-opacity="0.53"/>
<path d="M1556.74 257.126C1556.73 257.064 1556.72 257.008 1556.68 256.954C1557 256.773 1557.32 256.594 1557.63 256.413C1558.08 257.274 1558.08 258.463 1559.42 258.649C1559.79 258.699 1559.87 259.143 1559.69 259.493C1559.5 259.86 1559.14 259.851 1558.8 259.777C1557.37 259.473 1557.1 258.268 1556.74 257.128L1556.74 257.126Z" fill="#0A0A0A" fill-opacity="0.53"/>
<path d="M1573.36 269.428C1572.99 268.206 1571.97 267.427 1571.3 266.397C1571.3 266.234 1571.3 266.072 1571.3 265.909C1573.1 266.226 1573.5 267.673 1573.86 269.115C1573.92 269.37 1573.57 269.381 1573.36 269.425L1573.36 269.428Z" fill="#030404" fill-opacity="0.52"/>
<path d="M1557.63 256.41C1557.32 256.591 1557 256.77 1556.69 256.951C1556.41 256.581 1556.14 256.214 1555.86 255.844C1555.81 255.454 1556.02 255.162 1556.24 254.871C1556.68 255.013 1557.13 255.153 1557.58 255.297C1557.61 255.669 1557.86 256.028 1557.64 256.409L1557.63 256.41Z" fill="#0F0F0F" fill-opacity="0.53"/>
<path d="M1557.58 255.295C1557.13 255.154 1556.68 255.014 1556.23 254.87C1556.2 254.354 1556.48 254.123 1556.95 254.224C1557.49 254.343 1557.88 254.634 1557.57 255.292L1557.58 255.295Z" fill="#0F0F0F" fill-opacity="0.53"/>
<path d="M1576.82 244.108C1576.9 242.761 1577.64 241.684 1578.34 240.63C1580.77 236.993 1583.97 234.014 1586.86 230.781C1588.23 229.253 1589.76 227.86 1591.2 226.393C1591.63 225.956 1592.1 225.522 1592.65 226.085C1593.2 226.644 1592.73 227.111 1592.31 227.539C1589.44 230.48 1586.58 233.435 1583.68 236.36C1581.5 238.56 1579.42 240.835 1577.78 243.479C1577.58 243.791 1577.51 244.283 1576.82 244.109L1576.82 244.108Z" fill="#040B07" fill-opacity="0.51"/>
<path d="M1572.83 240.304C1572.45 239.71 1572.59 239.387 1572.79 239.104C1577.02 233.358 1581.07 227.472 1586.48 222.713C1586.92 222.325 1587.35 221.547 1588.01 222.283C1588.67 223.029 1587.94 223.495 1587.44 223.953C1583.27 227.802 1579.6 232.087 1576.32 236.699C1575.35 238.057 1574.12 239.104 1572.83 240.3L1572.83 240.304Z" fill="#040B07" fill-opacity="0.51"/>
<path d="M1567.17 236.139C1567.2 236.092 1567.22 236.005 1567.26 236.001C1569.89 235.749 1569.92 235.724 1568.98 233.029C1568.82 232.569 1568.61 232.151 1569.02 231.781C1569.48 231.361 1569.86 231.778 1570.23 232.018C1570.74 232.345 1571.42 232.657 1571.75 232.035C1572.93 229.778 1575.46 228.652 1576.34 226.074C1577.15 223.729 1579.17 222.096 1580.85 220.308C1581.14 219.999 1581.42 219.653 1581.83 220.037C1582.21 220.389 1581.99 220.803 1581.72 221.11C1580.97 221.968 1580.2 222.81 1579.41 223.633C1578.28 224.809 1577.54 226.219 1576.84 227.67C1576.15 229.091 1575.62 230.666 1573.94 231.343C1573.69 231.442 1573.6 231.908 1573.42 232.186C1573.14 232.613 1572.91 233.286 1572.53 233.39C1571.15 233.769 1570.65 234.615 1570.29 235.953C1569.96 237.147 1568.65 237.129 1567.17 236.134L1567.17 236.139Z" fill="#040D09" fill-opacity="0.51"/>
<path d="M1588.18 242.928C1588.69 244.018 1588.14 244.593 1587.22 244.93C1586.31 245.26 1585.63 244.916 1585.3 244.027C1584.89 242.938 1585.41 242.295 1586.43 241.918C1587.47 241.528 1587.92 242.084 1588.19 242.93L1588.18 242.928Z" fill="#772C7D"/>
<path d="M1581.43 244.593C1581.77 245.691 1582.88 246.95 1580.73 247.472C1580.03 247.642 1579.12 247.903 1579.17 246.936C1579.21 246.134 1577.98 244.735 1579.94 244.418C1580.49 244.33 1580.94 244.58 1581.44 244.602L1581.43 244.593ZM1579.85 245.304C1579.83 245.34 1579.8 245.375 1579.78 245.414C1579.85 245.419 1579.92 245.421 1579.99 245.427C1579.99 245.388 1580 245.328 1579.98 245.317C1579.95 245.297 1579.9 245.309 1579.85 245.304Z" fill="#772C7D"/>
<path d="M1573.03 250.446C1572.46 250.277 1572.16 249.819 1571.84 249.371C1571.81 249.308 1571.78 249.248 1571.74 249.188C1571.18 247.929 1571.93 247.496 1572.95 247.126C1574.4 246.606 1574.09 248.184 1574.67 248.666C1575.22 249.122 1574.41 249.917 1573.66 250.201C1573.45 250.282 1573.24 250.364 1573.03 250.445L1573.03 250.446Z" fill="#772C7D"/>
<path d="M1571.74 249.188C1571.78 249.248 1571.81 249.309 1571.84 249.371C1572.11 250.932 1571.1 251.498 1569.87 251.567C1568.68 251.633 1568.62 250.445 1568.28 249.643C1568.16 249.367 1568.18 249.075 1568.49 248.917C1568.72 248.805 1568.9 248.9 1569.09 249.062C1569.55 249.441 1569.35 250.805 1570.28 250.242C1570.97 249.829 1570.03 248.949 1569.99 248.253C1570.57 248.566 1571.16 248.875 1571.74 249.188Z" fill="#030404" fill-opacity="0.52"/>
<path d="M1581.44 244.603C1581.34 243.935 1581.12 242.93 1581.85 242.833C1582.71 242.723 1583.39 243.38 1582.97 244.513C1582.91 244.687 1583.18 245.017 1583.35 245.236C1583.58 245.535 1584.36 245.645 1583.76 246.203C1583.28 246.655 1582.83 246.284 1582.44 245.896C1582.04 245.507 1582.12 244.752 1581.43 244.589L1581.45 244.598L1581.44 244.603Z" fill="#772C7D"/>
<path d="M1574.41 247.156C1574.21 246.645 1574.27 246.151 1574.51 245.681C1574.63 245.446 1574.98 245.386 1575.06 245.571C1575.26 246.062 1576.3 245.909 1575.96 246.771C1575.74 247.342 1575.98 247.752 1576.43 248.092C1576.73 248.314 1577.27 248.508 1576.7 248.955C1576.31 249.266 1575.84 249.268 1575.47 248.874C1575 248.375 1575.01 247.583 1574.41 247.153L1574.41 247.156Z" fill="#772C7D"/>
<path d="M1578.52 245.329C1577.79 246.229 1577.82 246.965 1578.19 247.726C1578.32 247.994 1578.28 248.3 1577.96 248.427C1577.83 248.476 1577.57 248.452 1577.51 248.364C1577.01 247.673 1576.54 246.875 1576.67 246.051C1576.76 245.392 1577.53 245.319 1578.53 245.331L1578.52 245.329Z" fill="#772C7D"/>
<path d="M1584.99 244.191C1585.04 244.705 1585.75 245.376 1584.99 245.666C1584.24 245.956 1584.19 245.029 1584.04 244.559C1583.88 244.063 1583.12 243.319 1584.05 243.019C1584.75 242.79 1584.67 243.78 1584.98 244.192L1584.99 244.191Z" fill="#772C7D"/>
<path d="M1579.85 245.304C1579.9 245.305 1579.95 245.297 1579.98 245.317C1580 245.329 1579.99 245.388 1579.99 245.427C1579.92 245.422 1579.85 245.42 1579.78 245.414C1579.8 245.378 1579.83 245.343 1579.85 245.304Z" fill="#45D68D" fill-opacity="0.35"/>
</g>
<defs>
<linearGradient id="paint0_linear_24_216" x1="975" y1="-0.0136719" x2="975" y2="319.761" gradientUnits="userSpaceOnUse">
<stop offset="0.2" stop-color="#2070E1"/>
<stop offset="0.755" stop-color="#1C53A1"/>
</linearGradient>
<linearGradient id="paint1_linear_24_216" x1="255.185" y1="98.3965" x2="255.185" y2="330.726" gradientUnits="userSpaceOnUse">
<stop offset="0.18" stop-color="#5B0DBE"/>
<stop offset="0.345" stop-color="#532AC1"/>
<stop offset="0.71" stop-color="#29CFCF"/>
</linearGradient>
<linearGradient id="paint2_linear_24_216" x1="185.98" y1="98.4005" x2="184.123" y2="329.532" gradientUnits="userSpaceOnUse">
<stop offset="0.18" stop-color="#5B0DBE"/>
<stop offset="0.345" stop-color="#532AC1"/>
<stop offset="0.71" stop-color="#29CFCF"/>
</linearGradient>
<linearGradient id="paint3_linear_24_216" x1="111.832" y1="88.5098" x2="111.832" y2="320.839" gradientUnits="userSpaceOnUse">
<stop offset="0.18" stop-color="#5B0DBE"/>
<stop offset="0.345" stop-color="#532AC1"/>
<stop offset="0.71" stop-color="#29CFCF"/>
</linearGradient>
<radialGradient id="paint4_radial_24_216" cx="0" cy="0" r="1" gradientUnits="userSpaceOnUse" gradientTransform="translate(179.308 267.49) rotate(89.8963) scale(0.5 169.297)">
<stop stop-color="#4B21BD"/>
<stop offset="1" stop-color="#25B0C4"/>
</radialGradient>
<radialGradient id="paint5_radial_24_216" cx="0" cy="0" r="1" gradientUnits="userSpaceOnUse" gradientTransform="translate(200.934 226.709) rotate(89.8963) scale(0.5 178.565)">
<stop stop-color="#4B21BD"/>
<stop offset="1" stop-color="#25B0C4"/>
</radialGradient>
<linearGradient id="paint6_linear_24_216" x1="191.665" y1="181.736" x2="191.711" y2="311.488" gradientUnits="userSpaceOnUse">
<stop stop-color="#4B21BD"/>
<stop offset="1" stop-color="#25B0C4"/>
</linearGradient>
<radialGradient id="paint7_radial_24_216" cx="0" cy="0" r="1" gradientUnits="userSpaceOnUse" gradientTransform="translate(191.664 140.22) rotate(90.024) scale(146.252 49520)">
<stop stop-color="#4B21BD"/>
<stop offset="1" stop-color="#25B0C4"/>
</radialGradient>
<linearGradient id="paint8_linear_24_216" x1="48.8066" y1="88.5098" x2="48.8066" y2="320.839" gradientUnits="userSpaceOnUse">
<stop offset="0.18" stop-color="#5B0DBE"/>
<stop offset="0.345" stop-color="#532AC1"/>
<stop offset="0.71" stop-color="#29CFCF"/>
</linearGradient>
<linearGradient id="paint9_linear_24_216" x1="333.843" y1="115.558" x2="333.843" y2="347.887" gradientUnits="userSpaceOnUse">
<stop offset="0.18" stop-color="#5B0DBE"/>
<stop offset="0.345" stop-color="#532AC1"/>
<stop offset="0.71" stop-color="#29CFCF"/>
</linearGradient>
<linearGradient id="paint10_linear_24_216" x1="151.941" y1="278.674" x2="181.105" y2="259.471" gradientUnits="userSpaceOnUse">
<stop stop-color="#5718BF"/>
<stop offset="1" stop-color="#27A8C4"/>
</linearGradient>
<linearGradient id="paint11_linear_24_216" x1="124.909" y1="285.418" x2="150.606" y2="292.038" gradientUnits="userSpaceOnUse">
<stop stop-color="#5718BF"/>
<stop offset="1" stop-color="#27A8C4"/>
</linearGradient>
<linearGradient id="paint12_linear_24_216" x1="1733" y1="40.5891" x2="1934.5" y2="40.5891" gradientUnits="userSpaceOnUse">
<stop offset="0.104218" stop-color="#00163A"/>
<stop offset="1" stop-color="#003DA0"/>
</linearGradient>
<linearGradient id="paint13_linear_24_216" x1="1655.74" y1="205.102" x2="1943.97" y2="211.299" gradientUnits="userSpaceOnUse">
<stop stop-color="#F1F9FF"/>
<stop offset="1" stop-color="#361A84"/>
</linearGradient>
<linearGradient id="paint14_linear_24_216" x1="1820.64" y1="232.726" x2="1895.93" y2="234.478" gradientUnits="userSpaceOnUse">
<stop offset="0.335686" stop-color="#0056B3"/>
<stop offset="1" stop-color="white"/>
</linearGradient>
<clipPath id="clip0_24_216">
<rect width="1950" height="319.77" fill="white"/>
</clipPath>
</defs>
</svg>
