<svg width="66" height="63" viewBox="0 0 66 63" fill="none" xmlns="http://www.w3.org/2000/svg">
<path d="M2.83887 1C-2.08976 6.98477 4.03652 17.3842 7.80575 22.4099C11.8239 27.7673 17.4922 30.0405 24.118 29.4289C29.1594 28.9635 33.1971 23.8624 33.7904 19.116C34.2684 15.2919 33.9851 10.5758 29.3202 9.99267C28.1168 9.84225 26.2658 9.68401 25.1898 10.3325C23.2881 11.4788 22.2357 13.9232 21.6869 15.966C20.7918 19.2975 20.8391 23.6864 21.3993 27.0631C22.1322 31.48 24.5634 36.1957 26.9805 39.9116C34.7959 51.9263 48.4866 58.642 62.5983 58.642" stroke="black" stroke-width="2" stroke-linecap="round"/>
<path d="M61.666 56.1641C62.0467 56.3394 62.3843 56.6299 62.7147 56.885C63.0538 57.1469 63.3817 57.4218 63.7072 57.7008C63.7548 57.7416 64.4887 58.3598 64.4566 58.3838C64.3465 58.4664 64.2626 58.6025 64.1953 58.7193C63.953 59.1397 63.76 59.5852 63.4891 59.9895C63.153 60.4911 62.761 60.9832 62.3335 61.4107" stroke="black" stroke-width="2" stroke-linecap="round"/>
</svg>
