<svg width="662" height="367" viewBox="0 0 662 367" fill="none" xmlns="http://www.w3.org/2000/svg">
<path d="M40.5461 366.073C40.5461 366.073 -40.687 278.855 26.8082 184.429C86.6947 100.647 156.516 106.374 207.743 140.373C229.561 154.854 292.465 142.158 346.005 56.9074C419.018 -59.3515 672.109 11.1597 625.963 190.027C603.631 276.586 693.926 279.732 647.917 366.257L40.5461 366.073Z" fill="#EBF3FA"/>
<path d="M196.548 197.459C196.548 197.459 156.362 140.256 140.657 147.672C124.952 155.087 196.548 197.459 196.548 197.459Z" fill="#9FB6D2"/>
<path d="M193.992 182.09C193.992 182.09 187.854 139.079 178.177 140.766C168.5 142.454 193.992 182.09 193.992 182.09Z" fill="#9FB6D2"/>
<path d="M160.019 316.148C160.019 316.148 163.882 297.009 148.881 294.604C148.881 294.604 138.706 294.249 132.715 298.086C132.715 298.086 149.729 307.909 147.706 310.961C145.683 314.015 129.537 298.65 129.537 298.65C129.537 298.65 111.298 306.638 107.227 312.423C107.227 312.423 128.78 316.264 126.068 318.725C123.355 321.186 100.742 318.231 100.742 318.231C100.742 318.231 86.1697 329.968 92.5165 339.311C98.8633 348.655 106.106 348.589 108.399 346.965C110.692 345.341 121.915 331.926 123.342 333.75C124.769 335.575 119.831 346.902 113.988 350.567C113.988 350.567 132.336 356.745 137.862 348.916C143.389 341.087 140.833 335 144.336 330.224C147.839 325.448 151.857 323.21 151.14 326.486C150.422 329.762 143.099 336.647 143.067 342.907C143.036 349.168 142.415 353.725 149.565 348.189C156.716 342.653 166.213 329.852 163.116 323C160.019 316.148 160.019 316.148 160.019 316.148Z" fill="#789AB3"/>
<path d="M100.577 335.156C100.577 335.156 143.372 309.035 160.019 316.147C160.019 316.147 165.729 321.351 175.557 323.505L178.142 325.725C178.142 325.725 166.098 321.968 163.116 322.999C163.116 322.999 158.7 305.134 100.577 335.156Z" fill="#789AB3"/>
<path d="M175.557 323.505C175.557 323.505 188.824 325.203 196.406 337.244L194.788 338.348C194.788 338.348 184.623 327.196 176.402 325.208C168.18 323.22 175.557 323.505 175.557 323.505Z" fill="#789AB3"/>
<path d="M173.117 260.3C173.117 260.3 204.193 242.897 189.691 219.28C189.691 219.28 178.089 204.777 165.659 201.048C165.659 201.048 172.288 236.268 165.659 237.096C159.029 237.925 161.101 197.319 161.101 197.319C161.101 197.319 128.368 181.574 115.523 182.817C115.523 182.817 135.826 217.208 129.197 216.379C122.567 215.55 99.778 180.745 99.778 180.745C99.778 180.745 66.2163 174.53 60.8298 194.418C55.4433 214.307 64.1446 224.251 69.1167 225.494C74.0888 226.737 105.993 226.323 105.165 230.467C104.336 234.61 82.79 241.239 70.7738 237.51C70.7738 237.51 84.033 270.244 101.435 268.586C118.838 266.929 124.224 256.156 134.997 255.327C145.77 254.498 153.643 257.399 148.256 260.299C142.87 263.2 124.639 261.25 115.937 268.647C107.236 276.044 100.192 280.602 116.352 283.917C132.511 287.232 161.515 285.16 167.316 272.73C173.117 260.3 173.117 260.3 173.117 260.3Z" fill="#9FB6D2"/>
<path d="M76.158 200.634C76.158 200.634 163.171 228.81 173.115 260.3C173.115 260.3 172.7 274.388 181.402 290.547V296.762C181.402 296.762 172.286 275.631 167.314 272.73C167.314 272.73 186.788 245.384 76.158 200.634Z" fill="#789AB3"/>
<path d="M181.401 290.546C181.401 290.546 194.82 310.923 187.17 335.728L183.718 334.801C183.718 334.801 187.069 307.48 180.048 293.739C173.028 279.998 181.401 290.546 181.401 290.546Z" fill="#789AB3"/>
<path d="M204.698 114.704L158.203 355.08C157.257 359.969 161.002 364.508 165.982 364.508H190.504L204.698 114.704Z" fill="#2BA7ED"/>
<path d="M513.766 183.511C513.766 183.511 492.852 170.169 503.879 154.326C503.879 154.326 512.526 144.704 521.318 142.608C521.318 142.608 515.302 166.833 519.879 167.674C524.456 168.515 524.636 140.196 524.636 140.196C524.636 140.196 548.026 130.555 556.909 131.932C556.909 131.932 541.418 155.035 546.061 154.724C550.704 154.412 567.94 131.12 567.94 131.12C567.94 131.12 591.526 128.137 594.478 142.182C597.429 156.227 590.982 162.795 587.475 163.461C583.967 164.127 561.799 162.565 562.209 165.479C562.62 168.394 577.338 173.864 585.842 171.75C585.842 171.75 575.316 193.983 563.281 192.135C551.246 190.288 547.931 182.582 540.472 181.576C533.014 180.569 527.424 182.272 531.054 184.504C534.684 186.736 547.439 186.107 553.194 191.599C558.949 197.09 563.666 200.541 552.297 202.2C540.927 203.86 520.842 201.262 517.304 192.387C513.766 183.511 513.766 183.511 513.766 183.511Z" fill="#C7DCFB"/>
<path d="M583.565 145.892C583.565 145.892 521.935 162.011 513.763 183.511C513.763 183.511 513.489 193.324 506.793 204.213L506.545 208.535C506.545 208.535 513.727 194.204 517.301 192.386C517.301 192.386 504.85 172.593 583.565 145.892Z" fill="#C7DCFB"/>
<path d="M506.794 204.213C506.794 204.213 496.65 217.847 500.979 235.4L503.416 234.893C503.416 234.893 502.177 215.762 507.607 206.487C513.038 197.212 506.794 204.213 506.794 204.213Z" fill="#C7DCFB"/>
<path d="M457.456 125.603C457.456 125.603 425.323 118.547 431.814 93.7836C431.814 93.7836 438.183 77.8552 448.172 71.2278C448.172 71.2278 451.75 104.137 457.832 103.093C463.914 102.049 451.202 66.7099 451.202 66.7099C451.202 66.7099 475.919 44.0204 487.606 41.6773C487.606 41.6773 478.874 77.5182 484.512 75.0094C490.15 72.5005 500.969 35.6268 500.969 35.6268C500.969 35.6268 528.972 21.1393 539.063 37.2771C549.154 53.415 544.127 64.537 540.064 66.9682C536.002 69.3995 507.688 77.5825 509.531 81.0231C511.374 84.4637 532.196 84.5505 541.819 78.0343C541.819 78.0343 538.87 110.523 523.042 113.721C507.214 116.919 499.566 108.839 489.821 110.993C480.076 113.148 473.894 117.821 479.433 118.942C484.971 120.062 500.565 113.453 510.239 117.661C519.913 121.868 527.361 124.01 513.964 131.27C500.568 138.531 474.374 144.471 465.915 135.037C457.456 125.603 457.456 125.603 457.456 125.603Z" fill="#DFEBFD"/>
<path d="M527.177 46.8779C527.177 46.8779 457.81 95.1006 457.458 125.602C457.458 125.602 461.599 137.944 458.238 154.56L459.903 160.054C459.903 160.054 462.299 138.932 465.917 135.035C465.917 135.036 441.374 116.08 527.177 46.8779Z" fill="#DFEBFD"/>
<path d="M458.237 154.561C458.237 154.561 451.836 176.17 465.245 196.047L468.048 194.302C468.048 194.302 457.765 171.049 460.289 157.021C462.813 142.993 458.237 154.561 458.237 154.561Z" fill="#DFEBFD"/>
<path d="M205.259 113.731L174.441 349.743C173.42 357.568 179.512 364.508 187.404 364.508H232.614L207.124 112.879L205.259 113.731Z" fill="#78ACEA"/>
<path d="M205.259 113.729L191.463 348.235C190.943 357.062 197.962 364.506 206.804 364.506H274.231L205.259 113.729Z" fill="#699DEE"/>
<path d="M204.743 115.644L211.45 348.237C210.931 357.063 217.949 364.507 226.791 364.507H294.218L204.743 115.644Z" fill="#5288D8"/>
<path d="M527.57 364.507H261.709C255.071 364.507 249.381 359.763 248.187 353.233L207.732 132.001C205.896 121.956 213.61 112.703 223.821 112.703H486.552C493.19 112.703 498.88 117.446 500.074 123.976L541.091 348.288C542.635 356.73 536.151 364.507 527.57 364.507Z" fill="#D7E9FF"/>
<path d="M212.994 160.732H506.979L499.441 118.962C498.787 115.339 495.633 112.703 491.95 112.703H207.193C205.636 112.703 204.461 114.113 204.741 115.644L212.994 160.732Z" fill="#4698F9"/>
<path d="M219.867 100.139C212.838 100.139 207.121 105.853 207.121 112.882H209.569C209.569 107.203 214.188 102.585 219.867 102.585C225.545 102.585 230.167 107.203 230.167 112.882C230.167 114.022 229.982 115.118 229.637 116.142C228.626 119.168 226.246 121.572 223.234 122.614C222.354 122.919 221.423 123.111 220.454 123.164V125.613C221.585 125.562 222.674 125.365 223.71 125.035C227.844 123.727 231.074 120.359 232.191 116.142C232.466 115.1 232.613 114.007 232.613 112.882C232.612 105.853 226.895 100.139 219.867 100.139Z" fill="#78ACEA"/>
<path d="M223.81 124.297C223.81 124.551 223.774 124.8 223.711 125.033C223.388 126.201 222.319 127.057 221.05 127.057C219.527 127.057 218.291 125.82 218.291 124.297C218.291 122.773 219.527 121.537 221.05 121.537C221.939 121.537 222.73 121.959 223.236 122.612C223.598 123.078 223.81 123.662 223.81 124.297Z" fill="#78ACEA"/>
<path d="M265.562 100.139C258.533 100.139 252.816 105.853 252.816 112.882H255.262C255.262 107.203 259.883 102.585 265.562 102.585C271.24 102.585 275.859 107.203 275.859 112.882C275.859 114.022 275.673 115.118 275.329 116.142C274.317 119.168 271.938 121.572 268.929 122.614C268.049 122.919 267.115 123.111 266.145 123.164V125.613C267.277 125.562 268.367 125.365 269.402 125.035C273.539 123.727 276.769 120.359 277.885 116.142C278.161 115.1 278.307 114.007 278.307 112.882C278.308 105.853 272.59 100.139 265.562 100.139Z" fill="#78ACEA"/>
<path d="M269.501 124.297C269.501 124.551 269.465 124.8 269.403 125.033C269.079 126.201 268.013 127.057 266.741 127.057C265.218 127.057 263.981 125.82 263.981 124.297C263.981 122.773 265.218 121.537 266.741 121.537C267.633 121.537 268.424 121.959 268.929 122.612C269.289 123.078 269.501 123.662 269.501 124.297Z" fill="#78ACEA"/>
<path d="M311.262 100.139C304.233 100.139 298.516 105.853 298.516 112.882H300.961C300.961 107.203 305.58 102.585 311.262 102.585C316.94 102.585 321.559 107.203 321.559 112.882C321.559 114.022 321.373 115.118 321.029 116.142C320.017 119.168 317.638 121.572 314.629 122.614C313.749 122.919 312.815 123.111 311.845 123.164V125.613C312.974 125.562 314.066 125.365 315.102 125.035C319.239 123.724 322.466 120.359 323.582 116.142C323.858 115.1 324.004 114.007 324.004 112.882C324.005 105.853 318.287 100.139 311.262 100.139Z" fill="#78ACEA"/>
<path d="M315.201 124.297C315.201 124.551 315.165 124.8 315.102 125.033C314.779 126.201 313.71 127.057 312.441 127.057C310.917 127.057 309.681 125.82 309.681 124.297C309.681 122.773 310.917 121.537 312.441 121.537C313.33 121.537 314.12 121.959 314.629 122.612C314.988 123.078 315.201 123.662 315.201 124.297Z" fill="#78ACEA"/>
<path d="M356.954 100.139C349.925 100.139 344.211 105.853 344.211 112.882H346.656C346.656 107.203 351.275 102.585 356.954 102.585C362.632 102.585 367.254 107.203 367.254 112.882C367.254 114.022 367.068 115.118 366.724 116.142C365.712 119.168 363.332 121.572 360.321 122.614C359.441 122.919 358.51 123.111 357.54 123.164V125.613C358.669 125.562 359.762 125.365 360.797 125.035C364.934 123.724 368.161 120.359 369.278 116.142C369.553 115.1 369.7 114.007 369.7 112.882C369.7 105.853 363.982 100.139 356.954 100.139Z" fill="#78ACEA"/>
<path d="M360.896 124.297C360.896 124.551 360.86 124.8 360.797 125.033C360.474 126.201 359.405 127.057 358.136 127.057C356.612 127.057 355.376 125.82 355.376 124.297C355.376 122.773 356.612 121.537 358.136 121.537C359.025 121.537 359.815 121.959 360.321 122.612C360.683 123.078 360.896 123.662 360.896 124.297Z" fill="#78ACEA"/>
<path d="M402.654 100.139C395.625 100.139 389.908 105.853 389.908 112.882H392.354C392.354 107.203 396.975 102.585 402.654 102.585C408.332 102.585 412.951 107.203 412.951 112.882C412.951 114.022 412.766 115.118 412.421 116.142C411.409 119.168 409.03 121.572 406.018 122.614C405.141 122.919 404.207 123.111 403.237 123.164V125.613C404.369 125.562 405.459 125.365 406.494 125.035C410.631 123.727 413.861 120.359 414.978 116.142C415.253 115.1 415.4 114.007 415.4 112.882C415.4 105.853 409.683 100.139 402.654 100.139Z" fill="#78ACEA"/>
<path d="M406.593 124.297C406.593 124.551 406.557 124.8 406.494 125.033C406.171 126.201 405.105 127.057 403.833 127.057C402.31 127.057 401.073 125.82 401.073 124.297C401.073 122.773 402.31 121.537 403.833 121.537C404.725 121.537 405.516 121.959 406.019 122.612C406.381 123.078 406.593 123.662 406.593 124.297Z" fill="#78ACEA"/>
<path d="M448.352 100.139C441.323 100.139 435.605 105.853 435.605 112.882H438.051C438.051 107.203 442.67 102.585 448.351 102.585C454.03 102.585 458.649 107.203 458.649 112.882C458.649 114.022 458.463 115.118 458.119 116.142C457.107 119.168 454.727 121.572 451.716 122.614C450.839 122.919 449.905 123.111 448.935 123.164V125.613C450.066 125.562 451.156 125.365 452.192 125.035C456.326 123.727 459.556 120.359 460.672 116.142C460.948 115.1 461.094 114.007 461.094 112.882C461.094 105.853 455.377 100.139 448.352 100.139Z" fill="#78ACEA"/>
<path d="M452.29 124.297C452.29 124.551 452.254 124.8 452.192 125.033C451.868 126.201 450.8 127.057 449.531 127.057C448.007 127.057 446.771 125.82 446.771 124.297C446.771 122.773 448.007 121.537 449.531 121.537C450.42 121.537 451.21 121.959 451.716 122.612C452.078 123.078 452.29 123.662 452.29 124.297Z" fill="#78ACEA"/>
<path d="M494.046 100.139C487.017 100.139 481.303 105.853 481.303 112.882H483.748C483.748 107.203 488.367 102.585 494.046 102.585C499.724 102.585 504.346 107.203 504.346 112.882C504.346 114.022 504.161 115.118 503.816 116.142C502.805 119.168 500.425 121.572 497.413 122.614C496.533 122.919 495.602 123.111 494.633 123.164V125.613C495.764 125.562 496.854 125.365 497.889 125.035C502.023 123.727 505.253 120.359 506.37 116.142C506.645 115.1 506.792 114.007 506.792 112.882C506.792 105.853 501.075 100.139 494.046 100.139Z" fill="#78ACEA"/>
<path d="M497.988 124.297C497.988 124.551 497.952 124.8 497.889 125.033C497.566 126.201 496.497 127.057 495.228 127.057C493.704 127.057 492.468 125.82 492.468 124.297C492.468 122.773 493.704 121.537 495.228 121.537C496.117 121.537 496.907 121.959 497.413 122.612C497.775 123.078 497.988 123.662 497.988 124.297Z" fill="#78ACEA"/>
<path d="M383.002 239.201H368.141C366.423 239.201 364.746 237.795 364.415 236.077L361.548 221.216C361.216 219.498 362.351 218.092 364.069 218.092H378.93C380.648 218.092 382.325 219.498 382.656 221.216L385.523 236.077C385.855 237.795 384.72 239.201 383.002 239.201Z" fill="#AFCDFB"/>
<path d="M420.504 239.201H405.642C403.924 239.201 402.248 237.795 401.916 236.077L399.049 221.216C398.718 219.498 399.853 218.092 401.57 218.092H416.432C418.15 218.092 419.826 219.498 420.158 221.216L423.025 236.077C423.356 237.795 422.222 239.201 420.504 239.201Z" fill="#AFCDFB"/>
<path d="M458.005 239.201H443.144C441.425 239.201 439.749 237.795 439.417 236.077L436.55 221.216C436.219 219.498 437.354 218.092 439.071 218.092H453.933C455.651 218.092 457.327 219.498 457.659 221.216L460.526 236.077C460.857 237.795 459.723 239.201 458.005 239.201Z" fill="#78ACEA"/>
<path d="M270.498 239.201H255.637C253.919 239.201 252.242 237.795 251.91 236.077L249.044 221.216C248.712 219.498 249.847 218.092 251.565 218.092H266.426C268.144 218.092 269.821 219.498 270.152 221.216L273.019 236.077C273.351 237.795 272.216 239.201 270.498 239.201Z" fill="#AFCDFB"/>
<path d="M254.211 194.582H247.825C247.087 194.582 246.366 193.979 246.224 193.24L244.992 186.854C244.849 186.115 245.337 185.511 246.075 185.511H252.461C253.2 185.511 253.92 186.115 254.063 186.854L255.295 193.24C255.437 193.979 254.95 194.582 254.211 194.582Z" fill="#4698F9"/>
<path d="M307.999 239.201H293.138C291.42 239.201 289.743 237.795 289.412 236.077L286.545 221.216C286.214 219.498 287.348 218.092 289.066 218.092H303.927C305.645 218.092 307.322 219.498 307.654 221.216L310.52 236.077C310.852 237.795 309.717 239.201 307.999 239.201Z" fill="#AFCDFB"/>
<path d="M345.503 239.201H330.642C328.924 239.201 327.247 237.795 326.915 236.077L324.049 221.216C323.717 219.498 324.852 218.092 326.57 218.092H341.431C343.149 218.092 344.826 219.498 345.157 221.216L348.024 236.077C348.355 237.795 347.221 239.201 345.503 239.201Z" fill="#AFCDFB"/>
<path d="M495.506 239.201H480.645C478.927 239.201 477.25 237.795 476.919 236.077L474.052 221.216C473.72 219.498 474.855 218.092 476.573 218.092H491.434C493.152 218.092 494.829 219.498 495.16 221.216L498.027 236.077C498.359 237.795 497.224 239.201 495.506 239.201Z" fill="#78ACEA"/>
<path d="M376.777 206.921H361.915C360.198 206.921 358.521 205.515 358.189 203.797L355.322 188.936C354.991 187.218 356.126 185.812 357.843 185.812H372.705C374.423 185.812 376.1 187.218 376.431 188.936L379.298 203.797C379.629 205.515 378.495 206.921 376.777 206.921Z" fill="#AFCDFB"/>
<path d="M414.278 206.921H399.417C397.699 206.921 396.022 205.515 395.691 203.797L392.824 188.936C392.492 187.218 393.627 185.812 395.345 185.812H410.206C411.924 185.812 413.601 187.218 413.932 188.936L416.799 203.797C417.131 205.515 415.996 206.921 414.278 206.921Z" fill="#AFCDFB"/>
<path d="M451.78 206.921H436.918C435.2 206.921 433.524 205.515 433.192 203.797L430.325 188.936C429.993 187.218 431.128 185.812 432.846 185.812H447.707C449.425 185.812 451.102 187.218 451.434 188.936L454.3 203.797C454.632 205.515 453.497 206.921 451.78 206.921Z" fill="#78ACEA"/>
<path d="M489.281 206.921H474.42C472.702 206.921 471.025 205.515 470.693 203.797L467.827 188.936C467.495 187.218 468.63 185.812 470.348 185.812H485.209C486.927 185.812 488.604 187.218 488.935 188.936L491.802 203.797C492.134 205.515 490.999 206.921 489.281 206.921Z" fill="#78ACEA"/>
<path d="M389.602 273.41H374.741C373.023 273.41 371.346 272.005 371.015 270.287L368.148 255.425C367.816 253.707 368.951 252.302 370.669 252.302H385.53C387.248 252.302 388.925 253.707 389.256 255.425L392.123 270.287C392.455 272.005 391.32 273.41 389.602 273.41Z" fill="#AFCDFB"/>
<path d="M427.104 273.41H412.242C410.524 273.41 408.848 272.005 408.516 270.287L405.649 255.425C405.318 253.707 406.453 252.302 408.171 252.302H423.032C424.75 252.302 426.427 253.707 426.758 255.425L429.625 270.287C429.956 272.005 428.822 273.41 427.104 273.41Z" fill="#AFCDFB"/>
<path d="M464.603 273.41H449.742C448.024 273.41 446.347 272.005 446.015 270.287L443.149 255.425C442.817 253.707 443.952 252.302 445.67 252.302H460.531C462.249 252.302 463.926 253.707 464.257 255.425L467.124 270.287C467.456 272.005 466.321 273.41 464.603 273.41Z" fill="#78ACEA"/>
<path d="M277.1 273.41H262.239C260.521 273.41 258.844 272.005 258.513 270.287L255.646 255.425C255.314 253.707 256.449 252.302 258.167 252.302H273.028C274.746 252.302 276.423 253.707 276.755 255.425L279.621 270.287C279.953 272.005 278.818 273.41 277.1 273.41Z" fill="#AFCDFB"/>
<path d="M314.6 273.41H299.738C298.02 273.41 296.344 272.005 296.012 270.287L293.145 255.425C292.814 253.707 293.948 252.302 295.666 252.302H310.528C312.246 252.302 313.922 253.707 314.254 255.425L317.12 270.287C317.452 272.005 316.318 273.41 314.6 273.41Z" fill="#AFCDFB"/>
<path d="M352.103 273.41H337.242C335.523 273.41 333.847 272.005 333.515 270.287L330.649 255.425C330.317 253.707 331.452 252.302 333.17 252.302H348.031C349.749 252.302 351.426 253.707 351.757 255.425L354.624 270.287C354.956 272.005 353.821 273.41 352.103 273.41Z" fill="#AFCDFB"/>
<path d="M502.104 273.41H487.243C485.525 273.41 483.848 272.005 483.517 270.287L480.65 255.425C480.319 253.707 481.453 252.302 483.171 252.302H498.033C499.751 252.302 501.427 253.707 501.759 255.425L504.625 270.287C504.957 272.005 503.822 273.41 502.104 273.41Z" fill="#78ACEA"/>
<path d="M396.2 307.622H381.339C379.621 307.622 377.944 306.216 377.613 304.498L374.746 289.637C374.415 287.919 375.549 286.513 377.267 286.513H392.129C393.846 286.513 395.523 287.919 395.855 289.637L398.722 304.498C399.053 306.216 397.919 307.622 396.2 307.622Z" fill="#AFCDFB"/>
<path d="M433.704 307.622H418.842C417.124 307.622 415.448 306.216 415.116 304.498L412.249 289.637C411.918 287.919 413.052 286.513 414.77 286.513H429.632C431.35 286.513 433.026 287.919 433.358 289.637L436.225 304.498C436.556 306.216 435.422 307.622 433.704 307.622Z" fill="#AFCDFB"/>
<path d="M471.203 307.622H456.342C454.624 307.622 452.947 306.216 452.616 304.498L449.749 289.637C449.417 287.919 450.552 286.513 452.27 286.513H467.131C468.849 286.513 470.526 287.919 470.857 289.637L473.724 304.498C474.056 306.216 472.921 307.622 471.203 307.622Z" fill="#78ACEA"/>
<path d="M283.696 307.622H268.835C267.117 307.622 265.44 306.216 265.109 304.498L262.242 289.637C261.91 287.919 263.045 286.513 264.763 286.513H279.624C281.342 286.513 283.019 287.919 283.35 289.637L286.217 304.498C286.549 306.216 285.414 307.622 283.696 307.622Z" fill="#AFCDFB"/>
<path d="M321.199 307.622H306.338C304.62 307.622 302.943 306.216 302.612 304.498L299.745 289.637C299.414 287.919 300.548 286.513 302.266 286.513H317.128C318.845 286.513 320.522 287.919 320.854 289.637L323.721 304.498C324.052 306.216 322.917 307.622 321.199 307.622Z" fill="#4698F9"/>
<path d="M358.701 307.622H343.84C342.122 307.622 340.445 306.216 340.114 304.498L337.247 289.637C336.915 287.919 338.05 286.513 339.768 286.513H354.629C356.347 286.513 358.024 287.919 358.355 289.637L361.222 304.498C361.554 306.216 360.419 307.622 358.701 307.622Z" fill="#AFCDFB"/>
<path d="M508.705 307.622H493.843C492.125 307.622 490.449 306.216 490.117 304.498L487.25 289.637C486.919 287.919 488.053 286.513 489.771 286.513H504.633C506.351 286.513 508.027 287.919 508.359 289.637L511.226 304.498C511.557 306.216 510.423 307.622 508.705 307.622Z" fill="#78ACEA"/>
<path d="M402.428 339.897H387.567C385.848 339.897 384.172 338.492 383.84 336.774L380.974 321.912C380.642 320.194 381.777 318.789 383.495 318.789H398.356C400.074 318.789 401.751 320.194 402.082 321.912L404.949 336.774C405.28 338.492 404.146 339.897 402.428 339.897Z" fill="#AFCDFB"/>
<path d="M439.929 339.897H425.068C423.35 339.897 421.673 338.492 421.342 336.774L418.475 321.912C418.143 320.194 419.278 318.789 420.996 318.789H435.857C437.575 318.789 439.252 320.194 439.583 321.912L442.45 336.774C442.782 338.492 441.647 339.897 439.929 339.897Z" fill="#AFCDFB"/>
<path d="M477.431 339.897H462.569C460.851 339.897 459.175 338.492 458.843 336.774L455.976 321.912C455.645 320.194 456.779 318.789 458.497 318.789H473.358C475.077 318.789 476.753 320.194 477.085 321.912L479.951 336.774C480.283 338.492 479.148 339.897 477.431 339.897Z" fill="#78ACEA"/>
<path d="M289.924 339.897H275.062C273.344 339.897 271.668 338.492 271.336 336.774L268.469 321.912C268.138 320.194 269.273 318.789 270.99 318.789H285.852C287.57 318.789 289.246 320.194 289.578 321.912L292.445 336.774C292.776 338.492 291.642 339.897 289.924 339.897Z" fill="#AFCDFB"/>
<path d="M327.425 339.897H312.564C310.846 339.897 309.169 338.492 308.837 336.774L305.971 321.912C305.639 320.194 306.774 318.789 308.492 318.789H323.353C325.071 318.789 326.748 320.194 327.079 321.912L329.946 336.774C330.277 338.492 329.143 339.897 327.425 339.897Z" fill="#AFCDFB"/>
<path d="M364.927 339.897H350.065C348.347 339.897 346.67 338.492 346.339 336.774L343.472 321.912C343.141 320.194 344.275 318.789 345.993 318.789H360.855C362.573 318.789 364.249 320.194 364.581 321.912L367.448 336.774C367.779 338.492 366.644 339.897 364.927 339.897Z" fill="#AFCDFB"/>
<path d="M299.256 188.719H259.884C259.304 188.719 258.829 188.244 258.829 187.664C258.829 187.084 259.304 186.609 259.884 186.609H299.256C299.836 186.609 300.311 187.084 300.311 187.664C300.311 188.244 299.836 188.719 299.256 188.719Z" fill="#AFCDFB"/>
<path d="M300.452 193.486H261.08C260.5 193.486 260.025 193.011 260.025 192.431C260.025 191.851 260.5 191.376 261.08 191.376H300.452C301.032 191.376 301.507 191.851 301.507 192.431C301.507 193.011 301.032 193.486 300.452 193.486Z" fill="#AFCDFB"/>
<path d="M257.031 153.213H243.521C242.414 153.213 241.508 152.307 241.508 151.201C241.508 150.094 242.414 149.188 243.521 149.188H257.031C258.138 149.188 259.043 150.094 259.043 151.201C259.043 152.307 258.138 153.213 257.031 153.213Z" fill="white"/>
<path d="M294.103 153.213H280.592C279.485 153.213 278.58 152.307 278.58 151.201C278.58 150.094 279.485 149.188 280.592 149.188H294.103C295.209 149.188 296.115 150.094 296.115 151.201C296.115 152.307 295.209 153.213 294.103 153.213Z" fill="white"/>
<path d="M331.178 153.213H317.667C316.56 153.213 315.655 152.307 315.655 151.201C315.655 150.094 316.56 149.188 317.667 149.188H331.178C332.284 149.188 333.19 150.094 333.19 151.201C333.19 152.307 332.284 153.213 331.178 153.213Z" fill="white"/>
<path d="M368.247 153.213H354.736C353.629 153.213 352.724 152.307 352.724 151.201C352.724 150.094 353.629 149.188 354.736 149.188H368.247C369.354 149.188 370.259 150.094 370.259 151.201C370.259 152.307 369.353 153.213 368.247 153.213Z" fill="white"/>
<path d="M405.322 153.213H391.811C390.705 153.213 389.799 152.307 389.799 151.201C389.799 150.094 390.705 149.188 391.811 149.188H405.322C406.429 149.188 407.334 150.094 407.334 151.201C407.334 152.307 406.429 153.213 405.322 153.213Z" fill="white"/>
<path d="M442.393 153.213H428.883C427.776 153.213 426.87 152.307 426.87 151.201C426.87 150.094 427.776 149.188 428.883 149.188H442.393C443.5 149.188 444.406 150.094 444.406 151.201C444.406 152.307 443.5 153.213 442.393 153.213Z" fill="white"/>
<path d="M479.467 153.213H465.956C464.849 153.213 463.944 152.307 463.944 151.201C463.944 150.094 464.849 149.188 465.956 149.188H479.467C480.573 149.188 481.479 150.094 481.479 151.201C481.479 152.307 480.573 153.213 479.467 153.213Z" fill="white"/>
<path d="M394.017 207.218C391.034 207.218 388.861 206.271 387.677 204.433C385.407 200.909 387.159 195.969 392.886 189.75C397.069 185.209 401.953 181.61 402.002 181.574C402.194 181.433 402.464 181.475 402.605 181.667C402.746 181.858 402.704 182.129 402.512 182.269C402.322 182.409 383.494 196.349 388.402 203.966C389.957 206.379 393.285 206.539 395.806 206.247C400.47 205.708 406.553 203.196 412.075 199.528C417.792 195.731 421.818 191.452 423.123 187.788C423.979 185.384 423.715 183.681 422.335 182.727C420.555 181.494 416.834 181.494 412.383 182.724C408.12 183.902 403.83 186.024 401.185 188.262C401.004 188.415 400.732 188.392 400.578 188.211C400.424 188.029 400.447 187.757 400.628 187.603C403.361 185.291 407.778 183.103 412.153 181.893C416.918 180.576 420.808 180.621 422.826 182.018C424.022 182.846 425.185 184.569 423.935 188.077C422.569 191.913 418.42 196.349 412.553 200.246C406.921 203.986 400.698 206.55 395.905 207.104C395.244 207.18 394.615 207.218 394.017 207.218Z" fill="black"/>
<path d="M472.024 182.717L470.49 179.823C470.49 179.823 471.251 174.667 464.791 171.406C464.791 171.406 462.43 170.444 461.097 172.37C459.869 174.144 463.437 173.823 463.245 176.858C463.054 179.892 464.494 181.673 466.499 182.661L468.156 184.581L472.024 182.717Z" fill="#FFB27D"/>
<path d="M533.08 175.8C533.08 175.8 527.531 203.031 497 211.929C487.469 214.706 465.817 183.328 465.817 183.328C465.817 183.328 466.578 180.436 471.347 181.1C471.347 181.1 492.429 195.057 495.083 196.573C497.438 197.919 512.927 179.279 519.987 176.272C527.048 173.266 533.08 175.8 533.08 175.8Z" fill="#233862"/>
<path d="M443.82 175.302L445.044 181.909L478.277 175.755L477.054 169.148L443.82 175.302Z" fill="black"/>
<path d="M436.69 180.045L445.028 181.918L443.805 175.311L436.69 180.045Z" fill="#FFB27D"/>
<path d="M481.306 170.633L481.693 172.721C481.931 174.006 481.082 175.24 479.797 175.478L478.26 175.763L477.037 169.157L478.708 168.847C479.919 168.623 481.082 169.422 481.306 170.633Z" fill="#FFB27D"/>
<path d="M569.532 346.987C569.532 346.987 573.319 350.444 572.58 352.9C571.841 355.355 568.423 356.993 567.962 359.995C567.5 362.997 565.652 364.634 563.989 364.634C562.326 364.634 556.062 364.634 556.062 364.634C556.062 364.634 554.837 362.522 557.794 361.885C560.75 361.248 561.864 357.721 561.68 354.446C561.495 351.171 561.957 346.805 561.957 346.805L568.239 345.35L569.532 346.987Z" fill="#233862"/>
<path d="M523.064 355.926C523.064 355.926 523.744 363.793 522.081 364.612L500.801 364.568C500.801 364.568 500.801 362.112 504.219 361.566C507.637 361.02 513.641 359.019 514.658 354.562C515.674 350.105 523.064 355.926 523.064 355.926Z" fill="#233862"/>
<path d="M505.098 244.806C505.098 244.806 506.22 258.595 507.54 275.171C509.333 297.687 511.489 325.344 511.703 330.584C512.071 339.682 513.551 354.236 513.551 354.236C513.551 354.236 517.06 357.693 524.083 356.236C524.083 356.236 530.341 335.46 532.128 313.479C532.156 313.119 532.184 312.756 532.211 312.393C533.874 290.016 536.46 242.895 536.46 242.895L505.098 244.806Z" fill="#4698F9"/>
<path d="M505.098 244.806C505.098 244.806 506.22 258.595 507.54 275.171L532.128 313.479C532.156 313.119 532.184 312.756 532.211 312.393C533.874 290.016 536.46 242.895 536.46 242.895L505.098 244.806Z" fill="#2BA7ED"/>
<path d="M510.223 246.441C510.223 246.441 530.455 296.381 543.758 319.849C557.061 343.318 561.218 349.868 561.218 349.868C561.218 349.868 568.839 346.866 569.532 344.819C569.532 344.819 564.445 299.511 555.537 288.467C550.503 282.226 544.589 263.497 544.312 256.948C544.035 250.398 542.511 237.436 542.511 237.436L510.223 246.441Z" fill="#4698F9"/>
<path d="M536.842 169.48C536.842 169.48 523.152 176.085 515.261 173.634C515.261 173.634 517.203 171.184 520.603 169.36C520.33 167.776 520.117 166.401 519.996 165.236C519.662 162.546 519.662 161.022 519.662 161.022L524.944 156.868L529.952 152.893C529.557 164.07 536.842 169.48 536.842 169.48Z" fill="#FFB27D"/>
<path d="M504.233 245.942C504.475 246.152 504.749 246.27 505.055 246.27C508.028 246.209 516.678 247.852 523.991 247.106C530.184 246.508 535.647 244.716 541.505 242.147C542.295 241.788 544.088 240.831 544.056 239.995C544.024 239.039 543.935 237.694 543.814 235.958C543.568 232.544 543.223 227.696 543.113 221.948C543.031 217.686 543.077 212.931 543.387 207.895C543.405 207.557 543.423 207.215 543.437 206.874C543.526 205.028 543.568 203.167 543.568 201.35C543.6 195.492 543.177 189.904 542.327 184.914C540.837 176.245 538.044 169.462 533.919 166.443C533.371 166.023 529.97 167.666 526.815 169.192C523.931 170.597 521.05 170.746 518.318 170.209L515.586 172.599C512.275 175.616 508.633 179.77 507.025 186.048C505.691 191.369 504.902 200.99 504.475 210.974C504.265 215.516 504.112 220.059 504.052 224.391V224.54C504.02 224.988 504.02 225.44 504.02 225.888C503.87 236.975 504.02 245.793 504.233 245.942Z" fill="#2B478B"/>
<path d="M530.041 157.168C530.041 157.168 526.581 163.474 519.994 165.237C519.661 162.547 519.661 161.023 519.661 161.023L524.942 156.869L530.041 157.168Z" fill="#ED985F"/>
<path d="M517.254 160.842C517.254 160.842 530.312 162.979 531.538 154.951C532.764 146.923 535.275 141.792 526.989 140.088C518.703 138.385 516.612 141.208 515.541 143.79C514.47 146.371 513.888 160.08 517.254 160.842Z" fill="#FFB27D"/>
<path d="M536.283 139.125C536.402 138.989 536.675 138.879 537.283 138.846C537.283 138.846 536.797 138.542 536.147 138.526C536.02 137.679 535.569 136.182 534.113 135.818C534.113 135.818 534.895 136.235 534.998 137.135C533.311 135.402 529.697 134.141 519.689 134.931C506.499 135.972 510.846 144.417 512.554 145.424C514.261 146.431 518.559 143.671 521.741 143.923C524.922 144.176 525.527 148.773 526.607 149.403C527.686 150.034 527.262 148.919 528.722 148.259C530.182 147.599 530.321 150.018 529.899 151.592C529.477 153.165 531.484 155.24 531.484 155.24C531.484 155.24 531.484 155.24 533.511 153.057C535.538 150.873 537.45 141.624 536.528 139.652C536.447 139.478 536.366 139.302 536.283 139.125Z" fill="#2C3A64"/>
<path d="M470.464 179.688C470.464 179.688 470.914 177.913 469.683 177.115C468.451 176.317 467.319 174.148 466.8 174.441C465.725 175.05 467.388 176.943 467.084 179.305C466.977 180.132 468.902 182.298 470.464 179.688Z" fill="#FFB27D"/>
<path d="M543.11 221.948C543.028 217.687 543.075 212.931 543.384 207.895C543.402 207.557 543.42 207.215 543.434 206.874C542.193 200.724 540.314 195.267 537.551 195.09C537.551 195.09 529.317 208.029 543.11 221.948Z" fill="#233862"/>
<path d="M554.005 244.262C554.005 244.262 553.319 250.934 552.566 252.196C551.813 253.459 548.606 257.492 547.24 258.283C545.874 259.075 548.074 252.969 547.796 251.781C547.518 250.593 546.672 253.949 546.07 254.028C545.468 254.107 545.623 251.086 545.601 249.987C545.58 248.887 548.53 246.173 549.571 243.833C550.611 241.492 554.005 244.262 554.005 244.262Z" fill="#FFB27D"/>
<path d="M533.912 166.376C533.912 166.376 542.175 170.289 546.136 176.304C552.281 185.634 559.404 219.637 559.536 222.786C559.667 225.935 554.337 248.165 554.337 248.165C554.337 248.165 548.93 247.809 547.536 245.08C547.536 245.08 548.616 222.239 547.932 220.771C547.247 219.303 525.393 190.132 527.851 183.908C530.308 177.683 533.912 166.376 533.912 166.376Z" fill="#2B478B"/>
<path d="M440.962 177.204L441.397 181.104L436.689 180.047L440.962 177.204Z" fill="black"/>
<path d="M619.756 364.507H595.945C594.669 363.424 596.828 360.966 599.084 360.801C600.063 360.727 601.302 360.932 602.718 361.231C603.046 356.879 604.917 337.314 611.969 338.101C619.898 338.981 611.969 346.716 609.727 351.296C608.067 354.689 606.315 359.553 605.515 361.849C606.158 361.989 606.825 362.125 607.506 362.251C608.557 359.023 612.467 348.169 617.44 348.801C623.279 349.542 620.932 353.894 616.794 356.477C613.758 358.377 610.029 361.077 608.258 362.382C609.759 362.627 611.325 362.792 612.915 362.755C616.993 362.658 618.984 363.86 619.756 364.507Z" fill="#789AB3"/>
<path d="M76.2039 363.376C74.942 361.394 71.1445 356.249 66.0861 356.93C60.575 357.672 72.1727 361.306 75.7235 363.392C74.9349 363.403 74.257 363.339 73.759 363.162C71.3852 362.316 67.3196 363.939 66.02 364.508H88.619C88.4627 363.967 88.0557 363.085 87.003 362.441C86.632 362.214 85.8862 362.183 84.9232 362.256C86.2669 360.672 87.2 355.612 83.4594 356.914C80.7265 357.865 80.7339 360.957 81.0021 362.786C80.4208 362.878 79.8312 362.969 79.2485 363.053C78.1235 357.319 74.1437 340.513 66.0777 340.065C57.9004 339.611 73.0119 357.494 78.0433 363.214C77.3995 363.291 76.7787 363.35 76.2039 363.376Z" fill="#789AB3"/>
</svg>
