<svg width="1443" height="161" viewBox="0 0 1443 161" fill="none" xmlns="http://www.w3.org/2000/svg">
<path d="M250.474 90.4233H245.89V95.6101H250.474V90.4233Z" fill="#263238" stroke="#263238" stroke-width="1.05637"/>
<path d="M252.281 88.4268H243.503V91.617H252.281V88.4268Z" fill="#263238" stroke="#263238" stroke-width="1.05637"/>
<path d="M257.859 94.0132H238.115V146.652H257.859V94.0132Z" fill="white" stroke="#263238" stroke-width="1.05637"/>
<path d="M245.798 114.741C248.604 114.741 250.879 112.466 250.879 109.66C250.879 106.854 248.604 104.579 245.798 104.579C242.992 104.579 240.717 106.854 240.717 109.66C240.717 112.466 242.992 114.741 245.798 114.741Z" fill="#263238" stroke="#263238" stroke-width="1.05637"/>
<path d="M287.258 160.058L278.205 148.692H252.081L243.102 160.058H287.258Z" fill="white" stroke="#263238" stroke-width="1.05637"/>
<path d="M248.086 145.458H290.161C290.161 147.327 288.64 148.848 286.77 148.848H251.477C249.607 148.848 248.086 147.327 248.086 145.458Z" fill="white" stroke="#263238" stroke-width="1.05637"/>
<path d="M273.177 76.0879L265.247 81.2554L266.279 82.8396L274.209 77.6721L273.177 76.0879Z" fill="white" stroke="#263238" stroke-width="1.05637"/>
<path d="M277.675 70.6556L270.276 75.4771L273.373 80.2297L280.772 75.4083L277.675 70.6556Z" fill="#263238" stroke="#263238" stroke-width="1.05637"/>
<path d="M248.891 63.4956H247.095V69.2739H248.891V63.4956Z" fill="#263238" stroke="#263238" stroke-width="1.05637"/>
<path d="M249.683 68.8833H246.092V80.2498H249.683V68.8833Z" fill="white" stroke="#263238" stroke-width="1.05637"/>
<path d="M252.081 79.0557H243.704V85.6368H252.081V79.0557Z" fill="white" stroke="#263238" stroke-width="1.05637"/>
<path d="M265.613 75.9092L256.074 83.9693L234.894 85.839L235.38 91.2793L260.934 89.0293L269.564 82.5854L265.613 75.9092Z" fill="white" stroke="#263238" stroke-width="1.05637"/>
<path d="M276.109 58.8925C276.109 58.8925 275.919 65.3363 277.281 67.8716C278.644 70.4069 280.989 71.3893 281.19 73.5337C281.391 75.6782 280.408 78.6043 281.771 79.386C283.134 80.1677 292.895 89.9286 296.021 89.7279C299.148 89.5272 302.465 85.0482 302.465 85.0482L309.49 89.5377L318.86 70.2167L312.617 64.5546C312.617 64.5546 310.082 49.3323 306.564 45.0329C303.046 40.7335 289.968 39.5715 283.334 42.6878C276.7 45.8041 274.355 52.8395 272.792 54.2022C271.228 55.5649 267.911 56.9382 269.665 59.4735C271.419 62.0088 276.098 58.8925 276.098 58.8925H276.109Z" fill="white" stroke="#263238" stroke-width="1.05637"/>
<path d="M310.853 68.4633C311.804 67.4281 312.522 66.2027 312.955 64.8717L312.617 64.5653C312.617 64.5653 310.082 49.3431 306.564 45.0436C303.046 40.7442 289.968 39.5822 283.334 42.6985C276.7 45.8148 274.355 52.8502 272.792 54.2129C271.228 55.5756 267.911 56.9489 269.665 59.4842C271.302 61.8505 275.486 59.2941 276.045 58.9455L276.109 58.9032C277.915 58.3328 279.679 57.6144 281.38 56.7588C282.954 55.8397 284.465 54.7939 285.87 53.6319C285.87 53.6319 281.771 60.4666 283.334 62.6111C284.898 64.7555 289.578 63.7836 289.578 63.7836C289.578 63.7836 292.704 67.8823 294.648 66.9105C296.592 65.9386 293.866 62.2308 296.793 60.8575C299.719 59.4842 302.064 65.3471 302.064 66.3189C302.064 67.2908 309.089 69.8366 310.853 68.4633Z" fill="#263238" stroke="#263238" stroke-width="1.05637"/>
<path d="M312.986 64.8926L299.338 80.7593C297.309 80.4846 295.376 79.7452 293.676 78.6148C291.33 76.8613 289.376 72.5618 289.376 72.5618C289.376 72.5618 299.327 61.6284 304.408 58.5121C308.834 55.7867 310.292 55.2902 310.588 55.2057C310.419 54.5402 310.229 53.8747 310.039 53.2197C306.743 54.8465 303.669 56.8853 300.891 59.2938C295.45 63.7095 283.936 75.245 281.062 78.1395C281.084 78.6465 281.337 79.1113 281.76 79.3965C283.122 80.1783 292.883 89.9391 296.01 89.7384C296.654 89.675 297.278 89.4954 297.848 89.1891C298.429 86.5693 299.243 84.0023 300.299 81.541C301.313 79.6818 311.338 68.8223 314.053 65.8856L312.965 64.8926H312.986Z" fill="#1C53A1" stroke="#263238" stroke-width="1.05637" stroke-linecap="round" stroke-linejoin="round"/>
<path d="M295.63 67.48C295.63 67.48 293.876 61.2369 296.211 60.0643C298.545 58.8918 301.482 61.427 301.873 64.163C302 66.2229 301.672 68.2934 300.901 70.216C301.715 71.9802 301.989 73.9556 301.683 75.8782" fill="white"/>
<path d="M295.63 67.48C295.63 67.48 293.876 61.2369 296.211 60.0643C298.545 58.8918 301.482 61.427 301.873 64.163C302 66.2229 301.672 68.2934 300.901 70.216C301.715 71.9802 301.989 73.9556 301.683 75.8782" stroke="#263238" stroke-width="1.05637"/>
<path d="M285.586 72.3306C285.977 73.0806 285.977 73.8623 285.586 74.063C285.195 74.2637 284.561 73.82 284.17 73.0595C283.779 72.2989 283.779 71.5277 284.17 71.327C284.561 71.1263 285.195 71.57 285.586 72.3306Z" fill="#263238"/>
<path d="M280.534 68.6954C280.534 68.6954 280.756 65.97 284.062 66.5404" stroke="#263238" stroke-width="1.05637"/>
<path d="M318.487 67.9349L303.73 91.4602L309.508 95.6434L323.072 70.1216L318.487 67.9243V67.9349Z" fill="white" stroke="#263238" stroke-width="1.05637"/>
<path d="M322.07 70.5234C322.07 70.5234 310.704 90.267 308.506 94.6509C306.309 99.0348 299.929 109.81 299.538 116.19C299.147 122.571 297.15 160.061 297.15 160.061H343.018C343.018 160.061 346.409 131.55 346.208 120.574C346.007 109.599 343.219 93.4572 334.842 82.4921C326.465 71.527 322.081 70.5234 322.081 70.5234H322.07Z" fill="white" stroke="#263238" stroke-width="1.05637"/>
<path d="M326.063 73.5132C326.063 73.5132 319.281 86.2741 314.696 93.6581C310.111 101.042 304.132 109.018 302.537 113.602C301.692 115.705 301.153 117.923 300.942 120.184" stroke="#263238" stroke-width="1.05637"/>
<path d="M267.235 123.765L261.848 119.783C261.848 119.783 259.26 113.201 257.664 111.406C256.069 109.61 253.872 110.011 252.478 108.416C251.083 106.821 249.488 103.229 248.685 102.828C247.882 102.426 246.097 103.43 246.097 105.025C246.097 106.62 247.893 109.208 247.893 109.81V110.413C247.893 110.413 241.111 108.416 240.319 109.018C239.527 109.62 238.724 111.606 239.326 112.61C239.928 113.613 241.122 114.004 241.122 114.807C241.122 115.61 239.727 118.198 240.52 119.191C241.079 119.846 241.756 120.385 242.516 120.786C242.516 120.786 242.516 124.578 243.71 126.174C244.903 127.769 254.083 128.962 256.872 129.364C259.661 129.765 267.837 133.748 267.837 133.748L267.246 123.776L267.235 123.765Z" fill="#1C53A1" stroke="#263238" stroke-width="1.05637" stroke-linecap="round" stroke-linejoin="round"/>
<path d="M320.084 89.4658C314.327 92.7723 310.091 98.2126 308.316 104.614C305.126 115.579 303.13 126.946 303.13 126.946C303.13 126.946 301.133 126.544 301.133 127.749C301.154 128.351 301.091 128.963 300.932 129.544L266.231 122.963L265.438 139.316C265.438 139.316 310.503 147.693 312.901 147.693C315.299 147.693 317.887 146.89 318.679 144.904C319.472 142.918 332.433 113.794 332.433 113.794" fill="white"/>
<path d="M320.084 89.4658C314.327 92.7723 310.091 98.2126 308.316 104.614C305.126 115.579 303.13 126.946 303.13 126.946C303.13 126.946 301.133 126.544 301.133 127.749C301.154 128.351 301.091 128.963 300.932 129.544L266.231 122.963L265.438 139.316C265.438 139.316 310.503 147.693 312.901 147.693C315.299 147.693 317.887 146.89 318.679 144.904C319.472 142.918 332.433 113.794 332.433 113.794" stroke="#263238" stroke-width="1.05637"/>
<path d="M324.068 98.6455C324.068 98.6455 330.85 102.438 332.044 107.614" stroke="#263238" stroke-width="1.05637"/>
<path d="M319.281 104.423C319.883 104.423 330.045 105.226 332.242 111.005" stroke="#263238" stroke-width="1.05637"/>
<path d="M328.651 122.171C328.651 122.171 336.426 118.579 338.824 110.804" stroke="#263238" stroke-width="1.05637"/>
<path d="M302.727 129.758C302.727 129.758 306.71 137.131 306.52 142.318" stroke="#263238" stroke-width="1.05637"/>
<path d="M305.128 128.552C305.128 128.552 309.11 129.355 311.91 134.732" stroke="#263238" stroke-width="1.05637"/>
<path d="M358.747 120.973H351.564C350.18 121.026 348.997 122.008 348.691 123.371L341.275 160.059H353.244L360.659 123.371C360.934 122.357 360.332 121.311 359.318 121.047C359.138 120.994 358.948 120.973 358.758 120.984L358.747 120.973Z" fill="#263238" stroke="#263238" stroke-width="1.05637"/>
<path d="M138.735 133.988H143.563V156.404C143.563 157.735 142.485 158.812 141.154 158.812C139.823 158.812 138.746 157.735 138.746 156.404V133.988H138.735Z" fill="white" stroke="#263238" stroke-width="1.05637" stroke-linecap="round" stroke-linejoin="round"/>
<path d="M138.732 143.146V156.403C138.732 157.734 139.81 158.812 141.141 158.812C142.472 158.812 143.55 157.734 143.55 156.403V143.146H138.722H138.732Z" fill="#1C53A1" stroke="#263238" stroke-width="1.05637" stroke-linecap="round" stroke-linejoin="round"/>
<path d="M144.405 133.282H137.876V137.824H144.405V133.282Z" fill="white" stroke="#263238" stroke-width="1.05637" stroke-linecap="round" stroke-linejoin="round"/>
<path d="M150.527 158.814C149.196 158.814 148.118 157.736 148.118 156.405V134H152.946V156.405C152.946 157.736 151.869 158.814 150.537 158.814H150.527Z" fill="white" stroke="#263238" stroke-width="1.05637" stroke-linecap="round" stroke-linejoin="round"/>
<path d="M148.116 143.147V156.404C148.116 157.735 149.193 158.813 150.524 158.813C151.855 158.813 152.933 157.735 152.933 156.404V143.147H148.105H148.116Z" fill="#1C53A1" stroke="#263238" stroke-width="1.05637" stroke-linecap="round" stroke-linejoin="round"/>
<path d="M153.787 133.282H147.258V137.825H153.787V133.282Z" fill="white" stroke="#263238" stroke-width="1.05637" stroke-linecap="round" stroke-linejoin="round"/>
<path d="M159.907 158.814C158.576 158.814 157.499 157.736 157.499 156.405V134H162.326V156.405C162.326 157.736 161.249 158.814 159.918 158.814H159.907Z" fill="white" stroke="#263238" stroke-width="1.05637" stroke-linecap="round" stroke-linejoin="round"/>
<path d="M157.488 143.147V156.404C157.488 157.735 158.565 158.813 159.896 158.813C161.227 158.813 162.305 157.735 162.305 156.404V143.147H157.477H157.488Z" fill="#1C53A1" stroke="#263238" stroke-width="1.05637" stroke-linecap="round" stroke-linejoin="round"/>
<path d="M163.174 133.282H156.646V137.825H163.174V133.282Z" fill="white" stroke="#263238" stroke-width="1.05637" stroke-linecap="round" stroke-linejoin="round"/>
<path d="M169.291 158.814C167.96 158.814 166.883 157.736 166.883 156.405V134H171.71V156.405C171.71 157.736 170.633 158.814 169.302 158.814H169.291Z" fill="white" stroke="#263238" stroke-width="1.05637" stroke-linecap="round" stroke-linejoin="round"/>
<path d="M166.872 143.147V156.404C166.872 157.735 167.95 158.813 169.281 158.813C170.612 158.813 171.689 157.735 171.689 156.404V143.147H166.862H166.872Z" fill="#1C53A1" stroke="#263238" stroke-width="1.05637" stroke-linecap="round" stroke-linejoin="round"/>
<path d="M172.559 133.282H166.031V137.825H172.559V133.282Z" fill="white" stroke="#263238" stroke-width="1.05637" stroke-linecap="round" stroke-linejoin="round"/>
<path d="M176.635 140.276H134.613V141.702H176.635V156.597H132.574V160.062H179.487V140.276H176.635Z" fill="white" stroke="#263238" stroke-width="1.05637" stroke-linecap="round" stroke-linejoin="round"/>
<path d="M407.898 157.233L402.405 135.895V130.063H394.63V135.895L389.137 157.233C388.831 158.448 389.56 159.674 390.764 159.99C390.944 160.033 391.134 160.064 391.324 160.064H405.712C406.958 160.064 407.972 159.05 407.972 157.804C407.972 157.614 407.951 157.423 407.898 157.244V157.233Z" fill="white" stroke="#263238" stroke-width="1.05637"/>
<path d="M403.397 146.447H393.626L390.742 157.644C390.657 157.961 390.847 158.289 391.175 158.373C391.228 158.384 391.27 158.394 391.323 158.394H405.71C406.038 158.394 406.302 158.13 406.302 157.792C406.302 157.739 406.302 157.697 406.281 157.644L403.397 146.447Z" fill="#1C53A1"/>
<path d="M421.492 139.889V127.561H414.267V139.889C408.869 141.885 406.112 147.875 408.108 153.273C410.105 158.671 416.094 161.428 421.492 159.432C426.89 157.435 429.648 151.446 427.651 146.047C426.595 143.195 424.345 140.945 421.492 139.889Z" fill="white" stroke="#263238" stroke-width="1.05637"/>
<path d="M408.96 147.01C407.492 151.932 410.302 157.119 415.235 158.577C420.168 160.035 425.344 157.235 426.802 152.302C427.32 150.57 427.32 148.731 426.802 146.999H408.96V147.01Z" fill="#1C53A1"/>
<path d="M437.564 146.745V124.17H432.8V146.745C429.24 148.065 427.412 152.016 428.733 155.576C430.053 159.136 434.004 160.963 437.564 159.643C441.124 158.322 442.951 154.372 441.631 150.812C440.934 148.931 439.444 147.442 437.564 146.745Z" fill="white" stroke="#263238" stroke-width="1.05637"/>
<path d="M429.289 151.448C428.328 154.702 430.177 158.114 433.43 159.086C436.684 160.058 440.096 158.198 441.068 154.945C441.406 153.804 441.406 152.589 441.068 151.448H429.289Z" fill="#1C53A1"/>
<path d="M64.4524 96.1356C67.9385 94.4982 71.847 94.0229 75.6288 94.7729C77.6887 94.9525 79.6325 95.8187 81.1431 97.2342C82.5269 98.7554 82.7804 101.439 81.1959 102.748C80.1712 103.435 78.9458 103.752 77.7204 103.636C74.7626 103.604 71.4879 103.087 69.1322 104.861C67.78 105.875 66.8927 107.566 65.2764 108.062C63.6179 108.442 61.9172 107.682 61.0932 106.203C60.322 104.724 60.153 103.002 60.6178 101.407C61.0087 99.1568 62.4242 97.2025 64.4524 96.1462V96.1356Z" fill="#1C53A1"/>
<path d="M56.6865 81.1089C58.7676 84.0772 62.8029 83.0948 64.6727 81.2884C66.5425 79.482 67.3347 76.8517 68.0531 74.3481C69.701 68.6226 71.3595 62.6224 70.1341 56.8018C69.8383 55.0377 69.0672 53.3897 67.8946 52.027C66.6903 50.6643 64.8523 50.0622 63.067 50.4213C61.0282 50.9601 59.7606 52.9566 58.8521 54.8475C56.1583 60.4463 54.7428 66.5838 54.7217 72.7952C54.7217 75.6897 55.0492 78.7215 56.6865 81.1089Z" fill="#1C53A1"/>
<path d="M50.979 85.356C53.1446 82.525 53.7784 78.8065 52.6587 75.4156C51.5178 72.0775 49.479 69.1302 46.7747 66.8801C43.7007 64.1441 40.1196 62.0314 36.2321 60.6581C34.7321 60.0454 33.1158 59.7708 31.489 59.8553C29.8517 59.9504 28.3622 60.8483 27.5065 62.2638C26.3973 64.3765 27.4643 66.9435 28.6157 69.0351C30.6439 72.7219 32.9574 76.2501 35.5349 79.5777C37.616 82.2503 39.9928 84.8912 43.1514 86.1061C46.3099 87.3209 49.5952 87.173 51.2748 84.9757" fill="#1C53A1"/>
<path d="M56.5289 125.866C56.6345 125.422 56.6979 124.968 56.719 124.514C56.8141 123.531 56.9303 122.295 57.0782 120.838C57.2578 119.021 57.5325 117.225 57.9022 115.44C58.3881 113.263 59.0431 111.14 59.867 109.07C60.6699 106.999 61.7685 105.066 63.1206 103.302C64.2193 101.876 65.6242 100.703 67.2299 99.8793C68.318 99.3405 69.4905 98.9708 70.6948 98.8018C71.149 98.7807 71.6033 98.7173 72.0364 98.6117C71.5822 98.5588 71.1279 98.5483 70.6737 98.5905C69.4272 98.6856 68.2018 99.0025 67.0609 99.5307C65.3707 100.334 63.8812 101.506 62.7192 102.985C61.3143 104.77 60.1734 106.746 59.3494 108.869C58.5149 110.971 57.8599 113.137 57.4057 115.345C57.0571 117.151 56.8141 118.978 56.6874 120.806C56.5712 122.369 56.5289 123.637 56.5078 124.514C56.4655 124.968 56.4761 125.422 56.5395 125.877L56.5289 125.866Z" fill="#263238"/>
<path d="M56.7802 123.039C56.8119 122.828 56.833 122.627 56.8119 122.416V120.631C56.8119 119.078 56.8119 116.828 56.8964 114.05C57.0338 108.504 57.5091 102.525 58.4387 94.1055C59.3155 86.1827 60.4881 76.9712 61.724 70.9816C61.9881 69.6188 62.2628 68.3934 62.5057 67.316C62.7487 66.2385 62.9494 65.3089 63.1501 64.5588C63.3191 63.8511 63.4565 63.2806 63.5727 62.8158C63.6361 62.6151 63.6677 62.4038 63.6783 62.2031C63.5832 62.3933 63.5093 62.5834 63.4565 62.7841C63.3191 63.2384 63.1501 63.7982 62.9389 64.4954C62.7065 65.2349 62.4741 66.1645 62.1994 67.2314C61.9247 68.2984 61.629 69.5238 61.3332 70.8865C59.8014 77.9747 58.65 85.1369 57.8788 92.3413C56.9492 100.782 56.5373 108.462 56.495 114.029C56.4633 116.807 56.5267 119.067 56.5901 120.62C56.6323 121.349 56.6746 121.941 56.6957 122.406C56.6957 122.617 56.7274 122.828 56.7697 123.029L56.7802 123.039Z" fill="#263238"/>
<path d="M56.8058 108.214C56.848 107.591 56.848 106.967 56.7952 106.344C56.7318 105.14 56.5628 103.407 56.2248 101.274C55.8128 98.7805 55.2635 96.3192 54.5768 93.9001C53.774 90.9106 52.7387 87.995 51.4922 85.1639C49.3478 79.9455 46.2843 75.1707 42.4286 71.0508C41.7631 70.3431 41.0447 69.6881 40.2947 69.0649C39.9672 68.7902 39.682 68.5156 39.3862 68.2937L38.5623 67.7233C38.0658 67.343 37.5376 67.0049 36.9883 66.7197C38.8052 68.1458 40.5271 69.6776 42.1434 71.3255C45.8618 75.477 48.8513 80.2307 50.9746 85.3858C52.2 88.1957 53.2352 91.0902 54.0803 94.0374C54.7881 96.4459 55.3691 98.8756 55.8339 101.348C56.2248 103.45 56.4466 105.172 56.5839 106.365C56.6156 106.989 56.6896 107.612 56.8163 108.214H56.8058Z" fill="#263238"/>
<path d="M42.4934 134.356L43.9829 154.702H70.1175L71.6069 134.356H42.4934Z" stroke="#263238" stroke-width="1.05637"/>
<path d="M74.7323 126.346H39.9778V134.364H74.7323V126.346Z" stroke="#263238" stroke-width="1.05637"/>
<path d="M39.9778 153.924V156.143H74.1513V153.924H39.9778Z" fill="white" stroke="#263238" stroke-width="1.05637"/>
<path d="M43.2008 160.06L41.6057 156.151H72.9059L71.0361 160.06H43.2008Z" stroke="#263238" stroke-width="1.05637"/>
<path d="M71.114 141.01C71.0823 141.074 71.04 141.137 70.9872 141.2L70.5964 141.718L69.0752 143.672L69.0118 143.757L68.9484 143.662L65.2089 138.486H65.4202L61.7334 143.704L61.6172 143.862L61.4905 143.704L57.1277 138.517H57.3812L57.1382 138.824L53.2297 143.725L53.1029 143.884L52.9867 143.715L49.3 138.507H49.5112L44.9689 143.683L44.8843 143.778L44.821 143.672C44.2188 142.669 43.7435 141.866 43.3949 141.285C43.247 141.031 43.1202 140.82 43.0251 140.651C42.9829 140.577 42.9406 140.503 42.9089 140.429C42.9723 140.493 43.0146 140.556 43.0568 140.63L43.4582 141.243C43.8174 141.813 44.3245 142.595 44.9477 143.588H44.8104L49.2788 138.348L49.395 138.221L49.5007 138.369L53.2191 143.556H52.9656L56.8636 138.644L57.1065 138.338L57.2333 138.179L57.3601 138.327L61.7123 143.535H61.4693C62.8109 141.665 64.068 139.922 65.1878 138.359L65.2934 138.211L65.399 138.359L69.0646 143.588H68.9273L70.5119 141.686L70.9344 141.2C71.04 141.084 71.0929 141.031 71.1034 141.031L71.114 141.01Z" fill="#F5F5F5"/>
<path d="M71.9667 134.228C71.9667 134.312 65.4173 134.386 57.336 134.386C49.2548 134.386 42.7053 134.312 42.7053 134.228C42.7053 134.143 49.2548 134.069 57.336 134.069C65.4173 134.069 71.9667 134.143 71.9667 134.228Z" fill="#F5F5F5"/>
<path d="M73.2811 156.371C73.2811 156.456 66.1612 156.53 57.3827 156.53C48.6043 156.53 41.4844 156.456 41.4844 156.371C41.4844 156.287 48.6043 156.213 57.3827 156.213C66.1612 156.213 73.2811 156.287 73.2811 156.371Z" fill="#F5F5F5"/>
<path d="M0 160.062H1443" stroke="#263238" stroke-width="1.05637"/>
<path d="M514.649 159.465L514.849 113.259C514.849 113.259 506.684 114.389 505.321 114.58C503.958 114.77 503.324 113.196 499.416 109.298C495.507 105.4 496.099 94.6565 501.169 91.1388C506.24 87.6211 517.374 74.7334 518.156 73.9517C518.937 73.17 524.409 73.9517 526.554 74.3425C528.698 74.7334 532.607 76.8778 533.579 77.0785C534.551 77.2792 541.776 78.4412 541.776 78.4412C541.776 78.4412 566.189 82.9308 568.333 83.3217C570.478 83.7125 580.048 89.3746 582.394 89.7655C584.739 90.1564 587.475 93.8642 587.866 95.6178C588.256 97.3714 591.964 128.619 593.528 130.763C595.091 132.908 600.362 160.046 600.362 160.046" fill="white"/>
<path d="M514.649 159.465L514.849 113.259C514.849 113.259 506.684 114.389 505.321 114.58C503.958 114.77 503.324 113.196 499.416 109.298C495.507 105.4 496.099 94.6565 501.169 91.1388C506.24 87.6211 517.374 74.7334 518.156 73.9517C518.937 73.17 524.409 73.9517 526.554 74.3425C528.698 74.7334 532.607 76.8778 533.579 77.0785C534.551 77.2792 541.776 78.4412 541.776 78.4412C541.776 78.4412 566.189 82.9308 568.333 83.3217C570.478 83.7125 580.048 89.3746 582.394 89.7655C584.739 90.1564 587.475 93.8642 587.866 95.6178C588.256 97.3714 591.964 128.619 593.528 130.763C595.091 132.908 600.362 160.046 600.362 160.046" stroke="#263238" stroke-width="1.05637" stroke-linecap="round" stroke-linejoin="round"/>
<path d="M559.343 93.7589H561.762L568.797 96.6111L560.885 89.5757L559.343 93.7589Z" fill="#263238" stroke="#263238" stroke-width="1.05637" stroke-linecap="round" stroke-linejoin="round"/>
<path d="M544.173 94.4145L553.617 93.094L550.321 88.2559L544.173 94.4039V94.4145Z" fill="#263238" stroke="#263238" stroke-width="1.05637" stroke-linecap="round" stroke-linejoin="round"/>
<path d="M520.407 83.0889C520.407 83.0889 521.464 97.3815 519.879 103.466C518.294 109.551 516.963 111.135 516.963 111.135" stroke="#263238" stroke-width="1.05637" stroke-linecap="round" stroke-linejoin="round"/>
<path d="M519.317 116.344C519.085 117.168 518.831 117.992 518.557 118.816L519.317 116.344Z" fill="white"/>
<path d="M519.317 116.344C519.085 117.168 518.831 117.992 518.557 118.816" stroke="#263238" stroke-width="1.05637" stroke-linecap="round" stroke-linejoin="round"/>
<path d="M522.784 92.8813C522.626 99.9801 521.675 107.047 519.953 113.935L522.784 92.8813Z" fill="white"/>
<path d="M522.784 92.8813C522.626 99.9801 521.675 107.047 519.953 113.935" stroke="#263238" stroke-width="1.05637" stroke-linecap="round" stroke-linejoin="round"/>
<path d="M584.846 156.878C584.846 156.878 581.032 139.954 581.423 138.201C581.814 136.447 582.987 104.809 582.987 104.809" stroke="#263238" stroke-width="1.05637" stroke-linecap="round" stroke-linejoin="round"/>
<path d="M535.978 87.2417C536.327 88.203 536.707 89.2488 537.098 90.358" stroke="#263238" stroke-width="1.05637" stroke-linecap="round" stroke-linejoin="round"/>
<path d="M532.417 77.8604C532.417 77.8604 533.484 80.459 535.333 85.4662" stroke="#263238" stroke-width="1.05637" stroke-linecap="round" stroke-linejoin="round"/>
<path d="M540.373 105.821C540.574 106.909 540.721 107.997 540.816 109.096" stroke="#263238" stroke-width="1.05637" stroke-linecap="round" stroke-linejoin="round"/>
<path d="M533.588 87.0293C536.24 92.2372 538.331 97.7198 539.842 103.371" stroke="#263238" stroke-width="1.05637" stroke-linecap="round" stroke-linejoin="round"/>
<path d="M556.703 98.1338C556.703 98.1338 558.974 119.251 558.974 122.187C558.974 125.124 560.665 157.85 560.665 157.85" stroke="#263238" stroke-width="1.05637" stroke-linecap="round" stroke-linejoin="round"/>
<path d="M580.26 127.93L566.981 126.662V105.926L580.26 107.193V127.93Z" fill="white" stroke="#263238" stroke-width="1.05637" stroke-linecap="round" stroke-linejoin="round"/>
<path d="M574.99 107.828L571.673 107.627V101.184L574.99 101.384V107.828Z" fill="#1C53A1" stroke="#263238" stroke-width="1.05637" stroke-linecap="round" stroke-linejoin="round"/>
<path d="M546.128 73.508C546.128 73.508 544.639 73.3389 544.311 73.8354C543.984 74.3319 540.181 78.6314 540.181 78.6314C540.55 80.818 540.719 83.0258 540.677 85.2442C540.677 89.5436 542.663 96.1459 542.663 96.1459L550.766 90.8535C550.766 90.8535 554.896 89.6915 556.058 89.3641C557.093 89.1845 558.16 89.1845 559.195 89.3641C559.195 89.3641 570.763 99.1143 571.428 98.7869C572.094 98.4594 569.442 87.5471 567.625 82.7512C565.808 77.9553 560.685 75.3143 560.685 75.3143C560.685 75.3143 548.949 73.1699 546.149 73.4974L546.128 73.508Z" fill="white" stroke="#263238" stroke-width="1.05637" stroke-linecap="round" stroke-linejoin="round"/>
<path d="M543.979 53.3542C541.021 53.8507 538.201 54.981 535.718 56.6606C532.084 59.3015 535.222 68.5553 539.69 70.8688C544.158 73.1822 547.296 72.5273 549.113 68.3863C550.93 64.2454 550.106 55.8261 548.944 54.5056C547.782 53.1852 543.989 53.3542 543.989 53.3542H543.979Z" fill="#263238"/>
<path d="M547.94 57.1439L546.282 75.155C547.549 79.3276 549.092 83.4158 550.909 87.3877C552.535 91.1273 554.469 94.7189 556.687 98.131C556.687 98.131 560.648 90.8632 561.641 88.3807C562.455 86.0567 563.11 83.6799 563.627 81.2713L566.11 70.5281C562.518 69.3766 559.159 67.5808 556.19 65.2356C553.074 62.9328 550.296 60.2073 547.93 57.1333L547.94 57.1439Z" fill="white" stroke="#263238" stroke-width="1.05637" stroke-linecap="round" stroke-linejoin="round"/>
<path d="M566.121 70.5296C562.529 69.3782 559.17 67.5824 556.201 65.2372C554.786 64.1597 553.434 63.0188 552.145 61.7935V69.1775C552.145 69.1775 556.307 76.4664 560.48 78.5475C561.599 79.0862 562.804 79.4243 564.04 79.551L566.121 70.5296Z" fill="#263238"/>
<path d="M577.519 54.3344C577.519 54.3344 578.839 53.0139 579.008 55.8239C579.019 58.1796 577.994 60.4191 576.198 61.9402C575.67 62.405 575.121 62.8487 574.55 63.2607L577.529 54.3344H577.519Z" fill="white" stroke="#263238" stroke-width="1.05637" stroke-linecap="round" stroke-linejoin="round"/>
<path d="M566.122 28.3807C561.791 27.768 557.396 28.8667 553.868 31.4442C547.995 35.7859 547.488 46.2545 547.488 46.2545C547.488 46.2545 545.449 44.4692 544.171 46.7615C542.892 49.0539 542.893 54.9378 543.917 55.4449C544.942 55.952 546.22 56.4696 546.22 56.4696C546.22 56.4696 547.752 64.1283 549.283 66.4311C550.815 68.734 556.435 74.6074 559.752 74.6074C563.069 74.6074 568.689 72.8222 571.245 69.5052C573.517 66.3783 575.334 62.9345 576.612 59.2901C577.636 56.4801 579.422 42.9481 579.422 42.9481C579.728 39.0184 578.228 35.1626 575.334 32.4794C570.474 28.1378 566.133 28.3913 566.133 28.3913L566.122 28.3807Z" fill="white" stroke="#263238" stroke-width="1.05637" stroke-linecap="round" stroke-linejoin="round"/>
<path d="M549.264 66.4315C550.795 68.7344 556.415 74.6078 559.732 74.6078C563.049 74.6078 568.669 72.8226 571.225 69.495C573.497 66.3681 575.314 62.9244 576.592 59.2799C576.951 58.1179 577.226 56.9242 577.426 55.7305C576.761 55.065 572.24 50.7656 566.451 49.5402C560.165 48.2197 548.767 47.2267 548.767 47.2267L547.478 46.2549L546.306 56.977C546.675 58.72 547.975 64.4878 549.264 66.4315Z" fill="white" stroke="#263238" stroke-width="1.05637" stroke-linecap="round" stroke-linejoin="round"/>
<path d="M568.765 50.3745C568.765 50.3745 569.758 45.4202 570.254 44.0997C570.751 42.7792 574.057 41.6172 576.54 45.2617" stroke="#263238" stroke-width="1.05637" stroke-linecap="round" stroke-linejoin="round"/>
<path d="M563.144 40.7935C563.144 40.7935 559.838 36.663 554.545 40.297" stroke="#263238" stroke-width="1.05637" stroke-linecap="round" stroke-linejoin="round"/>
<path d="M558.158 44.397C557.978 45.052 557.471 45.4957 557.027 45.3689C556.584 45.2421 556.383 44.6189 556.563 43.9534C556.742 43.2878 557.249 42.8547 557.693 42.9815C558.137 43.1083 558.337 43.7315 558.158 44.397Z" fill="#263238"/>
<path d="M572.704 47.9156C572.524 48.5705 572.017 49.0142 571.573 48.8874C571.13 48.7607 570.929 48.1374 571.109 47.4719C571.288 46.8064 571.795 46.3733 572.239 46.5001C572.683 46.6268 572.894 47.2501 572.704 47.9156Z" fill="#263238"/>
<path d="M547.479 46.2553C548.028 46.4349 548.62 46.2236 548.937 45.7377C549.433 44.9137 548.44 41.9347 552.074 38.3008C555.708 34.6669 559.838 34.1704 561.824 32.5119C563.81 30.8534 564.138 30.0295 562.817 28.3815C561.497 26.7336 559.511 23.9236 552.243 28.054C544.975 32.1845 542.324 34.8254 543.486 38.4698C544.109 40.5298 545.06 42.484 546.296 44.2587L547.489 46.2553H547.479Z" fill="#263238"/>
<path d="M561.167 27.0713C561.167 27.0713 562.657 30.5467 565.298 31.8672C567.939 33.1877 571.414 33.6842 575.545 36.1666C579.675 38.6491 578.851 46.0859 578.851 46.0859C578.851 46.0859 584.471 48.8959 586.784 44.7655C589.098 40.6351 591.242 33.6947 582.158 28.5713C573.073 23.4479 566.291 17.3316 561.167 27.0819V27.0713Z" fill="#263238"/>
<path d="M535.35 17.5166V41.0525C535.35 42.3941 534.262 43.4927 532.909 43.4927C531.568 43.4927 530.469 42.4047 530.469 41.0525V17.5166H535.35Z" fill="white" stroke="#263238" stroke-width="1.05637" stroke-linecap="round" stroke-linejoin="round"/>
<path d="M535.35 30.0151V41.0542C535.35 42.3958 534.262 43.4944 532.909 43.4944C531.568 43.4944 530.469 42.4063 530.469 41.0542V30.0151H535.35Z" fill="#92E3A9" stroke="#263238" stroke-width="1.05637" stroke-linecap="round" stroke-linejoin="round"/>
<path d="M536.122 16.3457H529.678V18.3H536.122V16.3457Z" fill="white" stroke="#263238" stroke-width="1.05637" stroke-linecap="round" stroke-linejoin="round"/>
<path d="M520.31 64.3773C520.31 64.3773 520.31 63.7963 517.574 61.842C514.838 59.8877 504.485 59.6976 502.341 62.2329C500.197 64.7682 507.813 71.8036 509.957 72.7755C512.102 73.7473 516.01 71.9937 517.183 70.631C518.356 69.2683 520.31 64.3773 520.31 64.3773Z" fill="white" stroke="#263238" stroke-width="1.05637" stroke-linecap="round" stroke-linejoin="round"/>
<path d="M506.258 49.5352L504.304 64.1764C504.304 64.1764 508.012 69.2576 511.329 69.4477C514.646 69.6379 517.582 66.5216 517.582 66.5216L518.364 51.8803C518.364 51.8803 510.748 51.6901 506.258 49.5352Z" fill="white" stroke="#263238" stroke-width="1.05637" stroke-linecap="round" stroke-linejoin="round"/>
<path d="M508.393 39.774C508.393 39.774 508.783 30.2033 509.174 26.3053C509.565 22.4073 510.738 19.6607 511.319 19.6607C511.9 19.6607 519.125 14.5796 519.125 14.5796C519.125 14.5796 530.84 15.3613 532.013 15.3613C533.185 15.3613 535.531 16.143 535.33 17.3156L535.14 18.4882C535.245 19.1325 535.245 19.7981 535.14 20.4424C534.981 20.8333 534.707 21.1713 534.358 21.4143C534.569 22.0587 534.221 22.7559 533.576 22.9777C532.404 23.5693 527.523 26.1046 527.523 26.1046C526.33 28.5765 525.284 31.1223 524.397 33.721C523.615 36.457 520.488 39.3831 520.488 39.3831C520.488 39.3831 520.678 42.1191 520.678 43.8727C520.551 45.4044 520.224 46.915 519.706 48.3623C519.801 49.3975 519.801 50.4433 519.706 51.4891C519.516 52.0807 518.925 52.8518 518.344 52.8518C517.763 52.8518 513.463 53.6335 511.319 53.2427C509.174 52.8518 506.047 50.3166 506.047 50.3166L507.019 46.408V43.2811C507.262 42.0346 507.727 40.8515 508.382 39.7634L508.393 39.774Z" fill="#1C53A1" stroke="#263238" stroke-width="1.05637" stroke-linecap="round" stroke-linejoin="round"/>
<path d="M515.038 39.3823C515.038 39.3823 519.137 37.8188 519.528 35.2835C519.919 32.7483 521.873 26.3044 521.873 26.3044L527.535 26.1143" fill="#1C53A1"/>
<path d="M515.038 39.3823C515.038 39.3823 519.137 37.8188 519.528 35.2835C519.919 32.7483 521.873 26.3044 521.873 26.3044L527.535 26.1143" stroke="#263238" stroke-width="1.05637" stroke-linecap="round" stroke-linejoin="round"/>
<path d="M517.181 23.5695C517.181 23.5695 522.262 21.8054 523.625 21.8054C524.988 21.8054 534.368 21.4146 534.368 21.4146" fill="#1C53A1"/>
<path d="M517.181 23.5695C517.181 23.5695 522.262 21.8054 523.625 21.8054C524.988 21.8054 534.368 21.4146 534.368 21.4146" stroke="#263238" stroke-width="1.05637" stroke-linecap="round" stroke-linejoin="round"/>
<path d="M516.993 19.0803C519.359 18.4887 521.778 18.1612 524.218 18.1084C527.736 18.1084 535.152 18.4993 535.152 18.4993" fill="#1C53A1"/>
<path d="M516.993 19.0803C519.359 18.4887 521.778 18.1612 524.218 18.1084C527.736 18.1084 535.152 18.4993 535.152 18.4993" stroke="#263238" stroke-width="1.05637" stroke-linecap="round" stroke-linejoin="round"/>
<path d="M508.201 47.3916C508.201 47.3916 510.736 50.1276 516.208 49.536L508.201 47.3916Z" fill="#1C53A1"/>
<path d="M508.201 47.3916C508.201 47.3916 510.736 50.1276 516.208 49.536" stroke="#263238" stroke-width="1.05637" stroke-linecap="round" stroke-linejoin="round"/>
<path d="M519.334 46.6079C519.334 46.6079 518.362 47.1889 513.862 47.1889L519.334 46.6079Z" fill="#1C53A1"/>
<path d="M519.334 46.6079C519.334 46.6079 518.362 47.1889 513.862 47.1889" stroke="#263238" stroke-width="1.05637" stroke-linecap="round" stroke-linejoin="round"/>
<path d="M504.295 64.1872L502.341 62.2329C502.341 62.2329 491.597 102.85 491.407 105.776C491.217 108.703 495.707 113.583 498.242 114.756C500.777 115.928 509.175 114.946 511.911 113.583C514.647 112.22 516.401 106.748 517.964 101.667C519.528 96.586 517.774 87.6069 518.154 84.8709C518.535 82.1349 520.299 64.3668 520.299 64.3668L517.563 66.5112C517.563 66.5112 509.946 66.3211 504.284 64.1766L504.295 64.1872Z" fill="white" stroke="#263238" stroke-width="1.05637" stroke-linecap="round" stroke-linejoin="round"/>
<path d="M505.522 159.773H607.588" stroke="#263238" stroke-width="1.05637" stroke-linecap="round" stroke-linejoin="round"/>
<path d="M901.335 159.632L902.582 131.227C902.582 131.227 897.817 145.952 895.324 149.681C892.831 153.41 890.972 154.868 887.444 154.245C883.916 153.622 877.281 142.836 877.281 137.449C877.281 132.061 882.88 118.371 884.127 115.265C885.373 112.159 892.007 85.8132 892.831 84.366C893.655 82.9188 920.614 74.7848 920.614 74.7848L922.484 70.8445C922.484 70.8445 950.065 67.7282 951.935 67.9395C953.805 68.1507 953.594 71.2565 953.594 71.2565C954.914 72.3657 956.171 73.5488 957.375 74.7848C957.787 75.408 973.094 82.9082 977.858 84.5667C982.623 86.2252 983.045 87.8837 983.246 88.7183C983.447 89.5528 995.901 117.547 1000.45 122.311C1005.01 127.075 993.408 136.202 989.468 137.861C985.528 139.519 980.14 138.695 978.27 135.79C976.401 132.885 971.837 129.156 971.837 129.156L972.619 160.065" fill="white"/>
<path d="M901.335 159.632L902.582 131.227C902.582 131.227 897.817 145.952 895.324 149.681C892.831 153.41 890.972 154.868 887.444 154.245C883.916 153.622 877.281 142.836 877.281 137.449C877.281 132.061 882.88 118.371 884.127 115.265C885.373 112.159 892.007 85.8132 892.831 84.366C893.655 82.9188 920.614 74.7848 920.614 74.7848L922.484 70.8445C922.484 70.8445 950.065 67.7282 951.935 67.9395C953.805 68.1507 953.594 71.2565 953.594 71.2565C954.914 72.3657 956.171 73.5488 957.375 74.7848C957.787 75.408 973.094 82.9082 977.858 84.5667C982.623 86.2252 983.045 87.8837 983.246 88.7183C983.447 89.5528 995.901 117.547 1000.45 122.311C1005.01 127.075 993.408 136.202 989.468 137.861C985.528 139.519 980.14 138.695 978.27 135.79C976.401 132.885 971.837 129.156 971.837 129.156L972.619 160.065" stroke="#263238" stroke-width="1.05637" stroke-linecap="round" stroke-linejoin="round"/>
<path d="M902.572 131.225L902.265 110.5" stroke="#263238" stroke-width="1.05637" stroke-linecap="round" stroke-linejoin="round"/>
<path d="M900.808 120.938L901.283 124.36" stroke="#263238" stroke-width="1.05637" stroke-linecap="round" stroke-linejoin="round"/>
<path d="M898.851 107.087L900.351 117.704" stroke="#263238" stroke-width="1.05637" stroke-linecap="round" stroke-linejoin="round"/>
<path d="M969.595 116.14C969.437 117.08 969.352 118.042 969.342 118.992" stroke="#263238" stroke-width="1.05637" stroke-linecap="round" stroke-linejoin="round"/>
<path d="M975.151 101.162C973.059 105.07 971.39 109.19 970.175 113.447" stroke="#263238" stroke-width="1.05637" stroke-linecap="round" stroke-linejoin="round"/>
<path d="M968.927 107.794C967.977 111.101 967.491 114.513 967.48 117.957" stroke="#263238" stroke-width="1.05637" stroke-linecap="round" stroke-linejoin="round"/>
<path d="M945.645 81.8281C945.127 82.3246 944.599 82.8106 944.039 83.2754" stroke="#263238" stroke-width="1.05637" stroke-linecap="round" stroke-linejoin="round"/>
<path d="M953.168 72.29C951.478 75.0683 949.534 77.667 947.347 80.0755" stroke="#263238" stroke-width="1.05637" stroke-linecap="round" stroke-linejoin="round"/>
<path d="M934.965 154.972L934.923 159.842" stroke="#263238" stroke-width="1.05637" stroke-linecap="round" stroke-linejoin="round"/>
<path d="M935.454 98.583L934.99 151.982" stroke="#263238" stroke-width="1.05637" stroke-linecap="round" stroke-linejoin="round"/>
<path d="M934.713 80.7949L935.548 84.7352L935.474 95.6052" stroke="#263238" stroke-width="1.05637" stroke-linecap="round" stroke-linejoin="round"/>
<path d="M892.83 136L888.478 128.532L888.267 137.036C888.267 137.036 891.383 137.859 892.83 136Z" fill="white" stroke="#263238" stroke-width="1.05637" stroke-linecap="round" stroke-linejoin="round"/>
<path d="M901.12 100.862L898.004 103.905L875.82 80.2738L878.936 77.2314L901.12 100.862Z" fill="#263238" stroke="#263238" stroke-width="1.05637" stroke-linecap="round" stroke-linejoin="round"/>
<path d="M878.571 75.6658L874.259 79.8682L875.497 81.1392L879.81 76.9368L878.571 75.6658Z" fill="white" stroke="#263238" stroke-width="1.05637" stroke-linecap="round" stroke-linejoin="round"/>
<path d="M900.686 101.203L898.356 103.474L900.236 105.403L902.566 103.133L900.686 101.203Z" fill="white" stroke="#263238" stroke-width="1.05637" stroke-linecap="round" stroke-linejoin="round"/>
<path d="M899.708 100.292C899.274 100.714 898.567 100.714 898.144 100.27L881.285 82.1009C880.862 81.6678 880.873 80.96 881.306 80.5375C881.739 80.1149 882.447 80.1255 882.869 80.5586L899.729 98.7281C900.151 99.1613 900.141 99.869 899.708 100.292Z" fill="white" stroke="#263238" stroke-width="1.05637" stroke-linecap="round" stroke-linejoin="round"/>
<path d="M901.017 104.731L901.872 103.896L913.799 116.14C914.031 116.372 914.021 116.752 913.788 116.985C913.556 117.217 913.175 117.207 912.943 116.985L901.017 104.742V104.731Z" fill="white" stroke="#263238" stroke-width="1.05637" stroke-linecap="round" stroke-linejoin="round"/>
<path d="M880.388 109.041L877.483 100.125L879.141 90.375C879.141 90.375 883.705 85.1882 884.328 84.9875C884.951 84.7868 890.55 84.7762 890.55 84.7762C890.55 84.7762 891.585 84.3642 891.585 85.3995C891.627 85.9594 891.395 86.4981 890.962 86.8467C890.962 86.8467 893.244 87.058 893.867 87.058C894.49 87.058 895.113 87.47 895.113 88.5052C895.113 89.5405 893.455 89.9524 892.832 90.1637C892.208 90.375 889.927 91.199 889.927 91.199L886.398 95.1392H890.339C891.11 95.2026 891.87 95.3399 892.62 95.5512C892.969 96.4808 893.18 97.4632 893.244 98.4562C893.941 99.576 894.3 100.875 894.279 102.185C894.279 104.467 894.902 105.713 894.279 105.914C893.656 106.115 892.208 107.161 892.208 106.125C892.198 105.428 892.124 104.731 891.997 104.055L889.715 104.467L888.891 106.125C888.891 106.125 890.761 110.277 890.761 111.935C890.761 113.594 889.937 119.193 889.937 119.193L889.103 134.954C887.233 134.838 885.395 134.341 883.715 133.507C880.609 132.059 877.292 126.661 877.292 126.661L881.021 113.805L880.398 109.03L880.388 109.041Z" fill="#1C53A1" stroke="#263238" stroke-width="1.05637" stroke-linecap="round" stroke-linejoin="round"/>
<path d="M883.493 123.967C881.687 123.492 880.081 122.446 878.919 120.999L877.271 126.661C877.271 126.661 880.588 132.049 883.694 133.506C885.374 134.341 887.212 134.837 889.081 134.954L889.715 123.017C887.75 123.851 885.606 124.168 883.483 123.967H883.493Z" fill="#D1D1D1" stroke="#263238" stroke-width="1.05637" stroke-linecap="round" stroke-linejoin="round"/>
<path d="M886.196 102.197C886.196 102.197 886.608 101.161 887.231 100.95C887.854 100.739 893.453 99.2915 893.453 99.2915" stroke="#263238" stroke-width="1.05637" stroke-linecap="round" stroke-linejoin="round"/>
<path d="M883.705 98.4557L884.328 96.3852L886.399 95.1387" stroke="#263238" stroke-width="1.05637" stroke-linecap="round" stroke-linejoin="round"/>
<path d="M881.22 94.7267C882.287 92.7935 883.459 90.9238 884.748 89.128C885.572 88.2934 890.347 87.2582 890.97 86.8462" stroke="#263238" stroke-width="1.05637" stroke-linecap="round" stroke-linejoin="round"/>
<path d="M889.092 134.954L892.821 135.99C892.821 135.99 893.856 150.715 893.856 152.575C893.856 154.434 889.504 156.726 884.729 157.138C879.955 157.55 872.497 153.821 872.497 150.504C872.497 147.187 877.44 124.602 877.44 124.602C877.44 124.602 881 133.919 889.092 134.954Z" fill="white" stroke="#263238" stroke-width="1.05637" stroke-linecap="round" stroke-linejoin="round"/>
<path d="M945.704 125.627C943.929 125.585 942.176 125.236 940.517 124.592C938.584 123.81 936.566 123.25 934.506 122.933C933.26 122.722 930.978 123.768 929.32 122.722C927.661 121.676 926.214 120.852 928.908 119.817C931.601 118.782 935.954 120.028 937.612 120.229C939.218 120.282 940.813 120.134 942.376 119.817L945.693 125.627H945.704Z" fill="#92E3A9" stroke="#263238" stroke-width="1.05637" stroke-linecap="round" stroke-linejoin="round"/>
<path d="M918.336 127.697C926.924 127.697 933.885 125.143 933.885 121.992C933.885 118.842 926.924 116.288 918.336 116.288C909.748 116.288 902.786 118.842 902.786 121.992C902.786 125.143 909.748 127.697 918.336 127.697Z" fill="#263238" stroke="#263238" stroke-width="1.05637" stroke-linecap="round" stroke-linejoin="round"/>
<path d="M918.331 126.876C926.348 126.876 932.846 124.696 932.846 122.006C932.846 119.317 926.348 117.136 918.331 117.136C910.315 117.136 903.817 119.317 903.817 122.006C903.817 124.696 910.315 126.876 918.331 126.876Z" fill="white" stroke="#263238" stroke-width="1.05637" stroke-linecap="round" stroke-linejoin="round"/>
<path d="M964.577 140.553C964.577 140.553 964.049 131.173 964.049 129.705C964.049 128.236 970.863 130.676 970.863 130.676C970.863 130.676 967.303 139.719 964.577 140.553Z" fill="white" stroke="#263238" stroke-width="1.05637" stroke-linecap="round" stroke-linejoin="round"/>
<path d="M968.106 121.687C968.106 121.687 960.638 119.617 958.567 118.782C956.497 117.948 946.335 113.395 944.465 112.148C942.595 110.902 937.208 110.49 937.208 110.49C935.454 109.698 933.658 109 931.82 108.419C931.197 108.419 922.281 111.948 920.411 112.772C919.366 113.067 918.753 114.166 919.059 115.212C919.154 115.55 919.334 115.846 919.587 116.089C920.422 116.712 928.503 112.972 928.503 112.972L926.221 119.194C926.221 119.194 923.316 121.476 924.352 122.923C925.387 124.371 928.503 121.888 929.538 121.265C930.574 120.642 936.584 117.737 936.584 117.737C936.584 117.737 931.197 123.747 930.162 125.406C929.126 127.064 931.609 127.064 932.443 126.652C933.278 126.24 939.077 121.888 939.077 121.888C939.077 121.888 947.581 127.698 949.863 127.698C951.923 127.497 953.951 127.012 955.874 126.251L968.73 133.508C968.73 133.508 970.8 129.98 971.011 127.497C971.223 125.015 971.223 121.899 971.223 121.899L968.106 121.687Z" fill="#1C53A1" stroke="#263238" stroke-width="1.05637" stroke-linecap="round" stroke-linejoin="round"/>
<path d="M926.211 119.204L930.975 115.053L934.915 113.183" stroke="#263238" stroke-width="1.05637" stroke-linecap="round" stroke-linejoin="round"/>
<path d="M928.492 112.982L929.527 110.7" stroke="#263238" stroke-width="1.05637" stroke-linecap="round" stroke-linejoin="round"/>
<path d="M932.844 114.431L933.678 111.938" stroke="#263238" stroke-width="1.05637" stroke-linecap="round" stroke-linejoin="round"/>
<path d="M939.068 121.901L944.667 120.443" stroke="#263238" stroke-width="1.05637" stroke-linecap="round" stroke-linejoin="round"/>
<path d="M936.582 117.746L939.477 116.088" stroke="#263238" stroke-width="1.05637" stroke-linecap="round" stroke-linejoin="round"/>
<path d="M965.907 121.064C966.647 123.198 966.752 125.501 966.235 127.698C965.928 128.955 965.453 130.17 964.809 131.29L968.728 133.497C968.728 133.497 970.798 129.969 971.009 127.487C971.221 125.004 971.221 121.888 971.221 121.888L968.104 121.677C968.104 121.677 967.185 121.434 965.907 121.064Z" fill="#D1D1D1" stroke="#263238" stroke-width="1.05637" stroke-linecap="round" stroke-linejoin="round"/>
<path d="M991.737 114.219C989.043 114.895 986.402 115.803 983.856 116.912C981.574 118.159 972.447 119.395 971.623 119.818C969.743 120.346 967.831 120.758 965.908 121.064C965.908 121.064 968.306 126.04 967.07 129.98C965.834 133.92 964.577 140.554 964.577 140.554C964.577 140.554 975.152 143.459 984.279 141.177C993.406 138.896 999.416 132.262 1001.07 131.427C1002.73 130.592 1003.56 127.075 1003.56 125.416C1003.56 123.758 998.17 117.747 996.923 117.324" fill="white"/>
<path d="M991.737 114.219C989.043 114.895 986.402 115.803 983.856 116.912C981.574 118.159 972.447 119.395 971.623 119.818C969.743 120.346 967.831 120.758 965.908 121.064C965.908 121.064 968.306 126.04 967.07 129.98C965.834 133.92 964.577 140.554 964.577 140.554C964.577 140.554 975.152 143.459 984.279 141.177C993.406 138.896 999.416 132.262 1001.07 131.427C1002.73 130.592 1003.56 127.075 1003.56 125.416C1003.56 123.758 998.17 117.747 996.923 117.324" stroke="#263238" stroke-width="1.05637" stroke-linecap="round" stroke-linejoin="round"/>
<path d="M932.221 26.8786C932.221 26.8786 926.211 28.7484 922.682 32.0654C919.154 35.3824 919.154 48.2384 919.154 49.8969C919.154 51.5554 918.531 61.5064 918.943 64.4114C919.355 67.3164 927.658 79.5492 933.246 79.7605C938.834 79.9717 947.549 73.3377 949.007 71.2567C950.761 68.7742 952.282 66.1333 953.571 63.3762C954.405 61.3057 955.44 53.8372 955.641 51.5554C955.757 49.6222 955.757 47.6785 955.641 45.7454C955.641 45.7454 956.888 39.7346 954.606 35.7944C952.324 31.8541 945.901 27.0899 940.715 26.2554C937.873 25.7061 934.947 25.9279 932.211 26.8786H932.221Z" fill="white" stroke="#263238" stroke-width="1.05637" stroke-linecap="round" stroke-linejoin="round"/>
<path d="M919.163 46.7921C919.163 46.7921 923.515 43.0631 933.265 42.8518C939.118 42.7462 944.822 44.6477 949.438 48.2393C949.438 48.2393 950.886 47.2041 950.474 52.8028C950.062 58.4016 949.438 59.6481 944.875 61.3066C940.311 62.9651 930.149 64.2116 925.797 62.9651C921.445 61.7186 919.142 56.9544 918.941 55.5071C918.74 54.0599 919.163 46.8027 919.163 46.8027V46.7921Z" fill="#D1D1D1" stroke="#263238" stroke-width="1.05637" stroke-linecap="round" stroke-linejoin="round"/>
<path d="M919.165 44.9215C924.701 47.1293 930.638 48.1117 936.585 47.8265C943.145 47.4568 949.631 46.242 955.885 44.2454C956.92 44.0342 956.107 45.8722 956.107 45.8722L950.275 48.8723C950.275 48.8723 950.275 54.4711 949.029 56.3409C947.782 58.2106 945.089 59.4466 942.184 59.4466C939.479 59.2881 936.912 58.1895 934.926 56.3409C933.986 55.7493 932.761 55.9183 932.021 56.7528C931.166 58.1789 929.507 58.9184 927.87 58.6226C925.176 58.4113 922.06 57.7881 920.824 56.1296C919.588 54.4711 919.165 49.9076 919.165 49.9076C919.06 48.2491 919.06 46.5906 919.165 44.9321V44.9215Z" fill="white" stroke="#263238" stroke-width="1.05637" stroke-linecap="round" stroke-linejoin="round"/>
<path d="M927.204 76.5169C927.838 78.2494 928.937 79.7705 930.384 80.9114C932.824 82.8657 934.293 83.5946 936.976 82.8657C939.659 82.1368 948.216 77.7318 945.279 78.2177C943.546 78.5029 941.825 78.9149 940.145 79.4431C943.282 77.7106 946.23 75.6718 948.945 73.3373C950.93 71.5626 951.607 68.7421 950.656 66.249C950.656 66.249 926.951 73.5802 925.24 72.5978C923.528 71.6154 927.194 76.5064 927.194 76.5064L927.204 76.5169Z" fill="#263238"/>
<path d="M955.664 51.5551C955.728 50.8473 955.749 50.0128 955.759 49.21C955.21 49.8755 952.801 52.7911 951.523 54.2594C950.076 55.9179 946.759 58.6116 933.692 57.9884C920.624 57.3651 918.966 55.4954 918.966 55.4954C918.786 58.4638 918.786 61.4427 918.966 64.4111C919.378 67.3161 927.681 79.5489 933.269 79.7602C938.857 79.9714 947.572 73.3269 949.03 71.2564C950.784 68.7739 952.305 66.133 953.594 63.3759L951.935 65.8689L952.559 55.7066L955.664 51.5657V51.5551Z" fill="#1C53A1" stroke="#263238" stroke-width="1.05637" stroke-linecap="round" stroke-linejoin="round"/>
<path d="M931.609 51.9682C931.609 51.9682 929.116 48.8625 923.94 49.6865" stroke="#263238" stroke-width="1.05637" stroke-linecap="round" stroke-linejoin="round"/>
<path d="M938.045 51.968C938.045 51.968 941.362 50.0982 946.961 50.9328" stroke="#263238" stroke-width="1.05637" stroke-linecap="round" stroke-linejoin="round"/>
<path d="M924.551 53.626C925.766 55.4957 928.259 56.0451 930.15 54.8725" stroke="#263238" stroke-width="1.05637" stroke-linecap="round" stroke-linejoin="round"/>
<path d="M938.863 55.0835C938.863 55.0835 940.934 58.4005 945.909 55.0835" stroke="#263238" stroke-width="1.05637" stroke-linecap="round" stroke-linejoin="round"/>
<path d="M878.718 160H997.401" stroke="#263238" stroke-width="1.05637" stroke-linecap="round" stroke-linejoin="round"/>
<path d="M712.944 50.0692C712.944 50.0692 705.782 45.2944 697.754 45.5163C689.725 45.7381 686.693 53.9778 686.26 56.3652C685.827 58.7526 686.482 60.0519 681.707 60.0519C676.933 60.0519 666.96 59.1857 663.052 64.3936C659.143 69.6015 658.71 75.4538 662.186 79.1405C665.661 82.8272 666.96 84.3484 666.96 84.3484C664.805 86.5034 664.045 89.6936 665.006 92.5881C666.739 97.3629 673.035 99.5284 677.154 99.5284C681.274 99.5284 687.57 93.6656 689.303 90.2007C691.035 86.7358 696.032 87.8133 699.93 82.3941C703.828 76.975 701.884 70.2459 701.229 66.5592C700.574 62.8724 701.451 55.2771 706.648 53.3229C711.846 51.3686 712.722 51.3686 712.722 51.3686L712.944 50.0692Z" fill="#263238" stroke="#263238" stroke-width="1.05637" stroke-linecap="round" stroke-linejoin="round"/>
<path d="M652.412 155.715L668.035 127.732C668.553 122.936 669.567 118.214 671.078 113.629C673.676 105.39 676.719 92.1535 680.405 87.6005C684.092 83.0476 696.462 78.9277 696.462 78.9277C696.462 78.9277 708.399 84.1356 711.653 86.523C714.906 88.9104 720.326 93.0303 722.069 96.717C723.812 100.404 725.322 109.298 728.143 112.552C730.963 115.806 737.249 122.313 737.037 128.387C736.826 134.461 735.738 136.848 735.738 138.37C735.738 139.891 732.706 138.053 727.065 138.697C721.424 139.341 717.41 141.201 716.977 141.845C716.544 142.489 705.579 160.057 705.579 160.057" fill="white"/>
<path d="M652.412 155.715L668.035 127.732C668.553 122.936 669.567 118.214 671.078 113.629C673.676 105.39 676.719 92.1535 680.405 87.6005C684.092 83.0476 696.462 78.9277 696.462 78.9277C696.462 78.9277 708.399 84.1356 711.653 86.523C714.906 88.9104 720.326 93.0303 722.069 96.717C723.812 100.404 725.322 109.298 728.143 112.552C730.963 115.806 737.249 122.313 737.037 128.387C736.826 134.461 735.738 136.848 735.738 138.37C735.738 139.891 732.706 138.053 727.065 138.697C721.424 139.341 717.41 141.201 716.977 141.845C716.544 142.489 705.579 160.057 705.579 160.057" stroke="#263238" stroke-width="1.05637" stroke-linecap="round" stroke-linejoin="round"/>
<path d="M722.482 106.469C722.482 106.469 724.648 118.617 725.081 121.659C725.514 124.702 719.44 137.061 717.918 138.361" stroke="#263238" stroke-width="1.05637" stroke-linecap="round" stroke-linejoin="round"/>
<path d="M717.493 106.469C717.493 106.469 717.06 116.663 717.715 121.659C718.37 126.656 719.67 132.941 718.582 134.896" stroke="#263238" stroke-width="1.05637" stroke-linecap="round" stroke-linejoin="round"/>
<path d="M724.435 124.912C726.854 123.084 729.959 122.451 732.896 123.18" stroke="#263238" stroke-width="1.05637" stroke-linecap="round" stroke-linejoin="round"/>
<path d="M726.392 122.312C728.04 121.319 729.899 120.727 731.811 120.579" stroke="#263238" stroke-width="1.05637" stroke-linecap="round" stroke-linejoin="round"/>
<path d="M717.926 89.5458L719.881 93.4543L722.268 104.515L718.793 98.4404L717.06 105.814L714.895 92.3663C714.895 92.3663 715.761 87.8027 717.926 89.5458Z" fill="white" stroke="#263238" stroke-width="1.05637" stroke-linecap="round" stroke-linejoin="round"/>
<path d="M709.243 69.5881C707.87 70.8557 706.338 71.9543 704.69 72.8417C702.736 73.7079 700.349 74.5741 700.349 74.5741L712.286 98.4375L717.06 105.811C717.06 105.811 716.839 99.515 716.839 97.3494C716.807 95.8177 716.67 94.2965 716.405 92.7965L722.046 85.8561C722.046 85.8561 723.779 69.7993 722.258 67.2007C720.737 64.602 712.064 66.7675 709.243 69.5881Z" fill="white" stroke="#263238" stroke-width="1.05637" stroke-linecap="round" stroke-linejoin="round"/>
<path d="M722.576 79.8166L718.435 76.0981C718.435 76.0981 717.495 76.9961 716.84 82.7744C716.619 85.3836 717.178 88.0034 718.446 90.3063L722.048 85.8801C722.048 85.8801 722.334 83.1864 722.576 79.8271V79.8166Z" fill="#263238" stroke="#263238" stroke-width="1.05637" stroke-linecap="round" stroke-linejoin="round"/>
<path d="M748.946 62.6913C748.946 62.6913 747.403 70.1599 746.093 72.5789C744.784 74.998 742.924 76.3185 742.798 77.4171C742.354 81.125 742.354 82.6884 741.255 84.2307C740.157 85.773 734.009 89.502 730.269 90.3788C726.529 91.2555 724.332 91.9211 723.234 90.8224C722.135 89.7238 718.184 84.0089 718.184 81.5898C718.184 79.1707 717.529 78.5157 718.184 76.9734C718.839 75.4311 718.839 71.4803 718.839 71.4803C718.839 71.4803 718.839 69.5049 721.48 66.209C724.121 62.9132 729.17 62.0364 732.91 62.0364C736.649 62.0364 737.083 59.3955 741.044 58.2968C745.005 57.1982 747.836 60.4941 748.946 62.6913Z" fill="white" stroke="#263238" stroke-width="1.05637" stroke-linecap="round" stroke-linejoin="round"/>
<path d="M740.302 75.8739C739.837 76.6451 739.172 77.0993 738.813 76.8775C738.454 76.6556 738.527 75.8633 738.992 75.0816C739.457 74.2999 740.123 73.8562 740.482 74.0781C740.841 74.2999 740.767 75.1028 740.302 75.8739Z" fill="#263238"/>
<path d="M739.255 71.6484C740.819 70.9934 742.636 71.6061 743.47 73.085" stroke="#263238" stroke-width="1.05637" stroke-linecap="round" stroke-linejoin="round"/>
<path d="M741.253 84.2196C741.802 83.2583 742.172 82.2125 742.341 81.1139C740.629 80.1842 736.869 77.9764 734.872 75.6524C732.231 72.5784 726.96 65.1099 726.96 65.1099L726.083 66.2085L730.478 73.4552C730.478 73.4552 725.428 77.6278 721.911 77.6278C719.175 77.6278 718.572 76.5715 718.435 76.0961C718.372 76.3919 718.287 76.6877 718.171 76.9729C717.516 78.5152 718.171 79.1701 718.171 81.5892C718.171 84.0083 722.122 89.7233 723.22 90.8219C724.319 91.9205 726.516 91.2656 730.256 90.3782C733.995 89.4909 740.143 85.7619 741.242 84.2301L741.253 84.2196Z" fill="#1C53A1" stroke="#263238" stroke-width="1.05637" stroke-linecap="round" stroke-linejoin="round"/>
<path d="M725.206 67.9625C727.129 66.8322 729.347 66.2934 731.576 66.4202C735.316 66.642 739.71 68.1738 740.809 66.1984C741.908 64.2229 742.129 60.4834 745.425 61.3602C748.721 62.237 749.165 64.2124 749.165 64.2124C749.165 64.2124 755.978 63.9905 756.633 60.2616C757.288 56.5326 753.559 50.5958 751.14 50.1521C748.721 49.7084 746.524 49.2753 746.524 49.2753C746.524 49.2753 738.179 40.7082 728.291 40.93C718.403 41.1519 714.009 45.1027 711.59 53.4586C709.171 61.8144 710.269 64.8885 708.294 67.7407C706.318 70.5929 705.22 73.4556 710.047 73.0119C714.875 72.5683 718.182 69.4942 720.601 68.3956C722.048 67.7407 723.675 67.5822 725.217 67.9519L725.206 67.9625Z" fill="#263238" stroke="#263238" stroke-width="1.05637" stroke-linecap="round" stroke-linejoin="round"/>
<path d="M725.87 69.4935C727.391 67.5075 727.475 64.7715 726.091 62.6799C723.672 59.1622 716.647 65.9758 717.746 69.7153C718.845 73.4549 721.697 73.0112 721.697 73.0112" fill="white"/>
<path d="M725.87 69.4935C727.391 67.5075 727.475 64.7715 726.091 62.6799C723.672 59.1622 716.647 65.9758 717.746 69.7153C718.845 73.4549 721.697 73.0112 721.697 73.0112" stroke="#263238" stroke-width="1.05637" stroke-linecap="round" stroke-linejoin="round"/>
<path d="M702.095 71.7645L715.332 98.6596L710.779 106.033L694.722 78.2611L702.106 71.7539L702.095 71.7645Z" fill="white" stroke="#263238" stroke-width="1.05637" stroke-linecap="round" stroke-linejoin="round"/>
<path d="M718.149 139.417C718.149 139.417 717.843 134.22 724.466 133.702C731.09 133.184 736.192 136.037 736.499 140.452C736.805 144.868 723.262 142.016 721.762 142.016C720.262 142.016 718.149 139.417 718.149 139.417Z" fill="white" stroke="#263238" stroke-width="1.05637" stroke-linecap="round" stroke-linejoin="round"/>
<path d="M792.12 153.371H704.04V158.325H791.898" fill="white"/>
<path d="M792.12 153.371H704.04V158.325H791.898" stroke="#263238" stroke-width="1.05637" stroke-linecap="round" stroke-linejoin="round"/>
<path d="M760.883 100.615L737.885 110.165V145.743H746.558V112.33L762.615 103.436L760.872 100.615H760.883Z" fill="white" stroke="#263238" stroke-width="1.05637" stroke-linecap="round" stroke-linejoin="round"/>
<path d="M772.874 134.481C772.42 134.281 772.219 133.752 772.42 133.309C772.505 133.108 772.674 132.95 772.874 132.854C772.874 132.358 772.473 131.957 771.976 131.957H764.328C764.349 132.876 764.033 133.773 763.43 134.481C763.885 134.682 764.085 135.21 763.874 135.664C763.79 135.865 763.621 136.024 763.43 136.108C763.885 136.309 764.085 136.837 763.885 137.281C763.8 137.481 763.631 137.64 763.43 137.735C763.885 137.936 764.085 138.464 763.874 138.918C763.79 139.119 763.621 139.277 763.43 139.362C763.43 139.858 763.832 140.26 764.328 140.26H771.976C771.955 139.341 772.272 138.443 772.874 137.735C772.42 137.534 772.219 137.006 772.42 136.562C772.505 136.362 772.674 136.203 772.874 136.108C772.42 135.907 772.219 135.379 772.431 134.925C772.515 134.724 772.684 134.566 772.874 134.481Z" fill="#263238" stroke="#263238" stroke-width="1.05637" stroke-linecap="round" stroke-linejoin="round"/>
<path d="M779.868 140.103H737.729V148.723H779.868V140.103Z" fill="white" stroke="#263238" stroke-width="1.05637" stroke-linecap="round" stroke-linejoin="round"/>
<path d="M779.868 144.168H737.729V148.721H779.868V144.168Z" fill="#263238" stroke="#263238" stroke-width="1.05637" stroke-linecap="round" stroke-linejoin="round"/>
<path d="M745.548 148.552H740.499V153.274H745.548V148.552Z" fill="#263238" stroke="#263238" stroke-width="1.05637" stroke-linecap="round" stroke-linejoin="round"/>
<path d="M760.843 148.552H755.794V153.274H760.843V148.552Z" fill="#263238" stroke="#263238" stroke-width="1.05637" stroke-linecap="round" stroke-linejoin="round"/>
<path d="M776.13 148.552H771.08V153.274H776.13V148.552Z" fill="#263238" stroke="#263238" stroke-width="1.05637" stroke-linecap="round" stroke-linejoin="round"/>
<path d="M780.679 123.496H743.262V125.45H780.679V123.496Z" fill="white" stroke="#263238" stroke-width="1.05637" stroke-linecap="round" stroke-linejoin="round"/>
<path d="M778.571 125.291H746.521V128.217H778.571V125.291Z" fill="#263238" stroke="#263238" stroke-width="1.05637" stroke-linecap="round" stroke-linejoin="round"/>
<path d="M745.121 75.3648L741.6 79.2026L763.662 99.4397L767.182 95.6019L745.121 75.3648Z" fill="#263238" stroke="#263238" stroke-width="1.05637" stroke-linecap="round" stroke-linejoin="round"/>
<path d="M766.978 106.319H762.859V116.946H766.978V106.319Z" fill="#263238" stroke="#263238" stroke-width="1.05637" stroke-linecap="round" stroke-linejoin="round"/>
<path d="M766.535 117.094H763.334V118.869H766.535V117.094Z" fill="#263238" stroke="#263238" stroke-width="1.05637" stroke-linecap="round" stroke-linejoin="round"/>
<path d="M770.77 103.089L766.999 104.75L771.283 114.475L775.053 112.815L770.77 103.089Z" fill="#263238" stroke="#263238" stroke-width="1.05637" stroke-linecap="round" stroke-linejoin="round"/>
<path d="M774.706 113.123L771.776 114.412L772.491 116.037L775.421 114.748L774.706 113.123Z" fill="#263238" stroke="#263238" stroke-width="1.05637" stroke-linecap="round" stroke-linejoin="round"/>
<path d="M763.929 92.1528L759.587 96.4945V108.865L773.468 105.389V97.1495L763.919 92.1528H763.929Z" fill="white" stroke="#263238" stroke-width="1.05637" stroke-linecap="round" stroke-linejoin="round"/>
<path d="M773.468 102.158L759.587 105.75V108.855L773.468 105.38V102.147V102.158Z" fill="#263238" stroke="#263238" stroke-width="1.05637" stroke-linecap="round" stroke-linejoin="round"/>
<path d="M736.151 137.057C736.151 137.057 742.658 132.716 743.958 131.195C745.257 129.673 750.032 123.599 751.331 123.388C752.63 123.177 757.194 123.177 758.06 123.177C758.926 123.177 761.747 125.775 762.402 126.219C763.057 126.663 763.268 128.606 762.613 128.818C761.958 129.029 758.493 127.297 758.493 127.297L752.63 128.385C752.63 128.385 761.525 130.55 762.18 130.983C762.835 131.416 762.613 133.582 762.613 133.582L760.015 134.881C760.015 134.881 762.613 134.659 762.613 136.181C762.613 137.702 762.613 139.223 761.525 139.223H760.437C760.437 139.223 762.824 141.61 762.169 142.265C761.398 142.973 760.395 143.364 759.349 143.353C758.261 143.353 755.662 144.653 752.62 145.741C749.578 146.829 745.025 148.783 742.637 149.216C740.25 149.649 736.774 150.082 736.774 150.082C736.7 147.611 736.489 145.149 736.119 142.709C735.686 140.977 734.82 137.723 734.82 137.723L736.13 137.068L736.151 137.057Z" fill="white" stroke="#263238" stroke-width="1.05637" stroke-linecap="round" stroke-linejoin="round"/>
<path d="M760.013 134.892L755.407 135.716" stroke="#263238" stroke-width="1.05637" stroke-linecap="round" stroke-linejoin="round"/>
<path d="M760.448 139.223L755.906 140.163" stroke="#263238" stroke-width="1.05637" stroke-linecap="round" stroke-linejoin="round"/>
<path d="M682.999 92.376C680.178 96.7177 676.925 106.69 676.925 111.686C676.925 116.683 672.805 135.772 672.372 142.712C671.939 149.652 672.15 153.994 676.492 154.86C680.833 155.726 694.503 156.814 700.577 156.16C706.651 155.505 713.591 155.505 723.141 155.505C727.852 155.579 732.564 155.367 737.243 154.85C737.856 151.765 738.289 148.649 738.543 145.522C738.764 141.613 737.243 135.761 736.588 135.761C735.933 135.761 725.528 137.493 716.634 138.582C707.739 139.67 703.397 138.148 701.887 137.493C701.211 137.155 700.471 136.934 699.721 136.839V134.018L697.122 133.796L699.51 118.606C700.587 117.887 701.485 116.915 702.108 115.785C702.763 114.264 703.63 106.457 703.197 101.683C702.763 96.9078 698.21 94.0873 698.21 94.0873" fill="white"/>
<path d="M682.999 92.376C680.178 96.7177 676.925 106.69 676.925 111.686C676.925 116.683 672.805 135.772 672.372 142.712C671.939 149.652 672.15 153.994 676.492 154.86C680.833 155.726 694.503 156.814 700.577 156.16C706.651 155.505 713.591 155.505 723.141 155.505C727.852 155.579 732.564 155.367 737.243 154.85C737.856 151.765 738.289 148.649 738.543 145.522C738.764 141.613 737.243 135.761 736.588 135.761C735.933 135.761 725.528 137.493 716.634 138.582C707.739 139.67 703.397 138.148 701.887 137.493C701.211 137.155 700.471 136.934 699.721 136.839V134.018L697.122 133.796L699.51 118.606C700.587 117.887 701.485 116.915 702.108 115.785C702.763 114.264 703.63 106.457 703.197 101.683C702.763 96.9078 698.21 94.0873 698.21 94.0873" stroke="#263238" stroke-width="1.05637" stroke-linecap="round" stroke-linejoin="round"/>
<path d="M696.669 135.538C696.669 135.538 694.937 138.58 688.43 141.179" stroke="#263238" stroke-width="1.05637" stroke-linecap="round" stroke-linejoin="round"/>
<path d="M697.324 137.925C697.324 137.925 687.563 145.299 685.387 148.119" stroke="#263238" stroke-width="1.05637" stroke-linecap="round" stroke-linejoin="round"/>
<path d="M677.37 140.748C677.37 140.748 685.61 140.537 691.473 136.839" stroke="#263238" stroke-width="1.05637" stroke-linecap="round" stroke-linejoin="round"/>
<path d="M698.41 117.75C696.562 115.31 694.185 113.303 691.47 111.887" stroke="#263238" stroke-width="1.05637" stroke-linecap="round" stroke-linejoin="round"/>
<path d="M1270.77 72.3719C1272.03 69.562 1271.82 66.3083 1270.2 63.6885C1269.66 63.0547 1269.33 62.2836 1269.25 61.4596C1269.3 60.5089 1270.12 59.8328 1270.72 59.0933C1272.28 57.0968 1272.43 54.3502 1271.11 52.1953C1270.64 51.4769 1270.03 50.8537 1269.62 50.1036C1268.46 48.0015 1269.12 45.3922 1269.81 43.0894C1270.24 41.3041 1270.95 39.6033 1271.89 38.0293C1272.61 37.1948 1273.17 36.2441 1273.56 35.2088C1273.84 34.068 1273.48 32.8109 1273.95 31.7334C1274.48 30.4974 1275.92 29.9059 1276.64 28.765C1277.6 27.2544 1277.03 25.2367 1276.07 23.7261C1275.35 22.8282 1274.8 21.8246 1274.42 20.7471C1274.3 19.7753 1274.31 18.7929 1274.46 17.8316C1274.59 13.8385 1272.33 10.1412 1268.72 8.44045C1266.69 7.53197 1264.3 7.27844 1262.64 5.81009C1261.44 4.76429 1260.77 3.21142 1259.54 2.21844C1257.87 1.02474 1255.74 0.686702 1253.78 1.2994C1251.86 1.92265 1250.04 2.84169 1248.41 4.03539C1246.96 3.60228 1245.41 3.64453 1243.99 4.16216C1239.7 5.61994 1236.18 8.76792 1234.26 12.8772C1233.65 14.1977 1233.22 15.5921 1232.5 16.8597C1231.37 18.4865 1230.14 20.0499 1228.84 21.55C1227.67 23.1557 1226.8 25.1839 1227.33 27.1065C1227.78 28.691 1229.1 29.927 1229.41 31.5432C1230.11 35.1771 1225.51 37.723 1224.89 41.3675C1224.36 44.4098 1226.74 47.4627 1225.98 50.4522C1225.41 52.7129 1223.25 54.1284 1221.41 55.5651C1219.56 57.0017 1217.73 59.1039 1218.23 61.3751C1218.58 63.0336 1220.12 64.2907 1220.29 65.9809C1220.64 69.5091 1215.05 71.7486 1215.82 75.2135C1216.3 77.4213 1219.01 78.1819 1221.26 78.4566C1236.22 80.2735 1251.46 78.6573 1266.05 74.9072C1267.93 74.4212 1269.97 74.1677 1270.78 72.393L1270.77 72.3719Z" fill="#27304C"/>
<path d="M1278.36 124.449C1279.26 126.795 1280.62 129.013 1281.06 131.485C1281.23 133.397 1281.87 135.246 1282.93 136.851C1283.29 137.316 1283.92 136.925 1284.47 137.115C1285.27 137.295 1286.11 137.158 1286.8 136.714C1293.27 133.302 1296.61 125.96 1294.94 118.84C1294.64 117.573 1294.08 116.368 1293.31 115.322C1291.4 113.083 1288.44 112.048 1285.55 112.597C1282.69 113.189 1280.16 114.794 1278.4 117.108C1276.64 119.305 1277.36 121.798 1278.37 124.428L1278.36 124.449Z" fill="white"/>
<path d="M1264.86 66.0221C1264.51 65.7157 1264.08 65.515 1263.63 65.4516C1261.81 64.9762 1260.08 64.1945 1258.51 63.1593C1258.07 62.8952 1257.69 62.5466 1257.39 62.1346C1257.04 61.4585 1256.9 60.7085 1256.95 59.9585C1256.84 58.2366 1257.18 56.5042 1257.92 54.9407C1260.46 55.7753 1263.24 55.2577 1265.3 53.5569C1267.31 51.8562 1268.84 49.6589 1269.72 47.1764C1270.45 45.4651 1270.89 43.6482 1271.04 41.7995C1271.16 39.7819 1270.76 37.7642 1270.69 35.7465C1270.54 31.0034 1272.2 26.1019 1270.66 21.6229C1270.46 21.0524 1270.27 20.8517 1270.11 20.2813C1269.73 18.9186 1268.72 17.8305 1267.39 17.3551C1266.64 17.1967 1265.91 16.9432 1265.22 16.6051C1264.38 16.0347 1264.01 14.9361 1263.14 14.3973C1262.23 14.0064 1261.24 13.8691 1260.26 13.9853C1259.27 13.9642 1258.11 13.5945 1257.85 12.6543C1257.22 15.0206 1255.76 17.0594 1253.71 18.3904C1252.13 19.3728 1250.09 20.144 1249.64 21.9398C1249.31 23.1969 1249.91 24.6124 1249.37 25.785C1248.8 27.0315 1247.24 27.4329 1246.23 28.3519C1245.04 29.4717 1244.68 31.2147 1245.35 32.7042C1244.33 31.8274 1243 31.4048 1241.66 31.5105C1239.95 31.933 1238.8 33.5387 1238.97 35.3028C1239.19 37.0036 1240 38.5776 1241.27 39.7396C1242.24 40.7431 1243.55 41.6728 1244.93 41.3981H1244.63C1245.08 46.6482 1245.01 52.6273 1243.35 57.6134C1241.7 62.5994 1238.2 67.1841 1233.33 69.1595C1230.16 74.0082 1229.54 80.5577 1229.74 86.3572C1229.68 89.1354 1230.23 91.9031 1231.34 94.4595C1232.95 97.6709 1235.99 99.9104 1239.03 101.812C1244.74 105.382 1250.86 108.256 1257.27 110.358C1259.46 111.256 1261.85 111.573 1264.2 111.266C1267.61 110.569 1270.14 107.474 1271.17 104.136C1272.19 100.798 1271.98 97.2272 1271.7 93.7412C1271.19 87.6459 1270.49 81.5718 1269.59 75.5188C1268.98 71.9694 1267.35 68.663 1264.89 66.0326L1264.86 66.0221Z" fill="white"/>
<path d="M1280.2 148.948C1273.35 151.736 1265.68 151.472 1258.3 150.881C1249.62 150.184 1241.18 149.307 1232.59 147.828C1232.81 144.014 1232.74 140.18 1232.35 136.377C1232.05 134.116 1231.55 131.877 1231.04 129.658C1230.3 126.447 1229.64 123.267 1228.9 120.066C1223.3 120.574 1217.64 119.528 1212.59 117.035C1211.25 107.96 1211.24 98.7384 1212.56 89.6642C1213.36 84.2555 1214.83 78.53 1218.99 74.9806C1220.63 73.6813 1222.44 72.5932 1224.36 71.7481C1228.59 69.7093 1232.98 68.1776 1237.27 66.2761C1243.21 74.4313 1250.62 81.3928 1259.12 86.8225C1263 80.5899 1264.48 73.1425 1264.28 65.8008C1270.13 66.7938 1275.16 69.6882 1280.31 72.646C1282.09 73.5651 1283.74 74.7271 1285.22 76.0792C1288.23 79.1005 1289.29 83.5055 1290.17 87.6782C1292.38 97.5869 1294.09 107.612 1295.3 117.69C1291.57 117.204 1287.79 117.943 1284.52 119.813C1283.36 120.352 1282.46 121.324 1282.03 122.528C1280.28 129.394 1281.36 136.514 1282.03 143.571C1282.23 144.775 1282.19 146.011 1281.88 147.194C1281.49 148.345 1281.32 148.493 1280.19 148.958L1280.2 148.948Z" fill="white" stroke="#27304C" stroke-width="1.05637"/>
<path d="M1279.87 93.6787C1278.48 96.1717 1279.18 99.2986 1280.31 101.918C1281.44 104.538 1282.99 107.052 1283.3 109.883C1283.78 114.352 1281.07 118.556 1280.75 123.046" stroke="#263238" stroke-width="0.845095"/>
<path d="M1296.16 155.933C1294.1 152.077 1290.75 148.517 1286.42 147.883C1281.64 147.175 1276.52 151.728 1271.94 150.165C1265.56 147.989 1259.48 144.999 1253.19 142.58C1246.97 140.003 1240.3 138.693 1233.56 138.714C1232.34 132.545 1232.99 125.52 1232.76 119.192C1227.34 119.636 1218.49 119.509 1214.64 117.903C1215.28 125.625 1216.44 133.295 1218.13 140.858C1218.58 142.992 1219.26 145.073 1220.14 147.07C1220.6 148.401 1221.5 149.542 1222.69 150.292C1223.41 150.609 1224.18 150.788 1224.96 150.841C1237.34 152.394 1249.79 153.397 1262.27 153.873C1265.98 154.01 1268.42 158.478 1271.95 159.598C1273.53 160.021 1275.17 160.158 1276.8 160.021C1283.42 159.672 1289.95 158.288 1296.15 155.933H1296.16Z" fill="white" stroke="#263238" stroke-width="1.05637"/>
<path d="M1244.9 36.1281C1244.72 35.1774 1244.23 34.3112 1243.51 33.6668C1242.73 33.1069 1241.37 33.3393 1241.16 34.2689" stroke="#27304C" stroke-width="0.823968"/>
<path d="M1243.84 34.0682C1243.05 34.0153 1242.26 34.2794 1241.67 34.8182" stroke="#EF8054" stroke-width="0.823968"/>
<path d="M1251.27 49.0801C1252.9 51.5942 1255.13 53.6647 1257.76 55.0908" stroke="#27304C" stroke-width="0.823968"/>
<path d="M1254.94 99.6697C1254.45 96.8386 1253.13 90.0884 1253.15 90.0039C1248.58 90.2257 1244.04 90.7328 1239.54 91.504C1240.19 94.3667 1240.49 98.6661 1240.85 101.571C1245.08 100.937 1250.66 100.124 1254.93 99.6697H1254.94Z" fill="white"/>
<path d="M1248.03 92.1136C1247.15 92.2404 1246.35 92.2932 1245.37 92.4939C1244.88 92.589 1244.39 92.2826 1244.28 91.7967C1244.15 91.3002 1244.04 90.8354 1243.93 90.3389C1243.8 89.8318 1244.11 89.3248 1244.61 89.198C1244.65 89.198 1244.68 89.1875 1244.72 89.1769C1245.62 89.0607 1246.51 88.9551 1247.41 88.8389C1247.88 88.7755 1248.31 89.0607 1248.44 89.5149C1248.6 90.0642 1248.68 90.4445 1248.81 90.9516C1248.93 91.4587 1248.62 91.9763 1248.11 92.103C1248.09 92.103 1248.06 92.1136 1248.04 92.1136H1248.03Z" fill="#27304C"/>
<path d="M1230.4 39.2451C1229.44 40.217 1228.97 41.5586 1229.1 42.9213C1229.16 44.2629 1229.54 45.5728 1229.65 46.9144C1229.93 50.2208 1228.67 53.4638 1226.24 55.7139C1224.48 57.3407 1221.97 58.6717 1221.72 61.0591" stroke="#3E4E72" stroke-width="0.845095"/>
<path d="M1239.4 52.1021L1239.16 54.6268C1239.08 55.8627 1238.89 57.0775 1238.59 58.2818C1238.06 60.141 1237.05 61.8101 1235.63 63.1305C1234.02 64.6411 1231.95 65.613 1230.37 67.1659" stroke="#3E4E72" stroke-width="0.845095"/>
<path d="M1262.74 57.4683C1262.29 59.1056 1262.5 60.8592 1263.31 62.3487" stroke="#3E4E72" stroke-width="0.845095"/>
<path d="M1235.59 25.3525C1234.63 27.1695 1234.6 29.3456 1235.52 31.1943C1236.15 32.071 1236.59 33.064 1236.81 34.1204C1236.84 34.881 1236.5 35.6204 1236.47 36.381C1236.47 37.3951 1236.9 38.3564 1237.64 39.0536C1238.38 39.7297 1239.24 40.2685 1240.18 40.6382" stroke="#3E4E72" stroke-width="0.845095"/>
<path d="M1251.12 15.9844C1248.88 16.6921 1247.15 18.4668 1246.49 20.7275C1246.24 22.0162 1246.06 23.3261 1245.93 24.636C1245.8 25.9671 1245.14 27.1819 1244.08 27.9953C1243 28.6925 1241.45 28.7453 1240.77 29.8334" stroke="#3E4E72" stroke-width="0.845095"/>
<path d="M1246.06 16.3643C1244.7 17.6002 1243.97 19.396 1244.08 21.2341" stroke="#3E4E72" stroke-width="0.845095"/>
<path d="M1242.66 8.41113C1240.7 9.15059 1238.54 10.0908 1237.79 12.0345C1237.53 13.038 1237.33 14.0521 1237.2 15.0768C1236.69 16.9255 1235.22 18.3516 1233.35 18.7952" stroke="#3E4E72" stroke-width="0.845095"/>
<path d="M1250.1 5.70557C1253.01 6.08586 1255.51 7.95563 1256.7 10.6282" stroke="#3E4E72" stroke-width="0.845095"/>
<path d="M1259.81 10.4375C1261 10.765 1262.2 10.934 1263.43 10.9657C1264.66 10.9974 1265.83 11.5573 1266.63 12.4974C1267.18 13.2791 1267.28 14.3461 1267.92 15.0538C1268.61 15.6137 1269.39 16.0574 1270.22 16.3637C1272.48 17.6102 1273.24 20.5258 1273.2 23.1139C1273.16 25.702 1272.53 28.3007 1272.99 30.8465" stroke="#3E4E72" stroke-width="0.845095"/>
<path d="M1257.29 7.78776C1259.02 7.03774 1260.99 7.12225 1262.66 8.02016" stroke="#3E4E72" stroke-width="0.845095"/>
<path d="M1267.39 54.3618C1268.53 55.5766 1268.88 57.3302 1268.27 58.8831C1267.86 59.9078 1267.06 60.774 1266.89 61.862C1266.64 63.51 1267.9 64.9678 1269.09 66.1509" stroke="#3E4E72" stroke-width="0.845095"/>
<path d="M1239.84 50.3284C1240.2 48.9868 1239.32 47.6135 1239.37 46.2191C1239.48 45.2473 1239.83 44.3282 1240.38 43.5254" stroke="#3E4E72" stroke-width="0.845095"/>
<path d="M1221.79 62.5269C1221.4 64.3227 1222.72 66.0129 1223 67.8298C1223.28 70.2489 1221.75 72.5095 1219.4 73.1328" stroke="#3E4E72" stroke-width="1.03524"/>
<path d="M1291.37 122.74C1297.09 112.842 1302.89 102.997 1308.76 93.1723C1310.28 90.6264 1311.84 87.9221 1311.84 84.9643C1311.84 82.7565 1310.94 80.5804 1311.26 78.4043C1311.81 74.707 1315.76 71.6963 1314.96 68.0307C1316.66 67.999 1317.34 70.2702 1317.08 71.9498C1316.82 73.6295 1316.19 75.5098 1317.19 76.8937C1321.04 72.2456 1324.98 67.3758 1328.84 62.7277C1329.56 61.8615 1330.56 60.8897 1331.65 61.196C1332.05 62.1362 1331.42 63.1714 1330.81 63.9954C1328.36 67.3863 1325.91 70.7773 1323.45 74.1682C1324.2 73.7774 1324.87 73.2281 1325.39 72.5625C1327.98 69.0976 1330.57 65.6222 1333.16 62.1573C1333.43 61.7242 1333.81 61.3545 1334.25 61.0692C1334.7 60.7946 1335.29 60.858 1335.68 61.2171C1336.15 61.7453 1335.84 62.5693 1335.48 63.182C1332.67 68.0835 1328.54 72.1294 1325.76 77.0521C1328.83 74.1577 1332.04 71.4111 1335.38 68.8441C1335.54 68.6962 1335.73 68.5906 1335.94 68.5378C1336.37 68.4849 1336.72 68.9392 1336.79 69.3723C1336.85 70.2597 1336.5 71.1364 1335.84 71.7491C1335.2 72.3513 1334.67 73.0696 1334.29 73.8724C1334.54 73.302 1335.44 73.471 1335.86 73.9358C1336.25 74.4429 1336.31 75.1295 1336 75.6894C1335.69 76.2387 1335.28 76.7141 1334.79 77.0944L1317.97 92.1054C1317.12 92.7075 1316.5 93.5843 1316.22 94.5878C1314.24 107.708 1308.24 119.497 1303.79 131.994C1302.54 135.512 1301.06 139.082 1298.37 141.67C1295.69 144.258 1291.51 145.642 1288.13 144.058C1284.86 142.536 1283.5 139.251 1282.26 135.86C1282.33 135.512 1282.42 135.174 1282.55 134.846C1285.14 130.695 1287.95 126.68 1290.95 122.825C1291.2 122.508 1291.16 123.089 1291.36 122.74H1291.37Z" fill="white" stroke="#263238" stroke-width="1.05637"/>
<path d="M1250.46 31.0454C1252.09 29.0488 1254.88 28.4256 1257.22 29.5348" stroke="#27304C" stroke-width="1.18313"/>
<path d="M1256.83 29.8202C1254.52 29.2286 1252.07 29.6934 1250.15 31.0878" stroke="#27304C" stroke-width="1.18313"/>
<path d="M1254.76 32.2402C1254.3 32.9374 1254.19 33.7931 1254.43 34.5748C1254.55 34.934 1254.96 35.3248 1255.23 35.0607C1255.32 34.9551 1255.37 34.8389 1255.37 34.7016C1255.48 33.941 1255.44 33.1698 1255.28 32.4198C1255.26 32.3036 1255.21 32.198 1255.13 32.1135C1254.97 32.0078 1254.75 32.0395 1254.63 32.1874C1254.51 32.3353 1254.45 32.5149 1254.45 32.705C1254.38 33.4339 1254.54 34.1628 1254.9 34.7861C1255.2 34.2262 1255.19 33.5396 1254.86 32.9903C1254.63 33.3072 1254.68 33.7508 1254.98 34.0044" stroke="#27304C" stroke-width="1.18313"/>
<path d="M1270.41 30.9524C1269.09 28.9981 1266.51 28.3431 1264.42 29.4418" stroke="#27304C" stroke-width="1.11975"/>
<path d="M1264.77 29.7285C1266.83 29.1369 1269.05 29.6123 1270.69 30.9961" stroke="#27304C" stroke-width="1.11975"/>
<path d="M1266.61 32.1466C1267.01 32.8544 1267.11 33.6995 1266.9 34.4812C1266.81 34.8403 1266.43 35.2312 1266.19 34.9671C1266.12 34.8615 1266.08 34.7347 1266.07 34.6079C1265.97 33.8473 1266 33.0868 1266.15 32.3367C1266.16 32.2311 1266.21 32.1255 1266.28 32.0304C1266.42 31.9248 1266.61 31.9564 1266.71 32.0832C1266.71 32.0832 1266.71 32.0938 1266.72 32.1043C1266.83 32.2628 1266.88 32.4424 1266.88 32.622C1266.94 33.3403 1266.81 34.0586 1266.49 34.703C1266.22 34.1326 1266.23 33.4671 1266.52 32.9072C1266.72 33.2346 1266.69 33.6466 1266.43 33.9319" stroke="#27304C" stroke-width="1.11975"/>
<path d="M1262.34 32.8638C1262.08 34.723 1263.17 36.4766 1264.28 37.9766C1264.44 38.1667 1264.57 38.3886 1264.65 38.6315C1264.72 39.1386 1264.55 39.6562 1264.2 40.026C1263.84 40.3957 1263.58 40.8288 1263.4 41.3042" stroke="#27304C" stroke-width="1.03524"/>
<path d="M1251.55 57.1065C1253.22 58.522 1258.77 61.7545 1261.29 61.0362C1263.82 60.3179 1267.69 57.7298 1268.91 54.6557C1269.95 51.7824 1270.58 48.7717 1270.76 45.7188C1270.78 44.7575 1270.72 43.7962 1270.62 42.835C1267.65 41.2293 1264.3 40.437 1260.93 40.5321C1255.87 40.8912 1247 42.6237 1247 42.6237L1245.8 42.1694L1247.25 50.5676C1247.92 51.8141 1250.16 55.9128 1251.56 57.1065H1251.55Z" fill="#1C53A1" stroke="#263238" stroke-width="1.05637" stroke-linecap="round" stroke-linejoin="round"/>
<path d="M1233.12 117.901C1233.12 117.901 1237.51 98.1156 1233.12 96.6367" stroke="#263238" stroke-width="1.05637"/>
<path d="M1234.78 152.032L1232.75 159.87" stroke="#263238" stroke-width="1.05637"/>
<path d="M1130.84 12.7801L1129.89 22.7734C1129.89 22.7734 1124.37 22.3931 1122.76 19.1606C1121.79 16.8049 1121.47 14.2168 1121.86 11.6921L1122.57 7.83631C1124.43 6.95952 1126.6 7.06516 1128.37 8.12153C1130.05 9.04057 1131.02 10.8787 1130.84 12.7801Z" fill="#B5B5B5" stroke="#263238" stroke-width="1.05637"/>
<path d="M1091.61 44.8325L1111.83 39.8992L1121.85 11.6836C1123.06 13.9337 1124.42 16.0887 1125.93 18.138C1127.38 19.6697 1129.03 20.9902 1130.86 22.0466C1130.86 22.0466 1127.46 40.5753 1126.28 46.5226C1125.09 52.47 1124.91 53.4947 1123.39 54.8468C1121.87 56.199 1103.51 67.7662 1103.51 67.7662C1103.51 67.7662 1109.63 79.1539 1110.31 87.14C1110.98 95.1262 1111.5 104.475 1111.5 104.475C1111.5 104.475 1096.54 80.6856 1091.11 73.7136C1085.68 66.7415 1083.46 56.2095 1084.66 50.7692C1085.85 45.3289 1091.62 44.8219 1091.62 44.8219L1091.61 44.8325Z" fill="white" stroke="#263238" stroke-width="1.05637"/>
<path d="M1098.8 50.2506L1103.51 67.7757L1106.96 47.0181" stroke="#263238" stroke-width="1.05637"/>
<path d="M1112.4 40.3955C1115.72 41.7794 1118.05 44.8217 1118.51 48.3817" stroke="#263238" stroke-width="1.05637"/>
<path d="M1116.12 40.3955C1116.12 40.3955 1122.58 41.7582 1122.93 48.5507" stroke="#263238" stroke-width="1.05637"/>
<path d="M1092.17 51.4473L1100.66 69.1203L1098.79 72.3528L1103.04 75.7543L1104.22 82.3777" stroke="#263238" stroke-width="1.05637"/>
<path d="M1061.79 29.5884C1061.79 29.5884 1051.76 32.8209 1048.53 39.1063C1045.3 45.3917 1053.11 56.7793 1054.31 61.0259C1055.5 65.2725 1053.8 66.8043 1052.27 65.6106C1050.74 64.4169 1049.04 66.8043 1050.74 69.5191C1052.44 72.234 1061.79 70.1952 1064.84 68.674C1067.89 67.1529 1067.22 56.9483 1065.52 50.3249C1063.81 43.7015 1061.78 36.2224 1062.79 32.9899C1063.8 29.7574 1061.78 29.5884 1061.78 29.5884H1061.79Z" fill="#263238" stroke="#263238" stroke-width="1.05637"/>
<path d="M1093.48 15.7739C1093.48 15.7739 1098.41 21.7213 1098.75 24.0981C1098.96 25.3341 1099.02 26.5911 1098.92 27.8377C1098.92 27.8377 1101.3 30.5525 1101.8 30.9011C1102.31 31.2497 1104.01 32.2638 1103 33.616C1102.33 34.44 1101.34 34.9365 1100.28 34.9787C1100.38 37.5351 1100.27 40.0915 1099.95 42.6268C1099.44 45.0037 1098.41 45.8593 1096.54 46.0283C1094.67 46.1974 1092.3 46.1974 1092.3 46.1974L1090.43 55.7152L1092.8 68.117L1075.12 48.9122C1075.12 48.9122 1076.82 41.9402 1076.82 40.588C1076.82 39.2359 1074.28 36.6795 1076.48 29.5384C1078.69 22.3974 1093.48 15.7739 1093.48 15.7739Z" fill="white" stroke="#263238" stroke-width="1.05637"/>
<path d="M1076.31 33.9634C1076.31 33.9634 1079.38 34.9775 1080.22 32.7697C1081.07 30.5619 1079.71 27.8365 1083.96 25.4597C1088.21 23.0828 1095.69 21.3821 1097.22 17.4735C1098.75 13.5649 1097.05 9.48736 1094.67 8.9803C1092.29 8.47325 1089.4 9.8254 1084.82 9.99442C1080.23 10.1634 1066.77 10.1001 1062.53 16.5545C1058.28 23.0089 1062.38 34.6395 1063.57 37.1854C1064.77 39.7312 1064.77 46.3652 1069.69 46.7032C1074.61 47.0413 1078.01 43.3017 1078.35 40.5869C1078.69 37.872 1076.32 33.9634 1076.32 33.9634H1076.31Z" fill="#263238" stroke="#263238" stroke-width="1.05637"/>
<g opacity="0.5">
<path d="M1075.12 31.9262L1099.6 23.6021C1099.6 23.6021 1104.01 26.3169 1100.96 29.8874L1088.39 33.965L1075.3 33.627L1075.13 31.9262H1075.12Z" fill="white"/>
</g>
<path d="M1075.12 31.9262L1099.6 23.6021C1099.6 23.6021 1104.01 26.3169 1100.96 29.8874L1088.39 33.965L1075.3 33.627L1075.13 31.9262H1075.12Z" stroke="#263238" stroke-width="1.05637"/>
<path d="M1075.13 31.9261L1099.6 23.5913" stroke="#263238" stroke-width="2.11274" stroke-linecap="round"/>
<path d="M1085.83 28.8623L1088.38 33.9646" stroke="#263238" stroke-width="1.05637"/>
<path d="M1079.55 35.1481C1079.04 35.1481 1074.61 29.2008 1072.4 30.9015C1070.2 32.6023 1072.24 38.7187 1074.95 39.9124C1077.66 41.1061 1079.88 38.2116 1079.88 38.2116" fill="white"/>
<path d="M1079.55 35.1481C1079.04 35.1481 1074.61 29.2008 1072.4 30.9015C1070.2 32.6023 1072.24 38.7187 1074.95 39.9124C1077.66 41.1061 1079.88 38.2116 1079.88 38.2116" stroke="#263238" stroke-width="1.05637"/>
<path d="M1096.04 28.354C1096.04 29.1991 1095.73 29.8857 1095.36 29.8857C1094.99 29.8857 1094.68 29.1991 1094.68 28.354C1094.68 27.5089 1094.99 26.8223 1095.36 26.8223C1095.73 26.8223 1096.04 27.5089 1096.04 28.354Z" fill="#263238"/>
<path d="M1074.62 46.873C1074.62 46.873 1083.45 54.1831 1088.39 62.1693C1093.32 70.1554 1105.89 84.427 1107.93 89.1912C1109.97 93.9554 1111.67 98.8781 1111.67 102.956C1111.67 107.033 1112.01 137.964 1112.01 138.64V160.052H1059.83C1059.83 160.052 1063.07 115.357 1063.07 105.84C1063.07 96.3217 1058.99 87.6595 1062.05 74.064C1064.08 64.1447 1068.39 54.8381 1074.63 46.873H1074.62Z" fill="white" stroke="#263238" stroke-width="1.05637"/>
<path d="M1071.22 51.8066L1090.09 77.8039L1094.84 76.2721L1094.5 82.0505L1106.4 88.3359" stroke="#263238" stroke-width="1.05637"/>
<path d="M1106.85 137.775H1079.41V142.17H1104.66" stroke="#263238" stroke-width="1.05637"/>
<path d="M1134.72 23.5786H1137.29V30.9309C1137.29 31.6387 1136.72 32.2197 1136 32.2197C1135.29 32.2197 1134.71 31.6493 1134.71 30.9309V23.5786H1134.72Z" fill="white" stroke="#263238" stroke-width="1.05637"/>
<path d="M1137.91 22.0146H1134.11V24.5816H1137.91V22.0146Z" fill="white" stroke="#263238" stroke-width="1.05637"/>
<path d="M1149.01 8.31256C1149.01 8.31256 1150.34 10.4042 1150.15 11.6401C1149.96 12.8761 1148.15 18.2952 1147.58 18.3903C1147.01 18.4854 1146.92 17.8199 1147.11 15.9184C1147.3 14.017 1147.58 12.781 1147.58 12.2106C1147.58 11.6401 1147.96 7.17168 1149.01 8.31256Z" fill="#92E3A9" stroke="#263238" stroke-width="1.05637" stroke-linecap="round" stroke-linejoin="round"/>
<path d="M1123.43 5.7457C1123.43 5.7457 1121.24 9.54863 1122.86 11.7353C1124.47 13.922 1127.99 14.1121 1127.99 14.1121C1127.99 14.1121 1128.56 18.3904 1129.42 19.056C1130.77 20.3975 1131.87 21.9821 1132.65 23.7145C1132.93 24.7603 1134.93 23.4293 1134.93 22.5737C1134.49 20.7778 1133.89 19.0243 1133.12 17.3446C1132.74 16.3939 1133.6 13.8269 1133.89 12.9713C1134.01 12.5382 1134.2 12.1156 1134.46 11.7353C1134.46 11.7353 1137.21 14.3974 1137.5 15.9185C1137.78 17.4397 1137.02 23.049 1137.78 23.7145C1138.54 24.3801 1140.54 24.1899 1140.92 23.049C1141.46 20.0912 1141.81 17.1017 1141.97 14.1016C1141.97 12.9607 1140.16 9.0627 1140.16 9.0627C1140.16 9.0627 1143.11 12.01 1143.2 13.0558C1143.3 14.1016 1142.44 20.7567 1142.92 20.9574C1143.51 21.306 1144.26 21.2638 1144.82 20.8623C1145.36 20.2497 1145.78 19.5419 1146.05 18.7707C1146.05 18.7707 1147.96 14.3023 1148.72 12.2107C1149.48 10.1191 1150.14 7.74224 1148.43 6.88658C1145.87 5.55556 1143.23 4.38299 1140.53 3.36887C1135.68 1.46741 1128.83 0.0413092 1126.35 1.8477C1124.96 2.77731 1123.92 4.15059 1123.41 5.7457H1123.43Z" fill="#1C53A1" stroke="#263238" stroke-width="1.05637" stroke-linecap="round" stroke-linejoin="round"/>
<path d="M1127.99 14.1119L1127.61 7.2666" stroke="#263238" stroke-width="1.05637"/>
<path d="M1127.89 11.6396C1127.89 11.6396 1124.08 11.5445 1123.7 6.6958" stroke="#263238" stroke-width="1.05637"/>
<path d="M1147.11 15.9284C1147.11 15.9284 1148.35 12.3156 1147.3 10.6043C1146.25 8.89301 1142.26 6.23096 1142.26 6.23096" stroke="#263238" stroke-width="1.05637"/>
<path d="M1120.39 72.6246C1122.63 70.4273 1124.75 68.1139 1126.76 65.6948C1126.88 65.2511 1126.98 59.2192 1127.66 57.8777C1128.33 56.5361 1130.56 52.6275 1130.68 51.4021C1130.8 50.1767 1130.8 46.0358 1130.68 44.5885C1130.56 43.1413 1132.02 43.0251 1133.02 44.3667C1133.93 45.8351 1134.37 47.5569 1134.25 49.2788C1134.17 50.4091 1134.28 51.5394 1134.59 52.6275C1135.43 53.5677 1136.46 54.3177 1137.61 54.867C1138.51 55.0888 1143.86 52.4057 1145.43 51.8564C1146.99 51.307 1147.99 46.7118 1148.22 46.2682C1148.44 45.8245 1148.55 42.4652 1148.66 41.6835C1148.76 40.9018 1150.22 39.8983 1150.78 41.7997C1151.34 43.7012 1151.12 48.1696 1151 49.395C1150.89 50.6204 1151 53.1979 1150.44 53.8635C1149.88 54.529 1146.31 57.6664 1145.98 58.1101C1145.64 58.5537 1144.3 62.9165 1143.85 63.5821C1143.41 64.2476 1139.61 65.7054 1137.04 67.2688C1135.18 68.4625 1133.43 69.8041 1131.79 71.2935C1132.22 71.7689 1132.22 72.4978 1131.79 72.9732C1131.12 73.5436 1130.37 73.9978 1129.56 74.3148L1127.21 79.903L1120.4 72.6351L1120.39 72.6246Z" fill="#B5B5B5" stroke="#263238" stroke-width="1.05637"/>
<path d="M1143.85 63.5713C1144.3 62.9058 1145.64 58.543 1145.98 58.0993C1146.31 57.6556 1149.89 54.5288 1150.45 53.8527C1151.01 53.1766 1150.89 50.6097 1151.01 49.3843C1151.12 48.1589 1151.34 43.6904 1150.78 41.789C1150.22 39.8875 1148.78 40.8911 1148.66 41.6728C1148.54 42.4545 1148.44 45.8032 1148.22 46.2574C1147.99 46.7117 1146.99 51.2857 1145.43 51.8456C1143.86 52.4055 1138.5 55.0887 1137.61 54.8563C1136.47 54.3175 1135.44 53.5569 1134.59 52.6168C1134.28 51.5287 1134.17 50.3984 1134.25 49.2681C1134.37 47.5462 1133.93 45.8243 1133.03 44.356C1132.02 43.0144 1130.56 43.1306 1130.68 44.5778C1130.8 46.025 1130.8 50.166 1130.68 51.3914C1130.56 52.6168 1128.34 56.5359 1127.66 57.8669C1126.98 59.1979 1126.88 65.2404 1126.76 65.684C1125.75 66.9939 1124.66 68.2405 1123.5 69.413L1129.46 74.5259L1129.55 74.2935C1130.36 73.9765 1131.12 73.5223 1131.78 72.9519C1132.21 72.4765 1132.21 71.7476 1131.78 71.2722C1133.42 69.7933 1135.17 68.4412 1137.03 67.2475C1139.6 65.684 1143.39 64.2368 1143.84 63.5607L1143.85 63.5713Z" fill="#1C53A1" stroke="#263238" stroke-width="1.05637" stroke-linecap="round" stroke-linejoin="round"/>
<path d="M1145.98 58.0991L1142.17 60.8879" stroke="#263238" stroke-width="1.05637"/>
<path d="M1070.7 64.5423C1070.7 64.5423 1076.47 63.5176 1079.88 66.243C1083.28 68.9685 1084.46 74.0602 1084.63 74.5672C1084.8 75.0743 1100.77 89.6944 1100.77 89.6944L1120.82 71.1657L1130.68 80.8526C1130.68 80.8526 1118.11 96.8249 1111.64 102.941C1105.18 109.058 1100.42 111.952 1099.24 112.459C1098.06 112.966 1096.86 112.459 1095.5 111.614C1094.14 110.769 1065.93 82.3843 1065.93 82.3843" fill="white"/>
<path d="M1070.7 64.5423C1070.7 64.5423 1076.47 63.5176 1079.88 66.243C1083.28 68.9685 1084.46 74.0602 1084.63 74.5672C1084.8 75.0743 1100.77 89.6944 1100.77 89.6944L1120.82 71.1657L1130.68 80.8526C1130.68 80.8526 1118.11 96.8249 1111.64 102.941C1105.18 109.058 1100.42 111.952 1099.24 112.459C1098.06 112.966 1096.86 112.459 1095.5 111.614C1094.14 110.769 1065.93 82.3843 1065.93 82.3843" stroke="#263238" stroke-width="1.05637"/>
<path d="M1070.36 76.4475C1070.36 76.4475 1075.63 71.5142 1078.34 71.3452C1080.1 71.3452 1081.77 72.0741 1082.93 73.384" stroke="#263238" stroke-width="1.05637"/>
<path d="M1067.64 72.3593C1067.64 72.3593 1074.1 68.1127 1077.84 70.1515" stroke="#263238" stroke-width="1.05637"/>
<path d="M1100.78 89.6934C1100.78 89.6934 1096.36 99.0422 1097.04 103.458" stroke="#263238" stroke-width="1.05637"/>
<path d="M1099.94 90.2109C1097 92.2392 1094.79 95.1547 1093.65 98.5351" stroke="#263238" stroke-width="1.05637"/>
<path d="M1140.86 35.5356H1143.43V42.888C1143.43 43.5957 1142.86 44.1767 1142.14 44.1767C1141.43 44.1767 1140.85 43.6063 1140.85 42.888V35.5356H1140.86Z" fill="white" stroke="#263238" stroke-width="1.05637"/>
<path d="M1144.05 33.9717H1140.25V36.5387H1144.05V33.9717Z" fill="white" stroke="#263238" stroke-width="1.05637"/>
<path d="M1145.67 35.5356H1148.24V42.888C1148.24 43.5957 1147.67 44.1767 1146.95 44.1767C1146.24 44.1767 1145.66 43.6063 1145.66 42.888V35.5356H1145.67Z" fill="white" stroke="#263238" stroke-width="1.05637"/>
<path d="M1148.85 33.9717H1145.05V36.5387H1148.85V33.9717Z" fill="white" stroke="#263238" stroke-width="1.05637"/>
<path d="M1149.89 39.4419H1133.58V47.8189H1149.89V39.4419Z" fill="#263238" stroke="#263238" stroke-width="1.05637"/>
<path d="M1405.53 105.256C1405.16 91.3864 1408.94 77.7275 1416.39 66.0229" stroke="#263238" stroke-width="1.28877"/>
<path d="M1405.16 104.275C1399.75 80.2005 1400.94 55.1223 1408.62 31.6709" stroke="#263238" stroke-width="1.23595"/>
<path d="M1388.04 48.4233C1397.51 63.6984 1400.17 82.1321 1401.98 100.016" stroke="#263238" stroke-width="1.23595"/>
<path d="M1411.53 71.6852C1411.52 71.2521 1411.42 70.819 1411.44 70.3859C1411.51 69.7415 1411.73 69.1182 1412.07 68.5689L1414.99 63.0124C1415.23 62.5054 1415.52 62.03 1415.88 61.5863C1416.22 61.2483 1416.55 60.8997 1416.85 60.5194C1417.17 59.8856 1417.43 59.2201 1417.63 58.5334C1418.26 57.3503 1419.18 56.3467 1420.3 55.6178C1420.88 55.1002 1421.56 54.7094 1422.3 54.4558C1423.05 54.2023 1423.88 54.4136 1424.43 54.9946C1424.87 55.7129 1424.92 56.6003 1424.57 57.3608C1424.21 58.1109 1423.95 58.8926 1423.82 59.7165C1423.76 60.5616 1424.11 61.3856 1424.06 62.2307C1423.95 64.1427 1421.98 65.3892 1421.27 67.1745C1421.11 67.7238 1420.9 68.252 1420.64 68.7485C1420.12 69.3295 1419.5 69.8049 1418.8 70.1535C1417.55 71.2098 1416.45 72.4247 1415.51 73.7557C1414.88 74.4951 1412.11 77.453 1410.98 76.8614C1409.64 76.1536 1411.56 72.8261 1411.54 71.6746L1411.53 71.6852Z" fill="#1C53A1"/>
<path d="M1403.01 45.1596C1402.91 44.5469 1402.66 43.9659 1402.53 43.3533C1402.35 42.4659 1402.47 41.5363 1402.85 40.7123C1403.05 40.3637 1403.21 40.0046 1403.34 39.6137C1403.54 38.7264 1403.01 37.8284 1402.98 36.92C1403.01 36.1066 1403.23 35.3249 1403.63 34.6171C1404.85 32.0395 1404.79 30.1169 1407.5 26.9901C1408.15 26.2295 1408.51 25.1837 1409.41 24.7295C1411.09 23.8738 1413.21 25.1943 1413.91 26.9373C1414.44 28.7542 1414.46 30.6768 1413.97 32.5043L1413.43 35.5678C1413.22 37.4693 1412.52 39.2651 1411.37 40.7968L1407.46 46.8921C1406.68 48.0858 1405.48 50.9591 1403.64 49.8288C1402.15 48.9203 1403.23 46.5435 1403.02 45.1491L1403.01 45.1596Z" fill="#1C53A1"/>
<path d="M1389.12 56.4091C1388.71 56.2507 1388.31 56.0711 1387.93 55.8704C1387.01 55.2154 1387.09 53.8316 1386.54 52.8386C1385.77 51.4442 1383.79 50.8738 1383.42 49.3315C1383.28 48.7505 1383.4 48.1272 1383.32 47.5356C1383.08 45.9722 1381.46 44.9475 1381.1 43.4158C1380.96 42.0636 1381.33 40.722 1382.12 39.6234C1382.42 38.9896 1382.85 38.4297 1383.38 37.9755C1384.85 36.8874 1387.12 37.8276 1387.97 39.4438C1388.15 39.8981 1388.41 40.3206 1388.7 40.7009C1389.34 41.3664 1390.41 41.3981 1391.13 41.9686C1392.8 43.2996 1391.53 46.3102 1392.94 47.9159C1393.28 48.2962 1393.72 48.5497 1394.06 48.93C1395.2 50.2188 1394.47 51.909 1394.61 53.409C1394.77 55.152 1395.88 56.4831 1395 58.1944C1392.89 62.3142 1390.97 57.4127 1389.12 56.4303V56.4091Z" fill="#1C53A1"/>
<path d="M1415.55 160.06H1389.88L1395.53 93.086C1395.64 91.681 1396.82 90.6035 1398.23 90.6035H1408.28C1409.7 90.6035 1410.89 91.7127 1410.98 93.1282L1415.56 160.06H1415.55Z" fill="white" stroke="#263238" stroke-width="1.05637"/>
<mask id="mask0_1_2128" style="mask-type:luminance" maskUnits="userSpaceOnUse" x="1389" y="90" width="27" height="71">
<path d="M1415.55 160.061H1389.88L1395.53 93.0875C1395.65 91.6825 1396.82 90.605 1398.23 90.605H1408.28C1409.71 90.605 1410.89 91.7142 1410.98 93.1297L1415.56 160.061H1415.55Z" fill="white"/>
</mask>
<g mask="url(#mask0_1_2128)">
<path d="M1398.24 87.7729C1397.63 90.0125 1399.59 92.0935 1401.54 93.3717C1403.48 94.6499 1405.76 95.9387 1406.31 98.1887C1406.65 99.6043 1406.21 101.083 1406.33 102.53C1406.57 104.485 1407.7 106.228 1409.39 107.242C1411.08 108.235 1413.03 108.668 1414.97 108.478" stroke="#263238" stroke-width="2.11274"/>
<path d="M1391.73 102.276C1390.69 107.653 1393.77 112.967 1398.95 114.731C1401.04 115.365 1403.4 115.396 1405.16 116.696C1406.91 117.995 1407.61 120.214 1408.67 122.104C1409.84 124.302 1411.68 126.076 1413.93 127.164C1416.2 128.231 1418.83 128.231 1421.1 127.164" stroke="#263238" stroke-width="2.11274"/>
<path d="M1386.46 132.954C1388.52 134.253 1391.24 133.672 1393.46 132.679C1395.67 131.686 1397.8 130.292 1400.22 130.038C1403.11 129.763 1405.91 131.137 1407.47 133.577C1408.36 135.288 1408.98 137.126 1409.33 139.017C1410.25 142.461 1412.15 146.158 1415.6 147.067" stroke="#263238" stroke-width="2.11274"/>
</g>
</svg>
