<svg width="54" height="54" viewBox="0 0 54 54" fill="none" xmlns="http://www.w3.org/2000/svg">
<path d="M39.786 16.6602L38.026 14.77H43.924C44.995 14.77 45.867 15.7099 45.867 16.8599V22.27H49.031V16.8599C49.031 13.8199 46.74 11.3501 43.924 11.3501H38.027L39.882 9.35986L37.65 6.93994L31.953 13.0601L37.553 19.0801L39.786 16.6602Z" fill="#0E5BCA"/>
<path d="M14.1281 41L15.8881 42.8901H9.99005C8.91905 42.8901 8.04706 41.9498 8.04706 40.7998V35.3901H4.88306V40.7998C4.88306 43.8398 7.17405 46.3101 9.99005 46.3101H15.8871L14.0321 48.2998L16.2641 50.7202L21.9611 44.6001L16.3611 38.5801L14.1281 41Z" fill="#0E5BCA"/>
<path d="M7.15401 0H0V22.46H26.917V4.12012H11.106C11.032 1.83012 9.29201 0 7.15401 0ZM20.589 15.6299H23.753V19.04H20.589V15.6299Z" fill="#0E5BCA"/>
<path d="M46.845 31.54C44.708 31.54 42.967 33.3802 42.894 35.6602H27.082V54H53.999V31.54H46.845ZM33.406 50.5898H30.242V47.1699H33.406V50.5898Z" fill="#0E5BCA"/>
</svg>
