<svg xmlns="http://www.w3.org/2000/svg" width="68.126" height="61.628" viewBox="0 0 68.126 61.628">
  <g id="Group_5778" data-name="Group 5778" transform="translate(-1255 -1644.461)">
    <path id="Rectangle_495" data-name="Rectangle 495" d="M7,0H39.375a0,0,0,0,1,0,0V32.375a7,7,0,0,1-7,7H7a7,7,0,0,1-7-7V7A7,7,0,0,1,7,0Z" transform="matrix(-0.259, -0.966, 0.966, -0.259, 1285.094, 1706.09)" fill="#cbf5e0"/>
    <g id="lightbulb_1_" data-name="lightbulb (1)" transform="translate(1255 1644.461)">
      <path id="Path_15482" data-name="Path 15482" d="M101.565,52.6a9.028,9.028,0,0,0,18.056,0v-8.33c0-4.565,2.153-7.048,4.646-9.922,2.9-3.344,6.187-7.133,6.187-14.489a19.865,19.865,0,0,0-39.421-3.5c-1.618,9.419,2.2,13.675,5.561,17.43,2.667,2.976,4.971,5.547,4.971,10.612v8.2Zm9.028,5.417a5.425,5.425,0,0,1-5.106-3.611h5.106a1.806,1.806,0,0,0,0-3.611h-5.417V47.184h10.833V52.6A5.423,5.423,0,0,1,110.593,58.017ZM99.283,31.374c-3.227-3.6-6.014-6.71-4.691-14.408a16.254,16.254,0,0,1,32.251,2.893c0,6.008-2.576,8.978-5.3,12.123-2.609,3.008-5.3,6.116-5.514,11.59H105.156C104.9,37.648,101.925,34.322,99.283,31.374Z" transform="translate(-90.649 0)" fill="#131b46"/>
      <path id="Path_15483" data-name="Path 15483" d="M212.333,126.824l4.982,2.491-1.84,1.84a1.806,1.806,0,0,0,2.553,2.553l3.611-3.611a1.806,1.806,0,0,0-.469-2.892l-4.982-2.491,1.84-1.84a1.806,1.806,0,0,0-2.553-2.553l-3.611,3.611A1.806,1.806,0,0,0,212.333,126.824Z" transform="translate(-196.808 -105.349)" fill="#1dbf55"/>
    </g>
  </g>
</svg>
