<svg width="790" height="549" viewBox="0 0 790 549" fill="none" xmlns="http://www.w3.org/2000/svg">
<path d="M789.655 458.428L271.124 458.476L271.262 548.961L774.942 548.999C783.249 549 789.974 542.249 789.943 533.942L789.655 458.428Z" fill="#D8E8FF"/>
<path d="M789.956 14.9936C789.952 6.71182 783.237 0.000334812 774.956 0.000747941L0 0.0394059L0.455811 105.69L1.64563 106L790 105.761L789.956 14.9936Z" fill="#E4EFFF"/>
<path d="M789.817 0L0 0.269259L0.00653076 240.129L199.105 239.822L245.22 239.851L258.231 239.874C260.89 239.879 263.526 239.74 266.126 240.219C266.472 240.563 266.935 240.853 267.165 241.249C267.63 242.055 267.512 243.494 267.536 244.386L267.637 251.46L267.797 280.235L267.605 485.924L790 486L789.817 0Z" fill="#F8F2FF"/>
<path d="M790 9.99999C790 4.47714 785.523 0 780 0H339V283H790V9.99999Z" fill="#D8E8FF"/>
<path d="M258.344 238.065L155.041 238L155 549L235.8 548.919L339 548.988L338.691 238.086L258.344 238.065Z" fill="#E4EFFF"/>
<path d="M160 238L0 238.159L0.057724 548.546L1.12741 549L159.899 548.988L160 238Z" fill="#E4EFFF"/>
<path d="M339 514L0 514.018L0.122284 548.949L2.3887 549L338.786 548.999L339 514Z" fill="#F8F2FF"/>
</svg>
