<svg width="187" height="185" viewBox="0 0 187 185" fill="none" xmlns="http://www.w3.org/2000/svg">
<g filter="url(#filter0_d_163_486)">
<ellipse cx="93.7784" cy="87.9221" rx="58.7784" ry="57.6028" fill="white"/>
<path d="M93.7783 27.2949C127.853 27.2949 155.581 54.3813 155.581 87.9219C155.581 121.463 127.853 148.549 93.7783 148.549C59.7036 148.549 31.9756 121.463 31.9756 87.9219C31.9757 54.3813 59.7037 27.2949 93.7783 27.2949Z" stroke="#FEC304" stroke-width="6.04847"/>
</g>
<path d="M110.988 59.8779C111.735 60.0743 112.439 60.5414 112.793 61.2445C112.868 61.3934 113.084 61.9763 113.084 62.1115V75.9262H111.374V62.2769C111.374 62.0607 110.967 61.5875 110.739 61.5875H102.105V66.8542C102.105 67.8469 101.043 68.9681 100.077 69.1297C94.8513 69.2868 89.6013 69.1545 84.3663 69.1975C83.3059 69.3001 81.8001 68.0769 81.8001 67.0197V61.5875H73.1653C72.971 61.5875 72.5892 61.9306 72.5683 62.149C72.4976 78.6461 72.5208 95.161 72.5567 111.664C72.6847 111.995 72.9644 112.207 73.3286 112.216L93.6843 112.211C93.8322 112.821 94.0931 113.37 94.3801 113.924H72.8618C72.1721 113.684 71.5442 113.314 71.1624 112.672C71.0167 112.426 70.977 112.164 70.8203 111.938V62.0287C71.0051 61.2109 71.5227 60.4708 72.2891 60.1051C72.4827 60.0125 72.7056 60.018 72.8618 59.8779H110.988ZM100.394 61.5875H83.5106V66.8542C83.5106 67.1052 84.1296 67.5662 84.4188 67.4907C89.5307 67.4515 94.6603 67.5596 99.7618 67.4361C99.9869 67.4173 100.394 66.9976 100.394 66.7991V61.5875H100.394Z" fill="#050505"/>
<path d="M124.892 110.999V111.937C124.589 112.96 123.929 113.62 122.905 113.922H97.249C96.9676 113.761 96.6432 113.687 96.37 113.505C95.341 112.821 95.01 111.312 95.6401 110.245L105.776 92.857L105.802 79.2066C105.914 78.2354 106.581 77.6597 107.54 77.5797C109.21 77.6878 111.071 77.4292 112.719 77.5858C113.646 77.674 114.321 78.2498 114.411 79.2038L114.434 92.8575L124.35 109.859C124.578 110.219 124.732 110.606 124.892 110.999L124.892 110.999ZM112.698 79.2888H107.512V93.269L105.162 97.3218C105.072 97.4823 105.379 97.6831 105.508 97.7536C106.136 98.0983 106.34 97.6059 106.833 97.3334C107.483 96.9738 108.319 96.9226 109.001 97.2402C109.387 97.42 109.747 97.9136 110.181 97.8717C110.477 97.843 110.917 97.3715 111.249 97.2248C111.951 96.9137 112.835 96.9843 113.489 97.388C113.933 97.6627 114.086 98.0939 114.703 97.7542C114.818 97.6908 115.093 97.5066 115.063 97.3637L112.699 93.2695V79.2893L112.698 79.2888ZM116.059 98.9807C115.958 98.9079 115.53 99.2609 115.395 99.3281C114.61 99.7191 113.795 99.6497 113.056 99.1991C112.646 98.9493 112.514 98.6096 111.941 98.7987C111.742 98.8643 111.529 99.1269 111.337 99.2427C110.585 99.6943 109.625 99.6938 108.874 99.2427C108.703 99.1401 108.541 98.9421 108.379 98.855C107.716 98.4987 107.446 99.0954 106.917 99.3469C106.131 99.7208 105.297 99.6375 104.57 99.1875C104.441 99.1075 104.365 98.914 104.202 99.0017L97.2407 110.907C96.8517 111.437 97.0012 112.146 97.7163 112.215L122.687 112.187C123.12 112.029 123.305 111.574 123.113 111.151C120.878 107.303 118.644 103.455 116.386 99.6204C116.329 99.5223 116.09 99.0017 116.06 98.9807H116.059Z" fill="#050505"/>
<path d="M75.8972 64.9496V108.848H94.4912C94.2463 109.425 93.8711 109.936 93.7403 110.561L75.7599 110.557C74.8859 110.457 74.221 109.763 74.1846 108.878V64.8647C74.1504 64.1952 74.9924 63.24 75.6489 63.24H80.063C80.069 63.24 80.1457 63.3166 80.1457 63.3227V64.8669C80.1457 64.8729 80.069 64.9496 80.063 64.9496H75.8972Z" fill="#060606"/>
<path d="M92.2281 102.507C92.2336 102.515 92.3523 102.454 92.3754 102.433C93.3233 101.593 94.2762 100.259 95.2622 99.5007C95.3918 99.4009 95.623 99.2531 95.7869 99.2531H100.063C100.075 99.3181 100.055 99.359 100.033 99.4158C99.9719 99.5663 99.205 100.897 99.125 100.935L96.2013 100.991L91.9153 105.31C91.4667 105.744 90.5177 105.312 90.5177 104.74V97.3223L88.1358 100.705L87.7628 100.938L82.8335 100.949C81.8657 100.533 82.0858 99.3496 83.1529 99.2536C84.4175 99.1395 85.8184 99.3595 87.0968 99.2249L90.7913 93.8733C91.1704 93.559 91.71 93.5683 92.0367 93.9571C92.0753 94.0029 92.2287 94.2351 92.2287 94.2616V102.506L92.2281 102.507Z" fill="#050505"/>
<path d="M81.2915 80.1303L102.52 80.116C103.469 80.223 103.678 81.3303 102.862 81.7826C95.604 81.8548 88.3021 81.8543 81.0438 81.7826C80.2443 81.391 80.4027 80.2605 81.291 80.1303H81.2915Z" fill="#070707"/>
<path d="M81.1223 75.9395L102.575 75.9246C103.617 76.0222 103.644 77.5095 102.518 77.6364L81.4385 77.638C80.426 77.6226 80.1683 76.2996 81.1218 75.9389L81.1223 75.9395Z" fill="#060606"/>
<path d="M81.1786 84.3767L102.521 84.3618C103.528 84.4506 103.664 85.6815 102.752 86.0306C95.5644 86.1056 88.3393 86.0951 81.1483 86.0361C80.3107 85.7565 80.3201 84.6183 81.1786 84.3773V84.3767Z" fill="#060606"/>
<path d="M81.1219 88.6212L102.576 88.6074C103.58 88.7017 103.616 90.0832 102.63 90.2652L81.3288 90.2663C80.3825 90.1996 80.2584 88.9477 81.1219 88.6212Z" fill="#030303"/>
<path d="M109.664 75.9243H108.008V64.9496H103.76V63.24H108.201C108.704 63.24 109.664 64.0286 109.664 64.536V75.9243Z" fill="#040404"/>
<path d="M98.684 63.24H85.166V64.9496H98.684V63.24Z" fill="#060606"/>
<defs>
<filter id="filter0_d_163_486" x="0.73756" y="0.759408" width="186.082" height="183.73" filterUnits="userSpaceOnUse" color-interpolation-filters="sRGB">
<feFlood flood-opacity="0" result="BackgroundImageFix"/>
<feColorMatrix in="SourceAlpha" type="matrix" values="0 0 0 0 0 0 0 0 0 0 0 0 0 0 0 0 0 0 127 0" result="hardAlpha"/>
<feOffset dy="4.70227"/>
<feGaussianBlur stdDeviation="14.1068"/>
<feComposite in2="hardAlpha" operator="out"/>
<feColorMatrix type="matrix" values="0 0 0 0 0.995192 0 0 0 0 0.76633 0 0 0 0 0.0143537 0 0 0 0.53 0"/>
<feBlend mode="normal" in2="BackgroundImageFix" result="effect1_dropShadow_163_486"/>
<feBlend mode="normal" in="SourceGraphic" in2="effect1_dropShadow_163_486" result="shape"/>
</filter>
</defs>
</svg>
