<svg width="52" height="51" viewBox="0 0 52 51" fill="none" xmlns="http://www.w3.org/2000/svg">
<path d="M34.1211 7.59756L42.3923 11.7333L50.6636 7.59756C50.6052 7.55942 50.5555 7.51118 50.4923 7.47949L43.207 3.83664C42.6947 3.5805 42.09 3.5805 41.5777 3.83664L34.2924 7.47949C34.2291 7.51118 34.1795 7.55942 34.1211 7.59756Z" fill="#F1F9FF"/>
<path d="M33.2854 18.2146C33.2854 18.9047 33.6749 19.5353 34.2921 19.8439L41.4814 23.6788V13.3132L33.2854 9.21503V18.2146Z" fill="#F1F9FF"/>
<path d="M43.3047 13.3131V23.6787L50.494 19.8437C51.1111 19.5351 51.5007 18.9045 51.5007 18.2144V9.21484L43.3047 13.3131Z" fill="#F1F9FF"/>
<path d="M50.4923 31.1533L43.207 27.5105C42.6947 27.2543 42.09 27.2543 41.5777 27.5105L34.2924 31.1533C34.2291 31.185 34.1795 31.2333 34.1211 31.2714L42.3923 35.4072L50.6636 31.2714C50.6052 31.2333 50.5555 31.185 50.4923 31.1533Z" fill="#F1F9FF"/>
<path d="M33.2852 41.8941C33.2852 42.5842 33.6747 43.2148 34.2919 43.5234L41.4811 47.3583V36.9927L33.2852 32.8945V41.8941Z" fill="#F1F9FF"/>
<path d="M43.3047 47.3583L50.494 43.5234C51.1111 43.2148 51.5007 42.5842 51.5007 41.8941V32.8945L43.3047 36.9927V47.3583Z" fill="#F1F9FF"/>
<path d="M31.4626 41.8929V32.7857C31.4626 31.3983 32.2328 30.1496 33.4743 29.5288L36.9266 27.8021V23.1983L33.476 21.4729C32.2328 20.8504 31.4626 19.6017 31.4626 18.2143V9.10714C31.4626 7.71973 32.2328 6.47105 33.4743 5.85027L36.9266 4.12356V1.82143C36.9266 0.814662 36.112 0 35.1053 0H2.32133C1.31462 0 0.5 0.814662 0.5 1.82143V49.1786C0.5 50.1853 1.31462 51 2.32133 51H35.1053C36.112 51 36.9266 50.1853 36.9266 49.1786V46.8769L33.476 45.1515C32.2328 44.5289 31.4626 43.2803 31.4626 41.8929ZM11.1612 37.9832L7.51852 41.626C7.34066 41.8039 7.10766 41.8929 6.87466 41.8929C6.64165 41.8929 6.40865 41.8039 6.23079 41.626L4.40946 39.8046C4.05373 39.4489 4.05373 38.8726 4.40946 38.5168C4.76518 38.1611 5.34147 38.1611 5.69719 38.5168L6.87466 39.6943L9.87345 36.6954C10.2292 36.3396 10.8055 36.3396 11.1612 36.6954C11.5169 37.0511 11.5169 37.6274 11.1612 37.9832ZM11.1612 28.876L7.51852 32.5189C7.34066 32.6968 7.10766 32.7857 6.87466 32.7857C6.64165 32.7857 6.40865 32.6968 6.23079 32.5189L4.40946 30.6975C4.05373 30.3417 4.05373 29.7654 4.40946 29.4097C4.76518 29.0539 5.34147 29.0539 5.69719 29.4097L6.87466 30.5872L9.87345 27.5882C10.2292 27.2325 10.8055 27.2325 11.1612 27.5882C11.5169 27.944 11.5169 28.5203 11.1612 28.876ZM11.1612 19.7689L7.51852 23.4118C7.34066 23.5896 7.10766 23.6786 6.87466 23.6786C6.64165 23.6786 6.40865 23.5896 6.23079 23.4118L4.40946 21.5903C4.05373 21.2346 4.05373 20.6583 4.40946 20.3025C4.76518 19.9468 5.34147 19.9468 5.69719 20.3025L6.87466 21.48L9.87345 18.4811C10.2292 18.1253 10.8055 18.1253 11.1612 18.4811C11.5169 18.8368 11.5169 19.4132 11.1612 19.7689ZM11.1612 10.6618L7.51852 14.3046C7.34066 14.4825 7.10766 14.5714 6.87466 14.5714C6.64165 14.5714 6.40865 14.4825 6.23079 14.3046L4.40946 12.4832C4.05373 12.1274 4.05373 11.5511 4.40946 11.1954C4.76518 10.8396 5.34147 10.8396 5.69719 11.1954L6.87466 12.3729L9.87345 9.37395C10.2292 9.01821 10.8055 9.01821 11.1612 9.37395C11.5169 9.7297 11.5169 10.306 11.1612 10.6618ZM28.7306 41.8929H14.16C13.6566 41.8929 13.2493 41.4855 13.2493 40.9821C13.2493 40.4788 13.6566 40.0714 14.16 40.0714H28.7306C29.234 40.0714 29.6413 40.4788 29.6413 40.9821C29.6413 41.4855 29.234 41.8929 28.7306 41.8929ZM28.7306 32.7857H14.16C13.6566 32.7857 13.2493 32.3784 13.2493 31.875C13.2493 31.3716 13.6566 30.9643 14.16 30.9643H28.7306C29.234 30.9643 29.6413 31.3716 29.6413 31.875C29.6413 32.3784 29.234 32.7857 28.7306 32.7857ZM28.7306 23.6786H14.16C13.6566 23.6786 13.2493 23.2712 13.2493 22.7679C13.2493 22.2645 13.6566 21.8571 14.16 21.8571H28.7306C29.234 21.8571 29.6413 22.2645 29.6413 22.7679C29.6413 23.2712 29.234 23.6786 28.7306 23.6786ZM28.7306 14.5714H14.16C13.6566 14.5714 13.2493 14.1641 13.2493 13.6607C13.2493 13.1573 13.6566 12.75 14.16 12.75H28.7306C29.234 12.75 29.6413 13.1573 29.6413 13.6607C29.6413 14.1641 29.234 14.5714 28.7306 14.5714Z" fill="#F1F9FF"/>
</svg>
