<svg width="187" height="185" viewBox="0 0 187 185" fill="none" xmlns="http://www.w3.org/2000/svg">
<g filter="url(#filter0_d_163_484)">
<ellipse cx="93.7784" cy="87.6943" rx="58.7784" ry="57.6028" fill="white"/>
<path d="M93.7783 27.0671C127.853 27.0671 155.581 54.1535 155.581 87.6941C155.581 121.235 127.853 148.321 93.7783 148.321C59.7036 148.321 31.9756 121.235 31.9756 87.6941C31.9757 54.1535 59.7037 27.0672 93.7783 27.0671Z" stroke="#FF9056" stroke-width="6.04847"/>
</g>
<g clip-path="url(#clip0_163_484)">
<path d="M85.8336 89.9655C86.4114 89.9376 87.0023 89.9743 87.5819 89.9655C88.1615 89.9568 88.7489 89.9699 89.3302 89.9655C89.9115 89.9612 90.4972 89.969 91.0785 89.9655C91.6599 89.962 92.2456 89.9682 92.8269 89.9655C93.4082 89.9629 93.9939 89.9655 94.5752 89.9655C95.1565 89.9655 95.7422 89.9629 96.3235 89.9655C96.9048 89.9682 97.4905 89.9629 98.0718 89.9655C98.6532 89.9682 99.2388 89.9612 99.8202 89.9655C100.401 89.9699 100.987 89.9568 101.568 89.9655C102.15 89.9743 102.738 89.9411 103.317 89.9655C103.895 89.99 104.473 90.0582 105.065 90.1404C105.576 90.2112 106.238 90.2855 106.726 90.4026C107.274 90.5346 108.018 90.8143 108.562 91.0145C108.792 91.0993 109.036 91.1806 109.261 91.2768C109.551 91.4 110.083 91.5976 110.31 91.7139C110.802 91.9665 111.576 92.512 112.058 92.8503C112.178 92.9342 112.349 92.9814 112.408 93.0251C112.789 93.3075 113.424 93.9028 113.807 94.2489C113.992 94.4159 114.249 94.6003 114.419 94.7734C114.737 95.0986 115.269 95.7219 115.555 96.0847C115.67 96.2298 115.796 96.3749 115.905 96.5217C116.426 97.2316 116.801 98.0708 117.303 98.7946C117.37 99.2299 117.802 99.7177 117.915 100.018C118.086 100.47 118.303 101.271 118.44 101.767C118.576 102.262 118.792 103.034 118.877 103.515C118.944 103.895 118.938 104.429 118.964 104.826C118.964 104.972 118.966 105.117 118.964 105.263C118.959 105.771 119.052 106.232 119.052 106.749C118.934 107.176 118.868 107.52 118.518 107.833C118.169 108.146 117.77 108.243 117.303 108.235C116.751 108.227 116.028 107.826 115.855 107.279C115.836 107.22 115.73 106.652 115.73 106.618V104.783C115.73 104.667 115.574 104.262 115.555 104.127C115.524 103.915 115.513 103.737 115.468 103.515C115.322 102.802 115.18 102.421 114.943 101.767C114.401 100.268 113.977 99.5192 113.02 98.2701C112.684 97.8321 112.476 97.5436 112.058 97.1337C111.889 96.9676 111.611 96.5759 111.359 96.5217C111.188 96.1021 110.661 95.888 110.31 95.6476C109.115 94.8285 108.214 94.3302 106.813 93.8993C106.231 93.7201 105.668 93.5627 105.065 93.4622C104.462 93.3617 103.944 93.3118 103.317 93.2873C102.737 93.2646 102.149 93.2952 101.568 93.2873C100.988 93.2795 100.401 93.2917 99.8202 93.2873C99.2388 93.283 98.6532 93.29 98.0718 93.2873C97.4905 93.2847 96.9048 93.2891 96.3235 93.2873C95.7422 93.2856 95.1565 93.2873 94.5752 93.2873C93.9939 93.2873 93.4082 93.2856 92.8269 93.2873C92.2456 93.2891 91.6599 93.2847 91.0785 93.2873C90.4972 93.29 89.9115 93.283 89.3302 93.2873C88.7489 93.2917 88.1632 93.2786 87.5819 93.2873C87.0006 93.2961 86.4123 93.2611 85.8336 93.2873C85.2549 93.3136 84.6543 93.3625 84.0853 93.4622C83.4463 93.5741 82.8501 93.7795 82.2495 93.9867C80.7643 94.4989 80.0825 94.9325 78.8403 95.8224C78.6209 95.9798 78.0203 96.1397 77.9661 96.5217C77.6812 96.5829 77.2957 97.1039 77.092 97.3085C76.7292 97.673 76.5963 97.8846 76.3052 98.2701C75.9285 98.7692 75.6706 99.104 75.3437 99.6687C74.8917 100.448 74.6898 100.916 74.3821 101.767C74.1461 102.421 74.0018 102.8 73.8576 103.515C73.7396 104.102 73.6312 104.661 73.5953 105.263C73.5665 105.753 73.605 106.258 73.5953 106.749C73.4773 107.176 73.4118 107.52 73.0621 107.833C72.7124 108.146 72.3025 108.253 71.847 108.235C70.7124 108.193 70.2613 107.302 70.2657 106.269C70.2692 105.521 70.3312 104.249 70.4484 103.515C70.52 103.064 70.7561 102.24 70.8854 101.767C71.0148 101.294 71.2447 100.433 71.4099 100.018C71.4711 99.8654 71.736 99.3768 71.847 99.1442C71.9642 98.8977 72.1573 98.4973 72.2841 98.2701C72.5883 97.7237 73.0394 97.0375 73.4205 96.5217C73.4869 96.4326 73.5411 96.3294 73.5953 96.2595C73.8925 95.8731 74.5525 95.1371 74.9066 94.7734C75.0307 94.6458 75.2204 94.4491 75.3437 94.3363C75.7091 94.0007 76.2729 93.6676 76.6566 93.3319C76.7589 93.2428 76.8507 93.144 76.9171 93.0251C77.0002 93.0129 77.0413 92.9578 77.092 92.9377C77.5544 92.7559 78.3176 92.1667 78.8403 91.8887C79.231 91.6815 79.6603 91.4507 80.0641 91.2768C80.2468 91.1981 80.4689 91.0609 80.5886 91.0145C81.0222 90.8476 81.8605 90.6107 82.3369 90.49C82.8693 90.3554 83.5433 90.2199 84.0853 90.1404C84.6272 90.0608 85.2741 89.9926 85.8336 89.9655Z" fill="black"/>
<path d="M94.5759 60.0698C95.0322 60.0698 95.8688 60.11 96.3242 60.1572C96.8819 60.2149 97.5244 60.3705 98.0725 60.5069C98.6206 60.6433 99.2964 60.8496 99.8209 61.0314C100.091 61.1249 100.41 61.4152 100.782 61.4685C101.28 61.8417 101.855 62.1171 102.383 62.4467C102.681 62.6329 103.011 62.9965 103.318 63.1294C103.372 63.153 103.411 63.2046 103.492 63.2168C104.008 63.7658 104.565 64.216 105.066 64.7903C105.126 64.8593 105.202 64.9188 105.241 64.9651C105.824 65.6706 106.282 66.4949 106.814 67.2379C106.878 67.6208 107.29 68.1191 107.426 68.4618C107.626 68.9627 107.896 69.6996 108.038 70.2101C108.18 70.7206 108.305 71.4278 108.388 71.9584C108.437 72.274 108.493 72.5974 108.475 72.92C108.467 73.1814 108.486 73.4462 108.475 73.7067C108.418 75.0424 108.44 75.8746 108.125 77.2034C107.985 77.7961 107.818 78.3835 107.601 78.9517C107.421 79.4237 106.891 80.2962 106.814 80.7C106.809 80.728 106.818 80.7586 106.814 80.7874C106.317 81.2997 106.024 81.9789 105.59 82.5357C105.454 82.7106 105.221 82.9711 105.066 83.1477C104.749 83.5078 104.253 83.861 104.017 84.2841C103.755 84.3269 103.542 84.6442 103.318 84.8086C102.779 85.2019 102.139 85.7072 101.569 86.0324C101.139 86.2772 100.261 86.7326 99.8209 86.9066C98.8759 87.2789 97.5944 87.5438 96.5865 87.6933C96.4859 87.7082 96.3845 87.7728 96.3242 87.7807C95.749 87.8515 95.1572 87.8708 94.5759 87.8681C93.9946 87.8655 93.4762 87.7842 92.915 87.7807C92.4639 87.6505 91.9945 87.5561 91.5347 87.4529C91.3773 87.4179 91.1885 87.4581 91.0793 87.431C90.6352 87.3192 89.768 87.0036 89.3309 86.8191C88.1779 86.334 86.8002 85.5149 85.8343 84.7212C85.7224 84.6294 85.5432 84.4178 85.3972 84.2841C84.9995 83.9195 84.4304 83.3741 84.086 82.9728C83.9907 82.8618 83.8342 82.6608 83.7363 82.5357C82.9137 81.4833 82.2013 80.1982 81.7257 78.9517C81.5116 78.3914 81.3341 77.7899 81.2012 77.2034C80.9224 75.9726 80.8507 74.969 80.8516 73.7067C80.8516 73.0808 80.8533 72.5799 80.939 71.9584C81.0098 71.4418 81.1497 70.7075 81.2887 70.2101C81.4477 69.641 81.6908 69.0186 81.9006 68.4618C82.016 68.1558 82.2799 67.939 82.3376 67.5002C82.5789 67.3114 82.7065 66.9722 82.8621 66.7134C83.9758 64.8646 85.7259 63.1032 87.5826 61.993C87.774 61.8785 88.3353 61.5716 88.5442 61.4685C88.7531 61.3653 89.1045 61.2132 89.3309 61.1188C89.8755 60.8915 90.5172 60.7368 91.0793 60.5943C91.6938 60.4378 92.1956 60.3329 92.8276 60.2447C93.3853 60.1669 94.0147 60.0698 94.5759 60.0698ZM92.8276 63.5665C92.1798 63.6801 91.7008 63.7876 91.0793 64.0035C89.7584 64.4634 88.6202 65.1653 87.5826 66.1015C87.3405 66.3201 87.1901 66.4792 86.9707 66.7134C85.9803 67.7747 85.2871 68.8394 84.7853 70.2101C84.5248 70.9208 84.4855 71.2538 84.3482 71.9584C84.218 72.6236 84.1034 72.9742 84.086 73.7067C84.072 74.2968 84.0956 74.8711 84.1734 75.455C84.2512 76.039 84.4295 76.6264 84.6105 77.2034C84.8509 77.9726 85.0362 78.276 85.3972 78.9517C85.5694 79.2734 85.6114 79.3914 85.8343 79.7384C86.0904 80.1371 86.2408 80.3416 86.5336 80.7C86.9104 81.1607 87.1149 81.4168 87.5826 81.8364C87.8763 82.0995 88.1394 82.3032 88.4568 82.5357C88.7741 82.7683 88.9786 82.9475 89.3309 83.1477C89.8782 83.458 90.4874 83.7202 91.0793 83.9344C92.2935 84.3741 93.2804 84.5411 94.5759 84.5463C95.7892 84.5507 96.9221 84.4099 98.0725 84.0218C98.6355 83.8321 99.2972 83.5183 99.8209 83.2351C100.229 83.0139 100.372 82.8531 100.695 82.6232C101.055 82.367 101.233 82.2158 101.569 81.9238C102.133 81.4343 102.309 81.2874 102.793 80.7C103.005 80.4421 103.129 80.2752 103.318 80.0007C103.634 79.5409 103.681 79.4211 103.929 78.9517C104.288 78.276 104.475 77.9735 104.716 77.2034C105.335 75.2304 105.376 73.9594 104.978 71.9584C104.839 71.2573 104.802 70.9199 104.541 70.2101C104.037 68.8333 103.351 67.7852 102.356 66.7134C102.042 66.376 101.872 66.2746 101.569 66.0141C100.467 65.0648 99.4992 64.3786 98.0725 63.9161C97.5209 63.7369 96.9807 63.6609 96.4116 63.5665C95.6913 63.4467 95.3425 63.3873 94.5759 63.3916C93.853 63.396 93.5164 63.4458 92.8276 63.5665Z" fill="black"/>
</g>
<defs>
<filter id="filter0_d_163_484" x="0.73756" y="0.531625" width="186.082" height="183.73" filterUnits="userSpaceOnUse" color-interpolation-filters="sRGB">
<feFlood flood-opacity="0" result="BackgroundImageFix"/>
<feColorMatrix in="SourceAlpha" type="matrix" values="0 0 0 0 0 0 0 0 0 0 0 0 0 0 0 0 0 0 127 0" result="hardAlpha"/>
<feOffset dy="4.70227"/>
<feGaussianBlur stdDeviation="14.1068"/>
<feComposite in2="hardAlpha" operator="out"/>
<feColorMatrix type="matrix" values="0 0 0 0 1 0 0 0 0 0.566399 0 0 0 0 0.336538 0 0 0 0.66 0"/>
<feBlend mode="normal" in2="BackgroundImageFix" result="effect1_dropShadow_163_484"/>
<feBlend mode="normal" in="SourceGraphic" in2="effect1_dropShadow_163_484" result="shape"/>
</filter>
<clipPath id="clip0_163_484">
<rect width="48.786" height="48.168" fill="white" transform="translate(70.2656 60.0693)"/>
</clipPath>
</defs>
</svg>
