<?xml version="1.0" encoding="utf-8"?>
<!-- Generator: Adobe Illustrator 27.5.0, SVG Export Plug-In . SVG Version: 6.00 Build 0)  -->
<svg version="1.1" xmlns="http://www.w3.org/2000/svg" xmlns:xlink="http://www.w3.org/1999/xlink" x="0px" y="0px"
	 viewBox="0 0 500 500" style="enable-background:new 0 0 500 500;" xml:space="preserve">
<g id="Background_Complete">
	<rect x="416.779" y="398.494" style="fill:#EBEBEB;" width="33.122" height="0.25"/>
	<rect x="322.527" y="401.208" style="fill:#EBEBEB;" width="8.693" height="0.25"/>
	<rect x="396.586" y="389.208" style="fill:#EBEBEB;" width="19.192" height="0.25"/>
	<rect x="52.459" y="390.888" style="fill:#EBEBEB;" width="43.193" height="0.25"/>
	<rect x="104.556" y="390.888" style="fill:#EBEBEB;" width="6.333" height="0.25"/>
	<rect x="131.471" y="395.111" style="fill:#EBEBEB;" width="93.676" height="0.25"/>
	<g>
		<path style="fill:#EBEBEB;" d="M238.401,337.8H45.302c-3.147,0-5.708-2.561-5.708-5.708V60.66c0-3.147,2.561-5.708,5.708-5.708
			h193.099c3.146,0,5.707,2.561,5.707,5.708v271.432C244.108,335.239,241.547,337.8,238.401,337.8z M45.302,55.203
			c-3.01,0-5.458,2.448-5.458,5.458v271.432c0,3.01,2.448,5.458,5.458,5.458h193.099c3.009,0,5.457-2.448,5.457-5.458V60.66
			c0-3.009-2.448-5.458-5.457-5.458H45.302z"/>
		<g>
			<path style="fill:#EBEBEB;" d="M454.698,337.8H261.599c-3.146,0-5.707-2.561-5.707-5.708V60.66c0-3.147,2.561-5.708,5.707-5.708
				h193.099c3.148,0,5.708,2.561,5.708,5.708v271.432C460.406,335.239,457.845,337.8,454.698,337.8z M261.599,55.203
				c-3.009,0-5.457,2.448-5.457,5.458v271.432c0,3.01,2.448,5.458,5.457,5.458h193.099c3.01,0,5.458-2.448,5.458-5.458V60.66
				c0-3.009-2.448-5.458-5.458-5.458H261.599z"/>
		</g>
	</g>
	<rect y="382.398" style="fill:#EBEBEB;" width="500" height="0.25"/>
	<g>
		<g>
			<g>
				<g>
					<path style="fill:#EBEBEB;" d="M379.587,89.009h-3.127c-1.475,0-2.738,1.199-2.815,2.675l-0.756,14.428
						c-0.077,1.477,1.06,2.675,2.535,2.675h3.127c1.475,0,2.736-1.198,2.813-2.675l0.757-14.428
						C382.197,90.207,381.061,89.009,379.587,89.009z M379.669,106.112c-0.028,0.539-0.49,0.98-1.03,0.98h-3.127
						c-0.54,0-0.957-0.44-0.929-0.98l0.756-14.428c0.028-0.54,0.492-0.98,1.031-0.98h3.127c0.54,0,0.955,0.44,0.927,0.98
						L379.669,106.112z"/>
					<path style="fill:#EBEBEB;" d="M404.285,89.009h-9.149l2.044-4.804c0.221-0.523,0.306-1.09,0.241-1.636l-0.432-3.788
						c-0.177-1.543-1.439-2.662-3.001-2.662h-3.637l-0.307,5.867l-5.896,7.436c-0.588,0.735-0.938,1.649-0.986,2.573l-0.707,13.491
						c-0.095,1.821,1.308,3.3,3.128,3.3h12.801c1.122,0,2.213-0.493,2.99-1.354l1.193-1.327c0.468-0.516,0.797-1.149,0.95-1.828
						l2.804-12.495L404.285,89.009z"/>
				</g>
				<g style="opacity:0.5;">
					<path style="fill:#EBEBEB;" d="M379.587,89.009h-3.127c-1.475,0-2.738,1.199-2.815,2.675l-0.756,14.428
						c-0.077,1.477,1.06,2.675,2.535,2.675h3.127c1.475,0,2.736-1.198,2.813-2.675l0.757-14.428
						C382.197,90.207,381.061,89.009,379.587,89.009z M379.669,106.112c-0.028,0.539-0.49,0.98-1.03,0.98h-3.127
						c-0.54,0-0.957-0.44-0.929-0.98l0.756-14.428c0.028-0.54,0.492-0.98,1.031-0.98h3.127c0.54,0,0.955,0.44,0.927,0.98
						L379.669,106.112z"/>
				</g>
			</g>
			<g>
				<g>
					<path style="fill:#EBEBEB;" d="M133.122,76.12h-2.83c-1.335,0-2.478,1.085-2.548,2.421L127.06,91.6
						c-0.07,1.336,0.959,2.421,2.294,2.421h2.83c1.335,0,2.477-1.085,2.546-2.421l0.685-13.059
						C135.485,77.205,134.457,76.12,133.122,76.12z M133.196,91.6c-0.026,0.488-0.444,0.887-0.932,0.887h-2.83
						c-0.489,0-0.866-0.398-0.841-0.887l0.684-13.059c0.026-0.489,0.445-0.887,0.933-0.887h2.83c0.489,0,0.865,0.398,0.839,0.887
						L133.196,91.6z"/>
					<path style="fill:#EBEBEB;" d="M155.475,76.12h-8.28l1.85-4.348c0.201-0.473,0.277-0.986,0.218-1.48l-0.391-3.428
						c-0.161-1.397-1.303-2.409-2.716-2.409h-3.292l-0.278,5.31l-5.336,6.73c-0.533,0.665-0.849,1.492-0.892,2.328l-0.64,12.211
						c-0.086,1.648,1.184,2.987,2.831,2.987h11.586c1.016,0,2.003-0.446,2.706-1.226l1.08-1.201c0.423-0.467,0.721-1.04,0.86-1.654
						l2.538-11.309L155.475,76.12z"/>
				</g>
				<g style="opacity:0.5;">
					<path style="fill:#EBEBEB;" d="M133.122,76.12h-2.83c-1.335,0-2.478,1.085-2.548,2.421L127.06,91.6
						c-0.07,1.336,0.959,2.421,2.294,2.421h2.83c1.335,0,2.477-1.085,2.546-2.421l0.685-13.059
						C135.485,77.205,134.457,76.12,133.122,76.12z M133.196,91.6c-0.026,0.488-0.444,0.887-0.932,0.887h-2.83
						c-0.489,0-0.866-0.398-0.841-0.887l0.684-13.059c0.026-0.489,0.445-0.887,0.933-0.887h2.83c0.489,0,0.865,0.398,0.839,0.887
						L133.196,91.6z"/>
				</g>
			</g>
			<g>
				<g>
					<path style="fill:#EBEBEB;" d="M233.023,347.948h-4.144c-1.955,0-3.629,1.589-3.731,3.545l-1.002,19.121
						c-0.103,1.957,1.405,3.545,3.359,3.545h4.144c1.954,0,3.626-1.588,3.728-3.545l1.003-19.121
						C236.482,349.536,234.977,347.948,233.023,347.948z M233.131,370.614c-0.037,0.715-0.65,1.298-1.364,1.298h-4.144
						c-0.715,0-1.268-0.583-1.231-1.298l1.002-19.121c0.037-0.715,0.652-1.299,1.367-1.299h4.144c0.715,0,1.266,0.584,1.228,1.299
						L233.131,370.614z"/>
					<path style="fill:#EBEBEB;" d="M265.753,347.948h-12.124l2.709-6.366c0.293-0.693,0.405-1.444,0.32-2.167l-0.572-5.019
						c-0.235-2.045-1.908-3.528-3.976-3.528h-4.82l-0.407,7.775l-7.813,9.854c-0.78,0.974-1.242,2.185-1.307,3.409l-0.937,17.879
						c-0.127,2.413,1.734,4.374,4.145,4.374h16.964c1.488,0,2.932-0.654,3.962-1.794l1.582-1.759
						c0.62-0.685,1.056-1.523,1.259-2.422l3.716-16.558L265.753,347.948z"/>
				</g>
				<g style="opacity:0.5;">
					<path style="fill:#EBEBEB;" d="M233.023,347.948h-4.144c-1.955,0-3.629,1.589-3.731,3.545l-1.002,19.121
						c-0.103,1.957,1.405,3.545,3.359,3.545h4.144c1.954,0,3.626-1.588,3.728-3.545l1.003-19.121
						C236.482,349.536,234.977,347.948,233.023,347.948z M233.131,370.614c-0.037,0.715-0.65,1.298-1.364,1.298h-4.144
						c-0.715,0-1.268-0.583-1.231-1.298l1.002-19.121c0.037-0.715,0.652-1.299,1.367-1.299h4.144c0.715,0,1.266,0.584,1.228,1.299
						L233.131,370.614z"/>
				</g>
			</g>
			<g>
				
					<rect x="56.983" y="311.189" transform="matrix(-1 -1.224647e-16 1.224647e-16 -1 216.4935 657.7692)" style="fill:#EBEBEB;" width="102.527" height="35.391"/>
				
					<rect x="56.983" y="346.58" transform="matrix(-1 -1.224647e-16 1.224647e-16 -1 216.4935 728.5506)" style="fill:#EBEBEB;" width="102.527" height="35.391"/>
				<g>
					<polygon style="fill:#F5F5F5;" points="99.021,346.58 86.264,311.189 105.897,311.189 118.653,346.58 					"/>
					<polygon style="fill:#F5F5F5;" points="76.763,311.189 81.075,311.189 93.832,346.58 89.519,346.58 					"/>
				</g>
				<g>
					<polygon style="fill:#F5F5F5;" points="111.777,381.971 99.021,346.58 118.653,346.58 131.41,381.971 					"/>
					<polygon style="fill:#F5F5F5;" points="89.519,346.58 93.832,346.58 106.588,381.971 102.276,381.971 					"/>
				</g>
				<g>
					
						<rect x="56.983" y="240.724" transform="matrix(-1 -1.224647e-16 1.224647e-16 -1 216.4934 516.8388)" style="fill:#EBEBEB;" width="102.527" height="35.391"/>
					
						<rect x="56.983" y="276.115" transform="matrix(-1 -1.224647e-16 1.224647e-16 -1 216.4934 587.6201)" style="fill:#EBEBEB;" width="102.527" height="35.391"/>
					<g>
						<polygon style="fill:#F5F5F5;" points="93.955,276.115 81.199,240.724 100.831,240.724 113.588,276.115 						"/>
						<polygon style="fill:#F5F5F5;" points="71.697,240.724 76.01,240.724 88.766,276.115 84.453,276.115 						"/>
					</g>
					<g>
						<polygon style="fill:#F5F5F5;" points="106.712,311.505 93.955,276.115 113.588,276.115 126.344,311.505 						"/>
						<polygon style="fill:#F5F5F5;" points="84.453,276.115 88.766,276.115 101.523,311.505 97.21,311.505 						"/>
					</g>
					
						<rect x="106.456" y="193.113" transform="matrix(-1.836970e-16 1 -1 -1.836970e-16 352.6234 136.1301)" style="fill:#E0E0E0;" width="3.58" height="102.527"/>
					
						<rect x="106.456" y="228.227" transform="matrix(-1.836970e-16 1 -1 -1.836970e-16 387.7377 171.2443)" style="fill:#E0E0E0;" width="3.581" height="102.527"/>
					<g>
						<path style="fill:#E0E0E0;" d="M105.624,262.95c-0.849,0-1.538-0.689-1.538-1.538c0-0.849,0.688-1.538,1.538-1.538
							c0.431,0,4.815,0,5.245,0c0.849,0,1.538,0.689,1.538,1.538c0,0.849-0.688,1.538-1.538,1.538
							C110.404,262.95,106.089,262.95,105.624,262.95z"/>
						<path style="fill:#F5F5F5;" d="M105.624,262.408c-0.849,0-1.538-0.689-1.538-1.538s0.688-1.538,1.538-1.538
							c0.431,0,4.815,0,5.245,0c0.849,0,1.538,0.688,1.538,1.538s-0.688,1.538-1.538,1.538
							C110.404,262.408,106.089,262.408,105.624,262.408z"/>
					</g>
					<g>
						<path style="fill:#E0E0E0;" d="M105.624,295.619c-0.849,0-1.538-0.689-1.538-1.538c0-0.849,0.688-1.538,1.538-1.538
							c0.431,0,4.815,0,5.245,0c0.849,0,1.538,0.689,1.538,1.538c0,0.849-0.688,1.538-1.538,1.538
							C110.404,295.619,106.089,295.619,105.624,295.619z"/>
						<path style="fill:#F5F5F5;" d="M105.624,295.077c-0.849,0-1.538-0.689-1.538-1.538c0-0.849,0.688-1.538,1.538-1.538
							c0.431,0,4.815,0,5.245,0c0.849,0,1.538,0.689,1.538,1.538c0,0.849-0.688,1.538-1.538,1.538
							C110.404,295.077,106.089,295.077,105.624,295.077z"/>
					</g>
					<path style="fill:#F5F5F5;" d="M55.193,239.138v73.914h1.79h1.79h98.947h1.79h1.79v-73.914H55.193z M58.773,277.986h98.947
						v31.485H58.773V277.986z M58.773,242.92h98.947v31.485H58.773V242.92z"/>
				</g>
				
					<rect x="106.456" y="263.578" transform="matrix(-1.836970e-16 1 -1 -1.836970e-16 423.0887 206.5952)" style="fill:#E0E0E0;" width="3.581" height="102.527"/>
				
					<rect x="106.456" y="298.693" transform="matrix(-1.836970e-16 1 -1 -1.836970e-16 458.203 241.7095)" style="fill:#E0E0E0;" width="3.58" height="102.527"/>
				<g>
					<path style="fill:#E0E0E0;" d="M105.624,333.415c-0.849,0-1.538-0.689-1.538-1.538c0-0.849,0.688-1.538,1.538-1.538
						c0.431,0,4.815,0,5.245,0c0.849,0,1.538,0.689,1.538,1.538c0,0.849-0.688,1.538-1.538,1.538
						C110.405,333.415,106.089,333.415,105.624,333.415z"/>
					<path style="fill:#F5F5F5;" d="M105.624,332.873c-0.849,0-1.538-0.689-1.538-1.538s0.688-1.538,1.538-1.538
						c0.431,0,4.815,0,5.245,0c0.849,0,1.538,0.688,1.538,1.538s-0.688,1.538-1.538,1.538
						C110.405,332.873,106.089,332.873,105.624,332.873z"/>
				</g>
				<g>
					<path style="fill:#E0E0E0;" d="M105.624,366.084c-0.849,0-1.538-0.688-1.538-1.538c0-0.849,0.688-1.538,1.538-1.538
						c0.431,0,4.815,0,5.245,0c0.849,0,1.538,0.689,1.538,1.538c0,0.849-0.688,1.538-1.538,1.538
						C110.405,366.084,106.089,366.084,105.624,366.084z"/>
					<path style="fill:#F5F5F5;" d="M105.624,365.542c-0.849,0-1.538-0.689-1.538-1.538c0-0.849,0.688-1.538,1.538-1.538
						c0.431,0,4.815,0,5.245,0c0.849,0,1.538,0.688,1.538,1.538c0,0.849-0.688,1.538-1.538,1.538
						C110.405,365.542,106.089,365.542,105.624,365.542z"/>
				</g>
				<path style="fill:#F5F5F5;" d="M55.193,309.603v73.914h1.79h1.79h98.947h1.79h1.79v-73.914H55.193z M58.773,348.451h98.947
					v31.485H58.773V348.451z M58.773,313.385h98.947v31.485H58.773V313.385z"/>
			</g>
			<g>
				<path style="fill:#EBEBEB;" d="M116.476,135.512c0-2.721-0.401-5.353-1.157-7.826l6.867-6.04l-4.323-7.49l-8.666,2.931
					c-3.586-3.827-8.272-6.606-13.555-7.833l-1.799-8.965h-8.647l-1.793,8.965c-5.283,1.227-9.976,4.006-13.561,7.833l-8.666-2.931
					l-4.323,7.49l6.866,6.04c-0.75,2.473-1.157,5.105-1.157,7.826c0,2.727,0.407,5.353,1.157,7.833l-6.866,6.034l4.323,7.49
					l8.666-2.931c3.586,3.827,8.278,6.606,13.561,7.839l1.793,8.965h8.647l1.799-8.965c5.283-1.233,9.969-4.012,13.555-7.839
					l8.666,2.931l4.323-7.49l-6.867-6.034C116.076,140.865,116.476,138.239,116.476,135.512z M89.519,150.065
					c-7.737,0-14.006-6.275-14.006-14.013c0-7.738,6.269-14.013,14.006-14.013s14.013,6.275,14.013,14.013
					C103.532,143.79,97.257,150.065,89.519,150.065z"/>
			</g>
		</g>
		<g>
			<g>
				<g>
					<g>
						<path style="fill:#EBEBEB;" d="M413.316,293.27c-1.085-2.704-3.56-4.269-5.811-3.673c-2.251,0.596-4.094,3.303-4.327,6.356
							c-1.592-1.507-3.868-1.582-5.514-0.184c-1.646,1.399-2.562,4.187-2.22,6.755c-1.795-1.834-4.736-1.077-5.894,1.518
							c-1.158,2.595-0.259,6.418,1.799,7.66c-1.401,0.128-2.604,1.897-2.567,3.775c0.037,1.878,1.308,3.559,2.712,3.588
							c-1.42,0.041-2.726,1.621-2.898,3.507c-0.172,1.886,0.812,3.84,2.183,4.335c-1.442,0.81-1.807,3.81-0.632,5.19
							c1.176,1.38,3.352,0.505,3.765-1.512c0.22,0.583,0.9,0.719,1.238,0.248c0.338-0.471,0.208-1.374-0.237-1.644
							c0.65,1.159,2.308,0.621,2.49-0.806c-0.488,3.306,2.629,6.416,4.859,4.848c-0.644,1.381,0.265,3.308,1.439,3.738
							c1.173,0.43,2.411-0.176,3.513-0.866c1.102-0.69,2.228-1.492,3.445-1.471c1.067,0.019,2.061,0.671,3.082,1.086
							c3.243,1.315,6.993,0.063,9.393-3.138c1.686,2.864,5.68,2.093,6.692-1.291c0.26,1.624,1.395,2.921,2.634,3.013
							c1.24,0.092,2.474-1.028,2.868-2.603c0.025,0.724,0.051,1.447,0.077,2.171c2.337,0.7,4.645-3.118,3.643-6.029
							c1.668,0.038,3.247-1.784,3.462-3.997c0.215-2.213-0.962-4.516-2.582-5.049c2.749-0.977,4.847-4.585,4.878-8.39
							c0.03-3.805-2.01-7.472-4.743-8.527c-1.077-0.416-2.342-0.406-3.203,0.556c-0.861,0.961-0.975,3.075-0.014,3.847
							c0.826-3.412-0.4-7.499-2.76-9.201c-2.36-1.702-5.586-0.827-7.264,1.971c0.817-1.45,0.833-3.616,0.037-5.087
							c-0.797-1.471-2.34-2.127-3.625-1.541c-0.32-2.343-2.165-4.113-3.927-3.768c-1.762,0.346-3.149,2.749-2.953,5.117
							c-0.203-1.978-2.632-2.557-3.334-0.795C412.036,292.627,413.316,293.27,413.316,293.27z"/>
					</g>
				</g>
				<g>
					<g>
						<path style="fill:#FAFAFA;" d="M413.97,315.291c-0.721-0.634-1.632-0.975-2.492-0.758c-0.861,0.218-1.64,1.059-1.817,2.148
							c-0.177,1.088,0.358,2.334,1.212,2.595c1.038,0.318,2.078-0.765,3.135-0.576c0.378,0.068,0.725,0.294,1.093,0.418
							c1.52,0.514,3.026-0.742,4.287-1.932c0.444-0.418,0.897-0.851,1.194-1.442c0.297-0.591,0.406-1.386,0.127-1.991
							c-0.389-0.843-1.308-0.966-2.074-0.856c-1.536,0.222-3.02,1.007-4.224,2.234c0.039-0.304,0.079-0.609,0.118-0.914
							L413.97,315.291z"/>
					</g>
					<g>
						<path style="fill:#FAFAFA;" d="M436.057,313.639c-0.412-0.365-0.838-0.738-1.328-0.884c-0.49-0.146-1.066-0.013-1.376,0.489
							c-0.425,0.688-0.155,1.764,0.384,2.308c0.539,0.544,1.255,0.696,1.936,0.83c0.7,0.137,1.583,0.169,1.93-0.613
							c0.252-0.57,0.049-1.324-0.327-1.771c-0.377-0.447-0.885-0.66-1.377-0.859L436.057,313.639z"/>
					</g>
					<g>
						<path style="fill:#FAFAFA;" d="M401.165,299.102c-1.407,0.744-2.493,2.39-2.821,4.274c-0.099,0.569-0.085,1.284,0.308,1.586
							c0.279,0.214,0.635,0.126,0.953,0.03c1.348-0.405,2.696-0.81,4.044-1.215c-0.645,0.314-1.306,0.64-1.821,1.224
							c-0.515,0.583-0.862,1.489-0.693,2.338c0.198,0.997,1.061,1.609,1.874,1.595c0.812-0.015,1.568-0.525,2.228-1.124
							c0.704-0.639,1.392-1.525,1.406-2.621c0.013-1.096-1.078-2.113-1.743-1.41c1.541-0.53,3.013-1.378,4.34-2.501
							c0.48-0.406,0.953-0.864,1.256-1.486c0.303-0.623,0.406-1.446,0.128-2.086c-1.382-3.177-3.128,1.483-3.979,1.898
							C405.031,300.39,403.212,298.02,401.165,299.102z"/>
						<path style="fill:#FAFAFA;" d="M394.88,312.664c-0.142,0.621-0.045,1.37,0.355,1.774c0.4,0.404,1.107,0.268,1.291-0.336
							c-0.902,0.357-1.866,0.767-2.429,1.729c-0.563,0.962-0.423,2.643,0.475,3.015c0.561,0.232,1.16-0.117,1.678-0.475
							c1.465-1.014,2.863-2.18,4.177-3.483c-0.401,1.172,0.564,2.502,1.57,2.611c1.006,0.109,1.945-0.579,2.808-1.242
							c1.058-0.813,2.271-2.056,1.993-3.582c-0.242-1.328-1.585-1.917-2.618-1.527c-1.032,0.39-1.809,1.444-2.533,2.454
							c0.567-1.045-0.239-2.597-1.231-2.767c-0.965-0.165-1.927,0.579-2.529,1.477c1.124-0.781,1.376-2.816-0.13-3.052
							C396.779,309.107,395.117,311.631,394.88,312.664z"/>
						<path style="fill:#FAFAFA;" d="M425.737,308.096c-0.849-0.402-1.913,0.298-2.142,1.408c-0.229,1.11,0.43,2.378,1.326,2.552
							c-0.659,0.072-1.29,0.488-1.713,1.13c-0.236,0.357-0.413,0.816-0.36,1.276c0.079,0.689,0.659,1.141,1.208,1.166
							c0.55,0.025,1.073-0.27,1.574-0.558c-0.543,0.064-1.118,0.144-1.548,0.567s-0.617,1.318-0.231,1.804
							c0.323,0.407,0.855,0.339,1.294,0.183c0.985-0.349,1.902-1.003,2.649-1.887c0.561,0.786,1.392,1.353,2.218,1.182
							c0.826-0.17,1.527-1.284,1.269-2.291c-0.184-0.719-0.779-1.171-1.371-1.263c-0.593-0.091-1.187,0.115-1.755,0.348
							c0.581-0.523,1.198-1.105,1.41-1.967c0.212-0.861-0.247-2.017-0.959-1.948c-0.8,0.079-1.208,1.457-1.839,1.952
							C425.987,310.827,427.446,308.904,425.737,308.096z"/>
						<g>
							<path style="fill:#FAFAFA;" d="M411.33,303.888c-0.909,0.78-1.224,2.316-1.161,3.704c0.07,1.532,0.62,3.169,1.731,3.784
								c1.462,0.809,3.288-0.73,3.556-2.72c0.268-1.99-0.764-4.014-2.179-4.945C413.277,303.712,412.24,303.108,411.33,303.888z"/>
						</g>
						<g>
							<path style="fill:#FAFAFA;" d="M421.536,302.235c0.125,0.137,0.251,0.274,0.376,0.411c-0.62-0.993-1.929-1.124-2.665-0.266
								c-0.736,0.857-0.74,2.519-0.009,3.382c0.731,0.864,2.04,0.744,2.666-0.244c1.055,0.62,2.446,0.379,3.189-0.755
								c0.742-1.133,0.574-3.109-0.438-3.835c-1.012-0.727-2.55,0.363-2.443,1.829c-0.146-0.206-0.293-0.413-0.439-0.619
								L421.536,302.235z"/>
						</g>
						<g>
							<path style="fill:#FAFAFA;" d="M432.801,304.536c-0.723,0.9-1.474,1.861-1.739,3.099c-0.265,1.238,0.172,2.815,1.155,3.131
								c0.976,0.314,1.902-0.705,2.459-1.767c0.503-0.959,0.886-2.154,0.597-3.244c-0.289-1.091-1.531-1.737-2.152-0.897
								L432.801,304.536z"/>
						</g>
						<path style="fill:#FAFAFA;" d="M416.568,297.055c-0.369-1.038-1.534-1.401-2.298-0.8c-0.764,0.602-1.045,1.956-0.711,3.013
							c0.333,1.057,1.191,1.774,2.085,1.898c1.107,0.153,2.416-0.979,2.167-2.353c0.478,0.796,1.335,1.112,2.121,1.014
							c0.786-0.098,1.516-0.549,2.201-1.048c0.93-0.677,1.921-1.724,1.823-3.075c-0.078-1.077-0.901-1.906-1.752-2.006
							c-0.851-0.1-1.689,0.4-2.339,1.102c-0.511,0.552-0.935,1.232-1.487,1.716c-0.552,0.483-1.303,0.742-1.895,0.34
							L416.568,297.055z"/>
					</g>
				</g>
			</g>
			<path style="fill:#E0E0E0;" d="M419.633,328.549c-2.09,6.122-1.027,13.229,2.763,18.471c-4.081,0-7.737,0.278-11.819,0.278
				c1.835-6.28,2.278-12.962,1.243-19.422C414.087,327.877,417.365,328.549,419.633,328.549z"/>
			<g>
				<g>
					<polygon style="fill:#EBEBEB;" points="434.131,383.304 398.807,383.304 395.349,347.702 437.589,347.702 					"/>
					<polygon style="fill:#F5F5F5;" points="440.325,349.54 392.263,349.54 391.399,344.804 441.19,344.804 					"/>
				</g>
			</g>
		</g>
	</g>
</g>
<g id="Background_Simple" style="display:none;">
	<path style="display:inline;fill:#EBEBEB;" d="M-88.921,392.426c0.238,0,0.475,0,0.713,0"/>
	<g style="display:inline;">
		<path style="fill:#407BFF;" d="M213.41,130.372c-27.499-11.479-61.051-4.096-83.283,15.746
			c-22.232,19.841-33.311,50.588-32,80.357c1.312,29.769,14.221,58.363,33.241,81.301c0.701,0.846,1.411,1.685,2.13,2.517
			c37.523,43.446,100.526,54.187,151.149,27.115c0.76-0.406,1.517-0.816,2.27-1.23c29.059-15.945,56.713-35.329,78.012-60.726
			c21.299-25.397,35.916-57.305,36.453-90.447c0.537-33.141-14.352-67.182-41.807-85.753
			c-17.752-12.008-39.573-17.059-61.005-17.078c-17.213-0.015-34.603,3.145-50.045,10.75S220.953,114.9,213.41,130.372z"/>
		<path style="opacity:0.9;fill:#FFFFFF;" d="M213.41,130.372c-27.499-11.479-61.051-4.096-83.283,15.746
			c-22.232,19.841-33.311,50.588-32,80.357c1.312,29.769,14.221,58.363,33.241,81.301c0.701,0.846,1.411,1.685,2.13,2.517
			c37.523,43.446,100.526,54.187,151.149,27.115c0.76-0.406,1.517-0.816,2.27-1.23c29.059-15.945,56.713-35.329,78.012-60.726
			c21.299-25.397,35.916-57.305,36.453-90.447c0.537-33.141-14.352-67.182-41.807-85.753
			c-17.752-12.008-39.573-17.059-61.005-17.078c-17.213-0.015-34.603,3.145-50.045,10.75S220.953,114.9,213.41,130.372z"/>
	</g>
</g>
<g id="Shadow">
	<ellipse id="_x3C_Path_x3E__359_" style="fill:#F5F5F5;" cx="250" cy="415.693" rx="193.889" ry="11.323"/>
</g>
<g id="Plant">
	<g>
		<g>
			<path style="fill:#407BFF;" d="M335.889,400.486c-1.603,10.397-4.78,17.527-17.527,17.527c-12.851,0-15.924-7.129-17.527-17.527
				c-1.962-12.725,4.957-33.942,17.527-33.942C330.932,366.545,337.851,387.761,335.889,400.486z"/>
			<path style="opacity:0.7;fill:#FFFFFF;" d="M335.889,400.486c-1.603,10.397-4.78,17.527-17.527,17.527
				c-12.851,0-15.924-7.129-17.527-17.527c-1.962-12.725,4.957-33.942,17.527-33.942
				C330.932,366.545,337.851,387.761,335.889,400.486z"/>
			<path style="fill:#407BFF;" d="M317.979,369.303c-4.346-0.449-8.652-3.167-11.515-7.267c-2.864-4.1-4.237-9.515-3.673-14.48
				c5.028-1.738,10.24-1.527,13.787,3.556C320.125,356.196,320.556,364.054,317.979,369.303z"/>
			<path style="opacity:0.3;" d="M317.979,369.303c-4.346-0.449-8.652-3.167-11.515-7.267c-2.864-4.1-4.237-9.515-3.673-14.48
				c5.028-1.738,10.24-1.527,13.787,3.556C320.125,356.196,320.556,364.054,317.979,369.303z"/>
			<g>
				<path style="fill:#407BFF;" d="M308.88,363.413c-0.928-6.321-7.647-10.62-14.035-10.544c-4.115,0.049-8.02,1.52-11.552,3.696
					c-3.457,2.13-3.827,7.012-0.724,9.631c2.541,2.144,5.528,3.576,9.067,3.921C297.681,370.708,304.612,367.735,308.88,363.413z"/>
				<path style="opacity:0.2;" d="M308.88,363.413c-0.928-6.321-7.647-10.62-14.035-10.544c-4.115,0.049-8.02,1.52-11.552,3.696
					c-3.457,2.13-3.827,7.012-0.724,9.631c2.541,2.144,5.528,3.576,9.067,3.921C297.681,370.708,304.612,367.735,308.88,363.413z"/>
				<path style="fill:#407BFF;" d="M313.323,368.267c-0.139-4.451-4.616-7.468-8.8-5.945c-3.386,1.232-6.446,3.371-8.68,6.201
					c-2.68,3.395-4.117,7.715-4.149,12.036c-0.034,4.573,4.052,8.117,8.571,7.414c1.925-0.299,3.789-0.982,5.305-1.962
					c3.615-2.338,5.993-6.27,7.145-10.419C313.305,373.468,313.405,370.871,313.323,368.267z"/>
				<path style="fill:#407BFF;" d="M313.323,368.267c-0.139-4.451-4.616-7.468-8.8-5.945c-3.386,1.232-6.446,3.371-8.68,6.201
					c-2.68,3.395-4.117,7.715-4.149,12.036c-0.034,4.573,4.052,8.117,8.571,7.414c1.925-0.299,3.789-0.982,5.305-1.962
					c3.615-2.338,5.993-6.27,7.145-10.419C313.305,373.468,313.405,370.871,313.323,368.267z"/>
				<path style="fill:#407BFF;" d="M337.412,350.44c-3.927-1.54-8.458-1.471-12.335,0.189c-1.439,0.616-2.782,1.449-3.984,2.452
					c-4.45,3.715-3.279,10.763,2.177,12.722c2.904,1.043,6.194,1.035,8.993-0.335C337.996,362.663,340.685,355.918,337.412,350.44z"
					/>
				<path style="opacity:0.3;" d="M337.412,350.44c-3.927-1.54-8.458-1.471-12.335,0.189c-1.439,0.616-2.782,1.449-3.984,2.452
					c-4.45,3.715-3.279,10.763,2.177,12.722c2.904,1.043,6.194,1.035,8.993-0.335C337.996,362.663,340.685,355.918,337.412,350.44z"
					/>
				<path style="fill:#407BFF;" d="M332.171,356.551c-1.67,1.446-3.388,2.953-4.19,5.29c-0.31,0.905-0.435,1.876-0.3,2.823
					c0.41,2.87,2.652,3.79,4.698,4.34c6.908,1.855,14.211,1.618,21.032-0.625c2.665-0.877,3.617-4.18,1.856-6.363
					c-2.299-2.85-5.279-5.196-8.184-6.418C342.754,353.777,335.87,353.348,332.171,356.551z"/>
				<path style="opacity:0.2;" d="M332.171,356.551c-1.67,1.446-3.388,2.953-4.19,5.29c-0.31,0.905-0.435,1.876-0.3,2.823
					c0.41,2.87,2.652,3.79,4.698,4.34c6.908,1.855,14.211,1.618,21.032-0.625c2.665-0.877,3.617-4.18,1.856-6.363
					c-2.299-2.85-5.279-5.196-8.184-6.418C342.754,353.777,335.87,353.348,332.171,356.551z"/>
				<path style="fill:#407BFF;" d="M334.809,363.79c-3.001-0.724-6.084,1.096-6.849,4.087c-0.505,1.974-0.439,4.122,0.21,6.056
					c1.273,3.796,4.486,6.74,8.161,8.328c1.985,0.858,4.095,1.355,6.246,1.598c3.183,0.359,5.937-2.318,5.578-5.5
					c-0.368-3.268-1.446-6.456-3.349-9.049C342.552,366.237,338.702,364.729,334.809,363.79z"/>
				<path style="fill:#407BFF;" d="M334.809,363.79c-3.001-0.724-6.084,1.096-6.849,4.087c-0.505,1.974-0.439,4.122,0.21,6.056
					c1.273,3.796,4.486,6.74,8.161,8.328c1.985,0.858,4.095,1.355,6.246,1.598c3.183,0.359,5.937-2.318,5.578-5.5
					c-0.368-3.268-1.446-6.456-3.349-9.049C342.552,366.237,338.702,364.729,334.809,363.79z"/>
				<path style="fill:#407BFF;" d="M322.803,363.715c-2.625-3.038-7.851-2.796-10.782-0.052c-2.931,2.744-3.71,7.253-2.755,11.153
					c0.956,3.9,3.396,7.273,6.124,10.219c1.164,1.257,2.391,2.456,3.674,3.592c4.217,3.736,10.831,1.706,12.319-3.728
					c0.009-0.034,0.019-0.068,0.028-0.102c1.123-4.06,2.255-8.278,1.566-12.433C332.287,368.209,326.993,364.151,322.803,363.715z"
					/>
				<path style="opacity:0.1;fill:#FFFFFF;" d="M322.803,363.715c-2.625-3.038-7.851-2.796-10.782-0.052
					c-2.931,2.744-3.71,7.253-2.755,11.153c0.956,3.9,3.396,7.273,6.124,10.219c1.164,1.257,2.391,2.456,3.674,3.592
					c4.217,3.736,10.831,1.706,12.319-3.728c0.009-0.034,0.019-0.068,0.028-0.102c1.123-4.06,2.255-8.278,1.566-12.433
					C332.287,368.209,326.993,364.151,322.803,363.715z"/>
			</g>
		</g>
		<path style="opacity:0.2;fill:#FFFFFF;" d="M323.742,366.598c2.523,6.522,3.674,13.667,2.695,20.591
			c-0.433-7.427-1.975-14.789-4.559-21.765C322.662,365.541,323.456,365.859,323.742,366.598z"/>
		<path style="opacity:0.2;fill:#FFFFFF;" d="M307.015,365.968c-4.494,4.643-7.347,10.231-9.235,16.41
			c0.735-6.091,3.44-11.929,7.612-16.428C305.81,365.499,306.463,365.696,307.015,365.968z"/>
		<path style="opacity:0.2;fill:#FFFFFF;" d="M302.444,360.234c-2.28-1.146-4.619-2.31-7.153-2.609
			c-3.684-0.435-7.318,1.237-10.751,2.643c2.874-1.426,5.796-2.867,8.951-3.446c3.156-0.579,6.633-0.19,9.176,1.767
			C302.609,359.163,302.501,359.659,302.444,360.234z"/>
		<path style="opacity:0.2;fill:#FFFFFF;" d="M344.417,377.433c-1.387-2.527-2.791-5.077-4.694-7.241
			c-1.904-2.165-4.376-3.943-7.206-4.494c0.832,0,1.837-0.252,2.669-0.252c4.468,2.814,7.986,7.083,9.319,12.192
			C344.583,377.454,344.338,377.616,344.417,377.433z"/>
		<path style="opacity:0.2;fill:#FFFFFF;" d="M314.815,360.474c-1.708-4.895-5.072-9.004-9.51-11.684
			c3.317,2.476,5.85,5.985,7.155,9.913c0.219,0.66,0.216,1.453,0.453,2.106C313.523,361.145,314.274,360.911,314.815,360.474z"/>
		<path style="opacity:0.2;fill:#FFFFFF;" d="M334.867,351.669c-4.719,1.443-8.708,5.101-10.553,9.677
			c0.356,0.178,0.357,0.357,0.713,0.535c0.44-2.433,2.38-4.332,4.312-5.876S333.015,353.306,334.867,351.669z"/>
		<path style="opacity:0.2;fill:#FFFFFF;" d="M353.216,363.44c-2.298-3.511-6.594-5.375-10.789-5.491
			c-4.195-0.115-8.332,1.28-12.053,3.219c0,0.475,0,0.951,0,1.426c3.278-2.377,7.328-3.49,11.373-3.32
			C345.793,359.443,350.148,360.797,353.216,363.44z"/>
	</g>
</g>
<g id="Certificate">
	<g>
		<g>
			<path style="fill:#407BFF;" d="M314.864,318.403H169.887c-5.045,0-8.849-4.09-8.497-9.135l15.571-222.68
				c0.353-5.045,4.729-9.135,9.774-9.135h144.977c5.045,0,8.849,4.09,8.497,9.135l-15.571,222.68
				C324.285,314.313,319.909,318.403,314.864,318.403z"/>
			<path style="opacity:0.7;fill:#FFFFFF;" d="M309.269,307.701H177.653c-5.045,0-8.849-4.09-8.497-9.135l14.192-202.96
				c0.353-5.045,4.729-9.135,9.774-9.135h131.616c5.045,0,8.849,4.09,8.497,9.135l-14.192,202.96
				C318.69,303.611,314.314,307.701,309.269,307.701z"/>
		</g>
		<polyline style="opacity:0.2;fill:#FFFFFF;" points="265.38,77.453 174.153,318.403 208.121,318.403 297.58,77.453 		"/>
		<polyline style="opacity:0.2;fill:#FFFFFF;" points="310.728,77.453 219.501,318.403 242.451,318.403 331.91,77.453 		"/>
		<g>
			<g>
				<path style="fill:#263238;" d="M217.998,96.53h2.426l-0.913,13.063h-2.426L217.998,96.53z"/>
				<path style="fill:#263238;" d="M222.034,108.212l0.971-1.885c0.987,0.839,2.605,1.437,4.21,1.437
					c2.034,0,2.943-0.728,3.012-1.698c0.197-2.818-7.695-0.97-7.356-5.823c0.148-2.108,1.953-3.9,5.536-3.9
					c1.567,0,3.181,0.411,4.267,1.157l-0.897,1.884c-1.128-0.69-2.392-1.026-3.53-1.026c-2.015,0-2.891,0.784-2.96,1.773
					c-0.194,2.78,7.677,0.97,7.342,5.766c-0.146,2.09-1.97,3.881-5.553,3.881C225.041,109.78,223.051,109.146,222.034,108.212z"/>
				<path style="fill:#263238;" d="M234.305,103.062c0.27-3.863,3.456-6.718,7.505-6.718c4.05,0,6.837,2.836,6.566,6.718
					c-0.271,3.882-3.456,6.718-7.505,6.718C236.821,109.78,234.035,106.925,234.305,103.062z M245.931,103.062
					c0.187-2.669-1.639-4.591-4.27-4.591c-2.631,0-4.725,1.922-4.912,4.591c-0.186,2.669,1.638,4.591,4.27,4.591
					C243.65,107.653,245.744,105.73,245.931,103.062z"/>
				<path style="fill:#263238;" d="M265.249,102.838c-0.314,4.479-3.098,6.942-6.886,6.942c-1.307,0-2.537-0.28-3.375-0.839
					l1.024-1.829c0.676,0.466,1.523,0.635,2.438,0.635c2.463,0,4.119-1.531,4.327-4.498l0.001-0.019
					c-0.848,0.915-2.129,1.362-3.585,1.362c-2.575,0-4.388-1.567-4.217-4.012c0.182-2.594,2.405-4.236,5.074-4.236
					C263.613,96.344,265.543,98.639,265.249,102.838z M262.598,100.449c0.086-1.232-0.817-2.202-2.552-2.202
					c-1.512,0-2.617,0.858-2.712,2.221c-0.095,1.362,0.871,2.221,2.457,2.221C261.359,102.688,262.508,101.737,262.598,100.449z"/>
				<path style="fill:#263238;" d="M266.88,103.062c0.3-4.292,2.821-6.718,5.918-6.718c3.117,0,5.298,2.426,4.999,6.718
					c-0.3,4.292-2.821,6.718-5.938,6.718C268.761,109.78,266.58,107.354,266.88,103.062z M275.352,103.062
					c0.22-3.154-0.909-4.61-2.701-4.61c-1.773,0-3.107,1.456-3.327,4.61c-0.221,3.153,0.91,4.609,2.682,4.609
					C273.798,107.671,275.131,106.215,275.352,103.062z"/>
				<path style="fill:#263238;" d="M279.443,103.062c0.3-4.292,2.821-6.718,5.919-6.718c3.116,0,5.298,2.426,4.998,6.718
					c-0.3,4.292-2.821,6.718-5.938,6.718C281.324,109.78,279.143,107.354,279.443,103.062z M287.915,103.062
					c0.22-3.154-0.91-4.61-2.701-4.61c-1.773,0-3.107,1.456-3.327,4.61c-0.221,3.153,0.91,4.609,2.683,4.609
					C286.361,107.671,287.694,106.215,287.915,103.062z"/>
				<path style="fill:#263238;" d="M296.886,96.53l-0.914,13.063h-2.426l0.772-11.029h-2.762l0.142-2.034H296.886z"/>
			</g>
			<g>
				<path style="fill:#407BFF;" d="M215.112,120.416c0.179-2.558,2.266-4.406,4.897-4.406c1.395,0,2.56,0.502,3.289,1.432
					l-1.095,0.967c-0.577-0.673-1.325-1.003-2.218-1.003c-1.775,0-3.147,1.248-3.271,3.01c-0.123,1.762,1.074,3.011,2.849,3.011
					c0.893,0,1.687-0.33,2.359-1.016l0.96,0.979c-0.861,0.93-2.095,1.432-3.502,1.432
					C216.762,124.822,214.933,122.974,215.112,120.416z"/>
				<path style="fill:#407BFF;" d="M230.837,123.366l-0.093,1.335h-6.425l0.599-8.567h6.253l-0.093,1.334h-4.663l-0.156,2.228h4.136
					l-0.092,1.309h-4.136l-0.165,2.362H230.837z"/>
				<path style="fill:#407BFF;" d="M238.122,124.7l-1.575-2.509c-0.111,0.012-0.221,0.012-0.332,0.012h-1.934l-0.174,2.497h-1.591
					l0.599-8.567h3.524c2.252,0,3.566,1.15,3.434,3.047c-0.09,1.297-0.818,2.252-2.013,2.705l1.774,2.815H238.122z M236.473,117.479
					h-1.86l-0.239,3.414h1.86c1.395,0,2.162-0.636,2.237-1.713C238.546,118.104,237.868,117.479,236.473,117.479z"/>
				<path style="fill:#407BFF;" d="M243.581,117.479h-2.839l0.094-1.346h7.269l-0.094,1.346h-2.839l-0.505,7.221h-1.591
					L243.581,117.479z"/>
				<path style="fill:#407BFF;" d="M249.304,116.133h1.591l-0.599,8.567h-1.591L249.304,116.133z"/>
				<path style="fill:#407BFF;" d="M254.704,117.467l-0.183,2.607h4.136l-0.094,1.346h-4.136l-0.23,3.28h-1.591l0.599-8.567h6.253
					l-0.093,1.334H254.704z"/>
				<path style="fill:#407BFF;" d="M261,116.133h1.591l-0.599,8.567h-1.591L261,116.133z"/>
				<path style="fill:#407BFF;" d="M263.992,120.416c0.179-2.558,2.266-4.406,4.897-4.406c1.395,0,2.559,0.502,3.29,1.432
					l-1.096,0.967c-0.577-0.673-1.325-1.003-2.218-1.003c-1.774,0-3.147,1.248-3.27,3.01c-0.123,1.762,1.075,3.011,2.849,3.011
					c0.893,0,1.688-0.33,2.359-1.016l0.96,0.979c-0.861,0.93-2.096,1.432-3.503,1.432
					C265.643,124.822,263.814,122.974,263.992,120.416z"/>
				<path style="fill:#407BFF;" d="M278.71,122.718h-4.283l-0.983,1.982h-1.64l4.454-8.567h1.566l3.268,8.567h-1.664L278.71,122.718
					z M278.272,121.469l-1.354-3.745l-1.865,3.745H278.272z"/>
				<path style="fill:#407BFF;" d="M283.995,117.479h-2.839l0.094-1.346h7.269l-0.094,1.346h-2.839l-0.505,7.221h-1.591
					L283.995,117.479z"/>
				<path style="fill:#407BFF;" d="M295.636,123.366l-0.093,1.335h-6.425l0.599-8.567h6.253l-0.093,1.334h-4.663l-0.156,2.228h4.136
					l-0.092,1.309h-4.136l-0.165,2.362H295.636z"/>
			</g>
		</g>
		<g>
			<g>
				
					<ellipse transform="matrix(0.7194 -0.6946 0.6946 0.7194 -18.5464 249.5635)" style="fill:none;stroke:#407BFF;stroke-miterlimit:10;" cx="299.581" cy="147.734" rx="8.591" ry="8.011"/>
				<path style="fill:#263238;" d="M293.831,145.878c0,0,5.267,6.416,5.192,5.703l0.523-0.595
					c4.218-4.795,9.183-8.888,14.677-12.098l1.05-0.614c-7.593,1.317-15.997,9.683-15.997,9.683l-2.292-3.002L293.831,145.878z"/>
			</g>
			<g>
				
					<ellipse transform="matrix(0.7193 -0.6947 0.6947 0.7193 -44.3393 257.9501)" style="fill:none;stroke:#407BFF;stroke-miterlimit:10;" cx="297.056" cy="183.847" rx="8.591" ry="8.011"/>
				<path style="fill:#263238;" d="M291.306,181.99c0,0,5.267,6.416,5.192,5.703l0.524-0.595c4.219-4.795,9.183-8.888,14.677-12.098
					l1.05-0.614c-7.593,1.317-15.997,9.683-15.997,9.683l-2.292-3.002L291.306,181.99z"/>
			</g>
			<g>
				<path style="fill:none;stroke:#407BFF;stroke-miterlimit:10;" d="M286.234,219.96c0.32-4.582,4.294-8.296,8.876-8.296
					s8.036,3.714,7.716,8.296c-0.32,4.582-4.294,8.296-8.876,8.296C289.368,228.256,285.914,224.542,286.234,219.96z"/>
				<path style="fill:#263238;" d="M288.78,218.103c0,0,5.267,6.416,5.192,5.703l0.523-0.595c4.219-4.795,9.183-8.888,14.677-12.098
					l1.05-0.614c-7.593,1.317-15.997,9.683-15.997,9.683l-2.292-3.002L288.78,218.103z"/>
			</g>
			<g>
				<line style="fill:#FFFFFF;stroke:#407BFF;stroke-miterlimit:10;" x1="246.869" y1="138.462" x2="208.371" y2="138.462"/>
				<line style="fill:#FFFFFF;stroke:#407BFF;stroke-miterlimit:10;" x1="279.088" y1="138.462" x2="255.854" y2="138.462"/>
				<line style="fill:#FFFFFF;stroke:#407BFF;stroke-miterlimit:10;" x1="218.278" y1="147.111" x2="197.191" y2="147.111"/>
				<line style="fill:#FFFFFF;stroke:#407BFF;stroke-miterlimit:10;" x1="276.665" y1="147.111" x2="225.798" y2="147.111"/>
				<line style="fill:#FFFFFF;stroke:#407BFF;stroke-miterlimit:10;" x1="249.709" y1="155.76" x2="196.117" y2="155.76"/>
				<line style="fill:#FFFFFF;stroke:#407BFF;stroke-miterlimit:10;" x1="275.591" y1="155.76" x2="258.078" y2="155.76"/>
				<line style="fill:#FFFFFF;stroke:#407BFF;stroke-miterlimit:10;" x1="209.285" y1="164.41" x2="195.372" y2="164.41"/>
			</g>
			<g>
				<line style="fill:#FFFFFF;stroke:#407BFF;stroke-miterlimit:10;" x1="244.352" y1="174.458" x2="205.854" y2="174.458"/>
				<line style="fill:#FFFFFF;stroke:#407BFF;stroke-miterlimit:10;" x1="276.571" y1="174.458" x2="253.337" y2="174.458"/>
				<line style="fill:#FFFFFF;stroke:#407BFF;stroke-miterlimit:10;" x1="215.761" y1="183.107" x2="194.674" y2="183.107"/>
				<line style="fill:#FFFFFF;stroke:#407BFF;stroke-miterlimit:10;" x1="274.148" y1="183.107" x2="223.281" y2="183.107"/>
				<line style="fill:#FFFFFF;stroke:#407BFF;stroke-miterlimit:10;" x1="247.192" y1="191.757" x2="193.6" y2="191.757"/>
				<line style="fill:#FFFFFF;stroke:#407BFF;stroke-miterlimit:10;" x1="273.074" y1="191.757" x2="255.561" y2="191.757"/>
				<line style="fill:#FFFFFF;stroke:#407BFF;stroke-miterlimit:10;" x1="206.768" y1="200.406" x2="192.855" y2="200.406"/>
			</g>
			<g>
				<line style="fill:#FFFFFF;stroke:#407BFF;stroke-miterlimit:10;" x1="243.636" y1="210.454" x2="205.138" y2="210.454"/>
				<line style="fill:#FFFFFF;stroke:#407BFF;stroke-miterlimit:10;" x1="275.855" y1="210.454" x2="252.622" y2="210.454"/>
				<line style="fill:#FFFFFF;stroke:#407BFF;stroke-miterlimit:10;" x1="215.045" y1="219.104" x2="193.958" y2="219.104"/>
				<line style="fill:#FFFFFF;stroke:#407BFF;stroke-miterlimit:10;" x1="273.432" y1="219.104" x2="222.565" y2="219.104"/>
				<line style="fill:#FFFFFF;stroke:#407BFF;stroke-miterlimit:10;" x1="246.476" y1="227.753" x2="192.885" y2="227.753"/>
				<line style="fill:#FFFFFF;stroke:#407BFF;stroke-miterlimit:10;" x1="272.358" y1="227.753" x2="254.846" y2="227.753"/>
				<line style="fill:#FFFFFF;stroke:#407BFF;stroke-miterlimit:10;" x1="206.053" y1="236.402" x2="192.139" y2="236.402"/>
			</g>
		</g>
		<g>
			<path style="fill:none;stroke:#263238;stroke-linecap:round;stroke-linejoin:round;stroke-miterlimit:10;" d="M265.714,272.69
				c1.477-2.844,4.18-5.09,7.225-6.003c2.256-0.676,4.816-0.583,6.576,0.792c1.76,1.375,2.361,4.223,0.907,6.118
				c-2.974,3.875-6.166,7.598-10.239,10.287c-0.924,0.61-2.084,1.197-3.023,0.744c-1.021-0.492-1.13-1.922-0.829-3.066
				c0.467-1.78,1.596-3.381,2.979-4.65c1.383-1.268,3.014-2.229,4.682-3.061c1.915-0.956,4.079-1.775,6.058-1.255
				c1.297,0.341,2.39,1.27,2.924,2.485c0.534,1.216,0.499,2.699-0.091,3.967c0.176-0.525,0.619-1.028,1.013-1.43
				c0.394-0.401,1.058-0.599,1.482-0.289c0.395,0.288,0.428,0.883,0.279,1.375c0.266-0.835,0.551-1.704,1.16-2.354
				c0.609-0.65,1.646-0.997,2.345-0.543c0.677,0.44,0.833,1.553,0.541,2.423c2.446-5.079,4.962-6.448,8.803-6.566"/>
			
				<line style="fill:none;stroke:#263238;stroke-linecap:round;stroke-linejoin:round;stroke-miterlimit:10;" x1="263.585" y1="292.486" x2="298.741" y2="292.486"/>
		</g>
	</g>
</g>
<g id="Badge">
	<g>
		<g>
			
				<ellipse transform="matrix(0.7071 -0.7071 0.7071 0.7071 -134.0038 230.1166)" style="fill:#407BFF;" cx="210.773" cy="276.815" rx="30.081" ry="30.081"/>
			
				<ellipse transform="matrix(0.7071 -0.7071 0.7071 0.7071 -134.0038 230.1166)" style="opacity:0.3;" cx="210.773" cy="276.815" rx="30.081" ry="30.081"/>
		</g>
		<g>
			<polygon style="fill:#263238;" points="197.72,286.941 197.72,335.959 210.958,322.721 224.125,335.888 224.125,286.697 			"/>
			<circle style="fill:#407BFF;" cx="210.773" cy="276.929" r="27.131"/>
			<g style="opacity:0.2;">
				<g>
					<defs>
						<path id="XMLID_6_" d="M207.437,255.183L207.437,255.183c1.765-1.967,4.839-1.991,6.634-0.052l0,0
							c1.191,1.287,3.022,1.762,4.688,1.217l0,0c2.512-0.821,5.186,0.695,5.771,3.272l0,0c0.388,1.71,1.736,3.037,3.451,3.398
							l0.001,0c2.586,0.545,4.144,3.195,3.361,5.719v0c-0.519,1.674-0.015,3.498,1.29,4.669l0,0
							c1.967,1.765,1.991,4.839,0.051,6.634l0,0c-1.287,1.191-1.762,3.022-1.217,4.688l0,0c0.821,2.512-0.695,5.186-3.272,5.771h0
							c-1.71,0.388-3.037,1.736-3.398,3.451l0,0c-0.545,2.586-3.195,4.144-5.719,3.361l0,0c-1.675-0.519-3.498-0.015-4.669,1.29l0,0
							c-1.765,1.967-4.839,1.991-6.634,0.052l0,0c-1.191-1.287-3.022-1.762-4.688-1.217h0c-2.512,0.822-5.186-0.695-5.771-3.272v0
							c-0.388-1.71-1.736-3.037-3.452-3.398h0c-2.586-0.544-4.144-3.195-3.361-5.719v0c0.519-1.675,0.015-3.498-1.29-4.669l0,0
							c-1.967-1.765-1.991-4.839-0.052-6.634l0,0c1.287-1.191,1.762-3.022,1.217-4.688v0c-0.822-2.512,0.695-5.186,3.272-5.771l0,0
							c1.71-0.388,3.037-1.736,3.398-3.451l0,0c0.544-2.586,3.195-4.144,5.719-3.362h0
							C204.443,256.992,206.266,256.488,207.437,255.183z"/>
					</defs>
					<use xlink:href="#XMLID_6_"  style="overflow:visible;"/>
					<clipPath id="XMLID_00000052795620135836630690000000153681948145864324_">
						<use xlink:href="#XMLID_6_"  style="overflow:visible;"/>
					</clipPath>
				</g>
			</g>
			<g>
				<g>
					<defs>
						<polygon id="XMLID_5_" points="210.923,256.591 217.491,252.38 221.074,259.311 228.867,258.949 228.505,266.742 
							235.435,270.325 231.225,276.893 235.435,283.461 228.505,287.044 228.867,294.838 221.074,294.475 217.491,301.406 
							210.923,297.195 204.354,301.406 200.772,294.475 192.978,294.838 193.341,287.044 186.41,283.461 190.621,276.893 
							186.41,270.325 193.341,266.742 192.978,258.949 200.772,259.311 204.354,252.38 						"/>
					</defs>
					<use xlink:href="#XMLID_5_"  style="overflow:visible;fill:#407BFF;"/>
					<clipPath id="XMLID_00000010270766114620261770000014206745891588018306_">
						<use xlink:href="#XMLID_5_"  style="overflow:visible;"/>
					</clipPath>
				</g>
			</g>
			<g style="opacity:0.1;">
				<g>
					<defs>
						<polygon id="XMLID_3_" points="210.923,256.591 217.491,252.38 221.074,259.311 228.867,258.949 228.505,266.742 
							235.435,270.325 231.225,276.893 235.435,283.461 228.505,287.044 228.867,294.838 221.074,294.475 217.491,301.406 
							210.923,297.195 204.354,301.406 200.772,294.475 192.978,294.838 193.341,287.044 186.41,283.461 190.621,276.893 
							186.41,270.325 193.341,266.742 192.978,258.949 200.772,259.311 204.354,252.38 						"/>
					</defs>
					<use xlink:href="#XMLID_3_"  style="overflow:visible;fill:#FFFFFF;"/>
					<clipPath id="XMLID_00000146471909152511130410000016679835305233180587_">
						<use xlink:href="#XMLID_3_"  style="overflow:visible;"/>
					</clipPath>
				</g>
			</g>
			<circle style="opacity:0.3;" cx="210.773" cy="276.893" r="15.902"/>
			<g>
				<g>
					<g>
						<path style="fill:#FFFFFF;" d="M220.066,273.982h-3.45c-0.946,0-1.585-0.966-1.214-1.837l0.585-1.374
							c0.148-0.35,0.204-0.728,0.161-1.093l-0.154-1.349c-0.192-1.687-1.62-2.961-3.318-2.961l0,0c-0.702,0-1.281,0.55-1.318,1.251
							l-0.118,2.249c-0.014,0.274-0.113,0.536-0.284,0.751l-3.678,4.639c-0.393,0.491-0.627,1.102-0.659,1.719l-0.4,7.627
							c-0.104,1.977,1.432,3.595,3.411,3.595h7.161c0.75,0,1.479-0.33,1.998-0.905l0.567-0.63c0.466-0.519,0.792-1.149,0.944-1.829
							l1.663-7.413c0.083-0.372,0.002-0.762-0.224-1.07l-0.61-0.831C220.881,274.182,220.486,273.982,220.066,273.982z"/>
					</g>
				</g>
				<g>
					<path style="fill:#263238;" d="M204.229,273.982h-2.09c-0.986,0-1.83,0.801-1.881,1.788l-0.505,9.642
						c-0.052,0.987,0.708,1.788,1.694,1.788h2.09c0.986,0,1.829-0.801,1.88-1.788l0.506-9.642
						C205.973,274.783,205.214,273.982,204.229,273.982z"/>
				</g>
			</g>
		</g>
	</g>
</g>
<g id="Character_2">
	<g>
		<path style="fill:#FF887B;" d="M359.099,176l-6.085,23.396l-21.311-14.762c0,0-2.835,3.978-3.311,5.77
			c0,0,20.738,21.031,27.963,17.501S368.557,176,368.557,176H359.099z"/>
		<g>
			<path style="fill:#FF887B;" d="M326.742,192.161c-1.747,0-3.478-0.329-5.103-0.968l-1.818-0.716
				c-0.65-0.339-1.058-1.012-1.058-1.745v-5.285c0-1.228,0.8-2.493,2.008-2.274l8.079-0.298l5.131,5.339l-3.474,5.947H326.742z"/>
			<g>
				<path style="fill:#FF887B;" d="M329.176,181.5c-0.355-0.794-1.247-2.933-1.332-4.577c-0.031-0.61-0.56-1.066-1.163-0.965l0,0
					c-0.475,0.079-0.827,0.485-0.837,0.967l-0.104,4.929c-0.01,0.467,0.304,0.878,0.757,0.992l2.411,0.607l0.326-1.295
					C329.29,181.938,329.269,181.707,329.176,181.5z"/>
			</g>
		</g>
		<path style="fill:#263238;" d="M390.072,160.545c-0.984-1.643-1.365-3.327-2.349-4.97c-0.157,0.009,6.336-1.069,10.53-11.388
			c6.239-3.322-2.245,9.828-5.261,13.462c3.798,0.455,6.954,4.085,7.379,7.887c0.33,2.946-2.474,5.675-4.777,7.541
			C392.214,169.76,390.107,165.279,390.072,160.545z"/>
		<g>
			<g id="freepik--character-1--inject-22">
				<g>
					<g>
						<polygon style="fill:#FF887B;" points="388.17,407.993 379.649,408.47 379.33,399.243 387.852,398.766 						"/>
						<polygon style="opacity:0.2;" points="379.331,397.881 379.48,402.172 388,401.656 387.852,397.403 						"/>
					</g>
					<path style="fill:#263238;" d="M379.172,406.765l9.638-0.164c0.35-0.01,0.659,0.227,0.741,0.567l1.802,7.615
						c0.153,0.686-0.278,1.366-0.964,1.52c-0.09,0.02-0.181,0.03-0.273,0.031c-3.372,0.001-5.008-0.171-9.253-0.099
						c-2.611,0.045-9.377,0.435-12.985,0.497c-3.608,0.062-4.125-3.501-2.659-3.849c6.622-1.566,10.453-3.626,12.547-5.571
						C378.151,406.961,378.652,406.766,379.172,406.765z"/>
				</g>
				<g>
					<g>
						<polygon style="fill:#FF887B;" points="409.163,407.993 400.641,408.47 400.322,399.243 408.844,398.766 						"/>
						<polygon style="opacity:0.2;" points="400.323,397.881 400.472,402.172 408.992,401.656 408.844,397.403 						"/>
					</g>
					<path style="fill:#263238;" d="M400.164,406.765l9.638-0.164c0.35-0.01,0.659,0.227,0.741,0.567l1.802,7.615
						c0.153,0.686-0.278,1.366-0.964,1.52c-0.09,0.02-0.181,0.03-0.273,0.031c-3.372,0.001-5.008-0.171-9.253-0.099
						c-2.611,0.045-9.377,0.435-12.985,0.497c-3.608,0.062-4.125-3.501-2.659-3.849c6.622-1.566,10.453-3.626,12.547-5.571
						C399.143,406.961,399.644,406.766,400.164,406.765z"/>
				</g>
				<g>
					<path style="fill:#263238;" d="M377.916,400.564l11.383-0.878c0,0,6.05-43.111-1.299-81.94
						c0.803-30.342,3.363-94.421,3.363-94.421l-27.538-0.101c-1.725,10.269-0.745,69.959,2.938,99.696L377.916,400.564z"/>
				</g>
				<path style="opacity:0.2;" d="M387.483,255.536l-7.843,0.496c-1.229,9.244,2.937,28.654,6.892,40.004
					C386.908,284.147,387.008,267.236,387.483,255.536z"/>
				<g>
					<path style="fill:#263238;" d="M398.824,400.564l11.383-0.878c0,0,5.571-46.818-1.215-79.227
						c0.448-16.94,1.495-54.725,2.234-72.627c0.552-13.386-10.125-24.547-23.522-24.596l-2.97-0.011
						c-1.725,10.269-2.061,77.293,1.212,99.34L398.824,400.564z"/>
				</g>
				<path style="fill:#407BFF;" d="M360.871,166.702c-1.305,0.661-7.79,19.939-7.79,19.939l13.877,6.654
					c0,0,3.772-16.21,5.37-21.557C373.997,166.184,365.292,163.035,360.871,166.702z"/>
				<path style="opacity:0.6;fill:#FFFFFF;" d="M360.871,166.702c-1.998,1.865-7.79,19.939-7.79,19.939l13.877,6.654
					c0,0,3.772-16.21,5.37-21.557C373.997,166.184,365.292,163.035,360.871,166.702z"/>
				<path style="fill:#407BFF;" d="M362.14,172.247c-0.498,1.65-2.087,7.09-2.523,10.734c-0.102,0.849-0.091,1.702,0.012,2.551
					c0.526,4.376,2.599,21.595,3.557,29.375c0.184,1.491,0.479,6.439-0.981,16.749c-1.335,9.419-1.72,24.226-1.693,25.516
					l53.82-3.402c-1.773-23.079-13.116-37.039-13.105-40.227c0.032-9.577,1.049-19.358,5.212-38.099
					c0.958-4.322-1.769-8.602-6.091-9.56c-0.239-0.053-0.48-0.095-0.723-0.126c-2.256-0.294-4.759-0.565-7.297-0.693
					c-5.69-0.43-11.404-0.453-17.098-0.069c-4.002,0.353-4.568-0.303-7.636,0.215c-2.637,0.477-3.653,2.818-5.097,6.086
					C362.359,171.604,362.237,171.924,362.14,172.247z"/>
				<path style="opacity:0.7;fill:#FFFFFF;" d="M361.577,173.863c0,0-1.441,4.778-1.96,9.118c-0.102,0.851-0.091,1.703,0.012,2.554
					c0.527,4.38,2.599,21.594,3.556,29.373c0.184,1.491,0.479,6.439-0.981,16.749c-1.335,9.419-1.72,24.226-1.693,25.516
					l53.82-3.402c-1.773-23.079-13.116-37.039-13.105-40.227c0.032-9.577,1.049-19.358,5.212-38.099
					c0.958-4.322-1.769-8.602-6.091-9.56c-0.239-0.053-0.48-0.095-0.723-0.126c-2.256-0.294-4.759-0.565-7.297-0.693
					c-5.69-0.43-11.404-0.453-17.098-0.069c-4.002,0.353-4.568-0.303-7.636,0.215C364.585,165.71,363.001,169.393,361.577,173.863z"
					/>
				<polygon style="fill:#263238;" points="364.258,221.113 401.707,220.849 401.707,224.426 364.258,224.426 				"/>
				<g>
					<path style="fill:#407BFF;" d="M396.889,225.397l1.016-0.017c0.199-0.003,0.359-0.111,0.347-0.234l-0.464-4.38
						c-0.002-0.123-0.194-0.234-0.393-0.231l-1.026,0.018c-0.199,0.003-0.35,0.101-0.338,0.234l0.454,4.371
						C396.507,225.299,396.68,225.4,396.889,225.397z"/>
					<path style="fill:#407BFF;" d="M366.502,225.288l1.026-0.018c0.199-0.003,0.359-0.101,0.348-0.234l-0.464-4.38
						c-0.002-0.123-0.194-0.225-0.393-0.231l-1.025,0.017c-0.199,0.003-0.359,0.101-0.338,0.234l0.454,4.371
						C366.129,225.18,366.302,225.282,366.502,225.288z"/>
					<path style="fill:#407BFF;" d="M381.69,225.342l1.026-0.018c0.199-0.003,0.359-0.101,0.348-0.234l-0.464-4.371
						c-0.002-0.133-0.194-0.234-0.393-0.231l-1.025,0.018c-0.199,0.003-0.35,0.11-0.338,0.234l0.455,4.381
						C381.318,225.235,381.491,225.346,381.69,225.342z"/>
				</g>
				<g style="opacity:0.7;">
					<path style="fill:#FFFFFF;" d="M396.889,225.397l1.016-0.017c0.199-0.003,0.359-0.111,0.347-0.234l-0.464-4.38
						c-0.002-0.123-0.194-0.234-0.393-0.231l-1.026,0.018c-0.199,0.003-0.35,0.101-0.338,0.234l0.454,4.371
						C396.507,225.299,396.68,225.4,396.889,225.397z"/>
					<path style="fill:#FFFFFF;" d="M366.502,225.288l1.026-0.018c0.199-0.003,0.359-0.101,0.348-0.234l-0.464-4.38
						c-0.002-0.123-0.194-0.225-0.393-0.231l-1.025,0.017c-0.199,0.003-0.359,0.101-0.338,0.234l0.454,4.371
						C366.129,225.18,366.302,225.282,366.502,225.288z"/>
					<path style="fill:#FFFFFF;" d="M381.69,225.342l1.026-0.018c0.199-0.003,0.359-0.101,0.348-0.234l-0.464-4.371
						c-0.002-0.133-0.194-0.234-0.393-0.231l-1.025,0.018c-0.199,0.003-0.35,0.11-0.338,0.234l0.455,4.381
						C381.318,225.235,381.491,225.346,381.69,225.342z"/>
				</g>
				<g>
					<path style="fill:#407BFF;" d="M377.212,183.407c0,0.678-0.549,1.227-1.227,1.227c-0.678,0-1.227-0.549-1.227-1.227
						c0-0.678,0.549-1.227,1.227-1.227C376.663,182.18,377.212,182.73,377.212,183.407z"/>
					<path style="fill:#407BFF;" d="M377.212,197.596c0,0.678-0.549,1.227-1.227,1.227c-0.678,0-1.227-0.549-1.227-1.227
						c0-0.678,0.549-1.227,1.227-1.227C376.663,196.369,377.212,196.919,377.212,197.596z"/>
					<path style="fill:#407BFF;" d="M378.559,210.384c0,0.678-0.549,1.227-1.227,1.227c-0.678,0-1.227-0.549-1.227-1.227
						c0-0.678,0.549-1.227,1.227-1.227C378.01,209.157,378.559,209.707,378.559,210.384z"/>
				</g>
				<g>
					<path style="fill:#263238;" d="M376.335,230.934l-21.321,1.62c-0.813,0.062-1.591-0.542-1.738-1.348l-5.922-32.439
						c-0.147-0.806,0.392-1.51,1.205-1.572l21.321-1.62c0.813-0.062,1.591,0.542,1.738,1.348l5.922,32.439
						C377.688,230.168,377.148,230.872,376.335,230.934z"/>
					<path style="fill:#263238;" d="M362.243,198.764l-5.105,0.388c-1.016,0.077-1.989-0.677-2.173-1.685l-0.546-2.989l8.785-0.668
						l0.546,2.989C363.934,197.807,363.259,198.687,362.243,198.764z"/>
					<path style="opacity:0.7;fill:#FFFFFF;" d="M362.243,198.764l-5.105,0.388c-1.016,0.077-1.989-0.677-2.173-1.685l-0.546-2.989
						l8.785-0.668l0.546,2.989C363.934,197.807,363.259,198.687,362.243,198.764z"/>
					<g>
						<path style="fill:#FFFFFF;" d="M370.87,195.606l-1.004,0.076c0.813-0.062,1.591,0.542,1.738,1.348l5.922,32.439
							c0.147,0.806-0.392,1.51-1.205,1.572l1.004-0.076c0.813-0.062,1.352-0.766,1.205-1.572l-5.922-32.439
							C372.461,196.148,371.682,195.544,370.87,195.606z"/>
					</g>
				</g>
				<path style="fill:#FF887B;" d="M409.358,171.755c0.786,4.959,1.383,9.853,1.834,14.846c0.223,2.477,0.437,4.95,0.509,7.535
					c0.147,2.654,0.13,5.315-0.052,7.968c-0.065,0.822-0.178,1.64-0.339,2.449c-0.134,0.619-0.323,1.225-0.564,1.81
					c-0.104,0.231-0.223,0.455-0.357,0.67l-0.22,0.413c-0.114,0.173-0.238,0.339-0.371,0.497l-0.216,0.25l-0.069,0.129l0,0
					l-0.054,0.101l-0.181,0.163c-1.019,0.871-1.951,1.801-3.034,2.592c-2.095,1.686-4.332,3.188-6.686,4.488
					c-2.403,1.299-4.947,2.316-7.583,3.031c-1.342,0.362-2.71,0.614-4.093,0.753c-0.704,0.061-1.413,0.107-2.126,0.116l-1.098-0.043
					c-0.409-0.029-0.701-0.056-1.272-0.136l0.489-5.117c0.189-0.055,0.381-0.098,0.576-0.129l0.74-0.171
					c0.501-0.122,1.008-0.276,1.511-0.444c1.028-0.353,2.035-0.764,3.016-1.233c1.962-0.979,3.833-2.132,5.588-3.446
					c0.875-0.712,1.758-1.35,2.598-2.152c0.84-0.802,1.659-1.474,2.442-2.235c0.783-0.761,1.552-1.649,2.345-2.452l0.093-0.174
					l0.049-0.092l0,0l-0.044,0.082l-0.098,0.184c-0.059,0.11-0.193,0.251-0.236,0.31c-0.042,0.068-0.08,0.138-0.113,0.211
					l-0.142,0.266c-0.113,0.211-0.078,0.147-0.029,0.055c0.049-0.092,0.056-0.724,0.069-1.213c0.002-2.015-0.153-4.421-0.38-6.759
					c-0.227-2.338-0.475-4.746-0.771-7.133c-0.577-4.777-1.208-9.63-1.827-14.394L409.358,171.755z"/>
				<path style="fill:#FF887B;" d="M386.397,219.601l-9.747,1.228l0.682-8.928c0,0,5.526-0.012,8.091,3.337L386.397,219.601z"/>
				<path style="fill:#FF887B;" d="M371.402,218.796l-0.455-3.415c-0.171-1.363,0.774-2.615,2.132-2.825l4.253-0.656l-0.682,8.928
					l-2.588,0.165C372.736,221.074,371.574,220.114,371.402,218.796z"/>
				<rect x="385.189" y="181.757" style="fill:#FFFFFF;" width="14.352" height="3.391"/>
				<g>
					<path style="fill:#407BFF;" d="M397.612,167.891c-5.247,6.478-0.98,28.485-0.98,28.485l17.698-3.079
						c0,0,0.629-15.686-4.452-22.695C406.332,165.714,400.567,164.503,397.612,167.891z"/>
					<path style="opacity:0.6;fill:#FFFFFF;" d="M397.612,167.891c-5.247,6.478-0.98,28.485-0.98,28.485l17.698-3.079
						c0,0,0.629-15.686-4.452-22.695C406.332,165.714,400.567,164.503,397.612,167.891z"/>
				</g>
				<g>
					<path style="fill:#FF887B;" d="M390.745,145.829c-1.094,5.49-2.214,15.558,1.62,19.235c-2.762,3.023-7.209,7.974-14.889,10.226
						c-4.299-7.582-2.209-10.296-2.209-10.296c6.13-1.434,5.996-5.982,4.945-10.257L390.745,145.829z"/>
					<path style="opacity:0.2;" d="M389.603,146.798c-0.092,3.271-0.883,6.484-2.318,9.424c-1.001,2.021-3.75,2.913-6.529,3.122
						c0.065-1.554-0.112-3.108-0.525-4.607L389.603,146.798z"/>
					<path style="fill:#FF887B;" d="M399.529,138.983c-2.699,8.804-3.585,12.58-9.224,16.096c-8.411,5.282-18.634,0.09-18.662-9.323
						c-0.011-8.472,4.384-21.437,13.923-22.919c6.834-1.109,13.273,3.533,14.382,10.367
						C400.261,135.136,400.118,137.116,399.529,138.983z"/>
					<path style="fill:#263238;" d="M393.748,121.024c-5.889-5.418-12.387-3.239-15.802-1.459c-3.415,1.781-6.003,5.077-6.922,8.818
						c-0.363,1.476,0.038,4.882,2.862,5.833c0,0,1.426-3.085,3.285-4.554c2.139-1.691,6.117-1.867,7.706-1.395
						c1.505,3.445,3.668,7.252,6.192,10.037c2.524,2.785,6.244,4.767,9.967,4.248c3.418-4.371,4.556-10.445,2.25-15.492
						C400.979,122.012,393.748,121.024,393.748,121.024z"/>
					<path style="fill:#263238;" d="M388.043,135.94c-0.059-0.05-0.108-0.111-0.146-0.178c-1.096-1.513-3.634-2.142-4.72-2.409
						c-0.239-0.038-0.403-0.263-0.365-0.502c0.038-0.239,0.263-0.403,0.502-0.365l0,0c1.38,0.316,4.405,1.257,5.393,2.92
						c0.091,0.229-0.022,0.488-0.251,0.579C388.321,136.039,388.165,136.022,388.043,135.94z"/>
					<path style="fill:#263238;" d="M375.284,133.99l-0.058-0.056c-0.173-0.168-0.178-0.444-0.01-0.617
						c1.001-0.971,2.404-1.408,3.779-1.176c0.235,0.055,0.381,0.29,0.325,0.525c-0.001,0.004-0.002,0.007-0.003,0.011
						c-0.057,0.234-0.292,0.379-0.526,0.322c-1.102-0.188-2.228,0.167-3.023,0.954C375.629,134.062,375.438,134.077,375.284,133.99z
						"/>
					<path style="fill:#263238;" d="M397.16,140.646c-1.111-1.38-2.693-2.244-4.454-2.434l-3.911-0.422
						c0.095-2.21-1.529-4.152-3.758-4.392c-2.164-0.233-4.107,1.222-4.568,3.298c-0.283-0.151-0.617-0.187-0.926-0.1
						c-0.007-2.127-1.596-3.963-3.759-4.197c-2.322-0.251-4.414,1.434-4.665,3.756c-0.25,2.322,1.434,4.415,3.756,4.665
						c2.271,0.245,4.311-1.367,4.634-3.61c0.276-0.175,0.63-0.137,0.862,0.093c-0.163,2.261,1.486,4.271,3.757,4.516
						c2.229,0.24,4.23-1.311,4.609-3.49l3.911,0.422c1.617,0.174,3.07,0.968,4.09,2.235l1.126,1.398l0.422-0.34L397.16,140.646z
						 M374.932,140.282c-2.024-0.218-3.494-2.043-3.275-4.068c0.218-2.025,2.043-3.494,4.068-3.276
						c2.024,0.218,3.494,2.043,3.275,4.068C378.782,139.031,376.957,140.5,374.932,140.282z M384.186,141.28
						c-2.025-0.218-3.494-2.043-3.275-4.068c0.218-2.025,2.043-3.494,4.068-3.275c2.025,0.218,3.494,2.043,3.276,4.068
						C388.035,140.029,386.211,141.499,384.186,141.28z"/>
					<path style="fill:#FF887B;" d="M401.525,143.949c-0.511,1.716-1.693,3.154-3.279,3.987c-2.09,1.068-3.614-0.674-3.434-2.9
						c0.165-1.997,1.455-4.97,3.747-5.136c1.667-0.07,3.074,1.225,3.144,2.891C401.721,143.185,401.66,143.578,401.525,143.949z"/>
					<path style="fill:#BA4D3C;" d="M379.475,138.299c-1.038,1.506-2.277,2.863-3.683,4.033c0.621,0.711,1.525,1.113,2.469,1.098
						L379.475,138.299z"/>
					<path style="fill:#263238;" d="M379.124,146.685c-0.074-0.051-0.112-0.139-0.1-0.228c0.024-0.118,0.14-0.195,0.258-0.17
						c0.001,0,0.001,0,0.002,0c1.847,0.377,3.764-0.146,5.163-1.409c0.083-0.088,0.222-0.091,0.309-0.008
						c0.088,0.083,0.091,0.222,0.008,0.309c-1.495,1.39-3.576,1.96-5.571,1.527L379.124,146.685z"/>
					<g>
						<path style="fill:#263238;" d="M385.912,138.24c-0.143,0.732-0.642,1.259-1.124,1.167c-0.482-0.093-0.753-0.76-0.62-1.492
							c0.134-0.732,0.642-1.259,1.124-1.167C385.774,136.84,386.046,137.508,385.912,138.24z"/>
						<path style="fill:#263238;" d="M377.427,137.09c-0.133,0.741-0.633,1.259-1.115,1.166c-0.482-0.093-0.762-0.75-0.62-1.492
							c0.143-0.742,0.633-1.249,1.115-1.166C377.289,135.681,377.57,136.357,377.427,137.09z"/>
						<path style="fill:#263238;" d="M377.013,135.679l-1.672-0.844C375.341,134.835,375.993,136.392,377.013,135.679z"/>
						<path style="fill:#263238;" d="M385.498,136.829l-1.672-0.844C383.825,135.985,384.468,137.543,385.498,136.829z"/>
					</g>
				</g>
			</g>
		</g>
		<path style="fill:#407BFF;" d="M373.465,170.965c0,0.114,3.976,5.034,3.976,5.034l8.002-3.673l-3.327-1.851l-3.577,1.811
			c0,0-1.249-2.257-0.598-5.497C378.593,163.549,373.465,170.965,373.465,170.965z"/>
		<path style="fill:#407BFF;" d="M378.178,171.4c-1.669,1.001-5.025,4.09-5.025,4.09c-1.137-3.935,0.084-10.958,3.832-12.609
			c1.485-0.654,1.835-0.95,3.32-1.604C378.815,163.917,376.881,167.426,378.178,171.4z"/>
		<path style="fill:#407BFF;" d="M390.129,160.622c-1.218,7.792-10.984,11.259-10.984,11.259c1.557,1.412,2.289,2.707,3.846,4.12
			c4.677-2.762,8.521-6.144,11.592-10.625c-1.382-1.653-2.978-3.223-4.36-4.877C390.129,160.622,390.153,160.469,390.129,160.622z"
			/>
	</g>
</g>
<g id="Glow">
	<g>
		<g>
			<g>
				<path style="fill:#407BFF;" d="M284.331,346.371c0.103-0.039,0.375-2.001,0.669-4.377c0.612-4.945,3.545-8.772,7.241-9.526
					c2.668-0.545,2.668-0.545,2.668-0.545s-4.188,0-5.934-1.222c-3.701-2.591-4.551-10.242-4.551-10.242s-1.037,7.652-4.738,10.242
					c-1.746,1.222-5.934,1.222-5.934,1.222s0,0,2.668,0.545c3.697,0.755,6.63,4.581,7.242,9.526
					C283.956,344.37,284.229,346.332,284.331,346.371z"/>
			</g>
			<g style="opacity:0.7;">
				<path style="fill:#FFFFFF;" d="M284.331,346.371c0.103-0.039,0.375-2.001,0.669-4.377c0.612-4.945,3.545-8.772,7.241-9.526
					c2.668-0.545,2.668-0.545,2.668-0.545s-4.188,0-5.934-1.222c-3.701-2.591-4.551-10.242-4.551-10.242s-1.037,7.652-4.738,10.242
					c-1.746,1.222-5.934,1.222-5.934,1.222s0,0,2.668,0.545c3.697,0.755,6.63,4.581,7.242,9.526
					C283.956,344.37,284.229,346.332,284.331,346.371z"/>
			</g>
		</g>
		<g>
			<g>
				<path style="fill:#407BFF;" d="M360.479,101.96c0.134-0.051,0.488-2.605,0.871-5.699c0.796-6.438,4.615-11.42,9.428-12.403
					c3.474-0.709,3.474-0.709,3.474-0.709s-5.452,0-7.726-1.591c-4.819-3.373-5.925-13.335-5.925-13.335s-1.35,9.962-6.169,13.335
					c-2.273,1.591-7.726,1.591-7.726,1.591s0,0,3.474,0.709c4.813,0.983,8.632,5.965,9.428,12.403
					C359.991,99.355,360.345,101.909,360.479,101.96z"/>
			</g>
			<g style="opacity:0.7;">
				<path style="fill:#FFFFFF;" d="M360.479,101.96c0.134-0.051,0.488-2.605,0.871-5.699c0.796-6.438,4.615-11.42,9.428-12.403
					c3.474-0.709,3.474-0.709,3.474-0.709s-5.452,0-7.726-1.591c-4.819-3.373-5.925-13.335-5.925-13.335s-1.35,9.962-6.169,13.335
					c-2.273,1.591-7.726,1.591-7.726,1.591s0,0,3.474,0.709c4.813,0.983,8.632,5.965,9.428,12.403
					C359.991,99.355,360.345,101.909,360.479,101.96z"/>
			</g>
		</g>
		<g>
			<g>
				<path style="fill:#407BFF;" d="M158.368,125.926c0.103-0.04,0.375-2.001,0.669-4.377c0.612-4.945,3.545-8.771,7.242-9.526
					c2.668-0.545,2.668-0.545,2.668-0.545s-4.188,0-5.934-1.222c-3.701-2.591-4.551-10.242-4.551-10.242s-1.037,7.652-4.738,10.242
					c-1.746,1.222-5.934,1.222-5.934,1.222s0,0,2.668,0.545c3.697,0.755,6.63,4.581,7.242,9.526
					C157.993,123.925,158.265,125.887,158.368,125.926z"/>
			</g>
			<g style="opacity:0.7;">
				<path style="fill:#FFFFFF;" d="M158.368,125.926c0.103-0.04,0.375-2.001,0.669-4.377c0.612-4.945,3.545-8.771,7.242-9.526
					c2.668-0.545,2.668-0.545,2.668-0.545s-4.188,0-5.934-1.222c-3.701-2.591-4.551-10.242-4.551-10.242s-1.037,7.652-4.738,10.242
					c-1.746,1.222-5.934,1.222-5.934,1.222s0,0,2.668,0.545c3.697,0.755,6.63,4.581,7.242,9.526
					C157.993,123.925,158.265,125.887,158.368,125.926z"/>
			</g>
		</g>
	</g>
</g>
<g id="Character_1">
	<g>
		<g>
			<g>
				<path style="fill:#FF887B;" d="M162.298,179.495l13.135-0.622l3.796-2.717c0.641-0.278,1.357-0.327,2.03-0.139l6.066,0.452
					c0.924,0.258,1.673,0.937,2.019,1.832l0.209,5.769c-0.35,1.162-1.357,2.006-2.563,2.146l-7.373,0.857
					c-0.577,0.067-1.162-0.032-1.684-0.287l-4.856-1.317l-15.967,1.625L162.298,179.495z"/>
			</g>
			<g>
				<path style="fill:#FF887B;" d="M179.426,176.123c0.613-0.618,2.202-2.304,2.863-3.811c0.245-0.559,0.901-0.799,1.429-0.493l0,0
					c0.417,0.242,0.602,0.746,0.441,1.2l-1.644,4.648c-0.156,0.44-0.595,0.714-1.059,0.661l-2.47-0.284l0.153-1.326
					C179.164,176.492,179.266,176.284,179.426,176.123z"/>
			</g>
			<path style="fill:#263238;" d="M145.834,189.601c-2.7,0.074-5.25-1.242-6.742-3.493c-2.816-4.252-5.378-8.673-7.665-13.231
				c-3.322-6.621-4.247-20-8.136-26.305c6.796,2.907,14.252,7.905,17.438,14.575c2.442,5.113,5.607,10.066,8.236,15.085
				l20.299-0.356c2.128-0.037,4.02,1.363,4.582,3.416c0.952,3.48,1.663,8.4-1.7,8.967
				C168.237,188.918,153.282,189.398,145.834,189.601z"/>
			<g>
				<g>
					<g>
						<g>
							<g>
								<polygon style="fill:#FF887B;" points="126.777,409.689 135.436,409.457 135.267,389.402 126.607,389.635 								"/>
								<path style="fill:#263238;" d="M135.779,405.436l-9.47,0.254c-0.349,0.008-0.642,0.307-0.697,0.713l-1.283,9.069
									c-0.111,0.837,0.376,1.628,1.088,1.766c0.081,0.016,0.163,0.022,0.244,0.02c3.407-0.166,8.325-0.533,12.618-0.648
									c5.008-0.134,5.427,0.177,11.299,0.019c3.556-0.095,4.337-4.342,2.833-4.686c-6.855-1.564-8.469-1.706-14.518-5.807
									C137.254,405.68,136.523,405.438,135.779,405.436z"/>
								<polygon style="opacity:0.2;" points="135.267,389.413 135.131,400.725 126.471,400.957 126.608,389.645 								"/>
								<path style="fill:#407BFF;" d="M136.913,406.235c-0.067-0.006-0.127-0.046-0.158-0.106c-0.05-0.097-0.011-0.216,0.085-0.265
									c0.378-0.218,3.731-2.05,4.784-1.487c0.201,0.099,0.336,0.296,0.356,0.52c0.068,0.365-0.055,0.74-0.326,0.994
									c-0.598,0.427-1.326,0.634-2.059,0.584C138.696,406.478,137.798,406.398,136.913,406.235z M137.527,405.928
									c1.906,0.27,3.303,0.15,3.798-0.33c0.181-0.168,0.26-0.418,0.211-0.659c-0.002-0.09-0.051-0.172-0.13-0.214
									c-0.123-0.046-0.254-0.068-0.385-0.062C139.792,404.883,138.611,405.311,137.527,405.928z"/>
								<path style="fill:#407BFF;" d="M136.458,405.936c-0.055-0.045-0.088-0.113-0.088-0.184c0.008-0.094,0.143-2.4,1.156-3.319
									c0.297-0.275,0.697-0.41,1.1-0.372c0.561,0.037,0.776,0.322,0.782,0.539c0.202,0.97-1.718,2.857-2.742,3.352l-0.083,0.002
									C136.541,405.957,136.498,405.951,136.458,405.936z M137.804,402.746c-0.59,0.766-0.927,1.695-0.966,2.661
									c1.02-0.66,2.328-2.148,2.21-2.715c-0.012-0.052-0.048-0.227-0.41-0.217l-0.124,0.003
									C138.251,402.475,137.999,402.571,137.804,402.746z"/>
							</g>
							<g>
								<polygon style="fill:#FF887B;" points="94.959,410.302 103.621,410.199 103.752,390.144 95.09,390.247 								"/>
								<path style="fill:#263238;" d="M104.024,406.184l-9.473,0.112c-0.349,0.003-0.646,0.298-0.708,0.702l-1.419,9.049
									c-0.124,0.835,0.352,1.633,1.062,1.782c0.081,0.017,0.162,0.025,0.244,0.024c3.409-0.115,8.332-0.409,12.627-0.46
									c5.01-0.059,5.424,0.258,11.297,0.188c3.558-0.042,4.402-4.277,2.903-4.643c-6.83-1.666-8.443-1.832-14.43-6.023
									C105.495,406.45,104.767,406.197,104.024,406.184z"/>
								<polygon style="opacity:0.2;" points="103.752,390.155 103.446,401.464 94.784,401.567 95.09,390.258 								"/>
								<path style="fill:#407BFF;" d="M105.146,407c-0.067-0.007-0.126-0.048-0.156-0.108c-0.048-0.098-0.008-0.216,0.089-0.264
									c0.381-0.212,3.761-1.994,4.806-1.416c0.2,0.102,0.332,0.301,0.349,0.525c0.063,0.366-0.066,0.739-0.341,0.989
									c-0.604,0.418-1.335,0.614-2.068,0.554C106.925,407.269,106.028,407.176,105.146,407z M105.764,406.702
									c1.901,0.299,3.3,0.199,3.803-0.273c0.183-0.165,0.267-0.414,0.22-0.656c0-0.09-0.049-0.172-0.127-0.216
									c-0.122-0.048-0.253-0.072-0.384-0.068C108.045,405.691,106.857,406.101,105.764,406.702z"/>
								<path style="fill:#407BFF;" d="M104.696,406.694c-0.055-0.046-0.086-0.114-0.085-0.186c0.009-0.093,0.179-2.398,1.205-3.302
									c0.301-0.271,0.703-0.4,1.106-0.355c0.561,0.045,0.771,0.333,0.774,0.551c0.188,0.973-1.761,2.831-2.792,3.31l-0.083,0.001
									C104.778,406.716,104.735,406.709,104.696,406.694z M106.089,403.525c-0.601,0.757-0.953,1.681-1.006,2.646
									c1.029-0.645,2.36-2.113,2.25-2.682c-0.011-0.052-0.044-0.228-0.407-0.223l-0.124,0.001
									C106.54,403.26,106.286,403.352,106.089,403.525z"/>
							</g>
							<g>
								<g>
									<g>
										<g>
											<g>
												<path style="fill:#263238;" d="M135.462,226.487l2.597,106.404l0.68,61.98c-0.009,1.789-1.27,3.239-2.846,3.27
													l-10.306,0.2c-1.494,0.029-2.77-1.225-2.951-2.91c-1.498-13.883-6.849-35.836-5.154-61.861
													c0,0-8.723-68.059-9.572-88.87l1.309-18.549L135.462,226.487z"/>
												<path style="opacity:0.3;" d="M114.566,255.514c0,0,1.486,17.117-0.867,45.02c0,0-2.906-20.429-4.506-31.607
													L114.566,255.514z"/>
											</g>
											<g>
												<path style="fill:#263238;" d="M117.025,225.46l-7.463,108.259l-2.987,61.912c-0.114,1.786-1.459,3.158-3.034,3.096
													l-10.299-0.41c-1.493-0.059-2.692-1.386-2.774-3.08c-0.675-13.947-4.718-36.178-1.487-62.057
													c0,0-4.683-68.456-4.3-89.28l2.404-18.439H117.025z"/>
											</g>
											<path style="fill:#FF887B;" d="M103.73,143.058c1.767-5.466,1.395-13.311,0.803-18.22l11.852,11.716
												c-0.699,2.122-1.078,4.407-0.749,6.514c0.164,1.053,0.995,1.878,2.054,1.999l5.041,1.577l0.595,3.903l-3.045,0.787
												l-3.879,5.067l-10.079-5.067l-10.572-4.915c0,0,1.919-0.708,4.925-0.923C101.795,145.417,103.384,144.128,103.73,143.058
												z"/>
											<path style="fill:#407BFF;" d="M135.462,226.487l-50.088,1.028l9.535-81.605c0,0,0.352-0.127,1.076-0.313l3.834-0.685
												l0.039,0.02c0.763,0.528,8.391,7.373,15.788,7.654c6.266,0.238,3.696-7.673,3.696-7.673l2.69,0.841
												c0.352,0.059,0.704,0.108,1.066,0.157l3.247,2.426c0,0,6.905,15.014,8.568,52.3L135.462,226.487z"/>
											<path style="opacity:0.8;fill:#FFFFFF;" d="M135.462,226.487l-50.088,1.028l9.535-81.605c0,0,0.352-0.127,1.076-0.313
												l3.834-0.685l0.039,0.02c0.763,0.528,8.391,7.373,15.788,7.654c6.266,0.238,3.696-7.673,3.696-7.673l2.69,0.841
												c0.352,0.059,0.704,0.108,1.066,0.157l3.247,2.426c0,0,6.905,15.014,8.568,52.3L135.462,226.487z"/>
											<path style="opacity:0.2;enable-background:new    ;" d="M109.354,130.521l6.828,6.691
												c-0.365,1.247-0.605,2.536-0.652,3.803c-2.783-0.639-6.197-3.262-7.073-6.415
												C107.88,132.655,108.612,130.689,109.354,130.521z"/>
											<path style="fill:#FF887B;" d="M102.744,115.971c0.509,9.005,0.36,14.296,4.888,18.927
												c6.801,6.98,17.934,2.878,20.107-6.072c1.969-8.118,0.786-21.441-8.007-25.055c-6.263-2.612-13.458,0.347-16.071,6.61
												C102.924,112.149,102.61,114.063,102.744,115.971z"/>
											<path style="fill:#263238;" d="M100.297,107.371c-3.461,1.503-6.115,4.742-6.91,8.43
												c-0.795,3.689,0.291,7.733,2.826,10.527c1.857,2.048,4.454,3.492,5.703,5.958c0.643,1.27-0.175,2.529-1.394,3.266
												c1.468-0.284,3.056-1.874,3.197-3.362c0.388,1.119-0.162,2.791-0.848,3.757c2.177-1.582,3.37-5.079,2.715-7.69
												c-2.194-1.669-3.541-4.863-3.432-7.617c0.109-2.754,1.631-5.415,3.95-6.905c-0.244,0.11-0.488,0.22-0.732,0.331
												C104.357,111.541,102.585,108.844,100.297,107.371z"/>
											<g>
												<path style="fill:#263238;" d="M105.747,120.8c-0.517-0.242-0.766-0.301-1.334-0.348
													c-0.569-0.047-1.192,0.146-1.508,0.621c-0.364,0.548-0.224,1.274-0.068,1.913c0.699,2.853,1.47,5.688,2.313,8.501
													c-4.515-4.502-7.28-10.682-7.834-17.034c2.669-0.234,5.817-0.39,8.486-0.624L105.747,120.8z"/>
											</g>
											<path style="fill:#263238;" d="M117.042,118.347c0.069,0.734,0.506,1.292,0.984,1.245
												c0.479-0.047,0.807-0.669,0.739-1.403c-0.068-0.734-0.507-1.282-0.986-1.235
												C117.301,117.001,116.973,117.623,117.042,118.347z"/>
											<path style="fill:#263238;" d="M125.284,117.738c0.069,0.724,0.507,1.282,0.985,1.235
												c0.479-0.047,0.807-0.67,0.737-1.393c-0.07-0.724-0.505-1.292-0.984-1.245
												C125.544,116.382,125.216,117.004,125.284,117.738z"/>
											<path style="fill:#263238;" d="M113.821,114.955c-0.072-0.016-0.14-0.046-0.2-0.089
												c-0.147-0.183-0.129-0.449,0.043-0.609c1.027-0.927,2.437-1.307,3.791-1.02c0.23,0.064,0.364,0.303,0.3,0.533
												c-0.065,0.23-0.303,0.364-0.534,0.299l0,0c-1.074-0.216-2.186,0.096-2.991,0.84
												C114.111,114.993,113.957,115.01,113.821,114.955z"/>
											<path style="fill:#263238;" d="M128.405,114.359c-0.13,0.068-0.286,0.062-0.411-0.015
												c-0.926-0.569-2.067-0.665-3.075-0.258c-0.212,0.107-0.47,0.022-0.577-0.19c-0.107-0.212-0.022-0.47,0.19-0.577
												c1.276-0.549,2.739-0.447,3.926,0.276c0.201,0.112,0.273,0.367,0.161,0.568c-0.002,0.004-0.004,0.007-0.007,0.011
												C128.566,114.258,128.493,114.324,128.405,114.359z"/>
											<path style="fill:#FF887B;" d="M98.313,124.349c1.205,1.917,3.116,3.283,5.32,3.801c2.936,0.646,4.247-2.005,3.299-4.693
												c-0.848-2.41-3.403-5.666-6.28-5.123C97.775,118.876,96.86,121.966,98.313,124.349z"/>
											<path style="fill:#BA4D3C;" d="M122.139,118.179c1.268,2.041,2.537,3.897,4.313,5.516c-1.087,1.43-3.328,1.29-3.328,1.29
												L122.139,118.179z"/>
											<g>
												<g>
													<path style="fill:#263238;" d="M117.342,144.912c0,0,7.508,3.17,10.26,23.441c2.753,20.271,3.754,39.334,3.003,57.102
														c-0.751,17.768-0.112,29.28,5.394,28.529c0,0,0.501-9.554,0-41.336c-0.443-28.119,1.769-59.046-11.637-66.206
														C122.615,145.509,119.62,144.979,117.342,144.912z"/>
												</g>
											</g>
											<g style="opacity:0.1;">
												<g>
													<path style="fill:#FFFFFF;" d="M117.342,144.912c0,0,7.508,3.17,10.26,23.441c2.753,20.271,3.754,39.334,3.003,57.102
														c-0.751,17.768-0.112,29.28,5.394,28.529c0,0,0.501-9.554,0-41.336c-0.443-28.119,1.769-59.046-11.637-66.206
														C122.615,145.509,119.62,144.979,117.342,144.912z"/>
												</g>
											</g>
											<g>
												<g>
													<path style="fill:#263238;" d="M100.767,144.912c0,0,9.009,5.005,10.01,36.704c1.001,31.699,2.505,73.151-8.173,74.152
														c-10.678,1.001-22.356-5.005-22.356-5.005s5.406-33.92,6.505-45.456c1.27-13.338-7.521-55.596-1.797-57.187
														C92.886,145.915,100.767,144.912,100.767,144.912z"/>
												</g>
												<g style="opacity:0.1;">
													<path style="fill:#FFFFFF;" d="M100.767,144.912c0,0,9.009,5.005,10.01,36.704c1.001,31.699,2.505,73.151-8.173,74.152
														c-10.678,1.001-22.356-5.005-22.356-5.005s5.406-33.92,6.505-45.456c1.27-13.338-7.521-55.596-1.797-57.187
														C92.886,145.915,100.767,144.912,100.767,144.912z"/>
												</g>
												<g style="opacity:0.2;">
													<path style="fill:#FFFFFF;" d="M93.348,233.874l8.382,1.206c1.789,0.257,3.449-0.985,3.706-2.774l0.27-1.88
														l-14.862-2.137l-0.27,1.88C90.317,231.958,91.559,233.617,93.348,233.874z"/>
												</g>
												<g>
													<g>
														<path style="fill:#FF887B;" d="M77.157,191.068l9.844,7.108l6.049-0.807c0.692-0.092,1.395,0.056,1.991,0.421
															l3.676,2.249c0.819,0.501,1.353,1.359,1.442,2.314l0.184,1.976c0.063,0.674-0.102,1.35-0.466,1.921l-1.093,1.71
															c-0.654,1.023-1.853,1.559-3.052,1.364l-7.326-1.19c-0.574-0.093-1.109-0.349-1.542-0.737l-3.93-3.519l-12.539-7.171
															L77.157,191.068z"/>
													</g>
													<g>
														<path style="fill:#263238;" d="M84.286,205.674c-0.915,1.08-2.471,1.344-3.699,0.64
															c-3.279-1.878-19.806-12.932-22.34-19.815c-3.608-9.799,17.748-31.941,24.243-36.898
															c7.267-5.546,10.931,10.869,6.178,15.859c-5.746,6.033-12.269,12.882-15.105,15.716
															c-0.808,0.807-0.616,2.156,0.377,2.719c0,0,12.308,10.435,14.496,12.386C89.842,197.535,85.82,203.864,84.286,205.674
															z"/>
													</g>
													<g>
														<path style="fill:#263238;" d="M84.286,205.674c-0.915,1.08-2.471,1.344-3.699,0.64
															c-3.279-1.878-19.806-12.932-22.34-19.815c-3.608-9.799,17.748-31.941,24.243-36.898
															c7.267-5.546,10.931,10.869,6.178,15.859c-5.746,6.033-12.269,12.882-15.105,15.716
															c-0.808,0.807-0.616,2.156,0.377,2.719c0,0,12.308,10.435,14.496,12.386C89.842,197.535,85.82,203.864,84.286,205.674
															z"/>
													</g>
												</g>
											</g>
										</g>
										<path style="fill:#263238;" d="M120.948,128.912c-1.631-0.366-3.04-1.385-3.898-2.819
											c-0.055-0.102-0.018-0.23,0.083-0.286c0.105-0.049,0.231-0.009,0.287,0.093c0.957,1.547,2.58,2.562,4.391,2.743
											c0.117,0.004,0.209,0.102,0.206,0.219c-0.004,0.117-0.102,0.209-0.219,0.206c-0.01-0.001-0.019-0.001-0.029-0.003
											C121.493,129.032,121.218,128.981,120.948,128.912z"/>
									</g>
								</g>
								<g>
									<path style="fill:#263238;" d="M113.924,113.854c3.507-0.506,6.126-3.922,6.576-7.437c3.141,0.77,5.184,3.589,6.817,6.396
										c0.486,0.836,1.66,1.058,2.35,0.381c0.55-0.54,0.699-1.407,0.55-2.171c-0.156-0.802-0.586-1.519-1.008-2.218
										c-0.622-1.029-1.26-2.074-1.96-3.064c-1.979-2.797-5.214-4.5-8.638-4.379c-0.071,0.003-0.134,0.006-0.186,0.012
										c-2.289-1.297-5.293-1.732-8.256-1.378c-3.226,0.386-5.288,1.877-7.735,4.015c-2.575,2.251-3.434,6.279-6.884,9.905
										c-1.202,1.264-0.361,3.347,1.383,3.372l0,0C102.778,117.374,108.572,116.202,113.924,113.854L113.924,113.854z"/>
								</g>
							</g>
						</g>
					</g>
				</g>
			</g>
		</g>
		<g>
			<polygon style="fill:#407BFF;" points="115.028,150.727 112.11,154.246 115.028,158.266 118.774,158.266 118.774,153.301 			"/>
			<path style="fill:#407BFF;" d="M115.028,158.266l0.976,8.652c2.236,15.769-1.291,35.118-1.291,35.118l6.795,6.196
				c0,0,5.374-6.824,4.974-6.739c-0.217,0.046-0.178-12.523-2.187-24.152c-1.704-9.863-5.522-19.075-5.522-19.075H115.028z"/>
		</g>
		<g>
			<path style="fill:#407BFF;" d="M115.772,141.893c0.756,0.905,1.674,0.961,2.385,1.901c2.756,3.645,3.923,8.33,3.084,12.821
				c-0.035,0.186-0.07,0.373-0.104,0.559c-0.763-2.456-3.172-4.293-5.73-4.563c-1.874,2.493-3.749,4.265-6.542,5.654
				c-4.188-3.813-7.179-8.631-9.304-13.881c1.437-1.174,2.874-2.348,4.312-3.522c2.533,3.418,6.902,6.128,11.065,7.006
				C115.094,146.029,115.616,143.732,115.772,141.893z"/>
			<path style="opacity:0.9;fill:#FFFFFF;" d="M115.772,141.893c0.756,0.905,1.674,0.961,2.385,1.901
				c2.756,3.645,3.923,8.33,3.084,12.821c-0.035,0.186-0.07,0.373-0.104,0.559c-0.763-2.456-3.172-4.293-5.73-4.563
				c-1.874,2.493-3.749,4.265-6.542,5.654c-4.188-3.813-7.179-8.631-9.304-13.881c1.437-1.174,2.874-2.348,4.312-3.522
				c2.533,3.418,6.902,6.128,11.065,7.006C115.094,146.029,115.616,143.732,115.772,141.893z"/>
		</g>
	</g>
</g>
</svg>
