<svg width="27" height="31" viewBox="0 0 27 31" fill="none" xmlns="http://www.w3.org/2000/svg">
<path d="M1.79273 26.7671C1.70476 24.7796 2.65865 23.2333 4.02487 21.9605C6.1828 19.9524 8.73657 19.3944 11.5061 20.4651C14.343 21.5605 15.8591 23.7405 16.2219 26.7409C15.9471 26.7464 15.6722 26.7561 15.3986 26.7574C10.8629 26.7602 6.32711 26.7629 1.79273 26.7671Z" fill="#1164E9"/>
<path d="M0 30.7615C0.625385 29.9753 1.25764 29.1932 1.87341 28.4002C2.03834 28.1885 2.24039 28.1665 2.47818 28.1665C9.66392 28.1693 16.8497 28.1693 24.034 28.1665C24.2443 28.1665 24.4313 28.1816 24.5976 28.3438C25.37 29.0915 26.1535 29.8282 26.9301 30.5705C26.9974 30.6351 27.0455 30.7175 26.9314 30.7904C26.6345 30.7835 26.3363 30.7725 26.0394 30.7725C17.3596 30.7698 8.6798 30.7656 0 30.7615Z" fill="#1164E9"/>
<path d="M11.4532 10.0429C10.5075 10.2202 9.64299 10.4305 8.86091 10.8827C6.21505 12.4124 5.40411 15.1765 6.77309 18.188C7.03836 18.7721 6.97101 18.9659 6.36075 19.1364C5.40274 19.4044 4.57806 19.9542 3.83584 20.6112C3.57607 20.8407 3.45786 20.8256 3.28605 20.5136C-0.231225 14.1113 3.20221 8.07324 8.93651 6.13935C9.24714 6.03489 9.4753 6.03352 9.65124 6.40463C10.2175 7.60179 10.8237 8.77971 11.4532 10.0429Z" fill="#1164E9"/>
<path d="M14.4799 14.111C14.2311 14.1536 14.1926 13.9749 14.1239 13.8389C12.8566 11.3098 11.5921 8.77943 10.318 6.25315C10.1847 5.98925 10.2204 5.86692 10.4994 5.74322C11.2086 5.42984 11.9069 5.09309 12.5982 4.74398C12.8827 4.60103 13.0381 4.63814 13.1906 4.93091C14.4744 7.39946 15.7705 9.86252 17.0639 12.3269C17.1257 12.4452 17.2522 12.6005 17.0996 12.6871C16.2268 13.1791 15.3389 13.6478 14.4799 14.111Z" fill="#1164E9"/>
<path d="M16.6522 23.9165C19.3585 23.9165 22.0649 23.9165 24.7698 23.9165C24.8056 23.9536 24.8399 23.9907 24.8757 24.0278C24.8825 24.5749 24.8716 25.1233 24.9018 25.669C24.9224 26.0387 24.7726 26.1322 24.4276 26.1294C22.4882 26.117 20.5488 26.1225 18.6095 26.1253C18.3717 26.1253 18.1641 26.1102 18.0253 25.8696C17.624 25.17 17.0371 24.6244 16.4941 24.043C16.5477 24.0017 16.6 23.9591 16.6522 23.9165Z" fill="#1164E9"/>
<path d="M19.0604 14.1166C19.0536 14.309 18.8749 14.3379 18.7471 14.4052C17.4729 15.0691 16.1947 15.7275 14.9205 16.3913C14.7075 16.5013 14.4752 16.6374 14.4202 16.2649C14.368 15.9158 13.6904 15.5708 14.2649 15.2354C15.5445 14.4877 16.8764 13.8307 18.1863 13.138C18.3031 13.0761 18.4419 12.9607 18.5409 13.1311C18.7251 13.4445 18.8818 13.7743 19.0604 14.1166Z" fill="#1164E9"/>
<path d="M8.02024 2.58339C7.64913 2.41708 7.65463 1.99786 7.46083 1.71885C7.29864 1.48519 7.47457 1.40409 7.64089 1.31613C8.40509 0.912031 9.16793 0.503812 9.93626 0.105215C10.0861 0.0282447 10.2785 -0.117449 10.3733 0.173939C10.4805 0.502438 10.9616 0.929899 10.684 1.12233C9.86616 1.68861 8.93976 2.09545 8.02024 2.58339Z" fill="#1164E9"/>
<path d="M11.6198 4.27944C11.3463 4.57632 10.9683 4.66979 10.6412 4.84434C10.4185 4.96392 10.3154 4.82373 10.2261 4.64505C10.0543 4.30005 9.8742 3.96056 9.70102 3.61694C9.3464 2.90909 9.54295 2.52561 10.3319 2.38816C10.413 2.37442 10.5546 2.36617 10.5779 2.4074C10.927 3.01355 11.261 3.62931 11.6198 4.27944Z" fill="#1164E9"/>
</svg>
