<svg xmlns="http://www.w3.org/2000/svg" width="497.808" height="424.798" viewBox="0 0 497.808 424.798">
  <g id="Character_2" data-name="Character 2" transform="translate(-119.43 -262.205)">
    <g id="Group_41" data-name="Group 41" transform="translate(120.098 259.706)">
      <g id="Group_40" data-name="Group 40" transform="translate(0 3)">
        <g id="Group_32" data-name="Group 32">
          <path id="Path_95" data-name="Path 95" d="M321.376,283.623s-25.449-16.966-53.983-16.194-39.33,30.075-40.872,38.558.772,13.109-16.194,13.109S157.885,316.011,144,334.521s-15.423,39.33-3.085,52.44,16.966,18.51,16.966,18.51-13.109,12.338-6.939,29.3,28.534,24.677,43.187,24.677,37.015-20.821,43.185-33.16,23.908-8.483,37.789-27.762,6.94-43.185,4.626-56.3.772-40.1,19.279-47.041,21.592-6.942,21.592-6.942Z" transform="translate(-106.218 -251.128)" fill="#263238" stroke="#263238" stroke-linecap="round" stroke-linejoin="round" stroke-width="1"/>
          <g id="Group_29" data-name="Group 29" transform="translate(0 135.063)">
            <path id="Path_96" data-name="Path 96" d="M120.1,612.15,175.623,497.1s1.541-20.823,10.8-50.126,20.051-76.347,33.16-92.542,57.068-30.847,57.068-30.847,42.415,18.507,53.983,26.99,30.847,23.136,37.017,36.245,11.568,44.728,21.592,56.3,32.389,34.7,31.619,56.3-4.628,30.075-4.628,35.473-10.777-1.135-30.828,1.178-34.321,8.893-35.863,11.206S309.038,612,309.038,612" transform="translate(-120.098 -323.583)" fill="#fff" stroke="#263238" stroke-linecap="round" stroke-linejoin="round" stroke-width="1"/>
            <path id="Path_97" data-name="Path 97" d="M246.439,369.9s7.711,43.185,9.255,53.981-20.051,54.755-25.449,59.381" transform="translate(2.651 -271.963)" fill="none" stroke="#263238" stroke-linecap="round" stroke-linejoin="round" stroke-width="1"/>
            <path id="Path_98" data-name="Path 98" d="M229.78,369.9s-1.541,36.245.772,53.981,6.942,40.1,3.085,47.044" transform="translate(1.573 -271.963)" fill="none" stroke="#263238" stroke-linecap="round" stroke-linejoin="round" stroke-width="1"/>
            <path id="Path_99" data-name="Path 99" d="M241.187,404.763s13.109-10.8,30.075-6.168" transform="translate(14.845 -241.274)" fill="none" stroke="#263238" stroke-linecap="round" stroke-linejoin="round" stroke-width="1"/>
            <path id="Path_100" data-name="Path 100" d="M244.469,399.78s10.027-6.17,19.279-6.17" transform="translate(18.503 -245.544)" fill="none" stroke="#263238" stroke-linecap="round" stroke-linejoin="round" stroke-width="1"/>
          </g>
          <path id="Path_101" data-name="Path 101" d="M235.935,342.193l6.94,13.881,8.483,39.33L239.02,373.812l-6.17,26.219-7.711-47.813S228.224,336.023,235.935,342.193Z" transform="translate(-3.039 -169.344)" fill="#fff" stroke="#263238" stroke-linecap="round" stroke-linejoin="round" stroke-width="1"/>
          <path id="Path_102" data-name="Path 102" d="M232.321,314.558s-9.255,8.483-16.194,11.568S200.7,332.3,200.7,332.3l42.415,84.83,16.966,26.219s-.772-22.364-.772-30.075a105.779,105.779,0,0,0-1.541-16.194L277.821,372.4s6.168-57.068.77-66.323S242.345,304.534,232.321,314.558Z" transform="translate(-30.272 -212.658)" fill="#fff" stroke="#263238" stroke-linecap="round" stroke-linejoin="round" stroke-width="1"/>
          <path id="Path_103" data-name="Path 103" d="M248.951,332.058,234.234,318.83s-3.343,3.176-5.69,23.72c-1.19,10.416,2.146,19.911,5.724,26.758l12.8-15.75S248.1,343.989,248.951,332.058Z" transform="translate(0.483 -193.817)" fill="#263238" stroke="#263238" stroke-linecap="round" stroke-linejoin="round" stroke-width="1"/>
          <g id="Group_31" data-name="Group 31" transform="translate(192.663)">
            <g id="Group_30" data-name="Group 30" transform="translate(40.087 60.946)">
              <path id="Path_104" data-name="Path 104" d="M340.574,304.929s-5.468,26.559-10.156,35.15S319.17,353.387,318.7,357.265c-1.588,13.175-1.563,18.746-5.468,24.214s-25.777,18.746-39.057,21.872-21.089,5.468-24.995,1.563-17.966-24.214-17.966-32.807-2.343-10.936,0-16.4,2.343-19.529,2.343-19.529,0-7.03,9.373-18.746,27.339-14.841,40.62-14.841,14.841-9.373,28.9-13.281S336.669,297.119,340.574,304.929Z" transform="translate(-230.176 -288.53)" fill="#fff" stroke="#263238" stroke-linecap="round" stroke-linejoin="round" stroke-width="1"/>
              <path id="Path_105" data-name="Path 105" d="M271.087,321.914c-1.641,2.745-4.017,4.345-5.309,3.571s-1.009-3.622.632-6.366,4.017-4.343,5.309-3.571S272.728,319.169,271.087,321.914Z" transform="translate(-191.403 -258.638)" fill="#263238"/>
              <path id="Path_106" data-name="Path 106" d="M266.111,311.83s9.876-4.087,14.985,5.108" transform="translate(-190.129 -263.573)" fill="none" stroke="#263238" stroke-linecap="round" stroke-linejoin="round" stroke-width="1"/>
              <path id="Path_107" data-name="Path 107" d="M313.235,368.307c1.732-2.425,3-6.7,3.88-11.039-6.066-3.311-19.432-11.139-26.534-19.425-9.373-10.936-28.12-37.493-28.12-37.493l-3.125,3.905,15.623,25.777s-17.966,14.841-30.464,14.841c-9.718,0-11.872-3.768-12.352-5.449a18,18,0,0,1-.926,3.106c-2.343,5.468,0,7.811,0,16.4s14.061,28.9,17.966,32.807,11.716,1.563,24.995-1.562S309.33,373.775,313.235,368.307Z" transform="translate(-230.176 -275.358)" fill="#fff" stroke="#263238" stroke-linecap="round" stroke-linejoin="round" stroke-width="1"/>
            </g>
            <path id="Path_108" data-name="Path 108" d="M277.341,355.8a39.9,39.9,0,0,1,22.652-5.468c13.279.782,28.9,6.25,32.807-.78s4.688-20.309,16.4-17.186,13.279,10.156,13.279,10.156,24.216-.78,26.559-14.061-10.936-34.368-19.529-35.93-16.4-3.125-16.4-3.125-29.682-30.465-64.832-29.682-50.773,14.841-59.366,44.523-4.688,40.618-11.716,50.773-10.936,20.309,6.248,18.746,28.9-12.5,37.495-16.4A25.392,25.392,0,0,1,277.341,355.8Z" transform="translate(-211.217 -259.706)" fill="#263238" stroke="#263238" stroke-linecap="round" stroke-linejoin="round" stroke-width="1"/>
            <path id="Path_109" data-name="Path 109" d="M259.048,322.333s9.373-11.716.78-24.214-33.588,11.716-29.682,25,14.061,11.716,14.061,11.716" transform="translate(-190.58 -220.773)" fill="#fff" stroke="#263238" stroke-linecap="round" stroke-linejoin="round" stroke-width="1"/>
          </g>
          <path id="Path_110" data-name="Path 110" d="M217.44,311.547l47.042,95.626-16.195,26.22-57.067-98.711Z" transform="translate(-40.839 -201.934)" fill="#fff" stroke="#263238" stroke-linecap="round" stroke-linejoin="round" stroke-width="1"/>
          <path id="Path_111" data-name="Path 111" d="M230.62,436.111s-1.07-18.457,22.455-20.3,41.7,8.305,42.773,23.992-47.05,5.538-52.4,5.538S230.62,436.111,230.62,436.111Z" transform="translate(3.061 -85.983)" fill="#fff" stroke="#263238" stroke-linecap="round" stroke-linejoin="round" stroke-width="1"/>
        </g>
        <path id="Path_112" data-name="Path 112" d="M520,448.745H206.9v17.606H519.231" transform="translate(-23.362 -49.038)" fill="none" stroke="#263238" stroke-linecap="round" stroke-linejoin="round" stroke-width="1"/>
        <g id="Group_36" data-name="Group 36" transform="translate(303.266 122.366)">
          <path id="Path_113" data-name="Path 113" d="M345.545,360.055,263.8,393.987V520.461h30.847V401.7l57.067-31.618Z" transform="translate(-263.221 -270.242)" fill="#fff" stroke="#263238" stroke-linecap="round" stroke-linejoin="round" stroke-width="1"/>
          <g id="Group_33" data-name="Group 33" transform="translate(0 201.249)">
            <path id="Path_114" data-name="Path 114" d="M340.293,421.723a3.179,3.179,0,0,0-1.871-2.892,3.177,3.177,0,0,0-1.311-6.073H309.928a3.177,3.177,0,0,0-1.311,6.073,3.171,3.171,0,0,0,0,5.785,3.17,3.17,0,0,0,0,5.783,3.17,3.17,0,0,0,0,5.783,3.178,3.178,0,0,0,1.311,6.075h27.183a3.178,3.178,0,0,0,1.311-6.075,3.17,3.17,0,0,0,0-5.783,3.17,3.17,0,0,0,0-5.783A3.179,3.179,0,0,0,340.293,421.723Z" transform="translate(-215.361 -412.758)" fill="#263238" stroke="#263238" stroke-linecap="round" stroke-linejoin="round" stroke-width="1"/>
            <rect id="Rectangle_6" data-name="Rectangle 6" width="149.802" height="30.654" transform="translate(0 28.919)" fill="#fff" stroke="#263238" stroke-linecap="round" stroke-linejoin="round" stroke-width="1"/>
            <rect id="Rectangle_7" data-name="Rectangle 7" width="149.802" height="16.195" transform="translate(0 43.379)" fill="#263238" stroke="#263238" stroke-linecap="round" stroke-linejoin="round" stroke-width="1"/>
            <rect id="Rectangle_8" data-name="Rectangle 8" width="17.93" height="16.773" transform="translate(9.833 58.995)" fill="#263238" stroke="#263238" stroke-linecap="round" stroke-linejoin="round" stroke-width="1"/>
            <rect id="Rectangle_9" data-name="Rectangle 9" width="17.93" height="16.773" transform="translate(64.201 58.995)" fill="#263238" stroke="#263238" stroke-linecap="round" stroke-linejoin="round" stroke-width="1"/>
            <rect id="Rectangle_10" data-name="Rectangle 10" width="17.93" height="16.773" transform="translate(118.569 58.995)" fill="#263238" stroke="#263238" stroke-linecap="round" stroke-linejoin="round" stroke-width="1"/>
          </g>
          <rect id="Rectangle_11" data-name="Rectangle 11" width="133.029" height="6.941" transform="translate(19.665 171.173)" fill="#fff" stroke="#263238" stroke-linecap="round" stroke-linejoin="round" stroke-width="1"/>
          <rect id="Rectangle_12" data-name="Rectangle 12" width="113.942" height="10.411" transform="translate(31.233 177.535)" fill="#263238" stroke="#263238" stroke-linecap="round" stroke-linejoin="round" stroke-width="1"/>
          <rect id="Rectangle_13" data-name="Rectangle 13" width="18.508" height="106.423" transform="matrix(0.676, -0.737, 0.737, 0.676, 13.704, 13.646)" fill="#263238" stroke="#263238" stroke-linecap="round" stroke-linejoin="round" stroke-width="1"/>
          <g id="Group_34" data-name="Group 34" transform="translate(89.342 110.103)">
            <rect id="Rectangle_14" data-name="Rectangle 14" width="14.652" height="37.788" fill="#263238" stroke="#263238" stroke-linecap="round" stroke-linejoin="round" stroke-width="1"/>
            <rect id="Rectangle_15" data-name="Rectangle 15" width="11.384" height="6.324" transform="translate(1.694 38.307)" fill="#263238" stroke="#263238" stroke-linecap="round" stroke-linejoin="round" stroke-width="1"/>
          </g>
          <g id="Group_35" data-name="Group 35" transform="translate(104.061 98.607)">
            <rect id="Rectangle_16" data-name="Rectangle 16" width="14.652" height="37.788" transform="matrix(0.915, -0.403, 0.403, 0.915, 0, 5.899)" fill="#263238" stroke="#263238" stroke-linecap="round" stroke-linejoin="round" stroke-width="1"/>
            <rect id="Rectangle_17" data-name="Rectangle 17" width="11.384" height="6.324" transform="translate(16.972 40.282) rotate(-23.739)" fill="#263238" stroke="#263238" stroke-linecap="round" stroke-linejoin="round" stroke-width="1"/>
          </g>
          <path id="Path_115" data-name="Path 115" d="M315.7,345.831l-15.424,15.424v43.957l49.356-12.339v-29.3Z" transform="translate(-222.576 -286.093)" fill="#fff" stroke="#263238" stroke-linecap="round" stroke-linejoin="round" stroke-width="1"/>
          <path id="Path_116" data-name="Path 116" d="M349.628,362.657l-49.356,12.755V386.46l49.356-12.339Z" transform="translate(-222.576 -267.342)" fill="#263238" stroke="#263238" stroke-linecap="round" stroke-linejoin="round" stroke-width="1"/>
        </g>
        <g id="Group_39" data-name="Group 39" transform="translate(70.397 182.874)">
          <g id="Group_37" data-name="Group 37" transform="translate(222.65 109.51)">
            <path id="Path_117" data-name="Path 117" d="M263.321,447.342s23.136-15.425,27.762-20.823,21.592-26.99,26.221-27.762,20.821-.77,23.906-.77,13.109,9.253,15.425,10.8,3.083,8.483.77,9.253-14.651-5.4-14.651-5.4l-20.823,3.857s31.619,7.711,33.932,9.255S357.4,435,357.4,435l-9.253,4.628s9.253-.772,9.253,4.626,0,10.8-3.855,10.8h-3.857s8.483,8.483,6.17,10.8a14.664,14.664,0,0,1-10.026,3.857c-3.855,0-13.109,4.626-23.906,8.483s-26.991,10.8-35.474,12.34-20.823,3.083-20.823,3.083-.772-20.049-2.313-26.219-4.628-17.738-4.628-17.738Z" transform="translate(-258.693 -397.987)" fill="#fff" stroke="#263238" stroke-linecap="round" stroke-linejoin="round" stroke-width="1"/>
            <line id="Line_18" data-name="Line 18" x1="16.363" y2="2.962" transform="translate(73.095 41.643)" fill="none" stroke="#263238" stroke-linecap="round" stroke-linejoin="round" stroke-width="1"/>
            <line id="Line_19" data-name="Line 19" x1="16.152" y2="3.317" transform="translate(74.848 57.066)" fill="none" stroke="#263238" stroke-linecap="round" stroke-linejoin="round" stroke-width="1"/>
          </g>
          <g id="Group_38" data-name="Group 38">
            <path id="Path_118" data-name="Path 118" d="M191.731,346.2c-10.024,15.425-21.592,50.9-21.592,68.636s-14.653,85.6-16.194,110.279-.772,40.1,14.651,43.185,64.01,6.942,85.6,4.628,46.27-2.313,80.2-2.313,50.126-2.315,50.126-2.315,3.857-19.279,4.629-33.16-4.629-34.7-6.942-34.7-39.33,6.168-70.947,10.024-47.044-1.541-52.442-3.857-7.711-2.313-7.711-2.313V494.263l-9.255-.772,8.483-53.983s6.942-4.626,9.255-10.024,5.4-33.16,3.857-50.126-17.738-26.993-17.738-26.993" transform="translate(-153.392 -346.195)" fill="#fff" stroke="#263238" stroke-linecap="round" stroke-linejoin="round" stroke-width="1"/>
            <path id="Path_119" data-name="Path 119" d="M209.948,418.776s-6.17,10.8-29.306,20.051" transform="translate(-123.024 -265.31)" fill="none" stroke="#263238" stroke-linecap="round" stroke-linejoin="round" stroke-width="1"/>
            <path id="Path_120" data-name="Path 120" d="M217.951,422.788s-34.7,26.221-42.415,36.245" transform="translate(-128.714 -260.839)" fill="none" stroke="#263238" stroke-linecap="round" stroke-linejoin="round" stroke-width="1"/>
            <path id="Path_121" data-name="Path 121" d="M162.041,434.845s29.306-.77,50.126-13.881" transform="translate(-143.753 -262.871)" fill="none" stroke="#263238" stroke-linecap="round" stroke-linejoin="round" stroke-width="1"/>
            <path id="Path_122" data-name="Path 122" d="M210.427,399.842s-6.942-10.8-24.679-20.821" transform="translate(-117.334 -309.613)" fill="none" stroke="#263238" stroke-linecap="round" stroke-linejoin="round" stroke-width="1"/>
          </g>
        </g>
      </g>
    </g>
  </g>
</svg>
