<svg xmlns="http://www.w3.org/2000/svg" width="77.352" height="62.916" viewBox="0 0 77.352 62.916">
  <g id="Group_13525" data-name="Group 13525" transform="translate(-462 -290)">
    <g id="Group_13523" data-name="Group 13523" transform="translate(-564 -2077)">
      <path id="Path_21154" data-name="Path 21154" d="M42,0H73.352a2,2,0,0,1,2,2V55.268a2,2,0,0,1-2,2H2a2,2,0,0,1-2-2V31.777" transform="translate(1102.352 2425.268) rotate(180)" fill="none" stroke="#273b5e" stroke-linecap="round" stroke-width="2"/>
      <path id="Path_21163" data-name="Path 21163" d="M1038,2400.858h17.59" transform="translate(-2 -22)" fill="none" stroke="#273b5e" stroke-linecap="round" stroke-width="2"/>
      <path id="Path_21164" data-name="Path 21164" d="M1038,2400.858h7.036" transform="translate(-2 -17)" fill="none" stroke="#273b5e" stroke-linecap="round" stroke-width="2"/>
      <path id="Path_21165" data-name="Path 21165" d="M17.47,8.25V0H5.338A1.452,1.452,0,0,0,3.882,1.456V15.529H.485A.487.487,0,0,0,0,16.014v.971a.487.487,0,0,0,.485.485H9.032a.494.494,0,0,1,.437.267l1.207,2.414,3.446-6.9a.485.485,0,0,1,.867,0l2.1,4.216h4.258a.971.971,0,0,1,0,1.941H15.9L14.559,16.73l-3.446,6.9a.485.485,0,0,1-.867,0L8.135,19.411H3.882V29.6a1.452,1.452,0,0,0,1.456,1.456H25.72A1.452,1.452,0,0,0,27.176,29.6V9.706h-8.25A1.46,1.46,0,0,1,17.47,8.25Zm9.281-1.88L20.813.425A1.455,1.455,0,0,0,19.781,0h-.37V7.765h7.765v-.37A1.451,1.451,0,0,0,26.751,6.369Z" transform="translate(1073.928 2398.858)" fill="#638dfa"/>
      <path id="Path_21166" data-name="Path 21166" d="M1038,2400.858h17.59" transform="translate(32.41 -22)" fill="none" stroke="#273b5e" stroke-linecap="round" stroke-width="2"/>
      <path id="Path_21167" data-name="Path 21167" d="M1038,2400.858h7.036" transform="translate(32.41 -17)" fill="none" stroke="#273b5e" stroke-linecap="round" stroke-width="2"/>
      <path id="Path_21168" data-name="Path 21168" d="M1033.946,2403.467s2.465,3.16,2.574,2.927,3.339-10.573,3.339-10.573l1.713,9.828,1.584-4.137,2.182,4.137,4-11.123,1.83,11.123,1.627-4.737,2.583,5.481,3.1-9.975,1.6,8.251,2.747-4.595,3.348,1.437" transform="translate(3 -1.609)" fill="none" stroke="#273b5e" stroke-linecap="round" stroke-linejoin="round" stroke-width="1.4"/>
    </g>
  </g>
</svg>
