<svg width="85" height="41" viewBox="0 0 85 41" fill="none" xmlns="http://www.w3.org/2000/svg">
<rect x="65.3242" y="2.5293" width="7.10794" height="7.10794" transform="rotate(-17.2764 65.3242 2.5293)" fill="#99BCFF"/>
<rect x="44.8579" y="30.5352" width="3.89358" height="3.89358" transform="rotate(11.1574 44.8579 30.5352)" fill="#99BCFF"/>
<rect x="68.5881" y="38.8594" width="1.88477" height="1.88477" transform="rotate(-13.1184 68.5881 38.8594)" fill="#99BCFF"/>
<rect x="0.667847" y="19.9062" width="1.88477" height="1.88477" transform="rotate(-13.1184 0.667847 19.9062)" fill="#99BCFF"/>
<rect x="53.3773" y="15.8535" width="3.89358" height="3.89358" transform="rotate(-19.7745 53.3773 15.8535)" fill="#99BCFF"/>
<rect x="31.6556" y="3.25781" width="3.32681" height="3.32681" transform="rotate(-7.0016 31.6556 3.25781)" fill="#99BCFF"/>
<path d="M75.8719 22.9626L78.1945 25.8809L81.6877 24.5738L79.6299 27.6845L81.9525 30.6028L78.3582 29.607L76.3005 32.7177L76.1368 28.9916L72.5424 27.9959L76.0356 26.6887L75.8719 22.9626Z" fill="#1964E9"/>
<path d="M19.4616 21.6448L19.6414 23.5811L21.5385 24.0084L19.7525 24.7777L19.9323 26.714L18.6488 25.2532L16.8628 26.0225L17.8555 24.3504L16.5719 22.8896L18.469 23.317L19.4616 21.6448Z" fill="#1964E9"/>
<path d="M42.2389 11.0197L42.8384 12.3049L44.2461 12.1319L43.209 13.0993L43.8085 14.3845L42.568 13.6971L41.5309 14.6645L41.8013 13.2723L40.5609 12.5849L41.9685 12.4119L42.2389 11.0197Z" fill="#1964E9"/>
</svg>
