<svg width="128" height="62" viewBox="0 0 128 62" fill="none" xmlns="http://www.w3.org/2000/svg">
<rect x="98.8799" y="3.22632" width="10.8703" height="10.8703" transform="rotate(-17.2764 98.8799 3.22632)" fill="#99BCFF"/>
<rect x="67.5808" y="46.0564" width="5.95451" height="5.95451" transform="rotate(11.1574 67.5808 46.0564)" fill="#99BCFF"/>
<rect x="103.872" y="58.7879" width="2.8824" height="2.8824" transform="rotate(-13.1184 103.872 58.7879)" fill="#99BCFF"/>
<rect y="29.8005" width="2.8824" height="2.8824" transform="rotate(-13.1184 0 29.8005)" fill="#99BCFF"/>
<rect x="80.6094" y="23.6034" width="5.95451" height="5.95451" transform="rotate(-19.7745 80.6094 23.6034)" fill="#99BCFF"/>
<rect x="47.3899" y="4.3421" width="5.08775" height="5.08775" transform="rotate(-7.0016 47.3899 4.3421)" fill="#99BCFF"/>
<path d="M115.011 34.4752L118.563 38.9382L123.905 36.9392L120.758 41.6965L124.31 46.1594L118.813 44.6366L115.666 49.3939L115.416 43.6955L109.919 42.1727L115.261 40.1737L115.011 34.4752Z" fill="#1C529E"/>
<path d="M28.7414 32.4622L29.0164 35.4233L31.9175 36.0769L29.1863 37.2534L29.4612 40.2146L27.4983 37.9806L24.767 39.1571L26.2851 36.5999L24.3222 34.3659L27.2233 35.0194L28.7414 32.4622Z" fill="#1C529E"/>
<path d="M63.5752 16.2118L64.4921 18.1773L66.6447 17.9127L65.0587 19.3921L65.9756 21.3577L64.0785 20.3064L62.4924 21.7858L62.906 19.6567L61.009 18.6054L63.1616 18.3408L63.5752 16.2118Z" fill="#1C529E"/>
</svg>
