<svg width="51" height="51" viewBox="0 0 51 51" fill="none" xmlns="http://www.w3.org/2000/svg">
<path d="M24.8451 8.5766H22.0264V5.43577C22.0264 4.3972 21.2159 3.55132 20.2207 3.55132H9.61258C9.36232 3.55132 9.12387 3.4269 8.9808 3.20931L7.40157 0.820992C7.06774 0.304789 6.50771 0 5.91159 0H1.80566C0.810509 0 0 0.845878 0 1.88445V20.0456C0 20.5618 0.202574 21.0346 0.530492 21.3766C0.864318 21.7186 1.31716 21.9303 1.81178 21.9303H21.4305C22.2171 21.9303 22.9205 21.4513 23.2423 20.6552L26.3769 10.7909C26.7223 9.70238 25.9477 8.5766 24.8451 8.5766ZM20.8344 8.5766H6.2336C5.47078 8.5766 4.77358 9.04303 4.4636 9.77065L1.19181 17.197V1.88423C1.19181 1.52967 1.47183 1.2436 1.80566 1.2436H5.9118C6.11437 1.2436 6.30513 1.34931 6.42435 1.5235L8.00359 3.91183C8.36717 4.46547 8.96899 4.79492 9.61258 4.79492H20.2205C20.5603 4.79492 20.8344 5.08716 20.8344 5.43555V8.5766Z" fill="#F1F9FF"/>
<path d="M49.3866 37.6406H46.5676V34.5059C46.5676 33.4674 45.7571 32.6215 44.762 32.6215H34.154C33.9038 32.6215 33.6653 32.4909 33.5223 32.2731L31.943 29.8848C31.6092 29.3747 31.0492 29.0699 30.4531 29.0699H26.3469C25.3516 29.0699 24.5413 29.9097 24.5413 30.9544V49.1156C24.5413 50.1541 25.3518 51 26.353 51H45.9717C46.7584 51 47.4617 50.5149 47.7835 49.7187L50.9181 39.8607C51.264 38.7662 50.4892 37.6406 49.3866 37.6406ZM49.786 39.4691L46.6691 49.2836C46.5499 49.5697 46.2817 49.7562 45.972 49.7562H26.3532C26.0494 49.7562 25.7991 49.5261 25.7453 49.2274L30.0899 39.3506C30.2091 39.0707 30.4773 38.8842 30.7753 38.8842H49.3868C49.6727 38.8844 49.8812 39.183 49.786 39.4691Z" fill="#F1F9FF"/>
<path d="M38.4455 21.828C38.2128 21.5851 37.8357 21.5851 37.6027 21.828C37.3698 22.0709 37.37 22.4649 37.6027 22.7076L39.9184 25.1241C40.0303 25.2408 40.182 25.3062 40.3398 25.3062C40.4981 25.3062 40.6494 25.2406 40.7612 25.1241L43.0763 22.7073C43.309 22.4644 43.309 22.0705 43.0763 21.8278C42.8435 21.5849 42.4664 21.5849 42.2335 21.8278L40.9357 23.1826V12.4408C40.9357 12.0972 40.6692 11.8188 40.3398 11.8188H30.9978C30.6684 11.8188 30.4019 12.0974 30.4019 12.4408C30.4019 12.7843 30.6684 13.0627 30.9978 13.0627H39.7439V23.1826L38.4455 21.828Z" fill="#F1F9FF"/>
<path d="M7.49367 45.01H16.8357C17.1651 45.01 17.4316 44.7315 17.4316 44.3881C17.4316 44.0448 17.1651 43.7662 16.8357 43.7662H8.08979V33.6467L9.38753 35.0013C9.62028 35.2442 9.99736 35.2442 10.2303 35.0013C10.4631 34.7584 10.4631 34.3649 10.2303 34.1218L7.91528 31.7053C7.80344 31.5885 7.65214 31.5231 7.49388 31.5231C7.33562 31.5231 7.18432 31.5888 7.07248 31.7053L4.75659 34.1218C4.52384 34.3645 4.52384 34.7582 4.75659 35.0013C4.98934 35.2442 5.36643 35.2442 5.59939 35.0013L6.89776 33.6465V44.3881C6.89776 44.7315 7.16428 45.01 7.49367 45.01Z" fill="#F1F9FF"/>
</svg>
