<svg width="317" height="159" viewBox="0 0 317 159" fill="none" xmlns="http://www.w3.org/2000/svg">
<g opacity="0.3" filter="url(#filter0_d_2386_169)">
<path d="M9 10C9 5.58172 12.5817 2 17 2H314V149H17C12.5817 149 9 145.418 9 141V10Z" fill="url(#paint0_linear_2386_169)"/>
</g>
<circle cx="62" cy="90.5" r="27.5" stroke="white"/>
<circle cx="61.9992" cy="90.5012" r="16.3" stroke="white"/>
<circle cx="62" cy="90.5" r="6.5" fill="#FF4A4A" stroke="#FF4A4A"/>
<path d="M35.628 38V23.678H40.93C41.942 23.678 42.8733 23.8173 43.724 24.096C44.5747 24.36 45.2567 24.822 45.77 25.482C46.298 26.142 46.562 27.0587 46.562 28.232C46.562 29.3467 46.298 30.256 45.77 30.96C45.2567 31.664 44.5747 32.1847 43.724 32.522C42.8733 32.8593 41.942 33.028 40.93 33.028H39.148V38H35.628ZM39.148 30.234H40.666C41.458 30.234 42.0593 30.0653 42.47 29.728C42.8953 29.3907 43.108 28.892 43.108 28.232C43.108 27.5573 42.8953 27.0953 42.47 26.846C42.0593 26.5967 41.458 26.472 40.666 26.472H39.148V30.234ZM43.372 38L40.292 32.104L42.69 29.816L47.288 38H43.372ZM53.8287 38.264C52.7727 38.264 51.8194 38.0367 50.9687 37.582C50.118 37.1273 49.4434 36.4747 48.9447 35.624C48.4607 34.7733 48.2187 33.7393 48.2187 32.522C48.2187 31.334 48.468 30.3147 48.9667 29.464C49.4654 28.6133 50.1107 27.9533 50.9027 27.484C51.7094 27.0147 52.5527 26.78 53.4327 26.78C54.5034 26.78 55.3834 27.0147 56.0727 27.484C56.7767 27.9533 57.2974 28.5913 57.6347 29.398C57.9867 30.19 58.1627 31.0773 58.1627 32.06C58.1627 32.368 58.1407 32.6613 58.0967 32.94C58.0674 33.2187 58.038 33.4313 58.0087 33.578H50.9687L50.9247 31.246H55.1487C55.1487 30.7327 55.024 30.3073 54.7747 29.97C54.54 29.618 54.122 29.442 53.5207 29.442C53.1834 29.442 52.8534 29.5373 52.5307 29.728C52.208 29.904 51.944 30.2193 51.7387 30.674C51.548 31.114 51.46 31.73 51.4747 32.522C51.504 33.3433 51.658 33.974 51.9367 34.414C52.2154 34.854 52.56 35.162 52.9707 35.338C53.396 35.4993 53.836 35.58 54.2907 35.58C54.7014 35.58 55.0974 35.5287 55.4787 35.426C55.86 35.3087 56.2487 35.1327 56.6447 34.898L57.7667 37.01C57.1947 37.406 56.5494 37.714 55.8307 37.934C55.1267 38.154 54.4594 38.264 53.8287 38.264ZM62.908 38.264C62.2333 38.264 61.6467 38.1173 61.148 37.824C60.664 37.516 60.29 37.1127 60.026 36.614C59.762 36.1007 59.63 35.536 59.63 34.92C59.63 33.7613 60.1067 32.8593 61.06 32.214C62.0133 31.5687 63.5607 31.136 65.702 30.916C65.6727 30.6227 65.5993 30.3807 65.482 30.19C65.3647 29.9847 65.1887 29.8307 64.954 29.728C64.7193 29.6253 64.4187 29.574 64.052 29.574C63.6267 29.574 63.1867 29.6473 62.732 29.794C62.2773 29.9407 61.7787 30.168 61.236 30.476L60.004 28.21C60.488 27.9167 60.9867 27.66 61.5 27.44C62.0133 27.22 62.5413 27.0587 63.084 26.956C63.6267 26.8387 64.184 26.78 64.756 26.78C65.6947 26.78 66.494 26.9633 67.154 27.33C67.814 27.682 68.32 28.232 68.672 28.98C69.024 29.7133 69.2 30.6593 69.2 31.818V38H66.34L66.098 36.922H66.01C65.5553 37.318 65.0787 37.6407 64.58 37.89C64.0813 38.1393 63.524 38.264 62.908 38.264ZM64.118 35.536C64.4553 35.536 64.7413 35.4627 64.976 35.316C65.2253 35.1693 65.4673 34.9713 65.702 34.722V33.05C65.0127 33.138 64.47 33.2627 64.074 33.424C63.678 33.5853 63.392 33.7687 63.216 33.974C63.0547 34.1793 62.974 34.4067 62.974 34.656C62.974 34.9493 63.0767 35.1693 63.282 35.316C63.4873 35.4627 63.766 35.536 64.118 35.536ZM75.761 38.264C74.397 38.264 73.3117 37.7507 72.505 36.724C71.6983 35.6973 71.295 34.2967 71.295 32.522C71.295 31.3193 71.5077 30.2927 71.933 29.442C72.373 28.5913 72.9377 27.9387 73.627 27.484C74.3163 27.0147 75.035 26.78 75.783 26.78C76.399 26.78 76.905 26.8827 77.301 27.088C77.697 27.2787 78.0637 27.55 78.401 27.902L78.291 26.274V22.644H81.789V38H78.929L78.687 36.944H78.599C78.2323 37.3253 77.7923 37.6407 77.279 37.89C76.7803 38.1393 76.2743 38.264 75.761 38.264ZM76.685 35.404C77.0077 35.404 77.2937 35.338 77.543 35.206C77.807 35.074 78.0563 34.8467 78.291 34.524V30.256C78.027 30.0213 77.7483 29.86 77.455 29.772C77.1763 29.684 76.905 29.64 76.641 29.64C76.333 29.64 76.0397 29.7353 75.761 29.926C75.497 30.1167 75.2843 30.4247 75.123 30.85C74.9617 31.2753 74.881 31.818 74.881 32.478C74.881 33.5047 75.0423 34.2527 75.365 34.722C75.6877 35.1767 76.1277 35.404 76.685 35.404ZM85.9068 42.202C85.5548 42.202 85.2541 42.18 85.0048 42.136C84.7701 42.092 84.5354 42.026 84.3008 41.938L84.9168 39.364C85.0928 39.408 85.2248 39.43 85.3128 39.43C85.4154 39.4447 85.5254 39.452 85.6428 39.452C86.1561 39.452 86.5521 39.3347 86.8308 39.1C87.1241 38.8653 87.3294 38.5647 87.4468 38.198L87.6008 37.67L83.3988 27.044H86.9188L88.3488 31.51C88.5101 31.994 88.6568 32.4927 88.7888 33.006C88.9208 33.5193 89.0528 34.0547 89.1848 34.612H89.2728C89.3901 34.084 89.5074 33.5633 89.6248 33.05C89.7421 32.5367 89.8668 32.0233 89.9988 31.51L91.2088 27.044H94.5748L90.8348 37.978C90.4681 38.9167 90.0721 39.7013 89.6468 40.332C89.2214 40.9627 88.7081 41.432 88.1068 41.74C87.5201 42.048 86.7868 42.202 85.9068 42.202ZM104.968 38.264C103.589 38.264 102.592 37.8607 101.976 37.054C101.36 36.2473 101.052 35.1913 101.052 33.886V29.794H99.578V27.176L101.25 27.044L101.668 23.722H104.572V27.044H107.124V29.794H104.572V33.842C104.572 34.4433 104.697 34.876 104.946 35.14C105.21 35.3893 105.54 35.514 105.936 35.514C106.112 35.514 106.288 35.5067 106.464 35.492C106.64 35.4627 106.794 35.4187 106.926 35.36L107.476 37.802C107.197 37.9193 106.845 38.022 106.42 38.11C105.995 38.2127 105.511 38.264 104.968 38.264ZM113.572 38.264C112.633 38.264 111.753 38.0367 110.932 37.582C110.125 37.1273 109.465 36.4747 108.952 35.624C108.438 34.7733 108.182 33.7393 108.182 32.522C108.182 31.3047 108.438 30.2707 108.952 29.42C109.465 28.5693 110.125 27.9167 110.932 27.462C111.753 27.0073 112.633 26.78 113.572 26.78C114.496 26.78 115.368 27.0073 116.19 27.462C117.011 27.9167 117.678 28.5693 118.192 29.42C118.705 30.2707 118.962 31.3047 118.962 32.522C118.962 33.7393 118.705 34.7733 118.192 35.624C117.678 36.4747 117.011 37.1273 116.19 37.582C115.368 38.0367 114.496 38.264 113.572 38.264ZM113.572 35.448C113.982 35.448 114.32 35.3307 114.584 35.096C114.848 34.8467 115.038 34.5093 115.156 34.084C115.288 33.644 115.354 33.1233 115.354 32.522C115.354 31.9353 115.288 31.422 115.156 30.982C115.038 30.542 114.848 30.2047 114.584 29.97C114.32 29.7207 113.982 29.596 113.572 29.596C113.161 29.596 112.816 29.7207 112.538 29.97C112.274 30.2047 112.076 30.542 111.944 30.982C111.826 31.422 111.768 31.9353 111.768 32.522C111.768 33.1233 111.826 33.644 111.944 34.084C112.076 34.5093 112.274 34.8467 112.538 35.096C112.816 35.3307 113.161 35.448 113.572 35.448ZM125.733 38V23.678H129.253V38H125.733ZM132.237 38V27.044H135.097L135.361 28.386H135.427C135.881 27.9607 136.387 27.5867 136.945 27.264C137.517 26.9413 138.177 26.78 138.925 26.78C140.127 26.78 140.993 27.1833 141.521 27.99C142.063 28.782 142.335 29.86 142.335 31.224V38H138.837V31.664C138.837 30.9307 138.734 30.432 138.529 30.168C138.338 29.904 138.03 29.772 137.605 29.772C137.223 29.772 136.901 29.8527 136.637 30.014C136.373 30.1753 136.079 30.41 135.757 30.718V38H132.237ZM144.934 38V27.044H147.794L148.058 28.386H148.124C148.578 27.9607 149.084 27.5867 149.642 27.264C150.214 26.9413 150.874 26.78 151.622 26.78C152.824 26.78 153.69 27.1833 154.218 27.99C154.76 28.782 155.032 29.86 155.032 31.224V38H151.534V31.664C151.534 30.9307 151.431 30.432 151.226 30.168C151.035 29.904 150.727 29.772 150.302 29.772C149.92 29.772 149.598 29.8527 149.334 30.014C149.07 30.1753 148.776 30.41 148.454 30.718V38H144.934ZM162.427 38.264C161.488 38.264 160.608 38.0367 159.787 37.582C158.98 37.1273 158.32 36.4747 157.807 35.624C157.294 34.7733 157.037 33.7393 157.037 32.522C157.037 31.3047 157.294 30.2707 157.807 29.42C158.32 28.5693 158.98 27.9167 159.787 27.462C160.608 27.0073 161.488 26.78 162.427 26.78C163.351 26.78 164.224 27.0073 165.045 27.462C165.866 27.9167 166.534 28.5693 167.047 29.42C167.56 30.2707 167.817 31.3047 167.817 32.522C167.817 33.7393 167.56 34.7733 167.047 35.624C166.534 36.4747 165.866 37.1273 165.045 37.582C164.224 38.0367 163.351 38.264 162.427 38.264ZM162.427 35.448C162.838 35.448 163.175 35.3307 163.439 35.096C163.703 34.8467 163.894 34.5093 164.011 34.084C164.143 33.644 164.209 33.1233 164.209 32.522C164.209 31.9353 164.143 31.422 164.011 30.982C163.894 30.542 163.703 30.2047 163.439 29.97C163.175 29.7207 162.838 29.596 162.427 29.596C162.016 29.596 161.672 29.7207 161.393 29.97C161.129 30.2047 160.931 30.542 160.799 30.982C160.682 31.422 160.623 31.9353 160.623 32.522C160.623 33.1233 160.682 33.644 160.799 34.084C160.931 34.5093 161.129 34.8467 161.393 35.096C161.672 35.3307 162.016 35.448 162.427 35.448ZM172.279 38L168.627 27.044H172.147L173.445 32.016C173.577 32.5587 173.709 33.116 173.841 33.688C173.988 34.2453 174.127 34.8173 174.259 35.404H174.347C174.494 34.8173 174.633 34.2453 174.765 33.688C174.897 33.116 175.037 32.5587 175.183 32.016L176.481 27.044H179.825L176.305 38H172.279ZM183.822 38.264C183.147 38.264 182.561 38.1173 182.062 37.824C181.578 37.516 181.204 37.1127 180.94 36.614C180.676 36.1007 180.544 35.536 180.544 34.92C180.544 33.7613 181.021 32.8593 181.974 32.214C182.927 31.5687 184.475 31.136 186.616 30.916C186.587 30.6227 186.513 30.3807 186.396 30.19C186.279 29.9847 186.103 29.8307 185.868 29.728C185.633 29.6253 185.333 29.574 184.966 29.574C184.541 29.574 184.101 29.6473 183.646 29.794C183.191 29.9407 182.693 30.168 182.15 30.476L180.918 28.21C181.402 27.9167 181.901 27.66 182.414 27.44C182.927 27.22 183.455 27.0587 183.998 26.956C184.541 26.8387 185.098 26.78 185.67 26.78C186.609 26.78 187.408 26.9633 188.068 27.33C188.728 27.682 189.234 28.232 189.586 28.98C189.938 29.7133 190.114 30.6593 190.114 31.818V38H187.254L187.012 36.922H186.924C186.469 37.318 185.993 37.6407 185.494 37.89C184.995 38.1393 184.438 38.264 183.822 38.264ZM185.032 35.536C185.369 35.536 185.655 35.4627 185.89 35.316C186.139 35.1693 186.381 34.9713 186.616 34.722V33.05C185.927 33.138 185.384 33.2627 184.988 33.424C184.592 33.5853 184.306 33.7687 184.13 33.974C183.969 34.1793 183.888 34.4067 183.888 34.656C183.888 34.9493 183.991 35.1693 184.196 35.316C184.401 35.4627 184.68 35.536 185.032 35.536ZM196.685 38.264C195.306 38.264 194.309 37.8607 193.693 37.054C193.077 36.2473 192.769 35.1913 192.769 33.886V29.794H191.295V27.176L192.967 27.044L193.385 23.722H196.289V27.044H198.841V29.794H196.289V33.842C196.289 34.4433 196.414 34.876 196.663 35.14C196.927 35.3893 197.257 35.514 197.653 35.514C197.829 35.514 198.005 35.5067 198.181 35.492C198.357 35.4627 198.511 35.4187 198.643 35.36L199.193 37.802C198.914 37.9193 198.562 38.022 198.137 38.11C197.712 38.2127 197.228 38.264 196.685 38.264ZM205.508 38.264C204.452 38.264 203.499 38.0367 202.648 37.582C201.798 37.1273 201.123 36.4747 200.624 35.624C200.14 34.7733 199.898 33.7393 199.898 32.522C199.898 31.334 200.148 30.3147 200.646 29.464C201.145 28.6133 201.79 27.9533 202.582 27.484C203.389 27.0147 204.232 26.78 205.112 26.78C206.183 26.78 207.063 27.0147 207.752 27.484C208.456 27.9533 208.977 28.5913 209.314 29.398C209.666 30.19 209.842 31.0773 209.842 32.06C209.842 32.368 209.82 32.6613 209.776 32.94C209.747 33.2187 209.718 33.4313 209.688 33.578H202.648L202.604 31.246H206.828C206.828 30.7327 206.704 30.3073 206.454 29.97C206.22 29.618 205.802 29.442 205.2 29.442C204.863 29.442 204.533 29.5373 204.21 29.728C203.888 29.904 203.624 30.2193 203.418 30.674C203.228 31.114 203.14 31.73 203.154 32.522C203.184 33.3433 203.338 33.974 203.616 34.414C203.895 34.854 204.24 35.162 204.65 35.338C205.076 35.4993 205.516 35.58 205.97 35.58C206.381 35.58 206.777 35.5287 207.158 35.426C207.54 35.3087 207.928 35.1327 208.324 34.898L209.446 37.01C208.874 37.406 208.229 37.714 207.51 37.934C206.806 38.154 206.139 38.264 205.508 38.264ZM213.602 32.764C213.514 32.1773 213.544 31.6567 213.69 31.202C213.852 30.7327 214.072 30.3073 214.35 29.926C214.644 29.5447 214.944 29.2 215.252 28.892C215.56 28.5693 215.817 28.2613 216.022 27.968C216.228 27.6747 216.33 27.374 216.33 27.066C216.33 26.7873 216.272 26.56 216.154 26.384C216.037 26.1933 215.876 26.054 215.67 25.966C215.465 25.8633 215.238 25.812 214.988 25.812C214.592 25.812 214.248 25.9073 213.954 26.098C213.661 26.274 213.368 26.5013 213.074 26.78L211.138 25.02C211.681 24.4187 212.312 23.9347 213.03 23.568C213.764 23.1867 214.563 22.996 215.428 22.996C216.22 22.996 216.939 23.128 217.584 23.392C218.23 23.656 218.743 24.074 219.124 24.646C219.506 25.2033 219.696 25.9293 219.696 26.824C219.696 27.352 219.586 27.8213 219.366 28.232C219.146 28.628 218.875 29.002 218.552 29.354C218.244 29.6913 217.936 30.0287 217.628 30.366C217.32 30.7033 217.071 31.0627 216.88 31.444C216.69 31.8253 216.616 32.2653 216.66 32.764H213.602ZM215.12 38.264C214.534 38.264 214.042 38.0587 213.646 37.648C213.25 37.2227 213.052 36.7093 213.052 36.108C213.052 35.492 213.25 34.9787 213.646 34.568C214.042 34.1427 214.534 33.93 215.12 33.93C215.722 33.93 216.213 34.1427 216.594 34.568C216.99 34.9787 217.188 35.492 217.188 36.108C217.188 36.7093 216.99 37.2227 216.594 37.648C216.213 38.0587 215.722 38.264 215.12 38.264Z" fill="white"/>
<path d="M110.896 78.216C110.056 78.216 109.288 78.06 108.592 77.748C107.896 77.424 107.284 76.992 106.756 76.452L107.602 75.48C108.022 75.924 108.52 76.272 109.096 76.524C109.684 76.776 110.29 76.902 110.914 76.902C111.694 76.902 112.3 76.728 112.732 76.38C113.164 76.02 113.38 75.552 113.38 74.976C113.38 74.568 113.29 74.244 113.11 74.004C112.942 73.764 112.708 73.56 112.408 73.392C112.12 73.224 111.79 73.056 111.418 72.888L109.726 72.15C109.342 71.982 108.964 71.772 108.592 71.52C108.232 71.268 107.932 70.95 107.692 70.566C107.452 70.17 107.332 69.684 107.332 69.108C107.332 68.508 107.488 67.974 107.8 67.506C108.124 67.026 108.562 66.654 109.114 66.39C109.678 66.114 110.32 65.976 111.04 65.976C111.76 65.976 112.42 66.108 113.02 66.372C113.62 66.636 114.124 66.978 114.532 67.398L113.722 68.37C113.35 68.046 112.942 67.788 112.498 67.596C112.054 67.392 111.568 67.29 111.04 67.29C110.38 67.29 109.846 67.446 109.438 67.758C109.042 68.07 108.844 68.49 108.844 69.018C108.844 69.39 108.94 69.696 109.132 69.936C109.324 70.176 109.57 70.374 109.87 70.53C110.182 70.686 110.494 70.836 110.806 70.98L112.48 71.7C112.948 71.904 113.362 72.138 113.722 72.402C114.094 72.666 114.382 72.996 114.586 73.392C114.802 73.788 114.91 74.274 114.91 74.85C114.91 75.474 114.748 76.044 114.424 76.56C114.112 77.064 113.65 77.466 113.038 77.766C112.438 78.066 111.724 78.216 110.896 78.216ZM119.423 78.162C118.499 78.162 117.851 77.892 117.479 77.352C117.107 76.812 116.921 76.11 116.921 75.246V70.458H115.625V69.342L116.993 69.252L117.173 66.444H118.415V69.252H120.791V70.458H118.415V75.264C118.415 75.792 118.511 76.206 118.703 76.506C118.907 76.806 119.261 76.956 119.765 76.956C119.921 76.956 120.083 76.944 120.251 76.92C120.419 76.884 120.587 76.824 120.755 76.74L121.079 77.784C120.851 77.892 120.593 77.982 120.305 78.054C120.017 78.126 119.723 78.162 119.423 78.162ZM124.381 78.216C123.901 78.216 123.463 78.12 123.067 77.928C122.683 77.724 122.377 77.442 122.149 77.082C121.921 76.71 121.807 76.26 121.807 75.732C121.807 74.748 122.239 74.004 123.103 73.5C123.967 72.996 125.335 72.642 127.207 72.438C127.195 72.078 127.135 71.73 127.027 71.394C126.931 71.058 126.751 70.788 126.487 70.584C126.223 70.38 125.857 70.278 125.389 70.278C124.885 70.278 124.411 70.374 123.967 70.566C123.523 70.746 123.127 70.95 122.779 71.178L122.203 70.17C122.467 69.99 122.779 69.816 123.139 69.648C123.499 69.468 123.889 69.324 124.309 69.216C124.729 69.096 125.173 69.036 125.641 69.036C126.349 69.036 126.925 69.186 127.369 69.486C127.825 69.774 128.155 70.188 128.359 70.728C128.575 71.268 128.683 71.904 128.683 72.636V78H127.459L127.333 76.956H127.279C126.859 77.304 126.409 77.604 125.929 77.856C125.449 78.096 124.933 78.216 124.381 78.216ZM124.795 76.992C125.227 76.992 125.629 76.896 126.001 76.704C126.385 76.512 126.787 76.23 127.207 75.858V73.5C126.223 73.62 125.443 73.776 124.867 73.968C124.303 74.148 123.895 74.376 123.643 74.652C123.391 74.928 123.265 75.258 123.265 75.642C123.265 76.122 123.415 76.47 123.715 76.686C124.015 76.89 124.375 76.992 124.795 76.992ZM131.435 78V69.252H132.659L132.785 70.836H132.839C133.127 70.284 133.487 69.846 133.919 69.522C134.351 69.198 134.819 69.036 135.323 69.036C135.515 69.036 135.683 69.048 135.827 69.072C135.971 69.096 136.115 69.144 136.259 69.216L135.935 70.476C135.803 70.44 135.677 70.416 135.557 70.404C135.449 70.38 135.305 70.368 135.125 70.368C134.753 70.368 134.363 70.518 133.955 70.818C133.559 71.118 133.211 71.64 132.911 72.384V78H131.435ZM140.429 78.162C139.505 78.162 138.857 77.892 138.485 77.352C138.113 76.812 137.927 76.11 137.927 75.246V70.458H136.631V69.342L137.999 69.252L138.179 66.444H139.421V69.252H141.797V70.458H139.421V75.264C139.421 75.792 139.517 76.206 139.709 76.506C139.913 76.806 140.267 76.956 140.771 76.956C140.927 76.956 141.089 76.944 141.257 76.92C141.425 76.884 141.593 76.824 141.761 76.74L142.085 77.784C141.857 77.892 141.599 77.982 141.311 78.054C141.023 78.126 140.729 78.162 140.429 78.162ZM149.413 78V73.428L145.867 66.192H147.469L148.999 69.522C149.179 69.954 149.359 70.38 149.539 70.8C149.731 71.22 149.929 71.652 150.133 72.096H150.205C150.421 71.652 150.625 71.22 150.817 70.8C151.021 70.38 151.213 69.954 151.393 69.522L152.905 66.192H154.471L150.907 73.428V78H149.413ZM158.585 78.216C157.877 78.216 157.211 78.036 156.587 77.676C155.975 77.316 155.477 76.794 155.093 76.11C154.721 75.426 154.535 74.604 154.535 73.644C154.535 72.66 154.721 71.826 155.093 71.142C155.477 70.458 155.975 69.936 156.587 69.576C157.211 69.216 157.877 69.036 158.585 69.036C159.305 69.036 159.971 69.216 160.583 69.576C161.195 69.936 161.687 70.458 162.059 71.142C162.443 71.826 162.635 72.66 162.635 73.644C162.635 74.604 162.443 75.426 162.059 76.11C161.687 76.794 161.195 77.316 160.583 77.676C159.971 78.036 159.305 78.216 158.585 78.216ZM158.585 76.992C159.089 76.992 159.533 76.854 159.917 76.578C160.301 76.29 160.595 75.894 160.799 75.39C161.003 74.886 161.105 74.304 161.105 73.644C161.105 72.972 161.003 72.384 160.799 71.88C160.595 71.364 160.301 70.968 159.917 70.692C159.533 70.404 159.089 70.26 158.585 70.26C158.081 70.26 157.637 70.404 157.253 70.692C156.881 70.968 156.587 71.364 156.371 71.88C156.167 72.384 156.065 72.972 156.065 73.644C156.065 74.304 156.167 74.886 156.371 75.39C156.587 75.894 156.881 76.29 157.253 76.578C157.637 76.854 158.081 76.992 158.585 76.992ZM167.495 78.216C166.571 78.216 165.893 77.928 165.461 77.352C165.041 76.764 164.831 75.912 164.831 74.796V69.252H166.307V74.598C166.307 75.414 166.433 76.008 166.685 76.38C166.949 76.74 167.369 76.92 167.945 76.92C168.389 76.92 168.785 76.806 169.133 76.578C169.493 76.338 169.883 75.966 170.303 75.462V69.252H171.779V78H170.555L170.429 76.632H170.375C169.979 77.112 169.547 77.496 169.079 77.784C168.623 78.072 168.095 78.216 167.495 78.216ZM174.73 78V69.252H175.954L176.08 70.836H176.134C176.422 70.284 176.782 69.846 177.214 69.522C177.646 69.198 178.114 69.036 178.618 69.036C178.81 69.036 178.978 69.048 179.122 69.072C179.266 69.096 179.41 69.144 179.554 69.216L179.23 70.476C179.098 70.44 178.972 70.416 178.852 70.404C178.744 70.38 178.6 70.368 178.42 70.368C178.048 70.368 177.658 70.518 177.25 70.818C176.854 71.118 176.506 71.64 176.206 72.384V78H174.73ZM184.718 78V66.192H191.522V67.452H186.212V71.448H190.712V72.708H186.212V78H184.718ZM193.117 78V69.252H194.341L194.467 70.836H194.521C194.809 70.284 195.169 69.846 195.601 69.522C196.033 69.198 196.501 69.036 197.005 69.036C197.197 69.036 197.365 69.048 197.509 69.072C197.653 69.096 197.797 69.144 197.941 69.216L197.617 70.476C197.485 70.44 197.359 70.416 197.239 70.404C197.131 70.38 196.987 70.368 196.807 70.368C196.435 70.368 196.045 70.518 195.637 70.818C195.241 71.118 194.893 71.64 194.593 72.384V78H193.117ZM202.727 78.216C201.947 78.216 201.233 78.036 200.585 77.676C199.949 77.304 199.445 76.782 199.073 76.11C198.701 75.426 198.515 74.598 198.515 73.626C198.515 72.678 198.707 71.862 199.091 71.178C199.475 70.494 199.967 69.966 200.567 69.594C201.167 69.222 201.803 69.036 202.475 69.036C203.219 69.036 203.849 69.21 204.365 69.558C204.893 69.894 205.289 70.368 205.553 70.98C205.817 71.592 205.949 72.312 205.949 73.14C205.949 73.296 205.943 73.446 205.931 73.59C205.931 73.734 205.913 73.878 205.877 74.022H199.577V72.852H204.617C204.617 72.012 204.431 71.37 204.059 70.926C203.699 70.47 203.177 70.242 202.493 70.242C202.097 70.242 201.707 70.356 201.323 70.584C200.939 70.8 200.621 71.154 200.369 71.646C200.129 72.138 200.009 72.792 200.009 73.608C200.009 74.352 200.135 74.976 200.387 75.48C200.651 75.984 201.005 76.368 201.449 76.632C201.893 76.884 202.379 77.01 202.907 77.01C203.327 77.01 203.717 76.95 204.077 76.83C204.449 76.71 204.785 76.548 205.085 76.344L205.625 77.316C205.241 77.58 204.809 77.796 204.329 77.964C203.861 78.132 203.327 78.216 202.727 78.216ZM211.657 78.216C210.877 78.216 210.163 78.036 209.515 77.676C208.879 77.304 208.375 76.782 208.003 76.11C207.631 75.426 207.445 74.598 207.445 73.626C207.445 72.678 207.637 71.862 208.021 71.178C208.405 70.494 208.897 69.966 209.497 69.594C210.097 69.222 210.733 69.036 211.405 69.036C212.149 69.036 212.779 69.21 213.295 69.558C213.823 69.894 214.219 70.368 214.483 70.98C214.747 71.592 214.879 72.312 214.879 73.14C214.879 73.296 214.873 73.446 214.861 73.59C214.861 73.734 214.843 73.878 214.807 74.022H208.507V72.852H213.547C213.547 72.012 213.361 71.37 212.989 70.926C212.629 70.47 212.107 70.242 211.423 70.242C211.027 70.242 210.637 70.356 210.253 70.584C209.869 70.8 209.551 71.154 209.299 71.646C209.059 72.138 208.939 72.792 208.939 73.608C208.939 74.352 209.065 74.976 209.317 75.48C209.581 75.984 209.935 76.368 210.379 76.632C210.823 76.884 211.309 77.01 211.837 77.01C212.257 77.01 212.647 76.95 213.007 76.83C213.379 76.71 213.715 76.548 214.015 76.344L214.555 77.316C214.171 77.58 213.739 77.796 213.259 77.964C212.791 78.132 212.257 78.216 211.657 78.216ZM223.416 78.216C222.804 78.216 222.258 78.138 221.778 77.982C221.31 77.826 220.902 77.628 220.554 77.388C220.206 77.148 219.9 76.884 219.636 76.596L220.392 75.624C220.74 75.984 221.142 76.302 221.598 76.578C222.066 76.854 222.642 76.992 223.326 76.992C224.022 76.992 224.592 76.8 225.036 76.416C225.48 76.032 225.702 75.522 225.702 74.886C225.702 74.43 225.582 74.034 225.342 73.698C225.114 73.35 224.73 73.08 224.19 72.888C223.662 72.696 222.942 72.6 222.03 72.6V71.466C222.846 71.466 223.488 71.37 223.956 71.178C224.436 70.986 224.778 70.734 224.982 70.422C225.186 70.098 225.288 69.732 225.288 69.324C225.288 68.76 225.108 68.316 224.748 67.992C224.4 67.668 223.92 67.506 223.308 67.506C222.828 67.506 222.384 67.614 221.976 67.83C221.568 68.046 221.196 68.328 220.86 68.676L220.068 67.74C220.512 67.32 221.004 66.978 221.544 66.714C222.084 66.438 222.69 66.3 223.362 66.3C224.034 66.3 224.628 66.414 225.144 66.642C225.66 66.87 226.062 67.2 226.35 67.632C226.65 68.064 226.8 68.592 226.8 69.216C226.8 69.912 226.608 70.482 226.224 70.926C225.84 71.37 225.336 71.712 224.712 71.952V72.024C225.18 72.132 225.6 72.318 225.972 72.582C226.344 72.834 226.638 73.158 226.854 73.554C227.082 73.95 227.196 74.412 227.196 74.94C227.196 75.624 227.028 76.212 226.692 76.704C226.356 77.184 225.9 77.556 225.324 77.82C224.748 78.084 224.112 78.216 223.416 78.216ZM232.597 78.216C231.445 78.216 230.539 77.7 229.879 76.668C229.231 75.624 228.907 74.142 228.907 72.222C228.907 70.29 229.231 68.82 229.879 67.812C230.539 66.804 231.445 66.3 232.597 66.3C233.737 66.3 234.631 66.81 235.279 67.83C235.939 68.838 236.269 70.302 236.269 72.222C236.269 74.142 235.939 75.624 235.279 76.668C234.631 77.7 233.737 78.216 232.597 78.216ZM232.597 77.028C233.041 77.028 233.431 76.86 233.767 76.524C234.103 76.188 234.361 75.666 234.541 74.958C234.733 74.25 234.829 73.338 234.829 72.222C234.829 71.094 234.733 70.182 234.541 69.486C234.361 68.79 234.103 68.286 233.767 67.974C233.431 67.65 233.041 67.488 232.597 67.488C232.141 67.488 231.745 67.65 231.409 67.974C231.073 68.286 230.809 68.79 230.617 69.486C230.437 70.182 230.347 71.094 230.347 72.222C230.347 73.338 230.437 74.25 230.617 74.958C230.809 75.666 231.073 76.188 231.409 76.524C231.745 76.86 232.141 77.028 232.597 77.028ZM237.801 74.058V72.924H241.941V74.058H237.801ZM244.272 78V66.192H247.224C248.436 66.192 249.456 66.42 250.284 66.876C251.112 67.332 251.736 67.998 252.156 68.874C252.588 69.738 252.804 70.794 252.804 72.042C252.804 73.29 252.588 74.364 252.156 75.264C251.736 76.152 251.118 76.83 250.302 77.298C249.486 77.766 248.484 78 247.296 78H244.272ZM245.766 76.776H247.116C248.04 76.776 248.808 76.59 249.42 76.218C250.032 75.834 250.488 75.294 250.788 74.598C251.088 73.902 251.238 73.05 251.238 72.042C251.238 71.058 251.088 70.218 250.788 69.522C250.488 68.826 250.032 68.304 249.42 67.956C248.808 67.596 248.04 67.416 247.116 67.416H245.766V76.776ZM257.219 78.216C256.739 78.216 256.301 78.12 255.905 77.928C255.521 77.724 255.215 77.442 254.987 77.082C254.759 76.71 254.645 76.26 254.645 75.732C254.645 74.748 255.077 74.004 255.941 73.5C256.805 72.996 258.173 72.642 260.045 72.438C260.033 72.078 259.973 71.73 259.865 71.394C259.769 71.058 259.589 70.788 259.325 70.584C259.061 70.38 258.695 70.278 258.227 70.278C257.723 70.278 257.249 70.374 256.805 70.566C256.361 70.746 255.965 70.95 255.617 71.178L255.041 70.17C255.305 69.99 255.617 69.816 255.977 69.648C256.337 69.468 256.727 69.324 257.147 69.216C257.567 69.096 258.011 69.036 258.479 69.036C259.187 69.036 259.763 69.186 260.207 69.486C260.663 69.774 260.993 70.188 261.197 70.728C261.413 71.268 261.521 71.904 261.521 72.636V78H260.297L260.171 76.956H260.117C259.697 77.304 259.247 77.604 258.767 77.856C258.287 78.096 257.771 78.216 257.219 78.216ZM257.633 76.992C258.065 76.992 258.467 76.896 258.839 76.704C259.223 76.512 259.625 76.23 260.045 75.858V73.5C259.061 73.62 258.281 73.776 257.705 73.968C257.141 74.148 256.733 74.376 256.481 74.652C256.229 74.928 256.103 75.258 256.103 75.642C256.103 76.122 256.253 76.47 256.553 76.686C256.853 76.89 257.213 76.992 257.633 76.992ZM264.417 81.762C264.225 81.762 264.039 81.744 263.859 81.708C263.691 81.672 263.535 81.63 263.391 81.582L263.715 80.43C263.823 80.466 263.931 80.49 264.039 80.502C264.147 80.526 264.249 80.538 264.345 80.538C264.849 80.538 265.257 80.358 265.569 79.998C265.893 79.65 266.145 79.206 266.325 78.666L266.523 78.018L263.013 69.252H264.543L266.325 74.094C266.469 74.466 266.613 74.868 266.757 75.3C266.901 75.732 267.039 76.152 267.171 76.56H267.243C267.375 76.152 267.501 75.738 267.621 75.318C267.753 74.886 267.873 74.478 267.981 74.094L269.547 69.252H270.987L267.693 78.72C267.489 79.296 267.243 79.812 266.955 80.268C266.667 80.736 266.319 81.102 265.911 81.366C265.503 81.63 265.005 81.762 264.417 81.762ZM110.068 104V93.47H106.504V92.192H115.144V93.47H111.58V104H110.068ZM116.3 104V95.252H117.524L117.65 96.836H117.704C117.992 96.284 118.352 95.846 118.784 95.522C119.216 95.198 119.684 95.036 120.188 95.036C120.38 95.036 120.548 95.048 120.692 95.072C120.836 95.096 120.98 95.144 121.124 95.216L120.8 96.476C120.668 96.44 120.542 96.416 120.422 96.404C120.314 96.38 120.17 96.368 119.99 96.368C119.618 96.368 119.228 96.518 118.82 96.818C118.424 97.118 118.076 97.64 117.776 98.384V104H116.3ZM122.54 104V95.252H124.016V104H122.54ZM123.278 93.452C122.99 93.452 122.75 93.362 122.558 93.182C122.378 93.002 122.288 92.768 122.288 92.48C122.288 92.192 122.378 91.958 122.558 91.778C122.75 91.598 122.99 91.508 123.278 91.508C123.566 91.508 123.8 91.598 123.98 91.778C124.172 91.958 124.268 92.192 124.268 92.48C124.268 92.768 124.172 93.002 123.98 93.182C123.8 93.362 123.566 93.452 123.278 93.452ZM128.986 104.216C128.506 104.216 128.068 104.12 127.672 103.928C127.288 103.724 126.982 103.442 126.754 103.082C126.526 102.71 126.412 102.26 126.412 101.732C126.412 100.748 126.844 100.004 127.708 99.5C128.572 98.996 129.94 98.642 131.812 98.438C131.8 98.078 131.74 97.73 131.632 97.394C131.536 97.058 131.356 96.788 131.092 96.584C130.828 96.38 130.462 96.278 129.994 96.278C129.49 96.278 129.016 96.374 128.572 96.566C128.128 96.746 127.732 96.95 127.384 97.178L126.808 96.17C127.072 95.99 127.384 95.816 127.744 95.648C128.104 95.468 128.494 95.324 128.914 95.216C129.334 95.096 129.778 95.036 130.246 95.036C130.954 95.036 131.53 95.186 131.974 95.486C132.43 95.774 132.76 96.188 132.964 96.728C133.18 97.268 133.288 97.904 133.288 98.636V104H132.064L131.938 102.956H131.884C131.464 103.304 131.014 103.604 130.534 103.856C130.054 104.096 129.538 104.216 128.986 104.216ZM129.4 102.992C129.832 102.992 130.234 102.896 130.606 102.704C130.99 102.512 131.392 102.23 131.812 101.858V99.5C130.828 99.62 130.048 99.776 129.472 99.968C128.908 100.148 128.5 100.376 128.248 100.652C127.996 100.928 127.87 101.258 127.87 101.642C127.87 102.122 128.02 102.47 128.32 102.686C128.62 102.89 128.98 102.992 129.4 102.992ZM137.606 104.162C137.234 104.162 136.934 104.09 136.706 103.946C136.478 103.79 136.31 103.568 136.202 103.28C136.094 102.98 136.04 102.62 136.04 102.2V91.184H137.516V102.308C137.516 102.548 137.558 102.716 137.642 102.812C137.726 102.896 137.828 102.938 137.948 102.938C137.996 102.938 138.038 102.938 138.074 102.938C138.122 102.926 138.182 102.914 138.254 102.902L138.47 104.018C138.362 104.054 138.236 104.084 138.092 104.108C137.96 104.144 137.798 104.162 137.606 104.162ZM147.634 104.216C146.926 104.216 146.26 104.036 145.636 103.676C145.024 103.316 144.526 102.794 144.142 102.11C143.77 101.426 143.584 100.604 143.584 99.644C143.584 98.66 143.77 97.826 144.142 97.142C144.526 96.458 145.024 95.936 145.636 95.576C146.26 95.216 146.926 95.036 147.634 95.036C148.354 95.036 149.02 95.216 149.632 95.576C150.244 95.936 150.736 96.458 151.108 97.142C151.492 97.826 151.684 98.66 151.684 99.644C151.684 100.604 151.492 101.426 151.108 102.11C150.736 102.794 150.244 103.316 149.632 103.676C149.02 104.036 148.354 104.216 147.634 104.216ZM147.634 102.992C148.138 102.992 148.582 102.854 148.966 102.578C149.35 102.29 149.644 101.894 149.848 101.39C150.052 100.886 150.154 100.304 150.154 99.644C150.154 98.972 150.052 98.384 149.848 97.88C149.644 97.364 149.35 96.968 148.966 96.692C148.582 96.404 148.138 96.26 147.634 96.26C147.13 96.26 146.686 96.404 146.302 96.692C145.93 96.968 145.636 97.364 145.42 97.88C145.216 98.384 145.114 98.972 145.114 99.644C145.114 100.304 145.216 100.886 145.42 101.39C145.636 101.894 145.93 102.29 146.302 102.578C146.686 102.854 147.13 102.992 147.634 102.992ZM154.205 104V93.866C154.205 93.278 154.295 92.768 154.475 92.336C154.655 91.892 154.931 91.556 155.303 91.328C155.687 91.088 156.173 90.968 156.761 90.968C157.025 90.968 157.283 90.998 157.535 91.058C157.799 91.106 158.027 91.172 158.219 91.256L157.895 92.336C157.547 92.228 157.217 92.174 156.905 92.174C156.497 92.174 156.191 92.318 155.987 92.606C155.783 92.882 155.681 93.302 155.681 93.866V104H154.205ZM152.909 96.458V95.342L154.277 95.252H157.535V96.458H152.909ZM162.956 104V92.192H164.45V102.722H169.616V104H162.956ZM174.757 104.216C174.049 104.216 173.383 104.036 172.759 103.676C172.147 103.316 171.649 102.794 171.265 102.11C170.893 101.426 170.707 100.604 170.707 99.644C170.707 98.66 170.893 97.826 171.265 97.142C171.649 96.458 172.147 95.936 172.759 95.576C173.383 95.216 174.049 95.036 174.757 95.036C175.477 95.036 176.143 95.216 176.755 95.576C177.367 95.936 177.859 96.458 178.231 97.142C178.615 97.826 178.807 98.66 178.807 99.644C178.807 100.604 178.615 101.426 178.231 102.11C177.859 102.794 177.367 103.316 176.755 103.676C176.143 104.036 175.477 104.216 174.757 104.216ZM174.757 102.992C175.261 102.992 175.705 102.854 176.089 102.578C176.473 102.29 176.767 101.894 176.971 101.39C177.175 100.886 177.277 100.304 177.277 99.644C177.277 98.972 177.175 98.384 176.971 97.88C176.767 97.364 176.473 96.968 176.089 96.692C175.705 96.404 175.261 96.26 174.757 96.26C174.253 96.26 173.809 96.404 173.425 96.692C173.053 96.968 172.759 97.364 172.543 97.88C172.339 98.384 172.237 98.972 172.237 99.644C172.237 100.304 172.339 100.886 172.543 101.39C172.759 101.894 173.053 102.29 173.425 102.578C173.809 102.854 174.253 102.992 174.757 102.992ZM184.063 108.032C183.355 108.032 182.725 107.936 182.173 107.744C181.633 107.564 181.207 107.3 180.895 106.952C180.595 106.604 180.445 106.178 180.445 105.674C180.445 105.302 180.559 104.942 180.787 104.594C181.015 104.258 181.327 103.958 181.723 103.694V103.622C181.507 103.478 181.321 103.292 181.165 103.064C181.021 102.824 180.949 102.536 180.949 102.2C180.949 101.828 181.051 101.504 181.255 101.228C181.471 100.952 181.687 100.736 181.903 100.58V100.508C181.627 100.268 181.369 99.944 181.129 99.536C180.889 99.128 180.769 98.666 180.769 98.15C180.769 97.514 180.919 96.962 181.219 96.494C181.531 96.026 181.933 95.666 182.425 95.414C182.929 95.162 183.475 95.036 184.063 95.036C184.303 95.036 184.531 95.06 184.747 95.108C184.963 95.144 185.149 95.192 185.305 95.252H188.347V96.386H186.529V96.458C186.745 96.65 186.919 96.89 187.051 97.178C187.195 97.466 187.267 97.808 187.267 98.204C187.267 98.828 187.123 99.368 186.835 99.824C186.547 100.268 186.163 100.616 185.683 100.868C185.203 101.108 184.663 101.228 184.063 101.228C183.847 101.228 183.625 101.204 183.397 101.156C183.169 101.096 182.953 101.018 182.749 100.922C182.605 101.054 182.473 101.198 182.353 101.354C182.245 101.51 182.191 101.714 182.191 101.966C182.191 102.242 182.299 102.47 182.515 102.65C182.743 102.83 183.151 102.92 183.739 102.92H185.431C186.451 102.92 187.213 103.088 187.717 103.424C188.233 103.748 188.491 104.276 188.491 105.008C188.491 105.548 188.311 106.046 187.951 106.502C187.591 106.958 187.075 107.324 186.403 107.6C185.743 107.888 184.963 108.032 184.063 108.032ZM184.063 100.238C184.399 100.238 184.705 100.154 184.981 99.986C185.269 99.806 185.497 99.56 185.665 99.248C185.833 98.936 185.917 98.57 185.917 98.15C185.917 97.502 185.737 97.004 185.377 96.656C185.017 96.296 184.579 96.116 184.063 96.116C183.547 96.116 183.109 96.296 182.749 96.656C182.389 97.004 182.209 97.502 182.209 98.15C182.209 98.57 182.293 98.936 182.461 99.248C182.629 99.56 182.851 99.806 183.127 99.986C183.415 100.154 183.727 100.238 184.063 100.238ZM184.279 107.006C184.831 107.006 185.311 106.922 185.719 106.754C186.139 106.586 186.463 106.364 186.691 106.088C186.931 105.812 187.051 105.524 187.051 105.224C187.051 104.816 186.895 104.534 186.583 104.378C186.283 104.222 185.851 104.144 185.287 104.144H183.775C183.607 104.144 183.421 104.132 183.217 104.108C183.025 104.084 182.833 104.048 182.641 104C182.317 104.228 182.083 104.468 181.939 104.72C181.807 104.972 181.741 105.224 181.741 105.476C181.741 105.944 181.963 106.316 182.407 106.592C182.863 106.868 183.487 107.006 184.279 107.006ZM190.181 104V95.252H191.657V104H190.181ZM190.919 93.452C190.631 93.452 190.391 93.362 190.199 93.182C190.019 93.002 189.929 92.768 189.929 92.48C189.929 92.192 190.019 91.958 190.199 91.778C190.391 91.598 190.631 91.508 190.919 91.508C191.207 91.508 191.441 91.598 191.621 91.778C191.813 91.958 191.909 92.192 191.909 92.48C191.909 92.768 191.813 93.002 191.621 93.182C191.441 93.362 191.207 93.452 190.919 93.452ZM196.177 104.162C195.805 104.162 195.505 104.09 195.277 103.946C195.049 103.79 194.881 103.568 194.773 103.28C194.665 102.98 194.611 102.62 194.611 102.2V91.184H196.087V102.308C196.087 102.548 196.129 102.716 196.213 102.812C196.297 102.896 196.399 102.938 196.519 102.938C196.567 102.938 196.609 102.938 196.645 102.938C196.693 102.926 196.753 102.914 196.825 102.902L197.041 104.018C196.933 104.054 196.807 104.084 196.663 104.108C196.531 104.144 196.369 104.162 196.177 104.162ZM201.215 104.216C200.735 104.216 200.297 104.12 199.901 103.928C199.517 103.724 199.211 103.442 198.983 103.082C198.755 102.71 198.641 102.26 198.641 101.732C198.641 100.748 199.073 100.004 199.937 99.5C200.801 98.996 202.169 98.642 204.041 98.438C204.029 98.078 203.969 97.73 203.861 97.394C203.765 97.058 203.585 96.788 203.321 96.584C203.057 96.38 202.691 96.278 202.223 96.278C201.719 96.278 201.245 96.374 200.801 96.566C200.357 96.746 199.961 96.95 199.613 97.178L199.037 96.17C199.301 95.99 199.613 95.816 199.973 95.648C200.333 95.468 200.723 95.324 201.143 95.216C201.563 95.096 202.007 95.036 202.475 95.036C203.183 95.036 203.759 95.186 204.203 95.486C204.659 95.774 204.989 96.188 205.193 96.728C205.409 97.268 205.517 97.904 205.517 98.636V104H204.293L204.167 102.956H204.113C203.693 103.304 203.243 103.604 202.763 103.856C202.283 104.096 201.767 104.216 201.215 104.216ZM201.629 102.992C202.061 102.992 202.463 102.896 202.835 102.704C203.219 102.512 203.621 102.23 204.041 101.858V99.5C203.057 99.62 202.277 99.776 201.701 99.968C201.137 100.148 200.729 100.376 200.477 100.652C200.225 100.928 200.099 101.258 200.099 101.642C200.099 102.122 200.249 102.47 200.549 102.686C200.849 102.89 201.209 102.992 201.629 102.992ZM212.139 104.216C211.731 104.216 211.311 104.12 210.879 103.928C210.447 103.724 210.033 103.448 209.637 103.1H209.583L209.457 104H208.269V91.184H209.745V94.676L209.709 96.26C210.105 95.912 210.537 95.624 211.005 95.396C211.485 95.156 211.965 95.036 212.445 95.036C213.201 95.036 213.837 95.222 214.353 95.594C214.869 95.954 215.259 96.47 215.523 97.142C215.787 97.802 215.919 98.582 215.919 99.482C215.919 100.478 215.739 101.33 215.379 102.038C215.031 102.746 214.569 103.286 213.993 103.658C213.417 104.03 212.799 104.216 212.139 104.216ZM211.887 102.974C212.367 102.974 212.793 102.836 213.165 102.56C213.549 102.284 213.849 101.888 214.065 101.372C214.281 100.844 214.389 100.22 214.389 99.5C214.389 98.864 214.311 98.306 214.155 97.826C213.999 97.334 213.753 96.956 213.417 96.692C213.081 96.416 212.637 96.278 212.085 96.278C211.725 96.278 211.347 96.38 210.951 96.584C210.567 96.776 210.165 97.07 209.745 97.466V102.056C210.129 102.392 210.507 102.632 210.879 102.776C211.263 102.908 211.599 102.974 211.887 102.974ZM221.966 104V92.192H228.77V93.452H223.46V97.16H227.942V98.438H223.46V102.722H228.95V104H221.966ZM231.458 104V92.192H232.952V102.722H238.118V104H231.458ZM240.212 104V92.192H241.85L246.044 99.536C246.272 99.932 246.488 100.346 246.692 100.778C246.896 101.198 247.1 101.63 247.304 102.074H247.376C247.34 101.462 247.298 100.838 247.25 100.202C247.202 99.554 247.178 98.93 247.178 98.33V92.192H248.618V104H246.98L242.786 96.656C242.57 96.26 242.348 95.846 242.12 95.414C241.904 94.982 241.7 94.55 241.508 94.118H241.436C241.484 94.706 241.526 95.312 241.562 95.936C241.61 96.56 241.634 97.19 241.634 97.826V104H240.212ZM255.47 104V92.192H256.964V102.722H262.13V104H255.47ZM264.08 104V95.252H265.556V104H264.08ZM264.818 93.452C264.53 93.452 264.29 93.362 264.098 93.182C263.918 93.002 263.828 92.768 263.828 92.48C263.828 92.192 263.918 91.958 264.098 91.778C264.29 91.598 264.53 91.508 264.818 91.508C265.106 91.508 265.34 91.598 265.52 91.778C265.712 91.958 265.808 92.192 265.808 92.48C265.808 92.768 265.712 93.002 265.52 93.182C265.34 93.362 265.106 93.452 264.818 93.452ZM271.263 104.162C270.339 104.162 269.691 103.892 269.319 103.352C268.947 102.812 268.761 102.11 268.761 101.246V96.458H267.465V95.342L268.833 95.252L269.013 92.444H270.255V95.252H272.631V96.458H270.255V101.264C270.255 101.792 270.351 102.206 270.543 102.506C270.747 102.806 271.101 102.956 271.605 102.956C271.761 102.956 271.923 102.944 272.091 102.92C272.259 102.884 272.427 102.824 272.595 102.74L272.919 103.784C272.691 103.892 272.433 103.982 272.145 104.054C271.857 104.126 271.563 104.162 271.263 104.162ZM277.891 104.216C277.111 104.216 276.397 104.036 275.749 103.676C275.113 103.304 274.609 102.782 274.237 102.11C273.865 101.426 273.679 100.598 273.679 99.626C273.679 98.678 273.871 97.862 274.255 97.178C274.639 96.494 275.131 95.966 275.731 95.594C276.331 95.222 276.967 95.036 277.639 95.036C278.383 95.036 279.013 95.21 279.529 95.558C280.057 95.894 280.453 96.368 280.717 96.98C280.981 97.592 281.113 98.312 281.113 99.14C281.113 99.296 281.107 99.446 281.095 99.59C281.095 99.734 281.077 99.878 281.041 100.022H274.741V98.852H279.781C279.781 98.012 279.595 97.37 279.223 96.926C278.863 96.47 278.341 96.242 277.657 96.242C277.261 96.242 276.871 96.356 276.487 96.584C276.103 96.8 275.785 97.154 275.533 97.646C275.293 98.138 275.173 98.792 275.173 99.608C275.173 100.352 275.299 100.976 275.551 101.48C275.815 101.984 276.169 102.368 276.613 102.632C277.057 102.884 277.543 103.01 278.071 103.01C278.491 103.01 278.881 102.95 279.241 102.83C279.613 102.71 279.949 102.548 280.249 102.344L280.789 103.316C280.405 103.58 279.973 103.796 279.493 103.964C279.025 104.132 278.491 104.216 277.891 104.216ZM107.62 130V118.192H109.258L113.452 125.536C113.68 125.932 113.896 126.346 114.1 126.778C114.304 127.198 114.508 127.63 114.712 128.074H114.784C114.748 127.462 114.706 126.838 114.658 126.202C114.61 125.554 114.586 124.93 114.586 124.33V118.192H116.026V130H114.388L110.194 122.656C109.978 122.26 109.756 121.846 109.528 121.414C109.312 120.982 109.108 120.55 108.916 120.118H108.844C108.892 120.706 108.934 121.312 108.97 121.936C109.018 122.56 109.042 123.19 109.042 123.826V130H107.62ZM122.532 130.216C121.824 130.216 121.158 130.036 120.534 129.676C119.922 129.316 119.424 128.794 119.04 128.11C118.668 127.426 118.482 126.604 118.482 125.644C118.482 124.66 118.668 123.826 119.04 123.142C119.424 122.458 119.922 121.936 120.534 121.576C121.158 121.216 121.824 121.036 122.532 121.036C123.252 121.036 123.918 121.216 124.53 121.576C125.142 121.936 125.634 122.458 126.006 123.142C126.39 123.826 126.582 124.66 126.582 125.644C126.582 126.604 126.39 127.426 126.006 128.11C125.634 128.794 125.142 129.316 124.53 129.676C123.918 130.036 123.252 130.216 122.532 130.216ZM122.532 128.992C123.036 128.992 123.48 128.854 123.864 128.578C124.248 128.29 124.542 127.894 124.746 127.39C124.95 126.886 125.052 126.304 125.052 125.644C125.052 124.972 124.95 124.384 124.746 123.88C124.542 123.364 124.248 122.968 123.864 122.692C123.48 122.404 123.036 122.26 122.532 122.26C122.028 122.26 121.584 122.404 121.2 122.692C120.828 122.968 120.534 123.364 120.318 123.88C120.114 124.384 120.012 124.972 120.012 125.644C120.012 126.304 120.114 126.886 120.318 127.39C120.534 127.894 120.828 128.29 121.2 128.578C121.584 128.854 122.028 128.992 122.532 128.992ZM130.202 130L127.772 121.252H129.32L130.598 126.31C130.694 126.706 130.784 127.102 130.868 127.498C130.952 127.894 131.03 128.326 131.102 128.794H131.174C131.27 128.326 131.36 127.894 131.444 127.498C131.54 127.102 131.636 126.706 131.732 126.31L133.028 121.252H134.648L135.962 126.31C136.07 126.706 136.166 127.102 136.25 127.498C136.346 127.894 136.442 128.326 136.538 128.794H136.61C136.706 128.326 136.796 127.894 136.88 127.498C136.964 127.102 137.048 126.706 137.132 126.31L138.41 121.252H139.85L137.492 130H135.566L134.396 125.32C134.3 124.912 134.204 124.51 134.108 124.114C134.024 123.706 133.934 123.244 133.838 122.728H133.766C133.682 123.244 133.592 123.706 133.496 124.114C133.412 124.522 133.316 124.924 133.208 125.32L132.038 130H130.202Z" fill="white"/>
<defs>
<filter id="filter0_d_2386_169" x="0.4" y="0.4" width="316.2" height="158.2" filterUnits="userSpaceOnUse" color-interpolation-filters="sRGB">
<feFlood flood-opacity="0" result="BackgroundImageFix"/>
<feColorMatrix in="SourceAlpha" type="matrix" values="0 0 0 0 0 0 0 0 0 0 0 0 0 0 0 0 0 0 127 0" result="hardAlpha"/>
<feOffset dx="-3" dy="4"/>
<feGaussianBlur stdDeviation="2.8"/>
<feComposite in2="hardAlpha" operator="out"/>
<feColorMatrix type="matrix" values="0 0 0 0 0 0 0 0 0 0 0 0 0 0 0 0 0 0 0.25 0"/>
<feBlend mode="normal" in2="BackgroundImageFix" result="effect1_dropShadow_2386_169"/>
<feBlend mode="normal" in="SourceGraphic" in2="effect1_dropShadow_2386_169" result="shape"/>
</filter>
<linearGradient id="paint0_linear_2386_169" x1="9" y1="76" x2="367.5" y2="76" gradientUnits="userSpaceOnUse">
<stop stop-color="#A7D0FF"/>
<stop offset="1" stop-color="#1164E9"/>
</linearGradient>
</defs>
</svg>
