<svg width="1900" height="683" viewBox="0 0 1900 683" fill="none" xmlns="http://www.w3.org/2000/svg">
<g clip-path="url(#clip0_4282_7721)">
<rect width="1900" height="683" fill="white"/>
<path d="M1900 0H0V683H1900V0Z" fill="#F0F7FF"/>
<g opacity="0.5">
<mask id="mask0_4282_7721" style="mask-type:alpha" maskUnits="userSpaceOnUse" x="0" y="0" width="1900" height="679">
<path d="M0 0H1900V679H0V0Z" fill="#1164E9"/>
</mask>
<g mask="url(#mask0_4282_7721)">
<path opacity="0.2" d="M1409.04 378.2V378.203C1407.74 631.792 1201.78 837.658 950.641 837.658C698.103 837.658 492.241 631.793 492.241 378.2C492.241 124.508 698.103 -81.2494 950.641 -81.2494C1203.07 -81.2494 1409.04 124.508 1409.04 378.2ZM192.456 -48.4204L191.875 -48.7467L192.456 -48.42C121.59 77.6675 81.151 223.206 81.151 378.2C81.151 532.774 121.59 678.205 192.456 804.177L192.456 804.177C341.516 1069.89 625.536 1249.83 950.641 1249.83C1428.67 1249.83 1818.85 858.572 1818.85 378.2C1818.85 -103.458 1428.67 -493.421 950.641 -493.421C625.535 -493.421 341.516 -314.03 192.456 -48.4204Z" stroke="#1163EA" stroke-width="1.33333"/>
</g>
</g>
<g opacity="0.8">
<g opacity="0.11">
<path d="M1568.68 274.277C1567.03 271.913 1566.2 269.018 1565.35 266.302C1564.3 262.966 1563.1 259.616 1561.65 256.428C1558.57 249.69 1556.42 242.579 1553.6 235.73C1553.21 234.778 1552.81 233.837 1552.43 232.881C1552.06 231.927 1551.72 230.979 1551.38 230.017C1551.03 229.063 1550.7 228.111 1550.38 227.15C1550.06 226.202 1549.78 225.206 1549.24 224.351C1549.19 224.271 1549.11 224.263 1549.03 224.277C1549.01 224.227 1548.99 224.176 1548.97 224.127C1548.92 223.987 1548.78 223.937 1548.63 223.976C1548.17 224.116 1547.71 224.278 1547.25 224.45C1546.33 224.506 1545.39 224.871 1544.55 225.181C1543.36 225.616 1542.25 226.19 1541.1 226.701C1539.66 227.34 1538.21 227.935 1536.79 228.594C1536.42 228.76 1536.05 228.937 1535.69 229.11C1534.64 229.404 1533.6 229.711 1532.59 230.128C1531.54 230.563 1530.5 231.096 1529.72 231.941C1529.68 231.959 1529.63 231.986 1529.58 232.013C1529.58 232.006 1529.57 231.99 1529.57 231.983C1529.46 231.8 1529.14 231.924 1529.17 232.138C1529.34 233.008 1529.69 233.83 1529.99 234.666C1530.3 235.533 1530.6 236.401 1530.89 237.278C1531.46 239.005 1532.12 240.716 1532.85 242.38C1534.35 245.778 1535.59 249.293 1536.83 252.789C1538.08 256.293 1539.4 259.791 1540.92 263.188C1542.4 266.502 1543.74 269.898 1544.87 273.357C1545.38 274.922 1545.9 276.5 1546.54 278.015C1547.15 279.49 1547.88 280.992 1548.97 282.18C1549.05 282.261 1549.18 282.168 1549.11 282.073C1549.08 282.031 1549.05 281.985 1549.03 281.943C1549.59 281.74 1550.14 281.52 1550.69 281.297C1552.72 281.024 1554.7 280.116 1556.53 279.339C1557.8 278.797 1559.07 278.293 1560.38 277.866C1560.73 277.756 1561.07 277.64 1561.41 277.522C1562.63 277.269 1563.85 277.016 1565.03 276.66C1566.39 276.253 1567.76 275.691 1568.82 274.711C1568.97 274.561 1568.9 274.313 1568.69 274.288L1568.68 274.277Z" fill="#78ACEA"/>
<path d="M1592.07 254.624C1590.69 250.571 1589.18 246.508 1587.46 242.604C1583.45 233.475 1580.38 223.972 1576.63 214.731C1576.11 213.447 1575.58 212.173 1575.07 210.886C1574.58 209.607 1574.11 208.326 1573.63 207.035C1573.16 205.755 1572.7 204.472 1572.25 203.185C1571.81 201.912 1571.39 200.577 1570.74 199.412C1570.63 199.232 1570.45 199.249 1570.37 199.378C1570.34 199.371 1570.31 199.375 1570.28 199.377C1569.87 199.491 1569.51 199.862 1569.13 200.078C1568.65 200.337 1568.15 200.558 1567.63 200.741C1566.5 201.155 1565.36 201.484 1564.21 201.818C1561.59 202.577 1559.08 203.577 1556.54 204.585C1554.88 205.247 1553.15 205.823 1551.56 206.65C1551.46 206.667 1551.37 206.768 1551.4 206.925C1551.67 208.078 1552.14 209.19 1552.55 210.313C1552.98 211.478 1553.39 212.649 1553.79 213.817C1554.6 216.136 1555.48 218.431 1556.45 220.687C1558.41 225.284 1560.11 230.001 1561.83 234.698C1563.54 239.399 1565.33 244.113 1567.32 248.71C1569.26 253.202 1571.05 257.777 1572.64 262.399C1573.35 264.494 1574.08 266.607 1574.92 268.66C1575.74 270.65 1576.68 272.689 1577.95 274.361C1578.05 274.48 1578.17 274.372 1578.09 274.236C1578.07 274.195 1578.04 274.156 1578.02 274.124C1578.05 274.128 1578.07 274.138 1578.09 274.136C1579.7 274.171 1580.91 272.999 1582.25 272.284C1582.44 272.189 1582.62 272.111 1582.8 272.023C1582.97 271.966 1583.12 271.906 1583.29 271.858C1584.82 271.374 1586.37 270.975 1587.93 270.567C1590.96 269.772 1593.9 268.849 1596.62 267.274C1596.77 267.178 1596.69 266.974 1596.56 266.914C1596.59 266.81 1596.61 266.698 1596.6 266.587C1596.69 266.722 1596.78 266.866 1596.88 266.999C1596.98 267.115 1597.11 267.008 1597.02 266.871C1596.82 266.552 1596.64 266.224 1596.45 265.891C1596.38 265.706 1596.31 265.523 1596.24 265.341C1596.01 264.803 1595.8 264.258 1595.59 263.715C1595.1 262.477 1594.51 261.283 1594.12 260.007C1593.78 258.921 1592.57 255.2 1592.05 254.621L1592.07 254.624Z" fill="#78ACEA"/>
<path d="M1622.15 239.959C1620.08 233.997 1617.84 227.974 1615.37 222.16C1610.12 209.86 1605.82 197.191 1600.84 184.78C1600.15 183.059 1599.45 181.341 1598.77 179.615C1598.11 177.9 1597.47 176.189 1596.82 174.459C1596.18 172.742 1595.56 171.028 1594.94 169.311C1594.33 167.608 1593.74 165.835 1592.92 164.246C1592.77 163.955 1592.53 164.017 1592.52 164.271C1592.51 164.229 1592.49 164.185 1592.48 164.143C1592.43 164.023 1592.27 163.939 1592.15 164.001C1589.17 165.475 1576.67 170.074 1576.05 170.469C1575.7 170.694 1575.34 170.933 1574.95 171.099C1574.61 171.248 1574.24 171.294 1573.91 171.439C1573.89 171.444 1573.89 171.461 1573.88 171.474C1573.71 171.321 1573.51 171.438 1573.59 171.742C1574 173.263 1574.61 174.763 1575.17 176.26C1575.76 177.82 1576.32 179.38 1576.88 180.949C1577.99 184.045 1579.18 187.123 1580.44 190.156C1583.02 196.341 1585.35 202.65 1587.67 208.935C1590.01 215.233 1592.42 221.542 1595.02 227.724C1597.57 233.77 1599.96 239.904 1602.16 246.087C1603.15 248.885 1604.14 251.707 1605.27 254.463C1606.35 257.146 1607.56 259.889 1609.08 262.207C1609.18 262.361 1609.3 262.253 1609.22 262.086C1609.54 262.224 1609.95 262.177 1610.28 262.147C1610.83 262.086 1611.37 261.949 1611.9 261.785C1613.17 261.399 1614.4 260.878 1615.6 260.331C1616.67 259.844 1617.74 259.347 1618.84 258.912C1620.49 258.253 1622.08 257.426 1623.74 256.797C1624.96 256.339 1626.55 256.256 1627.59 255.391C1627.64 255.354 1627.69 255.319 1627.72 255.263C1627.78 255.208 1627.85 255.159 1627.9 255.1C1627.98 254.992 1627.92 254.863 1627.81 254.816C1627.8 254.666 1627.77 254.516 1627.72 254.373C1627.72 254.373 1627.71 254.359 1627.71 254.352C1627.82 254.513 1627.91 254.69 1628.01 254.845C1628.11 255.014 1628.24 254.885 1628.14 254.696C1625.58 250.166 1623.85 244.896 1622.13 239.935L1622.15 239.959Z" fill="#78ACEA"/>
<path d="M1713.45 198.741C1710.67 190.953 1707.71 183.08 1704.53 175.437C1697.78 159.272 1691.98 142.734 1685.5 126.456C1684.6 124.2 1683.69 121.944 1682.8 119.684C1681.93 117.432 1681.09 115.19 1680.24 112.938C1679.39 110.692 1678.56 108.45 1677.73 106.202C1676.92 103.977 1676.13 101.669 1675.1 99.5586C1674.97 99.2621 1674.78 99.2219 1674.71 99.3544C1674.67 99.3441 1674.62 99.3469 1674.58 99.3649C1673.53 99.8936 1672.36 100.21 1671.26 100.596C1670.08 101.006 1668.9 101.43 1667.79 101.979C1667.05 102.336 1666.35 102.74 1665.66 103.147C1665.61 103.166 1665.55 103.188 1665.5 103.201C1664.05 103.732 1662.65 104.389 1661.18 104.892C1659.48 105.481 1657.72 105.993 1656.1 106.781C1655.92 106.526 1655.71 106.615 1655.75 106.94C1655.59 107.016 1655.67 107.223 1655.83 107.209C1656.42 109.14 1657.2 111.056 1657.91 112.962C1658.68 115.004 1659.43 117.05 1660.18 119.09C1661.65 123.139 1663.21 127.172 1664.85 131.156C1668.19 139.282 1671.26 147.533 1674.34 155.758C1677.43 163.996 1680.6 172.266 1683.96 180.383C1687.24 188.327 1690.38 196.367 1693.31 204.44C1694.63 208.101 1695.97 211.788 1697.42 215.4C1698.44 217.929 1699.53 220.511 1700.74 222.922C1700.73 222.95 1700.72 222.988 1700.73 223.023C1700.85 223.391 1701.01 223.743 1701.19 224.08C1701.43 224.57 1701.7 225.052 1701.93 225.553C1701.95 225.602 1701.99 225.62 1702.03 225.637C1702.07 225.735 1702.11 225.834 1702.13 225.928C1702.16 226.001 1702.28 225.977 1702.27 225.893C1702.25 225.81 1702.23 225.723 1702.2 225.642C1702.2 225.642 1702.21 225.639 1702.22 225.638C1702.31 225.764 1702.38 225.737 1702.38 225.625C1705.31 225.443 1707.91 223.979 1710.49 222.665C1711.53 222.313 1712.56 221.961 1713.6 221.606C1716.04 220.773 1718.46 219.904 1720.81 218.844C1720.86 218.824 1720.88 218.789 1720.91 218.747C1721.03 218.702 1721.15 218.671 1721.27 218.619C1721.33 218.594 1721.35 218.528 1721.33 218.462C1721.32 218.427 1721.31 218.392 1721.3 218.354C1721.33 218.315 1721.33 218.219 1721.26 218.092C1718.13 212.065 1715.77 205.197 1713.46 198.721L1713.45 198.741Z" fill="#78ACEA"/>
<path d="M1683.54 214.005C1681.24 207.451 1678.77 200.834 1676.07 194.428C1670.34 180.88 1665.55 166.969 1660.09 153.309C1659.33 151.411 1658.57 149.525 1657.82 147.622C1657.08 145.73 1656.38 143.849 1655.67 141.956C1654.97 140.071 1654.27 138.187 1653.59 136.294C1652.91 134.42 1652.26 132.48 1651.37 130.722C1651.26 130.505 1651.12 130.47 1651.04 130.543C1650.99 130.522 1650.93 130.51 1650.86 130.531C1649.28 131.016 1647.74 131.759 1646.21 132.395C1644.72 133.007 1643.22 133.63 1641.73 134.256C1638.7 135.54 1635.67 136.815 1632.63 138.092C1632.54 138.127 1632.52 138.207 1632.53 138.287C1632.5 138.217 1632.47 138.144 1632.43 138.08C1632.25 137.706 1631.93 137.83 1632.04 138.233C1632.51 139.903 1633.18 141.551 1633.8 143.202C1634.44 144.919 1635.07 146.633 1635.69 148.357C1636.91 151.763 1638.22 155.146 1639.61 158.49C1642.43 165.303 1645 172.242 1647.57 179.146C1650.14 186.064 1652.8 193.007 1655.65 199.821C1658.43 206.478 1661.07 213.226 1663.49 220.017C1664.59 223.091 1665.7 226.193 1666.93 229.225C1667.71 231.185 1668.57 233.168 1669.53 235.037C1669.54 235.08 1669.54 235.128 1669.56 235.17C1669.61 235.321 1669.65 235.468 1669.7 235.62C1669.81 235.921 1669.91 236.222 1670.04 236.512C1670.24 236.937 1670.52 237.405 1670.97 237.614C1670.99 237.669 1671.02 237.721 1671.06 237.764C1671.11 237.848 1671.17 237.862 1671.2 237.841C1671.22 237.873 1671.26 237.897 1671.31 237.877C1671.46 237.804 1671.62 237.739 1671.78 237.673C1672.57 237.76 1673.57 237.325 1674.23 237.102C1675.54 236.65 1676.78 236.052 1678.05 235.479C1680.6 234.327 1683.26 233.583 1685.9 232.649C1686.65 232.383 1687.39 232.094 1688.12 231.754C1688.69 231.485 1689.48 231.178 1689.85 230.659C1689.92 230.559 1689.87 230.457 1689.78 230.426C1689.81 230.331 1689.83 230.234 1689.83 230.129C1689.89 230.22 1689.94 230.331 1690 230.42C1690.12 230.605 1690.24 230.473 1690.13 230.266C1687.38 225.25 1685.45 219.467 1683.54 214.015L1683.54 214.005Z" fill="#78ACEA"/>
<path d="M1653.51 228.416C1651.57 222.794 1649.47 217.122 1647.13 211.646C1642.17 200.074 1638.14 188.124 1633.45 176.439C1632.8 174.819 1632.14 173.207 1631.49 171.58C1630.87 169.964 1630.27 168.349 1629.67 166.726C1629.06 165.109 1628.48 163.494 1627.9 161.875C1627.32 160.27 1626.78 158.598 1625.99 157.107C1625.84 156.817 1625.59 156.91 1625.6 157.179C1625.6 157.172 1625.59 157.165 1625.59 157.151C1625.54 157.119 1625.48 157.119 1625.43 157.153C1625.43 157.153 1625.43 157.153 1625.43 157.147C1625.43 157.15 1625.42 157.158 1625.42 157.168C1625.42 157.168 1625.42 157.168 1625.41 157.171C1625.41 157.171 1625.41 157.171 1625.41 157.181C1625.36 157.22 1625.33 157.258 1625.3 157.303C1624.79 157.346 1624.26 157.648 1623.82 157.823C1623.16 158.079 1622.51 158.348 1621.85 158.603C1620.74 159.034 1619.64 159.493 1618.55 159.966C1618.54 159.971 1618.53 159.96 1618.51 159.966C1618.33 160.033 1618.16 160.126 1617.99 160.209C1617.86 160.257 1617.74 160.315 1617.61 160.374C1617.34 160.492 1617.07 160.613 1616.81 160.731C1616.42 160.882 1616.03 161.026 1615.64 161.162C1614.66 161.52 1613.63 161.77 1612.62 162.027C1610.69 162.517 1608.57 163.115 1606.93 164.294C1606.77 164.202 1606.6 164.331 1606.68 164.597C1607.05 166.033 1607.64 167.447 1608.16 168.86C1608.71 170.329 1609.24 171.804 1609.76 173.273C1610.8 176.193 1611.91 179.089 1613.11 181.944C1615.56 187.771 1617.74 193.714 1619.92 199.638C1622.11 205.569 1624.38 211.516 1626.85 217.34C1629.26 223.032 1631.52 228.807 1633.57 234.636C1634.5 237.273 1635.43 239.938 1636.49 242.533C1637.41 244.792 1638.44 247.088 1639.69 249.102C1639.69 249.122 1639.68 249.142 1639.69 249.164C1639.75 249.415 1639.82 249.639 1639.93 249.87C1639.96 249.94 1640.03 249.964 1640.1 249.944C1643.35 249.056 1646.55 247.804 1649.67 246.551C1652.78 245.294 1655.92 244.065 1658.96 242.642C1659.03 242.614 1659.08 242.53 1659.08 242.457C1659.19 242.601 1659.31 242.479 1659.21 242.307C1656.76 238.054 1655.15 233.085 1653.53 228.407L1653.51 228.416Z" fill="#78ACEA"/>
</g>
<path opacity="0.11" d="M1519.45 152.275L1521.77 148.419L1517.87 146.071L1515.57 150.002L1519.45 152.275ZM1544.85 167.551L1542.53 171.407L1546.4 173.736L1548.72 169.854L1544.85 167.551ZM1576.36 114.665L1578.32 110.618L1574.6 108.812L1572.49 112.362L1576.36 114.665ZM1595.83 124.13L1593.87 128.178L1597.57 129.974L1599.69 126.454L1595.83 124.13ZM1642.34 47.0002L1596.85 72.1231L1641.35 98.9524L1642.34 47.0002ZM1490.57 210.539L1523.34 154.548L1515.57 150.002L1482.8 205.993L1490.57 210.539ZM1517.13 156.131L1542.53 171.407L1547.17 163.695L1521.77 148.419L1517.13 156.131ZM1548.72 169.854L1580.22 116.968L1572.49 112.362L1540.98 165.248L1548.72 169.854ZM1574.39 118.713L1593.87 128.178L1597.8 120.083L1578.32 110.618L1574.39 118.713ZM1599.69 126.454L1625.28 84.0075L1617.57 79.3605L1591.98 121.807L1599.69 126.454Z" fill="url(#paint0_linear_4282_7721)"/>
</g>
</g>
<defs>
<linearGradient id="paint0_linear_4282_7721" x1="1639.5" y1="45.0538" x2="1486.73" y2="208.309" gradientUnits="userSpaceOnUse">
<stop stop-color="#4A8FF0"/>
<stop offset="1" stop-color="#91BFFF"/>
</linearGradient>
<clipPath id="clip0_4282_7721">
<rect width="1900" height="683" fill="white"/>
</clipPath>
</defs>
</svg>
