<svg width="630" height="386" viewBox="0 0 630 386" fill="none" xmlns="http://www.w3.org/2000/svg">
<path d="M361.182 324.499C361.182 298.71 361.182 275.266 361.182 275.266H291.141C291.141 275.266 291.141 298.71 291.141 324.499C291.141 343.255 256.121 356.736 256.121 356.736H396.203C396.203 356.736 361.182 343.255 361.182 324.499Z" fill="url(#paint0_linear_803_348)"/>
<path d="M396.203 356.734H256.121V364.353H396.203V356.734Z" fill="url(#paint1_linear_803_348)"/>
<path d="M493.679 286.401H158.649C151.627 286.401 145.934 280.708 145.934 273.685V45.3288C145.934 38.3061 151.627 32.613 158.649 32.613H493.679C500.702 32.613 506.395 38.3061 506.395 45.3288V273.686C506.395 280.708 500.702 286.401 493.679 286.401Z" fill="url(#paint2_linear_803_348)"/>
<path d="M497.579 45.3278V253.417C497.579 255.57 495.83 257.32 493.682 257.32H158.649C158.43 257.32 158.211 257.303 158.004 257.264C156.153 256.955 154.746 255.352 154.746 253.417V45.3278C154.746 43.1744 156.495 41.4248 158.649 41.4248H493.682C495.83 41.4248 497.579 43.1744 497.579 45.3278Z" fill="url(#paint3_linear_803_348)"/>
<path d="M345.476 276.255H306.856C304.429 276.255 302.46 274.287 302.46 271.859C302.46 269.432 304.429 267.463 306.856 267.463H345.476C347.903 267.463 349.872 269.432 349.872 271.859C349.871 274.288 347.903 276.255 345.476 276.255Z" stroke="white" stroke-width="1.5715" stroke-miterlimit="10"/>
<path d="M617.092 103.06C602.375 104.886 600.895 106.366 599.069 121.083C597.243 106.366 595.763 104.886 581.046 103.06C595.762 101.234 597.243 99.754 599.069 85.0369C600.895 99.754 602.375 101.234 617.092 103.06Z" fill="#43BBFF"/>
<path d="M59.2588 218.391C44.5422 220.217 43.0617 221.697 41.2358 236.414C39.4099 221.697 37.93 220.217 23.2129 218.391C37.9295 216.565 39.4099 215.085 41.2358 200.368C43.0617 215.085 44.5422 216.566 59.2588 218.391Z" fill="#8CACFF"/>
<path d="M585.562 44.5691C576.584 45.6829 575.681 46.5857 574.567 55.5638C573.454 46.5857 572.55 45.6829 563.573 44.5691C572.551 43.4554 573.454 42.5526 574.567 33.5745C575.681 42.552 576.584 43.4549 585.562 44.5691Z" fill="white"/>
<path d="M22.8463 180.731C13.8682 181.844 12.9653 182.747 11.8516 191.725C10.7379 182.747 9.83504 181.844 0.856934 180.731C9.83504 179.617 10.7379 178.714 11.8516 169.736C12.9653 178.714 13.8682 179.617 22.8463 180.731Z" fill="white"/>
<path d="M82.1815 148.3H24.0571C15.213 148.3 8.04346 141.131 8.04346 132.286V74.1626C8.04346 65.3185 15.213 58.1489 24.0571 58.1489H82.1815C91.0256 58.1489 98.1952 65.3185 98.1952 74.1626V132.287C98.1946 141.131 91.0256 148.3 82.1815 148.3Z" fill="#61A2FF"/>
<path d="M78.4208 96.3662C76.9532 96.7818 75.4862 97.1979 74.0186 97.6134C72.8702 97.9387 71.1788 98.7299 70.0292 98.1546C69.7444 98.0121 69.5565 97.5915 69.7421 97.2982C70.4549 96.1728 72.1871 95.9849 73.3878 95.6518C74.8576 95.2441 76.3279 94.8364 77.7977 94.4287C79.0539 94.0799 79.6865 96.0073 78.4208 96.3662Z" fill="white"/>
<path d="M70.9909 82.7438C65.553 89.1255 65.7689 89.0122 64.986 89.3156C64.3759 89.5522 63.7388 88.9253 63.8757 88.3163C64.0484 87.5441 63.9845 87.7504 69.4885 81.4209C70.3359 80.4474 71.8259 81.7641 70.9909 82.7438Z" fill="white"/>
<path d="M51.5589 83.4609C51.3548 81.9344 51.1512 80.4074 50.9471 78.8809C50.7654 77.5233 50.2865 75.9324 50.762 74.61C50.9712 74.0291 51.795 74.0997 52.0967 74.531C52.8823 75.6559 52.8044 77.4554 52.9749 78.7772C53.1717 80.3042 53.3691 81.8312 53.5659 83.3582C53.7319 84.6419 51.7294 84.7366 51.5589 83.4609Z" fill="white"/>
<path d="M34.8341 98.517C32.5158 98.3331 30.1594 98.1693 27.8714 97.7409C26.6399 97.5104 27.0571 95.7266 28.2617 95.8656C30.5839 96.1331 32.8904 96.4595 35.221 96.6586C36.4401 96.7629 36.0347 98.6123 34.8341 98.517Z" fill="white"/>
<path d="M39.813 88.9879C38.6365 88.2213 37.4852 87.4194 36.3406 86.6057C35.2959 85.8632 33.8199 85.1359 33.2653 83.9538C32.9709 83.3268 33.6932 82.7588 34.2596 82.8485C34.9695 82.9618 35.0772 83.2007 37.548 84.9755C38.6634 85.7769 39.7939 86.5558 40.9009 87.3684C41.7897 88.0217 40.7478 89.5969 39.813 88.9879Z" fill="white"/>
<path d="M67.437 103.709C67.437 107.344 66.0821 110.661 63.8502 113.186C62.1455 115.114 60.9459 117.415 60.3538 119.881C60.0706 121.05 59.9236 122.258 59.9236 123.481V128.994C59.9236 130.796 58.4628 132.256 56.6605 132.256H49.5772C47.7749 132.256 46.3146 130.795 46.3146 128.994V123.481C46.3146 122.26 46.1722 121.052 45.8912 119.881C45.308 117.429 44.1298 115.138 42.4295 113.23C40.0439 110.555 38.6482 106.977 38.8164 103.072C39.1338 95.7231 45.0938 89.7463 52.4428 89.407C60.6588 89.0285 67.437 95.5778 67.437 103.709Z" fill="white"/>
<path d="M57.0302 123.757L55.4718 123.717C55.4931 123.47 55.9765 116.479 56.9909 108.233C55.1 108.777 53.1698 109.024 51.2367 108.966C51.1022 115.666 50.39 124.755 50.3883 124.783L48.8304 124.739C48.8321 124.71 49.5527 115.566 49.6806 108.847C46.7023 108.429 46.0731 106.797 45.9413 106.091C45.7203 104.909 46.2834 103.646 47.2804 103.088C48.8344 102.218 51.0253 103.541 51.2261 107.335C53.2415 107.407 55.2514 107.119 57.2113 106.479C57.3829 105.086 57.4951 103.752 58.1893 102.701C58.9621 101.532 60.3051 101.077 61.3151 101.518C62.8926 102.206 63.4175 105.182 60.2911 106.932C59.7488 107.236 59.16 107.48 58.6267 107.683C57.5237 116.484 57.075 123.243 57.0302 123.757ZM58.8566 105.856C61.4531 104.724 61.1727 103.357 60.7476 103.06C59.3109 103.264 59.0972 103.942 58.8566 105.856ZM47.5003 105.239C47.212 106.417 48.5125 106.997 49.6497 107.193C49.4215 104.48 47.8698 103.729 47.5003 105.239Z" fill="#A1BBFF"/>
<path d="M60.3532 119.881C60.07 121.05 59.9231 122.258 59.9231 123.481V128.993C59.9231 130.796 58.4622 132.256 56.6599 132.256H49.5766C47.7743 132.256 46.314 130.795 46.314 128.993V123.481C46.314 122.26 46.1716 121.052 45.8906 119.881H60.3532Z" fill="#81A1C7"/>
<path d="M334.68 37.6394L333.683 37.2614L341.955 15.4392L366.54 23.2705L378.481 5.7124L379.363 6.31244L366.975 24.5283L342.595 16.7626L334.68 37.6394Z" fill="#43BBFF"/>
<path d="M340.737 38.0603C342.273 43.0518 339.471 48.3433 334.48 49.8793C329.488 51.4153 324.197 48.6136 322.661 43.6221C321.125 38.6306 323.927 33.339 328.918 31.8031C333.91 30.2676 339.201 33.0688 340.737 38.0603Z" fill="#43BBFF"/>
<path d="M372.852 22.9052C373.845 26.133 372.033 29.5544 368.805 30.5475C365.578 31.5407 362.156 29.7293 361.163 26.5015C360.17 23.2736 361.981 19.8523 365.209 18.8591C368.436 17.866 371.858 19.6779 372.852 22.9052Z" fill="#43BBFF"/>
<path d="M380.936 5.39362C381.277 6.50453 380.654 7.68217 379.543 8.02369C378.432 8.36576 377.255 7.74217 376.913 6.63126C376.571 5.52036 377.195 4.34272 378.305 4.0012C379.416 3.65913 380.594 4.28271 380.936 5.39362Z" fill="#43BBFF"/>
<path d="M347.115 14.6135C347.936 17.2834 346.438 20.1137 343.768 20.9352C341.098 21.7568 338.268 20.2583 337.446 17.5885C336.625 14.9186 338.123 12.0883 340.793 11.2668C343.463 10.4452 346.293 11.9436 347.115 14.6135Z" fill="#43BBFF"/>
<path d="M381.953 241.492L382.69 240.72L365.815 224.598L347.011 242.265L328.666 231.573L328.129 232.494L347.161 243.588L365.809 226.068L381.953 241.492Z" fill="#196FE8"/>
<path d="M376.672 244.484C377.438 249.65 382.247 253.216 387.413 252.449C392.579 251.683 396.146 246.874 395.379 241.708C394.612 236.542 389.803 232.976 384.637 233.742C379.472 234.509 375.905 239.318 376.672 244.484Z" fill="#196FE8"/>
<path d="M341.163 244.658C341.658 247.998 344.769 250.304 348.109 249.809C351.45 249.313 353.756 246.203 353.26 242.862C352.764 239.522 349.654 237.216 346.314 237.711C342.973 238.207 340.667 241.317 341.163 244.658Z" fill="#196FE8"/>
<path d="M326.318 232.344C326.489 233.493 327.559 234.287 328.709 234.116C329.859 233.946 330.653 232.875 330.482 231.726C330.311 230.576 329.241 229.783 328.091 229.953C326.941 230.124 326.148 231.194 326.318 232.344Z" fill="#196FE8"/>
<path d="M360.812 226.079C361.222 228.842 363.794 230.749 366.558 230.339C369.321 229.929 371.228 227.357 370.818 224.594C370.408 221.831 367.836 219.923 365.073 220.333C362.31 220.743 360.402 223.316 360.812 226.079Z" fill="#196FE8"/>
<path d="M280.978 161.718H146.124C137.62 161.718 130.726 154.824 130.726 146.319V15.9629C130.726 7.4587 137.62 0.564453 146.124 0.564453H280.978C289.482 0.564453 296.376 7.4587 296.376 15.9629V146.32C296.376 154.824 289.482 161.718 280.978 161.718Z" fill="#206BD6"/>
<path d="M274.266 32.7962H152.839C150.355 32.7962 148.341 30.783 148.341 28.2987C148.341 25.815 150.355 23.8013 152.839 23.8013H274.266C276.75 23.8013 278.763 25.815 278.763 28.2987C278.763 30.7824 276.75 32.7962 274.266 32.7962Z" fill="white"/>
<path d="M274.266 50.7852H152.839C150.355 50.7852 148.341 48.7715 148.341 46.2878C148.341 43.8041 150.355 41.7903 152.839 41.7903H274.266C276.75 41.7903 278.763 43.8041 278.763 46.2878C278.763 48.7715 276.75 50.7852 274.266 50.7852Z" fill="white"/>
<path d="M160.709 136.985H148.341V103.442C148.341 100.027 151.11 97.2583 154.525 97.2583C157.94 97.2583 160.709 100.027 160.709 103.442V136.985Z" fill="white"/>
<path opacity="0.8" d="M190.221 136.982H177.854V92.1698C177.854 88.7547 180.622 85.9861 184.037 85.9861C187.452 85.9861 190.221 88.7547 190.221 92.1698V136.982Z" fill="#6CA8FF"/>
<path d="M219.733 136.981H207.365V114.708C207.365 111.293 210.134 108.524 213.549 108.524C216.964 108.524 219.733 111.293 219.733 114.708V136.981Z" fill="white"/>
<path d="M249.247 136.982H236.879V92.1698C236.879 88.7547 239.648 85.9861 243.063 85.9861C246.478 85.9861 249.247 88.7547 249.247 92.1698V136.982Z" fill="white"/>
<path opacity="0.8" d="M278.761 136.982H266.394V75.2646C266.394 71.8494 269.162 69.0808 272.577 69.0808C275.992 69.0808 278.761 71.8494 278.761 75.2646V136.982Z" fill="#6CA8FF"/>
<path d="M296.643 211.411H193.789C191.915 211.411 190.397 209.892 190.397 208.019C190.397 206.146 191.915 204.628 193.789 204.628H296.643C298.516 204.628 300.034 206.146 300.034 208.019C300.034 209.892 298.516 211.411 296.643 211.411Z" fill="white"/>
<path d="M296.844 227.661H238.851C236.978 227.661 235.46 226.143 235.46 224.27C235.46 222.397 236.978 220.879 238.851 220.879H296.844C298.717 220.879 300.235 222.397 300.235 224.27C300.235 226.143 298.717 227.661 296.844 227.661Z" fill="white"/>
<path d="M18.285 22.3345C9.70954 22.3345 9.69552 35.662 18.285 35.662C26.8605 35.662 26.8745 22.3345 18.285 22.3345Z" fill="#8CACFF"/>
<path d="M103.887 7.81104C99.7259 7.81104 99.7192 14.2774 103.887 14.2774C108.048 14.278 108.055 7.81104 103.887 7.81104Z" fill="white"/>
<path d="M608.238 356.086C608.032 355.351 607.661 354.713 607.123 354.173C606.886 353.954 606.648 353.735 606.412 353.516C605.581 352.75 604.521 352.257 603.373 352.257C602.781 352.235 602.23 352.358 601.717 352.628C601.184 352.801 600.723 353.097 600.333 353.516C599.581 354.336 599.023 355.411 599.075 356.555C599.126 356.936 599.177 357.317 599.228 357.698C599.432 358.425 599.801 359.058 600.333 359.594C600.552 359.831 600.771 360.069 600.99 360.305C601.382 360.728 601.848 361.027 602.385 361.202C602.902 361.473 603.459 361.598 604.057 361.575C604.654 361.598 605.211 361.473 605.727 361.202C606.265 361.027 606.73 360.728 607.123 360.305C607.882 359.479 608.445 358.394 608.393 357.239C608.341 356.855 608.29 356.471 608.238 356.086Z" fill="white"/>
<path d="M313.379 378.925C308.914 378.925 308.906 385.865 313.379 385.865C317.845 385.865 317.852 378.925 313.379 378.925Z" fill="white"/>
<path d="M314.774 126.716C310.308 126.716 310.301 133.656 314.774 133.656C319.239 133.656 319.247 126.716 314.774 126.716Z" fill="white"/>
<path d="M624.326 154.025C617.274 154.025 617.263 164.984 624.326 164.984C631.377 164.984 631.389 154.025 624.326 154.025Z" fill="#8CACFF"/>
<path d="M121.715 337.661C121.61 337.562 121.504 337.462 121.4 337.361C119.121 335.2 115.62 335.191 113.333 337.361C113.227 337.461 113.122 337.561 113.016 337.661C109.092 341.384 112.139 348.162 117.366 348.162C122.587 348.162 125.63 341.376 121.715 337.661Z" fill="white"/>
<path d="M559.215 103.573H531.581C528.059 103.573 525.204 106.429 525.204 109.95V133.098C525.204 136.621 528.06 139.476 531.581 139.476H536.276C536.955 139.476 537.606 139.745 538.086 140.226L542.802 144.942C544.208 146.348 546.489 146.348 547.896 144.942L552.611 140.226C553.092 139.745 555.986 139.476 556.665 139.476H559.215C562.738 139.476 565.593 136.62 565.593 133.098V109.95C565.593 106.429 562.738 103.573 559.215 103.573Z" fill="#2392FF"/>
<path d="M558.671 113.754C557.9 112.983 556.65 112.983 555.879 113.754L544.214 125.42L537.158 118.364C536.386 117.593 535.136 117.593 534.365 118.364C533.594 119.135 533.594 120.385 534.365 121.156L542.8 129.59C542.802 129.593 542.806 129.595 542.81 129.598C542.812 129.602 542.815 129.605 542.818 129.608C543.589 130.38 544.839 130.38 545.61 129.608L558.672 116.547C559.442 115.775 559.442 114.525 558.671 113.754Z" fill="white"/>
<path d="M484.253 111.312H436.857C432.821 111.312 429.548 108.039 429.548 104.002V75.0431C429.548 71.0066 432.82 67.7339 436.857 67.7339H484.253C488.29 67.7339 491.562 71.0061 491.562 75.0431V104.002C491.562 108.039 488.29 111.312 484.253 111.312Z" fill="url(#paint4_linear_803_348)"/>
<path d="M469.266 190.926H339.97C336.218 190.926 333.175 187.884 333.175 184.131V87.9377C333.175 84.1855 336.217 81.1433 339.97 81.1433H469.266C473.018 81.1433 476.06 84.185 476.06 87.9377V184.131C476.06 187.884 473.018 190.926 469.266 190.926Z" fill="white"/>
<path d="M115.65 371.15H26.8282C19.6586 371.15 13.8467 365.338 13.8467 358.168V285.294C13.8467 278.124 19.6586 272.312 26.8282 272.312H115.65C122.819 272.312 128.631 278.124 128.631 285.294V358.168C128.631 365.338 122.819 371.15 115.65 371.15Z" fill="#2B65B8"/>
<path d="M128.682 284.978V357.853C128.682 365.023 122.868 370.831 115.697 370.831H102C109.17 370.831 114.985 365.024 114.985 357.853V284.978C114.985 277.808 109.171 272 102 272H115.697C122.868 272.001 128.682 277.808 128.682 284.978Z" fill="url(#paint5_linear_803_348)"/>
<path d="M536.073 5.65918H447.052C444.043 5.65918 441.603 8.09914 441.603 11.1089V31.0923V44.2146C441.603 45.6777 443.333 46.4521 444.424 45.478L452.952 37.8654C453.262 37.5884 453.664 37.4353 454.08 37.4353H536.073C539.083 37.4353 541.523 34.9953 541.523 31.9856V11.1083C541.523 8.09858 539.083 5.65918 536.073 5.65918Z" fill="#2B65B8"/>
<path d="M529.211 18.6594H456.879C455.596 18.6594 454.557 17.6197 454.557 16.3367C454.557 15.0536 455.596 14.0139 456.879 14.0139H529.211C530.494 14.0139 531.534 15.0536 531.534 16.3367C531.534 17.6197 530.494 18.6594 529.211 18.6594Z" fill="white"/>
<path d="M529.211 29.2312H456.879C455.596 29.2312 454.557 28.191 454.557 26.9085C454.557 25.6254 455.596 24.5857 456.879 24.5857H529.211C530.494 24.5857 531.534 25.6259 531.534 26.9085C531.534 28.191 530.494 29.2312 529.211 29.2312Z" fill="white"/>
<path d="M100.269 371.351H308.626C318.311 371.351 326.163 363.5 326.163 353.815V352.405C326.163 342.72 318.312 334.869 308.626 334.869H100.269C90.5839 334.869 82.7324 342.72 82.7324 352.405V353.815C82.7324 363.5 90.5839 371.351 100.269 371.351Z" fill="url(#paint6_linear_803_348)"/>
<path d="M139.925 366.393H303.354C310.464 366.393 316.229 360.629 316.229 353.518C316.229 346.408 310.465 340.644 303.354 340.644H139.925C132.815 340.644 127.05 346.408 127.05 353.518C127.05 360.629 132.815 366.393 139.925 366.393Z" fill="white"/>
<path d="M95.7808 365.156L100.328 360.609C102.074 361.928 104.24 362.721 106.593 362.721C112.34 362.721 117.015 358.045 117.015 352.299C117.015 346.552 112.34 341.876 106.593 341.876C100.846 341.876 96.17 346.552 96.17 352.299C96.17 354.843 97.0891 357.175 98.6094 358.986L94.1108 363.485L95.7808 365.156ZM106.593 360.359C102.148 360.359 98.5326 356.743 98.5326 352.299C98.5326 347.855 102.149 344.239 106.593 344.239C111.036 344.239 114.652 347.855 114.652 352.299C114.652 356.743 111.036 360.359 106.593 360.359Z" fill="white"/>
<path d="M252.077 304.345H256.596C255.857 303.691 254.932 303.3 253.926 303.3H140.706C134.782 303.3 129.98 308.802 129.98 315.588V323.393C129.98 330.18 134.782 335.682 140.706 335.682L252.66 335.638L252.077 304.345Z" fill="url(#paint7_linear_803_348)"/>
<path d="M187.801 303.327C182.136 303.327 177.543 308.588 177.543 315.078V323.898C177.543 330.388 182.136 335.65 187.801 335.65H258.283V333.677H257.991L240.073 331.733L236.452 315.455C236.452 315.455 243.442 306.46 243.897 306.228C244.353 305.996 257.991 305.292 257.991 305.292L258.283 305.288V303.326L187.801 303.327Z" fill="#52A1FF"/>
<path d="M253.71 319.433C253.71 309.916 258.003 305.303 258.003 305.303H189.242C184.039 305.303 179.821 310.135 179.821 316.097V322.886C179.821 328.847 184.039 333.68 189.242 333.68H258.003C258.003 333.68 253.71 331.417 253.71 319.433Z" fill="#F4F4F4"/>
<path d="M179.825 316.095V322.885C179.825 323.777 179.921 324.644 180.1 325.473C182.419 318.973 186.864 312.712 195.325 310.698C215.079 305.998 258.007 305.302 258.007 305.302H189.246C184.043 305.302 179.825 310.134 179.825 316.095Z" fill="#DAEEF7"/>
<path d="M125.226 278.464H120.705C121.444 277.945 122.37 277.635 123.376 277.635H236.641C242.566 277.635 247.371 282.001 247.371 287.385V293.579C247.371 298.964 242.567 303.329 236.641 303.329L124.643 303.294L125.226 278.464Z" fill="#2B65B8"/>
<path d="M189.527 277.659C195.195 277.659 199.789 281.833 199.789 286.983V293.982C199.789 299.132 195.195 303.306 189.527 303.306H119.017V301.741H119.308L137.234 300.198L140.857 287.282C140.857 287.282 133.864 280.145 133.408 279.961C132.952 279.777 119.308 279.218 119.308 279.218L119.017 279.216V277.659H189.527Z" fill="#2368B9"/>
<path d="M123.588 290.435C123.588 282.883 119.294 279.222 119.294 279.222H188.081C193.286 279.222 197.506 283.057 197.506 287.787V293.175C197.506 297.905 193.287 301.739 188.081 301.739H119.294C119.294 301.739 123.588 299.943 123.588 290.435Z" fill="#F4F4F4"/>
<path d="M197.506 287.788V293.175C197.506 293.883 197.409 294.571 197.231 295.229C194.911 290.071 190.464 285.103 182 283.506C162.238 279.776 119.293 279.223 119.293 279.223H188.081C193.286 279.223 197.506 283.058 197.506 287.788Z" fill="#DAEEF7"/>
<path d="M234.079 252.902H237.65C237.066 252.385 236.335 252.076 235.54 252.076H146.094C141.414 252.076 137.621 256.423 137.621 261.784V267.95C137.621 273.312 141.414 277.658 146.094 277.658L234.54 277.623L234.079 252.902Z" fill="url(#paint8_linear_803_348)"/>
<path d="M183.297 252.098C178.822 252.098 175.194 256.255 175.194 261.382V268.351C175.194 273.478 178.822 277.635 183.297 277.635H238.979V276.076H238.749L224.594 274.54L221.733 261.68C221.733 261.68 227.255 254.574 227.615 254.391C227.975 254.207 238.749 253.652 238.749 253.652L238.979 253.649V252.099H183.297V252.098Z" fill="#009DFF"/>
<path d="M235.371 264.823C235.371 257.304 238.763 253.66 238.763 253.66H184.441C180.33 253.66 176.998 257.477 176.998 262.187V267.551C176.998 272.26 180.33 276.078 184.441 276.078H238.763C238.763 276.078 235.371 274.29 235.371 264.823Z" fill="#F4F4F4"/>
<path d="M176.996 262.185V267.549C176.996 268.254 177.072 268.939 177.213 269.595C179.045 264.459 182.557 259.512 189.241 257.922C204.847 254.208 238.761 253.658 238.761 253.658H184.439C180.328 253.658 176.996 257.476 176.996 262.185Z" fill="#DAEEF7"/>
<path d="M435.878 268.414C431.692 263.589 425.71 257.115 424.816 256.201C423.346 254.699 422.049 256.281 423.229 258.007C424.553 259.944 430.194 268.415 430.194 268.415H435.878V268.414Z" fill="#FFC6B3"/>
<path d="M442.728 279.705C441.791 277.326 441.567 274.57 435.878 268.416C431.293 263.456 423.134 273.68 423.345 276.655C423.556 279.629 430.222 284.811 432.165 286.338C433.507 287.392 443.921 282.737 442.728 279.705Z" fill="#FFC6B3"/>
<path d="M435.858 280.862C434.88 278.78 431.098 274.499 430.291 273.657C428.757 272.059 429.701 270.233 432.031 271.794C434.574 273.499 438.333 271.842 439.382 273.27C440.291 274.507 443.35 279.529 442.615 282.66C441.925 285.596 437.761 284.914 435.858 280.862Z" fill="#FFC6B3"/>
<path d="M429.718 290.428C431.695 296.747 459.129 339.599 475.838 347.308C477.026 347.855 478.156 348.224 479.217 348.392C484.723 349.262 490.772 343.381 496.555 334.669C507.66 317.925 517.768 290.71 521.106 280.695C526.185 265.461 516.453 230.347 498.682 249.807C483.489 266.447 474.754 308.584 473.065 310.7C471.37 312.81 447.562 281.08 445.025 279.385C442.483 277.696 427.601 283.658 429.718 290.428Z" fill="white"/>
<path d="M475.837 347.309C477.025 347.856 478.155 348.225 479.216 348.393C484.722 349.263 490.771 343.382 496.554 334.67L490.54 281.428C485.783 297.67 476.985 331.758 475.837 347.309Z" fill="url(#paint9_linear_803_348)"/>
<path d="M486.775 363.037C486.196 379.517 582.65 377.597 584.662 363.037C586.674 348.477 597.802 265.005 581.185 253.191C562.147 239.653 508.501 234.77 498.682 249.807C487.109 267.531 487.354 356.565 486.775 363.037Z" fill="url(#paint10_linear_803_348)"/>
<path d="M571.389 278.979C571.389 278.979 574.8 312.713 579.134 324.013C581.283 329.614 542.684 329.351 542.684 329.351L565.971 346.447H606.917L590.579 304.261L571.389 278.979Z" fill="url(#paint11_linear_803_348)"/>
<path d="M539.942 331.745C534.542 330.362 527.535 325.866 523.672 328.166C519.81 330.467 517.83 336.091 519.842 340.437C521.855 344.784 535.099 342.483 537.681 340.437C540.261 338.392 539.942 331.745 539.942 331.745Z" fill="#FFC6B3"/>
<path d="M580.727 253.19C605.456 268.762 630.616 336.474 622.615 350.929C611.841 370.392 538.841 347.582 535.033 345.466C531.225 343.351 533.34 327.082 542.225 328.775C551.11 330.467 585.381 335.33 587.92 333.398C590.459 331.467 546.456 231.609 580.727 253.19Z" fill="white"/>
<path d="M546.001 242.98C547.734 250.886 542.667 256.222 533.42 255.471C521.561 254.508 526.415 242.205 526.415 242.205L540.424 244.076L546.001 242.98Z" fill="white"/>
<path d="M546.13 244.077C547.008 251.938 526.048 253.564 526.252 245.931C526.303 243.793 526.366 241.312 526.417 238.831C526.532 232.444 526.608 226.12 526.608 226.12L531.265 221.884L536.99 218.894L544.408 215.039C543.734 227.596 545.385 237.413 546.13 244.077Z" fill="#FFC6B3"/>
<path d="M540.423 219.287C540.423 219.287 536.874 238.728 526.415 238.829C526.529 232.442 526.606 226.119 526.606 226.119L531.262 221.882L536.988 218.892L540.423 219.287Z" fill="#FF9673"/>
<path d="M543.646 219.13C547.083 218.729 550.129 217.985 553.566 217.584C555.376 209.66 561.253 203.166 562.306 194.207C563.073 187.688 560.502 183.979 557.577 183.726C554.185 169.899 539.042 164.982 525.881 169.952C520.804 171.765 515.891 169.545 512.66 165.284C512.444 164.999 512.05 164.895 511.739 165.072C509.409 166.398 509.293 170.388 510.565 172.905C509.389 172.978 508.057 172.265 507.113 171.245C506.731 170.832 506.059 170.975 505.892 171.513C505.095 174.07 506.576 177.045 508.34 179.082C505.876 178.92 504.34 178.336 503.431 176.354C503.173 175.79 502.362 175.754 502.12 176.325C499.763 181.892 505.997 196.907 513.607 201.643C517.423 204.019 519.156 208.973 522.977 211.34C526.798 213.708 532.038 214.374 535.68 211.741C538.1 214.301 541.226 216.57 543.646 219.13Z" fill="url(#paint12_linear_803_348)"/>
<path d="M515.043 187.819C509.401 198.537 506.581 228.857 522.449 230.831C538.842 232.871 547.762 217.01 550.019 208.689C552.275 200.368 540.992 183.727 540.992 183.727L515.043 187.819Z" fill="#FFC6B3"/>
<path d="M513.369 180.157C511.857 182.611 511.691 185.622 512.924 188.184C514.157 190.745 516.768 192.812 519.885 193.694C521.805 194.237 523.516 194.454 525.531 194.626C528.309 194.863 531.13 195.109 533.715 195.994C538.034 197.474 540.406 200.533 541.683 204.173C543.254 208.652 542.758 211.952 547.785 214.841C552.118 210.374 555.506 205.097 555.803 199.34C556.098 193.583 554.126 187.761 550.267 182.997C546.725 178.624 540.776 177.431 534.777 175.826C528.779 174.221 516.261 175.458 513.369 180.157Z" fill="url(#paint13_linear_803_348)"/>
<path d="M545.859 213.13C548.538 209.745 557.494 210.591 555.802 217.361C554.109 224.131 544.167 222.861 542.897 219.053L545.859 213.13Z" fill="#FFC6B3"/>
<path d="M533.655 216.224C533.484 217.867 531.689 219.026 529.647 218.814C527.604 218.601 526.087 217.096 526.258 215.453C526.43 213.81 528.224 212.65 530.267 212.863C532.31 213.076 533.827 214.581 533.655 216.224Z" fill="#FF9673"/>
<path d="M532.237 213.056C532.062 213.056 531.914 212.923 531.897 212.745C531.759 211.212 531.218 210.439 530.089 210.16C529.003 209.889 527.903 210.399 527.277 211.451C527.181 211.613 526.972 211.665 526.81 211.57C526.648 211.473 526.595 211.264 526.691 211.101C527.474 209.784 528.873 209.154 530.253 209.497C531.674 209.849 532.413 210.862 532.577 212.684C532.594 212.872 532.455 213.037 532.268 213.054C532.258 213.055 532.247 213.056 532.237 213.056Z" fill="url(#paint14_linear_803_348)"/>
<path d="M519.43 210.559C519.254 210.559 519.106 210.426 519.09 210.248C518.952 208.716 518.411 207.942 517.282 207.662C516.197 207.392 515.096 207.901 514.471 208.953C514.376 209.115 514.164 209.168 514.003 209.072C513.842 208.976 513.789 208.767 513.885 208.604C514.667 207.288 516.062 206.658 517.445 207C518.866 207.352 519.606 208.365 519.77 210.187C519.787 210.375 519.648 210.54 519.46 210.557C519.451 210.558 519.44 210.559 519.43 210.559Z" fill="url(#paint15_linear_803_348)"/>
<path d="M523.141 212.054C523.012 212.05 522.848 212.144 522.842 212.29C522.837 212.396 522.826 212.5 522.808 212.604C522.797 212.662 522.785 212.719 522.77 212.776C522.763 212.802 522.756 212.827 522.749 212.853C522.746 212.863 522.746 212.864 522.745 212.868C522.745 212.87 522.745 212.868 522.744 212.872C522.707 212.971 522.67 213.069 522.623 213.164C522.598 213.217 522.57 213.269 522.541 213.32C522.53 213.338 522.519 213.357 522.509 213.375C522.505 213.382 522.507 213.379 522.504 213.384C522.501 213.388 522.503 213.385 522.498 213.392C522.421 213.501 522.345 213.61 522.27 213.721C522.299 213.677 522.302 213.671 522.27 213.718C522.255 213.74 522.24 213.762 522.224 213.784C522.193 213.827 522.16 213.869 522.127 213.91C522.039 214.017 521.952 214.106 521.893 214.235C521.858 214.313 521.809 214.406 521.769 214.468C521.718 214.546 521.697 214.632 521.745 214.719C521.787 214.796 521.873 214.85 521.964 214.839C522.093 214.824 522.22 214.796 522.346 214.764C522.519 214.718 522.629 214.617 522.756 214.497C522.953 214.309 523.112 214.102 523.216 213.849C523.416 213.366 523.498 212.833 523.418 212.315C523.396 212.173 523.291 212.057 523.141 212.054Z" fill="#FF4F4F"/>
<path d="M527.347 223.365C526.498 224.408 524.978 225.195 522.685 225.03C522.278 225.002 521.905 224.933 521.567 224.83C517.962 223.752 518.266 218.974 519.592 218.532C519.764 218.47 519.958 218.49 520.165 218.601C522.147 219.692 524.826 219.754 526.448 219.408C526.828 219.325 527.153 219.367 527.408 219.491C528.465 220.002 528.548 221.922 527.347 223.365Z" fill="#F20000"/>
<path d="M527.346 223.366C526.497 224.409 524.978 225.196 522.685 225.031C522.277 225.003 521.905 224.934 521.566 224.831C521.56 224.762 521.559 224.693 521.559 224.616C521.559 223.049 522.926 221.778 524.611 221.778C525.814 221.778 526.856 222.427 527.346 223.366Z" fill="#FF4F4F"/>
<path d="M526.746 220.521C525.024 220.98 521.035 220.658 519.896 219.84C519.357 219.454 519.26 219.015 519.591 218.532C519.764 218.47 519.957 218.49 520.164 218.601C522.146 219.692 524.826 219.754 526.448 219.408C526.828 219.325 527.152 219.367 527.408 219.491C527.546 220.051 527.231 220.392 526.746 220.521Z" fill="white"/>
<path d="M532.087 207.391C531.787 207.147 531.34 207.014 530.965 206.936C530.576 206.854 530.171 206.826 529.775 206.814C528.95 206.789 528.125 206.949 527.345 207.214C527.284 207.236 527.305 207.343 527.372 207.329C528.158 207.167 528.959 207.138 529.758 207.198C530.14 207.227 530.513 207.293 530.887 207.369C531.257 207.443 531.657 207.555 532.034 207.562C532.12 207.564 532.148 207.44 532.087 207.391Z" fill="url(#paint16_linear_803_348)"/>
<path d="M521.173 205.717C520.784 205.068 520.059 204.673 519.372 204.405C518.66 204.126 517.927 204.006 517.162 204.026C517.066 204.029 517.058 204.186 517.155 204.197C517.867 204.279 518.579 204.482 519.232 204.776C519.883 205.07 520.446 205.51 521.08 205.829C521.152 205.865 521.21 205.778 521.173 205.717Z" fill="url(#paint17_linear_803_348)"/>
<path d="M519.988 214.385C519.819 216.001 518.055 217.141 516.046 216.932C514.037 216.722 512.545 215.243 512.714 213.627C512.882 212.012 514.647 210.871 516.656 211.081C518.665 211.29 520.156 212.77 519.988 214.385Z" fill="#FF9673"/>
<path d="M551.351 217.44C551.135 216.927 550.687 216.537 550.15 216.39C549.871 216.314 549.566 216.317 549.282 216.363C549.245 216.37 549.205 216.378 549.166 216.386C549.303 216.181 549.449 215.983 549.605 215.796C550.14 215.158 550.793 214.664 551.446 214.156C551.466 214.14 551.472 214.118 551.472 214.096C551.535 214.069 551.594 214.032 551.66 214.009C551.727 213.985 551.711 213.874 551.635 213.882C550.606 213.986 549.825 214.596 549.126 215.32C548.377 216.095 547.504 217.044 547.247 218.122C547.215 218.261 547.205 218.4 547.209 218.538C547.183 219.006 547.326 219.481 547.642 219.832C547.805 220.012 548.021 220.164 548.246 220.256C548.39 220.315 548.499 220.327 548.645 220.355C548.746 220.374 548.794 220.402 548.914 220.395C549.001 220.39 549.078 220.362 549.153 220.328C549.389 220.291 549.612 220.223 549.808 220.093C550.297 219.873 550.813 219.579 551.13 219.139C551.477 218.655 551.584 217.996 551.351 217.44Z" fill="#FF9673"/>
<path d="M583.755 369.589H515.339C513.788 369.589 512.53 370.847 512.53 372.398C512.53 373.949 513.788 375.206 515.339 375.206H583.755C585.306 375.206 586.563 373.948 586.563 372.398C586.563 370.847 585.306 369.589 583.755 369.589Z" fill="url(#paint18_linear_803_348)"/>
<path d="M534.69 375.206H433.394C431.024 375.206 428.964 373.577 428.416 371.271L412.421 303.898C411.658 300.683 414.096 297.599 417.4 297.599H518.696C521.067 297.599 523.127 299.228 523.675 301.534L539.67 368.907C540.432 372.121 537.995 375.206 534.69 375.206Z" fill="white"/>
<path d="M534.689 375.206H528.715C532.018 375.206 534.458 372.126 533.691 368.908L517.697 301.536C517.15 299.231 515.093 297.601 512.721 297.601H518.695C521.067 297.601 523.124 299.231 523.671 301.536L539.665 368.908C540.432 372.126 537.992 375.206 534.689 375.206Z" fill="url(#paint19_linear_803_348)"/>
<path d="M478.952 336.404C479.626 340.352 476.972 343.553 473.025 343.553C469.077 343.553 465.331 340.352 464.656 336.404C463.982 332.456 466.635 329.257 470.583 329.257C474.531 329.256 478.277 332.456 478.952 336.404Z" fill="url(#paint20_linear_803_348)"/>
<path d="M465.729 103.076L459.767 101.406C455.274 100.139 451.789 96.5675 450.666 92.0459L449.14 86.0266C447.239 78.5097 439.232 74.3049 431.975 77.0121L426.157 79.2009C421.779 80.8425 416.854 79.9785 413.283 76.9833L408.56 73.0377C402.598 68.0552 393.641 69.3512 389.35 75.8313L385.952 80.9577C383.36 84.8458 378.896 87.0634 374.23 86.7466L368.067 86.3146C360.319 85.7962 353.839 92.1035 354.185 99.8507L354.444 106.014C354.646 110.68 352.313 115.115 348.367 117.592L343.097 120.875C336.53 124.993 335.004 133.893 339.814 139.97L343.644 144.837C346.553 148.494 347.244 153.419 345.516 157.768L343.212 163.528C340.332 170.728 344.335 178.821 351.794 180.895L357.756 182.565C362.249 183.832 365.734 187.404 366.857 191.925L368.383 197.945C370.284 205.461 378.291 209.666 385.548 206.959L391.337 204.799C395.715 203.157 400.64 204.021 404.211 207.017L408.934 210.962C414.896 215.945 423.853 214.649 428.144 208.169L431.543 203.042C434.135 199.154 438.599 196.937 443.264 197.253L449.428 197.685C457.175 198.204 463.655 191.897 463.309 184.149L463.05 177.986C462.848 173.32 465.181 168.885 469.127 166.408L474.369 163.125C480.935 159.007 482.462 150.107 477.652 144.03L473.821 139.163C470.913 135.506 470.221 130.581 471.949 126.232L474.253 120.472C477.191 113.272 473.188 105.179 465.729 103.076ZM383.734 145.269L373.856 150.136L376.534 155.579L384.828 151.49L386.816 155.551L378.521 159.64L383.014 168.77L377.744 171.362L366.569 148.696L381.718 141.208L383.734 145.269ZM414.234 153.391L408.79 156.069C408.214 155.954 407.667 155.522 407.149 154.773C406.63 154.024 406.198 153.304 405.824 152.584L405.161 151.202C404.643 150.136 403.923 149.445 403.088 149.157C402.224 148.869 401.245 148.984 400.15 149.531L397.328 150.914L401.619 159.611L396.349 162.203L385.174 139.538L393.065 135.65C395.686 134.354 398.077 133.922 400.208 134.382C402.339 134.843 403.923 136.11 404.96 138.242C405.536 139.422 405.737 140.574 405.536 141.726C405.334 142.878 404.758 144.002 403.808 145.125C405.392 144.837 406.717 145.01 407.782 145.614C408.848 146.248 409.712 147.227 410.374 148.61L411.094 150.05C411.382 150.654 411.814 151.259 412.362 151.951C412.909 152.613 413.485 153.016 414.09 153.131L414.234 153.391ZM423.162 125.829L413.571 130.552L415.99 135.419L423.968 131.473L425.955 135.534L417.978 139.48L420.771 145.125L430.362 140.402L432.349 144.462L417.488 151.778L406.313 129.112L421.174 121.768L423.162 125.829ZM441.767 116.641L432.176 121.365L434.595 126.232L442.573 122.286L444.56 126.347L436.583 130.293L439.376 135.938L448.967 131.214L450.954 135.275L436.122 142.59L424.947 119.925L439.808 112.58L441.767 116.641Z" fill="#206BD6"/>
<defs>
<linearGradient id="paint0_linear_803_348" x1="317.636" y1="297.904" x2="335.219" y2="419.23" gradientUnits="userSpaceOnUse">
<stop stop-color="#00123D"/>
<stop offset="0.0261" stop-color="#00133D"/>
<stop offset="1" stop-color="#002C3D"/>
</linearGradient>
<linearGradient id="paint1_linear_803_348" x1="317.095" y1="297.981" x2="334.678" y2="419.306" gradientUnits="userSpaceOnUse">
<stop stop-color="#00123D"/>
<stop offset="0.0261" stop-color="#00133D"/>
<stop offset="1" stop-color="#002C3D"/>
</linearGradient>
<linearGradient id="paint2_linear_803_348" x1="326.164" y1="44.3353" x2="326.164" y2="484.543" gradientUnits="userSpaceOnUse">
<stop stop-color="#00123D"/>
<stop offset="0.0261" stop-color="#00133D"/>
<stop offset="1" stop-color="#002C3D"/>
</linearGradient>
<linearGradient id="paint3_linear_803_348" x1="326.163" y1="-68.2004" x2="326.163" y2="316.885" gradientUnits="userSpaceOnUse">
<stop stop-color="#3461A1"/>
<stop offset="0.476666" stop-color="#B9CDFF"/>
<stop offset="1" stop-color="#D2E9FF"/>
</linearGradient>
<linearGradient id="paint4_linear_803_348" x1="461.888" y1="56.8676" x2="459.374" y2="118.463" gradientUnits="userSpaceOnUse">
<stop stop-color="white"/>
<stop offset="0.6037" stop-color="#A6CAFF"/>
<stop offset="1" stop-color="#BFD5FF"/>
</linearGradient>
<linearGradient id="paint5_linear_803_348" x1="113.73" y1="348.523" x2="119.195" y2="235.108" gradientUnits="userSpaceOnUse">
<stop stop-color="#2B65B8"/>
<stop offset="1" stop-color="white"/>
</linearGradient>
<linearGradient id="paint6_linear_803_348" x1="204.448" y1="315.808" x2="204.448" y2="384.195" gradientUnits="userSpaceOnUse">
<stop stop-color="#2765FF"/>
<stop offset="0.0734" stop-color="#286DFF"/>
<stop offset="0.703" stop-color="#32AEFF"/>
<stop offset="1" stop-color="#36C7FF"/>
</linearGradient>
<linearGradient id="paint7_linear_803_348" x1="193.289" y1="306.508" x2="193.289" y2="340.393" gradientUnits="userSpaceOnUse">
<stop stop-color="#3461A1"/>
<stop offset="0.556666" stop-color="#286DFF"/>
<stop offset="0.846666" stop-color="#32AEFF"/>
</linearGradient>
<linearGradient id="paint8_linear_803_348" x1="187.11" y1="285.106" x2="187.73" y2="252.233" gradientUnits="userSpaceOnUse">
<stop stop-color="#3461A1"/>
<stop offset="0.656666" stop-color="#0075FF"/>
<stop offset="1" stop-color="#00B3FF"/>
</linearGradient>
<linearGradient id="paint9_linear_803_348" x1="486.196" y1="337.245" x2="486.196" y2="288.927" gradientUnits="userSpaceOnUse">
<stop offset="0.00022856" stop-color="white"/>
<stop offset="0.6808" stop-color="#4F9BF4"/>
<stop offset="1" stop-color="#A4CDE2" stop-opacity="0.42"/>
</linearGradient>
<linearGradient id="paint10_linear_803_348" x1="540.598" y1="382.976" x2="534.463" y2="220.382" gradientUnits="userSpaceOnUse">
<stop stop-color="#2B65B8"/>
<stop offset="0.5" stop-color="#2E91FF"/>
<stop offset="1" stop-color="#286FFF"/>
</linearGradient>
<linearGradient id="paint11_linear_803_348" x1="574.8" y1="337.243" x2="574.8" y2="288.925" gradientUnits="userSpaceOnUse">
<stop offset="0.00022856" stop-color="white"/>
<stop offset="0.6808" stop-color="#4F9BF4"/>
<stop offset="1" stop-color="#4F9BF4"/>
</linearGradient>
<linearGradient id="paint12_linear_803_348" x1="533.555" y1="177.709" x2="525.183" y2="223.463" gradientUnits="userSpaceOnUse">
<stop stop-color="#00123D"/>
<stop offset="0.0261" stop-color="#00133D"/>
<stop offset="1" stop-color="#002C3D"/>
</linearGradient>
<linearGradient id="paint13_linear_803_348" x1="536.65" y1="177.229" x2="527.924" y2="224.92" gradientUnits="userSpaceOnUse">
<stop stop-color="#00123D"/>
<stop offset="0.0261" stop-color="#00133D"/>
<stop offset="1" stop-color="#002C3D"/>
</linearGradient>
<linearGradient id="paint14_linear_803_348" x1="532.579" y1="211.23" x2="526.644" y2="211.23" gradientUnits="userSpaceOnUse">
<stop stop-color="#00123D"/>
<stop offset="0.0261" stop-color="#00133D"/>
<stop offset="1" stop-color="#002C3D"/>
</linearGradient>
<linearGradient id="paint15_linear_803_348" x1="519.772" y1="208.734" x2="513.837" y2="208.734" gradientUnits="userSpaceOnUse">
<stop stop-color="#00123D"/>
<stop offset="0.0261" stop-color="#00133D"/>
<stop offset="1" stop-color="#002C3D"/>
</linearGradient>
<linearGradient id="paint16_linear_803_348" x1="532.12" y1="207.187" x2="527.308" y2="207.187" gradientUnits="userSpaceOnUse">
<stop stop-color="#00123D"/>
<stop offset="0.0261" stop-color="#00133D"/>
<stop offset="1" stop-color="#002C3D"/>
</linearGradient>
<linearGradient id="paint17_linear_803_348" x1="521.185" y1="204.931" x2="517.086" y2="204.931" gradientUnits="userSpaceOnUse">
<stop stop-color="#00123D"/>
<stop offset="0.0261" stop-color="#00133D"/>
<stop offset="1" stop-color="#002C3D"/>
</linearGradient>
<linearGradient id="paint18_linear_803_348" x1="533.191" y1="330.69" x2="555.896" y2="388.587" gradientUnits="userSpaceOnUse">
<stop stop-color="#78B9FF"/>
<stop offset="0.6037" stop-color="#A6DAFF"/>
<stop offset="1" stop-color="#BFEDFF"/>
</linearGradient>
<linearGradient id="paint19_linear_803_348" x1="524.538" y1="334.083" x2="547.243" y2="391.98" gradientUnits="userSpaceOnUse">
<stop stop-color="#78B9FF"/>
<stop offset="0.6037" stop-color="#A6DAFF"/>
<stop offset="1" stop-color="#BFEDFF"/>
</linearGradient>
<linearGradient id="paint20_linear_803_348" x1="465.102" y1="321.869" x2="476.319" y2="358.592" gradientUnits="userSpaceOnUse">
<stop stop-color="#78B9FF"/>
<stop offset="0.6037" stop-color="#A6DAFF"/>
<stop offset="1" stop-color="#BFEDFF"/>
</linearGradient>
</defs>
</svg>
