<svg width="192" height="71" viewBox="0 0 192 71" fill="none" xmlns="http://www.w3.org/2000/svg">
<path d="M78.3485 36.1878H85.483V40.3921H72.9022V18.0335H78.3485V36.1878ZM96.4891 40.6469C94.748 40.6469 93.1767 40.2753 91.7752 39.5322C90.395 38.789 89.3016 37.7274 88.4948 36.3472C87.7091 34.967 87.3162 33.3532 87.3162 31.5061C87.3162 29.6799 87.7198 28.0768 88.5266 26.6966C89.3335 25.2953 90.4375 24.223 91.839 23.4798C93.2403 22.7367 94.8116 22.3651 96.5527 22.3651C98.2938 22.3651 99.8651 22.7367 101.266 23.4798C102.668 24.223 103.772 25.2953 104.579 26.6966C105.386 28.0768 105.789 29.6799 105.789 31.5061C105.789 33.3321 105.375 34.9459 104.547 36.3472C103.74 37.7274 102.626 38.789 101.203 39.5322C99.8014 40.2753 98.2303 40.6469 96.4891 40.6469ZM96.4891 35.9331C97.5295 35.9331 98.4107 35.5509 99.1326 34.7865C99.8758 34.0222 100.247 32.9287 100.247 31.5061C100.247 30.0835 99.8865 28.9898 99.1644 28.2255C98.4638 27.4611 97.5933 27.0789 96.5527 27.0789C95.491 27.0789 94.61 27.4611 93.9093 28.2255C93.2085 28.9687 92.8582 30.0622 92.8582 31.5061C92.8582 32.9287 93.1979 34.0222 93.8773 34.7865C94.578 35.5509 95.4486 35.9331 96.4891 35.9331ZM115.749 22.3651C117.002 22.3651 118.096 22.6199 119.03 23.1295C119.985 23.6391 120.718 24.3079 121.227 25.136V22.6199H126.674V40.3604C126.674 41.9952 126.345 43.471 125.686 44.7874C125.049 46.1251 124.062 47.1868 122.724 47.9725C121.408 48.7581 119.762 49.1508 117.788 49.1508C115.155 49.1508 113.021 48.5245 111.386 47.2717C109.751 46.0402 108.817 44.3627 108.583 42.2395H113.966C114.136 42.9189 114.539 43.4497 115.176 43.8319C115.813 44.2353 116.599 44.4371 117.533 44.4371C118.658 44.4371 119.55 44.108 120.208 43.4497C120.888 42.8127 121.227 41.783 121.227 40.3604V37.8441C120.697 38.6722 119.964 39.3518 119.03 39.8825C118.096 40.3921 117.002 40.6469 115.749 40.6469C114.284 40.6469 112.957 40.2753 111.768 39.5322C110.579 38.7677 109.634 37.6956 108.933 36.3154C108.254 34.9139 107.914 33.3001 107.914 31.4741C107.914 29.6481 108.254 28.045 108.933 26.6648C109.634 25.2846 110.579 24.223 111.768 23.4798C112.957 22.7367 114.284 22.3651 115.749 22.3651ZM121.227 31.5061C121.227 30.1471 120.845 29.0747 120.081 28.2892C119.338 27.5036 118.425 27.1107 117.342 27.1107C116.259 27.1107 115.335 27.5036 114.571 28.2892C113.828 29.0536 113.456 30.1153 113.456 31.4741C113.456 32.8332 113.828 33.916 114.571 34.7228C115.335 35.5084 116.259 35.9013 117.342 35.9013C118.425 35.9013 119.338 35.5084 120.081 34.7228C120.845 33.9373 121.227 32.865 121.227 31.5061ZM133.672 20.7725C132.716 20.7725 131.93 20.4965 131.315 19.9444C130.72 19.3712 130.423 18.6705 130.423 17.8424C130.423 16.9931 130.72 16.2924 131.315 15.7403C131.93 15.167 132.716 14.8804 133.672 14.8804C134.606 14.8804 135.37 15.167 135.965 15.7403C136.58 16.2924 136.888 16.9931 136.888 17.8424C136.888 18.6705 136.58 19.3712 135.965 19.9444C135.37 20.4965 134.606 20.7725 133.672 20.7725ZM136.379 22.6199V40.3921H130.932V22.6199H136.379ZM146.091 16.8232V40.3921H140.644V16.8232H146.091ZM149.273 31.4741C149.273 29.6481 149.613 28.045 150.292 26.6648C150.993 25.2846 151.938 24.223 153.127 23.4798C154.316 22.7367 155.643 22.3651 157.108 22.3651C158.361 22.3651 159.454 22.6199 160.389 23.1295C161.344 23.6391 162.077 24.3079 162.586 25.136V22.6199H168.033V40.3921H162.586V37.876C162.055 38.7041 161.312 39.3729 160.357 39.8825C159.422 40.3921 158.329 40.6469 157.076 40.6469C155.632 40.6469 154.316 40.2753 153.127 39.5322C151.938 38.7677 150.993 37.6956 150.292 36.3154C149.613 34.9139 149.273 33.3001 149.273 31.4741ZM162.586 31.5061C162.586 30.1471 162.204 29.0747 161.44 28.2892C160.696 27.5036 159.783 27.1107 158.701 27.1107C157.618 27.1107 156.694 27.5036 155.93 28.2892C155.186 29.0536 154.815 30.1153 154.815 31.4741C154.815 32.8332 155.186 33.916 155.93 34.7228C156.694 35.5084 157.618 35.9013 158.701 35.9013C159.783 35.9013 160.696 35.5084 161.44 34.7228C162.204 33.9373 162.586 32.865 162.586 31.5061ZM177.738 25.136C178.247 24.3079 178.98 23.6391 179.935 23.1295C180.891 22.6199 181.984 22.3651 183.216 22.3651C184.681 22.3651 186.008 22.7367 187.197 23.4798C188.386 24.223 189.32 25.2846 190 26.6648C190.7 28.045 191.051 29.6481 191.051 31.4741C191.051 33.3001 190.7 34.9139 190 36.3154C189.32 37.6956 188.386 38.7677 187.197 39.5322C186.008 40.2753 184.681 40.6469 183.216 40.6469C181.963 40.6469 180.869 40.4028 179.935 39.9143C179.001 39.4047 178.268 38.7359 177.738 37.9078V40.3921H172.291V16.8232H177.738V25.136ZM185.509 31.4741C185.509 30.1153 185.127 29.0536 184.362 28.2892C183.619 27.5036 182.695 27.1107 181.591 27.1107C180.509 27.1107 179.585 27.5036 178.821 28.2892C178.077 29.0747 177.706 30.1471 177.706 31.5061C177.706 32.865 178.077 33.9373 178.821 34.7228C179.585 35.5084 180.509 35.9013 181.591 35.9013C182.674 35.9013 183.598 35.5084 184.362 34.7228C185.127 33.916 185.509 32.8332 185.509 31.4741Z" fill="#253858"/>
<path d="M70.9102 49.0279V51.1589H73.7719V52.5106H70.9102V54.7632H74.1372V56.1514H69.2055V47.6398H74.1372V49.0279H70.9102ZM81.288 54.7997H84.0887V56.1514H79.5831V47.6518H81.288V54.7997ZM96.3386 56.1514H94.6338L90.7737 50.3186V56.1514H89.069V47.6398H90.7737L94.6338 53.4847V47.6398H96.3386V56.1514Z" fill="#253858"/>
<path d="M166.993 52.7562H169.266V53.8532H165.61V46.9557H166.993V52.7562ZM173.702 46.9557V53.8532H172.319V46.9557H173.702ZM181.937 46.9557V48.0722H180.099V53.8532H178.716V48.0722H176.878V46.9557H181.937ZM186.504 48.0722V49.8015H188.826V50.8984H186.504V52.7265H189.123V53.8532H185.12V46.9458H189.123V48.0722H186.504Z" fill="#253858"/>
<path d="M21.1448 13.8928C20.0344 19.9528 18.473 26.2418 15.2783 31.5137C14.6623 32.5308 13.8815 33.7915 12.9145 34.737C14.4116 34.7155 15.9158 34.7012 17.4129 34.6797C17.7997 33.4764 18.1077 32.2659 18.3942 31.1556C19.834 25.5112 20.6362 19.7091 21.1448 13.8928Z" fill="#1368E4"/>
<path d="M19.9418 29.0723C19.5478 30.8846 19.1109 32.8043 18.5092 34.6595C18.4519 34.8314 18.3946 35.0033 18.3373 35.1752C18.28 35.3471 18.2155 35.5192 18.1582 35.6911C17.5493 37.3528 16.7757 38.9357 15.7371 40.3039C15.5365 40.5618 15.3002 40.8626 15.0208 41.1419C16.0666 41.2207 17.1196 41.2925 18.1725 41.3713C18.8817 39.5232 19.4189 37.5963 19.8487 35.6696C19.8845 35.4976 19.9203 35.3257 19.9561 35.1538C19.9919 34.9817 20.0277 34.8098 20.0635 34.6452C20.2139 33.9073 20.3645 33.1696 20.4933 32.4318C20.7726 30.8919 21.0163 29.3375 21.224 27.7831V21.895C20.8802 24.3019 20.4646 26.7015 19.9418 29.0723Z" fill="#1469E5"/>
<path d="M21.2304 12.9213C21.2016 13.2508 21.1801 13.5731 21.1516 13.8954C21.1801 13.745 21.2089 13.6017 21.2304 13.4513V12.9213Z" fill="#FCFCFC"/>
<path d="M21.2313 44.9764V42.6271V42.1184V41.5957V35.6503V35.1345V34.6261V34.1246C21.2026 34.2965 21.1668 34.4612 21.131 34.6261C21.0952 34.798 21.0594 34.9699 21.0236 35.1418C20.9876 35.3137 20.9448 35.4856 20.9088 35.6575C20.4649 37.6272 19.9204 39.5684 19.2185 41.4523C19.154 41.6242 19.0967 41.7889 19.0322 41.961C18.9677 42.1257 18.9033 42.2903 18.8388 42.4479C18.6168 42.9852 18.3876 43.5152 18.144 44.0311C17.7286 44.9049 17.2343 45.9435 16.5896 46.7745C18.2801 46.8533 19.9705 46.9319 21.661 47.0107C21.3745 46.3947 21.2313 45.7215 21.2313 44.9764Z" fill="#1368E4"/>
<path d="M22.2339 47.9723C21.9976 47.6713 21.8042 47.3563 21.6538 47.0195C19.9634 46.9409 18.2728 46.8621 16.5824 46.7833C17.2342 45.9523 17.7213 44.9137 18.1367 44.0399C18.3874 43.5241 18.6167 42.994 18.8316 42.4567C18.896 42.2921 18.9605 42.1272 19.025 41.9696C19.0894 41.7977 19.1467 41.633 19.2112 41.4611C19.9131 39.5845 20.4576 37.636 20.9017 35.6663C20.9375 35.4944 20.9805 35.3225 21.0163 35.1506C21.0521 34.9787 21.0879 34.8068 21.1237 34.6349C21.1594 34.47 21.1882 34.2981 21.224 34.1334V28.7182V27.7941C21.0163 29.3485 20.7798 30.8958 20.4933 32.443C20.3572 33.1736 20.2141 33.9185 20.0635 34.6564C20.0277 34.8283 19.9919 35.0002 19.9561 35.1648C19.9203 35.3368 19.8845 35.5087 19.8488 35.6806C19.4117 37.6145 18.8745 39.5342 18.1726 41.3823C17.1196 41.3035 16.0738 41.2319 15.0208 41.1531C15.293 40.8738 15.5366 40.5729 15.7371 40.3151C16.7758 38.9469 17.5494 37.3638 18.1582 35.7021C18.2227 35.5302 18.28 35.3583 18.3373 35.1864C18.3946 35.0145 18.4519 34.8426 18.5092 34.6706C19.1109 32.8153 19.5478 30.8886 19.9418 29.0835C20.4648 26.7125 20.8802 24.313 21.224 21.9062V16.9279V14.5856V13.4611C21.1952 13.6115 21.1667 13.7619 21.1452 13.9052C20.6295 19.7215 19.8343 25.5234 18.4018 31.1608C18.1153 32.2781 17.8072 33.4886 17.4204 34.6849C15.9234 34.6992 14.4192 34.7207 12.9221 34.7422C13.8819 33.8039 14.6699 32.5433 15.2859 31.5189C18.4806 26.247 20.0422 19.9578 21.1524 13.898C21.181 13.5685 21.2097 13.2462 21.2312 12.9238V11.5485V11.2692V10.2664V10.1446C21.2312 10.0801 21.2167 10.0157 21.2097 9.95121C21.181 9.47844 21.1094 9.02 21.0163 8.56873C20.128 15.13 18.7384 21.7056 16.0881 27.7083C15.5796 28.8613 15.028 29.986 14.3905 31.0677C14.061 31.6263 13.7029 32.1492 13.3232 32.6722C12.9651 33.1736 12.5425 33.6033 12.1198 34.0403C11.8906 34.2766 11.6399 34.4485 11.3606 34.6204C11.2388 34.6992 11.117 34.778 11.0311 34.8999C10.9666 34.9857 10.8377 35.1791 10.8448 35.2867C10.8663 35.6017 11.1815 35.7666 11.4537 35.7881C11.8978 35.8239 12.3419 35.7521 12.786 35.7521C13.6957 35.7521 14.6054 35.7236 15.5223 35.7236C16.038 35.7236 16.5537 35.7093 17.0695 35.7093C16.4391 37.4213 15.6082 39.0543 14.4263 40.2863C14.2687 40.4512 14.104 40.6231 13.9106 40.752C13.6312 40.9454 13.223 40.9884 13.0009 41.2605C12.7717 41.5472 12.9794 41.9553 13.3017 42.0699C13.6957 42.2203 14.147 42.156 14.5624 42.163C15.0209 42.1702 15.4793 42.199 15.9377 42.2348C16.2457 42.2563 16.5537 42.2776 16.8617 42.3064C16.9477 42.3136 17.75 42.4137 17.7714 42.3709C17.4205 43.2017 17.0337 44.0183 16.5967 44.799C16.3532 45.2289 16.1096 45.6586 15.8303 46.0669C15.6942 46.2676 15.5366 46.4537 15.3575 46.6184C15.1999 46.7618 14.9922 46.9049 14.9277 47.1198C14.8704 47.3205 15.0137 47.564 15.1928 47.6643C15.5366 47.8505 15.952 47.7859 16.3245 47.8004C16.7973 47.8147 17.27 47.8432 17.7356 47.8647C18.7169 47.915 19.6984 47.958 20.6795 48.0081C20.959 48.0224 21.2383 48.0367 21.5177 48.0439C21.6538 48.0511 21.7899 48.0582 21.9259 48.0654C21.9832 48.0654 22.2912 48.0439 22.3199 48.0797C22.2912 48.0367 22.2626 48.0081 22.2339 47.9723Z" fill="white"/>
<path d="M46.8817 10.8222C46.8817 11.689 46.1798 12.3909 45.313 12.3909H27.4556C26.5889 12.3909 25.887 11.689 25.887 10.8222C25.887 9.95551 26.5889 9.25354 27.4556 9.25354H45.313C46.1725 9.25354 46.8817 9.95551 46.8817 10.8222Z" fill="#2883FE"/>
<path d="M46.8817 19.0042C46.8817 19.8708 46.1798 20.5729 45.313 20.5729H27.4556C26.5889 20.5729 25.887 19.8708 25.887 19.0042C25.887 18.1374 26.5889 17.4355 27.4556 17.4355H45.313C46.1725 17.4283 46.8817 18.1374 46.8817 19.0042Z" fill="#2883FE"/>
<path d="M46.8817 35.3498C46.8817 36.2165 46.1798 36.9186 45.313 36.9186H27.4556C26.5889 36.9186 25.887 36.2165 25.887 35.3498C25.887 34.4832 26.5889 33.7811 27.4556 33.7811H45.313C46.1725 33.7811 46.8817 34.4832 46.8817 35.3498Z" fill="#2883FE"/>
<path d="M46.8817 43.5271C46.8817 44.3939 46.1798 45.096 45.313 45.096H27.4556C26.5889 45.096 25.887 44.3939 25.887 43.5271C25.887 42.6606 26.5889 41.9585 27.4556 41.9585H45.313C46.1725 41.9585 46.8817 42.6606 46.8817 43.5271Z" fill="#2883FE"/>
<path d="M41.6382 27.1746C41.6382 28.0413 40.9361 28.7432 40.0693 28.7432H27.4482C26.5815 28.7432 25.8796 28.0413 25.8796 27.1746C25.8796 26.3078 26.5815 25.606 27.4482 25.606H40.0693C40.9361 25.606 41.6382 26.3078 41.6382 27.1746Z" fill="#2883FE"/>
<path d="M47.1826 49.9688H46.2228H41.624H37.362H37.2331H36.5598H34.1674H33.6302H28.1935H26.3239C24.9201 49.9688 23.7166 49.4889 22.7209 48.5291C22.6278 48.436 22.5347 48.3429 22.4487 48.2426C22.3986 48.1853 22.3556 48.128 22.3126 48.0779C20.0205 47.9703 17.7284 47.863 15.4362 47.7556C15.3288 47.7484 15.2285 47.7053 15.1425 47.641C15.1139 47.6195 15.0852 47.598 15.0637 47.5692C14.8847 47.3758 14.813 47.0823 15.0637 46.8816C15.7514 46.3229 16.1382 45.6067 16.5894 44.8045C17.0336 44.0236 17.4132 43.2071 17.7642 42.3761C16.2958 42.2688 14.8274 42.1612 13.359 42.0539C12.7071 42.0108 12.6785 41.051 13.3446 41.0295C13.1226 41.0367 13.6097 40.9221 13.4951 40.9794C13.9392 40.7645 14.0753 40.6356 14.4048 40.2918C15.5866 39.0597 16.4175 37.4338 17.0479 35.7146C15.1425 35.7361 13.2444 35.7646 11.339 35.7861C10.8519 35.7934 10.594 35.07 11.0668 34.8335C11.1528 34.7905 11.2315 34.7404 11.3032 34.6902C13.4019 33.2504 14.9993 30.1489 16.0666 27.7208C18.7169 21.7181 20.1136 15.1425 20.9947 8.58125C20.9516 8.38785 20.9016 8.19444 20.8515 8.0082H20.8585C19.8129 3.4239 15.7156 0 10.8089 0C9.39068 0 8.03685 0.293682 6.80482 0.816579C6.74036 0.838067 6.6759 0.86672 6.61144 0.895372C6.5613 0.916861 6.50398 0.938354 6.45385 0.967006C2.79357 2.52854 0.1934 6.08853 0.0214881 10.2789H0V10.723V11.5611V49.6538C0 50.986 0.114608 52.2826 0.33666 53.5289C1.06728 57.6691 3.00128 61.315 6.16015 64.4668C10.2645 68.5711 15.1998 70.6269 20.9732 70.6269H22.3771H45.6353H46.7312C46.7455 70.6269 46.767 70.6197 46.7815 70.6197H47.1466C52.8413 70.6197 57.4614 65.9996 57.4614 60.3051C57.4972 54.5818 52.8771 49.9688 47.1826 49.9688Z" fill="#2883FE"/>
<path opacity="0.7" d="M47.1825 49.9539H46.2227H41.6241H37.3621H37.2331H36.5597H34.1674H33.6301H28.1934H26.324C24.92 49.9539 23.7167 49.474 22.721 48.5142C22.6207 48.4211 22.5347 48.328 22.4488 48.2277C22.3986 48.1704 22.3557 48.1131 22.3127 48.063C20.0205 47.9556 17.7284 47.8481 15.4362 47.7407C15.3288 47.7335 15.2285 47.6904 15.1425 47.6261L25.5575 70.5905H45.6712H46.7671C46.7814 70.5905 46.8029 70.5905 46.8172 70.5835H47.1825C52.877 70.5835 57.4973 65.9632 57.4973 60.2687C57.4973 54.5742 52.877 49.9539 47.1825 49.9539Z" fill="url(#paint0_linear_1_592)"/>
<defs>
<linearGradient id="paint0_linear_1_592" x1="15.1469" y1="59.109" x2="57.4986" y2="59.109" gradientUnits="userSpaceOnUse">
<stop stop-color="#095CD8"/>
<stop offset="0.7672" stop-color="#207AF5"/>
</linearGradient>
</defs>
</svg>
