<svg width="80" height="80" viewBox="0 0 80 80" fill="none" xmlns="http://www.w3.org/2000/svg">
<mask id="mask0_1_243" style="mask-type:luminance" maskUnits="userSpaceOnUse" x="0" y="0" width="80" height="80">
<path d="M80 0H0V80H80V0Z" fill="white"/>
</mask>
<g mask="url(#mask0_1_243)">
<path fill-rule="evenodd" clip-rule="evenodd" d="M18.515 80H0.0820312V65.8201H3.78603L5.48903 70.1299C5.63303 70.4899 5.88503 70.81 6.21103 71.03C6.53703 71.25 6.92303 71.3701 7.31703 71.3701H18.515V80ZM17.472 68.71V66.45H6.90103L7.78802 68.71H17.472ZM49.222 80H30.781V65.8201H34.485L36.195 70.1299C36.338 70.4899 36.59 70.81 36.916 71.03C37.242 71.25 37.629 71.3701 38.023 71.3701H49.221L49.222 80ZM48.17 68.71V66.45H37.6L38.495 68.71H48.17ZM78.869 68.71H69.193L68.298 66.45H78.868L78.869 68.71ZM79.92 80V71.3701H68.722C68.328 71.3701 67.942 71.25 67.616 71.03C67.29 70.81 67.038 70.4899 66.894 70.1299L65.183 65.8201H61.487V80H79.92ZM4.96004 63.79H7.60004V58.9099H38.667V63.79H41.327V58.9099H72.403V63.79H75.064V58.4099C75.064 57.8399 74.837 57.2899 74.432 56.8799C74.027 56.4799 73.478 56.25 72.905 56.25H41.327V51.5701H43.587C43.903 51.5601 44.209 51.45 44.449 51.25C44.69 51.04 44.848 50.7499 44.897 50.4399L45.659 45.6599C47.186 45.2199 48.658 44.6101 50.045 43.8401L53.97 46.6899C54.227 46.8699 54.542 46.9599 54.858 46.9399C55.175 46.9099 55.472 46.7701 55.696 46.55L60.766 41.48C60.99 41.25 61.128 40.9599 61.154 40.6399C61.18 40.3299 61.092 40.01 60.906 39.76L58.058 35.8301C58.828 34.4401 59.437 32.9699 59.87 31.4399L64.657 30.6799C64.97 30.6399 65.256 30.48 65.462 30.23C65.668 29.99 65.78 29.6901 65.779 29.3701V22.2C65.78 21.88 65.667 21.5701 65.461 21.3301C65.256 21.0901 64.97 20.9299 64.657 20.8799L59.87 20.1201C59.437 18.6001 58.829 17.12 58.058 15.74L60.906 11.8101C61.092 11.5501 61.18 11.2399 61.154 10.9199C61.128 10.6099 60.99 10.3101 60.766 10.0901L55.696 5.02002C55.471 4.79002 55.174 4.65988 54.857 4.62988C54.541 4.60988 54.226 4.69988 53.969 4.87988L50.046 7.72998C48.659 6.95998 47.187 6.34991 45.659 5.90991L44.898 1.12012C44.849 0.810117 44.69 0.530068 44.45 0.320068C44.21 0.110068 43.904 0 43.588 0H36.416C36.099 0 35.793 0.120068 35.551 0.320068C35.31 0.530068 35.149 0.810117 35.097 1.12012L34.336 5.90991C32.811 6.34991 31.342 6.95998 29.957 7.72998L26.026 4.87988C25.77 4.68988 25.457 4.60988 25.142 4.62988C24.826 4.65988 24.53 4.79002 24.307 5.02002L19.237 10.0901C19.013 10.3101 18.875 10.6099 18.849 10.9199C18.824 11.2399 18.911 11.5501 19.097 11.8101L21.945 15.74C21.171 17.12 20.563 18.5901 20.133 20.1201L15.337 20.8799C15.025 20.9299 14.74 21.0901 14.535 21.3301C14.329 21.5701 14.216 21.88 14.215 22.2V29.3701C14.216 29.6801 14.329 29.99 14.534 30.23C14.74 30.47 15.024 30.6299 15.337 30.6799L20.132 31.4399C20.562 32.9699 21.17 34.4401 21.944 35.8301L19.096 39.76C18.91 40.01 18.823 40.3299 18.848 40.6399C18.874 40.9599 19.012 41.25 19.236 41.48L24.306 46.55C24.529 46.7701 24.825 46.9099 25.14 46.9299C25.455 46.9599 25.769 46.8699 26.025 46.6799L29.956 43.8401C31.341 44.6101 32.81 45.2199 34.335 45.6499L35.096 50.4399C35.148 50.7499 35.309 51.04 35.55 51.24C35.791 51.45 36.097 51.5601 36.414 51.5601H38.667V56.25H7.09804C6.52504 56.25 5.97503 56.4799 5.57103 56.8799C5.16603 57.2899 4.93903 57.8399 4.94003 58.4099V63.28L4.96004 63.79ZM40.001 36.24C37.933 36.24 35.91 35.63 34.19 34.48C32.47 33.33 31.13 31.7 30.338 29.79C29.547 27.87 29.34 25.77 29.743 23.74C30.147 21.71 31.143 19.8499 32.606 18.3899C34.069 16.9199 35.932 15.93 37.961 15.52C39.99 15.12 42.093 15.3301 44.005 16.1201C45.916 16.9101 47.549 18.25 48.699 19.97C49.848 21.69 50.462 23.71 50.462 25.78C50.459 28.56 49.356 31.2099 47.395 33.1799C45.433 35.1399 42.775 36.24 40.001 36.24ZM32.201 25.78C32.201 24.24 32.658 22.73 33.515 21.45C34.372 20.17 35.59 19.1701 37.016 18.5801C38.441 17.9801 40.009 17.8299 41.523 18.1299C43.036 18.4299 44.426 19.17 45.517 20.27C46.607 21.36 47.35 22.75 47.651 24.26C47.953 25.77 47.798 27.34 47.208 28.77C46.617 30.19 45.618 31.41 44.335 32.27C43.052 33.12 41.544 33.5801 40.001 33.5801C37.933 33.5801 35.951 32.76 34.488 31.3C33.026 29.83 32.203 27.85 32.201 25.78Z" fill="#0E5BCA"/>
</g>
</svg>
