<svg width="190" height="166" viewBox="0 0 190 166" fill="none" xmlns="http://www.w3.org/2000/svg">
<path d="M9.8766 102.838L9.8774 102.838C15.87 100.266 24.5611 96.5343 34.0608 92.4558C51.6984 84.8835 72.1235 76.1144 83.2406 71.3448C87.4307 69.5489 92.2594 71.477 94.0535 75.6582L94.7352 75.3657L94.0535 75.6582C98.983 87.1458 107.858 107.828 112.795 119.315C114.582 123.492 112.661 128.326 108.474 130.121L108.473 130.121L35.1101 161.615L35.11 161.615C30.9349 163.408 26.0909 161.475 24.3049 157.301L24.3044 157.3C19.3677 145.813 10.4925 125.131 5.56294 113.644C3.76824 109.461 5.70215 104.624 9.8766 102.838Z" stroke="#848282" stroke-width="1.48344"/>
<path d="M6.08531 108.003L6.25726 107.302L6.24865 107.3C5.8545 107.209 5.59771 106.796 5.70053 106.385L5.7011 106.383C5.80344 105.968 6.22014 105.719 6.62314 105.813C6.62399 105.813 6.62485 105.813 6.6257 105.813L55.4058 117.779C58.9132 118.646 62.5681 117.081 64.3557 113.938C64.3559 113.937 64.356 113.937 64.3562 113.937L89.1438 70.5468C89.1446 70.5454 89.1454 70.544 89.1463 70.5426C89.3655 70.178 89.8431 70.0512 90.2127 70.2615L90.2137 70.2621C90.5774 70.4683 90.7045 70.9365 90.4953 71.2937L90.4915 71.3003L91.1201 71.6595C90.4915 71.3003 90.4915 71.3004 90.4913 71.3007L90.4907 71.3017L90.4884 71.3059L90.4789 71.3224L90.4415 71.3879L90.2946 71.6449L89.7306 72.6318L87.6611 76.2531L80.8763 88.1246C75.6038 97.3497 69.4017 108.201 65.6831 114.704L65.6822 114.705C63.5626 118.432 59.2145 120.3 55.0456 119.27L55.0441 119.27C47.7455 117.484 35.5489 114.492 25.1767 111.947C19.9907 110.674 15.2608 109.513 11.8274 108.67L7.75483 107.67L6.64477 107.398L6.35576 107.327L6.28208 107.309L6.26348 107.304L6.2588 107.303L6.25763 107.303C6.25737 107.303 6.25724 107.302 6.08531 108.003Z" stroke="#848282" stroke-width="1.44788"/>
<path fill-rule="evenodd" clip-rule="evenodd" d="M122.623 77.7931L184.529 27.4197C185.416 26.7067 185.55 25.4036 184.827 24.515C184.104 23.6264 182.81 23.5034 181.933 24.2174L120.028 74.5809C119.139 75.3038 119.006 76.597 119.729 77.4856C120.442 78.3732 121.745 78.5071 122.624 77.7832L122.623 77.7931Z" fill="#3D61FF"/>
<path fill-rule="evenodd" clip-rule="evenodd" d="M144.952 104.578L187.525 97.7356C188.649 97.5597 189.412 96.4921 189.225 95.3771C189.038 94.2622 187.982 93.4901 186.868 93.6671L144.285 100.508C143.16 100.694 142.399 101.742 142.585 102.867C142.761 103.991 143.818 104.753 144.942 104.577L144.952 104.578Z" fill="#3D61FF"/>
<path fill-rule="evenodd" clip-rule="evenodd" d="M102.184 48.7534L118.785 5.20269C119.186 4.13811 118.655 2.94756 117.59 2.5466C116.526 2.13568 115.335 2.67666 114.935 3.73129L98.3353 47.272C97.9343 48.3366 98.4654 49.5272 99.5289 49.9381C100.592 50.349 101.784 49.808 102.195 48.7445L102.184 48.7534Z" fill="#3D61FF"/>
</svg>
