<svg width="498" height="175" viewBox="0 0 498 175" fill="none" xmlns="http://www.w3.org/2000/svg">
<path fill-rule="evenodd" clip-rule="evenodd" d="M386.488 31.9795C380.068 31.9795 374.848 37.1995 374.848 43.6195C374.848 50.0395 380.068 55.3095 386.488 55.3095C392.908 55.3095 398.178 50.0895 398.178 43.6195C398.178 37.1495 392.948 31.9795 386.488 31.9795ZM386.488 36.0995C390.698 36.0995 394.058 39.4595 394.058 43.6195C394.058 47.7795 390.698 51.1895 386.488 51.1895C382.278 51.1895 378.968 47.8295 378.968 43.6195C378.968 39.4095 382.328 36.0995 386.488 36.0995Z" fill="#3D8BFF"/>
<path fill-rule="evenodd" clip-rule="evenodd" d="M496.186 114.159C496.561 113.775 496.664 113.232 496.47 112.738C496.269 112.256 495.807 111.939 495.287 111.924L422.296 109.689C421.792 109.684 421.309 109.974 421.062 110.432C420.847 110.887 420.904 111.449 421.236 111.86L437.665 132.05L452.059 157.427C452.259 157.783 452.613 158.043 453.035 158.098C453.447 158.146 453.865 158.005 454.145 157.692L496.183 114.164L496.186 114.159ZM492.22 114.48C492.22 114.48 460.212 147.61 453.474 154.564L439.917 130.639C439.881 130.573 439.854 130.505 439.792 130.446L425.122 112.423L492.224 114.475L492.22 114.48Z" fill="#0D3C80"/>
<path fill-rule="evenodd" clip-rule="evenodd" d="M439.735 132.711L494.261 114.938C494.966 114.726 495.334 113.974 495.119 113.274C494.895 112.591 494.129 112.208 493.446 112.433L438.904 130.196C438.215 130.417 437.821 131.176 438.062 131.869C438.286 132.552 439.02 132.939 439.735 132.711Z" fill="#0D3C80"/>
<path fill-rule="evenodd" clip-rule="evenodd" d="M437.965 132.198L436.716 148.673C436.7 149.119 436.888 149.572 437.245 149.826C437.606 150.113 438.08 150.168 438.508 150.01L447.246 146.83C447.927 146.583 448.278 145.821 448.022 145.141C447.781 144.448 447.025 144.101 446.343 144.348L439.519 146.819L440.617 132.401C440.664 131.662 440.123 131.023 439.41 130.969C438.671 130.922 438.032 131.463 437.968 132.193L437.965 132.198Z" fill="#0D3C80"/>
<path d="M3.25936 101.633L3.25556 101.624C2.82809 100.721 2.78108 99.6835 3.11882 98.7486L22.5737 44.8972C22.9147 43.9533 23.6103 43.1931 24.526 42.7591C25.4285 42.3383 26.4649 42.2942 27.4093 42.6354L112.694 73.4462C113.636 73.7866 114.406 74.4845 114.833 75.3849C115.234 76.2476 115.293 77.2133 115.003 78.1246L114.951 78.2702L95.4958 132.122C95.155 133.065 94.462 133.833 93.5648 134.252L93.5588 134.255C92.6553 134.682 91.6202 134.727 90.6754 134.386L5.39335 103.576C4.4485 103.235 3.68111 102.539 3.25936 101.633Z" fill="#B0E3FF" stroke="#0D3C80" stroke-width="2.87203"/>
<path fill-rule="evenodd" clip-rule="evenodd" d="M120.736 38.6776C121.547 36.433 120.388 33.9534 118.135 33.1393L53.7494 9.87892C51.499 9.06595 49.0127 10.2255 48.2008 12.473L32.6791 55.4373C32.6791 55.4373 47.6781 78.4292 54.2768 88.5547C56.0797 91.3282 59.5064 92.5662 62.6742 91.5884C75.4043 87.6568 106.511 78.0528 106.511 78.0528L120.736 38.6776Z" fill="#000045"/>
<path fill-rule="evenodd" clip-rule="evenodd" d="M119.254 35.3222C120.066 33.0747 118.907 30.5979 116.653 29.7839L52.2653 6.52248C50.015 5.7095 47.5287 6.86904 46.7167 9.11652L31.195 52.0809C31.195 52.0809 47.5801 77.1997 54.5315 87.8552C56.3344 90.6287 59.7611 91.8667 62.9204 90.8859C75.0769 87.1335 103.733 78.2865 103.733 78.2865L119.254 35.3222Z" fill="#C6C6C6"/>
<path fill-rule="evenodd" clip-rule="evenodd" d="M24.4515 44.6001C24.4515 44.6001 46.2684 76.3057 54.4485 88.1653C56.3889 90.9947 60.019 92.3061 63.3197 91.3702C77.178 87.4694 114.234 77.0358 114.234 77.0358C114.54 76.9392 114.716 76.6177 114.615 76.3179C114.514 76.0181 114.173 75.8326 113.856 75.9252C113.856 75.9252 76.8124 86.3664 62.9551 90.2646C60.1585 91.057 57.0855 89.9468 55.4411 87.55C47.2757 75.6928 25.4578 43.9897 25.4578 43.9897C25.2703 43.7148 24.8927 43.6376 24.6228 43.8065C24.3528 43.9754 24.2694 44.3271 24.4542 44.6011L24.4515 44.6001Z" fill="#0D3C80"/>
<path fill-rule="evenodd" clip-rule="evenodd" d="M54.3785 24.0183L80.0921 33.3078C80.4197 33.4262 80.7803 33.257 80.8987 32.9294C81.017 32.6018 80.8437 32.2526 80.5161 32.1343L54.8025 22.8447C54.4863 22.7305 54.1257 22.8997 54.0114 23.2159C53.8972 23.5321 54.0623 23.9041 54.3785 24.0183Z" fill="#000045"/>
<path fill-rule="evenodd" clip-rule="evenodd" d="M50.6039 34.348L100.066 52.217C100.405 52.3395 100.769 52.1684 100.892 51.8295C101.006 51.5133 100.834 51.1516 100.495 51.0292L51.033 33.1601C50.7168 33.0459 50.3552 33.218 50.242 33.5313C50.1195 33.8703 50.2905 34.2348 50.6039 34.348Z" fill="#000045"/>
<path fill-rule="evenodd" clip-rule="evenodd" d="M46.868 44.6936L96.3298 62.5626C96.6688 62.6851 97.0333 62.5141 97.1557 62.1751C97.27 61.8589 97.0989 61.4944 96.76 61.3719L47.2981 43.5029C46.982 43.3887 46.6203 43.5607 46.5061 43.8769C46.3836 44.2159 46.5546 44.5804 46.868 44.6936Z" fill="#000045"/>
<path fill-rule="evenodd" clip-rule="evenodd" d="M43.1342 55.0228L92.596 72.8918C92.935 73.0143 93.2995 72.8432 93.4219 72.5043C93.5362 72.1881 93.3641 71.8264 93.0251 71.704L43.5633 53.8349C43.2471 53.7207 42.8855 53.8928 42.7723 54.2061C42.6498 54.5451 42.8208 54.9096 43.1342 55.0228Z" fill="#000045"/>
<path fill-rule="evenodd" clip-rule="evenodd" d="M318.448 162.005C321.67 162.668 324.911 163.228 328.114 163.696C329.009 163.845 329.832 163.377 329.937 162.674C330.049 161.971 329.451 161.331 328.556 161.183C325.414 160.745 322.285 160.173 319.09 159.544C318.233 159.343 317.352 159.749 317.177 160.445C317.005 161.117 317.556 161.832 318.448 162.005ZM347.735 165.369C351.05 165.439 354.344 165.42 357.546 165.286C358.46 165.244 359.122 164.654 359.013 163.953C358.911 163.253 358.129 162.706 357.249 162.727C354.086 162.865 350.895 162.894 347.684 162.81C346.778 162.772 346.087 163.334 346.084 164.048C346.115 164.741 346.86 165.34 347.734 165.375L347.735 165.369ZM290.454 153.719C293.478 154.915 296.515 156 299.568 156.999C300.38 157.251 301.32 156.963 301.633 156.306C301.947 155.649 301.5 154.92 300.651 154.639C297.705 153.675 294.731 152.597 291.774 151.434C290.967 151.133 289.991 151.386 289.65 152.009C289.269 152.628 289.639 153.411 290.454 153.713L290.454 153.719ZM376.909 163.335C380.111 162.815 383.263 162.179 386.342 161.479C387.171 161.261 387.63 160.569 387.354 159.882C387.035 159.215 386.127 158.817 385.268 159.008C382.291 159.718 379.214 160.331 376.116 160.836C375.221 160.992 374.733 161.656 374.944 162.367C375.182 163.05 376.045 163.5 376.908 163.341L376.909 163.335ZM264.836 141.356C267.574 142.957 270.33 144.454 273.087 145.87C273.851 146.278 274.808 146.129 275.295 145.552C275.736 144.964 275.502 144.17 274.745 143.762C272.048 142.383 269.362 140.893 266.65 139.351C265.927 138.916 264.903 139.034 264.418 139.586C263.91 140.136 264.102 140.957 264.835 141.362L264.836 141.356ZM404.356 155.972C407.274 154.846 410.098 153.623 412.826 152.34C413.557 152.006 413.78 151.227 413.315 150.601C412.823 149.998 411.825 149.789 411.051 150.15C408.408 151.385 405.659 152.56 402.81 153.638C402.043 153.944 401.719 154.705 402.142 155.358C402.568 155.979 403.558 156.275 404.356 155.972ZM241.89 126.189C244.024 127.59 246.14 129.077 248.259 130.613C248.623 130.843 248.945 131.094 249.309 131.324C249.995 131.806 251.008 131.805 251.584 131.287C252.167 130.77 252.077 129.965 251.391 129.478C251.069 129.227 250.737 129 250.415 128.743C248.229 127.169 246.042 125.675 243.877 124.27C243.152 123.785 242.133 123.841 241.586 124.393C241.041 124.915 241.163 125.722 241.891 126.183L241.89 126.189ZM428.38 143.478C430.832 141.806 433.148 140.065 435.368 138.264C435.941 137.77 435.884 136.944 435.238 136.461C434.587 135.953 433.534 135.955 432.962 136.443C430.817 138.202 428.577 139.896 426.202 141.519C425.561 141.975 425.511 142.765 426.117 143.324C426.696 143.85 427.739 143.934 428.38 143.478ZM106.783 109.142C106.783 109.142 109.859 107.864 115.377 106.293C116.168 106.07 116.599 105.345 116.248 104.681C115.898 104.017 114.953 103.665 114.124 103.883C108.382 105.543 105.158 106.886 105.158 106.886C104.39 107.192 104.105 107.957 104.563 108.583C105.017 109.232 106.013 109.472 106.783 109.142ZM217.576 113.085C220.395 114.284 223.199 115.618 226.026 117.042C226.794 117.425 227.793 117.249 228.234 116.661C228.682 116.074 228.448 115.28 227.688 114.903C224.785 113.447 221.878 112.102 219.032 110.869C218.23 110.513 217.257 110.741 216.876 111.36C216.467 111.951 216.803 112.756 217.576 113.085ZM133.612 102.405C136.569 101.966 139.687 101.574 143.007 101.291C143.893 101.215 144.483 100.562 144.342 99.8638C144.201 99.1598 143.351 98.6617 142.497 98.7347C139.072 99.0383 135.872 99.4522 132.853 99.8787C131.962 100.004 131.44 100.695 131.646 101.375C131.849 102.085 132.721 102.53 133.604 102.404L133.612 102.405ZM190.604 104.321C193.652 104.991 196.719 105.781 199.851 106.708C200.694 106.963 201.608 106.617 201.89 105.956C202.133 105.292 201.679 104.562 200.835 104.306C197.641 103.373 194.464 102.572 191.349 101.864C190.461 101.66 189.611 102.069 189.4 102.73C189.186 103.423 189.748 104.114 190.605 104.315L190.604 104.321ZM162.084 100.733C165.19 100.837 168.39 101.032 171.688 101.343C172.56 101.408 173.347 100.912 173.418 100.23C173.452 99.519 172.791 98.8729 171.919 98.8074C168.559 98.4841 165.249 98.2841 162.072 98.1724C161.166 98.1345 160.444 98.6932 160.473 99.4105C160.472 100.1 161.217 100.699 162.084 100.733Z" fill="#0D3C7F"/>
</svg>
