<svg width="127" height="117" viewBox="0 0 127 117" fill="none" xmlns="http://www.w3.org/2000/svg">
<g clip-path="url(#clip0_1_404)">
<path d="M23.418 62.6213C23.6031 62.497 24.9935 65.1275 28.4708 69.0789C31.956 72.9354 37.7884 78.2068 46.6034 81.3321C50.9799 82.8886 56.0555 83.8325 61.5193 83.7276C66.9708 83.6309 72.7899 82.4815 78.3734 79.9678C81.1488 78.7131 83.8445 77.0999 86.184 75.0095C88.5029 72.915 90.42 70.3023 91.3706 67.2639C92.3379 64.2502 92.3966 60.8437 91.0466 57.9532C89.742 55.0502 86.9841 52.8903 83.8093 51.8164C80.6261 50.7301 77.1164 50.6511 73.948 51.5071C70.7753 52.3302 67.9981 54.2488 65.9733 56.7011C63.9525 59.1327 62.7462 62.2173 63.0446 65.1154C63.3307 68.0218 65.1331 70.5726 67.5714 72.1233C70.0016 73.7152 72.8871 74.5715 75.7134 75.0198C77.1246 75.2543 78.5476 75.3196 79.9622 75.3726C81.3771 75.4792 82.7623 75.355 84.1232 75.3545C89.5822 75.0558 94.5928 73.8225 98.9628 72.1954C107.727 68.871 113.785 63.9969 117.472 60.2854C121.175 56.545 122.779 54.0529 122.965 54.1966C123.032 54.2417 122.671 54.878 121.912 56.0683C121.547 56.6716 121.054 57.3784 120.401 58.193C119.79 59.0157 119.046 59.9626 118.138 60.9306C114.593 64.9056 108.54 70.1343 99.566 73.7604C95.0893 75.5487 89.9225 76.9228 84.2288 77.3254C82.8062 77.3673 81.355 77.5 79.8825 77.4142C78.4101 77.382 76.9089 77.3334 75.3782 77.1076C72.3373 76.6601 69.1962 75.7963 66.3487 73.9831C63.4891 72.2318 61.132 69.0684 60.765 65.3746C60.365 61.6851 61.8498 58.0552 64.1374 55.2474C66.425 52.4396 69.63 50.1978 73.3012 49.237C76.9268 48.2351 80.886 48.3167 84.5522 49.5622C88.2019 50.783 91.5509 53.3699 93.1712 56.9564C94.808 60.5139 94.673 64.5269 93.5669 67.9741C92.4528 71.4625 90.2317 74.4227 87.6742 76.6953C85.0921 78.9844 82.1904 80.6643 79.2461 81.9609C73.337 84.5499 67.221 85.6838 61.5177 85.6988C55.802 85.7221 50.5198 84.6304 46.0065 82.897C36.8935 79.4346 31.0722 73.7797 27.7345 69.6628C26.0573 67.5653 24.9709 65.7874 24.2781 64.569C23.6224 63.3258 23.3273 62.6463 23.389 62.6049L23.418 62.6213Z" fill="black"/>
<path d="M45.0407 55.2117C45.0693 55.1209 45.4405 55.1402 46.2122 55.3026L46.0698 55.8639C44.2262 55.8124 39.9316 55.3113 34.1141 54.4895C31.2094 54.058 27.9127 53.5494 24.352 53.0211C22.582 52.759 20.6797 52.4066 18.8726 52.1693C17.0698 51.9651 15.1645 51.9549 13.7898 52.7348C12.1184 53.6065 11.5147 55.588 11.5587 57.6539C11.5862 59.6951 12.0635 61.8462 12.4414 63.8491C13.2507 67.8549 14.2112 71.4188 15.1284 74.385C16.9751 80.3089 18.5046 83.8669 18.1835 84.0288C17.9324 84.1616 15.8305 80.8448 13.5508 74.9428C12.4151 71.9981 11.236 68.4019 10.3027 64.3182C9.86695 62.2824 9.30727 60.1688 9.2371 57.6905C9.20828 56.4741 9.32759 55.1582 9.83874 53.8657C10.3333 52.5485 11.3314 51.341 12.624 50.6521C14.851 49.461 17.1651 49.6265 19.137 49.8426C21.1504 50.1204 22.9208 50.4897 24.724 50.8012C28.2687 51.4657 31.541 52.098 34.4337 52.645C40.1986 53.7887 44.4164 54.7354 46.171 55.2945L46.0285 55.8558C45.3222 55.5242 45.0081 55.3231 45.0284 55.22L45.0407 55.2117Z" fill="black"/>
</g>
<defs>
<clipPath id="clip0_1_404">
<rect width="106" height="69.3334" fill="white" transform="translate(-0.000488281 59.0938) rotate(-33.8821)"/>
</clipPath>
</defs>
</svg>
