<svg xmlns="http://www.w3.org/2000/svg" width="23.724" height="28.996" viewBox="0 0 23.724 28.996">
  <path id="Path_21141" data-name="Path 21141" d="M5.636,5.75V17.856a5.272,5.272,0,0,0,2.347,4.386l6.879,4.587,6.879-4.587a5.272,5.272,0,0,0,2.347-4.385V5.75L14.862,3.7Zm-1.6-2.343L14.862,1l10.83,2.407a1.318,1.318,0,0,1,1.032,1.286V17.856A7.908,7.908,0,0,1,23.2,24.435L14.862,30l-8.34-5.561A7.908,7.908,0,0,1,3,17.857V4.693A1.318,1.318,0,0,1,4.032,3.407Zm10.83,14.068-3.874,2.036.739-4.313L8.595,12.144l4.331-.63L14.862,7.59,16.8,11.514l4.33.63L18,15.2l.738,4.313Z" transform="translate(-3 -1)" fill="#283c5f"/>
</svg>
