<svg width="201" height="106" viewBox="0 0 201 106" fill="none" xmlns="http://www.w3.org/2000/svg">
<path d="M163.598 28.9322C163.45 29.1442 163.33 29.3759 163.122 29.5385C163.112 29.4323 163.1 29.3249 163.09 29.2187C163.58 28.504 164.058 27.7814 164.561 27.0759C165.411 25.8849 166.271 24.7004 167.136 23.52C167.74 22.6947 168.358 21.8784 168.967 21.0571C169.543 20.2806 170.108 19.4977 170.691 18.7265C171.53 17.6155 172.381 16.5122 173.224 15.4037C173.654 14.8375 174.069 14.2609 174.507 13.7014C175.258 12.7385 176.016 11.778 176.784 10.8285C177.453 9.99994 178.135 9.18058 178.822 8.3667C179.511 7.55267 180.194 6.73318 180.914 5.94892C181.527 5.27897 182.162 4.62622 182.834 4.0146C183.401 3.49785 183.959 2.97149 184.519 2.44793C185.101 1.90443 185.711 1.3895 186.371 0.945682C187.562 0.143223 188.796 0.171226 190.035 0.837052C190.595 1.13772 191.058 1.55627 191.417 2.07988C191.743 2.55455 191.99 3.06217 191.963 3.65977C191.943 4.16308 191.804 4.63756 191.618 5.10166C191.352 5.76522 190.981 6.3704 190.615 6.97957C189.973 8.05258 189.336 9.12797 188.691 10.1982C187.928 11.4641 187.157 12.7234 186.314 13.939C185.966 14.4409 185.643 14.9611 185.326 15.4823C185.038 15.9561 184.71 16.404 184.401 16.8649C184.038 17.4083 183.684 17.9583 183.321 18.5018C183.005 18.9738 182.687 19.446 182.357 19.9074C182.003 20.4054 181.66 20.9097 181.32 21.4182C180.957 21.9617 180.564 22.4842 180.183 23.016C180.117 23.1085 180.042 23.1945 179.978 23.2884C179.486 24.0183 178.998 24.7522 178.503 25.4807C178.152 25.9977 177.798 26.5135 177.438 27.024C176.948 27.7208 176.455 28.418 175.956 29.1084C175.007 30.4218 174.063 31.7378 173.063 33.013C172.335 33.9409 171.643 34.898 170.88 35.798C170.659 36.0586 170.435 36.315 170.21 36.5716C170.174 36.6137 170.126 36.657 170.066 36.6196C170.007 36.5835 170.005 36.5182 170.03 36.4682C170.206 36.1123 170.338 35.7352 170.548 35.3952C170.712 35.1297 170.87 34.8587 171.017 34.5829C171.335 33.9782 171.722 33.4161 172.087 32.8398C172.406 32.3362 172.738 31.8404 173.075 31.3471C173.371 30.9126 173.68 30.4874 173.984 30.0582C174.37 29.5141 174.752 28.9659 175.145 28.4255C175.563 27.85 176.007 27.2944 176.411 26.7113C177.14 25.6599 177.924 24.6493 178.648 23.5939C179.106 22.9268 179.576 22.2675 180.074 21.6279C180.581 20.9785 181.047 20.2973 181.531 19.6307C181.598 19.538 181.66 19.4443 181.73 19.3543C182.371 18.521 182.971 17.6574 183.565 16.7899C184.104 16.0051 184.661 15.2319 185.202 14.4498C185.517 13.9942 185.821 13.5308 186.128 13.0701C186.616 12.3376 187.11 11.6076 187.587 10.8674C187.886 10.4014 188.168 9.92375 188.44 9.44251C189.052 8.36804 189.632 7.27721 190.173 6.16631C190.436 5.62799 190.643 5.07263 190.75 4.4807C190.825 4.06443 190.792 3.66447 190.623 3.27437C190.23 2.36569 189.541 1.7501 188.658 1.35675C187.912 1.02327 187.167 1.05717 186.47 1.53575C186.141 1.76208 185.84 2.02141 185.57 2.31492C185.014 2.92293 184.461 3.53361 183.906 4.14443C183.82 4.23895 183.737 4.33613 183.647 4.42797C182.34 5.7756 181.147 7.22543 179.899 8.62402C179.046 9.57863 178.191 10.5291 177.381 11.5198C175.859 13.3789 174.323 15.2245 172.824 17.1022C170.972 19.4242 169.147 21.7675 167.32 24.1094C166.447 25.2297 165.599 26.3713 164.735 27.4996C164.459 27.8607 164.169 28.2112 163.885 28.5656C163.729 28.6341 163.628 28.7553 163.598 28.9322Z" fill="white"/>
<path d="M146.151 64.9491C146.257 64.8557 146.342 64.7479 146.388 64.614C146.597 64.3977 146.781 64.1615 146.937 63.9041C146.961 63.8675 146.988 63.8308 147.012 63.7942C147.491 63.1773 147.958 62.5525 148.371 61.8898C148.39 61.8597 148.409 61.8295 148.429 61.7994C148.898 61.176 149.371 60.5565 149.835 59.9291C150.519 59.0039 151.193 58.0737 151.874 57.1459C152.1 56.8372 152.341 56.5404 152.517 56.1979C152.642 56.0729 152.752 55.9359 152.829 55.7738C152.903 55.6894 152.986 55.6101 153.05 55.5191C153.448 54.9649 153.836 54.4042 154.238 53.8541C154.706 53.2114 155.171 52.5645 155.662 51.9389C156.373 51.0335 157.02 50.0806 157.711 49.1607C158.359 48.2969 158.992 47.4213 159.624 46.5458C160.089 45.9003 160.539 45.2444 161.004 44.599C161.469 43.9536 161.952 43.3213 162.417 42.6759C163.242 41.5335 164.179 40.4845 165.121 39.438C165.22 39.3274 165.302 39.336 165.4 39.45C165.514 39.5805 165.542 39.7192 165.483 39.884C165.44 40.0071 165.382 40.1183 165.311 40.2248C164.698 41.1313 164.113 42.0544 163.483 42.9491C162.772 43.9602 162.052 44.9632 161.357 45.9861C160.591 47.1125 159.829 48.243 158.958 49.2991C158.235 50.1759 157.553 51.086 156.915 52.0291C156.749 52.2756 156.564 52.5119 156.381 52.748C155.825 53.4676 155.274 54.1912 154.767 54.9462C154.696 55.0527 154.621 55.1551 154.544 55.2591C153.431 56.7682 152.312 58.2735 151.205 59.7879C150.165 61.2112 149.14 62.6435 148.109 64.072C148.076 64.1168 148.052 64.1681 148.024 64.2169L148.009 64.2332C147.672 64.5986 147.408 65.0196 147.111 65.4169C146.483 66.2579 145.861 67.1042 145.238 67.9477C145.213 67.9813 145.191 68.0191 145.166 68.0527C144.479 68.9916 143.788 69.9264 143.105 70.8678C142.682 71.4527 142.219 72.0072 141.847 72.6289C141.804 72.6864 141.762 72.744 141.72 72.8016C141.557 73.012 141.393 73.2211 141.232 73.4344C140.17 74.8314 139.091 76.2139 137.993 77.5803C137.817 77.7979 137.624 78.0067 137.501 78.2639C137.452 78.3236 137.404 78.3847 137.355 78.4445C137.019 78.8053 136.72 79.1983 136.418 79.5887C136.349 79.6771 136.276 79.7629 136.197 79.8433C136.169 79.8728 136.118 79.8732 136.087 79.8375C136.07 79.8183 136.058 79.7852 136.058 79.7599C136.065 79.612 136.155 79.4948 136.224 79.3751C136.45 78.9831 136.685 78.5962 136.925 78.2132C137.338 77.5534 137.761 76.9016 138.171 76.2421C138.455 75.7866 138.796 75.3687 139.042 74.89C139.175 74.7658 139.28 74.6218 139.353 74.4556C139.399 74.4022 139.451 74.3541 139.488 74.297C139.959 73.5885 140.416 72.871 140.917 72.1834C141.194 71.8059 141.459 71.4206 141.729 71.0393C142.238 70.3227 142.726 69.5903 143.277 68.9055C143.366 68.7943 143.453 68.6833 143.533 68.5656C144.205 67.5821 144.957 66.6563 145.657 65.694C145.833 65.451 146.027 65.2228 146.151 64.9491Z" fill="white"/>
<path d="M133.181 76.5478C133.169 76.5089 133.157 76.4683 133.145 76.4293C133.163 76.4082 133.187 76.3896 133.199 76.3646C133.686 75.43 134.313 74.5846 134.868 73.6911C135.348 72.9193 135.821 72.1437 136.307 71.3743C136.905 70.426 137.505 69.4776 138.108 68.5319C138.911 67.2741 139.774 66.0581 140.606 64.8212C141.439 63.5828 142.313 62.3747 143.16 61.1469C143.571 60.5512 144.01 59.9737 144.449 59.3977C144.776 58.9679 145.117 58.5485 145.411 58.095C145.511 57.9396 145.62 57.7894 145.737 57.6473C146.89 56.2385 147.957 54.7664 149.039 53.3034C149.673 52.447 150.315 51.5973 150.925 50.7223C151.226 50.2904 151.552 49.8784 151.855 49.4493C152.651 48.3245 153.439 47.1946 154.281 46.1026C154.557 45.7444 154.786 45.3477 155.038 44.9695C155.696 43.9903 156.362 43.0178 157.046 42.0584C157.59 41.2953 158.089 40.4994 158.633 39.7363C159.476 38.555 160.376 37.4203 161.465 36.4505C161.55 36.374 161.631 36.2874 161.755 36.2949C161.807 36.2974 161.869 36.3168 161.907 36.3488C161.954 36.3875 161.944 36.4554 161.917 36.5071C161.837 36.6575 161.755 36.8067 161.669 36.9532C161.34 37.5172 161.023 38.089 160.676 38.6414C160.404 39.0734 160.097 39.4851 159.801 39.9017C159.314 40.5849 158.824 41.2624 158.335 41.9443C157.591 42.9838 156.84 44.0195 156.104 45.0642C155.506 45.9127 154.861 46.7256 154.244 47.5566C153.576 48.458 152.855 49.3212 152.253 50.2712C152.185 50.3789 152.108 50.4814 152.033 50.5853C151.434 51.4131 150.828 52.2386 150.234 53.0719C149.912 53.5221 149.61 53.9869 149.298 54.4451C148.804 55.1736 148.311 55.9035 147.812 56.6295C146.926 57.9161 146.001 59.1753 145.091 60.4449C144.496 61.2752 143.954 62.1437 143.388 62.9951C143.2 63.2794 143.017 63.5676 142.822 63.8466C142.295 64.6036 141.768 65.362 141.229 66.1126C140.243 67.4862 139.263 68.8636 138.255 70.2214C137.366 71.419 136.447 72.5942 135.532 73.7736C134.887 74.6043 134.227 75.423 133.573 76.2456C133.468 76.3776 133.374 76.5279 133.181 76.5478Z" fill="white"/>
<path d="M142.289 67.7555C142.08 68.0239 141.867 68.2897 141.664 68.562C140.865 69.6335 140.06 70.6996 139.275 71.7817C138.333 73.0826 137.307 74.3201 136.347 75.6079C135.964 76.1205 135.554 76.6118 135.154 77.1112C135.074 77.2111 134.98 77.2974 134.891 77.3893C134.857 77.4238 134.808 77.4328 134.775 77.4078C134.746 77.3867 134.721 77.3415 134.718 77.3061C134.709 77.2028 134.765 77.1171 134.807 77.0254C135.023 76.5599 135.305 76.1313 135.577 75.6992C136.201 74.7158 136.838 73.74 137.479 72.7669C137.736 72.3749 138.02 72.0012 138.29 71.6169C138.847 70.8273 139.402 70.0364 139.956 69.2442C140.322 68.7197 140.684 68.1928 141.048 67.6672C141.821 66.543 142.62 65.4373 143.443 64.3486C143.932 63.7024 144.403 63.043 144.892 62.3983C145.554 61.5272 146.236 60.6707 146.891 59.7944C147.496 58.9869 148.079 58.1621 148.669 57.3426C149.134 56.6972 149.601 56.0516 150.056 55.3997C150.382 54.9342 150.732 54.4857 151.079 54.0346C151.632 53.3123 152.172 52.5794 152.717 51.852C152.973 51.5107 153.234 51.1733 153.485 50.8295C154.003 50.1165 154.518 49.4024 155.032 48.6854C155.866 47.5182 156.661 46.3221 157.55 45.1929C158.051 44.5575 158.499 43.8809 158.975 43.2241C159.183 42.9365 159.39 42.6474 159.611 42.369C160.461 41.3015 161.284 40.2128 162.166 39.172C162.461 38.8255 162.703 38.4364 163.022 38.1099C163.061 38.069 163.094 38.0227 163.136 37.9859C163.18 37.9475 163.235 37.9304 163.292 37.9607C163.354 37.9949 163.356 38.0602 163.333 38.1086C163.25 38.289 163.168 38.4709 163.068 38.6426C162.718 39.2443 162.361 39.8422 162.002 40.4389C161.869 40.6583 161.732 40.8737 161.578 41.0789C161.098 41.7138 160.694 42.401 160.211 43.0347C159.102 44.4944 158.011 45.9687 156.925 47.4455C156.419 48.132 155.945 48.8422 155.447 49.5339C154.782 50.4558 154.137 51.3921 153.442 52.2931C152.59 53.3964 151.845 54.5759 150.979 55.6687C150.547 56.2142 150.137 56.7756 149.769 57.3671L149.757 57.3816C149.264 58.0565 148.766 58.7304 148.275 59.4079C147.827 60.0294 147.388 60.659 146.943 61.2832C146.481 61.9313 146.016 62.5767 145.551 63.2221C145.095 63.8562 144.639 64.4903 144.177 65.1206C143.724 65.7395 143.259 66.3493 142.806 66.9682C142.631 67.2081 142.478 67.4622 142.316 67.7098C142.294 67.7148 142.284 67.7307 142.289 67.7555Z" fill="white"/>
<path d="M131.416 75.3467C131.495 75.1458 131.629 74.9797 131.749 74.8046C132.39 73.8657 133.037 72.9306 133.672 71.9879C134.345 70.9863 135.014 69.9808 135.673 68.9687C136.512 67.6836 137.403 66.4337 138.263 65.1644C139.052 64.0001 139.877 62.8607 140.65 61.6846C141.259 60.7591 141.918 59.8675 142.551 58.9576C143.183 58.0478 143.81 57.1326 144.438 56.2216C144.68 55.8713 144.92 55.5181 145.165 55.1704C145.959 54.0443 146.705 52.884 147.466 51.7358C147.772 51.2737 148.093 50.822 148.411 50.3677C148.99 49.5418 149.585 48.7263 150.147 47.8886C150.805 46.9109 151.435 45.9135 152.082 44.9265C152.331 44.5456 152.584 44.1689 152.847 43.7986C153.244 43.2445 153.626 42.6799 154.02 42.1231C155.112 40.5788 156.276 39.09 157.481 37.6332C158.097 36.8885 158.704 36.1374 159.315 35.3887C159.351 35.3451 159.381 35.2947 159.422 35.2566C159.464 35.2168 159.521 35.1935 159.577 35.2284C159.649 35.2721 159.657 35.3412 159.617 35.412C159.411 35.7694 159.21 36.1292 158.995 36.48C158.639 37.0615 158.277 37.6405 157.911 38.2155C157.651 38.6226 157.388 39.0272 157.112 39.4239C156.545 40.2412 155.979 41.0584 155.397 41.8652C154.565 43.0173 153.711 44.1521 152.883 45.3068C152.179 46.2874 151.493 47.2827 150.808 48.2764C149.92 49.5631 149.044 50.8563 148.157 52.143C147.768 52.7038 147.353 53.2463 146.968 53.8082C146.639 54.2889 146.325 54.78 145.985 55.2528C145.205 56.3374 144.441 57.4309 143.656 58.513C142.721 59.8013 141.821 61.1131 140.92 62.425C140.107 63.6079 139.322 64.809 138.511 65.9933C137.884 66.9071 137.273 67.8327 136.605 68.7177C136.469 68.8988 136.333 69.0828 136.249 69.2961L136.234 69.3214C136.204 69.351 136.17 69.3765 136.145 69.4101C135.631 70.1019 135.117 70.7937 134.608 71.488C134.357 71.8287 134.117 72.1775 133.873 72.5221C133.851 72.554 133.828 72.5844 133.806 72.6162C133.487 73.0261 133.169 73.4373 132.846 73.8459C132.419 74.3866 132.008 74.9406 131.527 75.4373C131.488 75.4053 131.451 75.3761 131.416 75.3467Z" fill="white"/>
<path d="M189.64 3.0195C189.631 3.05011 189.626 3.09518 189.604 3.12706C189.47 3.33026 189.301 3.50559 189.116 3.65861C188.437 4.2248 187.963 4.94092 187.569 5.72238C186.897 7.05403 186.172 8.35508 185.318 9.58363C184.791 10.3421 184.308 11.1305 183.777 11.8848C183.18 12.7319 182.55 13.5566 181.935 14.3919C181.573 14.8832 181.213 15.3773 180.847 15.8659C180.44 16.4121 180.026 16.9545 179.618 17.5022C179.22 18.0371 178.822 18.5734 178.429 19.1138C177.434 20.4807 176.419 21.8332 175.353 23.1459C174.448 24.2604 173.574 25.3985 172.669 26.5114C171.169 28.3505 169.695 30.2095 168.137 32.0006C167.913 32.257 167.717 32.5376 167.46 32.7659C167.374 32.8426 167.285 32.9091 167.162 32.9119C167.092 32.9141 167.019 32.8333 167.043 32.77C167.063 32.7175 167.093 32.6686 167.118 32.6186C167.347 32.1593 167.653 31.7477 167.945 31.3286C168.819 30.067 169.713 28.8212 170.658 27.6108C171.533 26.4918 172.376 25.3491 173.239 24.221C174.248 22.9003 175.273 21.5915 176.274 20.2641C177.181 19.0632 178.066 17.8451 178.963 16.6349C179.867 15.4135 180.771 14.1906 181.678 12.9719C181.848 12.7444 182.031 12.5275 182.206 12.3026C182.817 11.5183 183.425 10.7313 184.037 9.94683C184.378 9.50966 184.725 9.07783 185.069 8.64334C185.811 7.70518 186.469 6.71256 187.056 5.67172C187.328 5.189 187.621 4.72067 187.98 4.29361C188.284 3.93291 188.619 3.60934 189.014 3.34852C189.191 3.23041 189.354 3.09291 189.528 2.97065C189.563 2.94797 189.611 2.96425 189.64 3.0195Z" fill="white"/>
<path d="M182.662 14.0147C182.742 13.9 182.815 13.7814 182.9 13.6707C183.285 13.1712 183.672 12.6731 184.059 12.175C184.156 12.1508 184.197 12.089 184.184 11.9905C184.282 11.7847 184.439 11.621 184.582 11.4482C184.62 11.4014 184.684 11.3983 184.736 11.429C184.802 11.4673 184.84 11.5307 184.796 11.6048C184.699 11.7762 184.596 11.9437 184.497 12.1139C184.403 12.1466 184.368 12.214 184.384 12.3106C183.651 13.4919 182.958 14.7006 182.177 15.8522C181.403 16.9927 180.624 18.1279 179.837 19.2592C178.939 20.5544 178.039 21.8484 177.126 23.1331C176.129 24.533 175.124 25.9262 174.093 27.3025C172.739 29.1113 171.374 30.9093 169.898 32.6212C169.619 32.9439 169.332 33.2584 169.006 33.535C168.974 33.5618 168.943 33.593 168.905 33.6116C168.885 33.6209 168.847 33.6156 168.828 33.6025C168.808 33.5896 168.785 33.5531 168.789 33.5363C168.805 33.4828 168.826 33.4286 168.858 33.3825C169.533 32.3645 170.203 31.3439 170.886 30.331C171.274 29.7539 171.675 29.1846 172.084 28.6219C172.385 28.2078 172.634 27.7615 172.943 27.3527C173.423 26.7178 173.866 26.0566 174.332 25.4126C175.131 24.3068 175.935 23.2065 176.738 22.1034C177.507 21.0466 178.28 19.994 179.048 18.9358C179.323 18.557 179.589 18.1715 179.853 17.7834C180.261 17.1835 180.702 16.6104 181.159 16.0476C181.296 16.0062 181.374 15.9184 181.372 15.7699C181.758 15.248 182.144 14.7262 182.528 14.2045C182.633 14.1796 182.673 14.1148 182.662 14.0147Z" fill="white"/>
<path d="M172.939 20.1342C173.485 19.3204 174.077 18.5394 174.672 17.7596C175.224 17.0375 175.773 16.3125 176.336 15.5983C177.172 14.5381 178.01 13.4807 178.864 12.4352C179.897 11.1687 180.941 9.9117 181.992 8.66135C182.898 7.58409 183.858 6.55673 184.892 5.5997C185.131 5.37753 185.351 5.13479 185.617 4.9428C185.663 4.91014 185.707 4.87321 185.757 4.84764C185.775 4.83844 185.815 4.84658 185.833 4.86125C185.85 4.87592 185.867 4.91151 185.862 4.93138C185.852 4.97098 185.831 5.0117 185.806 5.04533C185.034 6.08298 184.308 7.15354 183.5 8.16346C182.78 9.06076 182.034 9.93833 181.281 10.8091C180.174 12.087 179.093 13.3863 177.993 14.6711C177.309 15.4698 176.61 16.255 175.924 17.051C175.293 17.7836 174.674 18.5241 174.043 19.2567C173.728 19.6215 173.399 19.9758 173.077 20.3337C172.979 20.3044 172.955 20.2219 172.939 20.1342Z" fill="white"/>
<path d="M168.91 37.6862C168.923 37.8233 168.934 37.9086 168.94 37.9929C168.945 38.0995 168.923 38.1894 168.808 38.2316C168.693 38.2738 168.58 38.2816 168.494 38.1842C168.41 38.0895 168.332 37.9884 168.262 37.882C167.928 37.3694 167.542 36.8988 167.139 36.4405C166.855 36.1194 166.515 35.8617 166.199 35.5765C165.149 34.6293 163.98 33.8541 162.716 33.2295C161.901 32.8282 161.066 32.4733 160.154 32.3462C160.065 32.3338 160.027 32.272 160.061 32.1973C160.287 31.6953 160.222 31.7029 160.768 31.7044C161.181 31.7052 161.586 31.7871 161.982 31.9025C162.874 32.1625 163.692 32.5799 164.485 33.0577C165.253 33.5214 165.95 34.0768 166.631 34.659C167.227 35.1689 167.742 35.7535 168.251 36.3447C168.445 36.5702 168.6 36.8247 168.736 37.0929C168.839 37.2973 168.923 37.5036 168.91 37.6862Z" fill="white"/>
<path d="M159.907 33.5605C160.393 33.5245 160.869 33.6665 161.336 33.8377C162.505 34.2662 163.573 34.8784 164.554 35.6447C165.215 36.1619 165.874 36.6807 166.444 37.3003C166.895 37.7928 167.319 38.3057 167.601 38.923C167.72 39.181 167.695 39.4199 167.54 39.6475C167.5 39.7048 167.444 39.7518 167.387 39.7915C167.278 39.8673 167.165 39.8528 167.081 39.7567C167.045 39.7141 167.012 39.6666 166.983 39.6187C166.593 38.9314 166.057 38.3652 165.497 37.8191C165.293 37.6213 165.08 37.4319 164.884 37.2275C164.635 36.9715 164.367 36.7367 164.074 36.5371C163.251 35.9788 162.446 35.3951 161.582 34.9003C160.975 34.5536 160.324 34.3092 159.678 34.0509C159.64 34.0353 159.596 34.0305 159.557 34.0134C159.481 33.9805 159.453 33.9192 159.475 33.8412C159.526 33.6519 159.61 33.5814 159.802 33.5631C159.827 33.5607 159.856 33.5609 159.907 33.5605Z" fill="white"/>
<path d="M186.473 8.75657C186.458 8.92022 186.408 9.02168 186.349 9.11956C186.083 9.55706 185.816 9.99309 185.55 10.4291C185.528 10.4654 185.505 10.5019 185.477 10.5343C185.435 10.5799 185.38 10.5927 185.325 10.5622C185.27 10.5317 185.248 10.4787 185.266 10.419C185.279 10.3791 185.307 10.3437 185.33 10.3087C185.601 9.89161 185.874 9.4758 186.145 9.05865C186.222 8.94125 186.29 8.81571 186.473 8.75657Z" fill="white"/>
<path d="M172.939 20.1348C172.955 20.2226 172.978 20.3052 173.079 20.3328C172.846 20.6733 172.575 20.9819 172.296 21.2837C172.27 21.2029 172.246 21.1204 172.221 21.0395C172.45 20.7305 172.658 20.4041 172.939 20.1348Z" fill="white"/>
<path d="M131.882 72.888C131.848 72.8302 131.813 72.7726 131.779 72.7148C131.855 72.6362 131.932 72.5559 132.008 72.4773L132.017 72.4674C132.096 72.4629 132.174 72.4569 132.251 72.4526C132.147 72.6142 132.06 72.7892 131.882 72.888Z" fill="white"/>
<path d="M171.699 22.0005C171.644 22.1129 171.568 22.2064 171.453 22.2606C171.433 22.2699 171.394 22.2721 171.381 22.2599C171.366 22.2465 171.363 22.2096 171.368 22.1883C171.401 22.0661 171.479 21.9739 171.579 21.8989C171.603 21.9516 171.642 21.9866 171.699 22.0005Z" fill="white"/>
<path d="M185.077 11.1628C185.046 11.2283 184.974 11.3794 184.843 11.4916C184.821 11.51 184.762 11.5023 184.728 11.4891C184.673 11.4662 184.639 11.4114 184.662 11.3527C184.718 11.2075 184.797 11.0734 184.917 10.9713C184.94 10.9527 184.999 10.959 185.032 10.9737C185.064 10.9884 185.111 11.0122 185.077 11.1628Z" fill="white"/>
<path d="M171.916 21.7285C171.893 21.8408 171.81 21.9053 171.725 21.9714C171.682 21.9398 171.639 21.9082 171.596 21.8766C171.669 21.7417 171.743 21.6082 171.876 21.5211C171.89 21.5897 171.903 21.6583 171.916 21.7285Z" fill="white"/>
<path d="M163.598 28.9314C163.627 28.753 163.728 28.6332 163.891 28.5627C163.831 28.7157 163.736 28.8408 163.598 28.9314Z" fill="white"/>
<path d="M163.12 29.5492C163.092 29.6634 163.017 29.7495 162.933 29.8229C162.911 29.8429 162.85 29.8413 162.823 29.8245C162.794 29.8064 162.765 29.7496 162.775 29.7235C162.834 29.5646 162.929 29.426 163.034 29.2955C163.062 29.3792 163.091 29.4642 163.12 29.5492Z" fill="white"/>
<path d="M162.709 30.0881C162.684 30.1188 162.662 30.1565 162.631 30.1773C162.582 30.2088 162.52 30.2207 162.484 30.1616C162.466 30.1321 162.47 30.0767 162.485 30.044C162.5 30.0114 162.542 29.9909 162.573 29.9657C162.595 30.032 162.647 30.0642 162.709 30.0881Z" fill="white"/>
<path d="M181.375 15.7703C181.377 15.9189 181.299 16.0066 181.162 16.048C181.193 15.9245 181.271 15.8382 181.375 15.7703Z" fill="white"/>
<path d="M172.219 21.0396C172.245 21.1205 172.269 21.203 172.295 21.2839C172.267 21.349 172.228 21.4078 172.159 21.4262C172.126 21.4353 172.076 21.4223 172.044 21.403C172.011 21.3823 171.992 21.3351 172.019 21.2968C172.084 21.2102 172.153 21.1263 172.219 21.0396Z" fill="white"/>
<path d="M184.387 12.3092C184.37 12.2126 184.405 12.1453 184.499 12.1125C184.497 12.199 184.464 12.2676 184.387 12.3092Z" fill="white"/>
<path d="M184.185 11.9904C184.198 12.0889 184.158 12.1508 184.06 12.1749C184.065 12.0881 184.107 12.0262 184.185 11.9904Z" fill="white"/>
<path d="M185.324 10.7076C185.321 10.7213 185.319 10.7348 185.315 10.7487C185.291 10.8312 185.266 10.9095 185.161 10.9241C185.108 10.9321 185.075 10.898 185.06 10.8682C185.021 10.7901 185.072 10.687 185.17 10.6331C185.204 10.6149 185.247 10.5974 185.28 10.6434C185.295 10.6657 185.309 10.6867 185.324 10.7076Z" fill="white"/>
<path d="M131.27 75.5569C131.286 75.4646 131.331 75.3919 131.415 75.3438C131.452 75.373 131.487 75.4023 131.524 75.433C131.51 75.5028 131.457 75.5435 131.406 75.5856C131.361 75.5765 131.315 75.5675 131.27 75.5569Z" fill="white"/>
<path d="M131.271 75.5553C131.316 75.5644 131.362 75.5749 131.407 75.5839C131.387 75.687 131.299 75.6701 131.229 75.6842C131.232 75.6646 131.223 75.6521 131.203 75.648C131.21 75.6072 131.213 75.5623 131.271 75.5553Z" fill="white"/>
<path d="M182.662 14.0133C182.673 14.1134 182.633 14.1797 182.531 14.2013C182.544 14.1168 182.576 14.0468 182.662 14.0133Z" fill="white"/>
<path d="M163.12 29.5509C163.091 29.4659 163.062 29.3808 163.033 29.2958C163.023 29.2492 163.041 29.2237 163.09 29.2205C163.1 29.3266 163.112 29.4341 163.122 29.5403L163.12 29.5509Z" fill="white"/>
<path d="M171.916 21.7305C171.904 21.6617 171.89 21.5917 171.877 21.5229C171.948 21.4298 172.025 21.4255 172.106 21.51C172.051 21.5346 172.015 21.5768 171.998 21.6364C171.971 21.6672 171.943 21.6996 171.916 21.7305Z" fill="white"/>
<path d="M171.997 21.6345C172.012 21.5751 172.049 21.5329 172.106 21.5081C172.1 21.5771 172.071 21.6245 171.997 21.6345Z" fill="white"/>
<path d="M156.974 53.3756L156.978 53.3391C156.975 53.3739 156.973 53.3861 156.974 53.3756Z" fill="white"/>
<path d="M162.708 30.0893C162.646 30.0655 162.594 30.0318 162.57 29.9657C162.729 29.9148 162.74 29.9256 162.708 30.0893Z" fill="white"/>
<path d="M131.708 72.7716C131.694 72.8236 131.664 72.8547 131.607 72.8482C131.62 72.7949 131.655 72.7722 131.708 72.7716Z" fill="white"/>
<path d="M171.698 22.0012C171.642 21.9872 171.603 21.9523 171.578 21.8995L171.595 21.8771C171.639 21.9087 171.682 21.9402 171.725 21.9718C171.725 21.9882 171.716 21.9995 171.698 22.0012Z" fill="white"/>
<path d="M124.771 86.4265C125.355 86.5761 125.871 86.8661 126.372 87.1932C126.921 87.5514 127.442 87.9436 127.929 88.3836C128.153 88.5868 128.335 88.8194 128.44 89.107C128.454 89.1473 128.477 89.1853 128.484 89.2263C128.497 89.3068 128.537 89.3952 128.445 89.4576C128.376 89.5043 128.283 89.4582 128.208 89.3419C128.117 89.2003 128.058 89.0363 127.912 88.9297C127.746 88.8087 127.581 88.811 127.473 88.9835C127.298 89.259 127.125 89.5389 126.985 89.8334C126.555 90.7448 126.107 91.6489 125.766 92.5994C125.654 92.9106 125.461 93.1091 125.138 93.2395C124.416 93.5315 123.69 93.8196 122.993 94.1732C122.456 94.4446 121.972 94.7809 121.537 95.1988C121.168 95.5538 120.797 95.9061 120.486 96.3137C120.341 96.5061 120.218 96.7157 120.076 96.9107C119.963 97.0673 119.885 97.0733 119.714 96.969C119.691 96.9535 119.667 96.9379 119.643 96.9223C119.474 96.803 119.458 96.7495 119.563 96.5728C119.724 96.3046 119.897 96.0441 120.054 95.7732C120.573 94.8802 120.889 93.9112 121.104 92.9058C121.172 92.5869 121.235 92.2655 121.296 91.9459C121.411 91.3428 121.44 90.7315 121.43 90.1225C121.423 89.775 121.549 89.5636 121.83 89.394C122.193 89.1719 122.558 88.9481 122.897 88.6926C123.577 88.177 124.213 87.6105 124.799 86.9877C124.829 86.9566 124.859 86.927 124.885 86.8932C124.953 86.8079 124.953 86.741 124.88 86.6705C124.728 86.5214 124.58 86.3778 124.329 86.4404C124.213 86.4694 124.063 86.4599 123.996 86.3175C123.925 86.1681 123.984 86.0419 124.092 85.9335C124.131 85.8925 124.17 85.8501 124.213 85.8133C124.88 85.2304 125.429 84.5413 125.974 83.8481C126.827 82.7639 127.597 81.6208 128.379 80.4855C128.822 79.8422 129.272 79.2026 129.65 78.5179C129.677 78.4692 129.708 78.4186 129.744 78.3765C129.792 78.3228 129.851 78.2815 129.931 78.3125C130.198 78.4135 130.459 78.5226 130.655 78.7433C130.78 78.8846 130.819 79.0386 130.754 79.2159C130.656 79.4841 130.514 79.7312 130.36 79.9706C129.382 81.4921 128.257 82.9013 127.081 84.275C126.74 84.675 126.375 85.0536 125.968 85.3899C125.649 85.6539 125.31 85.8842 124.935 86.0612C124.873 86.091 124.816 86.1351 124.757 86.1734C124.655 86.1921 124.558 86.2356 124.575 86.3515C124.59 86.4527 124.685 86.4496 124.771 86.4265ZM124.923 91.5C124.904 91.4215 124.809 91.38 124.743 91.4161C124.509 91.541 124.278 91.6717 124.049 91.8051C123.976 91.8478 123.977 91.9191 124.023 91.9846C124.063 92.0418 124.106 92.0988 124.152 92.1494C124.194 92.1945 124.26 92.209 124.305 92.175C124.527 92.005 124.762 91.8487 124.909 91.6011C124.928 91.568 124.921 91.5196 124.923 91.5ZM123.118 91.7154C123.103 91.6841 123.099 91.6503 123.081 91.6356C122.888 91.4874 122.622 91.5232 122.486 91.7118C122.409 91.8158 122.367 91.9344 122.348 92.0612C122.34 92.117 122.347 92.1729 122.397 92.2127C122.447 92.2526 122.502 92.2518 122.554 92.226C122.628 92.1877 122.722 92.1579 122.765 92.0943C122.847 91.9749 122.947 91.8894 123.072 91.8225C123.099 91.808 123.104 91.7495 123.118 91.7154ZM123.98 91.0009C123.946 90.8672 123.858 90.7968 123.763 90.7345C123.667 90.6707 123.567 90.6788 123.494 90.7601C123.447 90.8122 123.405 90.8713 123.371 90.9326C123.284 91.0926 123.318 91.2188 123.477 91.3376C123.581 91.4169 123.662 91.3987 123.807 91.2629C123.858 91.2149 123.911 91.1652 123.952 91.1092C123.974 91.0774 123.974 91.0297 123.98 91.0009ZM123.636 92.572C123.688 92.5537 123.743 92.541 123.791 92.5141C123.875 92.4689 123.994 92.4441 123.998 92.3321C124 92.2427 123.899 92.2078 123.83 92.1622C123.654 92.0466 123.631 92.0474 123.466 92.1791C123.433 92.2046 123.401 92.2314 123.371 92.2611C123.278 92.3548 123.304 92.4802 123.432 92.5231C123.495 92.5453 123.564 92.5551 123.636 92.572Z" fill="white"/>
<path d="M129.014 88.3341C128.976 88.0076 129.034 87.7075 129.182 87.4196C129.343 87.1037 129.499 86.7853 129.689 86.4845C130.189 85.6914 130.711 84.9141 131.246 84.1445C131.984 83.0818 132.767 82.0535 133.561 81.033C133.683 80.8771 133.79 80.7076 133.905 80.5464C133.979 80.4441 134.045 80.3367 134.15 80.2552C134.274 80.1571 134.267 80.0953 134.156 79.975C133.922 79.725 133.656 79.5109 133.376 79.3174C132.4 78.6444 131.336 78.1419 130.225 77.7391C130.172 77.7203 130.112 77.7156 130.061 77.6922C129.994 77.6614 129.938 77.6072 129.953 77.527C129.967 77.4513 130.028 77.3978 130.105 77.4054C130.245 77.4188 130.386 77.438 130.523 77.4711C130.912 77.5679 131.272 77.7403 131.621 77.9302C132.331 78.3177 133.026 78.7349 133.666 79.2347C134.014 79.5064 134.341 79.7981 134.624 80.1401C134.76 80.3041 134.914 80.4516 135.056 80.6107C135.131 80.6943 135.137 80.7919 135.071 80.8844C135.004 80.9756 134.931 81.063 134.855 81.1475C134.247 81.8453 133.758 82.6314 133.218 83.3792C132.935 83.7706 132.651 84.1622 132.383 84.5627C131.75 85.5053 131.126 86.456 130.495 87.3999C130.211 87.8242 129.932 88.254 129.604 88.6469C129.532 88.7341 129.457 88.8216 129.376 88.8992C129.277 88.9964 129.167 88.9638 129.118 88.8227C129.058 88.6633 128.998 88.5009 129.014 88.3341Z" fill="white"/>
<path d="M1 103.339C3.16507 103.061 4.75776 102.047 6.55556 100.839C9.27789 99.0093 12.0327 97.1311 14.4167 94.8663C17.3518 92.078 19.7659 89.0743 23.0833 86.6997C24.3435 85.7977 26.1991 85.5767 27.4583 86.6959C28.4409 87.5693 27.0271 89.9816 26.9861 91.0886C26.8618 94.4456 23.5815 102.29 27.4583 104.422C29.1716 105.364 30.6352 99.4602 32 99.0052C33.3558 98.5533 35.2764 99.1296 36.4722 99.7275C37.5106 100.247 38.6887 99.6773 39.8056 100.2C41.3386 100.917 43.1692 100.387 44.75 100.116C46.8928 99.7498 49.0255 99.3259 51.1667 98.9497C52.9458 98.6371 55.5356 97.8353 57.4167 98.0886C58.2372 98.199 57.6166 99.4523 58.5833 99.4775C59.966 99.5134 61.7657 98.3885 63.0833 99.0052C64.5326 99.6836 65.1082 100.995 66.9167 101.144C68.6506 101.287 70.051 100.305 71.6944 100.089C73.895 99.799 75.971 99.5884 78.1944 99.8663C91.2011 101.492 104.21 100.009 116.75 96.3386" stroke="white" stroke-linecap="round"/>
</svg>
