<svg width="25" height="26" viewBox="0 0 25 26" fill="none" xmlns="http://www.w3.org/2000/svg">
<path d="M23.7504 13.3398C23.6458 13.1257 23.6458 12.8802 23.7504 12.6662L24.7203 10.682C25.2603 9.57717 24.8325 8.26038 23.7462 7.68404L21.7953 6.6489C21.5848 6.53726 21.4405 6.33856 21.3993 6.10395L21.0178 3.92857C20.8053 2.71738 19.6849 1.90348 18.4676 2.07572L16.2808 2.38504C16.0448 2.41836 15.8114 2.34248 15.6402 2.17685L14.0529 0.641296C13.1691 -0.21374 11.7845 -0.213791 10.9007 0.641296L9.31331 2.177C9.14204 2.34268 8.90865 2.41841 8.67267 2.3852L6.48591 2.07587C5.26817 1.90353 4.1482 2.71753 3.93574 3.92872L3.55419 6.104C3.51299 6.33866 3.36869 6.53731 3.15826 6.649L1.20733 7.68415C0.121089 8.26044 -0.306785 9.57732 0.233238 10.6821L1.20312 12.6663C1.30775 12.8803 1.30775 13.1259 1.20312 13.3399L0.233187 15.3241C-0.306836 16.4288 0.121038 17.7456 1.20728 18.322L3.15821 19.3571C3.36869 19.4688 3.51299 19.6675 3.55419 19.9021L3.93574 22.0774C4.12915 23.18 5.0746 23.9533 6.1612 23.9532C6.26822 23.9532 6.37681 23.9457 6.48596 23.9302L8.67272 23.6209C8.90855 23.5874 9.14209 23.6635 9.31336 23.8291L10.9007 25.3647C11.3427 25.7922 11.9096 26.006 12.4768 26.0059C13.0437 26.0059 13.611 25.7921 14.0528 25.3647L15.6402 23.8291C15.8115 23.6635 16.0449 23.5878 16.2808 23.6209L18.4676 23.9302C19.6855 24.1025 20.8053 23.2886 21.0178 22.0774L21.3994 19.9021C21.4406 19.6675 21.5849 19.4688 21.7953 19.3571L23.7462 18.322C24.8325 17.7457 25.2603 16.4288 24.7203 15.324L23.7504 13.3398ZM9.47692 6.25343C10.9932 6.25343 12.2268 7.48702 12.2268 9.00327C12.2268 10.5195 10.9932 11.7531 9.47692 11.7531C7.96067 11.7531 6.72708 10.5195 6.72708 9.00327C6.72708 7.48702 7.96067 6.25343 9.47692 6.25343ZM8.05758 18.4827C7.91114 18.6291 7.7192 18.7024 7.52731 18.7024C7.33541 18.7024 7.14342 18.6292 6.99704 18.4827C6.70417 18.1898 6.70417 17.715 6.99704 17.4221L16.8959 7.52324C17.1887 7.23037 17.6636 7.23037 17.9565 7.52324C18.2493 7.8161 18.2493 8.29096 17.9565 8.58383L8.05758 18.4827ZM15.4765 19.7526C13.9602 19.7526 12.7267 18.519 12.7267 17.0027C12.7267 15.4865 13.9602 14.2529 15.4765 14.2529C16.9927 14.2529 18.2263 15.4865 18.2263 17.0027C18.2263 18.519 16.9927 19.7526 15.4765 19.7526Z" fill="#1C529E"/>
<path d="M15.4772 15.7532C14.788 15.7532 14.2273 16.3139 14.2273 17.0031C14.2273 17.6923 14.788 18.253 15.4772 18.253C16.1664 18.253 16.7271 17.6923 16.7271 17.0031C16.7271 16.3139 16.1664 15.7532 15.4772 15.7532Z" fill="#1C529E"/>
<path d="M9.47646 7.75293C8.78726 7.75293 8.22656 8.31363 8.22656 9.00282C8.22656 9.69202 8.78726 10.2528 9.47646 10.2528C10.1657 10.2528 10.7264 9.69208 10.7264 9.00282C10.7264 8.31368 10.1657 7.75293 9.47646 7.75293Z" fill="#1C529E"/>
</svg>
