<svg width="896" height="530" viewBox="0 0 896 530" fill="none" xmlns="http://www.w3.org/2000/svg">
<g filter="url(#filter0_d_33_10)">
<rect x="199.34" y="62.1484" width="582" height="444.571" rx="10" fill="white"/>
</g>
<path d="M757.913 452.604C749.101 442.229 742.862 424.922 745.337 409.234C749.501 382.757 775.639 365.497 766.425 339.168C764.105 332.536 759.653 327.886 754.29 325.551C740.174 319.413 722.671 329.259 710.96 339.239C703.479 345.619 697.065 353.554 691.718 363.052L675.444 316.551C688.526 300.875 706.431 289.755 725.471 283.093C764.49 269.44 799.203 276.257 812.862 315.286C825.319 350.882 805.008 373.471 793.328 395.995C786.845 408.498 786.831 416.811 789.915 425.624C791.511 430.179 794.774 435.463 798.543 438.384L757.909 452.601L757.913 452.604ZM803.67 509.981C765.745 523.252 747.516 472.406 785.829 459.001C823.567 445.795 841.451 496.764 803.67 509.981Z" fill="#1164E9"/>
<path d="M123.96 113.152H30.7498C13.9549 113.152 0.339844 126.767 0.339844 143.562V162.872C0.339844 179.667 13.9549 193.282 30.7498 193.282H123.96C140.755 193.282 154.37 179.667 154.37 162.872V143.562C154.37 126.767 140.755 113.152 123.96 113.152Z" fill="white"/>
<path d="M39.6276 150.633C39.6276 153.893 36.6477 156.543 32.9877 156.543C29.3277 156.543 26.3477 153.903 26.3477 150.633C26.3477 147.363 29.3277 144.723 32.9877 144.723C36.6477 144.723 39.6276 147.363 39.6276 150.633Z" fill="#1164E9"/>
<path d="M70.5378 150.633C70.5378 153.893 67.5678 156.543 63.8978 156.543C60.2278 156.543 57.2578 153.903 57.2578 150.633C57.2578 147.363 60.2278 144.723 63.8978 144.723C67.5678 144.723 70.5378 147.363 70.5378 150.633Z" fill="#1164E9"/>
<path d="M101.458 150.633C101.458 153.893 98.4877 156.543 94.8177 156.543C91.1477 156.543 88.1777 153.903 88.1777 150.633C88.1777 147.363 91.1577 144.723 94.8177 144.723C98.4777 144.723 101.458 147.363 101.458 150.633Z" fill="#1164E9"/>
<path d="M320.612 25.5011L313.13 33.8949L320.469 41.368L313.46 49.9621L319.596 57.9721L315.405 65.2549L319.089 67.3755L324.702 57.6355L318.884 50.0463L326.177 41.1027L318.953 33.7544L325.74 26.1509L320.612 25.5011Z" fill="#1164E9"/>
<path d="M204.544 76.2351L197.724 76.9L195.447 66.0454L185.36 65.7885L182.327 57.9449L178.362 59.4817L182.415 69.9695L191.976 70.2178L194.349 81.5026L204.605 80.5074L204.544 76.2351Z" fill="#1164E9"/>
<path d="M248.455 22.0066C267.466 15.0182 286.985 35.0173 279.124 53.4706C277.715 56.784 277.677 60.5728 278.868 64.1096L282.964 76.2686C284.092 79.6174 282.459 83.1203 279.207 84.3163L272.005 86.9614C268.753 88.1574 264.974 86.6416 263.327 83.4822C257.311 71.9514 255.921 67.3189 249.311 64.4312C229.969 55.9715 229.435 29.0005 248.453 22.0137L248.455 22.0066Z" fill="#FFC839"/>
<path d="M251.667 49.4762C250.721 49.484 249.664 49.4509 248.641 49.3049C242.75 48.4635 241.791 43.5379 243.825 41.532C245.126 40.2475 247.474 40.1488 249.374 41.5016C251.079 42.7115 252.043 44.7161 253.146 46.7681C256.562 46.5917 259.848 45.8341 262.929 44.5234C260.978 38.5306 263.582 35.1692 266.505 35.5886C268.384 35.8569 270.009 37.4786 270.371 39.442C270.589 40.6176 270.591 43.5171 266.225 45.9425C270.435 56.2705 277.012 70.0074 277.025 70.0482L274.643 71.045C274.643 71.045 268.093 57.3522 263.884 47.0545C260.924 48.2953 257.785 49.0717 254.534 49.354C261.03 61.5169 265.954 72.0553 266.132 72.4286L263.742 73.4237C263.368 72.6577 258.638 62.4585 251.672 49.485L251.667 49.4762ZM245.622 43.5861C245.141 44.2976 245.526 46.5836 250.22 46.786C248.705 43.9669 247.968 43.0414 245.622 43.5861ZM265.274 43.3596C266.92 42.3812 268.585 40.6977 267.434 39.0497C265.96 36.9346 264.006 39.0194 265.274 43.3596Z" fill="#FCFCFC"/>
<path d="M278.775 63.7937C278.805 63.8913 278.832 64.0033 278.862 64.1009L282.959 76.2598C284.087 79.6086 282.454 83.1115 279.202 84.3075L271.999 86.9527C268.748 88.1486 264.969 86.6328 263.321 83.4734C260.642 78.3463 258.885 74.5804 257.174 71.7308L278.775 63.7937Z" fill="#9E9E9E"/>
<path d="M212.384 48.3683C214.905 48.1738 217.434 47.981 219.955 47.7864C221.931 47.6319 225.019 47.8931 226.48 46.3434C226.841 45.9587 226.897 45.1941 226.434 44.8454C224.676 43.5026 221.872 44.1982 219.809 44.3703C217.285 44.5792 214.76 44.788 212.237 44.9896C210.081 45.1705 210.201 48.5354 212.377 48.3666L212.384 48.3683Z" fill="#FFC839"/>
<path d="M215.597 22.8812C227.73 29.7037 227.328 29.6484 228.718 29.6756C229.802 29.6921 230.436 28.3515 229.875 27.4818C229.163 26.381 229.377 26.6645 217.178 19.9626C215.303 18.9324 213.732 21.8383 215.597 22.8812Z" fill="#FFC839"/>
<path d="M247.912 15.0333C247.356 12.5415 246.794 10.0409 246.238 7.54919C245.74 5.32762 245.576 2.5791 244.079 0.790948C243.423 0.00497814 242.179 0.585487 241.953 1.43168C241.374 3.6384 242.526 6.39621 243.017 8.54831C243.588 11.0434 244.153 13.5296 244.723 16.0247C245.205 18.1216 248.374 17.1181 247.905 15.0316L247.912 15.0333Z" fill="#FFC839"/>
<path d="M285.296 31.4324C288.802 29.8198 292.376 28.2077 295.696 26.2273C297.483 25.1608 295.812 22.6227 294.01 23.5271C290.547 25.2782 287.143 27.1031 283.629 28.7515C281.79 29.6174 283.482 32.2585 285.298 31.4252L285.296 31.4324Z" fill="#FFC839"/>
<path d="M272.079 19.4429C273.47 17.5751 274.802 15.6638 276.123 13.7419C277.321 11.9881 279.206 10.0081 279.389 7.84582C279.488 6.69854 278.035 6.22641 277.21 6.69244C276.169 7.2747 276.137 7.70529 273.305 11.8897C272.03 13.7768 270.716 15.6397 269.454 17.5374C268.444 19.063 270.967 20.9222 272.08 19.4358L272.079 19.4429Z" fill="#FFC839"/>
<path d="M515.08 23.6684L509.34 37.8384L522.17 44.0384L517.13 58.2484L528.66 65.6884L526.63 76.9384L532.32 77.9584L535.03 62.9184L524.11 55.8684L529.35 41.0884L516.74 34.9884L521.94 22.1484L515.08 23.6684Z" fill="#1164E9"/>
<path d="M815.396 401.627C815.139 401.332 814.738 401.213 814.361 401.314C812.518 401.809 809.183 401.069 807.534 400.492L805.734 391.596C807.032 390.423 809.816 388.442 811.709 388.185C812.098 388.135 812.418 387.865 812.543 387.495L814.819 380.73C814.944 380.36 814.844 379.953 814.568 379.677C813.214 378.329 812.192 375.069 811.866 373.351L818.675 367.345C820.336 367.884 823.446 369.307 824.612 370.818C824.85 371.125 825.245 371.276 825.628 371.194L832.619 369.784C833.001 369.708 833.308 369.42 833.402 369.044C833.891 367.201 836.205 364.68 837.528 363.539L846.13 366.429C846.499 368.141 846.819 371.545 846.092 373.307C845.941 373.665 846.017 374.078 846.274 374.373L850.995 379.721C851.252 380.016 851.653 380.135 852.029 380.034C853.873 379.539 857.208 380.279 858.857 380.856L860.65 389.752C859.352 390.925 856.568 392.906 854.675 393.163C854.293 393.213 853.967 393.483 853.841 393.853L851.565 400.618C851.44 400.988 851.54 401.395 851.816 401.671C853.17 403.019 854.192 406.279 854.518 407.997L847.71 414.003C846.048 413.464 842.938 412.041 841.772 410.53C841.534 410.223 841.139 410.072 840.763 410.154L833.772 411.564C833.39 411.64 833.089 411.928 832.988 412.304C832.499 414.147 830.186 416.668 828.863 417.809L820.261 414.919C819.891 413.207 819.571 409.809 820.299 408.041C820.449 407.684 820.374 407.27 820.117 406.975L815.396 401.627ZM834.963 399.439C839.804 398.461 842.932 393.746 841.954 388.906C840.976 384.066 836.261 380.937 831.421 381.915C826.581 382.893 823.452 387.608 824.43 392.448C825.408 397.288 830.123 400.417 834.963 399.439ZM836.098 405.063C844.042 403.458 849.177 395.721 847.572 387.777C845.967 379.834 838.23 374.699 830.286 376.298C822.343 377.903 817.208 385.64 818.807 393.583C820.412 401.527 828.148 406.662 836.092 405.063H836.098Z" fill="#1164E9"/>
<path d="M873.176 433.477C873.257 433.176 873.495 432.95 873.796 432.887L879.333 431.771C879.633 431.709 879.947 431.828 880.135 432.072C881.057 433.27 883.521 434.398 884.837 434.818L890.229 430.066C889.972 428.706 889.157 426.122 888.091 425.057C887.872 424.837 887.797 424.517 887.897 424.223L889.696 418.868C889.797 418.574 890.047 418.367 890.355 418.323C891.853 418.122 894.06 416.555 895.088 415.627L893.665 408.58C892.361 408.122 889.715 407.533 888.254 407.928C887.96 408.009 887.64 407.915 887.433 407.683L883.696 403.445C883.496 403.213 883.439 402.887 883.552 402.599C884.129 401.201 883.872 398.505 883.583 397.15L876.775 394.862C875.727 395.765 873.897 397.759 873.508 399.219C873.427 399.52 873.188 399.746 872.887 399.809L867.351 400.925C867.05 400.987 866.737 400.868 866.549 400.624C865.627 399.426 863.163 398.298 861.847 397.878L856.455 402.63C856.712 403.991 857.52 406.574 858.593 407.64C858.812 407.859 858.887 408.179 858.787 408.473L856.988 413.828C856.887 414.122 856.63 414.329 856.329 414.373C854.831 414.574 852.624 416.141 851.596 417.069L853.019 424.116C854.323 424.574 856.969 425.163 858.43 424.768C858.724 424.687 859.044 424.781 859.251 425.013L862.988 429.251C863.195 429.483 863.245 429.809 863.132 430.097C862.561 431.495 862.812 434.191 863.1 435.546L869.909 437.834C870.956 436.931 872.787 434.938 873.176 433.477ZM875.082 424.981C870.317 425.941 865.671 422.862 864.705 418.091C863.74 413.326 866.825 408.68 871.596 407.715C876.361 406.749 881.007 409.834 881.966 414.605C882.931 419.37 879.847 424.016 875.075 424.981H875.082Z" fill="#1164E9"/>
<path d="M598.479 39.6396L592.34 26.5453L597.438 24.1484L600.925 31.5748L609.422 26.4274L612.34 31.2506L598.479 39.6396Z" fill="#1164E9"/>
<path d="M202.14 116.422L199.32 110.872L192.97 111.092L190.25 104.642L183.56 106.952L180.16 99.7924L173.74 101.162L169.34 94.8123L171.75 93.1523L175.03 97.9023L181.81 96.4524L185.08 103.332L191.88 100.982L194.88 108.102L201.08 107.882L203.69 113.032L207.74 112.042L208.43 114.882L202.14 116.422Z" fill="#1164E9"/>
<defs>
<filter id="filter0_d_33_10" x="184.64" y="49.4484" width="615.4" height="477.971" filterUnits="userSpaceOnUse" color-interpolation-filters="sRGB">
<feFlood flood-opacity="0" result="BackgroundImageFix"/>
<feColorMatrix in="SourceAlpha" type="matrix" values="0 0 0 0 0 0 0 0 0 0 0 0 0 0 0 0 0 0 127 0" result="hardAlpha"/>
<feMorphology radius="4" operator="dilate" in="SourceAlpha" result="effect1_dropShadow_33_10"/>
<feOffset dx="2" dy="4"/>
<feGaussianBlur stdDeviation="6.35"/>
<feComposite in2="hardAlpha" operator="out"/>
<feColorMatrix type="matrix" values="0 0 0 0 0 0 0 0 0 0 0 0 0 0 0 0 0 0 0.25 0"/>
<feBlend mode="normal" in2="BackgroundImageFix" result="effect1_dropShadow_33_10"/>
<feBlend mode="normal" in="SourceGraphic" in2="effect1_dropShadow_33_10" result="shape"/>
</filter>
</defs>
</svg>
