<svg width="1950" height="320" viewBox="0 0 1950 320" fill="none" xmlns="http://www.w3.org/2000/svg">
<rect x="1734.39" y="59.3166" width="198.71" height="120.833" stroke="#1358BF" stroke-width="2.78952"/>
<path d="M1733 38.0743C1733 28.679 1740.62 21.0625 1750.01 21.0625H1917.49C1926.88 21.0625 1934.5 28.6789 1934.5 38.0743V60.1158H1733V38.0743Z" fill="url(#paint0_linear_62_2063)" fill-opacity="0.42"/>
<circle cx="1752.44" cy="40.0807" r="5.9205" fill="#2070E1"/>
<circle cx="1769.84" cy="40.0807" r="5.9205" fill="#2070E1"/>
<circle cx="1787.23" cy="40.7769" r="5.9205" fill="#2070E1"/>
<rect x="1752.45" y="80.0674" width="55.8756" height="49.221" rx="3.3713" fill="#6FAAE0"/>
<rect x="1827.54" y="84.4707" width="80.9993" height="4.41242" rx="2.20621" fill="#0056B3"/>
<rect x="1825.97" y="122.292" width="80.9993" height="4.41242" rx="2.20621" fill="#0056B3"/>
<rect x="1827.54" y="97.0771" width="69.9683" height="4.41242" rx="2.20621" fill="#0056B3"/>
<rect x="1825.97" y="134.899" width="69.9683" height="4.41242" rx="2.20621" fill="#0056B3"/>
<rect x="1827.54" y="109.685" width="56.7311" height="4.41242" rx="2.20621" fill="#0056B3"/>
<rect x="1825.97" y="147.505" width="56.7311" height="4.41242" rx="2.20621" fill="#0056B3"/>
<rect x="1548.7" y="285.79" width="10.5126" height="11.2801" rx="0.5" transform="rotate(-50.2807 1548.7 285.79)" stroke="#361A84"/>
<path d="M1686.8 127.47L1699.32 124.343L1694.15 136.169L1686.8 127.47Z" stroke="#FFB27D" stroke-width="0.917779"/>
<rect x="1758.17" y="240.267" width="121.571" height="61.45" rx="3.32162" transform="rotate(0.422218 1758.17 240.267)" fill="#9A9EA6" fill-opacity="0.17"/>
<rect x="1763.91" y="245.081" width="110.367" height="48.9171" rx="1.20719" transform="rotate(0.422218 1763.91 245.081)" stroke="white" stroke-opacity="0.27" stroke-width="0.90725"/>
<circle cx="1771.7" cy="298.163" r="2.41403" transform="rotate(0.422218 1771.7 298.163)" fill="#FFAAAA" fill-opacity="0.36"/>
<path d="M1774.11 298.183L1873.67 298.75" stroke="#6E8FBE" stroke-width="0.90725"/>
<rect width="38.216" height="1.52301" rx="0.761505" transform="matrix(0.999973 0.00736904 0.00736904 -0.999973 1768.41 252.526)" fill="#D9D9D9" fill-opacity="0.4"/>
<rect width="38.216" height="1.52301" rx="0.761505" transform="matrix(0.999973 0.00736904 0.00736904 -0.999973 1768.28 270.333)" fill="#D9D9D9" fill-opacity="0.4"/>
<rect width="29.9374" height="1.52301" rx="0.761505" transform="matrix(0.999973 0.00736904 0.00736904 -0.999973 1768.23 276.01)" fill="#D9D9D9" fill-opacity="0.4"/>
<rect width="34.1334" height="1.52301" rx="0.761505" transform="matrix(0.999973 0.00736904 0.00736904 -0.999973 1768.19 281.688)" fill="#D9D9D9" fill-opacity="0.4"/>
<rect width="27.8961" height="1.52301" rx="0.761505" transform="matrix(0.999973 0.00736904 0.00736904 -0.999973 1768.15 287.362)" fill="#D9D9D9" fill-opacity="0.4"/>
<rect width="35.3809" height="1.52301" rx="0.761505" transform="matrix(0.999973 0.00736904 0.00736904 -0.999973 1768.37 258.082)" fill="#D9D9D9" fill-opacity="0.4"/>
<rect width="30.958" height="1.52301" rx="0.761505" transform="matrix(0.999973 0.00736904 0.00736904 -0.999973 1768.32 263.64)" fill="#D9D9D9" fill-opacity="0.4"/>
<rect x="1829.32" y="250.48" width="35.0425" height="31.4946" rx="2.26812" transform="rotate(0.422218 1829.32 250.48)" fill="white" fill-opacity="0.3"/>
<rect x="1829.05" y="286.471" width="35.0425" height="3.15544" rx="0.90725" transform="rotate(0.422218 1829.05 286.471)" fill="white" fill-opacity="0.3"/>
<path d="M1896.28 234.34C1896.48 234.149 1896.49 233.833 1896.3 233.633L1893.19 230.378C1893 230.178 1892.68 230.171 1892.48 230.361C1892.29 230.552 1892.28 230.869 1892.47 231.068L1895.23 233.962L1892.34 236.724C1892.14 236.914 1892.13 237.231 1892.32 237.431C1892.51 237.63 1892.83 237.638 1893.03 237.447L1896.28 234.34ZM1820.64 232.726L1895.93 234.478L1895.95 233.478L1820.66 231.727L1820.64 232.726Z" fill="url(#paint1_linear_62_2063)" fill-opacity="0.51"/>
<path d="M1645.35 301.28C1644.41 300.325 1643.82 299.064 1643.22 297.888C1642.48 296.443 1641.67 295.003 1640.77 293.655C1638.84 290.81 1637.31 287.722 1635.5 284.805C1635.25 284.4 1634.99 284 1634.75 283.591C1634.51 283.184 1634.28 282.775 1634.05 282.362C1633.81 281.953 1633.59 281.542 1633.37 281.127C1633.15 280.718 1632.94 280.284 1632.63 279.934C1632.61 279.901 1632.57 279.904 1632.53 279.916C1632.52 279.895 1632.51 279.874 1632.5 279.853C1632.46 279.792 1632.39 279.78 1632.33 279.81C1632.12 279.91 1631.93 280.019 1631.73 280.132C1631.31 280.229 1630.91 280.467 1630.55 280.673C1630.04 280.964 1629.58 281.311 1629.09 281.633C1628.48 282.035 1627.87 282.419 1627.26 282.829C1627.11 282.934 1626.95 283.043 1626.8 283.15C1626.34 283.364 1625.89 283.585 1625.46 283.852C1625.01 284.132 1624.58 284.455 1624.29 284.901C1624.27 284.914 1624.25 284.929 1624.23 284.945C1624.23 284.942 1624.22 284.936 1624.22 284.933C1624.16 284.857 1624.02 284.938 1624.05 285.033C1624.19 285.42 1624.42 285.769 1624.62 286.127C1624.83 286.501 1625.03 286.875 1625.23 287.254C1625.62 288 1626.06 288.732 1626.52 289.436C1627.47 290.875 1628.3 292.389 1629.14 293.892C1629.98 295.399 1630.85 296.899 1631.81 298.336C1632.74 299.738 1633.61 301.189 1634.39 302.684C1634.74 303.36 1635.1 304.043 1635.51 304.687C1635.9 305.314 1636.35 305.946 1636.94 306.405C1636.98 306.437 1637.04 306.384 1637 306.346C1636.98 306.328 1636.96 306.309 1636.95 306.293C1637.19 306.157 1637.43 306.014 1637.66 305.869C1638.57 305.589 1639.4 305.023 1640.18 304.526C1640.72 304.182 1641.26 303.854 1641.83 303.557C1641.98 303.48 1642.13 303.402 1642.28 303.322C1642.81 303.113 1643.35 302.903 1643.86 302.65C1644.46 302.36 1645.04 301.998 1645.45 301.469C1645.51 301.387 1645.46 301.279 1645.36 301.285L1645.35 301.28Z" fill="#78ACEA"/>
<path d="M1654.54 290.497C1653.6 288.749 1652.6 287.007 1651.52 285.353C1648.98 281.484 1646.85 277.374 1644.43 273.433C1644.09 272.887 1643.75 272.345 1643.42 271.794C1643.1 271.248 1642.79 270.698 1642.47 270.143C1642.15 269.595 1641.85 269.042 1641.54 268.488C1641.24 267.941 1640.95 267.362 1640.56 266.879C1640.5 266.804 1640.41 266.826 1640.39 266.891C1640.37 266.891 1640.36 266.895 1640.35 266.897C1640.17 266.981 1640.03 267.178 1639.87 267.307C1639.68 267.461 1639.46 267.601 1639.24 267.724C1638.75 268.001 1638.26 268.239 1637.76 268.48C1636.62 269.028 1635.54 269.677 1634.46 270.333C1633.75 270.762 1633.01 271.158 1632.34 271.659C1632.3 271.675 1632.26 271.728 1632.29 271.796C1632.5 272.304 1632.8 272.776 1633.07 273.258C1633.36 273.759 1633.64 274.263 1633.91 274.765C1634.46 275.764 1635.04 276.747 1635.65 277.705C1636.9 279.657 1638.04 281.683 1639.19 283.7C1640.33 285.72 1641.51 287.738 1642.77 289.688C1644 291.595 1645.18 293.549 1646.25 295.542C1646.74 296.445 1647.24 297.357 1647.78 298.23C1648.3 299.078 1648.89 299.939 1649.6 300.607C1649.65 300.653 1649.7 300.594 1649.65 300.538C1649.64 300.522 1649.63 300.505 1649.62 300.492C1649.63 300.493 1649.64 300.495 1649.65 300.493C1650.39 300.386 1650.85 299.756 1651.41 299.327C1651.49 299.269 1651.56 299.22 1651.64 299.165C1651.71 299.127 1651.78 299.087 1651.85 299.052C1652.52 298.714 1653.19 298.412 1653.87 298.106C1655.2 297.51 1656.47 296.863 1657.59 295.934C1657.66 295.879 1657.61 295.791 1657.54 295.774C1657.55 295.725 1657.55 295.671 1657.54 295.622C1657.59 295.676 1657.64 295.736 1657.7 295.788C1657.75 295.835 1657.8 295.776 1657.75 295.72C1657.63 295.588 1657.52 295.453 1657.41 295.314C1657.37 295.236 1657.32 295.158 1657.27 295.079C1657.13 294.85 1656.99 294.618 1656.85 294.386C1656.53 293.856 1656.18 293.355 1655.9 292.802C1655.66 292.332 1654.82 290.723 1654.54 290.498L1654.54 290.497Z" fill="#78ACEA"/>
<path d="M1667.18 281.485C1665.78 278.918 1664.29 276.334 1662.71 273.864C1659.38 268.641 1656.43 263.175 1653.21 257.88C1652.76 257.146 1652.31 256.414 1651.86 255.677C1651.43 254.944 1651.01 254.209 1650.58 253.467C1650.15 252.732 1649.74 251.996 1649.32 251.258C1648.91 250.526 1648.51 249.76 1648.01 249.096C1647.92 248.973 1647.82 249.02 1647.83 249.137C1647.82 249.119 1647.81 249.101 1647.8 249.083C1647.77 249.032 1647.69 249.004 1647.64 249.042C1646.39 249.944 1641.02 253.007 1640.77 253.235C1640.63 253.365 1640.48 253.501 1640.32 253.608C1640.17 253.702 1640.01 253.75 1639.87 253.842C1639.86 253.846 1639.86 253.854 1639.86 253.86C1639.77 253.804 1639.68 253.873 1639.74 254.006C1640.05 254.67 1640.44 255.308 1640.81 255.95C1641.2 256.62 1641.58 257.289 1641.95 257.964C1642.7 259.295 1643.48 260.613 1644.29 261.903C1645.94 264.534 1647.49 267.242 1649.04 269.938C1650.58 272.639 1652.17 275.34 1653.84 277.969C1655.46 280.539 1657.03 283.161 1658.51 285.82C1659.17 287.025 1659.85 288.238 1660.57 289.414C1661.27 290.557 1662.04 291.72 1662.91 292.662C1662.97 292.725 1663.01 292.667 1662.97 292.597C1663.12 292.636 1663.3 292.583 1663.45 292.544C1663.7 292.474 1663.94 292.37 1664.17 292.254C1664.72 291.981 1665.24 291.648 1665.75 291.306C1666.2 291 1666.65 290.692 1667.12 290.409C1667.82 289.981 1668.49 289.481 1669.2 289.065C1669.72 288.762 1670.44 288.603 1670.85 288.127C1670.87 288.107 1670.89 288.086 1670.9 288.059C1670.93 288.029 1670.95 288.002 1670.97 287.971C1671 287.915 1670.96 287.861 1670.91 287.848C1670.89 287.779 1670.87 287.714 1670.83 287.652C1670.83 287.652 1670.83 287.645 1670.83 287.642C1670.89 287.709 1670.94 287.782 1671 287.845C1671.06 287.915 1671.11 287.845 1671.05 287.768C1669.53 285.892 1668.34 283.613 1667.17 281.477L1667.18 281.485Z" fill="#78ACEA"/>
<path d="M1705.79 255.638C1703.92 252.289 1701.96 248.915 1699.92 245.664C1695.6 238.786 1691.67 231.667 1687.46 224.719C1686.88 223.755 1686.29 222.794 1685.71 221.827C1685.14 220.864 1684.58 219.904 1684.02 218.939C1683.46 217.977 1682.91 217.014 1682.36 216.05C1681.81 215.095 1681.28 214.1 1680.65 213.212C1680.56 213.088 1680.47 213.083 1680.45 213.149C1680.43 213.147 1680.41 213.152 1680.39 213.165C1679.95 213.486 1679.44 213.72 1678.97 213.982C1678.46 214.26 1677.95 214.544 1677.48 214.88C1677.18 215.1 1676.89 215.338 1676.6 215.578C1676.58 215.59 1676.55 215.605 1676.53 215.614C1675.91 215.968 1675.32 216.377 1674.69 216.719C1673.95 217.119 1673.19 217.488 1672.5 217.972C1672.4 217.87 1672.31 217.927 1672.36 218.071C1672.29 218.119 1672.34 218.208 1672.42 218.188C1672.83 219.027 1673.34 219.843 1673.81 220.661C1674.32 221.535 1674.82 222.413 1675.32 223.29C1676.3 225.028 1677.32 226.753 1678.38 228.451C1680.53 231.911 1682.56 235.45 1684.6 238.975C1686.65 242.507 1688.73 246.046 1690.89 249.502C1693 252.884 1695.05 256.32 1697.01 259.789C1697.89 261.361 1698.79 262.946 1699.73 264.486C1700.39 265.565 1701.08 266.662 1701.82 267.672C1701.82 267.687 1701.82 267.704 1701.83 267.719C1701.91 267.879 1702.01 268.027 1702.12 268.167C1702.27 268.374 1702.42 268.573 1702.57 268.784C1702.58 268.805 1702.6 268.81 1702.62 268.815C1702.65 268.857 1702.67 268.9 1702.69 268.941C1702.71 268.973 1702.76 268.951 1702.75 268.914C1702.74 268.878 1702.72 268.84 1702.7 268.805C1702.7 268.805 1702.7 268.803 1702.71 268.801C1702.76 268.853 1702.79 268.835 1702.78 268.783C1704.11 268.475 1705.18 267.606 1706.26 266.808C1706.71 266.568 1707.16 266.327 1707.6 266.085C1708.65 265.517 1709.7 264.934 1710.69 264.27C1710.71 264.257 1710.72 264.239 1710.73 264.218C1710.78 264.187 1710.83 264.165 1710.88 264.131C1710.91 264.115 1710.91 264.083 1710.9 264.054C1710.89 264.039 1710.88 264.024 1710.88 264.007C1710.89 263.987 1710.88 263.944 1710.84 263.89C1708.94 261.374 1707.34 258.414 1705.79 255.629L1705.79 255.638Z" fill="#78ACEA"/>
<path d="M1693.27 264.911C1691.72 262.09 1690.08 259.253 1688.35 256.529C1684.7 250.772 1681.44 244.775 1677.9 238.946C1677.4 238.137 1676.91 237.332 1676.42 236.519C1675.94 235.71 1675.48 234.904 1675.01 234.093C1674.54 233.284 1674.08 232.476 1673.62 231.662C1673.16 230.858 1672.72 230.02 1672.18 229.283C1672.11 229.192 1672.04 229.188 1672.01 229.228C1671.99 229.222 1671.96 229.22 1671.93 229.235C1671.24 229.578 1670.6 230.036 1669.94 230.445C1669.31 230.839 1668.67 231.238 1668.04 231.638C1666.75 232.458 1665.46 233.274 1664.17 234.09C1664.13 234.114 1664.13 234.152 1664.14 234.187C1664.12 234.157 1664.1 234.127 1664.08 234.1C1663.96 233.943 1663.83 234.024 1663.91 234.201C1664.25 234.928 1664.69 235.63 1665.1 236.339C1665.52 237.074 1665.94 237.811 1666.35 238.552C1667.18 240.016 1668.03 241.463 1668.92 242.885C1670.74 245.785 1672.44 248.762 1674.15 251.723C1675.85 254.691 1677.6 257.663 1679.43 260.56C1681.21 263.393 1682.93 266.277 1684.56 269.196C1685.3 270.518 1686.05 271.853 1686.84 273.145C1687.35 273.982 1687.89 274.822 1688.47 275.605C1688.48 275.623 1688.49 275.645 1688.5 275.663C1688.53 275.728 1688.56 275.792 1688.6 275.857C1688.67 275.987 1688.74 276.118 1688.82 276.239C1688.95 276.419 1689.11 276.612 1689.33 276.673C1689.35 276.695 1689.36 276.717 1689.38 276.735C1689.42 276.769 1689.44 276.77 1689.45 276.758C1689.47 276.771 1689.49 276.779 1689.51 276.767C1689.57 276.721 1689.64 276.68 1689.7 276.637C1690.08 276.617 1690.5 276.342 1690.78 276.189C1691.35 275.881 1691.87 275.513 1692.41 275.154C1693.48 274.431 1694.65 273.887 1695.78 273.258C1696.1 273.078 1696.42 272.89 1696.73 272.678C1696.96 272.511 1697.3 272.31 1697.43 272.044C1697.46 271.994 1697.43 271.95 1697.38 271.944C1697.39 271.898 1697.39 271.852 1697.39 271.804C1697.42 271.841 1697.45 271.887 1697.49 271.924C1697.55 271.999 1697.6 271.93 1697.53 271.843C1695.89 269.759 1694.57 267.263 1693.27 264.916L1693.27 264.911Z" fill="#78ACEA"/>
<path d="M1680.64 273.801C1679.32 271.378 1677.92 268.946 1676.43 266.621C1673.28 261.708 1670.52 256.55 1667.48 251.566C1667.06 250.874 1666.63 250.187 1666.21 249.492C1665.8 248.801 1665.41 248.109 1665.01 247.413C1664.61 246.719 1664.21 246.025 1663.82 245.329C1663.44 244.64 1663.06 243.916 1662.59 243.294C1662.5 243.174 1662.39 243.235 1662.41 243.357C1662.41 243.354 1662.41 243.351 1662.41 243.345C1662.38 243.334 1662.35 243.34 1662.34 243.358C1662.34 243.358 1662.34 243.358 1662.34 243.355C1662.33 243.357 1662.33 243.362 1662.33 243.367C1662.33 243.367 1662.33 243.367 1662.33 243.369C1662.33 243.369 1662.33 243.369 1662.33 243.373C1662.31 243.395 1662.3 243.415 1662.29 243.438C1662.06 243.495 1661.84 243.675 1661.65 243.788C1661.37 243.957 1661.09 244.13 1660.81 244.297C1660.33 244.578 1659.87 244.872 1659.4 245.172C1659.4 245.176 1659.39 245.171 1659.39 245.175C1659.31 245.22 1659.24 245.276 1659.17 245.327C1659.11 245.359 1659.06 245.394 1659 245.431C1658.89 245.506 1658.78 245.582 1658.67 245.656C1658.5 245.755 1658.33 245.85 1658.16 245.943C1657.74 246.182 1657.29 246.375 1656.85 246.569C1656 246.941 1655.08 247.377 1654.42 248.043C1654.34 248.012 1654.27 248.085 1654.33 248.201C1654.61 248.828 1654.98 249.431 1655.33 250.037C1655.7 250.667 1656.05 251.3 1656.4 251.933C1657.1 253.188 1657.83 254.427 1658.6 255.642C1660.16 258.119 1661.62 260.67 1663.07 263.212C1664.53 265.757 1666.02 268.304 1667.6 270.779C1669.13 273.198 1670.61 275.666 1671.99 278.175C1672.62 279.31 1673.25 280.457 1673.94 281.563C1674.53 282.525 1675.18 283.497 1675.9 284.322C1675.9 284.332 1675.9 284.341 1675.9 284.35C1675.95 284.46 1676 284.557 1676.07 284.654C1676.09 284.685 1676.12 284.69 1676.16 284.675C1677.57 284.021 1678.94 283.203 1680.27 282.391C1681.6 281.578 1682.94 280.774 1684.22 279.89C1684.25 279.872 1684.27 279.83 1684.26 279.796C1684.32 279.855 1684.37 279.79 1684.31 279.719C1682.86 277.96 1681.75 275.811 1680.65 273.796L1680.64 273.801Z" fill="#78ACEA"/>
<path d="M1604.65 210.055C1604.62 210.009 1604.55 209.992 1604.5 210.02C1603.73 210.516 1580.97 224.213 1579.16 225.543C1579.1 225.587 1579.07 225.666 1579.11 225.735C1579.48 226.366 1579.9 226.97 1580.3 227.574C1580.28 227.672 1580.37 227.799 1580.49 227.755C1580.5 227.75 1580.51 227.741 1580.52 227.736C1580.52 227.736 1580.52 227.736 1580.52 227.733C1581.49 227.332 1582.37 226.693 1583.25 226.106C1583.39 226.023 1583.53 225.94 1583.68 225.862C1584.74 225.28 1604.01 213.365 1604.44 213.147C1604.77 212.983 1605.89 212.727 1605.73 212.021C1605.57 211.283 1604.99 210.711 1604.65 210.058L1604.65 210.055Z" fill="#8299E8"/>
<path d="M1610.41 224.221C1610.38 224.175 1610.31 224.155 1610.27 224.18C1609.57 224.634 1588.69 237.172 1587.05 238.401C1586.99 238.442 1586.97 238.519 1587.01 238.588C1587.39 239.216 1587.8 239.822 1588.19 240.429C1588.18 240.524 1588.27 240.651 1588.38 240.613C1588.39 240.608 1588.4 240.599 1588.41 240.594C1588.41 240.594 1588.41 240.594 1588.41 240.591C1589.31 240.235 1590.11 239.64 1590.91 239.104C1591.04 239.03 1591.17 238.953 1591.31 238.881C1593.2 237.857 1610.06 227.462 1609.52 227.732C1609.82 227.585 1611.68 226.873 1611.5 226.178C1611.32 225.451 1610.76 224.871 1610.41 224.221Z" fill="#8299E8"/>
<path d="M1601.42 217.531C1601.39 217.485 1601.33 217.459 1601.3 217.482C1600.7 217.871 1582.97 228.477 1581.59 229.546C1581.54 229.581 1581.53 229.653 1581.57 229.721C1581.94 230.35 1582.35 230.958 1582.74 231.565C1582.74 231.655 1582.83 231.785 1582.92 231.751C1582.92 231.745 1582.93 231.74 1582.94 231.734C1583.72 231.454 1584.39 230.935 1585.06 230.478C1585.17 230.415 1585.29 230.352 1585.41 230.291C1586.24 229.849 1601.41 220.451 1601.75 220.286C1602.01 220.165 1602.72 220.156 1602.52 219.478C1602.31 218.768 1601.77 218.174 1601.42 217.527L1601.42 217.531Z" fill="#8299E8"/>
<path d="M1628.85 195.194C1628.83 195.148 1628.78 195.113 1628.76 195.122C1628.49 195.314 1620.02 200.232 1619.42 200.822C1619.4 200.841 1619.4 200.901 1619.45 200.97C1619.83 201.592 1620.22 202.21 1620.61 202.825C1620.63 202.9 1620.71 203.033 1620.76 203.029C1620.76 203.029 1620.76 203.023 1620.77 203.021C1621.18 202.963 1621.48 202.682 1621.78 202.442C1621.84 202.416 1621.89 202.387 1621.95 202.365C1622.36 202.182 1629.11 197.958 1629.28 197.897C1629.41 197.854 1630.27 197.755 1629.98 197.129C1629.69 196.472 1629.22 195.835 1628.84 195.199L1628.85 195.194Z" fill="#8299E8"/>
<path d="M1634.58 197.172C1634.55 197.126 1634.5 197.094 1634.47 197.108C1634.1 197.363 1622.72 204.066 1621.88 204.806C1621.85 204.83 1621.85 204.893 1621.89 204.961C1622.27 205.587 1622.67 206.201 1623.05 206.814C1623.07 206.895 1623.15 207.025 1623.21 207.008C1623.22 207.005 1623.22 207.002 1623.23 206.996C1623.76 206.868 1624.17 206.509 1624.59 206.205C1624.66 206.167 1624.74 206.126 1624.81 206.093C1626.3 205.378 1635.44 199.758 1634.69 200.059C1634.86 199.991 1635.96 199.749 1635.7 199.108C1635.43 198.434 1634.93 197.812 1634.56 197.173L1634.58 197.172Z" fill="#8299E8"/>
<path d="M1665.98 303.779C1666.19 304.189 1666.47 304.677 1666.83 305.242C1667.18 305.797 1667.55 306.365 1667.95 306.946C1668.36 307.546 1668.78 308.123 1669.21 308.678C1669.66 309.226 1670.03 309.717 1670.33 310.153C1670.45 310.337 1670.51 310.512 1670.49 310.678C1670.47 310.834 1670.4 310.955 1670.27 311.041C1670.19 311.094 1670.09 311.113 1669.97 311.098C1669.85 311.066 1669.73 310.98 1669.6 310.838C1669.16 310.333 1668.69 309.746 1668.19 309.079C1667.7 308.405 1667.22 307.719 1666.74 307.022C1666.39 306.509 1666.07 306.014 1665.77 305.536C1665.47 305.049 1665.2 304.593 1664.97 304.17C1664.89 304.011 1664.86 303.875 1664.88 303.761C1664.9 303.647 1664.96 303.554 1665.07 303.481C1665.2 303.395 1665.34 303.368 1665.5 303.399C1665.67 303.429 1665.8 303.527 1665.92 303.692L1665.98 303.779ZM1669.11 301.765C1669.08 301.743 1669.05 301.703 1669.01 301.645C1668.9 301.48 1668.86 301.324 1668.88 301.178C1668.91 301.015 1668.98 300.897 1669.09 300.825C1669.18 300.765 1669.29 300.744 1669.43 300.762C1669.56 300.771 1669.69 300.836 1669.8 300.958C1670.2 301.38 1670.59 301.845 1670.96 302.355C1671.35 302.858 1671.73 303.38 1672.1 303.922C1672.25 304.155 1672.44 304.429 1672.64 304.745C1672.83 305.052 1673.02 305.375 1673.21 305.714C1673.4 306.044 1673.57 306.38 1673.73 306.723C1673.9 307.049 1674.03 307.353 1674.14 307.635C1674.24 307.907 1674.3 308.145 1674.31 308.35C1674.32 308.554 1674.27 308.693 1674.17 308.766C1674.06 308.838 1673.94 308.866 1673.8 308.848C1673.67 308.823 1673.55 308.729 1673.43 308.564C1673.38 308.487 1673.35 308.425 1673.33 308.38C1673.1 307.814 1672.85 307.278 1672.6 306.774C1672.34 306.27 1672.06 305.775 1671.77 305.291C1671.27 305.803 1670.71 306.274 1670.08 306.704C1669.74 306.935 1669.47 307.094 1669.25 307.181C1669.04 307.267 1668.86 307.199 1668.71 306.977C1668.64 306.87 1668.63 306.75 1668.68 306.616C1668.72 306.473 1668.83 306.342 1669.01 306.223C1669.09 306.18 1669.17 306.132 1669.25 306.079C1669.33 306.026 1669.4 305.973 1669.48 305.92C1669.79 305.709 1670.09 305.48 1670.39 305.233C1670.69 304.976 1670.96 304.703 1671.22 304.414C1670.86 303.892 1670.51 303.411 1670.15 302.973C1669.79 302.535 1669.45 302.132 1669.11 301.765ZM1674.46 301.99C1674.59 302.226 1674.73 302.472 1674.88 302.727C1675.03 302.976 1675.2 303.226 1675.37 303.477C1675.61 303.836 1675.87 304.184 1676.14 304.522C1676.43 304.854 1676.69 305.189 1676.92 305.528C1677.05 305.722 1677.1 305.9 1677.07 306.063C1677.05 306.219 1676.98 306.333 1676.88 306.406C1676.78 306.472 1676.67 306.494 1676.56 306.473C1676.45 306.435 1676.34 306.342 1676.22 306.194C1675.9 305.778 1675.6 305.401 1675.32 305.062C1675.05 304.708 1674.79 304.347 1674.54 303.979C1674.44 303.834 1674.31 303.653 1674.15 303.437C1673.99 303.205 1673.85 302.98 1673.73 302.764C1673.62 302.531 1673.54 302.319 1673.51 302.127C1673.48 301.92 1673.55 301.763 1673.7 301.657C1673.8 301.591 1673.91 301.579 1674.04 301.62C1674.17 301.654 1674.29 301.744 1674.39 301.889L1674.46 301.99ZM1671.5 299.155C1671.53 299.11 1671.56 299.077 1671.59 299.057C1671.62 299.031 1671.66 299.012 1671.7 299.002C1671.74 298.986 1671.77 298.971 1671.79 298.957C1671.84 298.915 1671.88 298.88 1671.92 298.854C1671.95 298.818 1671.99 298.783 1672.04 298.75C1672.36 298.532 1672.67 298.477 1672.97 298.584C1673.28 298.685 1673.51 298.856 1673.68 299.098C1673.76 299.214 1673.81 299.36 1673.85 299.535C1673.89 299.703 1673.9 299.882 1673.87 300.071C1673.85 300.243 1673.79 300.421 1673.68 300.604C1673.58 300.787 1673.43 300.948 1673.23 301.087C1673.09 301.18 1672.94 301.232 1672.78 301.243C1672.62 301.255 1672.46 301.242 1672.31 301.204C1672.15 301.157 1672 301.087 1671.86 300.995C1671.72 300.892 1671.61 300.778 1671.52 300.652C1671.39 300.458 1671.32 300.212 1671.3 299.913C1671.29 299.608 1671.36 299.355 1671.5 299.155ZM1672.37 299.673L1672.25 299.752C1672.22 299.804 1672.21 299.861 1672.22 299.923C1672.23 299.985 1672.26 300.04 1672.29 300.088C1672.35 300.175 1672.44 300.234 1672.56 300.265C1672.67 300.287 1672.76 300.278 1672.82 300.238C1672.96 300.139 1673.03 300.03 1673.02 299.909C1673 299.78 1672.97 299.676 1672.91 299.599C1672.76 299.477 1672.61 299.465 1672.46 299.564C1672.44 299.578 1672.41 299.614 1672.37 299.673ZM1683.87 302.376C1684.03 302.667 1684.1 303.014 1684.09 303.417C1684.09 303.83 1684.03 304.252 1683.89 304.682C1683.77 305.106 1683.59 305.519 1683.36 305.922C1683.13 306.334 1682.87 306.681 1682.58 306.964C1682.56 306.987 1682.54 307.011 1682.5 307.038C1682.37 307.124 1682.23 307.135 1682.08 307.072C1681.92 307.008 1681.8 306.909 1681.7 306.773C1681.64 306.686 1681.61 306.591 1681.59 306.487C1681.59 306.386 1681.63 306.288 1681.71 306.193C1681.97 305.946 1682.19 305.655 1682.37 305.318C1682.56 304.975 1682.71 304.627 1682.81 304.275C1682.91 303.923 1682.96 303.591 1682.96 303.279C1682.96 302.967 1682.9 302.715 1682.78 302.525C1682.34 301.876 1681.89 301.247 1681.43 300.638C1680.97 300.019 1680.5 299.403 1680.02 298.791C1679.91 298.828 1679.8 298.866 1679.7 298.906C1679.6 298.946 1679.5 298.986 1679.4 299.026L1678.83 299.349C1678.31 299.706 1678 300.091 1677.92 300.505C1677.82 300.909 1677.88 301.271 1678.1 301.59C1678.49 302.152 1678.94 302.431 1679.46 302.429C1679.99 302.42 1680.55 302.217 1681.13 301.821L1681.29 301.712C1681.37 301.659 1681.47 301.648 1681.59 301.679C1681.72 301.704 1681.82 301.77 1681.89 301.876C1681.99 302.021 1682.02 302.153 1681.97 302.27C1681.93 302.381 1681.8 302.513 1681.58 302.664C1681.09 303.001 1680.62 303.226 1680.19 303.338C1679.76 303.433 1679.36 303.451 1678.99 303.39C1678.62 303.319 1678.28 303.18 1677.98 302.971C1677.69 302.757 1677.44 302.495 1677.23 302.185C1677.01 301.865 1676.88 301.545 1676.83 301.224C1676.78 300.886 1676.81 300.563 1676.91 300.253C1677.02 299.936 1677.19 299.639 1677.41 299.36C1677.64 299.075 1677.93 298.816 1678.26 298.585C1678.51 298.42 1678.75 298.281 1679 298.168C1679.25 298.055 1679.47 297.977 1679.65 297.936C1679.7 297.877 1679.75 297.828 1679.81 297.789C1679.92 297.709 1680.05 297.661 1680.18 297.643C1680.31 297.625 1680.43 297.678 1680.54 297.8C1680.97 298.329 1681.39 298.851 1681.8 299.366C1682.21 299.866 1682.59 300.377 1682.95 300.899C1683.12 301.141 1683.28 301.387 1683.43 301.635C1683.58 301.874 1683.73 302.121 1683.87 302.376ZM1683.28 295.586C1683.35 295.413 1683.49 295.23 1683.72 295.036C1683.94 294.825 1684.19 294.627 1684.46 294.442C1685.02 294.059 1685.55 293.948 1686.04 294.108C1686.53 294.259 1687.03 294.717 1687.55 295.482C1687.82 295.879 1688.06 296.264 1688.26 296.639C1688.45 297.005 1688.6 297.341 1688.71 297.649C1688.83 297.94 1688.88 298.191 1688.89 298.402C1688.89 298.614 1688.83 298.759 1688.72 298.838C1688.62 298.904 1688.51 298.922 1688.39 298.89C1688.27 298.859 1688.16 298.776 1688.07 298.64C1687.95 298.466 1687.84 298.272 1687.74 298.059C1687.63 297.845 1687.53 297.619 1687.42 297.38C1687.32 297.14 1687.2 296.904 1687.09 296.671C1686.97 296.429 1686.83 296.206 1686.7 296.003C1686.43 295.606 1686.15 295.342 1685.86 295.212C1685.57 295.066 1685.24 295.125 1684.85 295.389C1684.66 295.521 1684.49 295.684 1684.35 295.877C1684.22 296.07 1684.07 296.22 1683.92 296.325C1683.82 296.391 1683.72 296.406 1683.6 296.368C1683.49 296.33 1683.4 296.263 1683.34 296.166C1683.29 296.088 1683.25 296.001 1683.22 295.904C1683.21 295.8 1683.23 295.694 1683.28 295.586ZM1681.14 293.386C1681.35 293.797 1681.62 294.268 1681.94 294.801C1682.27 295.327 1682.63 295.871 1683.01 296.433C1683.39 296.994 1683.8 297.542 1684.22 298.077C1684.63 298.603 1684.99 299.083 1685.29 299.519C1685.41 299.703 1685.47 299.878 1685.45 300.044C1685.44 300.209 1685.37 300.335 1685.24 300.421C1685.1 300.52 1684.9 300.466 1684.64 300.257C1684.39 300.042 1684.13 299.756 1683.84 299.398C1683.56 299.04 1683.27 298.653 1682.99 298.237C1682.7 297.811 1682.44 297.438 1682.22 297.119C1681.84 296.557 1681.47 295.999 1681.12 295.444C1680.77 294.889 1680.46 294.362 1680.19 293.864C1680.08 293.684 1680.06 293.526 1680.11 293.392C1680.17 293.252 1680.25 293.145 1680.36 293.073C1680.46 293 1680.59 292.986 1680.73 293.03C1680.87 293.064 1680.99 293.154 1681.08 293.299L1681.14 293.386ZM1690.05 287.732C1689.88 287.808 1689.73 287.834 1689.6 287.81C1689.46 287.776 1689.36 287.715 1689.3 287.628C1689.23 287.521 1689.21 287.395 1689.23 287.248C1689.26 287.102 1689.36 286.969 1689.54 286.85C1689.75 286.731 1689.97 286.603 1690.19 286.468C1690.41 286.332 1690.63 286.191 1690.84 286.046C1691.21 285.795 1691.55 285.544 1691.88 285.294C1692.22 285.037 1692.52 284.79 1692.78 284.553C1692.94 284.44 1693.1 284.398 1693.25 284.426C1693.4 284.437 1693.51 284.496 1693.58 284.603C1693.76 284.874 1693.65 285.193 1693.23 285.562C1692.83 285.924 1692.14 286.438 1691.16 287.106C1691.38 287.594 1691.63 288.093 1691.93 288.604C1692.21 289.105 1692.54 289.626 1692.91 290.168C1693.15 290.517 1693.38 290.847 1693.61 291.16C1693.83 291.473 1694.06 291.778 1694.29 292.074C1694.45 292.254 1694.58 292.386 1694.71 292.469C1694.84 292.536 1694.98 292.566 1695.11 292.558C1695.25 292.533 1695.4 292.473 1695.56 292.377C1695.74 292.275 1695.94 292.141 1696.18 291.976C1696.49 291.764 1696.79 291.537 1697.06 291.293C1697.34 291.034 1697.58 290.755 1697.79 290.457C1697.85 290.368 1697.93 290.298 1698 290.245C1698.13 290.159 1698.24 290.133 1698.33 290.168C1698.44 290.196 1698.52 290.254 1698.58 290.341C1698.71 290.525 1698.72 290.734 1698.63 290.969C1698.53 291.204 1698.39 291.438 1698.19 291.671C1698 291.898 1697.79 292.11 1697.54 292.307C1697.3 292.515 1697.09 292.678 1696.92 292.797C1696.73 292.922 1696.52 293.059 1696.28 293.208C1696.06 293.36 1695.82 293.483 1695.55 293.577C1695.29 293.654 1695.03 293.68 1694.75 293.654C1694.48 293.627 1694.22 293.502 1693.97 293.277C1693.73 293.072 1693.47 292.795 1693.19 292.447C1692.9 292.089 1692.61 291.697 1692.32 291.271C1692.08 290.923 1691.85 290.576 1691.63 290.231C1691.41 289.869 1691.21 289.527 1691.02 289.204C1690.82 288.881 1690.66 288.588 1690.52 288.326C1690.38 288.055 1690.27 287.84 1690.19 287.682C1690.14 287.715 1690.11 287.73 1690.09 287.727C1690.09 287.717 1690.07 287.719 1690.05 287.732ZM1694.16 289.95C1694 290.046 1693.86 290.07 1693.75 290.023C1693.64 289.968 1693.55 289.888 1693.47 289.782C1693.41 289.685 1693.39 289.571 1693.41 289.441C1693.45 289.304 1693.53 289.189 1693.67 289.097C1693.83 288.985 1694 288.877 1694.17 288.775C1694.35 288.665 1694.52 288.555 1694.69 288.442C1695.22 288.079 1695.73 287.69 1696.21 287.275C1696.37 287.179 1696.52 287.144 1696.65 287.168C1696.79 287.186 1696.89 287.235 1696.96 287.316C1697.06 287.461 1697.07 287.622 1696.97 287.799C1696.87 287.965 1696.74 288.138 1696.56 288.315C1696.38 288.492 1696.19 288.662 1695.97 288.823C1695.75 288.975 1695.55 289.108 1695.39 289.22C1695.19 289.359 1694.98 289.489 1694.78 289.612C1694.58 289.724 1694.37 289.837 1694.16 289.95ZM1699.22 280.203C1699.36 280.12 1699.48 280.101 1699.58 280.145C1699.69 280.183 1699.78 280.25 1699.85 280.347C1699.9 280.424 1699.92 280.517 1699.91 280.624C1699.89 280.722 1699.83 280.807 1699.72 280.88C1699.14 281.276 1698.79 281.771 1698.67 282.363C1698.54 282.947 1698.74 283.621 1699.26 284.385L1699.4 284.589C1699.6 284.45 1699.82 284.301 1700.05 284.143C1700.29 283.984 1700.51 283.853 1700.72 283.75C1700.94 283.647 1701.13 283.592 1701.31 283.583C1701.49 283.558 1701.64 283.624 1701.74 283.778C1701.81 283.885 1701.83 284.002 1701.79 284.129C1701.75 284.256 1701.66 284.366 1701.53 284.458C1701.27 284.63 1701.01 284.8 1700.75 284.969C1700.48 285.121 1700.23 285.285 1700 285.46C1700.38 286.005 1700.77 286.526 1701.17 287.022C1701.57 287.512 1701.91 287.887 1702.17 288.147C1702.19 288.176 1702.21 288.205 1702.23 288.234C1702.26 288.257 1702.28 288.282 1702.3 288.312C1702.42 288.486 1702.47 288.656 1702.46 288.822C1702.45 288.981 1702.39 289.1 1702.28 289.18C1702.12 289.285 1701.92 289.255 1701.66 289.089C1701.41 288.906 1701.14 288.652 1700.85 288.327C1700.56 287.995 1700.27 287.625 1699.98 287.215C1699.69 286.806 1699.42 286.422 1699.17 286.063C1698.97 286.228 1698.8 286.381 1698.66 286.523C1698.5 286.654 1698.37 286.76 1698.25 286.839C1698.15 286.912 1698.03 286.94 1697.91 286.925C1697.78 286.901 1697.68 286.835 1697.61 286.729C1697.53 286.613 1697.49 286.501 1697.5 286.394C1697.53 286.28 1697.58 286.164 1697.67 286.046C1697.76 285.928 1697.88 285.803 1698.03 285.671C1698.19 285.533 1698.38 285.373 1698.58 285.192L1698.42 284.96C1698.11 284.505 1697.9 284.057 1697.8 283.616C1697.69 283.166 1697.67 282.743 1697.72 282.349C1697.78 281.939 1697.93 281.565 1698.15 281.228C1698.37 280.881 1698.65 280.589 1699 280.351L1699.22 280.203ZM1704.56 276.557C1704.7 276.474 1704.82 276.455 1704.93 276.499C1705.04 276.537 1705.12 276.604 1705.19 276.701C1705.24 276.778 1705.26 276.871 1705.25 276.978C1705.23 277.076 1705.17 277.161 1705.06 277.234C1704.48 277.63 1704.13 278.125 1704.01 278.717C1703.89 279.301 1704.08 279.975 1704.61 280.739L1704.74 280.943C1704.95 280.804 1705.17 280.655 1705.4 280.497C1705.63 280.338 1705.85 280.207 1706.07 280.104C1706.28 280.001 1706.48 279.946 1706.65 279.937C1706.84 279.912 1706.98 279.977 1707.09 280.132C1707.16 280.239 1707.17 280.356 1707.13 280.483C1707.09 280.61 1707 280.72 1706.87 280.812C1706.62 280.984 1706.36 281.154 1706.09 281.323C1705.82 281.475 1705.57 281.639 1705.34 281.814C1705.72 282.359 1706.12 282.88 1706.51 283.376C1706.92 283.866 1707.25 284.241 1707.51 284.501C1707.53 284.53 1707.55 284.559 1707.57 284.588C1707.6 284.611 1707.63 284.636 1707.65 284.665C1707.77 284.84 1707.82 285.01 1707.8 285.176C1707.8 285.335 1707.74 285.454 1707.62 285.534C1707.47 285.639 1707.26 285.609 1707.01 285.443C1706.75 285.26 1706.48 285.006 1706.19 284.681C1705.91 284.349 1705.62 283.979 1705.32 283.569C1705.03 283.159 1704.76 282.776 1704.52 282.417C1704.32 282.582 1704.14 282.735 1704 282.876C1703.85 283.008 1703.71 283.114 1703.6 283.193C1703.49 283.265 1703.38 283.294 1703.25 283.279C1703.12 283.255 1703.02 283.189 1702.95 283.083C1702.87 282.967 1702.84 282.855 1702.85 282.747C1702.87 282.633 1702.92 282.517 1703.01 282.4C1703.1 282.282 1703.22 282.157 1703.38 282.025C1703.54 281.887 1703.72 281.727 1703.92 281.546L1703.76 281.314C1703.45 280.859 1703.25 280.411 1703.14 279.97C1703.04 279.519 1703.01 279.097 1703.07 278.703C1703.13 278.293 1703.27 277.919 1703.49 277.582C1703.71 277.235 1703.99 276.943 1704.34 276.705L1704.56 276.557ZM1709.42 278.133C1709.56 278.368 1709.7 278.614 1709.84 278.869C1710 279.118 1710.16 279.368 1710.33 279.62C1710.58 279.978 1710.84 280.326 1711.11 280.664C1711.39 280.996 1711.65 281.331 1711.88 281.67C1712.01 281.864 1712.06 282.042 1712.03 282.205C1712.01 282.361 1711.95 282.475 1711.84 282.548C1711.74 282.614 1711.64 282.636 1711.52 282.615C1711.41 282.577 1711.3 282.484 1711.19 282.336C1710.86 281.92 1710.56 281.543 1710.29 281.205C1710.02 280.85 1709.75 280.489 1709.5 280.121C1709.4 279.976 1709.27 279.795 1709.11 279.579C1708.95 279.347 1708.82 279.122 1708.7 278.906C1708.58 278.673 1708.51 278.461 1708.47 278.27C1708.45 278.062 1708.51 277.905 1708.66 277.799C1708.76 277.733 1708.87 277.721 1709 277.762C1709.14 277.796 1709.26 277.886 1709.35 278.031L1709.42 278.133ZM1706.47 275.298C1706.49 275.252 1706.52 275.219 1706.55 275.199C1706.59 275.173 1706.63 275.154 1706.66 275.144C1706.71 275.128 1706.74 275.113 1706.76 275.099C1706.8 275.057 1706.84 275.022 1706.88 274.996C1706.91 274.96 1706.95 274.925 1707 274.892C1707.32 274.674 1707.63 274.619 1707.93 274.726C1708.24 274.827 1708.48 274.998 1708.64 275.24C1708.72 275.356 1708.78 275.502 1708.81 275.677C1708.86 275.845 1708.86 276.024 1708.84 276.213C1708.81 276.386 1708.75 276.563 1708.65 276.746C1708.55 276.93 1708.39 277.09 1708.19 277.229C1708.05 277.322 1707.91 277.374 1707.74 277.385C1707.58 277.397 1707.42 277.384 1707.27 277.346C1707.11 277.299 1706.96 277.229 1706.83 277.137C1706.69 277.034 1706.57 276.92 1706.49 276.794C1706.36 276.601 1706.28 276.354 1706.26 276.055C1706.25 275.75 1706.32 275.497 1706.47 275.298ZM1707.33 275.815L1707.22 275.894C1707.18 275.946 1707.17 276.003 1707.18 276.065C1707.2 276.127 1707.22 276.182 1707.25 276.23C1707.31 276.317 1707.4 276.376 1707.52 276.408C1707.64 276.429 1707.72 276.42 1707.78 276.38C1707.93 276.281 1707.99 276.172 1707.98 276.052C1707.96 275.922 1707.93 275.818 1707.88 275.741C1707.72 275.619 1707.57 275.607 1707.43 275.706C1707.41 275.72 1707.38 275.756 1707.33 275.815ZM1717.34 277.628C1717.48 277.529 1717.61 277.49 1717.72 277.512C1717.83 277.523 1717.92 277.583 1717.99 277.689C1718.09 277.825 1718.12 277.949 1718.1 278.063C1718.07 278.168 1718.02 278.262 1717.93 278.348C1717.85 278.433 1717.75 278.516 1717.63 278.595C1717.52 278.674 1717.42 278.743 1717.33 278.803C1716.92 279.08 1716.49 279.311 1716.03 279.495C1715.57 279.669 1715.12 279.769 1714.69 279.797C1714.25 279.824 1713.84 279.764 1713.46 279.615C1713.07 279.466 1712.75 279.199 1712.48 278.811C1712.17 278.356 1712.02 277.901 1712.02 277.446C1712.02 276.975 1712.13 276.53 1712.32 276.112C1712.52 275.678 1712.8 275.278 1713.14 274.914C1713.5 274.542 1713.88 274.221 1714.27 273.951C1714.53 273.779 1714.74 273.681 1714.92 273.656C1715.1 273.622 1715.25 273.691 1715.36 273.866C1715.44 273.972 1715.47 274.079 1715.46 274.186C1715.45 274.287 1715.4 274.371 1715.31 274.437C1715.24 274.483 1715.18 274.526 1715.12 274.566C1715.05 274.595 1714.99 274.63 1714.93 274.67C1714.6 274.901 1714.29 275.16 1714.02 275.445C1713.75 275.724 1713.55 276.022 1713.39 276.339C1713.25 276.65 1713.18 276.974 1713.18 277.312C1713.19 277.634 1713.3 277.954 1713.52 278.274C1713.69 278.525 1713.92 278.685 1714.19 278.754C1714.46 278.822 1714.76 278.827 1715.07 278.769C1715.39 278.71 1715.71 278.606 1716.03 278.456C1716.35 278.306 1716.65 278.139 1716.92 277.954C1717 277.901 1717.07 277.852 1717.14 277.806C1717.2 277.75 1717.27 277.69 1717.34 277.628ZM1717.55 272.584C1717.69 272.82 1717.83 273.066 1717.97 273.321C1718.13 273.569 1718.29 273.819 1718.46 274.071C1718.71 274.429 1718.97 274.778 1719.24 275.116C1719.52 275.448 1719.78 275.783 1720.01 276.122C1720.14 276.315 1720.19 276.494 1720.16 276.656C1720.14 276.813 1720.08 276.927 1719.97 277C1719.88 277.066 1719.77 277.088 1719.66 277.067C1719.54 277.029 1719.43 276.936 1719.32 276.787C1718.99 276.372 1718.69 275.995 1718.42 275.656C1718.15 275.302 1717.89 274.94 1717.63 274.573C1717.54 274.427 1717.41 274.247 1717.24 274.031C1717.09 273.798 1716.95 273.574 1716.83 273.357C1716.71 273.125 1716.64 272.913 1716.61 272.721C1716.58 272.513 1716.64 272.357 1716.8 272.251C1716.89 272.185 1717 272.172 1717.13 272.213C1717.27 272.248 1717.39 272.337 1717.49 272.483L1717.55 272.584ZM1714.6 269.749C1714.62 269.703 1714.65 269.671 1714.68 269.651C1714.72 269.624 1714.76 269.606 1714.79 269.596C1714.84 269.579 1714.87 269.564 1714.89 269.551C1714.93 269.508 1714.97 269.474 1715.01 269.447C1715.04 269.411 1715.08 269.377 1715.13 269.344C1715.45 269.126 1715.76 269.07 1716.06 269.178C1716.37 269.278 1716.61 269.45 1716.77 269.692C1716.85 269.808 1716.91 269.953 1716.94 270.129C1716.99 270.297 1717 270.476 1716.97 270.665C1716.94 270.837 1716.88 271.015 1716.78 271.198C1716.68 271.381 1716.52 271.542 1716.32 271.681C1716.19 271.773 1716.04 271.825 1715.87 271.837C1715.71 271.848 1715.55 271.835 1715.4 271.798C1715.24 271.751 1715.09 271.681 1714.96 271.588C1714.82 271.486 1714.71 271.372 1714.62 271.246C1714.49 271.052 1714.41 270.806 1714.39 270.507C1714.38 270.202 1714.45 269.949 1714.6 269.749ZM1715.46 270.266L1715.35 270.346C1715.31 270.398 1715.3 270.455 1715.31 270.517C1715.33 270.578 1715.35 270.633 1715.38 270.682C1715.44 270.769 1715.53 270.828 1715.65 270.859C1715.77 270.881 1715.85 270.872 1715.91 270.832C1716.06 270.733 1716.12 270.623 1716.11 270.503C1716.1 270.373 1716.06 270.27 1716.01 270.192C1715.85 270.07 1715.7 270.059 1715.56 270.158C1715.54 270.171 1715.51 270.207 1715.46 270.266ZM1725.5 272.186C1725.66 272.074 1725.81 272.03 1725.94 272.055C1726.06 272.07 1726.17 272.135 1726.24 272.252C1726.33 272.377 1726.36 272.497 1726.34 272.611C1726.32 272.709 1726.27 272.805 1726.2 272.9C1726.13 272.989 1726.04 273.073 1725.92 273.152C1725.82 273.225 1725.72 273.291 1725.63 273.35C1725.23 273.628 1724.79 273.857 1724.31 274.037C1723.84 274.202 1723.38 274.291 1722.92 274.306C1722.46 274.321 1722.03 274.247 1721.62 274.086C1721.21 273.924 1720.88 273.65 1720.61 273.263C1720.33 272.847 1720.2 272.413 1720.21 271.961C1720.24 271.492 1720.35 271.041 1720.55 270.607C1720.75 270.172 1721.01 269.774 1721.33 269.413C1721.65 269.052 1721.97 268.76 1722.3 268.535C1722.47 268.423 1722.65 268.33 1722.84 268.256C1723.04 268.176 1723.24 268.138 1723.44 268.142C1723.64 268.147 1723.84 268.201 1724.04 268.307C1724.24 268.412 1724.43 268.59 1724.6 268.842C1724.8 269.142 1724.88 269.464 1724.83 269.809C1724.78 270.155 1724.67 270.492 1724.5 270.822C1724.33 271.152 1724.12 271.454 1723.86 271.726C1723.61 271.999 1723.39 272.209 1723.19 272.358C1723.08 272.43 1722.97 272.448 1722.86 272.41C1722.75 272.356 1722.66 272.276 1722.59 272.169C1722.53 272.082 1722.5 271.978 1722.49 271.858C1722.47 271.728 1722.52 271.624 1722.63 271.544C1722.82 271.419 1723 271.268 1723.17 271.09C1723.36 270.906 1723.52 270.716 1723.64 270.52C1723.76 270.307 1723.84 270.098 1723.87 269.893C1723.9 269.688 1723.85 269.498 1723.74 269.324C1723.56 269.063 1723.27 269.067 1722.87 269.338C1722.61 269.516 1722.36 269.743 1722.12 270.019C1721.88 270.285 1721.69 270.573 1721.54 270.883C1721.4 271.194 1721.32 271.516 1721.31 271.851C1721.3 272.17 1721.4 272.474 1721.59 272.765C1721.75 272.987 1721.95 273.14 1722.2 273.221C1722.47 273.297 1722.76 273.326 1723.07 273.31C1723.39 273.277 1723.72 273.195 1724.05 273.065C1724.4 272.928 1724.73 272.75 1725.05 272.533C1725.13 272.48 1725.21 272.427 1725.29 272.374C1725.36 272.311 1725.43 272.249 1725.5 272.186ZM1726.38 266.18C1726.47 265.977 1726.6 265.788 1726.78 265.61C1726.96 265.426 1727.17 265.258 1727.39 265.106C1727.71 264.914 1728.02 264.786 1728.3 264.721C1728.58 264.656 1728.85 264.661 1729.12 264.737C1729.38 264.802 1729.63 264.947 1729.88 265.172C1730.13 265.387 1730.38 265.688 1730.65 266.075C1730.92 266.472 1731.15 266.858 1731.35 267.233C1731.55 267.598 1731.7 267.935 1731.81 268.242C1731.91 268.54 1731.97 268.795 1731.97 269.006C1731.99 269.22 1731.94 269.367 1731.82 269.446C1731.73 269.506 1731.64 269.53 1731.53 269.518C1731.42 269.506 1731.33 269.437 1731.24 269.311C1731.15 269.185 1731.06 269.016 1730.96 268.802C1730.86 268.573 1730.75 268.333 1730.64 268.084C1730.53 267.819 1730.41 267.56 1730.28 267.308C1730.15 267.04 1730.02 266.804 1729.88 266.601C1729.69 266.32 1729.51 266.114 1729.35 265.982C1729.19 265.834 1729.04 265.742 1728.88 265.704C1728.73 265.651 1728.58 265.648 1728.43 265.695C1728.27 265.732 1728.1 265.797 1727.93 265.89C1727.72 266.029 1727.54 266.202 1727.39 266.408C1727.23 266.614 1727.08 266.767 1726.93 266.866C1726.85 266.926 1726.75 266.941 1726.65 266.913C1726.55 266.879 1726.47 266.818 1726.41 266.731C1726.37 266.663 1726.34 266.585 1726.32 266.498C1726.3 266.394 1726.32 266.288 1726.38 266.18ZM1725.64 266.471C1726.08 267.11 1726.52 267.755 1726.98 268.406C1727.44 269.048 1727.88 269.609 1728.32 270.089L1728.39 270.19C1728.5 270.355 1728.55 270.51 1728.52 270.657C1728.49 270.787 1728.43 270.885 1728.34 270.952C1728.25 271.011 1728.14 271.028 1728.01 271.004C1727.88 270.979 1727.75 270.891 1727.62 270.74C1727.25 270.308 1726.89 269.856 1726.52 269.382C1726.15 268.908 1725.79 268.41 1725.44 267.887C1725.36 267.78 1725.28 267.663 1725.17 267.534C1725.07 267.405 1724.99 267.279 1724.92 267.156C1724.85 267.017 1724.82 266.889 1724.82 266.772C1724.83 266.639 1724.91 266.526 1725.04 266.433C1725.14 266.367 1725.25 266.342 1725.37 266.357C1725.5 266.355 1725.59 266.393 1725.64 266.471ZM1736.62 264.47C1736.76 264.371 1736.89 264.332 1737.01 264.354C1737.11 264.366 1737.2 264.425 1737.28 264.531C1737.37 264.667 1737.41 264.792 1737.38 264.906C1737.36 265.01 1737.3 265.105 1737.22 265.19C1737.13 265.276 1737.03 265.358 1736.92 265.437C1736.8 265.517 1736.7 265.586 1736.61 265.645C1736.21 265.923 1735.77 266.153 1735.32 266.337C1734.85 266.511 1734.41 266.612 1733.97 266.639C1733.53 266.667 1733.12 266.606 1732.74 266.458C1732.35 266.309 1732.03 266.041 1731.77 265.654C1731.45 265.199 1731.3 264.744 1731.3 264.289C1731.31 263.817 1731.41 263.373 1731.6 262.954C1731.8 262.52 1732.08 262.121 1732.43 261.756C1732.78 261.385 1733.16 261.064 1733.56 260.793C1733.81 260.621 1734.02 260.523 1734.21 260.498C1734.38 260.464 1734.53 260.534 1734.65 260.708C1734.72 260.815 1734.75 260.922 1734.74 261.029C1734.74 261.13 1734.69 261.213 1734.59 261.279C1734.52 261.325 1734.46 261.368 1734.4 261.408C1734.34 261.438 1734.28 261.473 1734.22 261.512C1733.88 261.744 1733.57 262.002 1733.3 262.288C1733.04 262.567 1732.83 262.865 1732.67 263.182C1732.53 263.492 1732.46 263.816 1732.47 264.154C1732.47 264.476 1732.59 264.797 1732.8 265.116C1732.97 265.368 1733.2 265.528 1733.47 265.596C1733.75 265.665 1734.04 265.67 1734.35 265.611C1734.67 265.553 1734.99 265.448 1735.31 265.299C1735.63 265.149 1735.93 264.982 1736.2 264.797C1736.28 264.744 1736.35 264.694 1736.42 264.648C1736.48 264.592 1736.55 264.533 1736.62 264.47ZM1736.98 260.137C1737.1 260.47 1737.22 260.739 1737.36 260.942C1737.54 261.204 1737.75 261.408 1737.99 261.555C1738.24 261.695 1738.51 261.778 1738.78 261.804C1739.06 261.824 1739.35 261.79 1739.65 261.702C1739.94 261.615 1740.22 261.478 1740.49 261.294C1740.52 261.274 1740.55 261.254 1740.58 261.234C1740.6 261.205 1740.63 261.18 1740.66 261.16C1740.74 261.107 1740.84 261.101 1740.97 261.142C1741.1 261.167 1741.2 261.232 1741.27 261.339C1741.36 261.474 1741.39 261.602 1741.36 261.723C1741.34 261.837 1741.22 261.967 1741.01 262.112C1740.51 262.455 1740.03 262.673 1739.58 262.766C1739.14 262.859 1738.72 262.86 1738.33 262.77C1737.94 262.67 1737.58 262.502 1737.26 262.264C1736.95 262.011 1736.67 261.715 1736.44 261.376C1736.38 261.279 1736.3 261.173 1736.23 261.057C1736.15 260.924 1736.09 260.8 1736.06 260.683C1736.01 260.557 1736 260.44 1736.01 260.333C1736.02 260.209 1736.09 260.108 1736.2 260.028C1736.3 259.962 1736.43 259.927 1736.58 259.922C1736.73 259.901 1736.86 259.953 1736.94 260.079L1736.98 260.137ZM1740.04 257.325C1740.45 257.824 1740.84 258.314 1741.19 258.795C1741.56 259.268 1741.91 259.752 1742.25 260.246C1742.44 260.527 1742.63 260.802 1742.81 261.073C1742.99 261.335 1743.14 261.616 1743.26 261.917C1743.38 262.218 1743.45 262.547 1743.47 262.905C1743.49 263.272 1743.43 263.687 1743.29 264.15C1743.23 264.349 1743.15 264.566 1743.06 264.801C1742.97 265.029 1742.87 265.25 1742.74 265.462C1742.63 265.685 1742.49 265.888 1742.35 266.071C1742.21 266.255 1742.05 266.403 1741.89 266.515C1741.77 266.594 1741.64 266.607 1741.49 266.553C1741.35 266.493 1741.23 266.4 1741.15 266.274C1741.09 266.187 1741.05 266.092 1741.04 265.988C1741.04 265.887 1741.08 265.794 1741.17 265.708C1741.38 265.462 1741.58 265.179 1741.76 264.859C1741.94 264.532 1742.09 264.2 1742.18 263.864C1742.29 263.522 1742.35 263.186 1742.35 262.858C1742.36 262.539 1742.3 262.254 1742.17 262.002C1742.02 261.721 1741.83 261.416 1741.61 261.086C1741.47 260.909 1741.34 260.724 1741.21 260.53C1741.07 260.327 1740.92 260.135 1740.77 259.955L1739.17 257.919C1739.16 257.9 1739.15 257.894 1739.14 257.9C1739.13 257.89 1739.12 257.876 1739.11 257.857C1739.03 257.74 1739 257.622 1739.03 257.501C1739.07 257.365 1739.14 257.26 1739.25 257.187C1739.35 257.114 1739.48 257.084 1739.63 257.095C1739.77 257.097 1739.91 257.173 1740.04 257.325Z" fill="white"/>
<path d="M1663.44 178.613L1645.07 209.078L1650.55 216.618L1653.82 208.988L1663.44 178.613Z" fill="#ED946F"/>
<path d="M1650.25 208.948L1650.55 216.619L1653.86 208.888L1663.44 178.614L1650.25 208.948Z" fill="url(#paint2_linear_62_2063)"/>
<path d="M1645.07 209.08L1663.44 178.614L1634.26 209.355L1645.07 209.08Z" fill="#5697F1"/>
<path d="M1650.25 208.948L1664.92 208.575L1663.44 178.614L1650.25 208.948Z" fill="#5697F1"/>
<path d="M1649.45 220.204C1649.54 219.761 1649.61 219.319 1649.67 218.889L1648.55 218.752C1648.49 219.166 1648.42 219.592 1648.34 220.019L1649.45 220.204Z" fill="#FA8383"/>
<path d="M1620.13 259.225L1619.71 258.193C1620.54 257.853 1621.33 257.458 1622.04 257.027L1622.62 257.976C1622.37 258.129 1622.1 258.281 1621.83 258.424C1621.3 258.713 1620.72 258.983 1620.13 259.225ZM1624.11 255.482C1624.74 254.899 1625.31 254.252 1625.8 253.56L1626.73 254.189C1626.19 254.949 1625.57 255.658 1624.87 256.297L1624.11 255.482ZM1614.8 260.671L1614.64 259.567C1615.53 259.424 1616.4 259.241 1617.22 259.023L1617.5 260.102C1616.64 260.33 1615.74 260.521 1614.8 260.67L1614.8 260.671ZM1609.35 261.083L1609.37 259.965C1610.26 259.965 1611.15 259.934 1612.02 259.87L1612.08 260.986C1611.19 261.052 1610.27 261.085 1609.35 261.084L1609.35 261.083ZM1627.03 251.328C1627.36 250.523 1627.57 249.707 1627.65 248.905L1628.77 249C1628.68 249.907 1628.45 250.826 1628.08 251.731L1627.03 251.328ZM1630.9 245.515C1631.24 245.322 1631.57 245.118 1631.9 244.907C1632.3 244.643 1632.71 244.363 1633.11 244.073L1633.77 244.971C1633.35 245.271 1632.93 245.563 1632.51 245.837C1632.17 246.061 1631.81 246.278 1631.46 246.481L1630.9 245.515ZM1626.33 248.562L1626.06 247.48C1626.9 247.267 1627.73 246.99 1628.55 246.661L1628.96 247.695C1628.1 248.045 1627.21 248.338 1626.33 248.563L1626.33 248.562ZM1635.19 242.43C1635.85 241.865 1636.51 241.26 1637.14 240.632L1637.93 241.414C1637.28 242.063 1636.6 242.687 1635.92 243.27L1635.19 242.43ZM1620.8 249.083L1620.92 247.969C1621.73 248.039 1622.6 248.028 1623.5 247.938L1623.59 249.051C1622.62 249.149 1621.68 249.159 1620.8 249.083L1620.8 249.083ZM1627.51 246.442C1627.36 245.752 1627.1 245.08 1626.76 244.44C1626.71 244.342 1626.65 244.246 1626.6 244.15L1627.58 243.576C1627.64 243.683 1627.7 243.793 1627.76 243.904C1628.15 244.631 1628.44 245.397 1628.61 246.184L1627.51 246.442L1627.51 246.442ZM1638.96 238.697C1639.54 238.04 1640.11 237.35 1640.65 236.647L1641.54 237.316C1640.99 238.039 1640.4 238.748 1639.81 239.423L1638.96 238.697ZM1642.2 234.497C1642.7 233.767 1643.18 233.013 1643.62 232.256L1644.6 232.808C1644.14 233.585 1643.65 234.358 1643.14 235.108L1642.21 234.496L1642.2 234.497ZM1615.64 246.823L1616.54 246.12C1616.97 246.669 1617.62 247.112 1618.47 247.436L1618.04 248.478C1617.01 248.083 1616.21 247.525 1615.64 246.822L1615.64 246.823ZM1623.01 240.77L1623.55 239.776C1624.37 240.201 1625.14 240.747 1625.83 241.397L1625.05 242.214C1624.43 241.634 1623.75 241.148 1623.01 240.77L1623.01 240.77ZM1644.89 229.935C1645.29 229.148 1645.67 228.343 1646.02 227.544L1647.06 227.966C1646.7 228.788 1646.31 229.615 1645.9 230.424L1644.89 229.935ZM1614.76 243.978C1614.8 243.31 1614.98 242.597 1615.29 241.859C1615.39 241.626 1615.5 241.403 1615.63 241.194L1616.6 241.745C1616.5 241.911 1616.41 242.091 1616.33 242.277C1616.07 242.895 1615.92 243.481 1615.89 244.021L1614.76 243.978L1614.76 243.978ZM1646.98 225.087C1647.27 224.251 1647.53 223.407 1647.76 222.575L1648.85 222.847C1648.62 223.705 1648.35 224.576 1648.04 225.438L1646.97 225.086L1646.98 225.087ZM1618.31 240.246L1617.9 239.212C1618.76 238.861 1619.78 238.752 1620.84 238.896L1620.66 240.004C1619.8 239.886 1618.99 239.97 1618.31 240.245L1618.31 240.246Z" fill="#FA8383"/>
<path d="M1606.61 260.981L1606.71 259.866C1605.92 259.806 1605.45 259.74 1605.44 259.74L1605.26 260.846C1605.28 260.849 1605.77 260.918 1606.61 260.981L1606.61 260.981Z" fill="#FA8383"/>
<defs>
<linearGradient id="paint0_linear_62_2063" x1="1733" y1="40.5891" x2="1934.5" y2="40.5891" gradientUnits="userSpaceOnUse">
<stop offset="0.104218" stop-color="#00163A"/>
<stop offset="1" stop-color="#003DA0"/>
</linearGradient>
<linearGradient id="paint1_linear_62_2063" x1="1820.64" y1="232.726" x2="1895.93" y2="234.478" gradientUnits="userSpaceOnUse">
<stop offset="0.335686" stop-color="#0056B3"/>
<stop offset="1" stop-color="white"/>
</linearGradient>
<linearGradient id="paint2_linear_62_2063" x1="1635.8" y1="204.741" x2="1682.42" y2="189.07" gradientUnits="userSpaceOnUse">
<stop stop-color="#7A8FD8"/>
<stop offset="1" stop-color="#435AC2"/>
</linearGradient>
</defs>
</svg>
