<svg id="Group_10903" data-name="Group 10903" xmlns="http://www.w3.org/2000/svg" width="32.199" height="32.199" viewBox="0 0 32.199 32.199">
  <path id="Path_20661" data-name="Path 20661" d="M0,0H32.2V32.2H0Z" fill="none"/>
  <path id="Path_20662" data-name="Path 20662" d="M15.416,28.833A13.416,13.416,0,1,1,28.833,15.416,13.416,13.416,0,0,1,15.416,28.833ZM10.721,18.1v2.683h3.354v2.683h2.683V20.783H18.1a3.354,3.354,0,0,0,0-6.708H12.733a.671.671,0,0,1,0-1.342h7.379V10.05H16.758V7.367H14.075V10.05H12.733a3.354,3.354,0,0,0,0,6.708H18.1a.671.671,0,0,1,0,1.342Z" transform="translate(0.683 0.683)" fill="#fff"/>
</svg>
