<svg width="420" height="298" viewBox="0 0 420 298" fill="none" xmlns="http://www.w3.org/2000/svg">
<path d="M117.976 282.716C118.185 283.127 118.468 283.614 118.826 284.179C119.176 284.735 119.549 285.303 119.946 285.884C120.355 286.484 120.778 287.061 121.213 287.615C121.657 288.163 122.028 288.655 122.326 289.09C122.451 289.274 122.507 289.449 122.492 289.615C122.471 289.771 122.398 289.892 122.272 289.978C122.194 290.031 122.094 290.05 121.97 290.035C121.849 290.004 121.727 289.918 121.602 289.776C121.157 289.27 120.686 288.684 120.188 288.016C119.7 287.342 119.218 286.657 118.742 285.96C118.392 285.447 118.068 284.951 117.771 284.474C117.466 283.986 117.198 283.531 116.966 283.107C116.886 282.949 116.857 282.813 116.879 282.699C116.9 282.585 116.964 282.491 117.071 282.419C117.197 282.333 117.341 282.305 117.504 282.336C117.667 282.367 117.804 282.464 117.917 282.629L117.976 282.716ZM121.114 280.703C121.084 280.68 121.05 280.64 121.01 280.582C120.898 280.417 120.855 280.262 120.883 280.115C120.914 279.952 120.982 279.835 121.089 279.762C121.176 279.703 121.29 279.682 121.43 279.7C121.563 279.708 121.685 279.774 121.797 279.896C122.198 280.317 122.587 280.783 122.963 281.292C123.349 281.795 123.727 282.318 124.096 282.86C124.255 283.092 124.435 283.366 124.637 283.683C124.832 283.989 125.024 284.312 125.213 284.652C125.395 284.981 125.568 285.317 125.731 285.66C125.897 285.987 126.033 286.291 126.14 286.572C126.241 286.844 126.297 287.083 126.309 287.287C126.321 287.492 126.274 287.631 126.167 287.703C126.061 287.776 125.937 287.803 125.798 287.785C125.667 287.761 125.546 287.666 125.434 287.502C125.381 287.424 125.346 287.363 125.329 287.317C125.099 286.751 124.854 286.216 124.595 285.711C124.336 285.207 124.063 284.713 123.775 284.228C123.273 284.741 122.708 285.212 122.079 285.641C121.74 285.872 121.465 286.031 121.255 286.118C121.045 286.205 120.864 286.137 120.712 285.914C120.639 285.808 120.628 285.688 120.678 285.554C120.722 285.41 120.832 285.279 121.006 285.16C121.09 285.117 121.171 285.069 121.248 285.016C121.325 284.963 121.403 284.911 121.48 284.858C121.79 284.646 122.095 284.417 122.394 284.17C122.687 283.913 122.962 283.641 123.219 283.352C122.863 282.829 122.506 282.349 122.151 281.911C121.795 281.472 121.449 281.07 121.114 280.703ZM126.46 280.928C126.592 281.164 126.731 281.409 126.877 281.665C127.033 281.913 127.196 282.163 127.368 282.415C127.612 282.773 127.871 283.121 128.145 283.46C128.428 283.791 128.685 284.127 128.916 284.465C129.048 284.659 129.099 284.837 129.068 285C129.047 285.156 128.983 285.271 128.877 285.344C128.78 285.41 128.675 285.432 128.561 285.41C128.45 285.372 128.337 285.279 128.221 285.131C127.895 284.715 127.595 284.338 127.322 284C127.051 283.645 126.791 283.284 126.54 282.916C126.441 282.771 126.31 282.59 126.149 282.374C125.99 282.142 125.851 281.918 125.732 281.701C125.616 281.468 125.542 281.256 125.51 281.065C125.482 280.857 125.546 280.701 125.7 280.595C125.797 280.529 125.909 280.516 126.036 280.557C126.173 280.591 126.291 280.681 126.39 280.826L126.46 280.928ZM123.504 278.093C123.529 278.047 123.557 278.014 123.586 277.995C123.624 277.968 123.662 277.95 123.697 277.94C123.743 277.923 123.775 277.908 123.794 277.895C123.836 277.852 123.876 277.818 123.915 277.791C123.947 277.755 123.987 277.72 124.036 277.687C124.355 277.469 124.665 277.414 124.965 277.521C125.275 277.622 125.513 277.793 125.678 278.035C125.757 278.152 125.814 278.297 125.848 278.472C125.892 278.641 125.901 278.82 125.873 279.008C125.849 279.181 125.786 279.359 125.684 279.542C125.582 279.725 125.43 279.886 125.226 280.025C125.091 280.117 124.942 280.169 124.779 280.181C124.617 280.192 124.459 280.179 124.306 280.142C124.146 280.095 123.999 280.025 123.865 279.932C123.724 279.83 123.611 279.715 123.525 279.59C123.393 279.396 123.317 279.15 123.297 278.851C123.288 278.545 123.356 278.293 123.504 278.093ZM124.368 278.61L124.251 278.689C124.216 278.742 124.205 278.799 124.219 278.86C124.233 278.922 124.256 278.977 124.289 279.025C124.349 279.113 124.439 279.172 124.559 279.203C124.673 279.224 124.759 279.215 124.817 279.176C124.962 279.077 125.03 278.967 125.019 278.847C125.001 278.717 124.966 278.614 124.913 278.536C124.759 278.414 124.609 278.403 124.464 278.502C124.444 278.515 124.412 278.551 124.368 278.61ZM135.874 281.314C136.03 281.605 136.103 281.952 136.095 282.355C136.093 282.768 136.026 283.189 135.894 283.62C135.772 284.044 135.592 284.457 135.356 284.859C135.127 285.271 134.867 285.619 134.578 285.901C134.565 285.924 134.539 285.949 134.5 285.975C134.375 286.061 134.233 286.072 134.077 286.009C133.92 285.946 133.795 285.846 133.703 285.711C133.643 285.624 133.607 285.528 133.592 285.424C133.595 285.323 133.634 285.226 133.711 285.13C133.969 284.884 134.188 284.592 134.37 284.256C134.561 283.912 134.707 283.564 134.807 283.212C134.907 282.86 134.957 282.528 134.957 282.216C134.957 281.904 134.899 281.653 134.783 281.462C134.341 280.814 133.89 280.185 133.432 279.575C132.967 278.956 132.497 278.341 132.022 277.728C131.906 277.765 131.797 277.804 131.697 277.844C131.597 277.884 131.496 277.924 131.396 277.964L130.829 278.287C130.306 278.644 130.002 279.029 129.915 279.443C129.822 279.847 129.884 280.208 130.102 280.528C130.485 281.089 130.939 281.369 131.462 281.366C131.995 281.357 132.552 281.155 133.133 280.758L133.292 280.649C133.37 280.597 133.469 280.586 133.589 280.617C133.72 280.642 133.821 280.707 133.894 280.814C133.993 280.959 134.019 281.09 133.971 281.208C133.933 281.319 133.803 281.45 133.58 281.602C133.087 281.939 132.623 282.163 132.188 282.275C131.757 282.371 131.358 282.388 130.99 282.327C130.615 282.256 130.279 282.117 129.981 281.909C129.692 281.694 129.443 281.432 129.231 281.122C129.013 280.803 128.88 280.483 128.831 280.161C128.785 279.824 128.812 279.5 128.913 279.19C129.023 278.874 129.189 278.576 129.41 278.297C129.641 278.012 129.926 277.754 130.265 277.523C130.507 277.358 130.753 277.218 131.002 277.105C131.251 276.992 131.468 276.915 131.652 276.874C131.697 276.815 131.749 276.766 131.807 276.726C131.923 276.647 132.046 276.598 132.176 276.581C132.306 276.563 132.426 276.615 132.538 276.738C132.97 277.266 133.39 277.788 133.798 278.304C134.21 278.803 134.594 279.314 134.951 279.837C135.116 280.079 135.276 280.324 135.432 280.573C135.581 280.812 135.728 281.059 135.874 281.314ZM135.284 274.524C135.35 274.351 135.494 274.167 135.717 273.973C135.942 273.763 136.19 273.565 136.461 273.38C137.022 272.997 137.549 272.885 138.042 273.046C138.528 273.197 139.032 273.654 139.554 274.419C139.824 274.816 140.059 275.202 140.258 275.577C140.451 275.942 140.602 276.278 140.713 276.586C140.827 276.877 140.885 277.129 140.887 277.34C140.889 277.551 140.832 277.696 140.716 277.776C140.619 277.842 140.511 277.859 140.39 277.828C140.269 277.797 140.163 277.713 140.07 277.578C139.951 277.404 139.84 277.21 139.737 276.996C139.634 276.783 139.53 276.557 139.423 276.317C139.316 276.078 139.205 275.842 139.089 275.609C138.966 275.367 138.835 275.144 138.696 274.94C138.425 274.543 138.146 274.28 137.859 274.15C137.575 274.003 137.239 274.062 136.852 274.326C136.658 274.459 136.492 274.621 136.355 274.814C136.217 275.008 136.071 275.157 135.916 275.263C135.819 275.329 135.715 275.343 135.604 275.305C135.493 275.267 135.405 275.2 135.339 275.103C135.286 275.026 135.248 274.939 135.224 274.841C135.21 274.737 135.23 274.632 135.284 274.524ZM133.144 272.324C133.353 272.734 133.618 273.206 133.939 273.739C134.27 274.265 134.627 274.809 135.01 275.37C135.393 275.932 135.796 276.48 136.217 277.015C136.633 277.54 136.989 278.021 137.286 278.456C137.412 278.64 137.467 278.815 137.453 278.981C137.438 279.147 137.368 279.273 137.242 279.359C137.097 279.458 136.897 279.403 136.641 279.195C136.395 278.979 136.128 278.693 135.842 278.335C135.555 277.978 135.27 277.591 134.986 277.174C134.695 276.748 134.441 276.376 134.223 276.056C133.84 275.495 133.473 274.937 133.122 274.381C132.772 273.826 132.462 273.3 132.194 272.802C132.084 272.621 132.055 272.464 132.106 272.33C132.166 272.189 132.249 272.083 132.356 272.01C132.462 271.938 132.587 271.923 132.731 271.967C132.867 272.002 132.985 272.091 133.085 272.236L133.144 272.324ZM142.054 266.669C141.879 266.746 141.727 266.772 141.597 266.747C141.46 266.713 141.362 266.652 141.302 266.565C141.229 266.459 141.207 266.332 141.235 266.186C141.262 266.039 141.363 265.906 141.538 265.788C141.754 265.668 141.972 265.541 142.192 265.405C142.411 265.269 142.627 265.129 142.84 264.984C143.208 264.733 143.555 264.482 143.88 264.231C144.216 263.974 144.515 263.727 144.779 263.49C144.944 263.378 145.099 263.336 145.246 263.363C145.396 263.375 145.507 263.434 145.579 263.54C145.764 263.811 145.649 264.131 145.234 264.499C144.828 264.861 144.137 265.376 143.159 266.043C143.379 266.531 143.634 267.031 143.926 267.541C144.211 268.042 144.538 268.563 144.908 269.106C145.146 269.454 145.379 269.785 145.606 270.098C145.834 270.41 146.063 270.715 146.294 271.012C146.445 271.192 146.585 271.324 146.713 271.407C146.843 271.474 146.977 271.503 147.113 271.495C147.253 271.471 147.403 271.411 147.565 271.315C147.736 271.212 147.943 271.078 148.185 270.913C148.494 270.702 148.786 270.474 149.06 270.231C149.336 269.971 149.579 269.692 149.787 269.394C149.854 269.306 149.927 269.235 150.004 269.182C150.13 269.096 150.24 269.071 150.335 269.106C150.439 269.134 150.521 269.191 150.58 269.278C150.706 269.462 150.721 269.672 150.626 269.907C150.531 270.142 150.386 270.376 150.19 270.609C150.004 270.835 149.787 271.047 149.539 271.245C149.297 271.452 149.089 271.615 148.915 271.734C148.731 271.86 148.52 271.997 148.281 272.146C148.058 272.298 147.816 272.42 147.553 272.514C147.294 272.592 147.028 272.617 146.755 272.591C146.481 272.565 146.218 272.439 145.966 272.215C145.726 272.009 145.466 271.732 145.186 271.384C144.9 271.027 144.611 270.635 144.32 270.209C144.083 269.86 143.853 269.513 143.631 269.168C143.413 268.806 143.208 268.464 143.016 268.141C142.824 267.818 142.66 267.526 142.524 267.264C142.381 266.992 142.27 266.777 142.19 266.619C142.142 266.652 142.109 266.667 142.093 266.664C142.086 266.654 142.073 266.656 142.054 266.669ZM146.164 268.887C146.002 268.983 145.863 269.007 145.745 268.96C145.637 268.906 145.547 268.826 145.474 268.719C145.408 268.622 145.388 268.509 145.412 268.379C145.447 268.242 145.531 268.127 145.667 268.034C145.832 267.922 145.999 267.815 146.171 267.712C146.351 267.603 146.524 267.492 146.689 267.38C147.221 267.017 147.729 266.628 148.212 266.213C148.373 266.117 148.519 266.081 148.65 266.106C148.789 266.124 148.894 266.173 148.963 266.253C149.062 266.399 149.066 266.56 148.973 266.736C148.874 266.903 148.736 267.075 148.56 267.252C148.383 267.43 148.186 267.599 147.97 267.761C147.748 267.913 147.554 268.045 147.389 268.157C147.186 268.296 146.984 268.427 146.784 268.549C146.577 268.662 146.371 268.774 146.164 268.887ZM151.217 259.14C151.359 259.057 151.481 259.038 151.582 259.083C151.693 259.12 151.781 259.188 151.847 259.284C151.9 259.362 151.921 259.454 151.909 259.562C151.891 259.659 151.828 259.745 151.722 259.817C151.141 260.214 150.79 260.708 150.67 261.301C150.543 261.884 150.74 262.558 151.262 263.323L151.401 263.526C151.604 263.387 151.822 263.239 152.054 263.08C152.286 262.922 152.509 262.791 152.723 262.688C152.936 262.585 153.132 262.529 153.311 262.521C153.493 262.496 153.636 262.561 153.742 262.716C153.815 262.822 153.831 262.939 153.79 263.066C153.749 263.194 153.661 263.303 153.525 263.396C153.273 263.568 153.014 263.738 152.746 263.907C152.481 264.059 152.231 264.222 151.995 264.397C152.381 264.942 152.772 265.463 153.168 265.959C153.573 266.449 153.907 266.824 154.169 267.085C154.189 267.114 154.209 267.143 154.229 267.172C154.258 267.194 154.283 267.22 154.303 267.249C154.422 267.423 154.474 267.593 154.46 267.759C154.455 267.919 154.394 268.038 154.278 268.117C154.123 268.223 153.918 268.193 153.663 268.026C153.411 267.844 153.138 267.59 152.845 267.265C152.562 266.933 152.274 266.562 151.98 266.153C151.686 265.743 151.417 265.359 151.173 265.001C150.973 265.166 150.801 265.319 150.656 265.46C150.505 265.592 150.371 265.697 150.255 265.776C150.148 265.849 150.033 265.878 149.91 265.863C149.779 265.838 149.678 265.773 149.605 265.666C149.526 265.55 149.492 265.438 149.504 265.331C149.526 265.217 149.581 265.101 149.671 264.983C149.761 264.865 149.881 264.74 150.033 264.609C150.194 264.47 150.376 264.311 150.578 264.13L150.42 263.897C150.109 263.443 149.903 262.995 149.801 262.554C149.692 262.103 149.666 261.681 149.724 261.287C149.784 260.877 149.927 260.503 150.151 260.166C150.368 259.819 150.651 259.526 150.999 259.289L151.217 259.14ZM156.56 255.494C156.702 255.411 156.824 255.392 156.925 255.436C157.036 255.474 157.125 255.542 157.191 255.638C157.244 255.716 157.264 255.808 157.252 255.916C157.234 256.013 157.171 256.098 157.065 256.171C156.484 256.567 156.134 257.062 156.013 257.655C155.886 258.238 156.084 258.912 156.605 259.677L156.744 259.88C156.947 259.741 157.165 259.593 157.397 259.434C157.63 259.276 157.853 259.145 158.066 259.042C158.28 258.939 158.476 258.883 158.654 258.875C158.836 258.85 158.98 258.915 159.085 259.07C159.158 259.176 159.174 259.293 159.133 259.42C159.092 259.548 159.004 259.657 158.868 259.75C158.617 259.922 158.357 260.092 158.089 260.26C157.824 260.413 157.574 260.576 157.339 260.751C157.725 261.296 158.116 261.817 158.511 262.313C158.916 262.803 159.25 263.178 159.513 263.439C159.533 263.468 159.552 263.497 159.572 263.526C159.602 263.548 159.626 263.574 159.646 263.603C159.765 263.777 159.817 263.947 159.803 264.113C159.798 264.273 159.738 264.392 159.621 264.471C159.467 264.577 159.261 264.546 159.006 264.38C158.754 264.198 158.481 263.944 158.189 263.619C157.905 263.287 157.617 262.916 157.323 262.507C157.03 262.097 156.761 261.713 156.516 261.355C156.316 261.52 156.144 261.673 155.999 261.814C155.848 261.946 155.714 262.051 155.598 262.13C155.492 262.203 155.377 262.232 155.253 262.217C155.123 262.192 155.021 262.127 154.949 262.02C154.869 261.904 154.836 261.792 154.847 261.685C154.869 261.571 154.925 261.455 155.014 261.337C155.104 261.219 155.225 261.094 155.376 260.963C155.537 260.824 155.719 260.665 155.922 260.484L155.763 260.251C155.453 259.796 155.246 259.349 155.144 258.908C155.035 258.457 155.01 258.035 155.067 257.641C155.128 257.231 155.27 256.857 155.494 256.52C155.711 256.173 155.994 255.88 156.342 255.643L156.56 255.494ZM161.424 257.07C161.556 257.306 161.695 257.551 161.841 257.807C161.997 258.055 162.16 258.305 162.332 258.557C162.576 258.915 162.835 259.263 163.109 259.602C163.392 259.933 163.649 260.269 163.88 260.608C164.012 260.801 164.063 260.979 164.032 261.142C164.011 261.298 163.947 261.413 163.841 261.486C163.744 261.552 163.639 261.574 163.525 261.552C163.414 261.515 163.3 261.422 163.185 261.273C162.859 260.857 162.559 260.48 162.286 260.142C162.015 259.787 161.755 259.426 161.504 259.058C161.404 258.913 161.274 258.733 161.113 258.517C160.954 258.284 160.815 258.06 160.696 257.843C160.579 257.611 160.506 257.398 160.474 257.207C160.446 256.999 160.509 256.843 160.664 256.737C160.761 256.671 160.873 256.658 161 256.699C161.137 256.733 161.255 256.823 161.354 256.968L161.424 257.07ZM158.468 254.235C158.493 254.189 158.52 254.156 158.549 254.137C158.588 254.11 158.625 254.092 158.661 254.082C158.706 254.065 158.739 254.05 158.758 254.037C158.8 253.994 158.84 253.96 158.879 253.933C158.911 253.897 158.951 253.863 159 253.83C159.319 253.612 159.629 253.556 159.929 253.663C160.239 253.764 160.476 253.935 160.642 254.177C160.721 254.294 160.778 254.439 160.812 254.614C160.856 254.783 160.865 254.962 160.837 255.15C160.813 255.323 160.75 255.501 160.648 255.684C160.546 255.867 160.393 256.028 160.19 256.167C160.055 256.259 159.906 256.311 159.743 256.323C159.581 256.334 159.423 256.321 159.27 256.284C159.11 256.237 158.963 256.167 158.829 256.074C158.688 255.972 158.575 255.857 158.489 255.732C158.357 255.538 158.281 255.292 158.261 254.993C158.252 254.688 158.32 254.435 158.468 254.235ZM159.331 254.752L159.215 254.832C159.18 254.884 159.169 254.941 159.183 255.003C159.197 255.064 159.22 255.119 159.253 255.168C159.312 255.255 159.402 255.314 159.523 255.345C159.637 255.367 159.723 255.358 159.781 255.318C159.926 255.219 159.993 255.109 159.982 254.989C159.965 254.859 159.929 254.756 159.877 254.678C159.723 254.556 159.573 254.545 159.428 254.644C159.408 254.657 159.376 254.693 159.331 254.752ZM169.336 256.565C169.481 256.466 169.611 256.428 169.725 256.449C169.832 256.461 169.922 256.52 169.995 256.627C170.087 256.762 170.123 256.887 170.101 257.001C170.073 257.105 170.017 257.2 169.934 257.285C169.85 257.371 169.75 257.453 169.634 257.532C169.518 257.612 169.416 257.681 169.329 257.74C168.923 258.018 168.491 258.248 168.035 258.432C167.572 258.606 167.123 258.707 166.688 258.734C166.252 258.762 165.842 258.701 165.457 258.553C165.072 258.404 164.747 258.136 164.483 257.749C164.173 257.294 164.018 256.839 164.02 256.384C164.024 255.912 164.125 255.468 164.322 255.05C164.522 254.615 164.796 254.216 165.143 253.851C165.5 253.48 165.877 253.159 166.274 252.888C166.525 252.716 166.742 252.618 166.924 252.593C167.099 252.559 167.246 252.629 167.365 252.803C167.437 252.91 167.468 253.017 167.456 253.124C167.454 253.225 167.404 253.308 167.308 253.374C167.24 253.42 167.177 253.463 167.119 253.503C167.054 253.533 166.993 253.568 166.935 253.607C166.596 253.839 166.29 254.097 166.017 254.383C165.753 254.662 165.545 254.96 165.392 255.277C165.25 255.587 165.18 255.911 165.184 256.249C165.19 256.571 165.303 256.892 165.521 257.211C165.692 257.463 165.915 257.623 166.189 257.691C166.463 257.76 166.757 257.765 167.072 257.706C167.386 257.648 167.705 257.543 168.029 257.394C168.352 257.244 168.649 257.077 168.92 256.892C168.998 256.839 169.07 256.789 169.138 256.743C169.199 256.687 169.265 256.628 169.336 256.565ZM169.555 251.522C169.687 251.757 169.826 252.003 169.972 252.258C170.128 252.507 170.291 252.757 170.463 253.009C170.707 253.367 170.966 253.715 171.24 254.053C171.523 254.385 171.78 254.72 172.011 255.059C172.143 255.253 172.194 255.431 172.163 255.594C172.142 255.75 172.078 255.865 171.972 255.937C171.875 256.003 171.77 256.026 171.656 256.004C171.545 255.966 171.432 255.873 171.316 255.725C170.99 255.309 170.69 254.932 170.417 254.594C170.146 254.239 169.886 253.878 169.635 253.51C169.536 253.365 169.405 253.184 169.244 252.968C169.085 252.736 168.946 252.511 168.827 252.295C168.711 252.062 168.637 251.85 168.605 251.659C168.577 251.451 168.641 251.294 168.795 251.189C168.892 251.122 169.004 251.11 169.131 251.151C169.268 251.185 169.386 251.275 169.485 251.42L169.555 251.522ZM166.599 248.687C166.624 248.641 166.652 248.608 166.681 248.588C166.719 248.562 166.757 248.544 166.792 248.533C166.837 248.517 166.87 248.502 166.889 248.489C166.931 248.446 166.971 248.411 167.01 248.385C167.042 248.349 167.082 248.314 167.131 248.281C167.45 248.063 167.76 248.008 168.06 248.115C168.37 248.216 168.608 248.387 168.773 248.629C168.852 248.745 168.909 248.891 168.943 249.066C168.987 249.235 168.996 249.413 168.968 249.602C168.944 249.775 168.881 249.952 168.779 250.136C168.677 250.319 168.524 250.48 168.321 250.618C168.186 250.711 168.037 250.763 167.874 250.774C167.712 250.786 167.554 250.773 167.401 250.736C167.241 250.689 167.094 250.619 166.96 250.526C166.819 250.423 166.706 250.309 166.62 250.183C166.488 249.99 166.412 249.743 166.392 249.445C166.383 249.139 166.451 248.887 166.599 248.687ZM167.462 249.204L167.346 249.283C167.311 249.336 167.3 249.393 167.314 249.454C167.328 249.516 167.351 249.571 167.384 249.619C167.444 249.706 167.534 249.765 167.654 249.797C167.768 249.818 167.854 249.809 167.912 249.77C168.057 249.67 168.125 249.561 168.113 249.441C168.096 249.311 168.061 249.207 168.008 249.13C167.854 249.008 167.704 248.997 167.559 249.096C167.539 249.109 167.507 249.145 167.462 249.204ZM177.498 251.124C177.662 251.012 177.81 250.968 177.94 250.992C178.064 251.007 178.165 251.073 178.244 251.189C178.33 251.315 178.362 251.435 178.341 251.549C178.322 251.646 178.275 251.743 178.198 251.838C178.13 251.926 178.039 252.01 177.922 252.09C177.816 252.162 177.719 252.228 177.632 252.288C177.226 252.565 176.786 252.794 176.313 252.975C175.844 253.139 175.38 253.229 174.922 253.243C174.464 253.258 174.031 253.185 173.623 253.023C173.214 252.862 172.878 252.588 172.614 252.2C172.33 251.784 172.197 251.35 172.215 250.898C172.236 250.43 172.346 249.978 172.546 249.544C172.747 249.11 173.007 248.712 173.328 248.351C173.649 247.99 173.975 247.697 174.304 247.472C174.468 247.36 174.646 247.267 174.837 247.194C175.038 247.113 175.239 247.076 175.44 247.08C175.642 247.084 175.842 247.139 176.042 247.244C176.241 247.349 176.427 247.528 176.599 247.779C176.803 248.079 176.882 248.402 176.833 248.747C176.785 249.092 176.675 249.43 176.503 249.76C176.331 250.09 176.118 250.391 175.864 250.664C175.61 250.936 175.385 251.147 175.188 251.295C175.082 251.368 174.973 251.385 174.862 251.347C174.754 251.293 174.664 251.213 174.592 251.107C174.532 251.019 174.497 250.916 174.486 250.796C174.468 250.666 174.517 250.561 174.634 250.482C174.818 250.357 174.998 250.205 175.175 250.028C175.361 249.844 175.515 249.653 175.637 249.457C175.761 249.244 175.839 249.036 175.869 248.83C175.899 248.625 175.855 248.436 175.736 248.261C175.558 248 175.27 248.005 174.873 248.276C174.612 248.454 174.362 248.681 174.125 248.957C173.881 249.222 173.687 249.511 173.544 249.821C173.401 250.131 173.323 250.454 173.311 250.789C173.301 251.107 173.395 251.412 173.594 251.702C173.746 251.925 173.949 252.077 174.203 252.159C174.467 252.234 174.757 252.264 175.072 252.247C175.39 252.214 175.718 252.133 176.054 252.002C176.4 251.865 176.733 251.688 177.053 251.47C177.13 251.417 177.208 251.364 177.285 251.312C177.356 251.249 177.427 251.186 177.498 251.124ZM178.379 245.117C178.468 244.915 178.6 244.725 178.777 244.548C178.964 244.364 179.168 244.196 179.391 244.044C179.714 243.852 180.016 243.723 180.299 243.658C180.581 243.594 180.854 243.599 181.118 243.674C181.375 243.739 181.63 243.885 181.883 244.109C182.129 244.325 182.384 244.626 182.649 245.013C182.919 245.41 183.154 245.796 183.353 246.171C183.546 246.536 183.697 246.872 183.808 247.18C183.912 247.478 183.965 247.732 183.967 247.944C183.986 248.158 183.937 248.305 183.821 248.384C183.734 248.443 183.637 248.467 183.529 248.455C183.422 248.443 183.325 248.375 183.239 248.249C183.153 248.123 183.059 247.953 182.956 247.74C182.856 247.51 182.749 247.271 182.636 247.022C182.526 246.756 182.406 246.498 182.277 246.246C182.15 245.977 182.018 245.741 181.879 245.538C181.687 245.257 181.511 245.051 181.351 244.92C181.193 244.772 181.038 244.679 180.884 244.642C180.734 244.588 180.583 244.585 180.431 244.632C180.272 244.67 180.104 244.735 179.926 244.828C179.723 244.966 179.543 245.139 179.386 245.346C179.228 245.552 179.077 245.705 178.932 245.804C178.845 245.863 178.749 245.879 178.645 245.851C178.55 245.816 178.473 245.755 178.414 245.668C178.368 245.6 178.336 245.523 178.319 245.435C178.305 245.331 178.325 245.225 178.379 245.117ZM177.641 245.408C178.077 246.047 178.524 246.692 178.983 247.344C179.435 247.986 179.882 248.547 180.322 249.026L180.392 249.128C180.504 249.292 180.546 249.448 180.519 249.595C180.494 249.725 180.433 249.823 180.337 249.889C180.249 249.948 180.141 249.966 180.01 249.941C179.88 249.917 179.749 249.829 179.618 249.677C179.252 249.246 178.886 248.793 178.52 248.319C178.155 247.845 177.793 247.347 177.437 246.824C177.364 246.718 177.277 246.6 177.174 246.471C177.072 246.342 176.986 246.216 176.917 246.094C176.85 245.955 176.82 245.827 176.825 245.71C176.833 245.576 176.905 245.463 177.041 245.371C177.137 245.305 177.248 245.279 177.371 245.294C177.498 245.293 177.588 245.331 177.641 245.408ZM188.618 243.408C188.764 243.309 188.893 243.27 189.007 243.291C189.115 243.303 189.205 243.363 189.277 243.469C189.37 243.604 189.405 243.729 189.384 243.843C189.356 243.948 189.3 244.042 189.216 244.128C189.133 244.213 189.033 244.296 188.917 244.375C188.8 244.454 188.699 244.523 188.612 244.583C188.205 244.86 187.774 245.091 187.317 245.275C186.854 245.449 186.405 245.549 185.97 245.577C185.535 245.604 185.125 245.544 184.739 245.395C184.354 245.246 184.03 244.979 183.765 244.591C183.455 244.136 183.301 243.681 183.302 243.226C183.307 242.755 183.408 242.31 183.605 241.892C183.805 241.458 184.078 241.058 184.425 240.693C184.782 240.322 185.159 240.001 185.556 239.731C185.808 239.559 186.024 239.461 186.206 239.436C186.381 239.401 186.528 239.471 186.647 239.646C186.72 239.752 186.75 239.859 186.738 239.966C186.736 240.067 186.687 240.151 186.59 240.217C186.522 240.263 186.459 240.306 186.401 240.346C186.336 240.375 186.275 240.41 186.217 240.45C185.878 240.681 185.572 240.94 185.299 241.225C185.036 241.504 184.827 241.802 184.675 242.119C184.532 242.43 184.462 242.754 184.466 243.092C184.473 243.414 184.585 243.734 184.803 244.054C184.975 244.305 185.197 244.465 185.471 244.534C185.745 244.602 186.039 244.607 186.354 244.549C186.669 244.49 186.988 244.386 187.311 244.236C187.634 244.086 187.932 243.919 188.203 243.734C188.28 243.681 188.353 243.632 188.42 243.585C188.482 243.53 188.548 243.47 188.618 243.408ZM188.981 239.074C189.095 239.408 189.222 239.676 189.361 239.88C189.539 240.141 189.749 240.345 189.991 240.492C190.243 240.632 190.506 240.716 190.779 240.742C191.062 240.762 191.351 240.728 191.646 240.64C191.94 240.552 192.223 240.416 192.494 240.231C192.523 240.211 192.552 240.191 192.582 240.172C192.604 240.142 192.63 240.117 192.659 240.098C192.736 240.045 192.839 240.039 192.966 240.08C193.096 240.104 193.197 240.17 193.27 240.276C193.363 240.412 193.393 240.54 193.362 240.66C193.341 240.774 193.223 240.904 193.01 241.049C192.507 241.393 192.031 241.611 191.584 241.704C191.136 241.796 190.719 241.797 190.331 241.707C189.937 241.608 189.58 241.439 189.263 241.202C188.948 240.949 188.675 240.653 188.444 240.314C188.378 240.217 188.305 240.11 188.226 239.994C188.15 239.862 188.093 239.737 188.056 239.621C188.012 239.494 187.996 239.378 188.008 239.27C188.023 239.146 188.089 239.045 188.205 238.966C188.302 238.9 188.426 238.864 188.579 238.859C188.735 238.838 188.856 238.89 188.942 239.016L188.981 239.074ZM192.042 236.262C192.454 236.762 192.838 237.252 193.194 237.732C193.56 238.206 193.911 238.69 194.248 239.183C194.44 239.464 194.628 239.74 194.813 240.011C194.991 240.272 195.14 240.554 195.261 240.855C195.381 241.156 195.45 241.485 195.466 241.842C195.49 242.209 195.433 242.624 195.295 243.087C195.232 243.286 195.153 243.503 195.058 243.738C194.973 243.967 194.868 244.187 194.743 244.4C194.625 244.622 194.494 244.825 194.35 245.009C194.206 245.192 194.051 245.34 193.887 245.452C193.77 245.532 193.637 245.544 193.487 245.491C193.347 245.431 193.234 245.338 193.148 245.212C193.088 245.125 193.052 245.029 193.037 244.925C193.04 244.824 193.083 244.731 193.166 244.646C193.381 244.4 193.578 244.117 193.757 243.796C193.945 243.469 194.088 243.138 194.185 242.802C194.292 242.459 194.346 242.124 194.349 241.796C194.359 241.477 194.299 241.192 194.17 240.939C194.02 240.658 193.833 240.353 193.609 240.024C193.474 239.847 193.34 239.661 193.208 239.468C193.069 239.264 192.924 239.073 192.773 238.892L191.171 236.857C191.158 236.837 191.146 236.831 191.137 236.838C191.13 236.828 191.12 236.813 191.107 236.794C191.028 236.678 191.004 236.56 191.035 236.439C191.069 236.302 191.139 236.197 191.246 236.125C191.352 236.052 191.48 236.021 191.63 236.033C191.773 236.034 191.91 236.111 192.042 236.262Z" fill="white"/>
<rect x="210.174" y="219.204" width="121.571" height="61.45" rx="3.32162" transform="rotate(0.422218 210.174 219.204)" fill="#9A9EA6" fill-opacity="0.17"/>
<rect x="215.907" y="224.018" width="110.367" height="48.9171" rx="1.20719" transform="rotate(0.422218 215.907 224.018)" stroke="white" stroke-opacity="0.27" stroke-width="0.90725"/>
<circle cx="223.699" cy="277.102" r="2.41403" transform="rotate(0.422218 223.699 277.102)" fill="#FFAAAA" fill-opacity="0.36"/>
<path d="M226.113 277.12L325.671 277.688" stroke="#6E8FBE" stroke-width="0.90725"/>
<rect width="38.216" height="1.52301" rx="0.761505" transform="matrix(0.999973 0.00736904 0.00736904 -0.999973 220.406 231.464)" fill="#D9D9D9" fill-opacity="0.4"/>
<rect width="38.216" height="1.52301" rx="0.761505" transform="matrix(0.999973 0.00736904 0.00736904 -0.999973 220.275 249.271)" fill="#D9D9D9" fill-opacity="0.4"/>
<rect width="29.9374" height="1.52301" rx="0.761505" transform="matrix(0.999973 0.00736904 0.00736904 -0.999973 220.232 254.947)" fill="#D9D9D9" fill-opacity="0.4"/>
<rect width="34.1334" height="1.52301" rx="0.761505" transform="matrix(0.999973 0.00736904 0.00736904 -0.999973 220.191 260.625)" fill="#D9D9D9" fill-opacity="0.4"/>
<rect width="27.8961" height="1.52301" rx="0.761505" transform="matrix(0.999973 0.00736904 0.00736904 -0.999973 220.148 266.3)" fill="#D9D9D9" fill-opacity="0.4"/>
<rect width="35.3809" height="1.52301" rx="0.761505" transform="matrix(0.999973 0.00736904 0.00736904 -0.999973 220.365 237.02)" fill="#D9D9D9" fill-opacity="0.4"/>
<rect width="30.958" height="1.52301" rx="0.761505" transform="matrix(0.999973 0.00736904 0.00736904 -0.999973 220.324 242.577)" fill="#D9D9D9" fill-opacity="0.4"/>
<rect x="281.32" y="229.418" width="35.0425" height="31.4946" rx="2.26812" transform="rotate(0.422218 281.32 229.418)" fill="white" fill-opacity="0.3"/>
<rect x="281.055" y="265.408" width="35.0425" height="3.15544" rx="0.90725" transform="rotate(0.422218 281.055 265.408)" fill="white" fill-opacity="0.3"/>
<path d="M348.282 213.277C348.482 213.087 348.49 212.77 348.299 212.57L345.192 209.315C345.001 209.116 344.685 209.108 344.485 209.299C344.285 209.49 344.278 209.806 344.468 210.006L347.23 212.899L344.337 215.661C344.137 215.852 344.13 216.168 344.32 216.368C344.511 216.568 344.828 216.575 345.027 216.384L348.282 213.277ZM272.637 211.664L347.926 213.416L347.949 212.416L272.66 210.664L272.637 211.664Z" fill="url(#paint0_linear_70_358)" fill-opacity="0.51"/>
<rect x="186.395" y="38.2541" width="198.71" height="120.833" stroke="#1358BF" stroke-width="2.78952"/>
<path d="M185 17.0118C185 7.61646 192.616 0 202.012 0H369.488C378.884 0 386.5 7.61645 386.5 17.0118V39.0533H185V17.0118Z" fill="url(#paint1_linear_70_358)" fill-opacity="0.42"/>
<rect x="204.445" y="59.0049" width="55.8756" height="49.221" rx="3.3713" fill="#6FAAE0"/>
<rect x="279.545" y="63.4082" width="80.9993" height="4.41242" rx="2.20621" fill="#0056B3"/>
<rect x="277.971" y="101.229" width="80.9993" height="4.41242" rx="2.20621" fill="#0056B3"/>
<rect x="279.545" y="76.0146" width="69.9683" height="4.41242" rx="2.20621" fill="#0056B3"/>
<rect x="277.971" y="113.837" width="69.9683" height="4.41242" rx="2.20621" fill="#0056B3"/>
<rect x="279.545" y="88.6221" width="56.7311" height="4.41242" rx="2.20621" fill="#0056B3"/>
<rect x="277.971" y="126.442" width="56.7311" height="4.41242" rx="2.20621" fill="#0056B3"/>
<rect x="0.704106" y="264.728" width="10.5126" height="11.2801" rx="0.5" transform="rotate(-50.2807 0.704106 264.728)" stroke="#361A84"/>
<path d="M138.798 106.408L151.318 103.281L146.152 115.106L138.798 106.408Z" stroke="#FFB27D" stroke-width="0.917779"/>
<path d="M97.3521 280.218C96.4165 279.263 95.8174 278.002 95.2198 276.825C94.483 275.38 93.6756 273.94 92.768 272.593C90.8425 269.747 89.3166 266.659 87.504 263.742C87.2508 263.337 86.9965 262.937 86.7494 262.529C86.5071 262.121 86.2805 261.713 86.0472 261.3C85.8158 260.89 85.5922 260.48 85.3698 260.065C85.151 259.656 84.9461 259.222 84.6355 258.872C84.608 258.839 84.5688 258.842 84.5351 258.854C84.5225 258.833 84.5099 258.811 84.4974 258.79C84.4615 258.73 84.3929 258.718 84.3289 258.747C84.1268 258.847 83.9301 258.956 83.7322 259.07C83.3157 259.166 82.9144 259.405 82.5547 259.611C82.0454 259.901 81.578 260.249 81.0915 260.571C80.4848 260.973 79.8673 261.356 79.266 261.767C79.1115 261.871 78.9557 261.98 78.8029 262.087C78.3463 262.302 77.8932 262.522 77.4641 262.79C77.0138 263.07 76.5809 263.393 76.2907 263.839C76.2696 263.851 76.2503 263.867 76.2309 263.883C76.2291 263.88 76.2255 263.873 76.2238 263.87C76.1584 263.795 76.0226 263.876 76.0548 263.971C76.1948 264.357 76.4186 264.706 76.6196 265.065C76.8295 265.438 77.0316 265.812 77.2324 266.191C77.6269 266.937 78.0583 267.669 78.5222 268.374C79.468 269.813 80.3027 271.326 81.1399 272.83C81.9789 274.337 82.8504 275.836 83.8071 277.273C84.7392 278.675 85.6103 280.126 86.3933 281.621C86.7466 282.298 87.1034 282.98 87.511 283.624C87.9048 284.252 88.3539 284.883 88.9417 285.343C88.9849 285.374 89.0393 285.321 89.0003 285.283C88.9817 285.266 88.9661 285.247 88.9523 285.23C89.1943 285.094 89.4279 284.951 89.6645 284.807C90.5682 284.527 91.4037 283.96 92.183 283.464C92.7214 283.119 93.2658 282.791 93.8329 282.495C93.9832 282.418 94.1286 282.339 94.277 282.259C94.8143 282.05 95.3516 281.841 95.8668 281.587C96.458 281.297 97.0393 280.935 97.4477 280.406C97.5095 280.325 97.4575 280.217 97.3587 280.222L97.3521 280.218Z" fill="#78ACEA"/>
<path d="M106.545 269.435C105.603 267.687 104.604 265.944 103.518 264.29C100.984 260.422 98.8496 256.311 96.4286 252.371C96.0911 251.824 95.7524 251.282 95.4209 250.732C95.0961 250.185 94.7851 249.635 94.4675 249.081C94.1535 248.532 93.8455 247.98 93.5406 247.426C93.2392 246.878 92.9482 246.299 92.5587 245.816C92.4982 245.742 92.4132 245.764 92.3864 245.829C92.3738 245.828 92.3599 245.832 92.3491 245.835C92.1663 245.919 92.0343 246.116 91.8736 246.244C91.6755 246.399 91.4606 246.539 91.2398 246.662C90.7546 246.938 90.2587 247.176 89.7568 247.417C88.6161 247.965 87.5442 248.615 86.4632 249.27C85.7547 249.7 85.0059 250.096 84.3434 250.596C84.2958 250.612 84.2619 250.665 84.2905 250.734C84.5023 251.241 84.7997 251.714 85.0743 252.196C85.3596 252.696 85.6388 253.2 85.9132 253.703C86.4585 254.702 87.0388 255.684 87.6535 256.642C88.9044 258.594 90.0443 260.621 91.1866 262.638C92.3307 264.657 93.5109 266.676 94.7727 268.626C96.0045 270.532 97.1753 272.487 98.2545 274.48C98.7423 275.383 99.2356 276.294 99.7796 277.168C100.304 278.016 100.89 278.877 101.601 279.544C101.654 279.591 101.704 279.532 101.655 279.476C101.641 279.459 101.627 279.443 101.615 279.43C101.628 279.43 101.637 279.433 101.648 279.43C102.385 279.323 102.852 278.694 103.41 278.264C103.486 278.207 103.563 278.157 103.64 278.103C103.712 278.064 103.778 278.025 103.851 277.99C104.516 277.651 105.194 277.35 105.874 277.044C107.199 276.448 108.472 275.801 109.595 274.872C109.66 274.816 109.608 274.729 109.541 274.712C109.548 274.662 109.549 274.609 109.536 274.559C109.588 274.614 109.64 274.673 109.696 274.726C109.748 274.772 109.799 274.713 109.749 274.657C109.634 274.526 109.525 274.39 109.414 274.252C109.367 274.173 109.321 274.095 109.274 274.017C109.13 273.788 108.992 273.555 108.853 273.323C108.535 272.794 108.175 272.293 107.896 271.74C107.657 271.269 106.818 269.66 106.537 269.435L106.545 269.435Z" fill="#78ACEA"/>
<path d="M119.182 260.423C117.778 257.855 116.29 255.272 114.715 252.802C111.375 247.578 108.435 242.113 105.208 236.818C104.759 236.084 104.307 235.352 103.865 234.614C103.429 233.881 103.008 233.147 102.579 232.405C102.154 231.669 101.736 230.933 101.322 230.195C100.911 229.463 100.509 228.697 100.012 228.033C99.9225 227.911 99.8157 227.958 99.8321 228.075C99.8214 228.057 99.8106 228.038 99.7998 228.02C99.7693 227.969 99.6917 227.942 99.641 227.98C98.3923 228.882 93.0239 231.944 92.7714 232.172C92.6282 232.302 92.4807 232.439 92.3153 232.545C92.1711 232.639 92.0077 232.688 91.8664 232.78C91.8604 232.783 91.861 232.791 91.8567 232.798C91.766 232.741 91.6845 232.81 91.743 232.943C92.0481 233.607 92.4442 234.246 92.8139 234.888C93.1997 235.557 93.5776 236.227 93.9544 236.902C94.6971 238.233 95.4766 239.55 96.2887 240.84C97.9435 243.471 99.4889 246.179 101.035 248.875C102.585 251.577 104.171 254.278 105.836 256.906C107.463 259.476 109.03 262.098 110.506 264.758C111.173 265.962 111.846 267.176 112.57 268.351C113.27 269.495 114.035 270.657 114.91 271.6C114.968 271.663 115.011 271.605 114.965 271.534C115.119 271.573 115.304 271.52 115.453 271.481C115.701 271.411 115.937 271.307 116.167 271.191C116.715 270.918 117.24 270.585 117.747 270.243C118.199 269.938 118.649 269.629 119.118 269.346C119.823 268.918 120.486 268.418 121.198 268.003C121.721 267.7 122.443 267.54 122.851 267.065C122.871 267.044 122.892 267.024 122.904 266.996C122.927 266.966 122.952 266.939 122.97 266.908C123.002 266.852 122.962 266.798 122.909 266.785C122.893 266.717 122.866 266.651 122.833 266.589C122.833 266.589 122.83 266.583 122.828 266.58C122.888 266.646 122.943 266.72 123.002 266.783C123.063 266.852 123.112 266.783 123.049 266.705C121.533 264.829 120.337 262.551 119.169 260.414L119.182 260.423Z" fill="#78ACEA"/>
<path d="M157.786 234.576C155.916 231.227 153.959 227.853 151.918 224.601C147.595 217.724 143.671 210.605 139.461 203.656C138.876 202.693 138.288 201.731 137.709 200.765C137.136 199.802 136.581 198.841 136.019 197.876C135.459 196.914 134.907 195.952 134.358 194.987C133.815 194.032 133.276 193.037 132.646 192.15C132.56 192.025 132.471 192.021 132.449 192.087C132.432 192.085 132.41 192.09 132.389 192.102C131.951 192.424 131.441 192.658 130.967 192.919C130.459 193.197 129.953 193.481 129.484 193.818C129.177 194.037 128.886 194.276 128.6 194.515C128.578 194.528 128.554 194.542 128.531 194.552C127.909 194.906 127.318 195.314 126.688 195.656C125.954 196.056 125.189 196.425 124.505 196.91C124.403 196.807 124.314 196.864 124.359 197.009C124.293 197.056 124.343 197.145 124.417 197.126C124.834 197.964 125.336 198.781 125.809 199.598C126.317 200.473 126.819 201.351 127.316 202.227C128.301 203.966 129.323 205.691 130.377 207.388C132.526 210.849 134.565 214.387 136.604 217.913C138.648 221.444 140.732 224.984 142.89 228.439C144.999 231.821 147.051 235.258 149.008 238.726C149.894 240.299 150.788 241.883 151.728 243.424C152.387 244.503 153.084 245.6 153.824 246.61C153.82 246.624 153.818 246.642 153.827 246.657C153.91 246.816 154.01 246.965 154.118 247.105C154.265 247.311 154.425 247.511 154.571 247.722C154.583 247.743 154.603 247.748 154.622 247.753C154.647 247.795 154.672 247.837 154.692 247.878C154.707 247.91 154.764 247.889 154.75 247.852C154.737 247.815 154.718 247.777 154.701 247.742C154.701 247.742 154.704 247.74 154.707 247.739C154.758 247.79 154.789 247.772 154.779 247.721C156.107 247.413 157.183 246.544 158.265 245.745C158.71 245.505 159.155 245.265 159.604 245.023C160.655 244.455 161.697 243.872 162.69 243.207C162.712 243.194 162.721 243.176 162.729 243.155C162.781 243.125 162.832 243.102 162.882 243.069C162.909 243.053 162.915 243.021 162.901 242.992C162.892 242.977 162.883 242.962 162.878 242.945C162.89 242.925 162.881 242.881 162.841 242.828C160.944 240.312 159.342 237.351 157.788 234.566L157.786 234.576Z" fill="#78ACEA"/>
<path d="M145.274 243.848C143.718 241.027 142.08 238.19 140.354 235.467C136.697 229.709 133.441 223.713 129.896 217.884C129.402 217.074 128.908 216.27 128.42 215.457C127.939 214.648 127.475 213.841 127.005 213.03C126.537 212.222 126.076 211.413 125.617 210.6C125.163 209.795 124.718 208.957 124.178 208.221C124.111 208.13 124.043 208.125 124.01 208.165C123.986 208.159 123.96 208.158 123.928 208.173C123.242 208.516 122.595 208.974 121.943 209.382C121.308 209.776 120.671 210.176 120.039 210.576C118.75 211.396 117.462 212.211 116.171 213.028C116.131 213.051 116.129 213.089 116.138 213.125C116.12 213.095 116.102 213.064 116.078 213.038C115.965 212.881 115.829 212.962 115.909 213.138C116.252 213.866 116.686 214.568 117.095 215.276C117.52 216.012 117.938 216.748 118.354 217.489C119.176 218.953 120.032 220.4 120.924 221.823C122.738 224.723 124.443 227.7 126.147 230.661C127.855 233.628 129.602 236.6 131.428 239.498C133.21 242.33 134.934 245.214 136.564 248.134C137.302 249.456 138.046 250.79 138.839 252.083C139.349 252.919 139.894 253.76 140.474 254.542C140.485 254.56 140.489 254.582 140.5 254.6C140.535 254.665 140.565 254.729 140.599 254.795C140.669 254.925 140.738 255.055 140.822 255.177C140.946 255.356 141.109 255.549 141.33 255.61C141.347 255.633 141.364 255.655 141.383 255.672C141.415 255.706 141.441 255.708 141.454 255.696C141.466 255.709 141.487 255.717 141.508 255.704C141.571 255.659 141.64 255.617 141.705 255.575C142.076 255.554 142.497 255.279 142.782 255.126C143.347 254.819 143.871 254.45 144.405 254.091C145.483 253.369 146.646 252.824 147.779 252.195C148.101 252.016 148.418 251.827 148.725 251.616C148.965 251.449 149.303 251.248 149.435 250.982C149.458 250.931 149.428 250.888 149.383 250.881C149.392 250.835 149.394 250.789 149.386 250.741C149.42 250.778 149.452 250.825 149.486 250.861C149.551 250.937 149.599 250.867 149.532 250.781C147.892 248.697 146.566 246.2 145.273 243.853L145.274 243.848Z" fill="#78ACEA"/>
<path d="M132.64 252.739C131.321 250.316 129.924 247.883 128.434 245.558C125.28 240.645 122.522 235.488 119.48 230.503C119.057 229.812 118.632 229.125 118.214 228.43C117.803 227.739 117.408 227.046 117.006 226.35C116.606 225.657 116.214 224.963 115.824 224.267C115.439 223.577 115.061 222.854 114.589 222.232C114.497 222.111 114.387 222.173 114.414 222.295C114.413 222.292 114.411 222.289 114.407 222.283C114.384 222.272 114.355 222.277 114.337 222.296C114.337 222.296 114.337 222.296 114.336 222.293C114.333 222.295 114.331 222.299 114.33 222.304C114.33 222.304 114.33 222.304 114.327 222.306C114.327 222.306 114.327 222.306 114.326 222.311C114.31 222.332 114.297 222.352 114.286 222.375C114.059 222.433 113.839 222.612 113.649 222.726C113.366 222.894 113.089 223.067 112.808 223.234C112.334 223.516 111.868 223.81 111.405 224.11C111.399 224.113 111.392 224.109 111.386 224.113C111.31 224.157 111.237 224.213 111.166 224.264C111.111 224.296 111.059 224.332 111.003 224.369C110.892 224.443 110.778 224.519 110.667 224.593C110.501 224.692 110.333 224.788 110.164 224.88C109.742 225.119 109.293 225.312 108.849 225.507C108.004 225.879 107.079 226.315 106.421 226.98C106.341 226.95 106.274 227.022 106.327 227.138C106.61 227.766 106.985 228.368 107.333 228.974C107.695 229.604 108.052 230.238 108.403 230.87C109.101 232.126 109.834 233.365 110.601 234.579C112.165 237.057 113.617 239.608 115.071 242.15C116.528 244.695 118.022 247.241 119.596 249.716C121.133 252.135 122.609 254.603 123.995 257.112C124.621 258.247 125.254 259.394 125.936 260.5C126.529 261.463 127.177 262.434 127.904 263.259C127.902 263.269 127.899 263.279 127.905 263.288C127.954 263.398 128.003 263.495 128.073 263.592C128.091 263.622 128.123 263.628 128.155 263.613C129.572 262.958 130.94 262.14 132.271 261.328C133.597 260.515 134.941 259.712 136.221 258.828C136.251 258.81 136.267 258.768 136.263 258.734C136.322 258.792 136.369 258.727 136.31 258.656C134.864 256.898 133.745 254.749 132.649 252.733L132.64 252.739Z" fill="#78ACEA"/>
<path d="M56.6498 188.993C56.6217 188.947 56.5478 188.929 56.502 188.957C55.7347 189.454 32.9668 203.15 31.1601 204.48C31.0988 204.524 31.072 204.604 31.1142 204.673C31.4828 205.304 31.8973 205.907 32.2999 206.511C32.2843 206.609 32.375 206.736 32.487 206.693C32.4961 206.687 32.5099 206.679 32.519 206.673C32.519 206.673 32.519 206.673 32.5236 206.67C33.4946 206.269 34.3701 205.631 35.2452 205.043C35.39 204.961 35.5348 204.878 35.6824 204.8C36.7437 204.218 56.0146 192.303 56.4419 192.084C56.7702 191.921 57.8864 191.664 57.7308 190.959C57.5675 190.22 56.9892 189.648 56.6452 188.996L56.6498 188.993Z" fill="#8299E8"/>
<path d="M62.41 203.158C62.3819 203.113 62.3126 203.092 62.2714 203.117C61.5728 203.572 40.6917 216.11 39.0499 217.339C38.9931 217.38 38.9709 217.456 39.0131 217.525C39.3863 218.154 39.7962 218.759 40.1942 219.366C40.1832 219.462 40.2739 219.589 40.3767 219.551C40.3859 219.545 40.3996 219.537 40.4088 219.531C40.4088 219.531 40.4088 219.531 40.4134 219.528C41.3111 219.173 42.106 218.577 42.906 218.042C43.0371 217.968 43.1727 217.891 43.3111 217.818C45.2048 216.794 62.0608 206.4 61.5198 206.669C61.8206 206.522 63.6787 205.81 63.5048 205.116C63.3231 204.389 62.7586 203.808 62.41 203.158Z" fill="#8299E8"/>
<path d="M53.4204 196.469C53.3923 196.423 53.3321 196.397 53.2955 196.419C52.7022 196.809 34.9673 207.415 33.5865 208.483C33.5389 208.519 33.5258 208.59 33.568 208.659C33.9413 209.287 34.3466 209.896 34.7446 210.503C34.7427 210.592 34.8288 210.722 34.9151 210.688C34.9243 210.683 34.9334 210.677 34.9426 210.671C35.7167 210.392 36.3879 209.872 37.0597 209.416C37.1725 209.353 37.2852 209.29 37.4053 209.229C38.2376 208.787 53.4098 199.389 53.7501 199.224C54.0097 199.102 54.7229 199.093 54.5215 198.416C54.3124 197.706 53.7708 197.111 53.4176 196.464L53.4204 196.469Z" fill="#8299E8"/>
<path d="M80.8532 174.131C80.8251 174.085 80.7786 174.051 80.7649 174.059C80.4922 174.252 72.0217 179.169 71.4195 179.76C71.3994 179.779 71.4046 179.838 71.4468 179.907C71.8292 180.53 72.2208 181.147 72.605 181.763C72.6261 181.838 72.7076 181.971 72.7555 181.967C72.7555 181.967 72.7647 181.961 72.7692 181.958C73.1816 181.9 73.4755 181.619 73.7827 181.38C73.8359 181.354 73.8936 181.324 73.9496 181.303C74.3607 181.12 81.1065 176.895 81.2773 176.835C81.4086 176.792 82.2685 176.693 81.9846 176.066C81.6885 175.409 81.2156 174.773 80.844 174.137L80.8532 174.131Z" fill="#8299E8"/>
<path d="M86.5764 176.109C86.5483 176.064 86.4973 176.032 86.4744 176.046C86.101 176.3 74.7224 183.004 73.8775 183.743C73.8482 183.767 73.8489 183.83 73.891 183.899C74.2689 184.524 74.6651 185.139 75.0539 185.751C75.0658 185.832 75.1519 185.962 75.2107 185.945C75.2153 185.942 75.2199 185.94 75.229 185.934C75.7558 185.806 76.166 185.447 76.5905 185.142C76.662 185.104 76.7381 185.064 76.8124 185.031C78.2964 184.315 87.4389 178.695 86.6909 178.997C86.8634 178.929 87.9568 178.686 87.6959 178.045C87.4272 177.372 86.9314 176.749 86.5645 176.11L86.5764 176.109Z" fill="#8299E8"/>
<path d="M115.438 157.549L97.0726 188.015L102.547 195.555L105.824 187.924L115.438 157.549Z" fill="#ED946F"/>
<path d="M97.0721 188.017L115.437 157.552L86.2592 188.292L97.0721 188.017Z" fill="#5697F1"/>
<path d="M102.249 187.885L116.919 187.512L115.437 157.552L102.249 187.885Z" fill="#5697F1"/>
<path d="M101.455 199.142C101.537 198.7 101.609 198.258 101.67 197.828L100.551 197.69C100.492 198.104 100.421 198.531 100.343 198.958L101.455 199.142Z" fill="#FA8383"/>
<path d="M72.1258 238.163L71.7088 237.13C72.5422 236.79 73.3269 236.396 74.0374 235.964L74.6187 236.913C74.3659 237.067 74.1018 237.218 73.8342 237.362C73.2956 237.65 72.7203 237.92 72.1258 238.163ZM76.1064 234.419C76.7439 233.836 77.3148 233.19 77.8027 232.498L78.7278 233.127C78.1924 233.887 77.5669 234.596 76.8671 235.235L76.1064 234.419ZM66.8028 239.609L66.6407 238.504C67.5349 238.361 68.4028 238.178 69.2196 237.96L69.4974 239.039C68.6431 239.267 67.7358 239.459 66.8033 239.607L66.8028 239.609ZM61.3501 240.021L61.3701 238.903C62.2635 238.903 63.1535 238.871 64.0152 238.808L64.0805 239.924C63.1902 239.99 62.2716 240.022 61.3505 240.022L61.3501 240.021ZM79.0298 230.266C79.3583 229.46 79.566 228.644 79.6491 227.842L80.7736 227.937C80.6798 228.845 80.4452 229.763 80.0774 230.668L79.0298 230.266ZM82.9032 224.453C83.2401 224.26 83.5744 224.056 83.8982 223.845C84.3021 223.581 84.7089 223.3 85.1082 223.01L85.7675 223.909C85.353 224.209 84.9301 224.5 84.511 224.775C84.1688 224.999 83.8134 225.215 83.4568 225.419L82.9032 224.453ZM78.3264 227.5L78.0617 226.417C78.8973 226.204 79.7338 225.928 80.5475 225.598L80.9618 226.632C80.0991 226.983 79.2125 227.275 78.3268 227.501L78.3264 227.5ZM87.1894 221.367C87.8504 220.803 88.506 220.197 89.1399 219.569L89.9339 220.352C89.2796 221.001 88.603 221.625 87.9215 222.207L87.1894 221.367ZM72.8009 228.02L72.9181 226.906C73.7299 226.976 74.5968 226.966 75.4961 226.876L75.5921 227.989C74.6217 228.086 73.6831 228.097 72.8014 228.021L72.8009 228.02ZM79.509 225.379C79.3558 224.69 79.1039 224.017 78.7611 223.378C78.7088 223.28 78.6547 223.183 78.5978 223.088L79.5772 222.513C79.6406 222.621 79.7018 222.731 79.7612 222.842C80.1507 223.568 80.4366 224.335 80.6118 225.121L79.5067 225.379L79.509 225.379ZM90.9611 217.635C91.539 216.977 92.1076 216.288 92.6497 215.585L93.5444 216.254C92.9873 216.976 92.4036 217.685 91.8088 218.361L90.9611 217.635ZM94.2047 213.434C94.6986 212.704 95.1752 211.951 95.6213 211.194L96.5962 211.745C96.1377 212.522 95.6488 213.296 95.1422 214.045L94.2056 213.434L94.2047 213.434ZM67.6448 225.76L68.5358 225.057C68.9748 225.607 69.6244 226.049 70.4658 226.373L70.04 227.416C69.0133 227.02 68.2071 226.462 67.6443 225.759L67.6448 225.76ZM75.0103 219.708L75.5456 218.714C76.3718 219.139 77.1406 219.685 77.8321 220.335L77.0459 221.151C76.4303 220.572 75.7458 220.086 75.0117 219.708L75.0103 219.708ZM96.8943 208.873C97.2949 208.085 97.6724 207.28 98.0161 206.481L99.0559 206.904C98.7028 207.726 98.3139 208.553 97.9028 209.362L96.8943 208.873ZM66.762 222.916C66.7988 222.247 66.9772 221.534 67.2903 220.797C67.3895 220.564 67.5021 220.34 67.6258 220.131L68.5998 220.683C68.5015 220.849 68.4117 221.028 68.3324 221.215C68.0695 221.832 67.9216 222.419 67.8917 222.958L66.7629 222.915L66.762 222.916ZM98.975 204.025C99.2689 203.189 99.5327 202.344 99.7573 201.513L100.849 201.785C100.617 202.642 100.345 203.514 100.043 204.376L98.9746 204.024L98.975 204.025ZM70.3118 219.183L69.8975 218.149C70.7611 217.799 71.7771 217.689 72.8353 217.833L72.6631 218.941C71.8027 218.824 70.9891 218.908 70.3127 219.183L70.3118 219.183Z" fill="#FA8383"/>
<path d="M58.6086 239.92L58.7136 238.805C57.9188 238.745 57.4451 238.678 57.4406 238.678L57.2629 239.785C57.2829 239.788 57.7739 239.856 58.6095 239.919L58.6086 239.92Z" fill="#FA8383"/>
<path d="M158.308 180.215C157.909 180.597 157.895 181.23 158.277 181.629L164.503 188.129C164.885 188.527 165.518 188.541 165.917 188.159C166.316 187.777 166.329 187.144 165.947 186.745L160.413 180.968L166.191 175.434C166.589 175.052 166.603 174.419 166.221 174.02C165.839 173.621 165.206 173.608 164.807 173.99L158.308 180.215ZM447.258 186.135L159.021 179.938L158.978 181.937L447.215 188.135L447.258 186.135Z" fill="url(#paint2_linear_70_358)" fill-opacity="0.57"/>
<circle cx="200.921" cy="19.9205" r="5.9205" fill="#2070E1"/>
<circle cx="218.313" cy="19.9205" r="5.9205" fill="#2070E1"/>
<circle cx="235.704" cy="20.6168" r="5.9205" fill="#2070E1"/>
<defs>
<linearGradient id="paint0_linear_70_358" x1="272.637" y1="211.664" x2="347.926" y2="213.416" gradientUnits="userSpaceOnUse">
<stop offset="0.335686" stop-color="#0056B3"/>
<stop offset="1" stop-color="white"/>
</linearGradient>
<linearGradient id="paint1_linear_70_358" x1="185" y1="19.5266" x2="386.5" y2="19.5266" gradientUnits="userSpaceOnUse">
<stop offset="0.104218" stop-color="#00163A"/>
<stop offset="1" stop-color="#003DA0"/>
</linearGradient>
<linearGradient id="paint2_linear_70_358" x1="159.01" y1="180.438" x2="447.247" y2="186.635" gradientUnits="userSpaceOnUse">
<stop stop-color="#F1F9FF"/>
<stop offset="1" stop-color="#361A84"/>
</linearGradient>
</defs>
</svg>
