<svg width="44" height="44" viewBox="0 0 44 44" fill="none" xmlns="http://www.w3.org/2000/svg">
<path d="M18.2402 22.3438C18.2402 23.293 19.0097 24.0625 19.959 24.0625H24.041C24.9903 24.0625 25.7598 23.293 25.7598 22.3438V21.4844H18.2402V22.3438Z" fill="#F1F9FF"/>
<path d="M35.75 7.30469C35.0381 7.30469 34.4609 7.88184 34.4609 8.59375C34.4609 9.30566 35.0381 9.88281 35.75 9.88281H38.3281C39.04 9.88281 39.6172 9.30566 39.6172 8.59375C39.6172 7.88184 39.04 7.30469 38.3281 7.30469H35.75Z" fill="#F1F9FF"/>
<path d="M33.7742 3.65234C34.1302 4.26885 34.9186 4.48009 35.5351 4.12414L37.7678 2.83507C38.3843 2.47912 38.5956 1.69073 38.2396 1.07421C37.8837 0.457698 37.0953 0.246464 36.4788 0.602417L34.246 1.89148C33.6295 2.24743 33.4183 3.03582 33.7742 3.65234Z" fill="#F1F9FF"/>
<path d="M34.246 15.296L36.4788 16.5851C37.0953 16.941 37.8837 16.7298 38.2396 16.1133C38.5956 15.4968 38.3843 14.7084 37.7678 14.3524L35.5351 13.0634C34.9186 12.7074 34.1302 12.9186 33.7742 13.5352C33.4183 14.1517 33.6295 14.9401 34.246 15.296Z" fill="#F1F9FF"/>
<path d="M5.67188 9.88281H8.25C8.96191 9.88281 9.53906 9.30566 9.53906 8.59375C9.53906 7.88184 8.96191 7.30469 8.25 7.30469H5.67188C4.95997 7.30469 4.38281 7.88184 4.38281 8.59375C4.38281 9.30566 4.95997 9.88281 5.67188 9.88281Z" fill="#F1F9FF"/>
<path d="M6.23211 2.83507L8.46485 4.12414C9.08137 4.48009 9.86976 4.26885 10.2257 3.65234C10.5817 3.03582 10.3704 2.24743 9.75392 1.89148L7.52117 0.602417C6.90466 0.246464 6.11627 0.457698 5.76032 1.07421C5.40436 1.69073 5.6156 2.47912 6.23211 2.83507Z" fill="#F1F9FF"/>
<path d="M8.46485 13.0634L6.23211 14.3524C5.6156 14.7084 5.40436 15.4968 5.76032 16.1133C6.11627 16.7298 6.90466 16.941 7.52117 16.5851L9.75392 15.296C10.3704 14.9401 10.5817 14.1517 10.2257 13.5352C9.86976 12.9186 9.08137 12.7074 8.46485 13.0634Z" fill="#F1F9FF"/>
<path d="M16.5342 15.2182C17.5764 16.0774 18.2402 17.3092 18.2402 18.66V18.9062H20.7109V10.8464L18.5104 8.64591C18.007 8.14249 18.007 7.32634 18.5104 6.82292C19.0138 6.3195 19.83 6.3195 20.3334 6.82292L22 8.48951L23.6667 6.82292C24.17 6.3195 24.9862 6.3195 25.4897 6.82292C25.9931 7.32634 25.9931 8.14249 25.4897 8.64591L23.2891 10.8464V18.9062H25.7598V18.6599C25.7598 17.3091 26.4236 16.0774 27.4658 15.2181C29.3755 13.6436 30.5938 11.2625 30.5938 8.59375C30.5938 3.84759 26.7462 0 22 0C17.2538 0 13.4062 3.84759 13.4062 8.59375C13.4062 11.2625 14.6245 13.6436 16.5342 15.2182Z" fill="#F1F9FF"/>
<path d="M35.8359 31.7969C37.9717 31.7969 39.7031 30.0655 39.7031 27.9297C39.7031 25.7939 37.9717 24.0625 35.8359 24.0625C33.7001 24.0625 31.9688 25.7939 31.9688 27.9297C31.9688 30.0655 33.7001 31.7969 35.8359 31.7969Z" fill="#F1F9FF"/>
<path d="M8.16406 31.7969C10.2999 31.7969 12.0312 30.0655 12.0312 27.9297C12.0312 25.7939 10.2999 24.0625 8.16406 24.0625C6.02827 24.0625 4.29688 25.7939 4.29688 27.9297C4.29688 30.0655 6.02827 31.7969 8.16406 31.7969Z" fill="#F1F9FF"/>
<path d="M39.3363 33.3374C38.3275 33.9927 37.1259 34.375 35.8359 34.375C34.3881 34.375 33.0504 33.895 31.9732 33.0859H29.0469C28.7146 33.0859 28.4453 32.8166 28.4453 32.4844V29.6484C28.4453 27.9873 27.0987 26.6406 25.4375 26.6406H23.2891V32.5703C23.2891 35.7028 25.8284 38.2422 28.9609 38.2422V42.7109C28.9609 43.4228 29.5381 44 30.25 44H42.7109C43.4228 44 44 43.4228 44 42.7109V39.5312C44 36.59 42.029 34.1106 39.3363 33.3374Z" fill="#F1F9FF"/>
<path d="M15.5547 29.6484V32.4844C15.5547 32.8166 15.2854 33.0859 14.9531 33.0859H12.0268C10.9496 33.895 9.61194 34.375 8.16406 34.375C6.87414 34.375 5.67248 33.9927 4.66366 33.3374C1.97098 34.1106 0 36.59 0 39.5312V42.7109C0 43.4228 0.577156 44 1.28906 44H13.75C14.4619 44 15.0391 43.4228 15.0391 42.7109V38.2422C18.1716 38.2422 20.7109 35.7028 20.7109 32.5703V26.6406H18.5625C16.9013 26.6406 15.5547 27.9873 15.5547 29.6484Z" fill="#F1F9FF"/>
</svg>
