<svg xmlns="http://www.w3.org/2000/svg" width="24.27" height="23.197" viewBox="0 0 24.27 23.197">
  <path id="Path_20663" data-name="Path 20663" d="M0,3.034A3.034,3.034,0,0,1,3.034,0h18.2A3.034,3.034,0,0,1,24.27,3.034V15.168A3.034,3.034,0,0,1,21.236,18.2H6.7a1.517,1.517,0,0,0-1.072.444L1.3,22.974A.758.758,0,0,1,0,22.439Zm10.912,4.2a3.789,3.789,0,0,1,.344.608c.649,1.438.6,3.606-1.429,5.621a.677.677,0,0,1-.928.015.614.614,0,0,1-.017-.895,4.945,4.945,0,0,0,1.227-1.851,2.69,2.69,0,0,1-1.411.394A2.579,2.579,0,0,1,6.067,8.6,2.581,2.581,0,0,1,8.7,6.067a2.718,2.718,0,0,1,1.147.252l.012.006a2.223,2.223,0,0,1,.711.491,2.629,2.629,0,0,1,.344.413Zm5.773,3.5a2.69,2.69,0,0,1-1.411.394A2.581,2.581,0,0,1,12.643,8.6a2.582,2.582,0,0,1,2.63-2.529,2.718,2.718,0,0,1,1.147.252l.012.006a2.206,2.206,0,0,1,.711.491,2.63,2.63,0,0,1,.344.413,3.8,3.8,0,0,1,.346.608c.649,1.438.595,3.606-1.429,5.621a.677.677,0,0,1-.93.015.614.614,0,0,1-.017-.895,4.951,4.951,0,0,0,1.229-1.851Z" fill="#fff" fill-rule="evenodd"/>
</svg>
