<svg width="96" height="68" viewBox="0 0 96 68" fill="none" xmlns="http://www.w3.org/2000/svg">
<path d="M21.859 0.879883C10.061 0.879883 0.5 10.4402 0.5 22.2402C0.5 33.4202 9.04401 42.3701 19.825 43.3901C17.587 47.4601 13.722 51.7298 6.806 55.7998C4.975 56.8198 3.755 58.8498 3.755 61.0898C3.755 65.3598 8.23 68.4101 12.095 66.5801C32.9833 72.11 50.167 57.0072 43.015 22.2402C43.015 10.2302 33.657 0.879883 21.859 0.879883Z" fill="#1164E9"/>
<path d="M74.339 0.879883C62.541 0.879883 52.98 10.4402 52.98 22.2402C52.98 33.4202 61.524 42.3701 72.305 43.3901C70.068 47.4601 66.203 51.7298 59.286 55.7998C57.456 56.8198 56.235 58.8498 56.235 61.0898C56.235 65.3598 60.71 68.4101 64.575 66.5801C76.17 61.2901 95.495 48.6802 95.495 22.2402C95.699 10.2302 86.138 0.879883 74.339 0.879883Z" fill="#1164E9"/>
</svg>
