<svg width="96" height="68" viewBox="0 0 96 68" fill="none" xmlns="http://www.w3.org/2000/svg">
<path d="M21.86 0.879883C10.06 0.879883 0.5 10.4402 0.5 22.2402C0.5 33.4202 9.03995 42.3701 19.8199 43.3901C17.5899 47.4601 13.7201 51.7298 6.81006 55.7998C4.98006 56.8198 3.75 58.8498 3.75 61.0898C3.75 65.3598 8.22997 68.4101 12.09 66.5801C23.69 61.2901 43.01 48.6802 43.01 22.2402C43.01 10.2302 33.66 0.879883 21.86 0.879883Z" fill="#1164E9"/>
<path d="M74.34 0.879883C62.54 0.879883 52.98 10.4402 52.98 22.2402C52.98 33.4202 61.5201 42.3701 72.3101 43.3901C70.0701 47.4601 66.2 51.7298 59.29 55.7998C57.46 56.8198 56.24 58.8498 56.24 61.0898C56.24 65.3598 60.71 68.4101 64.58 66.5801C76.17 61.2901 95.5 48.6802 95.5 22.2402C95.7 10.2302 86.14 0.879883 74.34 0.879883Z" fill="#1164E9"/>
</svg>
