<svg width="62" height="63" viewBox="0 0 62 63" fill="none" xmlns="http://www.w3.org/2000/svg">
<path d="M3.75792 49.4713L3.75844 49.4868C3.93255 54.6843 6.08296 58.7214 10.8353 60.9886C12.2892 61.6773 13.9525 61.6015 15.6839 61.0416C17.416 60.4815 19.1669 59.4517 20.7434 58.3095C22.3164 57.1699 23.6949 55.9338 24.6816 54.9806C25.1744 54.5046 25.568 54.1004 25.8379 53.816C25.9728 53.6738 26.0767 53.5616 26.1465 53.4853C26.1472 53.4845 26.148 53.4837 26.1487 53.4829L26.154 53.4403C26.1698 53.3108 26.193 53.1195 26.2218 52.8726C26.2796 52.3789 26.3603 51.6633 26.4524 50.7771C26.6364 49.0045 26.8654 46.5507 27.0449 43.8257C27.405 38.3589 27.5615 31.8596 26.7811 27.5668C25.6013 21.1508 23.308 15.065 19.5113 9.70581L19.5109 9.70519C18.6257 8.45168 17.5894 7.24894 16.422 6.31875L16.4146 6.31287L16.4146 6.3128C16.2648 6.18865 15.93 6.07226 15.5166 6.04709C15.0995 6.02171 14.7703 6.09909 14.6297 6.1947C14.4819 6.29522 14.2969 6.55447 14.1543 6.9416C14.0166 7.31507 13.9524 7.71656 13.973 8.01302L13.9738 8.02478L13.9737 8.02479C13.9932 8.45467 14.1118 8.9065 14.2834 9.38951C14.391 9.69242 14.508 9.97885 14.6286 10.2743C14.7069 10.4658 14.7866 10.6611 14.8664 10.8671L14.8666 10.8676C15.2717 11.9174 15.6974 12.9723 16.125 14.0318C16.8243 15.7646 17.5286 17.5096 18.1555 19.2646M3.75792 49.4713L9.29312 34.1767C11.2194 31.7361 13.5744 29.6117 15.9664 27.5066L15.9689 27.5044C16.8145 26.7502 17.4876 26.1422 17.9833 25.5932C18.483 25.0398 18.8346 24.5125 19.0053 23.908C19.1767 23.3009 19.1506 22.6703 18.9938 21.937C18.8387 21.2112 18.5468 20.3473 18.1555 19.2646M3.75792 49.4713L3.75642 49.4558M3.75792 49.4713L3.75642 49.4558M18.1555 19.2646C18.1556 19.2649 18.1557 19.2652 18.1559 19.2655L17.6898 19.432L18.1552 19.2638C18.1553 19.2641 18.1554 19.2643 18.1555 19.2646ZM3.75642 49.4558C3.18215 43.5116 5.76082 38.6686 9.29259 34.1774L3.75642 49.4558ZM20.0625 33.4167L19.6982 33.0997L19.3724 33.4561C15.1906 38.0292 11.8626 42.1468 10.7672 47.6315C10.4882 48.9963 10.4897 50.7772 11.1711 52.0743L11.1719 52.076C11.8739 53.4002 13.2443 54.8037 14.691 55.3159L14.6916 55.3161C16.8277 56.0692 18.7237 54.7691 19.6258 52.8721L19.6258 52.8721L19.6284 52.8664C20.3577 51.2815 21.0862 49.5167 21.2636 47.7166L21.2637 47.715C21.3378 46.938 21.4542 46.1438 21.5735 45.3295C22.0831 41.852 22.6462 38.0087 20.1963 33.5729L20.154 33.4963L20.0879 33.4389L20.0625 33.4167Z" stroke="black" stroke-width="0.989785"/>
<path d="M38.5185 4.0707C38.1049 3.59318 37.6878 3.11155 37.2667 2.62474C38.3181 1.87333 39.1004 1.72519 39.7289 1.81124C40.4744 1.91332 41.1125 2.35063 41.8616 2.87621L41.8617 2.87628C50.3714 8.84402 55.9825 16.6255 58.185 26.936L58.1851 26.9363C59.6944 33.98 59.9197 40.773 57.3749 47.4592L57.3746 47.4599C56.346 50.1755 55.0015 52.0423 53.3247 53.2044C51.6522 54.3636 49.596 54.8584 47.0712 54.732C41.9815 54.4649 37.7652 51.0262 36.7191 45.8526C34.8101 36.34 36.7696 27.9425 44.1361 21.2176L44.1362 21.2175C45.2245 20.2235 46.0712 19.4186 46.6566 18.7048C47.2436 17.9891 47.6137 17.3115 47.6721 16.5683C47.7306 15.8233 47.4686 15.105 46.9983 14.3245C46.53 13.5472 45.8181 12.6496 44.9004 11.5385L44.8993 11.5373C42.8353 9.05466 40.7275 6.62111 38.5185 4.0707ZM51.4309 25.5455L51.2759 25.2268L50.9243 25.2708C50.6516 25.305 50.4246 25.3206 50.2059 25.3357C50.0881 25.3438 49.9727 25.3517 49.8538 25.3623C49.5433 25.39 49.2084 25.4362 48.9066 25.5962L48.9065 25.5961L48.8969 25.6015C45.8994 27.2775 43.7702 30.8884 42.6871 34.7667C41.6022 38.6517 41.5273 42.9431 42.7813 46.0789L42.7815 46.0792C43.1235 46.9324 43.9173 47.7189 44.7879 48.3008C45.6641 48.8866 46.7025 49.3218 47.6151 49.4074L47.6171 49.4076C48.036 49.4452 48.4783 49.325 48.8857 49.1432C49.3005 48.958 49.7202 48.6905 50.109 48.3827C50.8757 47.7757 51.5912 46.9562 51.9118 46.186C54.7734 39.3118 54.7611 32.3929 51.4309 25.5455Z" stroke="black" stroke-width="0.989785"/>
</svg>
