<?xml version="1.0" encoding="UTF-8"?>
<svg id="Layer_1" xmlns="http://www.w3.org/2000/svg" xmlns:xlink="http://www.w3.org/1999/xlink" viewBox="0 0 403.02 301.27">
  <defs>
    <style>
      .cls-1 {
        fill: #fff;
      }

      .cls-2 {
        mask: url(#mask);
      }

      .cls-3, .cls-4 {
        fill: none;
      }

      .cls-5 {
        fill: #33c381;
      }

      .cls-6 {
        fill: #fefefe;
      }

      .cls-7, .cls-8 {
        fill: #1164e9;
      }

      .cls-4 {
        stroke: #1164e9;
        stroke-dasharray: 32.94 32.94;
        stroke-linecap: square;
        stroke-width: 5.76px;
      }

      .cls-9 {
        clip-path: url(#clippath);
      }

      .cls-8 {
        stroke: #fff;
        stroke-width: 6px;
      }
    </style>
    <clipPath id="clippath">
      <rect class="cls-3" x=".86" y="78.84" width="205.34" height="205.39" rx="9.78" ry="9.78"/>
    </clipPath>
    <mask id="mask" x="0" y="77.99" width="207.04" height="207.08" maskUnits="userSpaceOnUse">
      <g id="path-14-inside-1_2093_2473">
        <path class="cls-1" d="M.86,181.54v-91.13c0-7.54,4.07-11.57,11.66-11.57h182c7.7,0,11.67,4,11.67,11.76v181.83c0,7.84-3.99,11.79-11.87,11.79H12.74c-7.97,0-11.89-3.95-11.89-11.98v-90.7h0ZM199.35,126.91H7.7v145.14c0,4.49.84,5.33,5.37,5.33h180.92c4.52,0,5.37-.84,5.37-5.33V126.91ZM199.35,119.83v-29.52c0-3.52-1.09-4.63-4.56-4.63H12.19c-3.35,0-4.48,1.13-4.48,4.5,0,9.27,0,18.53,0,27.8,0,.61.08,1.22.12,1.85h191.53,0Z"/>
      </g>
    </mask>
  </defs>
  <path class="cls-7" d="M354.37,207.26c-7.55-.03-15.09-.06-22.63-.07-5.14,0-10.27.08-15.42.05-2.41-.01-3.42-1-3.43-3.34-.03-8.6-.01-17.18-.01-25.78,0-2.18,1.02-3.21,3.24-3.21,27.94.03,55.89.04,83.83.03,1.37,0,2.26.57,3.08,1.51v29.42c-1.23.98-2.61,1.31-4.2,1.3-6.66-.06-13.32-.04-19.98-.02-5.77.03-11.54.1-17.31.15-2.39-.01-4.78-.03-7.17-.04h0ZM358.25,187.48c-8.99,0-17.98-.01-26.97,0-2.61,0-3.89,1.05-4.03,3.13-.18,2.59,1.34,4.06,4.46,4.07,17.58.03,35.16.03,52.74,0,2.74,0,4.48-1.47,4.53-3.66.05-2.13-1.7-3.55-4.48-3.55-8.75-.01-17.5,0-26.25,0h0Z"/>
  <path class="cls-7" d="M352.24,254.23c-12.19-.02-24.38-.03-36.58-.05-4.56,0-4.9-.34-4.9-4.93v-22.87c0-3.87.68-4.55,4.65-4.54,11.39.03,22.78.08,34.18.11.88,0,1.76-.07,2.64-.11,2.41.21,4.83.21,7.24,0,.88.04,1.76.11,2.63.11,11.54,0,23.08.03,34.62-.02,1.59,0,2.97.29,4.19,1.3v29.42c-.97,1.26-2.27,1.51-3.8,1.51-12.55-.01-25.1.04-37.65.07h-7.23ZM355.82,241.59h26.73c1.13,0,2.26.06,3.11-.91.95-1.08,1.56-2.19.94-3.7-.83-2.02-2.42-2.63-4.42-2.63-17.58,0-35.17,0-52.75.01-2.81,0-4.32,1.4-4.29,3.74.04,2.48,1.29,3.47,4.41,3.47,8.75,0,17.5,0,26.26,0h0Z"/>
  <path class="cls-7" d="M351.37,301.27c-12.19-.02-24.38-.03-36.58-.05-4.56,0-4.9-.34-4.9-4.93v-22.87c0-3.87.68-4.55,4.65-4.54,11.39.03,22.78.08,34.18.11.88,0,1.76-.07,2.64-.11,2.41.21,4.83.21,7.24,0,.88.04,1.76.11,2.63.11,11.54,0,23.08.03,34.62-.02,1.59,0,2.97.29,4.19,1.3v29.42c-.96,1.26-2.27,1.51-3.8,1.51-12.55-.01-25.1.04-37.65.07h-7.23ZM354.95,288.62h26.73c1.13,0,2.26.06,3.11-.91.95-1.08,1.56-2.19.94-3.7-.83-2.02-2.42-2.63-4.42-2.63-17.58,0-35.17,0-52.75.01-2.81,0-4.32,1.4-4.28,3.74.04,2.48,1.29,3.47,4.41,3.47,8.75,0,17.5,0,26.26,0h0Z"/>
  <path class="cls-7" d="M114.97,171.08c-.08-54.69-.15-109.41-.28-164.1-.02-3.18.72-4.65,4.29-4.65,28.3.11,56.58.08,84.89.08,1.19,0,2.34.17,2.99,1.4-1.29.96-1.42,2.34-1.42,3.8,0,19.3.11,38.61-.08,57.91-.06,5.07,2.87,4.95,6.41,4.95,18.13-.06,36.24,0,54.37-.04,2.04,0,4.31.59,5.92-1.4,2.8,2.76,1.29,6.24,1.32,9.36.15,10.59-.04,21.19-.11,31.78-2.44-.04-3.78,1.76-5.2,3.27-6.98,7.43-15.12,13.59-23.69,18.77-39.74,24.01-83.01,36.75-129.41,38.87Z"/>
  <path class="cls-7" d="M204.75,195.64h0v.02h.26c4.43-.01,8.86-.03,13.29-.04,16.25-.05,32.49-.11,48.74-.03.96,0,1.82-.01,2.58-.12.76-.11,1.42-.31,1.97-.69,1.11-.77,1.62-2.18,1.6-4.64-.23-20.24-.25-40.48-.27-60.73,0-6.39-.01-12.79-.03-19.19v-.25s-.25,0-.25,0c-1.29-.02-2.28.45-3.13,1.11-.64.5-1.21,1.12-1.75,1.71-.17.18-.33.36-.49.53h0c-6.94,7.41-15.04,13.56-23.56,18.74-39.58,24.01-82.68,36.75-128.9,38.87h-.24s0,.25,0,.25c-.02,1.84-.02,3.68-.02,5.52,0,4.28.01,8.56-.3,12.81-.18,2.41.18,3.99,1.25,4.93,1.05.93,2.73,1.19,4.97,1.17,14.86-.12,29.73-.07,44.6-.01,5.78.02,11.56.04,17.34.05h22.37Z"/>
  <path class="cls-8" d="M272.24,69.69l.06-.07v-.22l-.08-.08-32.6-32.6L207.01,4.12l-.16-.16-.18.13c-1.39,1.05-1.52,2.57-1.52,4.01,0,5.27,0,10.53.02,15.79.02,14.04.04,28.07-.09,42.11h0c0,1.29.17,2.28.51,3.03.35.76.86,1.26,1.5,1.59.63.32,1.36.47,2.14.54.7.06,1.47.06,2.25.06h.26c9.06-.02,18.12-.02,27.19-.02s18.12,0,27.19-.02c.37,0,.75.02,1.14.04.14,0,.28.01.42.02.53.02,1.07.04,1.6-.02,1.07-.11,2.11-.48,2.96-1.54ZM205.34,66.01h0,0Z"/>
  <path class="cls-1" d="M164.82,54.14h32.21c.63,0,1.28-.06,1.89.05,1.81.34,2.91,1.45,2.91,3.32s-1.1,2.97-2.91,3.32c-.61.12-1.26.05-1.89.05h-64.41c-.63,0-1.28.06-1.89-.06-1.81-.34-2.91-1.45-2.91-3.32s1.09-2.97,2.91-3.31c.61-.11,1.26-.05,1.89-.05h32.21Z"/>
  <path class="cls-1" d="M194.3,89.59h32.21c.63,0,1.28-.06,1.89.05,1.81.34,2.91,1.45,2.91,3.32s-1.1,2.97-2.91,3.32c-.61.12-1.26.05-1.89.05h-64.41c-.63,0-1.28.06-1.89-.06-1.81-.34-2.91-1.45-2.91-3.32s1.09-2.97,2.91-3.31c.61-.11,1.26-.05,1.89-.05h32.21Z"/>
  <path class="cls-1" d="M194.3,115.92h32.21c.63,0,1.28-.06,1.89.05,1.81.34,2.91,1.45,2.91,3.32s-1.1,2.97-2.91,3.32c-.61.12-1.26.05-1.89.05h-64.41c-.63,0-1.28.06-1.89-.06-1.81-.34-2.91-1.45-2.91-3.32s1.09-2.97,2.91-3.31c.61-.11,1.26-.05,1.89-.05h32.21Z"/>
  <path class="cls-1" d="M194.3,141.22h32.21c.63,0,1.28-.06,1.89.05,1.81.34,2.91,1.45,2.91,3.32s-1.1,2.97-2.91,3.32c-.61.12-1.26.05-1.89.05h-64.41c-.63,0-1.28.06-1.89-.06-1.81-.34-2.91-1.45-2.91-3.32s1.09-2.97,2.91-3.31c.61-.11,1.26-.05,1.89-.05h32.21Z"/>
  <path class="cls-1" d="M194.81,167.03h32.21c.63,0,1.28-.06,1.89.05,1.81.34,2.91,1.45,2.91,3.32s-1.1,2.97-2.91,3.32c-.61.12-1.26.05-1.89.05h-64.41c-.63,0-1.28.06-1.89-.06-1.81-.34-2.91-1.45-2.91-3.32s1.09-2.97,2.91-3.31c.61-.11,1.26-.05,1.89-.05h32.21Z"/>
  <rect class="cls-6" x=".86" y="83.01" width="205.34" height="202.82" rx="8.42" ry="8.42"/>
  <g class="cls-9">
    <g>
      <rect class="cls-7" x=".86" y="78.84" width="205.34" height="205.39" rx="9.78" ry="9.78"/>
      <path class="cls-1" d="M.86,181.54v-91.13c0-7.54,4.07-11.57,11.66-11.57h182c7.7,0,11.67,4,11.67,11.76v181.83c0,7.84-3.99,11.79-11.87,11.79H12.74c-7.97,0-11.89-3.95-11.89-11.98v-90.7h0ZM199.35,126.91H7.7v145.14c0,4.49.84,5.33,5.37,5.33h180.92c4.52,0,5.37-.84,5.37-5.33V126.91ZM199.35,119.83v-29.52c0-3.52-1.09-4.63-4.56-4.63H12.19c-3.35,0-4.48,1.13-4.48,4.5,0,9.27,0,18.53,0,27.8,0,.61.08,1.22.12,1.85h191.53,0Z"/>
      <g class="cls-2">
        <path class="cls-7" d="M.86,181.54l-.6.6,1.45,1.45v-2.05h-.85ZM.85,181.54l.6-.6-1.45-1.45v2.05h.85ZM199.35,126.91h.85v-.85h-.85v.85ZM7.7,126.91v-.85h-.85v.85h.85ZM199.35,119.83h-.85v.85h.85v-.85ZM7.71,90.18h.85s0,0,0,0h-.85ZM7.83,119.83l-.85.05.05.8h.8v-.85ZM1.71,181.54v-91.13H0v91.13h1.7ZM1.71,90.41c0-3.62.97-6.27,2.73-8.01,1.76-1.74,4.42-2.71,8.08-2.71v-1.7c-3.94,0-7.1,1.05-9.27,3.21C1.06,83.35,0,86.49,0,90.41h1.7ZM12.51,79.69h182v-1.7H12.51v1.7ZM194.52,79.69c3.71,0,6.38.96,8.12,2.72,1.75,1.76,2.7,4.45,2.7,8.19h1.7c0-4.02-1.03-7.21-3.2-9.39-2.17-2.18-5.34-3.22-9.33-3.22v1.7ZM205.34,90.61v181.83h1.7V90.61h-1.7ZM205.34,272.43c0,3.78-.96,6.48-2.73,8.23-1.77,1.75-4.48,2.71-8.3,2.71v1.7c4.08,0,7.3-1.02,9.49-3.2,2.2-2.18,3.23-5.38,3.23-9.44h-1.7ZM194.32,283.37H12.74v1.7h181.58v-1.7ZM12.74,283.37c-3.86,0-6.57-.95-8.33-2.73-1.76-1.77-2.71-4.51-2.71-8.4H0c0,4.14,1.01,7.39,3.2,9.6,2.19,2.21,5.42,3.23,9.54,3.23v-1.7ZM1.7,272.24v-90.7H0v90.7h1.7ZM.25,182.14h0s1.2-1.2,1.2-1.2h0s-1.2,1.2-1.2,1.2ZM199.35,126.06H7.7v1.7h191.65v-1.7ZM6.85,126.91v2.48h1.7v-2.48h-1.7ZM6.85,129.38v142.66h1.7v-142.66h-1.7ZM6.85,272.05c0,1.14.05,2.1.22,2.9.17.81.47,1.51,1.02,2.05.54.54,1.25.84,2.06,1.01.8.17,1.78.22,2.92.22v-1.7c-1.12,0-1.95-.05-2.58-.18-.62-.13-.98-.32-1.21-.55-.23-.23-.42-.58-.55-1.19-.13-.62-.18-1.44-.18-2.55h-1.7ZM13.07,278.22h180.92v-1.7H13.07v1.7ZM193.99,278.22c1.15,0,2.12-.05,2.92-.22.81-.17,1.51-.47,2.06-1.01.54-.54.85-1.24,1.02-2.05.17-.8.22-1.77.22-2.9h-1.7c0,1.11-.05,1.93-.18,2.55-.13.61-.32.96-.55,1.19-.23.23-.59.42-1.21.55-.63.13-1.46.18-2.57.18v1.7ZM200.2,272.04v-142.66h-1.7v142.66h1.7ZM200.2,129.38v-2.47h-1.7v2.47h1.7ZM200.2,119.83v-29.52h-1.7v29.52h1.7ZM200.2,90.31c0-1.79-.27-3.26-1.23-4.23-.96-.98-2.41-1.25-4.19-1.25v1.7c1.69,0,2.52.28,2.98.74.45.46.74,1.31.74,3.04h1.7ZM194.79,84.83H12.19v1.7h182.6v-1.7ZM12.19,84.83c-1.72,0-3.14.28-4.1,1.24-.95.96-1.23,2.38-1.23,4.11h1.7c0-1.63.28-2.46.74-2.91.45-.45,1.27-.74,2.89-.74v-1.7ZM6.86,90.18c0,9.27,0,18.54,0,27.8h1.7c0-9.27,0-18.53,0-27.8h-1.7ZM6.86,117.98c0,.64.09,1.36.12,1.9l1.7-.11c-.05-.71-.12-1.21-.12-1.79h-1.7ZM7.83,120.68h191.53v-1.7H7.83v1.7ZM199.36,118.98h0v1.7h0v-1.7Z"/>
      </g>
      <path class="cls-7" d="M103.54,263.69H33.17c-3.93,0-4.92-.99-4.92-4.92v-31.45c0-3.64,1.06-4.71,4.7-4.71h141.17c3.64,0,4.71,1.07,4.71,4.7v31.66c0,3.64-1.07,4.71-4.7,4.71h-70.58,0ZM35.19,256.69h136.62v-27.12H35.19v27.12Z"/>
      <path class="cls-1" d="M59.05,140.45h26.31c3.35,0,4.49,1.13,4.49,4.49,0,12.98,0,25.96,0,38.93,0,3.35-1.14,4.49-4.49,4.49-17.54,0-35.08,0-52.61,0-3.35,0-4.48-1.14-4.49-4.49,0-12.98,0-25.96,0-38.93,0-3.36,1.13-4.48,4.49-4.49,8.77-.01,17.54,0,26.31,0ZM35.24,147.4v33.97h47.65v-33.97h-47.65Z"/>
      <path class="cls-1" d="M48.59,215.76c-5.35,0-10.69.01-16.04,0-3.09-.01-4.28-1.19-4.3-4.25-.02-4.07-.02-8.13,0-12.19.02-2.82,1.24-4.07,4.03-4.08,10.98-.02,21.96-.02,32.94,0,2.81,0,4.06,1.25,4.08,4.03.03,4.07.02,8.13,0,12.19-.01,3.09-1.2,4.29-4.25,4.3-5.49.02-10.98,0-16.47,0h.01ZM35.2,208.77h27.11v-6.59h-27.11v6.59Z"/>
      <path class="cls-1" d="M103.66,195.22c5.42,0,10.83-.02,16.25,0,2.93.01,4.13,1.24,4.15,4.18.02,4.07.02,8.13,0,12.19-.02,2.92-1.24,4.15-4.19,4.15-10.91.02-21.81.02-32.72,0-2.93,0-4.13-1.24-4.15-4.19-.02-4.07-.02-8.13,0-12.19.02-2.93,1.23-4.13,4.18-4.15,5.49-.02,10.98,0,16.47,0ZM89.96,208.77h27.11v-6.6h-27.11v6.6Z"/>
      <path class="cls-1" d="M158.17,215.76c-5.35,0-10.69.01-16.04,0-3.19-.01-4.35-1.18-4.36-4.41-.01-3.99-.02-7.98,0-11.98.02-2.93,1.23-4.14,4.19-4.14,10.91-.02,21.81-.02,32.72,0,2.92,0,4.13,1.24,4.15,4.19.02,4.07.02,8.13,0,12.19-.02,2.92-1.24,4.13-4.19,4.15-5.49.02-10.98,0-16.47,0h0ZM171.89,202.22h-27.11v6.59h27.11v-6.59Z"/>
      <path class="cls-1" d="M141.18,147.3h32.72c.64,0,1.3-.06,1.92.05,1.84.34,2.95,1.48,2.95,3.37s-1.12,3.02-2.96,3.37c-.62.12-1.28.05-1.92.05h-65.44c-.64,0-1.3.06-1.92-.06-1.84-.35-2.95-1.48-2.95-3.37s1.11-3.02,2.95-3.36c.62-.11,1.28-.05,1.92-.05h32.73Z"/>
      <path class="cls-1" d="M140.97,167.84h-32.51c-.64,0-1.3.06-1.92-.05-1.84-.35-2.95-1.47-2.95-3.37s1.11-3.03,2.95-3.37c.62-.11,1.28-.05,1.92-.05h65.44c.64,0,1.3-.06,1.92.05,1.84.34,2.95,1.48,2.96,3.36,0,1.89-1.12,3.02-2.95,3.37-.62.12-1.28.05-1.92.05h-32.94Z"/>
      <path class="cls-1" d="M141.11,181.53h-32.51c-.64,0-1.29.04-1.92-.03-1.87-.22-3.21-1.68-3.11-3.46.1-1.89,1.19-2.99,3.03-3.31.48-.09,1-.04,1.49-.04h66.09c.57,0,1.16-.06,1.71.06,1.84.38,2.92,1.53,2.89,3.42-.02,1.79-1.08,2.9-2.81,3.28-.68.15-1.42.08-2.13.08h-32.72Z"/>
      <path class="cls-6" d="M140.96,113.07c-13.54,0-27.08.03-40.63-.02-7.19-.03-12.09-6.61-10.03-13.32,1.33-4.31,5.27-7.19,10.04-7.2,12.4-.03,24.8-.01,37.21-.01,14.9,0,29.79-.02,44.69.02,4.6.01,8.51,2.96,9.81,7.21,1.29,4.23-.09,8.97-3.88,11.29-1.9,1.16-4.37,1.91-6.59,1.94-13.54.17-27.08.09-40.62.09ZM141.18,106.23h39.35c.71,0,1.44.07,2.13-.06,1.84-.34,2.96-1.48,2.95-3.37,0-1.89-1.12-3.02-2.96-3.36-.62-.11-1.28-.05-1.92-.05h-79.14c-.64,0-1.3-.06-1.92.05-1.84.34-2.95,1.48-2.95,3.37s1.12,3.03,2.96,3.36c.69.13,1.42.06,2.13.06h39.36Z"/>
      <path class="cls-7" d="M35.07,102.76c.05,5.57-4.55,10.25-10.1,10.3-5.7.05-10.38-4.55-10.41-10.21-.02-5.59,4.53-10.23,10.11-10.3,5.69-.07,10.36,4.52,10.41,10.21h0ZM28.23,102.72c-.05-1.84-1.6-3.34-3.44-3.33-1.92.01-3.48,1.68-3.38,3.59.1,1.83,1.71,3.3,3.54,3.22,1.84-.07,3.32-1.66,3.27-3.49Z"/>
      <path class="cls-7" d="M59.04,102.88c-.01,5.57-4.65,10.19-10.22,10.18-5.7-.01-10.32-4.66-10.29-10.33.03-5.58,4.64-10.16,10.23-10.18,5.68-.02,10.3,4.63,10.29,10.33h0ZM48.86,99.39c-1.84-.05-3.41,1.43-3.48,3.27-.07,1.83,1.39,3.44,3.22,3.54,1.91.11,3.58-1.46,3.59-3.38.01-1.84-1.49-3.39-3.33-3.44Z"/>
      <path class="cls-7" d="M72.82,113.06c-5.7.02-10.35-4.61-10.34-10.29.01-5.58,4.59-10.19,10.17-10.23,5.68-.04,10.33,4.58,10.34,10.28.01,5.57-4.61,10.22-10.17,10.23h0ZM76.14,102.75c-.03-1.84-1.57-3.35-3.41-3.35s-3.5,1.65-3.4,3.56c.09,1.84,1.68,3.31,3.51,3.25,1.84-.06,3.34-1.63,3.3-3.46Z"/>
      <path class="cls-6" d="M35.19,256.69v-27.12h136.62v27.12H35.19Z"/>
      <path class="cls-7" d="M35.24,147.4h47.65v33.97h-47.65v-33.97Z"/>
      <path class="cls-7" d="M35.19,208.77v-6.59h27.11v6.59h-27.11Z"/>
      <path class="cls-7" d="M89.95,208.77v-6.6h27.11v6.6h-27.11Z"/>
      <path class="cls-7" d="M171.88,202.22v6.59h-27.11v-6.59h27.11Z"/>
      <path class="cls-7" d="M141.18,106.23h-39.35c-.71,0-1.44.07-2.13-.06-1.84-.34-2.96-1.47-2.96-3.36s1.11-3.03,2.95-3.37c.62-.11,1.28-.05,1.92-.05h79.14c.64,0,1.3-.06,1.92.05,1.84.34,2.95,1.48,2.96,3.36,0,1.89-1.12,3.03-2.95,3.37-.69.13-1.42.06-2.13.06h-39.36Z"/>
      <path class="cls-1" d="M28.23,102.72c.05,1.83-1.44,3.41-3.27,3.49-1.82.07-3.43-1.39-3.54-3.22-.11-1.92,1.45-3.58,3.38-3.59,1.84-.01,3.39,1.49,3.44,3.33Z"/>
      <path class="cls-1" d="M48.85,99.39c1.84.05,3.34,1.6,3.33,3.44-.01,1.92-1.68,3.48-3.59,3.38-1.83-.1-3.3-1.71-3.22-3.54.07-1.84,1.65-3.32,3.48-3.27Z"/>
      <path class="cls-1" d="M76.14,102.75c.03,1.83-1.47,3.4-3.3,3.46-1.83.06-3.43-1.41-3.51-3.25-.09-1.92,1.48-3.57,3.4-3.56,1.84,0,3.38,1.51,3.41,3.35Z"/>
    </g>
  </g>
  <path class="cls-4" d="M279.71,114.12h84.59v54.41"/>
  <path class="cls-4" d="M210.85,284.15h84.59v.43"/>
  <ellipse class="cls-5" cx="277" cy="237.74" rx="18.53" ry="18.07"/>
  <path class="cls-6" d="M269.3,239.3c-.65-.68-1.28-1.38-1.95-2.04-.87-.85-1.48-1.78-.85-3.03.66-1.31,1.79-1.41,3.06-1.11,1.64,1.61,3.36,3.16,4.89,4.87.94,1.06,1.47.85,2.32-.06,2.1-2.22,4.27-4.37,6.46-6.48,1.4-1.35,3.28-.92,3.86.77.32.92.02,1.69-.61,2.33-3.06,3.1-6.13,6.19-9.24,9.23-1.13,1.1-2.26,1.03-3.44-.09-1.52-1.45-3.01-2.93-4.51-4.4h0Z"/>
</svg>