<svg width="188" height="60" viewBox="0 0 188 60" fill="none" xmlns="http://www.w3.org/2000/svg">
<rect x="1" y="1" width="186" height="58" rx="9" fill="white" stroke="#1C53A1" stroke-width="2"/>
<path d="M59.1867 25.8H56.3307V30.984H59.1867C60.4187 30.984 61.2667 30.76 61.7307 30.312C62.2107 29.848 62.4507 29.208 62.4507 28.392C62.4507 27.624 62.2107 27 61.7307 26.52C61.2507 26.04 60.4027 25.8 59.1867 25.8ZM65.3307 28.344C65.3307 29.496 65.0907 30.472 64.6107 31.272C64.1467 32.072 63.4347 32.648 62.4747 33L66.0987 39H62.7147L59.6187 33.456H59.5947H56.3307V39H53.4507V23.232H59.5947C61.5147 23.232 62.9467 23.688 63.8907 24.6C64.8507 25.512 65.3307 26.76 65.3307 28.344ZM72.5855 28.848C71.6255 28.848 70.8975 29.144 70.4015 29.736C69.9055 30.312 69.6095 31.088 69.5135 32.064H75.3935C75.3295 31.024 75.0655 30.232 74.6015 29.688C74.1375 29.128 73.4655 28.848 72.5855 28.848ZM77.3855 38.52C76.8735 38.776 76.2575 38.96 75.5375 39.072C74.8335 39.184 74.1535 39.24 73.4975 39.24C71.1935 39.24 69.5055 38.672 68.4335 37.536C67.3775 36.384 66.8495 34.864 66.8495 32.976C66.8495 32.064 66.9775 31.216 67.2335 30.432C67.4895 29.648 67.8575 28.976 68.3375 28.416C68.8335 27.856 69.4415 27.424 70.1615 27.12C70.8815 26.8 71.7135 26.64 72.6575 26.64C73.6015 26.64 74.4095 26.8 75.0815 27.12C75.7695 27.424 76.3295 27.856 76.7615 28.416C77.1935 28.976 77.5055 29.648 77.6975 30.432C77.9055 31.2 78.0095 32.048 78.0095 32.976V33.912H69.5375C69.6815 34.824 70.0735 35.536 70.7135 36.048C71.3535 36.56 72.3055 36.816 73.5695 36.816C74.2735 36.816 74.9455 36.76 75.5855 36.648C76.2255 36.52 76.8255 36.368 77.3855 36.192V38.52ZM88.0492 37.896V36.648C87.6812 37.448 87.1532 38.048 86.4652 38.448C85.7772 38.848 84.9932 39.048 84.1132 39.048C83.3452 39.048 82.6732 38.896 82.0972 38.592C81.5212 38.272 81.0412 37.84 80.6572 37.296C80.2892 36.736 80.0092 36.08 79.8172 35.328C79.6252 34.56 79.5292 33.736 79.5292 32.856C79.5292 32.008 79.6252 31.208 79.8172 30.456C80.0252 29.704 80.3212 29.048 80.7052 28.488C81.1052 27.912 81.6092 27.464 82.2172 27.144C82.8252 26.808 83.5372 26.64 84.3532 26.64C85.2012 26.64 85.9372 26.848 86.5612 27.264C87.2012 27.68 87.6972 28.264 88.0492 29.016V26.88H90.7372V37.752C90.7372 39.56 90.2492 41.024 89.2732 42.144C88.3132 43.264 86.7132 43.824 84.4732 43.824C83.5132 43.824 82.6892 43.76 82.0012 43.632C81.3132 43.52 80.6732 43.368 80.0812 43.176V40.632C80.7532 40.872 81.4332 41.056 82.1212 41.184C82.8252 41.312 83.5532 41.376 84.3052 41.376C85.6972 41.376 86.6652 41.048 87.2092 40.392C87.7692 39.736 88.0492 38.904 88.0492 37.896ZM82.1692 32.856C82.1692 34.12 82.4172 35.072 82.9132 35.712C83.4092 36.352 84.1132 36.672 85.0252 36.672C85.8412 36.672 86.5452 36.4 87.1372 35.856C87.7452 35.296 88.0492 34.424 88.0492 33.24V32.424C88.0492 31.256 87.7692 30.4 87.2092 29.856C86.6652 29.312 86.0092 29.04 85.2412 29.04C84.2332 29.04 83.4652 29.376 82.9372 30.048C82.4252 30.704 82.1692 31.64 82.1692 32.856ZM93.0577 23.64C93.0577 23.096 93.2257 22.68 93.5617 22.392C93.9137 22.088 94.3457 21.936 94.8577 21.936C95.3697 21.936 95.7937 22.088 96.1297 22.392C96.4817 22.68 96.6577 23.096 96.6577 23.64C96.6577 24.184 96.4817 24.608 96.1297 24.912C95.7937 25.216 95.3697 25.368 94.8577 25.368C94.3457 25.368 93.9137 25.216 93.5617 24.912C93.2257 24.608 93.0577 24.184 93.0577 23.64ZM93.4897 39V26.88H96.2017V39H93.4897ZM107.638 35.592C107.638 36.648 107.27 37.52 106.534 38.208C105.814 38.896 104.622 39.24 102.958 39.24C102.03 39.24 101.19 39.152 100.438 38.976C99.686 38.784 99.078 38.568 98.614 38.328V35.76C99.142 36.064 99.814 36.336 100.63 36.576C101.446 36.816 102.246 36.936 103.03 36.936C103.702 36.936 104.214 36.816 104.566 36.576C104.918 36.32 105.094 35.992 105.094 35.592C105.094 35.208 104.902 34.888 104.518 34.632C104.15 34.376 103.478 34.136 102.502 33.912C101.062 33.592 100.03 33.128 99.406 32.52C98.798 31.912 98.494 31.128 98.494 30.168C98.494 29.064 98.894 28.2 99.694 27.576C100.494 26.952 101.606 26.64 103.03 26.64C103.846 26.64 104.614 26.728 105.334 26.904C106.054 27.064 106.638 27.272 107.086 27.528V30.024C106.35 29.688 105.646 29.424 104.974 29.232C104.302 29.04 103.646 28.944 103.006 28.944C102.35 28.944 101.846 29.048 101.494 29.256C101.158 29.464 100.99 29.768 100.99 30.168C100.99 30.536 101.158 30.848 101.494 31.104C101.83 31.344 102.494 31.576 103.486 31.8C104.942 32.12 105.998 32.584 106.654 33.192C107.31 33.784 107.638 34.584 107.638 35.592ZM113.163 34.944C113.163 35.44 113.307 35.832 113.595 36.12C113.883 36.408 114.307 36.552 114.867 36.552C115.091 36.552 115.307 36.536 115.515 36.504C115.723 36.472 115.907 36.44 116.067 36.408V38.904C115.859 38.952 115.619 38.992 115.347 39.024C115.091 39.072 114.779 39.096 114.411 39.096C113.067 39.096 112.075 38.736 111.435 38.016C110.811 37.28 110.499 36.328 110.499 35.16V29.256H108.771V26.88H110.499V24.336H113.163V26.88H116.067V29.256H113.163V34.944ZM123.164 28.848C122.204 28.848 121.476 29.144 120.98 29.736C120.484 30.312 120.188 31.088 120.092 32.064H125.972C125.908 31.024 125.644 30.232 125.18 29.688C124.716 29.128 124.044 28.848 123.164 28.848ZM127.964 38.52C127.452 38.776 126.836 38.96 126.116 39.072C125.412 39.184 124.732 39.24 124.076 39.24C121.772 39.24 120.084 38.672 119.012 37.536C117.956 36.384 117.428 34.864 117.428 32.976C117.428 32.064 117.556 31.216 117.812 30.432C118.068 29.648 118.436 28.976 118.916 28.416C119.412 27.856 120.02 27.424 120.74 27.12C121.46 26.8 122.292 26.64 123.236 26.64C124.18 26.64 124.988 26.8 125.66 27.12C126.348 27.424 126.908 27.856 127.34 28.416C127.772 28.976 128.084 29.648 128.276 30.432C128.484 31.2 128.588 32.048 128.588 32.976V33.912H120.116C120.26 34.824 120.652 35.536 121.292 36.048C121.932 36.56 122.884 36.816 124.148 36.816C124.852 36.816 125.524 36.76 126.164 36.648C126.804 36.52 127.404 36.368 127.964 36.192V38.52ZM133.419 32.184V39H130.755V26.88H133.419V29.16C133.755 28.376 134.235 27.76 134.859 27.312C135.499 26.848 136.355 26.648 137.427 26.712V29.424C136.131 29.312 135.139 29.464 134.451 29.88C133.763 30.28 133.419 31.048 133.419 32.184Z" fill="#1C53A1"/>
</svg>
