<svg width="128" height="62" viewBox="0 0 128 62" fill="none" xmlns="http://www.w3.org/2000/svg">
<rect width="10.8706" height="10.8709" transform="matrix(-0.95488 -0.296991 -0.296972 0.954886 28.9883 3.35931)" fill="#99BCFF"/>
<rect width="5.95469" height="5.95488" transform="matrix(-0.981098 0.193511 0.193498 0.981101 60.2871 46.1926)" fill="#99BCFF"/>
<rect width="2.88249" height="2.88258" transform="matrix(-0.973901 -0.226972 -0.226957 0.973905 23.9961 58.9235)" fill="#99BCFF"/>
<rect width="2.88249" height="2.88258" transform="matrix(-0.973901 -0.226972 -0.226957 0.973905 127.871 29.9339)" fill="#99BCFF"/>
<rect width="5.9547" height="5.95486" transform="matrix(-0.941028 -0.338329 -0.338308 0.941035 47.2578 23.7368)" fill="#99BCFF"/>
<rect width="5.0879" height="5.08807" transform="matrix(-0.992542 -0.121901 -0.121893 0.992543 80.4785 4.4743)" fill="#99BCFF"/>
<path d="M12.8559 34.6104L9.30384 39.0736L3.96153 37.0745L7.10854 41.8321L3.55646 46.2953L9.0535 44.7724L12.2005 49.53L12.4509 43.8312L17.9479 42.3083L12.6056 40.3092L12.8559 34.6104Z" fill="#1C529E"/>
<path d="M99.1279 32.5974L98.8529 35.5587L95.9517 36.2123L98.683 37.3889L98.408 40.3502L100.371 38.1161L103.102 39.2927L101.584 36.7353L103.547 34.5012L100.646 35.1548L99.1279 32.5974Z" fill="#1C529E"/>
<path d="M73.1293 21.3554L73.3052 23.5172L75.4155 24.018L73.4139 24.8534L73.5898 27.0152L72.1768 25.3696L70.1752 26.205L71.3035 24.3526L69.8905 22.707L72.0009 23.2078L73.1293 21.3554Z" fill="#1C529E"/>
</svg>
