<svg width="85" height="41" viewBox="0 0 85 41" fill="none" xmlns="http://www.w3.org/2000/svg">
<rect width="7.10817" height="7.10837" transform="matrix(-0.95488 -0.296991 -0.296972 0.954886 19.3999 2.26953)" fill="#99BCFF"/>
<rect width="3.8937" height="3.89382" transform="matrix(-0.981098 0.193511 0.193498 0.981101 39.8657 30.2773)" fill="#99BCFF"/>
<rect width="1.88483" height="1.88488" transform="matrix(-0.973901 -0.226972 -0.226957 0.973905 16.1355 38.6016)" fill="#99BCFF"/>
<rect width="1.88483" height="1.88488" transform="matrix(-0.973901 -0.226972 -0.226957 0.973905 84.0581 19.6465)" fill="#99BCFF"/>
<rect width="3.89371" height="3.89381" transform="matrix(-0.941028 -0.338329 -0.338308 0.941035 31.3462 15.5938)" fill="#99BCFF"/>
<rect width="3.32691" height="3.32702" transform="matrix(-0.992542 -0.121901 -0.121893 0.992543 53.0686 2.99805)" fill="#99BCFF"/>
<path d="M8.8511 22.7027L6.52844 25.6212L3.03517 24.314L5.09296 27.4249L2.7703 30.3434L6.36474 29.3476L8.42253 32.4585L8.58623 28.7321L12.1807 27.7363L8.6874 26.4291L8.8511 22.7027Z" fill="#1964E9"/>
<path d="M65.2631 21.3871L65.0834 23.3234L63.1863 23.7508L64.9722 24.5202L64.7924 26.4565L66.076 24.9957L67.862 25.765L66.8693 24.0928L68.1529 22.6319L66.2558 23.0593L65.2631 21.3871Z" fill="#1964E9"/>
<path d="M48.2631 14.0366L48.3781 15.4502L49.758 15.7777L48.4492 16.3239L48.5642 17.7375L47.6403 16.6615L46.3314 17.2077L47.0693 15.9965L46.1453 14.9204L47.5253 15.2479L48.2631 14.0366Z" fill="#1964E9"/>
</svg>
