<svg width="25" height="24" viewBox="0 0 25 24" fill="none" xmlns="http://www.w3.org/2000/svg">
<path d="M1.81375 23.395H4.40481C5.40496 23.395 6.21856 22.5814 6.21856 21.5813V9.66238C6.21856 8.66223 5.40496 7.84863 4.40481 7.84863H1.81375C0.813595 7.84863 0 8.66223 0 9.66238V21.5813C0 22.5814 0.813595 23.395 1.81375 23.395Z" fill="#C9C9C9"/>
<path d="M13.2463 0.333008C12.2099 0.333008 11.6917 0.851221 11.6917 3.44229C11.6917 5.90484 9.30686 7.88649 7.77295 8.90737V21.7466C9.43227 22.5146 12.754 23.6526 17.9102 23.6526H19.5685C21.5896 23.6526 23.31 22.2016 23.652 20.2117L24.8128 13.4749C25.2481 10.9357 23.2997 8.62442 20.7293 8.62442H15.8374C15.8374 8.62442 16.6147 7.06978 16.6147 4.47871C16.6147 1.36943 14.2827 0.333008 13.2463 0.333008Z" fill="#C9C9C9"/>
</svg>
