<svg width="29" height="29" viewBox="0 0 29 29" fill="none" xmlns="http://www.w3.org/2000/svg">
<path d="M7.46679 18.2586C7.02694 17.8189 6.8613 18.0399 6.76346 18.1378C4.23058 20.6707 1.98194 26.7821 3.17071 26.1852C7.49828 24.0123 8.21934 24.6592 10.7521 22.1265C10.85 22.0286 11.0752 21.8672 10.6226 21.4145L7.46679 18.2586Z" fill="#1C53A1"/>
<path d="M21.1211 18.2247C21.0063 17.8594 21.2468 17.6834 21.348 17.5741C26.9383 11.5387 30.4912 3.49764 27.8583 0.864589C25.2393 -1.75427 17.4462 1.90241 11.4124 7.45239C11.293 7.56234 11.0577 7.77054 10.6368 7.68266L8.75694 7.23502C8.235 7.11089 7.49751 7.31953 7.11812 7.69892L0.220215 14.5967C-0.159172 14.9762 -0.03591 15.3548 0.494159 15.438L5.48319 16.2221C6.01326 16.3055 6.75733 16.0632 7.13663 15.6837C7.13663 15.6837 7.39406 15.4256 7.65269 15.6841C9.07959 17.1109 11.7311 19.7624 13.0906 21.1219C13.3608 21.3921 13.102 21.649 13.102 21.649C12.7225 22.0285 12.4803 22.7724 12.5637 23.3026L13.3476 28.2915C13.4309 28.8218 13.8096 28.945 14.1889 28.5656L21.0869 21.6676C21.4662 21.2882 21.675 20.5508 21.5507 20.0289L21.1211 18.2247ZM19.5767 9.31309C18.4084 8.14474 18.4084 6.25066 19.5767 5.08248C20.745 3.91413 22.6391 3.91413 23.8075 5.08248C24.9757 6.25057 24.9757 8.14474 23.8075 9.313C22.6391 10.4813 20.7449 10.4813 19.5767 9.31309Z" fill="#1C53A1"/>
</svg>
