<svg xmlns="http://www.w3.org/2000/svg" width="77.352" height="59.268" viewBox="0 0 77.352 59.268">
  <g id="Group_13523" data-name="Group 13523" transform="translate(-462 -290)">
    <g id="Group_13523-2" data-name="Group 13523" transform="translate(-564 -2077)">
      <path id="Path_21154" data-name="Path 21154" d="M42,0H73.352a2,2,0,0,1,2,2V55.268a2,2,0,0,1-2,2H2a2,2,0,0,1-2-2V31.777" transform="translate(1102.352 2425.268) rotate(180)" fill="none" stroke="#273b5e" stroke-linecap="round" stroke-width="2"/>
    </g>
    <path id="Path_21158" data-name="Path 21158" d="M475.111,302.724h49.178" fill="none" stroke="#273b5e" stroke-linecap="round" stroke-width="2"/>
    <path id="Path_21159" data-name="Path 21159" d="M475.111,302.724H499.7" transform="translate(0 10)" fill="none" stroke="#273b5e" stroke-linecap="round" stroke-width="2"/>
    <path id="Path_21160" data-name="Path 21160" d="M475.111,302.724H499.7" transform="translate(0 20)" fill="none" stroke="#273b5e" stroke-linecap="round" stroke-width="2"/>
    <path id="Path_21161" data-name="Path 21161" d="M11.98,2.268a12.7,12.7,0,0,1,5.2,0,5.088,5.088,0,0,0,6.883,3.972,12.7,12.7,0,0,1,2.6,4.508,5.089,5.089,0,0,0,0,7.946,12.772,12.772,0,0,1-2.6,4.506,5.086,5.086,0,0,0-6.88,3.969,12.7,12.7,0,0,1-5.2.005A5.085,5.085,0,0,0,5.1,23.2a12.7,12.7,0,0,1-2.6-4.51,5.078,5.078,0,0,0,1.908-3.97A5.078,5.078,0,0,0,2.5,10.744,12.772,12.772,0,0,1,5.1,6.238a5.086,5.086,0,0,0,6.88-3.969Zm2.6,16.265a3.815,3.815,0,1,0-3.815-3.815A3.815,3.815,0,0,0,14.582,18.533Z" transform="translate(507 321.343)" fill="#638dfa"/>
  </g>
</svg>
