<svg width="80" height="80" viewBox="0 0 80 80" fill="none" xmlns="http://www.w3.org/2000/svg">
<path d="M11.72 56.5601C15.6 56.5601 18.75 53.41 18.75 49.53C18.75 45.65 15.6 42.5 11.72 42.5C7.83997 42.5 4.68994 45.65 4.68994 49.53C4.68994 53.41 7.83997 56.5601 11.72 56.5601Z" fill="#0E5BCA"/>
<path d="M2.33997 80H21.09C22.39 80 23.4399 78.9499 23.4399 77.6599V68.28C23.4399 62.62 19.4001 57.89 14.0601 56.8V68.28C14.0601 69.58 13.01 70.6201 11.72 70.6201C10.42 70.6201 9.38 69.58 9.38 68.28V56.8C4.03 57.89 0 62.62 0 68.28V77.6599C0 78.9499 1.04997 80 2.33997 80Z" fill="#0E5BCA"/>
<path d="M77.66 0C76.36 0 75.3101 1.05009 75.3101 2.34009V18.9099H70.62V7.18994C70.62 5.88994 69.58 4.84009 68.28 4.84009H58.91C57.61 4.84009 56.5601 5.88994 56.5601 7.18994V18.9099H51.88V7.18994C51.88 5.88994 50.83 4.84009 49.53 4.84009H40.16C38.86 4.84009 37.8101 5.88994 37.8101 7.18994V18.9099H35.47C34.17 18.9099 33.12 19.95 33.12 21.25C33.12 22.55 34.17 23.5901 35.47 23.5901C36.1 23.5901 76.2101 23.5901 75.3101 23.5901V42.3401H70.62V30.6201C70.62 29.3301 69.58 28.28 68.28 28.28H58.91C57.61 28.28 56.5601 29.3301 56.5601 30.6201V42.3401H51.88V30.6201C51.88 29.3301 50.83 28.28 49.53 28.28H40.16C38.86 28.28 37.8101 29.3301 37.8101 30.6201V42.3401H35.47C34.17 42.3401 33.12 43.3899 33.12 44.6899C33.12 45.9799 34.17 47.03 35.47 47.03C36.1 47.03 76.2101 47.03 75.3101 47.03V65.78H70.62V54.0601C70.62 52.7701 69.58 51.72 68.28 51.72H58.91C57.61 51.72 56.5601 52.7701 56.5601 54.0601V65.78H51.88V54.0601C51.88 52.7701 50.83 51.72 49.53 51.72H40.16C38.86 51.72 37.8101 52.7701 37.8101 54.0601V65.78H35.47C34.17 65.78 33.12 66.8301 33.12 68.1201C33.12 69.4201 34.17 70.47 35.47 70.47C36.1 70.47 76.2101 70.47 75.3101 70.47V77.6599C75.3101 78.9499 76.36 80 77.66 80C78.95 80 80 78.9499 80 77.6599V2.34009C80 1.05009 78.95 0 77.66 0Z" fill="#0E5BCA"/>
<path d="M0 23.5901C0 31.3501 6.31006 37.6599 14.0601 37.6599C21.8201 37.6599 28.12 31.3501 28.12 23.5901C28.12 21.1701 27.45 18.9299 26.37 16.9399L15.72 27.5901C14.8 28.5101 13.32 28.5101 12.41 27.5901L10.0601 25.25C9.15006 24.34 9.15006 22.8499 10.0601 21.9399C10.9801 21.0199 12.46 21.0199 13.38 21.9399L14.0601 22.6201L23.47 13.22C20.97 10.95 17.6901 9.53003 14.0601 9.53003C6.31006 9.53003 0 15.8401 0 23.5901Z" fill="#0E5BCA"/>
</svg>
