<svg width="54" height="54" viewBox="0 0 54 54" fill="none" xmlns="http://www.w3.org/2000/svg">
<path d="M33.0939 13.0601C33.0939 12.5801 33.4839 12.1899 33.9649 12.1899H34.7839C34.6199 10.7199 34.0409 9.33018 33.1159 8.18018L32.5399 8.75C32.2059 9.1 31.6549 9.11002 31.3089 8.77002C30.9629 8.44002 30.9529 7.89004 31.2869 7.54004C31.2939 7.54004 31.3009 7.53002 31.3089 7.52002L31.8839 6.9502C30.7309 6.0202 29.3379 5.43979 27.8689 5.27979V6.1001C27.8689 6.5801 27.4789 6.97021 26.9979 6.97021C26.5169 6.97021 26.127 6.5801 26.127 6.1001V5.27979C24.657 5.43979 23.2639 6.0202 22.1109 6.9502L22.687 7.52002C23.021 7.87002 23.0109 8.42 22.6649 8.75C22.3279 9.08 21.7929 9.08 21.4549 8.75L20.8799 8.18018C19.9539 9.33018 19.3749 10.7199 19.2109 12.1899H20.0299C20.5109 12.1899 20.9009 12.5801 20.9009 13.0601C20.9009 13.5501 20.5109 13.9399 20.0299 13.9399H19.2109C19.3749 15.4099 19.9539 16.8002 20.8799 17.9502L21.4549 17.3799C21.8009 17.0399 22.353 17.0499 22.687 17.3999C23.013 17.7399 23.013 18.2699 22.687 18.6099L22.1109 19.1802C23.2639 20.1102 24.657 20.6901 26.127 20.8501V20.0298C26.127 19.5498 26.5169 19.1602 26.9979 19.1602C27.4789 19.1602 27.8689 19.5498 27.8689 20.0298V20.8501C29.3379 20.6901 30.7309 20.1102 31.8839 19.1802L31.3089 18.6099C30.9629 18.2699 30.9529 17.7199 31.2869 17.3799C31.6209 17.0299 32.173 17.0201 32.519 17.3501C32.526 17.3601 32.5329 17.3699 32.5399 17.3799L33.1159 17.9502C34.0409 16.8002 34.6199 15.4099 34.7839 13.9399H33.9649C33.4839 13.9399 33.0939 13.5501 33.0939 13.0601ZM30.4809 13.0601C30.4809 13.5501 30.0909 13.9399 29.6099 13.9399H26.9979C26.5169 13.9399 26.127 13.5501 26.127 13.0601V9.58008C26.127 9.10008 26.5169 8.70996 26.9979 8.70996C27.4789 8.70996 27.8689 9.10008 27.8689 9.58008V12.1899H29.6099C30.0909 12.1899 30.4809 12.5801 30.4809 13.0601Z" fill="#0E5BCA"/>
<path d="M27.001 0C19.786 0 13.938 5.85006 13.938 13.0601C13.938 20.2801 19.786 26.1299 27.001 26.1299C34.216 26.1299 40.064 20.2801 40.064 13.0601C40.056 5.85006 34.212 0.01 27.001 0ZM27.001 22.6499C21.71 22.6499 17.421 18.3601 17.421 13.0601C17.421 7.77006 21.71 3.47998 27.001 3.47998C32.292 3.47998 36.581 7.77006 36.581 13.0601C36.575 18.3501 32.289 22.6399 27.001 22.6499Z" fill="#0E5BCA"/>
<path d="M21.774 54H6.09705C5.61705 54 5.22705 53.6099 5.22705 53.1299V44.4199C5.22705 43.9399 5.61705 43.5498 6.09705 43.5498H21.774C22.255 43.5498 22.6441 43.9399 22.6441 44.4199V53.1299C22.6441 53.6099 22.255 54 21.774 54Z" fill="#0E5BCA"/>
<path d="M20.904 34.5C20.904 31.96 19.895 29.53 18.099 27.73L11.289 20.9199C10.111 19.7199 8.181 19.6999 6.979 20.8799C5.777 22.0599 5.758 23.9899 6.936 25.1899C6.951 25.1999 6.965 25.22 6.979 25.23L13.685 31.9399C14.019 32.2799 14.01 32.8399 13.664 33.1699C13.326 33.4999 12.791 33.4999 12.454 33.1699L5.748 26.46C3.877 24.59 3.877 21.5599 5.748 19.6899C5.859 19.5899 5.97499 19.4899 6.09599 19.3999V10.02C6.09599 8.33002 4.732 6.97021 3.048 6.97021C1.365 6.97021 0 8.33002 0 10.02V25.7798C0 27.8798 0.581001 29.93 1.679 31.71L6.97 40.3101V41.8101H20.904V34.5Z" fill="#0E5BCA"/>
<path d="M31.355 53.1299V44.4199C31.355 43.9399 31.745 43.5498 32.226 43.5498H47.902C48.383 43.5498 48.773 43.9399 48.773 44.4199V53.1299C48.773 53.6099 48.383 54 47.902 54H32.226C31.745 54 31.355 53.6099 31.355 53.1299Z" fill="#0E5BCA"/>
<path d="M33.098 34.5C33.098 31.96 34.107 29.53 35.903 27.73L42.712 20.9199C43.891 19.7199 45.821 19.6999 47.023 20.8799C48.225 22.0599 48.244 23.9899 47.065 25.1899C47.051 25.1999 47.037 25.22 47.022 25.23L40.317 31.9399C39.982 32.2799 39.992 32.8399 40.338 33.1699C40.675 33.4999 41.21 33.4999 41.548 33.1699L48.254 26.46C50.124 24.59 50.124 21.5599 48.254 19.6899C48.143 19.5899 48.026 19.4899 47.905 19.3999V10.02C47.905 8.33002 49.27 6.97021 50.954 6.97021C52.637 6.97021 54.002 8.33002 54.002 10.02V25.7798C54.002 27.8798 53.421 29.93 52.323 31.71L47.032 40.3101V41.8101H33.098V34.5Z" fill="#0E5BCA"/>
</svg>
