<svg width="54" height="54" viewBox="0 0 54 54" fill="none" xmlns="http://www.w3.org/2000/svg">
<path fill-rule="evenodd" clip-rule="evenodd" d="M48.627 25.6599V46.99C48.627 47.45 48.411 47.8899 48.02 48.1699C47.641 48.4499 47.142 48.5499 46.683 48.4299C43.214 47.5499 40.743 46.99 36.275 46.99C33.507 46.99 30.915 47.4399 27.959 49.6399C27.405 50.0599 26.622 50.0599 26.069 49.6399C23.112 47.4399 20.52 46.99 17.753 46.99C13.297 46.99 10.814 47.5299 7.34399 48.4299C6.88499 48.5499 6.386 48.4499 6.008 48.1699C5.63 47.8899 5.39999 47.45 5.39999 46.99V25.6599H4.05C1.809 25.6599 0 27.47 0 29.71V52.6499C0 53.0799 0.201994 53.49 0.552994 53.74C0.903994 54 1.35 54.0699 1.755 53.9299C1.755 53.9299 9.909 51.3 13.5 51.3C16.497 51.3 18.59 52.2199 20.183 52.9299C21.56 53.5499 22.653 54 23.625 54H30.375C31.333 54 32.441 53.5399 33.818 52.9299C35.424 52.2199 37.517 51.3 40.5 51.3C44.091 51.3 52.245 53.9299 52.245 53.9299C52.65 54.0699 53.109 53.99 53.447 53.74C53.784 53.5 54 53.0799 54 52.6499V29.71C54 27.47 52.191 25.6599 49.95 25.6599H48.6H48.627ZM27.027 21.23C25.704 20.31 23.004 18.9099 18.927 18.9099C16.281 18.9099 15.242 19.4901 14.405 20.1201C13.514 20.7801 12.946 21.6101 9.47699 21.6101C8.73399 21.6101 8.12701 22.22 8.12701 22.96V44.55C8.12701 44.97 8.31599 45.3601 8.65399 45.6201C8.99099 45.8701 9.423 45.9601 9.828 45.8501C12.866 45.0401 15.026 44.54 18.927 44.54C21.357 44.54 23.611 44.94 26.204 46.95C26.69 47.33 27.378 47.33 27.864 46.95C30.456 44.94 32.711 44.54 35.141 44.54C39.042 44.54 41.215 45.0401 44.24 45.8501C44.645 45.9601 45.076 45.8701 45.414 45.6201C45.751 45.3601 45.94 44.97 45.94 44.55V22.96C45.94 22.22 45.333 21.6101 44.59 21.6101C41.121 21.6101 40.554 20.8001 39.663 20.1201C38.813 19.4901 37.773 18.9099 35.141 18.9099C31.064 18.9099 28.364 20.31 27.041 21.23H27.027ZM33.305 35.6699C33.615 34.8599 33.777 33.9801 33.777 33.0701C33.777 28.9601 30.456 25.6399 26.352 25.6399C22.248 25.6399 18.927 28.9601 18.927 33.0701C18.927 37.1701 22.248 40.49 26.352 40.49C28.566 40.49 30.551 39.52 31.914 37.98L35.775 40.3C36.41 40.68 37.247 40.4801 37.625 39.8401C38.003 39.2101 37.8 38.37 37.166 37.99L33.305 35.6699ZM26.352 28.3401C28.958 28.3401 31.077 30.4601 31.077 33.0701C31.077 35.6701 28.958 37.79 26.352 37.79C23.747 37.79 21.627 35.6701 21.627 33.0701C21.627 30.4601 23.747 28.3401 26.352 28.3401ZM23.112 15.1799C23.099 15.4699 23.085 15.8301 23.099 16.0901C23.139 16.6501 23.315 17.1899 23.679 17.6699C24.165 18.2899 25.097 18.8999 27.027 18.8999C28.958 18.8999 29.889 18.2999 30.429 17.6699C31.091 16.8999 31.145 15.8901 31.104 15.1001C33.507 13.7001 35.127 11.0901 35.127 8.1001C35.127 3.6301 31.496 0 27.027 0C22.559 0 18.927 3.6301 18.927 8.1001C18.927 11.1501 20.615 13.8099 23.112 15.1799ZM37.233 13.3501L39.933 14.7C40.595 15.04 41.418 14.7701 41.742 14.0901C42.08 13.4301 41.81 12.61 41.135 12.28L38.435 10.9299C37.773 10.5899 36.95 10.86 36.626 11.54C36.288 12.2 36.558 13.0201 37.233 13.3501ZM15.633 10.9299L12.933 12.28C12.271 12.62 12.001 13.4301 12.325 14.0901C12.663 14.7501 13.473 15.02 14.134 14.7L16.835 13.3501C17.496 13.0101 17.766 12.2 17.442 11.54C17.104 10.88 16.295 10.6099 15.633 10.9299ZM28.391 10L29.349 9.04004C29.875 8.52004 29.875 7.66988 29.349 7.12988C28.823 6.59988 27.972 6.59988 27.432 7.12988L27.041 7.52002L26.649 7.12988C26.122 6.59988 25.272 6.59988 24.732 7.12988C24.205 7.64988 24.205 8.50004 24.732 9.04004L25.691 10V10.8C25.691 11.54 26.298 12.1499 27.041 12.1499C27.783 12.1499 28.391 11.54 28.391 10.8V10ZM39.19 9.44995H41.89C42.633 9.44995 43.24 8.8401 43.24 8.1001C43.24 7.3601 42.633 6.75 41.89 6.75H39.19C38.448 6.75 37.84 7.3601 37.84 8.1001C37.84 8.8401 38.448 9.44995 39.19 9.44995ZM14.891 6.75H12.191C11.448 6.75 10.841 7.3601 10.841 8.1001C10.841 8.8401 11.448 9.44995 12.191 9.44995H14.891C15.633 9.44995 16.241 8.8401 16.241 8.1001C16.241 7.3601 15.633 6.75 14.891 6.75ZM16.848 2.8501L14.148 1.5C13.486 1.16 12.663 1.43011 12.339 2.11011C12.001 2.77011 12.272 3.58991 12.947 3.90991L15.647 5.26001C16.308 5.60001 17.132 5.32991 17.456 4.65991C17.793 3.98991 17.523 3.1701 16.848 2.8501ZM38.448 5.26001L41.148 3.90991C41.81 3.57991 42.08 2.77011 41.756 2.11011C41.418 1.44011 40.608 1.17 39.947 1.5L37.247 2.8501C36.585 3.1901 36.315 3.98991 36.639 4.65991C36.977 5.31991 37.786 5.59001 38.448 5.26001Z" fill="#0E5BCA"/>
</svg>
