<svg width="100" height="98" viewBox="0 0 100 98" fill="none" xmlns="http://www.w3.org/2000/svg">
<ellipse cx="49.6712" cy="49" rx="49.6712" ry="49" fill="#FDFAF1"/>
<path d="M33.9392 69.077C33.8281 69.077 33.7136 69.077 33.6025 69.077C29.322 69.013 29.0357 69.7472 29.2243 64.9413C29.2512 64.2172 29.0862 63.7221 28.3116 63.6211C27.372 63.4999 26.6445 62.2706 25.4523 63.3786C22.3708 66.2312 22.3236 66.1773 19.3027 63.1159C18.555 62.3582 17.8007 61.6038 17.0429 60.8595C16.1504 59.9872 16.1201 59.1251 17.0429 58.2562C17.3696 57.9497 17.6828 57.6264 17.996 57.3065C19.3229 55.9526 19.3869 54.8412 18.2991 53.2718C17.831 52.5949 17.1776 52.9013 16.6152 52.8946C13.0049 52.8542 13.0049 52.871 13.0082 49.2978C13.0082 47.8968 13.0419 46.4924 13.0015 45.0914C12.9645 43.7948 13.6111 43.2492 14.8336 43.2424C15.2815 43.2424 15.7294 43.2424 16.1807 43.2424C18.097 43.2424 18.875 42.5217 19.2151 40.5953C19.3498 39.8376 18.7571 39.6288 18.4001 39.2785C15.5442 36.4731 15.7699 36.5708 18.4001 33.9136C19.3465 32.9605 20.3164 32.031 21.2628 31.0745C22.1485 30.1787 23.0006 30.182 23.8526 31.1149C24.1187 31.4046 24.3982 31.6773 24.6777 31.9569C26.1764 33.4488 27.0015 33.4993 28.8269 32.3812C29.4398 32.0074 29.2075 31.4989 29.2041 31.061C29.1704 26.9018 28.9077 26.9658 33.3869 27.0095C34.5657 27.0197 35.741 27.0264 36.9198 27.0095C38.1591 26.9927 38.8091 27.5585 38.8158 28.8181C38.8158 29.2121 38.8158 29.6028 38.8158 29.9968C38.8226 32.2095 39.2739 32.7416 41.3552 33.2636C42.1096 33.4522 42.3521 32.91 42.7259 32.5462C44.5961 30.7254 46.4529 30.7501 48.2963 32.6203C49.1618 33.496 50.0509 34.3548 50.9299 35.2169C51.8628 36.1296 51.9571 37.0288 50.9232 37.9415C50.5897 38.2379 50.2934 38.5814 49.9768 38.898C48.7644 40.1137 48.7038 41.609 49.7646 42.9292C50.125 43.3772 50.5695 43.2256 50.9905 43.2391C51.718 43.2626 52.4488 43.2391 53.1762 43.2391C54.3987 43.2458 55.0622 43.8251 55.0622 45.0846C55.0622 47.0481 55.0588 49.0115 55.0555 50.9716C55.0555 52.2716 54.4728 52.9754 53.1021 52.8811C52.7115 52.8542 52.3174 52.8811 51.9234 52.8811C49.9195 52.8811 49.2561 53.4436 48.8082 55.4171C48.6263 56.2153 49.246 56.5015 49.6535 56.9158C51.3845 58.6648 51.3935 60.4004 49.6804 62.1224C48.7307 63.0755 47.7641 64.0118 46.838 64.9851C45.9017 65.9718 45.0194 65.9449 44.1134 64.9682C43.8474 64.682 43.5577 64.4125 43.2816 64.133C41.8705 62.7084 40.9477 62.6411 39.2739 63.7491C38.7316 64.1095 38.8091 64.5944 38.8226 65.0794C38.9573 69.7539 38.5633 69.0265 34.6094 69.077C34.3838 69.077 34.1615 69.077 33.9359 69.077H33.9392ZM42.0624 48.1258C42.0793 43.5624 38.57 40.0194 34.0302 40.0228C29.5072 40.0228 25.8834 43.6264 25.9036 48.0955C25.9205 52.4736 29.5139 56.1041 33.9022 56.1782C38.3443 56.2523 42.0456 52.6016 42.0624 48.1258Z" fill="#DDB94C"/>
<path d="M73.8963 53.1033C73.8274 53.1033 73.7564 53.1033 73.6874 53.1033C71.0319 53.0636 70.8543 53.5191 70.9713 50.5377C70.988 50.0885 70.8857 49.7813 70.4051 49.7187C69.8222 49.6434 69.3709 48.8808 68.6313 49.5682C66.7196 51.3379 66.6904 51.3044 64.8163 49.4053C64.3524 48.9352 63.8844 48.4672 63.4143 48.0054C62.8607 47.4643 62.8419 46.9294 63.4143 46.3904C63.617 46.2003 63.8113 45.9997 64.0056 45.8012C64.8288 44.9613 64.8685 44.2719 64.1936 43.2982C63.9032 42.8783 63.4979 43.0684 63.149 43.0642C60.9093 43.0392 60.9093 43.0496 60.9114 40.8329C60.9114 39.9637 60.9323 39.0925 60.9072 38.2234C60.8842 37.419 61.2853 37.0805 62.0438 37.0763C62.3216 37.0763 62.5995 37.0763 62.8795 37.0763C64.0683 37.0763 64.5509 36.6292 64.7619 35.4341C64.8455 34.964 64.4778 34.8345 64.2563 34.6172C62.4846 32.8768 62.6246 32.9374 64.2563 31.289C64.8434 30.6977 65.4451 30.1211 66.0322 29.5277C66.5817 28.972 67.1103 28.974 67.6389 29.5528C67.8039 29.7325 67.9774 29.9017 68.1508 30.0751C69.0805 31.0007 69.5924 31.032 70.7248 30.3383C71.105 30.1064 70.9609 29.791 70.9588 29.5193C70.9379 26.9391 70.7749 26.9788 73.5537 27.0059C74.2849 27.0122 75.0141 27.0164 75.7454 27.0059C76.5142 26.9955 76.9175 27.3465 76.9216 28.1279C76.9216 28.3723 76.9216 28.6147 76.9216 28.8591C76.9258 30.2318 77.2058 30.5619 78.497 30.8857C78.965 31.0027 79.1154 30.6664 79.3473 30.4407C80.5076 29.3111 81.6595 29.3264 82.803 30.4867C83.3399 31.0299 83.8915 31.5627 84.4368 32.0975C85.0156 32.6637 85.0741 33.2216 84.4326 33.7878C84.2258 33.9716 84.042 34.1847 83.8456 34.3811C83.0934 35.1354 83.0558 36.063 83.7139 36.882C83.9375 37.1599 84.2133 37.0659 84.4744 37.0742C84.9257 37.0889 85.3791 37.0742 85.8304 37.0742C86.5888 37.0784 87.0004 37.4378 87.0004 38.2192C87.0004 39.4372 86.9983 40.6553 86.9962 41.8713C86.9962 42.6777 86.6348 43.1144 85.7844 43.0559C85.5421 43.0392 85.2976 43.0559 85.0532 43.0559C83.81 43.0559 83.3984 43.4048 83.1206 44.6291C83.0078 45.1243 83.3922 45.3019 83.645 45.5589C84.7189 46.6439 84.7245 47.7206 83.6617 48.7889C83.0725 49.3802 82.4729 49.961 81.8983 50.5648C81.3175 51.177 80.7701 51.1603 80.2081 50.5544C80.043 50.3768 79.8634 50.2096 79.692 50.0362C78.8166 49.1525 78.2442 49.1107 77.2058 49.798C76.8694 50.0216 76.9175 50.3225 76.9258 50.6233C77.0094 53.5233 76.7649 53.072 74.3121 53.1033C74.1721 53.1033 74.0342 53.1033 73.8942 53.1033H73.8963ZM78.9357 40.1058C78.9462 37.2748 76.7691 35.0769 73.9527 35.079C71.1468 35.079 68.8987 37.3145 68.9113 40.087C68.9217 42.8031 71.151 45.0553 73.8734 45.1013C76.6291 45.1473 78.9253 42.8825 78.9357 40.1058Z" fill="#DDB94C"/>
<path d="M65.1928 76.5615C65.139 76.5615 65.0836 76.5615 65.0299 76.5615C62.9595 76.5306 62.821 76.8857 62.9123 74.5612C62.9253 74.211 62.8455 73.9715 62.4708 73.9226C62.0163 73.864 61.6645 73.2694 61.0879 73.8054C59.5974 75.1851 59.5746 75.159 58.1134 73.6783C57.7518 73.3118 57.3869 72.9469 57.0204 72.5869C56.5887 72.165 56.5741 71.748 57.0204 71.3277C57.1784 71.1795 57.3299 71.0231 57.4814 70.8684C58.1232 70.2136 58.1541 69.676 57.628 68.9169C57.4016 68.5895 57.0856 68.7377 56.8135 68.7345C55.0673 68.7149 55.0673 68.7231 55.0689 66.9948C55.0689 66.3171 55.0852 65.6379 55.0657 64.9602C55.0478 64.3331 55.3605 64.0692 55.9518 64.0659C56.1685 64.0659 56.3851 64.0659 56.6034 64.0659C57.5303 64.0659 57.9065 63.7173 58.0711 62.7856C58.1362 62.4191 57.8495 62.3181 57.6769 62.1487C56.2955 60.7918 56.4047 60.839 57.6769 59.5538C58.1346 59.0928 58.6037 58.6432 59.0615 58.1806C59.4899 57.7473 59.902 57.7489 60.3141 58.2001C60.4428 58.3402 60.578 58.4722 60.7132 58.6074C61.4381 59.329 61.8372 59.3534 62.7201 58.8126C63.0165 58.6318 62.9041 58.3858 62.9025 58.1741C62.8862 56.1623 62.7591 56.1933 64.9256 56.2145C65.4958 56.2193 66.0643 56.2226 66.6344 56.2145C67.2338 56.2063 67.5482 56.48 67.5515 57.0892C67.5515 57.2798 67.5515 57.4687 67.5515 57.6593C67.5547 58.7295 67.773 58.9869 68.7797 59.2394C69.1446 59.3306 69.2619 59.0684 69.4427 58.8924C70.3473 58.0117 71.2454 58.0237 72.1369 58.9283C72.5556 59.3518 72.9856 59.7672 73.4108 60.1842C73.862 60.6256 73.9076 61.0605 73.4075 61.502C73.2463 61.6453 73.1029 61.8115 72.9498 61.9646C72.3634 62.5527 72.334 63.2759 72.8472 63.9144C73.0215 64.1311 73.2365 64.0578 73.4401 64.0643C73.7919 64.0757 74.1454 64.0643 74.4973 64.0643C75.0886 64.0676 75.4095 64.3477 75.4095 64.957C75.4095 65.9066 75.4079 66.8563 75.4062 67.8044C75.4062 68.4331 75.1244 68.7736 74.4614 68.728C74.2725 68.7149 74.0819 68.728 73.8913 68.728C72.9221 68.728 72.6012 69 72.3845 69.9546C72.2966 70.3406 72.5963 70.4791 72.7934 70.6794C73.6307 71.5254 73.635 72.3648 72.8064 73.1978C72.3471 73.6588 71.8796 74.1116 71.4316 74.5824C70.9788 75.0596 70.552 75.0466 70.1138 74.5742C69.9851 74.4358 69.845 74.3054 69.7115 74.1702C69.0289 73.4812 68.5826 73.4486 67.773 73.9845C67.5108 74.1588 67.5482 74.3934 67.5547 74.628C67.6199 76.8889 67.4293 76.5371 65.5169 76.5615C65.4078 76.5615 65.3003 76.5615 65.1911 76.5615H65.1928ZM69.1218 66.4279C69.1299 64.2207 67.4326 62.507 65.2368 62.5087C63.0491 62.5087 61.2964 64.2516 61.3061 66.4132C61.3143 68.5309 63.0524 70.2869 65.1749 70.3227C67.3234 70.3585 69.1136 68.5928 69.1218 66.4279Z" fill="#DDB94C"/>
<circle cx="34.1941" cy="48.1967" r="13.2479" fill="#FDFAF1"/>
<circle cx="73.9515" cy="40.047" r="8.46297" fill="#FDFAF1"/>
<circle cx="65.2348" cy="66.5425" r="6.00725" fill="#DDB94C"/>
<path d="M33.3771 48.1598C32.6513 48.5134 32.9603 48.8414 33.328 49.1134C34.0178 49.6212 34.0979 50.2091 33.8348 50.9617C33.5683 51.7234 33.3869 52.5198 33.261 53.3132C33.1253 54.1746 33.856 54.758 34.1682 55.5227C34.9349 54.4573 35.4972 53.4326 34.8678 52.1843C34.7338 51.9183 34.7583 51.5873 34.6537 51.3047C34.3153 50.3844 34.317 49.5577 35.2634 48.9184C35.6999 48.6237 35.3435 48.4016 35.0526 48.1583C36.0203 47.9497 36.8327 47.6263 37.4963 47.0444C37.7235 46.845 37.9867 46.8646 38.2597 46.8858C39.9711 47.0203 41.3916 48.3033 41.4472 49.9023C41.5142 51.8367 41.4668 53.7742 41.4848 55.7116C41.488 56.0607 41.3704 56.1998 40.9715 56.1982C36.4567 56.1892 31.9403 56.1892 27.4254 56.1982C27.0331 56.1982 26.9089 56.0758 26.9122 55.7177C26.9318 53.756 26.886 51.7929 26.9481 49.8327C26.9972 48.2776 28.6089 46.9084 30.2877 46.8722C30.5443 46.8661 30.7437 46.919 30.948 47.0868C31.6101 47.6293 32.3947 47.9678 33.3803 48.1583L33.3771 48.1598Z" fill="#DDB94C"/>
<path d="M34.2306 47.7459C31.8361 47.7797 29.8795 46.0202 29.8287 43.787C29.7762 41.4773 31.7 39.6136 34.1601 39.586C36.5299 39.5599 38.5193 41.3532 38.5702 43.5633C38.6243 45.8715 36.7169 47.7107 34.2306 47.7459Z" fill="#DDB94C"/>
<path d="M71.3983 66.1549C71.2983 69.8237 68.2931 72.6643 64.6245 72.5575C61.0104 72.4519 58.1521 69.4226 58.2477 65.7979C58.3437 62.1586 61.38 59.296 65.0408 59.3924C68.6541 59.4878 71.4977 62.5134 71.3994 66.155L71.3983 66.1549ZM59.9061 65.8341C59.8305 68.5723 61.9773 70.8555 64.7041 70.9353C67.3799 71.0139 69.7013 68.8295 69.7856 66.1539C69.8721 63.4318 67.7346 61.142 64.9962 61.0234C62.3055 60.907 59.9826 63.1027 59.9072 65.8342L59.9061 65.8341Z" fill="#FDFAF1"/>
<path d="M78.2635 78.3752C78.2285 79.0809 77.8874 79.5945 77.2325 79.8522C76.5342 80.127 75.8958 79.9768 75.3724 79.4312C74.0025 78.0025 72.6395 76.5693 71.273 75.1383C71.1823 75.0432 71.0916 74.9469 71.0009 74.8517C70.3437 74.1612 70.337 74.1565 70.9777 73.4471C71.1384 73.2695 71.1524 73.161 70.9762 72.9878C70.5872 72.6042 70.2332 72.1841 69.835 71.8105C69.5943 71.5848 69.7284 71.4757 69.8975 71.33C70.0619 71.1877 70.1806 70.9671 70.4289 71.2577C70.7587 71.6443 71.1476 71.9802 71.4764 72.368C71.7069 72.64 71.8559 72.6198 72.1021 72.3818C72.694 71.813 72.7198 71.8272 73.3051 72.4411C74.7622 73.9684 76.2171 75.4979 77.6789 77.0219C78.0451 77.4037 78.2993 77.8249 78.2634 78.3786L78.2635 78.3752Z" fill="#DDB94C"/>
<path d="M60.6938 65.8526C60.7586 63.5666 62.6514 61.762 64.9274 61.8164C67.2102 61.8709 69.0476 63.8132 68.9816 66.1048C68.9176 68.359 66.9889 70.1911 64.7287 70.1417C62.4458 70.0929 60.6275 68.1589 60.6927 65.8525L60.6938 65.8526Z" fill="#FDFAF1"/>
<path d="M70.3074 45.6561C70.1393 45.5529 70.0823 45.4018 70.1003 45.2091C70.1109 45.0964 70.1011 44.9821 70.1024 44.8683C70.1052 44.6429 70.2323 44.5158 70.4596 44.5152C71.0504 44.5139 71.6414 44.5103 72.2319 44.5182C72.3577 44.5199 72.3888 44.4822 72.377 44.3662C72.3656 44.2541 72.4087 44.1136 72.3552 44.0353C72.3069 43.9643 72.1596 43.9627 72.057 43.9269C71.1797 43.621 70.5131 43.0625 70.0623 42.2505C70.0162 42.1675 69.9674 42.1391 69.8741 42.1402C69.456 42.1454 69.038 42.1429 68.6197 42.1421C68.3891 42.1416 68.3119 42.0624 68.3116 41.8302C68.3116 41.7304 68.3108 41.6302 68.3116 41.5304C68.3136 41.3508 68.399 41.2619 68.5785 41.2613C69.0557 41.2594 69.533 41.2608 70.0099 41.2608C70.7961 41.2608 71.5825 41.2608 72.3686 41.2608C72.6076 41.2608 72.6832 41.338 72.6835 41.5795C72.6835 41.675 72.6846 41.7705 72.6835 41.8657C72.681 42.0513 72.5942 42.141 72.4073 42.1419C71.9939 42.144 71.5806 42.1424 71.156 42.1424C71.1879 42.248 71.2673 42.3116 71.335 42.376C72.1309 43.1315 73.0638 43.373 74.0947 42.9937C75.1335 42.6117 75.7183 41.827 75.8119 40.7191C75.8831 39.8757 75.5723 39.1641 74.9542 38.5864C74.8964 38.5324 74.8541 38.5111 74.7692 38.5515C74.4587 38.6986 74.143 38.6904 73.8412 38.5253C73.7599 38.4808 73.7285 38.4994 73.6802 38.5624C73.4011 38.9264 73.1149 39.285 72.8395 39.6517C72.7697 39.7445 72.7301 39.7559 72.6349 39.6806C72.0079 39.1851 71.3773 38.6937 70.7415 38.2093C70.6394 38.1316 70.6534 38.0909 70.721 38.0041C71.702 36.7476 72.6794 35.4883 73.6576 34.2299C73.8079 34.0364 73.9908 34.0086 74.1897 34.1486C74.2082 34.1617 74.226 34.1759 74.244 34.1898C74.2945 34.2285 74.3488 34.2632 74.3938 34.3074C74.4609 34.3734 74.5013 34.3677 74.5608 34.2894C74.8631 33.8915 75.1717 33.4989 75.4787 33.1049C75.5848 32.9687 75.6462 32.9613 75.7854 33.068C75.9799 33.2173 76.1734 33.3679 76.3666 33.5194C76.5131 33.6342 76.5186 33.6967 76.4012 33.8473C76.097 34.2378 75.7949 34.6299 75.4874 35.0179C75.4326 35.0872 75.4301 35.1254 75.5076 35.1743C75.584 35.2226 75.6536 35.2823 75.7229 35.341C75.9022 35.4927 75.9213 35.6815 75.7777 35.8663C75.5436 36.1675 75.3114 36.4701 75.0735 36.7683C75.0233 36.8314 75.0257 36.8655 75.0814 36.9233C75.2547 37.1031 75.3513 37.3212 75.3537 37.5725C75.3545 37.6549 75.3856 37.7018 75.4462 37.752C76.2591 38.4227 76.7 39.2861 76.7742 40.3371C76.774 40.4744 76.7734 40.6114 76.7732 40.7486C76.6847 42.2139 75.7147 43.4751 74.3234 43.937C74.2216 43.9709 74.074 43.9594 74.0276 44.0426C73.979 44.1299 74.02 44.2639 74.009 44.3761C73.9981 44.4874 74.0306 44.5201 74.1471 44.5188C74.7373 44.5122 75.3275 44.5149 75.9175 44.516C76.1472 44.5166 76.2771 44.6432 76.2785 44.8637C76.2793 44.9908 76.2697 45.1188 76.2806 45.2449C76.2973 45.4345 76.2263 45.5687 76.0604 45.6563L70.3074 45.6561Z" fill="#DDB94C"/>
<path d="M70.5326 38.5527C70.5894 38.5552 70.6363 38.5792 70.6805 38.6136C71.1528 38.9814 71.6262 39.3476 72.098 39.7162C72.2121 39.8055 72.2279 39.9097 72.1395 40.0237C71.9059 40.3244 71.8865 40.4265 71.5168 40.1258C71.1405 39.8196 70.752 39.5285 70.3692 39.2303C70.1007 39.021 70.0963 38.9866 70.302 38.7216C70.3271 38.6894 70.3506 38.6559 70.3776 38.6253C70.4213 38.5762 70.4745 38.5527 70.5326 38.5527Z" fill="#DDB94C"/>
</svg>
