<svg width="50" height="50" viewBox="0 0 50 50" fill="none" xmlns="http://www.w3.org/2000/svg">
<path d="M28.5707 16.7474L31.2647 15.1917C32.2979 16.3545 33.6735 17.2054 35.2541 17.5275V20.6055H38.1837V17.5275C39.7643 17.2053 41.1399 16.3545 42.1731 15.1917L44.8671 16.7474L46.332 14.2097L43.6368 12.6532C43.8797 11.9251 44.043 11.1604 44.043 10.3516C44.043 9.54277 43.8797 8.77803 43.6366 8.0499L46.3318 6.49346L44.8669 3.95576L42.1729 5.51143C41.1398 4.34863 39.7642 3.49785 38.1836 3.17559V0H35.254V3.17559C33.6734 3.49785 32.2978 4.34863 31.2646 5.51143L28.5706 3.95576L27.1057 6.49346L29.8009 8.0499C29.5579 8.77803 29.3946 9.54277 29.3946 10.3516C29.3946 11.1604 29.5579 11.9251 29.801 12.6532L27.1058 14.2097L28.5707 16.7474ZM35.254 8.88672H38.1836V11.8164H35.254V8.88672Z" fill="white"/>
<path d="M44.867 33.2526L42.173 34.8083C41.1398 33.6455 39.7642 32.7946 38.1836 32.4725V29.3945H35.254V32.4725C33.6734 32.7947 32.2978 33.6455 31.2646 34.8083L28.5706 33.2526L27.1057 35.7903L29.8009 37.3468C29.5579 38.0749 29.3946 38.8396 29.3946 39.6484C29.3946 40.4572 29.5579 41.222 29.801 41.9501L27.1058 43.5065L28.5707 46.0442L31.2647 44.4886C32.2979 45.6514 33.6735 46.5022 35.2541 46.8244V50H38.1837V46.8244C39.7643 46.5021 41.1399 45.6514 42.1731 44.4886L44.8671 46.0442L46.332 43.5065L43.6368 41.9501C43.8797 41.222 44.043 40.4572 44.043 39.6484C44.043 38.8396 43.8797 38.0749 43.6366 37.3468L46.3318 35.7903L44.867 33.2526ZM38.1836 41.1133H35.254V38.1836H38.1836V41.1133Z" fill="white"/>
<path d="M21.4295 18.6042L18.7355 20.1599C17.7023 18.9971 16.3267 18.1462 14.7461 17.824V14.7461H11.8165V17.824C10.2359 18.1463 8.8603 18.9971 7.8271 20.1599L5.13306 18.6042L3.66821 21.1419L6.36343 22.6983C6.12036 23.4265 5.95708 24.1912 5.95708 25C5.95708 25.8088 6.12036 26.5735 6.36353 27.3017L3.66831 28.8581L5.13315 31.3958L7.8272 29.8401C8.8604 31.0029 10.236 31.8538 11.8166 32.176V35.2539H14.7462V32.176C16.3268 31.8537 17.7024 31.0029 18.7356 29.8401L21.4296 31.3958L22.8945 28.8581L20.1993 27.3017C20.4422 26.5735 20.6055 25.8088 20.6055 25C20.6055 24.1912 20.4422 23.4265 20.1991 22.6983L22.8943 21.1419L21.4295 18.6042ZM14.7461 26.4648H11.8165V23.5352H14.7461V26.4648Z" fill="white"/>
<path d="M26.4648 10.3516C26.4648 9.85 26.543 9.36934 26.6129 8.88672H0V11.8164H26.6129C26.543 11.3338 26.4648 10.8531 26.4648 10.3516Z" fill="white"/>
<path d="M46.8247 8.88672C46.8946 9.36934 46.9728 9.85 46.9728 10.3516C46.9728 10.8531 46.8946 11.3338 46.8247 11.8164H50.0001V8.88672H46.8247Z" fill="white"/>
<path d="M0 38.1836V41.1133H26.6129C26.543 40.6307 26.4648 40.15 26.4648 39.6484C26.4648 39.1469 26.543 38.6662 26.6129 38.1836H0Z" fill="white"/>
<path d="M23.5353 25C23.5353 25.5016 23.4571 25.9822 23.3872 26.4648H50.0001V23.5352H23.3872C23.4571 24.0178 23.5353 24.4984 23.5353 25Z" fill="white"/>
<path d="M3.02734 25C3.02734 24.4984 3.10547 24.0178 3.17539 23.5352H0V26.4648H3.17539C3.10547 25.9822 3.02734 25.5016 3.02734 25Z" fill="white"/>
<path d="M46.9728 39.6484C46.9728 40.15 46.8946 40.6307 46.8247 41.1133H50.0001V38.1836H46.8247C46.8946 38.6662 46.9728 39.1469 46.9728 39.6484Z" fill="white"/>
</svg>
