<svg width="676" height="725" viewBox="0 0 676 725" fill="none" xmlns="http://www.w3.org/2000/svg">
<path d="M644.863 516.315C644.863 568.05 644.863 619.774 644.863 671.509C644.863 675.775 642.727 677.908 638.455 677.908C613.991 677.908 589.527 677.819 565.073 677.997C561.085 678.027 560.113 676.787 560.113 672.958C560.203 568.506 560.212 464.054 560.113 359.592C560.113 355.505 561.205 354.235 565.371 354.265C589.993 354.444 614.626 354.473 639.248 354.245C643.931 354.196 644.982 355.704 644.972 360.128C644.833 412.19 644.883 464.253 644.883 516.315H644.863Z" fill="#20539C"/>
<path d="M540.78 200.234C574.698 194.649 607.435 189.292 640.162 183.846C643.079 183.36 644.587 183.181 643.148 186.98C631.542 217.525 620.064 248.12 608.536 278.694C608.308 279.29 607.971 279.835 607.286 281.214C603.159 276.214 599.34 271.611 595.531 266.998C593.318 264.32 590.799 261.84 588.983 258.923C586.305 254.598 584.172 255.312 580.64 258.219C507.934 318.078 435.118 377.809 362.342 437.579C354.098 444.345 354.108 444.434 346.072 437.341C322.154 416.241 298.226 395.17 274.437 373.93C271.61 371.4 269.983 371.41 267.146 373.89C213.288 420.992 159.321 467.956 105.463 515.058C102.706 517.468 101.218 517.607 98.8366 514.681C93.4102 508.024 87.7853 501.506 81.9223 495.237C79.2637 492.39 79.4026 490.872 82.339 488.322C117.169 458.124 151.881 427.788 186.632 397.501C213.536 374.049 240.49 350.657 267.295 327.086C270.152 324.566 271.799 324.626 274.596 327.116C300.012 349.754 325.607 372.204 351.013 394.862C353.9 397.432 355.666 397.67 358.751 395.12C425.713 339.983 492.765 284.954 559.857 229.966C562.277 227.981 562.694 226.761 560.512 224.222C553.984 216.613 547.754 208.766 540.78 200.244V200.234Z" fill="#20539C"/>
<path d="M262.948 237.663C258.156 237.663 253.365 237.673 248.563 237.663C241.887 237.643 239.565 235.421 239.436 228.883C239.367 225.084 239.258 221.274 239.347 217.475C239.407 214.846 238.791 213.259 235.835 212.525C229.089 210.848 222.611 208.299 216.55 204.876C214.248 203.577 212.741 203.874 211.014 205.809C208.147 209.003 205.082 212.029 202.007 215.025C198.138 218.794 194.507 219.003 190.697 215.372C182.801 207.852 174.993 200.223 167.285 192.505C163.992 189.202 164.002 185.452 167.166 181.92C170.132 178.597 173.267 175.393 176.501 172.327C178.406 170.522 178.515 169.014 177.176 166.762C173.624 160.78 170.837 154.411 168.942 147.715C168.248 145.274 167.047 144.253 164.408 144.401C159.954 144.649 155.48 144.659 151.026 144.55C145.917 144.421 143.397 141.981 143.288 136.912C143.05 126.336 142.901 115.751 142.871 105.176C142.851 99.1545 145.302 96.7637 151.254 96.6149C155.222 96.5157 159.19 96.3867 163.158 96.5256C165.857 96.6248 167.404 95.8808 168.089 93.0138C169.726 86.2481 172.295 79.7899 175.678 73.6988C176.938 71.437 176.799 69.9588 174.825 68.193C171.492 65.2367 168.327 62.0622 165.252 58.8381C161.879 55.3064 161.779 51.3978 165.152 47.8562C172.573 40.0786 180.093 32.4102 187.682 24.8012C191.412 21.0612 195.142 21.0712 199.001 24.6326C202.155 27.5492 205.29 30.5055 208.237 33.6304C210.042 35.545 211.56 35.6541 213.812 34.3149C219.645 30.8328 225.855 28.075 232.403 26.2595C235.419 25.4262 236.232 23.7695 236.053 20.8827C235.815 16.9244 235.786 12.9464 235.855 8.98813C235.954 3.0359 238.424 0.516122 244.307 0.406998C254.555 0.20859 264.803 0.0498642 275.05 0.00026229C281.509 -0.0294989 283.929 2.47044 284.098 9.01789C284.217 13.7995 282.788 19.3946 284.802 23.1544C286.866 27.0333 293.314 26.4183 297.58 28.4519C299.365 29.3051 301.22 30.0194 303.016 30.8626C307.791 33.098 312.077 32.2514 315.873 28.323C323.333 20.6115 330.869 20.4594 338.481 27.8666C344.166 33.4022 349.88 38.908 355.485 44.523C359.731 48.7788 359.711 52.122 355.604 56.5266C352.112 60.2666 346.517 63.5503 345.664 67.8061C344.89 71.6949 349.255 76.5857 351.299 81.0597C352.053 82.7065 352.687 84.4228 353.293 86.1291C354.979 90.8512 358.408 93.1659 363.58 93.0733C380.107 92.7757 380.236 92.8948 380.365 109.303C380.425 117.071 380.534 124.838 380.514 132.606C380.494 138.489 377.965 141.038 372.131 141.237C367.032 141.405 360.753 139.788 357.162 142.189C353.858 144.401 353.441 150.929 351.725 155.542C351.209 156.931 350.574 158.28 349.949 159.629C347.595 164.722 348.485 169.298 352.618 173.359C360.012 180.634 360.045 188.038 352.717 195.571C347.301 201.136 341.924 206.751 336.458 212.267C331.825 216.939 328.511 216.91 323.71 212.386C320.109 208.993 316.895 203.636 312.768 202.793C309.038 202.029 304.296 206.205 300 208.199C299.554 208.408 299.068 208.547 298.631 208.785C295.07 210.749 289.465 210.104 287.818 213.765C286.27 217.197 287.421 221.87 287.441 225.997C287.491 235.58 285.784 237.375 276.36 237.445C271.896 237.474 267.432 237.445 262.967 237.445C262.967 237.514 262.967 237.574 262.967 237.643L262.948 237.663ZM261.539 187.238C299.474 187.337 330.039 156.911 330.059 119.045C330.079 81.1292 299.742 50.5546 261.886 50.3561C224.357 50.1577 193.227 81.1391 193.207 118.698C193.187 156.534 223.703 187.148 261.549 187.248L261.539 187.238Z" fill="#20539C"/>
<path d="M524.116 542.683C524.116 585.986 524.047 629.278 524.225 672.581C524.245 677.035 522.995 678.047 518.709 678.007C493.918 677.799 469.127 677.838 444.336 677.987C440.696 678.007 439.555 677.084 439.555 673.325C439.664 586.065 439.664 498.805 439.575 411.545C439.575 407.845 440.656 406.754 444.346 406.774C469.306 406.913 494.256 406.923 519.215 406.774C523.114 406.754 524.215 407.905 524.205 411.803C524.076 455.433 524.126 499.063 524.126 542.693L524.116 542.683Z" fill="#20539C"/>
<path d="M403.283 582.823C403.283 612.733 403.184 642.643 403.383 672.553C403.412 676.957 402.222 678.049 397.877 678.019C373.096 677.801 348.305 677.85 323.514 677.999C319.883 678.019 318.762 677.136 318.762 673.356C318.881 612.872 318.871 552.397 318.772 491.912C318.772 488.46 319.714 487.428 323.206 487.448C348.324 487.587 373.443 487.627 398.561 487.418C402.777 487.389 403.353 489.016 403.333 492.597C403.224 522.675 403.274 552.744 403.274 582.823H403.283Z" fill="#20539C"/>
<path d="M369.824 698.564C465.516 698.564 561.218 698.564 656.91 698.564C659.062 698.564 661.215 698.495 663.348 698.663C670.143 699.219 675.282 704.734 675.421 711.48C675.56 718.276 670.739 723.911 663.913 724.784C662.286 724.992 660.62 724.982 658.963 724.982C467.569 724.982 276.175 724.992 84.781 724.982C81.6462 724.982 78.4816 725.101 75.3765 724.734C68.6306 723.921 63.7796 718.028 64.0077 711.302C64.2359 704.764 69.2358 699.338 75.7733 698.693C77.9062 698.485 80.0688 698.554 82.2116 698.554C178.072 698.554 273.933 698.554 369.794 698.554L369.824 698.564Z" fill="#20539C"/>
<path d="M198.024 604.558C198.024 581.771 198.123 558.984 197.935 536.196C197.905 532.109 199.006 530.869 203.173 530.899C227.944 531.078 252.715 531.087 277.486 530.899C281.772 530.869 282.655 532.318 282.645 536.286C282.526 581.701 282.506 627.107 282.665 672.522C282.675 676.848 281.554 678.078 277.149 678.038C252.547 677.82 227.934 677.8 203.332 678.038C198.788 678.078 197.895 676.649 197.935 672.443C198.133 649.825 198.024 627.196 198.024 604.578V604.558Z" fill="#20539C"/>
<path d="M82.4888 147.129C85.961 147.129 89.4232 147.149 92.8953 147.129C96.7543 147.09 99.294 149.044 98.6491 152.814C97.1115 161.742 101.228 165.393 109.413 167.685C117.518 169.956 117.299 170.73 123.222 164.728C128.252 159.629 129.74 159.609 135.017 164.708C139.412 168.954 143.797 173.22 148.122 177.535C151.892 181.295 152.318 183.855 148.33 187.079C142.269 191.98 141.952 196.245 145.275 203.537C148.489 210.58 151.703 213.338 159.253 212.356C164.461 211.672 166.048 213.725 166.138 218.953C166.257 225.729 166.177 232.504 166.346 239.27C166.455 243.556 164.62 246.383 160.324 245.748C151.932 244.508 148.668 248.278 145.791 255.907C143.291 262.533 143.43 266.343 148.995 270.747C154.045 274.755 153.687 277.027 149.114 281.739C144.739 286.243 140.354 290.737 135.92 295.171C132.031 299.06 129.66 299.477 126.416 295.4C121.655 289.418 117.448 289.18 110.286 292.185C102.885 295.3 99.9884 298.743 101.228 306.491C101.923 310.846 99.4924 313.207 94.8298 313.197C88.0542 313.177 81.2884 313.494 74.5128 313.514C69.3046 313.534 67.2114 311.957 67.7769 306.739C68.6201 299.011 65.3761 296.144 58.4021 293.128C50.8527 289.854 46.4877 290.836 41.9442 296.957C39.226 300.628 35.8729 300.32 32.6686 297.126C27.758 292.225 22.7879 287.384 17.798 282.563C14.673 279.547 14.3655 276.164 17.798 273.664C24.4446 268.833 24.8613 263.992 20.8237 256.839C16.3 248.823 17.0143 248.417 7.89743 248.387C1.68726 248.357 0.457136 247.137 0.318251 240.818C0.189286 234.538 0.0504001 228.268 0.000798172 221.989C-0.0388834 216.304 1.38965 214.836 6.83594 214.677C16.3794 214.39 15.7345 214.072 20.1193 205.422C23.6014 198.547 23.2839 194.023 16.925 189.321C12.6195 186.136 12.9767 183.289 16.7563 179.361C21.3296 174.589 26.0716 169.986 30.6151 165.185C33.7202 161.911 37.1229 161.246 39.8411 164.937C44.6822 171.504 49.2952 171.365 56.6859 168.121C63.7194 165.036 66.1103 161.782 65.2273 154.5C64.5726 149.084 66.6757 147.417 72.1022 147.318C75.5743 147.258 79.0365 147.308 82.5087 147.308C82.5087 147.258 82.5087 147.209 82.5087 147.159L82.4888 147.129ZM83.1436 278.178C109.542 278.178 131.208 256.601 131.178 230.332C131.148 203.963 109.651 182.426 83.2527 182.307C57.0033 182.188 35.2678 203.884 35.2678 230.203C35.2678 256.611 56.7851 278.168 83.1436 278.168V278.178Z" fill="#20539C"/>
<path d="M162.012 629.785C162.012 644.328 161.923 658.862 162.081 673.405C162.121 676.748 161.288 677.998 157.697 677.978C132.42 677.84 107.132 677.84 81.8553 677.978C78.3336 677.998 77.3911 676.818 77.401 673.445C77.5003 644.696 77.53 615.946 77.3713 587.197C77.3514 583.13 78.8395 582.247 82.5596 582.267C107.341 582.395 132.132 582.425 156.913 582.237C161.169 582.207 162.151 583.665 162.091 587.653C161.873 601.691 162.012 615.738 162.012 629.785Z" fill="#20539C"/>
<path d="M261.541 187.236C223.694 187.137 193.189 156.533 193.199 118.686C193.219 81.1277 224.349 50.1463 261.878 50.3447C299.734 50.5431 330.071 81.1177 330.051 119.033C330.031 156.91 299.466 187.325 261.531 187.226L261.541 187.236Z" fill="#FDFDFD"/>
<path d="M83.1453 278.178C56.7869 278.178 35.2596 256.611 35.2695 230.213C35.2695 203.894 57.0051 182.198 83.2545 182.317C109.653 182.436 131.15 203.973 131.18 230.341C131.21 256.611 109.543 278.188 83.1453 278.188V278.178Z" fill="#FDFDFD"/>
</svg>
