<svg width="79" height="84" viewBox="0 0 79 84" fill="none" xmlns="http://www.w3.org/2000/svg">
<path d="M74.7145 59.8207C74.7145 65.8148 74.7145 71.8076 74.7145 77.8016C74.7145 78.2959 74.467 78.543 73.972 78.543C71.1376 78.543 68.3032 78.5327 65.4699 78.5533C65.0079 78.5568 64.8953 78.4131 64.8953 77.9695C64.9057 65.8676 64.9067 53.7657 64.8953 41.6626C64.8953 41.1891 65.0218 41.0419 65.5045 41.0454C68.3572 41.0662 71.2112 41.0695 74.0639 41.0431C74.6065 41.0374 74.7283 41.2121 74.7271 41.7247C74.711 47.7567 74.7168 53.7887 74.7168 59.8207H74.7145Z" fill="#1164E9"/>
<path d="M62.6554 23.1979C66.5851 22.5508 70.3781 21.9302 74.1698 21.2992C74.5078 21.2429 74.6825 21.2221 74.5158 21.6623C73.1711 25.2013 71.8413 28.746 70.5056 32.2884C70.4792 32.3574 70.4402 32.4206 70.3608 32.5803C69.8826 32.001 69.4402 31.4677 68.9989 30.9332C68.7425 30.623 68.4506 30.3356 68.2402 29.9977C67.9299 29.4966 67.6828 29.5793 67.2736 29.9161C58.8498 36.8514 50.4132 43.7719 41.9813 50.6969C41.0262 51.4808 41.0273 51.4912 40.0963 50.6694C37.3251 48.2247 34.5528 45.7834 31.7966 43.3225C31.469 43.0294 31.2805 43.0305 30.9518 43.3179C24.7118 48.7751 18.4591 54.2164 12.2191 59.6737C11.8997 59.9529 11.7273 59.9691 11.4514 59.63C10.8226 58.8588 10.1709 58.1036 9.49165 57.3772C9.18362 57.0474 9.19971 56.8715 9.53992 56.5761C13.5754 53.0773 17.5971 49.5625 21.6234 46.0535C24.7405 43.3363 27.8635 40.6261 30.9691 37.8951C31.3001 37.6031 31.4909 37.6101 31.815 37.8986C34.7597 40.5214 37.7252 43.1225 40.6688 45.7477C41.0033 46.0455 41.2079 46.073 41.5653 45.7776C49.3236 39.3894 57.0923 33.0136 64.8656 26.6427C65.146 26.4127 65.1943 26.2713 64.9415 25.9772C64.1852 25.0956 63.4634 24.1864 62.6554 23.1991V23.1979Z" fill="#1164E9"/>
<path d="M30.4654 27.5359C29.9101 27.5359 29.3551 27.537 28.7987 27.5359C28.0252 27.5336 27.7562 27.2761 27.7412 26.5186C27.7332 26.0785 27.7206 25.637 27.7309 25.1969C27.7379 24.8923 27.6665 24.7084 27.324 24.6234C26.5424 24.4291 25.7919 24.1337 25.0896 23.7371C24.8229 23.5866 24.6483 23.621 24.4482 23.8452C24.1161 24.2153 23.7609 24.5659 23.4047 24.913C22.9564 25.3497 22.5357 25.3739 22.0943 24.9532C21.1794 24.0819 20.2748 23.198 19.3817 22.3038C19.0002 21.9211 19.0014 21.4867 19.368 21.0774C19.7116 20.6924 20.0748 20.3212 20.4495 19.966C20.6702 19.7568 20.6829 19.5821 20.5277 19.3212C20.1162 18.6281 19.7933 17.8902 19.5737 17.1144C19.4933 16.8316 19.3542 16.7133 19.0484 16.7304C18.5324 16.7592 18.014 16.7603 17.498 16.7477C16.906 16.7328 16.6141 16.4501 16.6014 15.8628C16.5739 14.6374 16.5566 13.411 16.5531 12.1858C16.5508 11.4881 16.8348 11.2111 17.5244 11.1939C17.9841 11.1824 18.4439 11.1675 18.9036 11.1836C19.2163 11.195 19.3955 11.1088 19.4749 10.7767C19.6646 9.99279 19.9622 9.24454 20.3542 8.53882C20.5001 8.27676 20.484 8.1055 20.2553 7.90091C19.8692 7.55839 19.5025 7.19059 19.1462 6.81704C18.7554 6.40785 18.7438 5.955 19.1346 5.54467C19.9944 4.64355 20.8657 3.75508 21.745 2.87349C22.1771 2.44017 22.6093 2.44133 23.0564 2.85396C23.4218 3.19188 23.785 3.5344 24.1265 3.89645C24.3356 4.11828 24.5115 4.13092 24.7724 3.97576C25.4482 3.57232 26.1677 3.2528 26.9264 3.04245C27.2758 2.9459 27.37 2.75396 27.3493 2.41949C27.3217 1.96088 27.3183 1.49998 27.3263 1.04137C27.3378 0.351742 27.624 0.0597984 28.3056 0.0471552C29.4929 0.0241674 30.6803 0.00577732 31.8675 3.03893e-05C32.6158 -0.00341777 32.8962 0.286228 32.9158 1.04482C32.9296 1.59882 32.764 2.24708 32.9974 2.68269C33.2365 3.1321 33.9836 3.06085 34.4778 3.29647C34.6847 3.39532 34.8996 3.47808 35.1077 3.57577C35.6609 3.83477 36.1575 3.73668 36.5973 3.28153C37.4616 2.38807 38.3347 2.37045 39.2167 3.22865C39.8753 3.87001 40.5374 4.50792 41.1868 5.15848C41.6787 5.65156 41.6764 6.03891 41.2006 6.54923C40.796 6.98255 40.1477 7.363 40.0489 7.85608C39.9592 8.30664 40.465 8.87329 40.7018 9.39166C40.7891 9.58246 40.8626 9.78131 40.9328 9.979C41.1282 10.5261 41.5254 10.7943 42.1247 10.7836C44.0395 10.7491 44.0545 10.7629 44.0694 12.664C44.0764 13.564 44.089 14.4639 44.0867 15.3639C44.0843 16.0455 43.7913 16.3408 43.1154 16.3639C42.5246 16.3833 41.7971 16.196 41.3811 16.4742C40.9983 16.7304 40.95 17.4868 40.7511 18.0212C40.6914 18.1822 40.6178 18.3385 40.5454 18.4948C40.2726 19.0849 40.3758 19.615 40.8546 20.0855C41.7113 20.9284 41.7151 21.7863 40.8661 22.659C40.2386 23.3038 39.6156 23.9544 38.9823 24.5935C38.4455 25.1348 38.0615 25.1314 37.5053 24.6073C37.0881 24.2141 36.7157 23.5935 36.2375 23.4958C35.8054 23.4073 35.256 23.8911 34.7582 24.1221C34.7066 24.1464 34.6503 24.1625 34.5996 24.19C34.187 24.4176 33.5376 24.3429 33.3468 24.767C33.1675 25.1647 33.3008 25.7061 33.3031 26.1842C33.3089 27.2945 33.1112 27.5025 32.0193 27.5106C31.5021 27.514 30.9849 27.5106 30.4676 27.5106C30.4676 27.5186 30.4676 27.5256 30.4676 27.5336L30.4654 27.5359ZM30.3021 21.6936C34.6973 21.705 38.2386 18.1799 38.2409 13.7927C38.2432 9.39971 34.7283 5.85731 30.3423 5.83431C25.9942 5.81132 22.3874 9.40086 22.3851 13.7525C22.3828 18.1362 25.9184 21.6832 30.3033 21.6947L30.3021 21.6936Z" fill="#1164E9"/>
<path d="M60.7246 62.8755C60.7246 67.8926 60.7166 72.9085 60.7372 77.9256C60.7395 78.4416 60.5947 78.5589 60.0981 78.5543C57.2258 78.5302 54.3535 78.5347 51.4812 78.5519C51.0594 78.5543 50.9272 78.4473 50.9272 78.0118C50.9399 67.9018 50.9399 57.7917 50.9296 47.6817C50.9296 47.253 51.0548 47.1266 51.4823 47.1289C54.3742 47.145 57.265 47.1462 60.1567 47.1289C60.6085 47.1266 60.736 47.26 60.7349 47.7116C60.7199 52.7666 60.7257 57.8216 60.7257 62.8766L60.7246 62.8755Z" fill="#1164E9"/>
<path d="M46.7248 67.5264C46.7248 70.9918 46.7133 74.4572 46.7364 77.9226C46.7398 78.4329 46.6019 78.5594 46.0985 78.5559C43.2273 78.5307 40.355 78.5363 37.4827 78.5536C37.062 78.5559 36.9321 78.4536 36.9321 78.0157C36.9459 71.0079 36.9448 64.0012 36.9333 56.9934C36.9333 56.5934 37.0424 56.4739 37.447 56.4762C40.3572 56.4923 43.2675 56.4969 46.1777 56.4727C46.6662 56.4693 46.7329 56.6578 46.7306 57.0727C46.718 60.5576 46.7238 64.0414 46.7238 67.5264H46.7248Z" fill="#1164E9"/>
<path d="M42.8481 80.936C53.9351 80.936 65.0232 80.936 76.1102 80.936C76.3595 80.936 76.609 80.928 76.8561 80.9475C77.6434 81.0119 78.2388 81.6509 78.2549 82.4325C78.271 83.2199 77.7124 83.8728 76.9216 83.9739C76.733 83.998 76.54 83.9968 76.348 83.9968C54.1729 83.9968 31.9978 83.998 9.82275 83.9968C9.45955 83.9968 9.09289 84.0106 8.73313 83.9681C7.95155 83.8739 7.38951 83.1911 7.41593 82.4119C7.44237 81.6544 8.02167 81.0257 8.77911 80.951C9.02623 80.9269 9.27679 80.9349 9.52506 80.9349C20.6315 80.9349 31.7381 80.9349 42.8446 80.9349L42.8481 80.936Z" fill="#1164E9"/>
<path d="M22.9432 70.044C22.9432 67.4039 22.9547 64.7638 22.9329 62.1235C22.9294 61.65 23.057 61.5064 23.5398 61.5098C26.4098 61.5306 29.2797 61.5316 32.1497 61.5098C32.6463 61.5064 32.7486 61.6742 32.7475 62.134C32.7337 67.3958 32.7314 72.6566 32.7498 77.9184C32.7509 78.4196 32.6211 78.5621 32.1107 78.5575C29.2603 78.5322 26.4086 78.5299 23.5582 78.5575C23.0317 78.5621 22.9283 78.3966 22.9329 77.9093C22.9558 75.2887 22.9432 72.6669 22.9432 70.0463V70.044Z" fill="#1164E9"/>
<path d="M9.55723 17.0469C9.95953 17.0469 10.3607 17.0493 10.7629 17.0469C11.21 17.0424 11.5043 17.2688 11.4296 17.7056C11.2514 18.74 11.7284 19.163 12.6767 19.4286C13.6158 19.6917 13.5904 19.7814 14.2766 19.086C14.8594 18.4952 15.0318 18.4929 15.6432 19.0837C16.1524 19.5756 16.6605 20.0699 17.1616 20.5698C17.5984 21.0054 17.6477 21.3021 17.1857 21.6756C16.4834 22.2434 16.4467 22.7376 16.8317 23.5824C17.2041 24.3984 17.5765 24.718 18.4512 24.6042C19.0546 24.525 19.2385 24.7628 19.2489 25.3685C19.2627 26.1536 19.2534 26.9386 19.273 27.7225C19.2856 28.2191 19.073 28.5466 18.5753 28.473C17.603 28.3294 17.2248 28.7662 16.8915 29.6501C16.6018 30.4178 16.6179 30.8592 17.2627 31.3694C17.8478 31.8338 17.8063 32.0971 17.2765 32.643C16.7696 33.1648 16.2616 33.6855 15.7478 34.1992C15.2972 34.6498 15.0225 34.6981 14.6467 34.2258C14.0951 33.5327 13.6076 33.5051 12.7778 33.8533C11.9204 34.2142 11.5848 34.6131 11.7284 35.5108C11.8089 36.0154 11.5273 36.2889 10.9871 36.2877C10.202 36.2854 9.41815 36.3222 8.63313 36.3245C8.0297 36.3268 7.78718 36.1441 7.8527 35.5395C7.95039 34.6441 7.57454 34.312 6.76652 33.9625C5.89184 33.5832 5.38611 33.697 4.8597 34.4062C4.54476 34.8315 4.15627 34.7958 3.78502 34.4257C3.21607 33.8579 2.64023 33.297 2.06209 32.7385C1.70003 32.389 1.6644 31.9971 2.06209 31.7074C2.83218 31.1477 2.88045 30.5868 2.41265 29.758C1.88853 28.8293 1.97129 28.7823 0.915004 28.7788C0.195488 28.7753 0.0529642 28.634 0.0368729 27.9018C0.0219309 27.1742 0.00583941 26.4478 9.24773e-05 25.7203C-0.00450507 25.0616 0.161006 24.8915 0.792019 24.8731C1.89773 24.8399 1.82301 24.803 2.33104 23.8008C2.73448 23.0043 2.6977 22.4801 1.96095 21.9353C1.46211 21.5663 1.50349 21.2365 1.9414 20.7814C2.47127 20.2285 3.02068 19.6952 3.5471 19.1389C3.90686 18.7596 4.3011 18.6826 4.61603 19.1102C5.17692 19.8711 5.71139 19.8549 6.56768 19.4791C7.38259 19.1217 7.6596 18.7447 7.5573 17.901C7.48145 17.2734 7.72511 17.0803 8.35383 17.0688C8.75611 17.0619 9.15725 17.0677 9.55954 17.0677C9.55954 17.0619 9.55954 17.0562 9.55954 17.0504L9.55723 17.0469ZM9.6331 32.2304C12.6916 32.2304 15.2019 29.7305 15.1984 26.6869C15.1949 23.6318 12.7043 21.1365 9.64574 21.1227C6.60446 21.1089 4.08616 23.6226 4.08616 26.672C4.08616 29.7316 6.57918 32.2293 9.6331 32.2293V32.2304Z" fill="#1164E9"/>
<path d="M18.7709 72.968C18.7709 74.653 18.7606 76.3369 18.7789 78.0219C18.7836 78.4092 18.687 78.554 18.271 78.5517C15.3424 78.5357 12.4125 78.5357 9.4839 78.5517C9.07587 78.554 8.96667 78.4173 8.96782 78.0265C8.97932 74.6956 8.98277 71.3646 8.96438 68.0337C8.96207 67.5625 9.13449 67.4602 9.5655 67.4625C12.4367 67.4773 15.309 67.4808 18.1802 67.459C18.6733 67.4556 18.787 67.6245 18.7801 68.0865C18.7548 69.713 18.7709 71.3405 18.7709 72.968Z" fill="#1164E9"/>
<path d="M30.3024 21.6925C25.9175 21.681 22.3831 18.1352 22.3843 13.7502C22.3866 9.39869 25.9933 5.80915 30.3415 5.83214C34.7275 5.85513 38.2424 9.39753 38.2401 13.7904C38.2378 18.1789 34.6965 21.7028 30.3013 21.6913L30.3024 21.6925Z" fill="#FDFDFD"/>
<path d="M9.63324 32.2316C6.57933 32.2316 4.08516 29.7328 4.0863 26.6743C4.0863 23.625 6.60461 21.1113 9.64589 21.1251C12.7044 21.1388 15.1951 23.6341 15.1986 26.6892C15.2021 29.7328 12.6917 32.2328 9.63324 32.2328V32.2316Z" fill="#FDFDFD"/>
</svg>
