<svg width="187" height="185" viewBox="0 0 187 185" fill="none" xmlns="http://www.w3.org/2000/svg">
<g filter="url(#filter0_d_163_483)">
<ellipse cx="93.7784" cy="87.6028" rx="58.7784" ry="57.6028" fill="white"/>
<path d="M93.7783 26.9756C127.853 26.9756 155.581 54.062 155.581 87.6025C155.581 121.143 127.853 148.229 93.7783 148.229C59.7036 148.229 31.9756 121.143 31.9756 87.6025C31.9757 54.062 59.7037 26.9756 93.7783 26.9756Z" stroke="#379D05" stroke-width="6.04847"/>
</g>
<path d="M113.71 58.564C113.744 58.564 113.77 58.5753 113.777 58.5786C113.789 58.5837 113.799 58.5889 113.806 58.5933C113.82 58.6021 113.834 58.6131 113.848 58.6235C113.875 58.6449 113.908 58.6742 113.943 58.7065C114.016 58.7719 114.106 58.8583 114.193 58.9458C114.281 59.0333 114.367 59.1236 114.433 59.1958C114.465 59.2315 114.494 59.2644 114.516 59.2915C114.526 59.3047 114.537 59.3194 114.546 59.3335C114.55 59.3404 114.556 59.3504 114.562 59.3618C114.565 59.3695 114.576 59.3956 114.576 59.4292V67.0903C114.576 67.3594 114.371 67.5419 114.14 67.6606C113.902 67.7826 113.586 67.8654 113.262 67.9185C112.71 68.0087 112.093 68.0191 111.706 67.978V77.2397H128.475V110.79C128.527 110.789 128.597 110.789 128.684 110.786C128.904 110.778 129.213 110.768 129.541 110.812C130.198 110.9 130.962 111.203 131.247 112.159L131.312 112.412C131.456 113.08 131.561 114.26 131.47 115.332C131.417 115.944 131.299 116.537 131.077 116.982C130.854 117.429 130.51 117.753 130.007 117.759H130.004L63.1357 117.548H63.0898L63.0518 117.522C62.9381 117.442 62.8545 117.308 62.79 117.16C62.7241 117.008 62.6704 116.822 62.627 116.616C62.54 116.204 62.4889 115.693 62.4639 115.173C62.4139 114.137 62.4663 113.035 62.5557 112.566L62.6055 112.349C62.7346 111.864 62.9592 111.519 63.2363 111.277C63.5514 111.002 63.9232 110.871 64.2705 110.811C64.6173 110.752 64.9476 110.763 65.1836 110.775C65.2802 110.78 65.3555 110.783 65.4131 110.785V77.2397H82.1826V67.9233C82.1109 67.9206 82.0093 67.9215 81.8828 67.9243C81.6156 67.9302 81.2508 67.9414 80.8857 67.9253C80.523 67.9093 80.1432 67.8659 79.8506 67.7534C79.558 67.6409 79.3076 67.4379 79.3076 67.0903V59.4292C79.3076 59.3955 79.3189 59.3694 79.3223 59.3618C79.3274 59.3504 79.3335 59.3404 79.3379 59.3335C79.3468 59.3194 79.3578 59.3047 79.3682 59.2915C79.3895 59.2645 79.418 59.2314 79.4502 59.1958C79.5156 59.1236 79.6029 59.0333 79.6904 58.9458C79.7779 58.8583 79.8682 58.7719 79.9404 58.7065C79.9762 58.6741 80.009 58.6449 80.0361 58.6235C80.0494 58.6131 80.064 58.6022 80.0781 58.5933C80.0851 58.5889 80.0951 58.5837 80.1064 58.5786C80.114 58.5752 80.1393 58.564 80.1729 58.564H113.71ZM72.8389 112.482C70.7434 112.435 68.7059 112.42 67.1523 112.481C66.3752 112.511 65.7229 112.561 65.2471 112.633C65.0086 112.67 64.8192 112.712 64.6826 112.758C64.6144 112.781 64.5628 112.804 64.5264 112.826L64.4727 112.869C64.3682 113.033 64.2866 113.298 64.2422 113.621C64.1983 113.94 64.1928 114.302 64.2285 114.649C64.2643 114.997 64.341 115.322 64.458 115.574C64.5728 115.82 64.7157 115.972 64.875 116.029H129.047C129.095 116.029 129.156 116.004 129.229 115.926C129.301 115.849 129.372 115.73 129.437 115.575C129.565 115.265 129.654 114.842 129.677 114.405C129.7 113.967 129.657 113.531 129.534 113.193C129.413 112.859 129.227 112.649 128.976 112.591C113.541 112.3 98.0865 112.711 82.6553 112.788C81.4459 112.795 77.021 112.575 72.8389 112.482ZM90.626 110.668C90.626 110.751 90.6655 110.828 90.7705 110.904C90.8795 110.983 91.0469 111.05 91.2686 111.105C91.711 111.214 92.3206 111.259 92.9736 111.272C93.6242 111.284 94.3072 111.265 94.8945 111.248C95.3739 111.234 95.7977 111.222 96.0811 111.232V96.689H90.626V110.668ZM97.8125 111.232C98.0958 111.222 98.519 111.234 98.998 111.248C99.5854 111.265 100.269 111.284 100.92 111.272C101.573 111.259 102.182 111.214 102.624 111.105C102.846 111.05 103.014 110.983 103.123 110.904C103.228 110.828 103.268 110.751 103.268 110.668V96.689H97.8125V111.232ZM111.706 111.24H126.743V78.9702H111.706V111.24ZM67.1494 111.24H82.1865V78.9702H67.1494V111.24ZM83.918 110.761H88.8945V94.9575H104.999V110.761H109.975V67.9556H83.918V110.761ZM86.3154 60.0542C84.9915 60.0666 83.8619 60.104 83.0107 60.1753C82.5849 60.2109 82.2313 60.2552 81.96 60.3081C81.7516 60.3488 81.6036 60.393 81.5088 60.436L81.4316 60.478H81.4307C81.3441 60.5383 81.266 60.6455 81.2002 60.8071C81.1347 60.9679 81.0858 61.1723 81.0518 61.4116C80.9838 61.8903 80.9777 62.4876 80.9941 63.1138C81.0106 63.7417 81.0493 64.3824 81.0713 64.9624C81.0897 65.4468 81.0934 65.8898 81.0605 66.2251H112.827C112.789 65.8755 112.802 65.4075 112.827 64.8989C112.858 64.2915 112.906 63.6158 112.917 62.9644C112.928 62.312 112.899 61.6998 112.781 61.2251C112.665 60.7591 112.473 60.4685 112.189 60.3638C111.12 60.5051 108.79 60.5114 105.88 60.4585C102.926 60.4048 99.3572 60.2914 95.8672 60.1978C92.376 60.1041 88.9629 60.0295 86.3154 60.0542Z" fill="black" fill-opacity="0.98" stroke="black" stroke-width="0.293892"/>
<path d="M94.4326 70.0842C95.2337 69.9183 96.6075 69.826 97.8916 69.9417C98.6265 70.0078 99.344 70.1432 99.9141 70.3782C100.48 70.6115 100.932 70.9569 101.079 71.4612L101.155 71.7747C101.213 72.0747 101.218 72.3379 101.186 72.5764C101.142 72.8942 101.032 73.1602 100.903 73.4016C100.839 73.5216 100.77 73.6367 100.702 73.7483C100.634 73.8611 100.566 73.9702 100.504 74.0823C100.411 74.2493 100.33 74.4196 100.275 74.6067L100.229 74.8C99.7732 77.2638 100.68 80.1237 101.676 82.8625C102.171 84.2246 102.688 85.5578 103.058 86.7786C103.38 87.8454 103.595 88.8426 103.581 89.7161L103.561 90.0833C103.46 91.1058 102.597 91.8379 101.427 92.3147C100.249 92.7944 98.7147 93.0367 97.1729 93.0569C95.6305 93.077 94.0667 92.8754 92.8291 92.4553C91.6033 92.0392 90.6464 91.3911 90.4082 90.4846L90.4092 90.4836C90.3132 90.1194 90.312 89.6727 90.375 89.1702C90.4383 88.6657 90.567 88.0943 90.7373 87.4758C91.0777 86.2398 91.5905 84.7969 92.0947 83.303C92.6 81.8057 93.0979 80.253 93.417 78.7844C93.7165 77.4059 93.8554 76.1133 93.6992 75.0168L93.6641 74.8C93.6165 74.5441 93.4571 74.1952 93.2695 73.7766C93.0865 73.3682 92.8835 72.9057 92.7715 72.4504C92.6596 71.9958 92.6328 71.5252 92.8281 71.1116C93.0259 70.693 93.4356 70.3634 94.126 70.1594L94.4326 70.0842ZM96.9453 82.9211C96.2996 82.9211 95.6556 82.9586 95.125 83.0334C94.8597 83.0709 94.6249 83.1176 94.4336 83.1721C94.2445 83.2261 94.1091 83.2854 94.0273 83.344C94.0266 83.345 94.0263 83.3465 94.0254 83.3479C94.0177 83.3598 94.0073 83.3788 93.9941 83.4055C93.9679 83.459 93.9349 83.535 93.8975 83.6321C93.8228 83.8255 93.7315 84.0934 93.6299 84.4124C93.4267 85.0501 93.185 85.886 92.9609 86.7297C92.7368 87.5738 92.5312 88.4235 92.3975 89.0881C92.3305 89.4208 92.2822 89.7041 92.2588 89.9163C92.2471 90.0227 92.242 90.1078 92.2432 90.1702C92.2438 90.2009 92.2454 90.2233 92.248 90.2385C92.251 90.2557 92.2531 90.2548 92.248 90.2463L92.3281 90.3499C92.4256 90.453 92.5761 90.5538 92.7822 90.6487C93.0533 90.7734 93.403 90.8798 93.8105 90.9661C94.6254 91.1386 95.6514 91.2285 96.6924 91.2395C97.733 91.2505 98.7833 91.1829 99.6445 91.0442C100.075 90.9748 100.455 90.8877 100.763 90.7854C101.074 90.6819 101.295 90.5673 101.422 90.4495L101.448 90.4124C101.458 90.3937 101.469 90.3681 101.479 90.3333C101.498 90.2656 101.511 90.1753 101.517 90.0627C101.528 89.8378 101.508 89.5428 101.464 89.1975C101.375 88.5077 101.19 87.6398 100.973 86.7805C100.756 85.9222 100.507 85.0767 100.294 84.4319C100.187 84.1092 100.09 83.8379 100.01 83.6418C99.9699 83.5439 99.9355 83.4669 99.9072 83.4124C99.8931 83.3852 99.8816 83.3655 99.873 83.3528C99.8707 83.3494 99.8685 83.3467 99.8672 83.345C99.7848 83.286 99.6482 83.2263 99.458 83.1721C99.2663 83.1176 99.0312 83.0709 98.7656 83.0334C98.2345 82.9586 97.5909 82.9212 96.9453 82.9211ZM94.9561 81.4905C95.6784 81.2575 96.3118 81.1379 96.9492 81.1379C97.5863 81.1379 98.2196 81.2568 98.9414 81.4895L98.4902 74.6624H95.4082L94.9561 81.4905ZM94.459 72.927H99.4395V71.7883H94.459V72.927Z" fill="black" stroke="black" stroke-width="0.293892"/>
<path d="M78.2627 81.5503C78.3776 81.5504 78.476 81.602 78.5547 81.6763C78.6317 81.7491 78.6959 81.8484 78.751 81.9614C78.8614 82.1883 78.9497 82.5028 79.0186 82.8667C79.1568 83.5971 79.2246 84.5648 79.2246 85.5278C79.2246 86.4909 79.1568 87.4585 79.0186 88.189C78.9497 88.5528 78.8614 88.8674 78.751 89.0942C78.6959 89.2072 78.6317 89.3066 78.5547 89.3794C78.476 89.4537 78.3776 89.5052 78.2627 89.5054H70.2471L70.2158 89.3999C69.4845 86.902 69.4846 84.163 70.2158 81.6558L70.2471 81.5503H78.2627ZM73.6914 83.1587C73.0838 83.1557 72.5634 83.2314 72.1758 83.4702C71.8452 83.674 71.5943 84.0073 71.4785 84.5581L71.4375 84.8081C71.2926 85.9844 71.4074 86.71 71.6807 87.1548C71.9476 87.589 72.385 87.7853 72.9727 87.855C73.566 87.9253 74.282 87.863 75.0762 87.8022C75.8129 87.7459 76.6095 87.693 77.4014 87.7612V83.2993C76.849 83.375 76.2409 83.3471 75.6377 83.2974C74.9632 83.2418 74.2992 83.1616 73.6914 83.1587Z" fill="black" stroke="black" stroke-width="0.293892"/>
<path d="M78.2627 91.1279C78.3778 91.1279 78.4759 91.1796 78.5547 91.2539C78.6318 91.3268 78.6968 91.4258 78.752 91.5391C78.8624 91.7659 78.9497 92.0805 79.0186 92.4443C79.1568 93.1748 79.2256 94.1424 79.2256 95.1055C79.2256 96.0685 79.1568 97.0362 79.0186 97.7666C78.9497 98.1304 78.8623 98.445 78.752 98.6719C78.6968 98.7851 78.6318 98.8842 78.5547 98.957C78.4759 99.0314 78.3778 99.083 78.2627 99.083H70.2109V91.1279H78.2627ZM73.6914 92.7363C73.0838 92.7334 72.5634 92.8089 72.1758 93.0479C71.8452 93.2516 71.5943 93.5849 71.4785 94.1357L71.4375 94.3857C71.2926 95.5621 71.4074 96.2877 71.6807 96.7324C71.9476 97.1668 72.3858 97.3629 72.9736 97.4326C73.567 97.5029 74.283 97.4407 75.0771 97.3799C75.8137 97.3235 76.6096 97.2706 77.4014 97.3389V92.877C76.8491 92.9525 76.2407 92.9247 75.6377 92.875C74.9634 92.8194 74.2991 92.7393 73.6914 92.7363Z" fill="black" stroke="black" stroke-width="0.293892"/>
<path d="M78.2627 100.706C78.3778 100.706 78.4759 100.757 78.5547 100.832C78.6318 100.904 78.6968 101.003 78.752 101.117C78.8624 101.344 78.9497 101.658 79.0186 102.022C79.1568 102.752 79.2256 103.72 79.2256 104.683C79.2256 105.646 79.1568 106.614 79.0186 107.344C78.9497 107.708 78.8623 108.023 78.752 108.25C78.6968 108.363 78.6318 108.462 78.5547 108.535C78.4759 108.609 78.3778 108.661 78.2627 108.661H70.2109V100.706H78.2627ZM73.6914 102.314C73.0838 102.311 72.5634 102.387 72.1758 102.625C71.8452 102.829 71.5943 103.163 71.4785 103.713L71.4375 103.963C71.2926 105.14 71.4074 105.865 71.6807 106.31C71.9476 106.744 72.3858 106.941 72.9736 107.01C73.567 107.081 74.283 107.018 75.0771 106.958C75.8137 106.901 76.6096 106.848 77.4014 106.917V102.455C76.8491 102.53 76.2407 102.502 75.6377 102.453C74.9634 102.397 74.2991 102.317 73.6914 102.314Z" fill="black" stroke="black" stroke-width="0.293892"/>
<path d="M123.647 81.5503L123.679 81.6558C124.41 84.1536 124.41 86.8927 123.679 89.3999L123.647 89.5054H115.632C115.517 89.5053 115.419 89.4537 115.34 89.3794C115.263 89.3066 115.199 89.2073 115.144 89.0942C115.033 88.8674 114.945 88.5528 114.876 88.189C114.738 87.4585 114.67 86.4909 114.67 85.5278C114.67 84.5648 114.738 83.5972 114.876 82.8667C114.945 82.5028 115.033 82.1883 115.144 81.9614C115.199 81.8484 115.263 81.749 115.34 81.6763C115.419 81.602 115.517 81.5504 115.632 81.5503H123.647ZM120.926 83.2007C120.332 83.1304 119.616 83.1926 118.822 83.2534C118.086 83.3098 117.29 83.3617 116.498 83.2935V87.7554C117.05 87.6798 117.659 87.7086 118.262 87.7583C118.936 87.8139 119.6 87.894 120.208 87.897C120.816 87.8999 121.336 87.8243 121.724 87.5854C122.101 87.3525 122.375 86.9504 122.462 86.2476L122.504 85.8267C122.575 84.8939 122.458 84.29 122.219 83.9009C121.952 83.4665 121.514 83.2704 120.926 83.2007Z" fill="black" stroke="black" stroke-width="0.293892"/>
<path d="M123.685 91.1279V99.083H115.632C115.517 99.0829 115.419 99.0313 115.34 98.957C115.263 98.8843 115.199 98.7849 115.144 98.6719C115.033 98.445 114.945 98.1305 114.876 97.7666C114.738 97.0362 114.67 96.0685 114.67 95.1055C114.67 94.1424 114.738 93.1748 114.876 92.4443C114.945 92.0805 115.033 91.7659 115.144 91.5391C115.199 91.426 115.263 91.3267 115.34 91.2539C115.419 91.1796 115.517 91.128 115.632 91.1279H123.685ZM120.926 92.7783C120.332 92.7081 119.616 92.7703 118.822 92.8311C118.086 92.8874 117.29 92.9393 116.498 92.8711V97.333C117.05 97.2574 117.659 97.2862 118.262 97.3359C118.936 97.3915 119.6 97.4717 120.208 97.4746C120.816 97.4775 121.336 97.402 121.724 97.1631C122.101 96.9302 122.375 96.5281 122.462 95.8252L122.504 95.4043C122.575 94.4716 122.458 93.8676 122.219 93.4785C121.952 93.0441 121.514 92.848 120.926 92.7783Z" fill="black" stroke="black" stroke-width="0.293892"/>
<path d="M123.685 100.706V108.661H115.632C115.517 108.661 115.419 108.609 115.34 108.535C115.263 108.462 115.199 108.363 115.144 108.25C115.033 108.023 114.945 107.708 114.876 107.344C114.738 106.614 114.67 105.646 114.67 104.683C114.67 103.72 114.738 102.752 114.876 102.022C114.945 101.658 115.033 101.344 115.144 101.117C115.199 101.004 115.263 100.904 115.34 100.832C115.419 100.757 115.517 100.706 115.632 100.706H123.685ZM120.926 102.356C120.332 102.286 119.616 102.348 118.822 102.409C118.086 102.465 117.29 102.517 116.498 102.449V106.911C117.05 106.835 117.659 106.864 118.262 106.914C118.936 106.969 119.6 107.049 120.208 107.052C120.816 107.055 121.336 106.98 121.724 106.741C122.101 106.508 122.375 106.106 122.462 105.403L122.504 104.982C122.575 104.049 122.458 103.445 122.219 103.056C121.952 102.622 121.514 102.426 120.926 102.356Z" fill="black" stroke="black" stroke-width="0.293892"/>
<defs>
<filter id="filter0_d_163_483" x="0.73756" y="0.440073" width="186.082" height="183.73" filterUnits="userSpaceOnUse" color-interpolation-filters="sRGB">
<feFlood flood-opacity="0" result="BackgroundImageFix"/>
<feColorMatrix in="SourceAlpha" type="matrix" values="0 0 0 0 0 0 0 0 0 0 0 0 0 0 0 0 0 0 127 0" result="hardAlpha"/>
<feOffset dy="4.70227"/>
<feGaussianBlur stdDeviation="14.1068"/>
<feComposite in2="hardAlpha" operator="out"/>
<feColorMatrix type="matrix" values="0 0 0 0 0.215686 0 0 0 0 0.615686 0 0 0 0 0.0196078 0 0 0 0.38 0"/>
<feBlend mode="normal" in2="BackgroundImageFix" result="effect1_dropShadow_163_483"/>
<feBlend mode="normal" in="SourceGraphic" in2="effect1_dropShadow_163_483" result="shape"/>
</filter>
</defs>
</svg>
