<svg width="31" height="31" viewBox="0 0 31 31" fill="none" xmlns="http://www.w3.org/2000/svg">
<mask id="mask0_1_274" style="mask-type:luminance" maskUnits="userSpaceOnUse" x="0" y="0" width="31" height="31">
<path d="M31 0H0V31H31V0Z" fill="white"/>
</mask>
<g mask="url(#mask0_1_274)">
<path d="M21.86 20.8899V18.8301C21.86 18.1201 22.1401 17.4399 22.6501 16.9199C24.4801 15.0499 25.49 12.58 25.49 9.99001C25.49 4.48001 21.04 0.0100205 15.5 2.04997e-05C10.45 -0.0099795 6.50008 3.6399 5.68008 8.1299C5.09008 11.3599 6.05999 14.5599 8.33999 16.9099C8.85999 17.4399 9.14004 18.1201 9.14004 18.8301V20.8899C9.14004 22.3899 10.36 23.6101 11.87 23.6101H19.13C20.64 23.6101 21.86 22.3899 21.86 20.8899ZM19.7801 10.6299L18.23 12.18V19.0701C18.23 19.5701 17.82 19.98 17.32 19.98C16.82 19.98 16.4101 19.5701 16.4101 19.0701V12.71H14.59V19.0701C14.59 19.5701 14.19 19.98 13.69 19.98C13.18 19.98 12.7801 19.5701 12.7801 19.0701V12.18L11.23 10.6299C10.87 10.2799 10.87 9.70012 11.23 9.35012C11.58 8.99012 12.16 8.99012 12.51 9.35012L14.0601 10.8999H16.94L18.49 9.35012C18.85 8.99012 19.4201 8.99012 19.7801 9.35012C20.1301 9.70012 20.1301 10.2799 19.7801 10.6299Z" fill="#0E5BCA"/>
<path d="M0.910034 10.8999H2.79004C3.29004 10.8999 3.68994 10.49 3.68994 9.98999C3.68994 9.48999 3.29004 9.08008 2.79004 9.08008H0.910034C0.410034 9.08008 0 9.48999 0 9.98999C0 10.49 0.410034 10.8999 0.910034 10.8999Z" fill="#0E5BCA"/>
<path d="M30.09 9.08008H28.21C27.71 9.08008 27.3 9.48999 27.3 9.98999C27.3 10.49 27.71 10.8999 28.21 10.8999H30.09C30.59 10.8999 31 10.49 31 9.98999C31 9.48999 30.59 9.08008 30.09 9.08008Z" fill="#0E5BCA"/>
<path d="M2.13006 17.71C2.38006 18.15 2.94005 18.2901 3.37005 18.0401L4.93999 17.13C5.37999 16.88 5.53008 16.33 5.28008 15.89C5.02008 15.46 4.47009 15.3101 4.04009 15.5601L2.46001 16.4701C2.03001 16.7201 1.88006 17.27 2.13006 17.71Z" fill="#0E5BCA"/>
<path d="M28.87 2.27009C28.62 1.83009 28.06 1.68001 27.63 1.94001L26.0601 2.84016C25.6201 3.09016 25.47 3.65015 25.72 4.08015C25.98 4.52015 26.53 4.66999 26.96 4.41999L28.5401 3.51008C28.9701 3.26008 29.12 2.70009 28.87 2.27009Z" fill="#0E5BCA"/>
<path d="M2.46001 3.51008L4.04009 4.41999C4.47009 4.66999 5.02008 4.52015 5.28008 4.08015C5.53008 3.65015 5.37999 3.09016 4.93999 2.84016L3.37005 1.94001C2.94005 1.68001 2.38006 1.83009 2.13006 2.27009C1.88006 2.70009 2.03001 3.26008 2.46001 3.51008Z" fill="#0E5BCA"/>
<path d="M25.72 15.89C25.47 16.33 25.6201 16.88 26.0601 17.13L27.63 18.0401C28.06 18.2901 28.62 18.14 28.87 17.71C29.12 17.27 28.9701 16.7201 28.5401 16.4701L26.96 15.5601C26.53 15.3101 25.97 15.46 25.72 15.89Z" fill="#0E5BCA"/>
<path d="M11.87 25.4299C11.55 25.4299 11.25 25.3901 10.96 25.3301V26.3301C10.96 27.8401 12.1801 29.1799 13.6801 29.1799C13.6801 30.1799 14.49 31 15.5 31C16.5 31 17.3101 30.1799 17.3101 29.1799C18.8201 29.1799 20.04 27.8401 20.04 26.3301V25.3301C19.75 25.3901 19.44 25.4299 19.13 25.4299H11.87Z" fill="#0E5BCA"/>
</g>
</svg>
