<svg width="401" height="282" viewBox="0 0 401 282" fill="none" xmlns="http://www.w3.org/2000/svg">
<rect x="191.395" y="38.3166" width="198.71" height="120.833" stroke="#1358BF" stroke-width="2.78952"/>
<path d="M190 17.0743C190 7.67896 197.616 0.0625 207.012 0.0625H374.488C383.884 0.0625 391.5 7.67895 391.5 17.0743V39.1158H190V17.0743Z" fill="url(#paint0_linear_139_192)" fill-opacity="0.42"/>
<circle cx="209.445" cy="19.0807" r="5.9205" fill="#2070E1"/>
<circle cx="226.836" cy="19.0807" r="5.9205" fill="#2070E1"/>
<circle cx="244.227" cy="19.7769" r="5.9205" fill="#2070E1"/>
<rect x="209.444" y="59.0674" width="55.8756" height="49.221" rx="3.3713" fill="#6FAAE0"/>
<rect x="284.546" y="63.4707" width="80.9993" height="4.41242" rx="2.20621" fill="#0056B3"/>
<rect x="282.97" y="101.292" width="80.9993" height="4.41242" rx="2.20621" fill="#0056B3"/>
<rect x="284.546" y="76.0771" width="69.9683" height="4.41242" rx="2.20621" fill="#0056B3"/>
<rect x="282.97" y="113.899" width="69.9683" height="4.41242" rx="2.20621" fill="#0056B3"/>
<rect x="284.546" y="88.6846" width="56.7311" height="4.41242" rx="2.20621" fill="#0056B3"/>
<rect x="282.97" y="126.505" width="56.7311" height="4.41242" rx="2.20621" fill="#0056B3"/>
<path d="M112.035 183.879C111.636 184.261 111.623 184.894 112.005 185.293L118.231 191.793C118.613 192.191 119.246 192.205 119.644 191.823C120.043 191.441 120.057 190.808 119.675 190.409L114.141 184.632L119.918 179.098C120.317 178.716 120.331 178.083 119.948 177.684C119.566 177.285 118.933 177.272 118.535 177.654L112.035 183.879ZM400.985 189.799L112.749 183.602L112.706 185.601L400.942 191.799L400.985 189.799Z" fill="url(#paint1_linear_139_192)" fill-opacity="0.57"/>
<rect x="146.102" y="211.665" width="10.5126" height="11.2801" rx="0.5" transform="rotate(-50.2807 146.102 211.665)" stroke="#361A84"/>
<rect x="163.033" y="254.902" width="15.4297" height="16.5562" rx="0.733868" transform="rotate(-50.2807 163.033 254.902)" stroke="white" stroke-width="1.46774"/>
<path d="M83.8026 145.566L100.911 141.293L93.8522 157.453L83.8026 145.566Z" stroke="#FFB27D" stroke-width="1.25416"/>
<rect x="215.176" y="219.267" width="121.571" height="61.45" rx="3.32162" transform="rotate(0.422218 215.176 219.267)" fill="#9A9EA6" fill-opacity="0.17"/>
<rect x="220.908" y="224.081" width="110.367" height="48.9171" rx="1.20719" transform="rotate(0.422218 220.908 224.081)" stroke="white" stroke-opacity="0.27" stroke-width="0.90725"/>
<circle cx="228.7" cy="277.163" r="2.41403" transform="rotate(0.422218 228.7 277.163)" fill="#FFAAAA" fill-opacity="0.36"/>
<path d="M231.114 277.183L330.672 277.75" stroke="#6E8FBE" stroke-width="0.90725"/>
<rect width="38.216" height="1.52301" rx="0.761505" transform="matrix(0.999973 0.00736904 0.00736904 -0.999973 225.407 231.526)" fill="#D9D9D9" fill-opacity="0.4"/>
<rect width="38.216" height="1.52301" rx="0.761505" transform="matrix(0.999973 0.00736904 0.00736904 -0.999973 225.276 249.333)" fill="#D9D9D9" fill-opacity="0.4"/>
<rect width="29.9374" height="1.52301" rx="0.761505" transform="matrix(0.999973 0.00736904 0.00736904 -0.999973 225.234 255.01)" fill="#D9D9D9" fill-opacity="0.4"/>
<rect width="34.1334" height="1.52301" rx="0.761505" transform="matrix(0.999973 0.00736904 0.00736904 -0.999973 225.192 260.688)" fill="#D9D9D9" fill-opacity="0.4"/>
<rect width="27.8961" height="1.52301" rx="0.761505" transform="matrix(0.999973 0.00736904 0.00736904 -0.999973 225.15 266.362)" fill="#D9D9D9" fill-opacity="0.4"/>
<rect width="35.3809" height="1.52301" rx="0.761505" transform="matrix(0.999973 0.00736904 0.00736904 -0.999973 225.366 237.082)" fill="#D9D9D9" fill-opacity="0.4"/>
<rect width="30.958" height="1.52301" rx="0.761505" transform="matrix(0.999973 0.00736904 0.00736904 -0.999973 225.325 242.64)" fill="#D9D9D9" fill-opacity="0.4"/>
<rect x="286.321" y="229.48" width="35.0425" height="31.4946" rx="2.26812" transform="rotate(0.422218 286.321 229.48)" fill="white" fill-opacity="0.3"/>
<rect x="286.056" y="265.471" width="35.0425" height="3.15544" rx="0.90725" transform="rotate(0.422218 286.056 265.471)" fill="white" fill-opacity="0.3"/>
<path d="M353.283 213.34C353.483 213.149 353.491 212.833 353.3 212.633L350.193 209.378C350.002 209.178 349.686 209.171 349.486 209.361C349.286 209.552 349.279 209.869 349.469 210.068L352.231 212.962L349.338 215.724C349.138 215.914 349.131 216.231 349.321 216.431C349.512 216.63 349.829 216.638 350.028 216.447L353.283 213.34ZM277.638 211.726L352.927 213.478L352.95 212.478L277.661 210.727L277.638 211.726Z" fill="url(#paint2_linear_139_192)" fill-opacity="0.51"/>
<path d="M56.1008 216.771C53.8944 217.057 51.6903 217.367 49.4798 217.614C48.6334 217.709 48.5173 217.972 48.7083 218.818C48.925 219.769 49.1306 220.624 49.7191 221.456C50.9302 223.171 50.2716 224.686 48.2325 225.184C46.8241 225.527 45.3883 225.502 43.9693 225.416C42.7088 225.339 42.6131 225.779 43.0551 226.787C43.3772 227.523 43.7497 228.217 44.1548 228.911C44.859 230.109 44.4504 231.01 43.0882 231.338C41.959 231.609 40.7776 231.612 39.6958 231.232C38.2424 230.724 37.9575 231.314 37.9279 232.612C37.9117 233.39 37.6265 234.181 37.3546 234.929C36.9343 236.086 36.3152 236.167 35.5346 235.172C34.6586 234.055 33.6844 233.028 32.575 232.139C31.7248 231.241 30.8759 230.347 30.0257 229.449C30.2346 229.368 30.4466 229.286 30.6555 229.205C31.4112 228.924 32.2121 228.13 31.6611 227.67C31.0828 227.189 31.4022 225.609 29.9489 226.131C28.93 226.496 28.172 226.934 28.7373 228.193C28.1507 227.881 27.5654 227.572 26.982 227.258C26.1459 226.769 25.3472 226.195 24.3604 226.023C23.7436 225.375 22.8973 225.108 22.0998 224.833C17.5524 223.272 13.4116 220.7 8.7077 219.517C7.35288 219.177 7.20406 218.163 8.22197 217.252C13.4673 212.552 18.277 207.434 22.9216 202.147C27.5331 196.898 31.5259 191.169 35.8677 185.711C36.6899 184.675 37.3855 184.325 38.5903 185.041C40.7189 186.3 43.0592 187.105 45.3321 188.05C51.8047 190.746 56.2313 195.669 59.7731 201.503C60.8969 203.355 62.0637 205.194 62.7806 207.274C63.4267 209.152 63.0249 209.785 61.0046 209.854C59.6333 209.901 58.2636 209.981 56.8944 210.023C55.9706 210.052 55.8612 210.457 56.1995 211.235C56.7636 212.539 57.1644 213.917 57.9562 215.122C57.5823 215.95 56.8602 216.385 56.0944 216.774L56.1008 216.771ZM38.4443 223.602C37.9403 223.579 37.4887 223.329 36.9355 223.418C34.9847 223.734 36.2101 225.133 36.1699 225.935C36.1234 226.903 37.0286 226.645 37.7338 226.471C39.882 225.95 38.7734 224.69 38.4297 223.593C39.1171 223.755 39.0384 224.507 39.4347 224.9C39.8272 225.284 40.2781 225.656 40.7617 225.206C41.3611 224.645 40.5771 224.539 40.3468 224.24C40.1771 224.021 39.9081 223.689 39.9708 223.517C40.389 222.383 39.7064 221.728 38.8509 221.837C38.1158 221.933 38.3416 222.936 38.4423 223.607L38.4443 223.602ZM33.8224 223.108C34.5103 223.282 34.5861 222.791 34.7828 222.478C36.4239 219.836 38.5057 217.559 40.6839 215.359C43.5803 212.438 46.4401 209.479 49.3182 206.539C49.7363 206.111 50.1984 205.643 49.6491 205.084C49.0985 204.521 48.6349 204.956 48.2052 205.392C46.7633 206.859 45.2371 208.252 43.8668 209.781C40.9689 213.013 37.7697 215.992 35.346 219.629C34.6426 220.685 33.9019 221.758 33.8256 223.107L33.8224 223.108ZM29.8321 219.303C31.1168 218.107 32.3519 217.06 33.319 215.702C36.6059 211.089 40.2738 206.801 44.4385 202.956C44.9338 202.498 45.6697 202.032 45.0079 201.287C44.3562 200.549 43.9189 201.328 43.4782 201.716C38.0709 206.475 34.0136 212.362 29.7902 218.107C29.5843 218.387 29.4483 218.713 29.8301 219.308L29.8321 219.303ZM24.1653 215.138C25.6506 216.13 26.9596 216.151 27.2844 214.957C27.6504 213.622 28.1455 212.773 29.5248 212.394C29.9061 212.29 30.1356 211.614 30.4186 211.19C30.6028 210.912 30.6885 210.446 30.9347 210.347C32.6182 209.666 33.1442 208.095 33.8356 206.674C34.5408 205.222 35.2807 203.812 36.4071 202.637C37.1969 201.814 37.9683 200.972 38.7226 200.114C38.9916 199.807 39.2086 199.394 38.8317 199.041C38.4206 198.657 38.1372 199.003 37.8464 199.312C36.168 201.104 34.1458 202.733 33.3393 205.078C32.4522 207.653 29.9294 208.782 28.7488 211.039C28.4239 211.66 27.7381 211.349 27.2272 211.022C26.8536 210.782 26.4813 210.365 26.0159 210.785C25.6061 211.158 25.8235 211.577 25.9817 212.033C26.9177 214.726 26.8873 214.753 24.2615 215.005C24.2256 215.008 24.1959 215.093 24.1634 215.143L24.1653 215.138ZM45.1826 221.927C44.9142 221.082 44.4698 220.526 43.4269 220.915C42.4065 221.295 41.8894 221.935 42.2928 223.024C42.6222 223.913 43.3107 224.26 44.2167 223.927C45.1367 223.593 45.6851 223.015 45.1781 221.925L45.1826 221.927ZM31.4109 226.156C32.0084 226.583 32.0028 227.379 32.4728 227.877C32.8396 228.271 33.3151 228.268 33.7051 227.958C34.2706 227.51 33.7268 227.318 33.4336 227.095C32.9843 226.755 32.7367 226.345 32.9592 225.775C33.2977 224.912 32.2619 225.062 32.0618 224.574C31.9852 224.385 31.6293 224.449 31.5097 224.684C31.2703 225.154 31.2143 225.648 31.4122 226.159L31.4109 226.156ZM35.5214 224.328C34.5303 224.316 33.7603 224.389 33.6609 225.048C33.5367 225.872 34.0078 226.669 34.5013 227.361C34.5656 227.451 34.8251 227.472 34.9505 227.424C35.275 227.298 35.3149 226.991 35.1854 226.723C34.8162 225.961 34.7865 225.226 35.517 224.326L35.5214 224.328ZM41.9876 223.191C41.6702 222.781 41.7548 221.788 41.049 222.017C40.1165 222.319 40.8775 223.063 41.0397 223.558C41.1919 224.027 41.2394 224.951 41.9893 224.664C42.7477 224.371 42.0383 223.703 41.9908 223.189L41.9876 223.191Z" fill="#CA45D6" fill-opacity="0.56"/>
<path d="M24.3659 226.018C25.3527 226.19 26.1514 226.764 26.9875 227.253C27.0329 227.952 27.9704 228.827 27.2811 229.242C26.3522 229.801 26.5457 228.44 26.0923 228.061C25.9002 227.899 25.7125 227.806 25.493 227.917C25.1797 228.071 25.1611 228.367 25.279 228.642C25.6247 229.44 25.6827 230.629 26.8666 230.566C28.1037 230.497 29.1076 229.931 28.8432 228.371C29.1569 228.818 29.4635 229.276 30.028 229.445C30.8782 230.343 31.7271 231.237 32.5773 232.135C32.5733 234.882 32.8397 237.602 33.2673 240.319C33.4343 241.37 33.8935 241.392 34.602 240.922C35.8346 240.097 37.09 239.293 38.2444 238.362C43.3064 234.276 48.3431 230.164 53.3647 226.032C54.7324 224.907 55.1019 224.945 55.82 226.618C57.1339 229.686 55.7711 232.283 54.0322 234.568C50.4467 239.279 45.8716 242.846 40.501 245.381C39.7297 245.746 39.0064 246.226 38.3022 246.717C37.1305 247.536 35.902 248.038 34.2664 247.574C34.3691 248.24 34.4587 248.767 34.5277 249.298C34.634 250.107 34.8008 250.471 35.8831 250.336C40.1073 249.813 44.233 254.922 43.202 259.234C42.326 262.888 41.0514 264.158 37.9902 264.431C35.5221 264.651 32.6994 262.792 32.1054 260.361C31.2082 256.699 30.5022 252.997 30.4095 249.208C30.395 248.951 30.3825 248.69 30.3681 248.433C30.5765 248.389 30.9273 248.379 30.8649 248.123C30.5045 246.677 30.107 245.231 28.3117 244.917C27.1906 244.15 26.8466 243.024 26.5452 241.74C25.3345 236.562 24.1365 231.398 24.3728 226.026L24.3659 226.018ZM39.3422 257.817C39.0063 257.227 38.855 256.846 38.6049 256.543C38.072 255.892 37.4352 254.735 36.7604 254.996C35.9153 255.324 36.5672 256.501 36.5936 257.304C36.6046 257.695 36.7508 258.082 36.836 258.474C37.052 259.432 37.6473 260.177 38.6115 259.785C39.4825 259.43 39.5292 258.443 39.3409 257.814L39.3422 257.817Z" fill="#030404" fill-opacity="0.52"/>
<path d="M49.3314 256.923C52.3236 256.004 54.5672 254.03 57.219 252.815C62.2415 250.507 66.6157 247.165 70.6643 243.469C73.3069 241.056 75.5511 238.206 78.0022 235.575C78.4451 235.097 78.4692 234.825 77.9519 234.386C76.732 233.355 76.0603 231.945 75.5613 230.475C73.9496 225.741 71.9704 221.194 68.9314 217.068C68.4831 217.8 68.7659 219.083 67.512 219.281C66.5863 219.429 65.7411 219.069 64.91 218.707C64.8555 219.759 64.7906 220.66 64.7679 221.556C64.7039 223.938 64.4591 224.203 62.1628 224.342C60.852 224.421 59.5432 224.495 58.237 224.624C57.8699 224.659 57.4392 225.074 57.2349 224.499C57.0432 223.956 57.4901 223.583 57.9149 223.478C58.9044 223.228 59.9349 222.921 60.9372 222.961C62.7506 223.035 63.5325 222.344 63.2977 220.536C63.2765 220.367 63.2912 220.195 63.2918 220.025C63.2814 216.84 63.2893 216.822 66.3835 217.626C66.9258 217.767 67.1344 217.657 67.1663 217.138C67.1937 216.684 67.1585 216.221 67.2178 215.773C67.2947 215.189 66.9534 214.394 67.7417 214.111C68.6148 213.798 69.1052 214.473 69.5401 215.081C72.4511 219.153 74.9032 223.461 76.5093 228.238C77.2473 230.439 77.8865 232.767 80.294 233.927C80.984 234.258 80.732 234.943 80.3749 235.414C79.8268 236.136 79.2367 236.845 78.5815 237.472C75.9753 239.96 74.0183 243.046 71.2791 245.4C66.7187 249.32 61.8286 252.733 56.4133 255.429C54.019 256.622 51.7026 258.007 49.3131 259.232C48.786 259.503 48.2802 259.761 47.7092 259.365C47.1395 258.973 47.1768 258.382 47.2521 257.813C47.8259 253.474 46.86 249.54 44.1884 246.047C43.9789 245.774 43.4466 245.477 43.9714 245.067C44.5226 244.639 44.7828 245.178 45.0595 245.511C46.8646 247.672 47.8352 250.245 48.5579 252.902C48.9122 254.199 49.3491 255.489 49.3371 256.928L49.3314 256.923Z" fill="#0A0A0A" fill-opacity="0.53"/>
<path d="M30.3623 248.427C30.3767 248.684 30.3892 248.945 30.4037 249.202C29.4562 249.122 28.9646 249.885 28.3361 250.361C26.1053 252.053 23.7284 253.52 21.3096 254.908C18.4999 256.517 15.2023 255.884 13.4852 253.511C11.1844 250.338 13.1533 245.059 17.1771 243.904C20.4723 242.957 23.6391 242.909 25.8107 246.255C26.0309 246.594 26.2072 246.515 26.4886 246.354C27.0811 246.014 27.6994 245.712 28.305 245.396C28.965 246.422 29.9886 247.205 30.3623 248.427ZM22.3318 248.426C20.8431 247.931 19.4859 247.976 18.207 248.471C17.3683 248.796 16.7464 249.662 17.2311 250.512C17.6109 251.178 18.4931 251.376 19.322 250.778C20.2805 250.085 21.42 249.64 22.3331 248.429L22.3318 248.426Z" fill="#040404" fill-opacity="0.51"/>
<path d="M52.1437 242.076C52.8725 240.571 53.0886 238.906 55.2483 239.082C55.9317 239.138 56.1488 238.43 56.4169 237.968C57.2153 236.594 58.2739 235.53 59.6779 234.776C61.7797 233.648 63.3349 231.881 64.9351 230.164C65.481 229.579 66.0509 229.019 66.6164 228.456C67.0279 228.049 67.4663 227.635 68.103 227.81C68.3595 227.881 68.6003 228.102 68.5978 228.439C68.5994 229.225 67.8946 229.132 67.4626 229.429C66.6746 229.971 66.0024 230.697 65.3514 231.411C63.7605 233.161 61.9836 234.651 59.8337 235.684C58.8429 236.16 58.0535 236.898 57.4485 237.845C56.7857 238.882 56.2452 240.081 54.6099 239.876C54.0852 239.809 53.8557 240.486 53.5606 240.907C53.2634 241.332 53.3075 242.095 52.1437 242.076Z" fill="#131313" fill-opacity="0.51"/>
<path d="M56.8341 245.762C56.7064 245.738 56.4264 245.769 56.3171 245.648C56.075 245.376 56.3049 245.121 56.5081 244.92C57.5218 243.922 58.5311 242.921 59.5608 241.935C61.8276 239.763 64.3399 237.911 66.9367 236.162C67.2707 235.937 67.6345 235.674 67.9944 236.06C68.3935 236.489 68.2363 236.989 67.815 237.238C63.8749 239.573 60.4353 242.542 57.0656 245.606C57.0249 245.644 56.9727 245.672 56.8341 245.762Z" fill="#0F0F0F" fill-opacity="0.53"/>
<path d="M54.9488 190.287C54.8691 190.263 54.6382 190.249 54.4705 190.14C54.2239 189.98 54.3193 189.692 54.4267 189.521C55.3698 188.025 56.3231 186.536 57.5194 185.227C57.761 184.963 58.132 184.919 58.4697 185.114C58.7444 185.27 58.8361 185.545 58.8187 185.843C58.7991 186.231 55.4959 190.116 54.9468 190.292L54.9488 190.287Z" fill="#0F0F0F" fill-opacity="0.53"/>
<path d="M52.655 187.121C52.1077 187.311 51.8339 187.062 51.8694 186.572C51.9618 185.331 52.0715 184.088 52.2559 182.856C52.3499 182.221 52.7999 181.799 53.4831 182.056C54.1509 182.311 53.8791 182.763 53.6985 183.299C53.3904 184.201 53.2895 185.172 53.091 186.11C53.0127 186.48 53.1018 186.929 52.6582 187.12L52.655 187.121Z" fill="#131313" fill-opacity="0.51"/>
<path d="M61.6283 190.959C61.7453 191.261 61.6859 191.547 61.4401 191.723C60.568 192.353 59.6763 192.961 58.7865 193.564C58.5235 193.743 58.2182 193.747 58.0525 193.453C57.9571 193.283 57.9112 192.916 58.0087 192.834C58.9067 192.061 59.8162 191.299 60.7779 190.605C61.0585 190.404 61.4284 190.634 61.6283 190.959Z" fill="#0F0F0F" fill-opacity="0.53"/>
<path d="M13.7431 236.126C13.7335 236.064 13.7156 236.008 13.6835 235.954C13.9978 235.773 14.3165 235.594 14.6308 235.413C15.0789 236.274 15.0812 237.463 16.4242 237.649C16.791 237.699 16.8668 238.143 16.6882 238.493C16.5018 238.86 16.1435 238.851 15.8007 238.777C14.3712 238.473 14.0965 237.268 13.7399 236.128L13.7431 236.126Z" fill="#0A0A0A" fill-opacity="0.53"/>
<path d="M30.3622 248.428C29.9885 247.206 28.9661 246.427 28.3049 245.397C28.3048 245.234 28.3046 245.072 28.3045 244.909C30.1011 245.226 30.4954 246.673 30.8577 248.115C30.9234 248.37 30.5694 248.381 30.3609 248.425L30.3622 248.428Z" fill="#030404" fill-opacity="0.52"/>
<path d="M14.6342 235.41C14.32 235.591 14.0012 235.77 13.6869 235.951C13.4107 235.581 13.139 235.214 12.8627 234.844C12.8114 234.454 13.02 234.162 13.2363 233.871C13.6827 234.013 14.1323 234.153 14.5799 234.297C14.613 234.669 14.8592 235.028 14.6374 235.409L14.6342 235.41Z" fill="#0F0F0F" fill-opacity="0.53"/>
<path d="M14.5751 234.295C14.1287 234.154 13.6791 234.014 13.2315 233.87C13.1981 233.354 13.4816 233.123 13.9457 233.224C14.487 233.343 14.8806 233.634 14.5739 234.292L14.5751 234.295Z" fill="#0F0F0F" fill-opacity="0.53"/>
<path d="M33.8223 223.108C33.903 221.761 34.6425 220.684 35.3426 219.63C37.7664 215.993 40.9655 213.014 43.8635 209.781C45.2338 208.253 46.76 206.86 48.2019 205.393C48.6316 204.956 49.0952 204.522 49.6457 205.085C50.195 205.644 49.733 206.111 49.3149 206.539C46.4368 209.48 43.5758 212.435 40.6805 215.36C38.5023 217.56 36.4238 219.835 34.7795 222.479C34.5828 222.791 34.507 223.283 33.8191 223.109L33.8223 223.108Z" fill="#040B07" fill-opacity="0.51"/>
<path d="M29.8321 219.304C29.4502 218.71 29.5875 218.387 29.7922 218.104C34.0188 212.358 38.0729 206.472 43.4801 201.713C43.9208 201.325 44.355 200.547 45.0098 201.283C45.6716 202.029 44.9357 202.495 44.4405 202.953C40.2738 206.802 36.6046 211.087 33.321 215.699C32.3538 217.057 31.1187 218.104 29.834 219.3L29.8321 219.304Z" fill="#040B07" fill-opacity="0.51"/>
<path d="M24.1651 215.139C24.1989 215.092 24.2241 215.005 24.2632 215.001C26.8891 214.749 26.9162 214.724 25.9834 212.029C25.824 211.569 25.6066 211.151 26.0176 210.781C26.483 210.361 26.8553 210.778 27.229 211.018C27.7399 211.345 28.4224 211.657 28.7505 211.035C29.9311 208.778 32.4552 207.652 33.3411 205.074C34.1476 202.729 36.1685 201.096 37.8482 199.308C38.1389 198.999 38.4223 198.653 38.8334 199.037C39.2135 199.389 38.9933 199.803 38.7244 200.11C37.97 200.968 37.1986 201.81 36.4089 202.633C35.2792 203.809 34.5393 205.219 33.8373 206.67C33.1459 208.091 32.618 209.666 30.9364 210.343C30.6903 210.442 30.6045 210.908 30.4204 211.186C30.1386 211.613 29.9078 212.286 29.5266 212.39C28.1472 212.769 27.6509 213.615 27.2861 214.953C26.9613 216.147 25.6535 216.129 24.1671 215.134L24.1651 215.139Z" fill="#040D09" fill-opacity="0.51"/>
<path d="M45.1827 221.928C45.6897 223.018 45.1401 223.593 44.2212 223.93C43.3108 224.26 42.6267 223.916 42.2973 223.027C41.894 221.938 42.4098 221.295 43.4315 220.918C44.4743 220.528 44.9187 221.084 45.1871 221.93L45.1827 221.928Z" fill="#772C7D"/>
<path d="M38.4299 223.593C38.7736 224.691 39.8822 225.95 37.734 226.472C37.0276 226.642 36.1237 226.903 36.1701 225.936C36.2071 225.134 34.9817 223.735 36.9357 223.418C37.4889 223.33 37.9405 223.58 38.4445 223.602L38.4299 223.593ZM36.8536 224.304C36.827 224.34 36.8036 224.375 36.7782 224.414C36.8504 224.419 36.9214 224.421 36.9937 224.427C36.9896 224.388 36.9999 224.328 36.9808 224.317C36.9471 224.297 36.8964 224.309 36.8536 224.304Z" fill="#772C7D"/>
<path d="M30.0276 229.446C29.4631 229.277 29.1565 228.819 28.8428 228.371C28.8147 228.308 28.7801 228.248 28.7424 228.188C28.1771 226.929 28.9332 226.496 29.9541 226.126C31.4041 225.606 31.0879 227.184 31.6662 227.666C32.216 228.122 31.4118 228.917 30.6606 229.201C30.4518 229.282 30.2397 229.364 30.0308 229.445L30.0276 229.446Z" fill="#772C7D"/>
<path d="M28.7425 228.188C28.7803 228.248 28.8116 228.309 28.8429 228.371C29.1073 229.932 28.1034 230.498 26.8663 230.567C25.6836 230.633 25.6225 229.445 25.2787 228.643C25.1608 228.367 25.1807 228.075 25.4928 227.917C25.7154 227.805 25.8999 227.9 26.0921 228.062C26.5454 228.441 26.3532 229.805 27.2808 229.242C27.9669 228.829 27.0314 227.949 26.9872 227.253C27.5738 227.566 28.1592 227.875 28.7425 228.188Z" fill="#030404" fill-opacity="0.52"/>
<path d="M38.444 223.603C38.3444 222.935 38.1174 221.93 38.8525 221.833C39.7112 221.723 40.3906 222.38 39.9724 223.513C39.9065 223.687 40.1787 224.017 40.3484 224.236C40.5787 224.535 41.364 224.645 40.7634 225.203C40.281 225.655 39.8269 225.284 39.4363 224.896C39.0381 224.507 39.1187 223.752 38.4313 223.589L38.4459 223.598L38.444 223.603Z" fill="#772C7D"/>
<path d="M31.4107 226.156C31.2128 225.645 31.2688 225.151 31.5082 224.681C31.6279 224.446 31.985 224.386 32.0604 224.571C32.2617 225.062 33.2962 224.909 32.9578 225.771C32.7352 226.342 32.9828 226.752 33.4322 227.092C33.7254 227.314 34.2659 227.508 33.7036 227.955C33.3105 228.266 32.8382 228.268 32.4713 227.874C32.0046 227.375 32.0082 226.583 31.4094 226.153L31.4107 226.156Z" fill="#772C7D"/>
<path d="M35.5216 224.329C34.7912 225.229 34.8176 225.965 35.19 226.726C35.3195 226.994 35.2829 227.3 34.9551 227.427C34.8266 227.476 34.5658 227.452 34.5059 227.364C34.0093 226.673 33.5413 225.875 33.6656 225.051C33.765 224.392 34.535 224.319 35.5261 224.331L35.5216 224.329Z" fill="#772C7D"/>
<path d="M41.9881 223.191C42.0356 223.705 42.7462 224.376 41.9866 224.666C41.2379 224.956 41.1892 224.029 41.037 223.559C40.878 223.063 40.1169 222.319 41.0462 222.019C41.752 221.79 41.6663 222.78 41.9849 223.192L41.9881 223.191Z" fill="#772C7D"/>
<path d="M36.8538 224.304C36.8986 224.305 36.9473 224.297 36.981 224.317C37.0001 224.329 36.9898 224.388 36.9939 224.427C36.9216 224.422 36.8506 224.42 36.7784 224.414C36.805 224.378 36.8284 224.343 36.8538 224.304Z" fill="#45D68D" fill-opacity="0.35"/>
<defs>
<linearGradient id="paint0_linear_139_192" x1="190" y1="19.5891" x2="391.5" y2="19.5891" gradientUnits="userSpaceOnUse">
<stop offset="0.104218" stop-color="#00163A"/>
<stop offset="1" stop-color="#003DA0"/>
</linearGradient>
<linearGradient id="paint1_linear_139_192" x1="112.738" y1="184.102" x2="400.975" y2="190.299" gradientUnits="userSpaceOnUse">
<stop stop-color="#F1F9FF"/>
<stop offset="1" stop-color="#361A84"/>
</linearGradient>
<linearGradient id="paint2_linear_139_192" x1="277.638" y1="211.726" x2="352.927" y2="213.478" gradientUnits="userSpaceOnUse">
<stop offset="0.335686" stop-color="#0056B3"/>
<stop offset="1" stop-color="white"/>
</linearGradient>
</defs>
</svg>
