<svg width="680" height="233" viewBox="0 0 680 233" fill="none" xmlns="http://www.w3.org/2000/svg">
<path d="M245.686 11.3965V243.726" stroke="url(#paint0_linear_122_192)" stroke-width="1.85369" stroke-linecap="round"/>
<path d="M176.48 11.3965L174.623 242.528" stroke="url(#paint1_linear_122_192)" stroke-width="1.85369" stroke-linecap="round"/>
<path d="M102.332 1.50977V233.839" stroke="url(#paint2_linear_122_192)" stroke-width="1.85369" stroke-linecap="round"/>
<path d="M1.01172 181.297L339.605 180.684" stroke="url(#paint3_radial_122_192)" stroke-width="1.85369" stroke-linecap="round"/>
<path d="M13.3691 140.532L370.499 139.886" stroke="url(#paint4_radial_122_192)" stroke-width="1.85369" stroke-linecap="round"/>
<path d="M13.3691 96.043L351.963 95.4299" stroke="url(#paint5_linear_122_192)" stroke-width="1.85369" stroke-linecap="round"/>
<path d="M13.3691 54.0264L351.963 53.4133" stroke="url(#paint6_radial_122_192)" stroke-width="1.85369" stroke-linecap="round"/>
<path d="M39.3066 1.50977V233.839" stroke="url(#paint7_linear_122_192)" stroke-width="1.85369" stroke-linecap="round"/>
<path d="M324.344 28.5576V260.887" stroke="url(#paint8_linear_122_192)" stroke-width="1.85369" stroke-linecap="round"/>
<rect x="62.7871" y="72.874" width="27.1875" height="3.70739" rx="1.85369" fill="#5A0CBE"/>
<rect x="62.7871" y="117.675" width="26.8785" height="3.70739" rx="1.85369" fill="#5A0CBE"/>
<rect x="125.039" y="116.11" width="26.8785" height="3.70739" rx="1.85369" fill="#5A0CBE"/>
<rect x="125.039" y="69.167" width="26.8785" height="3.70739" rx="1.85369" fill="#5A0CBE"/>
<rect x="62.7871" y="158.755" width="26.8785" height="3.70739" rx="1.85369" fill="#2A9BC3"/>
<rect x="125.039" y="158.755" width="26.8785" height="3.70739" rx="1.85369" fill="#2A9BC3"/>
<rect x="125.039" y="204.782" width="26.8785" height="3.70739" rx="1.85369" fill="#2A9BC3"/>
<rect x="62.7871" y="202.929" width="27.1875" height="3.70739" rx="1.85369" fill="#2A9BC3"/>
<rect x="102" y="141" width="97" height="92" fill="#93DBFA"/>
<path d="M178.558 168.222L179.474 188.999L161.665 200.725L142.941 191.674L142.025 170.896L159.834 159.17L178.558 168.222Z" fill="url(#paint9_linear_122_192)"/>
<path d="M147.294 206.503L136.062 217.623L120.371 213.581L115.91 198.418L127.142 187.297L142.833 191.34L147.294 206.503Z" fill="url(#paint10_linear_122_192)"/>
<path d="M159.891 159.343L159.891 155.234" stroke="#27A8C4" stroke-width="0.699099" stroke-linecap="round"/>
<path d="M142.191 170.655L138.791 168.349" stroke="#27A8C4" stroke-width="0.699099" stroke-linecap="round"/>
<path d="M119.952 213.939L117.336 217.106" stroke="#27A8C4" stroke-width="0.699099" stroke-linecap="round"/>
<path d="M135.671 217.57L135.525 221.676" stroke="#27A8C4" stroke-width="0.699099" stroke-linecap="round"/>
<path d="M161.902 205.394L161.814 200.676" stroke="#27A8C4" stroke-width="0.699099" stroke-linecap="round"/>
<path d="M381.134 183.653C382.165 183.653 382.848 183.761 383.183 183.977C383.519 184.168 383.687 184.6 383.687 185.271C383.687 185.798 383.435 186.182 382.932 186.421C382.428 186.661 381.841 186.781 381.17 186.781L379.984 186.817C379.169 186.865 378.57 186.889 378.186 186.889C377.851 186.889 377.635 186.877 377.539 186.853C377.491 187.02 377.467 187.296 377.467 187.679C377.443 188.015 377.479 188.542 377.575 189.261C377.599 189.405 377.623 189.609 377.647 189.872C377.671 190.136 377.683 190.376 377.683 190.591C377.683 191.286 377.551 191.814 377.287 192.173C377.024 192.509 376.592 192.676 375.993 192.676C375.634 192.676 375.274 192.545 374.915 192.281C374.579 191.993 374.411 191.682 374.411 191.346C374.412 189.453 374.364 187.943 374.268 186.817C373.621 186.745 373.213 186.709 373.045 186.709C372.47 186.709 371.907 186.745 371.356 186.816C370.637 186.864 370.122 186.888 369.81 186.888C369.187 186.864 368.66 186.745 368.228 186.529C367.821 186.289 367.617 185.93 367.617 185.45C367.617 184.923 367.725 184.552 367.941 184.336C368.3 183.952 369.007 183.761 370.062 183.761C370.613 183.761 371.224 183.737 371.895 183.689C372.47 183.641 372.866 183.617 373.082 183.617C373.297 183.617 373.501 183.641 373.693 183.689C373.884 183.713 374.064 183.725 374.232 183.725C374.28 183.509 374.304 183.162 374.304 182.682C374.304 182.275 374.28 181.688 374.232 180.921C374.184 180.202 374.16 179.675 374.16 179.339C374.16 178.62 374.256 178.093 374.448 177.757C374.663 177.422 375.083 177.254 375.706 177.254C376.257 177.254 376.677 177.374 376.964 177.613C377.252 177.829 377.396 178.141 377.396 178.548C377.42 179.051 377.408 179.782 377.36 180.741L377.324 182.359C377.324 182.934 377.336 183.365 377.36 183.653C377.935 183.701 378.354 183.725 378.618 183.725C379.169 183.725 379.576 183.713 379.84 183.689L381.134 183.653Z" fill="#5AD7E9"/>
<path d="M414.858 216.576L411.989 218.115L411.433 205.702L414.066 204.291L424.097 211.621L421.202 213.174L414.33 207.945L414.858 216.576Z" fill="#54EB3C" fill-opacity="0.29"/>
<path d="M463.37 181.541C463.37 182.163 463.879 182.657 464.486 182.657C465.093 182.657 465.602 182.163 465.602 181.541C465.602 180.92 465.093 180.425 464.486 180.425C463.879 180.425 463.37 180.92 463.37 181.541ZM461.915 181.541C461.915 180.115 463.073 178.97 464.486 178.97C465.885 178.97 467.057 180.129 467.057 181.541C467.057 182.968 465.885 184.112 464.486 184.112C463.073 184.112 461.915 182.982 461.915 181.541ZM471.097 178.97L465.475 189.268H464.43L470.052 178.97H471.097ZM468.54 186.599C468.54 185.172 469.699 184.028 471.111 184.028C472.51 184.028 473.682 185.186 473.682 186.599C473.682 188.025 472.51 189.17 471.111 189.17C469.699 189.17 468.54 188.039 468.54 186.599ZM469.995 186.599C469.995 187.22 470.504 187.715 471.111 187.715C471.719 187.715 472.227 187.22 472.227 186.599C472.227 185.977 471.719 185.483 471.111 185.483C470.504 185.483 469.995 185.977 469.995 186.599Z" fill="#C4E10F" fill-opacity="0.37"/>
<path d="M512.123 206.433V208.723H501.818V206.433H512.123ZM512.123 210.931V213.221H501.818V210.931H512.123Z" fill="white" fill-opacity="0.6"/>
<path d="M485.027 151.478C479.353 142.835 473.681 134.191 468.001 125.551C467.431 124.683 467.008 123.774 466.991 122.719C466.955 120.455 468.775 118.734 471.299 118.725C473.505 118.716 475.712 118.795 477.919 118.833C485.763 118.971 493.608 119.108 501.453 119.247C504.832 119.306 508.211 119.363 511.589 119.432C513.674 119.475 515.602 118.887 517.323 117.783C521.827 114.894 526.279 111.924 530.759 108.998C531.08 108.787 531.113 108.624 530.968 108.271C530.222 106.454 530.949 104.335 532.597 103.418C534.39 102.421 536.508 102.862 537.73 104.486C537.814 104.596 537.892 104.71 537.967 104.825C541.595 110.352 545.225 115.877 548.851 121.405C549.928 123.048 549.853 124.972 548.677 126.292C547.098 128.064 544.523 128.135 542.86 126.421C542.605 126.157 542.467 126.171 542.192 126.353C537.767 129.269 533.317 132.146 528.915 135.096C527.095 136.316 525.736 137.954 524.886 140.025C520.466 150.791 516.013 161.545 511.573 172.302C510.922 173.88 510.281 175.462 509.623 177.037C508.894 178.786 507.236 179.887 505.502 179.762C504.253 179.672 503.3 179.025 502.525 178.084C502.361 177.885 502.221 177.666 502.079 177.449C496.394 168.792 490.712 160.134 485.028 151.477L485.027 151.478ZM522.622 141.693C522.717 141.592 522.766 141.471 522.777 141.335C522.98 140.861 523.207 140.395 523.382 139.91C524.368 137.192 526.178 135.154 528.562 133.586C531.676 131.538 534.793 129.496 537.907 127.449C539.146 126.634 540.379 125.811 541.616 124.992C541.778 124.925 541.749 124.824 541.671 124.708C541.509 124.464 541.35 124.218 541.189 123.973C538.766 120.291 536.343 116.609 533.919 112.927C533.363 112.075 532.782 111.237 532.263 110.362C532.021 109.956 531.853 109.962 531.482 110.207C527.033 113.146 522.593 116.097 518.107 118.977C516.146 120.236 513.961 120.899 511.595 120.86C509.787 120.83 507.978 120.815 506.169 120.794C506.003 120.745 505.835 120.731 505.667 120.782C505.263 120.941 505.638 121.098 505.697 121.189C510.801 128.986 515.914 136.776 521.032 144.564C521.102 144.67 521.133 144.874 521.292 144.842C521.459 144.809 521.47 144.615 521.486 144.461L521.495 144.44C521.587 144.351 521.624 144.238 521.629 144.114L521.633 144.1C521.916 143.546 522.168 142.981 522.335 142.38C522.477 142.169 522.589 141.946 522.62 141.689L522.59 141.686L522.621 141.69L522.622 141.693ZM520.087 147.833C520.108 147.787 520.13 147.741 520.151 147.696C520.151 147.696 520.164 147.68 520.163 147.68C520.263 147.461 520.348 147.234 520.466 147.024C520.646 146.7 520.592 146.439 520.387 146.128C515.737 139.066 511.098 131.998 506.458 124.929C505.616 123.646 504.777 122.36 503.928 121.079C503.814 120.905 503.735 120.643 503.428 120.74C503.326 120.73 503.223 120.713 503.121 120.71C493.803 120.543 484.485 120.375 475.168 120.21C473.807 120.186 472.443 120.102 471.087 120.174C468.816 120.293 467.73 122.292 468.869 124.218C469.473 125.24 470.177 126.203 470.837 127.193C471.029 127.499 471.217 127.807 471.415 128.11C481.957 144.168 492.499 160.226 503.041 176.285C503.192 176.516 503.341 176.748 503.497 176.976C504.765 178.831 506.929 178.777 508.095 176.861C508.22 176.656 508.322 176.435 508.414 176.212C510.429 171.335 512.441 166.458 514.452 161.578C516.127 157.513 517.797 153.447 519.471 149.381C519.678 148.862 519.885 148.343 520.093 147.824L520.09 147.832L520.087 147.833ZM536.069 104.839C535.581 104.427 535.005 104.276 534.384 104.332C532.454 104.503 531.477 106.573 532.556 108.224C535.423 112.611 538.304 116.988 541.181 121.37C541.994 122.609 542.802 123.853 543.623 125.087C544.253 126.032 545.318 126.432 546.368 126.138C547.787 125.742 548.615 124.088 547.969 122.94C548.058 122.605 547.81 122.393 547.659 122.163C544.035 116.63 540.404 111.1 536.771 105.573C536.584 105.289 536.403 104.989 536.069 104.839Z" fill="#080708"/>
<path d="M519.468 149.383C517.795 153.45 516.124 157.515 514.449 161.581C512.439 166.46 510.426 171.338 508.411 176.215C508.32 176.438 508.216 176.658 508.092 176.863C506.926 178.78 504.763 178.833 503.495 176.979C503.339 176.751 503.19 176.518 503.038 176.287C492.496 160.229 481.954 144.17 471.413 128.112C471.214 127.81 471.027 127.502 470.835 127.196C470.66 126.662 470.425 126.139 470.5 125.555C470.653 124.347 471.576 123.475 472.913 123.322C474.077 123.189 475.245 123.321 476.41 123.331C479.086 123.354 481.762 123.433 484.437 123.479C487.146 123.526 489.856 123.555 492.566 123.601C495.552 123.654 498.538 123.71 501.524 123.781C502.341 123.801 503.164 123.727 503.977 123.875C504.008 123.911 504.036 123.975 504.071 123.978C504.141 123.984 504.116 123.92 504.112 123.878C504.141 123.859 504.173 123.854 504.206 123.863C504.543 124.333 504.983 124.103 505.351 123.97C505.56 123.895 505.618 123.924 505.699 124.073C505.878 124.404 506.029 124.754 506.234 125.068C510.884 132.206 515.62 139.287 520.231 146.451C520.379 146.679 520.468 146.788 520.204 146.983C519.948 147.172 519.983 147.438 520.162 147.684L520.148 147.699C520.068 147.717 520.054 147.767 520.085 147.836L520.088 147.828C519.706 148.16 519.447 148.567 519.34 149.065C519.311 149.195 519.406 149.286 519.466 149.386L519.468 149.383ZM506.98 141.882C507.054 141.838 507.13 141.797 507.203 141.749C507.601 141.487 507.733 141.082 507.509 140.737C507.262 140.358 506.912 140.303 506.514 140.48C504.823 141.228 503.829 143.338 504.257 145.261C504.681 147.16 506.51 148.668 508.342 148.621C508.728 148.611 508.997 148.419 509.079 148.023C509.151 147.672 509.007 147.403 508.697 147.255C508.533 147.177 508.331 147.169 508.145 147.145C506.91 146.983 505.932 146.117 505.676 144.953C505.409 143.736 505.909 142.557 506.981 141.882L506.98 141.882ZM499.01 154.148C498.042 154.791 497.443 155.684 497.221 156.824C496.762 159.194 498.568 161.543 500.933 161.667C501.356 161.688 501.647 161.518 501.76 161.124C501.862 160.768 501.72 160.47 501.378 160.315C501.21 160.238 501.012 160.225 500.826 160.19C499.876 160.007 499.181 159.49 498.807 158.593C498.205 157.147 498.927 155.609 500.455 155.044C500.987 154.847 501.203 154.503 501.06 154.079C500.923 153.667 500.514 153.519 499.985 153.678C499.634 153.783 499.316 153.949 499.009 154.149L499.01 154.148ZM484.284 140.164C484.483 140.492 484.726 140.782 485 141.045C486.174 142.17 487.573 142.669 489.191 142.552C489.659 142.518 489.967 142.203 489.958 141.807C489.947 141.377 489.617 141.103 489.115 141.108C489.046 141.109 488.977 141.115 488.908 141.116C486.048 141.147 484.199 138.6 485.12 135.894C485.306 135.347 485.186 134.981 484.764 134.818C484.326 134.648 483.943 134.868 483.751 135.419C483.171 137.085 483.344 138.669 484.283 140.164L484.284 140.164ZM493.508 139.134C493.815 138.957 493.865 138.641 493.924 138.338C494.383 136.004 493.319 133.718 491.215 132.583C490.067 131.963 488.834 131.809 487.558 132.093C487.108 132.192 486.883 132.551 486.97 132.97C487.049 133.354 487.391 133.571 487.831 133.514C487.915 133.503 487.999 133.48 488.084 133.466C490.123 133.141 492.014 134.405 492.484 136.413C492.636 137.063 492.592 137.711 492.432 138.357C492.354 138.673 492.452 138.937 492.727 139.12C492.98 139.289 493.244 139.282 493.507 139.133L493.508 139.134ZM512.016 141.908C511.903 141.774 511.697 141.496 511.457 141.252C511.127 140.914 510.696 140.893 510.396 141.166C510.1 141.436 510.101 141.874 510.396 142.229C511.736 143.841 511.607 145.345 510.006 146.709C509.663 147.001 509.577 147.346 509.829 147.71C510.083 148.079 510.452 148.101 510.834 147.893C510.925 147.843 511.008 147.779 511.088 147.714C512.838 146.312 513.257 143.978 512.017 141.909L512.016 141.908ZM504.792 155.507C504.527 155.085 504.158 154.945 503.798 155.134C503.382 155.353 503.29 155.747 503.54 156.24C504.223 157.584 503.95 158.809 502.751 159.775C502.37 160.082 502.281 160.474 502.516 160.807C502.764 161.159 503.207 161.213 503.615 160.94C505.328 159.794 505.88 157.246 504.791 155.509L504.792 155.507ZM492.469 141.011C492.72 140.813 492.845 140.586 492.801 140.281C492.753 139.953 492.56 139.75 492.244 139.678C491.95 139.612 491.671 139.692 491.522 139.951C491.38 140.197 491.243 140.37 490.942 140.449C490.626 140.531 490.514 140.83 490.523 141.146C490.533 141.453 490.703 141.668 490.986 141.771C491.29 141.883 491.597 141.822 491.778 141.562C491.965 141.294 492.096 140.998 492.47 141.009L492.469 141.011ZM486.37 133.37C486.152 133.037 485.708 132.946 485.37 133.164C485.039 133.379 484.943 133.838 485.162 134.165C485.384 134.5 485.833 134.592 486.163 134.37C486.502 134.143 486.592 133.708 486.371 133.37L486.37 133.37ZM509.403 141.378C509.724 141.157 509.803 140.698 509.576 140.367C509.346 140.032 508.917 139.961 508.577 140.2C508.234 140.441 508.155 140.865 508.391 141.198C508.616 141.518 509.08 141.6 509.403 141.378ZM503.088 154.045C502.867 153.699 502.441 153.6 502.099 153.816C501.763 154.028 501.661 154.478 501.872 154.811C502.086 155.148 502.524 155.246 502.868 155.033C503.218 154.816 503.312 154.395 503.088 154.045Z" fill="#F3959A" fill-opacity="0.93"/>
<path d="M505.667 120.786C505.836 120.735 506.003 120.749 506.169 120.798C506.901 121.632 507.446 122.595 508.034 123.525C508.196 123.781 508.322 123.888 508.619 123.891C509.769 123.903 510.921 123.93 512.071 123.976C514.06 124.055 516.029 123.995 517.904 123.214C518.242 123.326 518.555 123.281 518.847 123.077C519.61 122.545 520.413 122.072 521.188 121.556C524.651 119.255 528.13 116.977 531.616 114.71C532.135 114.373 532.579 113.863 533.271 113.839C533.328 113.837 533.392 113.773 533.437 113.722C533.821 113.293 533.942 113.298 534.262 113.786C536.714 117.521 539.165 121.258 541.615 124.994C540.378 125.814 539.145 126.637 537.906 127.452C534.792 129.5 531.674 131.541 528.562 133.589C526.177 135.157 524.366 137.196 523.381 139.913C523.206 140.397 522.979 140.864 522.776 141.338C522.631 141.417 522.471 141.489 522.622 141.696L522.591 141.691L522.621 141.695C522.297 141.83 522.198 142.058 522.336 142.384C521.889 142.87 521.548 143.399 521.634 144.103C521.634 144.103 521.63 144.118 521.629 144.117C521.462 144.175 521.272 144.224 521.495 144.443L521.487 144.464C521.105 144.554 521.031 144.222 520.891 144.009C516.147 136.792 511.409 129.573 506.67 122.352C506.33 121.833 506.002 121.308 505.667 120.785L505.667 120.786ZM536.789 124.065C536.716 123.969 536.852 123.639 536.498 123.873C533.907 125.593 531.302 127.295 528.701 129.002C528.439 129.174 528.271 129.389 528.372 129.726C528.332 130.078 528.321 130.42 528.696 130.623C529.048 130.814 529.346 130.696 529.653 130.492C532.182 128.825 534.717 127.163 537.251 125.503C537.59 125.281 537.863 125.023 537.728 124.577C537.587 124.116 537.227 124.006 536.788 124.066L536.789 124.065ZM539.22 124.205C539.554 123.994 539.659 123.544 539.451 123.212C539.24 122.875 538.79 122.771 538.458 122.981C538.119 123.196 538.017 123.635 538.227 123.974C538.438 124.314 538.883 124.417 539.22 124.205ZM527.682 131.778C528.005 131.553 528.084 131.104 527.857 130.774C527.632 130.45 527.181 130.369 526.854 130.597C526.531 130.823 526.448 131.287 526.675 131.601C526.908 131.925 527.355 132.004 527.681 131.777L527.682 131.778Z" fill="#85D4F5"/>
<path d="M547.968 122.943C548.614 124.092 547.787 125.745 546.367 126.142C545.317 126.436 544.251 126.036 543.622 125.091C542.801 123.856 541.993 122.613 541.179 121.374C538.303 116.992 535.422 112.615 532.554 108.227C531.475 106.576 532.453 104.508 534.383 104.335C535.003 104.28 535.579 104.431 536.068 104.843C540.035 110.876 544 116.909 547.968 122.943Z" fill="#85D4F5"/>
<path d="M504.207 123.863C504.173 123.854 504.142 123.86 504.113 123.878C504.069 123.878 504.024 123.876 503.979 123.875C503.166 123.727 502.343 123.801 501.526 123.781C498.54 123.709 495.554 123.653 492.568 123.601C489.859 123.554 487.149 123.525 484.439 123.478C481.763 123.432 479.088 123.353 476.412 123.33C475.247 123.321 474.079 123.189 472.916 123.322C471.578 123.475 470.655 124.347 470.502 125.555C470.427 126.139 470.663 126.662 470.837 127.196C470.178 126.206 469.474 125.243 468.869 124.221C467.73 122.295 468.816 120.295 471.088 120.177C472.444 120.106 473.808 120.19 475.168 120.214C484.486 120.379 493.804 120.546 503.121 120.714C503.224 120.716 503.326 120.733 503.428 120.743C503.862 121.426 504.306 122.104 504.726 122.796C504.918 123.11 505.362 123.439 505.218 123.742C505.092 124.008 504.556 123.795 504.209 123.863L504.207 123.863Z" fill="#FBFAFA"/>
<path d="M517.907 123.212C516.032 123.993 514.063 124.053 512.074 123.974C510.924 123.928 509.773 123.902 508.622 123.889C508.325 123.886 508.198 123.78 508.037 123.523C507.449 122.593 506.904 121.63 506.173 120.796C507.981 120.817 509.79 120.832 511.599 120.863C513.965 120.902 516.15 120.239 518.111 118.98C522.597 116.1 527.038 113.149 531.486 110.21C531.857 109.964 532.026 109.958 532.267 110.365C532.786 111.24 533.367 112.077 533.923 112.93C533.872 113.089 533.75 113.18 533.615 113.263C528.347 116.527 523.44 120.363 517.909 123.213L517.907 123.212Z" fill="#FBFDFD"/>
<path d="M504.207 123.866C504.555 123.797 505.091 124.01 505.217 123.744C505.36 123.442 504.915 123.113 504.725 122.798C504.304 122.107 503.861 121.43 503.426 120.746C503.734 120.649 503.812 120.911 503.927 121.085C504.775 122.365 505.614 123.651 506.457 124.935C511.097 132.004 515.736 139.072 520.385 146.134C520.59 146.445 520.645 146.706 520.464 147.03C520.348 147.24 520.262 147.467 520.162 147.685C519.984 147.44 519.948 147.174 520.204 146.985C520.468 146.79 520.378 146.681 520.232 146.453C515.62 139.289 510.883 132.208 506.234 125.069C506.029 124.755 505.879 124.405 505.699 124.075C505.618 123.926 505.56 123.897 505.351 123.972C504.983 124.105 504.543 124.336 504.206 123.865L504.207 123.866Z" fill="#E99CA4"/>
<path d="M505.669 120.788C506.004 121.311 506.332 121.836 506.672 122.355C511.411 129.576 516.149 136.795 520.893 144.012C521.033 144.225 521.107 144.557 521.489 144.467C521.472 144.621 521.462 144.813 521.294 144.848C521.136 144.88 521.105 144.676 521.035 144.57C515.917 136.782 510.804 128.993 505.7 121.195C505.64 121.104 505.266 120.947 505.669 120.788Z" fill="#85B7CE"/>
<path d="M517.905 123.216C523.436 120.365 528.342 116.53 533.611 113.266C533.744 113.183 533.868 113.092 533.918 112.932C536.341 116.614 538.765 120.296 541.189 123.979C541.349 124.224 541.508 124.469 541.671 124.713C541.748 124.83 541.778 124.93 541.615 124.997C539.165 121.261 536.714 117.524 534.262 113.789C533.942 113.301 533.821 113.296 533.437 113.725C533.393 113.775 533.329 113.839 533.271 113.842C532.578 113.867 532.135 114.375 531.616 114.713C528.13 116.98 524.651 119.258 521.188 121.559C520.413 122.075 519.611 122.548 518.847 123.08C518.556 123.284 518.242 123.329 517.904 123.217L517.905 123.216Z" fill="#A4C6D3"/>
<path d="M547.966 122.947C543.999 116.914 540.033 110.88 536.066 104.846C536.398 104.996 536.579 105.296 536.767 105.581C540.4 111.108 544.032 116.637 547.655 122.17C547.806 122.401 548.054 122.612 547.966 122.947Z" fill="#70A8B8"/>
<path d="M521.634 144.105C521.547 143.401 521.89 142.872 522.336 142.386C522.169 142.986 521.916 143.553 521.634 144.105Z" fill="#85B7CE"/>
<path d="M519.47 149.381C519.409 149.281 519.315 149.191 519.344 149.06C519.451 148.564 519.71 148.156 520.092 147.823C519.885 148.342 519.678 148.861 519.47 149.381Z" fill="#E99CA4"/>
<path d="M522.336 142.382C522.198 142.056 522.298 141.827 522.622 141.692C522.591 141.949 522.478 142.17 522.336 142.382Z" fill="#85B7CE"/>
<path d="M521.493 144.442C521.269 144.223 521.46 144.174 521.628 144.116C521.623 144.24 521.586 144.353 521.493 144.442Z" fill="#85B7CE"/>
<path d="M522.622 141.7C522.472 141.493 522.632 141.42 522.776 141.342C522.764 141.478 522.716 141.599 522.622 141.7Z" fill="#85B7CE"/>
<path d="M520.083 147.836C520.052 147.765 520.066 147.714 520.148 147.695C520.127 147.742 520.105 147.788 520.083 147.836Z" fill="#E99CA4"/>
<path d="M506.979 141.885C505.908 142.56 505.407 143.738 505.675 144.956C505.93 146.119 506.908 146.985 508.143 147.147C508.331 147.172 508.531 147.179 508.695 147.257C509.007 147.405 509.15 147.674 509.078 148.025C508.997 148.42 508.728 148.613 508.34 148.623C506.509 148.67 504.679 147.162 504.256 145.264C503.826 143.34 504.822 141.23 506.512 140.482C506.911 140.306 507.262 140.359 507.508 140.74C507.732 141.085 507.6 141.49 507.201 141.751C507.129 141.798 507.054 141.84 506.979 141.884L506.979 141.885Z" fill="#0E0606"/>
<path d="M499.008 154.149C499.313 153.949 499.633 153.783 499.984 153.678C500.512 153.519 500.921 153.667 501.059 154.079C501.202 154.504 500.986 154.848 500.453 155.044C498.925 155.609 498.203 157.147 498.806 158.593C499.179 159.49 499.874 160.007 500.825 160.19C501.01 160.225 501.208 160.238 501.376 160.315C501.718 160.47 501.86 160.769 501.758 161.124C501.645 161.518 501.355 161.689 500.931 161.667C498.567 161.543 496.76 159.194 497.22 156.824C497.441 155.684 498.04 154.791 499.009 154.148L499.008 154.149Z" fill="#0E0606"/>
<path d="M484.283 140.164C483.343 138.669 483.171 137.085 483.75 135.419C483.942 134.866 484.325 134.648 484.764 134.818C485.185 134.981 485.306 135.347 485.12 135.894C484.199 138.599 486.047 141.149 488.908 141.116C488.977 141.115 489.046 141.108 489.115 141.108C489.617 141.103 489.947 141.376 489.958 141.806C489.967 142.203 489.66 142.517 489.19 142.552C487.572 142.669 486.172 142.17 485 141.045C484.726 140.782 484.483 140.491 484.284 140.163L484.283 140.164Z" fill="#0E0606"/>
<path d="M493.508 139.133C493.246 139.281 492.982 139.288 492.728 139.12C492.453 138.938 492.355 138.673 492.433 138.356C492.593 137.711 492.637 137.064 492.485 136.413C492.014 134.405 490.123 133.14 488.085 133.466C488 133.48 487.917 133.503 487.831 133.513C487.392 133.57 487.049 133.353 486.971 132.969C486.885 132.551 487.109 132.193 487.559 132.092C488.835 131.809 490.068 131.962 491.216 132.583C493.319 133.719 494.382 136.003 493.924 138.338C493.865 138.64 493.816 138.957 493.509 139.134L493.508 139.133Z" fill="#0E0606"/>
<path d="M512.014 141.911C513.254 143.981 512.835 146.314 511.085 147.716C511.004 147.78 510.922 147.845 510.831 147.895C510.449 148.103 510.081 148.08 509.825 147.712C509.574 147.348 509.659 147.004 510.003 146.711C511.605 145.347 511.733 143.843 510.393 142.231C510.098 141.876 510.097 141.438 510.393 141.168C510.693 140.894 511.123 140.916 511.454 141.254C511.693 141.498 511.9 141.776 512.013 141.91L512.014 141.911Z" fill="#0E0606"/>
<path d="M504.791 155.514C505.88 157.253 505.327 159.799 503.614 160.945C503.206 161.218 502.762 161.165 502.515 160.813C502.28 160.48 502.37 160.088 502.751 159.781C503.948 158.815 504.222 157.59 503.539 156.245C503.289 155.753 503.381 155.358 503.798 155.14C504.157 154.951 504.526 155.09 504.791 155.513L504.791 155.514Z" fill="#0E0606"/>
<path d="M492.469 141.012C492.095 141.001 491.964 141.296 491.777 141.565C491.596 141.825 491.289 141.885 490.985 141.774C490.702 141.671 490.532 141.456 490.522 141.149C490.513 140.833 490.625 140.534 490.941 140.452C491.241 140.373 491.379 140.201 491.521 139.953C491.67 139.693 491.95 139.614 492.243 139.681C492.559 139.753 492.752 139.956 492.8 140.284C492.845 140.588 492.719 140.815 492.468 141.013L492.469 141.012Z" fill="#180A0B"/>
<path d="M486.37 133.372C486.592 133.709 486.5 134.145 486.163 134.372C485.834 134.594 485.386 134.502 485.162 134.167C484.944 133.839 485.039 133.381 485.37 133.166C485.707 132.948 486.152 133.038 486.37 133.371L486.37 133.372Z" fill="#180A0B"/>
<path d="M509.404 141.375C509.08 141.598 508.617 141.515 508.392 141.196C508.157 140.862 508.235 140.439 508.577 140.198C508.917 139.958 509.347 140.03 509.577 140.365C509.804 140.695 509.725 141.156 509.404 141.375Z" fill="#180A0B"/>
<path d="M503.087 154.045C503.31 154.395 503.216 154.816 502.866 155.032C502.522 155.245 502.084 155.147 501.871 154.811C501.659 154.478 501.762 154.027 502.097 153.816C502.439 153.6 502.865 153.698 503.087 154.045Z" fill="#180A0B"/>
<path d="M503.974 123.876C504.02 123.878 504.066 123.878 504.111 123.88C504.115 123.923 504.142 123.988 504.07 123.982C504.035 123.98 504.006 123.914 503.974 123.877L503.974 123.876Z" fill="#E99CA4"/>
<path d="M536.791 124.066C537.23 124.007 537.589 124.117 537.73 124.577C537.865 125.023 537.593 125.281 537.254 125.504C534.719 127.163 532.185 128.825 529.656 130.492C529.348 130.695 529.05 130.814 528.698 130.623C528.323 130.42 528.334 130.079 528.375 129.726C528.543 129.505 528.761 129.344 528.992 129.192C531.593 127.486 534.193 125.776 536.792 124.066L536.791 124.066Z" fill="#03070B"/>
<path d="M536.79 124.06C534.19 125.77 531.592 127.48 528.99 129.187C528.759 129.339 528.541 129.5 528.373 129.721C528.273 129.384 528.441 129.168 528.702 128.997C531.303 127.29 533.907 125.589 536.499 123.868C536.853 123.634 536.717 123.965 536.79 124.06Z" fill="#90CEE4"/>
<path d="M539.22 124.207C538.884 124.419 538.439 124.316 538.228 123.976C538.018 123.637 538.12 123.198 538.459 122.983C538.79 122.773 539.24 122.878 539.452 123.213C539.66 123.546 539.556 123.997 539.22 124.207Z" fill="#0A1119"/>
<path d="M527.682 131.78C527.356 132.007 526.909 131.928 526.676 131.604C526.449 131.29 526.532 130.826 526.855 130.6C527.182 130.372 527.633 130.453 527.858 130.777C528.085 131.106 528.006 131.556 527.683 131.781L527.682 131.78Z" fill="#0A1119"/>
<path d="M642.606 164.949C645.97 161.201 649.334 157.454 652.695 153.703C653.033 153.327 653.409 153.014 653.903 152.875C654.965 152.576 656.002 153.219 656.321 154.406C656.599 155.444 656.837 156.493 657.094 157.537C658.006 161.248 658.918 164.959 659.829 168.671C660.222 170.269 660.616 171.868 661.004 173.467C661.243 174.454 661.76 175.289 662.495 175.962C664.416 177.723 666.368 179.45 668.304 181.195C668.444 181.32 668.524 181.315 668.673 181.203C669.435 180.625 670.524 180.704 671.161 181.366C671.854 182.086 671.91 183.138 671.297 183.916C671.256 183.969 671.212 184.02 671.167 184.07C669.016 186.467 666.866 188.864 664.714 191.259C664.075 191.971 663.159 192.175 662.392 191.786C661.36 191.263 661.006 190.059 661.607 189.063C661.699 188.91 661.675 188.847 661.556 188.74C659.632 187.019 657.722 185.282 655.785 183.576C654.984 182.871 654.044 182.435 652.963 182.293C647.342 181.552 641.724 180.794 636.105 180.042C635.282 179.932 634.457 179.827 633.633 179.714C632.719 179.588 631.994 178.945 631.837 178.112C631.724 177.513 631.91 176.984 632.256 176.502C632.33 176.399 632.415 176.306 632.5 176.212C635.868 172.458 639.238 168.704 642.607 164.949L642.606 164.949ZM651.895 181.434C651.954 181.467 652.017 181.474 652.083 181.463C652.331 181.499 652.579 181.548 652.829 181.57C654.232 181.696 655.417 182.295 656.452 183.222C657.804 184.433 659.154 185.647 660.506 186.858C661.044 187.341 661.585 187.819 662.125 188.299C662.176 188.367 662.22 188.341 662.265 188.29C662.36 188.183 662.456 188.078 662.551 187.971C663.983 186.372 665.415 184.772 666.848 183.172C667.18 182.805 667.502 182.427 667.849 182.073C668.01 181.908 667.987 181.83 667.825 181.686C665.887 179.957 663.945 178.234 662.03 176.48C661.193 175.713 660.608 174.767 660.332 173.648C660.121 172.792 659.903 171.939 659.688 171.084C659.69 171 659.676 170.919 659.631 170.846C659.506 170.676 659.478 170.872 659.443 170.911C656.407 174.285 653.376 177.663 650.345 181.043C650.304 181.089 650.212 181.129 650.247 181.2C650.283 181.275 650.376 181.255 650.45 181.244L650.461 181.245C650.515 181.278 650.572 181.281 650.631 181.268L650.639 181.268C650.934 181.332 651.232 181.381 651.536 181.385C651.653 181.425 651.772 181.45 651.897 181.433L651.895 181.418L651.896 181.433L651.895 181.434ZM648.688 181.005C648.712 181.009 648.737 181.014 648.761 181.018C648.761 181.018 648.77 181.022 648.77 181.022C648.885 181.041 649.003 181.053 649.116 181.083C649.291 181.127 649.408 181.069 649.528 180.934C652.275 177.865 655.026 174.801 657.777 171.736C658.276 171.179 658.777 170.624 659.275 170.065C659.342 169.989 659.456 169.919 659.372 169.787C659.364 169.737 659.359 169.687 659.348 169.639C658.266 165.23 657.186 160.821 656.103 156.413C655.945 155.77 655.815 155.117 655.612 154.487C655.273 153.432 654.196 153.17 653.431 153.946C653.025 154.358 652.659 154.809 652.275 155.243C652.155 155.372 652.033 155.499 651.916 155.63C645.666 162.593 639.417 169.557 633.168 176.52C633.078 176.621 632.987 176.72 632.899 176.821C632.183 177.65 632.478 178.662 633.526 178.972C633.638 179.005 633.755 179.026 633.871 179.042C636.418 179.383 638.966 179.723 641.514 180.063C643.637 180.345 645.76 180.626 647.883 180.908C648.153 180.941 648.423 180.974 648.693 181.007L648.689 181.006L648.688 181.005ZM670.924 183.178C671.057 182.897 671.056 182.606 670.953 182.321C670.632 181.434 669.536 181.231 668.893 181.945C667.184 183.841 665.481 185.743 663.776 187.643C663.294 188.181 662.809 188.716 662.33 189.256C661.963 189.67 661.907 190.222 662.177 190.68C662.54 191.299 663.422 191.482 663.882 191.035C664.051 191.035 664.12 190.892 664.209 190.792C666.364 188.397 668.515 185.999 670.666 183.6C670.776 183.476 670.895 183.354 670.924 183.178Z" fill="#080708"/>
<path d="M647.879 180.907C645.756 180.625 643.633 180.344 641.51 180.062C638.962 179.723 636.415 179.382 633.867 179.041C633.751 179.025 633.634 179.004 633.522 178.971C632.474 178.661 632.18 177.649 632.895 176.821C632.983 176.719 633.074 176.62 633.164 176.519C639.413 169.556 645.663 162.592 651.912 155.629C652.03 155.498 652.152 155.371 652.272 155.243C652.501 155.094 652.718 154.918 653.003 154.88C653.59 154.802 654.116 155.128 654.355 155.739C654.562 156.27 654.646 156.837 654.786 157.387C655.108 158.65 655.404 159.919 655.716 161.185C656.031 162.466 656.354 163.746 656.67 165.028C657.017 166.441 657.363 167.854 657.701 169.269C657.793 169.656 657.93 170.034 657.962 170.436C657.949 170.455 657.923 170.476 657.925 170.493C657.931 170.526 657.958 170.507 657.977 170.5C657.99 170.511 657.996 170.525 657.996 170.542C657.817 170.76 657.98 170.938 658.088 171.095C658.149 171.184 658.143 171.215 658.083 171.271C657.949 171.397 657.804 171.511 657.681 171.647C654.899 174.726 652.154 177.838 649.355 180.901C649.266 180.999 649.226 181.054 649.101 180.954C648.98 180.857 648.859 180.907 648.766 181.022L648.757 181.017C648.738 180.982 648.713 180.981 648.684 181.004L648.689 181.005C648.485 180.867 648.261 180.795 648.013 180.807C647.948 180.809 647.917 180.865 647.877 180.906L647.879 180.907ZM649.857 174.092C649.886 174.121 649.915 174.152 649.947 174.18C650.12 174.335 650.327 174.347 650.461 174.199C650.609 174.035 650.591 173.863 650.458 173.698C649.896 172.995 648.778 172.789 647.926 173.231C647.085 173.666 646.602 174.716 646.853 175.572C646.905 175.753 647.029 175.856 647.226 175.845C647.4 175.835 647.509 175.734 647.54 175.569C647.556 175.482 647.535 175.386 647.523 175.296C647.445 174.694 647.732 174.126 648.248 173.86C648.788 173.583 649.405 173.672 649.856 174.092L649.857 174.092ZM643.088 171.866C642.665 171.49 642.17 171.319 641.605 171.357C640.432 171.436 639.55 172.579 639.787 173.708C639.829 173.91 639.946 174.026 640.146 174.03C640.326 174.033 640.449 173.929 640.479 173.749C640.494 173.66 640.475 173.566 640.469 173.474C640.437 173.003 640.594 172.612 640.97 172.324C641.576 171.86 642.39 172.009 642.846 172.658C643.005 172.884 643.194 172.943 643.376 172.823C643.553 172.707 643.571 172.496 643.431 172.267C643.338 172.115 643.22 171.985 643.088 171.866L643.088 171.866ZM647.84 163.19C647.71 163.325 647.603 163.475 647.514 163.638C647.13 164.33 647.069 165.051 647.326 165.798C647.4 166.015 647.587 166.12 647.772 166.067C647.973 166.008 648.061 165.819 647.996 165.583C647.988 165.551 647.976 165.519 647.967 165.487C647.596 164.143 648.566 162.956 649.954 163.053C650.235 163.072 650.392 162.97 650.417 162.751C650.442 162.523 650.291 162.37 650.008 162.348C649.151 162.283 648.426 162.562 647.839 163.19L647.84 163.19ZM649.473 167.406C649.595 167.529 649.75 167.512 649.9 167.502C651.056 167.428 652 166.642 652.272 165.511C652.421 164.892 652.34 164.293 652.048 163.727C651.945 163.528 651.748 163.467 651.562 163.56C651.391 163.645 651.331 163.833 651.413 164.033C651.428 164.071 651.45 164.108 651.467 164.146C651.874 165.065 651.514 166.114 650.627 166.585C650.34 166.737 650.029 166.798 649.705 166.803C649.546 166.805 649.434 166.884 649.382 167.036C649.334 167.176 649.37 167.3 649.473 167.405L649.473 167.406ZM650.471 176.467C650.52 176.397 650.625 176.265 650.711 176.122C650.828 175.924 650.785 175.719 650.619 175.611C650.455 175.506 650.249 175.561 650.118 175.744C649.526 176.576 648.802 176.702 647.96 176.118C647.78 175.993 647.607 175.995 647.466 176.159C647.325 176.325 647.36 176.501 647.506 176.655C647.54 176.692 647.581 176.723 647.621 176.752C648.5 177.402 649.651 177.309 650.471 176.467L650.471 176.467ZM643.168 174.758C643.334 174.581 643.353 174.39 643.22 174.244C643.065 174.075 642.868 174.081 642.667 174.26C642.119 174.749 641.508 174.773 640.904 174.329C640.712 174.187 640.516 174.194 640.389 174.346C640.254 174.507 640.284 174.722 640.463 174.88C641.216 175.544 642.484 175.487 643.167 174.758L643.168 174.758ZM648.46 167.15C648.584 167.244 648.707 167.274 648.845 167.216C648.993 167.152 649.065 167.036 649.059 166.879C649.054 166.732 648.981 166.61 648.841 166.572C648.707 166.536 648.609 166.493 648.534 166.361C648.456 166.223 648.301 166.207 648.154 166.251C648.011 166.293 647.931 166.401 647.917 166.546C647.902 166.703 647.969 166.841 648.114 166.894C648.264 166.948 648.419 166.973 648.461 167.15L648.46 167.15ZM651.299 163.327C651.428 163.183 651.416 162.962 651.271 162.831C651.128 162.701 650.901 162.713 650.774 162.857C650.644 163.003 650.656 163.226 650.802 163.354C650.951 163.485 651.167 163.474 651.298 163.327L651.299 163.327ZM650.396 175.17C650.539 175.294 650.766 175.274 650.893 175.126C651.022 174.976 651.002 174.765 650.847 174.634C650.691 174.503 650.482 174.519 650.354 174.671C650.232 174.817 650.251 175.046 650.396 175.17ZM643.644 173.774C643.78 173.627 643.773 173.413 643.629 173.279C643.487 173.148 643.263 173.155 643.132 173.297C643 173.439 643.009 173.658 643.152 173.793C643.297 173.931 643.507 173.923 643.644 173.774Z" fill="#F3959A" fill-opacity="0.93"/>
<path d="M659.629 170.849C659.674 170.922 659.688 171.002 659.686 171.087C659.384 171.535 658.998 171.912 658.634 172.304C658.533 172.412 658.499 172.485 658.534 172.625C658.672 173.169 658.802 173.714 658.924 174.262C659.135 175.208 659.408 176.128 660.009 176.914C659.999 177.086 660.059 177.229 660.191 177.34C660.537 177.634 660.859 177.953 661.199 178.254C662.714 179.598 664.22 180.952 665.721 182.311C665.945 182.514 666.24 182.66 666.337 182.983C666.345 183.009 666.384 183.031 666.413 183.046C666.663 183.174 666.676 183.231 666.486 183.443C665.032 185.062 663.578 186.682 662.123 188.301C661.583 187.82 661.042 187.342 660.504 186.86C659.152 185.649 657.803 184.434 656.451 183.224C655.415 182.296 654.23 181.697 652.828 181.572C652.578 181.55 652.33 181.501 652.081 181.464C652.026 181.406 651.972 181.34 651.894 181.436L651.892 181.421L651.894 181.436C651.79 181.3 651.67 181.282 651.534 181.387C651.249 181.238 650.958 181.143 650.637 181.271C650.637 181.271 650.63 181.271 650.63 181.27C650.582 181.199 650.535 181.115 650.46 181.248L650.449 181.247C650.359 181.078 650.506 181.002 650.589 180.909C653.396 177.777 656.206 174.647 659.016 171.516C659.218 171.291 659.425 171.071 659.63 170.849L659.629 170.849ZM661.96 185.913C661.996 185.866 662.169 185.889 662.014 185.752C660.881 184.745 659.756 183.731 658.628 182.718C658.515 182.617 658.392 182.564 658.246 182.654C658.075 182.679 657.913 182.716 657.864 182.918C657.818 183.107 657.911 183.233 658.045 183.352C659.145 184.336 660.243 185.322 661.34 186.309C661.487 186.441 661.643 186.537 661.836 186.418C662.035 186.295 662.042 186.111 661.959 185.912L661.96 185.913ZM662.197 187.074C662.338 187.206 662.563 187.199 662.693 187.06C662.825 186.919 662.818 186.693 662.678 186.563C662.535 186.431 662.315 186.437 662.182 186.578C662.048 186.72 662.055 186.942 662.197 187.074ZM657.194 182.584C657.34 182.708 657.562 182.69 657.688 182.542C657.813 182.395 657.795 182.173 657.647 182.047C657.5 181.923 657.272 181.942 657.152 182.088C657.028 182.238 657.047 182.458 657.194 182.584L657.194 182.584Z" fill="#85D4F5"/>
<path d="M663.879 191.036C663.419 191.483 662.537 191.3 662.173 190.681C661.904 190.223 661.96 189.671 662.327 189.257C662.805 188.717 663.29 188.182 663.773 187.644C665.478 185.744 667.181 183.842 668.889 181.946C669.533 181.232 670.629 181.435 670.95 182.322C671.053 182.607 671.054 182.898 670.921 183.179C668.574 185.798 666.226 188.417 663.879 191.036Z" fill="#85D4F5"/>
<path d="M657.997 170.543C657.996 170.525 657.99 170.511 657.978 170.5C657.972 170.479 657.967 170.458 657.963 170.437C657.931 170.035 657.794 169.657 657.701 169.27C657.364 167.855 657.018 166.442 656.671 165.029C656.355 163.747 656.032 162.468 655.716 161.186C655.405 159.92 655.109 158.65 654.787 157.388C654.646 156.838 654.563 156.271 654.355 155.74C654.117 155.129 653.591 154.803 653.003 154.881C652.719 154.919 652.502 155.095 652.272 155.244C652.656 154.81 653.022 154.358 653.428 153.946C654.193 153.17 655.27 153.432 655.609 154.488C655.811 155.117 655.941 155.77 656.099 156.414C657.182 160.822 658.263 165.231 659.344 169.639C659.356 169.688 659.361 169.738 659.369 169.787C659.101 170.077 658.837 170.37 658.564 170.654C658.44 170.783 658.34 171.034 658.18 171.004C658.038 170.977 658.072 170.699 657.997 170.543L657.997 170.543Z" fill="#FBFAFA"/>
<path d="M660.01 176.913C659.408 176.127 659.135 175.207 658.925 174.261C658.803 173.714 658.672 173.168 658.535 172.625C658.499 172.484 658.534 172.411 658.634 172.304C658.999 171.911 659.385 171.535 659.686 171.086C659.902 171.941 660.12 172.794 660.331 173.65C660.607 174.769 661.191 175.715 662.028 176.482C663.943 178.236 665.885 179.96 667.823 181.688C667.985 181.833 668.009 181.911 667.847 182.075C667.5 182.429 667.178 182.806 666.846 183.175C666.765 183.17 666.707 183.124 666.65 183.071C664.457 180.997 662.04 179.164 660.01 176.914L660.01 176.913Z" fill="#FBFDFD"/>
<path d="M657.996 170.542C658.072 170.697 658.038 170.976 658.179 171.002C658.339 171.032 658.439 170.782 658.563 170.653C658.837 170.368 659.1 170.075 659.368 169.786C659.452 169.918 659.338 169.988 659.271 170.064C658.774 170.622 658.273 171.178 657.773 171.734C655.022 174.8 652.271 177.864 649.525 180.933C649.403 181.068 649.287 181.126 649.112 181.082C648.999 181.053 648.882 181.04 648.766 181.021C648.86 180.906 648.98 180.856 649.101 180.953C649.226 181.053 649.266 180.997 649.355 180.9C652.155 177.837 654.899 174.724 657.682 171.646C657.804 171.511 657.95 171.396 658.084 171.27C658.144 171.214 658.15 171.183 658.089 171.094C657.98 170.937 657.817 170.758 657.997 170.541L657.996 170.542Z" fill="#E99CA4"/>
<path d="M659.627 170.848C659.422 171.071 659.215 171.291 659.014 171.516C656.203 174.646 653.394 177.776 650.586 180.909C650.503 181.001 650.356 181.078 650.446 181.246C650.371 181.258 650.279 181.277 650.242 181.202C650.207 181.131 650.299 181.091 650.341 181.045C653.371 177.666 656.402 174.288 659.439 170.914C659.474 170.874 659.501 170.678 659.627 170.848Z" fill="#85B7CE"/>
<path d="M660.008 176.912C662.039 179.162 664.456 180.995 666.649 183.069C666.705 183.122 666.763 183.169 666.844 183.173C665.412 184.772 663.98 186.372 662.548 187.972C662.452 188.078 662.356 188.183 662.262 188.29C662.217 188.341 662.173 188.368 662.121 188.3C663.576 186.68 665.03 185.061 666.484 183.441C666.674 183.23 666.661 183.172 666.411 183.045C666.382 183.031 666.344 183.008 666.335 182.981C666.237 182.658 665.943 182.513 665.719 182.31C664.218 180.951 662.712 179.596 661.197 178.252C660.857 177.951 660.535 177.633 660.189 177.339C660.057 177.227 659.996 177.085 660.007 176.912L660.008 176.912Z" fill="#A4C6D3"/>
<path d="M663.879 191.034C666.226 188.415 668.573 185.797 670.921 183.177C670.892 183.352 670.773 183.475 670.662 183.599C668.512 185.998 666.36 188.396 664.206 190.792C664.116 190.892 664.048 191.035 663.879 191.034Z" fill="#70A8B8"/>
<path d="M650.636 181.269C650.957 181.141 651.249 181.236 651.533 181.386C651.23 181.382 650.931 181.333 650.636 181.269Z" fill="#85B7CE"/>
<path d="M647.88 180.908C647.92 180.867 647.951 180.811 648.016 180.809C648.263 180.797 648.487 180.868 648.691 181.007C648.421 180.974 648.151 180.941 647.88 180.908Z" fill="#E99CA4"/>
<path d="M651.535 181.386C651.671 181.28 651.791 181.299 651.895 181.434C651.771 181.452 651.652 181.426 651.535 181.386Z" fill="#85B7CE"/>
<path d="M650.458 181.246C650.533 181.113 650.58 181.197 650.629 181.268C650.569 181.281 650.512 181.278 650.458 181.246Z" fill="#85B7CE"/>
<path d="M651.892 181.435C651.97 181.339 652.024 181.405 652.079 181.463C652.014 181.474 651.951 181.467 651.892 181.435Z" fill="#85B7CE"/>
<path d="M648.686 181.004C648.716 180.981 648.741 180.981 648.76 181.017C648.736 181.013 648.711 181.009 648.686 181.004Z" fill="#E99CA4"/>
<path d="M649.857 174.092C649.406 173.671 648.788 173.582 648.248 173.86C647.732 174.125 647.446 174.693 647.524 175.295C647.535 175.386 647.557 175.482 647.541 175.569C647.51 175.734 647.401 175.835 647.227 175.844C647.03 175.855 646.906 175.753 646.853 175.572C646.603 174.715 647.085 173.666 647.927 173.23C648.779 172.788 649.897 172.994 650.459 173.697C650.592 173.863 650.61 174.035 650.462 174.198C650.327 174.347 650.12 174.335 649.947 174.18C649.916 174.152 649.887 174.121 649.857 174.091L649.857 174.092Z" fill="#0E0606"/>
<path d="M643.088 171.866C643.22 171.985 643.338 172.115 643.431 172.267C643.571 172.496 643.553 172.707 643.376 172.823C643.194 172.943 643.005 172.885 642.846 172.658C642.39 172.009 641.576 171.86 640.97 172.324C640.594 172.612 640.437 173.003 640.469 173.474C640.476 173.566 640.494 173.66 640.479 173.749C640.449 173.929 640.325 174.034 640.146 174.03C639.946 174.025 639.83 173.91 639.787 173.708C639.551 172.579 640.432 171.436 641.605 171.357C642.17 171.319 642.665 171.49 643.088 171.866L643.088 171.866Z" fill="#0E0606"/>
<path d="M647.841 163.189C648.429 162.561 649.153 162.283 650.01 162.348C650.294 162.369 650.444 162.523 650.419 162.75C650.394 162.969 650.237 163.071 649.956 163.052C648.568 162.955 647.597 164.143 647.969 165.486C647.978 165.518 647.99 165.55 647.999 165.582C648.064 165.818 647.976 166.007 647.775 166.066C647.589 166.12 647.403 166.014 647.328 165.798C647.071 165.05 647.132 164.329 647.516 163.637C647.606 163.475 647.712 163.324 647.842 163.19L647.841 163.189Z" fill="#0E0606"/>
<path d="M649.474 167.406C649.371 167.301 649.335 167.177 649.383 167.037C649.434 166.885 649.547 166.806 649.706 166.803C650.03 166.798 650.34 166.738 650.627 166.585C651.514 166.114 651.874 165.066 651.467 164.147C651.45 164.108 651.429 164.072 651.413 164.033C651.332 163.833 651.392 163.645 651.562 163.56C651.749 163.468 651.945 163.529 652.049 163.728C652.341 164.293 652.422 164.893 652.273 165.511C652 166.643 651.056 167.428 649.9 167.503C649.75 167.513 649.595 167.529 649.474 167.406L649.474 167.406Z" fill="#0E0606"/>
<path d="M650.47 176.465C649.65 177.307 648.499 177.4 647.621 176.75C647.58 176.72 647.54 176.69 647.505 176.653C647.359 176.499 647.324 176.323 647.466 176.157C647.606 175.993 647.779 175.99 647.959 176.116C648.801 176.701 649.525 176.573 650.117 175.742C650.248 175.558 650.454 175.504 650.618 175.609C650.784 175.716 650.828 175.922 650.71 176.12C650.625 176.263 650.519 176.395 650.47 176.465L650.47 176.465Z" fill="#0E0606"/>
<path d="M643.166 174.757C642.483 175.486 641.215 175.543 640.462 174.879C640.283 174.721 640.252 174.505 640.387 174.345C640.515 174.193 640.711 174.186 640.903 174.327C641.507 174.771 642.117 174.747 642.666 174.258C642.867 174.079 643.064 174.073 643.219 174.242C643.352 174.388 643.333 174.579 643.167 174.757L643.166 174.757Z" fill="#0E0606"/>
<path d="M648.461 167.15C648.42 166.973 648.264 166.948 648.115 166.894C647.97 166.841 647.903 166.704 647.918 166.547C647.931 166.401 648.011 166.294 648.154 166.251C648.302 166.207 648.457 166.223 648.535 166.361C648.609 166.493 648.707 166.536 648.842 166.572C648.983 166.61 649.055 166.732 649.06 166.879C649.065 167.036 648.994 167.152 648.845 167.216C648.708 167.275 648.585 167.244 648.461 167.151L648.461 167.15Z" fill="#180A0B"/>
<path d="M651.299 163.327C651.167 163.473 650.951 163.484 650.802 163.354C650.657 163.226 650.644 163.004 650.774 162.857C650.901 162.713 651.129 162.701 651.271 162.83C651.416 162.962 651.429 163.183 651.299 163.326L651.299 163.327Z" fill="#180A0B"/>
<path d="M650.398 175.17C650.253 175.045 650.234 174.817 650.356 174.671C650.484 174.519 650.693 174.503 650.849 174.634C651.004 174.764 651.024 174.976 650.895 175.125C650.768 175.274 650.541 175.294 650.398 175.17Z" fill="#180A0B"/>
<path d="M643.646 173.774C643.509 173.923 643.299 173.931 643.153 173.793C643.01 173.658 643.002 173.439 643.134 173.297C643.264 173.156 643.489 173.148 643.63 173.28C643.775 173.414 643.781 173.627 643.646 173.774Z" fill="#180A0B"/>
<path d="M657.961 170.435C657.966 170.457 657.972 170.478 657.976 170.5C657.957 170.507 657.929 170.528 657.923 170.493C657.92 170.476 657.947 170.455 657.961 170.435L657.961 170.435Z" fill="#E99CA4"/>
<path d="M661.96 185.913C662.042 186.113 662.035 186.296 661.836 186.419C661.643 186.538 661.488 186.442 661.34 186.31C660.243 185.324 659.145 184.337 658.045 183.354C657.911 183.234 657.818 183.109 657.864 182.919C657.914 182.717 658.075 182.68 658.246 182.655C658.371 182.707 658.475 182.789 658.575 182.879C659.702 183.892 660.831 184.903 661.96 185.914L661.96 185.913Z" fill="#03070B"/>
<path d="M661.96 185.911C660.832 184.9 659.702 183.889 658.575 182.877C658.475 182.787 658.371 182.704 658.246 182.652C658.393 182.563 658.515 182.616 658.628 182.717C659.756 183.729 660.881 184.744 662.014 185.75C662.169 185.888 661.996 185.865 661.96 185.911Z" fill="#90CEE4"/>
<path d="M662.195 187.073C662.053 186.941 662.046 186.719 662.18 186.577C662.314 186.436 662.533 186.429 662.677 186.562C662.817 186.692 662.823 186.917 662.692 187.058C662.561 187.198 662.336 187.205 662.195 187.073Z" fill="#0A1119"/>
<path d="M657.193 182.581C657.045 182.456 657.027 182.236 657.15 182.086C657.27 181.94 657.499 181.921 657.645 182.045C657.793 182.17 657.812 182.393 657.687 182.539C657.56 182.687 657.338 182.706 657.192 182.582L657.193 182.581Z" fill="#0A1119"/>
<path d="M595.657 177.724C595.262 183.567 591.84 185.542 586.226 183.132C585.754 182.932 585.433 182.775 584.908 183.061C580.359 185.528 576.047 184.764 572.268 181.579C569.822 179.517 566.87 178.46 564.281 176.698C558.595 172.82 555.277 167.502 553.716 160.929C552.387 155.335 552.192 149.708 553.185 144.044C553.269 143.56 552.997 142.85 553.974 142.549C554.291 143.914 553.889 145.224 553.792 146.514C553.297 153.106 554.32 159.408 556.9 165.527C558.695 169.786 561.828 172.665 565.537 175.114C565.918 175.366 566.24 175.896 566.775 175.523C567.175 175.242 566.917 174.788 566.902 174.399C566.775 171.385 567.934 169.017 569.633 168.789C571.367 168.554 573.143 170.533 573.994 173.314C574.783 175.893 573.772 177.549 571.59 178.74C574.893 182.746 579.523 183.836 584.091 181.499C581.556 179.373 580.61 176.525 580.146 173.458C579.939 172.108 579.924 170.78 581.243 169.998C582.64 169.169 583.978 169.742 585.068 170.661C587.893 173.043 588.355 176.067 587.301 179.487C586.614 181.716 587.419 182.695 589.759 182.632C592.813 182.549 594.237 180.532 593.486 177.365C594.134 177.449 594.777 177.536 595.425 177.62C595.51 177.645 595.591 177.68 595.66 177.73L595.657 177.724ZM584.969 179.919C586.669 176.864 586.329 173.69 584.07 171.861C583.51 171.406 582.834 170.912 582.098 171.284C581.287 171.693 581.518 172.513 581.652 173.222C582.14 175.758 582.606 178.312 584.969 179.919ZM570.425 170.711C569.613 170.149 569.256 170.889 568.939 171.386C567.999 172.865 568.442 174.294 569.112 175.767C569.916 177.535 570.914 177.095 571.868 176.061C572.936 174.907 571.934 171.331 570.425 170.711ZM567.137 175.47C566.991 175.551 566.755 175.658 566.763 175.677C566.832 175.876 566.904 176.093 567.047 176.233C567.243 176.433 567.495 176.439 567.464 176.075C567.446 175.866 567.252 175.673 567.134 175.463L567.137 175.47Z" fill="#3B208B"/>
<path d="M406.948 160.771L412.839 153.115L414.6 154.47L406.141 165.464L404.258 164.015L406.615 153.348L406.584 153.324L400.552 161.164L398.806 159.821L407.265 148.827L409.241 150.346L406.933 160.76L406.948 160.771ZM417.846 164.914L414.453 169.324C413.711 170.289 413.714 170.633 413.858 170.89L413.61 171.211L411.712 169.75C411.914 169.297 411.978 169.151 412.301 168.668C411.499 168.855 410.429 169.105 409.235 168.186C408.224 167.408 407.728 165.93 409.024 164.245C410.249 162.653 411.701 162.478 412.972 163.138L414.773 164.061C415.084 164.227 415.527 164.349 415.88 163.889C416.575 162.986 415.906 162.398 415.462 162.056C414.589 161.385 413.929 161.925 413.503 162.353L411.819 161.057C413.938 158.714 415.633 159.458 416.996 160.506C417.93 161.225 419.389 162.908 417.846 164.914ZM413.748 166.661L414.549 165.62C414.251 165.658 413.854 165.572 413.013 165.145C412.263 164.788 411.574 164.574 410.891 165.462C410.314 166.213 410.612 166.808 410.949 167.067C411.73 167.668 412.982 167.656 413.748 166.661ZM424.371 173.006C422.109 175.946 419.449 176.045 417.657 174.666C415.866 173.288 415.279 170.691 417.541 167.751C419.803 164.811 422.463 164.713 424.255 166.091C426.046 167.47 426.633 170.066 424.371 173.006ZM422.564 171.616C423.365 170.575 424.212 168.935 422.865 167.898C421.502 166.85 420.149 168.1 419.348 169.142C418.547 170.183 417.685 171.811 419.047 172.859C420.395 173.896 421.763 172.657 422.564 171.616ZM431.737 177.309L428.215 174.599L424.422 179.529L422.538 178.08L430.997 167.086L432.881 168.535L429.676 172.7L433.198 175.41L436.403 171.245L438.286 172.694L429.827 183.688L427.943 182.239L431.737 177.309Z" fill="#E3C62C" fill-opacity="0.33"/>
<path d="M552.854 213.179L553.716 211.111L554.273 211.343L552.189 216.343L551.632 216.111L552.604 213.778L550.466 212.887L549.494 215.22L548.937 214.988L551.021 209.988L551.578 210.22L550.716 212.288L552.854 213.179ZM557.927 214.632L557.391 214.409C557.597 213.465 557.064 213.055 556.675 212.892C555.929 212.582 555.052 213 554.503 214.317C554.013 215.493 553.976 216.541 554.993 216.965C555.355 217.116 556.062 217.165 556.735 216.081L557.271 216.304C556.262 218.098 554.966 217.657 554.66 217.529C553.727 217.14 553.122 216.021 553.923 214.099C554.565 212.561 555.726 211.794 556.924 212.293C557.976 212.732 558.192 213.762 557.927 214.632ZM559.813 213.653L557.979 218.054L560.054 218.919L559.804 219.518L557.172 218.421L559.256 213.421L559.813 213.653Z" fill="#1C6C63" fill-opacity="0.33"/>
<defs>
<linearGradient id="paint0_linear_122_192" x1="246.186" y1="11.3965" x2="246.186" y2="243.726" gradientUnits="userSpaceOnUse">
<stop offset="0.18" stop-color="#5B0DBE"/>
<stop offset="0.345" stop-color="#532AC1"/>
<stop offset="0.71" stop-color="#29CFCF"/>
</linearGradient>
<linearGradient id="paint1_linear_122_192" x1="176.98" y1="11.4005" x2="175.123" y2="242.532" gradientUnits="userSpaceOnUse">
<stop offset="0.18" stop-color="#5B0DBE"/>
<stop offset="0.345" stop-color="#532AC1"/>
<stop offset="0.71" stop-color="#29CFCF"/>
</linearGradient>
<linearGradient id="paint2_linear_122_192" x1="102.832" y1="1.50977" x2="102.832" y2="233.839" gradientUnits="userSpaceOnUse">
<stop offset="0.18" stop-color="#5B0DBE"/>
<stop offset="0.345" stop-color="#532AC1"/>
<stop offset="0.71" stop-color="#29CFCF"/>
</linearGradient>
<radialGradient id="paint3_radial_122_192" cx="0" cy="0" r="1" gradientUnits="userSpaceOnUse" gradientTransform="translate(170.308 180.49) rotate(89.8963) scale(0.5 169.297)">
<stop stop-color="#4B21BD"/>
<stop offset="1" stop-color="#25B0C4"/>
</radialGradient>
<radialGradient id="paint4_radial_122_192" cx="0" cy="0" r="1" gradientUnits="userSpaceOnUse" gradientTransform="translate(191.933 139.709) rotate(89.8963) scale(0.5 178.565)">
<stop stop-color="#4B21BD"/>
<stop offset="1" stop-color="#25B0C4"/>
</radialGradient>
<linearGradient id="paint5_linear_122_192" x1="182.664" y1="94.7364" x2="182.71" y2="224.488" gradientUnits="userSpaceOnUse">
<stop stop-color="#4B21BD"/>
<stop offset="1" stop-color="#25B0C4"/>
</linearGradient>
<radialGradient id="paint6_radial_122_192" cx="0" cy="0" r="1" gradientUnits="userSpaceOnUse" gradientTransform="translate(182.663 53.2198) rotate(90.024) scale(146.252 49520)">
<stop stop-color="#4B21BD"/>
<stop offset="1" stop-color="#25B0C4"/>
</radialGradient>
<linearGradient id="paint7_linear_122_192" x1="39.8066" y1="1.50977" x2="39.8066" y2="233.839" gradientUnits="userSpaceOnUse">
<stop offset="0.18" stop-color="#5B0DBE"/>
<stop offset="0.345" stop-color="#532AC1"/>
<stop offset="0.71" stop-color="#29CFCF"/>
</linearGradient>
<linearGradient id="paint8_linear_122_192" x1="324.844" y1="28.5576" x2="324.844" y2="260.887" gradientUnits="userSpaceOnUse">
<stop offset="0.18" stop-color="#5B0DBE"/>
<stop offset="0.345" stop-color="#532AC1"/>
<stop offset="0.71" stop-color="#29CFCF"/>
</linearGradient>
<linearGradient id="paint9_linear_122_192" x1="142.941" y1="191.674" x2="172.105" y2="172.471" gradientUnits="userSpaceOnUse">
<stop stop-color="#5718BF"/>
<stop offset="1" stop-color="#27A8C4"/>
</linearGradient>
<linearGradient id="paint10_linear_122_192" x1="115.91" y1="198.418" x2="141.607" y2="205.038" gradientUnits="userSpaceOnUse">
<stop stop-color="#5718BF"/>
<stop offset="1" stop-color="#27A8C4"/>
</linearGradient>
</defs>
</svg>
