<svg width="187" height="185" viewBox="0 0 187 185" fill="none" xmlns="http://www.w3.org/2000/svg">
<g filter="url(#filter0_d_163_485)">
<ellipse cx="93.7784" cy="87.8232" rx="58.7784" ry="57.6028" fill="white"/>
<path d="M93.7783 27.196C127.853 27.196 155.581 54.2824 155.581 87.823C155.581 121.364 127.853 148.45 93.7783 148.45C59.7036 148.45 31.9756 121.364 31.9756 87.823C31.9757 54.2824 59.7037 27.1961 93.7783 27.196Z" stroke="#535DFD" stroke-width="6.04847"/>
</g>
<path d="M110.697 53.3441C116.452 51.4648 122.346 54.8906 123.526 60.8016C123.56 60.977 123.726 61.7692 123.726 61.8217V65.28C125.512 65.0033 127.092 65.8968 127.261 67.7834C127.414 69.5053 127.244 71.6414 127.255 73.4194C126.321 73.3073 126.005 72.0104 125.084 71.9272C125.076 70.775 125.23 69.1273 125.089 68.0547C125.064 67.8647 125.058 67.7038 124.892 67.5735C124.588 67.333 120.183 67.4542 119.381 67.4505C119.387 66.8265 117.941 65.3542 117.481 65.28C117.489 63.086 117.863 60.5881 115.538 59.4215C114.622 58.9621 113.108 58.8445 112.188 59.3111L110.967 57.6833C114.152 55.8365 118.133 57.2383 119.353 60.7654C119.414 60.9445 119.653 61.7168 119.653 61.8217V65.28H121.553V62.2269C121.553 57.6561 116.423 54.0676 112.053 55.104L110.695 53.3405L110.697 53.3441Z" fill="black"/>
<path d="M75.1389 107.2C75.4628 107.167 75.5009 107.133 75.7289 107.366C76.2012 107.849 76.7151 108.757 77.4462 108.827L77.4733 114.294L80.5008 117.647L83.8016 114.158C83.883 113.883 83.8341 113.736 83.6966 113.501C83.1266 112.532 80.68 111.687 81.317 110.188C81.3731 110.056 82.2109 109.272 82.4009 109.095C82.5095 108.994 82.7068 108.996 82.7393 108.965C83.0886 109.278 84.073 110.027 84.0965 110.457C84.1002 110.513 83.9083 110.662 84.0187 110.86C84.2431 111.26 85.727 112.08 85.9351 112.756C86.1885 113.577 86.0582 114.923 85.5243 115.616C84.3716 117.112 82.5638 118.493 81.3839 120.024C80.6275 120.678 80.0846 120.356 79.4766 119.752C78.3926 118.674 76.6644 116.911 75.747 115.748C75.3507 115.245 75.1932 114.981 75.1317 114.328C74.929 112.179 75.1462 109.426 75.1371 107.201L75.1389 107.2Z" fill="black"/>
<path d="M61.8369 89.4287C62.293 93.7027 65.9683 97.4613 70.1992 98.0944C71.3791 98.2717 73.8003 97.7923 73.2086 99.7783C72.881 100.88 69.8789 100.299 69.003 100.106C63.3842 98.8595 59.394 93.54 59.6654 87.8008C60.5901 87.9003 60.9719 89.1754 61.8369 89.4287Z" fill="black"/>
<path d="M86.4033 95.5318C86.2024 95.6964 86.0233 96.0112 85.9889 96.2698C85.6903 98.5199 86.3617 101.647 85.9654 103.841C85.7916 104.805 84.4905 105.27 83.9639 106.044C84.4779 106.802 86.0631 107.462 85.9925 108.479C85.9581 108.969 84.6063 110.25 84.096 110.454C84.0725 110.024 83.0881 109.275 82.7388 108.962C82.8329 108.875 83.155 108.481 83.1369 108.37C83.0826 108.039 81.682 107.137 81.454 106.788C80.4714 105.277 83.0302 104.196 83.7993 103.172L83.8336 95.067C83.8934 94.3399 84.7565 94.2422 85.1818 93.9058L86.4033 95.5336V95.5318Z" fill="black"/>
<path d="M90.339 89.9721C89.5681 89.7931 89.2695 88.6445 88.4389 88.6156C89.2405 83.5293 84.8015 78.7651 79.617 79.3909C79.588 78.5607 78.4389 78.2622 78.2598 77.4917C85.8113 75.8096 92.2825 82.4839 90.339 89.9721Z" fill="black"/>
<path d="M72.5595 87.9372C72.7459 89.9304 73.8787 92.1444 75.4078 93.4322C76.3995 94.2678 77.317 94.2045 77.4509 95.7311C77.6499 97.9902 77.4346 100.801 77.4454 103.131C76.4755 103.048 76.1081 101.586 75.1382 101.503C75.1273 99.6814 75.1671 97.8564 75.1129 96.035C72.7567 94.2552 71.0629 92.0322 70.5635 89.0514C70.3825 87.977 70.4115 87.5085 70.5237 86.4468C71.4013 86.5101 71.7415 87.7238 72.5595 87.939V87.9372Z" fill="black"/>
<path d="M111.784 98.2478C111.834 99.1703 113.226 99.4958 113.277 100.418C107.772 100.527 102.227 100.438 96.7185 100.418C96.5574 99.4814 95.3776 99.116 95.0898 98.2478C100.644 98.3021 106.232 98.3238 111.784 98.2478Z" fill="black"/>
<path d="M75.8161 61.2107C76.3282 61.6737 77.0539 62.1856 77.309 62.8386C73.4871 64.8391 70.5212 68.4529 69.3015 72.6058C68.5451 72.5443 68.1578 71.6165 67.5371 71.2493C69.0753 66.7419 71.6612 63.5657 75.8161 61.2107Z" fill="black"/>
<path d="M102.553 80.4772C102.559 81.2188 102.423 85.0317 102.722 85.3283C103.02 85.625 107.081 85.4911 107.846 85.4965L109.475 87.667C107.41 87.6562 104.732 87.8805 102.756 87.667C101.453 87.526 100.517 86.4317 100.38 85.1583C100.179 83.3025 100.391 80.7902 100.38 78.8494C101.317 79.0103 101.683 80.1897 102.551 80.4772H102.553Z" fill="black"/>
<path d="M89.9313 61.619C89.7739 60.5554 88.1887 60.1051 88.0312 59.0415C90.7222 59.443 92.9588 60.3203 95.2426 61.8053C95.7058 62.1055 96.9183 63.2197 97.2549 63.3264C97.9896 63.558 98.9867 62.6662 99.6345 63.52C100.693 64.9181 98.4583 65.6489 97.4304 65.7954C96.4025 65.9419 95.3855 64.6161 94.5314 64.0083C93.3009 63.1329 91.3682 62.0567 89.9313 61.619Z" fill="black"/>
<path d="M65.502 78.167L66.995 79.6592C63.6834 81.6326 61.4213 85.5268 61.8376 89.4265C60.9726 89.1733 60.5907 87.8981 59.666 87.7986C59.8687 83.5299 62.0439 80.4098 65.502 78.167Z" fill="black"/>
<path d="M107.167 58.6346C106.986 58.9675 106.525 60.2661 106.42 60.6677C106.295 61.1524 106.195 61.6571 106.217 62.1617C106.787 62.0423 107.766 62.4511 108.117 61.8904C108.13 61.9103 108.363 61.9211 108.528 62.0857C109.029 62.585 109.409 63.4568 110.153 63.5183C110.072 64.1369 109.587 64.4009 109.002 64.4715C108.3 64.5547 105.059 64.5493 104.552 64.3015C103.579 63.8258 103.923 61.8162 104.08 60.9082C104.346 59.3871 104.835 58.5098 105.674 57.2781C105.897 57.808 106.57 58.593 107.167 58.6346Z" fill="black"/>
<path d="M110.02 65.2818C110.132 66.2151 111.43 66.5316 111.513 67.4523C108.619 67.4577 105.72 67.4487 102.827 67.4523L101.469 65.9601C101.484 65.9492 101.41 65.7828 101.636 65.6453C101.929 65.4663 102.546 65.3179 102.895 65.2836C105.014 65.0701 107.818 65.2836 110.02 65.2836V65.2818Z" fill="black"/>
<path d="M124.405 85.4933C124.454 86.2638 125.422 86.622 125.762 87.2568C125.724 87.2767 125.675 87.4413 125.532 87.4974C124.403 87.9442 118.974 87.6566 117.347 87.6638C117.094 86.7992 115.818 86.4176 115.719 85.4933C118.339 85.4861 121.919 85.7809 124.405 85.4933Z" fill="black"/>
<path d="M95.0888 98.2491C95.3766 99.1173 96.5564 99.4827 96.7175 100.42C94.3668 100.411 91.1366 100.684 88.9108 100.423C87.5735 100.266 87.4179 98.4011 88.947 98.146C90.838 97.8313 93.205 98.231 95.0906 98.2491H95.0888Z" fill="black"/>
<path d="M127.254 79.1166C127.245 80.6884 127.522 84.816 127.05 86.0333C126.784 86.7188 126.357 86.9304 125.762 87.256C125.421 86.6211 124.453 86.263 124.404 85.4924C124.77 85.4508 124.996 85.449 125.079 85.0131C125.092 82.7305 125.074 80.446 125.083 78.167C126.06 78.1797 126.266 79.8763 127.254 79.1166Z" fill="black"/>
<path d="M69.3022 72.6068C68.7158 74.6019 68.6308 76.6476 68.562 78.7186C68.3304 79.4566 67.4382 79.3969 66.9949 79.6609L65.502 78.1687C65.8186 77.9625 66.1027 77.693 66.4574 77.5357C66.3778 75.5406 66.7108 73.5202 67.3007 71.6174C67.3622 71.4203 67.5197 71.3027 67.5378 71.2502C68.1585 71.6174 68.5457 72.5453 69.3022 72.6068Z" fill="black"/>
<path d="M117.482 65.2823C117.942 65.3565 119.388 66.8288 119.382 67.4528C116.76 67.4419 114.133 67.4474 111.511 67.4528C111.427 66.5321 110.13 66.2156 110.018 65.2823C112.504 65.2805 114.996 65.2823 117.482 65.2823Z" fill="black"/>
<path d="M102.554 72.4695C102.536 75.1338 102.538 77.809 102.554 80.4733C101.685 80.1857 101.32 79.0064 100.382 78.8454C100.368 76.2281 100.348 73.5946 100.382 70.9773C101.305 71.0279 101.631 72.4189 102.554 72.4695Z" fill="black"/>
<path d="M115.718 85.4932C115.817 86.4174 117.093 86.7991 117.346 87.6637C114.726 87.6745 112.095 87.6781 109.474 87.6637L107.846 85.4932C110.466 85.5076 113.097 85.5004 115.718 85.4932Z" fill="black"/>
<path d="M119.112 97.4326C119.19 98.138 119.979 98.63 120.334 99.1961C117.692 100.426 116.13 100.361 113.276 100.417C113.225 99.4946 111.834 99.169 111.783 98.2466C114.264 98.2122 116.765 98.4093 119.112 97.4326Z" fill="black"/>
<path d="M90.3391 89.9706C89.5881 92.8628 88.5511 93.7581 86.4031 95.5325L85.1816 93.9046C86.87 92.5698 88.0987 90.77 88.439 88.614C89.2696 88.643 89.5682 89.7915 90.3391 89.9706Z" fill="black"/>
<path d="M74.7308 81.9677C73.3718 83.4256 72.3729 85.9416 72.5593 87.9366C71.7413 87.7214 71.4011 86.5077 70.5234 86.4444C70.8094 83.753 71.5115 82.2481 73.3736 80.3398C73.5799 81.0217 74.3815 81.3636 74.7308 81.9677Z" fill="black"/>
<path d="M88.0303 59.0399C88.1877 60.1034 89.773 60.5538 89.9304 61.6173C88.09 61.0566 85.0462 60.7473 83.1443 60.9391C83.0448 60.0998 82.0043 59.8104 81.7871 59.0399C82.1038 58.9874 82.8475 58.7686 83.0756 58.7686H86.8758C87.0802 58.7686 87.7607 59.0001 88.0303 59.0399Z" fill="black"/>
<path d="M110.697 53.344L112.055 55.1075C110.555 55.4639 107.903 57.2853 107.169 58.6346C106.572 58.593 105.898 57.808 105.676 57.278C107.031 55.2902 108.345 54.1127 110.697 53.344Z" fill="black"/>
<path d="M81.7881 59.0415C82.0053 59.812 83.0458 60.1014 83.1454 60.9407C81.2453 61.1324 78.9941 61.9572 77.3093 62.8399C77.0542 62.1869 76.3285 61.675 75.8164 61.212C77.8577 60.0544 79.4555 59.4232 81.7881 59.0415Z" fill="black"/>
<path d="M127.256 73.4229C127.268 75.3185 127.266 77.2249 127.256 79.1205C126.267 79.8801 126.061 78.1835 125.084 78.1709C125.091 76.0944 125.098 74.0071 125.084 71.9307C126.005 72.0139 126.322 73.3107 127.256 73.4229Z" fill="black"/>
<path d="M77.4438 103.129C77.4528 105.027 77.4347 106.93 77.4438 108.827C76.7127 108.756 76.1988 107.848 75.7265 107.365C75.4985 107.132 75.4605 107.165 75.1365 107.199C75.1293 105.302 75.1474 103.399 75.1365 101.501C76.1065 101.585 76.4738 103.046 77.4438 103.129Z" fill="black"/>
<path d="M78.259 77.49C78.4382 78.2605 79.5873 78.559 79.6162 79.3892C77.9876 79.5863 75.845 80.7711 74.7303 81.9667C74.381 81.3625 73.5793 81.0207 73.373 80.3388C74.8406 78.8357 76.158 77.9585 78.259 77.49Z" fill="black"/>
<path d="M124.812 95.5336C123.463 97.3008 122.367 98.2486 120.333 99.1964C119.978 98.6302 119.189 98.1382 119.111 97.4328C120.429 96.8848 122.658 95.0833 123.454 93.9058C123.661 94.5877 124.462 94.9295 124.812 95.5336Z" fill="black"/>
<path d="M123.455 93.9049C123.775 93.4328 124.246 92.3005 124.472 91.7326C124.825 90.8427 124.722 89.3957 125.969 89.4137C127.771 89.4391 126.81 91.8121 126.445 92.7545C126.016 93.8578 125.516 94.6103 124.812 95.5328C124.463 94.9286 123.661 94.5868 123.455 93.9049Z" fill="black"/>
<path d="M101.468 65.9619L102.825 67.4541C102.678 67.7001 102.582 67.9009 102.55 68.1975C102.409 69.4456 102.562 71.1603 102.553 72.4734C101.631 72.4228 101.305 71.0319 100.382 70.9812C100.398 69.7241 100.125 67.3727 100.865 66.3779C101.126 66.0288 101.308 66.0903 101.468 65.9619Z" fill="black"/>
<path d="M110.967 57.6841L112.189 59.312C111.393 59.7153 110.437 60.9525 110.231 61.8261C110.104 62.3615 110.222 62.9982 110.153 63.5173C109.409 63.4558 109.029 62.584 108.528 62.0848C108.363 61.9202 108.13 61.9093 108.117 61.8894C107.989 61.6832 108.318 60.7716 108.421 60.4985C108.919 59.1781 109.787 58.3696 110.967 57.6841Z" fill="black"/>
<path d="M111.783 73.0143C111.696 73.4285 111.832 74.0851 112.028 74.4649C112.263 74.9207 113.276 75.4868 113.276 75.7943V81.0849C113.276 81.349 114.147 81.6873 114.335 81.0578C114.628 80.0738 114.235 77.509 114.362 76.27C115.283 76.3532 115.6 77.6501 116.534 77.7623C116.478 79.2165 116.872 81.4015 115.989 82.5772C114.594 84.4366 111.43 83.6606 111.116 81.3454C110.949 80.1263 111.371 77.755 111.076 76.7729C111.007 76.5468 110.276 75.8504 110.079 75.4633C109.339 74.0145 109.494 72.9944 110.155 71.6577C110.761 72.0231 110.985 72.9962 111.783 73.0143Z" fill="black"/>
<path d="M110.154 71.6582C112.858 66.1849 120.898 71.092 117.072 76.2054C116.964 76.3519 116.709 76.3645 116.622 76.5726C116.47 76.9361 116.548 77.3793 116.531 77.7627C115.597 77.6506 115.281 76.3537 114.36 76.2705C114.476 75.1418 115.046 75.3426 115.507 74.6354C116.555 73.0328 115.223 71.253 113.35 71.5316C112.653 71.6347 111.92 72.3491 111.781 73.0147C110.983 72.9966 110.759 72.0235 110.152 71.6582H110.154Z" fill="black"/>
<path d="M82.8752 88.0725L81.518 86.5803C81.5868 86.5387 81.9451 86.0268 82.0012 85.9092C82.8481 84.1493 80.548 82.7349 79.3465 84.1385C78.7656 83.8925 78.0924 83.216 77.8535 82.6462C80.8539 79.4447 85.9099 82.923 83.8506 86.9438C83.5393 87.5516 83.3131 87.6927 82.8752 88.0725Z" fill="black"/>
<path d="M79.3461 84.1394C78.6168 84.9896 79.0095 86.5053 80.0989 86.7097C80.3993 86.7657 81.2661 86.735 81.5177 86.5813L82.8749 88.0735C79.4438 91.0435 74.585 86.1363 77.8532 82.6472C78.092 83.217 78.7652 83.8934 79.3461 84.1394Z" fill="black"/>
<defs>
<filter id="filter0_d_163_485" x="0.73756" y="0.660532" width="186.082" height="183.73" filterUnits="userSpaceOnUse" color-interpolation-filters="sRGB">
<feFlood flood-opacity="0" result="BackgroundImageFix"/>
<feColorMatrix in="SourceAlpha" type="matrix" values="0 0 0 0 0 0 0 0 0 0 0 0 0 0 0 0 0 0 127 0" result="hardAlpha"/>
<feOffset dy="4.70227"/>
<feGaussianBlur stdDeviation="14.1068"/>
<feComposite in2="hardAlpha" operator="out"/>
<feColorMatrix type="matrix" values="0 0 0 0 0.32378 0 0 0 0 0.362992 0 0 0 0 0.990385 0 0 0 0.47 0"/>
<feBlend mode="normal" in2="BackgroundImageFix" result="effect1_dropShadow_163_485"/>
<feBlend mode="normal" in="SourceGraphic" in2="effect1_dropShadow_163_485" result="shape"/>
</filter>
</defs>
</svg>
