<svg width="80" height="80" viewBox="0 0 80 80" fill="none" xmlns="http://www.w3.org/2000/svg">
<path d="M0 34.0701H37.143V56.3C37.143 56.49 37.106 56.6801 37.034 56.8601C36.963 57.0401 36.857 57.2101 36.725 57.3401C36.592 57.4801 36.434 57.5899 36.261 57.6699C36.088 57.7399 35.902 57.78 35.714 57.78H1.429C1.241 57.78 1.055 57.7399 0.882004 57.6699C0.708004 57.5899 0.550999 57.4801 0.417999 57.3401C0.284999 57.2101 0.179994 57.0401 0.108994 56.8601C0.0369935 56.6801 0 56.49 0 56.3V34.0701ZM37.143 23.7V31.1101H0V23.7C0 23.51 0.0369935 23.3199 0.108994 23.1399C0.179994 22.9599 0.284999 22.7899 0.417999 22.6599C0.550999 22.5199 0.708004 22.4101 0.882004 22.3301C1.055 22.2601 1.241 22.22 1.429 22.22H35.714C35.902 22.22 36.088 22.2601 36.261 22.3301C36.434 22.4101 36.592 22.5199 36.725 22.6599C36.857 22.7899 36.963 22.9599 37.034 23.1399C37.106 23.3199 37.143 23.51 37.143 23.7ZM5.714 26.6699C5.714 26.3699 5.631 26.0901 5.474 25.8401C5.317 25.6001 5.093 25.41 4.832 25.3C4.571 25.19 4.284 25.16 4.007 25.21C3.73 25.27 3.475 25.4101 3.276 25.6201C3.076 25.8301 2.93999 26.0899 2.88499 26.3799C2.82899 26.6699 2.858 26.96 2.966 27.23C3.074 27.5 3.257 27.7399 3.492 27.8999C3.727 28.0599 4.003 28.1499 4.286 28.1499C4.665 28.1499 5.02801 27.99 5.29601 27.71C5.56401 27.44 5.714 27.0599 5.714 26.6699ZM10 26.6699C10 26.3699 9.916 26.0901 9.759 25.8401C9.602 25.6001 9.379 25.41 9.118 25.3C8.857 25.19 8.57 25.16 8.293 25.21C8.016 25.27 7.761 25.4101 7.561 25.6201C7.361 25.8301 7.225 26.0899 7.17 26.3799C7.115 26.6699 7.143 26.96 7.252 27.23C7.36 27.5 7.543 27.7399 7.778 27.8999C8.013 28.0599 8.289 28.1499 8.571 28.1499C8.95 28.1499 9.314 27.99 9.582 27.71C9.849 27.44 10 27.0599 10 26.6699ZM14.286 26.6699C14.286 26.3699 14.202 26.0901 14.045 25.8401C13.888 25.6001 13.665 25.41 13.404 25.3C13.143 25.19 12.856 25.16 12.578 25.21C12.301 25.27 12.047 25.4101 11.847 25.6201C11.647 25.8301 11.511 26.0899 11.456 26.3799C11.401 26.6699 11.429 26.96 11.537 27.23C11.645 27.5 11.829 27.7399 12.063 27.8999C12.298 28.0599 12.575 28.1499 12.857 28.1499C13.236 28.1499 13.599 27.99 13.867 27.71C14.135 27.44 14.286 27.0599 14.286 26.6699ZM72.857 0.939941V8.88989H79.242L72.857 0.939941ZM80 11.8501V34.0701C80 34.2701 79.963 34.4599 79.891 34.6399C79.82 34.8199 79.715 34.9801 79.582 35.1201C79.449 35.2601 79.292 35.3699 79.118 35.4399C78.945 35.5199 78.759 35.5601 78.571 35.5601H52.857C52.67 35.5601 52.484 35.5199 52.31 35.4399C52.137 35.3699 51.979 35.2601 51.847 35.1201C51.714 34.9801 51.609 34.8199 51.537 34.6399C51.465 34.4599 51.428 34.2701 51.429 34.0701V1.47998C51.428 1.28998 51.465 1.08991 51.537 0.909912C51.609 0.729912 51.714 0.569932 51.847 0.429932C51.979 0.299932 52.137 0.190107 52.31 0.110107C52.484 0.0401074 52.67 0 52.857 0H70V10.3701C70 10.5601 70.037 10.7599 70.109 10.9399C70.18 11.1199 70.285 11.2799 70.418 11.4199C70.551 11.5599 70.708 11.66 70.882 11.74C71.055 11.81 71.241 11.8501 71.429 11.8501H80ZM71.429 25.1899C71.429 24.9899 71.392 24.8001 71.32 24.6201C71.248 24.4401 71.143 24.2699 71.01 24.1399C70.878 23.9999 70.72 23.8901 70.547 23.8201C70.373 23.7401 70.188 23.7 70 23.7H61.429C61.05 23.7 60.686 23.8599 60.418 24.1399C60.151 24.4199 60 24.7899 60 25.1899C60 25.5799 60.151 25.95 60.418 26.23C60.686 26.51 61.05 26.6699 61.429 26.6699H70C70.188 26.6699 70.373 26.63 70.547 26.55C70.72 26.48 70.878 26.37 71.01 26.23C71.143 26.1 71.248 25.93 71.32 25.75C71.392 25.57 71.429 25.3799 71.429 25.1899ZM71.429 19.26C71.429 19.06 71.392 18.8699 71.32 18.6899C71.248 18.5099 71.143 18.35 71.01 18.21C70.878 18.07 70.72 17.9599 70.547 17.8899C70.373 17.8199 70.188 17.78 70 17.78H61.429C61.05 17.78 60.686 17.93 60.418 18.21C60.151 18.49 60 18.87 60 19.26C60 19.65 60.151 20.0301 60.418 20.3101C60.686 20.5801 61.05 20.74 61.429 20.74H70C70.188 20.74 70.373 20.6999 70.547 20.6299C70.72 20.5499 70.878 20.4401 71.01 20.3101C71.143 20.1701 71.248 20.0101 71.32 19.8301C71.392 19.6501 71.429 19.45 71.429 19.26ZM72.857 53.3301H79.242L72.857 45.3899V53.3301ZM71.429 56.3H80V78.52C80 78.71 79.963 78.9101 79.891 79.0901C79.82 79.2701 79.715 79.4301 79.582 79.5701C79.449 79.7001 79.292 79.8099 79.118 79.8899C78.945 79.9599 78.759 80 78.571 80H52.857C52.67 80 52.484 79.9599 52.31 79.8899C52.137 79.8099 51.979 79.7001 51.847 79.5701C51.714 79.4301 51.609 79.2701 51.537 79.0901C51.465 78.9101 51.428 78.71 51.429 78.52V45.9299C51.428 45.7299 51.465 45.5401 51.537 45.3601C51.609 45.1801 51.714 45.0199 51.847 44.8799C51.979 44.7399 52.137 44.6301 52.31 44.5601C52.484 44.4801 52.67 44.4399 52.857 44.4399H70V54.8101C70 55.0101 70.037 55.1999 70.109 55.3799C70.18 55.5599 70.285 55.7301 70.418 55.8601C70.551 56.0001 70.708 56.1099 70.882 56.1799C71.055 56.2599 71.241 56.3 71.429 56.3ZM71.429 69.6299C71.429 69.4399 71.392 69.2401 71.32 69.0601C71.248 68.8801 71.143 68.7201 71.01 68.5801C70.878 68.4401 70.72 68.34 70.547 68.26C70.373 68.19 70.188 68.1499 70 68.1499H61.429C61.05 68.1499 60.686 68.3001 60.418 68.5801C60.151 68.8601 60 69.2399 60 69.6299C60 70.0199 60.151 70.3999 60.418 70.6799C60.686 70.9599 61.05 71.1101 61.429 71.1101H70C70.188 71.1101 70.373 71.07 70.547 71C70.72 70.92 70.878 70.8199 71.01 70.6799C71.143 70.5399 71.248 70.38 71.32 70.2C71.392 70.02 71.429 69.8199 71.429 69.6299ZM71.429 63.7C71.429 63.51 71.392 63.3199 71.32 63.1399C71.248 62.9599 71.143 62.7899 71.01 62.6599C70.878 62.5199 70.72 62.4101 70.547 62.3301C70.373 62.2601 70.188 62.22 70 62.22H61.429C61.05 62.22 60.686 62.3799 60.418 62.6599C60.151 62.9299 60 63.31 60 63.7C60 64.1 60.151 64.47 60.418 64.75C60.686 65.03 61.05 65.1899 61.429 65.1899H70C70.188 65.1899 70.373 65.1501 70.547 65.0701C70.72 65.0001 70.878 64.89 71.01 64.75C71.143 64.61 71.248 64.45 71.32 64.27C71.392 64.09 71.429 63.9 71.429 63.7ZM47.143 19.26C47.522 19.26 47.885 19.1001 48.153 18.8301C48.421 18.5501 48.571 18.17 48.571 17.78C48.571 17.38 48.421 17.01 48.153 16.73C47.885 16.45 47.522 16.3 47.143 16.3H44.286C44.098 16.3 43.912 16.3299 43.739 16.4099C43.566 16.4799 43.408 16.59 43.275 16.73C43.143 16.87 43.037 17.03 42.966 17.21C42.894 17.39 42.857 17.58 42.857 17.78V38.52H41.429C41.05 38.52 40.686 38.67 40.418 38.95C40.151 39.2299 40 39.61 40 40C40 40.39 40.151 40.7701 40.418 41.05C40.686 41.33 41.05 41.48 41.429 41.48H42.857V62.22C42.857 62.42 42.894 62.61 42.966 62.79C43.037 62.97 43.143 63.13 43.275 63.27C43.408 63.41 43.566 63.5201 43.739 63.5901C43.912 63.6701 44.098 63.7 44.286 63.7H47.143C47.522 63.7 47.885 63.55 48.153 63.27C48.421 62.99 48.571 62.62 48.571 62.22C48.571 61.83 48.421 61.4499 48.153 61.1699C47.885 60.8999 47.522 60.74 47.143 60.74H45.714V19.26H47.143Z" fill="#0E5BCA"/>
</svg>
