<svg width="623" height="466" viewBox="0 0 623 466" fill="none" xmlns="http://www.w3.org/2000/svg">
<path d="M280.248 464.574C137.805 464.574 22.3317 367.457 22.3317 247.655C22.3317 127.854 137.805 30.7363 280.248 30.7363C422.691 30.7363 538.164 127.854 538.164 247.655C538.164 367.457 422.691 464.574 280.248 464.574Z" fill="#0E5BCA"/>
<path d="M514.417 247.654C514.417 247.654 559.047 336.284 506.883 464.573" stroke="#0E5BCA" stroke-width="5" stroke-miterlimit="10"/>
<path d="M483.272 246.924L487.541 249.403L483.616 243.855C479.448 237.963 472.809 234.307 465.602 233.933L446.701 232.954C469.885 192.1 515.335 189.633 529.608 222.672C529.608 222.672 564.687 218.063 590.1 230.572C590.1 230.572 550.786 237.143 553.059 247.015C556.117 260.298 607.55 245.128 607.55 245.128C616.107 256.46 622.41 273.033 622.251 291.818L620.326 290.147C610.031 281.22 597.648 275.038 584.327 272.177C579.387 271.116 574.549 274.352 573.644 279.323C572.39 286.208 579.172 291.804 585.693 289.264C595.771 285.343 607.224 288.029 614.506 296.024L621.322 303.508C619.171 317.735 613.142 332.804 601.624 347.553L584.275 328.506C580.671 324.548 576.012 321.701 570.846 320.3C568.522 319.67 566.121 321.016 565.449 323.328C564.888 325.257 565.698 327.32 567.422 328.351C578.954 336.93 583.878 365.505 583.878 365.505C575.888 371.76 566.426 377.454 556.37 382.562C556.37 382.562 549.731 346.954 540.703 349.005C530.777 351.26 541.104 389.718 541.104 389.718C529.062 394.947 516.828 399.385 505.773 402.995L506.148 375.801C506.187 372.968 504.076 370.566 501.261 370.242C497.635 369.824 494.609 372.976 495.176 376.582L496.769 386.732C498.425 397.285 491.898 407.419 481.591 410.23C471.155 413.076 464.501 414.532 464.501 414.532C464.501 414.532 460.464 403.523 455.379 386.88C451.316 373.584 457.334 359.278 469.7 352.922C471.273 352.114 472.438 350.688 472.919 348.986C474.406 343.718 468.994 339.152 464.051 341.504L445.347 350.4C442.817 339.961 440.481 328.99 438.672 318.095C437.569 311.45 440.19 304.732 445.416 300.483C455.042 292.655 471.912 298.511 479.759 290.655L481.274 287.893C482.944 284.848 481.236 281.048 477.848 280.278C463.145 276.936 447.712 279.879 435.27 288.399C434.565 274.881 435.327 262.479 438.345 252.599C439.117 250.073 439.984 247.672 440.891 245.331L460.473 242.504C468.356 241.369 476.389 242.925 483.272 246.924ZM513.836 360.863C515.535 366.691 519.464 370.671 522.615 369.753C525.765 368.836 526.942 363.366 525.243 357.538C523.545 351.711 519.615 347.731 516.465 348.648C513.315 349.567 512.138 355.035 513.836 360.863ZM476.04 311.16C475.397 313.366 477.804 316.005 481.417 317.057C485.029 318.108 488.476 317.173 489.119 314.968C489.761 312.762 487.354 310.123 483.742 309.072C480.13 308.02 476.682 308.954 476.04 311.16ZM506.789 250.898C509.19 249.471 509.578 245.692 507.656 242.458C505.735 239.225 502.229 237.76 499.829 239.189C497.428 240.615 497.04 244.394 498.961 247.628C500.884 250.86 504.388 252.324 506.789 250.898Z" fill="#2F80F5"/>
<path d="M500.251 339.954C499.246 329.707 499.125 319.366 499.524 309.045C499.957 298.72 501.056 288.405 502.863 278.165C504.769 267.942 507.567 257.855 511.28 248.019C515.167 238.238 520.311 228.909 526.651 220.258C527.899 218.556 530.29 218.187 531.992 219.435C533.694 220.682 534.063 223.074 532.815 224.775C532.771 224.835 532.727 224.891 532.682 224.948L532.564 225.089C526.257 232.693 520.841 241.149 516.545 250.272C512.416 259.461 509.08 269.08 506.596 278.969C504.209 288.878 502.49 298.984 501.428 309.183C500.401 319.38 499.88 329.669 500.251 339.954Z" fill="#0E5BCA"/>
<path d="M237.038 72.2832H407.469V296.991H237.038V72.2832Z" fill="#1970EB"/>
<path d="M250.801 85.4277H393.703V283.845H250.801V85.4277Z" fill="#0E5BCA"/>
<path d="M359.688 212.874C346.396 199.588 333.11 186.295 319.817 173.01C306.62 159.82 293.418 146.635 280.2 133.466C272.073 125.371 263.926 117.295 255.785 109.214V92.3516H274.119C280.05 98.283 285.983 104.214 291.915 110.148C301.861 120.094 311.807 130.04 321.753 139.986C331.744 149.979 341.738 159.97 351.731 169.963L388.715 206.948V241.861C379.039 232.202 369.359 222.542 359.688 212.874Z" fill="#1970EB"/>
<path d="M343.082 249.145C332.239 238.302 321.396 227.459 310.553 216.615C299.721 205.783 288.888 194.951 278.058 184.12L255.785 161.848V151.65C264.424 160.211 273.064 168.769 281.692 177.34C293.967 189.533 306.232 201.737 318.489 213.949C330.715 226.129 342.933 238.317 355.147 250.51C363.963 259.313 372.774 268.118 381.586 276.925H370.861C361.603 267.664 352.342 258.404 343.082 249.145Z" fill="#1970EB"/>
<path d="M74.5552 161.139H200.43V178.265H74.5552V161.139Z" fill="#1970EB"/>
<path d="M74.5552 194.744H200.43V211.871H74.5552V194.744Z" fill="#1970EB"/>
<path d="M74.5552 228.352H200.43V245.478H74.5552V228.352Z" fill="#1970EB"/>
<path d="M422.584 282.372H438.647C441.373 282.372 443.582 280.163 443.582 277.437V271.929C443.582 269.203 441.373 266.994 438.647 266.994H422.584C419.858 266.994 417.649 269.203 417.649 271.929V277.437C417.649 280.161 419.858 282.372 422.584 282.372Z" fill="#131338"/>
<path d="M418.404 302.192H434.467C437.193 302.192 439.402 299.983 439.402 297.257V291.75C439.402 289.024 437.193 286.814 434.467 286.814H418.404C415.678 286.814 413.469 289.024 413.469 291.75V297.257C413.467 299.983 415.678 302.192 418.404 302.192Z" fill="#131338"/>
<path d="M414.031 322.013H430.096C432.822 322.013 435.031 319.803 435.031 317.077V311.57C435.031 308.844 432.822 306.635 430.096 306.635H414.031C411.305 306.635 409.096 308.844 409.096 311.57V317.077C409.095 319.802 411.305 322.013 414.031 322.013Z" fill="#131338"/>
<path d="M391.957 263.42H452.504C457.958 263.42 462.762 259.863 464.403 254.662C472.225 229.866 474.143 205.44 464.871 181.714C463.025 176.987 458.398 173.93 453.322 173.93H391.956C385.08 173.93 379.507 179.503 379.507 186.379V250.97C379.508 257.846 385.081 263.42 391.957 263.42Z" fill="#212151"/>
<path d="M382.441 258.836H436.786C441.68 258.836 445.993 255.643 447.465 250.975C454.486 228.718 456.208 206.795 447.887 185.499C446.229 181.257 442.076 178.514 437.521 178.514H382.441C376.269 178.514 371.266 183.517 371.266 189.687V247.661C371.266 253.833 376.269 258.836 382.441 258.836Z" fill="#131338"/>
<path d="M276.205 199.093C276.205 199.093 270.847 259.038 230.914 280.989C204.439 286.054 133.954 299.572 133.954 299.572L135.967 312.932C135.967 312.932 222.299 317.006 246.668 304.835C271.036 292.665 313.994 251.779 322.531 214.674C331.067 177.572 280.295 184.732 276.205 199.093Z" fill="#D27350"/>
<path d="M141.215 301.325C141.215 301.325 137.915 289.559 122.501 284.363C112.678 281.051 108.082 282.897 108.659 284.135C109.749 286.473 114.148 286.646 117.227 288.477C119.038 289.554 119.954 290.808 119.838 291.107C119.528 291.913 90.3786 285.807 89.8208 288.788C88.9472 293.448 113.911 296.848 112.283 298.072C110.656 299.296 84.0087 292.419 83.6473 297.065C83.2828 301.754 110.007 303.807 110.146 305.25C110.285 306.692 87.3853 303.988 87.632 307.507C87.9023 311.34 110.203 311.271 110.729 313.474C110.943 314.364 97.4036 312.402 97.6519 315.967C97.8986 319.532 134.993 324.439 140.058 308.947L141.215 301.325Z" fill="#D27350"/>
<path d="M165.945 293.438L140.204 296.369C140.204 296.369 133.835 310.159 137.6 315.778L163.895 315.87L165.945 293.438Z" fill="#077EDF"/>
<path d="M165.416 298.584C165.437 298.777 165.424 298.966 165.385 299.145C165.226 299.872 164.615 300.449 163.834 300.529L137.702 303.227C138.097 301.861 138.529 300.6 138.922 299.536L163.469 297.001C164.445 296.902 165.316 297.61 165.416 298.584Z" fill="#2355C9"/>
<path d="M136.423 310.759C136.434 309.617 136.561 308.42 136.768 307.221L164.625 307.953L164.301 311.493L136.423 310.759Z" fill="#2355C9"/>
<path d="M276.089 193.149C276.089 193.149 257.373 251.767 236.859 274.101C230.915 280.99 171.195 287.16 162.803 289.961C155.259 292.479 150 320.77 159.089 322.395C191.695 328.225 266.161 335.378 285.442 309.135C295.58 295.832 337.73 238.076 343.036 222.063C347.546 208.45 334.198 169.055 325.145 168.174C286.97 164.456 278.698 183.985 276.089 193.149Z" fill="#5CA1FE"/>
<path d="M270.505 311.489C283.221 296.306 284.695 265.521 283.401 198.703C283.401 198.703 297.104 303.777 286.967 317.081C282.19 323.583 232.658 322.728 222.583 325.657C226.761 321.357 266.63 316.115 270.505 311.489Z" fill="#077EDF"/>
<path d="M284.347 195.246C284.499 176.737 300.526 168.649 307.659 168.203C335.459 166.464 405.858 165.675 420.09 177.01C434.203 188.251 433.289 319.515 421.551 357.108C421.551 357.108 302.982 374.409 276.58 353.614C288.187 294.483 283.746 267.761 284.347 195.246Z" fill="#5CA1FE"/>
<path d="M338.664 161.139H372.04C375.628 161.139 378.937 163.283 380.206 166.638C381.282 169.484 381.727 172.543 381.405 175.679C380.14 188.005 367.534 196.809 353.25 195.343C338.966 193.877 328.413 182.695 329.678 170.368C329.774 169.429 329.939 168.513 330.165 167.619C331.139 163.772 334.695 161.139 338.664 161.139Z" fill="#077EDF"/>
<path d="M335.815 161.607C336.717 161.304 337.677 161.141 338.664 161.141H339.341C339.582 164.692 340.57 170.829 344.408 174.715C346.625 176.958 349.573 178.164 353.165 178.333V178.31L355.118 178.322C360.305 178.06 364.274 176.443 366.906 173.5C370.98 168.943 370.584 162.607 370.579 162.542L372.347 162.413L374.115 162.278C374.124 162.407 374.207 163.735 373.972 165.634L379.942 166.088C380.029 166.272 380.131 166.447 380.203 166.638C380.583 167.644 380.88 168.678 381.097 169.732L373.241 169.135C373.132 169.497 373.011 169.864 372.875 170.237L381.328 176.127C381.166 177.414 380.887 178.663 380.487 179.862L371.315 173.47C370.851 174.228 370.312 174.974 369.685 175.695L376.486 186.805C375.695 187.718 374.844 188.586 373.902 189.376L367.02 178.134C365.993 178.886 364.868 179.529 363.644 180.057L366.939 193.482C365.848 193.917 364.729 194.307 363.564 194.604L360.264 181.16C359.133 181.432 357.942 181.631 356.685 181.752L356.595 195.48C355.49 195.49 354.376 195.46 353.245 195.344C353.179 195.337 353.116 195.326 353.05 195.32L353.138 181.872C352.31 181.84 351.506 181.771 350.73 181.647L346.462 193.838C345.329 193.444 344.234 192.987 343.184 192.468L347.289 180.744C346.23 180.337 345.235 179.824 344.306 179.205L337.308 188.553C336.4 187.753 335.559 186.898 334.792 185.996L341.605 176.896C340.971 176.218 340.402 175.499 339.896 174.749L331.273 180.403C330.783 179.278 330.393 178.116 330.11 176.925L338.177 171.638C337.842 170.886 337.555 170.127 337.303 169.369L329.588 171.517C329.606 171.137 329.632 170.755 329.672 170.372C329.766 169.454 329.926 168.557 330.146 167.682L336.398 165.941C336.081 164.335 335.908 162.847 335.815 161.607Z" fill="#2355C9"/>
<path d="M354.891 182.767C364.961 182.767 373.125 174.603 373.125 164.532V137.68H336.655V164.532C336.655 174.603 344.819 182.767 354.891 182.767Z" fill="#FFB685"/>
<path d="M341.393 163.121C353.956 163.203 361.892 158.503 370.207 141.419V137.68H336.653V158.338C336.653 160.958 338.773 163.104 341.393 163.121Z" fill="#212151"/>
<path d="M337.186 157.334H347.018C350.314 157.334 353.532 156.426 356.255 154.727L365.07 149.229C376.97 141.807 384.09 129.482 384.09 116.305V74.3248C384.09 68.9652 379.745 64.6191 374.384 64.6191H322.261C316.902 64.6191 312.555 68.9637 312.555 74.3248V128.459C312.555 129.85 312.857 131.213 313.451 132.492C316.347 138.735 325.913 157.334 337.186 157.334Z" fill="#FFB685"/>
<path d="M328.082 114.852C325.796 112.954 322.659 112.95 321.087 114.842L319.531 113.549C321.814 110.798 326.232 110.683 329.375 113.293L328.082 114.852Z" fill="#212151"/>
<path d="M357.012 114.85C355.882 113.913 354.505 113.393 353.167 113.426C351.877 113.445 350.758 113.948 350.018 114.84L348.459 113.547C349.584 112.191 351.247 111.429 353.137 111.402C353.173 111.402 353.209 111.402 353.244 111.402C355.04 111.402 356.832 112.072 358.305 113.293L357.012 114.85Z" fill="#212151"/>
<path d="M332.036 119.493V119.452C332.036 119.452 336.892 115.42 336.309 109.482C336.309 109.482 339.516 117.35 332.036 120.168C331.944 120.536 331.893 120.918 331.893 121.315C331.893 124.076 334.13 126.315 336.891 126.315C337.987 126.315 338.993 125.952 339.816 125.354C339.009 127.03 337.31 128.196 335.324 128.196C332.564 128.196 330.324 125.959 330.324 123.198C330.326 121.71 331.003 120.407 332.036 119.493Z" fill="#DB8352"/>
<path d="M315.584 124.924C315.584 127.352 318.06 129.32 321.116 129.32C324.172 129.32 326.648 127.352 326.648 124.924C326.648 122.496 324.172 120.529 321.116 120.529C318.06 120.529 315.584 122.496 315.584 124.924Z" fill="#EF9F6A"/>
<path d="M353.447 124.924C353.447 127.352 355.923 129.32 358.979 129.32C362.035 129.32 364.512 127.352 364.512 124.924C364.512 122.496 362.035 120.529 358.979 120.529C355.923 120.529 353.447 122.496 353.447 124.924Z" fill="#EF9F6A"/>
<path d="M349.282 103.645H362.562V100.656L343.528 97.8906C343.528 101.069 346.105 103.645 349.282 103.645Z" fill="#212151"/>
<path d="M315.946 103.645H329.227V100.656L310.192 97.8906C310.192 101.069 312.769 103.645 315.946 103.645Z" fill="#212151"/>
<path d="M331.963 130.211C331.963 134.73 335.625 138.391 340.144 138.391C344.662 138.391 348.324 134.728 348.324 130.211H331.963Z" fill="white"/>
<path d="M308.849 60.2873C308.849 54.7659 313.326 50.291 318.847 50.291H374.796C384.302 50.291 392.008 57.9964 392.008 67.5025V101.977C392.008 105.736 391.409 109.42 390.305 112.946C385.944 110.663 381.628 108.3 377.386 105.805C373.497 103.519 371.129 99.3235 371.129 94.814V90.2809C371.129 82.7719 365.042 76.6833 357.531 76.6833H308.849V60.2873Z" fill="#212151"/>
<path d="M410.914 173.967C400.024 172.206 389.328 178.909 389.105 195.188C389.148 204.881 392.796 219.195 396.38 228.412C391.281 202.862 384.734 174.602 410.914 173.967Z" fill="#077EDF"/>
<path d="M284.035 236.504H313.744C315.04 236.504 316.09 235.453 316.09 234.158V216.172C316.09 214.876 315.039 213.826 313.744 213.826H284.035C282.738 213.826 281.689 214.876 281.689 216.172V234.158C281.689 235.453 282.738 236.504 284.035 236.504Z" fill="#077EDF"/>
<path d="M283.865 231.576H313.912C315.114 231.576 316.09 230.602 316.09 229.398V211.074C316.09 209.872 315.116 208.896 313.912 208.896H283.865C282.663 208.896 281.687 209.871 281.687 211.074V229.398C281.689 230.602 282.663 231.576 283.865 231.576Z" fill="white"/>
<path d="M296.822 212.651H300.954C301.634 212.651 302.188 212.1 302.188 211.418V204.542C302.188 203.862 301.636 203.309 300.954 203.309H296.822C296.141 203.309 295.588 203.86 295.588 204.542V211.418C295.588 212.1 296.14 212.651 296.822 212.651Z" fill="#2355C9"/>
<path d="M303.28 221.494C303.28 224.375 305.262 226.712 307.707 226.712C310.151 226.712 312.133 224.375 312.133 221.494C312.133 218.612 310.151 216.275 307.707 216.275C305.263 216.277 303.28 218.612 303.28 221.494Z" fill="#E8E7F7"/>
<path d="M286.979 217.137H300.676V219.044H286.979V217.137Z" fill="#E8E7F7"/>
<path d="M286.979 220.539H300.676V222.447H286.979V220.539Z" fill="#E8E7F7"/>
<path d="M286.979 223.939H300.676V225.847H286.979V223.939Z" fill="#E8E7F7"/>
<path d="M320.443 54.9679H378.816V47.957H325.812C322.847 47.957 320.443 50.361 320.443 53.326V54.9679Z" fill="#1777C6"/>
<path d="M378.175 105.952H387.406V57.1549C387.406 52.0578 383.274 47.9238 378.175 47.9238V105.952Z" fill="#1777C6"/>
<path d="M322.191 141.42H302.189" stroke="white" stroke-width="2" stroke-miterlimit="10"/>
<path d="M318.522 145.112H322.932C324.984 145.112 326.648 143.448 326.648 141.396C326.648 139.344 324.984 137.68 322.932 137.68H318.522C316.47 137.68 314.806 139.344 314.806 141.396C314.806 143.448 316.47 145.112 318.522 145.112Z" fill="#131338"/>
<path d="M385.832 131.928V140.169" stroke="white" stroke-width="2" stroke-miterlimit="10"/>
<path d="M370.21 117.342C370.21 126.946 377.14 134.731 385.687 134.731C394.235 134.731 401.164 126.946 401.164 117.342C401.164 107.739 394.235 99.9531 385.687 99.9531C377.14 99.9516 370.21 107.737 370.21 117.342Z" fill="#131338"/>
<path d="M383.317 117.344C383.317 121.973 386.139 125.725 389.62 125.725C393.1 125.725 395.922 121.973 395.922 117.344C395.922 112.715 393.1 108.963 389.62 108.963C386.138 108.963 383.317 112.715 383.317 117.344Z" fill="#2355C9"/>
<path d="M385.832 137.68V141.767C385.832 146.446 385.018 151.089 383.43 155.49L375.528 177.358C373.938 181.76 373.125 186.403 373.125 191.082V221.506C373.125 232.217 368.87 242.49 361.295 250.065L299.027 312.334" stroke="white" stroke-width="0.75" stroke-miterlimit="10"/>
<path d="M308.851 88.5421H343.829C352.809 88.5421 360.09 81.2625 360.09 72.2812H308.851V88.5421Z" fill="#212151"/>
<path d="M166.042 339.545H312.105V329.612C312.105 325.756 308.979 322.629 305.123 322.629H166.042V339.545Z" fill="#30306B"/>
<path d="M51.4286 339.545H204.156C208.961 339.545 212.342 334.822 210.791 330.274L174.104 222.604C172.674 218.408 168.734 215.588 164.301 215.588H9.19026L51.4286 339.545Z" fill="#E8E7F7"/>
<path d="M47.907 339.545H195.161C198.769 339.545 201.308 335.999 200.144 332.585L163.108 223.894C161.416 218.927 156.749 215.588 151.503 215.588H5.66862C1.78763 215.588 -0.944794 219.404 0.307495 223.078L37.4409 332.055C38.9666 336.533 43.1744 339.545 47.907 339.545Z" fill="white"/>
<path d="M90.9769 266.584C98.0789 266.584 105.272 272.341 107.041 279.443C108.811 286.545 104.488 292.304 97.386 292.304C90.2839 292.304 83.0908 286.547 81.3215 279.443C79.5523 272.341 83.8748 266.584 90.9769 266.584Z" fill="#E8E7F7"/>
<path d="M540.777 357.105H4.38678V344.703C4.38678 341.853 6.69653 339.543 9.54675 339.543H535.617C538.468 339.543 540.777 341.853 540.777 344.703V357.105Z" fill="#30306B"/>
<path d="M50.1683 357.104H272.582V464.572H50.1683V357.104Z" fill="#212151"/>
<path d="M50.1683 357.104H272.582V365.921H50.1683V357.104Z" fill="#131338"/>
<path d="M272.582 357.104H512.648V464.572H272.582V357.104Z" fill="#131338"/>
<path d="M540.777 357.105H255.787V344.703C255.787 341.853 258.097 339.543 260.947 339.543H535.617C538.468 339.543 540.777 341.853 540.777 344.703V357.105Z" fill="#212151"/>
<path d="M362.288 293.158C361.276 294.24 360.024 295.053 358.63 295.557C343.917 300.89 288.368 308.393 279.761 311.71C276.268 313.056 271.345 324.075 277.679 339.48C320.128 339.582 376.399 339.881 403.898 339.742C409.739 339.712 415.118 336.399 417.602 331.111C427.638 309.755 435.334 264.736 440.349 249.392C459.066 192.142 423.571 178.95 413.41 178.309C375.654 175.932 385.757 268.056 362.288 293.158Z" fill="#077EDF"/>
<path d="M265.902 328.479C265.902 328.479 258.47 310.367 249.082 305.973C239.694 301.58 234.733 307.025 235.675 308.013C236.52 308.899 242.304 308.341 246.147 311.394C245.765 312.169 226.084 304.578 219.395 318.217C217.536 322.007 237.991 317.643 237.991 317.643C236.258 318.715 218.825 315.151 214.761 322.627C225.626 322.627 235.202 323.147 235.21 324.596C235.217 326.045 213.837 324.547 213.765 328.075C213.685 331.915 234.719 330.597 235.045 332.837C235.177 333.744 221.796 334.132 221.717 337.705C221.639 341.278 239.499 338.561 240.753 338.458C242.007 338.354 257.286 343.006 264.658 330.996L265.902 328.479Z" fill="#FFB685"/>
<path d="M218.998 319.162C218.998 319.162 223.426 314.988 237.031 317.842C237.031 317.842 231.94 313.876 220.7 316.033C220.7 316.033 219.108 317.48 218.998 319.162Z" fill="#EF9F6A"/>
<path d="M250.375 339.543C248.565 335.023 251.328 327.574 253.457 322.959C254.61 320.457 257.077 318.831 259.831 318.77L284.523 318.217L280.597 339.543H250.375Z" fill="#077EDF"/>
<path d="M283.406 323.897C283.409 324.115 283.376 324.324 283.315 324.519C283.064 325.314 282.325 325.894 281.447 325.905L252.045 326.255C252.624 324.774 253.233 323.412 253.78 322.266L281.4 321.938C282.495 321.924 283.393 322.8 283.406 323.897Z" fill="#2355C9"/>
<path d="M249.848 334.521C249.977 333.249 250.241 331.926 250.595 330.611L281.57 334.261L280.849 338.174L249.848 334.521Z" fill="#2355C9"/>
<path d="M365.348 300.134C364.264 301.329 362.935 302.28 361.417 302.83C346.701 308.163 288.37 308.394 279.764 311.71C276.271 313.057 271.348 324.076 277.682 339.481C325.096 339.594 384.42 339.822 406.966 339.544C419.619 325.747 434.487 267.34 440.354 249.393C459.07 192.143 421.945 174.609 411.785 173.97C374.173 171.6 388.469 274.612 365.348 300.134Z" fill="#5CA1FE"/>
<path d="M483.403 310.725H508.309V320.415H483.403V310.725Z" fill="#131338"/>
<path d="M483.402 320.415H452.56V314.535L483.402 310.725V320.415Z" fill="#212151"/>
<path d="M517.18 339.542H446.674H400.013V331.084L448.661 319.16H514.155C515.825 319.16 517.18 320.515 517.18 322.185V339.542Z" fill="#131338"/>
<path d="M455.344 336.69H512.795C513.7 336.69 514.434 335.956 514.434 335.051V323.649C514.434 322.744 513.7 322.01 512.795 322.01H455.344C454.439 322.01 453.705 322.744 453.705 323.649V335.051C453.705 335.956 454.439 336.69 455.344 336.69Z" fill="#30306B"/>
<path d="M467.98 330.611V375.188C467.98 378.55 465.254 381.276 461.892 381.276H451.808C448.445 381.276 445.719 384.002 445.719 387.365V464.575" stroke="#30306B" stroke-miterlimit="10"/>
<path d="M503.355 331.084V464.573" stroke="#30306B" stroke-miterlimit="10"/>
<path d="M375.691 297.566H395.598V323.882H375.691V297.566Z" stroke="#1251AF" stroke-width="3" stroke-miterlimit="10"/>
<path d="M384.483 286.205C384.483 286.205 373.332 281.065 377.262 277.562C381.191 274.059 446.981 270.612 446.667 243.043C446.354 215.474 339.211 247.645 322.293 215.582C322.293 215.582 297.857 248.369 320.726 258.394C334.913 264.613 368.653 250.967 383.652 249.263C403.159 247.049 403.159 270.984 381.991 268.909C335.353 264.336 359.993 281.776 344.083 286.203H384.483V286.205Z" fill="url(#paint0_linear_1999_517)"/>
<path d="M347.675 339.544H381.722C384.838 339.544 387.363 337.019 387.363 333.903V285.438H342.033V333.903C342.034 337.019 344.559 339.544 347.675 339.544Z" fill="#1777C6"/>
<path d="M346.434 310.724C346.434 316.487 349.619 321.158 353.547 321.158C357.475 321.158 360.66 316.487 360.66 310.724C360.66 304.96 357.475 300.289 353.547 300.289C349.619 300.291 346.434 304.962 346.434 310.724Z" fill="#1251AF"/>
<path d="M443.497 115.806L437.344 105.148H453.273L447.12 115.806C446.314 117.201 444.303 117.201 443.497 115.806Z" fill="#E8E7F7"/>
<path d="M260.833 56.3492L254.68 45.6914H270.609L264.456 56.3492C263.65 57.7429 261.638 57.7429 260.833 56.3492Z" fill="#E8E7F7"/>
<path d="M184.988 132.566L173.1 129.381L184.362 118.117L187.547 130.005C187.965 131.561 186.543 132.984 184.988 132.566Z" fill="#E8E7F7"/>
<path d="M428.005 108.693H506.565C509.925 108.693 512.648 105.968 512.648 102.609V49.6972C512.648 46.3363 509.924 43.6133 506.565 43.6133H428.005C424.644 43.6133 421.921 46.3378 421.921 49.6972V102.609C421.92 105.968 424.644 108.693 428.005 108.693Z" fill="white"/>
<path d="M241.593 48.3066H283.69C297.03 48.3066 307.844 37.4932 307.844 24.1533C307.844 10.8134 297.03 0 283.69 0H241.593C228.254 0 217.44 10.8134 217.44 24.1533C217.44 37.4932 228.254 48.3066 241.593 48.3066Z" fill="white"/>
<path d="M198.618 210.42L192.465 199.762H208.395L202.241 210.42C201.435 211.813 199.423 211.813 198.618 210.42Z" fill="#E8E7F7"/>
<path d="M179.379 202.377H221.476C234.816 202.377 245.629 191.563 245.629 178.224C245.629 164.884 234.816 154.07 221.476 154.07H179.379C166.039 154.07 155.225 164.884 155.225 178.224C155.225 191.563 166.04 202.377 179.379 202.377Z" fill="white"/>
<path d="M74.3232 133.057H163.558C176.898 133.057 187.711 122.243 187.711 108.903C187.711 95.5634 176.898 84.75 163.558 84.75H74.3232C60.9832 84.75 50.1699 95.5634 50.1699 108.903C50.1699 122.243 60.9848 133.057 74.3232 133.057Z" fill="white"/>
<path d="M482.924 92.3372C480.828 92.3372 479.13 90.6383 479.13 88.5426C479.13 86.4469 480.828 84.748 482.924 84.748C485.02 84.748 486.719 86.4469 486.719 88.5426C486.719 90.6383 485.02 92.3372 482.924 92.3372Z" fill="#0E5BCA"/>
<path d="M463.493 88.5426C463.493 90.6387 465.191 92.3372 467.287 92.3372C469.384 92.3372 471.082 90.6387 471.082 88.5426C471.082 86.4466 469.384 84.748 467.287 84.748C465.191 84.7496 463.493 86.4481 463.493 88.5426Z" fill="#0E5BCA"/>
<path d="M447.856 88.5426C447.856 90.6387 449.555 92.3372 451.651 92.3372C453.747 92.3372 455.445 90.6387 455.445 88.5426C455.445 86.4466 453.747 84.748 451.651 84.748C449.555 84.7496 447.856 86.4481 447.856 88.5426Z" fill="#0E5BCA"/>
<path d="M274.481 23.9782C274.481 26.0742 276.18 27.7727 278.276 27.7727C280.372 27.7727 282.07 26.0742 282.07 23.9782C282.07 21.8821 280.372 20.1836 278.276 20.1836C276.18 20.1836 274.481 21.8821 274.481 23.9782Z" fill="#1777C6"/>
<path d="M258.848 23.9782C258.848 26.0742 260.547 27.7727 262.643 27.7727C264.739 27.7727 266.438 26.0742 266.438 23.9782C266.438 21.8821 264.739 20.1836 262.643 20.1836C260.547 20.1836 258.848 21.8821 258.848 23.9782Z" fill="#1777C6"/>
<path d="M243.212 23.9782C243.212 26.0742 244.91 27.7727 247.006 27.7727C249.102 27.7727 250.801 26.0742 250.801 23.9782C250.801 21.8821 249.102 20.1836 247.006 20.1836C244.91 20.1836 243.212 21.8821 243.212 23.9782Z" fill="#1777C6"/>
<path d="M142.622 109.748C142.622 111.844 144.32 113.542 146.416 113.542C148.512 113.542 150.211 111.844 150.211 109.748C150.211 107.652 148.512 105.953 146.416 105.953C144.32 105.953 142.622 107.652 142.622 109.748Z" fill="#0E5BCA"/>
<path d="M126.985 109.748C126.985 111.844 128.684 113.542 130.78 113.542C132.876 113.542 134.574 111.844 134.574 109.748C134.574 107.652 132.876 105.953 130.78 105.953C128.684 105.953 126.985 107.652 126.985 109.748Z" fill="#1777C6"/>
<path d="M111.348 109.748C111.348 111.844 113.047 113.542 115.143 113.542C117.239 113.542 118.938 111.844 118.938 109.748C118.938 107.652 117.239 105.953 115.143 105.953C113.047 105.953 111.348 107.652 111.348 109.748Z" fill="#0E5BCA"/>
<path d="M96.6492 109.748C96.6492 111.844 98.3477 113.542 100.444 113.542C102.54 113.542 104.238 111.844 104.238 109.748C104.238 107.652 102.54 105.953 100.444 105.953C98.3477 105.953 96.6492 107.652 96.6492 109.748Z" fill="#1777C6"/>
<path d="M81.0124 109.748C81.0124 111.844 82.7109 113.542 84.807 113.542C86.903 113.542 88.6016 111.844 88.6016 109.748C88.6016 107.652 86.903 105.953 84.807 105.953C82.7109 105.953 81.0124 107.652 81.0124 109.748Z" fill="#0E5BCA"/>
<path d="M198.56 168.767L196.691 172.555C196.449 173.045 195.98 173.385 195.44 173.463L191.26 174.071C189.898 174.269 189.354 175.943 190.34 176.904L193.364 179.852C193.755 180.234 193.935 180.784 193.842 181.323L193.129 185.485C192.896 186.841 194.32 187.876 195.539 187.235L199.277 185.27C199.761 185.015 200.339 185.015 200.823 185.27L204.561 187.235C205.779 187.876 207.204 186.841 206.971 185.485L206.256 181.323C206.164 180.784 206.343 180.234 206.734 179.852L209.759 176.904C210.744 175.944 210.2 174.269 208.838 174.071L204.658 173.463C204.118 173.385 203.65 173.045 203.408 172.555L201.538 168.767C200.928 167.533 199.168 167.533 198.56 168.767Z" fill="#1777C6"/>
<path d="M172.524 168.767L170.654 172.555C170.412 173.045 169.945 173.385 169.403 173.463L165.224 174.071C163.861 174.269 163.318 175.943 164.303 176.904L167.328 179.852C167.719 180.234 167.898 180.784 167.805 181.323L167.092 185.485C166.859 186.841 168.283 187.876 169.502 187.235L173.24 185.27C173.724 185.015 174.302 185.015 174.786 185.27L178.524 187.235C179.742 187.876 181.167 186.841 180.935 185.485L180.221 181.323C180.128 180.784 180.308 180.234 180.699 179.852L183.724 176.904C184.709 175.944 184.165 174.269 182.803 174.071L178.623 173.463C178.083 173.385 177.614 173.045 177.372 172.555L175.503 168.767C174.893 167.533 173.133 167.533 172.524 168.767Z" fill="#1777C6"/>
<path d="M224.598 168.767L222.728 172.555C222.486 173.045 222.018 173.385 221.477 173.463L217.298 174.071C215.936 174.269 215.392 175.943 216.377 176.904L219.402 179.852C219.793 180.234 219.972 180.784 219.879 181.323L219.166 185.485C218.933 186.841 220.357 187.876 221.576 187.235L225.314 185.27C225.798 185.015 226.377 185.015 226.86 185.27L230.598 187.235C231.816 187.876 233.241 186.841 233.009 185.485L232.295 181.323C232.203 180.784 232.382 180.234 232.773 179.852L235.798 176.904C236.783 175.944 236.239 174.269 234.877 174.071L230.697 173.463C230.157 173.385 229.689 173.045 229.447 172.555L227.577 168.767C226.967 167.533 225.207 167.533 224.598 168.767Z" fill="#1777C6"/>
<defs>
<linearGradient id="paint0_linear_1999_517" x1="378.811" y1="306.755" x2="378.811" y2="240.637" gradientUnits="userSpaceOnUse">
<stop stop-color="white"/>
<stop offset="1" stop-color="white" stop-opacity="0"/>
</linearGradient>
</defs>
</svg>
