<svg width="56" height="48" viewBox="0 0 56 48" fill="none" xmlns="http://www.w3.org/2000/svg">
<path fill-rule="evenodd" clip-rule="evenodd" d="M42.4757 34.7093H35.6428C31.9674 29.141 24.0332 29.1404 20.3573 34.7093H13.5244V0H42.4757V34.7093ZM46.3306 24.0363C46.2279 23.8263 46.0165 23.6933 45.7851 23.6933H43.5714V24.9227H45.4069L47.205 28.594C47.3076 28.803 47.519 28.9358 47.7506 28.9358H50.6787C50.9554 30.1415 52.0278 31.0429 53.3046 31.0429C54.7909 31.0429 56 29.8222 56 28.3211C56 26.8201 54.7909 25.5994 53.3046 25.5994C52.0279 25.5994 50.9555 26.5008 50.6787 27.7064H48.1288L46.3306 24.0363ZM53.3045 29.8136C52.4898 29.8136 51.8269 29.1437 51.8269 28.3213C51.8269 27.4976 52.4898 26.829 53.3045 26.829C54.1196 26.829 54.7825 27.4977 54.7825 28.3213C54.7825 29.1436 54.1196 29.8136 53.3045 29.8136ZM50.6786 16.2988H43.5714V17.5276H50.6786C50.9553 18.7339 52.0277 19.6346 53.3045 19.6346C54.7908 19.6346 55.9999 18.4139 55.9999 16.9135C55.9999 15.4137 54.7908 14.1918 53.3045 14.1918C52.0277 14.1919 50.9553 15.0944 50.6786 16.2988ZM53.3045 18.4053C52.4898 18.4053 51.8269 17.7372 51.8269 16.9135C51.8269 16.0911 52.4898 15.4212 53.3045 15.4212C54.1196 15.4212 54.7825 16.0911 54.7825 16.9135C54.7825 17.7372 54.1196 18.4053 53.3045 18.4053ZM47.1863 5.9963L44.802 8.90386H43.5714V10.1331H45.0883C45.2696 10.1331 45.4415 10.052 45.5573 9.91103L47.9418 7.00285H50.6786C50.9553 8.20742 52.0277 9.10814 53.3045 9.10814C54.7908 9.10814 55.9999 7.88747 55.9999 6.38815C55.9999 4.88711 54.7908 3.66644 53.3045 3.66644C52.0278 3.66644 50.9554 4.56765 50.6786 5.77345H47.6554C47.4739 5.77357 47.302 5.8547 47.1863 5.9963ZM53.3045 7.87936C52.4898 7.87936 51.8269 7.21058 51.8269 6.38815C51.8269 5.5645 52.4898 4.89584 53.3045 4.89584C54.1196 4.89584 54.7825 5.56462 54.7825 6.38815C54.7825 7.2107 54.1196 7.87936 53.3045 7.87936ZM5.3213 27.7064C5.04484 26.5008 3.97244 25.5994 2.69541 25.5994C1.20935 25.5994 0 26.8201 0 28.3211C0 29.8222 1.20923 31.0429 2.69541 31.0429C3.97244 31.0429 5.04471 30.1415 5.3213 28.9358H8.2496C8.48102 28.9358 8.69248 28.8029 8.79511 28.594L10.5932 24.9227H12.4288V23.6933H10.2151C9.98352 23.6933 9.77218 23.8263 9.66955 24.0363L7.87148 27.7064H5.3213ZM2.69541 26.8288C3.51032 26.8288 4.17319 27.4976 4.17319 28.3211C4.17319 29.1436 3.51032 29.8135 2.69541 29.8135C1.88049 29.8135 1.21763 29.1436 1.21763 28.3211C1.21763 27.4976 1.88049 26.8288 2.69541 26.8288ZM5.3213 16.2988C5.04484 15.0942 3.97244 14.1918 2.69541 14.1918C1.20935 14.1918 0 15.4136 0 16.9135C0 18.4139 1.20923 19.6346 2.69541 19.6346C3.97244 19.6346 5.04471 18.7339 5.3213 17.5276H12.4288V16.2988H5.3213ZM2.69541 15.4212C3.51032 15.4212 4.17319 16.0911 4.17319 16.9135C4.17319 17.7372 3.51032 18.4053 2.69541 18.4053C1.88049 18.4053 1.21763 17.7372 1.21763 16.9135C1.21763 16.0911 1.88049 15.4212 2.69541 15.4212ZM11.1981 8.90386L8.81361 5.9963C8.69808 5.8547 8.52619 5.77357 8.34468 5.77357H5.3213C5.04484 4.56778 3.97244 3.66656 2.69541 3.66656C1.20935 3.66656 0.000121671 4.88723 0.000121671 6.38827C0.000121671 7.88759 1.20935 9.10827 2.69553 9.10827C3.97256 9.10827 5.04484 8.20754 5.32143 7.00297H8.05835L10.4427 9.91115C10.5585 10.0521 10.7304 10.1333 10.9116 10.1333H12.4289V8.90398L11.1981 8.90386ZM2.69541 4.89584C3.51032 4.89584 4.17319 5.56462 4.17319 6.38815C4.17319 7.21058 3.51032 7.87936 2.69541 7.87936C1.88049 7.87936 1.21763 7.21058 1.21763 6.38815C1.21763 5.56462 1.88049 4.89584 2.69541 4.89584ZM36.163 39.7569C36.163 35.2124 32.5008 31.5156 27.9999 31.5156C23.4992 31.5156 19.8371 35.2125 19.8371 39.7569C19.8371 44.302 23.4981 48 27.9999 48C32.5018 48.0001 36.163 44.3022 36.163 39.7569ZM24.6977 8.02305C24.0561 8.02305 24.0567 9.00662 24.6977 9.00662H37.8068C38.4478 9.00662 38.4483 8.02305 37.8068 8.02305H24.6977ZM24.6977 14.1997C24.0566 14.1997 24.0562 15.1826 24.6977 15.1826H37.8068C38.4483 15.1826 38.4479 14.1997 37.8068 14.1997H24.6977ZM20.6371 19.1563L19.1225 20.6861L18.5375 20.095C18.0848 19.6378 17.3952 20.3324 17.8488 20.7904L18.7781 21.7285C18.9693 21.9214 19.2756 21.9214 19.4669 21.7285L21.3258 19.8528C21.7795 19.3949 21.0908 18.6981 20.6371 19.1563ZM19.1225 26.8628L18.5375 26.2717C18.0844 25.8139 17.3947 26.5097 17.8488 26.9681L18.7781 27.9062C18.969 28.0989 19.2759 28.0989 19.4668 27.9062L21.3255 26.0294C21.7789 25.5717 21.0902 24.8766 20.6368 25.3342L19.1225 26.8628ZM24.6977 20.3774C24.0562 20.3774 24.0565 21.3603 24.6977 21.3603H37.8068C38.4479 21.3603 38.4483 20.3774 37.8068 20.3774H24.6977ZM21.3258 6.80213C21.1356 6.61063 20.827 6.61001 20.637 6.80201L19.1225 8.33181L18.5375 7.74132C18.0831 7.28285 17.3963 7.97929 17.8488 8.43592L18.7781 9.37401C18.9693 9.56686 19.2758 9.56699 19.4668 9.37401L21.3255 7.49722C21.5157 7.30547 21.5163 6.99388 21.3258 6.80213ZM24.6977 26.5552C24.0562 26.5552 24.0566 27.5382 24.6977 27.5382H37.8068C38.4479 27.5382 38.4483 26.5552 37.8068 26.5552H24.6977ZM19.1225 14.5084L18.5375 13.9173C18.0847 13.46 17.3953 14.1542 17.8489 14.6127L18.7783 15.552C18.9677 15.7434 19.2773 15.7434 19.4669 15.552L21.3256 13.6752C21.7794 13.2171 21.0898 12.5229 20.637 12.98L19.1225 14.5084ZM26.8842 41.3161L31.0035 37.1573C31.4576 36.6988 32.1453 37.3952 31.6921 37.8525L27.2286 42.3583C27.0375 42.5513 26.7311 42.5513 26.5399 42.3583L24.3082 40.1056C23.8544 39.6475 24.5439 38.9523 24.9969 39.4098L26.8842 41.3161Z" fill="#F1F9FF"/>
</svg>
