<svg width="121" height="61" viewBox="0 0 121 61" fill="none" xmlns="http://www.w3.org/2000/svg">
<path d="M112.345 60.541C110.327 60.5449 108.37 59.8419 106.816 58.5539L60.5085 19.8491L14.1145 57.1716C13.2308 57.8892 12.214 58.4252 11.1225 58.7485C10.031 59.0719 8.88632 59.1764 7.75431 59.056C6.62229 58.9356 5.52523 58.5926 4.5262 58.0468C3.52716 57.501 2.64583 56.7632 1.93288 55.8757C1.21523 54.992 0.679315 53.9751 0.355925 52.8836C0.0325343 51.7921 -0.07195 50.6475 0.0484773 49.5154C0.168905 48.3834 0.511868 47.2864 1.05766 46.2873C1.60345 45.2883 2.3413 44.407 3.2288 43.694L55.0656 1.96538C56.6115 0.694667 58.5506 0 60.5517 0C62.5528 0 64.4919 0.694667 66.0377 1.96538L117.875 45.1627C118.749 45.888 119.473 46.7787 120.003 47.7839C120.533 48.7891 120.859 49.889 120.964 51.0205C121.068 52.1521 120.948 53.2931 120.611 54.3783C120.273 55.4634 119.725 56.4714 118.998 57.3444C118.194 58.3354 117.18 59.1361 116.03 59.6888C114.88 60.2415 113.621 60.5325 112.345 60.541Z" fill="#2F4264"/>
</svg>
