<svg width="12" height="16" viewBox="0 0 12 16" fill="none" xmlns="http://www.w3.org/2000/svg">
<path d="M5.91306 16C5.95776 15.9248 5.99505 15.8635 6.03081 15.8016C6.74232 14.5658 7.59296 13.425 8.4292 12.2743C9.3494 11.0078 10.3304 9.78825 11.2945 8.55536C11.4307 8.38092 11.5568 8.1984 11.6941 8.02483C11.7528 7.95047 11.7436 7.89574 11.6915 7.82357C11.398 7.41667 11.0664 7.04031 10.7521 6.64999C9.3108 4.85866 7.92702 3.02503 6.66884 1.09873C6.45667 0.773823 6.27263 0.430386 6.02688 0.127724C5.88776 -0.0434495 5.88471 -0.0456301 5.76369 0.139717C4.89517 1.4716 3.99591 2.7819 3.04497 4.05687C2.08291 5.34689 1.09163 6.61357 0.0412512 7.83294C-0.0143528 7.89749 -0.0176229 7.93434 0.0392895 8.00063C1.80445 10.0501 3.42111 12.2124 4.9305 14.4559C5.26674 14.9557 5.58903 15.4645 5.91306 15.9996V16Z" fill="url(#paint0_linear_1_417)"/>
<defs>
<linearGradient id="paint0_linear_1_417" x1="5.86628" y1="0" x2="5.7345" y2="21.434" gradientUnits="userSpaceOnUse">
<stop offset="0.15" stop-color="#1C53A1"/>
<stop offset="1" stop-color="#1CCCCA" stop-opacity="0.37"/>
</linearGradient>
</defs>
</svg>
