<svg width="29" height="38" viewBox="0 0 29 38" fill="none" xmlns="http://www.w3.org/2000/svg">
<path fill-rule="evenodd" clip-rule="evenodd" d="M12.5082 2.49853C12.5082 7.57306 7.73099 12.198 2.4849 12.198L0.333983 12.198L0.333983 16.3608L2.4849 16.3608C6.30063 16.3608 9.87976 14.7415 12.5082 12.2001L12.5082 37.8828L16.81 37.8828L16.81 12.2001C19.4385 14.7415 23.0176 16.3608 26.8333 16.3608L28.9842 16.3608L28.9842 12.198L26.8333 12.198C21.5872 12.198 16.81 7.57306 16.81 2.49853L16.81 0.417106L12.5082 0.417106L12.5082 2.49853Z" fill="white"/>
<path d="M1.43555 13.2998L2.48535 13.2998C8.3056 13.2995 13.6103 8.21469 13.6103 2.49805L13.6103 1.51855L15.708 1.51855L15.708 2.49805C15.708 8.21473 21.0127 13.2996 26.833 13.2998L27.8818 13.2998L27.8818 15.2588L26.833 15.2588C23.3305 15.2587 20.0194 13.7705 17.5762 11.4082L15.708 9.60156L15.708 36.7812L13.6104 36.7812L13.6103 9.60156L11.7422 11.4082C9.29895 13.7705 5.98782 15.2587 2.48535 15.2588L1.43555 15.2588L1.43555 13.2998Z" stroke="white" stroke-opacity="0.19" stroke-width="2.20386"/>
</svg>
