<svg width="325" height="360" viewBox="0 0 325 360" fill="none" xmlns="http://www.w3.org/2000/svg">
<rect width="325" height="360" rx="20" fill="#0B0C1E"/>
<path d="M108.67 131.167H128.106L163.312 228H145.398L139.173 210.847H97.6725L91.4475 228H73.5333L108.67 131.167ZM103.828 193.97H132.948L118.353 154.061L103.828 193.97ZM172.842 228V131.167H204.935C211.621 131.167 217.869 132.435 223.679 134.971C229.535 137.461 234.677 140.942 239.103 145.415C243.576 149.842 247.057 154.983 249.547 160.839C252.084 166.649 253.352 172.897 253.352 179.583C253.352 186.269 252.084 192.541 249.547 198.397C247.057 204.207 243.576 209.348 239.103 213.821C234.677 218.247 229.535 221.729 223.679 224.265C217.869 226.755 211.621 228 204.935 228H172.842ZM189.718 211.123H204.935C209.223 211.123 213.258 210.316 217.039 208.702C220.866 207.042 224.232 204.783 227.137 201.924C230.042 199.019 232.325 195.676 233.985 191.895C235.645 188.068 236.475 183.964 236.475 179.583C236.475 175.203 235.645 171.122 233.985 167.341C232.325 163.56 230.042 160.217 227.137 157.312C224.232 154.407 220.889 152.147 217.108 150.533C213.327 148.873 209.269 148.043 204.935 148.043H189.718V211.123Z" fill="white"/>
</svg>
