<svg width="1164" height="140" viewBox="0 0 1164 140" fill="none" xmlns="http://www.w3.org/2000/svg">
<rect x="0.109375" y="0.492188" width="1163" height="139" rx="10" fill="#0B0C1E"/>
<path d="M548.235 40.9167H560.295L582.139 101H571.024L567.161 90.3567H541.411L537.549 101H526.433L548.235 40.9167ZM545.231 79.885H563.299L554.243 55.1221L545.231 79.885ZM588.052 101V40.9167H607.966C612.114 40.9167 615.991 41.7035 619.596 43.2771C623.23 44.8221 626.42 46.9822 629.166 49.7575C631.942 52.5042 634.102 55.6943 635.647 59.3279C637.22 62.9329 638.007 66.8097 638.007 70.9583C638.007 75.1069 637.22 78.9981 635.647 82.6317C634.102 86.2367 631.942 89.4268 629.166 92.2021C626.42 94.9487 623.23 97.1089 619.596 98.6825C615.991 100.227 612.114 101 607.966 101H588.052ZM598.524 90.5283H607.966C610.626 90.5283 613.13 90.0276 615.476 89.0262C617.851 87.9962 619.939 86.5943 621.742 84.8204C623.544 83.0179 624.961 80.9436 625.991 78.5975C627.021 76.2228 627.536 73.6764 627.536 70.9583C627.536 68.2403 627.021 65.7082 625.991 63.3621C624.961 61.016 623.544 58.9417 621.742 57.1392C619.939 55.3367 617.865 53.9347 615.519 52.9333C613.173 51.9033 610.655 51.3883 607.966 51.3883H598.524V90.5283Z" fill="white"/>
</svg>
