<svg width="1167" height="585" viewBox="0 0 1167 585" fill="none" xmlns="http://www.w3.org/2000/svg">
<rect x="0.0546875" y="0.581055" width="1166" height="584" rx="20" fill="#0B0C1E"/>
<path d="M528.725 243.748H548.161L583.366 340.581H565.452L559.227 323.428H517.727L511.502 340.581H493.588L528.725 243.748ZM523.883 306.551H553.002L538.408 266.642L523.883 306.551ZM592.896 340.581V243.748H624.99C631.676 243.748 637.924 245.016 643.734 247.552C649.59 250.042 654.731 253.523 659.158 257.996C663.631 262.423 667.112 267.564 669.602 273.42C672.138 279.23 673.406 285.478 673.406 292.164C673.406 298.85 672.138 305.122 669.602 310.978C667.112 316.788 663.631 321.929 659.158 326.402C654.731 330.829 649.59 334.31 643.734 336.846C637.924 339.336 631.676 340.581 624.99 340.581H592.896ZM609.773 323.704H624.99C629.278 323.704 633.313 322.897 637.094 321.284C640.921 319.624 644.287 317.364 647.192 314.505C650.097 311.6 652.38 308.257 654.04 304.476C655.7 300.649 656.53 296.545 656.53 292.164C656.53 287.784 655.7 283.703 654.04 279.922C652.38 276.141 650.097 272.798 647.192 269.893C644.287 266.988 640.944 264.728 637.163 263.114C633.382 261.454 629.324 260.624 624.99 260.624H609.773V323.704Z" fill="white"/>
</svg>
