<svg width="2364" height="2434" viewBox="0 0 2364 2434" fill="none" xmlns="http://www.w3.org/2000/svg">
<path d="M2308.6 847.704C2310.07 852.468 2311.51 857.244 2312.93 862.033C2312.67 862.112 2312.52 862.39 2312.59 862.654C2314.1 867.745 2315.57 872.85 2317.01 877.969C2317.08 878.234 2317.36 878.389 2317.62 878.315C2318.97 883.116 2320.29 887.93 2321.58 892.755C2321.32 892.827 2321.16 893.101 2321.23 893.367C2322.61 898.513 2323.95 903.673 2325.26 908.847C2325.32 909.081 2325.54 909.234 2325.77 909.224L2325.87 909.209C2327.09 914.035 2328.29 918.873 2329.45 923.722V923.723C2329.18 923.787 2329.02 924.057 2329.08 924.325C2330.32 929.488 2331.53 934.663 2332.7 939.852C2332.76 940.12 2333.03 940.288 2333.3 940.229C2334.4 945.095 2335.47 949.973 2336.51 954.861C2336.24 954.919 2336.07 955.185 2336.13 955.455C2337.24 960.669 2338.31 965.895 2339.36 971.133C2339.41 971.403 2339.67 971.579 2339.94 971.525C2340.91 976.4 2341.85 981.286 2342.77 986.182H2342.77C2342.5 986.232 2342.32 986.493 2342.37 986.765C2343.34 991.985 2344.28 997.217 2345.19 1002.46C2345.23 1002.73 2345.49 1002.91 2345.76 1002.87C2346.61 1007.79 2347.43 1012.72 2348.22 1017.66C2347.95 1017.7 2347.76 1017.96 2347.81 1018.23C2348.65 1023.49 2349.45 1028.76 2350.23 1034.04C2350.27 1034.32 2350.52 1034.5 2350.79 1034.46C2351.51 1039.38 2352.2 1044.31 2352.86 1049.24C2352.59 1049.28 2352.4 1049.53 2352.43 1049.8C2353.14 1055.07 2353.81 1060.34 2354.44 1065.63C2354.48 1065.9 2354.72 1066.1 2355 1066.07C2355.45 1069.79 2355.88 1073.52 2356.29 1077.25L2356.7 1080.97C2356.42 1081 2356.23 1081.24 2356.25 1081.52C2356.82 1086.81 2357.36 1092.11 2357.86 1097.42C2357.89 1097.7 2358.13 1097.9 2358.41 1097.87C2358.87 1102.82 2359.31 1107.77 2359.72 1112.74C2359.45 1112.76 2359.24 1113 2359.27 1113.28C2359.7 1118.57 2360.1 1123.87 2360.47 1129.19C2360.49 1129.46 2360.73 1129.67 2361 1129.65C2361.34 1134.64 2361.66 1139.63 2361.94 1144.63C2361.67 1144.65 2361.46 1144.88 2361.47 1145.16C2361.77 1150.47 2362.04 1155.78 2362.28 1161.11C2362.29 1161.38 2362.52 1161.6 2362.79 1161.59C2363.01 1166.55 2363.2 1171.52 2363.36 1176.5C2363.08 1176.51 2362.87 1176.74 2362.87 1177.01C2363.04 1182.32 2363.17 1187.64 2363.27 1192.97C2363.28 1193.25 2363.51 1193.47 2363.78 1193.46C2363.88 1198.46 2363.94 1203.46 2363.97 1208.47C2363.69 1208.48 2363.47 1208.7 2363.47 1208.98C2363.49 1211.65 2363.5 1214.32 2363.5 1217C2363.5 1219.68 2363.49 1222.35 2363.47 1225.02C2363.47 1225.3 2363.69 1225.52 2363.97 1225.53C2363.94 1230.54 2363.88 1235.54 2363.78 1240.54C2363.51 1240.53 2363.28 1240.75 2363.27 1241.03C2363.17 1246.36 2363.04 1251.68 2362.87 1256.99C2362.87 1257.26 2363.08 1257.49 2363.36 1257.5C2363.2 1262.48 2363.01 1267.45 2362.79 1272.41C2362.52 1272.4 2362.29 1272.62 2362.28 1272.89C2362.04 1278.22 2361.77 1283.54 2361.47 1288.84C2361.46 1289.12 2361.67 1289.35 2361.94 1289.37C2361.66 1294.37 2361.34 1299.36 2361 1304.35C2360.73 1304.33 2360.49 1304.54 2360.47 1304.81C2360.1 1310.13 2359.7 1315.43 2359.27 1320.72C2359.24 1321 2359.45 1321.24 2359.72 1321.26C2359.31 1326.23 2358.87 1331.18 2358.41 1336.13C2358.13 1336.1 2357.89 1336.3 2357.86 1336.58C2357.49 1340.56 2357.09 1344.54 2356.68 1348.51L2356.25 1352.48C2356.23 1352.72 2356.38 1352.94 2356.6 1353.01L2356.7 1353.03C2356.16 1358.01 2355.59 1362.98 2355 1367.93C2354.72 1367.9 2354.48 1368.1 2354.44 1368.37C2353.81 1373.66 2353.14 1378.93 2352.43 1384.2C2352.4 1384.47 2352.59 1384.72 2352.86 1384.76C2352.2 1389.69 2351.51 1394.62 2350.79 1399.53C2350.52 1399.5 2350.27 1399.69 2350.23 1399.96C2349.45 1405.24 2348.65 1410.51 2347.81 1415.77C2347.76 1416.04 2347.95 1416.3 2348.22 1416.34C2347.43 1421.28 2346.61 1426.21 2345.76 1431.13C2345.49 1431.09 2345.23 1431.27 2345.19 1431.54C2344.28 1436.78 2343.34 1442.02 2342.37 1447.24C2342.32 1447.51 2342.5 1447.77 2342.77 1447.82C2341.85 1452.71 2340.91 1457.6 2339.94 1462.47C2339.67 1462.42 2339.41 1462.6 2339.36 1462.87C2338.31 1468.11 2337.24 1473.33 2336.13 1478.55C2336.07 1478.82 2336.24 1479.08 2336.51 1479.14C2335.47 1484.03 2334.4 1488.9 2333.3 1493.77C2333.03 1493.71 2332.76 1493.88 2332.7 1494.15C2331.53 1499.34 2330.32 1504.51 2329.08 1509.68C2329.02 1509.94 2329.18 1510.21 2329.45 1510.28C2328.29 1515.13 2327.09 1519.96 2325.87 1524.79C2325.6 1524.72 2325.33 1524.89 2325.26 1525.15C2324.28 1529.03 2323.28 1532.91 2322.26 1536.77L2321.23 1540.63C2321.16 1540.9 2321.32 1541.17 2321.58 1541.25C2320.29 1546.07 2318.97 1550.88 2317.62 1555.68C2317.36 1555.61 2317.08 1555.77 2317.01 1556.03C2315.57 1561.15 2314.1 1566.26 2312.59 1571.35C2312.52 1571.61 2312.67 1571.89 2312.93 1571.97C2311.51 1576.75 2310.07 1581.53 2308.6 1586.29C2308.34 1586.21 2308.06 1586.36 2307.97 1586.63C2306.79 1590.45 2305.59 1594.26 2304.37 1598.07L2303.15 1601.87C2303.07 1602.13 2303.21 1602.41 2303.47 1602.5C2301.93 1607.25 2300.36 1611.98 2298.77 1616.7C2298.51 1616.62 2298.23 1616.76 2298.14 1617.02C2296.44 1622.05 2294.7 1627.07 2292.94 1632.08C2292.85 1632.34 2292.98 1632.62 2293.24 1632.72C2291.58 1637.43 2289.89 1642.13 2288.17 1646.82C2287.94 1646.74 2287.69 1646.83 2287.57 1647.03L2287.53 1647.12C2286.15 1650.87 2284.75 1654.61 2283.34 1658.35L2281.92 1662.08C2281.82 1662.34 2281.95 1662.63 2282.21 1662.72C2280.43 1667.39 2278.62 1672.03 2276.78 1676.66C2276.52 1676.56 2276.23 1676.69 2276.13 1676.95C2274.66 1680.65 2273.17 1684.35 2271.67 1688.04L2270.16 1691.72C2270.05 1691.97 2270.17 1692.27 2270.43 1692.37C2268.52 1697 2266.58 1701.61 2264.62 1706.2C2264.37 1706.09 2264.08 1706.21 2263.97 1706.46C2261.88 1711.36 2259.75 1716.24 2257.6 1721.11C2257.49 1721.36 2257.6 1721.65 2257.85 1721.77C2255.83 1726.33 2253.78 1730.87 2251.71 1735.4C2251.49 1735.3 2251.23 1735.37 2251.1 1735.56L2251.05 1735.65C2249.38 1739.28 2247.7 1742.9 2246 1746.5L2244.3 1750.11C2244.18 1750.36 2244.29 1750.66 2244.54 1750.78C2242.4 1755.29 2240.22 1759.79 2238.03 1764.28C2237.81 1764.17 2237.56 1764.24 2237.41 1764.42L2237.36 1764.5C2235.02 1769.29 2232.64 1774.05 2230.24 1778.79C2230.11 1779.04 2230.21 1779.34 2230.46 1779.46C2228.2 1783.91 2225.92 1788.34 2223.62 1792.75C2223.4 1792.64 2223.14 1792.7 2223 1792.88L2222.94 1792.97C2221.09 1796.51 2219.22 1800.04 2217.34 1803.56L2215.45 1807.07C2215.32 1807.32 2215.41 1807.62 2215.65 1807.75C2213.27 1812.14 2210.87 1816.52 2208.45 1820.88C2208.24 1820.77 2207.98 1820.82 2207.83 1821L2207.77 1821.08C2205.18 1825.73 2202.56 1830.36 2199.92 1834.97C2199.78 1835.21 2199.86 1835.52 2200.1 1835.65C2197.62 1839.98 2195.11 1844.28 2192.57 1848.57C2192.34 1848.43 2192.03 1848.51 2191.89 1848.75C2189.85 1852.19 2187.8 1855.62 2185.74 1859.04L2183.67 1862.45C2183.52 1862.69 2183.6 1862.99 2183.83 1863.14C2181.23 1867.4 2178.61 1871.65 2175.96 1875.88C2175.75 1875.75 2175.49 1875.79 2175.33 1875.95L2175.27 1876.03C2173.15 1879.41 2171.01 1882.78 2168.86 1886.14L2166.71 1889.49C2166.56 1889.72 2166.62 1890.03 2166.85 1890.18C2164.14 1894.38 2161.41 1898.55 2158.65 1902.71C2158.45 1902.57 2158.19 1902.6 2158.03 1902.77L2157.96 1902.85C2155.75 1906.17 2153.53 1909.49 2151.28 1912.79L2149.04 1916.09C2148.88 1916.32 2148.94 1916.63 2149.17 1916.79C2146.35 1920.91 2143.51 1925.01 2140.64 1929.09C2140.42 1928.94 2140.11 1928.99 2139.95 1929.22C2137.65 1932.48 2135.35 1935.73 2133.02 1938.97L2130.69 1942.21C2130.53 1942.43 2130.58 1942.74 2130.8 1942.9C2127.88 1946.95 2124.93 1950.98 2121.96 1954.99C2121.73 1954.83 2121.42 1954.87 2121.26 1955.09C2118.88 1958.3 2116.48 1961.49 2114.07 1964.67L2111.65 1967.85C2111.49 1968.07 2111.53 1968.38 2111.75 1968.55C2108.72 1972.52 2105.67 1976.46 2102.59 1980.39C2102.4 1980.24 2102.14 1980.25 2101.96 1980.4L2101.89 1980.48C2099.43 1983.62 2096.95 1986.74 2094.46 1989.86L2091.97 1992.97C2091.79 1993.18 2091.83 1993.5 2092.04 1993.67C2088.91 1997.56 2085.75 2001.43 2082.57 2005.28C2082.36 2005.1 2082.04 2005.13 2081.87 2005.34C2078.47 2009.44 2075.05 2013.52 2071.61 2017.58C2071.43 2017.79 2071.46 2018.1 2071.67 2018.28C2068.43 2022.08 2065.18 2025.86 2061.9 2029.62C2061.72 2029.46 2061.46 2029.46 2061.27 2029.6L2061.2 2029.67C2057.7 2033.68 2054.17 2037.67 2050.62 2041.63C2050.44 2041.83 2050.46 2042.15 2050.66 2042.33C2047.33 2046.05 2043.97 2049.75 2040.6 2053.42C2040.42 2053.26 2040.15 2053.25 2039.97 2053.38L2039.89 2053.45C2036.29 2057.37 2032.66 2061.26 2029.01 2065.13C2028.82 2065.33 2028.83 2065.64 2029.02 2065.83C2025.6 2069.46 2022.15 2073.06 2018.68 2076.64C2018.51 2076.47 2018.24 2076.46 2018.05 2076.59L2017.97 2076.65C2015.19 2079.52 2012.4 2082.37 2009.59 2085.21L2006.78 2088.04C2006.58 2088.24 2006.58 2088.55 2006.78 2088.75C2003.25 2092.28 1999.71 2095.8 1996.14 2099.29C1995.95 2099.09 1995.63 2099.09 1995.44 2099.28C1992.58 2102.07 1989.72 2104.84 1986.84 2107.6L1983.95 2110.36C1983.75 2110.55 1983.74 2110.87 1983.93 2111.07C1980.32 2114.51 1976.68 2117.92 1973.02 2121.32C1972.84 2121.11 1972.52 2121.1 1972.32 2121.29C1969.39 2124 1966.45 2126.7 1963.5 2129.39L1960.54 2132.07C1960.33 2132.25 1960.32 2132.57 1960.5 2132.77C1956.8 2136.11 1953.07 2139.43 1949.32 2142.73C1949.16 2142.55 1948.9 2142.51 1948.7 2142.63L1948.62 2142.68C1944.62 2146.2 1940.6 2149.68 1936.56 2153.14C1936.35 2153.32 1936.32 2153.63 1936.5 2153.84C1932.71 2157.09 1928.89 2160.3 1925.06 2163.5C1924.91 2163.31 1924.65 2163.27 1924.44 2163.38L1924.36 2163.44C1920.27 2166.84 1916.16 2170.22 1912.02 2173.57C1911.81 2173.74 1911.77 2174.06 1911.95 2174.27C1908.07 2177.41 1904.17 2180.53 1900.25 2183.62C1900.1 2183.43 1899.84 2183.38 1899.64 2183.48L1899.55 2183.53C1895.37 2186.83 1891.17 2190.09 1886.95 2193.33C1886.73 2193.5 1886.69 2193.81 1886.86 2194.03C1882.9 2197.07 1878.91 2200.08 1874.92 2203.06C1874.77 2202.87 1874.51 2202.81 1874.3 2202.91L1874.22 2202.96C1871.02 2205.34 1867.81 2207.71 1864.58 2210.07L1861.35 2212.41C1861.13 2212.58 1861.08 2212.89 1861.24 2213.11C1857.2 2216.04 1853.14 2218.94 1849.06 2221.82C1848.92 2221.62 1848.67 2221.55 1848.45 2221.65L1848.37 2221.7C1845.1 2223.99 1841.83 2226.28 1838.54 2228.54L1835.25 2230.8C1835.03 2230.96 1834.97 2231.27 1835.12 2231.49C1831.01 2234.31 1826.87 2237.1 1822.72 2239.86C1822.56 2239.64 1822.25 2239.57 1822.02 2239.73C1818.7 2241.94 1815.37 2244.13 1812.02 2246.3L1808.67 2248.47C1808.44 2248.62 1808.37 2248.93 1808.52 2249.16C1804.32 2251.87 1800.11 2254.55 1795.88 2257.2C1795.75 2257 1795.5 2256.92 1795.29 2257L1795.19 2257.04C1790.69 2259.87 1786.16 2262.66 1781.61 2265.42C1781.38 2265.56 1781.3 2265.87 1781.45 2266.11C1777.18 2268.7 1772.9 2271.26 1768.6 2273.79C1768.48 2273.58 1768.23 2273.5 1768.01 2273.57L1767.92 2273.62C1764.48 2275.64 1761.03 2277.65 1757.57 2279.64L1754.11 2281.63C1753.87 2281.76 1753.78 2282.07 1753.92 2282.31C1749.58 2284.78 1745.23 2287.22 1740.87 2289.64C1740.75 2289.43 1740.5 2289.34 1740.28 2289.41L1740.19 2289.45C1736.7 2291.38 1733.2 2293.29 1729.69 2295.18L1726.17 2297.07C1725.93 2297.2 1725.84 2297.5 1725.97 2297.75C1721.57 2300.1 1717.15 2302.42 1712.72 2304.72C1712.61 2304.51 1712.36 2304.41 1712.14 2304.47L1712.05 2304.51C1707.32 2306.96 1702.57 2309.37 1697.81 2311.75C1697.59 2311.86 1697.49 2312.11 1697.55 2312.33L1697.59 2312.43C1693.13 2314.66 1688.65 2316.86 1684.16 2319.03C1684.06 2318.81 1683.81 2318.71 1683.59 2318.76L1683.49 2318.8C1679.9 2320.53 1676.3 2322.25 1672.69 2323.95L1669.08 2325.64C1668.83 2325.76 1668.72 2326.06 1668.84 2326.31C1664.31 2328.41 1659.78 2330.49 1655.22 2332.54C1655.11 2332.29 1654.81 2332.18 1654.56 2332.29C1650.92 2333.93 1647.27 2335.55 1643.61 2337.15L1639.95 2338.75C1639.7 2338.86 1639.58 2339.15 1639.69 2339.4C1635.12 2341.38 1630.53 2343.33 1625.93 2345.25C1625.82 2345 1625.53 2344.88 1625.27 2344.98C1620.37 2347.03 1615.44 2349.04 1610.5 2351.03C1610.25 2351.13 1610.12 2351.42 1610.22 2351.67C1605.59 2353.53 1600.94 2355.36 1596.28 2357.15C1596.19 2356.93 1595.96 2356.8 1595.73 2356.84L1595.63 2356.87C1590.67 2358.78 1585.69 2360.65 1580.7 2362.5C1580.44 2362.59 1580.31 2362.88 1580.4 2363.14C1575.72 2364.86 1571.04 2366.55 1566.33 2368.22C1566.24 2367.96 1565.96 2367.82 1565.7 2367.91C1560.68 2369.69 1555.65 2371.42 1550.61 2373.13C1550.34 2373.22 1550.2 2373.5 1550.29 2373.76C1545.56 2375.36 1540.81 2376.92 1536.05 2378.46C1535.98 2378.23 1535.75 2378.09 1535.52 2378.12L1535.42 2378.14C1530.37 2379.77 1525.3 2381.36 1520.22 2382.92C1519.96 2383.01 1519.81 2383.29 1519.89 2383.55C1515.12 2385.01 1510.35 2386.44 1505.56 2387.84C1505.48 2387.58 1505.2 2387.42 1504.94 2387.5C1499.83 2388.99 1494.71 2390.45 1489.57 2391.87C1489.31 2391.94 1489.15 2392.22 1489.22 2392.48C1484.41 2393.81 1479.59 2395.11 1474.75 2396.38C1474.68 2396.12 1474.41 2395.96 1474.14 2396.03C1470.29 2397.04 1466.43 2398.02 1462.57 2398.99L1458.7 2399.96C1458.43 2400.02 1458.27 2400.29 1458.33 2400.56C1453.49 2401.75 1448.64 2402.92 1443.78 2404.05C1443.71 2403.78 1443.45 2403.61 1443.18 2403.68C1437.99 2404.88 1432.79 2406.05 1427.58 2407.19C1427.31 2407.24 1427.14 2407.51 1427.2 2407.78C1422.33 2408.84 1417.45 2409.86 1412.55 2410.86C1412.5 2410.59 1412.24 2410.42 1411.96 2410.47C1406.76 2411.53 1401.55 2412.55 1396.33 2413.53C1396.05 2413.59 1395.88 2413.85 1395.93 2414.12C1391.02 2415.04 1386.11 2415.93 1381.19 2416.79C1381.14 2416.52 1380.88 2416.34 1380.61 2416.39C1375.36 2417.3 1370.1 2418.18 1364.83 2419.02C1364.56 2419.07 1364.37 2419.32 1364.42 2419.59C1359.5 2420.38 1354.58 2421.13 1349.65 2421.85C1349.61 2421.58 1349.36 2421.39 1349.08 2421.43C1343.83 2422.2 1338.57 2422.93 1333.29 2423.62C1333.02 2423.66 1332.82 2423.91 1332.86 2424.18C1327.91 2424.83 1322.96 2425.45 1317.99 2426.03C1317.96 2425.76 1317.71 2425.56 1317.43 2425.59C1312.14 2426.22 1306.84 2426.8 1301.52 2427.35C1301.25 2427.38 1301.05 2427.63 1301.08 2427.9C1296.14 2428.41 1291.19 2428.89 1286.23 2429.33C1286.2 2429.06 1285.96 2428.86 1285.69 2428.88C1280.4 2429.35 1275.1 2429.79 1269.79 2430.19C1269.52 2430.21 1269.31 2430.45 1269.33 2430.73C1264.35 2431.1 1259.36 2431.45 1254.37 2431.76C1254.35 2431.48 1254.11 2431.27 1253.84 2431.29C1248.53 2431.62 1243.21 2431.91 1237.88 2432.16C1237.6 2432.18 1237.39 2432.41 1237.4 2432.68C1232.44 2432.92 1227.47 2433.13 1222.49 2433.3C1222.48 2433.02 1222.25 2432.81 1221.98 2432.82C1216.67 2433 1211.35 2433.14 1206.03 2433.25C1205.75 2433.26 1205.53 2433.49 1205.54 2433.76C1200.54 2433.86 1195.54 2433.93 1190.52 2433.97C1190.52 2433.69 1190.3 2433.47 1190.02 2433.47C1187.35 2433.49 1184.68 2433.5 1182 2433.5C1179.32 2433.5 1176.65 2433.49 1173.98 2433.47C1173.7 2433.47 1173.48 2433.69 1173.47 2433.97C1168.46 2433.93 1163.46 2433.86 1158.46 2433.76C1158.47 2433.49 1158.25 2433.26 1157.97 2433.25L1153.98 2433.17C1149.99 2433.07 1146 2432.95 1142.02 2432.82C1141.75 2432.81 1141.51 2433.02 1141.5 2433.3C1136.53 2433.13 1131.56 2432.92 1126.6 2432.68C1126.61 2432.41 1126.4 2432.18 1126.12 2432.16C1120.79 2431.91 1115.47 2431.62 1110.16 2431.29C1109.89 2431.27 1109.65 2431.48 1109.63 2431.76C1104.64 2431.45 1099.65 2431.1 1094.67 2430.73C1094.69 2430.45 1094.48 2430.21 1094.21 2430.19L1090.23 2429.88C1086.25 2429.57 1082.28 2429.23 1078.31 2428.88C1078.04 2428.86 1077.79 2429.06 1077.77 2429.33C1072.81 2428.89 1067.86 2428.41 1062.92 2427.9C1062.95 2427.62 1062.75 2427.38 1062.47 2427.35L1058.49 2426.93C1054.51 2426.51 1050.53 2426.06 1046.57 2425.59L1046.46 2425.59C1046.23 2425.61 1046.04 2425.79 1046.01 2426.03C1041.04 2425.45 1036.09 2424.83 1031.14 2424.18C1031.17 2423.91 1030.98 2423.66 1030.71 2423.62L1026.75 2423.09C1022.8 2422.56 1018.86 2422 1014.92 2421.43C1014.64 2421.39 1014.39 2421.58 1014.35 2421.85C1009.42 2421.13 1004.5 2420.38 999.583 2419.59C999.625 2419.32 999.44 2419.07 999.168 2419.02L995.216 2418.38C991.266 2417.74 987.323 2417.07 983.386 2416.39L983.285 2416.38C983.053 2416.38 982.85 2416.55 982.808 2416.79C977.885 2415.93 972.973 2415.04 968.072 2414.12C968.123 2413.85 967.945 2413.59 967.674 2413.53C962.449 2412.55 957.235 2411.53 952.034 2410.47C951.764 2410.42 951.5 2410.59 951.444 2410.86C946.552 2409.86 941.67 2408.84 936.8 2407.78C936.858 2407.51 936.686 2407.24 936.417 2407.19L932.511 2406.33C928.607 2405.46 924.71 2404.58 920.82 2403.68L920.72 2403.66C920.488 2403.66 920.275 2403.81 920.22 2404.05C915.357 2402.92 910.506 2401.75 905.666 2400.56C905.731 2400.29 905.568 2400.02 905.301 2399.96L901.433 2398.99C897.568 2398.02 893.709 2397.04 889.859 2396.03L889.76 2396.01C889.528 2396 889.311 2396.15 889.249 2396.38C884.413 2395.11 879.589 2393.81 874.777 2392.48C874.85 2392.22 874.694 2391.94 874.429 2391.87L870.579 2390.8C866.732 2389.72 862.893 2388.62 859.062 2387.5C858.798 2387.42 858.52 2387.58 858.442 2387.84C853.653 2386.44 848.876 2385.01 844.112 2383.55C844.193 2383.29 844.044 2383.01 843.78 2382.92L839.971 2381.75C836.164 2380.56 832.365 2379.36 828.575 2378.14L828.476 2378.12C828.245 2378.09 828.02 2378.23 827.945 2378.46C823.187 2376.92 818.441 2375.36 813.708 2373.76C813.795 2373.5 813.655 2373.22 813.394 2373.13L809.612 2371.84C805.834 2370.55 802.064 2369.24 798.303 2367.91C798.043 2367.82 797.757 2367.96 797.665 2368.22C792.963 2366.55 788.275 2364.86 783.6 2363.14C783.694 2362.88 783.562 2362.59 783.304 2362.5L779.561 2361.11C775.821 2359.71 772.09 2358.3 768.368 2356.87L768.271 2356.84C768.042 2356.8 767.809 2356.93 767.722 2357.15C763.059 2355.36 758.411 2353.53 753.776 2351.67C753.878 2351.42 753.754 2351.13 753.498 2351.03C748.558 2349.04 743.633 2347.03 738.726 2344.98L738.629 2344.96C738.401 2344.91 738.165 2345.03 738.071 2345.25C733.47 2343.33 728.883 2341.38 724.311 2339.4C724.42 2339.15 724.304 2338.86 724.051 2338.75L720.388 2337.15C716.728 2335.55 713.078 2333.93 709.438 2332.29L709.341 2332.26C709.114 2332.21 708.876 2332.32 708.776 2332.54C704.223 2330.49 699.684 2328.41 695.161 2326.31C695.277 2326.06 695.17 2325.76 694.92 2325.64L691.307 2323.95C687.697 2322.25 684.096 2320.53 680.506 2318.8C680.258 2318.68 679.958 2318.78 679.838 2319.03C675.347 2316.86 670.871 2314.66 666.411 2312.43H666.412C666.536 2312.18 666.436 2311.88 666.189 2311.75L662.62 2309.96C659.055 2308.16 655.499 2306.34 651.954 2304.51C651.709 2304.38 651.408 2304.48 651.28 2304.72C646.849 2302.42 642.433 2300.1 638.033 2297.75C638.163 2297.5 638.071 2297.2 637.828 2297.07L634.314 2295.18C630.803 2293.29 627.303 2291.38 623.812 2289.45L623.72 2289.41C623.498 2289.34 623.251 2289.43 623.134 2289.64C618.766 2287.22 614.415 2284.78 610.081 2282.31C610.217 2282.07 610.134 2281.76 609.895 2281.63L606.431 2279.64C602.97 2277.65 599.522 2275.64 596.083 2273.62L595.99 2273.57C595.771 2273.5 595.521 2273.59 595.398 2273.79C591.1 2271.26 586.818 2268.7 582.554 2266.11C582.696 2265.87 582.621 2265.56 582.386 2265.42C577.84 2262.66 573.313 2259.87 568.806 2257.04C568.572 2256.9 568.263 2256.97 568.116 2257.2C563.886 2254.55 559.674 2251.87 555.479 2249.16C555.628 2248.93 555.563 2248.62 555.331 2248.47L551.981 2246.3C548.635 2244.13 545.3 2241.94 541.977 2239.73C541.747 2239.57 541.437 2239.64 541.284 2239.87C537.13 2237.1 532.993 2234.31 528.875 2231.49C529.03 2231.27 528.973 2230.96 528.745 2230.8C524.354 2227.8 519.984 2224.76 515.635 2221.7L515.546 2221.65C515.333 2221.55 515.077 2221.62 514.938 2221.82C510.859 2218.94 506.799 2216.04 502.757 2213.11C502.918 2212.89 502.869 2212.58 502.646 2212.41C498.337 2209.29 494.05 2206.14 489.784 2202.96L489.697 2202.91C489.487 2202.81 489.228 2202.87 489.084 2203.06C485.086 2200.08 481.104 2197.07 477.144 2194.03C477.311 2193.81 477.27 2193.5 477.051 2193.33L473.889 2190.9C470.73 2188.46 467.583 2186 464.449 2183.53L464.363 2183.48C464.156 2183.38 463.897 2183.43 463.747 2183.62C459.829 2180.53 455.932 2177.41 452.053 2174.27C452.226 2174.06 452.193 2173.74 451.979 2173.57L448.882 2171.05C445.789 2168.53 442.71 2165.99 439.643 2163.44L439.559 2163.38C439.354 2163.27 439.093 2163.32 438.938 2163.5C435.105 2160.31 431.291 2157.09 427.497 2153.84C427.676 2153.63 427.652 2153.32 427.442 2153.14L424.415 2150.54C421.392 2147.94 418.381 2145.32 415.384 2142.69L415.301 2142.63C415.099 2142.51 414.837 2142.55 414.678 2142.73C410.931 2139.43 407.205 2136.12 403.499 2132.77C403.684 2132.57 403.668 2132.25 403.463 2132.07L400.505 2129.39C397.551 2126.7 394.609 2124 391.682 2121.29C391.479 2121.1 391.163 2121.11 390.976 2121.32C387.319 2117.92 383.683 2114.51 380.067 2111.07C380.257 2110.87 380.25 2110.55 380.05 2110.36L377.165 2107.61C374.285 2104.84 371.418 2102.07 368.564 2099.28L368.485 2099.22C368.29 2099.09 368.026 2099.11 367.857 2099.29C364.291 2095.8 360.746 2092.28 357.222 2088.75C357.416 2088.55 357.417 2088.24 357.223 2088.04L354.41 2085.21C351.602 2082.37 348.808 2079.52 346.027 2076.65C345.836 2076.46 345.52 2076.45 345.321 2076.64C341.851 2073.06 338.402 2069.46 334.976 2065.83C335.175 2065.64 335.183 2065.33 334.994 2065.13C331.341 2061.26 327.713 2057.37 324.11 2053.45L324.034 2053.39C323.846 2053.25 323.581 2053.26 323.403 2053.42C320.026 2049.75 316.67 2046.05 313.337 2042.33C313.542 2042.15 313.56 2041.84 313.376 2041.63L310.718 2038.65C308.065 2035.67 305.426 2032.68 302.802 2029.67L302.728 2029.6C302.543 2029.46 302.278 2029.46 302.096 2029.62C298.819 2025.86 295.565 2022.08 292.333 2018.28C292.543 2018.1 292.569 2017.79 292.391 2017.58C288.946 2013.52 285.528 2009.45 282.135 2005.34L282.062 2005.27C281.881 2005.13 281.616 2005.12 281.43 2005.28C278.249 2001.43 275.092 1997.56 271.958 1993.67C272.173 1993.5 272.207 1993.18 272.034 1992.97L269.538 1989.86C267.047 1986.74 264.571 1983.62 262.109 1980.48L262.039 1980.4C261.862 1980.25 261.597 1980.24 261.407 1980.39C258.332 1976.46 255.28 1972.52 252.252 1968.55C252.471 1968.39 252.514 1968.07 252.347 1967.85L249.931 1964.68C247.52 1961.49 245.124 1958.3 242.743 1955.09L242.675 1955.02C242.502 1954.86 242.239 1954.85 242.045 1954.99C239.071 1950.98 236.12 1946.95 233.194 1942.9C233.418 1942.74 233.469 1942.43 233.308 1942.21L230.979 1938.97C228.655 1935.73 226.346 1932.48 224.053 1929.22L223.987 1929.14C223.818 1928.98 223.555 1928.96 223.357 1929.09C220.492 1925.01 217.65 1920.91 214.832 1916.79C215.059 1916.63 215.118 1916.32 214.963 1916.1L212.716 1912.79C210.474 1909.49 208.248 1906.17 206.038 1902.85L205.974 1902.77C205.809 1902.6 205.546 1902.57 205.345 1902.71C202.588 1898.55 199.855 1894.38 197.146 1890.18C197.378 1890.03 197.444 1889.73 197.295 1889.49L195.138 1886.14C192.986 1882.78 190.85 1879.41 188.73 1876.03C188.584 1875.8 188.275 1875.73 188.041 1875.88C185.392 1871.65 182.768 1867.4 180.169 1863.14C180.404 1862.99 180.478 1862.69 180.335 1862.45C177.565 1857.9 174.823 1853.34 172.11 1848.75C171.97 1848.51 171.663 1848.43 171.426 1848.57C168.892 1844.28 166.383 1839.98 163.899 1835.65C164.138 1835.52 164.221 1835.21 164.084 1834.97L162.104 1831.51C160.131 1828.04 158.173 1824.57 156.231 1821.08C156.097 1820.84 155.794 1820.75 155.553 1820.89C153.127 1816.52 150.726 1812.15 148.352 1807.75C148.594 1807.62 148.684 1807.32 148.553 1807.07L146.663 1803.56C144.778 1800.04 142.909 1796.51 141.058 1792.97L141.002 1792.88C140.855 1792.7 140.598 1792.64 140.384 1792.75C138.077 1788.34 135.796 1783.91 133.541 1779.46C133.786 1779.34 133.885 1779.04 133.761 1778.79L131.964 1775.23C130.173 1771.67 128.398 1768.09 126.64 1764.5C126.518 1764.26 126.218 1764.15 125.971 1764.28C123.774 1759.79 121.604 1755.29 119.46 1750.78C119.709 1750.66 119.816 1750.36 119.697 1750.11L117.995 1746.5C116.298 1742.9 114.617 1739.28 112.953 1735.65C112.838 1735.4 112.542 1735.29 112.291 1735.4C110.217 1730.87 108.168 1726.33 106.146 1721.77C106.399 1721.65 106.513 1721.36 106.401 1721.11L104.792 1717.46C103.188 1713.8 101.601 1710.14 100.031 1706.46L99.9824 1706.38C99.8503 1706.19 99.5978 1706.11 99.376 1706.2C97.4147 1701.61 95.4798 1697 93.5723 1692.37C93.8268 1692.27 93.9478 1691.97 93.8428 1691.72C91.8204 1686.81 89.8285 1681.89 87.8672 1676.95C87.7653 1676.69 87.4743 1676.56 87.2178 1676.66C85.3812 1672.03 83.5716 1667.39 81.7891 1662.72C82.0467 1662.63 82.1763 1662.34 82.0781 1662.08L80.6592 1658.35C79.2466 1654.61 77.8513 1650.87 76.4736 1647.12L76.4287 1647.03C76.3064 1646.83 76.0586 1646.74 75.832 1646.82C74.113 1642.13 72.4211 1637.43 70.7568 1632.72C71.0171 1632.62 71.1543 1632.34 71.0625 1632.08L69.7451 1628.32C68.4334 1624.56 67.139 1620.8 65.8623 1617.02L65.8203 1616.93C65.7035 1616.73 65.4581 1616.63 65.2295 1616.7C63.635 1611.98 62.0676 1607.24 60.5283 1602.5C60.7905 1602.41 60.9346 1602.13 60.8496 1601.87L59.626 1598.06C58.4082 1594.26 57.2076 1590.45 56.0254 1586.63L55.9863 1586.53C55.8745 1586.33 55.6311 1586.22 55.4004 1586.29C53.9287 1581.53 52.4845 1576.75 51.0684 1571.97C51.333 1571.89 51.4843 1571.61 51.4062 1571.35L50.2852 1567.52C49.1697 1563.7 48.072 1559.87 46.9922 1556.03L46.9551 1555.94C46.8487 1555.73 46.6082 1555.62 46.376 1555.68C45.0277 1550.88 43.7073 1546.07 42.415 1541.24C42.6812 1541.17 42.8398 1540.9 42.7686 1540.63L41.7422 1536.77C40.7222 1532.91 39.7201 1529.03 38.7363 1525.15L38.7021 1525.06C38.6009 1524.85 38.363 1524.73 38.1289 1524.79C36.9073 1519.96 35.7132 1515.13 34.5479 1510.28H34.5488C34.817 1510.21 34.9823 1509.94 34.918 1509.67L33.9951 1505.8C33.0783 1501.92 32.1794 1498.04 31.2988 1494.15L31.2666 1494.05C31.171 1493.84 30.9375 1493.72 30.7021 1493.77C29.6029 1488.9 28.5316 1484.03 27.4893 1479.14C27.759 1479.08 27.9314 1478.81 27.874 1478.54L27.0479 1474.63C26.228 1470.72 25.4267 1466.8 24.6436 1462.87L24.6133 1462.77C24.523 1462.56 24.2917 1462.43 24.0547 1462.47C23.085 1457.6 22.1443 1452.71 21.2314 1447.82C21.5026 1447.77 21.6813 1447.51 21.6309 1447.24C20.6596 1442.02 19.7206 1436.78 18.8145 1431.54L18.7881 1431.44C18.7037 1431.23 18.476 1431.09 18.2383 1431.13C17.3903 1426.21 16.5707 1421.28 15.7803 1416.34C16.0524 1416.3 16.2378 1416.04 16.1943 1415.77L15.5703 1411.82C14.9529 1407.87 14.3538 1403.92 13.7734 1399.96C13.7334 1399.68 13.48 1399.49 13.207 1399.53C12.4889 1394.62 11.8005 1389.69 11.1396 1384.76C11.4122 1384.72 11.6036 1384.47 11.5674 1384.2L11.0459 1380.25C10.5311 1376.29 10.0355 1372.33 9.55762 1368.37L9.53516 1368.27C9.46169 1368.05 9.24091 1367.9 9.00098 1367.93C8.40536 1362.97 7.8383 1358.01 7.30078 1353.03C7.57524 1353 7.7745 1352.76 7.74512 1352.48L7.32422 1348.51C6.90955 1344.54 6.51318 1340.56 6.13574 1336.58L6.11621 1336.48C6.04842 1336.26 5.83187 1336.1 5.5918 1336.13C5.12506 1331.18 4.68639 1326.23 4.27734 1321.26C4.55232 1321.24 4.75692 1321 4.73438 1320.72L4.41504 1316.75C4.10176 1312.78 3.80733 1308.8 3.53125 1304.81L3.51367 1304.71C3.45168 1304.49 3.23957 1304.33 2.99902 1304.35C2.65571 1299.36 2.34148 1294.37 2.05664 1289.37C2.33149 1289.35 2.5417 1289.12 2.52637 1288.84L2.30762 1284.86C2.09485 1280.87 1.90005 1276.89 1.72461 1272.89C1.71231 1272.62 1.47953 1272.4 1.2041 1272.41C0.988078 1267.45 0.800686 1262.48 0.642578 1257.5C0.918195 1257.49 1.13438 1257.26 1.12598 1256.99L1.00781 1253C0.895294 1249.02 0.800771 1245.02 0.725586 1241.03L0.713867 1240.93C0.663034 1240.7 0.458336 1240.53 0.216797 1240.54C0.124722 1235.54 0.0626909 1230.54 0.0292969 1225.52C0.304825 1225.52 0.526888 1225.3 0.525391 1225.02L0.505859 1221.01C0.501666 1219.68 0.5 1218.34 0.5 1217C0.5 1215.66 0.501666 1214.32 0.505859 1212.99L0.525391 1208.98C0.526986 1208.7 0.304891 1208.48 0.0292969 1208.47C0.0626954 1203.46 0.124721 1198.46 0.216797 1193.46C0.45827 1193.46 0.662955 1193.3 0.713867 1193.07L0.725586 1192.97C0.825833 1187.64 0.959414 1182.32 1.12598 1177.01C1.13445 1176.74 0.918267 1176.51 0.642578 1176.5C0.800705 1171.52 0.988048 1166.55 1.2041 1161.58C1.47971 1161.6 1.7125 1161.38 1.72461 1161.11C1.90004 1157.11 2.09486 1153.12 2.30762 1149.14L2.52637 1145.16C2.5418 1144.88 2.3316 1144.65 2.05664 1144.63C2.3415 1139.63 2.65568 1134.64 2.99902 1129.65C3.23961 1129.67 3.45162 1129.51 3.51367 1129.29L3.53125 1129.19C3.89936 1123.87 4.30019 1118.57 4.73438 1113.28C4.7569 1113 4.55238 1112.76 4.27734 1112.74C4.68639 1107.77 5.12506 1102.82 5.5918 1097.87C5.83197 1097.89 6.04842 1097.74 6.11621 1097.52L6.13574 1097.42C6.51319 1093.44 6.90955 1089.46 7.32422 1085.49L7.74512 1081.52C7.77448 1081.24 7.57524 1081 7.30078 1080.97C7.83833 1075.99 8.40532 1071.02 9.00098 1066.07C9.24099 1066.09 9.46171 1065.95 9.53516 1065.73L9.55762 1065.63C10.0355 1061.66 10.532 1057.71 11.0469 1053.75L11.5674 1049.8C11.6039 1049.53 11.4125 1049.28 11.1396 1049.24C11.8005 1044.31 12.4889 1039.38 13.207 1034.46C13.4801 1034.5 13.7334 1034.32 13.7734 1034.04C14.3539 1030.08 14.9529 1026.12 15.5703 1022.17L16.1943 1018.23C16.2378 1017.96 16.0525 1017.7 15.7803 1017.66C16.5707 1012.72 17.3903 1007.79 18.2383 1002.87C18.4759 1002.91 18.7034 1002.77 18.7881 1002.56L18.8145 1002.46C19.4941 998.528 20.1929 994.601 20.9092 990.682L21.6309 986.764C21.6751 986.526 21.5438 986.296 21.3281 986.209L21.2314 986.181C22.1443 981.285 23.085 976.399 24.0547 971.524C24.2915 971.572 24.5229 971.444 24.6133 971.229L24.6436 971.132C25.4267 967.203 26.228 963.281 27.0479 959.366L27.874 955.454C27.9314 955.184 27.7595 954.919 27.4902 954.861C28.5325 949.973 29.6029 945.095 30.7021 940.229C30.9712 940.289 31.238 940.12 31.2988 939.851C32.4729 934.662 33.6796 929.487 34.918 924.324C34.9822 924.056 34.8163 923.785 34.5479 923.721C35.7131 918.872 36.9073 914.034 38.1289 909.208C38.3632 909.267 38.601 909.151 38.7021 908.941L38.7363 908.847C39.7201 904.967 40.7222 901.093 41.7422 897.229L42.7686 893.366C42.8396 893.1 42.6814 892.825 42.415 892.754C43.7073 887.929 45.0277 883.115 46.376 878.314C46.6085 878.38 46.8487 878.269 46.9551 878.062L46.9922 877.969C48.072 874.13 49.1697 870.298 50.2852 866.475L51.4062 862.654C51.4844 862.389 51.3332 862.111 51.0684 862.033C52.4585 857.332 53.8756 852.643 55.3193 847.966L55.4004 847.704C55.6313 847.775 55.8745 847.671 55.9863 847.467L56.0254 847.374C57.6017 842.279 59.2101 837.198 60.8496 832.133C60.9345 831.87 60.7908 831.588 60.5283 831.503C62.0676 826.754 63.6351 822.018 65.2295 817.295C65.4581 817.372 65.7034 817.274 65.8203 817.073L65.8623 816.981C67.1389 813.205 68.4334 809.436 69.7451 805.677L71.0625 801.92C71.1543 801.66 71.0179 801.373 70.7578 801.281C72.4219 796.567 74.1131 791.866 75.832 787.179C76.059 787.262 76.3075 787.171 76.4297 786.973L76.4736 786.882C77.8514 783.129 79.2465 779.386 80.6592 775.651L82.0781 771.92C82.1764 771.662 82.0469 771.373 81.7891 771.274C83.5716 766.614 85.3812 761.967 87.2178 757.335C87.4422 757.424 87.6928 757.339 87.8203 757.145L87.8672 757.055C89.8286 752.114 91.8203 747.188 93.8428 742.279C93.9477 742.024 93.827 741.732 93.5723 741.627C95.4799 737.003 97.4146 732.393 99.376 727.798C99.5979 727.892 99.8502 727.815 99.9824 727.624L100.031 727.535C102.124 722.637 104.248 717.756 106.401 712.892C106.513 712.639 106.399 712.344 106.146 712.232C108.168 707.672 110.217 703.127 112.291 698.598C112.511 698.698 112.765 698.626 112.902 698.438L112.953 698.352C114.617 694.723 116.298 691.104 117.995 687.495L119.697 683.89C119.816 683.64 119.709 683.342 119.46 683.224C121.11 679.748 122.776 676.281 124.457 672.824L125.971 669.724C126.188 669.83 126.444 669.765 126.586 669.581L126.64 669.495C128.398 665.91 130.173 662.334 131.964 658.77L133.761 655.209C133.885 654.963 133.787 654.662 133.541 654.537C135.796 650.09 138.077 645.659 140.384 641.244C140.628 641.372 140.93 641.277 141.058 641.032C143.527 636.312 146.025 631.61 148.553 626.927C148.684 626.684 148.593 626.381 148.351 626.25C150.725 621.855 153.126 617.476 155.552 613.114C155.763 613.231 156.022 613.179 156.174 613.003L156.231 612.92C158.173 609.432 160.131 605.956 162.104 602.49L164.084 599.029C164.221 598.79 164.138 598.483 163.898 598.346C166.283 594.195 168.691 590.06 171.122 585.941L171.426 585.428C171.634 585.55 171.894 585.505 172.05 585.333L172.11 585.252C174.823 580.664 177.565 576.096 180.335 571.548C180.479 571.312 180.404 571.005 180.168 570.861C182.767 566.598 185.391 562.351 188.04 558.123L188.041 558.124C188.246 558.252 188.507 558.214 188.668 558.046L188.73 557.966C190.85 554.585 192.986 551.217 195.138 547.859L197.294 544.507C197.444 544.275 197.377 543.965 197.146 543.815C199.854 539.623 202.587 535.449 205.345 531.294C205.575 531.446 205.884 531.384 206.037 531.154C208.248 527.826 210.474 524.51 212.716 521.205L214.962 517.905C215.118 517.678 215.059 517.367 214.832 517.211C217.649 513.091 220.491 508.989 223.356 504.906C223.554 505.045 223.817 505.02 223.986 504.86L224.053 504.784C227.11 500.432 230.195 496.101 233.307 491.793C233.468 491.569 233.418 491.256 233.194 491.095C236.12 487.047 239.071 483.019 242.044 479.011C242.238 479.154 242.502 479.137 242.675 478.981L242.743 478.907C245.124 475.701 247.519 472.507 249.93 469.325L252.346 466.147C252.513 465.928 252.47 465.615 252.251 465.447C255.279 461.481 258.331 457.535 261.406 453.609C261.596 453.758 261.861 453.747 262.038 453.597L262.108 453.523C264.57 450.384 267.046 447.257 269.537 444.143L272.033 441.032C272.206 440.817 272.172 440.502 271.957 440.329C275.05 436.492 278.165 432.674 281.303 428.877L281.43 428.724C281.616 428.877 281.88 428.874 282.062 428.729L282.134 428.657C284.678 425.581 287.238 422.518 289.812 419.468L292.39 416.423C292.568 416.212 292.543 415.897 292.333 415.718C295.564 411.917 298.818 408.137 302.095 404.379C302.277 404.538 302.542 404.54 302.727 404.399L302.801 404.33C305.425 401.322 308.064 398.327 310.717 395.347L313.375 392.371C313.559 392.165 313.542 391.849 313.336 391.665C316.669 387.947 320.026 384.252 323.403 380.577C323.581 380.74 323.845 380.751 324.033 380.615L324.109 380.548C326.812 377.61 329.528 374.687 332.259 371.777L334.994 368.873C335.183 368.673 335.174 368.357 334.975 368.167C338.401 364.543 341.85 360.94 345.32 357.359C345.494 357.527 345.757 357.543 345.949 357.412L346.026 357.348C348.807 354.481 351.601 351.629 354.409 348.791L357.222 345.958C357.416 345.762 357.416 345.446 357.221 345.251C360.745 341.716 364.29 338.203 367.856 334.713C368.025 334.886 368.289 334.91 368.484 334.784L368.563 334.721C371.417 331.931 374.284 329.156 377.164 326.396L380.049 323.64C380.249 323.449 380.257 323.133 380.066 322.933C383.682 319.493 387.318 316.077 390.975 312.684C391.139 312.861 391.402 312.892 391.601 312.771L391.682 312.71C395.585 309.091 399.512 305.498 403.462 301.933C403.667 301.748 403.683 301.432 403.498 301.227C407.204 297.884 410.931 294.566 414.678 291.271C414.837 291.451 415.098 291.489 415.3 291.374L415.383 291.315C418.38 288.681 421.391 286.063 424.414 283.459L427.441 280.86C427.651 280.681 427.676 280.365 427.496 280.155C431.29 276.912 435.104 273.694 438.938 270.499C439.092 270.685 439.353 270.73 439.558 270.62L439.642 270.563C442.709 268.01 445.789 265.472 448.882 262.949L451.979 260.432C452.166 260.279 452.215 260.019 452.107 259.812L452.052 259.729C455.838 256.663 459.642 253.622 463.466 250.604L463.746 250.383C463.917 250.6 464.231 250.637 464.448 250.466C467.582 247.995 470.729 245.541 473.888 243.103L477.051 240.669C477.27 240.501 477.311 240.187 477.144 239.968C480.158 237.659 483.185 235.363 486.221 233.083L489.084 230.939C489.228 231.133 489.486 231.192 489.696 231.094L489.783 231.042C492.983 228.657 496.194 226.287 499.418 223.934L502.646 221.586C502.869 221.424 502.919 221.111 502.757 220.888C505.932 218.588 509.12 216.303 512.318 214.035L514.938 212.184C515.097 212.409 515.408 212.463 515.634 212.304C518.896 210.006 522.17 207.724 525.455 205.459L528.745 203.199C528.973 203.043 529.031 202.733 528.875 202.505C532.993 199.689 537.129 196.899 541.283 194.135C541.417 194.335 541.671 194.407 541.887 194.32L541.977 194.273C545.3 192.064 548.634 189.871 551.98 187.695L555.331 185.525C555.563 185.376 555.629 185.067 555.479 184.835C559.674 182.13 563.886 179.452 568.116 176.8C568.245 177.004 568.497 177.084 568.715 177.002L568.806 176.957C572.186 174.84 575.577 172.739 578.979 170.656L582.386 168.579C582.622 168.436 582.696 168.128 582.553 167.893C586.817 165.304 591.1 162.742 595.398 160.207C595.521 160.415 595.771 160.501 595.99 160.426L596.082 160.384C599.521 158.358 602.97 156.35 606.431 154.358L609.895 152.373C610.134 152.236 610.217 151.931 610.081 151.691C614.415 149.219 618.766 146.775 623.134 144.357C623.268 144.598 623.571 144.685 623.812 144.552C628.466 141.979 633.138 139.437 637.828 136.927C638.071 136.797 638.163 136.494 638.033 136.251C642.433 133.899 646.849 131.574 651.28 129.277C651.392 129.492 651.637 129.592 651.86 129.528L651.954 129.491C655.499 127.656 659.055 125.838 662.62 124.038L666.189 122.245C666.436 122.122 666.536 121.821 666.412 121.574L666.411 121.573C670.871 119.344 675.347 117.144 679.838 114.971C679.943 115.188 680.186 115.295 680.411 115.237L680.506 115.203C684.096 113.468 687.697 111.75 691.307 110.051L694.92 108.357C695.17 108.241 695.278 107.944 695.161 107.693C699.658 105.598 704.17 103.531 708.696 101.492L708.776 101.456C708.876 101.676 709.115 101.789 709.342 101.738L709.438 101.706C714.292 99.5226 719.163 97.3719 724.051 95.2539C724.304 95.1441 724.42 94.85 724.311 94.5967C728.883 92.6178 733.47 90.6682 738.071 88.7471C738.164 88.9697 738.401 89.0896 738.629 89.0449L738.726 89.0156C742.407 87.4806 746.097 85.9636 749.796 84.4658L753.499 82.9746C753.755 82.8719 753.878 82.5812 753.776 82.3252C758.411 80.4697 763.059 78.6435 767.722 76.8467C767.809 77.0717 768.041 77.1974 768.271 77.1592L768.368 77.1328C773.331 75.2228 778.31 73.3459 783.304 71.5029C783.562 71.4075 783.694 71.1211 783.6 70.8623C788.275 69.1394 792.963 67.445 797.665 65.7812C797.746 66.009 797.975 66.1414 798.205 66.1094L798.304 66.0859C802.065 64.7569 805.835 63.4462 809.613 62.1553L813.395 60.8711C813.656 60.7828 813.796 60.4996 813.708 60.2383C818.441 58.6418 823.187 57.0745 827.946 55.5381C828.031 55.8008 828.312 55.945 828.575 55.8604C832.366 54.6384 836.165 53.4355 839.972 52.252L843.781 51.0752C844.045 50.9941 844.193 50.7141 844.112 50.4502C848.877 48.9895 853.653 47.5585 858.442 46.1582L858.443 46.1592C858.511 46.391 858.732 46.5369 858.964 46.5176L859.063 46.499C862.894 45.3807 866.733 44.2816 870.58 43.2021L874.43 42.1289C874.695 42.0551 874.85 41.7804 874.777 41.5146C879.59 40.1847 884.414 38.885 889.25 37.6162C889.311 37.8498 889.529 38.0011 889.761 37.9883L889.86 37.9727C893.711 36.9643 897.568 35.9751 901.434 35.0059L905.301 34.0439C905.569 33.9778 905.732 33.7072 905.666 33.4395C910.506 32.2459 915.358 31.0832 920.221 29.9512C920.284 30.2193 920.552 30.3855 920.82 30.3232C924.71 29.4195 928.608 28.536 932.512 27.6719L936.418 26.8145C936.688 26.7557 936.858 26.4895 936.8 26.2197C941.671 25.1617 946.553 24.1347 951.445 23.1387C951.493 23.3755 951.702 23.5389 951.935 23.5391L952.035 23.5293C955.936 22.737 959.843 21.9636 963.758 21.2109L967.675 20.4658C967.946 20.4147 968.124 20.153 968.073 19.8818C972.975 18.9593 977.886 18.0681 982.809 17.208C982.85 17.4456 983.053 17.6141 983.285 17.6211L983.387 17.6143C988.636 16.6994 993.897 15.8199 999.169 14.9766C999.441 14.933 999.627 14.6775 999.584 14.4053C1004.5 13.6218 1009.42 12.8695 1014.35 12.1484C1014.39 12.387 1014.58 12.5611 1014.82 12.5742L1014.92 12.5703C1020.17 11.8047 1025.43 11.0741 1030.71 10.3799C1030.98 10.3439 1031.17 10.0921 1031.14 9.81836C1036.09 9.16939 1041.04 8.55355 1046.01 7.96777C1046.04 8.20737 1046.23 8.38753 1046.46 8.40723L1046.57 8.40527C1050.54 7.93888 1054.51 7.4922 1058.49 7.06641L1062.48 6.64746C1062.75 6.61886 1062.95 6.37393 1062.92 6.09961C1067.86 5.59076 1072.81 5.11399 1077.77 4.66797C1077.79 4.94234 1078.04 5.14467 1078.31 5.12012C1082.28 4.76501 1086.25 4.42988 1090.23 4.11523L1094.21 3.80762C1094.48 3.7867 1094.69 3.5467 1094.67 3.27148C1099.65 2.89704 1104.64 2.55388 1109.63 2.24316C1109.65 2.51864 1109.89 2.72868 1110.16 2.71191C1114.14 2.46596 1118.13 2.24038 1122.13 2.03516L1126.12 1.83691C1126.4 1.82371 1126.61 1.58972 1126.6 1.31445C1131.56 1.07874 1136.53 0.873704 1141.5 0.701172C1141.51 0.976848 1141.75 1.1929 1142.02 1.18359C1146 1.04729 1149.99 0.9306 1153.98 0.834961L1157.97 0.746094C1158.25 0.740247 1158.47 0.512301 1158.46 0.236328C1163.46 0.135843 1168.46 0.0686751 1173.48 0.0322266C1173.48 0.307666 1173.7 0.529113 1173.98 0.527344C1176.65 0.509055 1179.32 0.5 1182 0.5C1184.68 0.5 1187.35 0.50905 1190.02 0.527344C1190.3 0.529231 1190.52 0.307741 1190.53 0.0322266C1195.54 0.0686743 1200.54 0.13585 1205.54 0.236328C1205.53 0.512257 1205.75 0.740176 1206.03 0.746094C1211.35 0.855486 1216.67 1.00185 1221.98 1.18359C1222.26 1.19297 1222.49 0.976891 1222.5 0.701172C1227.47 0.8737 1232.44 1.07875 1237.4 1.31445C1237.39 1.58972 1237.6 1.82371 1237.88 1.83691C1243.21 2.09239 1248.53 2.38398 1253.84 2.71191C1254.11 2.72872 1254.35 2.51866 1254.37 2.24316C1259.36 2.55388 1264.35 2.89704 1269.33 3.27148C1269.31 3.54668 1269.52 3.78667 1269.79 3.80762C1275.1 4.20909 1280.4 4.64665 1285.69 5.12012C1285.96 5.14463 1286.21 4.94227 1286.23 4.66797C1291.19 5.11401 1296.14 5.5917 1301.08 6.10059C1301.05 6.37454 1301.25 6.61894 1301.53 6.64746C1306.84 7.19708 1312.14 7.78341 1317.43 8.40527C1317.71 8.43746 1317.96 8.24157 1317.99 7.96777C1322.96 8.55355 1327.91 9.17036 1332.86 9.81934C1332.82 10.093 1333.02 10.3439 1333.29 10.3799C1338.57 11.0741 1343.83 11.8047 1349.08 12.5703C1349.36 12.6098 1349.61 12.4209 1349.65 12.1484C1354.58 12.8695 1359.5 13.6218 1364.42 14.4053C1364.37 14.6775 1364.56 14.933 1364.83 14.9766C1370.1 15.8199 1375.37 16.6994 1380.61 17.6143C1380.89 17.6616 1381.14 17.4801 1381.19 17.209C1386.11 18.069 1391.03 18.9593 1395.93 19.8818C1395.88 20.153 1396.05 20.4147 1396.33 20.4658C1401.55 21.4517 1406.76 22.4729 1411.97 23.5293C1412.24 23.5841 1412.5 23.4091 1412.55 23.1387C1417.45 24.1346 1422.33 25.1618 1427.2 26.2197C1427.14 26.4895 1427.31 26.7557 1427.58 26.8145C1432.79 27.9489 1437.99 29.1193 1443.18 30.3242C1443.45 30.3866 1443.72 30.2193 1443.78 29.9512C1448.64 31.0832 1453.49 32.2459 1458.33 33.4395C1458.27 33.707 1458.43 33.9777 1458.7 34.0439C1463.86 35.3189 1469.01 36.6283 1474.14 37.9727C1474.41 38.0423 1474.68 37.8829 1474.75 37.6162C1479.59 38.8849 1484.41 40.1848 1489.22 41.5146C1489.15 41.7805 1489.31 42.0553 1489.57 42.1289C1494.71 43.5508 1499.83 45.0079 1504.94 46.499C1505.2 46.5763 1505.48 46.4239 1505.56 46.1592C1510.35 47.5595 1515.12 48.9895 1519.89 50.4502C1519.81 50.7142 1519.96 50.9941 1520.22 51.0752C1525.3 52.636 1530.37 54.2312 1535.42 55.8604C1535.69 55.945 1535.97 55.8012 1536.05 55.5391C1540.81 57.0753 1545.56 58.6419 1550.29 60.2383C1550.2 60.4994 1550.34 60.7827 1550.61 60.8711C1555.65 62.5754 1560.68 64.3138 1565.7 66.0859C1565.96 66.1777 1566.24 66.0412 1566.33 65.7812C1571.04 67.445 1575.72 69.1394 1580.4 70.8623C1580.3 71.1209 1580.44 71.4074 1580.7 71.5029C1585.69 73.3459 1590.67 75.2228 1595.63 77.1328C1595.89 77.2319 1596.18 77.1037 1596.28 76.8467C1600.94 78.6434 1605.59 80.4698 1610.22 82.3252C1610.12 82.5812 1610.25 82.872 1610.5 82.9746C1615.44 84.955 1620.37 86.969 1625.27 89.0156C1625.53 89.1217 1625.82 89.0012 1625.93 88.7471C1630.53 90.6682 1635.12 92.6178 1639.69 94.5967C1639.58 94.85 1639.7 95.1442 1639.95 95.2539C1644.84 97.372 1649.71 99.5235 1654.56 101.707C1654.81 101.82 1655.11 101.707 1655.22 101.456C1659.78 103.507 1664.31 105.586 1668.84 107.693C1668.72 107.943 1668.83 108.241 1669.08 108.357C1673.9 110.607 1678.71 112.889 1683.49 115.203C1683.74 115.323 1684.04 115.219 1684.16 114.971C1688.65 117.144 1693.13 119.344 1697.59 121.573V121.574C1697.46 121.821 1697.56 122.122 1697.81 122.245C1702.57 124.629 1707.32 127.044 1712.05 129.491C1712.29 129.618 1712.59 129.522 1712.72 129.277C1717.15 131.574 1721.57 133.899 1725.97 136.251C1725.84 136.494 1725.93 136.797 1726.17 136.927C1730.86 139.437 1735.53 141.979 1740.19 144.552C1740.43 144.685 1740.73 144.598 1740.87 144.357C1745.23 146.775 1749.58 149.219 1753.92 151.691C1753.78 151.931 1753.87 152.235 1754.11 152.372C1758.73 155.011 1763.33 157.683 1767.92 160.384C1768.15 160.524 1768.46 160.444 1768.6 160.206C1772.9 162.741 1777.18 165.304 1781.45 167.893C1781.3 168.128 1781.38 168.436 1781.61 168.579C1786.16 171.341 1790.69 174.134 1795.19 176.957C1795.43 177.103 1795.74 177.033 1795.88 176.8C1800.11 179.452 1804.32 182.13 1808.52 184.835C1808.37 185.067 1808.44 185.376 1808.67 185.525C1813.14 188.411 1817.59 191.328 1822.02 194.273C1822.25 194.426 1822.56 194.363 1822.71 194.134C1826.87 196.898 1831.01 199.689 1835.12 202.505C1834.97 202.733 1835.03 203.043 1835.25 203.199C1839.65 206.205 1844.02 209.24 1848.37 212.304C1848.59 212.463 1848.9 212.408 1849.06 212.183C1853.14 215.059 1857.2 217.961 1861.24 220.888C1861.08 221.111 1861.13 221.424 1861.35 221.586C1865.66 224.709 1869.95 227.861 1874.22 231.041C1874.44 231.206 1874.75 231.16 1874.92 230.939C1878.91 233.923 1882.9 236.934 1886.86 239.968C1886.69 240.187 1886.73 240.5 1886.95 240.668C1891.17 243.905 1895.37 247.172 1899.55 250.466C1899.77 250.637 1900.08 250.598 1900.25 250.382C1904.17 253.473 1908.07 256.588 1911.95 259.728C1911.77 259.942 1911.81 260.257 1912.02 260.431C1916.16 263.78 1920.27 267.158 1924.36 270.563C1924.57 270.74 1924.88 270.71 1925.06 270.499C1928.89 273.693 1932.71 276.912 1936.5 280.154C1936.32 280.364 1936.35 280.68 1936.56 280.859C1940.6 284.317 1944.62 287.802 1948.62 291.314C1948.82 291.497 1949.14 291.476 1949.32 291.27C1953.07 294.565 1956.79 297.883 1960.5 301.226C1960.32 301.431 1960.33 301.747 1960.54 301.932C1964.49 305.498 1968.41 309.09 1972.32 312.709C1972.52 312.897 1972.84 312.885 1973.02 312.683C1976.68 316.076 1980.32 319.492 1983.93 322.932C1983.74 323.132 1983.75 323.448 1983.95 323.639C1987.8 327.307 1991.63 331.001 1995.44 334.721C1995.63 334.914 1995.95 334.909 1996.14 334.712C1999.71 338.202 2003.25 341.716 2006.78 345.251C2006.58 345.446 2006.58 345.762 2006.78 345.957C2010.53 349.728 2014.27 353.525 2017.97 357.347C2018.16 357.544 2018.48 357.549 2018.68 357.358C2022.15 360.939 2025.6 364.542 2029.02 368.166C2028.82 368.356 2028.82 368.672 2029.01 368.872C2032.66 372.739 2036.29 376.631 2039.89 380.547C2040.08 380.75 2040.39 380.763 2040.6 380.576C2043.97 384.251 2047.33 387.946 2050.66 391.664C2050.46 391.848 2050.44 392.165 2050.62 392.37C2054.17 396.332 2057.7 400.319 2061.2 404.33C2061.38 404.538 2061.7 404.559 2061.9 404.378C2065.18 408.137 2068.43 411.916 2071.67 415.717C2071.46 415.896 2071.43 416.212 2071.61 416.422C2075.05 420.476 2078.47 424.555 2081.87 428.656C2082.04 428.869 2082.36 428.898 2082.57 428.722C2085.75 432.57 2088.91 436.439 2092.04 440.328C2091.83 440.501 2091.79 440.816 2091.97 441.031C2095.3 445.172 2098.61 449.337 2101.89 453.523C2102.06 453.74 2102.37 453.778 2102.59 453.608C2105.67 457.534 2108.72 461.48 2111.75 465.446C2111.53 465.614 2111.49 465.927 2111.65 466.146C2114.88 470.377 2118.08 474.631 2121.26 478.906C2121.42 479.127 2121.73 479.173 2121.95 479.01C2124.93 483.019 2127.88 487.047 2130.8 491.095C2130.58 491.257 2130.53 491.569 2130.69 491.793C2133.8 496.101 2136.89 500.431 2139.95 504.783C2140.11 505.009 2140.42 505.063 2140.64 504.905C2143.51 508.988 2146.35 513.089 2149.17 517.21C2148.94 517.366 2148.88 517.677 2149.04 517.904C2152.04 522.299 2155.02 526.716 2157.96 531.153C2158.12 531.383 2158.42 531.446 2158.65 531.294C2161.41 535.449 2164.14 539.623 2166.85 543.814C2166.62 543.964 2166.56 544.274 2166.71 544.506C2169.59 548.972 2172.44 553.459 2175.27 557.966C2175.42 558.199 2175.72 558.269 2175.96 558.123C2178.61 562.351 2181.23 566.597 2183.83 570.86C2183.6 571.004 2183.52 571.312 2183.67 571.548C2186.44 576.095 2189.18 580.663 2191.89 585.251C2192.03 585.488 2192.34 585.567 2192.57 585.427C2195.11 589.716 2197.62 594.022 2200.1 598.346H2200.1C2199.86 598.483 2199.78 598.789 2199.92 599.028C2202.56 603.639 2205.18 608.27 2207.77 612.92C2207.9 613.161 2208.21 613.246 2208.45 613.113C2210.87 617.475 2213.27 621.854 2215.65 626.249C2215.41 626.381 2215.32 626.684 2215.45 626.927C2217.97 631.61 2220.47 636.312 2222.94 641.032C2223.07 641.276 2223.37 641.371 2223.62 641.244C2225.92 645.659 2228.2 650.089 2230.46 654.536C2230.21 654.661 2230.11 654.963 2230.24 655.209C2232.64 659.953 2235.02 664.715 2237.36 669.495C2237.48 669.743 2237.78 669.845 2238.03 669.724C2240.22 674.208 2242.4 678.708 2244.54 683.224C2244.29 683.342 2244.18 683.64 2244.3 683.89C2246.58 688.693 2248.83 693.513 2251.05 698.352C2251.16 698.602 2251.46 698.712 2251.71 698.598C2253.78 703.127 2255.83 707.672 2257.85 712.232C2257.6 712.344 2257.49 712.639 2257.6 712.892C2259.75 717.756 2261.88 722.637 2263.97 727.535C2264.08 727.788 2264.37 727.906 2264.62 727.799C2266.58 732.393 2268.52 737.003 2270.43 741.627C2270.17 741.733 2270.05 742.025 2270.16 742.28C2272.18 747.189 2274.17 752.114 2276.13 757.055C2276.23 757.311 2276.52 757.436 2276.78 757.335C2278.62 761.967 2280.43 766.614 2282.21 771.274C2281.95 771.373 2281.82 771.662 2281.92 771.92C2283.82 776.891 2285.69 781.879 2287.53 786.882C2287.62 787.141 2287.91 787.273 2288.17 787.179C2289.89 791.866 2291.58 796.567 2293.24 801.282C2292.98 801.374 2292.85 801.66 2292.94 801.92C2294.7 806.925 2296.44 811.946 2298.14 816.981C2298.23 817.242 2298.51 817.382 2298.77 817.295C2300.36 822.018 2301.93 826.754 2303.47 831.504C2303.21 831.589 2303.07 831.872 2303.15 832.134C2304.79 837.199 2306.4 842.279 2307.97 847.374C2308.06 847.637 2308.34 847.785 2308.6 847.704Z" stroke="white" stroke-linecap="round" stroke-linejoin="round" stroke-dasharray="16 16"/>
</svg>
