<svg width="62" height="82" viewBox="0 0 62 82" fill="none" xmlns="http://www.w3.org/2000/svg">
<path d="M18.4648 44.1791C18.5913 44.305 17.4233 45.6136 15.6847 47.8302C13.9375 50.0459 11.6766 53.2101 9.34355 56.8282C7.03374 60.4747 4.95006 63.7787 3.43693 66.1747C1.89884 68.5595 0.875387 69.9871 0.735958 69.9034C0.596529 69.8197 1.38244 68.2462 2.73979 65.756C4.09713 63.2659 6.02678 59.8506 8.38052 56.1998C10.7343 52.5491 13.1321 49.4074 15.0601 47.297C16.9802 45.1772 18.3633 44.0644 18.4571 44.1696L18.4648 44.1791Z" fill="black"/>
<path d="M27.5089 51.6996C27.3203 51.6717 27.4023 50.8622 27.0567 49.7221C26.9641 49.4343 26.8645 49.1284 26.6961 48.8155C26.5639 48.4889 26.3429 48.1794 26.1418 47.8458C25.6758 47.2069 25.0996 46.5394 24.3733 45.9786C23.6471 45.4177 22.8819 44.9835 22.1458 44.6914C21.4063 44.4337 20.7028 44.2493 20.1119 44.2416C18.9182 44.1729 18.1735 44.4803 18.0868 44.3061C18.018 44.2122 18.6821 43.5834 20.0897 43.4302C20.7867 43.3355 21.61 43.4537 22.49 43.6995C23.3587 43.9703 24.2505 44.4435 25.0817 45.0846C25.9129 45.7257 26.5467 46.5121 27.0341 47.2836C27.2454 47.6879 27.468 48.0672 27.576 48.4609C27.7289 48.8419 27.8042 49.2149 27.8476 49.5587C28.0293 50.9431 27.6251 51.7548 27.5157 51.7177L27.5089 51.6996Z" fill="black"/>
<path d="M27.5091 51.6998C27.6391 51.7912 26.8136 53.326 25.5389 55.8592C24.2315 58.3718 22.4567 61.8899 19.9101 65.4689C17.2655 68.8988 14.7989 71.9464 12.9768 74.1284C11.1548 76.3104 9.96179 77.6078 9.84133 77.5086C9.58231 77.317 13.7002 71.6263 18.9868 64.7924C21.4618 61.3192 23.3423 57.8728 24.8314 55.4569C26.2963 53.0212 27.3706 51.6074 27.5091 51.6998Z" fill="black"/>
<path d="M1.17615 68.9997C1.17615 68.9997 1.31505 68.831 1.67438 68.7195C2.02598 68.5985 2.57129 68.5407 3.2206 68.6587C4.52183 68.8689 6.16938 69.6971 7.66819 70.9627C9.15839 72.2274 10.2788 73.707 10.6259 75.0038C10.8137 75.6406 10.7363 76.2331 10.5455 76.5705C10.3719 76.9096 10.1625 77.0015 10.1461 76.9911C10.0979 76.9515 10.2428 76.8095 10.3363 76.4884C10.4375 76.1767 10.4433 75.69 10.2313 75.1204C9.8331 73.9837 8.72807 72.6101 7.29379 71.3946C5.8509 70.1782 4.31794 69.3355 3.13739 69.0505C1.94311 68.7294 1.21048 69.0902 1.17615 68.9997Z" fill="black"/>
<path d="M25.9181 39.9228C26.2031 40.03 25.9335 41.3165 24.9603 42.5056C24.4927 43.0847 24.0649 43.5286 23.7345 43.8692C23.4051 44.2013 23.1498 44.4016 23.0009 44.3256C22.8606 44.2505 22.8679 43.9206 23.0469 43.4428C23.2172 42.9641 23.609 42.36 24.0568 41.805C24.9489 40.7295 25.6082 39.8044 25.9086 39.9305L25.9181 39.9228Z" fill="black"/>
<path d="M29.2988 41.9363C29.4279 42.0364 29.3232 42.3825 29.1236 42.893C28.9162 43.3941 28.6646 44.0734 28.2725 44.8515C27.8796 45.6383 27.3516 46.2982 26.9049 46.6706C26.4573 47.0516 26.104 47.1898 25.9921 47.0915C25.7642 46.8509 26.5598 45.783 27.2551 44.3308C27.617 43.5931 28.0365 42.8873 28.4454 42.4589C28.8465 42.021 29.1775 41.8457 29.2988 41.9363Z" fill="black"/>
<path d="M29.847 5.70068C29.847 5.70068 30.2185 5.46861 30.9675 5.11816C31.7234 4.78582 32.8506 4.30839 34.381 3.88921C35.9018 3.47776 37.8464 3.09186 40.115 3.28694C42.3879 3.43896 44.8985 4.25023 47.412 5.54903C49.9073 6.8547 52.6133 8.48624 54.9288 10.9657C57.2564 13.4116 58.9859 16.7801 59.57 20.5458C60.1345 24.2487 60.0067 28.4295 58.161 32.2188C57.2566 34.1023 55.9184 35.8025 54.3204 37.2329C52.7224 38.6632 50.8896 39.8348 48.9296 40.8021C44.9632 42.6798 40.6476 43.4519 36.5264 43.1648C34.4714 43.0088 32.4547 42.5608 30.6125 41.765C28.7693 40.9779 27.1196 39.8275 25.7889 38.4485C23.1423 35.6309 21.7505 32.1923 20.9279 28.9766C20.0992 25.7342 19.8596 22.6037 20.0339 19.7675C20.278 16.9296 20.83 14.4014 21.8319 12.3277C22.8175 10.2437 24.3559 8.88562 25.6465 7.99841C26.9561 7.09571 28.0542 6.56312 28.7877 6.1937C29.5367 5.84326 29.9366 5.67496 29.9589 5.71203C30.0182 5.81375 28.4134 6.53861 25.9053 8.36396C24.6801 9.29261 23.2761 10.6121 22.4035 12.6119C21.5171 14.5755 21.0185 17.0917 20.8375 19.8228C20.7244 22.5695 21.0072 25.6174 21.8472 28.7478C22.6812 31.8515 24.0792 35.1429 26.5496 37.7251C27.796 38.9912 29.3244 40.0509 31.0436 40.7733C32.7619 41.5043 34.6598 41.9228 36.6209 42.0607C40.5268 42.3259 44.6847 41.564 48.4409 39.7868C52.1764 37.9553 55.4686 35.261 57.1659 31.7351C58.8863 28.2377 59.0526 24.2783 58.5353 20.7107C58.0086 17.1509 56.4176 13.9617 54.2363 11.6177C52.067 9.24007 49.4662 7.60177 47.0424 6.27725C44.6176 4.96134 42.2302 4.13645 40.0581 3.93374C37.8913 3.67936 35.9967 4.00073 34.4924 4.33554C32.9785 4.67808 31.8401 5.09347 31.0568 5.35343C30.2803 5.63149 29.8667 5.76359 29.853 5.72739L29.847 5.70068Z" fill="black"/>
<path d="M35.7798 8.54604C35.7798 8.54604 36.0703 8.34056 36.6994 8.14328C37.3284 7.946 38.2977 7.73969 39.5596 7.73705C40.8111 7.75077 42.3674 7.93457 44.0626 8.55009C45.7492 9.16475 47.5428 10.2688 49.1453 11.8842C50.7298 13.5065 52.0879 15.6454 53.0184 18.1411C53.8962 20.6402 54.392 23.5617 53.7997 26.5731C53.2151 29.594 51.4336 32.4065 49.0008 34.6049C46.5757 36.8128 43.4038 38.4056 39.9276 38.8799C38.1977 39.1223 36.4449 39.0752 34.7734 38.7405C33.0839 38.4126 31.4879 37.6767 30.1506 36.7059C28.8151 35.7178 27.703 34.5001 26.7985 33.2078C25.8855 31.9145 25.1819 30.5294 24.6824 29.1041C23.6542 26.2852 23.342 23.3562 23.759 20.7012C24.1578 18.053 25.2307 15.7081 26.5889 13.8967C27.9729 12.088 29.6095 10.7921 31.1688 9.91468C32.7291 9.02868 34.2129 8.55259 35.4175 8.25701C36.6384 7.97179 37.605 7.87832 38.2605 7.84904C38.9152 7.82837 39.2623 7.83744 39.2579 7.8805C39.2724 7.99508 37.8856 8.02856 35.5306 8.68612C34.363 9.04634 32.9618 9.56561 31.4868 10.469C30.0213 11.3646 28.4993 12.646 27.236 14.3799C25.989 16.1243 25.0334 18.3419 24.6925 20.848C24.336 23.3351 24.6657 26.0919 25.6666 28.7513C26.6416 31.4082 28.3557 33.9833 30.7987 35.8057C33.2503 37.629 36.5425 38.1976 39.7637 37.7496C42.9927 37.3111 45.9706 35.8292 48.2499 33.7719C50.5275 31.7317 52.2123 29.1008 52.7594 26.3633C53.3341 23.6111 52.9097 20.8447 52.1161 18.4586C51.2613 16.0749 50.0168 14.0172 48.5494 12.4416C47.0717 10.8823 45.4072 9.79136 43.8284 9.14412C42.2409 8.49601 40.751 8.25803 39.5409 8.17891C37.0991 8.06198 35.8029 8.6615 35.7798 8.54604Z" fill="black"/>
<path d="M9.73368 77.0192C9.71023 77.1647 9.01076 77.1982 7.91797 76.9918C6.82518 76.7853 5.33307 76.3122 3.86138 75.38C3.13502 74.9062 2.4949 74.354 1.98746 73.7806C1.49898 73.1916 1.12422 72.5968 0.918209 72.0538C0.49758 70.9671 0.581247 70.2273 0.713051 70.2146C0.890536 70.1804 1.09469 70.8275 1.63449 71.6827C1.8949 72.118 2.29225 72.5759 2.74813 73.0572C3.23247 73.5152 3.81155 73.9828 4.47337 74.4066C7.15686 76.0881 9.80478 76.6609 9.72594 77.0097L9.73368 77.0192Z" fill="black"/>
<path d="M25.0539 39.8616C24.9573 39.9563 23.7595 38.9822 22.3651 36.9441C20.9603 34.9224 19.4916 31.7282 18.9772 27.9608C18.7152 26.081 18.7064 24.279 18.8369 22.6478C18.9017 21.8365 18.9975 21.0631 19.1311 20.3458C19.2673 19.6026 19.4723 18.9534 19.6875 18.3749C20.118 17.2178 20.512 16.3354 20.7583 15.7078C21.0123 15.0897 21.1524 14.7384 21.2299 14.7463C21.3074 14.7541 21.3112 15.1461 21.1811 15.829C21.0604 16.5041 20.7715 17.4667 20.447 18.6084C20.2929 19.1845 20.1422 19.8131 20.0577 20.4745C19.9793 21.1626 19.912 21.9128 19.8756 22.7009C19.8038 24.2684 19.8454 26.0041 20.0912 27.7866C20.5808 31.3688 21.8533 34.4386 23.0281 36.498C24.2011 38.5745 25.172 39.7257 25.0298 39.8418L25.0539 39.8616Z" fill="black"/>
<path d="M29.326 41.6687C29.1439 41.92 28.3044 41.7044 27.2791 41.2612C26.228 40.8153 25.5019 40.0805 25.6944 39.8128C25.8765 39.5616 26.716 39.7772 27.7422 40.2118C28.7933 40.6576 29.5193 41.3925 29.3269 41.6601L29.326 41.6687Z" fill="black"/>
<path d="M57.2998 33.5843C57.4246 33.6404 56.6833 35.3751 54.6192 37.5413C52.574 39.692 49.2485 42.2002 45.0728 43.9957C44.0197 44.4285 42.9795 44.819 41.9343 45.0872C40.8788 45.3718 39.814 45.4901 38.82 45.5112C36.8155 45.543 35.0537 45.1557 33.6312 44.7679C30.7925 43.9321 29.1543 43.1831 29.1932 43.0566C29.2451 42.8878 31.006 43.3708 33.8235 43.9869C35.2306 44.2687 36.9245 44.5535 38.7869 44.4638C39.7138 44.4185 40.6752 44.2897 41.6429 44.0136C42.6269 43.7479 43.6231 43.3616 44.6306 42.9503C48.6511 41.226 51.9411 38.897 54.0592 36.9712C56.1953 35.0385 57.1431 33.4988 57.2989 33.5929L57.2998 33.5843Z" fill="black"/>
<path d="M51.8395 28.3147C51.8395 28.3147 51.8212 27.8082 51.8508 26.915C51.8804 26.0218 51.9252 24.7212 51.7817 23.1318C51.6279 21.5588 51.2187 19.6727 50.1564 17.8771C49.076 16.0884 47.5986 14.2681 45.716 12.7548C44.7652 12.0059 43.791 11.3155 42.7631 10.8981C41.7275 10.4712 40.6468 10.2312 39.6142 10.1179C37.5299 9.90666 35.627 10.0532 34.0641 10.3646C32.5021 10.6675 31.2827 11.1095 30.4708 11.4796C29.6598 11.8412 29.2622 12.1577 29.2244 12.1016C29.2089 12.0827 29.3038 12.0053 29.4935 11.8505C29.6746 11.6948 29.9729 11.4988 30.3694 11.278C31.1624 10.8363 32.3888 10.3254 33.9742 9.96398C35.5596 9.60258 37.5039 9.39067 39.6588 9.59163C40.7353 9.70072 41.86 9.9365 42.9636 10.379C44.0837 10.8318 45.0914 11.5343 46.0663 12.303C48.0135 13.8664 49.5201 15.7418 50.6098 17.6098C51.6961 19.5123 52.0707 21.4818 52.1858 23.0945C52.2818 24.7225 52.1759 26.0256 52.0765 26.9205C51.9771 27.8153 51.8748 28.3096 51.8404 28.3061L51.8395 28.3147Z" fill="black"/>
<path d="M49.7542 18.2377C49.7731 18.3092 48.4598 18.733 46.3194 19.334C44.179 19.9349 41.1942 20.7114 37.8831 21.4461C36.2202 21.7996 34.6529 22.1541 33.1685 22.3778C31.7048 22.5689 30.3945 22.7058 29.333 22.9637C27.1703 23.4406 26.1019 24.3677 26.0494 24.2841C26.034 24.2651 26.2617 23.9924 26.7842 23.6451C27.3066 23.2978 28.1409 22.8777 29.2327 22.5794C30.3176 22.263 31.6503 22.0761 33.0994 21.8575C34.5244 21.6191 36.1115 21.2404 37.7658 20.886C41.071 20.1246 44.0643 19.4361 46.2286 18.9419C48.3939 18.4392 49.7449 18.1584 49.7637 18.2299L49.7542 18.2377Z" fill="black"/>
<path d="M50.0793 24.4741C50.1067 24.5465 48.9863 25.042 47.1618 25.7881C45.3382 26.5256 42.7985 27.5473 39.886 28.3833C38.4331 28.8103 37.0107 29.1099 35.7347 29.3373C34.4751 29.5751 33.3454 29.9044 32.3898 30.1469C30.4761 30.6577 29.2528 30.7948 29.2348 30.7147C29.2254 30.6354 30.4015 30.3631 32.2732 29.7522C33.2159 29.4649 34.3327 29.0909 35.6303 28.8221C36.9175 28.5697 38.2892 28.2563 39.7325 27.837C42.6097 27.0061 45.1597 26.0551 47.0176 25.4081C48.8764 24.7525 50.0441 24.3922 50.0707 24.4732L50.0793 24.4741Z" fill="black"/>
</svg>
