<svg width="175" height="18" viewBox="0 0 175 18" fill="none" xmlns="http://www.w3.org/2000/svg">
<path d="M61.5758 17.3474C30.2718 11.5805 6.29275 13.1928 0.57996 15.3137C-0.0345448 15.0489 2.47024 13.8877 18.4937 12.5854C38.523 10.9575 60.8343 15.5197 66.7443 15.2748C72.6543 15.0299 59.2176 10.2196 57.2215 7.54848C55.2254 4.87735 59.2919 3.83852 67.0074 3.91978C74.7228 4.00104 105.51 10.7072 108.969 9.48206C112.427 8.25695 107.551 4.25412 107.045 3.03858C106.256 1.14016 108.585 -2.52854 124.531 3.96719C140.477 10.4629 143.484 10.6477 153.164 10.2478C159.127 10.0015 171.323 7.58019 174.721 8.62419C174.315 8.49959 170.219 8.22603 159.065 10.3314C144.362 13.1067 128.334 9.59864 124.874 8.18933C121.415 6.78002 117.629 5.41829 117.841 8.11341C118.147 12.0181 114.426 12.1078 107.392 11.9711C99.433 11.8165 65.9245 5.18859 64.2525 6.50504C62.5806 7.8215 76.5873 12.3498 77.4052 15.1167C78.0595 17.3302 67.8005 18.1464 61.5758 17.3474Z" fill="#8FF9B8"/>
</svg>
