<svg width="116" height="142" viewBox="0 0 116 142" fill="none" xmlns="http://www.w3.org/2000/svg">
<path fill-rule="evenodd" clip-rule="evenodd" d="M61.9018 110.689C64.4563 113.326 64.54 114.179 62.6763 116.991C62.3737 117.455 61.887 117.931 61.8617 118.414C61.8023 119.9 61.1946 121.054 60.108 122.004C59.5819 122.456 59.8442 123.04 59.8038 123.594C59.6488 125.767 59.3131 126.162 57.2917 126.665C56.5252 126.855 55.7394 126.99 55.1294 127.111C54.8922 127.303 54.7585 127.361 54.7179 127.451C53.4125 130.703 50.7843 131.29 47.6849 130.995C45.1286 130.745 42.7463 129.882 40.5406 128.674C38.743 127.682 37.6571 126.084 38.0337 123.847C38.0884 123.525 38.0978 123.196 38.1426 122.738C37.1613 122.152 36.1566 121.634 35.2241 120.989C33.0304 119.472 32.745 118.189 33.8406 115.708C34.5322 114.147 35.1167 112.54 35.8132 110.802C35.1126 109.432 34.3678 107.971 35.2526 106.345C36.3082 104.39 37.6746 102.741 39.7519 101.802C41.8833 100.844 42.2788 100.412 42.0646 98.3489C41.9243 97.0026 41.6118 95.6062 41.0424 94.405C40.2656 92.7627 39.3015 91.1691 38.1656 89.7435C33.5799 83.9981 31.9517 77.3437 31.9401 70.1784C31.9376 67.6673 31.9325 65.1364 32.258 62.663C32.5091 60.7606 33.1365 58.8654 33.8366 57.0616C35.5782 52.5491 37.8475 48.4277 41.5212 45.0385C44.5826 42.2142 48.0257 40.4219 51.9087 39.2744C52.7751 39.0153 53.6995 38.89 54.6114 38.8551C61.046 38.6285 67.3722 39.2075 73.6406 40.8843C82.754 43.3182 90.5701 52.7581 92.4524 59.472C94.4246 66.5012 94.7586 73.4465 92.8382 80.4737C92.0553 83.3382 91.1029 86.1724 90.0379 88.9487C88.9114 91.9027 87.0173 94.3922 84.3483 96.0829C82.1382 97.4873 79.7528 98.6321 77.354 99.7059C75.3707 100.592 73.269 101.191 71.2167 101.92C70.4606 102.189 69.6934 102.435 68.976 102.784C63.5675 105.383 63.5259 105.804 61.8819 110.692L61.9018 110.689ZM46.5402 106.794C46.8417 106.169 47.0473 105.766 47.2305 105.347C48.8583 101.628 49.4778 97.7031 49.9652 93.6944C50.3528 90.4942 50.1821 87.5933 48.476 84.7769C47.0895 82.4878 46.4058 79.8925 46.3314 77.2333C46.1924 72.0511 47.7726 67.5396 52.0368 64.2506C55.0185 61.9576 58.4481 62.3393 60.8413 65.2231C61.2686 65.7404 61.6672 66.2856 62.1051 66.854C63.2852 66.4003 64.3406 65.951 65.4149 65.5839C66.9495 65.0635 68.5181 64.8012 70.1475 65.1567C71.8504 65.5187 73.0858 66.4104 73.6641 68.0787C74.0013 69.048 74.2844 70.0364 74.5958 71.0251C78.1023 72.8543 79.4515 75.9356 79.033 79.6083C78.464 84.5645 76.233 88.5476 71.2321 90.4071C70.0495 90.8409 68.845 91.2008 67.6377 91.5692C66.7654 91.8451 65.8574 92.033 65.0043 92.3629C62.0814 93.4733 59.847 95.2765 58.9024 98.4166C58.0108 101.376 57.0233 104.312 56.1486 107.277C55.8926 108.126 55.8963 109.047 55.745 110.14C56.6385 110.241 57.351 110.317 58.1511 110.414C58.7721 104.87 61.8432 101.443 66.6586 99.4621C69.5171 98.2915 72.4446 97.2775 75.3005 96.0872C77.303 95.2551 79.2866 94.3407 81.1674 93.2581C83.735 91.7785 85.5103 89.5227 86.5017 86.7398C87.4174 84.1486 88.3022 81.5373 89.0035 78.8814C90.731 72.3842 90.5219 65.8989 88.1591 59.6155C85.5326 52.6157 80.7043 47.5441 73.596 45.0368C66.9079 42.6843 59.9251 42.3328 52.9033 42.915C51.4412 43.0342 50.0083 43.5614 48.5797 43.9669C46.1543 44.6526 44.2943 46.1403 42.9849 48.2542C41.9667 49.91 41.1059 51.6582 40.141 53.3514C36.8215 59.1934 35.5238 65.4888 35.9291 72.1462C36.2629 77.6138 37.6767 82.7256 41.0965 87.1867C42.48 88.9916 43.5152 91.0644 44.6332 93.0617C45.0217 93.7455 45.2219 94.5631 45.3915 95.3323C45.5851 96.2234 45.7218 97.1422 45.7398 98.0483C45.759 98.8412 45.6817 99.6669 45.4748 100.429C45.2468 101.307 44.914 102.186 44.4635 102.968C44.1053 103.592 43.4995 104.084 43.0206 104.619C43.8924 105.877 44.9934 106.391 46.5346 106.782L46.5402 106.794ZM59.3915 68.4819C59.0146 67.2716 58.522 66.5328 57.7124 66.0253C56.6641 65.3594 55.5364 65.1965 54.4755 65.8808C52.9213 66.868 51.5234 68.0609 50.6942 69.7726C48.7345 73.7928 48.4667 77.906 50.1146 82.0948C50.4944 83.0504 50.9252 83.9952 51.3961 84.9065C52.5542 87.1165 52.8332 89.4581 52.5617 91.9122C51.981 97.1486 51.4794 102.403 48.9872 107.195C48.9352 107.291 48.9648 107.424 48.9563 107.668C50.0896 108.581 51.3537 109.198 52.9801 108.824C53.254 108.142 53.564 107.519 53.7526 106.865C53.9413 106.21 54.0255 105.529 54.1097 104.848C54.4765 101.981 55.3483 99.2706 56.3811 96.5873C57.6123 93.3854 59.9349 91.3 62.9905 89.9704C64.14 89.4683 65.3721 89.1653 66.5684 88.7741C67.8727 88.3446 69.2017 87.9804 70.4758 87.4741C74.3578 85.9189 75.8747 82.7401 76.2137 78.8315C76.347 77.3242 75.9864 75.93 74.7061 74.7576C73.6605 75.8355 73.5861 77.1454 73.157 78.2757C72.2527 80.6151 70.7796 82.4356 68.6418 83.7134C67.1595 84.6024 65.6242 84.9331 64.148 83.8065C62.7391 82.7316 62.9489 81.2223 63.2972 79.723C64.0303 76.5097 65.9953 74.2532 68.6992 72.4893C69.6261 71.8912 70.8992 71.7161 71.391 70.5412C70.7503 68.6428 70.6575 68.336 70.1012 68.2192C69.2227 68.0478 68.2905 67.8673 67.4284 68.0047C65.9649 68.2371 64.5659 68.776 63.3313 69.798C63.3268 70.9332 63.458 72.0869 63.2756 73.1889C63.0775 74.4181 62.625 75.6161 62.2321 76.8063C61.7747 78.1825 60.8183 79.1398 59.5537 79.8105C57.3749 80.9604 55.258 79.9058 55.0509 77.466C54.8344 74.8618 55.4989 72.449 57.2768 70.4593C57.879 69.7867 58.6045 69.2231 59.397 68.4933L59.3915 68.4819ZM40.0434 105.777C38.7625 106.385 38.4496 107.262 38.8755 108.139C39.5172 109.46 40.3476 110.618 41.9501 111.107C44.7882 111.966 47.5909 112.955 50.3588 114.017C52.9604 115.012 55.6966 115.125 58.399 115.473C59.216 115.576 59.9871 115.483 60.5668 114.793C60.8222 114.493 60.7434 113.708 60.3793 113.61C59.956 113.492 59.4963 113.343 59.071 113.394C56.8596 113.68 54.7699 113.232 52.7119 112.472C51.2179 111.917 49.6919 111.427 48.192 110.889C45.1524 109.818 42.3207 108.393 40.0463 105.768L40.0434 105.777ZM58.4696 118.718C55.8784 118.295 53.5 118.078 51.2193 117.497C48.8002 116.878 46.4992 115.835 44.0922 115.154C41.8488 114.52 39.8861 113.102 37.4905 112.661C37.2391 114.099 38.3343 114.383 38.9889 114.818C44.161 118.294 50.106 119.291 56.1258 119.934C56.8552 120.016 57.7545 120.1 58.4696 118.718ZM57.1408 123.269C53.0478 122.478 49.5811 121.875 46.1502 121.114C42.5809 120.315 39.5791 118.177 36.3397 116.506C35.9321 117.985 35.9045 118.175 36.4108 118.463C37.3979 119.032 38.3728 119.692 39.4448 120.015C43.8177 121.339 48.2055 122.593 52.6197 123.77C53.8785 124.101 55.2555 124.502 57.1463 123.281L57.1408 123.269ZM40.0929 123.508C40.3862 125.589 40.5164 126.089 41.3415 126.469C44.152 127.764 47.0806 128.635 50.2303 128.238C50.9617 128.15 51.4595 127.697 51.3533 126.581C48.4072 125.76 45.3679 124.907 42.3258 124.063C41.6767 123.885 41.0244 123.745 40.0815 123.513L40.0929 123.508ZM66.0827 80.9806C68.9097 80.5854 70.4107 78.5473 70.6128 74.7335C67.793 75.9837 66.3685 78.0199 66.0827 80.9806ZM60.6095 71.641C58.4089 72.9635 58.0736 74.5619 57.9693 76.2593C57.9582 76.4829 58.2436 76.7805 58.46 76.9217C58.5612 76.9852 58.9197 76.8251 59.0404 76.6679C60.0684 75.3944 60.4506 73.9068 60.6095 71.641Z" fill="#A6A6A6" fill-opacity="0.47"/>
<path fill-rule="evenodd" clip-rule="evenodd" d="M96.656 51.8144C95.5511 51.3941 95.1635 50.1328 95.6814 49.4026C95.8109 49.2201 95.9351 48.9979 96.1177 48.8811C99.1752 46.889 102.094 44.6406 105.692 43.6597C106.413 43.4641 107.254 43.5275 108.011 43.6664C108.341 43.7239 108.743 44.2607 108.807 44.6238C108.867 44.9954 108.641 45.5137 108.379 45.8306C108.104 46.1615 107.624 46.3174 107.236 46.5621C104.904 47.9906 102.58 49.4503 100.22 50.8218C99.4479 51.2745 98.5782 51.5703 97.7203 51.8322C97.3168 51.9579 96.8343 51.8193 96.6645 51.8173L96.656 51.8144Z" fill="#A6A6A6" fill-opacity="0.47"/>
<path fill-rule="evenodd" clip-rule="evenodd" d="M73.2976 17.5959C74.1177 15.9378 74.7023 14.5771 75.4528 13.3118C75.6981 12.9041 76.3907 12.4902 76.8261 12.5461C77.6346 12.6459 77.741 13.4879 77.6965 14.164C77.6422 14.9504 77.5141 15.7586 77.2425 16.4887C76.1449 19.3864 75.5221 22.3632 75.3086 25.4436C75.2585 26.1083 75.064 26.7799 74.833 27.4199C74.523 28.2883 73.6996 28.7516 72.9858 28.5425C72.2098 28.3213 71.8997 27.7119 71.9107 26.9958C71.9223 25.9768 71.985 24.9471 72.1408 23.9495C72.506 21.7172 72.9447 19.4914 73.2892 17.593L73.2976 17.5959Z" fill="#A6A6A6" fill-opacity="0.47"/>
<path fill-rule="evenodd" clip-rule="evenodd" d="M52.5887 19.9014C53.2271 20.5202 53.8115 20.9119 54.1733 21.4539C55.6099 23.5709 56.307 25.9908 56.7855 28.4677C56.9244 29.1884 56.6229 29.8134 55.9364 30.1821C55.2415 30.5478 54.581 30.3761 54.0256 29.9281C53.6833 29.6581 53.3537 29.2693 53.2082 28.8685C52.4259 26.7222 51.6862 24.5622 50.9862 22.397C50.8606 21.9936 50.8196 21.3731 51.0437 21.0813C51.3944 20.6153 52.0034 20.3335 52.5858 19.9099L52.5887 19.9014Z" fill="#A6A6A6" fill-opacity="0.47"/>
<path fill-rule="evenodd" clip-rule="evenodd" d="M86.9254 34.3036C86.6384 33.6549 86.1773 33.1259 86.2616 32.6909C86.3975 31.9422 86.7183 31.1249 87.2199 30.5786C88.7649 28.9062 90.4247 27.3398 92.0651 25.7477C92.5918 25.2385 93.2203 24.9824 93.9091 25.4007C94.5501 25.7931 94.7483 26.7805 94.3801 27.5435C94.235 27.8532 94.0616 28.1627 93.8352 28.4064C92.2128 30.1657 90.6213 31.9452 88.912 33.6271C88.4969 34.0328 87.7124 34.055 86.9225 34.3121L86.9254 34.3036Z" fill="#A6A6A6" fill-opacity="0.47"/>
<path fill-rule="evenodd" clip-rule="evenodd" d="M32.586 27.008C32.9417 27.3489 33.2254 27.5419 33.4063 27.8129C34.5576 29.6322 35.7231 31.4375 36.8031 33.2984C37.1806 33.9595 37.4009 34.7462 37.5366 35.5036C37.6486 36.1107 36.6902 36.7453 36.0869 36.5176C35.7739 36.4092 35.4443 36.2667 35.1948 36.0572C33.1621 34.3213 31.8085 32.1288 30.897 29.6441C30.6116 28.8539 30.7625 28.0346 31.4259 27.459C31.7232 27.202 32.208 27.1424 32.5945 27.0109L32.586 27.008Z" fill="#A6A6A6" fill-opacity="0.47"/>
</svg>
