<svg width="876" height="526" viewBox="0 0 876 526" fill="none" xmlns="http://www.w3.org/2000/svg">
<g clip-path="url(#clip0_383_3442)">
<rect width="876" height="526" rx="6" fill="#D5ECFF"/>
<path d="M108.633 114C108.633 107.373 114.005 102 120.633 102H754.932C761.56 102 766.932 107.373 766.932 114V337.38C766.932 344.007 761.56 349.38 754.932 349.38H120.633C114.005 349.38 108.633 344.007 108.633 337.38V114Z" fill="#FAFBFF"/>
<path d="M108.633 114C108.633 107.373 114.005 102 120.633 102H754.932C761.56 102 766.932 107.373 766.932 114V337.38C766.932 344.007 761.56 349.38 754.932 349.38H120.633C114.005 349.38 108.633 344.007 108.633 337.38V114Z" fill="#FAFBFF"/>
<path d="M108.633 114C108.633 107.373 114.005 102 120.633 102H754.932C761.56 102 766.932 107.373 766.932 114V337.38C766.932 344.007 761.56 349.38 754.932 349.38H120.633C114.005 349.38 108.633 344.007 108.633 337.38V114Z" fill="#FFF2F2"/>
<path d="M533 236L548 244.66V227.34L533 236ZM591 236L576 227.34V244.66L591 236ZM541.7 237.5H547.5V234.5H541.7V237.5ZM553.3 237.5H559.1V234.5H553.3V237.5ZM564.9 237.5H570.7V234.5H564.9V237.5ZM576.5 237.5H582.3V234.5H576.5V237.5ZM533 236L548 244.66V227.34L533 236ZM591 236L576 227.34V244.66L591 236ZM541.7 237.5H547.5V234.5H541.7V237.5ZM553.3 237.5H559.1V234.5H553.3V237.5ZM564.9 237.5H570.7V234.5H564.9V237.5ZM576.5 237.5H582.3V234.5H576.5V237.5Z" fill="#E34C85"/>
<path d="M286 236L301 244.66V227.34L286 236ZM344 236L329 227.34V244.66L344 236ZM294.7 237.5H300.5V234.5H294.7V237.5ZM306.3 237.5H312.1V234.5H306.3V237.5ZM317.9 237.5H323.7V234.5H317.9V237.5ZM329.5 237.5H335.3V234.5H329.5V237.5ZM286 236L301 244.66V227.34L286 236ZM344 236L329 227.34V244.66L344 236ZM294.7 237.5H300.5V234.5H294.7V237.5ZM306.3 237.5H312.1V234.5H306.3V237.5ZM317.9 237.5H323.7V234.5H317.9V237.5ZM329.5 237.5H335.3V234.5H329.5V237.5Z" fill="#E34C85"/>
<circle cx="191.153" cy="236.153" r="82.1532" fill="#FFF2F2"/>
<path d="M226.595 222.852H222.916V218.209C222.916 216.111 221.211 214.407 219.114 214.407H191.128C190.971 214.407 190.825 214.317 190.746 214.171L184.016 201.328C182.816 199.028 180.449 197.593 177.847 197.593H156.378C152.542 197.593 149.424 200.711 149.424 204.547V260.317C149.424 263.76 152.228 266.565 155.672 266.565H159.384V267.182C159.384 270.962 162.458 274.035 166.238 274.035H226.034C229.814 274.035 232.888 270.962 232.888 267.182V229.134C232.888 225.668 230.072 222.852 226.595 222.852ZM229.523 267.181C229.523 269.099 227.964 270.669 226.034 270.669H166.238C164.32 270.669 162.749 269.099 162.749 267.181V229.134C162.749 227.53 164.062 226.218 165.677 226.218H226.595C228.21 226.218 229.523 227.53 229.523 229.134V267.181Z" fill="#E34C85"/>
<path d="M136.973 207.363C137.902 207.363 138.656 206.61 138.656 205.681V186.417C138.656 184.893 139.908 183.654 141.447 183.654H162.821C163.75 183.654 164.503 182.901 164.503 181.971C164.503 181.042 163.75 180.289 162.821 180.289H141.447C138.052 180.289 135.291 183.038 135.291 186.417V205.681C135.291 206.61 136.045 207.363 136.973 207.363Z" fill="#E34C85"/>
<path d="M240.862 180.289H219.985C219.056 180.289 218.303 181.042 218.303 181.971C218.303 182.901 219.056 183.654 219.985 183.654H240.862C242.401 183.654 243.653 184.893 243.653 186.417V205.681C243.653 206.61 244.407 207.363 245.335 207.363C246.264 207.363 247.018 206.61 247.018 205.681V186.417C247.018 183.038 244.256 180.289 240.862 180.289Z" fill="#E34C85"/>
<path d="M245.335 260.805C244.406 260.805 243.653 261.558 243.653 262.487V285.209C243.653 286.732 242.401 287.971 240.862 287.971H219.985C219.056 287.971 218.303 288.724 218.303 289.654C218.303 290.583 219.056 291.336 219.985 291.336H240.862C244.257 291.336 247.018 288.587 247.018 285.208V262.487C247.018 261.558 246.264 260.805 245.335 260.805Z" fill="#E34C85"/>
<path d="M141.447 291.336H162.821C163.75 291.336 164.504 290.583 164.504 289.654C164.504 288.724 163.75 287.971 162.821 287.971H141.447C139.908 287.971 138.656 286.732 138.656 285.209V262.487C138.656 261.558 137.902 260.805 136.974 260.805C136.045 260.805 135.291 261.558 135.291 262.487V285.209C135.291 288.587 138.052 291.336 141.447 291.336Z" fill="#E34C85"/>
<circle cx="438" cy="236" r="82" fill="#FFF2F2"/>
<path fill-rule="evenodd" clip-rule="evenodd" d="M441.957 265.751H418.997C415.347 265.751 412.359 262.784 412.359 259.159V250.235H417.907V254.651H493.132V213.664C493.132 213.158 492.716 212.751 492.212 212.751H427.533V207.235H492.042C495.692 207.235 498.68 210.203 498.68 213.827V259.159C498.68 262.784 495.692 265.751 492.042 265.751H469.088V276.223H479.189C482.299 276.223 484.848 278.242 484.848 280.708V285.2H426.197V280.708C426.197 278.242 428.746 276.223 431.856 276.223H441.957V265.751ZM423.488 200.168V225.225H411.058C407.809 225.225 405.165 227.851 405.165 231.077V240.923C405.165 243.259 406.551 245.28 408.55 246.218H378.584C377.886 246.218 377.32 245.655 377.32 244.962C377.32 237.2 377.32 195.817 377.32 188.055C377.32 187.362 377.886 186.8 378.584 186.8H410.026V196.151C410.026 198.369 411.837 200.168 414.071 200.168H423.488ZM386.743 239.182H399.743C400.859 239.182 401.766 238.282 401.766 237.174C401.766 236.065 400.859 235.165 399.743 235.165H386.743C385.626 235.165 384.72 236.065 384.72 237.174C384.72 238.282 385.626 239.182 386.743 239.182ZM386.743 215.189H414.071C415.188 215.189 416.094 214.289 416.094 213.18C416.094 212.072 415.188 211.172 414.071 211.172H386.743C385.626 211.172 384.72 212.072 384.72 213.18C384.72 214.289 385.626 215.189 386.743 215.189ZM386.743 207.197H414.071C415.188 207.197 416.094 206.297 416.094 205.189C416.094 204.08 415.188 203.18 414.071 203.18H386.743C385.626 203.18 384.72 204.08 384.72 205.189C384.72 206.297 385.626 207.197 386.743 207.197ZM386.743 223.187H414.071C415.188 223.187 416.094 222.287 416.094 221.178C416.094 220.069 415.188 219.17 414.071 219.17H386.743C385.626 219.17 384.72 220.069 384.72 221.178C384.72 222.287 385.626 223.187 386.743 223.187ZM386.743 199.199H406.357C407.473 199.199 408.379 198.299 408.379 197.191C408.379 196.082 407.473 195.182 406.357 195.182H386.743C385.626 195.182 384.72 196.082 384.72 197.191C384.72 198.299 385.626 199.199 386.743 199.199ZM386.743 231.184H399.743C400.859 231.184 401.766 230.284 401.766 229.176C401.766 228.067 400.859 227.167 399.743 227.167H386.743C385.626 227.167 384.72 228.067 384.72 229.176C384.72 230.284 385.626 231.184 386.743 231.184ZM423.488 196.151H414.071V186.8L423.488 196.151ZM447.294 236.7L432.292 249.351C432.007 249.586 431.64 249.639 431.302 249.486C430.971 249.333 430.764 249.016 430.764 248.651V242.758H411.058C410.039 242.758 409.21 241.934 409.21 240.923V231.077C409.21 230.065 410.039 229.242 411.058 229.242H430.764V223.349C430.764 222.984 430.971 222.666 431.302 222.513C431.64 222.36 432.007 222.413 432.292 222.649L447.294 235.3C447.508 235.482 447.62 235.718 447.62 236C447.62 236.276 447.508 236.517 447.294 236.7Z" fill="#E34C85"/>
<circle cx="685.155" cy="236.153" r="82.1532" fill="#FFF2F2"/>
<path fill-rule="evenodd" clip-rule="evenodd" d="M687.881 275.736C687.665 275.962 687.391 276.105 687.087 276.105H682.272C681.476 276.105 680.983 275.22 680.983 274.436V247.239C680.983 246.529 681.434 245.571 682.272 245.571H687.087C687.879 245.571 688.376 246.473 688.376 247.239V274.436C688.376 274.931 688.217 275.388 687.881 275.736ZM731.936 267.413H716.331C715.337 267.413 714.53 268.208 714.53 269.188C714.53 270.168 715.337 270.963 716.331 270.963H731.936C732.93 270.963 733.737 270.169 733.737 269.188C733.737 268.208 732.931 267.413 731.936 267.413ZM731.936 255.818H716.331C715.337 255.818 714.53 256.613 714.53 257.593C714.53 258.573 715.337 259.368 716.331 259.368H731.936C732.93 259.368 733.737 258.573 733.737 257.593C733.737 256.613 732.931 255.818 731.936 255.818ZM731.936 244.222H716.331C715.337 244.222 714.53 245.017 714.53 245.998C714.53 246.978 715.337 247.773 716.331 247.773H731.936C732.93 247.773 733.737 246.978 733.737 245.998C733.737 245.017 732.931 244.222 731.936 244.222ZM731.936 232.627H716.331C715.337 232.627 714.53 233.422 714.53 234.403C714.53 235.383 715.337 236.178 716.331 236.178H731.936C732.93 236.178 733.737 235.383 733.737 234.403C733.737 233.422 732.931 232.627 731.936 232.627ZM731.936 221.032H716.331C715.337 221.032 714.53 221.827 714.53 222.808C714.53 223.788 715.337 224.583 716.331 224.583H731.936C732.93 224.583 733.737 223.788 733.737 222.808C733.737 221.827 732.931 221.032 731.936 221.032ZM716.331 209.437C715.337 209.437 714.53 210.232 714.53 211.212C714.53 212.193 715.337 212.988 716.331 212.988H731.936C732.93 212.988 733.737 212.193 733.737 211.212C733.737 210.232 732.931 209.437 731.936 209.437H716.331ZM700.667 211.954H687.595C687.462 211.954 687.355 211.848 687.355 211.718V198.829C687.355 197.849 686.548 197.053 685.554 197.053C676.214 197.053 668.64 204.52 668.64 213.729C668.64 222.939 676.213 230.406 685.554 230.406C694.895 230.406 702.468 222.939 702.468 213.729C702.467 212.749 701.661 211.954 700.667 211.954ZM694.905 206.844C693.911 206.844 693.105 206.049 693.105 205.069V190.168C693.105 189.188 693.911 188.393 694.905 188.393C704.246 188.393 711.819 195.859 711.819 205.069C711.819 206.049 711.012 206.844 710.018 206.844H694.905ZM712.108 288.452C711.5 289.649 710.792 290.698 709.885 291.454C709.715 291.597 709.817 291.871 710.04 291.871H736.763C740.011 291.871 742.661 289.259 742.661 286.057L742.661 199.617C742.661 199.163 742.485 198.708 742.133 198.362L724.343 180.821C724.016 180.494 723.562 180.29 723.059 180.29H665.613C662.366 180.29 659.716 182.903 659.716 186.105V236.863C659.716 236.993 659.824 237.099 659.956 237.099H663.077C663.209 237.099 663.317 236.993 663.317 236.863V186.105C663.317 184.863 664.354 183.841 665.613 183.841H721.018C721.15 183.841 721.258 183.947 721.258 184.077V195.578C721.258 198.779 723.908 201.392 727.155 201.392H738.819C738.952 201.392 739.059 201.499 739.059 201.629V286.057C739.059 287.298 738.023 288.321 736.763 288.321H712.323C712.23 288.321 712.15 288.369 712.108 288.452ZM708.37 284.851C708.523 284.851 708.637 284.989 708.605 285.137C707.83 288.778 705.006 292.018 701.189 292.018H635.069C631.251 292.018 628.427 288.778 627.652 285.137C627.62 284.989 627.734 284.851 627.887 284.851H655.01C655.09 284.851 655.159 284.887 655.206 284.952C656.036 286.114 657.138 288.294 658.414 288.294H677.843V288.291C679.133 288.29 680.243 286.112 681.051 284.954C681.097 284.888 681.167 284.852 681.249 284.852H708.37V284.851ZM671.333 274.436C671.333 275.197 670.843 276.105 670.044 276.105H665.229C664.433 276.105 663.94 275.22 663.94 274.436V255.45C663.94 254.74 664.391 253.782 665.229 253.782H670.044C670.835 253.782 671.333 254.684 671.333 255.45V274.436ZM654.29 263.682V274.436C654.29 275.197 653.8 276.105 653.001 276.105H648.186C647.39 276.105 646.897 275.221 646.897 274.436V263.682C646.897 262.971 647.348 262.013 648.186 262.013H653.001C653.792 262.013 654.29 262.915 654.29 263.682ZM634.626 243.75V280.788C634.626 280.919 634.734 281.025 634.866 281.025H700.407C700.539 281.025 700.647 280.919 700.647 280.788V243.75C700.647 242.104 699.382 240.65 697.73 240.65H637.543C635.891 240.65 634.626 242.104 634.626 243.75Z" fill="#E34C85"/>
<path d="M108.764 114C108.764 107.373 114.136 102 120.764 102H755.352C761.979 102 767.352 107.373 767.352 114V124.516H108.764V114Z" fill="#BFB0DF"/>
<path d="M108.764 114C108.764 107.373 114.136 102 120.764 102H755.352C761.979 102 767.352 107.373 767.352 114V124.516H108.764V114Z" fill="#BFB0DF"/>
<path d="M108.764 114C108.764 107.373 114.136 102 120.764 102H755.352C761.979 102 767.352 107.373 767.352 114V124.516H108.764V114Z" fill="#BFB0DF"/>
<ellipse cx="759.454" cy="113.134" rx="2.54352" ry="2.34424" fill="#FF6A6A"/>
<ellipse cx="750.555" cy="112.788" rx="2.54352" ry="2.34424" fill="#FFF500"/>
<ellipse cx="741.395" cy="112.788" rx="2.54352" ry="2.34424" fill="#91DE55"/>
<path fill-rule="evenodd" clip-rule="evenodd" d="M504.972 352.107H501.156C499.823 352.107 498.733 351.017 498.733 349.654C498.733 349.079 498.672 348.473 498.763 348.019C499.005 346.626 507.425 347.595 507.425 348.049V349.654C507.425 351.017 506.304 352.107 504.972 352.107Z" fill="#56717D"/>
<path fill-rule="evenodd" clip-rule="evenodd" d="M509.574 342.052H496.582C496.249 342.052 495.976 341.779 495.976 341.446V336.903C490.979 334.268 487.92 329.15 487.92 323.487C487.92 315.128 494.704 308.344 503.063 308.344C511.422 308.344 518.236 315.128 518.236 323.487C518.236 329.15 515.147 334.268 510.18 336.903V341.446C510.18 341.779 509.907 342.052 509.574 342.052Z" fill="#FFD18C"/>
<path fill-rule="evenodd" clip-rule="evenodd" d="M501.157 342.05H499.945V329.876L497.856 326.272C497.462 325.575 498.492 324.969 498.885 325.666C499.219 326.211 501.157 329.361 501.157 329.724V342.05Z" fill="#F9A633"/>
<path fill-rule="evenodd" clip-rule="evenodd" d="M506.213 342.051H505.002V329.725C505.002 329.362 506.94 326.212 507.243 325.667C507.637 324.97 508.697 325.576 508.303 326.242L506.213 329.877V342.051Z" fill="#F9A633"/>
<path fill-rule="evenodd" clip-rule="evenodd" d="M507.758 348.655H498.399C497.067 348.655 495.977 347.564 495.977 346.232V341.447V340.841H510.181V341.447V346.232C510.181 347.564 509.09 348.655 507.758 348.655Z" fill="#607D8B"/>
<path fill-rule="evenodd" clip-rule="evenodd" d="M495.977 345.353V344.142H510.181V345.353H495.977Z" fill="#56717D"/>
<path fill-rule="evenodd" clip-rule="evenodd" d="M503.064 306.678C502.459 306.678 501.974 306.194 501.974 305.588V301.499C501.974 300.046 504.185 300.046 504.185 301.499V305.588C504.185 306.194 503.67 306.678 503.064 306.678ZM512.453 309.192C511.605 309.192 511.09 308.283 511.514 307.557L513.543 304.013C513.755 303.65 514.088 303.438 514.482 303.438C515.33 303.468 515.906 304.346 515.451 305.103L513.422 308.647C513.21 308.98 512.847 309.192 512.453 309.192ZM519.328 316.067C518.207 316.067 517.783 314.583 518.783 314.007L522.326 311.978C522.659 311.766 523.053 311.766 523.416 311.948C524.113 312.402 524.174 313.432 523.416 313.886C522.72 314.28 519.903 316.067 519.328 316.067ZM525.93 325.456H521.842C520.388 325.456 520.388 323.245 521.842 323.245H525.93C527.384 323.245 527.384 325.456 525.93 325.456ZM493.706 309.192C493.312 309.192 492.949 308.98 492.737 308.647L490.708 305.103C490.496 304.77 490.496 304.346 490.678 304.013C491.132 303.286 492.162 303.256 492.616 304.013L494.645 307.557C495.069 308.283 494.524 309.192 493.706 309.192ZM486.831 316.067C486.256 316.067 483.439 314.28 482.743 313.886C482.379 313.674 482.167 313.341 482.167 312.917C482.198 312.099 483.076 311.524 483.833 311.978L487.376 314.007C488.346 314.583 487.952 316.067 486.831 316.067ZM484.318 325.456H480.229C478.775 325.456 478.775 323.245 480.229 323.245H484.318C485.771 323.245 485.771 325.456 484.318 325.456Z" fill="#F9A633"/>
<path d="M417.104 466.525L468.298 465.867L462.582 422.279C462.582 422.279 466.08 421.532 466.314 402.569C466.547 383.605 467.418 351.386 467.418 351.386C445.465 341.952 420.128 345.137 401.194 359.711L398.383 361.874L417.104 466.525Z" fill="#FFBE9D"/>
<path d="M404.321 385.197C403.998 385.057 391.291 381.343 391.705 394.307C392.12 407.271 405.05 404.183 405.061 403.81C405.072 403.439 404.321 385.197 404.321 385.197Z" fill="#FFBE9D"/>
<path d="M465.216 382.491C465.539 382.352 477.097 379.236 476.682 392.2C476.267 405.164 463.338 402.074 463.326 401.703C463.317 401.329 465.216 382.491 465.216 382.491Z" fill="#FFBE9D"/>
<path d="M479.762 345.037C479.966 342.687 479.091 340.165 477.178 338.783C475.265 337.402 472.298 337.489 470.745 339.264C471.636 336.098 469.045 332.444 465.765 332.238C462.672 332.041 460.036 334.378 457.046 335.198C454.13 335.997 450.998 335.306 448.192 334.176C445.385 333.047 442.762 331.487 439.922 330.449C433.995 328.284 427.219 328.557 421.485 331.189C415.751 333.821 411.128 338.783 408.906 344.689C404.759 343.392 400.045 345.5 397.488 349.012C394.931 352.524 394.274 357.138 394.782 361.454C395.126 364.37 395.969 367.188 396.952 369.964C396.952 370.207 396.927 370.447 396.931 370.693C397.128 381.121 402.565 414.075 407.013 414.141C414.768 414.26 408.663 378.942 408.663 378.942C418.179 375.265 414.635 361.007 417.013 358.844C419.391 356.682 424.369 351.655 444.293 361.838C452.029 365.792 462.315 365.669 467.93 364.395C468.095 364.358 468.262 364.333 468.425 364.294C468.459 364.285 468.505 364.278 468.539 364.271C468.601 364.255 468.645 364.223 468.704 364.205C470.493 363.74 472.221 363.046 473.813 362.038C475.618 360.897 477.258 359.351 478.023 357.355C478.788 355.362 478.502 352.872 476.935 351.42C478.408 349.573 479.558 347.39 479.762 345.037Z" fill="#263238"/>
<path d="M400.119 383.751C402.055 394.614 401.675 400.323 403.466 407.578C406.302 419.06 412.004 427.864 422.347 433.6C432.691 439.334 446.683 439.231 455.569 431.426C461.734 426.008 466.105 419.887 467.019 411.732C467.933 403.574 468.85 389.132 468.909 380.924C469.015 366.123 470.007 351.972 470.007 351.972L427.717 344.318L403.652 358.627L400.119 383.751Z" fill="#263238"/>
<path d="M443.741 440.147C443.805 440.447 440.479 441.272 436.332 440.802C432.181 440.358 429.114 438.828 429.242 438.55C429.364 438.225 432.493 439.206 436.463 439.627C440.426 440.076 443.693 439.801 443.741 440.147Z" fill="#263238"/>
<path d="M454.738 342.412C454.738 342.412 454.056 342.716 452.729 342.781C451.41 342.84 449.455 342.545 447.316 341.518C445.144 340.545 442.922 338.783 440.464 336.923C438.024 335.063 435.071 333.221 431.529 332.804C428.031 332.336 424.581 333.033 421.901 334.485C419.191 335.922 417.269 338.029 416.034 339.979C413.569 343.976 413.663 347.08 413.521 347.021C413.521 347.021 413.489 346.288 413.727 344.989C413.979 343.701 414.52 341.834 415.75 339.802C416.973 337.791 418.916 335.601 421.695 334.1C424.446 332.584 427.992 331.851 431.594 332.334C435.243 332.763 438.299 334.689 440.725 336.575C443.185 338.467 445.348 340.224 447.458 341.216C449.538 342.26 451.43 342.597 452.722 342.595C454.026 342.59 454.727 342.359 454.738 342.412Z" fill="#455A64"/>
<path d="M414.115 347.754C414.067 347.843 413.034 347.064 411.077 346.615C409.167 346.155 406.207 346.187 403.602 347.786C401.011 349.408 399.667 352.045 399.229 353.962C398.762 355.914 398.998 357.188 398.897 357.19C398.869 357.195 398.792 356.885 398.741 356.315C398.688 355.744 398.702 354.904 398.902 353.891C399.268 351.893 400.617 349.099 403.353 347.385C406.102 345.699 409.206 345.731 411.158 346.29C412.154 346.563 412.912 346.922 413.4 347.225C413.888 347.525 414.129 347.731 414.115 347.754Z" fill="#455A64"/>
<path d="M412.861 393.986C412.561 394.116 410.973 391.141 409.314 387.34C407.656 383.537 406.554 380.351 406.854 380.22C407.154 380.089 408.742 383.065 410.4 386.866C412.059 390.666 413.161 393.855 412.861 393.986Z" fill="#455A64"/>
<path d="M423.943 401.432C423.771 401.681 420.543 399.45 417.954 395.452C415.336 391.471 414.591 387.62 414.887 387.563C415.224 387.46 416.438 391.004 418.946 394.804C421.416 398.628 424.174 401.166 423.943 401.432Z" fill="#455A64"/>
<path d="M434.877 403.828C434.71 404.098 432.3 402.884 429.817 400.708C427.325 398.54 425.794 396.318 426.039 396.117C426.296 395.897 428.179 397.716 430.596 399.816C433.004 401.926 435.061 403.546 434.877 403.828Z" fill="#455A64"/>
<path d="M454.185 386.256C454.494 386.272 454.464 389.31 453.042 392.714C451.64 396.13 449.511 398.297 449.282 398.091C449.01 397.878 450.623 395.498 451.947 392.261C453.298 389.04 453.844 386.215 454.185 386.256Z" fill="#455A64"/>
<path d="M460.737 376.014C461.039 375.991 461.351 379.679 459.99 383.961C458.659 388.254 456.295 391.101 456.059 390.909C455.765 390.714 457.594 387.699 458.858 383.606C460.162 379.526 460.384 376.007 460.737 376.014Z" fill="#455A64"/>
<path d="M465.755 349.808C465.755 349.808 465.246 350.394 464.064 351.121C462.891 351.849 460.976 352.619 458.497 352.834C456.025 353.072 453.02 352.681 449.957 351.522C446.876 350.401 443.749 348.614 440.479 346.796C437.213 344.981 433.994 343.407 430.858 342.649C427.735 341.843 424.757 341.978 422.437 342.69C420.102 343.38 418.444 344.55 417.498 345.517C416.538 346.484 416.169 347.164 416.123 347.132C416.123 347.132 416.428 346.415 417.365 345.389C418.288 344.363 419.958 343.116 422.338 342.37C424.7 341.598 427.772 341.426 430.961 342.225C434.166 342.977 437.433 344.562 440.709 346.381C443.985 348.202 447.079 349.987 450.108 351.111C453.12 352.275 456.044 352.69 458.47 352.497C463.427 352.154 465.732 349.65 465.755 349.808Z" fill="#455A64"/>
<path d="M469.521 355.956C469.537 355.983 469.291 356.146 468.833 356.414C468.38 356.689 467.69 357.032 466.817 357.406C465.074 358.157 462.529 358.927 459.629 359.195C456.726 359.456 454.082 359.161 452.234 358.737C451.308 358.528 450.568 358.315 450.071 358.127C449.572 357.947 449.301 357.832 449.313 357.802C449.338 357.722 450.454 358.079 452.3 358.409C454.144 358.744 456.74 358.98 459.587 358.723C462.433 358.457 464.943 357.756 466.696 357.094C468.448 356.437 469.482 355.882 469.521 355.956Z" fill="#455A64"/>
<path d="M380.205 636.043L382.131 561.187L369.277 507.789L373.124 471.232L414.231 450.492L465.693 446.046L509.636 457.466L509.765 601.605L523.537 686.138L374.833 693.677L380.205 636.043Z" fill="#839CDD"/>
<path d="M378.478 470.666C378.478 470.666 363.892 467.843 356.836 493.719C349.778 519.596 338.818 563.008 338.818 563.008L387.689 561.187L381.772 472.547" fill="#839CDD"/>
<path d="M509.636 457.466C509.636 457.466 536.991 458.685 542.286 505.132C542.444 506.527 551.674 555.588 551.674 555.588H503.387L509.636 457.466Z" fill="#839CDD"/>
<path d="M377.212 503.757C377.295 503.755 377.419 504.675 377.572 506.345C377.744 508.27 377.955 510.632 378.202 513.417C378.724 519.669 379.405 527.786 380.156 536.761C380.88 545.886 381.462 554.151 381.762 560.144C381.913 563.141 381.993 565.569 382.014 567.248C382.025 568.927 381.991 569.857 381.909 569.862C381.826 569.864 381.702 568.943 381.549 567.273C381.377 565.349 381.166 562.987 380.919 560.201C380.397 553.95 379.716 545.833 378.965 536.855C378.241 527.735 377.659 519.47 377.359 513.475C377.208 510.478 377.128 508.05 377.107 506.371C377.098 504.689 377.13 503.761 377.212 503.757Z" fill="#263238"/>
<path d="M513.715 501.595C513.798 501.599 513.825 502.49 513.807 504.096C513.791 505.705 513.708 508.027 513.571 510.896C513.301 516.634 512.753 524.547 512.091 533.277C511.475 541.864 510.918 549.625 510.487 555.636C510.311 558.294 510.16 560.555 510.034 562.415C509.917 564.016 509.812 564.9 509.729 564.9C509.647 564.898 509.594 564.009 509.569 562.401C509.539 560.793 509.564 558.468 509.642 555.597C509.793 549.852 510.235 541.925 510.898 533.188C511.599 524.606 512.233 516.847 512.723 510.838C512.964 508.186 513.168 505.927 513.337 504.069C513.505 502.472 513.633 501.59 513.715 501.595Z" fill="#263238"/>
<path d="M510.216 458.238C510.505 458.116 512.049 461.31 512.816 465.585C513.602 469.857 513.281 473.39 512.968 473.378C512.622 473.378 512.406 469.942 511.641 465.798C510.901 461.653 509.893 458.359 510.216 458.238Z" fill="#263238"/>
<g opacity="0.3">
<path d="M377.365 508.48C374.768 526.558 371.084 544.479 366.342 562.116L382.13 561.186L377.365 508.48Z" fill="black"/>
</g>
</g>
<defs>
<clipPath id="clip0_383_3442">
<rect width="876" height="526" rx="6" fill="white"/>
</clipPath>
</defs>
</svg>
