<svg width="876" height="526" viewBox="0 0 876 526" fill="none" xmlns="http://www.w3.org/2000/svg">
<g clip-path="url(#clip0_383_5799)">
<rect width="876" height="526" rx="6" fill="#FFE4C7"/>
<path d="M875 439H0V526H875V439Z" fill="#FFE9B7"/>
<path d="M-76.1564 462.999H875.702C882.796 462.999 888.546 459.818 888.546 455.893C888.546 451.969 882.796 448.786 875.702 448.786H-76.1564C-83.25 448.786 -89 451.968 -89 455.893C-89.0006 459.817 -83.25 462.999 -76.1564 462.999Z" fill="#F0CD8A"/>
<path d="M321.372 412.003C318.391 423.608 315.621 435.201 315.621 435.201C329.459 439.459 331.378 430.63 330.526 428.502C331.574 423.729 335.742 416.588 335.742 416.588C320.84 415.737 321.372 412.003 321.372 412.003Z" fill="#F9C38A"/>
<path d="M241.239 401L227.717 408.429L233.17 420.637L249.522 415.27C247.491 405.933 241.239 401 241.239 401Z" fill="#F9C38A"/>
<path d="M316.435 431.547C316.435 431.547 314.303 434.53 313.749 439.569C313.196 444.608 314.612 449.341 314.612 449.341C314.612 449.341 339.021 450.714 348.579 448.939C358.138 447.164 358.988 445.492 358.749 442.785C358.51 440.077 345.54 440.89 341.66 437.638C337.78 434.388 332.373 427.412 330.078 428.546C327.782 429.68 328.233 434.032 325.13 434.307C322.026 434.58 317.819 429.894 316.435 431.547Z" fill="#353535"/>
<path d="M233.177 404.876C233.177 404.876 229.744 403.589 224.732 404.359C219.722 405.129 215.518 407.722 215.518 407.722C215.518 407.722 220.511 431.654 224.701 440.427C228.89 449.199 230.725 449.588 233.278 448.657C235.831 447.725 231.689 435.407 233.824 430.818C235.959 426.228 241.297 419.2 239.607 417.276C237.917 415.353 233.83 416.915 232.763 413.988C231.695 411.062 235.131 405.786 233.177 404.876Z" fill="#353535"/>
<path d="M279.53 273.497C279.53 273.497 290.359 347.372 290.359 356.533C290.359 365.693 236.773 398.021 236.773 398.021C236.773 398.021 241.512 417.125 249.527 420.638C252.324 421.864 313.614 381.208 316.934 373.495C320.741 364.65 331.18 302.006 331.18 302.006C331.18 302.006 354.603 337.229 353.575 344.488C351.961 355.883 316.934 417.007 316.934 417.007C316.934 417.007 321.714 427.588 338.71 420.278C338.71 420.278 386.408 361.475 392.419 353.71C406.642 335.334 342.124 252.887 342.124 252.887L279.53 273.497Z" fill="#353535"/>
<path opacity="0.32" d="M364.588 342.654C364.588 330.365 333.441 287.392 333.441 287.392L331.176 302.006C331.176 302.006 354.598 337.229 353.571 344.488C351.956 355.883 316.93 417.007 316.93 417.007C316.93 417.007 318.018 419.414 321.001 421.139C338.15 403.802 364.588 353.756 364.588 342.654Z" fill="#282828"/>
<g opacity="0.5">
<path d="M309.518 277.38C309.132 273.424 308.36 269.05 307.27 264.361L279.527 273.496C279.527 273.496 280.972 283.351 282.806 296.307C288.466 299.318 293.945 301.303 297.054 300.686C302.439 299.618 309.538 291.439 309.538 277.371C309.538 277.378 309.525 277.377 309.518 277.38Z" fill="#282828"/>
</g>
<path d="M306.687 267.104C303.091 231.634 264.731 160.086 251.43 136.155C245.156 136.592 239.617 138.677 236.492 143.699C225.806 160.874 238.782 233.773 250.614 255.147C255.134 263.313 260.428 269.501 265.244 274.031C272.211 280.582 288.426 289.907 294.68 288.714C299.868 287.723 306.705 280.139 306.705 267.095C306.705 267.102 306.693 267.101 306.687 267.104Z" fill="#3AACFF"/>
<path d="M351.757 258.963C351.609 258.703 297.804 148.692 286.102 143.694C285.872 143.591 285.245 143.33 284.899 143.188C276.722 139.85 265.995 136.727 257.249 136.173C253.744 135.938 251.606 136.154 251.43 136.154C264.731 160.085 303.09 231.632 306.686 267.103C320.329 260.428 336.938 254.985 351.757 258.963Z" fill="#FFFBF3"/>
<g opacity="0.5">
<path d="M283.809 199.705C292.215 218.079 299.862 237.035 303.917 252.609C330.162 256.821 336.945 254.368 348.14 251.637C342.681 240.662 338.778 233.038 337.277 230.076L283.809 199.705Z" fill="#E6E6E6"/>
</g>
<path d="M285.45 250.981C289.413 251.953 296.11 252.434 303.911 252.611C299.856 237.037 292.209 218.081 283.802 199.706L232.57 170.606C232.578 170.735 232.586 170.864 232.594 170.992C233.968 193.046 243.236 213.861 258.669 229.675C269.114 240.376 279.435 249.505 285.45 250.981Z" fill="#257FC1"/>
<path d="M411.422 187.535C410.634 179.128 404.676 160.175 402.278 155.006C399.88 149.837 408.475 121.475 408.475 121.475L299.985 129.376C299.985 129.376 304.17 146.077 299.985 149.837C285.953 162.442 296.374 159.605 294.622 168.509C293.695 173.22 286.324 179.32 285.956 184.002C285.815 185.804 290.264 188.546 290.255 190.206C290.226 195.183 294.332 205.523 295.981 207.825L410.308 207.813C410.307 207.814 411.896 192.59 411.422 187.535Z" fill="#3F19FF"/>
<path d="M406.204 124.986C406.204 124.986 341.887 149.721 317.359 143.212C292.831 136.702 294.793 116.524 319.975 103.179C345.157 89.8352 422.665 108.604 406.204 124.986Z" fill="#5B6B1A"/>
<path d="M372.242 108.245V87.7373H378.782V108.245C378.782 110.625 380.047 112.838 382.133 114.32C384.58 116.06 386.148 118.742 386.148 121.751V161.686H364.875V121.751C364.875 118.742 366.444 116.06 368.891 114.32C370.976 112.838 372.242 110.625 372.242 108.245Z" fill="#3AACFF"/>
<path opacity="0.57" d="M337.064 104.744C336.488 104.658 336.038 104.202 335.94 103.628L335.531 101.211L327.595 102.575L328.001 104.972C328.098 105.546 327.823 106.125 327.308 106.396C324.029 108.121 322.074 111.812 322.727 115.664L331.937 170.063C332.749 174.86 337.297 178.091 342.094 177.279L346.435 176.544C351.233 175.732 354.463 171.184 353.651 166.387L344.44 111.988C343.788 108.136 340.728 105.294 337.064 104.744Z" fill="#FFFBF3"/>
<path opacity="0.57" d="M333.626 105.894C333.05 105.808 332.6 105.352 332.503 104.779L332.002 101.816L327.595 102.574L328.001 104.971C328.098 105.545 327.823 106.123 327.308 106.394C324.029 108.12 322.074 111.811 322.727 115.663L331.937 170.062C332.749 174.859 337.297 178.089 342.094 177.277L345.963 176.622C349.041 174.828 350.843 171.258 350.213 167.537L341.003 113.139C340.351 109.286 337.29 106.445 333.626 105.894Z" fill="#FFFBF3"/>
<path d="M328.635 128.185L318.069 155.267L304.34 152.045L304.555 149.979L307.383 122.808L317.394 125.342L328.635 128.185Z" fill="#9B0A3A"/>
<path d="M328.368 128.082L318.011 155.16L304.34 152.047C307.059 152.704 311.443 153.764 318.126 155.378C319.229 152.607 327.789 131.087 328.901 128.29L328.368 128.082Z" fill="#44051D"/>
<path d="M304.553 149.979L307.381 122.808L317.392 125.342C316.183 134.64 312.903 150.308 304.553 149.979Z" fill="#BF1657"/>
<path d="M328.763 124.081L328.426 125.52L308.805 120.916L309.142 119.477C309.247 119.029 309.698 118.75 310.145 118.855L328.144 123.078C328.593 123.183 328.869 123.633 328.763 124.081Z" fill="#F4E4A2"/>
<path d="M328.765 124.082L328.427 125.521L318.603 123.216C318.67 122.965 318.725 122.643 318.721 122.263C318.714 121.83 317.576 121.046 316.314 120.304L328.146 123.08C328.594 123.185 328.87 123.634 328.765 124.082Z" fill="#EFBA50"/>
<path d="M329.535 128.74L305.738 123.157L307.833 121.311L308.019 121.146L328.801 126.022L329.535 128.74Z" fill="#F4E4A2"/>
<path d="M329.535 128.74L323.109 127.232C322.796 125.371 310.288 121.963 307.834 121.311L308.019 121.146L328.801 126.022L329.535 128.74Z" fill="#EFBA50"/>
<path d="M329.551 128.747L305.754 123.164L305.585 123.883L329.383 129.466L329.551 128.747Z" fill="#F4C87A"/>
<path d="M308.207 120.115L329.083 125.014C329.364 125.08 329.539 125.361 329.473 125.643L329.473 125.644C329.406 125.925 329.125 126.1 328.844 126.034L307.968 121.136C307.687 121.07 307.512 120.789 307.578 120.508L307.579 120.506C307.644 120.224 307.926 120.05 308.207 120.115Z" fill="#F4E4A2"/>
<path d="M328.635 128.185L318.069 155.267L304.34 152.045L304.555 149.979L307.383 122.808L317.394 125.342L328.635 128.185Z" fill="#3AACFF"/>
<path d="M328.368 128.082L318.011 155.16L304.34 152.047C307.059 152.704 311.443 153.764 318.126 155.378C319.229 152.607 327.789 131.087 328.901 128.29L328.368 128.082Z" fill="#257FC1"/>
<path d="M309.467 146.981L312.295 119.811L322.306 122.345C321.097 131.642 317.818 147.311 309.467 146.981Z" fill="#257FC1"/>
<path d="M328.763 124.081L328.426 125.52L308.805 120.916L309.142 119.477C309.247 119.029 309.698 118.75 310.145 118.855L328.144 123.078C328.593 123.183 328.869 123.633 328.763 124.081Z" fill="#FFFBF3"/>
<path d="M329.535 128.74L305.738 123.157L307.833 121.311L308.019 121.146L328.801 126.022L329.535 128.74Z" fill="#FFFBF3"/>
<path d="M329.551 128.747L305.754 123.164L305.585 123.883L329.383 129.466L329.551 128.747Z" fill="#E6E6E6"/>
<path d="M308.207 120.115L329.083 125.014C329.364 125.08 329.539 125.361 329.473 125.643L329.473 125.644C329.406 125.925 329.125 126.1 328.844 126.034L307.968 121.136C307.687 121.07 307.512 120.789 307.578 120.508L307.579 120.506C307.644 120.224 307.926 120.05 308.207 120.115Z" fill="#FFFBF3"/>
<path d="M359.643 131.787C360.089 131.017 360.653 130.221 361.164 130.027C361.755 129.805 362.369 129.633 362.905 129.299C364.633 128.224 366.03 126.89 367.096 125.297C368.473 123.24 368.759 120.666 368.076 118.287C367.653 116.814 367.831 115.205 368.67 113.841L371.939 108.521L366.249 104.062L361.865 108.508C361.129 109.255 359.8 109.554 358.539 109.654C354.672 109.961 351.084 112.002 349.247 115.418C348.846 116.163 348.508 116.957 348.233 117.8C348.037 118.401 348.017 119.038 347.942 119.664C347.877 120.208 347.238 120.945 346.596 121.563C345.948 122.187 345.02 122.45 344.156 122.194C342.931 121.83 341.553 122.223 340.717 123.29L321.611 147.67C320.518 149.065 320.762 151.082 322.157 152.174L335.761 162.835C337.155 163.928 339.172 163.684 340.265 162.289L359.371 137.909C360.208 136.842 360.261 135.41 359.614 134.307C359.159 133.531 359.192 132.566 359.643 131.787Z" fill="#97F0FF"/>
<path d="M359.643 131.787C360.089 131.017 360.653 130.221 361.164 130.027C361.755 129.805 362.369 129.633 362.905 129.299C364.633 128.224 366.03 126.89 367.096 125.297C368.473 123.24 368.759 120.666 368.076 118.287C367.653 116.814 367.831 115.205 368.67 113.841L371.939 108.521L366.249 104.062L361.865 108.508C361.129 109.255 359.8 109.554 358.539 109.654C354.672 109.961 351.084 112.002 349.247 115.418C348.846 116.163 348.508 116.957 348.233 117.8C348.037 118.401 348.017 119.038 347.942 119.664C347.877 120.208 347.238 120.945 346.596 121.563C345.948 122.187 345.02 122.45 344.156 122.194C342.931 121.83 341.553 122.223 340.717 123.29L321.611 147.67C320.518 149.065 320.762 151.082 322.157 152.174L335.761 162.835C337.155 163.928 339.172 163.684 340.265 162.289L359.371 137.909C360.208 136.842 360.261 135.41 359.614 134.307C359.159 133.531 359.192 132.566 359.643 131.787Z" fill="#FFFBF3"/>
<path opacity="0.49" d="M359.612 134.309C359.157 133.532 359.19 132.568 359.641 131.789C360.087 131.018 360.651 130.223 361.163 130.029C361.753 129.806 362.367 129.635 362.903 129.301C364.631 128.226 366.028 126.892 367.095 125.298C368.471 123.242 368.757 120.668 368.074 118.289C367.651 116.816 367.829 115.207 368.668 113.843L371.937 108.523L368.9 106.143L365.63 111.462C364.792 112.827 364.613 114.435 365.036 115.909C365.719 118.288 365.434 120.861 364.057 122.918C362.991 124.511 361.594 125.846 359.865 126.921C359.329 127.254 358.716 127.426 358.125 127.648C357.613 127.842 357.049 128.638 356.604 129.408C356.152 130.187 356.119 131.152 356.574 131.928C357.22 133.032 357.168 134.463 356.331 135.531L337.225 159.911C336.132 161.305 334.115 161.55 332.721 160.457L335.758 162.838C337.153 163.93 339.169 163.686 340.262 162.291L359.369 137.911C360.205 136.844 360.258 135.412 359.612 134.309Z" fill="#E6E6E6"/>
<path d="M375.416 105.923L372.832 109.22L365.197 103.237L367.781 99.9399C367.947 99.7288 368.251 99.692 368.462 99.8572L375.334 105.243C375.545 105.408 375.581 105.713 375.416 105.923Z" fill="#FFFBF3"/>
<path opacity="0.49" d="M372.829 109.219L368.9 106.14L371.783 102.461L375.33 105.24C375.541 105.406 375.578 105.711 375.413 105.922L372.829 109.219Z" fill="#E6E6E6"/>
<path d="M372.835 109.212L365.199 103.229L364.45 104.184L372.086 110.168L372.835 109.212Z" fill="#FFFBF3"/>
<path d="M375.472 106.257L367.439 99.9619L367.065 100.44L375.098 106.735L375.472 106.257Z" fill="#E6E6E6"/>
<path d="M374.742 107.2L366.709 100.905L366.335 101.383L374.368 107.678L374.742 107.2Z" fill="#E6E6E6"/>
<path d="M374.006 108.144L365.973 101.85L365.598 102.328L373.631 108.622L374.006 108.144Z" fill="#E6E6E6"/>
<path opacity="0.85" d="M349.766 136.854L338.447 126.747C334.728 123.425 334.418 117.733 337.755 114.031L340.23 111.285C343.567 107.584 349.288 107.275 353.007 110.596L364.327 120.703C364.842 121.163 364.885 121.952 364.422 122.465C363.96 122.978 364.003 123.767 364.518 124.227L369.306 128.501C369.821 128.962 370.614 128.918 371.076 128.406C371.539 127.893 372.331 127.85 372.847 128.311L389.967 143.598C390.482 144.058 390.525 144.846 390.063 145.359L377.177 159.652C376.715 160.165 375.922 160.208 375.407 159.748L358.286 144.46C357.771 144 357.728 143.211 358.191 142.698C358.653 142.186 358.61 141.397 358.095 140.937L353.308 136.662C352.792 136.202 351.999 136.245 351.537 136.758C351.074 137.271 350.282 137.313 349.766 136.854Z" fill="#353535"/>
<path d="M389.965 143.599L372.845 128.312C372.329 127.851 371.537 127.894 371.074 128.407C370.612 128.92 369.819 128.963 369.304 128.502L364.516 124.228C364.001 123.768 363.958 122.979 364.421 122.466C364.883 121.953 364.84 121.164 364.325 120.704L353.006 110.597C351.492 109.246 349.647 108.495 347.766 108.33C351.933 113.492 364.42 129.655 364.42 137.965C364.42 141.604 363.297 144.919 361.87 147.663L375.405 159.749C375.92 160.209 376.713 160.166 377.175 159.653L390.061 145.361C390.524 144.848 390.48 144.059 389.965 143.599Z" fill="#282828"/>
<path d="M417.745 190.219C416.957 181.813 404.676 160.175 402.278 155.006C399.88 149.837 408.475 121.475 408.475 121.475L408.337 121.485C408.062 122.647 407.367 123.81 406.203 124.961C406.203 124.961 341.885 149.514 317.357 143.053C307.123 140.357 301.501 135.299 300.252 129.357L299.985 129.376C299.985 129.376 304.17 146.077 299.985 149.837C285.953 162.442 296.374 159.606 294.622 168.509C293.695 173.22 286.324 179.32 285.956 184.002C285.815 185.804 290.264 188.547 290.255 190.206C290.226 195.183 294.332 205.523 295.981 207.825C295.981 207.825 294.206 213.443 292.957 223.62C291.709 233.797 294.994 252.229 325.436 258.46C355.878 264.691 366.505 251.695 401.715 248.647C418.445 244.163 410.739 221.887 410.308 207.814C410.308 207.814 418.219 195.275 417.745 190.219Z" fill="#748828"/>
<path d="M408.319 121.56C408.261 121.787 408.188 122.015 408.098 122.243C407.482 123.803 406.17 124.982 404.595 125.564C394.505 129.289 339.588 148.911 317.357 143.055C307.122 140.359 301.501 135.301 300.252 129.359L299.984 129.379C299.984 129.379 298.942 143.27 312.958 150.937C315.989 152.596 314.027 151.415 315.969 152.244C334.088 159.514 377.067 143.516 402.802 128.7C405.532 127.128 407.547 124.558 408.455 121.541C408.457 121.538 408.458 121.534 408.459 121.531C408.412 121.54 408.365 121.55 408.319 121.56Z" fill="#5B6B1A"/>
<path d="M318.557 159.778C310.036 159.778 301.952 161.684 294.693 165.101C294.872 166.02 294.895 167.121 294.622 168.507C293.695 173.217 286.324 179.317 285.956 184C285.815 185.802 290.264 188.544 290.255 190.203C290.226 195.181 294.332 205.521 295.981 207.822C295.981 207.822 294.206 213.44 292.957 223.618C291.709 233.795 294.994 252.226 325.436 258.457C347.313 262.935 358.956 257.484 376.843 252.93C383.733 187.627 344.845 159.778 318.557 159.778Z" fill="#5B6B1A"/>
<path d="M404.789 125.519C384.032 139.664 337.64 155.433 315.969 147.766C314.027 147.034 316.098 147.884 312.957 146.613C297.126 139.807 294.35 122.91 307.83 111.695C306.57 116.525 301.007 128.398 304.351 132.106C309.546 137.89 320.475 138.849 320.437 138.844C320.476 138.847 322.652 138.989 322.519 138.981C341.83 139.55 380.339 128.312 404.789 125.519Z" fill="#748828"/>
<path d="M304.389 168.207L306.43 168.871V166.518H308.119V168.871L310.16 168.207L310.619 169.662L308.539 170.307L309.896 172.25L308.646 173.139L307.289 171.303L305.893 173.139L304.643 172.25L306.01 170.307L303.93 169.662L304.389 168.207ZM322.328 166.605H326.654V181H323.852V171.264C323.852 170.984 323.855 170.593 323.861 170.092C323.868 169.584 323.871 169.193 323.871 168.92L321.146 181H318.227L315.521 168.92C315.521 169.193 315.525 169.584 315.531 170.092C315.538 170.593 315.541 170.984 315.541 171.264V181H312.738V166.605H317.113L319.73 177.924L322.328 166.605ZM333.998 179.037C334.812 179.037 335.437 178.747 335.873 178.168C336.309 177.589 336.527 176.765 336.527 175.697C336.527 174.63 336.309 173.809 335.873 173.236C335.437 172.657 334.812 172.367 333.998 172.367C333.184 172.367 332.556 172.657 332.113 173.236C331.677 173.809 331.459 174.63 331.459 175.697C331.459 176.765 331.677 177.589 332.113 178.168C332.556 178.747 333.184 179.037 333.998 179.037ZM339.447 175.697C339.447 177.26 338.998 178.598 338.1 179.711C337.201 180.818 335.837 181.371 334.008 181.371C332.178 181.371 330.814 180.818 329.916 179.711C329.018 178.598 328.568 177.26 328.568 175.697C328.568 174.161 329.018 172.829 329.916 171.703C330.814 170.577 332.178 170.014 334.008 170.014C335.837 170.014 337.201 170.577 338.1 171.703C338.998 172.829 339.447 174.161 339.447 175.697ZM343.617 177.602C343.676 178.096 343.803 178.448 343.998 178.656C344.343 179.027 344.981 179.213 345.912 179.213C346.459 179.213 346.892 179.132 347.211 178.969C347.536 178.806 347.699 178.562 347.699 178.236C347.699 177.924 347.569 177.686 347.309 177.523C347.048 177.361 346.081 177.081 344.408 176.684C343.204 176.384 342.354 176.01 341.859 175.561C341.365 175.118 341.117 174.48 341.117 173.646C341.117 172.663 341.501 171.82 342.27 171.117C343.044 170.408 344.132 170.053 345.531 170.053C346.859 170.053 347.94 170.32 348.773 170.854C349.613 171.381 350.095 172.296 350.219 173.598H347.436C347.396 173.24 347.296 172.956 347.133 172.748C346.827 172.37 346.306 172.182 345.57 172.182C344.965 172.182 344.532 172.276 344.271 172.465C344.018 172.654 343.891 172.875 343.891 173.129C343.891 173.448 344.027 173.679 344.301 173.822C344.574 173.972 345.541 174.229 347.201 174.594C348.308 174.854 349.138 175.248 349.691 175.775C350.238 176.309 350.512 176.977 350.512 177.777C350.512 178.832 350.118 179.695 349.33 180.365C348.549 181.029 347.338 181.361 345.697 181.361C344.024 181.361 342.787 181.01 341.986 180.307C341.192 179.597 340.795 178.695 340.795 177.602H343.617ZM351.488 172.436V170.453H352.973V167.484H355.727V170.453H357.455V172.436H355.727V178.061C355.727 178.497 355.782 178.77 355.893 178.881C356.003 178.985 356.342 179.037 356.908 179.037C356.993 179.037 357.081 179.037 357.172 179.037C357.27 179.031 357.364 179.024 357.455 179.018V181.098L356.137 181.146C354.822 181.192 353.923 180.964 353.441 180.463C353.129 180.144 352.973 179.652 352.973 178.988V172.436H351.488ZM375.678 169.154H368.061V172.211H375.053V174.711H368.061V178.412H376.029V181H365.121V166.605H375.678V169.154ZM378.373 166.605H381.381V178.412H388.51V181H378.373V166.605ZM390.551 166.605H393.705L399.438 176.654V166.605H402.24V181H399.232L393.354 170.775V181H390.551V166.605ZM311.615 199.557C311.706 200.214 311.885 200.706 312.152 201.031C312.641 201.624 313.477 201.92 314.662 201.92C315.372 201.92 315.948 201.842 316.391 201.686C317.23 201.386 317.65 200.829 317.65 200.016C317.65 199.54 317.442 199.173 317.025 198.912C316.609 198.658 315.954 198.434 315.062 198.238L313.539 197.896C312.042 197.558 311.007 197.19 310.434 196.793C309.464 196.129 308.979 195.09 308.979 193.678C308.979 192.389 309.447 191.318 310.385 190.465C311.322 189.612 312.699 189.186 314.516 189.186C316.033 189.186 317.325 189.589 318.393 190.396C319.467 191.197 320.03 192.363 320.082 193.893H317.191C317.139 193.027 316.762 192.411 316.059 192.047C315.59 191.806 315.007 191.686 314.311 191.686C313.536 191.686 312.917 191.842 312.455 192.154C311.993 192.467 311.762 192.903 311.762 193.463C311.762 193.977 311.99 194.361 312.445 194.615C312.738 194.785 313.363 194.983 314.32 195.211L316.801 195.807C317.888 196.067 318.708 196.415 319.262 196.852C320.121 197.529 320.551 198.508 320.551 199.791C320.551 201.106 320.046 202.2 319.037 203.072C318.035 203.938 316.615 204.371 314.779 204.371C312.904 204.371 311.43 203.945 310.355 203.092C309.281 202.232 308.744 201.054 308.744 199.557H311.615ZM327.328 202.037C328.142 202.037 328.767 201.747 329.203 201.168C329.639 200.589 329.857 199.765 329.857 198.697C329.857 197.63 329.639 196.809 329.203 196.236C328.767 195.657 328.142 195.367 327.328 195.367C326.514 195.367 325.886 195.657 325.443 196.236C325.007 196.809 324.789 197.63 324.789 198.697C324.789 199.765 325.007 200.589 325.443 201.168C325.886 201.747 326.514 202.037 327.328 202.037ZM332.777 198.697C332.777 200.26 332.328 201.598 331.43 202.711C330.531 203.818 329.167 204.371 327.338 204.371C325.508 204.371 324.145 203.818 323.246 202.711C322.348 201.598 321.898 200.26 321.898 198.697C321.898 197.161 322.348 195.829 323.246 194.703C324.145 193.577 325.508 193.014 327.338 193.014C329.167 193.014 330.531 193.577 331.43 194.703C332.328 195.829 332.777 197.161 332.777 198.697ZM337.621 204H334.838V189.605H337.621V204ZM343.119 193.355V199.771C343.119 200.377 343.191 200.833 343.334 201.139C343.588 201.679 344.086 201.949 344.828 201.949C345.779 201.949 346.43 201.565 346.781 200.797C346.964 200.38 347.055 199.83 347.055 199.146V193.355H349.877V204H347.172V202.496C347.146 202.529 347.081 202.626 346.977 202.789C346.872 202.952 346.749 203.095 346.605 203.219C346.169 203.609 345.746 203.876 345.336 204.02C344.932 204.163 344.457 204.234 343.91 204.234C342.335 204.234 341.273 203.668 340.727 202.535C340.421 201.91 340.268 200.989 340.268 199.771V193.355H343.119ZM351.479 195.436V193.453H352.963V190.484H355.717V193.453H357.445V195.436H355.717V201.061C355.717 201.497 355.772 201.77 355.883 201.881C355.993 201.985 356.332 202.037 356.898 202.037C356.983 202.037 357.071 202.037 357.162 202.037C357.26 202.031 357.354 202.024 357.445 202.018V204.098L356.127 204.146C354.812 204.192 353.913 203.964 353.432 203.463C353.119 203.144 352.963 202.652 352.963 201.988V195.436H351.479ZM362.094 192.086H359.271V189.518H362.094V192.086ZM359.271 193.355H362.094V204H359.271V193.355ZM369.574 202.037C370.388 202.037 371.013 201.747 371.449 201.168C371.885 200.589 372.104 199.765 372.104 198.697C372.104 197.63 371.885 196.809 371.449 196.236C371.013 195.657 370.388 195.367 369.574 195.367C368.76 195.367 368.132 195.657 367.689 196.236C367.253 196.809 367.035 197.63 367.035 198.697C367.035 199.765 367.253 200.589 367.689 201.168C368.132 201.747 368.76 202.037 369.574 202.037ZM375.023 198.697C375.023 200.26 374.574 201.598 373.676 202.711C372.777 203.818 371.413 204.371 369.584 204.371C367.755 204.371 366.391 203.818 365.492 202.711C364.594 201.598 364.145 200.26 364.145 198.697C364.145 197.161 364.594 195.829 365.492 194.703C366.391 193.577 367.755 193.014 369.584 193.014C371.413 193.014 372.777 193.577 373.676 194.703C374.574 195.829 375.023 197.161 375.023 198.697ZM382.924 193.102C384.024 193.102 384.923 193.391 385.619 193.971C386.322 194.544 386.674 195.497 386.674 196.832V204H383.822V197.525C383.822 196.965 383.747 196.536 383.598 196.236C383.324 195.689 382.803 195.416 382.035 195.416C381.091 195.416 380.443 195.816 380.092 196.617C379.91 197.04 379.818 197.581 379.818 198.238V204H377.045V193.375H379.73V194.928C380.089 194.381 380.427 193.987 380.746 193.746C381.319 193.316 382.045 193.102 382.924 193.102ZM391.42 200.602C391.479 201.096 391.605 201.448 391.801 201.656C392.146 202.027 392.784 202.213 393.715 202.213C394.262 202.213 394.695 202.132 395.014 201.969C395.339 201.806 395.502 201.562 395.502 201.236C395.502 200.924 395.372 200.686 395.111 200.523C394.851 200.361 393.884 200.081 392.211 199.684C391.007 199.384 390.157 199.01 389.662 198.561C389.167 198.118 388.92 197.48 388.92 196.646C388.92 195.663 389.304 194.82 390.072 194.117C390.847 193.408 391.934 193.053 393.334 193.053C394.662 193.053 395.743 193.32 396.576 193.854C397.416 194.381 397.898 195.296 398.021 196.598H395.238C395.199 196.24 395.098 195.956 394.936 195.748C394.63 195.37 394.109 195.182 393.373 195.182C392.768 195.182 392.335 195.276 392.074 195.465C391.82 195.654 391.693 195.875 391.693 196.129C391.693 196.448 391.83 196.679 392.104 196.822C392.377 196.972 393.344 197.229 395.004 197.594C396.111 197.854 396.941 198.248 397.494 198.775C398.041 199.309 398.314 199.977 398.314 200.777C398.314 201.832 397.921 202.695 397.133 203.365C396.352 204.029 395.141 204.361 393.5 204.361C391.827 204.361 390.59 204.01 389.789 203.307C388.995 202.597 388.598 201.695 388.598 200.602H391.42Z" fill="white"/>
<path d="M357.296 228.045C358.129 228.107 372.149 233.478 383.057 229.909C388.254 228.207 393.024 227.208 390.924 231.979C388.825 236.75 379.242 234.724 377.907 236.06C376.571 237.397 394.467 247.183 399.355 248.015C404.242 248.846 396.227 253.045 394.319 253.045C392.411 253.045 393.937 253.808 392.029 255.717C390.12 257.625 385.499 257.172 383.25 257.625C375.915 259.103 356.413 245.626 353.479 242.692C350.545 239.758 357.296 228.045 357.296 228.045Z" fill="#F9C38A"/>
<path d="M252.16 136.109C252.16 136.109 259.918 144.836 264.357 154C268.837 163.249 293.721 208.71 296.471 208.71C299.221 208.71 360.637 228.71 360.637 228.71C360.637 228.71 356.341 237.587 356.341 247.51C356.341 247.51 290.312 236.823 285.35 236.823C280.388 236.823 274.663 228.045 269.701 223.083C264.74 218.122 240.073 195.67 232.941 178.079C225.809 160.489 229.641 132.292 252.16 136.109Z" fill="#3AACFF"/>
<path d="M275.311 111.913L283.261 147.158L252.156 136.114L258.241 112.031L275.311 111.913Z" fill="#F9C38A"/>
<path opacity="0.68" d="M275.312 111.913L258.242 112.031L256.828 117.627C261.71 122.577 267.575 126.563 272.354 127.679C274.251 128.122 276.526 128.146 278.909 127.861L275.312 111.913Z" fill="#E5AC7A"/>
<path d="M262.621 78.0309C262.621 78.0309 267.952 78.0796 274.446 82.3347C280.941 86.5902 286.878 98.4583 286.878 98.4583C286.878 98.4583 289.853 105.994 290.241 110.421C290.63 114.847 274.975 122.003 267.206 120.998C259.438 119.994 249.259 111.206 246.667 103.186C244.075 95.166 259.157 77.5828 262.621 78.0309Z" fill="#F9C38A"/>
<path opacity="0.68" d="M276.746 84.1571C275.994 83.4629 275.224 82.8441 274.446 82.3347C267.952 78.0796 262.621 78.0309 262.621 78.0309C260.98 77.8184 256.73 81.6546 252.988 86.6035L255.665 86.4275C255.665 86.4275 264.617 88.8834 273.459 85.6874C274.646 85.2586 275.74 84.7377 276.746 84.1571Z" fill="#E5AC7A"/>
<path d="M255.662 86.4267C255.662 86.4267 258.663 92.9933 260.63 102.152C262.598 111.312 261.592 120.582 261.592 120.582C255.091 123.92 244.64 123.604 235.732 112.051C226.824 100.498 236.913 91.0446 239.169 89.3047C241.426 87.5643 237.91 86.9263 239.491 82.3577C241.072 77.7889 243.858 80.6658 246.891 77.4895C249.924 74.3135 241.971 67.6761 247.613 62.4891C253.254 57.3021 260.609 67.3315 260.609 67.3315C260.609 67.3315 263.722 57.3947 269.411 63.0563C275.1 68.7184 275.333 72.7078 270.687 78.868C266.041 85.0282 255.662 86.4267 255.662 86.4267Z" fill="#353535"/>
<path d="M260.672 97.9384C260.672 97.9384 253.623 94.5293 253.623 100.495C253.623 106.461 256.035 109.657 259.526 108.166C263.016 106.674 260.672 97.9384 260.672 97.9384Z" fill="#F9C38A"/>
<path d="M577.077 193.718H571.755H483.051L508.122 434.228C508.997 442.624 516.073 449.003 524.512 449.003H571.755H577.077H624.32C632.759 449.003 639.835 442.625 640.71 434.228L665.781 193.718H577.077Z" fill="#5B6B1A"/>
<path d="M668.643 207.527H481.728C477.404 207.527 473.898 204.022 473.898 199.698V194.587C473.898 190.263 477.404 186.758 481.728 186.758H668.643C672.967 186.758 676.473 190.263 676.473 194.588V199.698C676.473 204.022 672.967 207.527 668.643 207.527Z" fill="#526115"/>
<path opacity="0.2" d="M527.115 207.527L544.611 448.999H608.76L624.96 207.527H527.115Z" fill="white"/>
<g opacity="0.6">
<path d="M594.632 299.307L606.971 320.64C606.971 320.64 610.256 325.755 608.139 330.869L619.074 312.462C620.521 310.028 621.111 307.156 620.616 304.368C620.469 303.54 620.241 302.741 619.893 302.083C618.506 299.453 612.373 289.005 612.373 289.005L622.522 283.306L597.041 282.356L585.432 304.567L594.632 299.307Z" fill="white"/>
<path d="M602.736 316.841H584.775V337.59H596.75C596.75 337.59 609.6 336.567 606.46 324.001L602.736 316.841Z" fill="white"/>
<path d="M564.133 315.782L539.507 315.217C539.507 315.217 533.433 315.361 530.172 310.89L540.183 329.815C541.507 332.318 543.65 334.318 546.287 335.346C547.07 335.652 547.871 335.873 548.613 335.919C551.579 336.103 563.686 336.303 563.686 336.303L563.265 347.94L577.341 326.665L564.435 305.184L564.133 315.782Z" fill="white"/>
<path d="M544.955 313.577L554.306 298.232L536.602 287.43L530.368 297.659C530.368 297.659 524.551 309.17 536.907 313.03L544.955 313.577Z" fill="white"/>
<path d="M565.515 280.767L577.957 259.494C577.957 259.494 580.778 254.11 586.268 253.426L564.873 253.002C562.044 252.946 559.256 253.852 557.078 255.659C556.431 256.197 555.849 256.79 555.449 257.416C553.85 259.922 547.8 270.418 547.8 270.418L537.836 264.403L549.596 287.043L574.629 286.173L565.515 280.767Z" fill="white"/>
<path d="M576.748 265.055L585.619 280.683L603.649 270.434L597.735 260.016C597.735 260.016 590.499 249.341 581.13 258.279L576.748 265.055Z" fill="white"/>
</g>
</g>
<defs>
<clipPath id="clip0_383_5799">
<rect width="876" height="526" rx="6" fill="white"/>
</clipPath>
</defs>
</svg>
