<svg width="180" height="63" viewBox="0 0 180 63" fill="none" xmlns="http://www.w3.org/2000/svg">
<path d="M178.087 54.9541C177.998 54.9846 177.883 54.9993 177.728 55.0007L177.557 54.9978C168.114 54.3378 158.671 53.6779 149.231 53.0328L149.231 53.0318C148.958 53.0113 148.804 52.9489 148.721 52.8864C148.65 52.8337 148.591 52.7537 148.562 52.5932L148.559 52.572L148.553 52.5512C148.553 52.5501 148.549 52.5309 148.552 52.4717C148.554 52.44 148.557 52.4083 148.56 52.3633C148.561 52.357 148.562 52.3503 148.562 52.3436C148.577 52.3156 148.591 52.2891 148.604 52.2647C148.612 52.2487 148.621 52.234 148.629 52.2195C148.701 52.1748 148.77 52.1317 148.829 52.0941C148.928 52.0308 149.011 51.9816 149.09 51.9424C151.087 51.031 153.081 50.1231 155.076 49.2182L161.071 46.5048C161.221 46.4392 161.37 46.3698 161.51 46.3041C161.653 46.2375 161.786 46.1743 161.917 46.1162L162.257 45.9656L162.213 45.5963C162.2 45.4941 162.192 45.4054 162.183 45.3111L162.181 45.2993L162.18 45.2887C161.536 40.7924 160.889 36.2818 160.261 31.783L160.26 31.7742C160.225 31.5506 160.231 31.3615 160.222 31.0798C160.246 31.0378 160.27 30.9955 160.294 30.9543C160.458 30.7845 160.61 30.761 160.745 30.787C160.916 30.8203 161.118 30.9484 161.274 31.1588C166.874 38.7692 172.501 46.3565 178.13 53.9578L178.129 53.958C178.273 54.1551 178.353 54.2984 178.384 54.4175C178.408 54.5114 178.406 54.6035 178.335 54.733C178.261 54.8665 178.181 54.9215 178.087 54.9541Z" fill="#EAFF66" stroke="black" stroke-width="1.00746"/>
<path d="M21.3281 0.503906L126.518 0.503906C137.977 0.503906 147.342 10.6753 147.342 23.3193C147.342 35.9634 137.977 46.1348 126.518 46.1348L21.3281 46.1348C9.86873 46.1348 0.503906 35.9634 0.503906 23.3193C0.503969 10.6753 9.86877 0.503906 21.3281 0.503906Z" fill="#EAFF66" stroke="black" stroke-width="1.00746"/>
<path d="M33.7123 29.374L33.7123 15.2731L43.2606 15.2731L43.2606 17.0861L35.8677 17.0861L35.8677 21.2761L42.1527 21.2761L42.1527 23.089L35.8677 23.089L35.8677 29.374L33.7123 29.374ZM48.6403 29.5956C45.5381 29.5956 43.6043 27.561 43.6043 24.338C43.6043 21.1149 45.4173 19.0804 48.5195 19.0804C51.0979 19.0804 53.2131 20.4502 53.2131 23.9552L53.2131 24.6804L45.6791 24.6804C45.7799 26.5941 46.9482 27.9236 48.6403 27.9236C50.2519 27.9236 51.1785 27.0574 51.4404 26.0301L53.4145 26.0301C53.0318 28.1654 51.3195 29.5956 48.6403 29.5956ZM45.7597 23.2099L51.1785 23.2099C51.1181 21.3365 49.8691 20.7322 48.4993 20.7322C46.8274 20.7322 45.941 21.7595 45.7597 23.2099ZM58.2803 29.5956C56.0845 29.5956 54.9162 28.4675 54.9162 26.7351C54.9162 24.8617 56.1651 23.9351 58.5421 23.3509L60.4558 22.8675C61.0602 22.7264 61.6645 22.5452 61.6645 22.0617C61.6645 21.1753 60.7781 20.712 59.4083 20.712C57.9378 20.712 56.991 21.4372 56.991 22.6459L55.0975 22.6459C55.0975 20.43 56.8702 19.0804 59.4083 19.0804C62.1278 19.0804 63.7393 20.3494 63.7393 22.6459L63.7393 29.374L61.6443 29.374C61.8256 28.528 62.1278 27.9438 62.571 27.3596L62.571 27.1582L61.6242 27.1582C61.4026 28.5884 60.3148 29.5956 58.2803 29.5956ZM56.9507 26.5538C56.9507 27.2992 57.3133 27.9438 58.8242 27.9438C60.5566 27.9438 61.7451 26.715 61.7451 25.2445L61.7451 23.5524C61.5235 23.8948 61.0602 24.1567 60.5566 24.3178L59.086 24.761C57.6759 25.2042 56.9507 25.6876 56.9507 26.5538ZM69.8049 29.374C68.1531 29.374 67.2869 28.3064 67.2869 26.5337L67.3071 20.9538L65.2121 20.9538L65.2121 19.3019L67.3272 19.3019L67.3272 16.4818L69.1805 16.4818L69.1805 19.3019L72.2424 19.3019L72.2424 20.9538L69.2207 20.9538L69.2207 26.433C69.2207 27.5006 69.402 27.6819 70.4093 27.6819L72.3431 27.6819L72.3431 29.374L69.8049 29.374ZM83.0743 19.3019L83.0743 29.374L81.08 29.374C81.2411 28.5078 81.5433 27.8229 81.9462 27.1582L81.9462 26.9769L81.1001 26.9769C80.6771 28.5884 79.3677 29.5956 77.4943 29.5956C75.218 29.5956 74.1101 28.1049 74.1101 25.6675L74.1101 19.3019L76.1044 19.3019L76.1044 25.4258C76.1044 26.9366 76.608 27.8632 78.1591 27.8632C79.7706 27.8632 81.0397 26.5941 81.1001 24.5797L81.1001 19.3019L83.0743 19.3019ZM85.9747 29.374L85.9747 19.3019L87.969 19.3019C87.8078 20.1279 87.5057 20.853 87.0625 21.4977L87.0625 21.6991L87.9891 21.6991C88.251 20.5307 89.2783 19.3019 90.7892 19.3019L91.6755 19.3019L91.6755 21.3969L90.5273 21.3969C88.9158 21.3969 87.9488 22.9682 87.9488 25.5869L87.9488 29.374L85.9747 29.374ZM97.8991 29.5956C94.7969 29.5956 92.8631 27.561 92.8631 24.338C92.8631 21.1149 94.676 19.0804 97.7782 19.0804C100.357 19.0804 102.472 20.4502 102.472 23.9552L102.472 24.6804L94.9379 24.6804C95.0386 26.5941 96.207 27.9236 97.8991 27.9236C99.5106 27.9236 100.437 27.0574 100.699 26.0301L102.673 26.0301C102.291 28.1654 100.578 29.5956 97.8991 29.5956ZM95.0185 23.2099L100.437 23.2099C100.377 21.3365 99.1279 20.7322 97.7581 20.7322C96.0861 20.7322 95.1998 21.7595 95.0185 23.2099ZM108.607 29.5956C106.089 29.5956 104.155 27.5409 104.155 24.338C104.155 21.1351 106.089 19.0804 108.607 19.0804C110.238 19.0804 111.528 19.8055 112.132 21.6991L113.059 21.6991L113.059 21.4977C112.494 20.4904 112.152 19.3624 112.152 18.194L112.152 15.2731L114.146 15.2731L114.146 29.374L112.152 29.374C112.212 28.8906 112.555 28.0042 113.059 27.2589L113.059 27.0574L112.132 27.0574C111.528 28.8704 110.279 29.5956 108.607 29.5956ZM106.189 24.338C106.189 26.5136 107.358 27.8834 109.171 27.8834C110.943 27.8834 112.092 26.5136 112.092 24.338C112.092 22.1624 110.943 20.7926 109.171 20.7926C107.358 20.7926 106.189 22.1624 106.189 24.338Z" fill="black"/>
</svg>
