<svg width="514" height="568" viewBox="0 0 514 568" fill="none" xmlns="http://www.w3.org/2000/svg">
<g clip-path="url(#clip0_197_26)">
<rect width="514" height="568" rx="26" fill="white"/>
<g filter="url(#filter0_f_197_26)">
<path fill-rule="evenodd" clip-rule="evenodd" d="M369.191 38.232C419.296 12.6574 465.387 -64.2673 516.375 -40.5024C567.927 -16.4745 520.237 77.9901 553.493 124.132C581.734 163.318 666.164 142.8 681.495 188.605C696.751 234.186 622.166 268.34 617.78 316.206C613.308 365.005 663.3 407.636 656.972 456.229C650.536 505.646 630.975 571.146 582.879 584.195C525.529 599.755 477.459 515.681 418.273 520.991C369.046 525.407 349.534 598.65 301.305 609.457C253.531 620.161 200.376 605.602 159.257 579.027C117.874 552.282 81.5887 509.868 72.3272 461.473C62.9071 412.249 106.633 367.457 109.189 317.405C111.281 276.45 82.0223 238.83 85.785 197.994C89.8128 154.281 93.9329 98.8204 131.433 76.0001C173.237 50.5607 228.186 89.6039 276.516 81.9266C310.619 76.5094 338.435 53.9303 369.191 38.232Z" fill="#AB49F1" fill-opacity="0.31"/>
</g>
<g filter="url(#filter1_f_197_26)">
<path fill-rule="evenodd" clip-rule="evenodd" d="M448.089 171.08C489.905 169.056 523.771 205.676 556.397 231.908C584.857 254.789 596.248 294.08 626.504 314.526C668.248 342.734 733.707 332.413 764.33 372.419C792.533 409.265 789.949 465.416 775.839 509.619C761.871 553.379 709.158 572.884 687.424 613.351C664.833 655.414 686.211 721.696 647.173 749.186C607.89 776.848 550.941 728.576 504.796 741.953C453.713 756.761 426.072 831.257 372.949 828.68C323.213 826.267 288.137 773.073 262.792 730.212C239.573 690.945 252.234 640.205 236.238 597.484C223.174 562.594 184.97 540.151 177.929 503.566C170.819 466.626 184.765 429.16 196.994 393.586C209.11 358.343 223.248 322.833 249.239 296.126C274.942 269.716 313.155 261.79 344.352 242.172C380.23 219.61 405.756 173.13 448.089 171.08Z" fill="#E0DAEE"/>
</g>
<g filter="url(#filter2_f_197_26)">
<path fill-rule="evenodd" clip-rule="evenodd" d="M45.3317 175.549C91.3481 183.897 133.116 208.276 169.304 237.902C201.776 264.485 216.651 305.658 243.577 337.846C269.536 368.878 319.221 385.273 325.958 425.166C332.986 466.781 290.884 500.645 277.851 540.786C267.456 572.798 269.298 607.174 256.725 638.395C243.138 672.131 229.792 708.412 201.26 730.964C172.591 753.624 131.048 748.406 97.949 763.892C55.1349 783.924 22.8123 848.987 -22.5443 835.679C-69.9017 821.783 -64.2187 747.27 -93.6706 707.668C-113.973 680.368 -145.6 665.029 -168.3 639.687C-194.573 610.356 -228.362 584.256 -238.338 546.162C-248.421 507.661 -226.848 468.663 -223.474 429.007C-219.247 379.314 -238.55 325.605 -215.8 281.224C-193.089 236.921 -146.576 207.645 -100.426 188.969C-54.6984 170.464 -3.20659 166.743 45.3317 175.549Z" fill="#8F19EB" fill-opacity="0.16"/>
</g>
<g filter="url(#filter3_f_197_26)">
<path fill-rule="evenodd" clip-rule="evenodd" d="M69.9839 -46.5812C99.1322 -32.4056 133.464 -28.1372 157.217 -6.08416C179.435 14.543 177.554 52.2794 199.262 73.4421C223.006 96.589 261.816 97.0825 286.15 119.608C316.652 147.844 350.396 179.16 357.673 220.082C364.838 260.369 337.446 298.048 324.804 336.965C309.759 383.281 323.142 462.377 275.577 472.819C214.057 486.324 173.141 372.317 111.221 383.852C51.6172 394.956 55.1725 501.848 -1.12067 524.365C-47.8534 543.059 -107.028 518.908 -145.612 486.587C-184.313 454.17 -186.513 396.074 -208.518 350.638C-229.089 308.163 -281.105 272.073 -271.924 225.781C-261.658 174.018 -203.049 147.351 -161.696 114.567C-133.884 92.5185 -82.6313 97.5312 -68.879 64.8121C-45.4745 9.12905 -112.582 -76.5854 -65.466 -114.381C-25.6465 -146.323 24.0768 -68.907 69.9839 -46.5812Z" fill="#FFE6B0" fill-opacity="0.67"/>
</g>
<g filter="url(#filter4_f_197_26)">
<path fill-rule="evenodd" clip-rule="evenodd" d="M258.579 -272.945C293.943 -288.736 327.38 -238.604 365.102 -229.832C412.2 -218.879 495.521 -261.753 507.812 -214.987C524.696 -150.742 429.912 -105.939 414.655 -41.2887C408.523 -15.3057 435.585 7.14821 450.101 29.5531C484.839 83.1668 574.689 121.424 560.428 183.696C548.704 234.889 455.748 193.464 407.704 214.676C371.556 230.637 353.18 271.935 318.341 290.582C278.411 311.955 234.103 342.242 190.206 331.094C145.88 319.838 122.466 270.862 95.433 233.975C72.9017 203.231 56.4615 169.116 44.8829 132.801C34.6036 100.561 44.0002 64.7211 31.4493 33.2957C13.5382 -11.5506 -64.0114 -44.9948 -43.6071 -88.763C-21.5377 -136.103 55.9783 -114.082 106.44 -127.563C133.832 -134.881 166.89 -130.887 187.388 -150.475C221.904 -183.457 214.987 -253.479 258.579 -272.945Z" fill="#D1DDF8"/>
</g>
<path d="M0 482C36.8099 445.333 144.161 370 279.086 362C414.011 354 491.914 240 514 184" stroke="#A7A2AF" stroke-opacity="0.6" stroke-width="0.5"/>
<path d="M0 508C36.8099 472.318 144.161 399.007 279.086 391.221C414.011 383.436 491.914 272.497 514 218" stroke="#A7A2AF" stroke-opacity="0.6" stroke-width="0.5"/>
<path d="M0 532C36.8099 496.318 144.161 423.007 279.086 415.221C414.011 407.436 491.914 296.497 514 242" stroke="#A7A2AF" stroke-opacity="0.6" stroke-width="0.5"/>
<path d="M5 554C41.8099 518.318 149.161 445.007 284.086 437.221C419.011 429.436 496.914 318.497 519 264" stroke="#A7A2AF" stroke-opacity="0.6" stroke-width="0.5"/>
<path d="M25 570C61.8099 534.318 169.161 461.007 304.086 453.221C439.011 445.436 516.914 334.497 539 280" stroke="#A7A2AF" stroke-opacity="0.6" stroke-width="0.5"/>
<path fill-rule="evenodd" clip-rule="evenodd" d="M434.777 529.753C434.403 529.357 434.201 529.033 433.922 528.87C426.189 524.451 419.662 518.528 413.399 512.293C406.786 505.722 400.777 498.622 395.464 490.96C392.217 486.283 389.49 481.298 387.575 475.908C386.876 473.936 386.463 471.998 387.238 469.907C388.15 467.457 389.655 465.662 392.282 465.236C394.168 464.93 396.154 464.705 398.03 464.958C400.642 465.314 403.276 465.911 405.756 466.821C417.691 471.224 429.149 476.63 439.759 483.708C443.578 486.255 447.338 488.898 451.119 491.506C451.221 491.576 451.31 491.654 451.415 491.715C453.427 493.039 455.525 494.246 457.436 495.704C459.348 497.162 461.076 498.862 462.945 500.502C463.916 499.939 463.515 498.974 463.702 498.263C464.443 495.488 465.85 494.45 468.722 494.79C469.678 494.906 470.635 495.125 471.543 495.442C479.722 498.306 487.248 502.316 493.728 508.155C494.44 508.792 495.142 509.498 495.619 510.311C496.116 511.161 496.129 512.197 495.456 513.031C494.866 513.757 493.999 513.891 493.136 513.7C492.311 513.52 491.527 513.198 490.726 512.933C488.545 512.223 486.382 511.447 484.173 510.831C482.218 510.289 480.425 510.622 478.856 512.532C479.792 513.031 480.527 513.379 481.231 513.799C482.814 514.742 483.812 515.974 483.204 517.981C483.11 518.301 483.22 518.691 483.235 519.165C483.892 519.398 484.547 519.671 485.221 519.879C486.483 520.279 487.814 520.546 489.023 521.053C492.076 522.345 494.329 524.383 494.953 527.833C495.081 528.545 495.207 529.266 495.425 529.952C495.923 531.528 496.804 532.776 498.551 533.155C498.664 533.188 498.798 533.186 498.91 533.219C499.846 533.513 500.847 533.755 500.832 535.027C500.82 536.219 499.851 536.599 498.992 537.021C498.16 537.421 497.299 537.782 496.088 538.326C497.226 539.077 498.013 539.563 498.774 540.102C500.156 541.069 501.542 542.056 502.9 543.066C504.594 544.328 505.074 546.072 504.821 548.367C502.8 547.561 500.946 546.814 498.635 545.882C498.826 546.765 498.785 547.253 499.006 547.543C500.457 549.458 501.96 551.338 503.551 553.366C502.945 554.843 501.729 555.508 500.187 555.23C498.536 554.941 496.934 554.38 495.332 553.85C493.555 553.259 491.895 552.303 489.626 551.996C490.076 553.18 490.47 554.03 490.689 554.921C490.824 555.472 490.809 556.151 490.598 556.661C490.462 556.989 489.863 557.222 489.443 557.293C489.154 557.341 488.777 557.058 488.49 556.851C484.995 554.245 481.093 554.216 477.065 555.069C476 555.288 474.965 555.649 473.925 555.957C471.519 556.642 469.581 555.799 468.199 553.893C467.287 552.646 466.646 551.172 466.057 549.733C465.287 547.863 464.691 545.922 463.957 543.859C462.692 544.551 461.637 545.121 460.596 545.714C458.868 546.699 457.198 546.925 455.584 545.462C455.35 545.251 454.982 545.184 454.392 544.93C454.356 545.787 454.165 546.507 454.34 547.13C454.94 549.338 455.635 551.533 456.345 553.711C456.79 555.087 457.324 556.438 457.812 557.806C458.148 558.752 458.338 559.707 457.577 560.526C456.685 561.48 455.544 561.299 454.541 560.852C453.113 560.219 451.682 559.525 450.424 558.626C447.061 556.232 444.119 553.339 441.508 550.154C439.137 547.265 436.929 544.239 434.757 541.194C433.995 540.133 433.409 538.89 432.942 537.66C432.076 535.385 432.093 533.164 433.832 531.202C434.213 530.772 434.479 530.248 434.817 529.754L434.777 529.753ZM462.485 518.993C463.39 517.818 464.188 516.908 464.83 515.901C465.413 514.989 465.778 513.952 466.329 513.011C467.21 511.502 467.176 510.012 466.319 508.546C464.236 504.985 461.923 501.622 458.331 499.345C456.394 498.115 454.542 496.766 452.681 495.414C446.141 490.651 439.53 485.99 432.526 481.907C428.878 479.788 425.069 477.938 421.381 475.888C419.344 474.751 417.432 474.936 415.595 476.186C414.204 477.136 412.805 478.116 411.591 479.261C407.682 482.988 404.857 487.44 402.985 492.509C402.613 493.502 402.341 494.536 402.039 495.499C410.827 506.813 420.72 516.621 432.207 524.824C435.468 527.147 438.991 528.995 442.607 530.666C443.812 531.223 445.091 531.598 446.345 532.026C447.56 532.443 448.762 532.315 449.852 531.694C452.148 530.375 454.135 528.68 456.056 526.546C455.016 525.425 454.104 524.494 453.246 523.518C451.663 521.707 450.073 519.883 448.543 518.026C448.017 517.382 447.62 516.612 447.235 515.867C446.898 515.206 446.746 514.468 447.218 513.799C447.78 512.993 448.612 512.941 449.488 513.126C450.072 513.256 450.672 513.37 451.232 513.585C452.921 514.233 454.637 514.827 456.263 515.619C458.309 516.617 460.278 517.775 462.478 518.981L462.485 518.993ZM487.469 553.295C487.394 552.364 487.285 551.76 487.316 551.167C487.373 549.785 488.163 549.25 489.505 549.653C489.966 549.788 490.394 550.036 490.846 550.199C493.22 551.088 495.584 552.014 497.98 552.828C498.574 553.033 499.285 553.568 500.039 552.736C498.625 549.892 495.592 547.8 495.425 544.044C497.131 543.869 498.492 544.451 499.887 544.605C500.432 544.662 501.053 544.946 501.419 543.94C500.034 543.055 498.624 542.152 497.204 541.246C496.188 540.601 495.092 540.056 494.188 539.271C493.749 538.887 493.676 538.089 493.369 537.325C494.773 536.715 495.963 536.206 497.297 535.626C496.905 535.185 496.732 534.869 496.466 534.699C494.481 533.454 493.492 531.602 493.077 529.357C492.948 528.645 492.801 527.928 492.595 527.235C492.08 525.542 491.057 524.222 489.524 523.354C487.298 522.1 484.867 521.542 482.426 521.195C480.978 524.12 480.972 524.313 482.737 526.065C484.027 527.341 485.465 528.466 486.701 529.788C487.692 530.834 488.542 532.012 489.319 533.23C490.069 534.399 490.335 535.794 489.587 537.025C488.38 539.02 488.62 540.919 489.534 542.891C489.904 543.684 490 544.508 489.425 545.218C486.28 545.635 483.15 545.863 480.113 546.505C477.411 547.083 475.344 546.263 473.584 544.39C472.764 543.527 472.148 542.458 471.418 541.499C470.932 540.857 470.398 540.241 469.738 539.425C468.293 540.452 467.04 541.351 465.728 542.274C466.171 545.437 467.487 548.16 468.808 550.834C470.333 553.926 471.529 554.306 474.954 553.348C475.301 553.246 475.641 553.131 475.997 553.031C478.843 552.24 481.715 552.09 484.608 552.672C485.427 552.84 486.246 553.008 487.452 553.249L487.469 553.295ZM455.342 558.534C455.055 557.387 454.937 556.71 454.717 556.063C454.136 554.351 453.466 552.664 452.918 550.942C452.03 548.149 451.312 545.335 452.719 542.551C450.979 540.02 449.377 537.61 447.693 535.269C447.301 534.726 446.664 534.284 446.052 534.003C443.863 533.005 441.63 532.086 439.415 531.141C437.799 530.453 437.104 530.628 435.895 531.898C434.507 533.36 434.09 534.994 434.857 536.873C435.171 537.649 435.523 538.436 435.971 539.139C439.969 545.364 444.683 550.992 450.379 555.743C451.669 556.815 453.025 557.835 455.342 558.534ZM409.024 470.831C405.077 468.409 398.612 466.67 394.612 466.939C394.009 466.977 393.41 467.067 392.825 467.182C391.159 467.501 390.018 468.505 389.314 470.004C388.567 471.613 388.407 473.241 389.258 474.868C391.21 478.595 393.162 482.322 395.163 486.022C395.413 486.493 395.704 487.14 396.73 486.981C397.622 485.19 398.511 483.234 399.54 481.36C401.702 477.429 404.119 473.705 408.317 471.574C408.594 471.43 408.776 471.085 409.015 470.828L409.024 470.831ZM476.517 511.592C476.99 511.302 477.558 511.07 477.975 510.691C480.138 508.71 482.647 508.301 485.384 509.031C487.242 509.524 489.064 510.169 490.905 510.718C491.384 510.859 491.9 510.877 493.194 511.062C491.34 509.406 490.175 508.187 488.84 507.204C483.675 503.394 478.149 500.225 472.138 497.944C470.905 497.481 469.625 497.076 468.332 496.82C466.798 496.514 465.686 497.312 465.418 498.785C464.597 503.334 467.068 507.417 470.441 508.976C472.4 509.887 474.412 510.69 476.526 511.595L476.517 511.592ZM450.126 516.039C450.607 516.905 450.845 517.628 451.31 518.132C453.448 520.422 455.506 522.811 457.858 524.858C462.216 528.666 466.742 532.288 471.243 535.924C472.828 537.205 474.528 538.376 476.258 539.475C478.265 540.747 478.421 540.67 480.489 538.661C480.285 537.406 479.372 536.547 478.541 535.722C476.215 533.448 473.912 531.13 471.404 529.058C468.157 526.371 464.71 523.913 461.359 521.339C458.559 519.181 455.359 517.765 452.137 516.423C451.611 516.198 450.988 516.199 450.126 516.039ZM487.44 543.208C487.44 543.208 487.512 542.82 487.399 542.511C486.652 540.598 486.639 538.756 487.701 536.943C488.48 535.608 488.058 534.362 487.254 533.238C485.273 530.483 482.597 528.495 479.907 526.523C478.809 527.971 478.051 529.526 477.633 531.187C478.659 532.284 479.779 533.378 480.788 534.572C481.563 535.483 482.311 536.448 482.884 537.493C483.535 538.685 483.179 539.867 482.077 540.668C480.102 542.111 478.018 542.706 475.669 541.488C475.138 541.21 474.649 540.403 473.698 541.105C473.906 541.513 474.047 541.973 474.326 542.31C475.996 544.279 477.894 545.366 480.653 544.519C482.815 543.866 485.108 543.638 487.43 543.205L487.44 543.208ZM400.592 493.115C403.772 485.111 408.016 478.113 416.059 473.799C413.851 472.132 411.951 471.3 409.554 472.651C406.953 474.105 404.954 476.155 403.336 478.612C401.073 482.054 399.28 485.736 397.765 489.551C398.408 490.913 399.074 492.16 400.592 493.115ZM470.206 524.745C471.902 524.496 472.441 523.143 473.144 522.103C474.749 519.724 476.082 517.193 476.821 514.285C474.834 512.876 472.659 512.178 470.637 511.168C470.245 510.971 469.79 510.92 469.056 510.705C469.211 514.784 466.107 517.224 464.756 520.546C466.672 522.026 468.475 523.401 470.208 524.736L470.206 524.745ZM449.83 534.353C450.78 536.653 452.487 538.46 453.932 540.363C456.89 539.187 461.645 535.606 463.823 532.945C462.035 531.064 460.12 529.339 457.845 528.285C455.103 530.362 452.533 532.305 449.832 534.344L449.83 534.353ZM468.896 537.136C467.855 535.739 466.877 534.932 465.494 534.456C463.957 535.803 462.472 537.175 460.91 538.464C459.282 539.805 457.57 541.05 455.894 542.347C457.761 544.548 458.095 544.768 459.438 544.017C462.755 542.139 465.852 539.931 468.915 537.142L468.896 537.136ZM478.909 515.07C477.925 517.314 477.218 519.241 476.236 521.027C475.208 522.901 473.916 524.626 472.607 526.622C473.717 527.366 474.095 528.865 475.7 528.825C478.14 524.883 480.445 520.952 481.197 516.148C480.497 515.821 479.878 515.527 478.9 515.067L478.909 515.07Z" fill="#A6A6A6" fill-opacity="0.51"/>
<path fill-rule="evenodd" clip-rule="evenodd" d="M435.388 486.779C444.684 493.778 441.34 506.319 432.739 509.887C431.078 510.575 429.328 511.146 427.568 511.508C422.046 512.649 417.617 510.689 414.035 506.495C410.978 502.915 409.838 498.681 409.754 494.082C409.747 493.722 409.777 493.343 409.885 493.007C411.722 487.326 415.043 483.305 421.104 482.587C425.729 482.032 431.354 483.678 435.382 486.766L435.388 486.779ZM433.838 488.377C431.081 486.284 426.812 484.82 423.432 484.576C416.582 484.082 411.242 489.942 412.173 496.495C412.603 499.561 413.656 502.31 415.603 504.729C418.795 508.685 422.837 510.226 427.807 509.016C429.205 508.669 430.57 508.16 431.905 507.611C438.53 504.894 442.135 494.604 433.835 488.387L433.838 488.377Z" fill="#A6A6A6" fill-opacity="0.51"/>
<path fill-rule="evenodd" clip-rule="evenodd" d="M431.415 489.608C433.709 491.434 435.153 493.164 435.855 495.442C436.835 498.649 435.787 502.162 433.07 504.154C429.854 506.521 426.255 507.132 422.462 505.787C420.114 504.946 418.362 503.361 417.323 501.015C416.274 498.635 415.912 496.14 416.051 493.607C416.18 491.072 417.789 489.449 419.964 488.401C422.578 487.144 425.332 487.052 428.046 488C429.398 488.477 430.645 489.24 431.412 489.618L431.415 489.608ZM430.662 491.482C427.527 489.216 424.189 488.341 420.477 490.032C419.019 490.687 418.245 491.798 418.171 493.411C418.059 495.747 418.461 497.968 419.396 500.11C420.172 501.89 421.51 503.037 423.309 503.625C426.247 504.577 429.046 504.191 431.596 502.456C433.967 500.843 434.763 498.124 433.733 495.434C433.105 493.81 432.092 492.492 430.665 491.472L430.662 491.482Z" fill="#A6A6A6" fill-opacity="0.51"/>
<path fill-rule="evenodd" clip-rule="evenodd" d="M426.649 497.414C425.298 496.936 424.731 496.117 424.784 494.958C424.805 494.607 425.217 494.074 425.539 493.984C425.849 493.902 426.468 494.195 426.634 494.499C427.087 495.326 427.297 496.245 426.649 497.414Z" fill="#A6A6A6" fill-opacity="0.51"/>
<path fill-rule="evenodd" clip-rule="evenodd" d="M428.536 495.536C429.91 496.112 429.929 497.057 429.899 497.997C429.893 498.159 429.647 498.404 429.469 498.454C429.282 498.501 428.975 498.432 428.84 498.3C428.068 497.554 427.986 496.682 428.543 495.548L428.536 495.536Z" fill="#A6A6A6" fill-opacity="0.51"/>
</g>
<defs>
<filter id="filter0_f_197_26" x="-183.2" y="-299.2" width="1120.95" height="1166.4" filterUnits="userSpaceOnUse" color-interpolation-filters="sRGB">
<feFlood flood-opacity="0" result="BackgroundImageFix"/>
<feBlend mode="normal" in="SourceGraphic" in2="BackgroundImageFix" result="shape"/>
<feGaussianBlur stdDeviation="127.1" result="effect1_foregroundBlur_197_26"/>
</filter>
<filter id="filter1_f_197_26" x="-78.2" y="-83.2" width="1118.53" height="1166.14" filterUnits="userSpaceOnUse" color-interpolation-filters="sRGB">
<feFlood flood-opacity="0" result="BackgroundImageFix"/>
<feBlend mode="normal" in="SourceGraphic" in2="BackgroundImageFix" result="shape"/>
<feGaussianBlur stdDeviation="127.1" result="effect1_foregroundBlur_197_26"/>
</filter>
<filter id="filter2_f_197_26" x="-495.2" y="-83.2" width="1076.14" height="1174.86" filterUnits="userSpaceOnUse" color-interpolation-filters="sRGB">
<feFlood flood-opacity="0" result="BackgroundImageFix"/>
<feBlend mode="normal" in="SourceGraphic" in2="BackgroundImageFix" result="shape"/>
<feGaussianBlur stdDeviation="127.1" result="effect1_foregroundBlur_197_26"/>
</filter>
<filter id="filter3_f_197_26" x="-527.2" y="-376.2" width="1140.25" height="1161.3" filterUnits="userSpaceOnUse" color-interpolation-filters="sRGB">
<feFlood flood-opacity="0" result="BackgroundImageFix"/>
<feBlend mode="normal" in="SourceGraphic" in2="BackgroundImageFix" result="shape"/>
<feGaussianBlur stdDeviation="127.1" result="effect1_foregroundBlur_197_26"/>
</filter>
<filter id="filter4_f_197_26" x="-301.2" y="-530.2" width="1117.35" height="1117.88" filterUnits="userSpaceOnUse" color-interpolation-filters="sRGB">
<feFlood flood-opacity="0" result="BackgroundImageFix"/>
<feBlend mode="normal" in="SourceGraphic" in2="BackgroundImageFix" result="shape"/>
<feGaussianBlur stdDeviation="127.1" result="effect1_foregroundBlur_197_26"/>
</filter>
<clipPath id="clip0_197_26">
<rect width="514" height="568" rx="26" fill="white"/>
</clipPath>
</defs>
</svg>
