<svg width="305" height="1365" viewBox="0 0 305 1365" fill="none" xmlns="http://www.w3.org/2000/svg">
<path d="M58.3743 1309.01C58.2341 1308.99 58.2808 1307.59 58.4989 1305.1C58.717 1302.59 59.0753 1298.98 59.5427 1294.52C60.493 1285.59 61.8483 1273.27 63.8891 1259.7C65.9455 1246.13 68.5471 1233.97 70.9618 1225.29C72.1614 1220.96 73.2519 1217.48 74.1243 1215.12C74.9811 1212.75 75.5108 1211.46 75.651 1211.5C75.9626 1211.6 74.4047 1216.92 72.3795 1225.65C70.3231 1234.36 67.9707 1246.49 65.9299 1260.01C63.8891 1273.52 62.3157 1285.81 60.9915 1294.69C60.3372 1299.13 59.7608 1302.72 59.2934 1305.19C58.8416 1307.67 58.5145 1309.03 58.3743 1308.99V1309.01Z" fill="#C6C6C6"/>
<path d="M197.008 1324.65C197.008 1324.65 196.557 1324.87 195.638 1325.1C194.703 1325.27 193.316 1325.43 191.54 1325.48C187.973 1325.57 182.832 1325.23 176.523 1324.56C173.376 1324.2 169.933 1323.81 166.225 1323.4C162.517 1322.97 158.623 1322.59 154.448 1322.39C146.082 1321.83 136.89 1321.21 127.232 1320.55C124.817 1320.38 122.433 1320.2 120.097 1320.02C117.76 1319.81 115.454 1319.59 113.18 1319.37C108.646 1318.95 104.253 1318.5 100.078 1317.91C95.9029 1317.33 91.9615 1316.57 88.3161 1315.68C84.6862 1314.76 81.3524 1313.82 78.299 1313C72.2077 1311.33 67.207 1310.38 63.7018 1310.15C60.1966 1309.87 58.2492 1310.13 58.2336 1309.94C58.2336 1309.87 58.701 1309.76 59.6357 1309.59C60.5704 1309.45 61.9569 1309.32 63.7485 1309.34C67.3316 1309.34 72.4881 1310.08 78.6573 1311.58C81.7263 1312.33 85.0913 1313.14 88.7211 1314.01C92.3198 1314.82 96.2145 1315.49 100.343 1316.02C104.471 1316.57 108.833 1316.95 113.367 1317.36C115.641 1317.56 117.947 1317.76 120.299 1317.98C122.636 1318.15 125.019 1318.33 127.434 1318.5C137.062 1319.21 146.222 1319.88 154.557 1320.49C158.747 1320.74 162.767 1321.19 166.443 1321.69C170.135 1322.19 173.563 1322.67 176.709 1323.09C182.972 1323.93 188.051 1324.51 191.572 1324.65C193.332 1324.73 194.687 1324.7 195.606 1324.65C196.526 1324.56 197.024 1324.54 197.04 1324.62L197.008 1324.65Z" fill="#C6C6C6"/>
<path d="M197.508 1325.68C197.508 1325.68 197.897 1324.92 198.723 1323.58C199.408 1322.16 200.468 1320.07 201.215 1317.14C202.01 1314.24 202.633 1310.61 203.038 1306.35C203.474 1302.08 203.614 1297.2 203.817 1291.78C203.895 1289.07 204.222 1286.16 204.612 1283.26C204.97 1280.33 205.313 1277.28 205.64 1274.11C206.294 1267.79 206.902 1261.01 207.556 1253.86C207.899 1250.29 208.241 1246.63 208.6 1242.89C208.974 1239.17 209.363 1235.38 209.114 1231.61C209.051 1229.71 208.646 1227.89 208.023 1226.18C207.353 1224.48 206.185 1223.08 204.674 1222.05C203.942 1221.49 203.054 1221.13 202.212 1220.73C201.293 1220.43 200.405 1220.04 199.424 1219.84C197.523 1219.31 195.514 1219 193.488 1218.7C189.453 1218.12 185.356 1217.8 181.353 1217.33C177.349 1216.88 173.407 1216.44 169.528 1216.02C161.786 1215.16 154.308 1214.35 147.189 1213.78C132.918 1212.67 120.05 1211.52 109.254 1210.58C106.544 1210.33 104.02 1210.15 101.512 1209.87C99.066 1209.52 96.8071 1209.1 94.6884 1208.79C90.451 1208.12 86.7744 1207.75 83.7989 1207.87C80.8234 1207.97 78.5489 1208.65 77.3182 1209.6C76.0563 1210.52 75.7759 1211.38 75.6668 1211.32C75.6357 1211.32 75.698 1211.1 75.8849 1210.72C76.0719 1210.35 76.4302 1209.82 77.0689 1209.29C78.3152 1208.17 80.6987 1207.31 83.7677 1207.09C86.8367 1206.84 90.5912 1207.11 94.8753 1207.67C97.0096 1207.95 99.2997 1208.31 101.699 1208.59C104.051 1208.81 106.684 1208.95 109.379 1209.15C120.191 1209.93 133.074 1210.86 147.36 1211.91C154.526 1212.44 162.019 1213.22 169.778 1214.04C173.657 1214.46 177.598 1214.88 181.602 1215.32C185.606 1215.79 189.656 1216.1 193.8 1216.69C195.872 1217 197.928 1217.31 199.969 1217.89C200.997 1218.11 201.994 1218.53 202.991 1218.86C203.957 1219.32 204.954 1219.73 205.842 1220.4C207.649 1221.63 209.129 1223.44 209.908 1225.45C210.64 1227.46 211.061 1229.51 211.123 1231.52C211.373 1235.54 210.936 1239.4 210.547 1243.14C210.173 1246.87 209.799 1250.53 209.425 1254.08C208.724 1261.21 208.054 1267.99 207.307 1274.33C206.933 1277.49 206.559 1280.56 206.154 1283.49C205.718 1286.45 205.359 1289.18 205.235 1291.89C204.923 1297.28 204.689 1302.22 204.144 1306.5C203.63 1310.8 202.867 1314.48 201.932 1317.39C201.06 1320.34 199.86 1322.42 199.034 1323.81C198.068 1325.12 197.523 1325.74 197.476 1325.71L197.508 1325.68Z" fill="#C6C6C6"/>
<path d="M0.795431 1339.2C0.639644 1339.17 0.717538 1338.2 0.405964 1336.47C0.281335 1335.6 0.000918755 1334.54 0.000918755 1333.16C-0.0302386 1331.75 0.733116 1330.09 1.97941 1328.92C3.35033 1327.66 5.03283 1327 6.82438 1326.3C8.61593 1325.63 10.5633 1325.04 12.6041 1324.46C14.6449 1323.89 16.8103 1323.34 18.929 1322.66C19.8793 1322.34 21.0477 1321.8 22.1382 1321.38C23.2755 1320.97 24.4127 1320.54 25.5811 1320.16C30.2703 1318.62 34.7881 1317.5 38.8697 1316.42C42.9513 1315.35 46.5967 1314.35 49.6034 1313.34C55.6479 1311.39 59.0285 1309.35 59.1999 1309.62C59.3557 1309.8 56.1465 1312.36 50.1019 1314.7C47.0953 1315.9 43.4498 1317.06 39.3682 1318.23C35.3022 1319.42 30.8155 1320.6 26.2198 1322.1C17.3867 1326.11 7.74352 1326.6 2.94529 1329.96C1.82362 1330.94 1.23163 1332.05 1.12258 1333.22C1.01353 1334.37 1.15374 1335.48 1.16932 1336.4C1.23163 1338.24 0.873325 1339.23 0.764274 1339.2H0.795431Z" fill="#C6C6C6"/>
<path d="M149.353 1354.47C149.182 1354.27 151.503 1352.05 156.021 1349.73C158.249 1348.55 160.991 1347.33 163.951 1345.93C166.926 1344.56 169.964 1342.77 173.08 1340.6C179.264 1336.27 184.733 1331.94 189.141 1329.43C193.503 1326.85 196.557 1325.96 196.65 1326.19C196.775 1326.49 193.986 1327.81 189.936 1330.65C185.823 1333.42 180.573 1337.86 174.264 1342.29C171.117 1344.48 167.83 1346.35 164.761 1347.64C161.707 1348.92 158.965 1350.07 156.66 1351.04C152.095 1352.97 149.556 1354.7 149.369 1354.47H149.353Z" fill="#C6C6C6"/>
<path d="M149.104 1353.95C149.089 1354.11 147.048 1353.95 143.387 1353.63C139.726 1353.3 134.429 1352.88 127.886 1352.38C121.343 1351.88 113.523 1351.35 104.861 1350.64C96.1993 1349.87 86.6496 1349.03 76.7104 1347.26C56.9566 1343.61 39.2281 1339.79 26.2822 1337.61C19.8171 1336.49 14.5671 1335.66 10.9372 1335.12C7.30739 1334.57 5.29774 1334.25 5.31332 1334.09C5.31332 1333.95 7.36971 1334.01 11.0307 1334.32C14.7073 1334.64 20.004 1335.23 26.5159 1336.18C39.5553 1338.02 57.3928 1341.62 77.0687 1345.25C86.8833 1346.99 96.3863 1347.89 105.032 1348.77C113.679 1349.59 121.468 1350.32 128.011 1350.95C134.554 1351.62 139.835 1352.27 143.481 1352.83C147.126 1353.39 149.12 1353.81 149.089 1353.94L149.104 1353.95Z" fill="#C6C6C6"/>
<path d="M148.715 1363.75C148.715 1363.75 148.263 1364.1 147.25 1364.25C146.253 1364.44 144.758 1364.53 142.857 1364.45C139.04 1364.33 133.603 1363.52 126.951 1362.58C113.6 1361.21 94.9214 1360.2 74.4666 1357.4C64.2626 1355.98 54.5103 1354.14 45.8797 1351.98C37.2024 1350.03 29.2884 1348.31 22.7765 1346.73C19.5362 1346.12 16.4672 1345.85 13.8032 1345.43C11.1393 1345.04 8.83363 1344.53 7.0265 1343.91C5.2038 1343.27 3.87961 1342.53 3.0851 1341.9C2.29058 1341.26 1.97901 1340.82 2.01017 1340.79C2.1348 1340.63 3.63035 1342.21 7.2446 1343.16C9.03615 1343.66 11.2795 1344.03 13.9434 1344.31C16.5918 1344.61 19.6297 1344.76 23.0414 1345.31C29.6623 1346.68 37.5295 1348.31 46.2848 1350.14C54.9932 1352.21 64.5586 1353.95 74.747 1355.37C95.1239 1358.16 113.694 1359.39 127.169 1361.15C133.837 1362.27 139.196 1363.29 142.919 1363.66C144.789 1363.85 146.238 1363.89 147.203 1363.83C148.185 1363.8 148.683 1363.64 148.715 1363.74V1363.75Z" fill="#C6C6C6"/>
<path d="M199.72 1328.05C199.72 1328.05 199.767 1328.3 199.657 1328.73C199.564 1329.17 199.33 1329.78 198.956 1330.52C198.193 1332 196.713 1333.97 194.532 1335.96C192.367 1337.97 189.563 1340.06 186.462 1342.29C184.92 1343.41 183.3 1344.58 181.742 1345.88C180.106 1347.22 178.377 1348.53 176.585 1349.86C169.388 1355.09 162.409 1359.19 157.05 1361.57C151.706 1364.02 148.045 1364.56 147.999 1364.3C147.921 1364 151.348 1362.99 156.411 1360.26C161.49 1357.6 168.251 1353.36 175.37 1348.19C177.131 1346.88 178.86 1345.6 180.465 1344.31C182.116 1342.97 183.798 1341.8 185.372 1340.73C188.55 1338.56 191.385 1336.66 193.582 1334.85C195.81 1333.08 197.352 1331.38 198.287 1330.1C198.738 1329.46 199.081 1328.95 199.284 1328.58C199.502 1328.22 199.657 1328.03 199.735 1328.06L199.72 1328.05Z" fill="#C6C6C6"/>
<path d="M74.249 1304.52C74.249 1304.52 73.9219 1304.59 73.2832 1304.6C72.6756 1304.6 71.5851 1304.48 70.7438 1303.48C69.9026 1302.5 69.6533 1300.89 69.7468 1299.2C69.8247 1297.47 70.2142 1295.55 70.6815 1293.48C71.2112 1291.41 71.5383 1289.16 71.9122 1286.65C72.3017 1284.18 72.7067 1281.53 73.143 1278.74C74.0309 1273.18 75.0124 1267.06 76.0406 1260.64C77.022 1254.24 77.6919 1248.07 78.5643 1242.49C78.985 1239.7 79.4523 1237.04 79.9508 1234.61C80.3247 1232.19 80.574 1229.81 81.0725 1227.72C81.9605 1223.53 83.5339 1220.2 85.528 1218.67C86.5562 1217.97 87.5065 1217.69 88.1452 1217.69C88.7839 1217.69 89.1111 1217.7 89.1111 1217.73C89.1578 1217.91 87.6467 1217.55 85.7773 1218.98C84.0013 1220.51 82.568 1223.73 81.7891 1227.88C81.3529 1229.96 81.166 1232.24 80.8077 1234.76C80.3403 1237.24 79.9041 1239.86 79.5146 1242.64C78.7045 1248.21 78.0658 1254.38 77.0688 1260.81C76.0094 1267.23 75.0124 1273.33 74.0932 1278.9C73.6259 1281.67 73.1897 1284.32 72.7691 1286.78C72.551 1288.01 72.3484 1289.21 72.1615 1290.36C71.9434 1291.53 71.663 1292.61 71.4137 1293.65C70.8996 1295.71 70.479 1297.57 70.3544 1299.24C70.2142 1300.88 70.4011 1302.36 71.0866 1303.25C71.772 1304.13 72.7379 1304.34 73.3299 1304.41C73.9375 1304.46 74.2802 1304.49 74.2802 1304.54L74.249 1304.52Z" fill="#C6C6C6"/>
<path d="M186.649 1316.86C186.665 1316.77 187.366 1316.99 188.643 1316.94C189.282 1316.89 190.061 1316.74 190.809 1316.22C191.557 1315.72 192.195 1314.84 192.663 1313.73C193.597 1311.49 193.893 1308.4 194.002 1304.87C194.065 1303.09 194.049 1301.17 194.174 1299.12C194.252 1297.09 194.33 1294.96 194.407 1292.71C194.563 1288.21 194.688 1283.27 195.093 1277.96C195.436 1272.63 196.402 1267.03 197.04 1261.14C197.679 1255.26 198.209 1249.02 197.554 1242.71C197.196 1239.59 196.542 1236.38 194.953 1233.7C194.158 1232.38 193.13 1231.21 191.853 1230.42C190.544 1229.57 189.126 1229.18 187.428 1228.98C180.776 1228.02 174.062 1228.7 167.503 1228.45C160.882 1228.27 154.682 1226.82 148.902 1225.46C143.107 1224.07 137.639 1222.74 132.435 1222.19C127.217 1221.6 122.294 1221.44 117.776 1221.15C113.274 1220.87 109.177 1220.46 105.625 1219.85C102.088 1219.26 99.066 1218.68 96.5734 1218.34C91.6038 1217.61 88.8152 1217.7 88.8152 1217.53C88.8152 1217.47 89.5006 1217.36 90.8404 1217.31C92.1802 1217.27 94.1431 1217.31 96.6668 1217.55C99.1906 1217.78 102.244 1218.25 105.78 1218.73C109.317 1219.21 113.352 1219.53 117.838 1219.7C122.325 1219.9 127.279 1219.98 132.591 1220.49C137.935 1220.99 143.527 1222.28 149.307 1223.62C155.102 1224.93 161.178 1226.3 167.55 1226.46C173.937 1226.68 180.698 1225.96 187.709 1226.96C189.407 1227.16 191.385 1227.66 192.927 1228.69C194.517 1229.68 195.778 1231.12 196.698 1232.66C198.536 1235.77 199.175 1239.22 199.548 1242.49C200.203 1249.09 199.595 1255.42 198.91 1261.35C198.209 1267.31 197.196 1272.87 196.775 1278.1C196.308 1283.35 196.09 1288.27 195.841 1292.78C195.7 1295.04 195.576 1297.19 195.451 1299.21C195.28 1301.2 195.249 1303.12 195.124 1304.91C194.906 1308.5 194.501 1311.66 193.379 1314.06C192.818 1315.24 192.039 1316.21 191.136 1316.74C190.232 1317.28 189.329 1317.38 188.643 1317.34C187.958 1317.33 187.444 1317.19 187.117 1317.08C186.789 1316.97 186.634 1316.89 186.634 1316.86H186.649Z" fill="#C6C6C6"/>
<path d="M183.564 1316.11C183.533 1316.21 182.131 1315.68 179.467 1315.41C176.818 1315.09 172.924 1315.51 168.094 1315.54C163.281 1315.65 157.516 1315.46 151.176 1314.96C144.82 1314.48 137.856 1313.68 130.565 1312.86C126.92 1312.47 123.352 1312.08 119.91 1311.7C116.451 1311.28 113.148 1310.74 110.017 1310.19C103.739 1309.09 98.1306 1308.09 93.3323 1307.67C88.5497 1307.19 84.655 1306.72 82.0222 1306.16C80.698 1305.89 79.6854 1305.61 78.9999 1305.41C78.3145 1305.19 77.9717 1305.07 77.9873 1305.04C78.0185 1304.96 79.4517 1305.35 82.1001 1305.77C84.7485 1306.21 88.612 1306.56 93.4102 1306.95C98.224 1307.3 103.91 1308.22 110.173 1309.27C113.304 1309.79 116.607 1310.32 120.019 1310.72C123.461 1311.08 127.029 1311.47 130.674 1311.84C137.981 1312.66 144.913 1313.5 151.238 1314.03C157.563 1314.57 163.281 1314.84 168.079 1314.82C172.861 1314.88 176.787 1314.57 179.498 1315.02C180.838 1315.21 181.866 1315.49 182.536 1315.71C183.206 1315.94 183.548 1316.08 183.548 1316.11H183.564Z" fill="#C6C6C6"/>
<path d="M201.433 1327.17C201.293 1327.1 202.025 1325.74 202.96 1323.16C203.926 1320.57 204.86 1316.71 205.889 1311.85C208.101 1302.19 210.313 1288.7 211.949 1273.65C212.759 1266.12 213.616 1258.96 213.958 1252.44C214.363 1245.88 214.27 1240.09 214.27 1235.01C214.441 1232.52 214.675 1230.29 214.348 1228.48C214.254 1228.05 214.145 1227.63 213.943 1227.33C213.694 1226.96 213.46 1226.58 213.226 1226.24C212.774 1225.54 212.323 1224.95 211.886 1224.43C210.095 1222.39 208.584 1221.86 208.677 1221.69C208.693 1221.64 209.098 1221.69 209.783 1222C210.469 1222.31 211.435 1222.88 212.478 1223.87C212.993 1224.37 213.522 1224.98 214.036 1225.66C214.286 1226.01 214.566 1226.36 214.831 1226.74C215.158 1227.19 215.329 1227.7 215.47 1228.22C215.968 1230.31 215.797 1232.6 215.734 1235.06C215.921 1239.9 216.155 1245.95 215.859 1252.51C215.61 1259.11 214.815 1266.31 214.005 1273.85C212.354 1288.94 209.908 1302.53 207.306 1312.16C206.091 1316.95 204.907 1320.88 203.692 1323.42C202.508 1325.97 201.527 1327.21 201.433 1327.14V1327.17Z" fill="#C6C6C6"/>
<path d="M137.233 1347.86C137.233 1347.86 136.828 1347.93 136.08 1347.93C135.317 1347.93 134.211 1347.91 132.778 1347.83C129.911 1347.71 125.767 1347.29 120.673 1346.85C115.563 1346.38 109.472 1345.85 102.758 1344.79C99.4082 1344.26 95.8874 1343.56 92.3043 1342.63C88.7368 1341.76 84.9979 1341.1 81.1344 1340.46C77.2865 1339.82 73.5008 1339.23 69.871 1338.58C66.2412 1337.88 62.7671 1337.36 59.3866 1337C56.0216 1336.65 52.8124 1336.35 49.8213 1335.95C46.8146 1335.59 44.0416 1334.98 41.5334 1334.62C36.4703 1333.92 32.3264 1333.3 29.569 1332.39C28.1825 1331.97 27.1699 1331.49 26.4844 1331.15C25.8301 1330.77 25.4874 1330.55 25.5029 1330.52C25.5497 1330.43 26.905 1331.29 29.678 1332C32.4199 1332.78 36.5327 1333.28 41.6269 1333.89C44.1974 1334.22 46.9236 1334.78 49.9147 1335.09C52.8903 1335.45 56.0995 1335.71 59.48 1336.05C62.8606 1336.38 66.4126 1336.88 70.0424 1337.57C73.6722 1338.22 77.4267 1338.8 81.2902 1339.43C85.1537 1340.07 88.9237 1340.74 92.538 1341.63C96.1055 1342.58 99.564 1343.28 102.898 1343.84C109.565 1344.95 115.641 1345.56 120.735 1346.12C125.83 1346.66 129.958 1347.11 132.809 1347.41C134.227 1347.54 135.348 1347.63 136.096 1347.69C136.844 1347.75 137.249 1347.8 137.249 1347.83L137.233 1347.86Z" fill="#C6C6C6"/>
<path d="M64.6832 1316.24C64.7143 1316.41 62.3775 1316.67 58.9035 1318.08C55.4139 1319.4 50.8805 1322.08 45.5058 1324.2C40.2246 1326.49 35.3485 1328.45 31.6564 1329.39C29.8181 1329.87 28.2914 1330.12 27.232 1330.23C26.1727 1330.32 25.5807 1330.31 25.5807 1330.23C25.5807 1330.06 27.8863 1329.82 31.4694 1328.69C35.0525 1327.59 39.8352 1325.55 45.1163 1323.25C50.4598 1321.15 55.0244 1318.59 58.6698 1317.39C60.4769 1316.77 61.9881 1316.44 63.0474 1316.3C64.1068 1316.16 64.6987 1316.18 64.6987 1316.24H64.6832Z" fill="#C6C6C6"/>
<path d="M135.894 1348.31C135.894 1348.31 136.049 1348.11 136.376 1347.77C136.704 1347.43 137.233 1346.94 137.919 1346.34C139.305 1345.12 141.44 1343.42 144.399 1341.68C145.879 1340.81 147.562 1339.93 149.447 1339.08C151.348 1338.24 153.404 1337.47 155.554 1336.47C157.704 1335.49 159.978 1334.43 162.377 1333.33C163.577 1332.77 164.808 1332.19 166.054 1331.6C166.63 1331.33 167.222 1331.05 167.799 1330.77C167.845 1330.74 168.017 1330.68 167.954 1330.68H167.845L167.581 1330.65C166.942 1330.55 166.303 1330.46 165.649 1330.34C164.371 1330.09 163.094 1329.98 161.754 1329.82C159.09 1329.54 156.364 1329.26 153.56 1328.97C147.951 1328.44 142.078 1327.88 136.018 1327.3C126.048 1326.32 116.545 1325.13 108.008 1323.51C99.4706 1321.92 91.7903 1320.48 85.3252 1319.37C78.86 1318.26 73.61 1317.47 69.9802 1316.99C68.1574 1316.74 66.7554 1316.55 65.7895 1316.42C64.8392 1316.3 64.3251 1316.21 64.3407 1316.18C64.3407 1316.14 64.8548 1316.16 65.8207 1316.22C66.7865 1316.28 68.2042 1316.41 70.0425 1316.6C73.7035 1316.97 78.9691 1317.64 85.4654 1318.67C91.9617 1319.68 99.6575 1321.07 108.195 1322.59C116.716 1324.17 126.172 1325.3 136.143 1326.29C142.187 1326.88 148.06 1327.44 153.669 1327.98C156.473 1328.3 159.215 1328.59 161.879 1328.87C163.203 1329.03 164.543 1329.17 165.82 1329.42C166.459 1329.53 167.082 1329.64 167.705 1329.73C168.079 1329.78 168.733 1329.87 169.45 1329.87C170.307 1329.85 171.164 1329.82 172.02 1329.81C168.78 1331.3 165.68 1332.72 162.72 1334.09C160.305 1335.17 158 1336.19 155.85 1337.16C153.684 1338.13 151.581 1338.89 149.712 1339.67C147.842 1340.48 146.144 1341.3 144.664 1342.15C141.689 1343.8 139.539 1345.42 138.106 1346.55C136.672 1347.69 135.94 1348.35 135.894 1348.31Z" fill="#C6C6C6"/>
<path d="M82.7236 1319.04C82.7547 1319.2 80.4023 1319.85 76.6167 1320.97C72.8467 1322.1 67.7057 1323.93 62.222 1326.36C56.8318 1328.95 52.018 1331.63 48.2947 1333.08C46.4408 1333.83 44.8985 1334.31 43.808 1334.53C42.7175 1334.76 42.0944 1334.78 42.0788 1334.73C42.0476 1334.57 44.4468 1334.11 47.9987 1332.41C51.5974 1330.82 56.3021 1328.06 61.7702 1325.43C67.3162 1322.97 72.5351 1321.22 76.3986 1320.27C80.2465 1319.31 82.6612 1318.9 82.6924 1319.04H82.7236Z" fill="#C6C6C6"/>
<path d="M101.293 1321.53C101.325 1321.71 99.0968 1322.05 95.6384 1323.05C92.1643 1324.03 87.5219 1325.83 82.5367 1328.19C77.5515 1330.54 73.0805 1332.81 69.7622 1334.29C66.4595 1335.79 64.3252 1336.55 64.2785 1336.44C64.2162 1336.3 66.2258 1335.31 69.4506 1333.64C72.6754 1331.99 77.0842 1329.62 82.1005 1327.25C87.1168 1324.88 91.8839 1323.15 95.4514 1322.34C97.2274 1321.92 98.6918 1321.67 99.7044 1321.58C100.717 1321.47 101.278 1321.46 101.293 1321.53Z" fill="#C6C6C6"/>
<path d="M117.262 1324.45C117.293 1324.6 115.283 1325.15 112.105 1326.26C108.927 1327.38 104.643 1329.15 100.094 1331.51C95.5296 1333.86 91.4635 1336.15 88.4101 1337.63C85.3723 1339.14 83.4249 1339.9 83.3626 1339.78C83.3003 1339.64 85.1386 1338.66 88.0674 1336.99C91.0118 1335.34 95.0155 1332.95 99.6268 1330.59C104.222 1328.2 108.631 1326.5 111.887 1325.55C115.159 1324.62 117.246 1324.32 117.262 1324.43V1324.45Z" fill="#C6C6C6"/>
<path d="M133.168 1326.72C133.214 1326.86 131.283 1327.77 128.136 1329.17C124.989 1330.57 120.642 1332.52 115.844 1334.65C111.062 1336.83 106.762 1338.86 103.662 1340.34C100.546 1341.82 98.6142 1342.72 98.5519 1342.6C98.4895 1342.47 100.297 1341.35 103.335 1339.7C106.372 1338.05 110.625 1335.9 115.424 1333.72C120.222 1331.54 124.631 1329.73 127.855 1328.5C131.08 1327.27 133.105 1326.6 133.168 1326.72Z" fill="#C6C6C6"/>
<path d="M149.494 1328.65C149.541 1328.79 147.78 1329.57 144.961 1330.88C142.141 1332.19 138.293 1334.09 134.102 1336.3C129.912 1338.53 126.126 1340.59 123.353 1342.01C120.58 1343.44 118.82 1344.23 118.757 1344.11C118.695 1343.98 120.331 1342.96 123.01 1341.37C125.69 1339.78 129.413 1337.63 133.635 1335.38C137.841 1333.16 141.782 1331.35 144.696 1330.2C147.609 1329.04 149.463 1328.51 149.51 1328.62L149.494 1328.65Z" fill="#C6C6C6"/>
<path d="M146.238 1340.21C146.238 1340.21 145.848 1340.23 145.1 1340.17C144.368 1340.09 143.278 1339.96 141.891 1339.82C139.103 1339.51 135.068 1339.04 130.067 1338.55C120.081 1337.49 106.232 1336.6 91.0267 1334.42C83.4243 1333.22 76.2893 1331.77 69.7463 1330.71C63.2032 1329.62 57.2833 1328.81 52.2981 1328.34C47.313 1327.88 43.2625 1327.69 40.4583 1327.66C39.0563 1327.61 37.9658 1327.66 37.2336 1327.63C36.5014 1327.63 36.1119 1327.59 36.0963 1327.56C36.0963 1327.53 36.4858 1327.49 37.218 1327.42C37.9502 1327.38 39.0407 1327.28 40.4583 1327.27C43.2781 1327.17 47.3441 1327.25 52.3605 1327.63C57.3768 1328 63.3278 1328.75 69.8865 1329.78C76.4451 1330.79 83.6269 1332.22 91.1669 1333.41C106.309 1335.57 120.159 1336.58 130.129 1337.83C135.114 1338.41 139.149 1338.98 141.922 1339.43C143.309 1339.67 144.384 1339.86 145.116 1339.96C145.848 1340.1 146.222 1340.18 146.222 1340.21H146.238Z" fill="#C6C6C6"/>
<path d="M158.234 1336.15C158.234 1336.15 157.844 1336.16 157.128 1336.1C156.411 1336.02 155.336 1335.91 153.965 1335.76C151.223 1335.45 147.282 1334.85 142.406 1334.14C132.653 1332.7 119.178 1330.65 104.316 1328.33C89.4537 1326.01 76.0249 1323.68 66.2727 1322.36C61.3966 1321.69 57.4396 1321.21 54.6977 1320.88C53.3268 1320.71 52.2675 1320.58 51.5508 1320.49C50.8342 1320.4 50.4603 1320.32 50.4603 1320.29C50.4603 1320.26 50.8498 1320.26 51.5664 1320.29C52.2986 1320.32 53.358 1320.37 54.7445 1320.49C57.5019 1320.69 61.4744 1321.07 66.3662 1321.64C76.1651 1322.78 89.6251 1324.99 104.472 1327.31C119.334 1329.64 132.778 1331.8 142.499 1333.42C147.36 1334.23 151.301 1334.9 154.012 1335.35C155.367 1335.59 156.426 1335.76 157.143 1335.88C157.86 1336.02 158.234 1336.1 158.218 1336.13L158.234 1336.15Z" fill="#C6C6C6"/>
<path d="M148.31 1364.33C148.17 1364.3 148.201 1363.64 148.217 1362.63C148.248 1361.62 148.186 1360.2 148.17 1358.61C148.17 1357.82 148.201 1357.04 148.279 1356.34C148.31 1355.99 148.373 1355.65 148.435 1355.34C148.466 1355.18 148.497 1355.04 148.528 1354.89C148.575 1354.72 148.622 1354.55 148.653 1354.39C148.669 1354.28 148.715 1354.19 148.762 1354.11C148.809 1354.03 148.824 1353.94 148.934 1353.94C149.105 1353.91 149.276 1353.88 149.432 1353.92C149.744 1353.99 149.962 1354.22 150.024 1354.33C150.195 1354.59 150.258 1354.66 150.258 1354.73C150.258 1354.83 149.993 1354.8 149.759 1354.62C149.619 1354.55 149.557 1354.53 149.463 1354.53C149.37 1354.53 149.307 1354.61 149.339 1354.72C149.339 1354.72 149.339 1354.89 149.307 1355.01C149.307 1355.15 149.292 1355.29 149.276 1355.45C149.261 1355.75 149.245 1356.06 149.23 1356.4C149.198 1357.07 149.198 1357.82 149.198 1358.6C149.198 1360.17 149.152 1361.65 148.934 1362.69C148.731 1363.74 148.435 1364.35 148.31 1364.31V1364.33Z" fill="#C6C6C6"/>
<path d="M154.137 1363.55C153.841 1363.52 154.09 1360.28 155.071 1356.48C156.037 1352.68 156.738 1349.62 157.003 1349.64C157.299 1349.67 157.05 1352.91 156.068 1356.71C155.103 1360.51 154.402 1363.57 154.137 1363.55Z" fill="#C6C6C6"/>
<path d="M160.399 1359.64C160.119 1359.56 160.68 1357.01 161.988 1354.13C163.281 1351.24 164.465 1349.02 164.715 1349.11C164.995 1349.22 164.201 1351.68 162.923 1354.53C161.63 1357.38 160.664 1359.7 160.399 1359.62V1359.64Z" fill="#C6C6C6"/>
<path d="M165.945 1356.28C165.68 1356.17 166.132 1354.48 166.864 1352.51C167.612 1350.53 168.267 1348.94 168.531 1349.02C168.812 1349.08 168.578 1350.85 167.83 1352.86C167.083 1354.87 166.195 1356.38 165.945 1356.28Z" fill="#C6C6C6"/>
<path d="M171.631 1351.98C171.366 1351.9 171.522 1350.45 172.099 1348.74C172.675 1347.02 173.501 1345.79 173.75 1345.9C174.015 1346.02 173.625 1347.4 173.064 1349.06C172.504 1350.71 171.912 1352.05 171.631 1351.96V1351.98Z" fill="#C6C6C6"/>
<path d="M177.754 1346.79C177.489 1346.69 177.645 1345.45 177.909 1343.94C178.174 1342.41 178.564 1341.18 178.844 1341.23C179.125 1341.26 179.202 1342.55 178.922 1344.12C178.642 1345.7 178.018 1346.88 177.754 1346.79Z" fill="#C6C6C6"/>
<path d="M182.1 1342.94C181.82 1342.91 181.804 1341.23 182.287 1339.25C182.77 1337.28 183.44 1335.77 183.705 1335.85C183.985 1335.93 183.752 1337.57 183.284 1339.5C182.801 1341.43 182.381 1342.97 182.1 1342.94Z" fill="#C6C6C6"/>
<path d="M187.459 1338.59C187.194 1338.48 187.319 1337.46 187.552 1336.21C187.786 1334.95 188.129 1333.92 188.425 1333.97C188.705 1334 188.814 1335.09 188.565 1336.4C188.331 1337.72 187.724 1338.7 187.474 1338.59H187.459Z" fill="#C6C6C6"/>
<path d="M191.556 1336.61C191.276 1336.58 191.229 1335.29 191.432 1333.73C191.634 1332.18 192.039 1330.96 192.32 1330.99C192.6 1331.02 192.662 1332.32 192.444 1333.87C192.226 1335.42 191.837 1336.65 191.541 1336.61H191.556Z" fill="#C6C6C6"/>
<path d="M195.451 1333.66C195.217 1333.5 195.841 1332.08 196.386 1330.26C196.962 1328.45 197.352 1326.93 197.648 1326.96C197.913 1326.99 197.975 1328.64 197.367 1330.57C196.775 1332.52 195.685 1333.81 195.451 1333.66Z" fill="#C6C6C6"/>
<path d="M79.499 1305.57C79.499 1305.57 79.1719 1305.54 78.5487 1305.35C77.9411 1305.18 77.0532 1304.66 76.3365 1303.63C74.9345 1301.44 75.1993 1297.68 75.9938 1293.51C76.3833 1291.39 76.9285 1289.1 77.427 1286.64C77.9411 1284.19 78.206 1281.53 78.5954 1278.71C79.3588 1273.09 80.2 1266.92 81.0724 1260.44C81.976 1253.95 82.8328 1247.8 83.6118 1242.18C84.1882 1236.58 84.2972 1231.4 85.5747 1227.21C86.1667 1225.12 87.1326 1223.28 88.3944 1222.05C88.9553 1221.36 89.7498 1221.02 90.3573 1220.6C91.074 1220.38 91.6971 1220.06 92.3203 1220.01C92.9278 1219.95 93.4731 1219.87 93.9404 1219.85C94.4078 1219.9 94.7973 1219.93 95.1244 1219.96C95.7631 1220.02 96.0903 1220.09 96.0747 1220.12C96.0747 1220.15 95.732 1220.16 95.1088 1220.16C94.7973 1220.16 94.4078 1220.16 93.956 1220.15C93.5042 1220.23 92.9901 1220.3 92.4137 1220.4C90.0458 1220.69 87.2572 1223.26 86.2913 1227.41C85.1541 1231.49 85.0917 1236.6 84.5777 1242.29C83.8766 1247.94 83.0042 1254.09 82.1162 1260.58C81.2127 1267.06 80.3403 1273.23 79.5613 1278.83C79.1407 1281.62 78.8291 1284.32 78.2839 1286.81C77.723 1289.27 77.2089 1291.56 76.7416 1293.65C75.8692 1297.78 75.5264 1301.38 76.7104 1303.43C77.318 1304.4 78.0813 1304.94 78.6578 1305.16C79.2342 1305.4 79.5457 1305.54 79.5302 1305.57H79.499Z" fill="#C6C6C6"/>
<path d="M8.80272 1343.41C8.75598 1343.52 8.17957 1343.44 7.40064 1342.94C6.6217 1342.44 5.7493 1341.48 5.12615 1340.26C3.89544 1337.8 3.69291 1335.65 3.91102 1335.57C4.22259 1335.48 4.89247 1337.52 6.02972 1339.78C6.60613 1340.9 7.27601 1341.79 7.85242 1342.36C8.41325 1342.94 8.86503 1343.25 8.78714 1343.39L8.80272 1343.41Z" fill="#C6C6C6"/>
<path d="M11.4047 1343.53C11.2021 1343.69 10.0026 1342.69 9.05228 1340.93C8.58492 1340.06 8.36682 1339.14 8.36682 1338.48C8.36682 1337.81 8.53819 1337.43 8.66282 1337.44C8.94323 1337.47 9.08344 1338.91 9.95585 1340.46C10.7971 1342.04 11.6383 1343.34 11.3891 1343.53H11.4047Z" fill="#C6C6C6"/>
<path d="M13.882 1342.91C13.6483 1343.06 12.9317 1342.39 12.589 1341.26C12.2463 1340.14 12.4644 1339.17 12.7292 1339.17C13.0252 1339.17 13.2589 1340 13.5704 1340.96C13.8664 1341.93 14.1313 1342.75 13.882 1342.91Z" fill="#C6C6C6"/>
<path d="M16.4206 1343.5C16.187 1343.66 15.5015 1342.94 15.2367 1341.82C14.9718 1340.7 15.2367 1339.79 15.5015 1339.79C15.7975 1339.79 16.0156 1340.62 16.2337 1341.58C16.4518 1342.55 16.6543 1343.34 16.4206 1343.5Z" fill="#C6C6C6"/>
<path d="M41.2381 1350.26C40.9732 1350.43 39.9606 1348.89 39.4465 1346.82C38.9168 1344.75 38.6987 1343.11 38.9013 1343.02C39.2128 1342.89 39.9139 1344.54 40.428 1346.54C40.9421 1348.56 41.4562 1350.11 41.2381 1350.25V1350.26Z" fill="#C6C6C6"/>
<path d="M36.6419 1348.92C36.4238 1349.09 35.2709 1347.82 34.8659 1345.84C34.4141 1343.86 34.8971 1342.22 35.1775 1342.29C35.4579 1342.33 35.4423 1343.83 35.8629 1345.62C36.2368 1347.41 36.8755 1348.77 36.6419 1348.92Z" fill="#C6C6C6"/>
<path d="M107.899 1359.47C107.665 1359.55 106.606 1357.8 105.827 1355.29C105.469 1354.03 105.375 1352.82 105.5 1351.94C105.625 1351.07 105.889 1350.59 106.014 1350.62C106.279 1350.7 106.061 1352.66 106.808 1355.01C107.525 1357.37 108.195 1359.36 107.883 1359.47H107.899Z" fill="#C6C6C6"/>
<path d="M103.179 1357.4C102.898 1357.51 102.337 1356.46 102.166 1355.14C101.979 1353.83 101.901 1352.83 102.166 1352.72C102.446 1352.61 103.007 1353.66 103.179 1354.98C103.366 1356.29 103.443 1357.29 103.179 1357.4Z" fill="#C6C6C6"/>
<path d="M111.903 1359.78C111.638 1359.86 111.186 1358.81 110.906 1357.43C110.625 1356.06 110.625 1354.9 110.906 1354.87C111.186 1354.84 111.638 1355.89 111.903 1357.23C112.168 1358.57 112.168 1359.7 111.903 1359.78Z" fill="#C6C6C6"/>
<path d="M133.463 1364.19C133.199 1364.28 132.498 1363.01 132.124 1361.26C131.75 1359.52 131.89 1358.05 132.17 1358.04C132.466 1358.02 132.778 1359.38 133.136 1361.04C133.495 1362.69 133.744 1364.08 133.479 1364.17L133.463 1364.19Z" fill="#C6C6C6"/>
<path d="M89.0799 1219.56C89.1422 1219.82 87.7713 1220.54 86.1199 1221.64C84.453 1222.77 82.7394 1223.26 82.6615 1222.97C82.5836 1222.72 83.9078 1221.91 85.5747 1220.79C87.2883 1219.65 89.0176 1219.28 89.0799 1219.57V1219.56Z" fill="#C6C6C6"/>
<path d="M86.9611 1224.51C87.0857 1224.76 86.0108 1225.59 84.6866 1226.61C83.3468 1227.64 82.1005 1228.34 81.9292 1228.11C81.7734 1227.89 82.6925 1226.86 84.0634 1225.8C85.4344 1224.73 86.8364 1224.25 86.9611 1224.51Z" fill="#C6C6C6"/>
<path d="M85.0761 1229.5C85.2319 1229.73 84.2972 1230.54 82.9886 1231.29C81.68 1232.04 80.5271 1232.44 80.4025 1232.19C80.2779 1231.94 81.2126 1231.13 82.49 1230.4C83.7675 1229.67 84.9203 1229.26 85.0761 1229.5Z" fill="#C6C6C6"/>
<path d="M84.4061 1234.42C84.5307 1234.68 83.6739 1235.32 82.6146 1235.98C81.5552 1236.63 80.6828 1237.18 80.4803 1236.97C80.2778 1236.79 80.9165 1235.82 82.0693 1235.1C83.2065 1234.39 84.297 1234.17 84.4061 1234.42Z" fill="#C6C6C6"/>
<path d="M83.4246 1239.76C83.5492 1240 82.7703 1240.79 81.6642 1241.71C80.5425 1242.66 79.2963 1243.03 79.2028 1242.75C79.1093 1242.49 79.9506 1241.82 81.0255 1240.9C82.1316 1239.98 83.2844 1239.5 83.4246 1239.76Z" fill="#C6C6C6"/>
<path d="M83.9075 1244.84C84.0789 1245.06 82.9728 1246.2 81.4149 1247.36C79.8726 1248.53 78.4861 1249.3 78.3147 1249.08C78.1434 1248.84 79.2495 1247.72 80.7918 1246.55C82.334 1245.39 83.7205 1244.62 83.8919 1244.84H83.9075Z" fill="#C6C6C6"/>
<path d="M83.5651 1249.08C83.7053 1249.33 82.8484 1250.12 81.7112 1251.04C80.574 1251.96 79.4679 1252.54 79.2965 1252.3C79.1407 1252.09 79.9041 1251.17 81.0725 1250.23C82.2409 1249.3 83.4093 1248.83 83.5651 1249.08Z" fill="#C6C6C6"/>
<path d="M81.6019 1256.43C81.6954 1256.7 80.6049 1257.37 79.3119 1258.25C78.0033 1259.14 76.8193 1259.8 76.6479 1259.56C76.4766 1259.34 77.3645 1258.33 78.751 1257.41C80.1375 1256.46 81.5241 1256.17 81.6175 1256.43H81.6019Z" fill="#C6C6C6"/>
<path d="M81.9919 1260.54C82.0542 1260.82 80.7144 1261.42 79.2189 1262.4C77.7078 1263.38 76.4615 1264.27 76.2745 1264.03C76.0876 1263.83 77.0379 1262.59 78.6736 1261.53C80.3094 1260.45 81.9607 1260.25 82.0075 1260.53L81.9919 1260.54Z" fill="#C6C6C6"/>
<path d="M80.9006 1264.92C81.0097 1265.19 79.8101 1265.95 78.4236 1267.02C77.0371 1268.1 75.8064 1268.94 75.6194 1268.72C75.4481 1268.52 76.3361 1267.34 77.816 1266.21C79.296 1265.06 80.8227 1264.66 80.9162 1264.92H80.9006Z" fill="#C6C6C6"/>
<path d="M79.9973 1269.8C80.1531 1270.05 78.938 1271.09 77.4269 1272.34C75.9157 1273.58 74.5604 1274.49 74.3734 1274.27C74.1865 1274.07 75.2303 1272.82 76.7881 1271.54C78.346 1270.27 79.8571 1269.56 79.9973 1269.8Z" fill="#C6C6C6"/>
<path d="M78.6575 1276.05C78.8289 1276.26 77.8941 1277.21 76.57 1278.16C75.2458 1279.11 74.0462 1279.67 73.906 1279.44C73.7502 1279.19 74.6849 1278.24 75.9935 1277.32C77.3022 1276.39 78.4861 1275.83 78.6575 1276.05Z" fill="#C6C6C6"/>
<path d="M78.5332 1280.33C78.6267 1280.59 77.5829 1281.23 76.4768 1282.26C75.3552 1283.29 74.4516 1284.19 74.2024 1284.02C73.9843 1283.87 74.5451 1282.64 75.7758 1281.5C77.0065 1280.35 78.4398 1280.05 78.5176 1280.31L78.5332 1280.33Z" fill="#C6C6C6"/>
<path d="M77.5987 1285.44C77.7233 1285.7 76.773 1286.37 75.6358 1287.15C74.4829 1287.92 73.595 1288.6 73.3768 1288.43C73.1587 1288.26 73.7975 1287.15 75.0593 1286.31C76.3056 1285.47 77.4896 1285.19 77.6143 1285.44H77.5987Z" fill="#C6C6C6"/>
<path d="M76.7101 1290.08C76.8504 1290.33 76.3207 1290.86 75.6975 1291.36C75.0588 1291.86 74.5291 1292.28 74.2799 1292.12C74.0306 1291.98 74.2799 1291.16 75.0432 1290.55C75.791 1289.94 76.5699 1289.83 76.7101 1290.07V1290.08Z" fill="#C6C6C6"/>
<path d="M75.1678 1296.08C75.1989 1296.38 74.6537 1296.62 74.0929 1296.8C73.5632 1296.94 73.127 1297.14 72.8933 1296.97C72.644 1296.81 72.9556 1296.06 73.7813 1295.81C74.5602 1295.6 75.1366 1295.81 75.1678 1296.08Z" fill="#C6C6C6"/>
<path d="M74.2335 1301.19C74.4048 1301.41 74.2335 1301.86 73.7194 1302.08C73.1585 1302.3 72.66 1301.98 72.7379 1301.7C72.8002 1301.42 73.0651 1301.24 73.3455 1301.11C73.6571 1301 74.0465 1300.96 74.2335 1301.19Z" fill="#C6C6C6"/>
<path d="M215.781 1228.95C215.813 1229.23 214.816 1229.57 213.616 1229.98C212.416 1230.37 211.435 1230.73 211.279 1230.48C211.123 1230.24 211.965 1229.43 213.289 1229C214.613 1228.56 215.75 1228.67 215.781 1228.95Z" fill="#C6C6C6"/>
<path d="M213.179 1235.74C213.304 1235.99 212.759 1236.55 211.995 1237.1C211.216 1237.64 210.453 1237.96 210.282 1237.72C210.11 1237.5 210.593 1236.83 211.403 1236.26C212.214 1235.68 213.055 1235.48 213.179 1235.74Z" fill="#C6C6C6"/>
<path d="M213.741 1242.02C213.803 1242.3 213.102 1242.69 212.245 1243C211.388 1243.31 210.625 1243.49 210.485 1243.24C210.345 1243 210.937 1242.38 211.902 1242.04C212.853 1241.69 213.694 1241.76 213.756 1242.04L213.741 1242.02Z" fill="#C6C6C6"/>
<path d="M214.753 1248.6C214.878 1248.83 213.896 1249.67 212.416 1250.39C210.905 1251.12 209.456 1251.03 209.456 1250.73C209.456 1250.45 210.609 1250.12 211.996 1249.45C213.382 1248.8 214.628 1248.33 214.769 1248.6H214.753Z" fill="#C6C6C6"/>
<path d="M213.694 1254.42C213.849 1254.66 213.039 1255.51 211.871 1256.34C210.702 1257.16 209.627 1257.65 209.456 1257.41C209.285 1257.18 210.11 1256.32 211.279 1255.5C212.447 1254.67 213.522 1254.19 213.694 1254.42Z" fill="#C6C6C6"/>
<path d="M213.211 1261.49C213.367 1261.71 212.432 1262.77 210.983 1263.85C209.534 1264.92 208.054 1265.33 207.945 1265.06C207.836 1264.8 209.005 1264.05 210.375 1263.02C211.762 1261.99 213.024 1261.26 213.211 1261.49Z" fill="#C6C6C6"/>
<path d="M212.463 1268.54C212.603 1268.77 211.575 1269.72 210.22 1270.81C208.864 1271.9 207.587 1272.6 207.415 1272.37C207.26 1272.15 208.21 1271.11 209.596 1270C210.983 1268.89 212.338 1268.29 212.478 1268.54H212.463Z" fill="#C6C6C6"/>
<path d="M210.001 1276.06C210.141 1276.31 209.393 1277.03 208.319 1277.67C207.244 1278.3 206.247 1278.63 206.106 1278.38C205.966 1278.13 206.714 1277.42 207.789 1276.78C208.864 1276.14 209.861 1275.81 210.001 1276.06Z" fill="#C6C6C6"/>
<path d="M211.185 1279.57C211.388 1279.77 210.515 1280.89 209.066 1281.72C207.633 1282.56 206.356 1282.93 206.231 1282.7C206.091 1282.43 207.181 1281.65 208.552 1280.84C209.923 1280.05 210.998 1279.36 211.201 1279.57H211.185Z" fill="#C6C6C6"/>
<path d="M210.547 1285.92C210.656 1286.17 209.846 1286.84 208.755 1287.6C207.649 1288.38 206.496 1288.71 206.387 1288.45C206.278 1288.18 207.088 1287.53 208.179 1286.76C209.285 1285.98 210.437 1285.66 210.547 1285.92Z" fill="#C6C6C6"/>
<path d="M210.204 1291.83C210.375 1292.04 209.628 1292.92 208.522 1293.74C207.416 1294.58 206.387 1295.07 206.216 1294.85C206.045 1294.61 206.792 1293.76 207.898 1292.93C209.005 1292.11 210.033 1291.61 210.204 1291.83Z" fill="#C6C6C6"/>
<path d="M207.633 1298.38C207.789 1298.6 207.135 1299.41 206.122 1300.24C205.109 1301.08 204.035 1301.45 203.91 1301.2C203.77 1300.96 204.502 1300.25 205.483 1299.44C206.48 1298.63 207.462 1298.15 207.633 1298.38Z" fill="#C6C6C6"/>
<path d="M207.384 1303.6C207.493 1303.87 206.699 1304.49 205.686 1305.26C204.658 1306.02 203.598 1306.42 203.458 1306.17C203.334 1305.93 204.035 1305.21 205.094 1304.43C206.169 1303.63 207.275 1303.35 207.384 1303.62V1303.6Z" fill="#C6C6C6"/>
<path d="M207.057 1309.51C207.088 1309.79 206.216 1310.19 205.157 1310.79C204.066 1311.36 203.147 1311.78 202.96 1311.56C202.789 1311.35 203.49 1310.51 204.674 1309.88C205.842 1309.23 207.026 1309.21 207.057 1309.51Z" fill="#C6C6C6"/>
<path d="M205.78 1315.29C206.029 1315.41 205.827 1316.22 205.017 1316.72C204.222 1317.19 203.506 1317.13 203.428 1316.88C203.334 1316.6 203.895 1316.21 204.487 1315.85C205.063 1315.51 205.546 1315.13 205.796 1315.29H205.78Z" fill="#C6C6C6"/>
<path d="M203.833 1320.74C203.973 1321.01 202.929 1321.77 201.652 1322.59C200.359 1323.42 199.315 1324.11 199.112 1323.9C198.91 1323.7 199.72 1322.61 201.091 1321.74C202.446 1320.86 203.708 1320.49 203.833 1320.74Z" fill="#C6C6C6"/>
<path d="M199.19 1328.45C199.299 1328.72 198.878 1329.17 198.271 1329.6C197.648 1330.04 197.009 1330.26 196.837 1330.03C196.666 1329.81 197.024 1329.23 197.694 1328.76C198.364 1328.3 199.096 1328.19 199.205 1328.45H199.19Z" fill="#C6C6C6"/>
<path d="M64.6682 1349.69C64.4345 1349.86 63.3752 1348.5 63.2194 1346.52C63.048 1344.59 63.4219 1343.1 63.6711 1343.1C63.9827 1343.1 64.0762 1344.64 64.232 1346.41C64.3722 1348.19 64.9019 1349.53 64.6682 1349.69Z" fill="#C6C6C6"/>
<path d="M85.0919 1352.04C85.0919 1352.16 83.9858 1352.38 82.1631 1352.38C80.3404 1352.38 77.8322 1352.12 75.1215 1351.57C69.7157 1350.4 65.4783 1349.09 65.525 1348.86C65.5874 1348.53 69.9961 1349.42 75.324 1350.56C78.0036 1351.1 80.4338 1351.48 82.2098 1351.65C83.9858 1351.84 85.0919 1351.88 85.1074 1352.04H85.0919Z" fill="#C6C6C6"/>
<path d="M84.9982 1352.74C84.7178 1352.74 84.453 1351.74 84.4686 1350.46C84.4841 1349.19 84.858 1348.17 85.1384 1348.22C85.4189 1348.27 85.5123 1349.26 85.4967 1350.48C85.4656 1351.71 85.2786 1352.72 84.9982 1352.72V1352.74Z" fill="#C6C6C6"/>
<path d="M133.105 1214.91C132.824 1214.87 132.684 1214.1 132.856 1213.19C133.011 1212.25 133.525 1211.55 133.79 1211.67C134.04 1211.8 134.008 1212.5 133.868 1213.37C133.712 1214.24 133.401 1214.96 133.105 1214.91Z" fill="#C6C6C6"/>
<path d="M151.551 1217.7C151.582 1217.98 147.376 1218.45 142.235 1217.83C139.664 1217.52 137.374 1216.99 135.769 1216.43C134.165 1215.86 133.246 1215.3 133.308 1215.19C133.37 1215.05 134.352 1215.37 135.972 1215.74C137.592 1216.11 139.836 1216.52 142.359 1216.83C147.407 1217.44 151.535 1217.44 151.551 1217.72V1217.7Z" fill="#C6C6C6"/>
<path d="M152.049 1217.53C151.815 1217.69 151.114 1216.99 150.958 1215.83C150.771 1214.66 151.348 1213.76 151.597 1213.9C151.862 1214.01 151.815 1214.77 151.971 1215.69C152.095 1216.61 152.298 1217.39 152.049 1217.55V1217.53Z" fill="#C6C6C6"/>
<path d="M188.161 1235.62C188.161 1235.62 187.833 1235.88 187.163 1236.3C186.494 1236.71 185.497 1237.3 184.219 1238.08C181.649 1239.59 177.894 1241.74 173.252 1244.34C163.936 1249.55 151.005 1256.62 136.548 1264.1C132.934 1265.97 129.382 1267.76 125.939 1269.47C122.512 1271.22 119.116 1272.71 116.016 1274.35C109.815 1277.63 104.441 1281.06 99.7048 1283.55C97.3369 1284.8 95.1714 1285.88 93.1774 1286.65C91.1989 1287.43 89.4696 1288.04 88.0831 1288.57C86.6966 1289.1 85.6373 1289.57 84.9207 1289.88C84.204 1290.21 83.8457 1290.39 83.8146 1290.35C83.8146 1290.32 84.1417 1290.08 84.8272 1289.69C85.5127 1289.3 86.5564 1288.77 87.9273 1288.2C89.2983 1287.62 90.9963 1286.93 92.9437 1286.12C94.8754 1285.3 97.0097 1284.19 99.3465 1282.92C104.02 1280.36 109.332 1276.89 115.564 1273.52C118.695 1271.84 122.076 1270.34 125.472 1268.58C128.884 1266.84 132.436 1265.05 136.05 1263.19C150.507 1255.71 163.484 1248.75 172.878 1243.7C177.567 1241.18 181.384 1239.14 184.001 1237.72C185.325 1237.02 186.338 1236.49 187.039 1236.12C187.74 1235.76 188.114 1235.59 188.129 1235.62H188.161Z" fill="#C6C6C6"/>
<path d="M193.176 1263.25C193.176 1263.25 192.008 1263.96 189.858 1265.08C187.708 1266.23 184.624 1267.91 180.869 1270.09C173.314 1274.41 163.172 1280.86 151.441 1287.17C145.583 1290.33 139.741 1292.92 134.289 1294.8C128.852 1296.72 123.867 1298.2 119.723 1299.48C115.563 1300.74 112.214 1301.81 109.908 1302.58C107.603 1303.34 106.325 1303.78 106.294 1303.7C106.294 1303.67 106.59 1303.51 107.166 1303.26C107.758 1303 108.631 1302.64 109.768 1302.2C112.043 1301.31 115.361 1300.13 119.505 1298.77C127.761 1296.03 139.352 1292.7 150.958 1286.25C162.627 1279.97 172.846 1273.61 180.511 1269.46C184.328 1267.35 187.475 1265.76 189.671 1264.72C190.777 1264.19 191.65 1263.83 192.242 1263.58C192.834 1263.33 193.145 1263.22 193.161 1263.25H193.176Z" fill="#C6C6C6"/>
<path d="M139.025 1232.43C139.025 1232.43 138.417 1232.95 137.218 1233.78C136.003 1234.57 134.227 1235.68 131.968 1236.96C127.466 1239.53 121.032 1242.64 113.959 1246.13C110.438 1247.86 107.151 1249.7 104.02 1251.12C100.904 1252.55 98.0998 1253.78 95.7786 1254.91C93.4574 1256.01 91.6347 1257.02 90.3884 1257.74C89.1421 1258.46 88.4722 1258.89 88.4255 1258.83C88.3943 1258.78 88.9863 1258.24 90.1859 1257.41C91.3699 1256.57 93.1614 1255.47 95.467 1254.27C97.7571 1253.05 100.561 1251.76 103.63 1250.28C106.699 1248.83 109.971 1246.96 113.523 1245.23C120.611 1241.74 127.076 1238.73 131.641 1236.34C133.931 1235.15 135.753 1234.14 137.031 1233.45C138.293 1232.75 139.009 1232.39 139.041 1232.44L139.025 1232.43Z" fill="#C6C6C6"/>
<path d="M126.874 1225.49C126.936 1225.63 124.989 1226.68 121.857 1228.41C118.726 1230.15 114.411 1232.55 109.644 1235.21C104.877 1237.88 100.499 1240.21 97.2587 1241.77C94.0339 1243.33 91.962 1244.16 91.8996 1244.03C91.8373 1243.89 93.7847 1242.85 96.916 1241.12C100.047 1239.37 104.363 1236.97 109.13 1234.31C113.897 1231.65 118.274 1229.31 121.515 1227.75C124.739 1226.19 126.811 1225.37 126.874 1225.49Z" fill="#C6C6C6"/>
<path fill-rule="evenodd" clip-rule="evenodd" d="M145.61 970.07C147.513 971.484 148.517 973.151 149.248 975.014C151.002 979.476 152.699 983.977 154.325 988.509C155.785 992.571 157.125 996.695 158.541 1000.84C160.082 999.887 160.563 998.482 160.663 996.783C161.119 989.051 161.166 981.324 159.932 973.74C158.906 967.465 157.481 961.298 156.217 955.089C155.004 949.125 152.932 943.616 150.247 938.456C148.351 934.81 146.383 931.228 144.415 927.637C143.999 926.887 143.439 926.257 142.971 925.606C141.649 926.317 141.492 927.744 140.951 928.793C139.815 931.023 138.541 933.079 136.863 934.754C134.726 936.887 132.307 938.076 129.541 938.241C124.829 938.534 120.567 937.337 117.186 933.135C113.595 928.672 110.91 923.672 111.029 917.081C111.13 911.472 113.039 908.431 117.514 906.834C120.953 905.61 124.358 905.868 127.695 907.274C130.591 908.499 133.155 910.448 135.634 912.577C137.02 913.766 138.391 914.988 140.01 916.397C140.371 915.491 140.781 914.855 140.876 914.163C141.884 906.926 141.735 899.702 140.492 892.596C139.496 886.885 137.318 881.85 134.381 877.19C129.495 869.427 123.394 863.521 116.413 858.791C112.939 856.44 109.382 854.395 105.287 854.062C104.922 854.028 104.531 853.792 104.231 853.526C104.084 853.402 104.09 852.991 104.076 852.697C104.067 852.587 104.18 852.399 104.264 852.37C104.644 852.245 105.033 852.07 105.415 852.071C108.116 852.095 110.678 852.894 113.081 854.281C117.009 856.545 121.089 858.539 124.773 861.286C134.499 868.544 142.015 878.166 144.516 892.204C146.128 901.216 146.209 910.358 144.076 919.431C144.006 919.738 144.004 920.065 143.951 920.617C149.518 930.425 156.021 939.773 159.026 951.619C161.979 963.245 164.819 974.907 164.556 987.868C165.206 987.302 165.66 987.08 165.887 986.679C167.699 983.466 169.465 980.225 171.25 976.993C171.47 976.592 171.676 976.048 171.995 975.878C172.557 975.577 173.324 975.184 173.776 975.432C174.243 975.689 174.602 976.612 174.707 977.321C174.934 978.851 174.19 980.1 173.537 981.328C172.025 984.195 170.619 987.151 168.967 989.894C166.278 994.367 165.135 999.878 162.171 1004.15C161.747 1004.77 161.462 1005.54 161.032 1006.15C159.429 1008.42 157.014 1008.34 155.644 1005.91C155.132 1005 154.808 1003.92 154.517 1002.87C152.733 996.524 150.665 990.302 149.221 983.799C148.614 981.052 147.437 978.496 146.42 975.915C145.391 973.307 145.334 973.338 145.604 970.053L145.61 970.07ZM139.459 920.634C137.094 918.443 135.112 916.639 133.161 914.787C129.398 911.196 124.952 910.688 120.397 911.156C116.115 911.594 114.49 914.339 115.367 919.33C115.691 921.166 116.32 922.991 117.083 924.621C117.852 926.26 118.841 927.8 119.928 929.151C125.414 935.943 133.257 934.637 137.277 926.281C138.067 924.64 138.615 922.836 139.452 920.643L139.459 920.634Z" fill="#C6C6C6" fill-opacity="0.26"/>
<path d="M6 16.4495C6 16.4495 35.9117 24.2647 63.6681 1C63.6681 1 85.3697 51.8236 119.576 86.6219C119.576 86.6219 88.8907 96.5925 79.315 105C79.315 105 40.025 87.0168 6.01645 16.4495H6Z" stroke="#C4C4C4" stroke-width="0.937826" stroke-linecap="round" stroke-linejoin="round"/>
<path d="M16.3326 26.7655C16.3326 26.7655 35.665 27.1275 58.9132 16.8279" stroke="#C4C4C4" stroke-width="0.937826" stroke-linecap="round" stroke-linejoin="round"/>
<path d="M18.817 32.4911C18.817 32.4911 38.1494 32.8531 61.3976 22.5535" stroke="#C4C4C4" stroke-width="0.937826" stroke-linecap="round" stroke-linejoin="round"/>
<path d="M22.8971 38.513C22.8971 38.513 32.2918 40.4545 56.3956 32.1621" stroke="#C4C4C4" stroke-width="0.937826" stroke-linecap="round" stroke-linejoin="round"/>
<path d="M27.2407 45.407C27.2407 45.407 38.3301 47.2168 61.7429 38.6941" stroke="#C4C4C4" stroke-width="0.937826" stroke-linecap="round" stroke-linejoin="round"/>
<path d="M31.6833 52.1855C31.6833 52.1855 51.0322 52.5474 74.264 42.2478" stroke="#C4C4C4" stroke-width="0.937826" stroke-linecap="round" stroke-linejoin="round"/>
<path d="M36.5204 59.4247C36.5204 59.4247 55.8692 59.7867 79.101 49.4871" stroke="#C4C4C4" stroke-width="0.937826" stroke-linecap="round" stroke-linejoin="round"/>
<path d="M42.2134 65.8583C42.2134 65.8583 50.407 68.4579 74.2805 60.001" stroke="#C4C4C4" stroke-width="0.937826" stroke-linecap="round" stroke-linejoin="round"/>
<path d="M47.7905 73.4267C47.7905 73.4267 67.1394 73.7886 90.3711 63.489" stroke="#C4C4C4" stroke-width="0.937826" stroke-linecap="round" stroke-linejoin="round"/>
<path d="M54.7339 80.5836C54.7339 80.5836 64.5893 83.1832 87.6401 74.4302" stroke="#C4C4C4" stroke-width="0.937826" stroke-linecap="round" stroke-linejoin="round"/>
<path d="M62.2859 87.4281C62.2859 87.4281 72.931 89.205 96.1628 80.9456" stroke="#C4C4C4" stroke-width="0.937826" stroke-linecap="round" stroke-linejoin="round"/>
<g clip-path="url(#clip0_1_575)">
<path d="M174.48 422.163C174.48 422.163 183.771 393.412 184.076 371.709C184.076 371.709 216.006 360.17 235.31 329.525C235.31 329.525 234.843 390.61 174.48 422.163Z" stroke="#C3C3C3" stroke-opacity="0.9" stroke-width="0.729335" stroke-linecap="round" stroke-linejoin="round"/>
</g>
<path d="M46.5697 706.926C46.5697 706.926 28.5069 749.594 23 759C23 759 75.8665 738.58 111.199 698.556C146.531 658.51 151.245 628.684 154.109 608C154.109 608 108.313 637.319 98.1145 643.068C98.1145 643.068 105.45 670.03 90.0083 696.97C90.0083 696.97 74.5669 704.041 46.5697 706.904V706.926Z" stroke="#C4C4C4" stroke-width="1.25558" stroke-linecap="round" stroke-linejoin="round"/>
<path d="M23 759C23 759 75.8665 738.58 111.199 698.556C122.301 685.978 130.363 674.413 136.311 663.818C115.164 687.123 89.9863 696.992 89.9863 696.992C89.9863 696.992 74.5449 704.063 46.5476 706.926C46.5476 706.926 28.4849 749.594 23 759Z" stroke="#C4C4C4" stroke-width="1.25558" stroke-linecap="round" stroke-linejoin="round"/>
<path d="M76 195C72 240.333 82.8 331.4 158 333" stroke="#BCBBBB" stroke-width="0.5"/>
<path d="M203.217 613.305C238.962 585.138 297.855 514.843 247.465 459" stroke="#BCBBBB" stroke-width="0.5"/>
<defs>
<clipPath id="clip0_1_575">
<rect width="98.0124" height="53.7789" fill="white" transform="translate(149 375.209) rotate(-28.1022)"/>
</clipPath>
</defs>
</svg>
