<svg width="50" height="83" viewBox="0 0 50 83" fill="none" xmlns="http://www.w3.org/2000/svg">
<path d="M38.0585 14.9236C37.9805 14.5893 37.8561 14.2784 37.7317 13.9675C37.6214 13.6539 37.4843 13.3526 37.3568 13.0641C37.2241 12.7474 37.0843 12.4321 36.9275 12.1419C36.7763 11.8433 36.6349 11.5574 36.4609 11.2922C36.1055 10.6833 35.73 10.1218 35.3564 9.64718C34.8886 9.05954 34.4154 8.59656 34.0227 8.21286C33.8033 8.01448 33.5675 7.76828 33.3344 7.53612C33.0899 7.32067 32.8424 7.12761 32.6179 7.01745C32.5859 7.00172 32.547 7.10362 32.5343 7.11331C32.5229 7.13001 32.545 7.16946 32.574 7.20759C32.816 7.52532 33.178 7.90031 33.5053 8.24551C32.4136 7.12892 31.1594 6.15222 29.7981 5.37765C29.9294 5.4182 30.0524 5.45307 30.1446 5.47922C30.4033 5.53927 30.5116 5.49692 30.2868 5.27045C30.1703 5.15437 29.9773 4.98007 29.6569 4.78628C29.3409 4.57711 28.9076 4.32473 28.3176 4.05116C27.1486 3.52375 26.5153 3.36746 25.8848 3.22521C25.2512 3.10535 24.6149 2.97144 23.3352 2.85771C22.0569 2.751 21.4145 2.81462 20.7737 2.84883C20.1396 2.91815 19.4932 2.96072 18.2446 3.24107C16.996 3.52142 16.4035 3.77192 15.8071 4.00136C15.2216 4.25053 14.6292 4.50103 13.516 5.11205C12.4055 5.73712 11.8777 6.09897 11.3403 6.44812C10.8043 6.80428 10.2805 7.1872 9.37999 8.11425C8.50583 9.06539 8.16678 9.61692 7.83209 10.1531C7.50007 10.7033 7.17373 11.2451 6.57116 12.3629C5.97561 13.4794 5.73012 14.0641 5.47627 14.6431C5.23078 15.2278 4.98396 15.8055 4.57818 17.0023C4.17943 18.1979 4.01914 18.81 3.86019 19.4292C3.71527 20.0458 3.55632 20.665 3.42722 21.9403C3.32051 23.2186 3.37011 23.8637 3.42671 24.5075C3.50437 25.1473 3.56229 25.7981 3.97868 27.0354C4.42183 28.2604 4.77497 28.8189 5.1338 29.369C5.32308 29.6385 5.51235 29.9081 5.78817 30.2121C6.05829 30.5245 6.40927 30.8798 6.94905 31.272C8.03297 32.041 8.68253 32.2451 9.30535 32.4615C9.94258 32.6389 10.6005 32.8487 11.9566 32.7516C13.3006 32.5913 13.939 32.2375 14.5071 31.8971C15.0629 31.5299 15.6331 31.1237 16.4338 30.0919C17.153 29.0902 17.0737 28.7488 16.8781 28.8296C16.843 28.8362 16.7992 28.8736 16.754 28.904C17.2002 28.1503 17.5873 27.277 17.9084 26.2853C17.9358 26.2001 17.9576 26.1232 17.9781 26.0393C18.0168 26.0902 18.0813 26.0852 18.1724 25.9516C18.4766 25.5231 18.6359 24.8674 18.8032 24.2539L19.1717 22.8605C19.4362 21.9159 19.7512 20.9689 20.2706 20.1796C21.0014 19.1247 21.5282 18.7194 22.0362 18.3686C22.2957 18.203 22.5719 18.0488 22.9259 17.9599C23.2786 17.8639 23.6934 17.8653 24.257 18.1148C24.7913 18.3626 25.0918 18.7201 25.2877 19.0248C25.4779 19.3378 25.576 19.6246 25.6375 19.9111C25.6921 20.1989 25.7256 20.4907 25.6996 20.852C25.6806 21.212 25.5782 21.6313 25.3635 22.2247C24.8979 23.3748 24.4948 23.8948 24.128 24.4152C23.7445 24.9243 23.3387 25.4303 22.399 26.3429C20.471 28.1411 20.4763 28.1692 18.5195 30.0456C17.5541 31.014 17.1171 31.5477 16.6815 32.0885C16.2696 32.6393 15.8309 33.2024 15.2532 34.49C14.7063 35.7864 14.5524 36.4701 14.3817 37.1424C14.2347 37.8248 14.082 38.5155 14.0497 39.9179C14.0385 41.3163 14.1562 42.0139 14.2573 42.7002C14.3736 43.3908 14.4887 44.0744 14.8789 45.404C15.2902 46.7296 15.5909 47.3562 15.8831 47.9771C16.1824 48.5967 16.4887 49.2149 17.1311 50.4167C17.7861 51.6088 18.1235 52.1993 18.4596 52.7828C18.8097 53.3637 19.1076 53.9763 20.0241 55.0897C20.6282 55.7824 21.3405 56.4328 22.2018 56.9094C23.0617 57.3791 24.0327 57.6677 25.0598 57.6766C25.1761 57.6764 25.2994 57.6748 25.4034 57.6478C25.8487 57.5416 25.7284 57.099 25.769 56.9676C25.7894 56.8838 25.7875 56.7969 25.7729 56.7196C26.0045 56.6757 26.2252 56.6121 26.4418 56.5274C26.6515 56.444 26.8584 56.3466 27.0474 56.2308C26.8216 56.3826 26.5963 56.4981 26.4077 56.5775C26.0265 56.7152 25.7831 56.8122 25.7938 56.8684C25.8031 56.9175 26.0006 56.9237 26.3767 56.8742C26.7457 56.8261 27.276 56.631 27.8251 56.2287C28.5676 55.6953 29.2603 54.6695 29.6245 53.5605C29.9972 52.4571 30.1091 51.3596 30.086 50.5859C30.0656 49.4043 29.8119 48.2961 29.7123 48.3078C29.6477 48.3127 29.6453 48.8368 29.6273 49.5093C29.5856 47.9464 29.3546 46.383 29.1093 44.8587C29.2226 45.1499 29.3385 45.3388 29.41 45.3325C29.5434 45.3072 29.5292 44.6191 29.4229 43.9047C29.3095 43.1917 29.1372 42.628 29.0095 42.645C28.9393 42.6583 28.8717 42.8384 28.8437 43.1128C28.6905 42.0364 28.5778 40.9815 28.5797 39.9557C28.6026 40.1914 28.6349 40.3234 28.6923 40.3198C28.8087 40.3196 28.8943 39.8888 29.0059 39.0968C29.0634 38.6714 29.2112 38.1852 29.344 37.6582C29.455 37.2081 29.6042 36.7289 29.8078 36.2685C30.0197 35.8138 30.1144 35.3159 30.3748 34.9248C30.685 34.4514 31.1395 34.1253 31.3938 33.7789C31.8753 33.1349 32.0672 32.7276 31.9867 32.6484C31.959 32.6172 31.8717 32.6556 31.7674 32.719C32.021 32.4455 32.2816 32.1707 32.5492 31.8945C32.9018 31.5295 33.2601 31.1561 33.6087 30.77C33.5729 30.8495 33.5554 30.911 33.5735 30.9294C33.6346 30.9833 34.1274 30.7444 34.5931 30.2852C34.8704 30.0218 35.1398 29.5634 35.4199 29.1613C36.2029 28.0747 36.6318 26.808 36.5049 26.7521C36.4812 26.742 36.4303 26.7807 36.3694 26.8432C36.8341 25.9188 37.2026 24.9471 37.4789 23.9494C37.4405 24.2839 37.44 24.4731 37.4791 24.4875C37.5643 24.515 37.8853 23.945 38.185 22.841C38.2508 22.574 38.3015 22.2662 38.3553 21.936C38.3937 21.6015 38.4364 21.2516 38.4822 20.8793C38.5119 20.5755 38.5402 20.2647 38.5729 19.9385C38.5902 19.608 38.5992 19.2718 38.6042 18.9145C38.5867 18.2851 38.5485 17.6233 38.4474 16.937C38.3557 16.2999 38.2671 15.6404 38.0775 14.9855L38.0585 14.9236ZM16.4898 23.6744C16.3208 24.3173 16.1675 24.9282 15.9765 25.5316C15.9992 25.2291 15.9579 25.0115 15.8894 24.9954C15.7581 24.9549 15.5139 25.5466 15.2864 26.1497C15.0603 26.7598 14.8998 27.2556 15.0211 27.3199C15.0866 27.3584 15.2391 27.2422 15.4107 27.0352C14.9295 28.0645 14.3513 28.8505 13.6747 29.386C13.8276 29.2334 13.8875 29.1275 13.8514 29.0907C13.7683 28.9974 13.4382 29.2127 12.7979 29.4795C12.4519 29.6105 12.0267 29.6693 11.5558 29.6786C11.159 29.6957 10.7122 29.6786 10.2761 29.5649C9.84837 29.4569 9.38615 29.4355 9.01399 29.2369C8.568 28.9942 8.29764 28.5655 8.02545 28.319C7.50613 27.8429 7.20054 27.5736 7.09754 27.644C7.0651 27.6647 7.06704 27.7516 7.10503 27.8753C6.6604 27.2179 6.33318 26.4509 6.11029 25.6204C6.15035 25.6783 6.18641 25.7151 6.21316 25.7027C6.29607 25.6798 6.35565 25.1885 6.32772 24.6193C6.30862 24.2884 6.20237 23.8431 6.20107 23.4143C6.17064 22.2565 6.22882 21.0673 6.10016 21.0408C6.07777 21.0378 6.0423 21.0809 5.99811 21.1547C6.14123 20.2985 6.37331 19.3746 6.70174 18.3451C6.66069 18.6656 6.66589 18.8464 6.712 18.8595C6.7972 18.887 7.06737 18.3558 7.47192 17.4209C7.66282 16.9702 7.84248 16.3835 8.12743 15.7767C8.35512 15.29 8.62796 14.7728 8.92355 14.2223C9.18066 13.7372 9.47722 13.2301 9.79484 12.719C10.0981 12.247 10.4557 11.7937 10.8178 11.3251C11.1811 10.8635 11.5208 10.3919 11.9115 9.9978C12.325 9.57034 12.7618 9.18935 13.1842 8.84746C13.6632 8.45849 14.1484 8.14106 14.5955 7.85267C15.1456 7.49384 15.6419 7.19613 16.0716 6.96922C16.5407 6.72028 17.1996 6.55173 17.5638 6.28632C17.5892 6.26696 17.5298 6.18369 17.5272 6.16965C17.5232 6.14859 17.4797 6.14955 17.4363 6.15052C17.0927 6.1793 16.6667 6.31096 16.2729 6.45835C17.5872 5.911 18.9809 5.55223 20.3922 5.40103C20.2755 5.43769 20.1672 5.48005 20.0883 5.5241C19.8712 5.64524 19.824 5.74146 20.1138 5.77379C20.4005 5.82852 21.0272 5.79697 22.1492 5.84605C23.2584 5.90482 23.8068 5.99721 24.3569 6.06018C24.9053 6.15256 25.4708 6.21989 26.5179 6.60314C27.5664 6.99342 28.0555 7.27158 28.5559 7.53304C29.0393 7.81956 29.5398 8.08102 30.4212 8.77931C31.297 9.48595 31.6923 9.88369 32.0877 10.2814C32.4717 10.6959 32.8741 11.0923 33.4967 12.036C34.1052 12.9824 34.3086 13.5183 34.4883 14.0442C34.6623 14.5785 34.8561 15.1017 35.1185 16.1792C35.3599 17.2606 35.465 17.8152 35.5408 18.3681C35.6235 18.9196 35.6879 19.4892 35.6177 20.6152C35.5028 21.7351 35.3823 22.2888 35.2395 22.8395C35.1107 23.3875 34.9511 23.9268 34.5244 24.9749C34.081 26.0117 33.7624 26.4793 33.4675 26.957C33.156 27.4233 32.8444 27.8897 32.096 28.737C30.5641 30.4382 30.478 30.3673 28.9383 32.1427C28.1879 33.0559 27.8562 33.5696 27.5456 34.0794C27.2447 34.6019 26.9381 35.1327 26.5761 36.2922C26.2435 37.4533 26.1842 38.0609 26.1082 38.6571C26.0462 39.2507 25.9938 39.8569 26.066 41.0432C26.2652 43.398 26.3718 43.385 26.775 45.6648C26.9855 46.8903 27.2073 46.9864 27.3366 46.671C27.4685 47.6351 27.5709 48.5974 27.5979 49.545C27.5478 49.5108 27.4872 49.5368 27.4353 49.6849C27.2681 50.1456 27.279 50.7399 27.213 51.3124C27.1625 51.7365 27.0756 52.1602 26.9482 52.5625C26.6975 53.3882 26.1878 54.1902 25.4069 54.3674C24.8901 54.4799 24.461 54.3649 24.1342 54.2523C23.8048 54.1257 23.5526 53.9844 23.3244 53.8168C22.8655 53.4674 22.4324 53.0623 21.7404 52.059C21.0668 51.0377 20.7865 50.48 20.5018 49.9376C20.2215 49.3799 19.9426 48.8292 19.4041 47.7532C18.8686 46.6548 18.6458 46.0934 18.423 45.532C18.2143 44.968 17.9901 44.3996 17.7161 43.2226C17.4574 42.0499 17.3807 41.4535 17.311 40.8559C17.2567 40.2626 17.1914 39.6495 17.3308 38.4668C17.5066 37.2844 17.7126 36.7218 17.9297 36.1788C18.1621 35.6403 18.3862 35.096 19.0461 34.1273C19.7381 33.1743 20.192 32.7683 20.6208 32.3452C21.0593 31.9348 21.5146 31.5358 22.4364 30.721C23.3723 29.9036 23.8389 29.4879 24.3015 29.0512C24.7641 28.6144 25.2281 28.1846 26.0912 27.2137C26.9363 26.2245 27.2784 25.6506 27.5911 25.075C27.887 24.488 28.2277 23.907 28.6176 22.6259C28.995 21.3181 28.9479 20.5707 28.9043 19.8808C28.8174 19.1919 28.7338 18.4441 27.9711 17.2215C26.9383 15.6865 25.2069 14.6476 23.2677 14.6226C23.1584 14.6215 23.0434 14.6287 22.9465 14.6544C22.5306 14.7623 22.6496 15.1979 22.6174 15.3349C22.5969 15.4188 22.6058 15.5044 22.6135 15.5829C22.1782 15.6654 21.7633 15.8168 21.3647 16.016C22.0509 15.6459 22.6028 15.5267 22.5855 15.4355C22.5836 15.3486 21.7658 15.2927 20.6754 15.8704C19.9471 16.2484 19.1383 16.969 18.4684 17.8087C17.7946 18.6273 17.3031 19.5641 17.0833 20.2457C16.7295 21.2946 16.6069 22.3359 16.7062 22.3607C16.776 22.3838 16.9532 21.8994 17.1947 21.2936C16.9246 22.0939 16.7064 22.8988 16.4995 23.6871L16.4898 23.6744Z" fill="#A6A6A6" fill-opacity="0.47"/>
<path d="M36.0717 68.0026C36.0357 67.8131 36.0025 67.6376 35.9438 67.4814C35.8784 67.2902 35.789 67.1253 35.7132 66.9943C35.6348 66.8491 35.651 66.6279 35.4683 66.5462C35.4529 66.5418 35.3657 66.5802 35.3516 66.5828C35.3306 66.5868 35.3262 66.6022 35.3218 66.6176C35.2729 66.7432 35.2969 66.8696 35.3125 66.9902C35.1919 66.584 35.0528 66.1959 34.8813 65.8284C34.9217 65.8498 34.9622 65.8713 35.0013 65.8857C35.2011 65.9423 35.3874 65.8125 35.1209 65.1358C34.836 64.4771 34.7176 64.5432 34.2776 63.9866C33.7981 63.4521 33.7797 63.4701 33.2293 63.0218C32.6421 62.6095 32.6023 62.668 31.9635 62.3673C31.3116 62.1127 31.3525 61.945 30.6407 61.7963C29.9229 61.6924 29.9087 61.8478 29.2122 61.8562C28.5096 61.9095 28.5083 61.9024 27.8173 62.0553C27.1413 62.2489 27.1329 62.2432 26.4967 62.5311C25.8754 62.8598 25.874 62.8527 25.3038 63.259C24.753 63.6907 24.735 63.6723 24.2382 64.1592C23.7595 64.6645 23.7164 64.629 23.2905 65.1825C22.8896 65.753 22.9313 65.7814 22.635 66.4049C22.4829 66.7537 22.6583 66.8731 22.8615 66.871C22.7343 67.1205 22.6071 67.3701 22.4966 67.631C22.4535 67.5956 22.399 67.5768 22.3288 67.5901C22.1139 67.6454 22.0602 67.8228 22.0039 67.9862C21.9621 68.1105 21.9202 68.2348 21.8796 68.3661C21.8068 68.6345 21.7384 68.8874 21.6657 69.1557C21.5655 69.5093 21.5259 69.684 21.4946 69.8645C21.4564 70.0463 21.4251 70.2267 21.3697 70.5863C21.2825 71.3155 21.1368 71.3141 21.1348 72.0708C21.1692 72.8278 21.2057 72.8282 21.3481 73.5793C21.434 73.9558 21.5247 74.1276 21.6225 74.2982C21.7133 74.47 21.8027 74.6349 21.9632 74.9826C22.3025 75.6601 22.2447 75.7001 22.684 76.3295C23.1614 76.9299 23.1005 76.9923 23.6613 77.5332C23.9572 77.7899 24.1044 77.9146 24.2701 78.0214C24.4301 78.1365 24.5831 78.253 24.9259 78.4498C25.61 78.8364 25.6572 78.7402 26.3873 79.0236C27.1348 79.2455 27.1183 79.3504 27.9173 79.4607C28.4283 79.5093 28.9481 79.5271 29.4685 79.4721C29.4966 79.4668 29.5247 79.4614 29.5514 79.4491C29.6531 79.3716 29.5649 78.9447 29.5536 78.8087C29.546 78.7301 29.5371 78.6446 29.5224 78.5674C29.6418 78.5447 29.7611 78.5221 29.8848 78.4841C29.6835 78.5732 29.5344 78.6305 29.5504 78.7148C29.569 78.8131 29.8049 78.9065 30.1639 78.8821C30.3995 78.8592 30.6991 78.7515 30.9806 78.6254C31.2705 78.505 31.5367 78.3746 31.6966 78.2206C31.9454 77.9989 32.1068 77.6992 32.0473 77.616C32.0073 77.5581 31.8498 77.6098 31.6669 77.6808C32.0167 77.4545 32.3612 77.2001 32.6836 76.9063C32.6672 77.0112 32.6801 77.1178 32.7356 77.18C32.82 77.2804 33.028 77.2264 33.1822 77.0808C33.3294 76.9366 33.3746 76.7534 33.2775 76.6628C33.2234 76.6076 33.1171 76.5841 33.0175 76.5957C33.2256 76.389 33.4226 76.1626 33.6183 75.9291C33.5825 76.0086 33.5721 76.0688 33.6235 76.1099C33.7097 76.1809 33.8738 76.1643 34.0658 76.0261C34.1674 75.9486 34.3139 75.8772 34.4287 75.7537C34.518 75.6495 34.5866 75.5128 34.6706 75.3805C34.7476 75.2496 34.6796 75.0443 34.7368 74.9244C34.8041 74.7807 35.0024 74.714 35.0386 74.5981C35.097 74.3688 35.0049 74.19 34.9086 74.1427C34.8682 74.1213 34.8261 74.1293 34.784 74.1373C34.8898 73.9282 34.9859 73.7063 35.0737 73.4788C35.0944 73.5112 35.1067 73.538 35.1304 73.548C35.2086 73.5768 35.4389 73.5259 35.5624 73.3716C35.6263 73.2867 35.6097 73.1226 35.6446 72.9996C35.7615 72.6575 35.6659 72.2684 35.5373 72.2418C35.5149 72.2388 35.4811 72.2525 35.4474 72.2662C35.5118 71.9922 35.5692 71.7195 35.6098 71.4354C35.6509 71.5367 35.6993 71.6003 35.744 71.6063C35.8336 71.6184 35.9724 71.4685 36.0763 71.1724C36.1296 71.0314 36.1077 70.8392 36.1433 70.6434C36.1715 70.4853 36.2251 70.3079 36.2326 70.1174C36.2442 69.948 36.2613 69.7702 36.2618 69.581C36.258 69.4072 36.2892 69.2267 36.2827 69.0389C36.2621 68.8537 36.1994 68.6765 36.1745 68.5067C36.154 68.3215 36.1137 68.1474 36.0747 67.9802L36.0717 68.0026ZM33.1375 72.5877C33.0143 72.4366 32.8239 72.429 32.5749 72.8035C32.3149 73.1582 32.4305 73.2309 32.1925 73.625C31.9378 74.0078 31.9628 74.0249 31.6831 74.3907C31.3924 74.7367 31.4381 74.7862 31.114 75.1094C30.7718 75.4143 30.6653 75.2745 30.3111 75.5162C29.946 75.7381 30.016 75.8776 29.6038 76.043C29.3915 76.1123 29.2889 76.1463 29.1822 76.1593C29.0769 76.1792 28.9743 76.2132 28.7584 76.2251C28.3265 76.2488 28.3225 76.2277 27.8901 76.1715C27.4593 76.0859 27.4637 76.0706 27.0434 75.9248C26.6388 75.747 26.6475 75.7163 26.27 75.4897C25.8969 75.2477 25.9437 75.1879 25.6117 74.8945C25.2995 74.5901 25.2557 74.6275 24.9478 74.3077C24.7828 74.1281 24.5969 74.2215 24.4932 74.3648C24.3814 74.1969 24.2822 74.0194 24.1888 73.8334C24.245 73.8228 24.2901 73.7924 24.3299 73.734C24.445 73.574 24.3689 73.4793 24.3336 73.3697C24.3036 73.2881 24.2666 73.2078 24.2295 73.1276C24.1682 72.9574 24.0998 72.7886 24.0792 72.6034C24.0238 72.1194 24.0155 72.1137 24.0246 71.6247C24.0618 71.1304 24.2018 71.1402 24.2865 70.666C24.3851 70.1892 24.3544 70.1804 24.4991 69.7167C24.6593 69.2572 24.542 69.214 24.74 68.762C24.9532 68.3143 25.0174 68.3458 25.2654 67.9278C25.5288 67.5143 25.5956 67.5598 25.888 67.1844C26.1888 66.8146 26.1805 66.809 26.5103 66.4774C26.8512 66.1655 26.7847 66.0835 27.163 65.8155C27.5522 65.5671 27.6033 65.6447 27.9918 65.4692C28.2382 65.3498 28.5037 65.2922 28.7674 65.264C28.7815 65.2614 28.7955 65.2587 28.8069 65.242C28.8511 65.1682 28.7628 64.7413 28.7446 64.6066C28.7299 64.5293 28.714 64.4451 28.6993 64.3679C28.6993 64.3679 28.6993 64.3679 28.7063 64.3666C28.8257 64.3439 28.945 64.3213 29.0683 64.3197C28.8617 64.3807 28.717 64.4227 28.7343 64.514C28.7543 64.6193 28.9142 64.7344 29.1351 64.7871C29.2818 64.832 29.4604 64.7763 29.6535 64.7979C29.844 64.8054 30.0188 64.845 30.1522 64.8197C30.3558 64.7811 30.5878 64.7007 30.6209 64.6072C30.6384 64.5457 30.5592 64.4734 30.4533 64.4135C30.7511 64.488 31.026 64.5958 31.2839 64.7287C31.2024 64.7587 31.1331 64.8155 31.1017 64.8796C31.0444 64.9996 31.1004 65.1417 31.2063 65.2016C31.3066 65.2699 31.447 65.2432 31.5293 65.1404C31.5691 65.0819 31.5965 64.9967 31.5876 64.9111C31.7546 65.0249 31.9173 65.1541 32.0686 65.2999C32.0211 65.2798 31.9777 65.2808 31.9352 65.3252C31.8559 65.4057 31.8391 65.5471 31.8951 65.6892C31.9251 65.7707 31.9324 65.8857 31.9777 65.9717C32.0205 66.0435 32.097 66.1018 32.148 66.1794C32.2061 66.2556 32.3913 66.235 32.4481 66.3043C32.5215 66.3849 32.4358 66.5466 32.504 66.5991C32.6249 66.6998 32.8 66.703 32.9 66.6549C32.9337 66.6413 32.9481 66.6022 32.9722 66.5758C33.0533 66.735 33.1331 66.8871 33.1944 67.0573C33.165 67.0556 33.1343 67.0469 33.1075 67.0592C33.026 67.0892 32.8814 67.2475 32.8633 67.3819C32.8485 67.4574 32.9487 67.5256 32.9717 67.6086C33.0367 67.8362 33.2618 68.0263 33.3952 68.001C33.4232 67.9957 33.4403 67.9706 33.4657 67.9512C33.51 68.1465 33.5403 68.3444 33.5788 68.5479C33.5177 68.4941 33.4549 68.4696 33.4128 68.4776C33.3286 68.4936 33.2235 68.6298 33.1976 68.8384C33.1811 68.9433 33.2248 69.0587 33.222 69.1974C33.2139 69.308 33.186 69.4296 33.1736 69.5556C33.1668 69.6733 33.16 69.7909 33.1532 69.9086C33.1451 70.0192 33.1089 70.1351 33.1034 70.2598C33.0967 70.3774 33.1347 70.5011 33.1336 70.6104C33.1351 70.7338 33.113 70.847 33.1132 70.9634C33.1148 71.0867 33.0856 71.2013 33.0775 71.3119C33.0734 71.4436 33.1057 71.5757 33.1103 71.6766C33.1175 71.7916 33.0155 71.9055 33.1334 72.0286C33.1347 72.0356 33.241 72.0591 33.2563 72.0634C33.2717 72.0678 33.2914 72.0568 33.2984 72.0554C33.3927 72.0157 33.4286 71.9362 33.4657 71.8637C33.397 72.1531 33.3115 72.4311 33.2093 72.6978C33.1956 72.664 33.175 72.6315 33.1556 72.6061L33.1375 72.5877Z" fill="#A6A6A6" fill-opacity="0.47"/>
</svg>
