<svg width="11" height="9" viewBox="0 0 11 9" fill="none" xmlns="http://www.w3.org/2000/svg">
<path d="M6.66764 8.79269C6.66875 8.79161 6.66984 8.7905 6.67095 8.78939L10.0818 5.38305C10.1087 5.35598 10.1326 5.32608 10.1531 5.29387L10.2066 5.19579L10.2289 5.12891L10.2289 5.07986C10.2427 5.0047 10.2427 4.92765 10.2289 4.85247L10.2289 4.80789L10.2289 4.75439L10.1888 4.67859C10.1658 4.63635 10.1373 4.59735 10.1041 4.56266L6.67095 1.14294C6.44377 0.913939 6.07395 0.912455 5.84495 1.13963C5.84385 1.14072 5.84276 1.14183 5.84165 1.14294C5.62141 1.37377 5.62141 1.73692 5.84165 1.96778L7.87476 4.00535C7.96095 4.09325 7.95958 4.23441 7.87165 4.3206C7.83075 4.3607 7.77599 4.38353 7.71871 4.38432L1.07988 4.38432C0.757298 4.3843 0.495782 4.64577 0.495761 4.96836C0.49574 5.29094 0.757214 5.55244 1.0798 5.55248L1.07988 5.55248L7.71871 5.55248C7.84181 5.55422 7.94022 5.65541 7.93849 5.77851C7.93767 5.83578 7.91487 5.89055 7.87476 5.93146L5.84165 7.96012C5.61857 8.19154 5.61857 8.55799 5.84165 8.78941C6.06883 9.01841 6.43865 9.01989 6.66764 8.79269Z" fill="white"/>
</svg>
