<svg width="33" height="37" viewBox="0 0 33 37" fill="none" xmlns="http://www.w3.org/2000/svg">
<path d="M27.4999 36.6667C25.9721 36.6667 24.6735 36.1319 23.604 35.0625C22.5346 33.9931 21.9999 32.6944 21.9999 31.1667C21.9999 30.9528 22.0152 30.7309 22.0457 30.5012C22.0763 30.2714 22.1221 30.0654 22.1832 29.8833L9.25821 22.3667C8.73877 22.825 8.15821 23.1843 7.51654 23.4447C6.87488 23.705 6.20266 23.8346 5.49988 23.8333C3.9721 23.8333 2.67349 23.2986 1.60404 22.2292C0.5346 21.1597 -0.00012207 19.8611 -0.00012207 18.3333C-0.00012207 16.8056 0.5346 15.5069 1.60404 14.4375C2.67349 13.3681 3.9721 12.8333 5.49988 12.8333C6.20266 12.8333 6.87488 12.9635 7.51654 13.2238C8.15821 13.4842 8.73877 13.8429 9.25821 14.3L22.1832 6.78333C22.1221 6.6 22.0763 6.39406 22.0457 6.1655C22.0152 5.93694 21.9999 5.71511 21.9999 5.5C21.9999 3.97222 22.5346 2.67361 23.604 1.60417C24.6735 0.534722 25.9721 0 27.4999 0C29.0277 0 30.3263 0.534722 31.3957 1.60417C32.4652 2.67361 32.9999 3.97222 32.9999 5.5C32.9999 7.02778 32.4652 8.32639 31.3957 9.39583C30.3263 10.4653 29.0277 11 27.4999 11C26.7971 11 26.1249 10.8704 25.4832 10.6113C24.8415 10.3522 24.261 9.99289 23.7415 9.53333L10.8165 17.05C10.8777 17.2333 10.9235 17.4399 10.954 17.6697C10.9846 17.8994 10.9999 18.1207 10.9999 18.3333C10.9999 18.546 10.9846 18.7678 10.954 18.9988C10.9235 19.2298 10.8777 19.4358 10.8165 19.6167L23.7415 27.1333C24.261 26.675 24.8415 26.3163 25.4832 26.0572C26.1249 25.7981 26.7971 25.6679 27.4999 25.6667C29.0277 25.6667 30.3263 26.2014 31.3957 27.2708C32.4652 28.3403 32.9999 29.6389 32.9999 31.1667C32.9999 32.6944 32.4652 33.9931 31.3957 35.0625C30.3263 36.1319 29.0277 36.6667 27.4999 36.6667Z" fill="white"/>
</svg>
