<svg width="1600" height="842" viewBox="0 0 1600 842" fill="none" xmlns="http://www.w3.org/2000/svg">
<path d="M1567.02 791.04C1568.17 791.666 1569.95 792.475 1572.12 793.471C1580.48 797.163 1594.26 803.332 1597.29 809.028C1598.66 811.598 1597.99 814.012 1594.14 816.062L1551.66 838.659C1547.56 840.836 1545.11 840.085 1543.83 837.678C1541.43 833.178 1543.2 822.966 1544.39 816.467C1544.67 814.669 1544.92 813.202 1544.96 812.14L1546.05 802.185L1534.52 780.515C1534.4 780.277 1534.51 779.905 1534.75 779.775L1554.74 769.14C1554.98 769.014 1555.35 769.122 1555.48 769.366L1567.01 791.044L1567.02 791.04ZM1571.71 794.425C1569.32 793.428 1567.43 792.584 1566.4 792C1566.27 791.962 1566.11 791.849 1566.06 791.767L1554.74 770.484L1535.79 780.565L1547.11 801.842C1547.15 801.924 1547.19 802.005 1547.2 802.205L1546.15 812.241C1546.01 813.343 1545.76 814.81 1545.41 816.655C1544.35 822.985 1542.65 832.958 1544.87 837.132C1545.85 838.974 1547.78 839.501 1551.15 837.707L1593.63 815.11C1596.76 813.443 1597.36 811.479 1596.33 809.555C1593.47 804.178 1579.85 798.132 1571.71 794.425Z" fill="#509DD7" fill-opacity="0.69"/>
<path d="M1528.49 776.313L1555.38 762.004C1555.62 761.878 1555.99 761.986 1556.12 762.23L1558.94 767.532C1559.11 767.852 1559.01 768.223 1558.76 768.353L1531.86 782.662C1531.63 782.789 1531.25 782.681 1531.08 782.355L1528.26 777.052C1528.13 776.815 1528.24 776.443 1528.49 776.313ZM1555.33 763.27L1529.48 777.022L1531.79 781.359L1557.64 767.607L1555.33 763.27Z" fill="#509DD7" fill-opacity="0.69"/>
<path d="M1553.36 814.171C1554.01 813.827 1554.77 813.725 1555.39 813.913C1556.13 814.139 1556.66 814.576 1557.05 815.297C1557.39 815.936 1557.45 816.627 1557.22 817.366C1557.04 817.98 1556.57 818.647 1555.92 818.99C1555.28 819.334 1554.47 819.354 1553.85 819.16C1553.11 818.934 1552.57 818.506 1552.23 817.861C1551.84 817.14 1551.79 816.446 1552.01 815.706C1552.2 815.092 1552.71 814.514 1553.36 814.171ZM1555.1 815.105C1554.68 814.905 1554.28 814.923 1553.87 815.136C1553.47 815.349 1553.24 815.682 1553.12 816.05C1553.06 816.503 1553.06 816.91 1553.28 817.311C1553.45 817.63 1553.82 817.944 1554.19 818.063C1554.56 818.181 1554.97 818.163 1555.37 817.95C1555.77 817.737 1556.01 817.4 1556.12 817.036C1556.23 816.671 1556.18 816.183 1556.01 815.857C1555.8 815.456 1555.46 815.223 1555.1 815.105Z" fill="#509DD7" fill-opacity="0.69"/>
<path d="M1556.6 795.657C1557.24 795.317 1558.01 795.212 1558.67 795.481C1559.37 795.625 1559.95 796.138 1560.29 796.783C1560.63 797.429 1560.73 798.195 1560.47 798.853C1560.32 799.549 1559.81 800.126 1559.16 800.47C1558.52 800.813 1557.75 800.915 1557.09 800.646C1556.4 800.502 1555.82 799.989 1555.48 799.344C1555.13 798.698 1555.03 797.932 1555.3 797.275C1555.44 796.579 1555.96 796.001 1556.6 795.657ZM1558.33 796.595C1557.97 796.484 1557.55 796.494 1557.15 796.708C1556.75 796.921 1556.51 797.258 1556.4 797.622C1556.29 797.987 1556.3 798.4 1556.51 798.801C1556.73 799.202 1557.06 799.441 1557.43 799.553C1557.79 799.664 1558.21 799.654 1558.61 799.44C1559.01 799.227 1559.24 798.894 1559.36 798.526C1559.47 798.161 1559.46 797.748 1559.25 797.347C1559.03 796.946 1558.7 796.713 1558.33 796.595Z" fill="#509DD7" fill-opacity="0.69"/>
<path d="M1564.82 805.294C1565.46 804.951 1566.23 804.849 1566.85 805.043C1567.5 805.312 1568.12 805.7 1568.51 806.427C1568.85 807.066 1568.83 807.8 1568.68 808.496C1568.5 809.111 1568.03 809.77 1567.38 810.114C1566.73 810.457 1565.93 810.478 1565.31 810.29C1564.57 810.064 1564.03 809.626 1563.69 808.987C1563.31 808.267 1563.25 807.576 1563.47 806.837C1563.66 806.222 1564.17 805.638 1564.82 805.294ZM1566.55 806.229C1566.14 806.036 1565.73 806.046 1565.33 806.259C1564.93 806.473 1564.7 806.806 1564.58 807.174C1564.51 807.62 1564.52 808.026 1564.73 808.427C1564.9 808.747 1565.28 809.061 1565.65 809.179C1566.01 809.297 1566.42 809.28 1566.82 809.067C1567.22 808.853 1567.46 808.517 1567.58 808.152C1567.69 807.788 1567.64 807.3 1567.46 806.974C1567.25 806.573 1566.92 806.34 1566.55 806.222L1566.55 806.229Z" fill="#509DD7" fill-opacity="0.69"/>
<path d="M1198.85 86.1565L1216.7 88.0355C1216.9 88.0447 1217.08 88.2494 1217.15 88.4125L1224.43 104.788C1224.53 105.025 1224.52 105.225 1224.4 105.376L1213.83 119.879C1213.7 120.033 1213.54 120.102 1213.34 120.093L1195.49 118.214C1195.26 118.123 1195.03 118.036 1194.96 117.873L1187.69 101.498C1187.58 101.26 1187.67 101.025 1187.79 100.874L1198.37 86.3708C1198.49 86.2168 1198.65 86.1474 1198.85 86.1565ZM1207.64 88.2102L1199.03 87.2304L1188.83 101.274L1195.89 117.173L1213.12 118.947L1223.35 104.978L1216.29 89.0791L1207.64 88.2102Z" fill="#509DD7" fill-opacity="0.69"/>
<path d="M1223.94 104.334L1241.79 106.213C1242.03 106.304 1242.17 106.427 1242.24 106.59L1249.51 122.965C1249.62 123.203 1249.61 123.403 1249.49 123.554L1238.91 138.056C1238.79 138.21 1238.63 138.28 1238.43 138.271L1220.58 136.392C1220.38 136.383 1220.2 136.178 1220.13 136.015L1212.86 119.64C1212.75 119.402 1212.76 119.202 1212.88 119.051L1223.46 104.549C1223.58 104.395 1223.74 104.325 1223.94 104.334ZM1232.73 106.388L1224.16 105.483L1213.92 119.452L1220.98 135.351L1238.24 137.2L1248.44 123.156L1241.38 107.257L1232.73 106.388Z" fill="#509DD7" fill-opacity="0.69"/>
<path d="M1227.2 73.3779L1245.08 75.3347C1245.28 75.3438 1245.42 75.4738 1245.49 75.6301L1252.77 92.0051C1252.87 92.243 1252.86 92.4424 1252.74 92.5934L1242.17 107.093C1242.05 107.247 1241.88 107.32 1241.69 107.308L1223.85 105.425C1223.65 105.416 1223.5 105.293 1223.39 105.049L1216.12 88.6735C1216.02 88.4356 1216.03 88.2362 1216.15 88.0852L1226.72 73.5922C1226.84 73.4382 1227 73.3688 1227.2 73.3779ZM1236.08 75.3924L1227.42 74.5236L1217.19 88.4926L1224.25 104.392L1241.51 106.24L1251.71 92.1966L1244.65 76.2974L1236.08 75.3924Z" fill="#509DD7" fill-opacity="0.69"/>
<path d="M1200.87 90.0668C1201.04 89.798 1201.4 89.7347 1201.66 89.91C1201.85 90.1116 1201.92 90.4741 1201.75 90.7361L1192.73 103.106C1192.56 103.375 1192.28 103.402 1192.02 103.227C1191.75 103.061 1191.69 102.699 1191.86 102.427L1200.88 90.0638L1200.87 90.0668Z" fill="#509DD7" fill-opacity="0.69"/>
<path d="M1228.7 78.2847C1228.43 78.3088 1228.21 78.0256 1228.26 77.7182C1228.31 77.4079 1228.6 77.1844 1228.83 77.2683L1244.13 78.8309C1244.37 78.9216 1244.55 79.1263 1244.58 79.4042C1244.52 79.7146 1244.24 79.938 1243.96 79.9651L1228.69 78.281L1228.7 78.2847Z" fill="#509DD7" fill-opacity="0.69"/>
<path d="M1225.01 109.138C1224.78 109.047 1224.6 108.842 1224.57 108.571C1224.63 108.261 1224.91 108.038 1225.19 108.01L1240.45 109.691C1240.72 109.667 1240.94 109.95 1240.9 110.264C1240.84 110.575 1240.55 110.798 1240.33 110.711L1225.02 109.145L1225.01 109.138Z" fill="#509DD7" fill-opacity="0.69"/>
<path d="M80.4184 784.603L79.8285 785.205L51.5643 757.512C51.2312 757.186 50.6987 757.192 50.3725 757.525L45.6602 762.334C45.334 762.667 45.3394 763.2 45.6724 763.526C46.0054 763.852 46.5379 763.847 46.8642 763.514L50.9897 759.303L78.6521 786.406L66.404 798.907C65.4629 799.867 64.7427 801.057 64.3219 802.377C63.987 803.417 63.4072 804.374 62.6448 805.152L55.8243 812.113C55.0651 812.888 54.1171 813.491 53.0462 813.86C51.7701 814.304 50.5984 815.045 49.6572 816.006L37.4092 828.506L9.7437 801.4L13.8692 797.189C14.1955 796.856 14.1901 796.324 13.8571 795.998C13.5241 795.671 12.9916 795.677 12.6653 796.01L7.95306 800.819C7.62678 801.152 7.63222 801.685 7.96523 802.011L36.2295 829.704L35.6397 830.306C34.664 831.302 34.6835 832.902 35.6762 833.875L36.8801 835.055C38.5388 836.68 41.2076 836.652 42.8327 834.994L85.2553 791.696C86.8804 790.037 86.8531 787.368 85.1945 785.743L83.9905 784.564C82.9979 783.591 81.3941 783.608 80.4215 784.6L80.4184 784.603ZM84.0117 786.951C85.0044 787.923 85.0207 789.527 84.0482 790.52L41.6256 833.817C40.6499 834.813 39.0492 834.826 38.0566 833.854L36.8526 832.674C36.5228 832.351 36.5142 831.815 36.8405 831.482L50.8548 817.179C51.614 816.404 52.562 815.802 53.6329 815.432C54.909 814.988 56.0807 814.247 57.0219 813.287L63.8424 806.325C64.7836 805.365 65.5037 804.175 65.9276 802.852C66.2625 801.812 66.8424 800.855 67.6047 800.077L81.6191 785.774C81.9422 785.444 82.4778 785.435 82.8108 785.761L84.0148 786.941L84.0117 786.951Z" fill="#509DD7" fill-opacity="0.4"/>
<path d="M14.5046 801.351L16.2709 799.549C16.5971 799.216 16.5917 798.683 16.2587 798.357C15.9257 798.031 15.3932 798.036 15.0669 798.369L12.7108 800.774C12.3845 801.107 12.3899 801.639 12.723 801.966L36.7766 825.533C37.1064 825.856 37.6421 825.854 37.9684 825.521L75.6787 787.032C76.005 786.699 75.9995 786.167 75.6665 785.841L51.6129 762.273C51.2799 761.947 50.7474 761.952 50.4211 762.285L48.065 764.69C47.7387 765.023 47.7441 765.556 48.0772 765.882C48.4102 766.208 48.9427 766.203 49.2689 765.87L51.0352 764.067L73.8881 786.458L37.3574 823.742L14.5046 801.351Z" fill="#509DD7" fill-opacity="0.4"/>
<path d="M51.0047 819.434L39.221 831.461C38.8947 831.794 38.9001 832.327 39.2331 832.653C39.5662 832.979 40.0987 832.974 40.4249 832.641L52.2086 820.614C52.5349 820.281 52.5295 819.749 52.1965 819.422C51.8634 819.096 51.3309 819.101 51.0047 819.434Z" fill="#509DD7" fill-opacity="0.4"/>
<path d="M66.1538 787.133C66.4801 786.8 66.4747 786.267 66.1416 785.941L34.8706 755.302C34.7105 755.145 34.4941 755.059 34.2722 755.061L24.7506 755.158C24.5287 755.16 24.3141 755.251 24.1572 755.412L0.589812 779.465C0.263533 779.798 0.26897 780.331 0.601981 780.657L36.6824 816.008C37.0122 816.331 37.5479 816.329 37.8742 815.996C38.2005 815.663 38.1951 815.13 37.862 814.804L2.38359 780.043L24.7745 757.19L28.9851 761.315C29.3182 761.642 29.8507 761.636 30.1769 761.303L34.3025 757.093L64.9715 787.142C65.3013 787.465 65.837 787.463 66.1633 787.13L66.1538 787.133ZM29.5564 759.522L26.7995 756.821L32.2608 756.762L29.5564 759.522Z" fill="#509DD7" fill-opacity="0.4"/>
<path d="M23.099 768.521C23.4253 768.188 23.4199 767.655 23.0868 767.329C22.7538 767.003 22.2213 767.008 21.895 767.341L17.1828 772.151C16.8565 772.484 16.862 773.016 17.195 773.342C17.528 773.669 18.0605 773.663 18.3868 773.33L23.099 768.521Z" fill="#509DD7" fill-opacity="0.4"/>
<path d="M33.7792 764.839L14.924 784.083C14.5978 784.416 14.6032 784.949 14.9362 785.275C15.2692 785.601 15.8017 785.596 16.128 785.263L34.9832 766.019C35.3094 765.686 35.304 765.153 34.971 764.827C34.638 764.501 34.1055 764.506 33.7792 764.839Z" fill="#509DD7" fill-opacity="0.4"/>
<path d="M38.5888 769.552L19.7336 788.796C19.4073 789.129 19.4128 789.662 19.7458 789.988C20.0788 790.314 20.6113 790.309 20.9376 789.976L39.7927 770.732C40.119 770.399 40.1136 769.866 39.7806 769.54C39.4475 769.214 38.915 769.219 38.5888 769.552Z" fill="#509DD7" fill-opacity="0.4"/>
<path d="M43.4013 774.267L24.5462 793.511C24.2199 793.844 24.2253 794.377 24.5583 794.703C24.8914 795.029 25.4239 795.024 25.7501 794.691L44.6053 775.446C44.9316 775.113 44.9261 774.581 44.5931 774.255C44.2601 773.928 43.7276 773.934 43.4013 774.267Z" fill="#509DD7" fill-opacity="0.4"/>
<path d="M48.211 778.98L29.3558 798.224C29.0295 798.557 29.035 799.089 29.368 799.416C29.701 799.742 30.2335 799.737 30.5598 799.404L49.4149 780.159C49.7412 779.826 49.7358 779.294 49.4027 778.968C49.0697 778.641 48.5372 778.647 48.211 778.98Z" fill="#509DD7" fill-opacity="0.4"/>
<path d="M53.0235 783.695L34.1684 802.939C33.8421 803.272 33.8475 803.804 34.1805 804.131C34.5135 804.457 35.046 804.451 35.3723 804.118L54.2275 784.874C54.5538 784.541 54.5483 784.009 54.2153 783.682C53.8823 783.356 53.3498 783.362 53.0235 783.695Z" fill="#509DD7" fill-opacity="0.4"/>
<path d="M510.659 71.9271C512.288 73.8476 515.177 74.0844 517.098 72.4548L544.957 48.8158C546.877 47.1862 547.114 44.2972 545.485 42.3767L516.781 8.54961C515.617 7.17746 515.786 5.11597 517.158 3.95166C518.53 2.78736 520.592 2.95628 521.756 4.32844C522.92 5.70059 522.752 7.76208 521.379 8.92639L520.383 9.77152C520.111 10.003 520.074 10.4166 520.308 10.6921C520.542 10.9676 520.953 11.0013 521.229 10.7675L522.225 9.92239C524.145 8.29281 524.382 5.4038 522.752 3.48331C521.123 1.56282 518.234 1.32608 516.313 2.95566L486.462 28.2849C484.542 29.9145 484.305 32.8035 485.934 34.724L510.419 63.579C510.65 63.8519 511.064 63.8882 511.339 63.6545C511.615 63.4207 511.648 63.0094 511.415 62.7339L486.93 33.8789C485.766 32.5067 485.935 30.4453 487.307 29.2809L514.724 6.0173C514.615 7.19883 514.958 8.41993 515.785 9.39474L544.491 43.2245C545.655 44.5966 545.486 46.6581 544.114 47.8224C542.742 48.9867 540.68 48.8178 539.516 47.4456C539.138 47.0006 538.886 46.4673 538.79 45.9023C538.674 45.2397 538.212 44.7064 537.563 44.4733C536.869 44.2242 536.091 44.3601 535.535 44.8321L511.189 65.4907C509.268 67.1203 509.031 70.0093 510.661 71.9298L510.659 71.9271ZM537.505 46.1224C537.649 46.9156 537.992 47.6634 538.52 48.2859C539.348 49.2607 540.496 49.7985 541.677 49.8854L516.253 71.4588C514.881 72.6231 512.819 72.4542 511.655 71.082C510.49 69.7098 510.659 67.6484 512.032 66.4841L536.378 45.8255C536.736 45.522 537.417 45.6321 537.502 46.1246L537.505 46.1224Z" fill="#509DD7" fill-opacity="0.49"/>
<path d="M507.748 17.0667L495.809 27.1971C495.536 27.4286 495.5 27.8421 495.733 28.1176C495.967 28.3931 496.378 28.4268 496.654 28.1931L508.593 18.0627C508.866 17.8312 508.902 17.4176 508.668 17.1421C508.434 16.8666 508.023 16.8329 507.748 17.0667Z" fill="#509DD7" fill-opacity="0.49"/>
<path d="M495.825 38.31C496.059 38.5855 496.47 38.6192 496.745 38.3854L510.676 26.5648C510.949 26.3333 510.985 25.9197 510.752 25.6442C510.518 25.3688 510.107 25.3351 509.831 25.5688L495.9 37.3894C495.628 37.621 495.591 38.0345 495.825 38.31Z" fill="#509DD7" fill-opacity="0.49"/>
<path d="M517.788 18.8153L511.818 23.8816C511.545 24.1131 511.508 24.5267 511.742 24.8022C511.976 25.0777 512.387 25.1114 512.663 24.8776L518.633 19.8113C518.906 19.5798 518.943 19.1663 518.709 18.8908C518.475 18.6153 518.064 18.5816 517.788 18.8153Z" fill="#509DD7" fill-opacity="0.49"/>
<path d="M500.122 42.364L508.082 35.6096C508.355 35.3781 508.391 34.9646 508.157 34.6891C507.923 34.4136 507.512 34.3799 507.237 34.6136L499.277 41.368C499.004 41.5995 498.967 42.013 499.201 42.2885C499.435 42.564 499.846 42.5977 500.122 42.364Z" fill="#509DD7" fill-opacity="0.49"/>
<path d="M521.167 22.7981L509.228 32.9285C508.955 33.16 508.919 33.5736 509.153 33.8491C509.387 34.1246 509.798 34.1583 510.073 33.9245L522.012 23.7941C522.285 23.5626 522.321 23.1491 522.088 22.8736C521.854 22.5981 521.443 22.5644 521.167 22.7981Z" fill="#509DD7" fill-opacity="0.49"/>
<path d="M503.5 46.3454L517.431 34.5248C517.703 34.2933 517.74 33.8797 517.506 33.6042C517.272 33.3287 516.861 33.295 516.585 33.5288L502.655 45.3494C502.382 45.5809 502.345 45.9945 502.579 46.27C502.813 46.5455 503.224 46.5792 503.5 46.3454Z" fill="#509DD7" fill-opacity="0.49"/>
<path d="M506.876 50.3239L512.847 45.2576C513.119 45.0261 513.156 44.6125 512.922 44.3371C512.688 44.0616 512.277 44.0279 512.001 44.2616L506.031 49.3279C505.758 49.5594 505.722 49.973 505.955 50.2485C506.189 50.524 506.6 50.5577 506.876 50.3239Z" fill="#509DD7" fill-opacity="0.49"/>
<path d="M527.919 30.7553L513.988 42.576C513.715 42.8075 513.679 43.221 513.913 43.4965C514.146 43.772 514.558 43.8057 514.833 43.572L528.764 31.7513C529.037 31.5198 529.073 31.1063 528.84 30.8308C528.606 30.5553 528.194 30.5216 527.919 30.7553Z" fill="#509DD7" fill-opacity="0.49"/>
<path d="M510.252 54.3024L532.14 35.7297C532.413 35.4982 532.449 35.0847 532.216 34.8092C531.982 34.5337 531.571 34.5 531.295 34.7337L509.407 53.3064C509.134 53.5379 509.098 53.9515 509.331 54.227C509.565 54.5025 509.976 54.5362 510.252 54.3024Z" fill="#509DD7" fill-opacity="0.49"/>
<path d="M513.63 58.2839L529.55 44.7752C529.823 44.5437 529.859 44.1302 529.626 43.8547C529.392 43.5792 528.981 43.5455 528.705 43.7792L512.785 57.2879C512.512 57.5194 512.476 57.933 512.71 58.2085C512.943 58.4839 513.355 58.5176 513.63 58.2839Z" fill="#509DD7" fill-opacity="0.49"/>
</svg>
