<svg width="163" height="117" viewBox="0 0 163 117" fill="none" xmlns="http://www.w3.org/2000/svg">
<path d="M151.275 25.3527L143.792 33.7465L151.131 41.2195L144.122 49.8137L150.258 57.8237L146.067 65.1065L149.751 67.227L155.364 57.4871L149.546 49.8979L156.839 40.9543L149.615 33.6059L156.402 26.0024L151.275 25.3527Z" fill="white"/>
<path d="M35.2042 76.0827L28.3838 76.7477L26.1076 65.893L16.0199 65.6362L12.987 57.7925L9.02266 59.3294L13.0749 69.8172L22.636 70.0655L25.0091 81.3503L35.2655 80.3551L35.2042 76.0827Z" fill="#17619F"/>
<path d="M80.8941 26.5612C99.9053 19.5728 119.425 39.572 111.563 58.0253C110.155 61.3387 110.117 65.1275 111.307 68.6643L115.403 80.8232C116.531 84.1721 114.898 87.675 111.647 88.8709L104.444 91.5161C101.193 92.712 97.4135 91.1962 95.766 88.0368C89.7504 76.5061 88.3605 71.8736 81.7503 68.9859C62.4085 60.5262 61.874 33.5552 80.8924 26.5684L80.8941 26.5612Z" fill="#FFC839"/>
<path d="M84.1061 54.0311C83.1606 54.0389 82.1037 54.0058 81.0805 53.8598C75.1899 53.0184 74.2302 48.0928 76.2645 46.087C77.5657 44.8024 79.9139 44.7038 81.8131 46.0565C83.5189 47.2665 84.4822 49.271 85.5856 51.3231C89.0012 51.1466 92.287 50.3891 95.3685 49.0784C93.4174 43.0855 96.0219 39.7242 98.9449 40.1435C100.823 40.4118 102.449 42.0335 102.81 43.997C103.029 45.1725 103.03 48.072 98.6642 50.4974C102.874 60.8254 109.452 74.5624 109.465 74.6032L107.083 75.5999C107.083 75.5999 100.533 61.9071 96.3232 51.6094C93.3636 52.8502 90.2245 53.6266 86.9731 53.909C93.4692 66.0718 98.3931 76.6102 98.571 76.9835L96.1815 77.9787C95.8076 77.2127 91.077 67.0134 84.1117 54.0399L84.1061 54.0311ZM78.0619 48.141C77.5803 48.8526 77.9651 51.1386 82.6596 51.341C81.1448 48.5218 80.4076 47.5963 78.0619 48.141ZM97.7138 47.9145C99.3595 46.9361 101.025 45.2526 99.8733 43.6047C98.3995 41.4896 96.4451 43.5743 97.7138 47.9145Z" fill="#FCFCFC"/>
<path d="M111.215 68.3484C111.245 68.446 111.272 68.558 111.302 68.6556L115.399 80.8145C116.527 84.1633 114.893 87.6662 111.642 88.8622L104.439 91.5073C101.188 92.7033 97.4089 91.1875 95.7614 88.0281C93.0816 82.901 91.3252 79.1351 89.6136 76.2855L111.215 68.3484Z" fill="#9E9E9E"/>
<path d="M43.0443 48.2199C45.5656 48.0253 48.0941 47.8325 50.6155 47.638C52.5915 47.4835 55.6794 47.7446 57.1401 46.195C57.5009 45.8103 57.5569 45.0457 57.094 44.697C55.3359 43.3542 52.5325 44.0497 50.4694 44.2219C47.9447 44.4307 45.42 44.6395 42.897 44.8412C40.7412 45.0221 40.8614 48.387 43.0371 48.2182L43.0443 48.2199Z" fill="#FCFCFC"/>
<path d="M46.2596 22.7288C58.3923 29.5514 57.9898 29.4961 59.3803 29.5232C60.4637 29.5397 61.0984 28.1992 60.537 27.3295C59.8252 26.2287 60.0389 26.5121 47.8406 19.8103C45.9649 18.78 44.3944 21.6859 46.2596 22.7288Z" fill="#FCFCFC"/>
<path d="M78.5742 14.8848C78.018 12.3931 77.4563 9.89251 76.9001 7.40075C76.4022 5.17918 76.2376 2.43066 74.741 0.64251C74.0848 -0.14346 72.8407 0.437049 72.6148 1.28324C72.0365 3.48996 73.188 6.24777 73.6793 8.39987C74.2498 10.8949 74.8149 13.3811 75.3854 15.8762C75.8668 17.9732 79.0358 16.9696 78.5671 14.8832L78.5742 14.8848Z" fill="#FCFCFC"/>
<path d="M115.958 31.284C119.464 29.6714 123.038 28.0593 126.358 26.0789C128.145 25.0123 126.474 22.4743 124.672 23.3787C121.209 25.1297 117.805 26.9546 114.291 28.6031C112.452 29.4689 114.144 32.1101 115.96 31.2768L115.958 31.284Z" fill="#FCFCFC"/>
<path d="M102.741 19.2945C104.132 17.4267 105.465 15.5153 106.785 13.5934C107.983 11.8397 109.868 9.85963 110.051 7.69738C110.15 6.5501 108.697 6.07797 107.872 6.54401C106.831 7.12627 106.799 7.55686 103.967 11.7412C102.692 13.6284 101.378 15.4913 100.116 17.3889C99.1066 18.9146 101.629 20.7737 102.742 19.2873L102.741 19.2945Z" fill="#FCFCFC"/>
<path d="M32.8 116.27L29.98 110.72L23.63 110.94L20.91 104.49L14.22 106.8L10.82 99.64L4.39996 101.01L0 94.66L2.40997 93L5.69 97.75L12.47 96.3L15.74 103.18L22.54 100.83L25.54 107.95L31.74 107.73L34.35 112.88L38.4 111.89L39.09 114.73L32.8 116.27Z" fill="#17619F"/>
</svg>
