<svg width="172" height="103" viewBox="0 0 172 103" fill="none" xmlns="http://www.w3.org/2000/svg">
<path d="M1 79.886C1 79.886 22.8653 51.9401 47.5765 48.694C72.2878 45.4594 75.1224 56.3863 104.28 46.6709C133.437 36.9556 159.772 11.8442 159.772 11.8442" stroke="black" stroke-width="1.62304" stroke-miterlimit="10"/>
<path d="M149.256 9.31847C149.382 9.35276 158.96 12.6103 158.96 12.6103C158.96 12.6103 161.851 21.2398 162.732 21.3998C163.612 21.5598 171.11 4.75797 170.995 2.71203C170.87 0.666096 169.749 0.951841 168.709 1.11186C167.669 1.27188 150.582 7.4897 149.61 8.09548C148.65 8.70126 149.244 9.34133 149.244 9.34133L149.256 9.31847Z" stroke="black" stroke-width="1.62304" stroke-miterlimit="10"/>
<path d="M7.19151 84.1377C7.07721 81.2345 7.44296 80.343 8.79168 80.343H12.0378C13.135 80.343 13.4322 80.8916 13.4322 82.789C13.4322 84.6864 14.0265 96.4362 14.1294 98.2421C14.2323 100.037 14.1751 100.94 13.0321 101.237C11.8777 101.534 10.1861 101.237 9.13458 101.237C8.08303 101.237 7.5344 101.031 7.5344 98.5393C7.5344 96.0476 7.23723 85.3836 7.18008 84.1377H7.19151Z" stroke="black" stroke-width="1.62304" stroke-miterlimit="10"/>
<path d="M20.4952 71.7822C19.295 71.7822 18.1406 72.228 18.1406 73.7824C18.1406 75.3369 19.4893 94.7333 19.3865 97.1336C19.2836 99.5338 19.3865 100.837 20.3809 101.18C21.3753 101.534 23.1355 101.18 24.6328 101.18C26.1301 101.18 26.4844 100.585 26.3358 97.9337C26.1872 95.2819 24.8385 77.7829 24.4842 74.834C24.1299 71.8851 23.7298 71.7822 20.4837 71.7822H20.4952Z" stroke="black" stroke-width="1.62304" stroke-miterlimit="10"/>
<path d="M32.2847 61.5298C29.8844 61.5755 29.4844 63.4843 29.4844 64.7759C29.4844 66.0674 32.1361 95.9793 32.479 98.1738C32.8333 100.368 33.0733 101.271 34.4335 101.271H39.3369C40.5827 101.271 41.0399 99.9683 40.7313 97.4195C40.4341 94.8706 38.5368 74.3655 38.3768 69.9193C38.2282 65.4731 37.8281 63.2214 36.9823 62.2727C36.1365 61.3241 32.2847 61.5184 32.2847 61.5184V61.5298Z" stroke="black" stroke-width="1.62304" stroke-miterlimit="10"/>
<path d="M44.9441 58.7294C44.8298 52.0887 46.2242 53.1631 47.5729 53.1631H50.819C51.9163 53.1631 52.2135 54.4204 52.2135 58.7751C52.2135 63.1299 52.8078 90.0586 52.9107 94.1847C53.0135 98.3109 52.9564 100.368 51.8134 101.065C50.659 101.751 48.9674 101.065 47.9158 101.065C46.8643 101.065 46.3157 100.608 46.3157 94.882C46.3157 89.1556 44.9898 61.5983 44.9441 58.7294Z" stroke="black" stroke-width="2.45741" stroke-miterlimit="10"/>
<path d="M61.1461 54.6606C59.946 54.592 58.7573 55.2321 58.6201 57.6781C58.4715 60.1241 58.0257 90.756 57.7057 94.5279C57.3857 98.2997 57.3628 100.357 58.3344 100.963C59.3059 101.569 61.0775 101.123 62.5748 101.214C64.0721 101.306 64.4722 100.38 64.575 96.1966C64.6665 92.0133 64.9408 64.3645 64.8722 59.7012C64.7922 55.0378 64.4036 54.8549 61.1575 54.6606H61.1461Z" stroke="black" stroke-width="2.03451" stroke-miterlimit="10"/>
<path d="M71.0659 56.821C68.6657 56.8781 68.2656 59.0041 68.2656 60.4557C68.2656 61.9072 70.9173 95.3509 71.2602 97.8197C71.6146 100.277 71.866 101.283 73.2147 101.283H78.1181C79.364 101.283 79.8212 99.8314 79.5126 96.9739C79.2154 94.1165 77.3181 71.1883 77.158 66.2163C76.998 61.2443 76.6094 58.7183 75.7636 57.6553C74.9178 56.5924 71.0659 56.821 71.0659 56.821Z" stroke="black" stroke-width="1.71447" stroke-miterlimit="10"/>
<path d="M84.4342 62.5701C84.3199 56.3637 85.0057 56.2952 86.3544 56.2952H89.6004C90.6977 56.2952 91.6235 56.8781 91.6235 60.9585C91.6235 65.039 91.6007 90.8018 91.7035 94.6651C91.8064 98.5169 91.7493 100.449 90.6063 101.089C89.4633 101.729 87.7602 101.089 86.7087 101.089C85.6572 101.089 85.1085 100.666 85.1085 95.3052C85.1085 89.9446 84.4913 65.2561 84.4456 62.5816L84.4342 62.5701Z" stroke="black" stroke-width="2.3774" stroke-miterlimit="10"/>
<path d="M96.6905 54.3633C95.4903 54.3633 94.3359 54.809 94.3359 56.3635C94.3359 57.918 97.0448 94.7334 96.9419 97.1337C96.8391 99.534 96.9419 100.837 97.9363 101.18C98.9307 101.534 100.691 101.18 102.188 101.18C103.686 101.18 104.04 100.585 103.891 97.9338C103.743 95.2821 101.034 60.3639 100.679 57.415C100.325 54.4662 99.9251 54.3633 96.679 54.3633H96.6905Z" stroke="black" stroke-width="1.62304" stroke-miterlimit="10"/>
<path d="M109.847 50.3399C107.447 50.4085 107.047 52.8431 107.047 54.5004C107.047 56.1577 109.699 94.4819 110.041 97.3051C110.396 100.128 110.636 101.283 111.996 101.283H116.899C118.145 101.283 118.602 99.6139 118.294 96.345C117.997 93.076 116.099 66.8103 115.939 61.1068C115.791 55.4033 115.391 52.523 114.545 51.3C113.699 50.077 109.847 50.3399 109.847 50.3399Z" stroke="black" stroke-width="1.8402" stroke-miterlimit="10"/>
<path d="M127.593 100.38C126.118 100.471 125.764 98.5511 125.764 95.4307C125.764 92.3104 122.369 46.0653 122.289 44.328C122.198 42.5906 122.895 42.3278 124.027 42.2363C125.158 42.1449 127.067 42.6706 128.541 42.5792C130.016 42.4878 129.753 42.7507 129.844 45.6195C129.936 48.4884 132.976 93.5905 133.491 96.3794C134.016 99.1568 133.662 100.117 132.359 100.551C131.056 100.986 127.581 100.38 127.581 100.38H127.593Z" stroke="black" stroke-width="1.8402" stroke-miterlimit="10"/>
<path d="M140.541 99.2596C139.409 99.2596 137.763 98.7339 137.763 97.3509C137.763 95.9678 134.117 39.4702 134.117 37.7329C134.117 35.9956 134.209 35.3898 135.42 35.2069C136.632 35.0354 138.815 34.6011 139.684 34.6811C140.552 34.7726 141.329 35.8127 141.512 37.4586C141.684 39.1045 144.473 93.339 144.816 96.1279C145.158 98.9053 144.038 99.2596 143.17 99.3396C142.301 99.4311 140.564 99.2482 140.564 99.2482L140.541 99.2596Z" stroke="black" stroke-width="1.8402" stroke-miterlimit="10"/>
</svg>
