<svg width="278" height="63" viewBox="0 0 278 63" fill="none" xmlns="http://www.w3.org/2000/svg">
<path d="M276.48 55.9285C276.389 55.9538 276.274 55.9617 276.119 55.954L275.949 55.9412C266.56 54.7298 257.172 53.5184 247.786 52.3221L247.786 52.3212C247.514 52.2847 247.365 52.2135 247.285 52.1462C247.218 52.0894 247.163 52.0061 247.144 51.8442L247.142 51.8228L247.137 51.8017C247.137 51.8006 247.134 51.7812 247.141 51.7222C247.144 51.6907 247.149 51.6593 247.156 51.6145C247.156 51.6083 247.158 51.6017 247.158 51.595C247.175 51.5679 247.19 51.5423 247.205 51.5187C247.214 51.5032 247.224 51.4891 247.232 51.475C247.307 51.4346 247.379 51.3956 247.439 51.3616C247.542 51.3042 247.628 51.2599 247.708 51.2254C249.756 50.4324 251.799 49.6426 253.844 48.8561L259.994 46.4948C260.146 46.4389 260.296 46.38 260.438 46.3234C260.584 46.2653 260.721 46.2101 260.855 46.1597L261.203 46.0292L261.18 45.6579C261.174 45.5552 261.171 45.4662 261.167 45.3715L261.167 45.3596L261.165 45.3489C260.976 43.0858 260.786 40.819 260.597 38.5522L260.041 31.7541L260.04 31.7453C260.018 31.52 260.035 31.3316 260.042 31.0499C260.069 31.0094 260.095 30.9689 260.122 30.9287C260.296 30.7689 260.448 30.7543 260.581 30.7882C260.751 30.8314 260.944 30.9713 261.087 31.1905L261.088 31.1903C266.233 39.1153 271.406 47.0188 276.581 54.9364L276.58 54.9366C276.713 55.1418 276.784 55.2895 276.808 55.4103C276.822 55.4815 276.821 55.5509 276.787 55.6339L276.74 55.7223C276.659 55.8512 276.576 55.9015 276.48 55.9285Z" fill="#EAFF66" stroke="black" stroke-width="1.00746"/>
<path d="M21.3292 0.505859L225.519 0.505859C236.978 0.505859 246.343 10.6773 246.343 23.3213C246.343 35.9654 236.978 46.1367 225.519 46.1367L21.3292 46.1367C9.86983 46.1367 0.505005 35.9653 0.505005 23.3213C0.505068 10.6773 9.86987 0.505859 21.3292 0.505859Z" fill="#EAFF66" stroke="black" stroke-width="1.00746"/>
<path d="M25.1587 29.3779L25.1587 15.277L35.4927 15.277L35.4927 17.7749L28.2005 17.7749L28.2005 21.1591L34.5459 21.1591L34.5459 23.657L28.2005 23.657L28.2005 29.3779L25.1587 29.3779ZM41.3431 29.6801C37.9791 29.6801 35.8639 27.5851 35.8639 24.3419C35.8639 21.0987 37.8582 19.0037 41.182 19.0037C43.9216 19.0037 46.2382 20.6354 46.2382 24.1002C46.2382 24.3822 46.218 24.6843 46.1979 24.8858L38.8251 24.8858C39.0064 26.4369 40.0741 27.4239 41.3431 27.4239C42.5115 27.4239 43.3173 26.8398 43.5187 25.9736L46.3188 25.9736C45.9562 28.2096 44.1432 29.6801 41.3431 29.6801ZM38.9057 23.093L43.2568 23.093C43.2367 21.844 42.3906 21.1591 41.1216 21.1591C39.8726 21.1591 39.0669 21.8843 38.9057 23.093ZM50.975 29.6801C48.6786 29.6801 47.611 28.4513 47.611 26.6383C47.611 24.9261 48.7592 23.8987 51.0556 23.3347L53.0499 22.8311C53.7549 22.6699 54.037 22.4886 54.037 22.1059C54.037 21.5016 53.5535 21.0987 52.365 21.0987C51.0758 21.0987 50.4714 21.8239 50.4513 22.6095L47.752 22.6095C47.752 20.4541 49.565 19.0037 52.365 19.0037C55.1852 19.0037 57.0586 20.3735 57.0586 22.9519L57.0586 29.3779L54.1981 29.3779C54.3794 28.7333 54.7219 28.0887 55.1247 27.6052L55.1247 27.4038L54.1175 27.4038C53.8355 28.7736 52.6873 29.6801 50.975 29.6801ZM50.3909 26.3966C50.3909 26.9606 50.6729 27.5247 51.7808 27.5247C52.9693 27.5247 54.1377 26.8801 54.1377 25.4901L54.1377 24.0397C53.8959 24.3822 53.4326 24.6239 52.929 24.7851L51.6197 25.1879C50.8743 25.4297 50.3909 25.8124 50.3909 26.3966ZM62.7616 29.3779C61.009 29.3779 60.1026 28.3909 60.1026 26.6988L60.1227 21.6023L58.068 21.6023L58.068 19.3058L60.2033 19.3058L60.2033 16.4857L62.7012 16.4857L62.7012 19.3058L65.5012 19.3058L65.5012 21.6023L62.8019 21.6023L62.8019 26.1952C62.8019 26.8599 62.9832 27.0815 63.5674 27.0815L65.7228 27.0815L65.7228 29.3779L62.7616 29.3779ZM76.7017 19.3058L76.7017 29.3779L74.0829 29.3779C74.1836 28.693 74.4858 27.7664 74.7678 27.1419L74.7678 26.9405L73.7808 26.9405C73.4182 28.6326 72.2699 29.6801 70.457 29.6801C68.3015 29.6801 67.113 28.2096 67.113 25.5908L67.113 19.3058L70.0339 19.3058L70.0339 25.0671C70.0339 26.4973 70.6181 27.2426 71.7865 27.2426C72.8944 27.2426 73.7808 26.1347 73.7808 24.6843L73.7808 19.3058L76.7017 19.3058ZM78.9186 29.3779L78.9186 19.3058L81.5374 19.3058C81.4769 20.031 81.2956 20.6958 80.8525 21.5419L80.8525 21.7433L81.8395 21.7433C82.1417 20.1318 83.1086 19.3058 84.6597 19.3058L85.3446 19.3058L85.3446 22.3275L84.0554 22.3275C82.5849 22.3275 81.8395 23.7577 81.8395 25.893L81.8395 29.3779L78.9186 29.3779ZM91.6445 29.6801C88.2805 29.6801 86.1653 27.5851 86.1653 24.3419C86.1653 21.0987 88.1596 19.0037 91.4834 19.0037C94.223 19.0037 96.5396 20.6354 96.5396 24.1002C96.5396 24.3822 96.5194 24.6843 96.4993 24.8858L89.1265 24.8858C89.3078 26.4369 90.3755 27.4239 91.6445 27.4239C92.8129 27.4239 93.6187 26.8398 93.8201 25.9736L96.6201 25.9736C96.2575 28.2096 94.4446 29.6801 91.6445 29.6801ZM89.2071 23.093L93.5582 23.093C93.5381 21.844 92.692 21.1591 91.4229 21.1591C90.174 21.1591 89.3682 21.8843 89.2071 23.093ZM102.243 29.6801C99.6649 29.6801 97.7915 27.4844 97.7915 24.3419C97.7915 21.1994 99.6649 19.0037 102.243 19.0037C104.036 19.0037 105.164 20.0109 105.708 21.7433L106.695 21.7433L106.695 21.5419C106.091 20.4138 105.708 18.9835 105.708 17.3116L105.708 15.277L108.629 15.277L108.629 29.3779L105.708 29.3779C105.849 28.7535 106.292 27.7865 106.695 27.1621L106.695 26.9606L105.708 26.9606C105.164 28.6729 104.177 29.6801 102.243 29.6801ZM100.753 24.3419C100.753 26.1146 101.76 27.2426 103.251 27.2426C104.721 27.2426 105.728 26.1146 105.728 24.3419C105.728 22.5692 104.721 21.4411 103.251 21.4411C101.76 21.4411 100.753 22.5692 100.753 24.3419ZM118.29 29.3779L114.483 15.277L117.746 15.277L119.599 22.6296C119.942 24.0397 120.042 25.8124 120.002 26.9606L120.989 26.9606C120.949 25.8124 120.949 24.0397 121.352 22.6296L123.447 15.277L126.73 15.277L128.845 22.6296C129.248 24.0397 129.248 25.8124 129.188 26.9606L130.175 26.9606C130.115 25.8124 130.235 24.0397 130.578 22.6296L132.431 15.277L135.674 15.277L131.867 29.3779L127.677 29.3779L125.078 18.8627L122.46 29.3779L118.29 29.3779ZM136.931 29.3779L136.931 15.277L139.852 15.277L139.852 17.3317C139.852 19.0238 139.47 20.4339 138.865 21.5419L138.865 21.7433L139.852 21.7433C140.215 20.0512 141.363 19.0037 143.176 19.0037C145.332 19.0037 146.52 20.4742 146.52 23.093L146.52 29.3779L143.599 29.3779L143.599 23.6167C143.599 22.1865 143.015 21.4411 141.847 21.4411C140.739 21.4411 139.852 22.5491 139.852 23.9994L139.852 29.3779L136.931 29.3779ZM148.556 29.3779L148.556 19.3058L151.436 19.3058L151.436 29.3779L148.556 29.3779ZM148.556 18.0368L148.556 15.277L151.477 15.277L151.477 18.0368L148.556 18.0368ZM157.522 29.3779C155.769 29.3779 154.863 28.3909 154.863 26.6988L154.883 21.6023L152.828 21.6023L152.828 19.3058L154.963 19.3058L154.963 16.4857L157.461 16.4857L157.461 19.3058L160.261 19.3058L160.261 21.6023L157.562 21.6023L157.562 26.1952C157.562 26.8599 157.743 27.0815 158.328 27.0815L160.483 27.0815L160.483 29.3779L157.522 29.3779ZM166.575 29.6801C163.211 29.6801 161.096 27.5851 161.096 24.3419C161.096 21.0987 163.09 19.0037 166.414 19.0037C169.154 19.0037 171.47 20.6354 171.47 24.1002C171.47 24.3822 171.45 24.6843 171.43 24.8858L164.057 24.8858C164.239 26.4369 165.306 27.4239 166.575 27.4239C167.744 27.4239 168.549 26.8398 168.751 25.9736L171.551 25.9736C171.188 28.2096 169.375 29.6801 166.575 29.6801ZM164.138 23.093L168.489 23.093C168.469 21.844 167.623 21.1591 166.354 21.1591C165.105 21.1591 164.299 21.8843 164.138 23.093ZM173.246 33.0039L173.246 19.3058L176.167 19.3058C176.026 19.9303 175.583 20.8972 175.18 21.5419L175.18 21.7433L176.167 21.7433C176.691 20.0109 177.698 19.0037 179.632 19.0037C182.21 19.0037 184.063 21.1994 184.063 24.3419C184.063 27.4844 182.21 29.6801 179.632 29.6801C177.839 29.6801 176.691 28.6729 176.167 26.9606L175.18 26.9606L175.18 27.1621C175.784 28.27 176.167 29.6801 176.167 31.3722L176.167 33.0039L173.246 33.0039ZM176.147 24.3419C176.147 26.1146 177.154 27.2426 178.625 27.2426C180.115 27.2426 181.122 26.1146 181.122 24.3419C181.122 22.5692 180.115 21.4411 178.625 21.4411C177.154 21.4411 176.147 22.5692 176.147 24.3419ZM188.738 29.6801C186.442 29.6801 185.374 28.4513 185.374 26.6383C185.374 24.9261 186.522 23.8987 188.819 23.3347L190.813 22.8311C191.518 22.6699 191.8 22.4886 191.8 22.1059C191.8 21.5016 191.317 21.0987 190.128 21.0987C188.839 21.0987 188.235 21.8239 188.215 22.6095L185.515 22.6095C185.515 20.4541 187.328 19.0037 190.128 19.0037C192.948 19.0037 194.822 20.3735 194.822 22.9519L194.822 29.3779L191.961 29.3779C192.143 28.7333 192.485 28.0887 192.888 27.6052L192.888 27.4038L191.881 27.4038C191.599 28.7736 190.451 29.6801 188.738 29.6801ZM188.154 26.3966C188.154 26.9606 188.436 27.5247 189.544 27.5247C190.733 27.5247 191.901 26.8801 191.901 25.4901L191.901 24.0397C191.659 24.3822 191.196 24.6239 190.692 24.7851L189.383 25.1879C188.638 25.4297 188.154 25.8124 188.154 26.3966ZM196.951 33.0039L196.951 19.3058L199.872 19.3058C199.731 19.9303 199.288 20.8972 198.885 21.5419L198.885 21.7433L199.872 21.7433C200.395 20.0109 201.403 19.0037 203.337 19.0037C205.915 19.0037 207.768 21.1994 207.768 24.3419C207.768 27.4844 205.915 29.6801 203.337 29.6801C201.544 29.6801 200.395 28.6729 199.872 26.9606L198.885 26.9606L198.885 27.1621C199.489 28.27 199.872 29.6801 199.872 31.3722L199.872 33.0039L196.951 33.0039ZM199.852 24.3419C199.852 26.1146 200.859 27.2426 202.329 27.2426C203.82 27.2426 204.827 26.1146 204.827 24.3419C204.827 22.5692 203.82 21.4411 202.329 21.4411C200.859 21.4411 199.852 22.5692 199.852 24.3419ZM214.437 29.6801C211.073 29.6801 208.958 27.5851 208.958 24.3419C208.958 21.0987 210.952 19.0037 214.276 19.0037C217.016 19.0037 219.332 20.6354 219.332 24.1002C219.332 24.3822 219.312 24.6843 219.292 24.8858L211.919 24.8858C212.101 26.4369 213.168 27.4239 214.437 27.4239C215.606 27.4239 216.411 26.8398 216.613 25.9736L219.413 25.9736C219.05 28.2096 217.237 29.6801 214.437 29.6801ZM212 23.093L216.351 23.093C216.331 21.844 215.485 21.1591 214.216 21.1591C212.967 21.1591 212.161 21.8843 212 23.093ZM221.108 29.3779L221.108 19.3058L223.727 19.3058C223.666 20.031 223.485 20.6958 223.042 21.5419L223.042 21.7433L224.029 21.7433C224.331 20.1318 225.298 19.3058 226.849 19.3058L227.534 19.3058L227.534 22.3275L226.245 22.3275C224.774 22.3275 224.029 23.7577 224.029 25.893L224.029 29.3779L221.108 29.3779Z" fill="black"/>
</svg>
