<svg width="696" height="1122" viewBox="0 0 696 1122" fill="none" xmlns="http://www.w3.org/2000/svg">
<rect x="0.976807" width="695" height="1122" rx="19" fill="#0B0C1E"/>
<path d="M293.647 512.167H313.083L348.288 609H330.374L324.149 591.847H282.649L276.424 609H258.51L293.647 512.167ZM288.805 574.97H317.924L303.33 535.061L288.805 574.97ZM357.818 609V512.167H389.912C396.598 512.167 402.846 513.435 408.656 515.971C414.512 518.461 419.653 521.942 424.08 526.415C428.553 530.842 432.034 535.983 434.524 541.839C437.06 547.649 438.328 553.897 438.328 560.583C438.328 567.269 437.06 573.541 434.524 579.397C432.034 585.207 428.553 590.348 424.08 594.821C419.653 599.247 414.512 602.729 408.656 605.265C402.846 607.755 396.598 609 389.912 609H357.818ZM374.695 592.123H389.912C394.2 592.123 398.235 591.316 402.016 589.702C405.843 588.042 409.209 585.783 412.114 582.924C415.019 580.019 417.302 576.676 418.962 572.895C420.622 569.068 421.452 564.964 421.452 560.583C421.452 556.203 420.622 552.122 418.962 548.341C417.302 544.56 415.019 541.217 412.114 538.312C409.209 535.407 405.866 533.147 402.085 531.533C398.304 529.873 394.246 529.043 389.912 529.043H374.695V592.123Z" fill="white"/>
</svg>
