<svg width="695" height="514" viewBox="0 0 695 514" fill="none" xmlns="http://www.w3.org/2000/svg">
<rect width="695" height="514" rx="19" fill="#0B0C1E"/>
<path d="M293.17 208.167H312.606L347.812 305H329.898L323.673 287.847H282.173L275.948 305H258.033L293.17 208.167ZM288.328 270.97H317.448L302.853 231.061L288.328 270.97ZM357.342 305V208.167H389.435C396.121 208.167 402.369 209.435 408.179 211.971C414.035 214.461 419.177 217.942 423.603 222.415C428.076 226.842 431.557 231.983 434.047 237.839C436.584 243.649 437.852 249.897 437.852 256.583C437.852 263.269 436.584 269.541 434.047 275.397C431.557 281.207 428.076 286.348 423.603 290.821C419.177 295.247 414.035 298.729 408.179 301.265C402.369 303.755 396.121 305 389.435 305H357.342ZM374.218 288.123H389.435C393.723 288.123 397.758 287.316 401.539 285.702C405.366 284.042 408.732 281.783 411.637 278.924C414.542 276.019 416.825 272.676 418.485 268.895C420.145 265.068 420.975 260.964 420.975 256.583C420.975 252.203 420.145 248.122 418.485 244.341C416.825 240.56 414.542 237.217 411.637 234.312C408.732 231.407 405.389 229.147 401.608 227.533C397.827 225.873 393.769 225.043 389.435 225.043H374.218V288.123Z" fill="white"/>
</svg>
