<svg width="451" height="599" viewBox="0 0 451 599" fill="none" xmlns="http://www.w3.org/2000/svg">
<g filter="url(#filter0_d_1_11187)">
<path d="M8 111C8 52.4578 55.4578 5 114 5H429C434.523 5 439 9.47715 439 15V574C439 579.523 434.523 584 429 584H18C12.4772 584 8 579.523 8 574V111Z" fill="#1C53A1"/>
</g>
<path d="M225 5.49934C254.333 4.16601 315 17.1996 307 61.9996C299 106.8 393 120.666 441 122" stroke="#F3F3F3" stroke-width="2"/>
<path d="M8.61718 449.124C1.59521 447 56.7678 438.504 58.7741 480.983C60.7804 523.461 21.658 570.187 30.6862 530.895C39.7144 491.602 78.8368 450.186 87.8651 490.54C96.8933 530.895 85.8588 582.931 66.7992 583.993C47.7395 585.055 92.8808 471.425 110.937 490.54C125.382 505.832 130.331 559.214 131 583.993" stroke="#F3F3F3" stroke-width="2"/>
<path d="M76.0867 272.698V282H71.4664V259.884H87.2062V263.796H76.0867V268.786H85.8201V272.698H76.0867ZM89.9269 282V265.613H94.0544V268.447H94.116C95.0092 266.784 95.9949 265.182 98.6131 265.182C98.8903 265.182 99.1675 265.213 99.4447 265.244V269.618C99.0751 269.556 98.6131 269.556 98.2126 269.556C94.8552 269.556 94.2392 271.651 94.2392 273.468V282H89.9269ZM111.571 277.195H116.006C114.866 281.138 111.601 282.431 108.798 282.431C104.178 282.431 100.636 280.213 100.636 273.468C100.636 271.497 101.314 265.182 108.49 265.182C111.725 265.182 116.191 266.722 116.191 274.207V274.977H104.948C105.071 276.209 105.318 278.981 108.798 278.981C110 278.981 111.232 278.365 111.571 277.195ZM105.071 272.174H111.755C111.509 269.525 109.815 268.724 108.429 268.724C106.396 268.724 105.318 270.018 105.071 272.174ZM128.686 277.195H133.122C131.982 281.138 128.717 282.431 125.914 282.431C121.294 282.431 117.751 280.213 117.751 273.468C117.751 271.497 118.429 265.182 125.606 265.182C128.84 265.182 133.306 266.722 133.306 274.207V274.977H122.064C122.187 276.209 122.433 278.981 125.914 278.981C127.115 278.981 128.347 278.365 128.686 277.195ZM122.187 272.174H128.871C128.625 269.525 126.93 268.724 125.544 268.724C123.511 268.724 122.433 270.018 122.187 272.174ZM148.769 274.176C148.769 276.61 149.816 278.889 152.557 278.889C155.329 278.889 156.099 275.87 156.099 273.93C156.099 271.343 155.175 268.909 152.434 268.909C149.477 268.909 148.769 271.558 148.769 274.176ZM148.769 265.613V267.985H148.83C149.631 266.691 150.832 265.182 153.728 265.182C157.332 265.182 160.535 267.954 160.535 273.622C160.535 278.119 158.502 282.431 153.635 282.431C150.617 282.431 149.539 280.799 149.015 279.905H148.953V288.376H144.641V265.613H148.769ZM167.999 259.884V282H163.687V259.884H167.999ZM185.412 269.926V278.797C185.412 280.737 185.843 281.168 186.367 281.353V282H181.716C181.469 281.23 181.408 280.984 181.315 280.059C180.33 281.076 178.944 282.431 176.017 282.431C173.553 282.431 171.028 281.045 171.028 277.657C171.028 274.454 173.06 272.821 175.802 272.421L179.683 271.835C180.361 271.743 181.192 271.466 181.192 270.542C181.192 268.724 179.467 268.632 178.358 268.632C176.202 268.632 175.833 269.956 175.709 270.911H171.551C172.044 265.891 175.525 265.182 178.882 265.182C181.192 265.182 185.412 265.891 185.412 269.926ZM181.192 276.117V274.022C180.761 274.361 180.053 274.638 178.266 274.916C176.664 275.193 175.34 275.593 175.34 277.38C175.34 278.889 176.51 279.351 177.342 279.351C179.252 279.351 181.192 278.119 181.192 276.117ZM204.068 270.665V282H199.755V272.051C199.755 270.85 199.694 268.817 196.952 268.817C195.043 268.817 193.564 270.11 193.564 272.605V282H189.252V265.613H193.379V268.016H193.441C194.026 267.03 195.258 265.182 198.369 265.182C201.573 265.182 204.068 267.061 204.068 270.665ZM224.232 259.299L217.24 282.585H213.636L220.628 259.299H224.232ZM243.442 277.195H247.877C246.737 281.138 243.472 282.431 240.669 282.431C236.049 282.431 232.507 280.213 232.507 273.468C232.507 271.497 233.185 265.182 240.361 265.182C243.596 265.182 248.062 266.722 248.062 274.207V274.977H236.819C236.942 276.209 237.189 278.981 240.669 278.981C241.871 278.981 243.103 278.365 243.442 277.195ZM236.942 272.174H243.626C243.38 269.525 241.686 268.724 240.3 268.724C238.267 268.724 237.189 270.018 236.942 272.174ZM259.551 273.653L265.127 282H259.798L256.964 277.072L254.13 282H248.925L254.5 273.653L249.14 265.613H254.377L257.149 270.388L259.86 265.613H264.942L259.551 273.653ZM282.396 270.665V282H278.084V272.051C278.084 270.85 278.022 268.817 275.281 268.817C273.371 268.817 271.893 270.11 271.893 272.605V282H267.58V259.884H271.893V267.739H271.954C272.509 266.383 274.357 265.182 276.698 265.182C279.901 265.182 282.396 267.061 282.396 270.665ZM286.534 265.613H290.846V282H286.534V265.613ZM290.846 259.669V263.673H286.534V259.669H290.846ZM306.349 273.93C306.349 271.343 305.425 268.909 302.684 268.909C299.727 268.909 298.988 271.558 298.988 274.176C298.988 276.61 300.066 278.889 302.807 278.889C305.579 278.889 306.349 275.87 306.349 273.93ZM299.172 259.884V267.739H299.234C299.912 266.691 301.205 265.182 303.978 265.182C307.581 265.182 310.785 267.954 310.785 273.622C310.785 278.119 308.752 282.431 303.885 282.431C302.099 282.431 300.189 281.784 299.142 279.936H299.08V282H294.86V259.884H299.172ZM313.937 265.613H318.249V282H313.937V265.613ZM318.249 259.669V263.673H313.937V259.669H318.249ZM327.222 261.178V265.613H329.902V268.694H327.222V277.595C327.222 278.55 327.253 278.92 329.009 278.92C329.286 278.92 329.594 278.889 329.902 278.858V282.123C329.224 282.154 328.547 282.185 327.869 282.185H327.315C323.588 282.185 322.91 280.768 322.91 278.643V268.694H320.692V265.613H322.91V261.178H327.222ZM332.767 265.613H337.079V282H332.767V265.613ZM337.079 259.669V263.673H332.767V259.669H337.079ZM356.032 270.665V282H351.72V272.051C351.72 270.85 351.658 268.817 348.917 268.817C347.007 268.817 345.529 270.11 345.529 272.605V282H341.216V265.613H345.344V268.016H345.405C345.991 267.03 347.223 265.182 350.334 265.182C353.537 265.182 356.032 267.061 356.032 270.665ZM370.95 265.613H375.078V281.138C375.078 283.971 374.862 288.684 366.792 288.684C363.404 288.684 359.831 287.236 359.646 283.756H364.328C364.513 284.587 364.852 285.419 367.347 285.419C369.657 285.419 370.766 284.31 370.766 281.661V279.69L370.704 279.628C369.996 280.891 368.918 282.092 366.33 282.092C362.387 282.092 359.276 279.351 359.276 273.622C359.276 267.954 362.48 265.182 366.084 265.182C369.133 265.182 370.365 266.969 370.889 268.047H370.95V265.613ZM363.712 273.899C363.712 275.994 364.574 278.458 367.131 278.458C370.057 278.458 370.796 275.963 370.796 273.714C370.796 271.065 369.503 268.909 367.1 268.909C365.498 268.909 363.712 270.08 363.712 273.899ZM128.741 314.926V323.797C128.741 325.737 129.172 326.168 129.696 326.353V327H125.045C124.799 326.23 124.737 325.984 124.645 325.059C123.659 326.076 122.273 327.431 119.347 327.431C116.882 327.431 114.357 326.045 114.357 322.657C114.357 319.454 116.39 317.821 119.131 317.421L123.012 316.835C123.69 316.743 124.521 316.466 124.521 315.542C124.521 313.724 122.796 313.632 121.688 313.632C119.531 313.632 119.162 314.956 119.039 315.911H114.88C115.373 310.891 118.854 310.182 122.211 310.182C124.521 310.182 128.741 310.891 128.741 314.926ZM124.521 321.117V319.022C124.09 319.361 123.382 319.638 121.595 319.916C119.993 320.193 118.669 320.593 118.669 322.38C118.669 323.889 119.839 324.351 120.671 324.351C122.581 324.351 124.521 323.119 124.521 321.117ZM147.397 315.665V327H143.085V317.051C143.085 315.85 143.023 313.817 140.282 313.817C138.372 313.817 136.893 315.11 136.893 317.605V327H132.581V310.613H136.709V313.016H136.77C137.355 312.03 138.588 310.182 141.699 310.182C144.902 310.182 147.397 312.061 147.397 315.665ZM166.227 315.665V327H161.915V317.051C161.915 315.85 161.853 313.817 159.112 313.817C157.202 313.817 155.724 315.11 155.724 317.605V327H151.411V310.613H155.539V313.016H155.6C156.186 312.03 157.418 310.182 160.529 310.182C163.732 310.182 166.227 312.061 166.227 315.665ZM186.043 318.807C186.043 324.721 182.069 327.431 177.665 327.431C173.26 327.431 169.287 324.721 169.287 318.807C169.287 312.893 173.26 310.182 177.665 310.182C182.069 310.182 186.043 312.893 186.043 318.807ZM181.607 318.807C181.607 316.712 180.991 313.817 177.665 313.817C174.338 313.817 173.722 316.712 173.722 318.807C173.722 320.901 174.338 323.797 177.665 323.797C180.991 323.797 181.607 320.901 181.607 318.807ZM203.856 310.613V327H199.729V324.69H199.667C198.682 326.446 196.957 327.431 194.677 327.431C191.443 327.431 189.102 325.583 189.102 321.394V310.613H193.415V320.778C193.415 323.304 194.893 323.797 196.218 323.797C197.634 323.797 199.544 322.996 199.544 320.07V310.613H203.856ZM222.717 315.665V327H218.405V317.051C218.405 315.85 218.343 313.817 215.602 313.817C213.692 313.817 212.214 315.11 212.214 317.605V327H207.902V310.613H212.029V313.016H212.091C212.676 312.03 213.908 310.182 217.019 310.182C220.222 310.182 222.717 312.061 222.717 315.665ZM236.465 321.024H240.839C240.685 322.719 239.361 327.431 233.354 327.431C227.194 327.431 225.777 322.719 225.777 319.269C225.777 313.971 228.087 310.182 233.631 310.182C236.219 310.182 240.469 311.353 240.87 316.466H236.496C236.311 315.388 235.634 313.694 233.631 313.817C230.921 313.817 230.212 316.527 230.212 318.56C230.212 320.347 230.274 323.889 233.539 323.889C235.726 323.889 236.465 321.794 236.465 321.024ZM253.488 322.195H257.924C256.784 326.138 253.519 327.431 250.716 327.431C246.096 327.431 242.554 325.213 242.554 318.468C242.554 316.497 243.231 310.182 250.408 310.182C253.642 310.182 258.109 311.722 258.109 319.207V319.977H246.866C246.989 321.209 247.236 323.981 250.716 323.981C251.917 323.981 253.149 323.365 253.488 322.195ZM246.989 317.174H253.673C253.427 314.525 251.733 313.724 250.347 313.724C248.314 313.724 247.236 315.018 246.989 317.174ZM284.403 315.665V327H280.091V317.051C280.091 314.618 279.013 313.817 277.75 313.817C275.594 313.817 274.824 315.234 274.824 317.174V327H270.511V317.143C270.511 315.757 270.511 313.817 267.924 313.817C265.891 313.817 265.244 315.234 265.244 317.02V327H260.932V310.613H265.06V313.016H265.121C265.676 311.938 266.877 310.182 269.772 310.182C272.144 310.182 273.222 311.045 274.331 312.8C274.885 311.999 276.087 310.182 278.705 310.182C281.908 310.182 284.403 312.061 284.403 315.665ZM297.977 322.195H302.412C301.273 326.138 298.008 327.431 295.205 327.431C290.584 327.431 287.042 325.213 287.042 318.468C287.042 316.497 287.72 310.182 294.897 310.182C298.131 310.182 302.597 311.722 302.597 319.207V319.977H291.354C291.477 321.209 291.724 323.981 295.205 323.981C296.406 323.981 297.638 323.365 297.977 322.195ZM291.477 317.174H298.162C297.915 314.525 296.221 313.724 294.835 313.724C292.802 313.724 291.724 315.018 291.477 317.174ZM320.267 315.665V327H315.955V317.051C315.955 315.85 315.893 313.817 313.152 313.817C311.242 313.817 309.764 315.11 309.764 317.605V327H305.451V310.613H309.579V313.016H309.64C310.226 312.03 311.458 310.182 314.569 310.182C317.772 310.182 320.267 312.061 320.267 315.665ZM329.117 306.178V310.613H331.797V313.694H329.117V322.595C329.117 323.55 329.148 323.92 330.904 323.92C331.181 323.92 331.489 323.889 331.797 323.858V327.123C331.119 327.154 330.442 327.185 329.764 327.185H329.21C325.483 327.185 324.805 325.768 324.805 323.643V313.694H322.587V310.613H324.805V306.178H329.117Z" fill="white"/>
<defs>
<filter id="filter0_d_1_11187" x="0.2" y="0.2" width="450.6" height="598.6" filterUnits="userSpaceOnUse" color-interpolation-filters="sRGB">
<feFlood flood-opacity="0" result="BackgroundImageFix"/>
<feColorMatrix in="SourceAlpha" type="matrix" values="0 0 0 0 0 0 0 0 0 0 0 0 0 0 0 0 0 0 127 0" result="hardAlpha"/>
<feOffset dx="2" dy="5"/>
<feGaussianBlur stdDeviation="4.9"/>
<feComposite in2="hardAlpha" operator="out"/>
<feColorMatrix type="matrix" values="0 0 0 0 0 0 0 0 0 0 0 0 0 0 0 0 0 0 0.25 0"/>
<feBlend mode="normal" in2="BackgroundImageFix" result="effect1_dropShadow_1_11187"/>
<feBlend mode="normal" in="SourceGraphic" in2="effect1_dropShadow_1_11187" result="shape"/>
</filter>
</defs>
</svg>
