<svg width="44" height="14" viewBox="0 0 44 14" fill="none" xmlns="http://www.w3.org/2000/svg">
<path fill-rule="evenodd" clip-rule="evenodd" d="M0.422425 12.2621L8.31552 7L0.422425 1.73794C0.318772 1.66884 0.229744 1.58 0.160425 1.47649C0.0911059 1.37298 0.0428533 1.25683 0.0184219 1.13467C-0.00600947 1.01252 -0.00614127 0.886744 0.0180345 0.764536C0.0422102 0.642328 0.0902201 0.526079 0.159322 0.422425C0.298881 0.213088 0.515882 0.0677633 0.762589 0.0184219C0.884746 -0.00600947 1.01052 -0.00614127 1.13273 0.0180345C1.25493 0.0422102 1.37118 0.0902201 1.47484 0.159322L10.4224 6.12439C10.5666 6.2205 10.6848 6.35071 10.7665 6.50345C10.8482 6.6562 10.891 6.82676 10.891 7C10.891 7.17324 10.8482 7.3438 10.7665 7.49655C10.6848 7.64929 10.5666 7.7795 10.4224 7.87561L1.47484 13.8407C1.37118 13.9098 1.25493 13.9578 1.13273 13.982C1.01052 14.0061 0.884746 14.006 0.762589 13.9816C0.640432 13.9571 0.524284 13.9089 0.420775 13.8396C0.317267 13.7703 0.228425 13.6812 0.159322 13.5776C0.0902201 13.4739 0.0422102 13.3577 0.0180345 13.2355C-0.00614127 13.1133 -0.00600947 12.9875 0.0184219 12.8653C0.0428533 12.7432 0.0911059 12.627 0.160425 12.5235C0.229744 12.42 0.318772 12.3312 0.422425 12.2621Z" fill="#17619F"/>
<path fill-rule="evenodd" clip-rule="evenodd" d="M11.4224 12.2621L19.3155 7L11.4224 1.73794C11.3188 1.66884 11.2297 1.58 11.1604 1.47649C11.0911 1.37298 11.0429 1.25683 11.0184 1.13467C10.994 1.01252 10.9939 0.886744 11.018 0.764536C11.0422 0.642328 11.0902 0.526079 11.1593 0.422425C11.2989 0.213088 11.5159 0.0677633 11.7626 0.0184219C11.8847 -0.00600947 12.0105 -0.00614127 12.1327 0.0180345C12.2549 0.0422102 12.3712 0.0902201 12.4748 0.159322L21.4224 6.12439C21.5666 6.2205 21.6848 6.35071 21.7665 6.50345C21.8482 6.6562 21.891 6.82676 21.891 7C21.891 7.17324 21.8482 7.3438 21.7665 7.49655C21.6848 7.64929 21.5666 7.7795 21.4224 7.87561L12.4748 13.8407C12.3712 13.9098 12.2549 13.9578 12.1327 13.982C12.0105 14.0061 11.8847 14.006 11.7626 13.9816C11.6404 13.9571 11.5243 13.9089 11.4208 13.8396C11.3173 13.7703 11.2284 13.6812 11.1593 13.5776C11.0902 13.4739 11.0422 13.3577 11.018 13.2355C10.9939 13.1133 10.994 12.9875 11.0184 12.8653C11.0429 12.7432 11.0911 12.627 11.1604 12.5235C11.2297 12.42 11.3188 12.3312 11.4224 12.2621Z" fill="#17619F"/>
<path fill-rule="evenodd" clip-rule="evenodd" d="M22.4224 12.2621L30.3155 7L22.4224 1.73794C22.3188 1.66884 22.2297 1.58 22.1604 1.47649C22.0911 1.37298 22.0429 1.25683 22.0184 1.13467C21.994 1.01252 21.9939 0.886744 22.018 0.764536C22.0422 0.642328 22.0902 0.526079 22.1593 0.422425C22.2989 0.213088 22.5159 0.0677633 22.7626 0.0184219C22.8847 -0.00600947 23.0105 -0.00614127 23.1327 0.0180345C23.2549 0.0422102 23.3712 0.0902201 23.4748 0.159322L32.4224 6.12439C32.5666 6.2205 32.6848 6.35071 32.7665 6.50345C32.8482 6.6562 32.891 6.82676 32.891 7C32.891 7.17324 32.8482 7.3438 32.7665 7.49655C32.6848 7.64929 32.5666 7.7795 32.4224 7.87561L23.4748 13.8407C23.3712 13.9098 23.2549 13.9578 23.1327 13.982C23.0105 14.0061 22.8847 14.006 22.7626 13.9816C22.6404 13.9571 22.5243 13.9089 22.4208 13.8396C22.3173 13.7703 22.2284 13.6812 22.1593 13.5776C22.0902 13.4739 22.0422 13.3577 22.018 13.2355C21.9939 13.1133 21.994 12.9875 22.0184 12.8653C22.0429 12.7432 22.0911 12.627 22.1604 12.5235C22.2297 12.42 22.3188 12.3312 22.4224 12.2621Z" fill="#17619F"/>
<path fill-rule="evenodd" clip-rule="evenodd" d="M33.4224 12.2621L41.3155 7L33.4224 1.73794C33.3188 1.66884 33.2297 1.58 33.1604 1.47649C33.0911 1.37298 33.0429 1.25683 33.0184 1.13467C32.994 1.01252 32.9939 0.886744 33.018 0.764536C33.0422 0.642328 33.0902 0.526079 33.1593 0.422425C33.2989 0.213088 33.5159 0.0677633 33.7626 0.0184219C33.8847 -0.00600947 34.0105 -0.00614127 34.1327 0.0180345C34.2549 0.0422102 34.3712 0.0902201 34.4748 0.159322L43.4224 6.12439C43.5666 6.2205 43.6848 6.35071 43.7665 6.50345C43.8482 6.6562 43.891 6.82676 43.891 7C43.891 7.17324 43.8482 7.3438 43.7665 7.49655C43.6848 7.64929 43.5666 7.7795 43.4224 7.87561L34.4748 13.8407C34.3712 13.9098 34.2549 13.9578 34.1327 13.982C34.0105 14.0061 33.8847 14.006 33.7626 13.9816C33.6404 13.9571 33.5243 13.9089 33.4208 13.8396C33.3173 13.7703 33.2284 13.6812 33.1593 13.5776C33.0902 13.4739 33.0422 13.3577 33.018 13.2355C32.9939 13.1133 32.994 12.9875 33.0184 12.8653C33.0429 12.7432 33.0911 12.627 33.1604 12.5235C33.2297 12.42 33.3188 12.3312 33.4224 12.2621Z" fill="#17619F"/>
</svg>
