<svg width="695" height="514" viewBox="0 0 695 514" fill="none" xmlns="http://www.w3.org/2000/svg">
<path d="M562.21 494.614C565.934 497.778 593.515 481.343 619.421 477.648C611.532 465.241 589.928 407.941 585.997 384.934C571.492 381.11 555.117 384.602 547.073 390.066C544.733 391.646 541.285 396.764 541.577 400.22C542.248 408.166 559.383 485.137 562.21 494.614Z" fill="url(#paint0_linear_1428_520)"/>
<path d="M567.832 490.049C563.047 468.022 571.267 439.426 574.735 424.762C576.761 416.207 578.101 410.994 579.265 405.149C574.66 403.541 570.022 403.546 557.634 403.207C548.071 402.939 542.588 403.052 541.551 400.103C543.954 416.813 556.7 473.646 562.198 494.602C561.999 493.275 565.152 491.023 567.832 490.049Z" fill="url(#paint1_linear_1428_520)"/>
<path d="M717.565 399.054C735.831 385.996 750.361 361.005 735.624 343.013C752.862 359.187 765.344 376.804 780.205 395.265C795.836 414.702 783.152 440.205 763.447 453.145C760.605 455.004 719.473 397.704 717.565 399.054Z" fill="url(#paint2_linear_1428_520)"/>
<path d="M702.601 -103.065C713.331 -84.6193 747.259 -21.5994 755.631 -5.52774C775.511 32.6616 761.413 47.252 752.504 81.2735C678.395 56.6817 592.223 69.7294 525.746 49.121C537.069 30.315 527.659 -113.534 532.779 -152.473C568.197 -140.939 661.508 -152.197 702.613 -103.077L702.601 -103.065Z" fill="url(#paint3_linear_1428_520)"/>
<path style="mix-blend-mode:multiply" d="M468.681 10.8925C468.33 -9.90066 510.264 -27.4997 562.382 -28.4092C614.5 -29.3187 657.032 -13.1925 657.394 7.58866C657.757 28.3698 615.811 45.9808 563.694 46.8903C511.576 47.7998 469.044 31.6736 468.681 10.8925Z" fill="url(#paint4_radial_1428_520)"/>
<path style="mix-blend-mode:multiply" d="M624.803 -29.7698C645.534 -28.166 659.511 9.61348 656.008 54.6113C652.516 99.5971 632.868 134.759 612.137 133.155C591.406 131.552 577.43 93.772 580.933 48.7742C584.424 3.78839 604.072 -31.3736 624.803 -29.7698Z" fill="url(#paint5_radial_1428_520)"/>
<path d="M213.658 563.358C209.508 555.01 204.047 543.493 209.556 534.881C217.385 522.677 285.013 520.82 280.959 521.251C271.077 522.295 257.666 524.232 252.927 533.149C248.358 541.722 253.526 552.561 257.567 560.711C257.238 560.046 214.327 564.677 213.682 563.358L213.658 563.358Z" fill="url(#paint6_linear_1428_520)"/>
<path style="mix-blend-mode:multiply" d="M425.264 525.392C429.992 515.816 449.021 515.564 467.759 524.828C486.496 534.092 497.856 549.349 493.128 558.926C488.399 568.502 469.37 568.754 450.633 559.49C431.896 550.226 420.535 534.968 425.264 525.392Z" fill="url(#paint7_radial_1428_520)"/>
<path d="M495.558 570.729C517.138 578.204 526.191 524.241 564.781 526.012C564.781 526.012 534.939 491.199 532.479 488.284C529.67 484.964 526.19 484.467 526.178 484.456C490.27 483.312 472.81 543.662 442.114 537.972C453.235 545.795 472.988 557.431 495.569 570.717L495.558 570.729Z" fill="url(#paint8_linear_1428_520)"/>
<path d="M529.589 485.741C530.242 486.119 530.803 486.592 531.271 487.114C544.339 501.708 559.591 520.269 564.839 525.951C557.246 518.695 539.332 506.499 531.692 504.293C533.477 495.341 533.273 490.048 531.108 487.258C530.688 486.712 530.459 486.421 529.899 485.971C529.815 485.89 529.708 485.81 529.577 485.729L529.589 485.741Z" fill="url(#paint9_linear_1428_520)"/>
<path d="M734.276 390.212C722.548 385.625 704.686 390.295 693.414 413.62C678.372 444.717 707.408 481.344 692.637 501.631C672.03 490.279 642.124 469.603 624.272 461.173C644.01 442.335 608.258 411.785 623.026 379.775C634.668 354.584 659.452 354.274 667.882 358.032C692.474 369.001 731.341 388.483 734.276 390.212Z" fill="url(#paint10_linear_1428_520)"/>
<path d="M734.277 390.213C737.462 392.068 739.551 395.318 739.791 397.727C738.29 396.621 672.183 365.484 671.377 365.12C671.387 362.86 669.778 359.496 666.533 357.513C681.663 362.845 731.877 388.816 734.266 390.225L734.277 390.213Z" fill="url(#paint11_linear_1428_520)"/>
<path d="M647.127 313.807C630.392 294.529 593.831 322.587 593.831 322.587C593.831 322.587 580.672 251.942 512.762 200.458C542.57 182.728 579.151 181.119 591.859 195.248C600.37 204.714 632.751 260.955 647.127 313.807Z" fill="url(#paint12_linear_1428_520)"/>
<path d="M647.145 314.148C651.041 330.704 641.389 338.666 634.555 342.544C618.258 314.796 589.573 252.773 573.048 244.168C591.988 221.129 600.603 200.143 586.469 190.957C602.846 198.399 638.443 277.165 647.133 314.16L647.145 314.148Z" fill="url(#paint13_linear_1428_520)"/>
<path d="M746.534 516.641C761.641 526.282 782.072 539.826 782.543 560.041C783.223 588.727 680.937 663.08 686.752 658.077C700.89 645.911 719.523 628.551 717.549 608.62C715.647 589.429 696.382 576.69 681.657 567.302C682.858 568.071 744.144 515.115 746.534 516.641Z" fill="url(#paint14_linear_1428_520)"/>
<path style="mix-blend-mode:multiply" d="M688.773 530.991C675.753 528.72 668.826 506.033 673.315 480.312C677.803 454.59 691.995 435.596 705.027 437.878C718.047 440.149 724.974 462.836 720.485 488.558C715.997 514.28 701.805 533.274 688.773 530.991Z" fill="url(#paint15_radial_1428_520)"/>
<path d="M837.369 496.573C841.097 491.333 816.383 456.966 808.56 423.359C793.156 435.134 720.347 470.034 690.576 477.817C687.199 497.318 693.676 518.411 701.736 528.367C704.067 531.248 711.182 535.216 715.701 534.425C726.066 532.643 825.218 501.374 837.357 496.562L837.369 496.573Z" fill="url(#paint16_linear_1428_520)"/>
<path d="M830.725 489.725C802.324 498.51 763.829 490.993 744.172 488.089C732.703 486.393 725.692 485.236 717.874 484.363C716.281 490.604 716.839 496.68 717.788 513.003C718.535 525.609 719.312 532.776 715.549 534.485C737.231 529.435 810.442 506.205 837.335 496.609C835.599 497.014 832.299 493.148 830.713 489.713L830.725 489.725Z" fill="url(#paint17_linear_1428_520)"/>
<path d="M785.743 150.369C826.838 179.42 741.79 264.969 794.542 331.801C794.542 331.801 693.854 323.063 685.463 322.399C675.916 321.637 670.54 316.039 670.516 316.016C622.336 253.147 708.029 144.364 658.437 96.6659C686.73 106.539 732.946 126.995 785.743 150.369Z" fill="url(#paint18_linear_1428_520)"/>
<path d="M677.192 320.461C678.698 321.131 680.294 321.541 681.827 321.704C724.749 326.394 777.597 329.852 794.522 331.941C771.758 327.652 726.914 311.234 713.13 300.394C699.398 315.084 689.639 321.506 681.877 321.22C680.358 321.163 679.545 321.117 678.044 320.706C677.784 320.64 677.512 320.562 677.216 320.461L677.192 320.461Z" fill="url(#paint19_linear_1428_520)"/>
<path d="M689.126 176.238C671.746 175.074 565.242 146.114 546.427 134.945C626.578 130.871 654.287 89.1266 674.497 76.1197C700.834 101.68 765.904 134.27 800.654 143.072C734.027 173.045 703.777 176.752 689.115 176.25L689.126 176.238Z" fill="url(#paint20_linear_1428_520)"/>
<path d="M546.398 135.358C504.19 86.4212 495.926 -1.60658 495.926 -1.60658C495.926 -1.60658 555.926 2.28714 645.071 -7.48979C631.884 98.297 640.831 168.293 689.409 176.257C600.692 172.597 567.551 159.907 546.375 135.358L546.398 135.358Z" fill="url(#paint21_linear_1428_520)"/>
<path style="mix-blend-mode:multiply" d="M549.854 581.401C536.963 579.14 530.123 556.699 534.557 531.249C539.003 505.81 553.045 486.995 565.947 489.245C578.837 491.506 585.678 513.947 581.243 539.397C576.797 564.836 562.756 583.651 549.854 581.401Z" fill="url(#paint22_radial_1428_520)"/>
<path d="M615.921 599.298C612.499 604.509 610.008 604.068 563.039 614.686C554.924 616.514 543.95 621.366 535.017 620.688C552.964 613.25 528.908 533.425 558.374 517.054C563.833 514.022 571.365 513.228 577.181 511.862C581.39 510.863 634.696 498.387 639.116 498.033C607.031 508.95 626.867 582.629 615.921 599.298Z" fill="url(#paint23_linear_1428_520)"/>
<path d="M639.134 536.64C632.051 538.262 609.428 545.505 600.535 545.121C594.378 534.992 578.804 511.07 557.605 517.583C561.593 511.692 638.721 491.882 652.316 499.088C663.442 504.968 671.569 517.56 677.604 527.478C676.927 526.359 642.37 535.881 639.122 536.628L639.134 536.64Z" fill="url(#paint24_linear_1428_520)"/>
<path d="M141.155 539.093C140.955 529.008 135.361 517.27 124.947 518.17C135.315 515.882 145.023 515.712 155.638 514.891C166.806 514.026 173.051 525.212 172.859 535.797C172.825 537.316 141.138 538.033 141.155 539.093Z" fill="url(#paint25_linear_1428_520)"/>
<path d="M113.401 529.163C116.177 524.716 119.457 519.436 124.934 518.181C133.952 516.115 154.506 514.838 156.978 514.868C152.429 515.955 147.732 521.693 145.105 525.891C144.704 526.545 113.585 528.901 113.401 529.187L113.401 529.163Z" fill="url(#paint26_linear_1428_520)"/>
<defs>
<linearGradient id="paint0_linear_1428_520" x1="621.958" y1="430.81" x2="526.204" y2="445.258" gradientUnits="userSpaceOnUse">
<stop offset="0.31" stop-color="#E4E4E4"/>
<stop offset="0.49" stop-color="#CFCFCF"/>
<stop offset="0.82" stop-color="#ADADAD"/>
<stop offset="1" stop-color="#A1A1A1"/>
</linearGradient>
<linearGradient id="paint1_linear_1428_520" x1="581.821" y1="444.851" x2="552.388" y2="447.326" gradientUnits="userSpaceOnUse">
<stop stop-color="#EDEDED"/>
<stop offset="0.32" stop-color="#F0F0F0"/>
<stop offset="0.49" stop-color="#EAEAEA"/>
<stop offset="0.73" stop-color="#D9D9D9"/>
<stop offset="1" stop-color="#BDBDBD"/>
</linearGradient>
<linearGradient id="paint2_linear_1428_520" x1="769.79" y1="381.158" x2="726.926" y2="417.516" gradientUnits="userSpaceOnUse">
<stop stop-color="#A1A1A1"/>
<stop offset="0.19" stop-color="#C0C0C1"/>
<stop offset="0.39" stop-color="#D8D9D9"/>
<stop offset="0.56" stop-color="#E6E7E8"/>
<stop offset="0.71" stop-color="#ECEDEE"/>
<stop offset="1" stop-color="#E3E3E3"/>
</linearGradient>
<linearGradient id="paint3_linear_1428_520" x1="750.932" y1="-39.5773" x2="445.936" y2="-28.6865" gradientUnits="userSpaceOnUse">
<stop stop-color="#B5B5B5"/>
<stop offset="0.05" stop-color="#C8C8C8"/>
<stop offset="0.11" stop-color="#DCDCDC"/>
<stop offset="0.18" stop-color="#E8E8E8"/>
<stop offset="0.25" stop-color="#EDEDED"/>
<stop offset="0.76" stop-color="#DBDBDB"/>
<stop offset="1" stop-color="#D1D1D1"/>
</linearGradient>
<radialGradient id="paint4_radial_1428_520" cx="0" cy="0" r="1" gradientUnits="userSpaceOnUse" gradientTransform="translate(563.1 9.50541) rotate(178.995) scale(94.3387 37.7355)">
<stop stop-color="#8C8C8C"/>
<stop offset="0.09" stop-color="#9B9B9B"/>
<stop offset="0.38" stop-color="#C6C6C6"/>
<stop offset="0.63" stop-color="#E5E5E5"/>
<stop offset="0.85" stop-color="#F8F8F8"/>
<stop offset="1" stop-color="white"/>
</radialGradient>
<radialGradient id="paint5_radial_1428_520" cx="0" cy="0" r="1" gradientUnits="userSpaceOnUse" gradientTransform="translate(621.227 53.057) rotate(-85.5551) scale(81.3557 37.7302)">
<stop stop-color="#8C8C8C"/>
<stop offset="0.09" stop-color="#9B9B9B"/>
<stop offset="0.38" stop-color="#C6C6C6"/>
<stop offset="0.63" stop-color="#E5E5E5"/>
<stop offset="0.85" stop-color="#F8F8F8"/>
<stop offset="1" stop-color="white"/>
</radialGradient>
<linearGradient id="paint6_linear_1428_520" x1="246.51" y1="533.963" x2="242.173" y2="495.451" gradientUnits="userSpaceOnUse">
<stop stop-color="#A1A1A1"/>
<stop offset="0.05" stop-color="#B1B1B1"/>
<stop offset="0.14" stop-color="#C8C8C8"/>
<stop offset="0.24" stop-color="#D7D7D7"/>
<stop offset="0.35" stop-color="#E1E1E1"/>
<stop offset="0.51" stop-color="#E4E4E4"/>
<stop offset="0.71" stop-color="#E1E1E1"/>
<stop offset="0.82" stop-color="#D9D9D9"/>
<stop offset="0.91" stop-color="#CBCBCB"/>
<stop offset="0.95" stop-color="#C3C3C3"/>
</linearGradient>
<radialGradient id="paint7_radial_1428_520" cx="0" cy="0" r="1" gradientUnits="userSpaceOnUse" gradientTransform="translate(458.252 544.214) rotate(-153.715) scale(37.8327 19.2166)">
<stop stop-color="#8C8C8C"/>
<stop offset="0.09" stop-color="#9B9B9B"/>
<stop offset="0.38" stop-color="#C6C6C6"/>
<stop offset="0.63" stop-color="#E5E5E5"/>
<stop offset="0.85" stop-color="#F8F8F8"/>
<stop offset="1" stop-color="white"/>
</radialGradient>
<linearGradient id="paint8_linear_1428_520" x1="468.632" y1="567.502" x2="540.828" y2="493.994" gradientUnits="userSpaceOnUse">
<stop stop-color="#F2F2F2"/>
<stop offset="0.03" stop-color="#EEEEEE"/>
<stop offset="0.12" stop-color="#E8E8E8"/>
<stop offset="0.21" stop-color="#F2F2F2"/>
<stop offset="0.26" stop-color="#FAFAFA"/>
<stop offset="0.48" stop-color="#F6F6F6"/>
<stop offset="0.6" stop-color="#EFEFEF"/>
<stop offset="0.75" stop-color="#DEDEDE"/>
<stop offset="0.93" stop-color="#C1C1C1"/>
<stop offset="1" stop-color="#B4B4B4"/>
</linearGradient>
<linearGradient id="paint9_linear_1428_520" x1="553.572" y1="499.767" x2="540.061" y2="512.784" gradientUnits="userSpaceOnUse">
<stop stop-color="#DADADA"/>
<stop offset="0.31" stop-color="#DDDDDD"/>
<stop offset="0.61" stop-color="#E9E9E9"/>
<stop offset="0.86" stop-color="#FAFAFA"/>
</linearGradient>
<linearGradient id="paint10_linear_1428_520" x1="640.66" y1="476.483" x2="692.44" y2="369.444" gradientUnits="userSpaceOnUse">
<stop stop-color="#E3E3E3"/>
<stop offset="0.29" stop-color="#ECEDEE"/>
<stop offset="0.6" stop-color="#E9EAEB"/>
<stop offset="0.73" stop-color="#E2E3E4"/>
<stop offset="0.83" stop-color="#D6D7D7"/>
<stop offset="0.92" stop-color="#C5C5C6"/>
<stop offset="0.99" stop-color="#AEAFAF"/>
<stop offset="1" stop-color="#ABABAB"/>
</linearGradient>
<linearGradient id="paint11_linear_1428_520" x1="711.64" y1="348.518" x2="705.364" y2="370.311" gradientUnits="userSpaceOnUse">
<stop stop-color="#C9CACC"/>
<stop offset="0.31" stop-color="#E2E2E3"/>
<stop offset="0.51" stop-color="#EDEDED"/>
</linearGradient>
<linearGradient id="paint12_linear_1428_520" x1="618.989" y1="231.959" x2="549.157" y2="276.948" gradientUnits="userSpaceOnUse">
<stop stop-color="#ABABAB"/>
<stop offset="0.15" stop-color="#B1B1B1"/>
<stop offset="0.37" stop-color="#C4C4C5"/>
<stop offset="0.64" stop-color="#E2E3E4"/>
<stop offset="0.71" stop-color="#ECEDEE"/>
<stop offset="1" stop-color="#E3E3E3"/>
</linearGradient>
<linearGradient id="paint13_linear_1428_520" x1="632.124" y1="254.995" x2="590.107" y2="277.894" gradientUnits="userSpaceOnUse">
<stop stop-color="#C9CACC"/>
<stop offset="0.31" stop-color="#E2E2E3"/>
<stop offset="0.51" stop-color="#EDEDED"/>
</linearGradient>
<linearGradient id="paint14_linear_1428_520" x1="695.734" y1="553.29" x2="742.586" y2="613.289" gradientUnits="userSpaceOnUse">
<stop stop-color="#A1A1A1"/>
<stop offset="0.05" stop-color="#B1B1B1"/>
<stop offset="0.14" stop-color="#C8C8C8"/>
<stop offset="0.24" stop-color="#D7D7D7"/>
<stop offset="0.35" stop-color="#E1E1E1"/>
<stop offset="0.51" stop-color="#E4E4E4"/>
<stop offset="0.71" stop-color="#E1E1E1"/>
<stop offset="0.82" stop-color="#D9D9D9"/>
<stop offset="0.91" stop-color="#CBCBCB"/>
<stop offset="0.95" stop-color="#C3C3C3"/>
</linearGradient>
<radialGradient id="paint15_radial_1428_520" cx="0" cy="0" r="1" gradientUnits="userSpaceOnUse" gradientTransform="translate(697.723 483.835) rotate(99.8949) scale(47.2384 23.9941)">
<stop stop-color="#8C8C8C"/>
<stop offset="0.09" stop-color="#9B9B9B"/>
<stop offset="0.38" stop-color="#C6C6C6"/>
<stop offset="0.63" stop-color="#E5E5E5"/>
<stop offset="0.85" stop-color="#F8F8F8"/>
<stop offset="1" stop-color="white"/>
</radialGradient>
<linearGradient id="paint16_linear_1428_520" x1="746.696" y1="425.109" x2="776.608" y2="549.236" gradientUnits="userSpaceOnUse">
<stop offset="0.31" stop-color="#E4E4E4"/>
<stop offset="0.49" stop-color="#CFCFCF"/>
<stop offset="0.82" stop-color="#ADADAD"/>
<stop offset="1" stop-color="#A1A1A1"/>
</linearGradient>
<linearGradient id="paint17_linear_1428_520" x1="764.99" y1="466.22" x2="781.309" y2="536.425" gradientUnits="userSpaceOnUse">
<stop stop-color="#EDEDED"/>
<stop offset="0.32" stop-color="#F0F0F0"/>
<stop offset="0.49" stop-color="#EAEAEA"/>
<stop offset="0.73" stop-color="#D9D9D9"/>
<stop offset="1" stop-color="#BDBDBD"/>
</linearGradient>
<linearGradient id="paint18_linear_1428_520" x1="745.292" y1="106.263" x2="706.336" y2="330.008" gradientUnits="userSpaceOnUse">
<stop stop-color="#F2F2F2"/>
<stop offset="0.03" stop-color="#EEEEEE"/>
<stop offset="0.12" stop-color="#E8E8E8"/>
<stop offset="0.21" stop-color="#F2F2F2"/>
<stop offset="0.26" stop-color="#FAFAFA"/>
<stop offset="0.48" stop-color="#F6F6F6"/>
<stop offset="0.6" stop-color="#EFEFEF"/>
<stop offset="0.75" stop-color="#DEDEDE"/>
<stop offset="0.93" stop-color="#C1C1C1"/>
<stop offset="1" stop-color="#B4B4B4"/>
</linearGradient>
<linearGradient id="paint19_linear_1428_520" x1="733.05" y1="345.403" x2="739.028" y2="304.478" gradientUnits="userSpaceOnUse">
<stop stop-color="#DADADA"/>
<stop offset="0.31" stop-color="#DDDDDD"/>
<stop offset="0.61" stop-color="#E9E9E9"/>
<stop offset="0.86" stop-color="#FAFAFA"/>
</linearGradient>
<linearGradient id="paint20_linear_1428_520" x1="696.006" y1="-4.44883" x2="667.992" y2="174.429" gradientUnits="userSpaceOnUse">
<stop stop-color="#F2F2F2"/>
<stop offset="0.03" stop-color="#EEEEEE"/>
<stop offset="0.12" stop-color="#E8E8E8"/>
<stop offset="0.21" stop-color="#F2F2F2"/>
<stop offset="0.26" stop-color="#FAFAFA"/>
<stop offset="0.48" stop-color="#F6F6F6"/>
<stop offset="0.6" stop-color="#EFEFEF"/>
<stop offset="0.75" stop-color="#DEDEDE"/>
<stop offset="0.93" stop-color="#C1C1C1"/>
<stop offset="1" stop-color="#B4B4B4"/>
</linearGradient>
<linearGradient id="paint21_linear_1428_520" x1="598.672" y1="172.017" x2="584.346" y2="-28.8209" gradientUnits="userSpaceOnUse">
<stop offset="0.22" stop-color="#F6F6F6"/>
<stop offset="0.41" stop-color="#EEEEEE"/>
<stop offset="0.7" stop-color="#D9D8D8"/>
<stop offset="1" stop-color="#BDBCBC"/>
</linearGradient>
<radialGradient id="paint22_radial_1428_520" cx="0" cy="0" r="1" gradientUnits="userSpaceOnUse" gradientTransform="translate(558.45 534.667) rotate(99.8949) scale(46.7456 23.7438)">
<stop stop-color="#8C8C8C"/>
<stop offset="0.09" stop-color="#9B9B9B"/>
<stop offset="0.38" stop-color="#C6C6C6"/>
<stop offset="0.63" stop-color="#E5E5E5"/>
<stop offset="0.85" stop-color="#F8F8F8"/>
<stop offset="1" stop-color="white"/>
</radialGradient>
<linearGradient id="paint23_linear_1428_520" x1="590.243" y1="605.205" x2="583.733" y2="512.411" gradientUnits="userSpaceOnUse">
<stop stop-color="#ABABAB"/>
<stop offset="0.02" stop-color="#ACACAC"/>
<stop offset="0.42" stop-color="#C9C9C9"/>
<stop offset="0.64" stop-color="#D4D4D4"/>
<stop offset="0.99" stop-color="#C4C4C4"/>
</linearGradient>
<linearGradient id="paint24_linear_1428_520" x1="622.523" y1="541.718" x2="612.074" y2="501.2" gradientUnits="userSpaceOnUse">
<stop stop-color="#EDEDED"/>
<stop offset="0.32" stop-color="#F0F0F0"/>
<stop offset="0.49" stop-color="#EAEAEA"/>
<stop offset="0.73" stop-color="#D9D9D9"/>
<stop offset="1" stop-color="#BDBDBD"/>
</linearGradient>
<linearGradient id="paint25_linear_1428_520" x1="147.762" y1="515.221" x2="150.368" y2="540.335" gradientUnits="userSpaceOnUse">
<stop stop-color="#A1A1A1"/>
<stop offset="0.19" stop-color="#C0C0C1"/>
<stop offset="0.39" stop-color="#D8D9D9"/>
<stop offset="0.56" stop-color="#E6E7E8"/>
<stop offset="0.71" stop-color="#ECEDEE"/>
<stop offset="1" stop-color="#E3E3E3"/>
</linearGradient>
<linearGradient id="paint26_linear_1428_520" x1="134.567" y1="516.272" x2="135.788" y2="528.042" gradientUnits="userSpaceOnUse">
<stop stop-color="#BDBDBD"/>
<stop offset="0.27" stop-color="#D9D9D9"/>
<stop offset="0.51" stop-color="#EAEAEA"/>
<stop offset="0.68" stop-color="#F0F0F0"/>
<stop offset="0.99" stop-color="#EDEDED"/>
</linearGradient>
</defs>
</svg>
