<svg width="41" height="41" viewBox="0 0 41 41" fill="none" xmlns="http://www.w3.org/2000/svg">
<path fill-rule="evenodd" clip-rule="evenodd" d="M18.432 0.12207C15.5948 0.122312 12.7987 0.801057 10.2771 2.10168C7.75555 3.4023 5.58155 5.28708 3.93653 7.59877C2.29151 9.91047 1.22316 12.582 0.820617 15.3906C0.418074 18.1991 0.693012 21.0632 1.62249 23.7439C2.55197 26.4246 4.10904 28.8442 6.16379 30.8007C8.21854 32.7572 10.7114 34.194 13.4344 34.9912C16.1573 35.7884 19.0314 35.9228 21.8169 35.3833C24.6024 34.8438 27.2185 33.646 29.4469 31.8898L37.0916 39.5345C37.4864 39.9158 38.0152 40.1268 38.564 40.122C39.1129 40.1172 39.6379 39.8971 40.026 39.509C40.4141 39.1208 40.6343 38.5958 40.639 38.047C40.6438 37.4981 40.4328 36.9694 40.0515 36.5746L32.4068 28.9299C34.475 26.3062 35.7627 23.1532 36.1226 19.8319C36.4825 16.5105 35.9001 13.1549 34.442 10.1491C32.9838 7.1433 30.7089 4.60873 27.8776 2.83545C25.0462 1.06218 21.7729 0.121846 18.432 0.12207ZM4.82568 17.915C4.82568 14.3064 6.25921 10.8455 8.81089 8.29385C11.3626 5.74217 14.8234 4.30864 18.432 4.30864C22.0407 4.30864 25.5015 5.74217 28.0532 8.29385C30.6049 10.8455 32.0384 14.3064 32.0384 17.915C32.0384 21.5236 30.6049 24.9845 28.0532 27.5362C25.5015 30.0878 22.0407 31.5214 18.432 31.5214C14.8234 31.5214 11.3626 30.0878 8.81089 27.5362C6.25921 24.9845 4.82568 21.5236 4.82568 17.915Z" fill="url(#paint0_linear_1_8039)"/>
<defs>
<linearGradient id="paint0_linear_1_8039" x1="20.6399" y1="0.12207" x2="20.6399" y2="40.1221" gradientUnits="userSpaceOnUse">
<stop stop-color="#734CB4"/>
<stop offset="1" stop-color="#D66666"/>
</linearGradient>
</defs>
</svg>
