<svg width="876" height="526" viewBox="0 0 876 526" fill="none" xmlns="http://www.w3.org/2000/svg">
<g clip-path="url(#clip0_14_44506)">
<rect width="876" height="526" rx="6" fill="#FFF4E3"/>
<path d="M705.923 173.302L705.196 179.761L708.947 180.183L711.172 177.135L705.923 173.302ZM791.423 63.9987C790.87 60.4517 787.546 58.0248 783.999 58.578L726.198 67.5925C722.651 68.1457 720.224 71.4695 720.777 75.0165C721.331 78.5635 724.654 80.9904 728.201 80.4372L779.58 72.4243L787.593 123.803C788.146 127.35 791.47 129.777 795.017 129.224C798.564 128.671 800.991 125.347 800.438 121.8L791.423 63.9987ZM565.657 157.526L566.383 151.067L561.292 150.494L559.546 155.31L565.657 157.526ZM521.872 278.293L517.713 283.289L524.828 289.212L527.983 280.509L521.872 278.293ZM419.728 193.252L423.887 188.257L414.89 180.766L413.289 192.363L419.728 193.252ZM391.257 399.536L387.151 404.575L396.115 411.879L397.696 400.425L391.257 399.536ZM247.437 282.342L251.543 277.303L245.174 272.113L241.589 279.505L247.437 282.342ZM191.77 397.117L195.591 402.376L196.908 401.419L197.619 399.954L191.77 397.117ZM711.172 177.135L790.251 68.8334L779.751 61.1673L700.673 169.469L711.172 177.135ZM564.93 163.985L705.196 179.761L706.649 166.842L566.383 151.067L564.93 163.985ZM527.983 280.509L571.768 159.741L559.546 155.31L515.761 276.078L527.983 280.509ZM415.569 198.247L517.713 283.289L526.031 273.298L423.887 188.257L415.569 198.247ZM397.696 400.425L426.167 194.141L413.289 192.363L384.818 398.647L397.696 400.425ZM243.331 287.381L387.151 404.575L395.363 394.497L251.543 277.303L243.331 287.381ZM64.3214 497.759L195.591 402.376L187.95 391.859L56.6797 487.242L64.3214 497.759ZM197.619 399.954L253.286 285.178L241.589 279.505L185.922 394.281L197.619 399.954Z" fill="#C0C0C0" fill-opacity="0.6"/>
<path d="M161.5 538L73 454L131 298.5L67 103.5L326 162.5L507.5 80L782.5 130L744 298.5L799 445L755.5 530.5" stroke="#C7C7C7" stroke-width="6" stroke-dasharray="10 10"/>
<g clip-path="url(#clip1_14_44506)">
<path d="M670.901 310.313H559.266V317.737H670.901V310.313Z" fill="#DAE5E1"/>
<path d="M574.532 297.692L595.121 297.83L599.536 303.53C601.912 306.457 599.699 310.217 595.927 310.231L573.049 310.084C569.465 310.097 568.209 306.957 570.181 303.967L574.532 297.692Z" fill="#60917F"/>
<path d="M577.343 301.812C577.344 302.289 576.958 302.677 576.481 302.679C576.003 302.68 575.615 302.295 575.613 301.818C575.612 301.341 575.998 300.953 576.475 300.951C576.952 300.949 577.341 301.335 577.343 301.812Z" fill="#7EB8DD"/>
<path d="M591.624 300.601C591.625 301.078 591.24 301.466 590.762 301.468C590.285 301.47 589.896 301.084 589.895 300.607C589.892 300.13 590.279 299.742 590.756 299.74C591.234 299.739 591.622 300.124 591.624 300.601Z" fill="#7EB8DD"/>
<path d="M578.491 307.19C578.492 307.667 578.107 308.055 577.63 308.057C577.152 308.058 576.763 307.673 576.762 307.196C576.76 306.719 577.146 306.331 577.624 306.329C578.101 306.327 578.489 306.712 578.491 307.19Z" fill="#7EB8DD"/>
<path d="M595.122 306.595C595.124 307.243 594.601 307.769 593.953 307.771C593.305 307.773 592.778 307.251 592.775 306.603C592.773 305.957 593.296 305.43 593.944 305.428C594.592 305.426 595.119 305.949 595.122 306.595Z" fill="#7EB8DD"/>
<path d="M585.217 303.925C585.22 304.631 584.649 305.205 583.943 305.207C583.237 305.21 582.663 304.64 582.66 303.934C582.657 303.228 583.228 302.655 583.934 302.652C584.64 302.65 585.214 303.22 585.217 303.925Z" fill="#7EB8DD"/>
<path opacity="0.4" d="M586.072 271.232L586.213 310.037L597.263 309.997C600.44 309.985 602.151 306.268 600.093 303.851L587.715 289.311L587.75 272.098L586.072 271.232Z" fill="#DAE5E1"/>
<path d="M587.714 289.311L587.655 272.801C587.652 271.931 586.943 271.229 586.073 271.231L582.471 271.244C581.601 271.247 580.898 271.955 580.901 272.825L580.96 289.335L569.578 304.13C568.054 306.786 569.981 310.095 573.047 310.083L596.793 309.998C599.948 309.987 601.837 306.488 600.113 303.849L587.714 289.311Z" stroke="#DAE5E1" stroke-width="1.2465" stroke-miterlimit="10" stroke-linecap="round" stroke-linejoin="round"/>
<path d="M611.105 301.359L625.717 301.457L628.851 305.502C630.537 307.58 628.966 310.249 626.289 310.259L610.052 310.154C607.508 310.163 606.617 307.934 608.016 305.812L611.105 301.359Z" fill="#88C0D5"/>
<path d="M613.099 304.283C613.1 304.621 612.826 304.897 612.487 304.898C612.148 304.9 611.873 304.626 611.871 304.288C611.87 303.949 612.144 303.673 612.482 303.672C612.822 303.67 613.098 303.944 613.099 304.283Z" fill="#71A8BE"/>
<path d="M623.235 303.424C623.237 303.763 622.962 304.038 622.624 304.04C622.285 304.041 622.009 303.767 622.008 303.428C622.006 303.089 622.281 302.814 622.619 302.813C622.958 302.812 623.234 303.086 623.235 303.424Z" fill="#71A8BE"/>
<path d="M613.913 308.1C613.914 308.439 613.64 308.714 613.302 308.716C612.963 308.717 612.687 308.443 612.686 308.105C612.684 307.766 612.958 307.491 613.297 307.489C613.636 307.487 613.912 307.761 613.913 308.1Z" fill="#71A8BE"/>
<path d="M625.716 307.678C625.717 308.137 625.346 308.512 624.886 308.513C624.426 308.514 624.052 308.144 624.051 307.684C624.049 307.225 624.42 306.851 624.88 306.85C625.34 306.848 625.714 307.219 625.716 307.678Z" fill="#71A8BE"/>
<path d="M618.688 305.783C618.69 306.283 618.285 306.691 617.784 306.693C617.283 306.695 616.875 306.29 616.873 305.79C616.871 305.289 617.276 304.882 617.777 304.88C618.278 304.878 618.686 305.282 618.688 305.783Z" fill="#71A8BE"/>
<path opacity="0.4" d="M619.295 275.012L619.395 310.12L627.237 310.092C629.491 310.084 630.706 307.446 629.245 305.73L620.46 295.411L620.485 275.627L619.295 275.012Z" fill="#DAE5E1"/>
<path d="M620.461 295.411L620.418 276.125C620.416 275.508 619.913 275.009 619.296 275.012L616.74 275.021C616.122 275.023 615.622 275.525 615.625 276.143L615.667 295.428L607.589 305.928C606.508 307.814 607.876 310.162 610.051 310.154L626.905 310.093C629.144 310.084 630.484 307.602 629.262 305.728L620.461 295.411Z" stroke="#DAE5E1" stroke-width="0.8847" stroke-miterlimit="10" stroke-linecap="round" stroke-linejoin="round"/>
<path d="M639.993 301.359L654.606 301.457L657.739 305.502C659.425 307.58 657.855 310.249 655.178 310.259L638.94 310.154C636.397 310.163 635.505 307.934 636.905 305.812L639.993 301.359Z" fill="#88C0D5"/>
<path d="M641.989 304.283C641.991 304.621 641.716 304.897 641.378 304.898C641.039 304.9 640.763 304.626 640.762 304.288C640.76 303.949 641.034 303.673 641.373 303.672C641.711 303.67 641.988 303.944 641.989 304.283Z" fill="#71A8BE"/>
<path d="M652.124 303.424C652.125 303.763 651.851 304.038 651.513 304.04C651.173 304.041 650.898 303.767 650.896 303.428C650.895 303.089 651.169 302.814 651.508 302.813C651.847 302.812 652.123 303.086 652.124 303.424Z" fill="#71A8BE"/>
<path d="M642.802 308.1C642.804 308.439 642.53 308.714 642.19 308.716C641.851 308.717 641.576 308.443 641.574 308.105C641.573 307.766 641.847 307.491 642.185 307.489C642.525 307.487 642.801 307.761 642.802 308.1Z" fill="#71A8BE"/>
<path d="M654.606 307.678C654.608 308.137 654.237 308.512 653.777 308.513C653.317 308.514 652.943 308.144 652.941 307.684C652.94 307.225 653.311 306.851 653.771 306.85C654.23 306.848 654.604 307.219 654.606 307.678Z" fill="#71A8BE"/>
<path d="M647.576 305.783C647.579 306.283 647.174 306.691 646.673 306.693C646.172 306.695 645.764 306.29 645.762 305.79C645.76 305.289 646.165 304.882 646.666 304.88C647.167 304.878 647.574 305.282 647.576 305.783Z" fill="#71A8BE"/>
<path opacity="0.4" d="M648.184 275.012L648.283 310.12L656.126 310.092C658.38 310.084 659.595 307.446 658.134 305.73L649.349 295.411L649.374 275.627L648.184 275.012Z" fill="#DAE5E1"/>
<path d="M649.349 295.411L649.306 276.125C649.304 275.508 648.801 275.009 648.184 275.012L645.628 275.021C645.01 275.023 644.51 275.525 644.513 276.143L644.556 295.428L636.478 305.928C635.396 307.814 636.764 310.162 638.94 310.154L655.794 310.093C658.032 310.084 659.373 307.602 658.15 305.728L649.349 295.411Z" stroke="#DAE5E1" stroke-width="0.8847" stroke-miterlimit="10" stroke-linecap="round" stroke-linejoin="round"/>
<path d="M368.593 220.556H200.848V330.728H368.593V220.556Z" fill="#FFD18C"/>
<path d="M362.812 220.556H206.451V330.728H362.812V220.556Z" fill="#DAE5E1"/>
<path d="M256.596 277.906C255.232 279.033 254.388 280.622 254.22 282.382C254.052 284.141 254.58 285.86 255.707 287.222C258.034 290.034 262.217 290.428 265.033 288.102C267.847 285.779 268.242 281.601 265.916 278.79C263.59 275.979 259.409 275.583 256.596 277.906ZM264.451 287.398C262.024 289.403 258.417 289.063 256.412 286.64C255.441 285.467 254.985 283.985 255.13 282.468C255.275 280.952 256.002 279.581 257.178 278.609C259.603 276.606 263.207 276.948 265.211 279.371C267.217 281.795 266.876 285.395 264.451 287.398Z" fill="#60917F"/>
<path d="M290.513 273.78C288.092 271.375 283.85 269.667 278.211 268.833C278.144 268.823 278.075 268.814 278.008 268.805C278.066 267.577 278.07 266.385 278.02 265.239C277.728 258.534 275.615 254.115 272.069 252.795C269.215 251.733 265.752 252.786 262.055 255.84C260.383 257.221 258.716 258.979 257.105 261.032C257.054 261 257.003 260.964 256.952 260.932C252.145 257.878 247.82 256.393 244.413 256.621C244.278 256.364 244.114 256.117 243.922 255.884C242.419 254.067 239.718 253.812 237.899 255.313C237.018 256.041 236.473 257.068 236.363 258.205C236.253 259.343 236.595 260.454 237.323 261.334C237.516 261.566 237.728 261.772 237.955 261.953C237.09 265.253 237.737 269.777 239.836 275.068C239.859 275.125 239.883 275.181 239.906 275.238C237.584 276.432 235.543 277.738 233.871 279.118C230.175 282.171 228.489 285.371 228.997 288.371C229.627 292.099 233.574 295.004 240.11 296.551C241.228 296.816 242.401 297.035 243.618 297.21C243.616 297.278 243.61 297.346 243.607 297.414C243.367 303.103 244.249 307.588 246.159 310.415C245.138 311.945 245.188 314.024 246.418 315.511C247.921 317.328 250.624 317.584 252.442 316.082C253.317 315.359 253.828 314.359 253.958 313.313C255.741 312.831 257.628 311.775 259.572 310.168L259.573 310.167C261.243 308.787 262.908 307.032 264.517 304.981C265.555 305.644 266.587 306.246 267.608 306.777C271.771 308.942 275.41 309.778 278.221 309.265C278.221 309.265 279.434 309.447 281.222 307.971C283.009 306.494 283.358 305.021 283.358 305.021C284.389 302.36 284.25 298.632 282.903 294.141C282.573 293.04 282.176 291.915 281.718 290.772C284.037 289.579 286.076 288.275 287.746 286.896C289.691 285.29 291.084 283.636 291.894 281.976C292.947 282.046 294.026 281.731 294.902 281.008C296.719 279.507 296.975 276.808 295.471 274.992C294.243 273.505 292.208 273.065 290.513 273.78ZM262.638 256.543C266.068 253.71 269.219 252.71 271.75 253.651C274.929 254.834 276.832 258.964 277.107 265.279C277.155 266.374 277.151 267.511 277.1 268.682C273.727 268.266 270.066 268.178 266.251 268.416C263.522 265.745 260.697 263.421 257.873 261.532C259.426 259.56 261.03 257.871 262.638 256.543ZM267.128 269.289C270.661 269.114 274.016 269.225 277.05 269.599C276.851 272.685 276.324 275.994 275.491 279.399C274.273 277.633 272.947 275.878 271.524 274.158C270.103 272.442 268.632 270.813 267.128 269.289ZM270.819 274.741C272.404 276.655 273.867 278.613 275.191 280.581C274.587 282.873 273.85 285.202 272.982 287.53C272.118 289.849 271.148 292.094 270.099 294.227C267.805 294.856 265.416 295.385 262.974 295.798C260.521 296.211 258.092 296.497 255.725 296.659C254.04 294.991 252.39 293.188 250.806 291.272C249.218 289.353 247.759 287.394 246.442 285.433C247.041 283.148 247.776 280.819 248.645 278.484C249.509 276.165 250.479 273.92 251.529 271.787C253.823 271.158 256.213 270.628 258.654 270.216C261.113 269.801 263.541 269.518 265.899 269.36C267.579 271.021 269.232 272.822 270.819 274.741ZM265.016 268.504C262.881 268.675 260.701 268.946 258.502 269.316C256.311 269.686 254.159 270.149 252.079 270.694C253.683 267.573 255.456 264.716 257.311 262.259C259.851 263.959 262.459 266.065 265.016 268.504ZM237.273 258.292C237.359 257.398 237.788 256.59 238.482 256.017C239.912 254.836 242.036 255.038 243.218 256.466C243.43 256.721 243.596 257 243.72 257.291C243.754 257.371 243.785 257.452 243.813 257.534C243.814 257.539 243.816 257.544 243.818 257.549C244.216 258.757 243.891 260.107 242.987 261C242.976 261.01 242.966 261.019 242.955 261.03C242.898 261.085 242.838 261.139 242.775 261.191C242.773 261.193 242.77 261.195 242.768 261.197C242.766 261.199 242.764 261.201 242.761 261.203C242.698 261.255 242.634 261.303 242.568 261.349C242.556 261.358 242.545 261.366 242.533 261.375C241.708 261.941 240.674 262.104 239.728 261.849C239.725 261.848 239.723 261.848 239.72 261.847C239.639 261.825 239.56 261.8 239.482 261.772C239.468 261.767 239.455 261.762 239.441 261.757C239.374 261.733 239.307 261.705 239.241 261.676C239.224 261.668 239.206 261.661 239.189 261.653C239.13 261.625 239.073 261.596 239.016 261.565C238.99 261.551 238.965 261.538 238.94 261.524C238.882 261.49 238.825 261.455 238.769 261.418C238.497 261.24 238.246 261.018 238.029 260.755C237.456 260.061 237.188 259.187 237.273 258.292ZM238.771 262.465C238.781 262.47 238.791 262.473 238.801 262.477C238.88 262.514 238.961 262.549 239.041 262.581C239.054 262.586 239.067 262.59 239.08 262.595C239.161 262.626 239.243 262.655 239.325 262.681C239.334 262.684 239.342 262.686 239.35 262.688C240.58 263.068 241.961 262.888 243.075 262.109C243.093 262.097 243.11 262.084 243.128 262.071C243.201 262.019 243.272 261.965 243.342 261.908C243.346 261.905 243.349 261.903 243.352 261.9C243.355 261.897 243.358 261.894 243.362 261.891C243.431 261.834 243.498 261.774 243.562 261.713C243.577 261.699 243.593 261.684 243.608 261.669C244.737 260.573 245.143 258.974 244.762 257.52L244.761 257.517C248.022 257.401 252.162 258.952 256.547 261.759C254.526 264.442 252.607 267.584 250.891 271.018C247.193 272.056 243.743 273.349 240.726 274.827C238.791 269.996 238.045 265.642 238.771 262.465ZM241.074 275.67C243.839 274.311 246.981 273.109 250.351 272.121C249.424 274.061 248.564 276.085 247.788 278.165C247.01 280.254 246.334 282.342 245.765 284.406C243.848 281.438 242.267 278.482 241.074 275.67ZM240.321 295.664C234.165 294.206 230.464 291.563 229.898 288.22C229.448 285.561 231.023 282.657 234.454 279.823C236.061 278.496 238.024 277.239 240.254 276.086C241.58 279.212 243.334 282.421 245.447 285.602C244.496 289.3 243.894 292.908 243.669 296.296C242.507 296.126 241.388 295.916 240.321 295.664ZM254.507 296.732C251.003 296.908 247.652 296.804 244.579 296.42C244.782 293.372 245.304 290.059 246.14 286.625C247.356 288.388 248.68 290.137 250.101 291.854C251.524 293.574 253 295.205 254.507 296.732ZM252.486 310.884C252.491 310.89 252.495 310.896 252.5 310.903C252.552 310.98 252.602 311.061 252.647 311.141C252.652 311.152 252.659 311.162 252.665 311.173C252.708 311.251 252.748 311.332 252.785 311.414C252.792 311.428 252.798 311.443 252.804 311.457C252.838 311.536 252.869 311.616 252.898 311.697C252.904 311.716 252.91 311.735 252.916 311.755C252.941 311.832 252.964 311.91 252.983 311.99C252.989 312.015 252.994 312.04 252.999 312.065C253.014 312.131 253.026 312.197 253.038 312.265C253.044 312.304 253.049 312.342 253.053 312.381C253.059 312.437 253.066 312.495 253.069 312.552C253.073 312.6 253.075 312.648 253.076 312.695C253.078 312.75 253.078 312.804 253.077 312.858C253.057 313.803 252.644 314.733 251.86 315.38C250.431 316.561 248.305 316.36 247.123 314.931C245.941 313.504 246.143 311.381 247.573 310.2C249.002 309.02 251.125 309.221 252.308 310.648C252.371 310.724 252.43 310.803 252.486 310.884ZM258.992 309.465L258.99 309.467C257.241 310.912 255.555 311.883 253.972 312.362C253.968 312.32 253.96 312.279 253.955 312.238C253.951 312.203 253.946 312.168 253.941 312.133C253.933 312.084 253.925 312.036 253.916 311.988C253.905 311.928 253.892 311.87 253.878 311.811C253.866 311.763 253.854 311.716 253.842 311.669C253.826 311.611 253.809 311.554 253.792 311.496C253.782 311.465 253.772 311.434 253.761 311.403C253.733 311.321 253.703 311.239 253.669 311.157C253.663 311.143 253.657 311.129 253.651 311.115C253.619 311.041 253.585 310.968 253.548 310.894C253.539 310.875 253.529 310.856 253.52 310.838C253.477 310.754 253.431 310.67 253.382 310.588C253.38 310.584 253.377 310.581 253.375 310.577C253.327 310.499 253.277 310.423 253.225 310.348C253.213 310.331 253.201 310.314 253.189 310.297C253.133 310.218 253.075 310.142 253.013 310.067C251.51 308.252 248.81 307.996 246.992 309.497L246.991 309.498C246.928 309.549 246.868 309.603 246.809 309.658C246.798 309.669 246.785 309.678 246.774 309.688C245.024 306.929 244.288 302.556 244.529 297.335C247.877 297.749 251.545 297.837 255.376 297.599C258.117 300.281 260.949 302.61 263.753 304.484C262.2 306.451 260.597 308.139 258.992 309.465ZM256.598 297.51C258.738 297.339 260.923 297.069 263.125 296.698C265.316 296.328 267.468 295.863 269.548 295.319C267.942 298.442 266.168 301.3 264.312 303.758C261.737 302.042 259.133 299.932 256.598 297.51ZM282.031 294.406C283.847 300.461 283.407 304.985 280.793 307.145C278.176 309.306 273.644 308.888 268.032 305.969C267.056 305.461 266.069 304.888 265.077 304.256C267.098 301.573 269.018 298.431 270.735 294.996C274.434 293.959 277.884 292.665 280.901 291.185C281.337 292.277 281.715 293.353 282.031 294.406ZM280.556 290.34C277.791 291.7 274.648 292.903 271.275 293.892C272.203 291.954 273.063 289.929 273.839 287.849C274.618 285.758 275.293 283.665 275.863 281.597C277.768 284.54 279.352 287.491 280.556 290.34ZM287.167 286.193C285.561 287.519 283.601 288.775 281.373 289.927C280.058 286.824 278.301 283.608 276.179 280.414C277.134 276.7 277.736 273.084 277.959 269.72C283.137 270.466 287.297 272.01 289.681 274.246C289.67 274.253 289.661 274.262 289.651 274.269C289.584 274.318 289.518 274.368 289.453 274.421L289.453 274.422C287.635 275.925 287.377 278.624 288.88 280.439C288.942 280.514 289.006 280.586 289.073 280.655C289.087 280.67 289.102 280.685 289.115 280.699C289.181 280.767 289.248 280.833 289.318 280.895L289.32 280.897C289.393 280.963 289.469 281.025 289.545 281.085C289.558 281.095 289.571 281.104 289.584 281.114C289.657 281.169 289.73 281.223 289.806 281.272C289.811 281.276 289.816 281.28 289.822 281.283C289.901 281.335 289.981 281.383 290.062 281.429C290.082 281.441 290.101 281.451 290.122 281.462C290.189 281.498 290.256 281.533 290.325 281.565C290.344 281.575 290.362 281.585 290.381 281.593C290.457 281.628 290.534 281.66 290.612 281.69C290.648 281.704 290.684 281.717 290.72 281.73C290.769 281.748 290.818 281.764 290.867 281.779C290.896 281.789 290.925 281.801 290.956 281.81C290.189 283.276 288.916 284.747 287.167 286.193ZM294.322 280.306C293.538 280.954 292.545 281.186 291.612 281.027C291.555 281.017 291.499 281.006 291.442 280.994C291.403 280.985 291.365 280.976 291.327 280.966C291.26 280.949 291.194 280.929 291.128 280.908C291.106 280.901 291.084 280.894 291.062 280.886C290.983 280.859 290.905 280.828 290.828 280.795C290.813 280.787 290.798 280.782 290.783 280.775C290.702 280.739 290.622 280.698 290.544 280.655C290.533 280.649 290.522 280.643 290.511 280.637C290.432 280.592 290.354 280.542 290.277 280.491C290.269 280.485 290.26 280.479 290.252 280.473C290.176 280.42 290.101 280.364 290.029 280.304C290.022 280.298 290.015 280.292 290.008 280.286C289.935 280.225 289.865 280.161 289.798 280.093C289.792 280.089 289.788 280.083 289.782 280.078C289.713 280.008 289.646 279.935 289.583 279.859C289.147 279.333 288.901 278.713 288.833 278.081C288.826 278.016 288.82 277.952 288.817 277.888C288.817 277.887 288.817 277.886 288.817 277.884C288.793 277.377 288.884 276.867 289.085 276.397C289.289 275.919 289.605 275.48 290.034 275.127C291.463 273.947 293.586 274.148 294.768 275.576C295.952 277.003 295.751 279.126 294.322 280.306Z" fill="#60917F"/>
<path d="M324.425 266.975C324.527 266.975 324.628 267 324.718 267.064C331.548 271.799 335.154 277.209 335.154 282.722C335.154 288.234 331.548 293.657 324.718 298.393C324.539 298.52 324.31 298.52 324.132 298.393C317.302 293.657 313.684 288.234 313.684 282.722C313.684 277.209 317.302 271.799 324.132 267.064C324.221 267 324.322 266.975 324.425 266.975ZM324.425 297.349C330.784 292.855 334.135 287.801 334.135 282.722C334.135 277.63 330.784 272.589 324.425 268.108C318.066 272.589 314.703 277.643 314.703 282.722C314.703 287.814 318.066 292.868 324.425 297.349Z" fill="#60917F"/>
<path d="M324.426 266.975C324.528 266.975 324.629 267 324.719 267.064C331.549 271.799 335.155 277.209 335.155 282.722C335.155 288.234 331.549 293.657 324.719 298.393C324.489 298.558 324.171 298.495 324.005 298.266C323.84 298.036 323.904 297.719 324.133 297.553C330.669 293.008 334.135 287.891 334.123 282.722C334.123 277.553 330.669 272.436 324.133 267.904C323.903 267.739 323.839 267.42 324.005 267.191C324.107 267.051 324.26 266.975 324.426 266.975Z" fill="#60917F"/>
<path d="M324.426 266.975C324.591 266.975 324.744 267.051 324.846 267.191C325.011 267.421 324.948 267.739 324.719 267.904C318.17 272.436 314.716 277.567 314.716 282.723C314.716 287.891 318.182 293.021 324.719 297.554C324.948 297.719 325.012 298.037 324.846 298.267C324.681 298.496 324.362 298.56 324.132 298.394C317.302 293.658 313.684 288.235 313.684 282.723C313.684 277.21 317.302 271.8 324.132 267.064C324.221 267 324.323 266.975 324.426 266.975Z" fill="#60917F"/>
<path d="M319.15 277.783H329.688C329.968 277.783 330.197 278.013 330.197 278.292C330.197 278.572 329.968 278.801 329.688 278.801H319.15C318.87 278.801 318.641 278.572 318.641 278.292C318.641 278.013 318.87 277.783 319.15 277.783Z" fill="#60917F"/>
<path d="M314.703 282.226H334.135C334.415 282.226 334.644 282.455 334.644 282.735C334.644 283.015 334.415 283.244 334.135 283.244H314.703C314.422 283.244 314.193 283.014 314.193 282.735C314.193 282.442 314.422 282.226 314.703 282.226Z" fill="#60917F"/>
<path d="M319.15 286.656H329.688C329.968 286.656 330.197 286.886 330.197 287.165C330.197 287.445 329.968 287.674 329.688 287.674H319.15C318.87 287.674 318.641 287.445 318.641 287.165C318.641 286.886 318.87 286.656 319.15 286.656Z" fill="#60917F"/>
<path d="M334.632 251.724C334.912 251.724 335.141 251.953 335.141 252.233C335.141 257.745 331.535 263.168 324.705 267.904C324.475 268.069 324.157 268.005 323.991 267.777C323.826 267.547 323.889 267.23 324.118 267.064C330.655 262.519 334.109 257.389 334.109 252.233C334.122 251.953 334.351 251.724 334.632 251.724Z" fill="#60917F"/>
<path d="M314.193 251.724C314.473 251.724 314.702 251.953 314.702 252.233C314.702 257.401 318.169 262.532 324.705 267.064C324.935 267.229 324.998 267.547 324.832 267.777C324.667 268.006 324.348 268.07 324.119 267.904C317.289 263.168 313.67 257.745 313.67 252.233C313.683 251.953 313.913 251.724 314.193 251.724Z" fill="#60917F"/>
<path d="M319.15 256.153H329.688C329.968 256.153 330.197 256.383 330.197 256.662C330.197 256.942 329.968 257.171 329.688 257.171H319.15C318.87 257.171 318.641 256.942 318.641 256.662C318.641 256.383 318.87 256.153 319.15 256.153Z" fill="#60917F"/>
<path d="M314.193 251.724H334.135C334.415 251.724 334.644 251.953 334.644 252.233C334.644 252.512 334.414 252.742 334.135 252.742H314.193C313.913 252.742 313.684 252.512 313.684 252.233C313.684 251.953 313.913 251.724 314.193 251.724Z" fill="#60917F"/>
<path d="M324.426 297.463C324.528 297.463 324.63 297.488 324.719 297.552C331.549 302.288 335.155 307.71 335.155 313.223C335.155 313.503 334.926 313.732 334.646 313.732C334.365 313.732 334.136 313.503 334.136 313.223C334.136 308.054 330.684 302.925 324.146 298.392C323.917 298.227 323.853 297.908 324.019 297.679C324.107 297.539 324.26 297.463 324.426 297.463Z" fill="#60917F"/>
<path d="M324.426 297.463C324.591 297.463 324.745 297.539 324.846 297.68C325.012 297.909 324.948 298.227 324.719 298.393C318.17 302.925 314.716 308.055 314.716 313.224C314.716 313.504 314.487 313.733 314.207 313.733C313.926 313.733 313.697 313.504 313.697 313.224C313.697 307.711 317.316 302.288 324.146 297.553C324.222 297.488 324.323 297.463 324.426 297.463Z" fill="#60917F"/>
<path d="M319.15 308.284H329.688C329.968 308.284 330.197 308.514 330.197 308.793C330.197 309.073 329.968 309.302 329.688 309.302H319.15C318.87 309.302 318.641 309.073 318.641 308.793C318.641 308.514 318.87 308.284 319.15 308.284Z" fill="#60917F"/>
<path d="M314.447 312.714H334.388C334.669 312.714 334.898 312.943 334.898 313.223C334.898 313.503 334.669 313.732 334.388 313.732H314.447C314.166 313.732 313.938 313.503 313.938 313.223C313.938 312.943 314.166 312.714 314.447 312.714Z" fill="#60917F"/>
<path d="M253.077 237.252H225.582C225.342 237.252 225.146 237.057 225.146 236.817C225.146 236.577 225.342 236.382 225.582 236.382H253.077C253.318 236.382 253.513 236.577 253.513 236.817C253.513 237.057 253.318 237.252 253.077 237.252Z" fill="#60917F"/>
<path d="M240.621 241.907H225.582C225.342 241.907 225.146 241.712 225.146 241.472C225.146 241.232 225.342 241.037 225.582 241.037H240.621C240.861 241.037 241.056 241.232 241.056 241.472C241.056 241.712 240.861 241.907 240.621 241.907Z" fill="#60917F"/>
<path d="M341.167 237.252H313.672C313.431 237.252 313.236 237.057 313.236 236.817C313.236 236.577 313.431 236.382 313.672 236.382H341.167C341.408 236.382 341.603 236.577 341.603 236.817C341.603 237.057 341.408 237.252 341.167 237.252Z" fill="#60917F"/>
<path d="M319.3 241.907H313.672C313.431 241.907 313.236 241.712 313.236 241.472C313.236 241.232 313.431 241.037 313.672 241.037H319.3C319.54 241.037 319.735 241.232 319.735 241.472C319.735 241.712 319.54 241.907 319.3 241.907Z" fill="#60917F"/>
<path d="M233.101 246.539H225.582C225.342 246.539 225.146 246.344 225.146 246.104C225.146 245.864 225.342 245.669 225.582 245.669H233.101C233.342 245.669 233.537 245.864 233.537 246.104C233.537 246.344 233.342 246.539 233.101 246.539Z" fill="#60917F"/>
<path d="M460.431 411.716C460.431 411.716 472.699 433.315 474.868 477.923C477.038 522.53 477.575 533 477.575 533H440.126L432.094 411.716H460.431Z" fill="#A5A5A5"/>
<path d="M410.971 411.716C410.971 411.716 397.954 435.686 394.302 488.211C391.189 533 391.189 533 391.189 533H429.86L443.41 465.649L451.532 411.716H410.971Z" fill="#A5A5A5"/>
<path d="M437.666 495.228L444.324 453.324L455.046 446.514" stroke="#838383" stroke-width="1.0905" stroke-miterlimit="10"/>
<path d="M429.866 283.652L425.809 317.347L447.002 319.561L444.575 285.249L429.866 283.652Z" fill="#ECB68F"/>
<path d="M431.186 290.267L445.899 303.978L444.574 285.249L431.186 290.267Z" fill="#64341E"/>
<path d="M461.774 241.549C461.774 241.549 474.976 252.286 457.583 261.262L446.705 245.93L461.774 241.549Z" fill="#64341E"/>
<path d="M453.13 234.657C455.118 235.979 430.595 216.447 413.402 234.953C397.558 252.006 424.497 279.25 424.497 279.25L453.13 234.657Z" fill="#64341E"/>
<path d="M452.236 276.129C452.595 273.542 453.398 271.021 454.724 268.693C456.544 265.501 459.259 262.478 463.089 264.467C469.61 267.854 462.647 278.41 455.804 279.029C453.792 279.211 452.01 277.758 452.236 276.129Z" fill="#D09071"/>
<path d="M445.869 235.272C445.869 235.272 461.371 234.84 461.432 255.216C461.492 275.593 460.364 287.936 448.78 292.993C442.281 295.832 432.498 293.865 426.664 285.552C424.373 282.286 423.069 278.431 422.525 274.481L421.788 267.149C421.788 267.149 410.118 232.573 445.869 235.272Z" fill="#ECB68F"/>
<path d="M417.525 244.278C417.653 244.076 437.361 251.208 460.307 245.679C464.232 244.733 467.131 241.661 468.223 237.778C469.278 234.027 467.373 229.531 463.36 226.979C448.958 217.817 436.753 239.375 436.753 239.375L417.525 244.278Z" fill="#64341E"/>
<path d="M434.389 230.946L450.59 234.756L450.929 243.423L429.78 245.497L417.295 242.859L425.388 233.796L434.389 230.946Z" fill="#64341E"/>
<path d="M424.073 240.343L422.79 271.947L415.191 259.961L417.137 238.805L424.073 240.343Z" fill="#64341E"/>
<path d="M425.698 276.161C425.24 273.423 424.312 270.77 422.834 268.337C420.806 265 417.833 261.869 413.825 264.095C406.998 267.887 414.708 278.893 421.995 279.347C424.137 279.481 425.987 277.884 425.698 276.161Z" fill="#ECB68F"/>
<path d="M410.111 248.502C419.737 246.487 425.906 237.057 423.888 227.44C421.871 217.823 412.432 211.661 402.806 213.676C393.18 215.691 387.012 225.121 389.03 234.738C391.047 244.355 400.485 250.517 410.111 248.502Z" fill="#64341E"/>
<path d="M526.446 361.382L493.402 337.773C453.295 305.378 442.867 320.72 442.867 320.72L472.166 362.742L511.616 389.101L526.446 361.382Z" fill="#DAE5E1"/>
<path d="M502.312 267.917L528.379 267.702L536.136 283.504C538.656 288.357 534.413 293.055 529.049 291.974L496.583 285.093C491.486 284.067 490.619 279.238 494.294 275.564L502.312 267.917Z" fill="#60917F"/>
<path d="M505.101 274.591C504.964 275.269 504.303 275.708 503.624 275.571C502.945 275.434 502.505 274.773 502.642 274.095C502.779 273.417 503.441 272.977 504.12 273.114C504.798 273.251 505.239 273.912 505.101 274.591Z" fill="#7EB8DD"/>
<path d="M525.75 277.035C525.613 277.714 524.951 278.153 524.272 278.016C523.593 277.879 523.154 277.218 523.291 276.54C523.428 275.861 524.089 275.422 524.768 275.559C525.447 275.695 525.887 276.357 525.75 277.035Z" fill="#7EB8DD"/>
<path d="M505.162 282.567C505.025 283.245 504.364 283.684 503.685 283.547C503.006 283.41 502.566 282.75 502.703 282.071C502.84 281.393 503.501 280.953 504.18 281.09C504.859 281.227 505.299 281.888 505.162 282.567Z" fill="#7EB8DD"/>
<path d="M528.967 286.572C528.781 287.492 527.884 288.088 526.963 287.902C526.042 287.717 525.446 286.82 525.632 285.9C525.817 284.98 526.715 284.384 527.636 284.57C528.556 284.756 529.152 285.652 528.967 286.572Z" fill="#7EB8DD"/>
<path d="M515.675 279.889C515.473 280.892 514.494 281.541 513.49 281.339C512.486 281.137 511.837 280.16 512.039 279.157C512.241 278.154 513.22 277.505 514.223 277.707C515.227 277.909 515.877 278.886 515.675 279.889Z" fill="#7EB8DD"/>
<path opacity="0.4" d="M526.444 233.683L515.305 288.864L531.019 292.03C535.536 292.94 539.054 288.157 536.836 284.122L523.494 259.851L528.573 235.402L526.444 233.683Z" fill="#DAE5E1"/>
<path d="M523.495 259.851L528.234 236.374C528.483 235.137 527.683 233.932 526.444 233.682L521.324 232.651C520.086 232.402 518.88 233.202 518.63 234.439L513.891 257.916L493.394 275.62C490.453 278.95 492.226 284.214 496.584 285.092L530.353 291.896C534.839 292.799 538.545 288.38 536.868 284.125L523.495 259.851Z" stroke="#DAE5E1" stroke-width="1.8083" stroke-miterlimit="10" stroke-linecap="round" stroke-linejoin="round"/>
<path d="M514.459 221.296C514.348 223.197 512.715 224.648 510.812 224.538C508.909 224.427 507.456 222.797 507.566 220.895C507.677 218.994 509.31 217.543 511.213 217.653C513.117 217.763 514.569 219.394 514.459 221.296Z" stroke="#7EB8DD" stroke-width="2.3257" stroke-miterlimit="10"/>
<path d="M537.79 228.507C538.162 227.428 537.588 226.253 536.508 225.882C535.428 225.51 534.251 226.084 533.88 227.163C533.508 228.242 534.082 229.417 535.162 229.788C536.242 230.16 537.419 229.586 537.79 228.507Z" fill="#7EB8DD"/>
<path d="M525.294 201.272C525.208 202.742 523.946 203.864 522.475 203.778C521.005 203.692 519.881 202.432 519.968 200.962C520.053 199.492 521.315 198.371 522.786 198.457C524.257 198.542 525.38 199.802 525.294 201.272Z" fill="#DAE5E1"/>
<path d="M527.855 215.552C527.814 216.258 527.207 216.798 526.499 216.757C525.792 216.716 525.252 216.109 525.293 215.403C525.334 214.696 525.941 214.157 526.649 214.197C527.356 214.238 527.897 214.845 527.855 215.552Z" fill="#DAE5E1"/>
<path d="M545.873 213.475C545.803 214.69 544.759 215.619 543.543 215.548C542.327 215.477 541.397 214.435 541.469 213.22C541.539 212.004 542.583 211.076 543.799 211.147C545.015 211.217 545.944 212.26 545.873 213.475Z" stroke="#7EB8DD" stroke-width="1.4865" stroke-miterlimit="10"/>
<path d="M524.485 298.575L518.146 327.496C524.373 326.542 528.111 325.172 534.284 323.899L537.366 297.616L524.485 298.575Z" fill="#ECB68F"/>
<path d="M535.472 300.818C535.472 300.818 551.908 284.935 544.095 278.474C538.14 273.551 527.707 270.088 523.795 269.065C522.635 268.762 521.421 269.245 520.773 270.253C520.002 271.45 520.265 273.037 521.38 273.923L526.482 277.508L521.251 276.673C519.985 276.471 518.766 277.24 518.404 278.469C518.009 279.812 518.773 281.222 520.114 281.626L523.887 282.761L519.414 284.427C518.352 284.822 517.596 285.769 517.446 286.891C517.168 288.966 519.017 289.716 521.074 289.318L524.4 288.781C524.4 288.781 518.766 297.586 527.12 300.817C535.472 304.048 535.472 300.818 535.472 300.818Z" fill="#ECB68F"/>
<path d="M544.094 278.474L530.453 263.164C529.364 261.943 527.497 261.816 526.254 262.881C525.073 263.892 524.86 265.638 525.765 266.904L532.603 276.468L544.094 278.474Z" fill="#ECB68F"/>
<path d="M518.435 311.93L503.138 373.258C501.12 380.81 507.901 388.6 515.39 390.863C524.042 393.478 532.953 387.636 533.996 378.667L541.15 314.656L518.435 311.93Z" fill="#DAE5E1"/>
<path d="M508.987 347.691L504.938 365.259" stroke="#E4EFFA" stroke-width="1.324" stroke-miterlimit="10"/>
<path d="M468.622 325.92L469.741 332.369C469.741 332.369 478.401 350.46 465.261 375.167L463.291 418.2H412.295L398.215 344.22C396.04 336.803 395.17 326.888 402.139 323.704L421.039 315.797L451.432 317.02L463.452 320.755C465.832 321.639 467.717 323.523 468.622 325.92Z" fill="#60917F"/>
<path d="M434.234 311.632L421.039 315.798L443.622 328.505L451.432 317.004L434.234 311.632Z" fill="#ECB68F"/>
<path d="M451.432 317.005C461.396 357.497 460.51 357.714 460.793 488.038H480.354C480.68 499.061 478.328 429.718 468.122 405.989L476.783 358.353L480.612 344.301L470.529 325.663C470.529 325.663 466.856 318.87 451.432 317.005Z" fill="#DAE5E1"/>
<path d="M451.08 317.341L466.933 331.221L459.65 339.95L468.412 344.694L460.854 390.641" stroke="#E4EFFA" stroke-width="1.324" stroke-miterlimit="10"/>
<path d="M474.049 344.203C474.049 344.203 477.74 355.754 475.419 368.523" stroke="#E4EFFA" stroke-width="1.324" stroke-miterlimit="10"/>
<path d="M421.038 315.798C435.618 366.431 434.368 366.71 427.148 488.969H386.176C386.176 488.969 390.633 431.438 407.386 412.648L394.245 333.718L399.698 322.671L421.038 315.798Z" fill="#DAE5E1"/>
<path d="M421.037 315.798L407.777 333.775L418.451 340.319L407.777 347.949L429.09 392.308" stroke="#E4EFFA" stroke-width="1.324" stroke-miterlimit="10"/>
<path d="M421.66 345.179H405.412V355.435H421.66V345.179Z" fill="#DAE5E1"/>
<path d="M421.66 345.179H405.412V355.435H421.66V345.179Z" stroke="#60917F" stroke-width="0.5975" stroke-miterlimit="10" stroke-linecap="round" stroke-linejoin="round"/>
<path d="M423.045 343.354H404.049V347.881H423.045V343.354Z" fill="#60917F"/>
<path d="M399.839 353.676C396.951 342.135 402.091 328.712 411.78 322.264C408.97 321.231 405.46 321.046 401.075 322.154C396.235 323.378 391.874 326.028 388.242 329.45L372.636 346.154L346.97 373.384C341.776 378.893 341.641 387.449 346.656 393.12C352.055 399.223 361.4 399.753 367.454 394.3L397.818 366.956L405.589 360.786C403.041 359.172 400.951 357.009 399.839 353.676Z" fill="#DAE5E1"/>
<path d="M398.877 366.786L404.642 361.537" stroke="#E4EFFA" stroke-width="1.324" stroke-miterlimit="10"/>
<path d="M449.269 380.008C447.228 380.718 444.997 379.641 444.286 377.602L435.18 351.481L442.571 348.909L451.677 375.03C452.388 377.069 451.309 379.298 449.269 380.008Z" stroke="#DAE5E1" stroke-width="1.1154" stroke-miterlimit="10" stroke-linecap="round" stroke-linejoin="round"/>
<path d="M448.216 377.304C447.007 377.724 445.686 377.086 445.266 375.879L438.695 357.031L443.071 355.509L449.642 374.357C450.062 375.563 449.424 376.883 448.216 377.304Z" fill="#E7E7E7"/>
<path d="M444.044 349.059L434.118 352.513C433.659 352.672 433.158 352.43 432.997 351.972L432.498 350.542C432.339 350.084 432.581 349.583 433.04 349.423L442.966 345.969C443.426 345.809 443.927 346.052 444.087 346.51L444.585 347.939C444.745 348.398 444.502 348.899 444.044 349.059Z" fill="#DAE5E1"/>
<path d="M430.148 375.59L402.878 375.104C400.122 381.739 397.585 387.612 395.16 394.52L433.321 391.961L430.148 375.59Z" fill="#ECB68F"/>
<path d="M444.124 395.839C436.579 397.057 428.539 392.869 427.319 385.331C426.099 377.793 432.163 370.695 439.708 369.476C447.253 368.258 454.358 373.381 455.578 380.919C456.797 388.457 451.669 394.621 444.124 395.839Z" fill="#ECB68F"/>
<path d="M449.725 373.59C449.725 373.59 450.598 366.412 443.362 367.017C436.126 367.622 427.163 373.578 428.255 385.33L449.725 373.59Z" fill="#ECB68F"/>
<path d="M421.634 372.09L418.827 396.884L357.459 398.068L368.063 371.154L421.634 372.09Z" fill="#DAE5E1"/>
<path d="M421.255 375.431L421.633 372.09L400.758 371.725" stroke="#E4EFFA" stroke-width="1.324" stroke-miterlimit="10"/>
<path d="M405.303 397.145L418.826 396.884L419.276 392.902" stroke="#E4EFFA" stroke-width="1.324" stroke-miterlimit="10"/>
<path d="M393.155 371.154H375.375" stroke="#E4EFFA" stroke-width="1.324" stroke-miterlimit="10"/>
<path d="M310.199 422.614L271.846 533.001" stroke="#DAE5E1" stroke-width="4.5441" stroke-miterlimit="10"/>
<path d="M310.199 422.614L344.205 533.001" stroke="#DAE5E1" stroke-width="4.5441" stroke-miterlimit="10"/>
<path d="M559.264 422.614L520.91 533.001" stroke="#DAE5E1" stroke-width="4.5441" stroke-miterlimit="10"/>
<path d="M559.264 422.614L593.269 533.001" stroke="#DAE5E1" stroke-width="4.5441" stroke-miterlimit="10"/>
<path d="M663.834 415.512H210.74V430.147H663.834V415.512Z" fill="#60917F"/>
<path d="M250.418 406.798C247.3 406.798 244.773 404.274 244.773 401.159V365.103H256.062V401.159C256.062 404.274 253.535 406.798 250.418 406.798Z" stroke="#DAE5E1" stroke-width="1.8648" stroke-miterlimit="10" stroke-linecap="round" stroke-linejoin="round"/>
<path d="M250.267 403.17C248.422 403.17 246.926 401.675 246.926 399.832V385.475H253.609V399.831C253.608 401.675 252.112 403.17 250.267 403.17Z" fill="#88C0D5"/>
<path opacity="0.4" d="M251.299 365.102V407.433C251.299 407.433 256.661 405.372 255.834 398.784V365.102L251.299 365.102Z" fill="#DAE5E1"/>
<path d="M270.81 406.798C267.693 406.798 265.166 404.274 265.166 401.159V365.103H276.454V401.159C276.454 404.274 273.927 406.798 270.81 406.798Z" stroke="#DAE5E1" stroke-width="1.8648" stroke-miterlimit="10" stroke-linecap="round" stroke-linejoin="round"/>
<path d="M270.659 403.17C268.814 403.17 267.318 401.675 267.318 399.832V391.754H274.001V399.832C274.001 401.675 272.505 403.17 270.659 403.17Z" fill="#E7E7E7"/>
<path opacity="0.4" d="M271.691 365.102V407.433C271.691 407.433 277.054 405.372 276.227 398.784V365.102L271.691 365.102Z" fill="#DAE5E1"/>
<path d="M291.201 406.798C288.084 406.798 285.557 404.274 285.557 401.159V365.103H296.845V401.159C296.845 404.274 294.318 406.798 291.201 406.798Z" stroke="#DAE5E1" stroke-width="1.8648" stroke-miterlimit="10" stroke-linecap="round" stroke-linejoin="round"/>
<path d="M291.05 403.17C289.205 403.17 287.709 401.675 287.709 399.832V388.074H294.392V399.832C294.392 401.675 292.896 403.17 291.05 403.17Z" fill="#88C0D5"/>
<path opacity="0.4" d="M292.082 365.102V407.433C292.082 407.433 297.444 405.372 296.617 398.784V365.102L292.082 365.102Z" fill="#DAE5E1"/>
<path d="M311.593 406.798C308.476 406.798 305.949 404.274 305.949 401.159V365.103H317.238V401.159C317.238 404.274 314.71 406.798 311.593 406.798Z" stroke="#DAE5E1" stroke-width="1.8648" stroke-miterlimit="10" stroke-linecap="round" stroke-linejoin="round"/>
<path d="M311.443 403.17C309.598 403.17 308.102 401.676 308.102 399.832V381.435H314.785V399.832C314.785 401.676 313.288 403.17 311.443 403.17Z" fill="#E7E7E7"/>
<path opacity="0.4" d="M312.701 365.102V407.433C312.701 407.433 318.063 405.372 317.237 398.784V365.102L312.701 365.102Z" fill="#DAE5E1"/>
<path d="M325.601 373.179H235.318V376.55H325.601V373.179Z" fill="#FFD18C"/>
<path d="M325.601 412.168H235.318V415.539H325.601V412.168Z" fill="#FFD18C"/>
<path d="M239.992 374.864V413.853" stroke="#D8BEBE" stroke-width="0.6162" stroke-miterlimit="10" stroke-linecap="round" stroke-linejoin="round"/>
<path d="M321.084 374.864V413.853" stroke="#D8BEBE" stroke-width="0.6162" stroke-miterlimit="10" stroke-linecap="round" stroke-linejoin="round"/>
<path d="M600.185 378.091C600.185 378.091 585.121 372.553 559.17 380.542C559.17 380.542 583.599 397.293 592.744 391.793C601.889 386.294 600.185 378.091 600.185 378.091Z" fill="#76ADC3"/>
<path d="M547.153 377.665C547.153 377.665 559.179 372.657 576.617 380.877C594.056 389.098 600.186 383.484 600.186 383.484C600.186 383.484 597.559 407.433 573.734 407.433C549.909 407.433 545.94 382.403 547.153 377.665Z" fill="#88C0D5"/>
<path d="M558.603 384.563C559.543 384.563 560.305 383.801 560.305 382.862C560.305 381.923 559.543 381.161 558.603 381.161C557.663 381.161 556.9 381.923 556.9 382.862C556.9 383.801 557.663 384.563 558.603 384.563Z" fill="#76ADC3"/>
<path d="M588.007 392.19C588.947 392.19 589.709 391.428 589.709 390.489C589.709 389.55 588.947 388.788 588.007 388.788C587.067 388.788 586.305 389.55 586.305 390.489C586.305 391.428 587.067 392.19 588.007 392.19Z" fill="#76ADC3"/>
<path d="M573.223 386.117C573.223 386.655 572.787 387.09 572.249 387.09C571.711 387.09 571.275 386.655 571.275 386.117C571.275 385.58 571.711 385.145 572.249 385.145C572.787 385.145 573.223 385.58 573.223 386.117Z" fill="#76ADC3"/>
<path d="M575.172 402.253C575.172 402.79 574.736 403.226 574.198 403.226C573.661 403.226 573.225 402.79 573.225 402.253C573.225 401.716 573.661 401.28 574.198 401.28C574.736 401.28 575.172 401.716 575.172 402.253Z" fill="#76ADC3"/>
<path d="M555.407 390.355C555.407 390.892 554.971 391.328 554.433 391.328C553.895 391.328 553.459 390.892 553.459 390.355C553.459 389.817 553.895 389.382 554.433 389.382C554.971 389.382 555.407 389.817 555.407 390.355Z" fill="#76ADC3"/>
<path d="M565.479 391.302C565.479 391.839 565.043 392.275 564.505 392.275C563.967 392.275 563.531 391.839 563.531 391.302C563.531 390.765 563.967 390.329 564.505 390.329C565.043 390.329 565.479 390.765 565.479 391.302Z" fill="#76ADC3"/>
<path d="M580.981 394.126C580.981 394.663 580.545 395.099 580.007 395.099C579.469 395.099 579.033 394.663 579.033 394.126C579.033 393.589 579.469 393.153 580.007 393.153C580.545 393.153 580.981 393.589 580.981 394.126Z" fill="#76ADC3"/>
<path d="M577.585 354.656V344.767H569.558V354.656C556.787 356.593 546.99 367.577 546.99 380.876C546.99 395.543 558.891 407.432 573.571 407.432C588.251 407.432 600.151 395.543 600.151 380.876C600.152 367.577 590.356 356.594 577.585 354.656Z" stroke="#DAE5E1" stroke-width="1.9727" stroke-miterlimit="10" stroke-linecap="round" stroke-linejoin="round"/>
<path opacity="0.4" d="M574.197 344.767V407.433C574.197 407.433 597.291 407 600.185 383.484C603.078 359.967 577.585 354.656 577.585 354.656V344.767H574.197Z" fill="#DAE5E1"/>
<path d="M601.437 394.126H546.959V398.482H601.437V394.126Z" fill="#FFD18C"/>
<path d="M559.172 397.01L549.697 415.511" stroke="#D8BEBE" stroke-width="0.6162" stroke-miterlimit="10" stroke-linecap="round" stroke-linejoin="round"/>
<path d="M588.008 397.01L597.481 415.511" stroke="#D8BEBE" stroke-width="0.6162" stroke-miterlimit="10" stroke-linecap="round" stroke-linejoin="round"/>
<path d="M629.004 404.841C625.886 404.841 623.359 402.317 623.359 399.202V352.556H634.648V399.202C634.648 402.317 632.121 404.841 629.004 404.841Z" stroke="#DAE5E1" stroke-width="1.8648" stroke-miterlimit="10" stroke-linecap="round" stroke-linejoin="round"/>
<path d="M628.853 401.213C627.008 401.213 625.512 399.719 625.512 397.875V369.594H632.195V397.875C632.194 399.719 630.699 401.213 628.853 401.213Z" fill="#88C0D5"/>
<path opacity="0.4" d="M629.75 352.555V404.841C629.75 404.841 634.647 404.37 634.647 397.011V352.555L629.75 352.555Z" fill="#DAE5E1"/>
<path d="M637.04 353.992H620.968C620.266 353.992 619.697 353.423 619.697 352.722V349.669C619.697 348.968 620.266 348.399 620.968 348.399H637.04C637.741 348.399 638.31 348.968 638.31 349.669V352.722C638.31 353.423 637.741 353.992 637.04 353.992Z" fill="#60917F"/>
<path d="M640.41 394.126H616.158V398.482H640.41V394.126Z" fill="#FFD18C"/>
<path d="M621.772 397.01L614.846 415.511" stroke="#D8BEBE" stroke-width="0.6162" stroke-miterlimit="10" stroke-linecap="round" stroke-linejoin="round"/>
<path d="M636.102 397.01L643.028 415.511" stroke="#D8BEBE" stroke-width="0.6162" stroke-miterlimit="10" stroke-linecap="round" stroke-linejoin="round"/>
</g>
<g filter="url(#filter0_d_14_44506)">
<circle cx="75" cy="435" r="42" fill="#DAE5E1"/>
</g>
<g filter="url(#filter1_d_14_44506)">
<circle cx="74.5" cy="105" r="42.5" fill="#DAE5E1"/>
<path d="M104.535 111.818L104.516 117.509L86.6816 127.873L86.7006 122.183L104.535 111.818Z" fill="#5A9680"/>
<path d="M86.7015 122.183L86.6826 127.873L44.6367 103.598L44.6558 97.9082L86.7015 122.183Z" fill="#5D8D7B"/>
<path d="M104.537 111.819L86.702 122.183L44.6562 97.9083L62.4908 87.5439L104.537 111.819Z" fill="#5A9680"/>
<path d="M89.2901 110.79L88.8046 111.072C89.234 111.459 89.2367 111.928 88.7584 112.206L88.1342 111.845C88.3511 111.719 88.2444 111.433 87.9059 111.237C87.56 111.038 87.0651 110.977 86.8482 111.103C86.6317 111.228 86.738 111.515 87.0839 111.715C87.7833 112.119 87.8845 112.713 87.3166 113.043C86.8382 113.321 86.0288 113.321 85.3676 113.07L84.8819 113.352L84.2578 112.992L84.7434 112.709C84.3067 112.327 84.3039 111.858 84.7822 111.58L85.4064 111.941C85.1895 112.067 85.3034 112.349 85.6494 112.549C85.9878 112.744 86.4755 112.809 86.6923 112.683C86.9165 112.553 86.8022 112.271 86.4637 112.075C85.7644 111.672 85.6561 111.072 86.224 110.742C86.7023 110.464 87.5117 110.465 88.1804 110.712L88.6659 110.43L89.2901 110.79Z" fill="#DAE5E1"/>
<path d="M64.9309 96.7276L64.4452 97.0097C64.8746 97.3962 64.8849 97.8694 64.4066 98.1473L63.7749 97.7826C63.9917 97.6566 63.8926 97.3744 63.5467 97.1747C63.2008 96.9749 62.7057 96.9141 62.489 97.0402C62.2724 97.166 62.3786 97.4527 62.7247 97.6524C63.424 98.0562 63.5327 98.6552 62.9648 98.9852C62.4865 99.2632 61.6695 99.2588 61.0082 99.0071L60.5226 99.2893L59.8984 98.9289L60.3841 98.6467C59.9474 98.2645 59.9446 97.7957 60.4229 97.5176L61.0471 97.878C60.8302 98.0041 60.9442 98.2863 61.2901 98.4861C61.636 98.6858 62.1162 98.7466 62.3331 98.6205C62.5572 98.4902 62.4504 98.2126 62.1045 98.0128C61.405 97.609 61.2968 97.0099 61.8648 96.6798C62.3431 96.4019 63.1525 96.4019 63.821 96.6493L64.3067 96.3672L64.9309 96.7276Z" fill="#DAE5E1"/>
<path d="M64.2256 90.9266C65.1808 91.478 65.1857 92.3637 64.2368 92.9153C63.2957 93.4622 61.7588 93.4666 60.8037 92.9153C59.8562 92.3682 59.8513 91.4737 60.7925 90.9266C61.7414 90.3752 63.2781 90.3795 64.2256 90.9266Z" fill="#DAE5E1"/>
<path d="M80.8101 102.146L79.6075 102.845C80.6769 103.792 80.6836 104.946 79.4955 105.637L77.9539 104.747C78.4917 104.434 78.2254 103.735 77.3756 103.245C76.5334 102.758 75.3182 102.602 74.7803 102.914C74.2425 103.227 74.5163 103.93 75.3586 104.417C77.0882 105.415 77.3512 106.883 75.9467 107.699C74.7663 108.385 72.7649 108.389 71.1348 107.769L69.9245 108.472L68.3828 107.582L69.5932 106.879C68.516 105.936 68.5095 104.773 69.6899 104.087L71.2315 104.977C70.6936 105.289 70.9675 105.993 71.8098 106.479C72.6595 106.97 73.8671 107.122 74.4051 106.809C74.9429 106.497 74.6766 105.797 73.8268 105.307C72.1047 104.313 71.8414 102.836 73.2387 102.024C74.4268 101.334 76.4279 101.338 78.0658 101.955L79.2684 101.256L80.8101 102.146Z" fill="#DAE5E1"/>
<path d="M53.923 96.9139C54.878 97.4654 54.883 98.351 53.9345 98.9022C52.9929 99.4494 51.4638 99.4494 50.5087 98.8981C49.5612 98.351 49.5486 97.4609 50.4903 96.9137C51.4388 96.3625 52.9755 96.3669 53.923 96.9139Z" fill="#DAE5E1"/>
<path d="M98.6828 110.821C99.6379 111.372 99.6429 112.258 98.694 112.81C97.7527 113.357 96.2159 113.361 95.2609 112.81C94.3134 112.262 94.316 111.372 95.2572 110.825C96.2062 110.274 97.7353 110.274 98.6828 110.821Z" fill="#DAE5E1"/>
<path d="M88.3802 116.809C89.3352 117.361 89.3402 118.246 88.3916 118.798C87.4501 119.345 85.9209 119.345 84.9659 118.793C84.0184 118.246 84.0133 117.361 84.9549 116.813C85.9035 116.262 87.4325 116.262 88.3802 116.809Z" fill="#DAE5E1"/>
<path d="M62.507 89.1729L101.725 111.815L86.6927 120.551L70.5392 111.225L47.4746 97.9087L62.507 89.1729ZM67.125 109.202C71.2761 111.598 77.9998 111.594 82.1165 109.202C86.2333 106.809 86.2189 102.915 82.0677 100.518C77.924 98.1256 71.1928 98.1256 67.0761 100.518C62.9593 102.91 62.9812 106.809 67.125 109.202ZM54.453 99.1938L62.9583 104.07C63.2348 102.602 64.3363 101.178 66.2714 100.053C68.2065 98.9287 70.6539 98.2907 73.1942 98.1212L64.7189 93.2279C65.9738 92.4986 65.9675 91.3436 64.7342 90.6315C63.5084 89.9238 61.5068 89.9196 60.2813 90.6317C59.056 91.3438 59.0775 92.4988 60.3033 93.2065L54.4686 96.6408C53.2052 95.9113 51.2036 95.9072 49.9859 96.6147C48.7533 97.3311 48.7748 98.4861 50.0006 99.1938C51.2339 99.9058 53.2203 99.9102 54.453 99.1938ZM88.8889 116.513L94.7311 113.083C95.9945 113.813 97.9809 113.817 99.2062 113.105C100.432 112.393 100.425 111.238 99.192 110.526C97.9663 109.818 95.9721 109.818 94.7467 110.53L86.2419 105.654C85.9501 107.122 84.8563 108.542 82.9212 109.666C80.9861 110.791 78.5311 111.433 76.0059 111.603L84.4813 116.496C83.2187 117.23 83.2327 118.38 84.4585 119.088C85.6918 119.8 87.6782 119.804 88.9109 119.088C90.1285 118.38 90.1222 117.225 88.8889 116.513ZM67.9414 93.1499L66.8282 93.7968L71.3705 96.4193L72.4835 95.7724L67.9414 93.1499ZM90.299 106.058L89.1859 106.705L93.7207 109.323L94.8338 108.676L90.299 106.058ZM58.9007 103.666L60.0064 103.023L55.4643 100.401L54.3584 101.043L58.9007 103.666ZM81.2509 116.57L82.3568 115.927L77.822 113.309L76.7162 113.952L81.2509 116.57Z" fill="#DAE5E1"/>
<path d="M87.9877 102.267L70.1532 112.631L69.332 112.157L87.1666 101.793L87.9877 102.267Z" fill="#86AEDC"/>
<path d="M92.777 105.033L74.9424 115.397L70.1523 112.632L87.9869 102.268L92.777 105.033Z" fill="#E3E6F0"/>
<path d="M93.5942 105.503L75.7596 115.868L74.9434 115.397L92.7779 105.032L93.5942 105.503Z" fill="#86AEDC"/>
<path d="M70.1549 112.632L70.1176 118.324L69.2969 117.85L69.3343 112.158L70.1549 112.632Z" fill="#678CC8"/>
<path d="M74.9427 115.394L74.9052 121.086L70.1191 118.323L70.1565 112.631L74.9427 115.394Z" fill="#D4DBE9"/>
<path d="M75.7624 115.868L75.725 121.56L74.9043 121.086L74.9417 115.395L75.7624 115.868Z" fill="#678CC8"/>
<path d="M104.535 101.707L104.516 107.397L86.6816 117.761L86.7006 112.071L104.535 101.707Z" fill="#5A9680"/>
<path d="M86.7015 112.071L86.6826 117.761L44.6367 93.4861L44.6558 87.7959L86.7015 112.071Z" fill="#5D8D7B"/>
<path d="M104.537 101.707L86.702 112.071L44.6562 87.7959L62.4908 77.4316L104.537 101.707Z" fill="#5A9680"/>
<path d="M89.2901 100.679L88.8046 100.961C89.234 101.347 89.2367 101.816 88.7584 102.094L88.1342 101.734C88.3511 101.608 88.2444 101.321 87.9059 101.126C87.56 100.926 87.0651 100.865 86.8482 100.991C86.6317 101.117 86.738 101.404 87.0839 101.604C87.7833 102.007 87.8845 102.602 87.3166 102.932C86.8382 103.21 86.0288 103.21 85.3676 102.958L84.8819 103.24L84.2578 102.88L84.7434 102.598C84.3067 102.216 84.3039 101.747 84.7822 101.469L85.4064 101.829C85.1895 101.955 85.3034 102.238 85.6494 102.437C85.9878 102.633 86.4755 102.698 86.6923 102.572C86.9165 102.441 86.8022 102.159 86.4637 101.964C85.7644 101.56 85.6561 100.961 86.224 100.631C86.7023 100.353 87.5117 100.353 88.1804 100.601L88.6659 100.318L89.2901 100.679Z" fill="#DAE5E1"/>
<path d="M64.9309 86.6142L64.4452 86.8965C64.8746 87.2828 64.8849 87.756 64.4066 88.034L63.7749 87.6693C63.9917 87.5432 63.8926 87.2611 63.5467 87.0614C63.2008 86.8616 62.7057 86.8009 62.489 86.9269C62.2724 87.0527 62.3786 87.3393 62.7247 87.5391C63.424 87.9429 63.5327 88.5419 62.9648 88.8719C62.4865 89.1499 61.6695 89.1454 61.0082 88.8937L60.5226 89.176L59.8984 88.8156L60.3841 88.5333C59.9474 88.1512 59.9446 87.6824 60.4229 87.4043L61.0471 87.7647C60.8302 87.8908 60.9442 88.1731 61.2901 88.3727C61.636 88.5725 62.1162 88.6333 62.3331 88.5072C62.5572 88.377 62.4504 88.0992 62.1045 87.8995C61.405 87.4957 61.2968 86.8965 61.8648 86.5665C62.3431 86.2885 63.1525 86.2886 63.821 86.5361L64.3067 86.2539L64.9309 86.6142Z" fill="#DAE5E1"/>
<path d="M64.2256 80.8153C65.1808 81.3667 65.1857 82.2524 64.2368 82.8038C63.2957 83.3508 61.7588 83.3553 60.8037 82.8039C59.8562 82.2568 59.8513 81.3622 60.7925 80.8153C61.7414 80.2638 63.2781 80.2682 64.2256 80.8153Z" fill="#DAE5E1"/>
<path d="M80.8101 92.0337L79.6075 92.7326C80.6769 93.6792 80.6836 94.8341 79.4955 95.5244L77.9539 94.6344C78.4917 94.3218 78.2254 93.6229 77.3756 93.1322C76.5334 92.6459 75.3182 92.4895 74.7803 92.8021C74.2425 93.1147 74.5163 93.8181 75.3586 94.3044C77.0882 95.3029 77.3512 96.7706 75.9467 97.5869C74.7663 98.2728 72.7649 98.2772 71.1348 97.6564L69.9245 98.3597L68.3828 97.4697L69.5932 96.7662C68.516 95.8241 68.5095 94.6604 69.6899 93.9744L71.2315 94.8646C70.6936 95.1772 70.9675 95.8805 71.8098 96.3668C72.6595 96.8573 73.8671 97.0093 74.4051 96.6967C74.9429 96.3841 74.6766 95.6852 73.8268 95.1946C72.1047 94.2003 71.8414 92.724 73.2387 91.9121C74.4268 91.2217 76.4279 91.226 78.0658 91.8425L79.2684 91.1436L80.8101 92.0337Z" fill="#DAE5E1"/>
<path d="M53.923 86.8016C54.878 87.353 54.883 88.2387 53.9345 88.7899C52.9929 89.3371 51.4638 89.3371 50.5087 88.7857C49.5612 88.2387 49.5486 87.3486 50.4903 86.8014C51.4388 86.2502 52.9755 86.2545 53.923 86.8016Z" fill="#DAE5E1"/>
<path d="M98.6828 100.709C99.6379 101.26 99.6429 102.146 98.694 102.697C97.7527 103.244 96.2159 103.249 95.2609 102.697C94.3134 102.15 94.316 101.26 95.2572 100.713C96.2062 100.162 97.7353 100.162 98.6828 100.709Z" fill="#DAE5E1"/>
<path d="M88.3802 106.696C89.3352 107.247 89.3402 108.133 88.3916 108.684C87.4501 109.232 85.9209 109.231 84.9659 108.68C84.0184 108.133 84.0133 107.247 84.9549 106.7C85.9035 106.149 87.4325 106.149 88.3802 106.696Z" fill="#DAE5E1"/>
<path d="M62.507 79.0596L101.725 101.702L86.6927 110.438L70.5392 101.112L47.4746 87.7955L62.507 79.0596ZM67.125 99.0884C71.2761 101.485 77.9998 101.481 82.1165 99.0884C86.2333 96.6961 86.2189 92.8014 82.0677 90.4046C77.924 88.0123 71.1928 88.0124 67.0761 90.4048C62.9593 92.7971 62.9812 96.6961 67.125 99.0884ZM54.453 89.0806L62.9583 93.9564C63.2348 92.4889 64.3363 91.0648 66.2714 89.9402C68.2065 88.8156 70.6539 88.1774 73.1942 88.008L64.7189 83.1148C65.9738 82.3855 65.9675 81.2304 64.7342 80.5184C63.5084 79.8106 61.5068 79.8064 60.2813 80.5185C59.056 81.2307 59.0775 82.3856 60.3033 83.0933L54.4686 86.5275C53.2052 85.7981 51.2036 85.794 49.9859 86.5016C48.7533 87.2179 48.7748 88.3728 50.0006 89.0806C51.2339 89.7927 53.2203 89.7969 54.453 89.0806ZM88.8889 106.4L94.7311 102.97C95.9945 103.7 97.9809 103.704 99.2062 102.992C100.432 102.28 100.425 101.125 99.192 100.413C97.9663 99.7049 95.9721 99.705 94.7467 100.417L86.2419 95.541C85.9501 97.0087 84.8563 98.4284 82.9212 99.553C80.9861 100.678 78.5311 101.32 76.0059 101.49L84.4813 106.383C83.2187 107.117 83.2327 108.267 84.4585 108.975C85.6918 109.687 87.6782 109.691 88.9109 108.975C90.1285 108.267 90.1222 107.112 88.8889 106.4ZM67.9414 83.0368L66.8282 83.6837L71.3705 86.306L72.4835 85.6592L67.9414 83.0368ZM90.299 95.945L89.1859 96.5919L93.7207 99.21L94.8338 98.5632L90.299 95.945ZM58.9007 93.5527L60.0064 92.9101L55.4643 90.2876L54.3584 90.9303L58.9007 93.5527ZM81.2509 106.457L82.3568 105.814L77.822 103.196L76.7162 103.838L81.2509 106.457Z" fill="#DAE5E1"/>
<path d="M87.9877 92.1558L70.1532 102.52L69.332 102.046L87.1666 91.6816L87.9877 92.1558Z" fill="#86AEDC"/>
<path d="M92.777 94.9208L74.9424 105.285L70.1523 102.519L87.9869 92.1553L92.777 94.9208Z" fill="#E3E6F0"/>
<path d="M93.5942 95.3921L75.7596 105.756L74.9434 105.285L92.7779 94.9209L93.5942 95.3921Z" fill="#86AEDC"/>
<path d="M70.1549 102.518L70.1176 108.21L69.2969 107.736L69.3343 102.044L70.1549 102.518Z" fill="#678CC8"/>
<path d="M74.9427 105.282L74.9052 110.974L70.1191 108.21L70.1565 102.519L74.9427 105.282Z" fill="#D4DBE9"/>
<path d="M75.7624 105.755L75.725 111.447L74.9043 110.973L74.9417 105.281L75.7624 105.755Z" fill="#678CC8"/>
</g>
<g filter="url(#filter2_d_14_44506)">
<circle cx="798.5" cy="442.5" r="41.5" fill="#DAE5E1"/>
<path d="M824.178 426.721V434.728C824.178 442.577 822.021 450.269 817.939 456.975C813.858 463.678 808.015 469.127 801.042 472.732L798.589 474L796.136 472.732C789.163 469.127 783.32 463.678 779.239 456.975C775.158 450.269 773 442.577 773 434.728V426.721L774.166 426.314C779.007 424.627 782.832 420.911 784.662 416.119L785.088 415H812.09L812.516 416.119C814.346 420.911 818.171 424.627 823.012 426.314L824.178 426.721Z" fill="#BAABF5"/>
<path d="M824.179 426.721V434.728C824.179 442.577 822.021 450.269 817.94 456.975C813.859 463.678 808.016 469.127 801.043 472.732L798.59 474V415H812.091L812.517 416.119C814.347 420.911 818.172 424.627 823.013 426.314L824.179 426.721Z" fill="#9F92D4"/>
<path d="M817.706 431.04V434.466C817.706 440.923 816.018 447.272 812.823 452.828C809.636 458.368 805.018 463.008 799.466 466.244L798.59 466.756L797.715 466.244C792.162 463.008 787.544 458.368 784.358 452.828C781.163 447.272 779.475 440.923 779.475 434.466V431.04L780.33 430.535C783.791 428.496 786.741 425.614 788.863 422.199L789.373 421.378H807.808L808.318 422.199C810.44 425.614 813.39 428.496 816.851 430.535L817.706 431.04Z" fill="#C3F1FF"/>
<path d="M817.706 431.04V434.466C817.706 440.923 816.018 447.272 812.822 452.828C809.636 458.368 805.018 463.008 799.465 466.244L798.59 466.756V421.378H807.808L808.318 422.199C810.44 425.613 813.389 428.496 816.85 430.535L817.706 431.04Z" fill="#B2E0F2"/>
<path d="M804.936 435.801V438.198H801.457V435.801C801.457 434.219 800.171 432.934 798.59 432.934C797.008 432.934 795.723 434.219 795.723 435.801V438.198H792.244V435.801C792.244 432.302 795.091 429.455 798.59 429.455C802.089 429.455 804.936 432.302 804.936 435.801Z" fill="#E1E4FB"/>
<path d="M791.061 437.302H806.119V450.778H791.061V437.302Z" fill="#FFD18C"/>
<path d="M804.935 435.801V438.198H801.457V435.801C801.457 434.219 800.171 432.934 798.59 432.934V429.455C802.089 429.455 804.935 432.302 804.935 435.801Z" fill="#BAABF5"/>
<path d="M798.59 437.302H806.119V450.778H798.59V437.302Z" fill="#FFBF60"/>
</g>
<g filter="url(#filter3_d_14_44506)">
<circle cx="318" cy="145" r="51" fill="#DAE5E1"/>
<path fill-rule="evenodd" clip-rule="evenodd" d="M295.65 154.652C289.173 154.652 283.816 159.929 283.816 166.486V178.959H316.998V158.73C314.839 156.251 311.641 154.652 308.043 154.652H295.65Z" fill="#52CDCD"/>
<path fill-rule="evenodd" clip-rule="evenodd" d="M316.996 158.73L315.557 178.959H350.257V166.486C350.257 160.009 344.9 154.652 338.424 154.652H325.951C322.353 154.652 319.155 156.251 316.996 158.73Z" fill="#97C7B6"/>
<path fill-rule="evenodd" clip-rule="evenodd" d="M332.508 154.652C338.984 154.652 344.341 159.929 344.341 166.486V178.959H350.178V166.486C350.178 160.009 344.821 154.652 338.345 154.652H332.508Z" fill="#61AA90"/>
<path fill-rule="evenodd" clip-rule="evenodd" d="M299.328 154.652C305.804 154.652 311.161 159.929 311.161 166.486V178.959H316.998V158.73C314.839 156.251 311.641 154.652 308.043 154.652H299.328Z" fill="#4DB3D1"/>
<path fill-rule="evenodd" clip-rule="evenodd" d="M298.367 107V129.707H310.76L316.997 138.022L323.233 129.707H335.626V107H298.367Z" fill="#FFD18C"/>
<path fill-rule="evenodd" clip-rule="evenodd" d="M329.789 107H335.626V129.707H329.789V107Z" fill="#FFBF60"/>
<path fill-rule="evenodd" clip-rule="evenodd" d="M291.893 147.138V148.417C291.893 153.854 296.37 158.332 301.807 158.332C307.244 158.332 311.721 153.854 311.721 148.417V147.138C311.721 141.701 307.244 137.224 301.807 137.224C296.37 137.224 291.893 141.701 291.893 147.138Z" fill="#FFD6C7"/>
<path fill-rule="evenodd" clip-rule="evenodd" d="M322.193 147.138V148.417C322.193 153.854 326.671 158.332 332.108 158.332C337.545 158.332 342.022 153.854 342.022 148.417V147.138C342.022 141.701 337.545 137.224 332.108 137.224C326.671 137.224 322.193 141.701 322.193 147.138Z" fill="#FFD6C7"/>
<path fill-rule="evenodd" clip-rule="evenodd" d="M299.646 137.463C304.044 138.503 307.402 142.421 307.402 147.138V148.417C307.402 153.135 304.044 157.132 299.646 158.092C300.366 158.252 301.086 158.332 301.805 158.332C307.242 158.332 311.72 153.854 311.72 148.417V147.138C311.72 141.701 307.242 137.224 301.805 137.224C301.086 137.224 300.366 137.304 299.646 137.463Z" fill="#E0BCAF"/>
<path fill-rule="evenodd" clip-rule="evenodd" d="M329.951 137.463C334.349 138.503 337.707 142.421 337.707 147.138V148.417C337.707 153.135 334.349 157.132 329.951 158.092C330.671 158.252 331.39 158.332 332.11 158.332C337.547 158.332 342.024 153.854 342.024 148.417V147.138C342.024 141.701 337.547 137.224 332.11 137.224C331.39 137.224 330.671 137.304 329.951 137.463Z" fill="#E0BCAF"/>
<path d="M291.892 171.204C291.892 170.404 292.532 169.765 293.332 169.765C294.131 169.765 294.771 170.404 294.771 171.204V178.959H291.812V171.204H291.892Z" fill="#4DB3D1"/>
<path d="M339.144 171.204C339.144 170.404 339.784 169.765 340.584 169.765C341.383 169.765 342.023 170.404 342.023 171.204V178.959H339.064V171.204H339.144Z" fill="#61AA90"/>
<path d="M313.24 113.876C313.24 114.675 312.6 115.315 311.801 115.315C311.001 115.315 310.361 114.675 310.361 113.876C310.361 113.076 311.001 112.437 311.801 112.437C312.6 112.357 313.24 113.076 313.24 113.876ZM320.915 119.793C321.475 119.233 322.435 119.233 322.994 119.793C323.554 120.352 323.554 121.312 322.994 121.871C321.315 123.55 319.156 124.35 316.998 124.35C314.839 124.35 312.68 123.55 311.081 121.871C310.521 121.312 310.521 120.352 311.081 119.793C311.641 119.233 312.6 119.233 313.16 119.793C314.199 120.832 315.638 121.392 317.078 121.392C318.437 121.392 319.796 120.832 320.915 119.793ZM323.714 113.876C323.714 114.675 323.074 115.315 322.275 115.315C321.475 115.315 320.835 114.675 320.835 113.876C320.835 113.076 321.475 112.437 322.275 112.437C322.994 112.357 323.714 113.076 323.714 113.876Z" fill="white"/>
<path fill-rule="evenodd" clip-rule="evenodd" d="M281.338 161.769C280.619 162.968 281.098 164.567 282.298 165.207L284.296 166.326C285.496 167.046 287.095 166.566 287.814 165.367L289.973 161.449C290.693 160.25 290.213 158.651 289.014 158.011L287.015 156.892C285.816 156.172 284.216 156.652 283.577 157.851L281.338 161.769Z" fill="#FFBA9F"/>
<path fill-rule="evenodd" clip-rule="evenodd" d="M344.023 161.449L346.181 165.367C346.901 166.566 348.42 167.046 349.7 166.326L351.698 165.207C352.898 164.488 353.377 162.968 352.658 161.769L350.499 157.851C349.779 156.652 348.26 156.172 347.061 156.892L345.062 158.011C343.783 158.651 343.383 160.25 344.023 161.449Z" fill="#FFBA9F"/>
</g>
<g filter="url(#filter4_d_14_44506)">
<circle cx="779.5" cy="130.5" r="41.5" fill="#DAE5E1"/>
<path fill-rule="evenodd" clip-rule="evenodd" d="M753.896 141.876L746.035 120.018C745.922 119.7 746.09 119.347 746.408 119.231C756.743 115.514 768.388 112.057 778.343 107.81C778.788 107.529 779.137 107.806 779.329 108.337L791.679 140.171L795.033 149.498C795.146 149.816 794.981 150.172 794.663 150.285L771.03 158.784L761.818 162.097C761.5 162.213 761.147 162.046 761.031 161.727L753.896 141.876Z" fill="#B27272"/>
<path fill-rule="evenodd" clip-rule="evenodd" d="M760.45 134.623L756.525 111.732C756.467 111.396 756.692 111.078 757.024 111.02L784.055 106.385L790.246 105.366C790.585 105.218 791.136 105.389 791.266 106.146L797.952 139.538L799.626 149.306C799.684 149.638 799.458 149.96 799.126 150.018L774.374 154.262L764.724 155.919C764.392 155.974 764.07 155.748 764.012 155.416L760.45 134.623Z" fill="#B27272"/>
<path fill-rule="evenodd" clip-rule="evenodd" d="M768.024 127.874V149.882C768.024 150.234 768.311 150.525 768.664 150.525H778.878H794.001H796.174H805.078C805.43 150.525 805.718 150.234 805.718 149.882V139.542V110.979V110.682H799.216C798.59 110.682 797.289 110.771 797.289 109.35L797.276 103.001H768.663C768.311 103.001 768.023 103.288 768.023 103.641V109.135V111.459V127.874H768.024Z" fill="#B27272"/>
<path fill-rule="evenodd" clip-rule="evenodd" d="M757.174 115.527C753.512 116.76 749.885 117.981 746.408 119.231C746.09 119.347 745.922 119.7 746.035 120.018L753.896 141.875L761.031 161.727C761.147 162.045 761.5 162.213 761.818 162.096L771.03 158.783L792.021 151.236L757.174 115.527Z" fill="#B5C4CF"/>
<path fill-rule="evenodd" clip-rule="evenodd" d="M768.023 109.134L757.024 111.02C756.692 111.078 756.467 111.396 756.525 111.732L757.175 115.527L760.45 134.623L764.012 155.415C764.07 155.747 764.392 155.973 764.724 155.919L774.374 154.262L792.022 151.236L796.173 150.524H794L768.023 109.134Z" fill="#D7E7EC"/>
<path fill-rule="evenodd" clip-rule="evenodd" d="M805.718 139.542V110.979V110.682V110.582C805.718 110.397 805.639 110.367 805.355 110.089L798.336 103.395C798.004 103.08 797.95 103.001 797.755 103.001H797.276H768.663C768.311 103.001 768.023 103.288 768.023 103.641V149.882C768.023 150.234 768.311 150.525 768.663 150.525H805.078C805.43 150.525 805.718 150.234 805.718 149.882V139.542Z" fill="#EDF3F4"/>
<path fill-rule="evenodd" clip-rule="evenodd" d="M768.022 109.134L765.445 109.575V152.246C765.445 152.602 765.733 152.89 766.085 152.89H776.3H782.378L792.021 151.236L796.172 150.525H793.999H791.327H778.877H768.662C768.31 150.525 768.022 150.234 768.022 149.881C768.022 136.3 768.022 122.715 768.022 109.134Z" fill="#B5C4CF"/>
<path fill-rule="evenodd" clip-rule="evenodd" d="M760.449 134.623L757.174 115.527C756.288 115.825 755.405 116.123 754.525 116.421L754.933 118.793L758.208 137.888L761.773 158.681C761.828 159.013 762.15 159.239 762.482 159.184L772.132 157.527L776.711 156.744L790.502 151.781L790.338 151.524L782.378 152.89L774.374 154.262L764.723 155.919C764.391 155.974 764.07 155.748 764.012 155.416L760.449 134.623Z" fill="#93B4A8"/>
<path fill-rule="evenodd" clip-rule="evenodd" d="M805.718 139.541V110.978V110.681C805.718 110.335 805.605 110.331 805.355 110.088L798.337 103.394C798.005 103.079 797.95 103 797.755 103H797.276H790.154C798.857 114.651 799.353 135.653 792.895 148.761C792.598 149.371 792.286 149.956 791.961 150.524H794.001H796.174H805.078C805.431 150.524 805.718 150.233 805.718 149.881V139.541Z" fill="#D7E7EC"/>
<path fill-rule="evenodd" clip-rule="evenodd" d="M797.289 109.349C797.289 110.77 798.589 110.681 799.216 110.681H805.718V110.581C805.718 110.396 805.639 110.366 805.355 110.088L798.336 103.394C798.004 103.079 797.95 103 797.755 103H797.275L797.289 109.349Z" fill="#B27272"/>
<path fill-rule="evenodd" clip-rule="evenodd" d="M805.355 110.088L798.336 103.394C798.004 103.079 797.95 103 797.755 103H797.275L797.289 109.349C797.289 110.769 798.589 110.68 799.216 110.68H805.718V110.581C805.718 110.396 805.639 110.366 805.355 110.088Z" fill="#B5C4CF"/>
<path d="M799.934 116.997H774.169C773.671 116.997 773.268 116.594 773.268 116.096C773.268 115.598 773.671 115.194 774.169 115.194H799.934C800.431 115.194 800.835 115.598 800.835 116.096C800.835 116.594 800.431 116.997 799.934 116.997Z" fill="#93B4A8"/>
<path d="M799.934 123.401H774.169C773.671 123.401 773.268 122.997 773.268 122.499C773.268 122.001 773.671 121.598 774.169 121.598H799.934C800.431 121.598 800.835 122.001 800.835 122.499C800.835 122.997 800.431 123.401 799.934 123.401Z" fill="#93B4A8"/>
<path d="M799.934 129.805H774.169C773.671 129.805 773.268 129.401 773.268 128.903C773.268 128.406 773.671 128.002 774.169 128.002H799.934C800.431 128.002 800.835 128.406 800.835 128.903C800.835 129.401 800.431 129.805 799.934 129.805Z" fill="#93B4A8"/>
<path d="M799.934 136.209H774.169C773.671 136.209 773.268 135.806 773.268 135.308C773.268 134.81 773.671 134.406 774.169 134.406H799.934C800.431 134.406 800.835 134.81 800.835 135.308C800.835 135.806 800.431 136.209 799.934 136.209Z" fill="#93B4A8"/>
<path d="M799.934 142.612H774.169C773.671 142.612 773.268 142.209 773.268 141.711C773.268 141.213 773.671 140.81 774.169 140.81H799.934C800.431 140.81 800.835 141.213 800.835 141.711C800.835 142.209 800.431 142.612 799.934 142.612Z" fill="#93B4A8"/>
<path d="M806.327 151.065L785.761 130.499C784.864 129.602 783.41 129.602 782.514 130.499L781.431 131.581C780.534 132.478 780.534 133.933 781.431 134.828L801.997 155.394C802.894 156.291 804.348 156.291 805.244 155.394L806.326 154.312C807.225 153.417 807.225 151.962 806.327 151.065Z" fill="#FF564A"/>
<path d="M801.997 130.499L781.431 151.065C780.534 151.962 780.534 153.416 781.431 154.312L782.513 155.394C783.41 156.291 784.864 156.291 785.76 155.394L806.327 134.829C807.225 133.932 807.225 132.478 806.327 131.583L805.245 130.5C804.348 129.602 802.894 129.602 801.997 130.499Z" fill="#FF564A"/>
</g>
<g filter="url(#filter5_d_14_44506)">
<circle cx="533.5" cy="78.5" r="55.5" fill="#DAE5E1"/>
<path d="M554.455 96.8413L563.603 87.6931L546.613 70.7031L534.851 73.3169L519.168 89L523.089 92.9206L517.861 98.1484L534.472 114.759L541.281 108.055L542.732 109.401L554.455 96.8413Z" fill="#D19A72"/>
<path d="M534.852 73.3169L523.09 70.7031L506.1 87.6931L516.555 98.1484L536.642 116.145C537.839 117.385 539.775 117.537 541.151 116.497C542.548 115.367 542.764 113.318 541.633 111.921C541.56 111.83 541.482 111.744 541.399 111.662C542.678 112.94 544.748 112.94 546.026 111.662C547.304 110.384 547.304 108.313 546.026 107.035C547.282 108.332 549.349 108.364 550.646 107.108C551.942 105.852 551.975 103.785 550.719 102.489C550.693 102.461 550.665 102.435 550.639 102.409C551.903 103.687 553.964 103.698 555.241 102.434C555.328 102.347 555.411 102.256 555.488 102.161C556.531 100.791 556.379 98.8553 555.135 97.6648L552.025 94.5543L544 86.386L541.386 74.6238L534.852 73.3169Z" fill="#BB855D"/>
<path d="M547.922 61.5549L572.753 86.3862V41.9512H567.526L547.922 61.5549Z" fill="#7ADBDB"/>
<path d="M572.753 61.124L560.115 73.7488L572.753 86.3866V61.124Z" fill="#4DB3D1"/>
<path d="M539.06 108.604C537.923 107.203 535.865 106.99 534.464 108.129C534.376 108.201 534.291 108.276 534.211 108.356C535.605 107.209 535.804 105.15 534.657 103.757C533.51 102.364 531.451 102.164 530.058 103.311C529.9 103.441 529.755 103.586 529.624 103.743C530.826 102.398 530.711 100.332 529.365 99.1292C528.125 98.021 526.251 98.021 525.01 99.1292C526.285 97.851 526.281 95.7822 525.003 94.5079C524.922 94.4269 524.837 94.3511 524.749 94.2805C523.379 93.2376 521.444 93.3892 520.253 94.6333L517.156 97.7438C515.12 99.7839 515.12 103.088 517.156 105.128L528.239 116.224C530.279 118.266 533.589 118.268 535.632 116.227C535.633 116.226 535.635 116.225 535.636 116.224L538.733 113.113C539.971 111.911 540.111 109.973 539.06 108.604Z" fill="#D19A72"/>
<path d="M563.602 87.6894L568.832 82.459L551.847 65.4738L546.616 70.7043L563.602 87.6894Z" fill="#DBDBDB"/>
<path d="M521.783 61.5549L496.951 86.3862V41.9512H502.179L521.783 61.5549Z" fill="#5A9680"/>
<path d="M506.107 87.6883L523.092 70.7031L517.861 65.4727L500.876 82.4578L506.107 87.6883Z" fill="#DBDBDB"/>
<path d="M513.939 109.911C508.887 109.911 504.791 105.815 504.791 100.763H507.405C507.405 104.371 510.331 107.297 513.939 107.297V109.911Z" fill="#DBDBDB"/>
<path d="M513.941 116.446C505.28 116.446 498.258 109.424 498.258 100.763H500.872C500.872 107.981 506.723 113.832 513.941 113.832L513.941 116.446Z" fill="#DBDBDB"/>
<path d="M554.455 109.911V107.297C558.064 107.297 560.99 104.371 560.99 100.763H563.603C563.603 105.815 559.508 109.911 554.455 109.911Z" fill="#DBDBDB"/>
<path d="M554.455 116.446V113.832C561.673 113.832 567.524 107.981 567.524 100.763H570.138C570.138 109.424 563.116 116.446 554.455 116.446Z" fill="#DBDBDB"/>
<path d="M503.483 72.0108C504.926 72.0108 506.097 70.8405 506.097 69.397C506.097 67.9534 504.926 66.7832 503.483 66.7832C502.039 66.7832 500.869 67.9534 500.869 69.397C500.869 70.8405 502.039 72.0108 503.483 72.0108Z" fill="#DBDBDB"/>
<path d="M554.455 78.5446L546.613 70.7031L534.851 73.3169L519.168 89C521.965 91.9771 526.646 92.1235 529.623 89.3267L534.851 83.7722C537.883 86.9651 542.606 87.8824 546.613 86.0593L547.92 85.0791L554.455 78.5446Z" fill="#D19A72"/>
<path d="M566.215 72.0098C567.659 72.0098 568.829 70.8396 568.829 69.396C568.829 67.9525 567.659 66.7822 566.215 66.7822C564.772 66.7822 563.602 67.9525 563.602 69.396C563.602 70.8396 564.772 72.0098 566.215 72.0098Z" fill="#DBDBDB"/>
</g>
<circle cx="130" cy="292.5" r="40.5" fill="#DAE5E1"/>
<path d="M153.168 285.128C151.769 285.128 150.636 286.261 150.636 287.66V295.255H132.914V287.66C132.914 286.261 131.78 285.128 130.382 285.128C128.984 285.128 127.85 286.261 127.85 287.66V295.255H110.128V287.66C110.128 286.261 108.994 285.128 107.596 285.128C106.198 285.128 105.064 286.261 105.064 287.66V297.787C105.064 299.185 106.198 300.318 107.596 300.318H127.85V307.914C127.85 309.312 128.984 310.445 130.382 310.445C131.78 310.445 132.914 309.312 132.914 307.914V300.318H153.168C154.566 300.318 155.7 299.185 155.7 297.787V287.66C155.7 286.261 154.566 285.128 153.168 285.128Z" fill="#909090"/>
<path d="M112.659 290.192H102.532C101.133 290.192 100 289.059 100 287.661V277.534C100 276.135 101.133 275.002 102.532 275.002H112.659C114.057 275.002 115.191 276.135 115.191 277.534V287.661C115.191 289.059 114.057 290.192 112.659 290.192Z" fill="#60917F"/>
<path d="M135.448 290.191H125.321C123.923 290.191 122.789 289.057 122.789 287.659V277.532C122.789 276.133 123.923 275 125.321 275H135.448C136.846 275 137.98 276.133 137.98 277.532V287.659C137.98 289.057 136.846 290.191 135.448 290.191Z" fill="#00BEFF"/>
<path d="M135.448 320.571H125.321C123.923 320.571 122.789 319.438 122.789 318.04V307.913C122.789 306.515 123.923 305.381 125.321 305.381H135.448C136.846 305.381 137.98 306.515 137.98 307.913V318.04C137.98 319.438 136.846 320.571 135.448 320.571Z" fill="#FFB547"/>
<path d="M158.231 290.192H148.104C146.706 290.192 145.572 289.059 145.572 287.661V277.534C145.572 276.135 146.706 275.002 148.104 275.002H158.231C159.629 275.002 160.763 276.135 160.763 277.534V287.661C160.763 289.059 159.629 290.192 158.231 290.192Z" fill="#88C0D5"/>
<path d="M59.766 430.41C59.3843 428.763 58.4517 427.612 56.9683 426.958C56.1393 426.598 55.2177 426.418 54.2033 426.418C52.2618 426.418 50.6639 427.154 49.4095 428.627C48.1661 430.088 47.5444 432.291 47.5444 435.236C47.5444 438.203 48.2206 440.303 49.5731 441.535C50.9256 442.768 52.4636 443.384 54.1869 443.384C55.8776 443.384 57.2628 442.899 58.3426 441.928C59.4224 440.946 60.0878 439.665 60.3387 438.083H54.7596V434.058H64.8052V447H61.4676L60.9604 443.99C59.9896 445.135 59.117 445.942 58.3426 446.411C57.0119 447.229 55.3758 447.638 53.4343 447.638C50.2385 447.638 47.6207 446.531 45.5811 444.317C43.4541 442.092 42.3907 439.049 42.3907 435.187C42.3907 431.283 43.4651 428.152 45.6138 425.796C47.7625 423.44 50.6039 422.262 54.1379 422.262C57.2028 422.262 59.6624 423.042 61.5166 424.602C63.3818 426.151 64.4507 428.087 64.7234 430.41H59.766ZM67.5048 447L73.591 437.969L67.7665 429.199H73.4765L76.4542 434.369L79.3665 429.199H84.9128L79.0556 437.887L85.1419 447H79.3337L76.2579 441.65L73.1656 447H67.5048ZM101.863 430.557C101.863 429.303 101.53 428.408 100.865 427.874C100.21 427.34 99.2886 427.072 98.0998 427.072H93.4042V434.173H98.0998C99.2886 434.173 100.21 433.884 100.865 433.306C101.53 432.728 101.863 431.812 101.863 430.557ZM106.853 430.525C106.853 433.371 106.133 435.384 104.693 436.562C103.253 437.74 101.197 438.329 98.5251 438.329H93.4042V447H88.3977V422.884H98.9014C101.323 422.884 103.253 423.506 104.693 424.749C106.133 425.993 106.853 427.918 106.853 430.525Z" fill="#5A9680"/>
<g filter="url(#filter6_d_14_44506)">
<circle cx="755" cy="301.5" r="39" fill="#DAE5E1"/>
<path d="M761.328 272C753.477 272 747.09 278.492 747.09 286.344C747.09 294.195 753.477 300.688 761.328 300.688C769.18 300.688 775.566 294.195 775.566 286.344C775.566 278.492 769.18 272 761.328 272ZM766.074 287.926H759.746V278.434H762.91V284.762H766.074V287.926Z" fill="#5A9680"/>
<path d="M734.434 307.016H728V326H734.434V307.016Z" fill="#5A9680"/>
<path d="M777.159 303.851L767.983 315.495C767.382 316.128 766.243 316.507 765.642 316.507C765.187 316.507 752.26 316.507 751.836 316.507V313.343H766.18V307.015H753.038C752.722 307.015 752.279 306.857 751.994 306.636C749.653 304.579 747.501 303.25 743.862 303.25C741.657 303.25 739.473 303.932 737.598 305.251V326H763.016C767.572 326 770.42 324.576 772.192 322.203L782 307.901L777.159 303.851Z" fill="#5A9680"/>
</g>
</g>
<defs>
<filter id="filter0_d_14_44506" x="24" y="393" width="93" height="92" filterUnits="userSpaceOnUse" color-interpolation-filters="sRGB">
<feFlood flood-opacity="0" result="BackgroundImageFix"/>
<feColorMatrix in="SourceAlpha" type="matrix" values="0 0 0 0 0 0 0 0 0 0 0 0 0 0 0 0 0 0 127 0" result="hardAlpha"/>
<feOffset dx="-5" dy="4"/>
<feGaussianBlur stdDeviation="2"/>
<feComposite in2="hardAlpha" operator="out"/>
<feColorMatrix type="matrix" values="0 0 0 0 0 0 0 0 0 0 0 0 0 0 0 0 0 0 0.25 0"/>
<feBlend mode="normal" in2="BackgroundImageFix" result="effect1_dropShadow_14_44506"/>
<feBlend mode="normal" in="SourceGraphic" in2="effect1_dropShadow_14_44506" result="shape"/>
</filter>
<filter id="filter1_d_14_44506" x="23" y="62.5" width="94" height="93" filterUnits="userSpaceOnUse" color-interpolation-filters="sRGB">
<feFlood flood-opacity="0" result="BackgroundImageFix"/>
<feColorMatrix in="SourceAlpha" type="matrix" values="0 0 0 0 0 0 0 0 0 0 0 0 0 0 0 0 0 0 127 0" result="hardAlpha"/>
<feOffset dx="-5" dy="4"/>
<feGaussianBlur stdDeviation="2"/>
<feComposite in2="hardAlpha" operator="out"/>
<feColorMatrix type="matrix" values="0 0 0 0 0 0 0 0 0 0 0 0 0 0 0 0 0 0 0.25 0"/>
<feBlend mode="normal" in2="BackgroundImageFix" result="effect1_dropShadow_14_44506"/>
<feBlend mode="normal" in="SourceGraphic" in2="effect1_dropShadow_14_44506" result="shape"/>
</filter>
<filter id="filter2_d_14_44506" x="748" y="401" width="92" height="91" filterUnits="userSpaceOnUse" color-interpolation-filters="sRGB">
<feFlood flood-opacity="0" result="BackgroundImageFix"/>
<feColorMatrix in="SourceAlpha" type="matrix" values="0 0 0 0 0 0 0 0 0 0 0 0 0 0 0 0 0 0 127 0" result="hardAlpha"/>
<feOffset dx="-5" dy="4"/>
<feGaussianBlur stdDeviation="2"/>
<feComposite in2="hardAlpha" operator="out"/>
<feColorMatrix type="matrix" values="0 0 0 0 0 0 0 0 0 0 0 0 0 0 0 0 0 0 0.25 0"/>
<feBlend mode="normal" in2="BackgroundImageFix" result="effect1_dropShadow_14_44506"/>
<feBlend mode="normal" in="SourceGraphic" in2="effect1_dropShadow_14_44506" result="shape"/>
</filter>
<filter id="filter3_d_14_44506" x="258" y="94" width="111" height="110" filterUnits="userSpaceOnUse" color-interpolation-filters="sRGB">
<feFlood flood-opacity="0" result="BackgroundImageFix"/>
<feColorMatrix in="SourceAlpha" type="matrix" values="0 0 0 0 0 0 0 0 0 0 0 0 0 0 0 0 0 0 127 0" result="hardAlpha"/>
<feOffset dx="-5" dy="4"/>
<feGaussianBlur stdDeviation="2"/>
<feComposite in2="hardAlpha" operator="out"/>
<feColorMatrix type="matrix" values="0 0 0 0 0 0 0 0 0 0 0 0 0 0 0 0 0 0 0.25 0"/>
<feBlend mode="normal" in2="BackgroundImageFix" result="effect1_dropShadow_14_44506"/>
<feBlend mode="normal" in="SourceGraphic" in2="effect1_dropShadow_14_44506" result="shape"/>
</filter>
<filter id="filter4_d_14_44506" x="729" y="89" width="92" height="91" filterUnits="userSpaceOnUse" color-interpolation-filters="sRGB">
<feFlood flood-opacity="0" result="BackgroundImageFix"/>
<feColorMatrix in="SourceAlpha" type="matrix" values="0 0 0 0 0 0 0 0 0 0 0 0 0 0 0 0 0 0 127 0" result="hardAlpha"/>
<feOffset dx="-5" dy="4"/>
<feGaussianBlur stdDeviation="2"/>
<feComposite in2="hardAlpha" operator="out"/>
<feColorMatrix type="matrix" values="0 0 0 0 0 0 0 0 0 0 0 0 0 0 0 0 0 0 0.25 0"/>
<feBlend mode="normal" in2="BackgroundImageFix" result="effect1_dropShadow_14_44506"/>
<feBlend mode="normal" in="SourceGraphic" in2="effect1_dropShadow_14_44506" result="shape"/>
</filter>
<filter id="filter5_d_14_44506" x="469" y="23" width="120" height="119" filterUnits="userSpaceOnUse" color-interpolation-filters="sRGB">
<feFlood flood-opacity="0" result="BackgroundImageFix"/>
<feColorMatrix in="SourceAlpha" type="matrix" values="0 0 0 0 0 0 0 0 0 0 0 0 0 0 0 0 0 0 127 0" result="hardAlpha"/>
<feOffset dx="-5" dy="4"/>
<feGaussianBlur stdDeviation="2"/>
<feComposite in2="hardAlpha" operator="out"/>
<feColorMatrix type="matrix" values="0 0 0 0 0 0 0 0 0 0 0 0 0 0 0 0 0 0 0.25 0"/>
<feBlend mode="normal" in2="BackgroundImageFix" result="effect1_dropShadow_14_44506"/>
<feBlend mode="normal" in="SourceGraphic" in2="effect1_dropShadow_14_44506" result="shape"/>
</filter>
<filter id="filter6_d_14_44506" x="707" y="262.5" width="87" height="86" filterUnits="userSpaceOnUse" color-interpolation-filters="sRGB">
<feFlood flood-opacity="0" result="BackgroundImageFix"/>
<feColorMatrix in="SourceAlpha" type="matrix" values="0 0 0 0 0 0 0 0 0 0 0 0 0 0 0 0 0 0 127 0" result="hardAlpha"/>
<feOffset dx="-5" dy="4"/>
<feGaussianBlur stdDeviation="2"/>
<feComposite in2="hardAlpha" operator="out"/>
<feColorMatrix type="matrix" values="0 0 0 0 0 0 0 0 0 0 0 0 0 0 0 0 0 0 0.25 0"/>
<feBlend mode="normal" in2="BackgroundImageFix" result="effect1_dropShadow_14_44506"/>
<feBlend mode="normal" in="SourceGraphic" in2="effect1_dropShadow_14_44506" result="shape"/>
</filter>
<clipPath id="clip0_14_44506">
<rect width="876" height="526" rx="6" fill="white"/>
</clipPath>
<clipPath id="clip1_14_44506">
<rect width="530" height="353" fill="white" transform="translate(173 180)"/>
</clipPath>
</defs>
</svg>
