<svg width="1920" height="1274" viewBox="0 0 1920 1274" fill="none" xmlns="http://www.w3.org/2000/svg">
<path d="M1081.68 437.08C1217.92 215.316 1602.47 -139.616 1897.46 -167.218L1983.34 -222.437L1910.29 -166.141C1907.44 -163.951 1906.5 -160.082 1908.02 -156.831L1982.24 247.619C1616.29 238.16 1269.14 927.043 1072.83 1104.68C891.975 1268.33 224.754 1305.25 -20.1708 1248L-20.1708 1222.86L-65.2748 1217.13L-92.6592 1213.65C-99.1619 1211.09 -104.34 1205.99 -107.003 1199.52L-112.778 1185.5L-117.28 1160.97L-190.851 760.083C24.2099 787.404 262.562 796.859 349.199 796.56C633 795.583 930.856 682.578 1081.68 437.08Z" fill="url(#paint0_linear_1_11216)"/>
<defs>
<linearGradient id="paint0_linear_1_11216" x1="1777.61" y1="-220.892" x2="31.8914" y2="1328.67" gradientUnits="userSpaceOnUse">
<stop offset="0.261399" stop-color="#DCF0FF"/>
<stop offset="0.483967" stop-color="#E9F5FF"/>
<stop offset="1" stop-color="#DCF0FF"/>
</linearGradient>
</defs>
</svg>
