<svg width="876" height="526" viewBox="0 0 876 526" fill="none" xmlns="http://www.w3.org/2000/svg">
<rect width="876" height="526" rx="6" fill="#C8DAF1"/>
<path d="M438.152 477C648.105 477 818.305 467.819 818.305 456.493C818.305 445.168 648.105 435.987 438.152 435.987C228.2 435.987 58 445.168 58 456.493C58 467.819 228.2 477 438.152 477Z" fill="#DCDCDC"/>
<path d="M579.418 370.666H694.99" stroke="#C7C7C7" stroke-width="5.81117" stroke-miterlimit="10" stroke-linecap="round"/>
<path d="M549.867 304.375H730.549" stroke="#C7C7C7" stroke-width="5.81117" stroke-miterlimit="10" stroke-linecap="round"/>
<path d="M551.303 265.791H731.985" stroke="#C7C7C7" stroke-width="5.81117" stroke-miterlimit="10" stroke-linecap="round"/>
<path d="M550.625 343.132H731.307" stroke="#C7C7C7" stroke-width="5.81117" stroke-miterlimit="10" stroke-linecap="round"/>
<path d="M587.016 423.357H699.731" stroke="#C7C7C7" stroke-width="5.81117" stroke-miterlimit="10" stroke-linecap="round"/>
<path d="M585.645 235.029H696.442" stroke="#C7C7C7" stroke-width="5.81117" stroke-miterlimit="10" stroke-linecap="round"/>
<path d="M583.727 179.949H697.675" stroke="#C7C7C7" stroke-width="5.81117" stroke-miterlimit="10" stroke-linecap="round"/>
<path d="M558.829 146.177C563.681 164.246 577.954 178.626 594.308 187.712C614.956 199.185 638.989 203.298 661.383 210.718C690.575 220.391 718.637 236.36 733.432 263.856C743.783 283.094 747.06 315.573 736.178 334.184C701.673 393.198 637.709 388.253 590.644 417.156C578.554 424.58 569.387 434.357 560.575 446.602C557.028 446.511 554.004 446.648 549.932 446.648C552.902 442.919 569.365 425.563 572.446 422.905C579.84 416.525 582.52 414.505 590.807 409.337C606.953 399.271 626.803 392.828 644.473 386.186C670.509 376.399 701.169 369.217 719.82 346.901C730.034 334.68 734.683 319.194 736.144 303.543C741.92 241.715 645.469 213.203 645.364 213.172C617.529 204.948 588.875 197.627 567.094 177.049C558.377 168.813 551.105 158.176 550.194 146.217C553.074 146.203 555.951 146.191 558.829 146.177Z" fill="#715CB0"/>
<path d="M724.805 146.177C719.953 164.246 705.68 178.626 689.326 187.712C668.679 199.185 644.646 203.298 622.251 210.718C593.059 220.391 564.998 236.36 550.202 263.856C539.851 283.094 536.574 315.573 547.456 334.184C581.962 393.198 645.926 388.253 692.991 417.156C705.08 424.58 714.248 434.357 723.058 446.602C726.606 446.511 729.63 446.648 733.702 446.648C730.731 442.919 714.268 425.563 711.188 422.905C703.794 416.525 701.115 414.505 692.827 409.337C676.682 399.271 656.832 392.828 639.162 386.186C613.126 376.399 582.465 369.217 563.814 346.901C553.6 334.68 548.951 319.194 547.49 303.543C541.715 241.715 638.166 213.203 638.27 213.172C666.106 204.948 694.759 197.627 716.539 177.049C725.256 168.813 732.528 158.176 733.439 146.217C730.561 146.203 727.684 146.191 724.805 146.177Z" fill="#D4C0FF"/>
<path d="M585.316 414.409C585.609 414.782 585.907 415.148 586.151 415.572C588.926 420.388 587.27 426.541 582.453 429.316C579.387 431.082 575.788 431.039 572.855 429.543C575.894 433.423 581.371 434.609 585.765 432.079C590.582 429.305 592.237 423.152 589.462 418.335C588.455 416.583 586.992 415.264 585.316 414.409Z" fill="#715CB0"/>
<path d="M582.453 429.317C587.27 426.542 588.925 420.39 586.152 415.573C585.908 415.15 585.609 414.784 585.317 414.41C582.385 412.914 578.784 412.872 575.718 414.638C570.901 417.412 569.247 423.565 572.021 428.382C572.265 428.805 572.564 429.172 572.856 429.545C575.788 431.039 579.388 431.082 582.453 429.317Z" fill="#715CB0"/>
<path d="M583.221 416.7C584.356 418.671 582.865 421.658 579.889 423.372C576.914 425.086 573.582 424.877 572.447 422.907C571.312 420.936 572.803 417.949 575.779 416.235C578.753 414.521 582.087 414.729 583.221 416.7Z" fill="#D4C0FF"/>
<path d="M698.475 361.717C698.767 362.089 699.066 362.457 699.309 362.879C702.084 367.696 700.428 373.849 695.611 376.624C692.545 378.39 688.946 378.347 686.014 376.851C689.052 380.729 694.529 381.917 698.923 379.387C703.74 376.612 705.395 370.459 702.62 365.643C701.613 363.89 700.151 362.572 698.475 361.717Z" fill="#715CB0"/>
<path d="M695.612 376.624C700.429 373.849 702.085 367.695 699.31 362.879C699.066 362.457 698.768 362.091 698.475 361.717C695.543 360.221 691.942 360.178 688.876 361.944C684.06 364.719 682.405 370.872 685.179 375.689C685.423 376.111 685.722 376.479 686.014 376.851C688.946 378.347 692.546 378.39 695.612 376.624Z" fill="#715CB0"/>
<path d="M696.38 364.007C697.514 365.978 696.023 368.965 693.048 370.679C690.072 372.392 686.74 372.185 685.605 370.214C684.47 368.243 685.961 365.256 688.937 363.542C691.911 361.827 695.245 362.036 696.38 364.007Z" fill="#D4C0FF"/>
<path d="M744.625 294.603C744.917 294.976 745.216 295.342 745.46 295.765C748.234 300.582 746.578 306.735 741.762 309.509C738.696 311.275 735.096 311.233 732.164 309.737C735.202 313.615 740.679 314.802 745.074 312.271C749.89 309.497 751.545 303.344 748.771 298.527C747.762 296.777 746.3 295.457 744.625 294.603Z" fill="#715CB0"/>
<path d="M741.762 309.508C746.579 306.733 748.234 300.58 745.46 295.763C745.217 295.341 744.918 294.974 744.625 294.601C741.693 293.105 738.093 293.062 735.027 294.828C730.21 297.603 728.555 303.756 731.33 308.573C731.573 308.995 731.872 309.361 732.165 309.735C735.097 311.231 738.698 311.274 741.762 309.508Z" fill="#715CB0"/>
<path d="M742.53 296.89C743.665 298.861 742.174 301.848 739.198 303.562C736.222 305.275 732.89 305.068 731.755 303.097C730.62 301.126 732.111 298.139 735.087 296.425C738.063 294.712 741.395 294.919 742.53 296.89Z" fill="#D4C0FF"/>
<path d="M730.687 334.185C730.98 334.557 731.279 334.924 731.522 335.347C734.297 340.164 732.641 346.317 727.824 349.091C724.759 350.857 721.159 350.815 718.227 349.319C721.265 353.197 726.742 354.384 731.136 351.855C735.953 349.08 737.608 342.927 734.833 338.11C733.826 336.359 732.362 335.039 730.687 334.185Z" fill="#715CB0"/>
<path d="M727.825 349.091C732.641 346.316 734.297 340.163 731.523 335.346C731.279 334.924 730.98 334.557 730.688 334.184C727.756 332.688 724.155 332.645 721.089 334.411C716.272 337.186 714.618 343.339 717.392 348.156C717.636 348.578 717.935 348.944 718.227 349.318C721.159 350.814 724.759 350.857 727.825 349.091Z" fill="#715CB0"/>
<path d="M728.593 336.473C729.727 338.444 728.236 341.431 725.26 343.145C722.285 344.858 718.953 344.651 717.818 342.68C716.683 340.709 718.174 337.722 721.15 336.008C724.124 334.295 727.456 334.502 728.593 336.473Z" fill="#D4C0FF"/>
<path d="M732.342 254.909C732.634 255.283 732.933 255.649 733.177 256.072C735.951 260.888 734.295 267.041 729.478 269.816C726.413 271.582 722.813 271.539 719.881 270.043C722.919 273.922 728.396 275.109 732.79 272.579C737.607 269.805 739.262 263.652 736.487 258.835C735.479 257.083 734.016 255.763 732.342 254.909Z" fill="#715CB0"/>
<path d="M729.479 269.814C734.296 267.04 735.951 260.887 733.177 256.07C732.933 255.647 732.635 255.281 732.342 254.907C729.409 253.411 725.809 253.369 722.744 255.135C717.927 257.909 716.272 264.062 719.047 268.879C719.29 269.302 719.589 269.668 719.881 270.042C722.815 271.538 726.414 271.58 729.479 269.814Z" fill="#715CB0"/>
<path d="M730.247 257.198C731.383 259.169 729.891 262.156 726.915 263.87C723.939 265.583 720.607 265.376 719.472 263.405C718.337 261.434 719.828 258.446 722.804 256.733C725.78 255.019 729.112 255.227 730.247 257.198Z" fill="#D4C0FF"/>
<path d="M703.976 225.525C704.268 225.898 704.567 226.264 704.811 226.688C707.585 231.505 705.929 237.658 701.112 240.432C698.047 242.198 694.447 242.156 691.514 240.66C694.552 244.538 700.029 245.725 704.423 243.194C709.24 240.42 710.895 234.267 708.12 229.45C707.113 227.699 705.651 226.379 703.976 225.525Z" fill="#715CB0"/>
<path d="M701.114 240.431C705.929 237.657 707.585 231.504 704.812 226.687C704.568 226.264 704.269 225.898 703.977 225.525C701.045 224.029 697.444 223.986 694.378 225.752C689.561 228.527 687.907 234.68 690.681 239.496C690.925 239.919 691.224 240.285 691.516 240.659C694.448 242.155 698.048 242.197 701.114 240.431Z" fill="#715CB0"/>
<path d="M701.88 227.815C703.016 229.786 701.523 232.773 698.548 234.487C695.572 236.2 692.24 235.993 691.105 234.022C689.97 232.051 691.461 229.064 694.437 227.35C697.413 225.637 700.745 225.844 701.88 227.815Z" fill="#D4C0FF"/>
<path d="M585.157 171.002C585.45 171.374 585.749 171.741 585.992 172.164C588.767 176.981 587.111 183.134 582.294 185.909C579.228 187.675 575.629 187.632 572.695 186.136C575.734 190.016 581.21 191.202 585.605 188.672C590.422 185.897 592.077 179.745 589.302 174.928C588.295 173.175 586.832 171.856 585.157 171.002Z" fill="#715CB0"/>
<path d="M582.295 185.909C587.112 183.134 588.767 176.981 585.994 172.164C585.75 171.742 585.451 171.376 585.159 171.002C582.227 169.506 578.626 169.464 575.56 171.23C570.743 174.004 569.088 180.157 571.863 184.974C572.107 185.396 572.405 185.764 572.698 186.136C575.63 187.632 579.231 187.675 582.295 185.909Z" fill="#715CB0"/>
<path d="M583.063 173.292C584.199 175.263 582.707 178.25 579.731 179.963C576.755 181.677 573.423 181.469 572.288 179.498C571.154 177.527 572.645 174.54 575.621 172.827C578.596 171.113 581.928 171.321 583.063 173.292Z" fill="#D4C0FF"/>
<path d="M708.627 172.438C708.919 172.811 709.218 173.178 709.462 173.601C712.236 178.418 710.58 184.571 705.764 187.345C702.698 189.111 699.098 189.069 696.166 187.573C699.204 191.451 704.681 192.638 709.076 190.109C713.892 187.334 715.547 181.181 712.773 176.364C711.765 174.613 710.303 173.293 708.627 172.438Z" fill="#715CB0"/>
<path d="M705.764 187.346C710.581 184.572 712.236 178.419 709.462 173.602C709.219 173.18 708.92 172.813 708.627 172.44C705.695 170.944 702.095 170.901 699.029 172.667C694.212 175.442 692.557 181.595 695.332 186.412C695.575 186.834 695.874 187.201 696.167 187.574C699.099 189.07 702.698 189.112 705.764 187.346Z" fill="#715CB0"/>
<path d="M706.532 174.729C707.667 176.7 706.176 179.687 703.2 181.4C700.224 183.114 696.892 182.906 695.757 180.935C694.622 178.964 696.113 175.977 699.089 174.264C702.064 172.549 705.397 172.758 706.532 174.729Z" fill="#D4C0FF"/>
<path d="M590.221 224.146C590.513 224.52 590.812 224.886 591.056 225.309C593.83 230.126 592.174 236.279 587.358 239.053C584.293 240.819 580.693 240.777 577.76 239.281C580.798 243.159 586.275 244.346 590.669 241.815C595.486 239.041 597.141 232.888 594.366 228.071C593.359 226.32 591.897 225.001 590.221 224.146Z" fill="#715CB0"/>
<path d="M587.357 239.053C592.173 236.279 593.829 230.126 591.054 225.309C590.81 224.887 590.512 224.52 590.219 224.147C587.287 222.651 583.686 222.608 580.621 224.374C575.804 227.149 574.149 233.302 576.923 238.119C577.167 238.541 577.466 238.908 577.758 239.281C580.692 240.777 584.291 240.819 587.357 239.053Z" fill="#715CB0"/>
<path d="M588.126 226.437C589.262 228.408 587.77 231.395 584.794 233.108C581.818 234.822 578.486 234.614 577.351 232.643C576.216 230.672 577.707 227.685 580.683 225.972C583.658 224.257 586.991 224.466 588.126 226.437Z" fill="#715CB0"/>
<path d="M546.937 295.428C547.229 295.8 547.528 296.168 547.772 296.59C550.546 301.406 548.89 307.56 544.073 310.335C541.007 312.101 537.408 312.058 534.475 310.562C537.514 314.44 542.99 315.628 547.384 313.097C552.201 310.322 553.856 304.169 551.081 299.352C550.074 297.601 548.611 296.281 546.937 295.428Z" fill="#715CB0"/>
<path d="M544.075 310.335C548.891 307.56 550.546 301.407 547.773 296.59C547.529 296.168 547.23 295.802 546.938 295.428C544.006 293.932 540.405 293.889 537.339 295.655C532.522 298.43 530.868 304.583 533.642 309.4C533.886 309.822 534.185 310.188 534.477 310.562C537.409 312.058 541.009 312.101 544.075 310.335Z" fill="#715CB0"/>
<path d="M544.841 297.716C545.976 299.687 544.485 302.675 541.509 304.388C538.534 306.102 535.201 305.894 534.066 303.923C532.93 301.952 534.422 298.965 537.398 297.252C540.373 295.538 543.705 295.745 544.841 297.716Z" fill="#715CB0"/>
<path d="M558.12 256.29C558.413 256.664 558.711 257.03 558.955 257.452C561.73 262.269 560.074 268.422 555.257 271.197C552.191 272.963 548.592 272.92 545.658 271.424C548.697 275.304 554.173 276.49 558.568 273.959C563.385 271.184 565.041 265.031 562.266 260.215C561.259 258.463 559.795 257.145 558.12 256.29Z" fill="#715CB0"/>
<path d="M555.258 271.197C560.074 268.422 561.73 262.269 558.956 257.453C558.713 257.03 558.414 256.664 558.122 256.29C555.189 254.794 551.589 254.752 548.523 256.518C543.706 259.292 542.051 265.445 544.826 270.262C545.07 270.685 545.368 271.051 545.661 271.424C548.593 272.921 552.192 272.962 555.258 271.197Z" fill="#715CB0"/>
<path d="M556.026 258.579C557.162 260.55 555.67 263.537 552.694 265.251C549.718 266.964 546.386 266.757 545.251 264.786C544.116 262.815 545.608 259.828 548.583 258.114C551.558 256.4 554.89 256.608 556.026 258.579Z" fill="#715CB0"/>
<path d="M591.225 362.273C591.518 362.646 591.816 363.013 592.06 363.436C594.835 368.253 593.179 374.406 588.363 377.18C585.297 378.946 581.698 378.904 578.766 377.408C581.804 381.287 587.281 382.473 591.675 379.942C596.492 377.168 598.147 371.015 595.372 366.198C594.362 364.448 592.9 363.128 591.225 362.273Z" fill="#715CB0"/>
<path d="M588.363 377.181C593.18 374.407 594.835 368.254 592.06 363.437C591.816 363.014 591.518 362.648 591.225 362.275C588.293 360.779 584.692 360.736 581.626 362.502C576.81 365.277 575.155 371.43 577.929 376.246C578.173 376.669 578.472 377.035 578.764 377.409C581.698 378.905 585.298 378.947 588.363 377.181Z" fill="#715CB0"/>
<path d="M589.13 364.563C590.265 366.534 588.773 369.521 585.798 371.235C582.822 372.948 579.49 372.74 578.355 370.77C577.22 368.799 578.711 365.812 581.687 364.098C584.663 362.385 587.995 362.592 589.13 364.563Z" fill="#715CB0"/>
<path d="M558.12 333.63C558.413 334.002 558.711 334.37 558.955 334.792C561.73 339.609 560.074 345.762 555.257 348.537C552.191 350.303 548.592 350.26 545.658 348.764C548.697 352.642 554.173 353.83 558.568 351.3C563.385 348.525 565.041 342.372 562.266 337.556C561.259 335.805 559.795 334.485 558.12 333.63Z" fill="#715CB0"/>
<path d="M555.258 348.537C560.074 345.762 561.73 339.609 558.956 334.792C558.713 334.37 558.414 334.004 558.122 333.63C555.189 332.134 551.589 332.092 548.523 333.858C543.706 336.632 542.051 342.785 544.826 347.602C545.07 348.024 545.368 348.392 545.661 348.764C548.593 350.26 552.192 350.303 555.258 348.537Z" fill="#715CB0"/>
<path d="M556.026 335.92C557.162 337.891 555.67 340.878 552.694 342.592C549.718 344.305 546.386 344.098 545.251 342.127C544.116 340.156 545.608 337.169 548.583 335.455C551.558 333.74 554.89 333.949 556.026 335.92Z" fill="#715CB0"/>
<path d="M708.539 414.41C708.831 414.783 709.13 415.149 709.374 415.572C712.148 420.389 710.492 426.542 705.676 429.317C702.61 431.083 699.01 431.04 696.078 429.544C699.116 433.424 704.593 434.61 708.988 432.08C713.804 429.306 715.459 423.153 712.685 418.336C711.677 416.584 710.214 415.265 708.539 414.41Z" fill="#715CB0"/>
<path d="M705.678 429.318C710.495 426.543 712.15 420.39 709.376 415.574C709.133 415.151 708.834 414.785 708.541 414.411C705.609 412.915 702.009 412.873 698.943 414.639C694.126 417.413 692.471 423.566 695.246 428.383C695.489 428.806 695.788 429.173 696.081 429.546C699.013 431.04 702.612 431.083 705.678 429.318Z" fill="#715CB0"/>
<path d="M706.444 416.701C707.579 418.672 706.088 421.659 703.112 423.373C700.136 425.087 696.804 424.878 695.669 422.908C694.534 420.937 696.026 417.95 699.001 416.236C701.976 414.522 705.309 414.73 706.444 416.701Z" fill="#D4C0FF"/>
<path d="M738.708 446.648H543.223V454.44H738.708V446.648Z" fill="#9A9A9A"/>
<path d="M738.708 138.468H543.223V146.259H738.708V138.468Z" fill="#9A9A9A"/>
<path d="M160.682 260.976L161.414 255.348C161.584 254.043 160.663 252.847 159.358 252.677L158.918 252.619C158.707 249.652 158.022 246.764 156.912 244.056L157.189 243.879C158.3 243.173 158.629 241.701 157.922 240.59L154.879 235.799C154.173 234.688 152.701 234.359 151.589 235.066L151.219 235.301C149.207 233.207 146.844 231.416 144.188 230.014L144.288 229.701C144.689 228.448 143.997 227.107 142.743 226.705L137.338 224.978C136.084 224.577 134.743 225.269 134.342 226.523L134.208 226.942C130.996 226.587 127.806 226.804 124.763 227.529L124.634 227.234C124.109 226.027 122.706 225.474 121.498 225.999L116.294 228.263C115.087 228.788 114.534 230.192 115.059 231.399L115.238 231.809C112.842 233.482 110.704 235.541 108.918 237.926L108.629 237.781C107.453 237.192 106.02 237.666 105.429 238.843L102.885 243.916C102.295 245.092 102.77 246.524 103.946 247.115L104.344 247.315C103.551 250.235 103.257 253.182 103.411 256.062L103.097 256.135C101.816 256.435 101.021 257.719 101.321 259L102.617 264.525C102.918 265.806 104.201 266.601 105.482 266.301L105.914 266.2C107.143 268.871 108.794 271.34 110.806 273.51L110.61 273.77C109.819 274.823 110.03 276.316 111.082 277.108L115.618 280.52C116.67 281.311 118.164 281.099 118.955 280.047L119.224 279.69C120.342 280.221 121.505 280.691 122.717 281.077C124.358 281.602 126.012 281.957 127.661 282.169L127.678 282.496C127.744 283.81 128.864 284.821 130.179 284.755L135.847 284.469C137.161 284.403 138.172 283.283 138.106 281.968L138.084 281.523C140.946 280.787 143.672 279.605 146.153 278.021L146.373 278.26C147.266 279.226 148.774 279.286 149.741 278.392L153.909 274.54C154.875 273.647 154.935 272.139 154.042 271.172L153.742 270.847C155.411 268.53 156.754 265.919 157.67 263.052C157.677 263.029 157.682 263.008 157.689 262.986L158.011 263.028C159.316 263.202 160.512 262.281 160.682 260.976ZM126.462 269.112C118.295 266.503 113.791 257.768 116.4 249.601C119.01 241.435 127.745 236.93 135.91 239.54C144.075 242.15 148.581 250.885 145.971 259.051C143.363 267.218 134.628 271.722 126.462 269.112Z" fill="#80ABFF"/>
<path d="M777.879 229.411L778.472 224.856C778.609 223.798 777.864 222.831 776.807 222.694L776.451 222.647C776.279 220.245 775.724 217.907 774.826 215.715L775.05 215.572C775.948 215.001 776.214 213.809 775.643 212.909L773.18 209.03C772.609 208.131 771.416 207.866 770.516 208.437L770.216 208.627C768.588 206.932 766.673 205.482 764.523 204.347L764.605 204.095C764.928 203.08 764.368 201.994 763.354 201.67L758.977 200.272C757.962 199.948 756.876 200.507 756.552 201.523L756.444 201.861C753.844 201.574 751.261 201.75 748.798 202.336L748.694 202.098C748.269 201.12 747.132 200.673 746.156 201.098L741.943 202.93C740.965 203.355 740.518 204.492 740.943 205.47L741.087 205.801C739.147 207.156 737.416 208.822 735.97 210.754L735.736 210.636C734.784 210.159 733.624 210.543 733.146 211.496L731.087 215.603C730.609 216.556 730.993 217.716 731.947 218.193L732.27 218.355C731.628 220.719 731.39 223.105 731.514 225.437L731.26 225.497C730.223 225.741 729.579 226.779 729.823 227.815L730.873 232.289C731.117 233.326 732.155 233.97 733.193 233.726L733.543 233.643C734.536 235.806 735.874 237.804 737.503 239.561L737.345 239.773C736.705 240.624 736.875 241.834 737.727 242.475L741.399 245.237C742.25 245.878 743.46 245.707 744.101 244.854L744.319 244.564C745.224 244.994 746.165 245.374 747.147 245.688C748.476 246.113 749.814 246.4 751.15 246.573L751.164 246.838C751.218 247.903 752.124 248.721 753.189 248.668L757.778 248.435C758.843 248.381 759.662 247.475 759.608 246.41L759.589 246.049C761.906 245.453 764.112 244.496 766.122 243.215L766.301 243.408C767.024 244.191 768.244 244.239 769.027 243.516L772.401 240.397C773.184 239.674 773.232 238.454 772.509 237.67L772.266 237.408C773.617 235.532 774.705 233.418 775.447 231.096C775.453 231.079 775.457 231.06 775.462 231.042L775.723 231.076C776.773 231.212 777.742 230.468 777.879 229.411ZM750.175 235.998C743.565 233.886 739.918 226.813 742.03 220.203C744.142 213.591 751.214 209.945 757.826 212.057C764.436 214.17 768.083 221.241 765.971 227.853C763.857 234.465 756.786 238.11 750.175 235.998Z" fill="#80ABFF"/>
<path d="M335.539 110.817L335.978 107.443C336.08 106.661 335.528 105.944 334.746 105.842L334.482 105.809C334.354 104.03 333.945 102.298 333.28 100.674L333.446 100.569C334.112 100.146 334.308 99.2632 333.886 98.597L332.061 95.7249C331.637 95.0587 330.755 94.8625 330.089 95.2849L329.868 95.4262C328.661 94.1714 327.244 93.0977 325.652 92.2566L325.712 92.0691C325.952 91.318 325.537 90.5131 324.786 90.2731L321.545 89.237C320.794 88.997 319.989 89.412 319.749 90.1631L319.669 90.4143C317.743 90.2019 315.831 90.3318 314.006 90.7668L313.93 90.5906C313.615 89.8669 312.774 89.5357 312.05 89.8507L308.93 91.208C308.207 91.523 307.875 92.3641 308.19 93.0877L308.297 93.3327C306.861 94.3363 305.578 95.5699 304.508 97.001L304.335 96.9135C303.63 96.5598 302.771 96.8447 302.417 97.5496L300.891 100.59C300.538 101.295 300.823 102.154 301.528 102.508L301.766 102.628C301.29 104.379 301.114 106.145 301.206 107.871L301.019 107.915C300.25 108.094 299.774 108.863 299.954 109.632L300.731 112.944C300.911 113.712 301.68 114.189 302.449 114.009L302.707 113.947C303.444 115.549 304.433 117.028 305.64 118.329L305.522 118.486C305.048 119.117 305.175 120.012 305.805 120.487L308.523 122.531C309.153 123.006 310.049 122.879 310.524 122.249L310.685 122.034C311.355 122.353 312.052 122.634 312.779 122.866C313.762 123.18 314.753 123.394 315.743 123.521L315.753 123.717C315.793 124.506 316.464 125.112 317.252 125.072L320.65 124.901C321.437 124.861 322.045 124.19 322.005 123.401L321.991 123.134C323.707 122.693 325.341 121.984 326.828 121.034L326.96 121.178C327.495 121.758 328.4 121.793 328.979 121.258L331.477 118.949C332.057 118.414 332.092 117.509 331.557 116.931L331.377 116.736C332.378 115.347 333.183 113.781 333.732 112.063C333.736 112.05 333.74 112.036 333.743 112.024L333.937 112.049C334.721 112.15 335.437 111.599 335.539 110.817ZM315.025 115.693C310.129 114.129 307.429 108.893 308.993 103.998C310.558 99.1019 315.793 96.4023 320.689 97.9658C325.584 99.5306 328.284 104.766 326.72 109.662C325.157 114.559 319.92 117.258 315.025 115.693Z" fill="#80ABFF"/>
<path d="M491.883 116.408C511.035 99.5601 519.293 77.6411 510.328 67.4508C501.363 57.2604 478.57 62.6576 459.419 79.5056C440.267 96.3537 432.01 118.273 440.974 128.463C449.939 138.653 472.732 133.256 491.883 116.408Z" stroke="#C7C7C7" stroke-width="2.1956" stroke-miterlimit="10"/>
<path d="M474.087 122.464C448.632 120.836 428.698 108.536 429.564 94.9906C430.43 81.4449 451.769 71.7849 477.224 73.4135C502.68 75.042 522.613 87.3429 521.747 100.887C520.881 114.432 499.542 124.093 474.087 122.464Z" stroke="#C7C7C7" stroke-width="2.1956" stroke-miterlimit="10"/>
<path d="M500.181 99.5064C498.553 124.962 486.252 144.895 472.707 144.029C459.162 143.163 449.502 121.825 451.13 96.3694C452.759 70.914 465.06 50.9804 478.604 51.8465C492.149 52.7127 501.81 74.0511 500.181 99.5064Z" stroke="#C7C7C7" stroke-width="2.1956" stroke-miterlimit="10"/>
<path d="M481.833 92.54C481.942 92.9112 482.058 93.2799 482.114 93.6749C482.759 98.1718 479.637 102.34 475.14 102.985C472.278 103.396 469.559 102.271 467.787 100.248C468.917 104.112 472.714 106.674 476.815 106.086C481.312 105.441 484.434 101.273 483.789 96.7757C483.555 95.1409 482.845 93.6961 481.833 92.54Z" fill="#FFAB2D"/>
<path d="M475.142 102.984C479.639 102.339 482.761 98.1707 482.116 93.6738C482.06 93.2788 481.944 92.9102 481.835 92.539C480.063 90.5142 477.344 89.3906 474.482 89.8006C469.985 90.4455 466.863 94.6137 467.508 99.1106C467.564 99.5055 467.681 99.8742 467.789 100.247C469.56 102.27 472.28 103.395 475.142 102.984Z" fill="#FFAB2D"/>
<path d="M479.55 93.6427C479.813 95.4825 477.776 97.2973 474.998 97.696C472.221 98.0947 469.755 96.9261 469.49 95.0863C469.226 93.2465 471.263 91.4318 474.042 91.0331C476.82 90.6344 479.285 91.803 479.55 93.6427Z" fill="#FFE7C3"/>
<path d="M470.371 54.0977C470.38 54.3714 470.394 54.6438 470.364 54.9238C470.011 58.1121 467.139 60.4106 463.951 60.0569C461.921 59.8319 460.261 58.5833 459.406 56.8873C459.496 59.7294 461.64 62.1516 464.548 62.474C467.736 62.8278 470.607 60.5293 470.961 57.3397C471.09 56.1811 470.86 55.0675 470.371 54.0977Z" fill="#FFAB2D"/>
<path d="M463.951 60.0576C467.139 60.4113 470.01 58.1116 470.364 54.9245C470.395 54.6445 470.38 54.3721 470.372 54.0984C469.518 52.4011 467.857 51.1525 465.827 50.9275C462.639 50.5738 459.768 52.8723 459.415 56.0606C459.384 56.3406 459.399 56.613 459.407 56.8867C460.262 58.5853 461.923 59.8338 463.951 60.0576Z" fill="#FFAB2D"/>
<path d="M468.615 54.4467C468.47 55.7515 466.757 56.6327 464.787 56.4139C462.817 56.1952 461.337 54.9616 461.482 53.6568C461.626 52.352 463.341 51.4708 465.311 51.6896C467.28 51.9083 468.76 53.1431 468.615 54.4467Z" fill="#FFE7C3"/>
<path d="M493.896 132.946C493.907 133.22 493.924 133.492 493.895 133.772C493.569 136.963 490.717 139.285 487.526 138.96C485.495 138.753 483.824 137.518 482.955 135.828C483.069 138.669 485.232 141.074 488.143 141.371C491.335 141.698 494.186 139.375 494.512 136.183C494.632 135.022 494.392 133.911 493.896 132.946Z" fill="#FFAB2D"/>
<path d="M487.527 138.959C490.718 139.285 493.57 136.963 493.896 133.771C493.925 133.491 493.909 133.219 493.897 132.945C493.029 131.255 491.358 130.02 489.327 129.813C486.136 129.487 483.284 131.809 482.958 135.001C482.929 135.281 482.945 135.553 482.956 135.827C483.825 137.517 485.496 138.752 487.527 138.959Z" fill="#FFAB2D"/>
<path d="M492.143 133.312C492.01 134.618 490.304 135.513 488.333 135.311C486.362 135.11 484.871 133.888 485.004 132.582C485.138 131.276 486.844 130.381 488.815 130.582C490.787 130.783 492.277 132.006 492.143 133.312Z" fill="#FFE7C3"/>
<path d="M526.237 91.9229C526.256 92.1953 526.281 92.4678 526.26 92.7477C526.027 95.9473 523.244 98.352 520.045 98.1195C518.009 97.9708 516.302 96.786 515.385 95.1224C515.582 97.9595 517.814 100.299 520.733 100.512C523.932 100.744 526.715 98.3395 526.947 95.1399C527.033 93.9776 526.761 92.874 526.237 91.9229Z" fill="#715CB0"/>
<path d="M520.046 98.1195C523.246 98.3519 526.028 95.9473 526.26 92.7477C526.28 92.4665 526.257 92.1953 526.238 91.9228C525.321 90.2593 523.615 89.0732 521.577 88.9257C518.378 88.6932 515.596 91.0979 515.363 94.2975C515.343 94.5787 515.367 94.8499 515.386 95.1236C516.303 96.7872 518.01 97.972 520.046 98.1195Z" fill="#715CB0"/>
<path d="M524.495 92.3397C524.4 93.6495 522.72 94.5931 520.744 94.4494C518.768 94.3057 517.242 93.1283 517.338 91.8185C517.433 90.5099 519.113 89.5651 521.089 89.7088C523.065 89.8525 524.591 91.0299 524.495 92.3397Z" fill="#D4C0FF"/>
<path d="M435.794 96.7656C435.812 97.0381 435.837 97.3106 435.816 97.5905C435.584 100.79 432.8 103.195 429.602 102.962C427.566 102.815 425.859 101.629 424.941 99.9652C425.138 102.802 427.371 105.142 430.289 105.354C433.489 105.587 436.271 103.182 436.505 99.9827C436.59 98.8191 436.317 97.7155 435.794 96.7656Z" fill="#715CB0"/>
<path d="M429.603 102.963C432.802 103.196 435.585 100.791 435.817 97.5914C435.837 97.3115 435.813 97.039 435.794 96.7665C434.877 95.103 433.171 93.9169 431.134 93.7694C427.934 93.537 425.152 95.9416 424.92 99.1412C424.9 99.4224 424.923 99.6937 424.942 99.9674C425.86 101.631 427.566 102.816 429.603 102.963Z" fill="#715CB0"/>
<path d="M434.053 97.1834C433.958 98.492 432.279 99.4369 430.303 99.2932C428.327 99.1494 426.801 97.9708 426.897 96.6622C426.992 95.3537 428.672 94.4088 430.648 94.5525C432.624 94.6963 434.148 95.8736 434.053 97.1834Z" fill="#D4C0FF"/>
<g filter="url(#filter0_d_14_42457)">
<path d="M226.398 163.696C226.398 157.519 231.406 152.512 237.583 152.512H623.078C629.255 152.512 634.262 157.519 634.262 163.696V382.912H226.398V163.696Z" fill="#565656"/>
<path d="M226.277 383.592H634.691V409.308C634.691 415.485 629.684 420.493 623.507 420.493H237.462C231.285 420.493 226.277 415.485 226.277 409.308V383.592Z" fill="#F9F9F9"/>
<path d="M235.668 175.512C235.668 169.335 240.675 164.327 246.853 164.327H615.353C621.53 164.327 626.538 169.335 626.538 175.512V375.527H235.668V175.512Z" fill="url(#paint0_linear_14_42457)"/>
<rect x="372.021" y="419.917" width="119.536" height="21.4262" fill="#BABABA"/>
<path d="M347.119 454.439C347.119 447.207 352.981 441.345 360.213 441.345H503.368C510.599 441.345 516.462 447.207 516.462 454.439H347.119Z" fill="#F9F9F9"/>
<ellipse cx="430.734" cy="401.879" rx="5.60324" ry="5.35656" fill="#565656"/>
<path d="M492.666 189.59V238.144" stroke="#BBBBBB" stroke-width="1.78951" stroke-miterlimit="10" stroke-linecap="round"/>
<path d="M588.91 189.59H499.608C498.859 189.59 498.252 190.197 498.252 190.946C498.252 191.694 498.859 192.301 499.608 192.301H588.91C589.658 192.301 590.265 191.694 590.265 190.946C590.265 190.197 589.658 189.59 588.91 189.59Z" fill="#9EC0FF"/>
<path d="M577.49 197.232H499.608C498.859 197.232 498.252 197.839 498.252 198.588C498.252 199.337 498.859 199.944 499.608 199.944H577.49C578.238 199.944 578.845 199.337 578.845 198.588C578.845 197.839 578.238 197.232 577.49 197.232Z" fill="#9EC0FF"/>
<path d="M585.213 204.871H499.608C498.859 204.871 498.252 205.478 498.252 206.227C498.252 206.976 498.859 207.583 499.608 207.583H585.213C585.962 207.583 586.569 206.976 586.569 206.227C586.569 205.478 585.962 204.871 585.213 204.871Z" fill="#9EC0FF"/>
<path d="M552.022 212.513H499.608C498.859 212.513 498.252 213.12 498.252 213.869C498.252 214.617 498.859 215.224 499.608 215.224H552.022C552.771 215.224 553.378 214.617 553.378 213.869C553.378 213.12 552.771 212.513 552.022 212.513Z" fill="#9EC0FF"/>
<path d="M567.221 220.151H499.608C498.859 220.151 498.252 220.758 498.252 221.507C498.252 222.256 498.859 222.863 499.608 222.863H567.221C567.97 222.863 568.577 222.256 568.577 221.507C568.577 220.758 567.97 220.151 567.221 220.151Z" fill="#9EC0FF"/>
<path d="M526.554 227.792H499.608C498.859 227.792 498.252 228.399 498.252 229.148C498.252 229.897 498.859 230.504 499.608 230.504H526.554C527.302 230.504 527.909 229.897 527.909 229.148C527.909 228.399 527.302 227.792 526.554 227.792Z" fill="#9EC0FF"/>
<path d="M532.715 235.433H499.608C498.859 235.433 498.252 236.04 498.252 236.788C498.252 237.537 498.859 238.144 499.608 238.144H532.715C533.464 238.144 534.071 237.537 534.071 236.788C534.071 236.04 533.464 235.433 532.715 235.433Z" fill="#9EC0FF"/>
<path d="M492.666 247.487V296.04" stroke="#BBBBBB" stroke-width="1.78951" stroke-miterlimit="10" stroke-linecap="round"/>
<path d="M566.481 247.487H499.608C498.859 247.487 498.252 248.094 498.252 248.843C498.252 249.592 498.859 250.199 499.608 250.199H566.481C567.23 250.199 567.837 249.592 567.837 248.843C567.837 248.094 567.23 247.487 566.481 247.487Z" fill="#9EC0FF"/>
<path d="M582.83 255.128H499.608C498.859 255.128 498.252 255.735 498.252 256.484C498.252 257.233 498.859 257.84 499.608 257.84H582.83C583.578 257.84 584.185 257.233 584.185 256.484C584.185 255.735 583.578 255.128 582.83 255.128Z" fill="#9EC0FF"/>
<path d="M572.233 262.768H499.608C498.859 262.768 498.252 263.375 498.252 264.123C498.252 264.872 498.859 265.479 499.608 265.479H572.233C572.981 265.479 573.588 264.872 573.588 264.123C573.588 263.375 572.981 262.768 572.233 262.768Z" fill="#9EC0FF"/>
<path d="M574.696 270.407H499.608C498.859 270.407 498.252 271.014 498.252 271.763C498.252 272.512 498.859 273.119 499.608 273.119H574.696C575.445 273.119 576.052 272.512 576.052 271.763C576.052 271.014 575.445 270.407 574.696 270.407Z" fill="#9EC0FF"/>
<path d="M517.598 278.047H499.608C498.859 278.047 498.252 278.654 498.252 279.403C498.252 280.151 498.859 280.758 499.608 280.758H517.598C518.347 280.758 518.954 280.151 518.954 279.403C518.954 278.654 518.347 278.047 517.598 278.047Z" fill="#9EC0FF"/>
<path d="M566.646 285.688H499.608C498.859 285.688 498.252 286.295 498.252 287.043C498.252 287.792 498.859 288.399 499.608 288.399H566.646C567.395 288.399 568.002 287.792 568.002 287.043C568.002 286.295 567.395 285.688 566.646 285.688Z" fill="#9EC0FF"/>
<path d="M574.696 293.33H499.608C498.859 293.33 498.252 293.937 498.252 294.686C498.252 295.435 498.859 296.042 499.608 296.042H574.696C575.445 296.042 576.052 295.435 576.052 294.686C576.052 293.937 575.445 293.33 574.696 293.33Z" fill="#9EC0FF"/>
<path d="M433.917 317.767C424.167 317.767 416.262 325.671 416.262 335.422C416.262 345.172 424.167 353.077 433.917 353.077C443.668 353.077 451.572 345.172 451.572 335.422C451.571 325.671 443.666 317.767 433.917 317.767ZM433.917 347.874C427.039 347.874 421.465 342.299 421.465 335.422C421.465 328.544 427.04 322.97 433.917 322.97C440.794 322.97 446.369 328.545 446.369 335.422C446.369 342.299 440.794 347.874 433.917 347.874Z" fill="#D1E3FF"/>
<path d="M446.369 335.422C446.369 342.299 440.794 347.875 433.917 347.875C427.039 347.875 421.465 342.299 421.465 335.422C421.465 328.544 427.04 322.97 433.917 322.97V317.769C424.167 317.769 416.262 325.673 416.262 335.424C416.262 345.174 424.167 353.079 433.917 353.079C443.668 353.079 451.572 345.174 451.572 335.424H446.369V335.422Z" fill="#63A1FF"/>
<path d="M480.148 317.767C470.397 317.767 462.492 325.671 462.492 335.422C462.492 345.172 470.397 353.077 480.148 353.077C489.898 353.077 497.803 345.172 497.803 335.422C497.803 325.671 489.898 317.767 480.148 317.767ZM480.148 347.874C473.269 347.874 467.695 342.299 467.695 335.422C467.695 328.544 473.271 322.97 480.148 322.97C487.024 322.97 492.6 328.545 492.6 335.422C492.601 342.299 487.026 347.874 480.148 347.874Z" fill="#FF976A"/>
<path d="M467.695 335.423C467.695 328.545 473.271 322.971 480.148 322.971V317.77C470.397 317.77 462.492 325.674 462.492 335.425C462.492 345.175 470.397 353.08 480.148 353.08V347.879C473.271 347.876 467.695 342.3 467.695 335.423Z" fill="#FFF2EC"/>
<path d="M526.38 317.767C516.629 317.767 508.725 325.671 508.725 335.422C508.725 345.172 516.629 353.077 526.38 353.077C536.13 353.077 544.035 345.172 544.035 335.422C544.035 325.671 536.13 317.767 526.38 317.767ZM526.38 347.874C519.503 347.874 513.928 342.299 513.928 335.422C513.928 328.544 519.503 322.97 526.38 322.97C533.258 322.97 538.832 328.545 538.832 335.422C538.832 342.299 533.258 347.874 526.38 347.874Z" fill="#FFE7C3"/>
<path d="M538.834 335.423C538.834 342.3 533.259 347.876 526.382 347.876C519.505 347.876 513.929 342.3 513.929 335.423C513.929 328.545 519.505 322.971 526.382 322.971V317.77C516.631 317.77 508.727 325.674 508.727 335.425C508.727 345.175 516.631 353.08 526.382 353.08C536.132 353.08 544.037 345.175 544.037 335.425H538.834V335.423Z" fill="#FFAB2D"/>
<path d="M572.61 317.768C562.86 317.768 554.955 325.672 554.955 335.423C554.955 345.173 562.86 353.078 572.61 353.078C582.361 353.078 590.266 345.173 590.266 335.423C590.264 325.672 582.361 317.768 572.61 317.768ZM572.61 347.875C565.732 347.875 560.158 342.3 560.158 335.423C560.158 328.545 565.734 322.971 572.61 322.971C579.487 322.971 585.063 328.546 585.063 335.423C585.063 342.3 579.487 347.875 572.61 347.875Z" fill="#D4C0FF"/>
<path d="M572.61 347.877C565.732 347.877 560.158 342.301 560.158 335.424C560.158 328.546 565.734 322.972 572.61 322.972V317.771C562.86 317.771 554.955 325.675 554.955 335.426C554.955 345.176 562.86 353.081 572.61 353.081" fill="#715CB0"/>
<path d="M338.236 221.543V220.613" stroke="#63A1FF" stroke-width="1.78951" stroke-linecap="round" stroke-linejoin="round"/>
<path d="M338.236 218.743V185.993" stroke="#63A1FF" stroke-width="1.78951" stroke-linecap="round" stroke-linejoin="round" stroke-dasharray="2.4 2.4"/>
<path d="M338.237 185.056V185.056C338.237 184.542 337.821 184.126 337.307 184.126H337.072" stroke="#63A1FF" stroke-width="1.78951" stroke-linecap="round" stroke-linejoin="round"/>
<path d="M334.725 184.126H209.104" stroke="#63A1FF" stroke-width="1.78951" stroke-linecap="round" stroke-linejoin="round" stroke-dasharray="2.41 2.41"/>
<path d="M207.929 184.126H206.766" stroke="#63A1FF" stroke-width="1.78951" stroke-linecap="round" stroke-linejoin="round"/>
<path d="M326.238 259.938C322.388 251.533 324.588 244.26 330.531 237.681C336.162 231.447 341.837 225.201 346.659 218.303C350.593 212.677 352.444 207.253 359.761 205.985C370.393 204.145 379.497 211.369 382.455 221.301C384.875 229.427 382.29 240.487 388.535 247.231C394.654 253.837 402.137 258.598 401.508 268.673C400.915 278.161 393.782 286.852 383.76 286.298C376.628 285.903 370.641 284.016 366.774 277.816C363.669 272.838 361.855 266.772 355.463 265.324C348.542 263.755 342.203 269.607 335.275 267.803C330.923 266.666 327.959 263.692 326.238 259.938Z" fill="#FFAB2D"/>
<path d="M361.498 214.686C361.964 215.943 361.322 217.34 360.066 217.805C358.809 218.271 357.412 217.629 356.947 216.373C356.481 215.116 357.123 213.719 358.379 213.254C359.636 212.79 361.033 213.43 361.498 214.686Z" fill="#FFE7C3"/>
<path d="M351.639 254.937C352.105 256.193 351.463 257.59 350.206 258.054C348.95 258.52 347.553 257.878 347.087 256.622C346.622 255.365 347.263 253.968 348.52 253.503C349.777 253.038 351.173 253.68 351.639 254.937Z" fill="#FFE7C3"/>
<path d="M390.227 259.314C390.692 260.57 390.051 261.966 388.794 262.431C387.537 262.897 386.141 262.255 385.675 260.999C385.21 259.742 385.851 258.345 387.108 257.88C388.366 257.415 389.761 258.057 390.227 259.314Z" fill="#FFE7C3"/>
<path d="M349.897 238.392C350.529 240.098 347.277 242.875 342.632 244.596C337.988 246.317 333.71 246.328 333.078 244.622C332.447 242.916 335.7 240.14 340.343 238.419C344.988 236.699 349.265 236.687 349.897 238.392Z" fill="#FFE7C3"/>
<path d="M369.608 221.671C371.397 221.341 373.573 225.023 374.47 229.894C375.366 234.765 374.643 238.981 372.854 239.31C371.065 239.639 368.889 235.958 367.992 231.086C367.096 226.216 367.819 222.001 369.608 221.671Z" fill="#FFE7C3"/>
<path d="M370.417 264.644C371.283 263.045 375.516 263.659 379.871 266.016C384.226 268.373 387.055 271.58 386.189 273.181C385.323 274.781 381.09 274.166 376.736 271.809C372.381 269.451 369.553 266.243 370.417 264.644Z" fill="#FFE7C3"/>
<path d="M343.777 282.905C345.543 289.718 342.925 294.878 337.594 299.017C332.542 302.94 327.456 306.867 322.922 311.393C319.224 315.087 317.114 318.906 311.459 318.881C303.244 318.845 297.383 312.218 296.488 304.378C295.756 297.964 299.167 290.018 295.385 284.13C291.678 278.363 286.702 273.796 288.516 266.328C290.225 259.295 296.73 253.73 304.169 255.482C309.462 256.729 313.699 258.94 315.772 264.103C317.438 268.248 317.988 273.037 322.587 274.974C327.565 277.072 333.098 273.53 338.051 275.807C341.162 277.237 342.987 279.861 343.777 282.905Z" fill="#FFAB2D"/>
<path d="M311.317 312.125C311.135 311.121 311.802 310.161 312.806 309.979C313.811 309.798 314.771 310.464 314.953 311.469C315.134 312.473 314.468 313.433 313.463 313.615C312.46 313.796 311.498 313.13 311.317 312.125Z" fill="#FFE7C3"/>
<path d="M324.069 283.267C323.887 282.262 324.554 281.302 325.558 281.121C326.563 280.939 327.523 281.606 327.705 282.61C327.886 283.615 327.22 284.575 326.215 284.756C325.212 284.938 324.25 284.271 324.069 283.267Z" fill="#FFE7C3"/>
<path d="M295.725 274.847C295.544 273.842 296.21 272.882 297.215 272.701C298.219 272.519 299.179 273.186 299.361 274.19C299.542 275.195 298.876 276.155 297.871 276.336C296.867 276.518 295.907 275.852 295.725 274.847Z" fill="#FFE7C3"/>
<path d="M323.171 295.904C322.925 294.542 325.733 292.893 329.444 292.223C333.155 291.552 336.362 292.113 336.609 293.475C336.856 294.837 334.047 296.486 330.336 297.157C326.624 297.827 323.417 297.266 323.171 295.904Z" fill="#FFE7C3"/>
<path d="M306.167 305.812C304.783 305.821 303.641 302.771 303.618 299.001C303.594 295.229 304.698 292.166 306.083 292.157C307.467 292.149 308.608 295.199 308.632 298.969C308.656 302.739 307.551 305.803 306.167 305.812Z" fill="#FFE7C3"/>
<path d="M311.287 273.489C310.425 274.572 307.334 273.548 304.382 271.201C301.431 268.854 299.738 266.071 300.6 264.988C301.462 263.904 304.553 264.928 307.504 267.275C310.455 269.623 312.15 272.405 311.287 273.489Z" fill="#FFE7C3"/>
<path d="M394.182 56.7246H357.114C356.188 56.7246 355.438 57.4753 355.438 58.4013V98.4255C355.438 99.3515 356.188 100.102 357.114 100.102H394.182C395.108 100.102 395.858 99.3515 395.858 98.4255V58.4013C395.858 57.4753 395.108 56.7246 394.182 56.7246Z" stroke="#63A1FF" stroke-width="3" stroke-miterlimit="10" stroke-linecap="round"/>
<path d="M360.982 61.1611H390.311" stroke="#63A1FF" stroke-width="3" stroke-miterlimit="10" stroke-linecap="round" stroke-linejoin="round"/>
<path d="M360.982 69.7881H390.311" stroke="#63A1FF" stroke-width="3" stroke-miterlimit="10" stroke-linecap="round" stroke-linejoin="round"/>
<path d="M360.982 78.4131H390.311" stroke="#63A1FF" stroke-width="3" stroke-miterlimit="10" stroke-linecap="round" stroke-linejoin="round"/>
<path d="M360.982 87.041H390.311" stroke="#63A1FF" stroke-width="3" stroke-miterlimit="10" stroke-linecap="round" stroke-linejoin="round"/>
<path d="M360.982 95.665H390.311" stroke="#63A1FF" stroke-width="3" stroke-miterlimit="10" stroke-linecap="round" stroke-linejoin="round"/>
<path d="M387.953 238.431H416.262" stroke="#63A1FF" stroke-width="1.78951" stroke-miterlimit="10" stroke-linecap="round" stroke-linejoin="round" stroke-dasharray="2.39 2.39"/>
<path d="M361.648 283.941V304.482" stroke="#63A1FF" stroke-width="1.78951" stroke-miterlimit="10" stroke-linecap="round" stroke-linejoin="round" stroke-dasharray="2.39 2.39"/>
<path d="M376.258 197.314L376.258 106.163" stroke="#63A1FF" stroke-width="1.78951" stroke-miterlimit="10" stroke-linecap="round" stroke-linejoin="round" stroke-dasharray="2.39 2.39"/>
<path d="M275.368 336.333L267.806 337.962L265.438 345.326L270.628 351.059L278.19 349.429L280.559 342.066L275.368 336.333Z" stroke="#63A1FF" stroke-width="0.984708" stroke-miterlimit="10" stroke-linecap="round"/>
<path d="M285.349 327.33L277.788 328.959L275.418 336.322L280.61 342.056L288.171 340.426L290.541 333.063L285.349 327.33Z" stroke="#63A1FF" stroke-width="0.984708" stroke-miterlimit="10" stroke-linecap="round"/>
<path d="M298.14 331.651L290.578 333.281L288.209 340.644L293.4 346.377L300.962 344.748L303.332 337.385L298.14 331.651Z" stroke="#63A1FF" stroke-width="0.984708" stroke-miterlimit="10" stroke-linecap="round"/>
<path d="M303.332 337.386L308.089 336.36" stroke="#63A1FF" stroke-width="0.984708" stroke-miterlimit="10" stroke-linecap="round"/>
<path d="M293.399 346.376L292.389 350.996L294.451 353.064" stroke="#63A1FF" stroke-width="0.984708" stroke-miterlimit="10" stroke-linecap="round"/>
<path d="M267.804 337.961L265.023 334.306" stroke="#63A1FF" stroke-width="0.984708" stroke-miterlimit="10" stroke-linecap="round"/>
<path d="M277.787 328.959L274.793 325.544" stroke="#63A1FF" stroke-width="0.984708" stroke-miterlimit="10" stroke-linecap="round"/>
<path d="M303.361 219.858L309.984 215.867L309.841 208.135L303.072 204.394L296.447 208.385L296.592 216.118L303.361 219.858Z" stroke="#63A1FF" stroke-width="0.98454" stroke-miterlimit="10" stroke-linecap="round"/>
<path d="M296.303 208.146L302.928 204.153L302.783 196.421L296.014 192.681L289.391 196.672L289.534 204.404L296.303 208.146Z" stroke="#63A1FF" stroke-width="0.98454" stroke-miterlimit="10" stroke-linecap="round"/>
<path d="M289.862 219.918L296.486 215.927L296.342 208.194L289.573 204.453L282.949 208.444L283.094 216.176L289.862 219.918Z" stroke="#63A1FF" stroke-width="0.98454" stroke-miterlimit="10" stroke-linecap="round"/>
<path d="M283.094 216.176L278.926 218.687" stroke="#63A1FF" stroke-width="0.98454" stroke-miterlimit="10" stroke-linecap="round"/>
<path d="M309.986 215.868L313.926 218.128" stroke="#63A1FF" stroke-width="0.98454" stroke-miterlimit="10" stroke-linecap="round"/>
</g>
<path d="M327.72 423.134H132.721C130.702 423.134 129.066 421.498 129.066 419.479V395.63C129.066 393.611 130.702 391.977 132.72 391.977H327.719V423.134H327.72Z" fill="#FFB897"/>
<path d="M146.958 391.977C146.958 391.977 140.242 412.59 146.958 423.134H139.359C139.359 423.134 133.704 411.234 139.359 391.977H146.958Z" fill="#FF976A"/>
<path d="M157.069 391.977C157.069 391.977 150.354 412.59 157.069 423.134H149.47C149.47 423.134 143.816 411.234 149.47 391.977H157.069Z" fill="#FF976A"/>
<path d="M327.721 418.547H181.183C179.164 418.547 177.529 416.911 177.529 414.894V400.217C177.529 398.198 179.165 396.563 181.183 396.563H327.721V418.547Z" fill="white"/>
<path d="M177.529 400.374H327.721" stroke="#F0F0F0" stroke-width="1.42232" stroke-miterlimit="10"/>
<path d="M177.529 405.344H327.721" stroke="#F0F0F0" stroke-width="1.42232" stroke-miterlimit="10"/>
<path d="M177.529 410.315H327.721" stroke="#F0F0F0" stroke-width="1.42232" stroke-miterlimit="10"/>
<path d="M177.529 415.285H327.721" stroke="#F0F0F0" stroke-width="1.42232" stroke-miterlimit="10"/>
<path d="M301.456 454.033H106.457C104.439 454.033 102.803 452.397 102.803 450.38V426.53C102.803 424.512 104.439 422.876 106.457 422.876H301.455L301.456 454.033Z" fill="#D4C0FF"/>
<path d="M120.694 422.876C120.694 422.876 113.979 443.491 120.694 454.033H113.095C113.095 454.033 107.441 442.133 113.095 422.876H120.694Z" fill="#715CB0"/>
<path d="M130.805 422.876C130.805 422.876 124.09 443.491 130.805 454.033H123.206C123.206 454.033 117.552 442.133 123.206 422.876H130.805Z" fill="#715CB0"/>
<path d="M301.457 449.447H154.919C152.902 449.447 151.266 447.811 151.266 445.794V431.116C151.266 429.098 152.902 427.463 154.919 427.463H301.457V449.447Z" fill="white"/>
<path d="M151.264 431.274H301.456" stroke="#F0F0F0" stroke-width="1.42232" stroke-miterlimit="10"/>
<path d="M151.264 436.244H301.456" stroke="#F0F0F0" stroke-width="1.42232" stroke-miterlimit="10"/>
<path d="M151.264 441.214H301.456" stroke="#F0F0F0" stroke-width="1.42232" stroke-miterlimit="10"/>
<path d="M151.264 446.184H301.456" stroke="#F0F0F0" stroke-width="1.42232" stroke-miterlimit="10"/>
<path d="M455.65 242.026C455.234 241.598 454.668 241.359 454.08 241.359C453.493 241.359 452.926 241.598 452.513 242.027L450.976 240.448C455.077 234.681 454.593 226.526 449.526 221.322C446.811 218.534 443.205 217 439.367 217C435.53 217 431.922 218.534 429.211 221.322C426.494 224.108 425 227.813 425 231.754C425 235.694 426.494 239.399 429.209 242.186C431.921 244.976 435.528 246.511 439.366 246.511C442.453 246.511 445.389 245.515 447.832 243.677L449.368 245.254C448.951 245.68 448.717 246.263 448.717 246.865C448.717 247.471 448.951 248.05 449.368 248.478L455.022 254.287C455.948 255.238 457.448 255.238 458.373 254.287L461.306 251.274C462.231 250.323 462.231 248.783 461.306 247.834L455.65 242.026ZM439.365 241.944C436.716 241.944 434.222 240.881 432.35 238.959C430.477 237.035 429.444 234.476 429.444 231.754C429.444 229.033 430.477 226.472 432.35 224.548C434.222 222.625 436.716 221.563 439.365 221.563C442.014 221.563 444.506 222.625 446.38 224.548C450.247 228.522 450.247 234.985 446.38 238.959C444.508 240.881 442.015 241.944 439.365 241.944Z" fill="#63A1FF"/>
<path d="M345.93 340.289L353.71 348.068L354.467 351.489L352.165 353.018L340.98 341.834L342.165 339.036L345.93 340.289Z" fill="#63A1FF"/>
<path d="M357.909 324.906L369.094 336.091L367.67 338.403L364.145 337.636V337.635L356.365 329.855H356.364L354.928 326.904L357.909 324.906Z" fill="#63A1FF"/>
<path d="M373.885 327.894H373.886L374.71 331.271L372.339 332.843L361.156 321.66L362.376 319.538L366.105 320.114V320.115L373.885 327.894Z" fill="#63A1FF"/>
<path d="M378.083 304.732L389.266 315.916L387.643 318.486L384.317 317.461L376.538 309.681L375.283 306.7L378.083 304.732Z" fill="#63A1FF"/>
<path d="M392.567 315.968C393.58 316.98 393.46 318.678 392.246 319.535C387.819 322.621 382.834 322.427 378.097 321.672L375.896 319.614L377.206 316.793C381.572 317.593 385.979 318.221 389.599 315.695C390.521 315.054 391.773 315.174 392.567 315.968Z" fill="#63A1FF"/>
<path d="M354.707 338.431L353.042 340.957C350.51 340.492 348.135 340.137 345.931 340.289C344.002 340.422 342.251 340.942 340.651 342.054C339.729 342.695 338.476 342.575 337.682 341.781C336.653 340.754 336.811 339.047 338.002 338.215C342.431 335.127 347.414 335.321 352.153 336.078L354.707 338.431Z" fill="#63A1FF"/>
<path d="M378.097 321.672C378.975 327.18 379.095 333.02 374.182 337.933C369.27 342.845 363.43 342.726 357.922 341.846L355.941 339.78L357.032 336.967C359.564 337.432 361.942 337.787 364.145 337.636C365.908 337.513 367.561 337.066 369.093 336.091C370.336 335.298 371.524 334.127 372.34 332.843C373.317 331.31 373.763 329.657 373.886 327.894C374.038 325.691 373.683 323.314 373.218 320.782L370.004 318.357L372.327 315.903C371.572 311.165 371.378 306.181 374.465 301.753C375.32 300.541 377.019 300.419 378.031 301.433C378.825 302.226 378.945 303.479 378.304 304.4C374.982 309.16 377.074 315.257 378.097 321.672Z" fill="#63A1FF"/>
<path d="M373.217 320.781C367.883 319.802 363.182 319.289 359.36 323.11C357.464 325.007 356.549 327.191 356.363 329.854C355.833 337.568 361.58 347.682 355.783 355.997C354.952 357.188 353.245 357.345 352.218 356.317C351.424 355.522 351.304 354.27 351.945 353.348C353.057 351.748 353.577 349.997 353.71 348.068C354.283 339.735 347.459 328.424 356.066 319.817C360.979 314.904 366.819 315.024 372.326 315.903C372.568 317.418 372.891 319.025 373.217 320.781Z" fill="#63A1FF"/>
<path d="M190.977 176.764H188.923V174.172C188.923 173 187.971 172.049 186.8 172.049H171.175C171.087 172.049 171.006 171.998 170.962 171.917L167.204 164.747C166.534 163.463 165.213 162.661 163.76 162.661H151.773C149.632 162.661 147.891 164.402 147.891 166.544V197.681C147.891 199.604 149.456 201.17 151.379 201.17H153.452V201.514C153.452 203.625 155.168 205.341 157.278 205.341H190.664C192.774 205.341 194.49 203.625 194.49 201.514V180.271C194.49 178.336 192.918 176.764 190.977 176.764ZM192.612 201.514C192.612 202.585 191.741 203.461 190.664 203.461H157.278C156.207 203.461 155.331 202.585 155.331 201.514V180.271C155.331 179.376 156.063 178.643 156.965 178.643H190.977C191.879 178.643 192.612 179.376 192.612 180.271V201.514Z" fill="#63A1FF"/>
<path d="M140.939 168.116C141.458 168.116 141.879 167.696 141.879 167.177V156.421C141.879 155.571 142.578 154.879 143.437 154.879H155.371C155.889 154.879 156.31 154.458 156.31 153.939C156.31 153.42 155.889 153 155.371 153H143.437C141.542 153 140 154.535 140 156.421V167.177C140 167.696 140.421 168.116 140.939 168.116Z" fill="#63A1FF"/>
<path d="M198.943 153H187.287C186.768 153 186.348 153.42 186.348 153.939C186.348 154.458 186.768 154.879 187.287 154.879H198.943C199.802 154.879 200.501 155.571 200.501 156.421V167.177C200.501 167.696 200.922 168.116 201.441 168.116C201.959 168.116 202.38 167.696 202.38 167.177V156.421C202.38 154.535 200.838 153 198.943 153Z" fill="#63A1FF"/>
<path d="M201.441 197.953C200.922 197.953 200.501 198.374 200.501 198.892V211.578C200.501 212.429 199.802 213.121 198.943 213.121H187.287C186.768 213.121 186.348 213.541 186.348 214.06C186.348 214.579 186.768 214.999 187.287 214.999H198.943C200.838 214.999 202.38 213.465 202.38 211.578V198.893C202.38 198.374 201.959 197.953 201.441 197.953Z" fill="#63A1FF"/>
<path d="M143.437 215H155.371C155.889 215 156.31 214.579 156.31 214.06C156.31 213.541 155.889 213.121 155.371 213.121H143.437C142.578 213.121 141.879 212.429 141.879 211.578V198.892C141.879 198.374 141.458 197.953 140.939 197.953C140.421 197.953 140 198.373 140 198.892V211.578C140 213.465 141.542 215 143.437 215Z" fill="#63A1FF"/>
<defs>
<filter id="filter0_d_14_42457" x="201.871" y="55.2246" width="436.82" height="407.214" filterUnits="userSpaceOnUse" color-interpolation-filters="sRGB">
<feFlood flood-opacity="0" result="BackgroundImageFix"/>
<feColorMatrix in="SourceAlpha" type="matrix" values="0 0 0 0 0 0 0 0 0 0 0 0 0 0 0 0 0 0 127 0" result="hardAlpha"/>
<feOffset dy="4"/>
<feGaussianBlur stdDeviation="2"/>
<feComposite in2="hardAlpha" operator="out"/>
<feColorMatrix type="matrix" values="0 0 0 0 0 0 0 0 0 0 0 0 0 0 0 0 0 0 0.25 0"/>
<feBlend mode="normal" in2="BackgroundImageFix" result="effect1_dropShadow_14_42457"/>
<feBlend mode="normal" in="SourceGraphic" in2="effect1_dropShadow_14_42457" result="shape"/>
</filter>
<linearGradient id="paint0_linear_14_42457" x1="431.103" y1="164.327" x2="431.103" y2="375.527" gradientUnits="userSpaceOnUse">
<stop stop-color="#E1F6FF"/>
<stop offset="0.791666" stop-color="white"/>
</linearGradient>
</defs>
</svg>
