<svg width="174" height="81" viewBox="0 0 174 81" fill="none" xmlns="http://www.w3.org/2000/svg">
<path d="M123.62 0H30.41C13.615 0 0 13.615 0 30.41V49.72C0 66.515 13.615 80.13 30.41 80.13H123.62C140.415 80.13 154.03 66.515 154.03 49.72V30.41C154.03 13.615 140.415 0 123.62 0Z" fill="#FCFCFC"/>
<path d="M135.75 49.8781L173.69 66.8781L148.29 31.3281L135.75 49.8781Z" fill="#FCFCFC"/>
<path d="M39.2898 37.4803C39.2898 40.7403 36.3098 43.3903 32.6498 43.3903C28.9898 43.3903 26.0098 40.7503 26.0098 37.4803C26.0098 34.2103 28.9898 31.5703 32.6498 31.5703C36.3098 31.5703 39.2898 34.2103 39.2898 37.4803Z" fill="#1C53A1"/>
<path d="M70.1999 37.4803C70.1999 40.7403 67.2299 43.3903 63.5599 43.3903C59.8899 43.3903 56.9199 40.7503 56.9199 37.4803C56.9199 34.2103 59.8899 31.5703 63.5599 31.5703C67.2299 31.5703 70.1999 34.2103 70.1999 37.4803Z" fill="#1C53A1"/>
<path d="M101.12 37.4803C101.12 40.7403 98.1498 43.3903 94.4798 43.3903C90.8098 43.3903 87.8398 40.7503 87.8398 37.4803C87.8398 34.2103 90.8198 31.5703 94.4798 31.5703C98.1398 31.5703 101.12 34.2103 101.12 37.4803Z" fill="#1C53A1"/>
</svg>
