<svg width="364" height="494" viewBox="0 0 364 494" fill="none" xmlns="http://www.w3.org/2000/svg">
<path d="M323.241 82.4364C340.894 107.237 345.771 136.902 337.863 171.462C329.955 206.021 313.064 229.251 286.963 242.19C260.859 255.14 229.656 257.45 193.359 249.145L168.486 348.221L104.087 333.486L135.393 184.633L158.953 190.023C189.326 196.973 213.624 198.315 231.875 194.032C250.112 189.757 261.673 176.971 266.544 155.683C270.057 140.329 268.404 127.097 261.575 115.974C254.755 104.864 243.654 97.5439 228.3 94.0307C212.946 90.5175 198.77 91.8669 187.866 98.5577C176.973 105.251 169.758 116.277 166.245 131.631L97.1255 115.816C101.641 94.4464 110.537 76.4581 123.801 61.8594C137.065 47.2606 153.929 37.3405 174.411 32.1142C194.892 26.8879 217.522 27.0985 242.306 32.7694C278.603 41.0746 305.577 57.633 323.243 82.426L323.241 82.4364Z" fill="#D7D436"/>
<path d="M300.267 77.1801C317.921 101.981 322.797 131.646 314.889 166.205C306.982 200.765 290.09 223.995 263.989 236.934C237.885 249.883 206.682 252.194 170.385 243.889L145.512 342.965L81.1136 328.229L112.419 179.376L135.979 184.767C166.352 191.717 190.651 193.058 208.901 188.775C227.139 184.5 238.699 171.715 243.57 150.426C247.083 135.072 245.43 121.84 238.602 110.718C231.782 99.6079 220.68 92.2876 205.326 88.7744C189.972 85.2612 175.797 86.6106 164.893 93.3014C153.999 99.9947 146.784 111.021 143.271 126.375L74.1624 110.562C78.6776 89.1925 87.5737 71.2042 100.838 56.6055C114.102 42.0067 130.966 32.0866 151.447 26.8603C171.929 21.634 194.559 21.8446 219.343 27.5155C255.64 35.8207 282.614 52.3791 300.28 77.1721L300.267 77.1801Z" fill="#FFFD98"/>
<mask id="mask0_1428_331" style="mask-type:luminance" maskUnits="userSpaceOnUse" x="73" y="23" width="246" height="320">
<path d="M299.917 77.1801C317.571 101.981 322.447 131.646 314.54 166.205C306.632 200.765 289.741 223.995 263.639 236.934C237.535 249.883 206.332 252.194 170.035 243.889L145.163 342.965L80.7638 328.229L112.07 179.376L135.629 184.767C166.002 191.717 190.301 193.058 208.551 188.775C226.789 184.5 238.349 171.715 243.22 150.426C246.734 135.072 245.08 121.84 238.252 110.718C231.432 99.6079 220.331 92.2876 204.977 88.7744C189.623 85.2612 175.447 86.6106 164.543 93.3014C153.649 99.9947 146.434 111.021 142.921 126.375L73.8126 110.562C78.3277 89.1925 87.2239 71.2042 100.488 56.6055C113.752 42.0067 130.616 32.0866 151.098 26.8603C171.579 21.634 194.209 21.8446 218.993 27.5155C255.29 35.8207 282.264 52.3791 299.93 77.1721L299.917 77.1801Z" fill="white"/>
</mask>
<g mask="url(#mask0_1428_331)">
<path d="M83.7195 5.87891C83.7195 5.87891 84.132 6.57908 84.9071 7.95698C85.6823 9.33489 86.8328 11.3825 88.3266 14.0482C91.3431 19.3975 95.7774 27.2629 101.57 37.2786C113.153 57.3203 130.139 85.9999 152.136 120.265C152.201 120.368 152.17 120.504 152.067 120.568C151.977 120.625 151.87 120.611 151.798 120.54C134.577 104.198 115.823 85.2685 96.6192 64.0667C96.5232 63.9567 96.5382 63.7949 96.6354 63.707C96.735 63.6086 96.8968 63.6236 96.9952 63.7232C112.866 80.5275 129.277 99.3942 145.307 119.837C145.4 119.957 145.383 120.129 145.262 120.223C145.155 120.308 145.003 120.296 144.902 120.207C130.589 106.512 115.681 92.2411 100.465 77.6792C95.1438 72.5846 89.8592 67.5204 84.6255 62.523L85.0239 62.1295C103.515 81.5822 121.422 100.416 138.458 118.336L138.056 118.695C122.317 99.8723 104.267 84.75 85.8485 73.2553L86.156 72.8741C110.395 97.8713 131.852 120.007 149.719 138.436C149.791 138.507 149.785 138.627 149.714 138.699C149.645 138.76 149.543 138.77 149.469 138.709C127.76 121.912 111.431 107.305 100.458 97.0625C89.5007 86.8014 83.8252 80.9429 83.8252 80.9429C83.8252 80.9429 84.1968 81.2922 84.9192 81.9862C85.6391 82.6906 86.7017 83.7268 88.1093 85.0842C90.9246 87.799 95.0918 91.8255 100.601 96.919C111.619 107.106 127.968 121.674 149.7 138.421L149.451 138.694C131.566 120.294 110.081 98.185 85.8034 73.2119C85.705 73.1123 85.7072 72.9586 85.8044 72.8707C85.8887 72.7909 86.011 72.7858 86.1085 72.8412C104.581 84.3373 122.69 99.495 138.466 118.348C138.562 118.459 138.544 118.631 138.434 118.727C138.324 118.823 138.162 118.808 138.064 118.708C121.026 100.799 103.119 81.9652 84.615 62.5206C84.5086 62.4081 84.5155 62.2335 84.628 62.127C84.7404 62.0206 84.9046 62.0251 85.0134 62.1271C90.2448 67.135 95.5318 72.1887 100.853 77.2834C116.077 91.8581 130.975 106.127 145.288 119.821L144.884 120.191C128.873 99.7644 112.482 80.9025 96.6353 64.0925L97.0137 63.7385C116.194 84.9459 134.923 103.891 152.107 120.247L151.769 120.522C129.813 86.2227 112.881 57.5003 101.36 37.4287C95.6054 27.3888 91.1968 19.5072 88.2189 14.1337C86.7404 11.4494 85.6132 9.39618 84.8509 8.0102C84.0991 6.62662 83.7252 5.90223 83.7252 5.90223L83.7195 5.87891Z" fill="#C4C10F"/>
<path d="M229.66 -26.6707C230.382 -25.4923 272.809 43.9676 345.235 162.542C345.291 162.632 345.257 162.734 345.177 162.793C345.1 162.842 345.006 162.82 344.953 162.764C309.012 124.405 266.777 79.3308 219.954 29.3735L220.299 29.067C239.112 51.0163 257.854 75.1965 275.839 101.483C293.814 127.768 311.029 156.169 326.838 186.43C326.909 186.556 326.86 186.721 326.726 186.779C326.615 186.83 326.487 186.812 326.417 186.73C282.007 138.933 234.087 87.3699 184.321 33.8095C184.215 33.697 184.222 33.5224 184.334 33.4159C184.434 33.3176 184.587 33.3197 184.691 33.3984C215.27 56.3438 244.175 85.0632 268.253 118.174C277.108 130.212 285.121 142.751 292.441 155.573C299.752 168.392 306.328 181.528 312.149 194.887C312.204 195.032 312.145 195.194 312.01 195.252C311.889 195.301 311.745 195.257 311.667 195.162C261.927 126.089 216.772 58.0093 174.368 -5.62986L174.805 -5.90429C188.713 17.9847 203.39 40.6289 217.867 62.5114C232.347 84.3834 246.65 105.488 260.049 126.21C273.461 146.923 285.971 167.243 297.102 187.336C308.235 207.418 317.97 227.257 326.089 246.748C326.13 246.857 326.083 246.967 325.982 247.021C325.897 247.057 325.795 247.023 325.733 246.953C271.312 173.306 221.768 117.957 186.567 80.7482C168.949 62.1452 154.865 48.0737 145.301 38.5608C135.694 29.1373 130.891 24.4256 130.604 24.1396C130.747 24.2826 131.902 25.395 134.377 27.7677C136.864 30.187 140.548 33.7725 145.388 38.4705C154.993 47.9488 169.092 62.0017 186.738 80.578C221.983 117.742 271.588 173.061 326.067 246.699L325.711 246.904C317.588 227.434 307.859 207.618 296.713 187.544C285.588 167.475 273.064 147.163 259.65 126.46C246.246 105.759 231.944 84.6546 217.454 62.7802C202.974 40.9081 188.286 18.2615 174.36 -5.64272C174.29 -5.76893 174.325 -5.92593 174.452 -5.99618C174.567 -6.06882 174.724 -6.0329 174.797 -5.91715C217.214 57.7139 262.371 125.783 312.104 194.844L311.622 195.119C305.807 181.783 299.249 168.662 291.937 155.854C284.622 143.056 276.617 130.529 267.781 118.507C243.737 85.4366 214.877 56.7606 184.335 33.8457L184.704 33.4346C234.459 86.9926 282.365 138.574 326.775 186.371L326.354 186.671C310.56 156.437 293.366 128.04 275.41 101.771C257.456 75.4909 238.732 51.326 219.93 29.3791C219.843 29.2819 219.855 29.1306 219.95 29.0532C220.045 28.9757 220.186 28.9859 220.265 29.0703C267.058 79.0647 309.268 124.155 345.193 162.533L344.901 162.752C272.693 44.0402 230.382 -25.4923 229.66 -26.6707Z" fill="#C4C10F"/>
</g>
<path d="M78.6076 438.538C72.1521 428.723 70.2844 417.92 72.9857 406.114C75.687 394.309 82.0666 385.393 92.1478 379.362C102.219 373.328 113.655 371.771 126.476 374.704C139.298 377.638 148.333 383.88 154.61 393.654C160.888 403.428 162.68 414.225 159.981 426.02C157.282 437.816 150.973 446.758 141.07 452.83C131.167 458.902 119.971 460.515 107.495 457.66C95.0194 454.805 85.0502 448.361 78.6076 438.538Z" fill="#D7D436"/>
<path d="M67.2265 435.085C60.771 425.27 58.9032 414.467 61.6046 402.661C64.3059 390.855 70.6855 381.94 80.7667 375.909C90.8375 369.875 102.274 368.318 115.095 371.251C127.916 374.185 136.952 380.427 143.229 390.201C149.507 399.975 151.299 410.771 148.6 422.567C145.901 434.362 139.592 443.305 129.689 449.377C119.786 455.449 108.59 457.061 96.114 454.207C83.6383 451.352 73.6691 444.908 67.2265 435.085Z" fill="#10EF88"/>
<mask id="mask1_1428_331" style="mask-type:luminance" maskUnits="userSpaceOnUse" x="60" y="369" width="90" height="87">
<path d="M67.2265 435.085C60.771 425.27 58.9032 414.467 61.6046 402.661C64.3059 390.855 70.6855 381.94 80.7667 375.909C90.8375 369.875 102.274 368.318 115.095 371.251C127.916 374.185 136.952 380.427 143.229 390.201C149.507 399.975 151.299 410.771 148.6 422.567C145.901 434.362 139.592 443.305 129.689 449.377C119.786 455.449 108.59 457.061 96.114 454.207C83.6383 451.352 73.6691 444.908 67.2265 435.085Z" fill="white"/>
</mask>
<g mask="url(#mask1_1428_331)">
<path d="M67.2267 435.086C60.7713 425.271 58.9035 414.468 61.6048 402.662C64.3062 390.856 70.6858 381.941 80.767 375.91C90.8377 369.876 102.274 368.319 115.096 371.252C127.917 374.186 136.952 380.428 143.229 390.202C149.507 399.976 151.299 410.772 148.6 422.568C145.901 434.363 139.593 443.306 129.689 449.378C119.786 455.45 108.59 457.062 96.1143 454.208C83.6385 451.353 73.6693 444.909 67.2267 435.086Z" fill="#FFFD98"/>
<path d="M50.9677 477.261C50.9677 477.261 51.1735 477.132 51.5883 476.907C52.016 476.675 52.6318 476.342 53.4358 475.909C55.0798 475.03 57.4974 473.754 60.6207 472.09C66.8941 468.789 76.0763 464.04 87.6581 458.286C110.816 446.755 143.704 431.305 182.35 415.53L182.485 416.046C168.285 417.984 153.306 420.868 138.143 424.8C108.67 432.353 81.6816 442.479 58.4701 451.982C58.3382 452.029 58.1965 451.974 58.1391 451.84C58.0897 451.718 58.1418 451.587 58.2552 451.525C85.9612 436.387 110.044 425.145 127.134 417.655C135.68 413.905 142.471 411.087 147.134 409.191C149.462 408.259 151.245 407.543 152.469 407.052C153.064 406.814 153.521 406.643 153.847 406.519C154.16 406.404 154.315 406.351 154.315 406.351C154.315 406.351 154.165 406.427 153.861 406.556C153.543 406.692 153.094 406.876 152.507 407.127C151.291 407.631 149.514 408.37 147.21 409.34C142.579 411.288 135.799 414.153 127.28 417.931C110.228 425.495 86.1857 436.802 58.5272 451.973L58.3099 451.526C81.5286 441.992 108.524 431.835 138.034 424.269C153.218 420.341 168.217 417.462 182.44 415.518C182.589 415.497 182.729 415.606 182.75 415.754C182.765 415.879 182.695 415.995 182.584 416.047C143.946 431.789 111.04 447.17 87.8494 458.605C76.2434 464.32 67.0522 469.013 60.7466 472.262C57.6095 473.89 55.1758 475.14 53.5237 476.006C52.7116 476.426 52.0877 476.746 51.652 476.966C51.2291 477.177 51.0071 477.281 51.0071 477.281L50.9677 477.261Z" fill="#C4C10F"/>
<path d="M43.0081 440.999C42.9531 440.855 68.5403 430.452 100.145 417.77C131.763 405.08 157.44 394.908 157.495 395.053C157.55 395.197 131.976 405.592 100.346 418.29C68.7279 430.98 43.0527 441.142 42.9953 441.007L43.0081 440.999Z" fill="#C4C10F"/>
<path d="M37.4995 425.266C37.4995 425.266 47.2485 421.505 64.851 415.962C82.4568 410.452 107.992 403.309 139.507 397.468C139.635 397.442 139.759 397.526 139.774 397.65C139.8 397.777 139.719 397.891 139.592 397.917C113.926 403.081 84.5441 412.449 55.3316 427.672L55.1287 427.163C68.5502 423.141 82.5024 418.965 96.7628 414.694C114.192 409.475 131.171 404.394 147.394 399.537C147.536 399.492 147.694 399.573 147.736 399.725C147.781 399.868 147.703 400.015 147.571 400.062C109.519 413.868 75.2885 426.28 47.6752 436.296C47.5666 436.337 47.4482 436.277 47.4069 436.168C47.3738 436.073 47.4234 435.952 47.5111 435.906C69.8299 425.395 88.8755 419.08 102.131 415.207C115.42 411.375 122.928 409.854 122.928 409.854C122.928 409.854 122.469 409.981 121.557 410.213C120.634 410.442 119.292 410.774 117.54 411.21C114.018 412.111 108.818 413.466 102.192 415.419C88.9565 419.352 69.9536 425.72 47.6823 436.264L47.5263 435.887C75.126 425.835 109.345 413.377 147.373 399.532L147.542 400.044C131.33 404.904 114.351 409.985 96.9191 415.215C82.6587 419.486 68.696 423.659 55.2745 427.681C55.1322 427.726 54.9743 427.646 54.9322 427.493C54.8957 427.363 54.9582 427.234 55.0716 427.172C84.3411 411.94 113.775 402.583 139.489 397.453L139.571 397.912C108.07 403.69 82.5258 410.776 64.9159 416.208C56.0992 418.927 49.2615 421.228 44.6025 422.816C42.2823 423.618 40.513 424.227 39.305 424.644C38.1099 425.054 37.481 425.251 37.481 425.251L37.4995 425.266Z" fill="#C4C10F"/>
<path d="M171.1 393.121C171.1 393.121 170.998 393.13 170.8 393.129C170.571 393.121 170.285 393.121 169.922 393.115C169.114 393.085 167.989 393.047 166.568 392.998C163.618 392.895 159.413 392.737 154.245 392.557C143.836 392.224 129.452 391.929 113.561 392.016C97.6675 392.113 83.2842 392.588 72.8804 393.05C67.7128 393.299 63.5155 393.495 60.5648 393.635C59.1389 393.705 58.0252 393.759 57.2133 393.793C56.8592 393.8 56.5703 393.811 56.3361 393.824C56.1382 393.823 56.0392 393.822 56.0416 393.812C56.044 393.801 56.1349 393.789 56.3377 393.769C56.5638 393.744 56.855 393.722 57.2058 393.681C58.0121 393.624 59.1353 393.528 60.5475 393.422C63.4498 393.205 67.6638 392.935 72.8596 392.659C83.264 392.099 97.6512 391.558 113.555 391.463C129.459 391.369 143.849 391.731 154.258 392.164C159.461 392.385 163.674 392.6 166.585 392.781C168.006 392.875 169.125 392.944 169.936 393.008C170.293 393.035 170.575 393.056 170.802 393.074C170.995 393.097 171.102 393.11 171.1 393.121Z" fill="#C4C10F"/>
</g>
</svg>
