<svg width="225" height="266" viewBox="0 0 225 266" fill="none" xmlns="http://www.w3.org/2000/svg">
<path d="M87.5733 189.449C78.7611 179.075 72.5224 161.768 74.9972 146.08C79.1616 119.603 105.299 102.343 96.0855 76.0134C93.7653 69.3817 89.3127 64.7314 83.9498 62.3967C69.8346 56.259 52.3309 66.1046 40.6199 76.0845C33.1388 82.4646 26.7256 90.3997 21.3786 99.8979L5.1045 53.3964C18.1859 37.7202 36.0908 26.6003 55.1309 19.9385C94.1503 6.28607 128.864 13.1022 142.522 52.1315C154.979 87.7274 134.668 110.317 122.988 132.84C116.506 145.344 116.491 153.657 119.576 162.469C121.171 167.025 124.434 172.309 128.203 175.229L87.5687 189.447L87.5733 189.449ZM133.33 246.827C95.4052 260.098 77.1764 209.251 115.489 195.847C153.227 182.641 171.111 233.609 133.33 246.827Z" fill="#0D4493"/>
<path d="M145.058 138.477C144.801 138.182 144.4 138.063 144.023 138.163C142.18 138.658 138.845 137.919 137.196 137.342L135.396 128.445C136.694 127.273 139.478 125.292 141.371 125.035C141.76 124.984 142.08 124.715 142.205 124.345L144.481 117.58C144.607 117.21 144.506 116.803 144.23 116.527C142.876 115.179 141.854 111.919 141.528 110.201L148.337 104.194C149.998 104.734 153.108 106.157 154.274 107.668C154.513 107.975 154.908 108.125 155.29 108.044L162.281 106.633C162.663 106.558 162.97 106.27 163.064 105.893C163.553 104.05 165.867 101.53 167.19 100.389L175.792 103.279C176.162 104.991 176.481 108.395 175.754 110.157C175.604 110.514 175.679 110.928 175.936 111.223L180.657 116.571C180.914 116.865 181.315 116.984 181.691 116.884C183.535 116.389 186.87 117.129 188.519 117.705L190.312 126.602C189.014 127.774 186.231 129.756 184.337 130.013C183.955 130.063 183.629 130.332 183.503 130.702L181.227 137.467C181.102 137.837 181.202 138.245 181.478 138.521C182.832 139.869 183.854 143.129 184.18 144.847L177.372 150.853C175.71 150.314 172.6 148.891 171.434 147.38C171.196 147.072 170.801 146.922 170.425 147.003L163.434 148.414C163.052 148.489 162.751 148.778 162.651 149.154C162.162 150.997 159.848 153.517 158.525 154.659L149.923 151.768C149.553 150.057 149.234 146.659 149.961 144.89C150.111 144.533 150.036 144.119 149.779 143.825L145.058 138.477ZM164.625 136.289C169.466 135.31 172.594 130.596 171.616 125.756C170.638 120.915 165.923 117.787 161.083 118.765C156.243 119.743 153.114 124.458 154.093 129.298C155.071 134.138 159.785 137.267 164.625 136.289ZM165.76 141.912C173.704 140.307 178.839 132.571 177.234 124.627C175.629 116.683 167.892 111.549 159.948 113.147C152.005 114.752 146.87 122.489 148.469 130.433C150.074 138.376 157.81 143.511 165.754 141.912H165.76Z" fill="#0D4493"/>
<path d="M202.839 170.326C202.92 170.025 203.159 169.799 203.46 169.736L208.996 168.62C209.297 168.558 209.61 168.677 209.798 168.921C210.72 170.119 213.184 171.247 214.5 171.667L219.892 166.915C219.635 165.554 218.82 162.971 217.754 161.905C217.535 161.686 217.46 161.366 217.56 161.072L219.359 155.717C219.46 155.423 219.71 155.216 220.018 155.172C221.516 154.971 223.723 153.404 224.751 152.476L223.328 145.429C222.024 144.971 219.378 144.382 217.917 144.777C217.623 144.858 217.303 144.764 217.096 144.532L213.359 140.294C213.159 140.062 213.102 139.736 213.215 139.448C213.792 138.05 213.535 135.354 213.246 133.999L206.438 131.711C205.391 132.614 203.56 134.608 203.171 136.068C203.09 136.369 202.851 136.595 202.55 136.658L197.014 137.774C196.713 137.836 196.4 137.717 196.212 137.473C195.29 136.275 192.826 135.147 191.51 134.727L186.118 139.479C186.375 140.84 187.184 143.423 188.256 144.488C188.475 144.708 188.55 145.028 188.45 145.322L186.651 150.677C186.55 150.971 186.293 151.178 185.992 151.222C184.494 151.423 182.287 152.99 181.259 153.918L182.682 160.965C183.986 161.423 186.632 162.012 188.093 161.617C188.387 161.536 188.707 161.63 188.914 161.862L192.651 166.1C192.858 166.332 192.908 166.658 192.795 166.946C192.224 168.344 192.475 171.04 192.764 172.395L199.572 174.683C200.619 173.78 202.45 171.786 202.839 170.326ZM204.745 161.83C199.98 162.789 195.334 159.711 194.369 154.94C193.403 150.175 196.488 145.529 201.259 144.564C206.024 143.598 210.67 146.683 211.629 151.454C212.594 156.219 209.51 160.865 204.739 161.83H204.745Z" fill="#0D4493"/>
</svg>
