<svg width="595" height="358" viewBox="0 0 595 358" fill="none" xmlns="http://www.w3.org/2000/svg">
<g clip-path="url(#clip0_1_9037)">
<path d="M590.925 0H4.07534C1.82459 0 0 1.82459 0 4.07534V353.196C0 355.447 1.82459 357.272 4.07534 357.272H590.925C593.175 357.272 595 355.447 595 353.196V4.07534C595 1.82459 593.175 0 590.925 0Z" fill="#E6FBFB"/>
<path d="M91.6953 271.35L114.11 253.011L117.916 249.205C121.846 245.275 126.906 242.671 132.388 241.758C134.883 241.341 137.243 240.337 139.274 238.828L145.001 234.569C147.943 232.382 150.609 229.847 152.942 227.019L154.706 224.88C158.617 220.141 163.476 216.272 168.973 213.524C175.537 210.241 181.177 205.37 185.378 199.352L186.8 197.315C189.942 192.813 193.755 188.819 198.107 185.472L204.786 180.334L209.732 176.575C217.625 170.576 223.861 162.667 227.854 153.594L230.673 147.188C232.203 143.71 233.39 140.09 234.217 136.381L235.796 129.307C240.169 109.704 254.306 93.7228 273.228 86.991L278.142 85.2427V186.107L270.754 192.401C269.574 193.406 268.554 194.588 267.732 195.903L266.554 197.788C264.806 200.586 263.879 203.818 263.879 207.117C263.879 210.166 262.555 213.065 260.251 215.062L254.82 219.768C250.768 223.281 245.738 225.467 240.405 226.034L229.151 227.232C220.972 228.102 213.158 231.077 206.473 235.869C199.802 240.65 192.008 243.623 183.848 244.501L171.012 245.881C166.886 246.325 162.951 247.854 159.607 250.312C155.356 253.438 150.519 255.676 145.386 256.895L133.128 259.803L91.6953 271.35Z" fill="url(#paint0_linear_1_9037)" fill-opacity="0.8"/>
<path d="M373.587 313.665C403.183 313.665 432.779 313.665 462.375 313.665C464.366 314.692 465.91 317.644 466.756 318.673C434.24 318.673 401.723 318.673 369.206 318.673C369.459 318.251 370.995 314.09 373.587 313.665Z" fill="#88878F"/>
<path d="M372.078 311.992C371.942 313.107 371.275 314.341 375.879 314.341C380.484 314.341 460.104 314.358 460.104 314.358C460.104 314.358 465.238 314.732 463.712 311.919" fill="#C6C6C6"/>
<path d="M463.789 311.947C463.207 311.156 453.44 304.624 452.007 303.23C449.386 300.683 447.708 271.818 447.708 271.818H417.975H388.242C388.242 271.818 386.564 300.683 383.943 303.23C382.51 304.624 372.743 311.156 372.161 311.947C371.981 312.335 373.119 313.665 376.542 313.665C380.124 313.665 417.983 313.665 417.983 313.665C417.983 313.665 456.388 313.665 459.97 313.665C463.393 313.665 463.969 312.335 463.789 311.947Z" fill="#D8D8D8"/>
<path d="M569.053 267.041C569.053 271.244 565.626 274.683 561.437 274.683H274.526C270.338 274.683 266.91 271.244 266.91 267.041V254.597C266.91 250.394 266.91 249.07 266.91 246.955H569.053C569.053 249.249 569.053 250.394 569.053 254.597V267.041Z" fill="#E4E4E4"/>
<path d="M267.033 246.843V72.7345C267.033 68.6449 270.708 65.3174 275.225 65.3174H560.736C565.253 65.3174 568.928 68.6449 568.928 72.7345V246.842L267.033 246.843Z" fill="#565656"/>
<path d="M569.052 246.956H266.908V72.7354C266.908 68.5833 270.639 65.2056 275.225 65.2056H560.736C565.321 65.2056 569.052 68.5833 569.052 72.7354V246.956ZM267.157 246.731H568.803V72.7354C568.803 68.7076 565.185 65.431 560.736 65.431H275.225C270.776 65.431 267.157 68.7076 267.157 72.7354V246.731Z" fill="#565656"/>
<path d="M560.736 66.2197H275.225C271.268 66.2197 268.028 69.1518 268.028 72.7354V245.942H567.933V72.7354C567.933 69.1518 564.694 66.2197 560.736 66.2197Z" fill="#565656"/>
<path d="M557.918 76.6372H278.046V234.688H557.918V76.6372Z" fill="white"/>
<path d="M417.984 72.962C418.653 72.962 419.195 72.4709 419.195 71.865C419.195 71.2591 418.653 70.7681 417.984 70.7681C417.314 70.7681 416.772 71.2591 416.772 71.865C416.772 72.4709 417.314 72.962 417.984 72.962Z" fill="#514F50"/>
<path d="M416.772 71.7529C416.772 71.8555 416.795 71.9526 416.827 72.045C417.005 72.2719 417.3 72.4213 417.636 72.4213C418.179 72.4213 418.62 72.0307 418.62 71.5492C418.62 71.2197 418.411 70.9358 418.106 70.7878C418.034 70.7749 417.96 70.7681 417.884 70.7681C417.27 70.7681 416.772 71.2096 416.772 71.7529Z" fill="#100C06"/>
<path d="M569.053 246.813H266.91V247.1H569.053V246.813Z" fill="#878787"/>
<path d="M539.072 91.5034H469.029C467.383 91.5034 466.048 92.8381 466.048 94.4839V164.527C466.048 166.173 467.383 167.508 469.029 167.508H539.072C540.718 167.508 542.053 166.173 542.053 164.527V94.4839C542.053 92.8381 540.718 91.5034 539.072 91.5034Z" fill="#DAE5E1"/>
<path d="M497.273 159.682H474.356V99.0728H497.273V159.682ZM474.907 159.132H496.723V99.6236H474.907V159.132Z" fill="#60917F"/>
<path d="M484.06 102.765H477.848V108.978H484.06V102.765Z" fill="#60917F"/>
<path d="M493.793 102.765H487.581V108.978H493.793V102.765Z" fill="#60917F"/>
<path d="M495.297 153.354H476.328V157.437H495.297V153.354Z" fill="#60917F"/>
<path d="M510.962 120.945H507.09V130.002H510.962V120.945Z" fill="#4891FF"/>
<path d="M518.299 113.757H514.427V130.005H518.299V113.757Z" fill="#60917F"/>
<path d="M525.639 111.914H521.768V130.001H525.639V111.914Z" fill="#4891FF"/>
<path d="M532.978 118.315H529.105V130.001H532.978V118.315Z" fill="#60917F"/>
<path d="M533.464 134.954H506.594V136.196H533.464V134.954Z" fill="#60917F"/>
<path d="M533.464 138.527H506.594V139.77H533.464V138.527Z" fill="#60917F"/>
<path d="M460.424 91.5034H353.359C352.411 91.5034 351.644 92.2713 351.644 93.2186V223.284C351.644 224.231 352.411 224.999 353.359 224.999H460.424C461.372 224.999 462.14 224.231 462.14 223.284V93.2186C462.14 92.2713 461.372 91.5034 460.424 91.5034Z" fill="#F3F4FF"/>
<path d="M358.141 105.002H455.137V137.501H358.141V105.002Z" fill="#D5E3FF"/>
<path d="M365.657 174.98H358.136V217.498H365.657V174.98Z" fill="#DAE5E1"/>
<path d="M365.657 174.98H358.136V200.916H365.657V174.98Z" fill="#60917F"/>
<path d="M375.056 163.5H367.535V217.498H375.056V163.5Z" fill="#DAE5E1"/>
<path d="M384.46 163.5H377.409V217.498H384.46V163.5Z" fill="#DAE5E1"/>
<path d="M394.332 177.106H386.811V217.499H394.332V177.106Z" fill="#DAE5E1"/>
<path d="M403.73 209.42H396.209V217.498H403.73V209.42Z" fill="#DAE5E1"/>
<path d="M413.132 203.041H406.081V217.497H413.132V203.041Z" fill="#DAE5E1"/>
<path d="M375.056 163.5H367.535V185.185H375.056V163.5Z" fill="#60917F"/>
<path d="M384.46 163.5H377.409V195.389H384.46V163.5Z" fill="#60917F"/>
<path d="M394.332 177.106H386.811V187.736H394.332V177.106Z" fill="#60917F"/>
<path d="M413.132 203.041H406.081V213.671H413.132V203.041Z" fill="#60917F"/>
<path d="M403.73 209.42H396.209V212.821H403.73V209.42Z" fill="#60917F"/>
<path d="M450.516 163.411H415.785V217.612H450.516V163.411Z" fill="#D5E3FF"/>
<path d="M436.307 200.247H431.016V201.549H436.307V200.247Z" fill="#A5CAFF"/>
<path d="M435.471 200.99H431.757V206.189H435.471V200.99Z" fill="#A5CAFF"/>
<path d="M432.926 204.564C433.451 203.92 434.435 203.92 434.959 204.564L442.457 213.779C443.153 214.635 442.544 215.916 441.44 215.916H426.445C425.341 215.916 424.732 214.635 425.428 213.779L432.926 204.564Z" fill="#A5CAFF"/>
<path d="M434.005 206.892H435.916C436.025 206.892 436.13 206.934 436.208 207.009L441.899 213.516C442.64 214.364 442.038 215.69 440.912 215.69H426.982C425.855 215.69 425.254 214.362 425.997 213.515L431.815 206.887C431.825 206.875 431.812 206.857 431.798 206.864C431.784 206.871 431.789 206.892 431.804 206.892H434.005Z" fill="#4891FF"/>
<path d="M437.807 213.349C437.814 213.292 437.817 213.234 437.817 213.172C437.817 213.111 437.814 213.051 437.805 212.995L438.166 212.696C438.198 212.67 438.207 212.619 438.187 212.582L437.846 211.955C437.825 211.914 437.78 211.901 437.741 211.914L437.316 212.095C437.227 212.023 437.133 211.963 437.028 211.918L436.964 211.439C436.957 211.394 436.921 211.362 436.879 211.362H436.195C436.152 211.362 436.119 211.394 436.112 211.439L436.048 211.918C435.943 211.963 435.847 212.025 435.76 212.095L435.335 211.914C435.295 211.899 435.251 211.914 435.229 211.955L434.89 212.582C434.869 212.621 434.876 212.67 434.912 212.696L435.272 212.995C435.263 213.051 435.257 213.114 435.257 213.172C435.257 213.23 435.26 213.292 435.269 213.349L434.908 213.647C434.876 213.673 434.867 213.724 434.886 213.762L435.228 214.388C435.249 214.429 435.294 214.443 435.333 214.429L435.758 214.249C435.847 214.32 435.941 214.38 436.046 214.426L436.11 214.905C436.119 214.949 436.152 214.982 436.195 214.982H436.879C436.921 214.982 436.957 214.949 436.962 214.905L437.026 214.426C437.131 214.38 437.227 214.32 437.314 214.249L437.739 214.429C437.779 214.444 437.823 214.429 437.844 214.388L438.185 213.762C438.207 213.72 438.198 213.673 438.164 213.647L437.807 213.349ZM436.537 213.85C436.185 213.85 435.896 213.545 435.896 213.172C435.896 212.798 436.185 212.493 436.537 212.493C436.889 212.493 437.177 212.798 437.177 213.172C437.177 213.545 436.889 213.85 436.537 213.85Z" fill="#F4F4F4"/>
<path d="M432.898 210.329C432.901 210.302 432.903 210.275 432.903 210.246C432.903 210.218 432.901 210.189 432.896 210.163L433.081 210.024C433.097 210.011 433.102 209.988 433.091 209.97L432.918 209.678C432.907 209.658 432.884 209.652 432.864 209.658L432.648 209.743C432.602 209.709 432.554 209.681 432.501 209.66L432.469 209.436C432.465 209.415 432.447 209.4 432.425 209.4H432.077C432.056 209.4 432.038 209.415 432.035 209.436L432.002 209.66C431.948 209.681 431.899 209.711 431.855 209.743L431.639 209.658C431.619 209.651 431.596 209.658 431.586 209.678L431.412 209.97C431.402 209.988 431.405 210.011 431.423 210.024L431.607 210.163C431.603 210.189 431.599 210.219 431.599 210.246C431.599 210.273 431.601 210.302 431.605 210.329L431.421 210.468C431.405 210.48 431.401 210.504 431.41 210.522L431.584 210.814C431.595 210.833 431.618 210.839 431.638 210.833L431.855 210.749C431.899 210.782 431.948 210.81 432.001 210.832L432.034 211.055C432.038 211.076 432.056 211.091 432.077 211.091H432.425C432.447 211.091 432.464 211.076 432.467 211.055L432.5 210.832C432.553 210.81 432.602 210.782 432.647 210.749L432.863 210.833C432.883 210.841 432.906 210.833 432.917 210.814L433.091 210.522C433.102 210.503 433.097 210.48 433.08 210.468L432.898 210.329ZM432.251 210.563C432.072 210.563 431.925 210.42 431.925 210.246C431.925 210.071 432.072 209.929 432.251 209.929C432.431 209.929 432.577 210.071 432.577 210.246C432.577 210.42 432.431 210.563 432.251 210.563Z" fill="#F4F4F4"/>
<path d="M358.136 98.0029H455.133V105.003H358.136V98.0029Z" fill="#4891FF"/>
<path d="M364.137 101.503H383.637" stroke="white" stroke-width="0.585655" stroke-linecap="round"/>
<path d="M402.637 101.503H414.137" stroke="white" stroke-width="0.585655" stroke-linecap="round"/>
<path d="M364.137 109.162H387.136" stroke="white" stroke-width="0.585655" stroke-linecap="round"/>
<path d="M402.637 109.162H448.635" stroke="white" stroke-width="0.585655" stroke-linecap="round"/>
<path d="M402.637 115.16H434.636" stroke="white" stroke-width="0.585655" stroke-linecap="round"/>
<path d="M402.637 121.16H429.636" stroke="white" stroke-width="0.585655" stroke-linecap="round"/>
<path d="M402.637 126.66H446.136" stroke="white" stroke-width="0.585655" stroke-linecap="round"/>
<path d="M402.637 132.66H439.635" stroke="white" stroke-width="0.585655" stroke-linecap="round"/>
<path d="M364.137 115.16H387.136" stroke="white" stroke-width="0.585655" stroke-linecap="round"/>
<path d="M364.137 121.16H387.136" stroke="white" stroke-width="0.585655" stroke-linecap="round"/>
<path d="M364.137 126.66H387.136" stroke="white" stroke-width="0.585655" stroke-linecap="round"/>
<path d="M364.137 132.66H387.136" stroke="white" stroke-width="0.585655" stroke-linecap="round"/>
<path d="M425.902 167.504H441.981" stroke="white" stroke-width="0.234262" stroke-linecap="round"/>
<path d="M425.902 172.239H445.138" stroke="white" stroke-width="0.234262" stroke-linecap="round"/>
<path d="M425.902 177.501H435.14" stroke="white" stroke-width="0.234262" stroke-linecap="round"/>
<path d="M425.902 182.239H441.981" stroke="white" stroke-width="0.234262" stroke-linecap="round"/>
<path d="M421.05 166.567H418.945V168.672H421.05V166.567Z" fill="white"/>
<path d="M421.05 171.83H418.945V173.935H421.05V171.83Z" fill="white"/>
<path d="M421.05 176.567H418.945V178.672H421.05V176.567Z" fill="white"/>
<path d="M421.05 181.829H418.945V183.934H421.05V181.829Z" fill="white"/>
<path d="M425.903 187.5H446.192" stroke="white" stroke-width="0.234262" stroke-linecap="round"/>
<path d="M425.871 192.53L433.65 192.534" stroke="white" stroke-width="0.234262" stroke-linecap="round"/>
<path d="M425.903 196.972H441.983" stroke="white" stroke-width="0.234262" stroke-linecap="round"/>
<path d="M421.05 186.565H418.945V188.67H421.05V186.565Z" fill="white"/>
<path d="M421.05 191.827H418.945V193.932H421.05V191.827Z" fill="white"/>
<path d="M421.05 196.562H418.945V198.667H421.05V196.562Z" fill="white"/>
<path d="M540.673 225.048H467.428C466.666 225.048 466.048 224.41 466.048 223.622V191.346C466.048 190.558 466.666 189.92 467.428 189.92H540.673C541.435 189.92 542.053 190.558 542.053 191.346V223.622C542.053 224.41 541.435 225.048 540.673 225.048Z" fill="#FFBC58"/>
<path d="M536.605 221.583H471.492C471.191 221.583 470.946 221.33 470.946 221.018V220.916C470.946 220.604 471.191 220.351 471.492 220.351H536.605C536.906 220.351 537.151 220.604 537.151 220.916V221.018C537.151 221.331 536.906 221.583 536.605 221.583Z" fill="white"/>
<path d="M474.183 213.971L473.498 213.578C474.875 211.013 479.767 207.014 482.172 206.956C484.331 206.912 485.833 208.335 487.3 209.72C488.749 211.088 490.117 212.381 492.063 212.389C492.068 212.389 492.073 212.389 492.078 212.389C494.441 212.389 496.164 209.995 497.989 207.459C499.973 204.702 502.025 201.851 505.157 201.786C507.749 201.752 509.667 203.633 511.513 205.47C513.222 207.171 514.824 208.772 516.836 208.693C519.332 208.588 520.836 205.944 522.428 203.145C524.031 200.327 525.689 197.412 528.525 197.312C530.402 197.235 532.41 198.436 534.497 200.852L533.914 201.39C531.988 199.162 530.177 198.065 528.553 198.119C526.145 198.205 524.667 200.803 523.102 203.556C521.474 206.418 519.79 209.377 516.868 209.501C514.528 209.608 512.721 207.796 510.969 206.052C509.238 204.329 507.456 202.52 505.172 202.595C502.423 202.651 500.487 205.341 498.616 207.941C496.757 210.526 494.833 213.198 492.078 213.198C492.071 213.198 492.065 213.198 492.059 213.198C489.812 213.188 488.266 211.728 486.771 210.317C485.381 209.004 484.067 207.763 482.283 207.763C482.253 207.763 482.221 207.763 482.189 207.765C480.099 207.815 475.425 211.656 474.183 213.971Z" fill="white"/>
<path d="M534.337 202.503C534.927 202.503 535.405 202.009 535.405 201.399C535.405 200.789 534.927 200.295 534.337 200.295C533.747 200.295 533.269 200.789 533.269 201.399C533.269 202.009 533.747 202.503 534.337 202.503Z" fill="#4891FF"/>
<path d="M473.837 214.879C474.427 214.879 474.905 214.385 474.905 213.775C474.905 213.165 474.427 212.67 473.837 212.67C473.247 212.67 472.769 213.165 472.769 213.775C472.769 214.385 473.247 214.879 473.837 214.879Z" fill="#4891FF"/>
<path d="M485.987 194.572H471.437C471.223 194.572 471.049 194.392 471.049 194.171C471.049 193.949 471.223 193.769 471.437 193.769H485.988C486.202 193.769 486.376 193.949 486.376 194.171C486.375 194.392 486.201 194.572 485.987 194.572Z" fill="white"/>
<path d="M485.987 197.817H471.437C471.223 197.817 471.049 197.637 471.049 197.415C471.049 197.194 471.223 197.015 471.437 197.015H485.988C486.202 197.015 486.376 197.194 486.376 197.415C486.375 197.637 486.201 197.817 485.987 197.817Z" fill="white"/>
<path d="M472.819 172.868C469.348 172.868 466.533 175.682 466.533 179.154C466.533 182.625 469.348 185.44 472.819 185.44C473.6 185.44 474.346 185.299 475.035 185.037C477.414 184.141 479.105 181.845 479.105 179.154C479.105 175.682 476.29 172.868 472.819 172.868ZM474.517 183.417C473.992 183.627 473.42 183.743 472.819 183.743C470.287 183.743 468.231 181.689 468.231 179.155C468.231 176.62 470.287 174.566 472.819 174.566C475.354 174.566 477.407 176.62 477.407 179.155C477.408 181.088 476.211 182.742 474.517 183.417Z" fill="#DAE5E1"/>
<path d="M475.035 185.036C474.346 185.299 473.6 185.44 472.819 185.44C469.348 185.44 466.533 182.625 466.533 179.154H468.231C468.231 181.689 470.287 183.742 472.819 183.742C473.42 183.742 473.992 183.627 474.517 183.416C474.66 183.866 474.847 184.45 475.035 185.036Z" fill="#FFF9EA"/>
<path d="M479.106 179.154C479.106 181.845 477.414 184.141 475.036 185.037C474.346 185.299 473.6 185.439 472.819 185.439V183.742C473.42 183.742 473.992 183.627 474.517 183.416C476.211 182.742 477.407 181.088 477.407 179.153C477.407 176.618 475.354 174.566 472.82 174.566V172.868C476.291 172.868 479.106 175.682 479.106 179.154Z" fill="#FFBC58"/>
<path d="M515.206 172.868C511.735 172.868 508.921 175.682 508.921 179.154C508.921 182.625 511.735 185.44 515.206 185.44C515.987 185.44 516.733 185.299 517.422 185.037C519.801 184.141 521.492 181.845 521.492 179.154C521.492 175.682 518.678 172.868 515.206 172.868ZM516.904 183.417C516.379 183.627 515.808 183.743 515.206 183.743C512.674 183.743 510.618 181.689 510.618 179.155C510.618 176.62 512.674 174.566 515.206 174.566C517.741 174.566 519.795 176.62 519.795 179.155C519.795 181.088 518.598 182.742 516.904 183.417Z" fill="#60917F"/>
<path d="M517.422 185.036C516.733 185.299 515.987 185.44 515.206 185.44C511.735 185.44 508.921 182.625 508.921 179.154H510.618C510.618 181.689 512.674 183.742 515.206 183.742C515.807 183.742 516.379 183.627 516.904 183.416C517.047 183.866 517.234 184.45 517.422 185.036Z" fill="#FFF9EA"/>
<path d="M521.493 179.154C521.493 181.845 519.802 184.141 517.423 185.037C516.733 185.299 515.987 185.439 515.207 185.439V183.742C515.807 183.742 516.38 183.627 516.905 183.416C518.598 182.742 519.796 181.088 519.796 179.153C519.796 176.618 517.742 174.566 515.208 174.566V172.868C518.679 172.868 521.493 175.682 521.493 179.154Z" fill="#FFBC58"/>
<path d="M493.771 172.868C490.3 172.868 487.485 175.682 487.485 179.153C487.485 182.625 490.3 185.439 493.771 185.439C494.551 185.439 495.298 185.299 495.987 185.036C498.366 184.14 500.057 181.844 500.057 179.153C500.057 175.682 497.242 172.868 493.771 172.868ZM495.469 183.416C494.944 183.627 494.371 183.742 493.771 183.742C491.238 183.742 489.183 181.688 489.183 179.154C489.183 176.619 491.238 174.566 493.771 174.566C496.306 174.566 498.358 176.62 498.358 179.154C498.359 181.088 497.162 182.742 495.469 183.416Z" fill="#60917F"/>
<path d="M495.987 185.037C495.297 185.299 494.551 185.44 493.771 185.44C490.3 185.44 487.485 182.625 487.485 179.154H489.183C489.183 181.689 491.239 183.742 493.771 183.742C494.371 183.742 494.944 183.627 495.469 183.416C495.612 183.866 495.798 184.45 495.987 185.037Z" fill="#FFFDFE"/>
<path d="M500.056 179.153C500.056 181.844 498.365 184.14 495.986 185.036C495.297 185.298 494.551 185.438 493.771 185.438V183.741C494.371 183.741 494.944 183.626 495.469 183.415C497.162 182.741 498.359 181.087 498.359 179.152C498.359 176.617 496.305 174.565 493.771 174.565V172.867C497.242 172.867 500.056 175.681 500.056 179.153Z" fill="#DAE5E1"/>
<path d="M535.671 172.868C532.199 172.868 529.385 175.682 529.385 179.154C529.385 182.625 532.199 185.44 535.671 185.44C536.451 185.44 537.198 185.299 537.887 185.037C540.265 184.141 541.957 181.845 541.957 179.154C541.957 175.682 539.142 172.868 535.671 172.868ZM537.368 183.417C536.843 183.627 536.271 183.743 535.67 183.743C533.138 183.743 531.083 181.689 531.083 179.155C531.083 176.62 533.138 174.566 535.67 174.566C538.205 174.566 540.258 176.62 540.258 179.155C540.259 181.088 539.062 182.742 537.368 183.417Z" fill="#60917F"/>
<path d="M537.887 185.037C537.197 185.299 536.451 185.44 535.671 185.44C532.199 185.44 529.385 182.625 529.385 179.154H531.083C531.083 181.689 533.138 183.742 535.671 183.742C536.271 183.742 536.844 183.627 537.369 183.416C537.512 183.866 537.698 184.45 537.887 185.037Z" fill="#FFBC58"/>
<path d="M541.957 179.154C541.957 181.845 540.266 184.141 537.887 185.037C537.197 185.299 536.451 185.439 535.671 185.439V183.742C536.271 183.742 536.844 183.627 537.369 183.416C539.062 182.742 540.26 181.088 540.26 179.153C540.26 176.618 538.206 174.566 535.672 174.566V172.868C539.142 172.868 541.957 175.682 541.957 179.154Z" fill="#FFF9EA"/>
<path d="M360.762 150.817C361.273 150.817 361.688 150.402 361.688 149.891C361.688 149.38 361.273 148.965 360.762 148.965C360.25 148.965 359.836 149.38 359.836 149.891C359.836 150.402 360.25 150.817 360.762 150.817Z" fill="#4891FF"/>
<path d="M373.941 143.051C374.453 143.051 374.867 142.636 374.867 142.125C374.867 141.613 374.453 141.199 373.941 141.199C373.43 141.199 373.016 141.613 373.016 142.125C373.016 142.636 373.43 143.051 373.941 143.051Z" fill="#4891FF"/>
<path d="M387.123 150.817C387.634 150.817 388.049 150.402 388.049 149.891C388.049 149.38 387.634 148.965 387.123 148.965C386.612 148.965 386.197 149.38 386.197 149.891C386.197 150.402 386.612 150.817 387.123 150.817Z" fill="#4891FF"/>
<path d="M398.837 145.825C399.348 145.825 399.763 145.411 399.763 144.899C399.763 144.388 399.348 143.973 398.837 143.973C398.326 143.973 397.911 144.388 397.911 144.899C397.911 145.411 398.326 145.825 398.837 145.825Z" fill="#4891FF"/>
<path d="M360.762 155.255C361.273 155.255 361.688 154.841 361.688 154.329C361.688 153.818 361.273 153.404 360.762 153.404C360.25 153.404 359.836 153.818 359.836 154.329C359.836 154.841 360.25 155.255 360.762 155.255Z" fill="#B5B5B5"/>
<path d="M373.872 156.854C374.383 156.854 374.798 156.439 374.798 155.928C374.798 155.417 374.383 155.002 373.872 155.002C373.361 155.002 372.946 155.417 372.946 155.928C372.946 156.439 373.361 156.854 373.872 156.854Z" fill="#B5B5B5"/>
<path d="M387.123 146.935C387.634 146.935 388.049 146.52 388.049 146.009C388.049 145.498 387.634 145.083 387.123 145.083C386.612 145.083 386.197 145.498 386.197 146.009C386.197 146.52 386.612 146.935 387.123 146.935Z" fill="#B5B5B5"/>
<path d="M398.837 158.029C399.348 158.029 399.763 157.614 399.763 157.103C399.763 156.592 399.348 156.177 398.837 156.177C398.326 156.177 397.911 156.592 397.911 157.103C397.911 157.614 398.326 158.029 398.837 158.029Z" fill="#B5B5B5"/>
<path d="M361.33 153.854L373.585 155.823" stroke="#B5B5B5" stroke-width="0.216891"/>
<path d="M399.285 157.343L387.569 146.248" stroke="#B5B5B5" stroke-width="0.216891"/>
<path d="M374.69 155.864L386.842 146.128" stroke="#B5B5B5" stroke-width="0.216891"/>
<path d="M361.224 149.445L373.672 142.233" stroke="#4891FF" stroke-width="0.216891"/>
<path d="M386.864 149.988L398.58 144.995" stroke="#4891FF" stroke-width="0.216891"/>
<path d="M374.56 142.233L387.008 149.444" stroke="#4891FF" stroke-width="0.216891"/>
<path d="M328.151 140.749H323.106C321.571 140.749 320.327 141.993 320.327 143.528V148.131C320.327 149.666 321.571 150.91 323.106 150.91H328.151C329.686 150.91 330.93 149.666 330.93 148.131V143.528C330.93 141.993 329.686 140.749 328.151 140.749Z" fill="#F3F4FF"/>
<path d="M325.084 147.42C325.615 147.42 326.067 147.234 326.439 146.863C326.811 146.49 326.997 146.039 326.997 145.508C326.997 144.976 326.811 144.525 326.439 144.153C326.067 143.782 325.615 143.596 325.084 143.596C324.553 143.596 324.101 143.782 323.73 144.153C323.358 144.525 323.172 144.976 323.172 145.508C323.172 146.039 323.358 146.49 323.73 146.863C324.101 147.234 324.553 147.42 325.084 147.42ZM324.765 146.464V144.233H325.403V146.464H324.765ZM323.65 146.464V144.871H324.287V146.464H323.65ZM325.881 146.464V145.189H326.519V146.464H325.881ZM328.462 149.332L326.654 147.524C326.436 147.694 326.195 147.825 325.929 147.918C325.663 148.011 325.381 148.057 325.084 148.057C324.372 148.057 323.77 147.811 323.275 147.316C322.781 146.823 322.534 146.219 322.534 145.508C322.534 144.796 322.781 144.193 323.275 143.7C323.77 143.205 324.372 142.958 325.084 142.958C325.796 142.958 326.399 143.205 326.893 143.7C327.387 144.193 327.634 144.796 327.634 145.508C327.634 145.805 327.588 146.087 327.495 146.353C327.402 146.618 327.27 146.86 327.1 147.077L328.909 148.886L328.462 149.332Z" fill="#4891FF"/>
<path d="M315.366 147.425H310.148C308.394 147.425 306.972 148.847 306.972 150.601V155.391C306.972 157.145 308.394 158.567 310.148 158.567H315.366C317.12 158.567 318.542 157.145 318.542 155.391V150.601C318.542 148.847 317.12 147.425 315.366 147.425Z" fill="#F3F7FF"/>
<path d="M310.901 155.543C310.347 155.543 309.873 155.352 309.48 154.971C309.087 154.589 308.891 154.122 308.891 153.571C308.891 153.099 309.033 152.678 309.32 152.308C309.607 151.939 309.981 151.702 310.445 151.599C310.597 151.041 310.901 150.59 311.358 150.245C311.815 149.9 312.334 149.727 312.912 149.727C313.626 149.727 314.231 149.974 314.727 150.467C315.224 150.961 315.472 151.562 315.472 152.271C315.893 152.32 316.242 152.5 316.519 152.812C316.796 153.125 316.935 153.489 316.935 153.908C316.935 154.362 316.775 154.749 316.455 155.066C316.135 155.384 315.747 155.543 315.29 155.543H313.278C313.077 155.543 312.905 155.473 312.762 155.33C312.618 155.187 312.547 155.016 312.547 154.816V152.944L311.962 153.508L311.45 152.999L312.912 151.545L314.375 152.999L313.863 153.508L313.278 152.944V154.816H315.29C315.545 154.816 315.762 154.729 315.938 154.553C316.115 154.377 316.203 154.162 316.203 153.908C316.203 153.653 316.115 153.438 315.938 153.262C315.762 153.086 315.545 152.999 315.29 152.999H314.741V152.271C314.741 151.769 314.563 151.34 314.206 150.986C313.85 150.631 313.418 150.454 312.912 150.454C312.407 150.454 311.976 150.631 311.619 150.986C311.262 151.34 311.085 151.769 311.085 152.271H310.901C310.548 152.271 310.246 152.396 309.996 152.644C309.746 152.893 309.621 153.192 309.621 153.544C309.621 153.895 309.746 154.195 309.996 154.444C310.246 154.692 310.548 154.816 310.901 154.816H311.815V155.543H310.901Z" fill="#4891FF"/>
<path d="M325.586 159.785H309.702V163.698H325.586V159.785Z" fill="#E8F0FF"/>
<path d="M323.283 163.698H311.542V196.388H323.283V163.698Z" fill="#E8F0FF"/>
<path d="M315.608 190.47C316.77 189.019 318.977 189.019 320.139 190.47L344.502 220.909C346.023 222.809 344.671 225.624 342.237 225.624H293.51C291.076 225.624 289.724 222.809 291.244 220.909L315.608 190.47Z" fill="#E8F0FF"/>
<path d="M318.054 198.407H323.697C324.022 198.407 324.333 198.534 324.566 198.761L342.889 220.144C344.502 222.026 343.165 224.934 340.686 224.934H295.076C292.594 224.934 291.257 222.021 292.876 220.14L311.584 198.392C311.615 198.355 311.574 198.303 311.531 198.323C311.49 198.344 311.504 198.407 311.551 198.407H318.054Z" fill="url(#paint1_linear_1_9037)"/>
<path d="M309.722 212.924H305.535C304.22 212.924 303.153 213.991 303.153 215.306V218.996C303.153 220.312 304.22 221.378 305.535 221.378H309.722C311.038 221.378 312.104 220.312 312.104 218.996V215.306C312.104 213.991 311.038 212.924 309.722 212.924Z" fill="#F3F4FF"/>
<path d="M325.139 204.968H320.952C319.637 204.968 318.57 206.034 318.57 207.35V211.039C318.57 212.355 319.637 213.422 320.952 213.422H325.139C326.455 213.422 327.521 212.355 327.521 211.039V207.35C327.521 206.034 326.455 204.968 325.139 204.968Z" fill="#F3F4FF"/>
<path d="M307.569 218.46C307.577 218.399 307.581 218.335 307.581 218.268C307.581 218.202 307.577 218.137 307.567 218.075L307.984 217.752C308.021 217.724 308.032 217.669 308.009 217.628L307.614 216.949C307.589 216.904 307.538 216.889 307.493 216.904L307.001 217.1C306.898 217.023 306.789 216.957 306.667 216.908L306.593 216.388C306.585 216.339 306.545 216.305 306.495 216.305H305.705C305.655 216.305 305.617 216.339 305.609 216.388L305.534 216.908C305.413 216.957 305.302 217.025 305.201 217.1L304.709 216.904C304.664 216.887 304.613 216.904 304.588 216.949L304.195 217.628C304.17 217.671 304.178 217.724 304.22 217.752L304.637 218.075C304.627 218.137 304.619 218.204 304.619 218.268C304.619 218.331 304.623 218.399 304.633 218.46L304.215 218.782C304.178 218.812 304.168 218.867 304.191 218.907L304.586 219.587C304.61 219.632 304.662 219.646 304.707 219.632L305.199 219.435C305.302 219.513 305.411 219.578 305.532 219.627L305.606 220.146C305.617 220.196 305.655 220.231 305.705 220.231H306.495C306.545 220.231 306.585 220.196 306.591 220.146L306.665 219.627C306.787 219.578 306.898 219.513 306.999 219.435L307.491 219.632C307.536 219.648 307.587 219.632 307.612 219.587L308.007 218.907C308.032 218.863 308.021 218.812 307.982 218.782L307.569 218.46ZM306.1 219.004C305.693 219.004 305.359 218.672 305.359 218.268C305.359 217.863 305.693 217.531 306.1 217.531C306.507 217.531 306.841 217.863 306.841 218.268C306.841 218.672 306.507 219.004 306.1 219.004Z" fill="#4891FF"/>
<path d="M310.148 216.387C310.167 216.347 310.184 216.306 310.198 216.261C310.212 216.217 310.224 216.173 310.231 216.129L310.577 216.004C310.608 215.993 310.627 215.958 310.62 215.926L310.507 215.388C310.5 215.352 310.47 215.331 310.436 215.331L310.068 215.356C310.017 215.282 309.96 215.215 309.89 215.156L309.954 214.793C309.959 214.759 309.939 214.727 309.907 214.716L309.384 214.546C309.352 214.535 309.318 214.55 309.302 214.581L309.14 214.912C309.049 214.918 308.961 214.939 308.878 214.968L308.595 214.731C308.569 214.71 308.531 214.71 308.505 214.736L308.098 215.104C308.072 215.127 308.066 215.164 308.087 215.193L308.293 215.498C308.272 215.537 308.253 215.58 308.238 215.623C308.225 215.665 308.213 215.71 308.206 215.754L307.86 215.879C307.829 215.89 307.81 215.925 307.817 215.957L307.93 216.495C307.937 216.531 307.967 216.552 308.001 216.552L308.369 216.527C308.42 216.601 308.477 216.668 308.547 216.727L308.483 217.09C308.48 217.124 308.498 217.156 308.53 217.166L309.053 217.337C309.085 217.348 309.12 217.334 309.135 217.302L309.297 216.972C309.388 216.965 309.475 216.945 309.559 216.914L309.841 217.152C309.868 217.173 309.906 217.173 309.932 217.148L310.341 216.78C310.367 216.755 310.371 216.719 310.351 216.691L310.148 216.387ZM309.058 216.433C308.789 216.345 308.64 216.052 308.729 215.782C308.816 215.512 309.109 215.362 309.379 215.45C309.648 215.538 309.797 215.831 309.708 216.101C309.62 216.372 309.328 216.521 309.058 216.433Z" fill="#4891FF"/>
<path d="M319.671 211.092L321.226 208.161L323.319 210.852L326.49 207.563" stroke="#4891FF" stroke-width="0.502662"/>
<path d="M321.226 208.577C321.456 208.577 321.642 208.391 321.642 208.161C321.642 207.932 321.456 207.746 321.226 207.746C320.997 207.746 320.811 207.932 320.811 208.161C320.811 208.391 320.997 208.577 321.226 208.577Z" fill="white" stroke="#4891FF" stroke-width="0.125665"/>
<path d="M319.672 211.209C319.901 211.209 320.087 211.023 320.087 210.794C320.087 210.564 319.901 210.378 319.672 210.378C319.442 210.378 319.256 210.564 319.256 210.794C319.256 211.023 319.442 211.209 319.672 211.209Z" fill="white" stroke="#4891FF" stroke-width="0.125665"/>
<path d="M323.38 211.209C323.609 211.209 323.795 211.023 323.795 210.794C323.795 210.564 323.609 210.378 323.38 210.378C323.15 210.378 322.964 210.564 322.964 210.794C322.964 211.023 323.15 211.209 323.38 211.209Z" fill="white" stroke="#4891FF" stroke-width="0.125665"/>
<path d="M325.594 207.264L326.67 207.444V208.461" stroke="#4891FF" stroke-width="0.502662"/>
<path d="M407.168 159.242C407.642 159.242 408.027 158.857 408.027 158.383C408.027 157.909 407.642 157.524 407.168 157.524C406.694 157.524 406.31 157.909 406.31 158.383C406.31 158.857 406.694 159.242 407.168 159.242Z" fill="#B5B5B5"/>
<path d="M417.472 151.226C417.946 151.226 418.33 150.842 418.33 150.368C418.33 149.894 417.946 149.509 417.472 149.509C416.998 149.509 416.613 149.894 416.613 150.368C416.613 150.842 416.998 151.226 417.472 151.226Z" fill="#B5B5B5"/>
<path d="M427.777 143.213C428.251 143.213 428.635 142.829 428.635 142.354C428.635 141.88 428.251 141.496 427.777 141.496C427.302 141.496 426.918 141.88 426.918 142.354C426.918 142.829 427.302 143.213 427.777 143.213Z" fill="#B5B5B5"/>
<path d="M440.805 154.199C441.279 154.199 441.664 153.814 441.664 153.34C441.664 152.866 441.279 152.482 440.805 152.482C440.331 152.482 439.946 152.866 439.946 153.34C439.946 153.814 440.331 154.199 440.805 154.199Z" fill="#B5B5B5"/>
<path d="M453.223 146.075C453.697 146.075 454.081 145.691 454.081 145.217C454.081 144.743 453.697 144.358 453.223 144.358C452.749 144.358 452.364 144.743 452.364 145.217C452.364 145.691 452.749 146.075 453.223 146.075Z" fill="#B5B5B5"/>
<path d="M407.168 144.358C407.642 144.358 408.027 143.973 408.027 143.499C408.027 143.025 407.642 142.641 407.168 142.641C406.694 142.641 406.31 143.025 406.31 143.499C406.31 143.973 406.694 144.358 407.168 144.358Z" fill="#73A7F4"/>
<path d="M417.472 155.807C417.946 155.807 418.33 155.422 418.33 154.948C418.33 154.474 417.946 154.09 417.472 154.09C416.998 154.09 416.613 154.474 416.613 154.948C416.613 155.422 416.998 155.807 417.472 155.807Z" fill="#73A7F4"/>
<path d="M427.777 152.371C428.251 152.371 428.635 151.987 428.635 151.513C428.635 151.038 428.251 150.654 427.777 150.654C427.302 150.654 426.918 151.038 426.918 151.513C426.918 151.987 427.302 152.371 427.777 152.371Z" fill="#73A7F4"/>
<path d="M440.805 147.034C441.279 147.034 441.664 146.65 441.664 146.176C441.664 145.702 441.279 145.317 440.805 145.317C440.331 145.317 439.946 145.702 439.946 146.176C439.946 146.65 440.331 147.034 440.805 147.034Z" fill="#73A7F4"/>
<path d="M453.223 158.668C453.697 158.668 454.081 158.284 454.081 157.81C454.081 157.336 453.697 156.951 453.223 156.951C452.749 156.951 452.364 157.336 452.364 157.81C452.364 158.284 452.749 158.668 453.223 158.668Z" fill="#73A7F4"/>
<path d="M399.396 145.325L406.265 143.608" stroke="#73A7F4" stroke-width="0.36508"/>
<path d="M417.71 154.486L428.013 151.624" stroke="#73A7F4" stroke-width="0.36508"/>
<path d="M417.622 155.356L407.319 143.908" stroke="#73A7F4" stroke-width="0.36508"/>
<path d="M452.766 157.363L440.902 146.272" stroke="#73A7F4" stroke-width="0.36508"/>
<path d="M427.431 151.682L440.424 146.272" stroke="#73A7F4" stroke-width="0.36508"/>
<path d="M417.646 149.936L427.378 142.495" stroke="#B5B5B5" stroke-width="0.36508"/>
<path d="M407.334 158.531L417.065 149.945" stroke="#B5B5B5" stroke-width="0.36508"/>
<path d="M398.888 157.077L406.901 157.915" stroke="#B5B5B5" stroke-width="0.36508"/>
<path d="M440.9 153.436L452.798 145.194" stroke="#B5B5B5" stroke-width="0.36508"/>
<path d="M428.183 142.503L440.544 153.299" stroke="#B5B5B5" stroke-width="0.36508"/>
<path d="M75.0625 289.262H93.9327V304.097H75.0625V289.262Z" fill="#B4D3C8"/>
<path d="M105.727 309.5V304.772C105.727 303.088 104.363 301.722 102.682 301.722H66.3137C64.632 301.722 63.2686 303.088 63.2686 304.772V309.5H105.727Z" fill="#79AA98"/>
<path d="M120.352 318.556V312.697C120.352 310.61 118.662 308.917 116.578 308.917H52.4188C50.3342 308.917 48.6445 310.609 48.6445 312.697V318.556H120.352Z" fill="#93B4A8"/>
<path d="M55.8349 187.237L63.7683 200.1C51.5807 207.641 44.3043 220.695 44.3043 235.022C44.3043 257.635 62.6736 276.034 85.2523 276.034H128.727V280.84C128.727 282.552 127.341 283.94 125.631 283.94H112.74C104.379 288.66 94.9082 291.152 85.2523 291.152C54.3497 291.152 29.208 265.972 29.208 235.021C29.2084 215.416 39.1623 197.553 55.8349 187.237Z" fill="#79AA98"/>
<path d="M62.9325 269.388C69.3567 273.587 77.0238 276.033 85.2513 276.033H128.726V280.839C128.726 282.552 127.34 283.94 125.63 283.94H112.739C104.378 288.659 94.9071 291.152 85.2513 291.152C58.9541 291.152 36.8329 272.916 30.8223 248.409C41.9886 262.658 55.3843 267.65 62.9325 269.388Z" fill="#60917F"/>
<path d="M60.6134 150.108L64.964 159.753L52.0752 165.585L47.7246 155.94L60.6134 150.108Z" fill="#79AA98"/>
<path d="M51.0671 154.434L55.4166 164.078L52.0849 165.586L47.7354 155.941L51.0671 154.434Z" fill="#60917F"/>
<path d="M68.3318 154.703L98.6307 221.872L76.3677 231.946L46.0693 164.776L68.3318 154.703Z" fill="#B4D3C8"/>
<path d="M55.0086 160.733L85.3073 227.902L76.3687 231.946L46.0703 164.777L55.0086 160.733Z" fill="#93B4A8"/>
<path d="M100.313 234.597L104.663 244.242L99.3905 246.628L95.04 236.983L100.313 234.597Z" fill="#79AA98"/>
<path d="M90.0599 239.237L94.4104 248.882L89.1375 251.267L84.7871 241.623L90.0599 239.237Z" fill="#79AA98"/>
<path d="M86.6031 240.804L90.9536 250.449L89.1353 251.271L84.7842 241.626L86.6031 240.804Z" fill="#60917F"/>
<path d="M96.7087 236.21L101.058 245.857L99.3869 246.613L95.0371 236.967L96.7087 236.21Z" fill="#60917F"/>
<path d="M100.574 226.181L104.867 235.698L82.6042 245.77L78.3115 236.254L100.574 226.181Z" fill="#B4D3C8"/>
<path d="M87.3371 232.169L91.6297 241.685L82.6042 245.769L78.3115 236.253L87.3371 232.169Z" fill="#93B4A8"/>
<path d="M101.389 216.064L105.895 226.054L74.6983 240.169L70.1924 230.18L101.389 216.064Z" fill="#79AA98"/>
<path d="M87.8961 222.169L92.402 232.159L88.1915 234.063L83.6855 224.075L87.8961 222.169Z" fill="#D7F8EB"/>
<path d="M92.7326 219.981L97.2386 229.971L93.9864 231.442L89.4805 221.453L92.7326 219.981Z" fill="#D7F8EB"/>
<path d="M45.0287 198.13C43.9058 190.594 49.0951 183.574 56.6192 182.449C64.1434 181.324 71.1534 186.522 72.2762 194.057C73.3989 201.593 68.2097 208.614 60.6856 209.738C53.1615 210.863 46.1517 205.666 45.0287 198.13Z" fill="#93B4A8"/>
<path d="M50.1826 196.088C50.1826 200.769 53.971 204.563 58.6447 204.563C63.3183 204.563 67.1067 200.769 67.1067 196.088C67.1067 191.408 63.3183 187.614 58.6447 187.614C53.9714 187.613 50.1826 191.407 50.1826 196.088Z" fill="#60917F"/>
<path d="M51.3545 196.089C51.3545 200.122 54.6186 203.39 58.645 203.39C62.6717 203.39 65.9359 200.121 65.9359 196.089C65.9359 192.056 62.6717 188.787 58.645 188.787C54.6182 188.787 51.3545 192.056 51.3545 196.089Z" fill="#79AA98"/>
<path d="M60.3652 270.898C60.3652 269.682 61.3499 268.696 62.5642 268.696H129.313C130.527 268.696 131.512 269.682 131.512 270.898V273.83C131.512 275.046 130.527 276.032 129.313 276.032H62.5642C61.3499 276.032 60.3652 275.046 60.3652 273.83V270.898Z" fill="#B4D3C8"/>
<path d="M131.512 272.365V273.831C131.512 275.047 130.527 276.033 129.313 276.033H62.5642C61.3499 276.033 60.3652 275.047 60.3652 273.831V272.365H131.512Z" fill="#93B4A8"/>
<path d="M341.65 91.6958H294.104C292.979 91.6958 292.066 92.6081 292.066 93.7335V131.77C292.066 132.895 292.979 133.808 294.104 133.808H341.65C342.775 133.808 343.687 132.895 343.687 131.77V93.7335C343.687 92.6081 342.775 91.6958 341.65 91.6958Z" fill="#DAE5E1"/>
<path d="M295.569 125.886H293.725V126.418H295.569V125.886Z" fill="#60917F"/>
<path d="M300.254 128.731H297.896V129.263H300.254V128.731Z" fill="#60917F"/>
<path d="M308.469 128.73H306.11V129.262H308.469V128.73Z" fill="#60917F"/>
<path d="M316.68 128.73H314.321V129.262H316.68V128.73Z" fill="#60917F"/>
<path d="M324.892 128.73H322.532V129.262H324.892V128.73Z" fill="#60917F"/>
<path d="M333.106 128.731H330.747V129.263H333.106V128.731Z" fill="#60917F"/>
<path d="M341.315 128.73H338.956V129.262H341.315V128.73Z" fill="#60917F"/>
<path d="M295.569 118.788H293.725V119.319H295.569V118.788Z" fill="#60917F"/>
<path d="M295.569 105.427H293.725V105.958H295.569V105.427Z" fill="#60917F"/>
<path d="M295.569 98.7114H293.725V99.2433H295.569V98.7114Z" fill="#60917F"/>
<path d="M295.662 112.107H293.817V112.639H295.662V112.107Z" fill="#60917F"/>
<path d="M341.25 126.419C341.25 126.423 341.183 126.427 341.052 126.431C340.911 126.434 340.718 126.438 340.472 126.443C339.95 126.448 339.2 126.456 338.24 126.465C336.29 126.474 333.488 126.487 330.031 126.502C323.09 126.512 313.519 126.523 302.948 126.537C300.75 126.536 298.594 126.536 296.53 126.535H296.414V126.419C296.43 117.366 296.444 109.399 296.454 103.681C296.469 100.837 296.481 98.5524 296.489 96.9664C296.498 96.1887 296.504 95.5828 296.508 95.1596C296.513 94.9613 296.517 94.8064 296.519 94.6917C296.523 94.5864 296.526 94.5327 296.53 94.5327C296.534 94.5327 296.537 94.5864 296.541 94.6917C296.544 94.8071 296.547 94.962 296.551 95.1596C296.555 95.5828 296.562 96.1887 296.571 96.9664C296.579 98.5524 296.591 100.837 296.606 103.681C296.616 109.399 296.629 117.366 296.646 126.419L296.53 126.303C298.594 126.303 300.749 126.302 302.948 126.301C313.518 126.315 323.089 126.327 330.03 126.335C333.487 126.352 336.289 126.364 338.239 126.373C339.199 126.383 339.948 126.39 340.471 126.395C340.718 126.4 340.91 126.404 341.051 126.407C341.183 126.411 341.25 126.415 341.25 126.419Z" fill="#60917F"/>
<path d="M341.77 112.374C341.77 112.439 332.041 112.491 320.043 112.491C308.041 112.491 298.314 112.438 298.314 112.374C298.314 112.309 308.041 112.256 320.043 112.256C332.041 112.256 341.77 112.309 341.77 112.374Z" fill="#60917F"/>
<path d="M341.77 105.692C341.77 105.757 332.041 105.809 320.043 105.809C308.041 105.809 298.314 105.757 298.314 105.692C298.314 105.627 308.041 105.575 320.043 105.575C332.041 105.575 341.77 105.627 341.77 105.692Z" fill="#60917F"/>
<path d="M341.77 98.9759C341.77 99.0404 332.041 99.0934 320.043 99.0934C308.041 99.0934 298.314 99.0404 298.314 98.9759C298.314 98.9107 308.041 98.8584 320.043 98.8584C332.041 98.8584 341.77 98.9114 341.77 98.9759Z" fill="#60917F"/>
<path d="M341.77 119.055C341.77 119.12 332.041 119.172 320.043 119.172C308.041 119.172 298.314 119.119 298.314 119.055C298.314 118.99 308.041 118.937 320.043 118.937C332.041 118.937 341.77 118.99 341.77 119.055Z" fill="#60917F"/>
<path d="M298.763 124.981C298.763 123.862 298.763 119.053 298.763 119.053L302.457 113.317L304.965 115.241L310.11 107.247L313.145 109.385L317.367 102.011L320.798 104.806L325.945 95.0234L331.486 105.957L335.973 100.486L341.251 98.9765V124.981L298.763 124.981Z" fill="#60917F"/>
<path d="M341.768 96.8734C341.768 96.8761 341.737 96.8788 341.675 96.8822C341.603 96.8843 341.513 96.887 341.4 96.8911C341.144 96.8951 340.787 96.9006 340.329 96.908C339.378 96.9155 338.009 96.9257 336.279 96.9386L336.331 96.9135C335.151 98.4594 333.684 100.381 331.997 102.59L331.97 102.626H331.923C328.768 102.633 325.073 102.639 321.057 102.646L321.154 102.592C319.725 104.973 318.182 107.542 316.587 110.198C315.03 112.784 313.524 115.287 312.101 117.652L312.013 117.799L311.912 117.66C309.768 114.708 307.784 111.978 306.031 109.564L306.189 109.559C303.952 113.036 302.106 115.906 300.81 117.918C300.167 118.907 299.66 119.685 299.308 120.228C299.138 120.483 299.005 120.683 298.907 120.829C298.816 120.964 298.762 121.03 298.762 121.03C298.762 121.03 298.799 120.954 298.883 120.813C298.974 120.663 299.099 120.459 299.259 120.197C299.603 119.647 300.094 118.86 300.719 117.859C301.997 115.835 303.819 112.951 306.027 109.455L306.103 109.337L306.186 109.451C307.948 111.858 309.941 114.581 312.096 117.527L311.907 117.535C313.328 115.169 314.832 112.664 316.386 110.076C317.984 107.422 319.529 104.854 320.961 102.475L320.994 102.419H321.059C325.074 102.427 328.769 102.434 331.924 102.44L331.851 102.476C333.554 100.279 335.036 98.369 336.228 96.832L336.248 96.8062H336.28C338.01 96.8197 339.379 96.8299 340.33 96.8374C340.788 96.8442 341.145 96.8503 341.401 96.8537C341.515 96.8578 341.604 96.8605 341.676 96.8632C341.737 96.8673 341.768 96.87 341.768 96.8734Z" fill="#FFD18C"/>
<path d="M307.891 111.406C307.891 111.628 307.704 111.808 307.474 111.808C307.243 111.808 307.057 111.628 307.057 111.406C307.057 111.184 307.243 111.005 307.474 111.005C307.704 111.005 307.891 111.184 307.891 111.406Z" fill="#FFD18C"/>
<path d="M320.425 104.283C320.425 104.505 320.238 104.685 320.008 104.685C319.778 104.685 319.591 104.505 319.591 104.283C319.591 104.061 319.778 103.881 320.008 103.881C320.238 103.881 320.425 104.061 320.425 104.283Z" fill="#FFD18C"/>
<path d="M330.167 102.533C330.167 102.755 329.98 102.934 329.75 102.934C329.52 102.934 329.333 102.755 329.333 102.533C329.333 102.311 329.52 102.131 329.75 102.131C329.98 102.131 330.167 102.311 330.167 102.533Z" fill="#FFD18C"/>
<path d="M153.785 238.407H144.276C143.151 238.407 142.238 239.32 142.238 240.445V249.954C142.238 251.079 143.151 251.992 144.276 251.992H153.785C154.91 251.992 155.823 251.079 155.823 249.954V240.445C155.823 239.32 154.91 238.407 153.785 238.407Z" fill="white"/>
<path d="M151.58 246.431C151.493 246.343 151.374 246.294 151.25 246.294C151.127 246.294 151.008 246.343 150.922 246.431L150.6 246.108C151.459 244.93 151.358 243.264 150.295 242.201C149.725 241.632 148.969 241.318 148.164 241.318C147.359 241.318 146.602 241.632 146.033 242.201C145.463 242.771 145.149 243.527 145.149 244.333C145.149 245.138 145.463 245.894 146.032 246.463C146.602 247.033 147.358 247.347 148.164 247.347C148.811 247.347 149.427 247.143 149.939 246.768L150.262 247.09C150.174 247.177 150.125 247.296 150.125 247.419C150.125 247.543 150.174 247.661 150.262 247.749L151.449 248.935C151.643 249.129 151.957 249.129 152.151 248.935L152.767 248.32C152.96 248.126 152.96 247.811 152.767 247.617L151.58 246.431ZM148.163 246.414C147.608 246.414 147.085 246.197 146.692 245.804C146.299 245.411 146.082 244.888 146.082 244.333C146.082 243.776 146.299 243.253 146.692 242.86C147.085 242.468 147.608 242.251 148.163 242.251C148.719 242.251 149.242 242.468 149.635 242.86C150.447 243.672 150.447 244.992 149.635 245.804C149.242 246.197 148.719 246.414 148.163 246.414Z" fill="#60917F"/>
<path d="M174.841 223.465H160.578C159.452 223.465 158.54 224.377 158.54 225.503V239.766C158.54 240.892 159.452 241.804 160.578 241.804H174.841C175.967 241.804 176.879 240.892 176.879 239.766V225.503C176.879 224.377 175.967 223.465 174.841 223.465Z" fill="white"/>
<path d="M165.089 231.179C164.699 231.179 164.311 231.237 163.938 231.351C164.304 232.362 165.066 233.18 166.048 233.615C166.297 232.931 166.712 232.319 167.256 231.834C166.614 231.406 165.86 231.179 165.089 231.179Z" fill="#60917F"/>
<path d="M171.32 231.352C170.198 231.007 168.98 231.184 168.003 231.834C168.547 232.318 168.962 232.93 169.211 233.616C170.193 233.18 170.954 232.362 171.32 231.352Z" fill="#60917F"/>
<path d="M165.089 230.717C166 230.717 166.888 231.003 167.63 231.534C168.736 230.741 170.15 230.509 171.452 230.909C171.822 229.331 171.185 227.687 169.848 226.772C168.51 225.855 166.748 225.855 165.41 226.772C164.073 227.687 163.436 229.331 163.806 230.909C164.222 230.782 164.654 230.717 165.089 230.717ZM164.498 228.539C164.921 227.652 165.698 226.985 166.639 226.703C166.719 226.677 166.806 226.697 166.867 226.754C166.929 226.811 166.954 226.897 166.934 226.977C166.914 227.059 166.852 227.123 166.771 227.145C165.956 227.39 165.282 227.968 164.916 228.737C164.861 228.853 164.723 228.902 164.608 228.847C164.493 228.792 164.443 228.654 164.498 228.539Z" fill="#60917F"/>
<path d="M168.778 233.779C168.546 233.134 168.149 232.561 167.628 232.117C167.107 232.561 166.711 233.134 166.479 233.779C167.228 234.008 168.029 234.008 168.778 233.779Z" fill="#60917F"/>
<path d="M171.752 231.515C171.336 232.659 170.465 233.582 169.346 234.062C169.742 235.639 169.223 237.304 168.003 238.378C169.238 239.197 170.83 239.25 172.118 238.515C173.405 237.78 174.168 236.383 174.091 234.902C174.013 233.421 173.109 232.111 171.752 231.515Z" fill="#60917F"/>
<path d="M168.911 234.221C168.076 234.477 167.183 234.477 166.347 234.221C166.01 235.651 166.506 237.148 167.63 238.095C168.753 237.148 169.249 235.651 168.911 234.221Z" fill="#60917F"/>
<path d="M165.781 235.106C165.783 234.754 165.826 234.403 165.912 234.062C164.792 233.582 163.922 232.659 163.507 231.515C162.148 232.11 161.242 233.421 161.165 234.903C161.087 236.383 161.851 237.782 163.138 238.517C164.427 239.252 166.02 239.198 167.255 238.378C166.319 237.548 165.782 236.357 165.781 235.106Z" fill="#60917F"/>
<path d="M202.011 214.635H184.351C183.226 214.635 182.313 215.547 182.313 216.672V234.332C182.313 235.458 183.226 236.37 184.351 236.37H202.011C203.136 236.37 204.049 235.458 204.049 234.332V216.672C204.049 215.547 203.136 214.635 202.011 214.635Z" fill="white"/>
<path fill-rule="evenodd" clip-rule="evenodd" d="M195.153 232.273C193.986 232.273 192.892 231.821 192.073 231.001L186.812 225.741C185.116 224.045 185.116 221.276 186.812 219.58L187.258 219.133C188.954 217.438 191.724 217.438 193.419 219.133L198.679 224.394C200.375 226.09 200.375 228.86 198.679 230.555L198.233 231.001C197.413 231.821 196.32 232.273 195.153 232.273ZM189.772 220.636C188.923 220.636 188.492 219.601 189.094 218.999C189.469 218.624 190.076 218.624 190.45 218.999C191.053 219.601 190.622 220.636 189.772 220.636ZM189.772 219.122C189.28 219.122 189.031 219.721 189.38 220.069C189.888 220.577 190.688 219.808 190.165 219.284C190.06 219.18 189.921 219.122 189.772 219.122ZM191.665 228.302C190.813 228.302 190.385 227.268 190.987 226.665C191.59 226.063 192.624 226.491 192.624 227.344C192.624 227.874 192.195 228.302 191.665 228.302ZM191.665 226.788C191.172 226.788 190.924 227.387 191.273 227.736C191.786 228.25 192.577 227.47 192.058 226.951C191.953 226.846 191.814 226.788 191.665 226.788ZM197.525 229.127C196.675 229.127 196.244 228.092 196.846 227.49C197.221 227.115 197.828 227.115 198.203 227.489C198.806 228.092 198.374 229.127 197.525 229.127ZM197.525 227.612C197.032 227.612 196.783 228.212 197.132 228.56C197.64 229.068 198.441 228.298 197.917 227.774C197.813 227.67 197.673 227.612 197.525 227.612ZM192.726 222.408C191.876 222.408 191.445 221.374 192.048 220.771C192.422 220.396 193.029 220.396 193.404 220.771C194.007 221.373 193.575 222.408 192.726 222.408ZM192.726 220.894C192.234 220.894 191.984 221.492 192.333 221.841C192.842 222.349 193.642 221.58 193.119 221.056C193.014 220.952 192.874 220.894 192.726 220.894ZM194.093 225.777C194.006 225.689 193.917 225.589 193.844 225.516C193.656 225.328 193.942 225.043 194.129 225.23C194.218 225.319 194.316 225.405 194.399 225.486C194.505 225.371 194.6 225.235 194.684 225.077C194.563 225.022 194.441 224.962 194.39 224.939C194.148 224.828 194.317 224.461 194.558 224.572C194.654 224.615 194.756 224.655 194.849 224.695L194.93 224.437C194.811 224.383 194.691 224.324 194.641 224.301C194.4 224.19 194.567 223.823 194.809 223.934C194.931 223.99 195.063 224.038 195.173 224.091C195.23 224.043 195.294 224.001 195.364 223.969C195.352 223.856 195.349 223.726 195.337 223.599C195.312 223.333 195.714 223.296 195.739 223.56C195.749 223.666 195.768 223.781 195.779 223.887C195.868 223.893 195.958 223.912 196.047 223.947C196.153 223.692 196.253 223.465 196.454 223.557C196.671 223.657 196.528 223.912 196.393 224.183L196.561 224.388C196.833 224.274 197.089 224.161 197.17 224.38C197.246 224.584 197.018 224.669 196.759 224.755C196.808 224.892 196.833 225.034 196.839 225.18C197.125 225.217 197.394 225.25 197.356 225.476C197.312 225.737 196.973 225.614 196.805 225.587C196.78 225.71 196.744 225.833 196.696 225.952C196.954 226.058 197.184 226.159 197.092 226.361C196.982 226.601 196.733 226.425 196.507 226.318C196.406 226.476 196.287 226.62 196.151 226.745C196.363 226.943 196.546 227.12 196.389 227.278C196.201 227.467 195.998 227.19 195.814 226.993C195.696 227.06 195.573 227.111 195.448 227.144C195.548 227.391 195.633 227.686 195.351 227.686C195.174 227.686 195.111 227.455 195.023 227.19C194.845 227.182 194.691 227.149 194.561 227.097C194.497 227.231 194.416 227.503 194.236 227.503C194.092 227.503 193.991 227.351 194.053 227.217C194.108 227.097 194.156 226.965 194.208 226.857C194.127 226.769 194.067 226.671 194.027 226.567C193.933 226.6 193.771 226.677 193.672 226.677C193.449 226.677 193.391 226.364 193.602 226.286C193.726 226.24 193.852 226.181 193.966 226.142C193.979 226.003 194.023 225.876 194.093 225.777ZM194.564 225.875C194.482 226.008 194.281 226.014 194.393 226.374C194.567 226.931 195.433 226.91 195.945 226.383C196.824 225.479 196.35 224.183 195.62 224.308C195.113 224.394 195.394 225.134 194.564 225.875ZM187.207 223.483C187.12 223.395 187.032 223.296 186.958 223.222C186.77 223.034 187.056 222.749 187.243 222.936C187.332 223.025 187.43 223.111 187.513 223.192C187.62 223.078 187.715 222.941 187.798 222.783C187.678 222.728 187.555 222.667 187.505 222.645C187.263 222.534 187.431 222.167 187.673 222.277C187.768 222.321 187.87 222.36 187.963 222.401L188.044 222.143C187.925 222.089 187.805 222.03 187.756 222.007C187.514 221.896 187.681 221.529 187.923 221.64C188.045 221.696 188.177 221.744 188.287 221.797C188.344 221.749 188.408 221.708 188.478 221.676C188.467 221.562 188.464 221.433 188.452 221.304C188.427 221.04 188.829 221.002 188.853 221.266C188.863 221.372 188.882 221.487 188.893 221.593C188.982 221.599 189.073 221.618 189.162 221.653C189.267 221.398 189.367 221.171 189.568 221.263C189.786 221.363 189.642 221.619 189.507 221.89L189.675 222.094C189.947 221.981 190.203 221.867 190.284 222.086C190.36 222.291 190.131 222.375 189.873 222.46C189.922 222.597 189.947 222.741 189.953 222.886C190.24 222.923 190.508 222.955 190.47 223.182C190.426 223.444 190.087 223.321 189.92 223.293C189.895 223.417 189.858 223.539 189.81 223.658C190.068 223.764 190.299 223.865 190.207 224.067C190.097 224.308 189.848 224.132 189.622 224.024C189.521 224.183 189.402 224.326 189.265 224.452C189.477 224.649 189.661 224.827 189.504 224.983C189.314 225.172 189.113 224.896 188.929 224.699C188.81 224.766 188.687 224.816 188.562 224.85C188.662 225.098 188.748 225.392 188.465 225.392C188.288 225.392 188.226 225.16 188.137 224.895C187.959 224.888 187.806 224.855 187.676 224.802C187.612 224.937 187.531 225.209 187.351 225.209C187.206 225.209 187.105 225.058 187.167 224.924C187.222 224.803 187.27 224.672 187.323 224.563C187.241 224.475 187.182 224.376 187.141 224.274C187.048 224.306 186.886 224.384 186.786 224.384C186.563 224.384 186.506 224.071 186.716 223.993C186.841 223.946 186.967 223.887 187.081 223.847C187.093 223.709 187.137 223.582 187.208 223.483H187.207ZM187.679 223.581C187.596 223.715 187.395 223.718 187.508 224.079C187.681 224.637 188.546 224.617 189.059 224.09C189.939 223.184 189.462 221.888 188.734 222.014C188.226 222.102 188.509 222.841 187.679 223.581ZM193.581 229.217C193.46 229.096 193.371 228.937 193.487 228.82C193.619 228.689 193.75 228.789 193.869 228.911C193.964 228.846 194.069 228.801 194.176 228.774C194.178 228.724 194.18 228.675 194.18 228.63C194.18 228.364 194.584 228.364 194.584 228.63C194.584 228.672 194.586 228.717 194.587 228.762C194.696 228.783 194.803 228.823 194.902 228.882C195.024 228.757 195.158 228.649 195.292 228.783C195.406 228.896 195.323 229.051 195.207 229.171C195.271 229.266 195.316 229.369 195.341 229.472C195.39 229.474 195.439 229.477 195.483 229.477C195.749 229.477 195.749 229.88 195.483 229.88C195.441 229.88 195.395 229.882 195.349 229.883C195.327 229.993 195.287 230.1 195.229 230.197C195.264 230.233 195.298 230.271 195.33 230.302C195.479 230.452 195.327 230.85 194.943 230.502C194.854 230.563 194.753 230.609 194.641 230.636C194.644 230.811 194.625 230.981 194.435 230.981C194.25 230.981 194.227 230.817 194.229 230.647C194.116 230.626 194.012 230.586 193.92 230.532C193.53 230.894 193.374 230.491 193.525 230.341C193.554 230.311 193.585 230.277 193.617 230.243C193.555 230.15 193.508 230.046 193.48 229.937C193.305 229.94 193.132 229.921 193.132 229.731C193.132 229.547 193.295 229.523 193.465 229.525C193.484 229.419 193.523 229.315 193.581 229.217ZM194.97 229.736C194.938 229.603 195.01 229.521 194.801 229.312C194.296 228.808 193.49 229.572 194.016 230.097C194.355 230.436 194.929 230.2 194.97 229.736Z" fill="#60917F"/>
<path fill-rule="evenodd" clip-rule="evenodd" d="M187.179 219.87C187.08 219.87 186.986 219.831 186.916 219.762L185.874 218.718C185.53 218.375 186.054 217.852 186.397 218.195L187.44 219.238C187.672 219.47 187.507 219.87 187.179 219.87ZM188.853 218.707C188.721 218.707 188.599 218.637 188.533 218.521L187.795 217.245C187.552 216.823 188.192 216.451 188.436 216.874L189.174 218.151C189.315 218.397 189.137 218.707 188.853 218.707ZM190.876 218.469C190.709 218.469 190.562 218.356 190.519 218.195L190.137 216.77C190.011 216.3 190.726 216.108 190.852 216.579L191.234 218.003C191.297 218.238 191.119 218.469 190.876 218.469ZM192.698 219.165C192.493 219.165 192.328 218.998 192.328 218.794V217.319C192.328 216.832 193.068 216.832 193.068 217.319V218.794C193.068 218.998 192.902 219.165 192.698 219.165ZM193.955 220.325C193.713 220.325 193.535 220.092 193.597 219.859L193.979 218.434C194.105 217.963 194.82 218.155 194.694 218.625L194.312 220.05C194.269 220.212 194.122 220.325 193.955 220.325ZM195.284 221.653C195 221.653 194.821 221.344 194.963 221.098L195.701 219.821C195.944 219.4 196.586 219.768 196.342 220.191L195.604 221.468C195.538 221.583 195.415 221.653 195.284 221.653ZM196.133 222.502C195.804 222.502 195.638 222.103 195.871 221.871L196.914 220.827C197.258 220.484 197.781 221.008 197.438 221.351L196.394 222.394C196.325 222.464 196.231 222.502 196.133 222.502ZM197.13 223.499C196.753 223.499 196.618 222.997 196.944 222.809L198.221 222.071C198.642 221.828 199.015 222.468 198.592 222.712C198.35 222.852 197.324 223.499 197.13 223.499ZM198.537 224.907C198.109 224.907 198.028 224.291 198.442 224.179L199.866 223.798C200.338 223.671 200.529 224.389 200.057 224.514L198.537 224.907ZM200.891 226.207H199.416C198.928 226.207 198.928 225.466 199.416 225.466H200.891C201.378 225.466 201.378 226.207 200.891 226.207ZM201.151 227.676L199.618 227.273C199.146 227.148 199.337 226.431 199.809 226.557L201.268 226.949C201.67 227.056 201.624 227.676 201.151 227.676ZM200.761 230.051C200.567 230.051 199.542 229.404 199.299 229.264C198.877 229.021 199.246 228.378 199.669 228.623L200.946 229.36C201.273 229.549 201.138 230.051 200.762 230.051H200.761ZM199.358 232.049C199.259 232.049 199.165 232.01 199.096 231.941L198.053 230.898C197.709 230.555 198.233 230.031 198.577 230.375L199.619 231.417C199.852 231.649 199.686 232.049 199.358 232.049ZM186.015 221.545C185.82 221.545 184.795 220.897 184.553 220.758C184.132 220.515 184.499 219.872 184.923 220.117L186.2 220.855C186.526 221.043 186.391 221.545 186.015 221.545ZM185.756 223.569L184.258 223.174C183.786 223.05 183.977 222.333 184.449 222.459L185.874 222.841C186.277 222.949 186.23 223.569 185.756 223.569ZM186.473 225.39H184.998C184.511 225.39 184.511 224.649 184.998 224.649H186.473C186.96 224.649 186.96 225.39 186.473 225.39ZM186.208 227.028C185.779 227.028 185.698 226.411 186.112 226.301L187.537 225.919C188.008 225.793 188.201 226.51 187.728 226.634L186.208 227.028ZM187.685 228.713C187.308 228.713 187.173 228.211 187.499 228.022L188.777 227.285C189.198 227.041 189.57 227.681 189.147 227.925C188.905 228.065 187.879 228.713 187.685 228.713ZM188.768 229.867C188.44 229.867 188.274 229.468 188.506 229.236L189.549 228.192C189.893 227.849 190.416 228.373 190.073 228.716L189.029 229.759C188.96 229.828 188.866 229.867 188.768 229.867ZM190.07 231.099C189.787 231.099 189.608 230.788 189.749 230.543L190.487 229.266C190.73 228.845 191.373 229.212 191.128 229.636L190.391 230.913C190.325 231.028 190.202 231.098 190.07 231.098V231.099ZM191.835 232.654C191.592 232.654 191.413 232.422 191.477 232.188L191.858 230.763C191.984 230.292 192.699 230.485 192.574 230.955L192.192 232.38C192.148 232.541 192.002 232.654 191.835 232.654ZM193.515 233.583C193.311 233.583 193.145 233.417 193.145 233.212V231.738C193.145 231.25 193.885 231.25 193.885 231.738V233.212C193.885 233.417 193.719 233.583 193.515 233.583ZM194.985 233.864C194.818 233.864 194.67 233.752 194.628 233.59L194.236 232.13C194.11 231.66 194.825 231.467 194.951 231.938L195.342 233.398C195.405 233.633 195.227 233.864 194.985 233.864ZM197.36 233.453C197.228 233.453 197.105 233.383 197.039 233.268L196.302 231.991C196.059 231.57 196.699 231.197 196.943 231.621L197.68 232.898C197.822 233.143 197.643 233.453 197.36 233.453Z" fill="#60917F"/>
<path d="M216.275 190.183H198.615C197.489 190.183 196.577 191.095 196.577 192.221V209.881C196.577 211.006 197.489 211.918 198.615 211.918H216.275C217.4 211.918 218.312 211.006 218.312 209.881V192.221C218.312 191.095 217.4 190.183 216.275 190.183Z" fill="white"/>
<path d="M215.016 205.588C214.744 205.588 214.523 205.791 214.523 206.04V206.757L212.518 204.949V200.835L207.588 204.45C207.588 206.332 207.588 207.456 207.588 209.113L211.989 205.742L213.826 207.396H213.044C212.771 207.396 212.551 207.598 212.551 207.848C212.551 208.098 212.771 208.3 213.044 208.3H215.016C215.289 208.3 215.509 208.094 215.509 207.848V206.04C215.509 205.791 215.288 205.588 215.016 205.588Z" fill="#60917F"/>
<path d="M201.671 200.835V204.949L199.666 206.757V206.041C199.666 205.791 199.446 205.588 199.174 205.588C198.901 205.588 198.681 205.791 198.681 206.041V207.848C198.681 208.099 198.905 208.3 199.174 208.3H201.146C201.418 208.3 201.639 208.098 201.639 207.848C201.639 207.598 201.418 207.396 201.146 207.396H200.364L202.2 205.742L206.602 209.113C206.602 207.488 206.602 206.307 206.602 204.45L201.671 200.835Z" fill="#60917F"/>
<path d="M207.588 196.784V195.231L208.141 195.737C208.333 195.914 208.646 195.914 208.838 195.737C209.031 195.561 209.031 195.275 208.838 195.098L207.444 193.82C207.252 193.644 206.937 193.645 206.746 193.82L205.352 195.098C205.16 195.275 205.16 195.561 205.352 195.737C205.545 195.914 205.857 195.914 206.05 195.737L206.602 195.231V196.784L202.165 200.038L207.095 203.654L212.025 200.038L207.588 196.784Z" fill="#60917F"/>
<path d="M246.161 194.258H224.425C223.3 194.258 222.388 195.171 222.388 196.296V218.031C222.388 219.157 223.3 220.069 224.425 220.069H246.161C247.286 220.069 248.198 219.157 248.198 218.031V196.296C248.198 195.171 247.286 194.258 246.161 194.258Z" fill="white"/>
<path d="M230.048 201.734C229.666 201.971 229.438 202.158 229.438 202.452C229.438 202.746 229.666 202.933 230.048 203.17C230.429 202.933 230.657 202.746 230.657 202.452C230.657 202.158 230.429 201.971 230.048 201.734Z" fill="#60917F"/>
<path d="M233.529 200.376L234.104 200.119L233.871 199.512L233.293 199.77C233.166 199.505 233.014 199.258 232.836 199.032L233.278 198.555L232.848 198.09L232.406 198.567C232.196 198.376 231.967 198.211 231.722 198.074L231.961 197.451L231.398 197.199L231.159 197.82C230.902 197.731 230.631 197.674 230.352 197.649V196.975H229.743V197.649C229.464 197.674 229.194 197.731 228.935 197.82L228.698 197.2L228.135 197.451L228.374 198.075C228.129 198.211 227.899 198.376 227.69 198.567L227.248 198.09L226.817 198.555L227.259 199.032C227.082 199.258 226.929 199.505 226.802 199.77L226.225 199.512L225.991 200.119L226.567 200.376C226.484 200.654 226.431 200.946 226.408 201.247H225.783V201.905H226.392V203.22H225.783V203.876H226.392V205.191H225.783V205.849H226.408C226.431 206.15 226.484 206.441 226.567 206.72L225.991 206.977L226.225 207.584L226.802 207.326C226.929 207.591 227.082 207.838 227.259 208.064L226.817 208.541L227.248 209.006L227.69 208.528C228.002 208.814 228.36 209.042 228.749 209.202C228.708 209.289 228.654 209.369 228.588 209.46C228.424 209.69 228.22 209.976 228.22 210.515C228.22 211.054 228.424 211.34 228.588 211.569C228.728 211.766 228.83 211.908 228.83 212.223C228.83 212.538 228.728 212.68 228.588 212.877C228.424 213.106 228.22 213.392 228.22 213.931C228.22 214.471 228.424 214.757 228.588 214.987C228.728 215.183 228.83 215.325 228.83 215.641C228.83 215.957 228.728 216.1 228.588 216.296C228.424 216.526 228.22 216.812 228.22 217.352H228.83C228.83 217.036 228.931 216.893 229.071 216.697C229.235 216.467 229.439 216.181 229.439 215.641C229.439 215.102 229.235 214.816 229.071 214.586C228.931 214.389 228.83 214.248 228.83 213.931C228.83 213.616 228.931 213.474 229.071 213.277C229.235 213.047 229.439 212.761 229.439 212.223C229.439 211.684 229.235 211.398 229.071 211.168C228.931 210.972 228.83 210.83 228.83 210.515C228.83 210.199 228.931 210.057 229.071 209.861C229.16 209.735 229.261 209.585 229.336 209.388C229.491 209.421 229.651 209.44 229.813 209.451C229.81 209.454 229.809 209.457 229.806 209.46C229.643 209.69 229.439 209.976 229.439 210.515C229.439 211.054 229.643 211.34 229.806 211.569C229.946 211.766 230.048 211.908 230.048 212.223C230.048 212.538 229.946 212.68 229.806 212.877C229.643 213.106 229.439 213.392 229.439 213.931C229.439 214.471 229.643 214.757 229.806 214.987C229.946 215.183 230.048 215.325 230.048 215.641C230.048 215.957 229.946 216.1 229.806 216.296C229.643 216.526 229.439 216.812 229.439 217.352H230.048C230.048 217.036 230.149 216.893 230.289 216.697C230.453 216.467 230.657 216.181 230.657 215.641C230.657 215.102 230.453 214.816 230.289 214.586C230.149 214.389 230.048 214.248 230.048 213.931C230.048 213.616 230.149 213.474 230.289 213.277C230.453 213.047 230.657 212.761 230.657 212.223C230.657 211.684 230.453 211.398 230.289 211.168C230.149 210.972 230.048 210.83 230.048 210.515C230.048 210.199 230.149 210.057 230.289 209.861C230.377 209.738 230.472 209.602 230.545 209.423C230.75 209.392 230.951 209.344 231.144 209.278C231.109 209.337 231.07 209.397 231.025 209.46C230.861 209.69 230.657 209.976 230.657 210.515C230.657 211.054 230.861 211.34 231.025 211.569C231.165 211.766 231.266 211.908 231.266 212.223C231.266 212.538 231.165 212.68 231.025 212.877C230.861 213.106 230.657 213.392 230.657 213.931C230.657 214.471 230.861 214.757 231.025 214.987C231.165 215.183 231.266 215.325 231.266 215.641C231.266 215.957 231.165 216.1 231.025 216.296C230.861 216.526 230.657 216.812 230.657 217.352H231.266C231.266 217.036 231.368 216.893 231.508 216.697C231.671 216.467 231.875 216.181 231.875 215.641C231.875 215.102 231.671 214.816 231.508 214.586C231.368 214.389 231.266 214.248 231.266 213.931C231.266 213.616 231.368 213.474 231.508 213.277C231.671 213.047 231.875 212.761 231.875 212.223C231.875 211.684 231.671 211.398 231.508 211.168C231.368 210.972 231.266 210.83 231.266 210.515C231.266 210.199 231.368 210.057 231.508 209.861C231.658 209.65 231.84 209.389 231.869 208.931C232.058 208.813 232.236 208.677 232.402 208.524L232.848 209.006L233.278 208.541L232.832 208.059C233.009 207.834 233.164 207.589 233.292 207.326L233.871 207.584L234.104 206.977L233.526 206.718C233.609 206.44 233.666 206.148 233.689 205.849H234.312V205.191H233.703V203.876H234.312V203.22H233.703V201.905H234.312V201.247H233.687C233.664 200.946 233.611 200.654 233.529 200.376ZM232.484 205.52C232.484 206.97 231.392 208.149 230.048 208.149C228.704 208.149 227.611 206.97 227.611 205.52V201.576C227.611 200.126 228.704 198.947 230.048 198.947C231.392 198.947 232.484 200.126 232.484 201.576V205.52Z" fill="#60917F"/>
<path d="M230.048 199.604C229.04 199.604 228.22 200.488 228.22 201.576V205.52C228.22 206.607 229.04 207.492 230.048 207.492C231.055 207.492 231.875 206.607 231.875 205.52V201.576C231.875 200.488 231.055 199.604 230.048 199.604ZM231.266 202.451C231.266 202.97 230.974 203.298 230.636 203.548C230.974 203.796 231.266 204.124 231.266 204.643C231.266 205.161 230.974 205.489 230.636 205.739C230.974 205.988 231.266 206.316 231.266 206.834H230.657C230.657 206.54 230.429 206.353 230.048 206.116C229.665 206.353 229.438 206.54 229.438 206.834H228.829C228.829 206.316 229.12 205.988 229.458 205.739C229.12 205.489 228.829 205.161 228.829 204.643C228.829 204.124 229.12 203.796 229.458 203.548C229.12 203.298 228.829 202.97 228.829 202.451C228.829 201.934 229.12 201.606 229.458 201.356C229.12 201.107 228.829 200.779 228.829 200.261H229.438C229.438 200.555 229.665 200.742 230.048 200.979C230.429 200.742 230.657 200.555 230.657 200.261H231.266C231.266 200.779 230.975 201.107 230.637 201.356C230.975 201.606 231.266 201.933 231.266 202.451Z" fill="#60917F"/>
<path d="M230.048 203.924C229.665 204.161 229.438 204.349 229.438 204.643C229.438 204.937 229.665 205.125 230.048 205.362C230.429 205.125 230.657 204.937 230.657 204.643C230.657 204.349 230.429 204.161 230.048 203.924Z" fill="#60917F"/>
<path d="M244.67 201.905V201.247H244.045C244.022 200.946 243.969 200.654 243.886 200.376L244.461 200.119L244.228 199.512L243.651 199.77C243.524 199.505 243.37 199.258 243.193 199.032L243.636 198.555L243.205 198.09L242.762 198.567C242.554 198.376 242.324 198.211 242.079 198.074L242.318 197.451L241.755 197.199L241.517 197.82C241.259 197.731 240.989 197.674 240.71 197.649V196.975H240.101V197.649C239.821 197.674 239.551 197.731 239.293 197.82L239.055 197.2L238.492 197.452L238.731 198.075C238.486 198.212 238.256 198.377 238.047 198.568L237.605 198.091L237.174 198.555L237.617 199.033C237.439 199.258 237.286 199.506 237.159 199.771L236.581 199.512L236.348 200.12L236.924 200.377C236.842 200.655 236.789 200.947 236.765 201.248H236.141V201.905H236.75V203.22H236.141V203.877H236.75V205.192H236.141V205.849H236.766C236.789 206.15 236.842 206.442 236.924 206.72L236.348 206.978L236.582 207.585L237.159 207.327C237.286 207.591 237.439 207.839 237.617 208.065L237.174 208.542L237.605 209.007L238.048 208.529C238.299 208.759 238.58 208.951 238.883 209.101V210.779C238.883 211.073 238.788 211.201 238.645 211.393C238.479 211.617 238.273 211.894 238.273 212.42C238.273 212.946 238.479 213.224 238.644 213.447C238.788 213.64 238.882 213.768 238.882 214.063C238.882 214.359 238.782 214.494 238.644 214.68C238.479 214.904 238.273 215.181 238.273 215.707C238.273 216.234 238.479 216.511 238.644 216.735C238.788 216.928 238.882 217.056 238.882 217.352H239.491C239.491 216.825 239.285 216.547 239.12 216.325C238.982 216.138 238.882 216.003 238.882 215.707C238.882 215.412 238.977 215.284 239.12 215.09C239.285 214.867 239.491 214.59 239.491 214.063C239.491 213.537 239.285 213.259 239.12 213.036C238.977 212.843 238.882 212.716 238.882 212.42C238.882 212.125 238.977 211.997 239.12 211.804C239.285 211.582 239.491 211.304 239.491 210.779V209.334C239.689 209.389 239.892 209.428 240.101 209.447V210.779C240.101 211.073 240.006 211.201 239.863 211.393C239.697 211.617 239.491 211.894 239.491 212.42C239.491 212.946 239.697 213.224 239.863 213.447C240.006 213.64 240.101 213.768 240.101 214.063C240.101 214.359 240.001 214.494 239.863 214.68C239.697 214.904 239.491 215.181 239.491 215.707C239.491 216.234 239.697 216.511 239.863 216.735C240.006 216.928 240.101 217.056 240.101 217.352H240.71C240.71 216.825 240.504 216.547 240.338 216.325C240.2 216.138 240.101 216.003 240.101 215.707C240.101 215.412 240.196 215.284 240.338 215.09C240.504 214.867 240.71 214.59 240.71 214.063C240.71 213.537 240.504 213.259 240.338 213.036C240.196 212.843 240.101 212.716 240.101 212.42C240.101 212.125 240.196 211.997 240.338 211.804C240.504 211.582 240.71 211.304 240.71 210.779V209.447C240.918 209.428 241.121 209.389 241.319 209.334V210.779C241.319 211.304 241.525 211.582 241.691 211.804C241.833 211.997 241.928 212.125 241.928 212.42C241.928 212.716 241.833 212.843 241.691 213.036C241.525 213.259 241.319 213.537 241.319 214.063C241.319 214.59 241.525 214.867 241.691 215.09C241.833 215.284 241.928 215.412 241.928 215.707C241.928 216.003 241.828 216.138 241.691 216.325C241.525 216.547 241.319 216.825 241.319 217.352H241.928C241.928 217.056 242.023 216.928 242.166 216.735C242.332 216.511 242.538 216.234 242.538 215.707C242.538 215.181 242.332 214.904 242.166 214.68C242.028 214.494 241.928 214.359 241.928 214.063C241.928 213.768 242.023 213.64 242.166 213.447C242.332 213.224 242.538 212.946 242.538 212.42C242.538 211.894 242.332 211.617 242.166 211.393C242.023 211.201 241.928 211.073 241.928 210.779V209.1C242.231 208.95 242.512 208.759 242.763 208.528L243.205 209.006L243.637 208.541L243.194 208.064C243.371 207.838 243.524 207.591 243.651 207.326L244.229 207.584L244.462 206.977L243.887 206.72C243.969 206.441 244.022 206.15 244.045 205.849H244.67V205.191H244.06V203.876H244.67V203.22H244.06V201.905H244.67ZM239.796 198.947H240.405V200.262H239.796V198.947ZM238.578 199.604H239.187V200.262H238.578V199.604ZM237.968 200.918H238.578V202.233H237.968V200.918ZM238.578 205.52H237.968V204.863H238.578V205.52ZM238.578 204.205V202.891H239.187V204.205H238.578ZM239.796 207.492H239.187V206.177H239.796V207.492ZM239.796 204.863V203.548H240.405V204.863H239.796ZM241.015 208.149H240.405V207.492H241.015V208.149ZM241.015 202.233H240.405V201.576H241.015V202.233ZM241.623 199.604H242.233V200.918H241.623V199.604ZM241.928 206.834H241.319V205.52H241.928V206.834ZM242.842 203.548H242.233V202.233H242.842V203.548Z" fill="#60917F"/>
<path d="M263.141 158.26H234.614C233.488 158.26 232.576 159.172 232.576 160.297V188.825C232.576 189.95 233.488 190.862 234.614 190.862H263.141C264.267 190.862 265.179 189.95 265.179 188.825V160.297C265.179 159.172 264.267 158.26 263.141 158.26Z" fill="white"/>
<path d="M252.805 171.417C253.363 171.417 253.816 170.965 253.816 170.407C253.816 169.848 253.363 169.396 252.805 169.396C252.247 169.396 251.795 169.848 251.795 170.407C251.795 170.965 252.247 171.417 252.805 171.417Z" fill="#60917F"/>
<path d="M243.375 180.846C243.933 180.846 244.385 180.394 244.385 179.836C244.385 179.278 243.933 178.825 243.375 178.825C242.817 178.825 242.364 179.278 242.364 179.836C242.364 180.394 242.817 180.846 243.375 180.846Z" fill="#60917F"/>
<path d="M251.49 180.846C252.048 180.846 252.5 180.394 252.5 179.836C252.5 179.278 252.048 178.825 251.49 178.825C250.932 178.825 250.479 179.278 250.479 179.836C250.479 180.394 250.932 180.846 251.49 180.846Z" fill="#60917F"/>
<path d="M251.492 176.131C250.921 176.149 250.361 176.287 249.848 176.537C249.335 176.787 248.881 177.142 248.515 177.581C248.242 177.873 248.035 178.221 247.908 178.601C247.782 178.98 247.739 179.383 247.782 179.78C248.026 181.224 249.897 182.194 251.492 182.194C253.086 182.194 254.958 181.224 255.202 179.78C255.245 179.383 255.202 178.98 255.076 178.601C254.95 178.222 254.743 177.873 254.47 177.581C254.105 177.142 253.65 176.787 253.137 176.537C252.623 176.287 252.063 176.149 251.492 176.131ZM251.492 181.52C251.159 181.52 250.833 181.421 250.556 181.236C250.279 181.051 250.063 180.788 249.936 180.48C249.809 180.172 249.775 179.834 249.84 179.508C249.905 179.181 250.066 178.881 250.301 178.646C250.537 178.41 250.837 178.25 251.164 178.184C251.49 178.119 251.829 178.153 252.136 178.28C252.444 178.408 252.707 178.624 252.892 178.9C253.077 179.177 253.175 179.503 253.175 179.836C253.175 180.283 252.997 180.71 252.682 181.026C252.366 181.342 251.939 181.519 251.492 181.52Z" fill="#60917F"/>
<path d="M247.03 172.99C247.078 172.675 247.056 172.354 246.967 172.049C246.879 171.744 246.724 171.462 246.514 171.223C246.154 170.695 245.678 170.255 245.122 169.939C244.566 169.622 243.945 169.437 243.306 169.396C242.669 169.437 242.048 169.622 241.492 169.939C240.936 170.255 240.46 170.695 240.1 171.223C239.89 171.462 239.735 171.744 239.646 172.049C239.557 172.354 239.535 172.675 239.584 172.989C239.83 173.691 241.222 174.111 243.306 174.111C245.392 174.111 246.783 173.691 247.03 172.99ZM241.623 171.754C241.623 171.421 241.722 171.095 241.907 170.818C242.091 170.541 242.355 170.326 242.663 170.198C242.97 170.07 243.308 170.037 243.635 170.102C243.962 170.167 244.262 170.328 244.497 170.563C244.733 170.799 244.893 171.099 244.958 171.426C245.024 171.752 244.99 172.09 244.863 172.398C244.735 172.706 244.519 172.969 244.242 173.154C243.965 173.339 243.64 173.438 243.306 173.438C242.86 173.437 242.432 173.259 242.116 172.944C241.801 172.628 241.623 172.201 241.623 171.754Z" fill="#60917F"/>
<path d="M253.307 166.657C253.159 166.657 253.011 166.67 252.865 166.695C252.088 166.858 251.407 167.321 250.971 167.984C250.49 168.669 250.299 169.517 250.441 170.342C250.564 170.939 250.86 171.488 251.291 171.919C251.722 172.351 252.271 172.645 252.869 172.768C253.694 172.91 254.542 172.719 255.228 172.239C255.891 171.803 256.354 171.122 256.516 170.345C256.582 169.853 256.529 169.353 256.361 168.885C256.193 168.418 255.915 167.998 255.551 167.661C254.965 167.043 254.158 166.683 253.307 166.657ZM252.806 172.089C252.473 172.089 252.147 171.991 251.871 171.806C251.593 171.621 251.377 171.358 251.25 171.05C251.123 170.742 251.089 170.404 251.154 170.077C251.219 169.751 251.379 169.45 251.615 169.215C251.851 168.98 252.15 168.819 252.477 168.754C252.804 168.689 253.143 168.722 253.45 168.85C253.758 168.977 254.021 169.193 254.206 169.47C254.391 169.747 254.49 170.073 254.49 170.405C254.49 170.852 254.312 171.28 253.996 171.596C253.681 171.912 253.252 172.089 252.806 172.089Z" fill="#60917F"/>
<path d="M248.765 162.659C246.433 162.659 244.155 163.35 242.216 164.645C240.278 165.941 238.767 167.781 237.875 169.936C236.983 172.09 236.749 174.459 237.204 176.746C237.659 179.033 238.781 181.133 240.43 182.781C242.079 184.43 244.179 185.552 246.465 186.007C248.752 186.462 251.122 186.228 253.276 185.336C255.43 184.444 257.27 182.933 258.566 180.995C259.861 179.056 260.552 176.778 260.552 174.446C260.549 171.321 259.306 168.325 257.096 166.115C254.886 163.906 251.89 162.663 248.765 162.659ZM238.948 173.21C238.861 172.794 238.869 172.363 238.974 171.951C239.078 171.539 239.275 171.156 239.551 170.832C239.971 170.213 240.528 169.699 241.18 169.333C241.832 168.966 242.561 168.757 243.308 168.721C244.055 168.757 244.784 168.967 245.436 169.333C246.088 169.699 246.646 170.213 247.065 170.832C247.341 171.156 247.539 171.539 247.642 171.952C247.747 172.364 247.756 172.795 247.668 173.211C247.211 174.51 245.044 174.783 243.308 174.783C241.572 174.783 239.405 174.51 238.948 173.21ZM243.376 181.518C243.043 181.518 242.718 181.42 242.441 181.235C242.164 181.05 241.949 180.787 241.821 180.479C241.693 180.172 241.66 179.833 241.725 179.506C241.79 179.18 241.951 178.88 242.186 178.644C242.421 178.408 242.721 178.248 243.048 178.184C243.375 178.118 243.713 178.152 244.021 178.279C244.329 178.406 244.591 178.622 244.777 178.899C244.962 179.176 245.061 179.502 245.061 179.835C245.06 180.281 244.883 180.71 244.567 181.025C244.251 181.341 243.823 181.518 243.376 181.518ZM255.864 179.89C255.555 181.728 253.353 182.866 251.492 182.866C249.63 182.866 247.429 181.728 247.119 179.89C247.058 179.397 247.105 178.895 247.258 178.421C247.41 177.946 247.663 177.51 248 177.144C248.43 176.631 248.964 176.216 249.565 175.926C250.167 175.635 250.824 175.475 251.492 175.456C252.161 175.475 252.817 175.635 253.42 175.926C254.022 176.217 254.556 176.633 254.985 177.145C255.322 177.512 255.574 177.947 255.727 178.421C255.879 178.895 255.925 179.397 255.864 179.89ZM255.609 172.795C254.961 173.244 254.193 173.487 253.404 173.492C253.182 173.492 252.961 173.471 252.743 173.43C252.011 173.286 251.338 172.928 250.81 172.401C250.283 171.873 249.925 171.2 249.781 170.468C249.694 169.972 249.704 169.464 249.813 168.972C249.922 168.48 250.126 168.015 250.416 167.602C250.954 166.791 251.792 166.226 252.746 166.032C253.345 165.947 253.957 166.006 254.527 166.207C255.098 166.408 255.612 166.743 256.027 167.184C256.468 167.598 256.804 168.113 257.004 168.684C257.205 169.254 257.264 169.866 257.178 170.465C256.985 171.418 256.42 172.256 255.609 172.795Z" fill="#60917F"/>
<path d="M248.764 160.976C246.1 160.976 243.495 161.766 241.28 163.247C239.065 164.727 237.338 166.831 236.318 169.292C235.299 171.754 235.032 174.462 235.552 177.076C236.071 179.689 237.354 182.089 239.238 183.973C241.123 185.857 243.523 187.14 246.136 187.66C248.749 188.18 251.458 187.913 253.919 186.893C256.381 185.874 258.485 184.147 259.965 181.932C261.446 179.717 262.236 177.112 262.236 174.447C262.236 172.679 261.887 170.927 261.21 169.292C260.533 167.658 259.541 166.173 258.29 164.922C257.039 163.671 255.554 162.678 253.919 162.002C252.285 161.325 250.533 160.976 248.764 160.976ZM248.764 186.908C246.3 186.908 243.89 186.178 241.841 184.808C239.792 183.44 238.195 181.493 237.252 179.216C236.309 176.939 236.062 174.434 236.543 172.016C237.024 169.6 238.21 167.379 239.953 165.636C241.696 163.894 243.916 162.707 246.333 162.226C248.75 161.745 251.256 161.992 253.533 162.935C255.809 163.879 257.756 165.476 259.125 167.525C260.494 169.574 261.225 171.983 261.225 174.447C261.222 177.751 259.908 180.919 257.571 183.255C255.236 185.591 252.068 186.905 248.764 186.908Z" fill="#60917F"/>
<path d="M243.306 172.763C243.864 172.763 244.317 172.311 244.317 171.752C244.317 171.195 243.864 170.742 243.306 170.742C242.748 170.742 242.296 171.195 242.296 171.752C242.296 172.311 242.748 172.763 243.306 172.763Z" fill="#60917F"/>
<path d="M287.593 107.997H249.556C248.431 107.997 247.519 108.909 247.519 110.035V148.071C247.519 149.197 248.431 150.109 249.556 150.109H287.593C288.718 150.109 289.63 149.197 289.63 148.071V110.035C289.63 108.909 288.718 107.997 287.593 107.997Z" fill="white"/>
<path d="M271.632 126.788C271.439 126.788 271.257 126.826 271.084 126.883C271.42 126.561 271.632 126.109 271.632 125.606C271.632 124.628 270.838 123.833 269.859 123.833C268.88 123.833 268.086 124.628 268.086 125.606C268.086 126.109 268.298 126.561 268.634 126.883C268.46 126.826 268.279 126.788 268.086 126.788C267.894 126.788 267.713 126.826 267.539 126.883C267.875 126.561 268.086 126.109 268.086 125.606C268.086 124.628 267.293 123.833 266.314 123.833C265.335 123.833 264.541 124.628 264.541 125.606C264.541 126.109 264.753 126.561 265.089 126.883C264.916 126.826 264.734 126.788 264.541 126.788C263.563 126.788 262.769 127.581 262.769 128.561C262.769 129.54 263.563 130.333 264.541 130.333C264.734 130.333 264.916 130.295 265.089 130.238C264.753 130.561 264.541 131.012 264.541 131.515C264.541 132.494 265.335 133.288 266.314 133.288C267.293 133.288 268.086 132.494 268.086 131.515C268.086 131.012 267.875 130.561 267.539 130.238C267.713 130.295 267.894 130.333 268.086 130.333C268.279 130.333 268.46 130.295 268.634 130.238C268.298 130.561 268.086 131.012 268.086 131.515C268.086 132.494 268.88 133.288 269.859 133.288C270.838 133.288 271.632 132.494 271.632 131.515C271.632 131.012 271.42 130.561 271.084 130.238C271.257 130.295 271.439 130.333 271.632 130.333C272.611 130.333 273.405 129.54 273.405 128.561C273.405 127.581 272.611 126.788 271.632 126.788ZM266.314 129.742C266.121 129.742 265.94 129.781 265.766 129.838C266.102 129.515 266.314 129.064 266.314 128.561C266.314 128.058 266.102 127.607 265.766 127.284C265.94 127.34 266.121 127.379 266.314 127.379C266.506 127.379 266.688 127.34 266.862 127.284C266.525 127.607 266.314 128.058 266.314 128.561C266.314 129.064 266.525 129.515 266.862 129.838C266.688 129.781 266.506 129.742 266.314 129.742ZM269.859 129.742C269.667 129.742 269.485 129.781 269.312 129.838C269.648 129.515 269.859 129.064 269.859 128.561C269.859 128.058 269.648 127.607 269.312 127.284C269.485 127.34 269.667 127.379 269.859 127.379C270.052 127.379 270.233 127.34 270.407 127.284C270.071 127.607 269.859 128.058 269.859 128.561C269.859 129.064 270.071 129.515 270.407 129.838C270.233 129.781 270.052 129.742 269.859 129.742Z" fill="#60917F"/>
<path d="M280.914 128.561C282.402 126.415 283.607 124.272 284.455 122.226C286.305 117.764 286.262 114.244 284.331 112.315C282.402 110.385 278.883 110.341 274.42 112.192C274.121 112.316 273.82 112.448 273.517 112.588C273.193 112.238 272.734 112.016 272.221 112.016C271.242 112.016 270.449 112.81 270.449 113.789C270.449 113.924 270.467 114.055 270.495 114.18C269.695 114.655 268.891 115.173 268.085 115.732C265.939 114.244 263.796 113.039 261.75 112.191C257.288 110.341 253.768 110.385 251.839 112.314C249.908 114.244 249.865 117.764 251.715 122.226C251.839 122.525 251.972 122.826 252.111 123.129C251.763 123.453 251.541 123.912 251.541 124.425C251.541 125.404 252.334 126.197 253.313 126.197C253.448 126.197 253.578 126.179 253.704 126.151C254.179 126.95 254.698 127.755 255.256 128.561C253.768 130.707 252.563 132.85 251.715 134.895C249.865 139.358 249.908 142.878 251.839 144.807C252.825 145.793 254.226 146.287 255.957 146.287C257.612 146.287 259.569 145.835 261.751 144.93C263.796 144.082 265.939 142.877 268.086 141.389C270.231 142.877 272.375 144.082 274.421 144.93C276.602 145.835 278.559 146.287 280.215 146.287C281.945 146.287 283.346 145.793 284.333 144.807C286.263 142.878 286.307 139.357 284.456 134.895C283.607 132.85 282.402 130.707 280.914 128.561ZM271.131 115.177C271.432 115.414 271.808 115.562 272.221 115.562C273.2 115.562 273.994 114.769 273.994 113.789C273.994 113.75 273.985 113.712 273.982 113.674C274.28 113.536 274.578 113.405 274.872 113.282C276.895 112.444 278.709 112.023 280.204 112.023C281.616 112.023 282.745 112.398 283.495 113.149C285.042 114.696 284.994 117.839 283.362 121.773C282.59 123.634 281.513 125.58 280.183 127.538C278.699 125.519 276.971 123.512 275.052 121.593C273.133 119.674 271.125 117.946 269.107 116.461C269.784 116.002 270.459 115.574 271.131 115.177ZM279.467 128.561C277.967 130.638 276.198 132.712 274.217 134.693C272.236 136.674 270.162 138.442 268.085 139.943C266.008 138.443 263.934 136.674 261.953 134.693C259.972 132.712 258.203 130.638 256.703 128.561C258.203 126.484 259.972 124.409 261.953 122.429C263.934 120.448 266.008 118.68 268.085 117.179C270.162 118.679 272.236 120.448 274.217 122.429C276.198 124.409 277.967 126.484 279.467 128.561ZM254.702 125.515C254.939 125.214 255.086 124.838 255.086 124.425C255.086 123.446 254.293 122.652 253.313 122.652C253.274 122.652 253.236 122.661 253.198 122.664C253.061 122.366 252.929 122.068 252.807 121.773C251.176 117.839 251.127 114.696 252.674 113.149C253.425 112.398 254.553 112.023 255.966 112.023C257.461 112.023 259.275 112.444 261.297 113.282C263.158 114.054 265.105 115.133 267.063 116.461C265.045 117.946 263.037 119.674 261.117 121.593C259.199 123.512 257.471 125.519 255.986 127.538C255.526 126.861 255.098 126.186 254.702 125.515ZM261.297 143.839C257.364 145.47 254.221 145.518 252.674 143.972C251.127 142.425 251.176 139.282 252.807 135.348C253.579 133.487 254.657 131.541 255.986 129.583C257.471 131.601 259.199 133.609 261.117 135.528C263.037 137.447 265.045 139.175 267.063 140.66C265.105 141.988 263.159 143.068 261.297 143.839ZM283.496 143.972C281.949 145.518 278.807 145.471 274.872 143.839C273.011 143.068 271.065 141.988 269.107 140.661C271.125 139.176 273.133 137.448 275.052 135.529C276.971 133.61 278.699 131.602 280.183 129.584C281.513 131.541 282.59 133.488 283.362 135.348C284.994 139.282 285.042 142.425 283.496 143.972Z" fill="#60917F"/>
<path d="M133.722 246.558H127.295C126.17 246.558 125.258 247.471 125.258 248.596V255.022C125.258 256.147 126.17 257.06 127.295 257.06H133.722C134.847 257.06 135.759 256.147 135.759 255.022V248.596C135.759 247.471 134.847 246.558 133.722 246.558Z" fill="white"/>
<path d="M129.696 251.98C129.9 251.98 131.761 251.979 131.907 251.98C131.907 251.98 131.768 251.704 131.737 251.636C131.535 251.621 129.821 251.668 129.587 251.617C129.448 251.532 129.137 251.348 129.001 251.266L128.887 251.494L129.696 251.98Z" fill="#60917F"/>
<path d="M132.045 252.256C131.999 252.256 129.793 252.256 129.657 252.256C129.632 252.256 129.608 252.249 129.587 252.237C129.427 252.142 128.916 251.834 128.763 251.743L127.058 255.151C127.047 255.172 127.042 255.196 127.043 255.219C127.044 255.243 127.051 255.265 127.063 255.286C127.076 255.305 127.093 255.322 127.114 255.334C127.134 255.345 127.157 255.351 127.181 255.351H133.371C133.394 255.351 133.418 255.345 133.438 255.334C133.458 255.322 133.476 255.305 133.488 255.286C133.5 255.265 133.507 255.243 133.508 255.219C133.509 255.196 133.504 255.172 133.493 255.151C133.493 255.151 132.05 252.251 132.045 252.256Z" fill="#60917F"/>
<path d="M131.606 251.361L130.398 248.961C130.385 248.94 130.368 248.923 130.346 248.91C130.325 248.898 130.3 248.892 130.276 248.892C130.251 248.892 130.227 248.898 130.205 248.91C130.184 248.923 130.166 248.94 130.153 248.961L129.124 251.019C129.259 251.101 129.558 251.278 129.695 251.361H131.606Z" fill="#60917F"/>
<path d="M126.491 249.76L128.763 251.125L128.887 250.877L126.631 249.524C126.6 249.506 126.562 249.501 126.528 249.511C126.493 249.519 126.463 249.542 126.445 249.573C126.427 249.604 126.421 249.641 126.43 249.676C126.438 249.711 126.46 249.742 126.491 249.76Z" fill="#60917F"/>
<path d="M128.649 251.353L126.631 250.142C126.6 250.125 126.562 250.12 126.528 250.13C126.493 250.138 126.463 250.161 126.445 250.192C126.427 250.223 126.421 250.26 126.43 250.295C126.438 250.33 126.46 250.361 126.491 250.38L128.525 251.599L128.649 251.353Z" fill="#60917F"/>
<path d="M131.911 251.372C131.915 251.383 131.987 251.521 131.987 251.527L134.126 250.768V249.916L131.911 251.372Z" fill="#60917F"/>
<path d="M132.471 252.492L134.128 253.676V252.836L132.338 252.225L132.471 252.492Z" fill="#60917F"/>
<path d="M134.126 251.667V251.065L132.233 251.668L134.126 251.667Z" fill="#60917F"/>
<path d="M134.127 252.538V251.942L132.239 251.943L134.127 252.538Z" fill="#60917F"/>
<path d="M120.785 256.185H117.506C116.756 256.185 116.147 256.793 116.147 257.543V260.822C116.147 261.572 116.756 262.18 117.506 262.18H120.785C121.535 262.18 122.143 261.572 122.143 260.822V257.543C122.143 256.793 121.535 256.185 120.785 256.185Z" fill="white"/>
<path d="M119.112 260.429C119.048 260.429 118.996 260.477 118.996 260.536V260.753C118.996 260.812 119.048 260.86 119.112 260.86C119.175 260.86 119.226 260.812 119.226 260.753V260.536C119.226 260.477 119.175 260.429 119.112 260.429Z" fill="#60917F"/>
<path d="M119.112 259.78C119.048 259.78 118.996 259.828 118.996 259.887V260.104C118.996 260.163 119.048 260.211 119.112 260.211C119.175 260.211 119.226 260.163 119.226 260.104V259.887C119.226 259.828 119.175 259.78 119.112 259.78Z" fill="#60917F"/>
<path d="M119.112 259.131C119.048 259.131 118.996 259.18 118.996 259.239V259.455C118.996 259.514 119.048 259.563 119.112 259.563C119.175 259.563 119.226 259.514 119.226 259.455V259.239C119.226 259.18 119.175 259.131 119.112 259.131Z" fill="#60917F"/>
<path d="M119.112 258.482C119.048 258.482 118.996 258.531 118.996 258.59V258.806C118.996 258.865 119.048 258.914 119.112 258.914C119.175 258.914 119.226 258.865 119.226 258.806V258.59C119.226 258.531 119.175 258.482 119.112 258.482Z" fill="#60917F"/>
<path d="M119.112 257.833C119.048 257.833 118.996 257.881 118.996 257.941V258.157C118.996 258.216 119.048 258.265 119.112 258.265C119.175 258.265 119.226 258.216 119.226 258.157V257.941C119.226 257.881 119.175 257.833 119.112 257.833Z" fill="#60917F"/>
<path d="M119.112 257.184C119.048 257.184 118.996 257.233 118.996 257.292V257.508C118.996 257.567 119.048 257.616 119.112 257.616C119.175 257.616 119.226 257.567 119.226 257.508V257.292C119.226 257.233 119.175 257.184 119.112 257.184Z" fill="#60917F"/>
<path d="M121.013 258.039C120.975 258.021 120.93 258.023 120.895 258.046L119.516 258.934C119.485 258.954 119.467 258.988 119.467 259.023C119.467 259.058 119.485 259.092 119.516 259.111L120.895 260C120.914 260.013 120.937 260.019 120.96 260.019C120.978 260.019 120.996 260.015 121.013 260.006C121.051 259.987 121.075 259.951 121.075 259.911V258.135C121.075 258.094 121.051 258.058 121.013 258.039Z" fill="#60917F"/>
<path d="M118.704 258.934L117.326 258.046C117.29 258.023 117.245 258.021 117.207 258.039C117.169 258.058 117.146 258.094 117.146 258.135V259.911C117.146 259.951 117.169 259.987 117.207 260.006C117.224 260.015 117.242 260.019 117.26 260.019C117.283 260.019 117.306 260.013 117.326 260L118.704 259.111C118.735 259.092 118.754 259.058 118.754 259.023C118.754 258.988 118.735 258.954 118.704 258.934Z" fill="#60917F"/>
<path d="M356.932 85.5823C358.995 85.5823 360.668 83.9098 360.668 81.8466C360.668 79.7834 358.995 78.1108 356.932 78.1108C354.869 78.1108 353.196 79.7834 353.196 81.8466C353.196 83.9098 354.869 85.5823 356.932 85.5823Z" fill="white"/>
</g>
<defs>
<linearGradient id="paint0_linear_1_9037" x1="289.01" y1="99.1668" x2="152.146" y2="239.426" gradientUnits="userSpaceOnUse">
<stop stop-color="#BFDEEB"/>
<stop offset="0.247468" stop-color="#B7D2E6"/>
<stop offset="0.532909" stop-color="#79AEFF"/>
<stop offset="0.706666" stop-color="#9BC1E7"/>
<stop offset="0.877982" stop-color="#FFD363"/>
</linearGradient>
<linearGradient id="paint1_linear_1_9037" x1="317.872" y1="198.23" x2="317.872" y2="224.934" gradientUnits="userSpaceOnUse">
<stop stop-color="#CADCFF"/>
<stop offset="1" stop-color="#63A1FF"/>
</linearGradient>
<clipPath id="clip0_1_9037">
<rect width="595" height="357.272" fill="white"/>
</clipPath>
</defs>
</svg>
