<svg width="64" height="64" viewBox="0 0 64 64" fill="none" xmlns="http://www.w3.org/2000/svg">
<circle cx="32" cy="32" r="32" fill="#F6F6F6"/>
<path d="M47.142 25.8734C46.3908 24.2113 45.3532 22.712 44.0582 21.4173C41.2105 18.5697 37.4241 17.001 33.3963 17.001C25.6469 17.001 19.2466 22.8774 18.4116 30.4076L17.3337 29.3297C16.8002 28.7955 15.9345 28.7959 15.4006 29.3297C14.8665 29.8635 14.8665 30.7293 15.4006 31.2631L18.8662 34.729C19.1225 34.9853 19.4705 35.1296 19.8327 35.1296C20.195 35.1296 20.5429 34.9857 20.7993 34.7293L24.2652 31.2634C24.7994 30.7293 24.7994 29.8639 24.2652 29.33C23.7317 28.7962 22.8653 28.7962 22.3321 29.33L21.1554 30.5068C21.9312 24.4407 27.1231 19.7355 33.3966 19.7355C36.6937 19.7355 39.7936 21.0195 42.1251 23.3511C43.186 24.4119 44.036 25.6396 44.6508 26.9998C45.374 28.6 45.7404 30.3092 45.7404 32.0799C45.7404 38.8867 40.203 44.4244 33.3966 44.4244C30.0999 44.4244 27.0007 43.141 24.6695 40.8105C24.1353 40.2766 23.2699 40.277 22.7361 40.8108C22.2022 41.3447 22.2022 42.2104 22.7364 42.7442C25.5844 45.5908 29.3702 47.1586 33.3966 47.1586C41.7105 47.1586 48.4745 40.3942 48.4745 32.0799C48.4745 29.9179 48.0261 27.83 47.142 25.8734Z" fill="black"/>
<path d="M36.8639 39.0861C36.5143 39.0861 36.1639 38.9525 35.8974 38.6859L32.3908 35.1793C32.1345 34.923 31.9902 34.5751 31.9902 34.2125L31.9902 25.244C31.9902 24.4891 32.6023 23.877 33.3573 23.877C34.1123 23.877 34.7244 24.4891 34.7244 25.244L34.7244 33.6461L37.8304 36.7522C38.3646 37.2864 38.3646 38.1517 37.8304 38.6856C37.5638 38.9525 37.2135 39.0861 36.8639 39.0861Z" fill="black"/>
</svg>
