<svg width="18" height="20" viewBox="0 0 18 20" fill="none" xmlns="http://www.w3.org/2000/svg">
<path d="M4.016 19.056C4.016 18.84 3.992 18.744 3.896 18.744L3.344 19.008C3.344 18.888 3.272 18.816 3.152 18.768L2.96 18.744C2.792 18.744 2.72 18.768 2.48 18.912C2.408 18.768 2.312 18.6 2.24 18.456C1.616 17.256 0.968 15.456 0.68 14.664C0.536 14.256 0.392 13.416 0.224 12.144C0.416 12.264 0.56 12.312 0.632 12.312C0.728 12.312 0.848 12.144 0.944 11.808C0.992 11.88 1.088 11.904 1.208 11.904C1.28 11.904 1.376 11.88 1.424 11.808L1.808 11.232L2.24 11.376H2.264C2.312 11.376 2.384 11.304 2.504 11.232C2.624 11.16 2.72 11.112 2.792 11.112L2.864 11.136C3.248 11.328 3.512 11.664 3.632 12.192C3.92 13.416 4.184 14.016 4.496 14.016C4.76 14.016 5.12 13.704 5.504 13.104C5.888 12.504 6.272 11.688 6.704 10.704C6.728 10.896 6.752 10.992 6.8 10.992C6.944 10.992 7.304 10.152 8.192 8.736C9.512 6.6 12.776 2.496 13.616 1.92C14.24 1.488 14.72 1.08 15.056 0.719999C15.008 0.959999 14.96 1.128 14.96 1.2C14.96 1.272 15.008 1.296 15.056 1.296L15.728 0.959999V1.056C15.728 1.176 15.752 1.248 15.824 1.248C15.92 1.248 16.304 0.863999 16.352 0.719999L16.304 1.056L17.12 0.576L16.928 1.008C17.168 0.839999 17.36 0.743999 17.48 0.743999C17.6 0.743999 17.672 0.935999 17.672 1.056C17.672 1.248 17.504 1.512 17.24 1.848C16.952 2.232 16.232 2.976 14.072 5.448C13.136 6.504 8.984 12.144 8.192 13.488L6.704 16.008C6.056 17.088 5.648 17.784 5.432 18.048C5.216 18.312 4.952 18.576 4.64 18.816L4.424 18.696L4.232 18.816L4.016 19.056Z" fill="black"/>
</svg>
