<svg width="23" height="23" viewBox="0 0 23 23" fill="none" xmlns="http://www.w3.org/2000/svg">
<g clip-path="url(#clip0_1469_32)">
<path d="M21.6666 19.6742L19.9285 17.938C19.5649 17.5748 19.4902 17.0148 19.7501 16.5735C20.9394 14.5573 21.4763 12.1151 21.0464 9.52868C20.3006 5.03466 16.5883 1.48085 12.064 0.915704C5.24088 0.0654377 -0.516934 5.81704 0.334251 12.6327C0.900009 17.1522 4.45596 20.8605 8.95484 21.6055C11.5441 22.0349 13.9889 21.4986 16.0073 20.3106C16.449 20.0509 17.0114 20.1273 17.3732 20.4888L19.1928 22.3064C19.5445 22.6594 20.0067 22.8342 20.4688 22.8342C20.9751 22.8342 21.4814 22.6238 21.8432 22.2012C22.4685 21.4714 22.3461 20.3564 21.6649 19.6759L21.6666 19.6742ZM3.95816 12.4545C3.18343 7.77214 7.1981 3.7618 11.8856 4.5357C14.7262 5.00411 17.0165 7.29355 17.4854 10.1295C18.2601 14.8119 14.2454 18.8222 9.55797 18.0483C6.71729 17.5799 4.42708 15.2905 3.95816 12.4545Z" fill="black"/>
</g>
<defs>
<clipPath id="clip0_1469_32">
<rect width="22" height="22" fill="white" transform="translate(0.251465 0.832031)"/>
</clipPath>
</defs>
</svg>
