<svg width="1920" height="1419" viewBox="0 0 1920 1419" fill="none" xmlns="http://www.w3.org/2000/svg">
<path d="M1134.72 631.693C1265.88 418.906 1636.7 78.7204 1921.72 52.8659L2004.59 0.000211351L1934.12 53.9247C1931.38 56.0225 1930.47 59.7481 1931.94 62.871L2004.59 451.679C1650.91 441.76 1316.99 1102.93 1127.68 1273.18C953.271 1430.02 341.198 1444.04 104.373 1388.47L71.6715 1384.26L28.07 1378.65L1.59782 1375.25C-4.69464 1372.77 -9.7132 1367.84 -12.3125 1361.6L-17.9087 1348.15L-22.3151 1324.57L-94.323 939.185C113.574 965.925 343.939 975.551 427.664 975.46C701.926 975.164 989.518 867.252 1134.72 631.693Z" fill="url(#paint0_linear_1_5393)"/>
<defs>
<linearGradient id="paint0_linear_1_5393" x1="1805.77" y1="1.01889" x2="131.518" y2="1496.45" gradientUnits="userSpaceOnUse">
<stop offset="0.261399" stop-color="#DCF0FF"/>
<stop offset="0.483967" stop-color="#E9F5FF"/>
<stop offset="1" stop-color="#DCF0FF"/>
</linearGradient>
</defs>
</svg>
