<svg width="22" height="22" viewBox="0 0 22 22" fill="none" xmlns="http://www.w3.org/2000/svg">
<path d="M9.5045 21.5284C9.4671 21.4511 9.38407 21.4712 9.32448 21.4556C8.18761 21.1559 7.44121 20.2084 7.4223 19.0339C7.40874 18.1957 7.44532 17.3571 7.40011 16.5189C7.35736 15.7226 7.07171 15.0127 6.64425 14.3529C6.17323 13.6261 5.62042 12.9585 5.12186 12.2511C4.11323 10.8193 3.53822 9.23822 3.56452 7.48125C3.60933 4.51981 4.95992 2.33737 7.58753 0.959832C8.32407 0.573825 9.11897 0.372806 9.941 0.270857C9.9784 0.266335 10.0269 0.284012 10.0446 0.228516H11.3339C11.4379 0.311143 11.5686 0.283601 11.6845 0.300866C13.7704 0.608356 15.4095 1.64346 16.6146 3.35809C17.2431 4.2522 17.6323 5.25483 17.7799 6.34297C18.0709 8.49293 17.5608 10.4472 16.3203 12.2149C15.8234 12.9228 15.2957 13.6093 14.8017 14.3192C14.2484 15.1138 13.9895 16.0047 13.9981 16.9748C14.0043 17.6679 14.0063 18.361 13.9969 19.0537C13.9796 20.3001 13.1087 21.2932 11.8736 21.4906C11.8584 21.493 11.8469 21.5148 11.8333 21.528H9.50409L9.5045 21.5284ZM10.7108 15.7461C11.2377 15.7461 11.7643 15.7436 12.2912 15.7481C12.3976 15.749 12.4445 15.7268 12.4683 15.6088C12.5789 15.0641 12.7717 14.5486 13.0285 14.0549C13.4498 13.2451 14.0191 12.5372 14.567 11.8157C15.4494 10.6536 16.0836 9.39608 16.1822 7.90837C16.2447 6.96493 16.1354 6.04904 15.7371 5.19234C14.8991 3.39016 13.507 2.26831 11.5267 1.97315C9.48683 1.66936 7.75399 2.33079 6.47081 3.92867C4.89991 5.88461 4.87895 8.0506 5.88306 10.2725C6.23036 11.0408 6.76221 11.6957 7.26982 12.3616C8.02937 13.3577 8.7244 14.3862 8.96155 15.6499C8.98334 15.7654 9.05773 15.7461 9.13089 15.7461C9.65781 15.7465 10.1843 15.7461 10.7112 15.7461H10.7108ZM10.7125 17.4097C10.2205 17.4097 9.72809 17.4126 9.23611 17.4073C9.12349 17.406 9.08116 17.4307 9.0828 17.5536C9.0902 18.0457 9.08157 18.5382 9.08814 19.0302C9.09472 19.503 9.44326 19.8544 9.9188 19.8614C10.4453 19.8697 10.9722 19.8692 11.4992 19.8614C11.9763 19.8544 12.3249 19.5079 12.3327 19.0327C12.3409 18.5406 12.3315 18.0481 12.3384 17.5561C12.3401 17.4377 12.3056 17.4052 12.1888 17.4064C11.6968 17.4126 11.2049 17.4089 10.7125 17.4089V17.4097Z" fill="#1970EB"/>
<path d="M0.0654297 6.55208C0.633862 6.55208 1.20229 6.5566 1.77032 6.54879C1.90595 6.54673 1.94335 6.5825 1.94048 6.71857C1.93143 7.16911 1.93308 7.61966 1.94007 8.07021C1.94171 8.18819 1.90883 8.21984 1.79128 8.21861C1.21627 8.21244 0.64085 8.21573 0.0654297 8.21573V6.55167V6.55208Z" fill="#F0A209"/>
<path d="M21.3627 8.21527C20.7943 8.21527 20.2259 8.21075 19.6579 8.21856C19.5222 8.22062 19.4848 8.18485 19.4877 8.04878C19.4967 7.59824 19.4951 7.14769 19.4881 6.69714C19.4865 6.57916 19.5193 6.54751 19.6369 6.54874C20.2119 6.55491 20.7873 6.55162 21.3627 6.55162V8.21568V8.21527Z" fill="#F0A209"/>
<path d="M20.5717 11.5377C20.5585 11.564 20.5429 11.5948 20.5273 11.6253C20.3222 12.0326 20.113 12.438 19.9153 12.849C19.8598 12.9642 19.8138 12.9789 19.7003 12.9202C19.2042 12.6628 18.704 12.4125 18.2022 12.1671C18.0937 12.114 18.0879 12.068 18.1418 11.9652C18.353 11.5615 18.5569 11.1542 18.7546 10.7439C18.8056 10.6378 18.8512 10.621 18.9552 10.6748C19.4582 10.935 19.9646 11.1879 20.4693 11.4444C20.5092 11.4649 20.5676 11.4678 20.5713 11.5377H20.5717Z" fill="#F0A209"/>
<path d="M19.8088 1.69309C19.87 1.67418 19.8774 1.72885 19.8935 1.76092C20.1113 2.19214 20.3242 2.62543 20.5453 3.05501C20.5885 3.13846 20.5729 3.17587 20.4956 3.21451C19.9892 3.4665 19.4833 3.7185 18.9798 3.97583C18.9025 4.0153 18.8643 4.01859 18.8215 3.93226C18.6074 3.49898 18.3883 3.06857 18.1688 2.63776C18.1335 2.56828 18.1442 2.52964 18.2178 2.49306C18.7311 2.2386 19.2424 1.98085 19.7541 1.72351C19.7726 1.71405 19.7903 1.70337 19.8084 1.69309H19.8088Z" fill="#F0A209"/>
<path d="M1.62513 12.9639C1.55362 12.9762 1.54786 12.9145 1.52854 12.8767C1.31235 12.4517 1.10109 12.0245 0.88243 11.6011C0.837218 11.514 0.864345 11.4877 0.942438 11.4486C1.46196 11.1913 1.97943 10.9294 2.49525 10.6647C2.57457 10.624 2.61115 10.6285 2.65267 10.7132C2.86228 11.1407 3.07724 11.5658 3.29467 11.9896C3.33331 12.0648 3.33906 12.1068 3.25193 12.1499C2.72665 12.4105 2.20384 12.6761 1.68021 12.94C1.66171 12.9495 1.64239 12.9561 1.62513 12.9635V12.9639Z" fill="#F0A209"/>
<path d="M2.53554 4.01301C2.49321 3.99369 2.46197 3.98012 2.43114 3.9645C1.94492 3.71909 1.46115 3.46792 0.970812 3.23072C0.847508 3.17111 0.849563 3.11849 0.904227 3.01326C1.11426 2.60916 1.31976 2.2026 1.51993 1.79398C1.56473 1.70272 1.59596 1.67271 1.69995 1.72657C2.19604 1.9839 2.69625 2.23343 3.19728 2.48132C3.28688 2.52571 3.29715 2.56805 3.25194 2.65603C3.03616 3.07286 2.82695 3.49299 2.61569 3.9123C2.59473 3.95423 2.58116 4.00109 2.53513 4.01342L2.53554 4.01301Z" fill="#F0A209"/>
<path d="M10.7584 10.8371C10.5299 10.8371 10.3009 10.8313 10.0724 10.8395C9.9565 10.8436 9.92362 10.8141 9.92691 10.6915C9.94664 10.0268 10.2113 9.47598 10.6708 9.00652C10.9906 8.68012 11.3342 8.37715 11.6355 8.03225C11.7272 7.92743 11.8098 7.81808 11.885 7.70174C12.2532 7.13568 12.1916 6.5244 11.7181 6.06399C11.2689 5.627 10.5253 5.55753 10.0157 5.90037C9.66222 6.13839 9.44479 6.46191 9.40163 6.88697C9.38848 7.01811 9.33875 7.04072 9.2212 7.03866C8.77771 7.03209 8.33423 7.03085 7.89074 7.03866C7.75388 7.04113 7.71853 7.00537 7.72346 6.8656C7.77278 5.49587 8.92568 4.23795 10.2828 4.05379C11.3005 3.91567 12.178 4.19438 12.9059 4.90514C13.9544 5.92874 14.0736 7.48674 13.2311 8.69656C12.8669 9.21946 12.3909 9.63383 11.9487 10.0811C11.7609 10.271 11.5825 10.4642 11.5915 10.7561C11.5948 10.8634 11.52 10.8354 11.4645 10.8358C11.229 10.8379 10.9943 10.8371 10.7584 10.8371Z" fill="#1970EB"/>
<path d="M9.92576 12.9003C9.92576 12.6787 9.9311 12.4567 9.92329 12.2352C9.91959 12.1246 9.94137 12.0789 10.0667 12.081C10.5238 12.0888 10.9812 12.0876 11.4383 12.0818C11.5489 12.0806 11.5941 12.0995 11.592 12.2249C11.5842 12.689 11.5871 13.1531 11.5908 13.6176C11.5916 13.7097 11.5776 13.7516 11.4695 13.7504C10.9985 13.7442 10.5275 13.7438 10.0565 13.7504C9.93932 13.7521 9.92082 13.7085 9.9237 13.6061C9.93028 13.3706 9.92576 13.135 9.92576 12.8995H9.92493L9.92576 12.9003Z" fill="#1970EB"/>
</svg>
