<svg width="75" height="76" viewBox="0 0 75 76" fill="none" xmlns="http://www.w3.org/2000/svg">
<g filter="url(#filter0_d_635_461)">
<rect x="5" y="3" width="65" height="66" rx="5" fill="white"/>
<rect x="5.5" y="3.5" width="64" height="65" rx="4.5" stroke="black"/>
</g>
<path d="M40.7083 11.0566C41.6374 10.881 42.1737 11.1352 42.9595 11.5281C47.1108 13.5945 51.1141 16.5069 55.2654 18.638C56.9527 19.863 56.361 22.8586 54.3038 23.2099C53.7953 23.2977 52.9262 23.025 52.672 23.3532L33.1731 57.2197C28.0696 65.0969 16.6375 59.5449 19.4342 50.8032C25.9662 39.0336 32.8588 27.4536 39.5479 15.7672C39.6635 15.4205 39.0995 14.9444 38.9331 14.4451C38.4616 13.0537 39.2012 11.3432 40.7129 11.0566H40.7083ZM41.2584 12.7301C40.3939 12.7717 40.2413 13.9875 41.0365 14.3434L53.2036 21.37C54.1559 21.9479 54.9788 20.8014 54.2068 20.034L42.0396 13.0074C41.8177 12.9011 41.5034 12.7162 41.2584 12.7254V12.7301ZM51.1511 22.1467L41.2537 16.4791L41.0688 16.6317L21.3065 50.8957C19.0089 55.8143 24.0616 60.9502 29.0219 58.722C30.7369 57.95 31.4118 56.6695 32.3318 55.1533C38.7806 44.5116 44.5729 33.4493 51.0124 22.7985L51.1557 22.1467H51.1511Z" fill="#060606"/>
<path d="M36.4093 28.1192C36.4093 28.1192 36.4602 28.3365 36.5711 28.4521C38.8686 30.8605 40.3387 28.9467 42.7795 29.2379C44.097 29.3951 44.5176 30.4075 44.0415 31.5863L29.9097 56.0639C26.9049 59.7899 20.9554 56.5123 22.5641 51.9358C26.9881 43.9569 31.7079 36.1351 36.1782 28.184C36.1643 28.073 36.3862 28.1007 36.4047 28.1146L36.4093 28.1192ZM34.3429 36.7315C35.4616 37.8271 37.0888 36.0704 35.9748 35.0442C34.8607 34.0179 33.2704 35.6821 34.3429 36.7315ZM35.3969 39.4497C34.8884 39.1307 34.1395 39.8981 34.6804 40.3326C35.3738 40.8827 35.7806 39.6947 35.3969 39.4497ZM31.2272 46.9524C31.6663 47.3962 32.4615 46.6982 31.9761 46.1434C31.5785 45.6858 30.7279 46.4439 31.2272 46.9524Z" fill="#020202"/>
<defs>
<filter id="filter0_d_635_461" x="0.5" y="0.5" width="74" height="75" filterUnits="userSpaceOnUse" color-interpolation-filters="sRGB">
<feFlood flood-opacity="0" result="BackgroundImageFix"/>
<feColorMatrix in="SourceAlpha" type="matrix" values="0 0 0 0 0 0 0 0 0 0 0 0 0 0 0 0 0 0 127 0" result="hardAlpha"/>
<feMorphology radius="2" operator="dilate" in="SourceAlpha" result="effect1_dropShadow_635_461"/>
<feOffset dy="2"/>
<feGaussianBlur stdDeviation="1.25"/>
<feComposite in2="hardAlpha" operator="out"/>
<feColorMatrix type="matrix" values="0 0 0 0 0.435294 0 0 0 0 0.470588 0 0 0 0 0.984314 0 0 0 1 0"/>
<feBlend mode="normal" in2="BackgroundImageFix" result="effect1_dropShadow_635_461"/>
<feBlend mode="normal" in="SourceGraphic" in2="effect1_dropShadow_635_461" result="shape"/>
</filter>
</defs>
</svg>
