<svg width="75" height="76" viewBox="0 0 75 76" fill="none" xmlns="http://www.w3.org/2000/svg">
<g filter="url(#filter0_d_635_458)">
<rect x="5" y="3" width="65" height="66" rx="5" fill="white"/>
<rect x="5.5" y="3.5" width="64" height="65" rx="4.5" stroke="black"/>
</g>
<path d="M38.6947 38.241C40.4646 38.4095 42.2301 38.6344 43.9661 39.0198C46.6528 39.6166 52.125 41.2486 52.4099 44.5564C52.6089 46.8731 52.2549 49.4711 52.4055 51.8183C52.0497 55.4039 45.6249 57.0377 42.7293 57.5566C37.6533 58.4662 31.9383 58.4635 26.8623 57.5566C24.0473 57.0538 17.5329 55.4003 17.1861 51.9079C16.9755 49.7848 17.2202 47.5067 17.0158 45.2671C16.6556 41.3212 22.5328 39.674 25.5189 39.0028C26.4106 38.802 27.3435 38.7196 28.2057 38.4632C29.0024 36.8949 29.9075 35.3848 31.0304 34.0289L39.4609 25.6056C39.5209 25.5384 39.4968 25.4972 39.4609 25.4282C39.2924 25.1011 37.9894 24.2067 38.0763 23.8769L42.2794 19.6415C42.3466 19.5814 42.3879 19.6056 42.4569 19.6415C42.7454 19.7902 43.7913 21.1587 44.0135 21.1193L50.1193 15.0279C53.894 11.6779 59.3016 17.2684 55.9481 21.0359L50.0288 26.9517C49.9589 27.0485 49.9831 27.1184 50.0288 27.217C50.1695 27.5217 51.1481 28.1705 51.2897 28.4752C51.3354 28.5738 51.3596 28.6437 51.2897 28.7405L47.0624 32.9481C46.8392 32.9875 45.8705 31.6898 45.5944 31.5626C45.4958 31.5169 45.4259 31.4927 45.3292 31.5626L38.6956 38.241H38.6947ZM52.2934 15.8587C51.9726 15.9142 51.6706 16.1293 51.4197 16.3292L45.4259 22.3524L45.5003 22.607L48.6101 25.6881L48.8243 25.5635C50.4984 23.617 52.8607 21.8703 54.4703 19.9166C55.2016 19.0285 55.4695 18.0373 54.7374 17.047C54.1799 16.2933 53.2667 15.6911 52.2943 15.8587H52.2934ZM42.3368 22.2064C42.1011 22.4779 40.6627 23.7344 40.6636 23.9477L40.7084 24.0803L47.0624 30.3491C47.2981 30.0776 48.7365 28.8211 48.7356 28.6078L48.6908 28.4752L42.3368 22.2064ZM40.8133 26.8666L32.3344 35.332C31.4346 36.3904 29.0418 40.2036 29.1888 41.5148C29.2246 41.832 29.2712 41.8347 29.5715 41.806C31.3047 41.6402 34.462 39.674 35.7838 38.5125L44.0297 30.2631L44.0745 30.1305C43.0788 28.9896 41.9622 27.8775 40.8124 26.8657L40.8133 26.8666ZM48.2839 47.1142C49.4328 46.4689 51.3121 45.4822 50.1865 43.9121C48.6961 41.8347 42.896 40.6365 40.4297 40.3157C39.8292 40.2377 37.0932 39.9124 36.7248 40.08C36.516 40.175 35.6942 40.9314 35.3716 41.1464C33.8015 42.1896 30.4246 44.1469 28.5471 43.5061C27.3623 43.101 27.1885 41.6411 27.4027 40.5729C25.0573 41.0505 21.9395 41.66 20.053 43.2148C17.9595 44.9409 19.4535 46.1337 21.219 47.1142C27.3561 50.5233 42.179 50.5403 48.2839 47.1142ZM18.9785 48.0104V51.6399C18.9785 52.3157 20.1211 53.2109 20.6517 53.5515C26.5603 57.3379 42.7634 57.2321 48.7589 53.6393C50.0001 52.8955 50.5934 52.356 50.6176 50.8298C50.6274 50.2419 50.6176 49.6405 50.6176 49.0374C50.6176 48.6691 50.4419 48.3859 50.6131 48.0121L48.3153 49.2534C41.4487 52.3103 27.6912 52.3479 20.8892 49.1028C20.2215 48.7847 19.6291 48.3545 18.9785 48.0112V48.0104Z" fill="black"/>
<path d="M48.2837 47.1143C42.1788 50.5404 27.3559 50.5234 21.2188 47.1143C23.2531 46.3032 25.3842 45.7628 27.5521 45.4267C32.4032 44.673 37.8162 44.6963 42.6547 45.5298C44.5788 45.8614 46.485 46.3588 48.2837 47.1152V47.1143Z" fill="#060606"/>
<defs>
<filter id="filter0_d_635_458" x="0.5" y="0.5" width="74" height="75" filterUnits="userSpaceOnUse" color-interpolation-filters="sRGB">
<feFlood flood-opacity="0" result="BackgroundImageFix"/>
<feColorMatrix in="SourceAlpha" type="matrix" values="0 0 0 0 0 0 0 0 0 0 0 0 0 0 0 0 0 0 127 0" result="hardAlpha"/>
<feMorphology radius="2" operator="dilate" in="SourceAlpha" result="effect1_dropShadow_635_458"/>
<feOffset dy="2"/>
<feGaussianBlur stdDeviation="1.25"/>
<feComposite in2="hardAlpha" operator="out"/>
<feColorMatrix type="matrix" values="0 0 0 0 0.975962 0 0 0 0 0.764473 0 0 0 0 0.187685 0 0 0 1 0"/>
<feBlend mode="normal" in2="BackgroundImageFix" result="effect1_dropShadow_635_458"/>
<feBlend mode="normal" in="SourceGraphic" in2="effect1_dropShadow_635_458" result="shape"/>
</filter>
</defs>
</svg>
