<svg width="75" height="76" viewBox="0 0 75 76" fill="none" xmlns="http://www.w3.org/2000/svg">
<g filter="url(#filter0_d_635_460)">
<rect x="5" y="3" width="65" height="66" rx="5" fill="white"/>
<rect x="5.5" y="3.5" width="64" height="65" rx="4.5" stroke="black"/>
</g>
<path d="M39.3582 13C43.813 13.7626 47.9653 15.2755 51.5185 18.1193C52.2463 18.1234 55.9979 13.1881 57.3431 13H58.1609C59.1198 13.4845 59.6043 13.8014 60.0009 14.84V15.8622L54.8837 21.4844C57.705 24.9988 59.1504 29.053 60.0009 33.4444V38.76C59.5614 39.9437 59.4407 41.2256 59.0809 42.44C56.8688 49.9124 50.9808 55.9476 43.4471 58.08C42.0977 58.4623 40.7136 58.6545 39.3602 59H38.338C37.8187 58.6504 36.5675 58.6606 36.0891 59H34.2491C30.4035 58.17 26.9116 57.0537 23.6793 54.7516C18.2718 50.902 15.2051 45.247 14.0173 38.76V36.92C14.3669 36.4007 14.3567 35.1495 14.0173 34.6711C14.0541 34.207 13.9641 33.6959 14.0173 33.24C15.2112 23.0996 24.2661 14.0324 34.4535 13H39.3582ZM36.2506 14.4924C16.4399 15.1283 8.09656 40.6225 23.7325 52.8585C40.0839 65.6526 63.1862 50.1455 57.6927 30.1304C57.3309 28.8097 54.898 23.259 53.8717 22.6968C53.4689 22.476 52.6102 23.4369 52.6573 23.7027C52.6798 23.8253 53.8717 25.328 54.1068 25.741C66.2753 47.2097 37.555 66.7812 22.0847 49.1887C7.39736 32.4836 27.1671 7.49636 47.262 18.8941C47.677 19.1292 49.1776 20.3212 49.3003 20.3436C49.5538 20.3886 50.6292 19.5606 50.2019 19.0229C49.9831 18.7469 48.4273 17.7881 48.0041 17.5387C44.5204 15.484 40.3088 14.3616 36.2506 14.4924ZM57.2818 14.6724L48.5438 23.3122C47.9244 24.3753 48.6727 25.0602 49.6887 24.4591C50.7069 22.9912 58.2079 16.5389 58.3674 15.5453C58.4942 14.7541 58.0403 14.4454 57.2818 14.6724ZM36.8598 17.553C29.0889 17.5939 21.9211 22.9176 19.5271 30.2694C15.015 44.1226 27.7253 57.4012 41.7604 53.7376C54.2376 50.4808 59.7065 34.9676 51.4879 24.8721C50.2264 25.8677 49.7255 26.5567 47.9489 26.1764C47.0207 26.8511 43.2078 31.3387 42.5148 31.4082C41.7808 31.4818 41.3045 30.6354 41.7992 30.0588L46.8265 25.052C46.4463 23.2733 47.1352 22.7724 48.1309 21.511C45.3136 18.8982 40.683 17.5305 36.8598 17.5509V17.553Z" fill="#030506"/>
<path d="M33.7908 24.7044C34.028 25.0009 33.889 25.8861 34.2467 26.1887C34.4266 26.34 36.1501 26.9615 36.4895 27.0167C36.9904 26.5669 37.3461 25.79 38.1291 26.1846C39.4417 26.845 37.2807 28.0553 37.3461 28.7913C37.4892 30.3982 39.4437 29.3269 39.3435 30.6926C39.2699 31.7108 38.031 31.2446 37.7468 31.4307C37.6466 31.4961 37.1866 33.332 36.7246 33.5876C36.6674 33.9494 38.4951 35.1291 37.5281 35.8119C36.561 36.4948 35.7453 34.6507 35.2035 34.7079C35.1442 34.714 34.1179 35.0759 34.0791 35.1209C33.8276 35.4092 34.1834 36.8382 33.1305 36.7258C32.0776 36.6133 32.5478 35.3028 32.3822 35.1045C32.3311 35.0452 31.0022 34.6548 30.8816 34.665C30.5667 34.6956 29.9084 35.3458 29.5241 35.5727C29.2787 35.7179 28.5918 35.8589 28.5489 35.9264C28.3628 36.2065 28.8126 37.4597 27.8088 37.5415C26.8029 37.4372 27.265 36.276 27.0605 35.9325C27.0237 35.8692 25.979 35.4603 25.7234 35.3274C25.29 35.1025 25.1142 34.6343 24.5561 34.6691C23.9979 34.7038 23.2394 35.5768 22.573 34.7876C21.837 33.9147 23.5747 33.6264 23.8262 33.3484C24.094 33.0499 24.1288 31.5247 24.0347 31.1322C23.9489 30.7724 22.5852 30.8868 22.577 29.8728C22.5607 28.2188 24.5602 29.8769 25.0426 29.6765C26.8356 28.9324 24.6297 27.2396 26.1875 26.9104C27.2936 26.6773 27.0503 28.0164 27.545 28.2924C27.6105 28.3292 28.9455 28.5337 29.0191 28.5173C30.0699 28.3006 28.0316 26.8245 28.9189 26.1744C29.7101 25.5958 30.2969 26.8511 30.3807 26.8879C30.4809 26.9308 32.3209 26.1519 32.3802 26.062C32.5376 25.8228 32.2064 25.1665 32.6071 24.7535C32.8708 24.4836 33.5455 24.406 33.7888 24.7085L33.7908 24.7044ZM30.0147 32.8924C30.7978 32.2116 31.1514 33.056 31.7934 33.3443C33.1652 33.9596 34.8907 33.6755 35.7228 32.3629C37.8 29.0877 33.4882 25.9638 31.0472 28.4008C30.6199 28.8281 30.301 30.0752 29.9043 30.2428C28.9618 30.6436 28.1441 29.1879 26.4881 30.2796C24.4825 31.6024 25.9258 34.9164 28.3301 34.3808C29.6426 34.0884 29.4546 33.3749 30.0127 32.8904L30.0147 32.8924Z" fill="#010305"/>
<path d="M39.7123 41.4647C45.6759 40.3607 47.6039 48.4199 42.3864 50.2722C39.1153 51.4334 35.8565 48.6387 36.3124 45.2163C36.5209 43.6441 38.1299 41.7571 39.7123 41.4647ZM40.3277 42.8958C36.4964 43.503 37.259 49.4503 41.2804 48.9638C45.2098 48.4894 44.4922 42.2355 40.3277 42.8958Z" fill="#010304"/>
<path d="M28.0696 39.8272C32.9578 39.1546 33.933 46.5616 29.6008 47.2976C23.7701 48.2891 23.3326 40.4773 28.0696 39.8272ZM30.296 45.2327C32.2443 43.1596 29.2799 39.9499 27.0862 41.9207C24.6247 44.1287 28.2147 47.4468 30.296 45.2327Z" fill="#010304"/>
<path d="M47.6659 32.9088C51.4584 32.8332 51.8243 38.4166 48.4387 38.9502C43.6854 39.7025 43.528 32.9906 47.6659 32.9088ZM47.2714 34.5076C45.5949 34.8756 46.1653 37.84 47.9931 37.5027C49.8208 37.1654 49.6286 33.9883 47.2714 34.5076Z" fill="#020406"/>
<path d="M40.3275 42.896C44.4921 42.2356 45.2097 48.4896 41.2803 48.9639C37.2588 49.4504 36.4963 43.5032 40.3275 42.896Z" fill="black"/>
<path d="M30.2959 45.2328C28.2146 47.4469 24.6266 44.1288 27.0861 41.9208C29.2798 39.952 32.2442 43.1618 30.2959 45.2328Z" fill="black"/>
<path d="M47.2729 34.5075C49.6322 33.9882 49.7773 37.1735 47.9946 37.5026C46.2118 37.8318 45.5965 34.8755 47.2729 34.5075Z" fill="black"/>
<defs>
<filter id="filter0_d_635_460" x="0.5" y="0.5" width="74" height="75" filterUnits="userSpaceOnUse" color-interpolation-filters="sRGB">
<feFlood flood-opacity="0" result="BackgroundImageFix"/>
<feColorMatrix in="SourceAlpha" type="matrix" values="0 0 0 0 0 0 0 0 0 0 0 0 0 0 0 0 0 0 127 0" result="hardAlpha"/>
<feMorphology radius="2" operator="dilate" in="SourceAlpha" result="effect1_dropShadow_635_460"/>
<feOffset dy="2"/>
<feGaussianBlur stdDeviation="1.25"/>
<feComposite in2="hardAlpha" operator="out"/>
<feColorMatrix type="matrix" values="0 0 0 0 0.717647 0 0 0 0 0.0588235 0 0 0 0 0.815686 0 0 0 1 0"/>
<feBlend mode="normal" in2="BackgroundImageFix" result="effect1_dropShadow_635_460"/>
<feBlend mode="normal" in="SourceGraphic" in2="effect1_dropShadow_635_460" result="shape"/>
</filter>
</defs>
</svg>
