<svg width="75" height="76" viewBox="0 0 75 76" fill="none" xmlns="http://www.w3.org/2000/svg">
<g filter="url(#filter0_d_635_462)">
<rect x="5" y="3" width="65" height="66" rx="5" fill="white"/>
<rect x="5.5" y="3.5" width="64" height="65" rx="4.5" stroke="black"/>
</g>
<path d="M27.5391 39.346C27.9954 39.7508 27.3771 41.9514 29.2687 41.8189C30.1335 41.7601 30.7002 40.8805 31.76 41.1713C32.0618 41.2559 33.5559 42.6838 33.6847 42.9671C34.2808 44.2514 33.0995 44.8145 33.1989 46.0031C33.3387 47.6223 35.3443 47.0409 35.6682 47.4126C35.8117 47.5782 35.8669 51.6446 35.705 51.7918C35.5688 51.9169 34.3434 51.4974 33.6736 52.1524C32.3451 53.4441 34.1299 54.3972 33.8171 55.5748C33.692 56.0459 31.5981 58.0625 31.1123 58.0551C30.4573 58.0441 29.8979 56.9327 28.5915 57.3633C27.4765 57.7313 27.7267 59.7406 27.5943 59.8731C27.4397 60.0276 23.3438 60.0497 23.193 59.8915C23.0568 59.7443 23.5646 58.0551 22.4606 57.4958C20.9702 56.7414 20.2453 58.2281 19.4062 58.0147C19.167 57.9558 17.2203 56.0753 17.1099 55.8287C16.6058 54.7174 17.9563 54.0255 17.6214 52.7927C17.2387 51.387 15.2478 51.9316 15.097 51.7918C14.9461 51.6519 14.9976 47.8799 15.0749 47.6002C15.211 47.1034 16.9038 47.3537 17.3344 46.7686C18.4678 45.2377 15.4061 43.3498 18.6445 41.5319C20.4109 40.542 20.8378 42.3268 22.3576 41.5871C23.7339 40.9173 22.9538 39.5889 23.215 39.3018C23.5205 38.9633 27.0754 38.9338 27.5354 39.346H27.5391ZM29.3239 45.6609C24.2602 40.5972 16.4328 48.465 21.7026 53.4662C26.689 58.1987 34.325 50.6657 29.3239 45.6609Z" fill="#070707"/>
<path d="M35.7045 56.5757C35.4506 56.3512 36.7533 53.9997 36.9925 53.9997H55.7606C55.801 53.9997 56.3126 53.4882 56.3126 53.4477V17.5677H49.6886V14.6237H57.6006C58.734 14.6237 59.1867 16.4489 59.275 17.3653C60.3532 29.0309 58.4286 42.3451 59.2639 54.1874C59.4406 54.9896 58.285 56.5721 57.6006 56.5721H35.7045V56.5757Z" fill="#040404"/>
<path d="M30.7375 20.8796H52.4496C52.4901 20.8796 53.0016 21.3912 53.0016 21.4316V28.7917C53.0016 28.8579 52.1478 29.7117 52.0816 29.7117H31.1055C31.0393 29.7117 30.1855 28.8579 30.1855 28.7917V21.4316C30.1855 21.3323 30.6161 21.0673 30.7375 20.8796ZM35.7019 24.188C35.356 21.4758 30.7743 22.7123 32.3641 25.0491C32.8057 25.7004 34.1305 25.4392 34.5942 26.2156C33.9612 27.1688 33.7073 26.2156 32.9345 26.0427C31.0319 25.6121 32.5113 27.6177 33.7625 27.8128C35.1315 28.0262 36.092 26.867 35.654 25.5385C35.2566 24.3315 33.2988 25.1632 33.5012 23.8236L35.7056 24.188H35.7019ZM40.7545 22.7932C37.7112 23.4777 38.9035 28.3832 42.0572 27.8128C45.2809 27.2276 44.6222 21.9211 40.7545 22.7932ZM47.4816 22.7196V27.8717H48.5856C48.0115 24.9939 49.7227 26.5358 50.7089 25.5753C52.6777 23.6617 49.3289 22.083 47.4853 22.7196H47.4816Z" fill="#080808"/>
<path d="M33.8657 14.6237V17.5677H27.4257C27.3852 17.5677 26.8737 18.0792 26.8737 18.1197V37.4397H23.9297V16.2797C23.9297 15.9117 25.2177 14.6237 25.5857 14.6237H33.8657Z" fill="#080808"/>
<path d="M34.6016 18.6717V14.62C34.8187 14.3992 38.0828 14.8408 38.7894 14.6457C39.0396 14.5758 39.3893 12.1433 41.4059 12.0108C44.2873 11.8195 43.7905 14.2189 44.2101 14.5832C44.5265 14.8592 47.8017 14.4691 48.5893 14.6237V18.6753H34.6016V18.6717ZM42.6645 15.3229C43.7096 13.8435 40.5117 12.423 40.5705 14.5059C40.6037 15.724 42.2523 15.908 42.6645 15.3229Z" fill="#060606"/>
<path d="M53.0016 34.4956H30.1855V37.0716H53.0016V34.4956Z" fill="#080808"/>
<path d="M53.0019 40.3837C53.5024 40.7075 53.4215 43.3277 52.4499 43.3277H36.2579C35.4888 43.3277 35.4851 40.3837 36.2579 40.3837C38.4365 40.3837 52.2991 39.931 53.0019 40.3837Z" fill="#111111"/>
<path d="M53.0018 49.2157H38.2818C38.3665 48.5018 38.0573 47.177 38.4437 46.6177C38.9884 45.8301 50.5289 46.4594 52.3983 46.3233C53.3772 46.6434 52.9246 48.3657 53.0018 49.2157Z" fill="#0C0C0C"/>
<path d="M29.3236 45.6609C34.3284 50.662 26.6887 58.195 21.7023 53.4661C16.4326 48.465 24.2599 40.5972 29.3236 45.6609Z" fill="#F9F9F9"/>
<path d="M40.7537 22.7932C44.6214 21.9211 45.2801 27.2276 42.0564 27.8128C38.9063 28.3832 37.7103 23.4777 40.7537 22.7932ZM40.4887 26.3996C41.0739 26.3776 42.1668 26.58 42.5385 26.0574C44.0657 23.9046 39.6865 22.1529 40.4887 26.3996Z" fill="#E2E2E2"/>
<path d="M35.7004 24.188L33.496 23.8236C33.2936 25.1632 35.2514 24.3315 35.6489 25.5385C36.0868 26.867 35.13 28.0225 33.7573 27.8128C32.5061 27.6177 31.0268 25.6121 32.9293 26.0427C33.7021 26.2156 33.956 27.1724 34.589 26.2156C34.129 25.4392 32.8042 25.7004 32.3589 25.0491C30.7692 22.716 35.3508 21.4758 35.6967 24.188H35.7004Z" fill="#E2E2E2"/>
<path d="M47.4802 22.7197C49.3239 22.0867 52.6764 23.6655 50.7039 25.5754C49.7177 26.5322 48.0065 24.9939 48.5806 27.8717H47.4766V22.716L47.4802 22.7197Z" fill="#E4E4E4"/>
<path d="M40.4885 26.3997C39.6826 22.153 44.0655 23.901 42.5383 26.0575C42.1666 26.58 41.0737 26.3813 40.4885 26.3997Z" fill="#111111"/>
<defs>
<filter id="filter0_d_635_462" x="0.5" y="0.5" width="74" height="75" filterUnits="userSpaceOnUse" color-interpolation-filters="sRGB">
<feFlood flood-opacity="0" result="BackgroundImageFix"/>
<feColorMatrix in="SourceAlpha" type="matrix" values="0 0 0 0 0 0 0 0 0 0 0 0 0 0 0 0 0 0 127 0" result="hardAlpha"/>
<feMorphology radius="2" operator="dilate" in="SourceAlpha" result="effect1_dropShadow_635_462"/>
<feOffset dy="2"/>
<feGaussianBlur stdDeviation="1.25"/>
<feComposite in2="hardAlpha" operator="out"/>
<feColorMatrix type="matrix" values="0 0 0 0 0.988235 0 0 0 0 0.654902 0 0 0 0 0 0 0 0 1 0"/>
<feBlend mode="normal" in2="BackgroundImageFix" result="effect1_dropShadow_635_462"/>
<feBlend mode="normal" in="SourceGraphic" in2="effect1_dropShadow_635_462" result="shape"/>
</filter>
</defs>
</svg>
