<svg width="75" height="76" viewBox="0 0 75 76" fill="none" xmlns="http://www.w3.org/2000/svg">
<g filter="url(#filter0_d_635_457)">
<rect x="5" y="3" width="65" height="66" rx="5" fill="white"/>
<rect x="5.5" y="3.5" width="64" height="65" rx="4.5" stroke="black"/>
</g>
<path d="M25.6647 30.4756C24.5299 29.3019 23.3951 28.1318 22.239 26.9793C20.2487 27.3611 18.7887 25.2188 20.0755 23.5431C21.6663 21.4785 24.4415 19.5482 26.1419 17.4801C27.7964 16.2074 29.9529 17.6498 29.5782 19.6437L34.2588 24.3031L54.141 32.2503C57.5914 33.6715 58.705 38.0516 56.3081 40.947L43.6237 53.6314C41.0076 55.9152 36.8926 55.2682 35.178 52.2315C34.5063 51.0366 33.9336 49.2972 33.3998 47.9857C31.1973 42.5838 29.1328 37.1219 26.9232 31.7236C26.6051 31.2322 26.0536 30.8822 25.6647 30.4792V30.4756ZM22.7799 25.7243C24.6006 27.3611 26.2586 29.1782 27.9979 30.8999L36.1643 51.3265C37.4229 53.7446 40.4738 54.4763 42.6409 52.7335C46.9609 48.3463 51.4365 44.0898 55.6505 39.6107C56.552 38.087 56.4778 36.2133 55.396 34.8028C54.5299 33.675 53.3597 33.3604 52.1012 32.8372C45.9534 30.2812 39.689 27.9974 33.5447 25.4309L28.0828 20.029C27.8742 19.7886 28.1888 19.5659 28.2383 19.3291C28.408 18.5301 27.6161 18.0069 26.9798 18.4947L21.0194 24.487C20.6729 25.0879 21.1007 25.7101 21.7724 25.6713C22.0163 25.6571 22.4406 25.4061 22.5289 25.4238C22.6633 25.4521 22.6951 25.6465 22.7799 25.7243Z" fill="white"/>
<path d="M20.9658 29.5742C21.8638 31.3242 23.1046 32.915 23.9531 34.6932C24.8015 36.4715 25.2894 38.5184 23.9354 40.2223C22.4435 42.0996 19.6012 42.1703 17.9962 40.3956C15.0832 37.1714 19.3431 32.565 20.7926 29.6272L20.9658 29.5742Z" fill="white"/>
<path d="M47.993 32.4589C50.8176 33.9967 57.3684 34.6578 54.3175 39.3773L41.9725 51.7224C40.6008 52.988 38.4054 52.6274 37.4155 51.1002L30.0057 32.7169L29.9668 32.4624H47.9965L47.993 32.4589Z" fill="white"/>
<path d="M25.6647 30.4756C24.5299 29.3019 23.3951 28.1318 22.239 26.9793C20.2487 27.3611 18.7887 25.2188 20.0755 23.5431C21.6663 21.4785 24.4415 19.5482 26.1419 17.4801C27.7964 16.2074 29.9529 17.6498 29.5782 19.6437L34.2588 24.3031L54.141 32.2503C57.5914 33.6715 58.705 38.0516 56.3081 40.947L43.6237 53.6314C41.0076 55.9152 36.8926 55.2682 35.178 52.2315C34.5063 51.0366 33.9336 49.2972 33.3998 47.9857C31.1973 42.5838 29.1328 37.1219 26.9232 31.7236C26.6051 31.2322 26.0536 30.8822 25.6647 30.4792V30.4756ZM22.7799 25.7243C24.6006 27.3611 26.2586 29.1782 27.9979 30.8999L36.1643 51.3265C37.4229 53.7446 40.4738 54.4763 42.6409 52.7335C46.9609 48.3463 51.4365 44.0898 55.6505 39.6107C56.552 38.087 56.4778 36.2133 55.396 34.8028C54.5299 33.675 53.3597 33.3604 52.1012 32.8372C45.9534 30.2812 39.689 27.9974 33.5447 25.4309L28.0828 20.029C27.8742 19.7886 28.1888 19.5659 28.2383 19.3291C28.408 18.5301 27.6161 18.0069 26.9798 18.4947L21.0194 24.487C20.6729 25.0879 21.1007 25.7101 21.7724 25.6713C22.0163 25.6571 22.4406 25.4061 22.5289 25.4238C22.6633 25.4521 22.6951 25.6465 22.7799 25.7243Z" fill="#070707"/>
<path d="M20.9658 29.5742C21.8638 31.3242 23.1046 32.915 23.9531 34.6932C24.8015 36.4715 25.2894 38.5184 23.9354 40.2223C22.4435 42.0996 19.6012 42.1703 17.9962 40.3956C15.0832 37.1714 19.3431 32.565 20.7926 29.6272L20.9658 29.5742Z" fill="#020202"/>
<path d="M47.993 32.4589C50.8176 33.9967 57.3684 34.6578 54.3175 39.3773L41.9725 51.7224C40.6008 52.988 38.4054 52.6274 37.4155 51.1002L30.0057 32.7169L29.9668 32.4624H47.9965L47.993 32.4589Z" fill="#010101"/>
<defs>
<filter id="filter0_d_635_457" x="0.5" y="0.5" width="74" height="75" filterUnits="userSpaceOnUse" color-interpolation-filters="sRGB">
<feFlood flood-opacity="0" result="BackgroundImageFix"/>
<feColorMatrix in="SourceAlpha" type="matrix" values="0 0 0 0 0 0 0 0 0 0 0 0 0 0 0 0 0 0 127 0" result="hardAlpha"/>
<feMorphology radius="2" operator="dilate" in="SourceAlpha" result="effect1_dropShadow_635_457"/>
<feOffset dy="2"/>
<feGaussianBlur stdDeviation="1.25"/>
<feComposite in2="hardAlpha" operator="out"/>
<feColorMatrix type="matrix" values="0 0 0 0 0.501642 0 0 0 0 0.735577 0 0 0 0 0.215722 0 0 0 1 0"/>
<feBlend mode="normal" in2="BackgroundImageFix" result="effect1_dropShadow_635_457"/>
<feBlend mode="normal" in="SourceGraphic" in2="effect1_dropShadow_635_457" result="shape"/>
</filter>
</defs>
</svg>
