<svg width="75" height="76" viewBox="0 0 75 76" fill="none" xmlns="http://www.w3.org/2000/svg">
<g filter="url(#filter0_d_635_459)">
<rect x="5" y="3" width="65" height="66" rx="5" fill="white"/>
<rect x="5.5" y="3.5" width="64" height="65" rx="4.5" stroke="black"/>
</g>
<path d="M57.1474 22.9566C59.9004 23.2656 62.4781 25.665 63.053 28.3488C62.9992 34.1299 63.6279 40.5628 63.2052 46.3055C62.99 49.2244 60.7597 51.8806 57.9021 52.5308C56.3696 52.8782 51.4263 52.872 49.7631 52.706C49.5571 52.686 49.5002 52.6999 49.3035 52.5892C48.2659 52.002 47.0347 50.405 45.9464 49.7209C45.0088 49.1307 44.2387 49.2736 43.381 49.8854C42.265 50.6832 41.2152 51.8806 40.0854 52.6999H32.7656V46.244H37.9534V48.4912C37.9534 48.5297 38.1056 48.6665 38.0687 48.7802H54.9586C57.2581 48.7802 59.138 45.9996 59.2871 43.886C59.5653 39.9279 59.0657 35.6501 59.2871 31.6567C59.3547 29.6461 56.9584 26.8763 54.9601 26.8763H48.332C49.0683 25.5866 49.0683 24.2462 48.332 22.9566H57.152H57.1474Z" fill="black"/>
<path d="M25.0446 48.2622L29.1902 53.1103C29.244 53.3455 28.1573 53.8112 27.9236 53.9081C23.3384 55.831 21.5477 52.8075 17.4943 53.0473C16.8856 53.0826 16.1954 53.2825 15.5913 53.3916C15.5406 53.1933 15.6728 53.161 15.7619 53.0458C17.0039 51.4502 18.5549 49.9423 19.8553 48.3775V30.9696C19.8553 30.9573 20.0167 30.7975 20.0275 30.7975H24.8694C24.8817 30.7975 25.0415 30.9589 25.0415 30.9696V48.2622H25.0446Z" fill="black"/>
<path d="M17.0644 53.7713C21.356 53.3301 22.9177 56.4151 27.838 54.6305C28.2592 54.4783 29.5181 53.7851 29.804 53.8666C30.0038 53.925 32.328 56.7164 32.5155 57.0423C33.3778 58.5333 32.8352 59.7015 31.0998 59.8506C25.5785 60.3255 19.39 59.4832 13.7995 59.8506C12.1087 59.806 11.5476 58.441 12.3808 57.0407C12.5575 56.744 14.3852 54.5798 14.6096 54.4276C15.0384 54.1356 16.5141 53.8281 17.0659 53.7713H17.0644Z" fill="black"/>
<path d="M44.4947 50.076C45.1096 49.9668 45.3171 50.1313 45.7828 50.4618C48.3575 52.2894 50.8415 54.9871 53.3362 56.973C54.071 58.0659 53.287 59.0528 52.0804 59.1604C47.4183 59.5723 42.1568 58.8376 37.4301 59.1604C36.1881 59.1604 35.5302 57.8261 36.2804 56.8485C38.752 54.9256 41.0639 52.4969 43.5494 50.6293C43.8368 50.4126 44.1289 50.1405 44.4963 50.076H44.4947Z" fill="black"/>
<path d="M43.9339 27.9307C44.1214 28.2443 41.4868 32.1947 41.287 32.8649L36.3359 29.9352L44.1337 16.5099L48.7144 19.0554C48.8404 19.143 49.0249 19.2307 49.0064 19.4213C48.991 19.5688 47.6491 21.9037 47.5246 21.9836C47.3125 22.1204 46.5562 21.6639 46.1827 21.5886C42.6689 20.8815 40.6245 25.2054 43.3821 27.6156C43.5127 27.7294 43.917 27.9031 43.9339 27.9307Z" fill="black"/>
<path d="M29.621 43.2711L45.8546 43.2435C47.2334 43.4064 47.1012 45.4093 45.8546 45.5538H29.8255C28.5912 45.4077 28.4636 43.6769 29.6226 43.2696L29.621 43.2711Z" fill="black"/>
<path d="M52.4816 16.1564L50.6863 19.3905L43.2559 15.0635C43.7493 14.2703 44.152 13.3127 44.6639 12.5472C44.7868 12.3643 44.9298 12 45.1557 12L52.4801 16.1564H52.4816Z" fill="black"/>
<path d="M45.1918 22.1757C48.3998 21.8406 49.3989 26.5135 46.3692 27.5095C42.5018 28.7807 41.3029 22.5815 45.1918 22.1757Z" fill="black"/>
<path d="M37.035 31.3724C37.1519 31.2848 39.3453 32.5298 39.559 32.8357C39.6236 33.094 38.3293 35.0184 38.1218 35.4073L35.6562 33.9563L37.035 31.3739V31.3724Z" fill="black"/>
<defs>
<filter id="filter0_d_635_459" x="0.5" y="0.5" width="74" height="75" filterUnits="userSpaceOnUse" color-interpolation-filters="sRGB">
<feFlood flood-opacity="0" result="BackgroundImageFix"/>
<feColorMatrix in="SourceAlpha" type="matrix" values="0 0 0 0 0 0 0 0 0 0 0 0 0 0 0 0 0 0 127 0" result="hardAlpha"/>
<feMorphology radius="2" operator="dilate" in="SourceAlpha" result="effect1_dropShadow_635_459"/>
<feOffset dy="2"/>
<feGaussianBlur stdDeviation="1.25"/>
<feComposite in2="hardAlpha" operator="out"/>
<feColorMatrix type="matrix" values="0 0 0 0 1 0 0 0 0 0.540308 0 0 0 0 0.307692 0 0 0 1 0"/>
<feBlend mode="normal" in2="BackgroundImageFix" result="effect1_dropShadow_635_459"/>
<feBlend mode="normal" in="SourceGraphic" in2="effect1_dropShadow_635_459" result="shape"/>
</filter>
</defs>
</svg>
