<svg width="129" height="98" viewBox="0 0 129 98" fill="none" xmlns="http://www.w3.org/2000/svg">
<path d="M127.788 94.0126C125.569 94.0235 123.362 94.0235 121.144 94.0344C122.416 81.1169 121.568 67.71 121.655 54.7381C121.742 41.9076 121.894 29.0662 121.905 16.2357C122.123 16.2574 122.351 16.2683 122.568 16.29C123.601 16.377 123.841 14.659 122.818 14.4633C114.979 12.9628 106.661 12.8867 98.734 13.7457C98.5274 13.7674 98.3752 13.8544 98.2556 13.974C97.701 13.9523 97.1791 14.2785 97.2661 14.9744C98.299 22.9989 98.8753 31.056 99.1145 39.124C98.8753 39.2871 98.9188 39.6351 99.1363 39.7982C99.2776 44.876 99.2776 49.9539 99.1689 55.0317C99.0058 62.9258 98.4295 70.8089 97.9294 78.6921C97.6684 78.8335 97.6467 79.2249 97.8859 79.3662C97.5705 84.2701 97.2987 89.1631 97.1573 94.0779C95.2001 94.0779 93.243 94.0779 91.2858 94.0779C93.3734 77.8875 93.3408 61.0773 92.2861 44.8434C92.2861 44.7347 92.2426 44.6477 92.21 44.5498C92.4383 44.0497 92.1991 43.3429 91.4488 43.2885C84.2507 42.7666 76.672 42.9406 69.463 43.5169C68.9193 42.9514 67.7341 43.158 67.7341 44.1693C67.6797 60.6967 67.5275 77.5613 68.6909 94.067C65.7334 94.067 62.7867 94.067 59.8292 94.067C60.5903 81.28 60.4598 68.1558 60.0249 55.3905C60.0684 54.8795 59.7639 54.3467 59.0789 54.3467C52.0221 54.3467 44.9762 54.3467 37.9194 54.2597C37.9194 54.2597 37.9194 54.2597 37.9085 54.2597C37.9085 54.2162 37.9085 54.1727 37.8977 54.1292C37.7672 52.7918 35.6469 52.7701 35.7774 54.1292C36.0492 56.7715 36.3754 59.4463 36.7125 62.132C36.6798 62.132 36.6364 62.132 36.6037 62.1429C36.1253 62.2081 36.0927 62.9475 36.6037 62.9258C36.669 62.9258 36.7451 62.9258 36.8103 62.9149C37.1148 65.2962 37.4301 67.6883 37.7346 70.0804C37.2344 70.2435 37.3866 70.9394 37.8542 71.0264C38.1151 73.0923 38.3652 75.1474 38.5936 77.2133C38.5392 77.2351 38.4739 77.2568 38.4196 77.2786C37.8542 77.496 38.0608 78.3985 38.6805 78.2137C38.6805 78.2137 38.6914 78.2137 38.7023 78.2137C39.1481 82.4325 39.4743 86.6514 39.5722 90.8376C39.3547 91.0442 39.3873 91.3813 39.5722 91.5879C39.583 92.4577 39.6048 93.3276 39.6048 94.1975C37.7998 94.2192 35.9948 94.2301 34.1899 94.2518C34.3095 90.9355 34.2986 87.5974 34.1899 84.2701C34.8205 84.107 34.7335 83.0958 34.1355 82.9436C33.9289 78.2789 33.5157 73.6251 32.8633 69.0475C32.722 68.0362 31.091 68.1993 30.9713 69.1236C30.8735 69.0909 30.7756 69.0583 30.656 69.0475C24.991 68.8626 19.2716 68.9822 13.6066 69.2214C13.0195 68.7104 11.8343 68.9496 11.8669 69.9499C12.1496 78.1702 12.2366 86.4448 12.8346 94.6542C8.86585 94.752 4.88621 94.8608 0.917442 95.0021C-0.300371 95.0456 -0.311245 96.8723 0.917442 96.9049C43.1386 97.8292 85.5338 96.47 127.777 96.1547C129.136 96.1547 129.136 94.0344 127.777 94.0344L127.788 94.0126ZM13.9654 70.6785C19.5108 70.9068 25.1106 71.0155 30.656 70.8416C30.8191 70.8416 30.9496 70.7981 31.0692 70.7328C31.0801 70.8742 31.091 71.0155 31.1018 71.1569C25.3933 72.5269 19.7174 74.408 14.1394 76.2456C14.0742 74.3863 14.0198 72.5378 13.9654 70.6893V70.6785ZM14.1829 77.5069C19.8697 76.0173 25.6652 74.5167 31.2106 72.5813C31.341 74.1579 31.4498 75.7346 31.5694 77.3003C25.7956 78.5942 20.0328 80.0839 14.3134 81.6388C14.2699 80.2579 14.2264 78.8769 14.1829 77.5069ZM14.3569 82.8131C20.1524 81.5518 25.9479 80.2252 31.6781 78.7138C31.776 80.1709 31.8521 81.6279 31.9391 83.0849C25.9261 83.7591 20.0219 85.4444 14.4656 87.7931C14.433 86.1295 14.4004 84.4659 14.3569 82.8131ZM16.6403 94.5346C21.5985 93.4255 26.5568 92.2512 31.4606 90.9029C32.3631 90.6528 31.9826 89.2936 31.0801 89.5111C25.5129 90.8267 19.9893 92.3599 14.4874 93.9474C14.4982 92.3164 14.4982 90.6854 14.4874 89.0435C20.2611 86.9015 26.0022 85.5423 32.0261 84.5854C32.2 87.804 32.3523 91.0225 32.461 94.2518C27.1874 94.328 21.9247 94.4149 16.6512 94.5346H16.6403ZM38.6588 61.871C38.4631 59.903 38.2565 57.9349 38.0608 55.9668C44.6609 56.6518 51.4567 56.8258 58.0894 56.4018C58.0568 57.413 58.0242 58.4351 58.0025 59.4572C51.5546 60.1748 45.1067 61.0447 38.6588 61.8819V61.871ZM38.7567 62.7844C45.1719 62.4256 51.6198 61.8167 57.9698 60.7946C57.9263 62.5234 57.8937 64.2632 57.8611 66.0138C51.7068 67.112 45.5742 68.3624 39.4634 69.689C39.2351 67.3838 38.9959 65.0896 38.7675 62.7844H38.7567ZM40.0397 75.5823C39.8766 73.9839 39.7135 72.3747 39.5504 70.7763C45.6504 69.7651 51.7612 68.6669 57.8176 67.4382C57.7959 69.0583 57.785 70.6784 57.7741 72.2986C51.772 73.1576 45.8352 74.5711 40.1376 76.637C40.1049 76.2891 40.0615 75.9411 40.0288 75.5932L40.0397 75.5823ZM40.2789 77.757C46.0635 76.0934 51.8373 74.756 57.785 73.7991C57.785 75.5062 57.785 77.2133 57.8067 78.9204C52.0765 79.9534 46.4006 81.7366 40.9531 83.8026C40.7574 81.7801 40.5073 79.7577 40.2789 77.757ZM57.8285 80.3775C57.8611 82.3455 57.9155 84.3136 57.9698 86.2817C52.4027 87.4669 46.8355 88.7608 41.3445 90.2722C41.3119 88.4781 41.2032 86.6731 41.0401 84.8682C46.5963 83.1284 52.1744 81.7584 57.8285 80.3666V80.3775ZM41.2575 94.1649C41.3228 93.2624 41.3445 92.3599 41.3554 91.4574C46.9117 90.2287 52.4571 88.9783 58.0242 87.8148C58.1003 89.9025 58.1982 92.0011 58.3178 94.0779C52.631 94.0996 46.9443 94.1105 41.2575 94.1649ZM69.7565 44.8434C76.4654 45.3762 83.4787 45.5393 90.2093 45.1261C90.2419 45.9199 90.2528 46.7136 90.2854 47.4965C83.5222 49.2145 76.7263 50.9325 70.0392 52.9549C69.9523 50.2475 69.8544 47.5291 69.7565 44.8325V44.8434ZM70.0719 54.0749C76.8677 52.5852 83.6092 50.7694 90.318 48.9644C90.3724 51.0956 90.4159 53.2159 90.4376 55.3362C83.6853 56.8584 76.9438 58.6634 70.2785 60.5662C70.2132 58.4025 70.148 56.2387 70.0719 54.0749ZM89.546 94.067C83.1416 94.067 76.7372 94.0561 70.3437 94.067C70.3437 93.8278 70.3546 93.5886 70.3654 93.3494C76.8351 92.5012 83.4461 91.1856 89.7309 89.3697C89.6656 90.9355 89.6221 92.5012 89.5569 94.067H89.546ZM89.7852 87.7931C83.3156 89.3045 76.8677 90.8594 70.3981 92.349C70.4742 90.0656 70.5285 87.7822 70.5612 85.4879C77.0743 84.4441 83.5548 83.1719 90.0136 81.8671C89.9483 83.8352 89.8613 85.825 89.7852 87.7931ZM90.0571 80.3231C90.0571 80.3231 89.9592 80.3122 89.9048 80.3231C83.4352 81.6388 76.9764 82.9871 70.572 84.5528C70.5938 82.1172 70.6047 79.6816 70.5938 77.2351C77.1722 75.9846 83.7288 74.5711 90.2854 73.1793C90.231 75.5606 90.144 77.9418 90.0679 80.3231H90.0571ZM90.3071 71.831C90.1875 71.7875 90.0679 71.7658 89.9266 71.7984C83.4787 73.2011 77.0091 74.6037 70.5938 76.1477C70.5829 74.0057 70.5503 71.8636 70.5068 69.7216C77.1178 68.0689 83.7288 66.7314 90.4268 65.4484C90.405 67.5796 90.3615 69.6999 90.318 71.8202L90.3071 71.831ZM90.4268 64.0457C83.6853 64.9047 76.9221 66.5792 70.4851 68.743C70.4416 66.3617 70.3872 63.9913 70.3111 61.6101C77.0526 60.1639 83.8049 58.5764 90.4485 56.7606C90.4702 59.1962 90.4485 61.621 90.4268 64.0457ZM99.5821 94.067C105.997 92.8274 112.424 91.5553 118.806 90.12C119.709 89.9134 119.328 88.5433 118.426 88.7282C111.912 90.0982 105.41 91.6422 98.9297 93.208C99.1254 91.577 99.2994 89.946 99.4734 88.3041C106.106 86.9993 112.728 85.5314 119.328 84.0527C119.382 87.4016 119.535 90.7398 119.817 94.0344C113.076 94.0561 106.334 94.067 99.5821 94.067ZM118.328 67.2316C112.478 69.1018 106.769 71.0699 100.811 72.5704C100.952 70.2653 101.083 67.9601 101.18 65.6441C107.465 64.3937 113.837 62.6539 119.687 60.0552C119.6 64.3828 119.459 68.7539 119.361 73.1141C113.163 75.8215 106.987 77.3873 100.398 78.3224C100.517 76.811 100.626 75.2887 100.735 73.7665C106.835 72.4726 113.087 70.8415 118.806 68.3516C119.448 68.0689 118.991 67.0141 118.328 67.2207V67.2316ZM101.235 64.4589C101.333 61.9798 101.42 59.4898 101.463 57.0107C107.433 55.3579 113.402 53.7052 119.404 52.1938C119.578 52.1503 119.698 52.0524 119.774 51.9437C119.774 52.8788 119.774 53.8139 119.763 54.749C119.763 56.0538 119.73 57.3804 119.709 58.696C119.698 58.696 119.676 58.696 119.665 58.696C113.511 60.7511 107.498 62.8388 101.235 64.4698V64.4589ZM119.339 74.6363C119.295 77.3329 119.285 80.0404 119.306 82.7261C119.23 82.7261 119.154 82.7152 119.067 82.7261C112.554 84.2266 106.041 85.7489 99.5712 87.4234C99.8431 84.7377 100.104 82.0411 100.321 79.3336C106.867 78.9748 113.348 77.2459 119.339 74.6363ZM119.774 51.1064C119.622 50.8781 119.361 50.7259 119.013 50.8129C113.109 52.2699 107.237 53.9009 101.463 55.8037C101.507 52.9875 101.528 50.1605 101.496 47.3443C107.563 46.8441 113.63 45.5828 119.274 43.2559C120.024 42.9406 119.73 41.7119 118.926 41.9946C113.185 44.0497 107.531 45.6263 101.496 46.4527C101.463 44.1258 101.409 41.7989 101.322 39.4829C107.346 38.2215 113.348 36.8406 119.339 35.4597C120.209 35.264 119.839 33.9048 118.969 34.1114C113.065 35.5467 107.161 36.9711 101.289 38.5151C101.18 35.7968 101.039 33.0893 100.854 30.3927C107.204 29.2619 113.576 28.142 119.883 26.8263C119.828 34.9161 119.807 43.0167 119.763 51.1064H119.774ZM119.904 25.4889C119.817 25.478 119.73 25.4671 119.643 25.4889C113.337 26.6088 107.063 27.9354 100.789 29.251C100.669 27.5331 100.528 25.8259 100.376 24.1188C106.9 22.8793 113.478 21.6397 119.937 20.0413C119.926 21.8572 119.915 23.673 119.904 25.4889ZM119.948 18.5952C113.348 19.8565 106.791 21.4875 100.278 23.1185C100.028 20.5198 99.7561 17.921 99.4299 15.344C106.356 15.1701 113.098 15.518 119.97 16.0726C119.97 16.9098 119.97 17.7579 119.948 18.5952Z" fill="black"/>
<path d="M87.0125 0.250965C84.9792 0.544545 83.0438 1.00122 81.1518 1.59926C79.5969 2.03419 78.0855 2.59961 76.5524 3.33899C75.3128 3.9479 76.4001 5.73113 77.6288 5.17659C79.2381 4.44807 80.8473 3.86091 82.4892 3.38249C82.5545 3.36074 82.6306 3.34987 82.6958 3.33899C73.2795 15.2127 61.8081 25.3358 48.8254 33.1754C35.2554 41.3631 20.7613 46.1799 5.38639 49.6159C4.16858 49.8877 4.72312 51.584 5.88656 51.4318C35.5382 47.376 63.3848 29.8264 82.4675 6.97069C82.2609 7.51435 82.0869 8.07977 81.9238 8.68867C81.565 10.037 83.5004 10.5154 83.9789 9.25409C84.9901 6.5575 86.2623 4.29585 88.0455 2.03419C88.7305 1.16432 88.089 0.098738 87.0125 0.250965Z" fill="black"/>
</svg>
