<svg width="1920" height="3420" viewBox="0 0 1920 3420" fill="none" xmlns="http://www.w3.org/2000/svg">
<g opacity="0.02">
<path d="M1382.3 3419.97C1361.63 3409.41 1339.18 3407.56 1317.71 3404.07C1231 3389.98 1145.45 3357.51 1057.2 3366.26C1005.2 3371.43 953.544 3382.85 901.562 3388.71C878.511 3391.31 865.752 3369.52 857.158 3341.44C848.338 3312.66 841.478 3273.79 811.699 3280.65C774.061 3289.37 763.468 3332.58 759.66 3379.16C759.114 3385.89 758.191 3392.58 757.454 3399.25C753.233 3395.29 748.484 3392.15 744.903 3387.3C689.002 3311.62 693.902 3207.06 770.817 3162.12C887.332 3094.06 951.678 2966.16 1015.81 2830.82C1041.73 2776.14 1077.58 2730.24 1129.33 2764.24C1182.76 2799.33 1172.79 2872 1162.94 2931.61C1136.57 3091.2 1169.27 3249.83 1243.6 3293.3C1310.64 3332.46 1383.6 3338.06 1453.24 3362.59C1486.49 3374.28 1518.12 3391.02 1545.16 3420H1676.09C1637.74 3391.4 1599.63 3362.1 1560.39 3336.01C1496.69 3293.7 1426.71 3281.61 1358.44 3260.48C1254.72 3228.36 1207.51 3083.88 1228.21 2924.82C1255.38 2715.96 1363.51 2603.11 1473.5 2487.18C1569.85 2385.64 1655.74 2273.52 1654.02 2088.4C1652.93 1971.72 1615.88 1874.92 1557.24 1793.74C1468.94 1671.52 1480.19 1537.11 1525.15 1394C1569.89 1251.56 1602.95 1106.29 1562.05 948.739C1545.8 886.123 1508.86 855.307 1473.6 819.619C1412.16 757.47 1410.46 697.68 1477.71 648.643C1560.18 588.491 1597.88 498.765 1614.6 376.202C1635.48 223.213 1728.6 174.644 1837.35 246.565C1913.8 297.155 1975.69 381.178 2055.67 423.009C2104.92 448.745 2153.66 448.434 2201.98 423.009V323.228C2058.17 417.8 1957.65 295.496 1855.78 181.383C1793.95 112.132 1726.74 81.2648 1645.79 105.783C1618.5 114.05 1569.32 125.946 1569.04 64.263C1568.76 2.99484 1611.17 7.32301 1644.32 0.118164H1468.92C1473.52 104.564 1507.77 199.732 1520.06 301.846C1537.09 443.613 1484.36 538.86 1409.54 619.279C1384.05 646.674 1358.08 673.811 1330.32 696.358C1300.75 720.408 1262.04 747.363 1241.38 691.616C1220.08 634.131 1262.34 608.836 1291.61 587.092C1348.11 545.132 1418.68 530.253 1437.2 422.724C1455.84 314.416 1427.01 214.972 1411.99 112.625C1406.52 75.4335 1403 37.698 1398.81 0.143839H1331.64C1341.01 39.2788 1350.56 78.3361 1359.53 117.627C1383.28 221.658 1415.23 328.152 1352.39 426.093C1310.32 491.664 1248.62 529.659 1211.32 602.539C1160.21 702.396 1107.04 797.41 1020.64 844.813C1000.62 855.8 972.126 866.866 973.729 903.229C975.463 942.649 1004.07 958.951 1026.86 976.109C1096.92 1028.93 1176.49 1012.86 1250.97 1033.77C1289.12 1044.48 1328.76 1058.27 1342.72 1116.35C1353.37 1160.64 1333.11 1196.95 1308.89 1219.52C1261.13 1264.05 1211.47 1305.41 1160.45 1342.45C1037.09 1431.99 927.665 1541.39 866.241 1720.81C849.788 1768.89 836.614 1821.84 858.722 1873.52C870.841 1901.84 893.344 1912.55 917.205 1908.19C961.063 1900.16 996.421 1865.74 1032.51 1834.1C1107.43 1768.42 1180.45 1689.56 1271.87 1682.02C1369.52 1673.98 1441.99 1767.65 1519.87 1831.45C1585.85 1885.49 1625.96 1969.44 1613.46 2079.82C1590.41 2283.22 1498.36 2422.73 1378.33 2531.32C1340.35 2565.66 1296.47 2597.33 1250.69 2564C1208.47 2533.26 1214.43 2471.92 1222.61 2420.5C1240.1 2310.56 1210.58 2245.17 1141.55 2185.25C1052.91 2108.33 1051.21 2043.71 1123.34 1956.81C1175.66 1893.81 1236.5 1828.08 1308.82 1845.58C1419.71 1872.38 1477.39 1991.23 1478.86 2156.33C1479.05 2177.58 1475.63 2205.98 1495.86 2215.39C1502.25 2218.37 1514.72 2210.08 1520.02 2201.68C1541.17 2168.22 1549.51 2127.07 1551.66 2083.47C1557.64 1961.92 1495.93 1907.23 1430.96 1859.86C1380.08 1822.74 1333.96 1759.12 1270.46 1773.53C1186.55 1792.58 1129.16 1885.44 1054.56 1932.25C989.559 1973.04 980.212 2029.41 1025.43 2106.1C1045.8 2140.67 1071.04 2171.59 1097.61 2197.2C1200.82 2296.62 1212.94 2366.18 1145.03 2493.35C1109.86 2559.23 1064.23 2618.3 1040.3 2691.02C985.413 2857.78 909.497 2980.62 779.168 3045.54C640.037 3114.84 600.23 3290.87 682.386 3419.97H1382.3ZM978.856 1795.45C960.631 1820.15 929.739 1855.12 909.667 1819.04C880.831 1767.23 919.071 1725.06 942.366 1690.54C1041.52 1543.56 1167.55 1443.99 1284.8 1328.79C1331.15 1283.25 1374.25 1228.36 1387.94 1148.15C1400.49 1074.59 1356.57 1050.75 1319.86 1023.12C1308.91 1014.88 1290.31 1012.39 1292.23 992.073C1292.93 984.687 1315.96 977.119 1328.87 976.833C1399.19 975.356 1444.16 1033.69 1444.16 1151C1437.92 1263.94 1373.12 1354.84 1297.04 1426.57C1181.69 1535.32 1077.99 1660.97 978.856 1795.43V1795.45ZM1174.64 1658.22C1171.12 1659.75 1167.31 1660.09 1163.64 1660.97C1164.93 1655.58 1165.46 1649.49 1167.67 1644.93C1214.69 1547.63 1292.25 1501.55 1357.22 1435.2C1454.34 1336.05 1512.33 1146.05 1470.92 1033.82C1439.92 949.801 1387.56 914.971 1311.11 915.15C1272.57 914.529 1227.68 936.482 1182.07 954.364C1162.71 961.958 1136.76 977.896 1125.92 946.872C1115.35 916.601 1139.74 898.51 1156.96 885.889C1291.48 787.354 1497.59 813.477 1539.94 1053.91C1565.12 1196.84 1518 1316.48 1454.92 1422.69C1382.07 1545.3 1282.35 1611.91 1174.62 1658.2L1174.64 1658.22Z" fill="black"/>
<path d="M1258.79 0.0259836H1208.27C1239.89 52.7674 1264.47 109.941 1270.86 180.513C1278.81 268.373 1264.98 349.442 1218.54 409.259C1136.1 515.468 1083.97 659.282 991.69 752.013C922.615 821.421 848.3 803.382 778.357 758.753C695.26 705.701 616.497 715.497 536.697 766.112C531.72 769.276 525.934 770.026 520.544 771.893C521.994 764.196 522.674 756.031 525.011 748.905C552.791 663.92 661.767 630.616 745.054 679.757C828.473 728.973 911.965 793.119 999.832 693.414C1059.77 625.407 1094.75 530.266 1141.32 447.694C1176.71 384.922 1225.85 332.025 1228.45 244.995C1231.9 129.327 1186.78 54.1409 1119.8 0.0776426H783.521C815.298 15.1615 846.941 30.8155 879.21 43.4371C940.331 67.3846 1001.09 30.0639 1062.16 37.5799C1121.81 44.9406 1165.91 88.6109 1194.56 159.624C1212.17 203.243 1211.6 248.468 1190.25 291.543C1181.86 308.441 1170.93 318.859 1156.7 315.931C1139.66 312.406 1132.69 292.864 1128.97 272.027C1103.74 130.96 1074.26 101.259 972.503 140.057C906.048 165.378 856.78 117.69 803.216 87.7038C686.815 22.5219 571.81 124.61 571.281 296.493C571.148 337.96 569.19 379.532 566.381 420.818C564.42 449.586 560.331 482.656 531.606 477.084C505.352 472.004 495.664 438.623 496.477 408.481C500.941 241.833 524.181 48.1801 666.404 0.051659H560.745C487.316 127.772 455.898 274.334 467.414 436.472C471.729 497.066 495.985 553.774 548.024 543.277C604.376 531.899 596.932 457.879 602.888 402.209C613.688 301.443 603.247 187.563 686.118 131.063C740.851 93.7686 793.096 119.375 837.537 166.207C875.853 206.586 912.719 221.644 962.364 214.465C1072.09 198.604 1111.43 273.608 1084.83 432.377C1060.54 577.357 974.953 702.07 899.45 699.842C843.079 698.182 801.708 643.653 752.517 616.569C656.603 563.804 579.329 620.924 506.578 700.362C396.075 821.031 277.751 918.221 133.005 935.559C119.566 937.166 103.602 934.419 100.531 913.97C97.1011 891.085 113.724 884.709 125.994 878.749C193.487 845.936 264.201 825.386 327.265 775.781C421.689 701.502 432.225 588.244 416.318 452.748C397.547 292.942 423.875 140.938 482.265 0.0259836H426.721C381.977 153.611 388.575 316.397 382.995 477.162C379.754 570.774 365.054 660.682 315.56 730.502C213.238 874.914 59.4243 868.85 -54.2251 720.291C-69.6799 700.076 -90.0162 659.282 -112.708 685.405C-135.646 711.817 -112.746 745.43 -98.7802 771.945C-89.2435 790.059 -79.8199 808.54 -68.794 824.867C-10.2542 911.586 42.1603 1013.18 144.087 999.627C205.962 991.384 254.268 938.696 307.625 903.086C423.14 825.981 539.692 925.451 539.692 1102.52C539.692 1321.49 376.57 1475.91 212.125 1428.61C98.3438 1395.87 -2.45142 1315.61 -115.404 1283.08C-178.976 1264.76 -255.534 1324.52 -271.365 1411.92C-284.634 1485.11 -247.58 1547.08 -179.447 1572.37C-82.7978 1608.24 7.3114 1658.65 70.9778 1775.17C137.905 1897.69 161.804 1901.88 256.418 1811.33C334.992 1736.12 415.772 1701.9 510.518 1749.44C597.178 1792.93 633.158 1760.97 633.987 1634.34C635.041 1471.81 689.51 1367.44 797.393 1309.86C890.197 1260.33 938.786 1139.89 915.49 1009.53C903.069 939.992 862.511 912.752 815.185 927.601C772.948 940.846 788.44 992.836 794.357 1030.91C810.454 1134.27 804.817 1226.61 735.799 1293.68C692.13 1336.14 650.835 1381.91 630.122 1453.49C614.347 1508.04 597.535 1562.34 567.586 1605.42C501.508 1700.48 412.21 1684.49 329.282 1695.97C152.53 1720.46 6.42575 1605.39 -140.112 1495.03C-168.647 1473.55 -202.761 1442.76 -179.918 1390.9C-158.244 1341.73 -120.474 1358.22 -90.7702 1382.73C8.19727 1464.42 104.318 1550.45 221.437 1581.91C321.477 1608.78 422.783 1574.83 469.223 1487.7C558.56 1320.04 581.741 1130.3 576.917 928.303C573.957 804.392 625.75 748.463 711.222 787.883C848.111 851.019 972.957 846.638 1076.41 689.215C1129.97 607.706 1171.85 511.451 1237.35 445.05C1294.59 387.022 1321.26 312.95 1310.1 213.558C1301.63 138.009 1278.85 69.7692 1258.78 0L1258.79 0.0259836Z" fill="black"/>
<path d="M1951.79 3228.56C1831.15 3081.11 1767.43 2931.23 1867.02 2730.19C1920.82 2621.57 2041.18 2584.53 2159.6 2639.48C2173.47 2645.91 2187.77 2650.52 2201.98 2655.49V2472.96C2143.87 2487.66 2085.54 2500.95 2027.79 2517.98C1875.93 2562.82 1759.62 2716.35 1747.45 2919.98C1737.42 3087.33 1818.13 3195.92 1914.6 3282.33C1941.52 3306.43 1980.4 3330.65 1964.44 3389.32C1959.46 3407.65 1950.26 3416.43 1939.39 3419.98H2021.85C2035.62 3333.39 1992.88 3278.81 1951.81 3228.62L1951.79 3228.56Z" fill="black"/>
<path d="M1433.13 3145.56C1552.19 3202.1 1650.72 3311.34 1763.59 3383.21C1783.7 3395.99 1804.08 3407.97 1824.47 3419.92H1908.59C1904.25 3419.05 1899.99 3417.93 1895.9 3416.83C1794.34 3389.35 1713.88 3313.39 1642.95 3211.53C1529.19 3048.22 1553.88 2689.83 1688.24 2560.74C1762.88 2489.03 1835.46 2412.94 1906.65 2334.85C1927.62 2311.83 1947.15 2265.57 1922.5 2237.11C1896.96 2207.62 1886.25 2259.56 1871.05 2280.96C1843.34 2319.97 1818.1 2364.29 1786.12 2395.23C1662.69 2514.71 1551.49 2645.02 1520.95 2863.79C1515.57 2902.41 1503.31 2942.55 1467.58 2929.46C1439.91 2919.3 1438.31 2880.53 1443.3 2847.12C1470.65 2664.33 1559.01 2541.3 1659.56 2429.7C1716.89 2366.07 1786.61 2317.22 1814.01 2214.38C1836.61 2129.58 1804.48 2047.04 1801.61 1962.88C1799.26 1893.29 1808.98 1816.35 1775.98 1757.49C1751.38 1713.61 1708.37 1688.89 1684.93 1644.31C1622 1524.59 1643.5 1389.62 1667.14 1261.77C1693.16 1121.01 1716.38 983.731 1691.86 837.117C1668.96 700.17 1670.34 562.887 1716.12 432.497C1724.09 409.82 1736.51 388.723 1757.26 394.762C1778.73 401.008 1781.52 427.21 1781.43 452.946C1781.05 558.74 1757.98 661.864 1765.88 769.317C1773.3 870.213 1822.3 944.464 1878.15 926.22C1975.21 894.498 2082.35 964.033 2116.92 1091.68C2151.24 1218.36 2132.07 1356.76 2152.94 1487.28C2162.79 1548.8 2169.38 1612.09 2201.96 1659.86V1458.97C2183.88 1391.46 2179.56 1319.75 2178.51 1249.25C2175.19 1027.27 2102.12 884.053 1946.17 816.668C1846.35 773.543 1812.43 681.25 1818.65 495.295C1820.85 429.18 1836.69 351.169 1771.87 332.768C1711.97 315.766 1695.95 392.222 1678.24 450.795C1653.21 533.549 1615.21 601.969 1570.97 667.177C1526.1 733.318 1573.43 781.393 1598.29 829.654C1680.72 989.639 1668.42 1163.1 1614.4 1322.7C1552 1507.05 1578.91 1643.97 1675.81 1785.71C1773.92 1929.24 1786.21 2154.15 1711.99 2291.51C1654.04 2398.76 1563.68 2460.1 1496.11 2554.73C1415.64 2667.42 1320.91 2770.51 1306.19 2940.94C1295.65 3062.73 1363.09 3112.22 1433.11 3145.5L1433.13 3145.56Z" fill="black"/>
<path d="M1247.56 1139.11C1246.29 1130.3 1234.38 1120.27 1226.28 1118.07C1158.26 1099.69 1087.47 1102.93 1021.88 1064.39C998.528 1050.68 986.768 1074.19 984.883 1102.99C975.798 1242.86 930.735 1342.77 829.769 1390.69C770.795 1418.68 712.199 1459.45 698.327 1553.14C688.621 1618.66 692.334 1688.14 691.429 1755.89C690.279 1842.4 657.505 1883.58 596.872 1867.52C543.232 1853.29 490.724 1824.39 436.897 1819.62C321.155 1809.41 250.684 1917.28 186.056 2027.79C155.448 2080.14 160.707 2139.05 199.495 2184.77C225.107 2214.96 252.512 2203.95 276.862 2180.05C305.906 2151.52 330.483 2110.33 362.261 2091.78C527.476 1995.37 687.905 2041.52 835.292 2156.65C966.545 2259.18 995.154 2398.71 935.389 2536.36C880.055 2663.77 784.95 2700.49 691.77 2743.49C567.207 2800.98 457.987 2881.22 424.268 3078.86C406.081 3185.45 367.047 3275.15 280.519 3293.71C202.304 3310.48 152.772 3239.14 103.788 3168.83C62.3612 3109.4 23.9504 3042.39 -34.646 3012.82C-136.912 2961.25 -212.848 3031.61 -285.033 3115.92V3238.67C-263.623 3195.67 -243.908 3150.79 -211.679 3120.19C-116.142 3029.54 -34.5329 3051.03 37.577 3179.74C86.4671 3266.99 138.995 3350.46 201.737 3419.96H436.443C401.671 3218.76 467.146 3063.41 566.886 2927.92C630.57 2841.41 718.891 2809.58 796.071 2752.9C898.412 2677.74 984.713 2581.22 1007.56 2413.07C1024.31 2289.76 960.722 2229.74 900.352 2167.53C856.664 2122.49 800.857 2091.16 791.226 2003.58C789.7 1989.66 795.204 1974.27 797.446 1959.57C802.497 1962.89 808.849 1964.58 812.317 1969.86C820.251 1981.94 826.358 1996.22 833.915 2008.82C881.562 2088.25 942.532 2146.96 1000.07 2211.05C1078.74 2298.65 1076.33 2404.57 1013.49 2556.78C931.243 2755.98 794.411 2855.09 657.88 2957.88C557.5 3033.45 464.075 3246.61 519.26 3419.96H597.156C526.949 3218.96 605.053 3007.36 749.291 2939.97C812.768 2910.32 882.637 2895.47 926.117 2812.25C976.74 2715.35 1004.05 2598.46 1064.87 2509.95C1093.67 2468.04 1124.45 2423.26 1119.45 2358.9C1112.86 2273.9 1058.71 2239.51 1018.47 2191.43C944.06 2102.51 853.555 2028.88 822.344 1892.4C780.277 1708.46 851.5 1567.99 935.71 1439.57C1015.3 1318.2 1127.67 1266.03 1226.18 1184.62C1238.21 1174.67 1250.56 1160.31 1247.52 1139.14L1247.56 1139.11ZM843.189 1538.99C802.497 1640.3 788.079 1750.68 775.791 1863.65C761.221 1997.57 688.923 2060 592.989 2005.81C465.865 1933.99 360.111 1953.82 265.592 2091.28C254.905 2106.83 232.647 2129.54 223.392 2107.02C207.411 2068.09 232.213 2035.07 249.911 2006.98C340.114 1863.65 446.32 1840.07 572.56 1914.48C621.053 1943.07 688.696 1982.87 718.324 1872.93C733.459 1816.77 731.914 1752.08 737.926 1691.25C740.489 1618.48 737.172 1542.12 779.823 1485.94C797.897 1462.14 822.25 1439.08 845.544 1459.76C868.387 1480.05 853.215 1514 843.189 1538.99Z" fill="black"/>
<path d="M880.522 2404.5C863.823 2382.39 842.111 2441.87 824.734 2467.48C787.321 2522.53 744.011 2554.35 689.995 2523.59C639.369 2494.74 590.198 2477.77 536.539 2506.25C426.112 2564.9 331.498 2670.31 210.309 2699.8C106.688 2725.04 -12.2586 2646.64 -44.5065 2508.92C-69.7809 2400.98 -49.1996 2285.77 -68.8761 2176.35C-100.332 2001.43 -159.457 1856.14 -285.018 1780.88V1862.11C-190.102 1926.14 -146.98 2044.9 -123.119 2176.92C-90.8332 2355.47 -72.2499 2538.75 -114.374 2718.38C-140.232 2828.58 -208.215 2885.84 -285.018 2921.86V2991.89C-108.625 2810.85 30.4117 2870.34 161.079 3077.41C230.062 3186.75 301.965 3187.19 340.695 3052.97C398.632 2852.22 488.403 2706.36 643.536 2645.24C717.813 2615.98 801.305 2614.12 857.565 2525.04C879.617 2490.13 907.04 2439.54 880.541 2404.45L880.522 2404.5ZM600.413 2606.21C498.448 2679.9 419.233 2797.79 320.642 2877.62C285.453 2906.1 246.629 2920.15 200.622 2920.46C134.298 2916.96 70.4059 2882.05 11.9224 2828.04C-0.573364 2816.51 -17.9129 2799.14 -7.79196 2772.78C5.58981 2737.95 30.3928 2741.81 51.5396 2753.76C208.934 2842.6 332.592 2740.1 455.043 2623.5C496.319 2584.21 539.102 2544.63 593.966 2550.88C605.577 2552.2 616.15 2559.51 616.075 2572.42C615.999 2584 608.159 2600.61 600.394 2606.21H600.413Z" fill="black"/>
<path d="M768.521 2204.39C649.557 2134.6 523.825 2159.79 400.205 2173.01C375.044 2175.7 348.582 2207.74 353.54 2249.49C356.819 2277.14 383.997 2272.87 399.961 2267.55C489.522 2237.69 579.652 2219.14 671.533 2239.12C698.767 2245.05 740.684 2240.65 740.589 2293.96C740.495 2349.48 700.745 2345.28 672.249 2341.8C587.944 2331.54 504.865 2318.89 421.446 2358.65C246.505 2442 143.636 2380.45 100.174 2132.94C48.8341 1840.59 -81.2313 1688.33 -284.99 1634.14V1680.76C-283.596 1681.07 -282.238 1681.43 -280.9 1682.03C-109.163 1757.27 27.9513 2036.27 36.6776 2322.86C39.4669 2414.5 52.0005 2506.1 116.195 2556.61C189.624 2614.38 258.435 2570.73 320.407 2516.59C435.204 2416.26 546.649 2321.18 692.81 2403.28C732.428 2425.52 783.524 2399.78 804.914 2336.13C823.347 2281.34 805.349 2225.98 768.577 2204.39H768.521Z" fill="black"/>
<path d="M453.78 991.32C422.475 928.6 356.848 920.877 299.703 976.653C253.093 1022.11 214.174 1085.06 151.356 1090.69C52.8213 1099.5 -10.1478 1015.89 -72.4948 929.457C-157.232 811.948 -181.998 804.949 -285.018 877.387V991.814C-187.313 925.128 -114.694 1010.66 -36.8167 1073.14C101.449 1184.09 190.558 1170.87 325.487 1027.58C344.333 1007.57 369.947 979.579 389.323 1009.96C412.768 1046.71 392.734 1088.51 371.983 1116.58C278.839 1242.59 165.66 1245.8 46.3567 1214.47C-33.707 1193.45 -97.6748 1119.27 -175.741 1093.02C-215.81 1079.54 -250.885 1098.31 -285.018 1122.9V1228C-246.908 1185.31 -204.389 1150.56 -154.405 1171.63C-74.5679 1205.32 1.40567 1257.13 81.7332 1287.81C193.084 1330.37 306.733 1363.03 413.127 1259.05C472.891 1200.63 493.511 1070.86 453.799 991.294L453.78 991.32Z" fill="black"/>
<path d="M2201.98 1792.48C2186.09 1768.64 2169.26 1745.62 2156.79 1718.75C2091.23 1577.26 2089.28 1413.99 2077.65 1254.75C2067.07 1109.82 1978.89 1009.16 1876.86 1030C1790.08 1047.7 1726 1166.22 1722.31 1308.32C1719.95 1399.03 1705.83 1491.14 1747.64 1572.75C1770.16 1616.71 1817.82 1617.93 1837.56 1666.94C1866.21 1738.06 1848.4 1815.96 1852.03 1890.65C1856.82 1988.67 1876.33 2076.12 1938.66 2133.73C2030.54 2218.69 2091.97 2207.39 2201.98 2084.36V1792.51V1792.48ZM2096.9 2138.01C2029.77 2162.94 1978.03 2122.04 1938.32 2050.33C1903 1986.55 1897 1910.3 1896.51 1832.88C1896.27 1745.29 1915.08 1649.42 1855.48 1583.33C1821.58 1545.72 1772.74 1537.61 1757.53 1464.89C1726.64 1317.13 1784.26 1138.51 1878.95 1102.62C1953.09 1074.5 2021.73 1156.91 2045.76 1298.94C2070.81 1446.98 2059.18 1606.42 2116.74 1744.14C2144.49 1810.49 2182.61 1870.57 2184.48 1951.85C2186.51 2040.61 2164.6 2112.87 2096.88 2138.01H2096.9Z" fill="black"/>
<path d="M222.621 0.0259836H117.868C97.796 51.9899 75.4612 102.71 59.3468 156.929C31.9238 249.116 52.7125 322.954 112.948 377.847C135.961 398.814 164.214 417.137 164.778 462.881C164.911 474.259 155.412 493.101 147.742 496.16C112.27 510.337 83.3961 485.922 59.7991 454.095C-35.5307 325.494 -51.061 166.311 14.1132 6.24605C14.9237 4.25052 15.6021 2.15109 16.243 0H-30.9696C-78.3143 139.642 -55.3771 365.64 20.6721 477.862C58.197 533.247 102.582 577.851 160.897 544.131C210.899 515.234 213.595 447.953 211.54 385.441C207.261 256.295 200.928 127.409 222.621 0V0.0259836Z" fill="black"/>
<path d="M2201.98 535.91C2122.63 592.384 2056.91 544.153 1989.72 480.474C1961.9 454.09 1924.71 375.172 1890.52 453.338C1863.93 514.139 1878.27 591.608 1915.12 649.791C1963.27 725.831 2035.81 745.867 2096 794.462C2136.8 827.428 2170.6 870.372 2201.96 917.568V535.91H2201.98Z" fill="black"/>
<path d="M353.871 0.0259836H305.019C302.418 10.3927 299.723 20.7596 297.781 31.3598C270.905 177.766 292.806 328.708 275.918 476.177C264.366 576.942 208.501 672.423 141.838 688.491C81.3952 703.057 29.9796 668.302 -2.87137 599.621C-89.9462 417.578 -131.731 218.871 -109.152 0.0259836H-160.68C-162.433 12.3625 -164.619 24.725 -163.979 36.8023C-152.256 255.259 -104.402 463.218 -21.304 644.482C45.9999 791.277 168.205 835.442 266.457 671.049C330.954 563.154 338.925 435.176 339.718 303.024C340.321 201.791 330.293 99.0815 353.871 0V0.0259836Z" fill="black"/>
<path d="M1768.16 3227.88C1644.24 3019.1 1653.3 2792.56 1790.21 2600.77C1903.99 2441.38 2054.68 2405.02 2201.98 2355.98V2208.85C2052.12 2275.41 1935.3 2419.12 1806.65 2534.84C1589.15 2730.49 1585.17 3099.68 1797.18 3297.93C1804.16 3304.48 1812.07 3309.1 1819.54 3314.64C1814.67 3305.98 1809.96 3297.15 1804.91 3288.75C1792.73 3268.41 1780.3 3248.35 1768.18 3227.91L1768.16 3227.88Z" fill="black"/>
<path d="M1962.59 3100.04C2037.38 3181.81 2104.35 3273.53 2093.47 3419.92H2161.32C2145.51 3266.83 2082.24 3155.14 1994.69 3062.03C1949.9 3014.42 1920.45 2949.94 1937.37 2867.94C1954.32 2785.83 1999.98 2752.68 2060.08 2756.78C2114.74 2760.51 2156.39 2807.06 2201.98 2840.52V2758.28C2176.96 2745.74 2151.41 2734.54 2127.58 2718.63C2045.49 2663.87 1953.33 2692.64 1911.44 2788.48C1866.88 2890.41 1891.7 3022.48 1962.59 3100.01V3100.04Z" fill="black"/>
<path d="M-200.724 3419.95C-184.855 3330.16 -150.27 3262.19 -74.4473 3266.78C-8.16119 3270.77 20.6564 3357.32 62.9499 3412.77C64.6838 3415.02 66.3047 3417.47 67.869 3419.95H112.048C92.6533 3386.65 73.693 3352.79 52.9608 3321.13C10.1396 3255.73 -23.7101 3169 -96.3102 3161.73C-192.922 3152.06 -234.179 3287.51 -256.89 3419.93H-200.724V3419.95Z" fill="black"/>
<path d="M2201.98 69.3847C2171.02 98.3342 2143.52 135.033 2105.54 148.303C2024.68 176.604 1966.38 120.053 1910.74 52.0721C1896.13 34.2151 1881 17.2133 1865.98 0.0302734H1736.8C1796.13 12.7036 1845.34 57.6182 1892.72 107.923C1986.37 207.394 2080.63 301.11 2202 200.37V69.3847H2201.98Z" fill="black"/>
<path d="M1407.49 2178.11C1401.69 2242.22 1405.4 2328.81 1340.49 2363.46C1298.8 2385.73 1308.17 2331.38 1304.96 2301.91C1296.41 2223.12 1262.61 2168.7 1217.78 2123.73C1201.28 2107.2 1174.35 2094.65 1179.01 2061.79C1185.4 2016.69 1216.61 1997.31 1244.92 1983.18C1345.26 1933.11 1407.47 2003.73 1407.47 2178.11H1407.49Z" fill="black"/>
<path d="M735.301 1104.35C737.242 1174.17 722.391 1229.43 667.846 1249.12C634.129 1261.28 627.796 1228.08 628.306 1196.07C629.832 1102.48 633.451 1008.92 638.01 915.49C639.123 892.527 644.211 864.046 665.85 862.594C696.871 860.496 704.222 898.516 712.514 928.189C728.233 984.481 735.792 1043.6 735.301 1104.32V1104.35Z" fill="black"/>
<path d="M879.676 611.34C822.814 562.641 751.362 516.534 694.162 447.931C643.255 386.844 658.785 239.375 709.937 210.296C759.184 182.305 790.678 236.394 824.51 270.605C863.599 310.129 903.913 325.757 953.124 314.379C1022.05 298.466 1039.9 332.159 1018.26 437.719C1000.45 524.621 963.414 589.852 879.676 611.366V611.34Z" fill="black"/>
<path d="M979.23 3285.91C927.702 3281.87 921.368 3245.13 941.405 3192.25C968.808 3119.89 997.344 3048.31 1026.84 2977.53C1035.74 2956.18 1047.97 2929.54 1068.91 2936.2C1093.52 2944.02 1102.23 2978.67 1100.87 3007.21C1097.29 3082.45 1101.51 3161.77 1065.12 3226.74C1043.39 3265.5 1012.29 3281.46 979.249 3285.94L979.23 3285.91Z" fill="black"/>
<path d="M1962.31 1809.18C1963.97 1702.74 1976.43 1593.21 1915.23 1505.15C1888.05 1466.04 1839.76 1462.23 1823.54 1406.92C1802.9 1336.58 1839.73 1241.8 1899.45 1228.48C1965.38 1213.78 1970.96 1298.25 1983.36 1355.99C2015.2 1504.16 2004.39 1666.48 2060.29 1807.11C2080.33 1857.52 2109.16 1902.4 2115.85 1961.11C2119.69 1994.8 2112.3 2027.74 2085.94 2038.99C2038.85 2059.05 2010.12 2020.66 1986.94 1971.71C1963.5 1922.21 1960.12 1866.33 1962.31 1809.15V1809.18Z" fill="black"/>
</g>
</svg>
