<svg width="873" height="832" viewBox="0 0 873 832" fill="none" xmlns="http://www.w3.org/2000/svg">
<path d="M374.098 191.816C292.533 145.728 185.478 111.903 101.364 145.728C27.1354 175.577 12.1522 216.073 1.95651 240.33C-8.23914 264.588 19.7989 283.993 124.304 349.487C228.81 414.981 213.516 621.166 185.478 691.511C157.44 761.857 185.478 790.965 292.533 759.431C399.587 727.897 509.19 545.969 511.739 458.644C514.288 371.318 471.425 246.811 374.098 191.816Z" fill="#B9EF9E"/>
<path d="M540.569 142.876C635.04 168.937 741.258 222.296 784.448 307.605C822.562 382.888 807.276 422.844 799.074 447.663C790.872 472.481 756.022 466.082 630.685 437.319C505.348 408.556 379.85 567.746 354.868 638.611C329.886 709.476 288.568 710.045 225.922 609.741C163.275 509.437 198.895 299.261 255.118 234.689C311.34 170.117 427.842 111.779 540.569 142.876Z" fill="#F8A579"/>
</svg>
