<svg width="24" height="25" viewBox="0 0 24 25" fill="none" xmlns="http://www.w3.org/2000/svg">
<path d="M4.66438 7.49289C3.36778 6.99298 2.19508 6.51324 1.00221 6.094C0.572896 5.94417 0.610353 5.65316 0.649251 5.36071C0.693912 5.02503 0.421626 4.60868 0.977723 4.3897C4.45116 3.02539 7.91452 1.63659 11.3779 0.249231C11.6502 0.13974 11.8792 0.195926 12.1285 0.295332C15.5054 1.64235 18.8794 2.99946 22.2707 4.31046C22.8038 4.51648 22.7678 4.85215 22.7764 5.25986C22.7851 5.65748 22.7951 5.97587 22.288 6.14299C21.2435 6.48586 20.2279 6.91374 19.2007 7.30848C18.9803 7.39348 18.7598 7.56348 18.7512 7.10391C18.7296 5.88223 17.9761 5.14028 16.9993 4.56978C15.903 3.93013 14.6986 3.61894 13.451 3.4864C11.3779 3.26454 9.33069 3.34954 7.35842 4.11741C7.11351 4.2125 6.8686 4.3119 6.63809 4.4358C5.45819 5.07689 4.54481 5.90384 4.66438 7.49289Z" fill="#1164E9"/>
<path d="M21.7058 15.8614C21.5243 15.8715 21.4379 15.8816 21.3514 15.8816C17.6806 15.8816 14.0084 15.8903 10.3376 15.8773C9.04384 15.873 8.14343 15.1382 7.97631 14.0145C7.75301 12.5133 8.75571 11.3824 10.3548 11.3767C13.811 11.3651 17.2657 11.3723 20.7219 11.3723C21.0086 11.3723 21.2952 11.3723 21.6957 11.3723C20.4827 12.8692 20.4092 14.343 21.7058 15.8614Z" fill="#7CAAF3"/>
<path d="M18.0893 8.64698C18.0893 9.2218 18.0951 9.79807 18.085 10.3729C18.0821 10.5184 18.1628 10.7417 17.8833 10.7388C17.7234 10.7374 17.5217 10.8051 17.4281 10.6192C16.7193 9.21172 15.3405 8.9668 14.0108 8.69884C12.0544 8.30554 10.1023 8.38622 8.19197 8.99562C7.29588 9.28087 6.41419 9.62086 5.99784 10.576C5.88259 10.8411 5.67801 10.7316 5.5109 10.7331C5.25878 10.7374 5.2948 10.5256 5.2948 10.3657C5.29336 9.23909 5.26022 8.11105 5.30776 6.98589C5.3481 6.0048 6.05115 5.45735 6.83631 5.05252C8.6357 4.12617 10.5806 3.93313 12.5644 4.04694C13.7385 4.11465 14.8939 4.3149 15.9888 4.77447C17.6773 5.48328 18.0922 6.10565 18.0922 7.92665C18.0893 8.16724 18.0893 8.40783 18.0893 8.64698Z" fill="#1164E9"/>
<path d="M1.7207 20.999C2.95535 19.3048 2.95391 18.3151 1.73223 16.5243C2.84298 16.5243 3.91339 16.5243 4.98381 16.5243C7.72107 16.5243 10.4569 16.5186 13.1942 16.5272C14.1796 16.5301 14.9892 17.0992 15.3191 17.9679C15.6534 18.851 15.4113 19.835 14.7011 20.4617C14.3308 20.7873 13.9044 20.9962 13.4002 20.9962C9.53631 21.0005 5.671 20.999 1.7207 20.999Z" fill="#7CAAF3"/>
<path d="M8.24979 11.3738C6.95175 12.9038 6.97912 14.3516 8.20801 15.8355C6.07582 15.8355 4.02432 15.8917 1.97858 15.8125C0.919688 15.7721 0.153255 14.7694 0.123001 13.6817C0.0927473 12.6401 0.802995 11.6979 1.80714 11.4602C2.01459 11.4112 2.23213 11.3766 2.44535 11.3766C4.3355 11.3709 6.22565 11.3738 8.24979 11.3738Z" fill="#7CAAF3"/>
<path d="M23.1754 18.4075C22.216 18.0675 21.2536 17.9134 20.2725 18.1208C18.9442 18.4003 17.8378 19.0803 17.1837 20.2717C16.8336 20.9099 16.4274 21.1001 15.7776 21.0108C15.6134 20.9877 15.4434 21.0079 15.1754 21.0079C16.4029 19.5139 16.4461 18.0459 15.1553 16.5375C17.2803 16.5375 19.3101 16.4986 21.3372 16.5548C22.2995 16.5807 22.981 17.3414 23.1754 18.4075Z" fill="#7CAAF3"/>
<g clip-path="url(#clip0_94_46)">
<mask id="path-9-inside-1_94_46" fill="white">
<path d="M19.6373 24.3947C19.5623 24.3621 19.4871 24.3296 19.4121 24.2972C19.4039 24.2932 19.3955 24.2891 19.3873 24.2851C19.3287 24.2557 19.27 24.2262 19.2115 24.1967C19.1503 24.1596 19.089 24.1225 19.0278 24.0853L19.025 24.0823C18.9591 24.036 18.8934 23.9898 18.8276 23.9434C18.8061 23.9178 18.779 23.8993 18.7504 23.8829C18.7162 23.8445 18.6767 23.812 18.6349 23.7824C18.611 23.7521 18.5829 23.7265 18.5516 23.7041C18.5152 23.6613 18.4779 23.6192 18.4339 23.5839C18.4132 23.5551 18.394 23.525 18.362 23.5068C18.3289 23.4509 18.2866 23.4024 18.2414 23.3561C18.2293 23.3395 18.2173 23.3229 18.2052 23.3063C18.1659 23.2488 18.1265 23.1913 18.0872 23.1339C18.0687 23.1029 18.0504 23.072 18.0319 23.0411C18.0082 22.9983 17.9844 22.9554 17.9608 22.9127C17.8951 22.7808 17.8361 22.6461 17.7813 22.5095C17.7614 22.4448 17.7413 22.3803 17.7214 22.3157C17.6918 22.1816 17.6621 22.0476 17.6325 21.9135C17.6367 21.8467 17.6177 21.7822 17.6132 21.7162C17.61 21.6495 17.6067 21.5826 17.6035 21.5158C17.6035 21.458 17.6036 21.4003 17.6036 21.3425C17.609 21.2675 17.6143 21.1924 17.6196 21.1174C17.6306 21.0965 17.6329 21.0741 17.6306 21.051C17.6311 21.0421 17.6317 21.0332 17.6321 21.0243C17.6484 20.9912 17.6443 20.9543 17.6513 20.9196C17.6631 20.8572 17.6748 20.7949 17.6866 20.7325C17.7079 20.6616 17.7292 20.5908 17.7505 20.5199C17.773 20.4536 17.7956 20.3871 17.8182 20.3207C17.8182 20.312 17.8182 20.3034 17.8182 20.2948C17.8669 20.253 17.8775 20.1915 17.9 20.136C17.9374 20.0594 17.997 19.9928 18.0062 19.9033C18.0098 19.9035 18.0133 19.9038 18.0169 19.9042C18.0722 19.8482 18.1035 19.7762 18.1453 19.7113C18.1744 19.6716 18.2033 19.632 18.2324 19.5924C18.2494 19.5696 18.2664 19.5471 18.2834 19.5244C18.4038 19.3878 18.5263 19.2533 18.66 19.1294C18.6644 19.125 18.6688 19.1207 18.6732 19.1164L18.671 19.1185C18.6786 19.112 18.6863 19.1055 18.6939 19.099C18.7171 19.0871 18.7366 19.0707 18.752 19.0496C18.8098 19.0058 18.873 18.969 18.9242 18.9166L18.9213 18.9187C18.9396 18.9138 18.9538 18.9028 18.9663 18.8891C18.984 18.8851 18.9988 18.8768 19.0082 18.8606C19.1407 18.782 19.2738 18.7046 19.4113 18.6352C19.4847 18.6046 19.5581 18.5741 19.6314 18.5435L19.635 18.5438L19.637 18.5408C19.6474 18.5404 19.6576 18.5394 19.6638 18.5293C19.7128 18.5135 19.7618 18.4979 19.8108 18.4821C19.8992 18.4583 19.9875 18.4344 20.0759 18.4107C20.1048 18.41 20.1335 18.4076 20.1599 18.3941C20.3 18.3775 20.4401 18.3609 20.5803 18.3443C20.5889 18.3441 20.5976 18.344 20.6063 18.3439C20.6105 18.3436 20.6149 18.3433 20.6192 18.3431C20.628 18.3429 20.6371 18.3429 20.646 18.3428C20.6946 18.3427 20.7433 18.3424 20.7919 18.3423C20.9289 18.355 21.066 18.3676 21.203 18.3804C21.2642 18.3913 21.3254 18.4022 21.3866 18.4132C21.4579 18.432 21.5291 18.451 21.6004 18.4699C21.6626 18.4896 21.7248 18.5094 21.787 18.5293C21.807 18.5441 21.8301 18.5498 21.8538 18.554C21.8951 18.5791 21.9396 18.5964 21.9859 18.6094C22.1296 18.6824 22.2725 18.7566 22.4105 18.8403C22.5324 18.9317 22.6541 19.0232 22.776 19.1147C22.7861 19.1234 22.796 19.1323 22.8061 19.1411C22.8605 19.1935 22.9148 19.2458 22.9693 19.2983C22.9867 19.3169 23.0042 19.3353 23.0216 19.3539C23.0702 19.411 23.1188 19.4682 23.1675 19.5253C23.1713 19.5298 23.175 19.5345 23.1789 19.539C23.2211 19.5963 23.2633 19.6537 23.3055 19.711C23.3289 19.7574 23.3564 19.8009 23.3913 19.8396C23.3986 19.8751 23.4224 19.9018 23.4408 19.9314C23.4858 20.0174 23.531 20.1036 23.576 20.1896C23.5956 20.2376 23.6151 20.2855 23.6348 20.3335C23.6567 20.3957 23.6786 20.4578 23.7004 20.5199C23.7255 20.6089 23.7504 20.698 23.7755 20.7869C23.7838 20.8315 23.792 20.8761 23.8001 20.9207C23.8103 20.9861 23.8204 21.0515 23.8306 21.1168C23.8361 21.1921 23.8416 21.2672 23.8471 21.3425C23.8471 21.4003 23.8471 21.458 23.8472 21.5158C23.8438 21.5863 23.8403 21.6566 23.8369 21.7271C23.8305 21.7893 23.8241 21.8514 23.8179 21.9135C23.805 21.9844 23.7921 22.0553 23.7792 22.1262C23.762 22.1925 23.7446 22.2588 23.7273 22.3251C23.7081 22.3865 23.6888 22.448 23.6694 22.5095C23.6425 22.576 23.6157 22.6424 23.5887 22.7089C23.5547 22.7802 23.5206 22.8515 23.4866 22.9226C23.4505 22.984 23.4145 23.0453 23.3784 23.1066C23.3414 23.1612 23.3002 23.2132 23.2718 23.2734C23.2457 23.306 23.2197 23.3388 23.1935 23.3715C23.1577 23.4161 23.1218 23.4608 23.086 23.5054C23.0507 23.5445 23.0153 23.5834 22.98 23.6224C22.9528 23.6405 22.9317 23.6644 22.913 23.6906C22.7987 23.7882 22.6844 23.8858 22.5701 23.9834C22.518 24.0131 22.4676 24.0452 22.423 24.0857C22.4105 24.0929 22.398 24.1001 22.3857 24.1074C22.3239 24.1436 22.2623 24.1797 22.2006 24.216C22.1515 24.2407 22.1023 24.2655 22.0532 24.2902C22.0328 24.2935 22.015 24.3023 22.0001 24.3169C21.9284 24.3465 21.8567 24.376 21.7849 24.4056C21.7339 24.4119 21.6884 24.4345 21.6411 24.4522C21.591 24.4657 21.5408 24.4791 21.4905 24.4926C21.4744 24.4969 21.4582 24.5011 21.4421 24.5053C21.429 24.509 21.4158 24.5128 21.4026 24.5165C21.3359 24.529 21.2693 24.5414 21.2028 24.5539C21.1896 24.555 21.1765 24.5561 21.1632 24.5573C21.159 24.5557 21.155 24.5562 21.1513 24.5589C21.102 24.5645 21.0526 24.57 21.0034 24.5756C20.933 24.5801 20.8626 24.5847 20.7923 24.5892C20.77 24.5837 20.7475 24.5839 20.7252 24.5892C20.6193 24.5833 20.5133 24.5775 20.4074 24.5716C20.3716 24.5675 20.3357 24.5633 20.2999 24.5592C20.2962 24.5565 20.2922 24.5558 20.2879 24.5574C20.2705 24.5557 20.2533 24.554 20.2359 24.5523C20.1602 24.5365 20.0847 24.5207 20.009 24.505C19.9828 24.4989 19.9566 24.4926 19.9304 24.4865C19.8859 24.4742 19.8416 24.4617 19.7971 24.4494C19.7449 24.4261 19.6926 24.4061 19.6373 24.3947ZM22.5221 23.6191C22.5342 23.6086 22.5462 23.5982 22.5582 23.5878C22.6054 23.5544 22.6516 23.5203 22.6809 23.4687C22.6886 23.4603 22.6964 23.4519 22.7041 23.4436C22.78 23.4016 22.8207 23.3268 22.8734 23.2632C22.9038 23.2277 22.9342 23.1923 22.9646 23.1568C22.9713 23.1458 22.978 23.1348 22.9847 23.1236C23.0017 23.1106 23.0129 23.0935 23.0205 23.0736C23.0615 23.0343 23.0889 22.9857 23.1137 22.9354C23.1592 22.8815 23.1845 22.816 23.2158 22.7542C23.2657 22.6784 23.3012 22.5956 23.3309 22.5103C23.3577 22.4531 23.3816 22.3949 23.3953 22.3329C23.4078 22.3142 23.4144 22.2937 23.4144 22.2712C23.4167 22.2627 23.4189 22.2542 23.4212 22.2457C23.4403 22.2039 23.4549 22.1611 23.4489 22.114C23.4884 22.0529 23.4854 21.9816 23.4978 21.9139C23.5141 21.8482 23.5201 21.7813 23.523 21.7139C23.5273 21.6479 23.5315 21.5819 23.5356 21.5159C23.538 21.4578 23.545 21.3995 23.5291 21.3421C23.5292 21.2623 23.5258 21.1828 23.5108 21.1041C23.5008 21.0416 23.491 20.979 23.4811 20.9165C23.4667 20.8545 23.4603 20.7905 23.4337 20.7318C23.4272 20.7087 23.4205 20.6856 23.414 20.6625C23.401 20.6035 23.3853 20.5452 23.3564 20.4914C23.3427 20.4306 23.3163 20.375 23.2872 20.3204C23.2588 20.25 23.2292 20.1803 23.1839 20.1186C23.1168 19.9722 23.0151 19.8486 22.9196 19.7209C22.8948 19.6806 22.8645 19.6452 22.8288 19.6143C22.7959 19.5641 22.7505 19.5257 22.7076 19.4848C22.6862 19.4511 22.6566 19.4259 22.6236 19.4042C22.5963 19.374 22.5697 19.343 22.5329 19.3235C22.4947 19.2798 22.4491 19.2452 22.3987 19.2166C22.2755 19.1177 22.1432 19.033 21.9993 18.9672C21.9363 18.9292 21.8711 18.8958 21.8005 18.874C21.7884 18.8662 21.777 18.8562 21.7609 18.8593C21.7373 18.8424 21.7102 18.8347 21.6824 18.8285C21.6624 18.8144 21.6401 18.8067 21.6158 18.8051C21.5303 18.7682 21.4408 18.7447 21.3493 18.7286C21.3412 18.7268 21.3333 18.725 21.3252 18.7232C21.1497 18.6812 20.9723 18.656 20.7913 18.6601C20.7783 18.66 20.7653 18.6598 20.7523 18.6596C20.7299 18.6597 20.7073 18.6598 20.6849 18.66C20.6628 18.6552 20.6408 18.6548 20.6189 18.6612C20.4798 18.6545 20.3442 18.6831 20.2077 18.7029C20.154 18.7132 20.0994 18.72 20.0482 18.7411C19.9627 18.7633 19.8748 18.7777 19.7948 18.8185C19.66 18.8589 19.5315 18.9137 19.4116 18.9879C19.2616 19.0584 19.1261 19.1515 18.9978 19.2554C18.9671 19.2736 18.9387 19.2944 18.9168 19.3232C18.8723 19.3527 18.8334 19.3886 18.7992 19.4293C18.7762 19.4407 18.7581 19.4571 18.7472 19.4807C18.6888 19.5266 18.6405 19.582 18.5975 19.6423C18.5796 19.6506 18.5697 19.6666 18.5601 19.6825C18.444 19.8178 18.3425 19.963 18.2621 20.1225C18.2393 20.1491 18.2256 20.1806 18.2135 20.213C18.1762 20.2763 18.1456 20.3426 18.1245 20.4131C18.1032 20.4457 18.0886 20.4808 18.0829 20.5194C18.0272 20.6469 17.9971 20.7817 17.9682 20.9169C17.9585 20.9793 17.9487 21.0417 17.939 21.1041C17.9233 21.1827 17.9211 21.2623 17.9203 21.3421C17.9051 21.3996 17.9117 21.4578 17.914 21.5159C17.9183 21.5819 17.9227 21.6479 17.9269 21.7139C17.9293 21.7813 17.9357 21.8482 17.952 21.9138C17.9715 22.0549 18.0034 22.1931 18.0536 22.3267C18.0581 22.3692 18.0747 22.4074 18.095 22.4443C18.0963 22.4618 18.1019 22.4778 18.1141 22.4908L18.1119 22.4884C18.1351 22.567 18.1684 22.6412 18.2101 22.7118C18.2442 22.7908 18.2847 22.8661 18.3358 22.9355C18.3474 22.9676 18.367 22.9946 18.3896 23.0197C18.4075 23.0518 18.4252 23.0842 18.4529 23.1093C18.4941 23.1774 18.5412 23.2406 18.6003 23.2944C18.6033 23.3092 18.6145 23.3167 18.6263 23.3237C18.6643 23.3801 18.7114 23.4279 18.7652 23.4693C18.7816 23.4861 18.7981 23.5027 18.8146 23.5194C18.8744 23.5839 18.944 23.6371 19.0126 23.6914C19.0295 23.7027 19.0463 23.7141 19.0631 23.7254C19.1079 23.7657 19.1565 23.8003 19.2107 23.827C19.3437 23.9179 19.4838 23.9953 19.6351 24.0516C19.6896 24.0826 19.7469 24.1059 19.8083 24.1191C19.8174 24.1222 19.8266 24.1253 19.8359 24.1285C19.891 24.1544 19.949 24.1707 20.0086 24.1817C20.0736 24.2027 20.1395 24.2198 20.2079 24.2257C20.264 24.2411 20.3204 24.2541 20.3794 24.2513C20.4584 24.266 20.5378 24.2765 20.6185 24.2733C20.6808 24.2736 20.743 24.274 20.8053 24.2743C20.8767 24.2828 20.9464 24.266 21.0168 24.2598C21.0798 24.2574 21.1421 24.2488 21.2036 24.2343C21.2721 24.225 21.34 24.2137 21.405 24.1892C21.4278 24.1835 21.4504 24.1773 21.4733 24.1723C21.5775 24.1488 21.6786 24.1161 21.7736 24.0665C21.943 24.0091 22.0974 23.9226 22.2448 23.8227L22.2436 23.8223C22.2556 23.8149 22.2674 23.8075 22.2793 23.8C22.3144 23.7844 22.346 23.7635 22.372 23.735C22.393 23.7294 22.4009 23.7106 22.4127 23.6956C22.4609 23.6871 22.4887 23.649 22.5221 23.6191Z"/>
</mask>
<path d="M19.6373 24.3947C19.5623 24.3621 19.4871 24.3296 19.4121 24.2972C19.4039 24.2932 19.3955 24.2891 19.3873 24.2851C19.3287 24.2557 19.27 24.2262 19.2115 24.1967C19.1503 24.1596 19.089 24.1225 19.0278 24.0853L19.025 24.0823C18.9591 24.036 18.8934 23.9898 18.8276 23.9434C18.8061 23.9178 18.779 23.8993 18.7504 23.8829C18.7162 23.8445 18.6767 23.812 18.6349 23.7824C18.611 23.7521 18.5829 23.7265 18.5516 23.7041C18.5152 23.6613 18.4779 23.6192 18.4339 23.5839C18.4132 23.5551 18.394 23.525 18.362 23.5068C18.3289 23.4509 18.2866 23.4024 18.2414 23.3561C18.2293 23.3395 18.2173 23.3229 18.2052 23.3063C18.1659 23.2488 18.1265 23.1913 18.0872 23.1339C18.0687 23.1029 18.0504 23.072 18.0319 23.0411C18.0082 22.9983 17.9844 22.9554 17.9608 22.9127C17.8951 22.7808 17.8361 22.6461 17.7813 22.5095C17.7614 22.4448 17.7413 22.3803 17.7214 22.3157C17.6918 22.1816 17.6621 22.0476 17.6325 21.9135C17.6367 21.8467 17.6177 21.7822 17.6132 21.7162C17.61 21.6495 17.6067 21.5826 17.6035 21.5158C17.6035 21.458 17.6036 21.4003 17.6036 21.3425C17.609 21.2675 17.6143 21.1924 17.6196 21.1174C17.6306 21.0965 17.6329 21.0741 17.6306 21.051C17.6311 21.0421 17.6317 21.0332 17.6321 21.0243C17.6484 20.9912 17.6443 20.9543 17.6513 20.9196C17.6631 20.8572 17.6748 20.7949 17.6866 20.7325C17.7079 20.6616 17.7292 20.5908 17.7505 20.5199C17.773 20.4536 17.7956 20.3871 17.8182 20.3207C17.8182 20.312 17.8182 20.3034 17.8182 20.2948C17.8669 20.253 17.8775 20.1915 17.9 20.136C17.9374 20.0594 17.997 19.9928 18.0062 19.9033C18.0098 19.9035 18.0133 19.9038 18.0169 19.9042C18.0722 19.8482 18.1035 19.7762 18.1453 19.7113C18.1744 19.6716 18.2033 19.632 18.2324 19.5924C18.2494 19.5696 18.2664 19.5471 18.2834 19.5244C18.4038 19.3878 18.5263 19.2533 18.66 19.1294C18.6644 19.125 18.6688 19.1207 18.6732 19.1164L18.671 19.1185C18.6786 19.112 18.6863 19.1055 18.6939 19.099C18.7171 19.0871 18.7366 19.0707 18.752 19.0496C18.8098 19.0058 18.873 18.969 18.9242 18.9166L18.9213 18.9187C18.9396 18.9138 18.9538 18.9028 18.9663 18.8891C18.984 18.8851 18.9988 18.8768 19.0082 18.8606C19.1407 18.782 19.2738 18.7046 19.4113 18.6352C19.4847 18.6046 19.5581 18.5741 19.6314 18.5435L19.635 18.5438L19.637 18.5408C19.6474 18.5404 19.6576 18.5394 19.6638 18.5293C19.7128 18.5135 19.7618 18.4979 19.8108 18.4821C19.8992 18.4583 19.9875 18.4344 20.0759 18.4107C20.1048 18.41 20.1335 18.4076 20.1599 18.3941C20.3 18.3775 20.4401 18.3609 20.5803 18.3443C20.5889 18.3441 20.5976 18.344 20.6063 18.3439C20.6105 18.3436 20.6149 18.3433 20.6192 18.3431C20.628 18.3429 20.6371 18.3429 20.646 18.3428C20.6946 18.3427 20.7433 18.3424 20.7919 18.3423C20.9289 18.355 21.066 18.3676 21.203 18.3804C21.2642 18.3913 21.3254 18.4022 21.3866 18.4132C21.4579 18.432 21.5291 18.451 21.6004 18.4699C21.6626 18.4896 21.7248 18.5094 21.787 18.5293C21.807 18.5441 21.8301 18.5498 21.8538 18.554C21.8951 18.5791 21.9396 18.5964 21.9859 18.6094C22.1296 18.6824 22.2725 18.7566 22.4105 18.8403C22.5324 18.9317 22.6541 19.0232 22.776 19.1147C22.7861 19.1234 22.796 19.1323 22.8061 19.1411C22.8605 19.1935 22.9148 19.2458 22.9693 19.2983C22.9867 19.3169 23.0042 19.3353 23.0216 19.3539C23.0702 19.411 23.1188 19.4682 23.1675 19.5253C23.1713 19.5298 23.175 19.5345 23.1789 19.539C23.2211 19.5963 23.2633 19.6537 23.3055 19.711C23.3289 19.7574 23.3564 19.8009 23.3913 19.8396C23.3986 19.8751 23.4224 19.9018 23.4408 19.9314C23.4858 20.0174 23.531 20.1036 23.576 20.1896C23.5956 20.2376 23.6151 20.2855 23.6348 20.3335C23.6567 20.3957 23.6786 20.4578 23.7004 20.5199C23.7255 20.6089 23.7504 20.698 23.7755 20.7869C23.7838 20.8315 23.792 20.8761 23.8001 20.9207C23.8103 20.9861 23.8204 21.0515 23.8306 21.1168C23.8361 21.1921 23.8416 21.2672 23.8471 21.3425C23.8471 21.4003 23.8471 21.458 23.8472 21.5158C23.8438 21.5863 23.8403 21.6566 23.8369 21.7271C23.8305 21.7893 23.8241 21.8514 23.8179 21.9135C23.805 21.9844 23.7921 22.0553 23.7792 22.1262C23.762 22.1925 23.7446 22.2588 23.7273 22.3251C23.7081 22.3865 23.6888 22.448 23.6694 22.5095C23.6425 22.576 23.6157 22.6424 23.5887 22.7089C23.5547 22.7802 23.5206 22.8515 23.4866 22.9226C23.4505 22.984 23.4145 23.0453 23.3784 23.1066C23.3414 23.1612 23.3002 23.2132 23.2718 23.2734C23.2457 23.306 23.2197 23.3388 23.1935 23.3715C23.1577 23.4161 23.1218 23.4608 23.086 23.5054C23.0507 23.5445 23.0153 23.5834 22.98 23.6224C22.9528 23.6405 22.9317 23.6644 22.913 23.6906C22.7987 23.7882 22.6844 23.8858 22.5701 23.9834C22.518 24.0131 22.4676 24.0452 22.423 24.0857C22.4105 24.0929 22.398 24.1001 22.3857 24.1074C22.3239 24.1436 22.2623 24.1797 22.2006 24.216C22.1515 24.2407 22.1023 24.2655 22.0532 24.2902C22.0328 24.2935 22.015 24.3023 22.0001 24.3169C21.9284 24.3465 21.8567 24.376 21.7849 24.4056C21.7339 24.4119 21.6884 24.4345 21.6411 24.4522C21.591 24.4657 21.5408 24.4791 21.4905 24.4926C21.4744 24.4969 21.4582 24.5011 21.4421 24.5053C21.429 24.509 21.4158 24.5128 21.4026 24.5165C21.3359 24.529 21.2693 24.5414 21.2028 24.5539C21.1896 24.555 21.1765 24.5561 21.1632 24.5573C21.159 24.5557 21.155 24.5562 21.1513 24.5589C21.102 24.5645 21.0526 24.57 21.0034 24.5756C20.933 24.5801 20.8626 24.5847 20.7923 24.5892C20.77 24.5837 20.7475 24.5839 20.7252 24.5892C20.6193 24.5833 20.5133 24.5775 20.4074 24.5716C20.3716 24.5675 20.3357 24.5633 20.2999 24.5592C20.2962 24.5565 20.2922 24.5558 20.2879 24.5574C20.2705 24.5557 20.2533 24.554 20.2359 24.5523C20.1602 24.5365 20.0847 24.5207 20.009 24.505C19.9828 24.4989 19.9566 24.4926 19.9304 24.4865C19.8859 24.4742 19.8416 24.4617 19.7971 24.4494C19.7449 24.4261 19.6926 24.4061 19.6373 24.3947ZM22.5221 23.6191C22.5342 23.6086 22.5462 23.5982 22.5582 23.5878C22.6054 23.5544 22.6516 23.5203 22.6809 23.4687C22.6886 23.4603 22.6964 23.4519 22.7041 23.4436C22.78 23.4016 22.8207 23.3268 22.8734 23.2632C22.9038 23.2277 22.9342 23.1923 22.9646 23.1568C22.9713 23.1458 22.978 23.1348 22.9847 23.1236C23.0017 23.1106 23.0129 23.0935 23.0205 23.0736C23.0615 23.0343 23.0889 22.9857 23.1137 22.9354C23.1592 22.8815 23.1845 22.816 23.2158 22.7542C23.2657 22.6784 23.3012 22.5956 23.3309 22.5103C23.3577 22.4531 23.3816 22.3949 23.3953 22.3329C23.4078 22.3142 23.4144 22.2937 23.4144 22.2712C23.4167 22.2627 23.4189 22.2542 23.4212 22.2457C23.4403 22.2039 23.4549 22.1611 23.4489 22.114C23.4884 22.0529 23.4854 21.9816 23.4978 21.9139C23.5141 21.8482 23.5201 21.7813 23.523 21.7139C23.5273 21.6479 23.5315 21.5819 23.5356 21.5159C23.538 21.4578 23.545 21.3995 23.5291 21.3421C23.5292 21.2623 23.5258 21.1828 23.5108 21.1041C23.5008 21.0416 23.491 20.979 23.4811 20.9165C23.4667 20.8545 23.4603 20.7905 23.4337 20.7318C23.4272 20.7087 23.4205 20.6856 23.414 20.6625C23.401 20.6035 23.3853 20.5452 23.3564 20.4914C23.3427 20.4306 23.3163 20.375 23.2872 20.3204C23.2588 20.25 23.2292 20.1803 23.1839 20.1186C23.1168 19.9722 23.0151 19.8486 22.9196 19.7209C22.8948 19.6806 22.8645 19.6452 22.8288 19.6143C22.7959 19.5641 22.7505 19.5257 22.7076 19.4848C22.6862 19.4511 22.6566 19.4259 22.6236 19.4042C22.5963 19.374 22.5697 19.343 22.5329 19.3235C22.4947 19.2798 22.4491 19.2452 22.3987 19.2166C22.2755 19.1177 22.1432 19.033 21.9993 18.9672C21.9363 18.9292 21.8711 18.8958 21.8005 18.874C21.7884 18.8662 21.777 18.8562 21.7609 18.8593C21.7373 18.8424 21.7102 18.8347 21.6824 18.8285C21.6624 18.8144 21.6401 18.8067 21.6158 18.8051C21.5303 18.7682 21.4408 18.7447 21.3493 18.7286C21.3412 18.7268 21.3333 18.725 21.3252 18.7232C21.1497 18.6812 20.9723 18.656 20.7913 18.6601C20.7783 18.66 20.7653 18.6598 20.7523 18.6596C20.7299 18.6597 20.7073 18.6598 20.6849 18.66C20.6628 18.6552 20.6408 18.6548 20.6189 18.6612C20.4798 18.6545 20.3442 18.6831 20.2077 18.7029C20.154 18.7132 20.0994 18.72 20.0482 18.7411C19.9627 18.7633 19.8748 18.7777 19.7948 18.8185C19.66 18.8589 19.5315 18.9137 19.4116 18.9879C19.2616 19.0584 19.1261 19.1515 18.9978 19.2554C18.9671 19.2736 18.9387 19.2944 18.9168 19.3232C18.8723 19.3527 18.8334 19.3886 18.7992 19.4293C18.7762 19.4407 18.7581 19.4571 18.7472 19.4807C18.6888 19.5266 18.6405 19.582 18.5975 19.6423C18.5796 19.6506 18.5697 19.6666 18.5601 19.6825C18.444 19.8178 18.3425 19.963 18.2621 20.1225C18.2393 20.1491 18.2256 20.1806 18.2135 20.213C18.1762 20.2763 18.1456 20.3426 18.1245 20.4131C18.1032 20.4457 18.0886 20.4808 18.0829 20.5194C18.0272 20.6469 17.9971 20.7817 17.9682 20.9169C17.9585 20.9793 17.9487 21.0417 17.939 21.1041C17.9233 21.1827 17.9211 21.2623 17.9203 21.3421C17.9051 21.3996 17.9117 21.4578 17.914 21.5159C17.9183 21.5819 17.9227 21.6479 17.9269 21.7139C17.9293 21.7813 17.9357 21.8482 17.952 21.9138C17.9715 22.0549 18.0034 22.1931 18.0536 22.3267C18.0581 22.3692 18.0747 22.4074 18.095 22.4443C18.0963 22.4618 18.1019 22.4778 18.1141 22.4908L18.1119 22.4884C18.1351 22.567 18.1684 22.6412 18.2101 22.7118C18.2442 22.7908 18.2847 22.8661 18.3358 22.9355C18.3474 22.9676 18.367 22.9946 18.3896 23.0197C18.4075 23.0518 18.4252 23.0842 18.4529 23.1093C18.4941 23.1774 18.5412 23.2406 18.6003 23.2944C18.6033 23.3092 18.6145 23.3167 18.6263 23.3237C18.6643 23.3801 18.7114 23.4279 18.7652 23.4693C18.7816 23.4861 18.7981 23.5027 18.8146 23.5194C18.8744 23.5839 18.944 23.6371 19.0126 23.6914C19.0295 23.7027 19.0463 23.7141 19.0631 23.7254C19.1079 23.7657 19.1565 23.8003 19.2107 23.827C19.3437 23.9179 19.4838 23.9953 19.6351 24.0516C19.6896 24.0826 19.7469 24.1059 19.8083 24.1191C19.8174 24.1222 19.8266 24.1253 19.8359 24.1285C19.891 24.1544 19.949 24.1707 20.0086 24.1817C20.0736 24.2027 20.1395 24.2198 20.2079 24.2257C20.264 24.2411 20.3204 24.2541 20.3794 24.2513C20.4584 24.266 20.5378 24.2765 20.6185 24.2733C20.6808 24.2736 20.743 24.274 20.8053 24.2743C20.8767 24.2828 20.9464 24.266 21.0168 24.2598C21.0798 24.2574 21.1421 24.2488 21.2036 24.2343C21.2721 24.225 21.34 24.2137 21.405 24.1892C21.4278 24.1835 21.4504 24.1773 21.4733 24.1723C21.5775 24.1488 21.6786 24.1161 21.7736 24.0665C21.943 24.0091 22.0974 23.9226 22.2448 23.8227L22.2436 23.8223C22.2556 23.8149 22.2674 23.8075 22.2793 23.8C22.3144 23.7844 22.346 23.7635 22.372 23.735C22.393 23.7294 22.4009 23.7106 22.4127 23.6956C22.4609 23.6871 22.4887 23.649 22.5221 23.6191Z" fill="#1164E9" stroke="#1164E9" stroke-width="0.885495" mask="url(#path-9-inside-1_94_46)"/>
<path d="M20.0156 19.1202C20.0819 19.103 20.1483 19.0856 20.2147 19.0683C20.2812 19.0584 20.3476 19.0483 20.4141 19.0383C20.4806 19.0313 20.547 19.0244 20.6135 19.0173C20.6265 19.0165 20.6395 19.0158 20.6525 19.015C20.6571 19.0148 20.6616 19.0147 20.6659 19.0147C20.6925 19.0146 20.7192 19.0143 20.7457 19.0142C20.8344 19.0195 20.923 19.0249 21.0117 19.0302C21.0719 19.0459 21.1335 19.0528 21.1954 19.0573C21.2667 19.0742 21.338 19.091 21.4093 19.1079C21.4314 19.1157 21.4536 19.1237 21.4757 19.1315C21.4841 19.1332 21.4926 19.1351 21.501 19.1368C21.5987 19.176 21.6963 19.2152 21.794 19.2543C21.9404 19.3289 22.0778 19.4184 22.2147 19.5087L22.215 19.5084C22.2788 19.5625 22.3427 19.6165 22.4064 19.6705C22.4242 19.6951 22.4455 19.7159 22.4708 19.7327C22.5109 19.7765 22.5511 19.8203 22.5912 19.8642C22.6037 19.8839 22.6167 19.9029 22.6374 19.9149C22.735 20.0485 22.8291 20.1843 22.9096 20.329C22.9391 20.3893 22.9687 20.4496 22.9981 20.5097C23.0005 20.5259 22.9969 20.5441 23.0126 20.5562C23.0329 20.6123 23.0531 20.6686 23.0734 20.7248C23.0928 20.7925 23.1122 20.8603 23.1317 20.928C23.1423 20.9895 23.1528 21.051 23.1634 21.1126C23.181 21.2534 23.1918 21.3947 23.1898 21.5369C23.1894 21.5635 23.1889 21.5902 23.1885 21.6169C23.1738 21.7871 23.1432 21.9548 23.107 22.1215C23.0893 22.1788 23.0716 22.2358 23.0539 22.2931C23.0317 22.3496 23.0097 22.4063 22.9875 22.4629C22.9411 22.5522 22.8946 22.6416 22.8481 22.7309C22.8452 22.7366 22.8423 22.7423 22.8394 22.7479C22.7675 22.8481 22.6958 22.9482 22.624 23.0485C22.4902 23.1977 22.3467 23.3367 22.187 23.4582C22.1667 23.4726 22.1464 23.4871 22.126 23.5017C22.0862 23.528 22.0463 23.5544 22.0064 23.5807C21.8759 23.6519 21.7424 23.7168 21.6063 23.7763C21.5471 23.7958 21.488 23.8154 21.4288 23.8349C21.2772 23.8725 21.1242 23.9033 20.9693 23.9239C20.9477 23.9252 20.9262 23.9267 20.9045 23.928C20.8959 23.9283 20.8873 23.9285 20.8785 23.9288C20.8648 23.9295 20.8513 23.9301 20.8376 23.9308C20.7627 23.9301 20.6879 23.9295 20.613 23.9288C20.5465 23.924 20.4798 23.9192 20.4133 23.9145C20.2698 23.892 20.1293 23.856 19.9885 23.8214C19.9382 23.7963 19.8848 23.7796 19.8308 23.7646C19.7778 23.742 19.7248 23.7196 19.6718 23.697C19.5902 23.6511 19.5085 23.6051 19.4268 23.5591L19.4249 23.5581C19.4203 23.5556 19.4156 23.553 19.411 23.5504C19.3942 23.5349 19.3769 23.5206 19.3543 23.5142C19.3107 23.4822 19.2672 23.4503 19.2236 23.4183C19.2186 23.4149 19.2136 23.4114 19.2086 23.408C19.1944 23.3964 19.1802 23.385 19.166 23.3735C19.1585 23.367 19.1508 23.3605 19.1432 23.3539C19.1027 23.3165 19.0622 23.2791 19.0219 23.2415C18.983 23.2021 18.9441 23.1625 18.9053 23.1231C18.8778 23.0911 18.8502 23.0592 18.8227 23.0272C18.7927 22.9883 18.7627 22.9496 18.7328 22.9107C18.6917 22.848 18.6505 22.7855 18.6094 22.7228L18.6083 22.7186C18.5358 22.5797 18.4661 22.4396 18.4104 22.2929C18.3927 22.2354 18.375 22.1781 18.3573 22.1206C18.3427 22.0545 18.328 21.9884 18.3134 21.9223C18.3044 21.8556 18.2954 21.789 18.2864 21.7222C18.2824 21.6517 18.2784 21.5811 18.2744 21.5106C18.2749 21.4486 18.2753 21.3864 18.2759 21.3244C18.2841 21.2582 18.2923 21.192 18.3006 21.1257C18.3112 21.0597 18.3218 20.9937 18.3326 20.9279C18.3531 20.8622 18.3764 20.797 18.3809 20.7273C18.4357 20.5994 18.4905 20.4715 18.5454 20.3436C18.6281 20.1953 18.7217 20.0543 18.8243 19.9192L18.8227 19.921C18.8839 19.8535 18.9452 19.7859 19.0065 19.7183L19.0063 19.7187C19.1549 19.5812 19.3175 19.4621 19.4852 19.3495C19.5324 19.3328 19.5755 19.3082 19.6167 19.2802C19.678 19.2523 19.739 19.2245 19.8002 19.1966C19.8414 19.181 19.8827 19.1656 19.9238 19.1501C19.9563 19.1455 19.987 19.1363 20.0156 19.1202ZM18.8389 20.4677C18.8315 20.4809 18.8239 20.4939 18.8165 20.507C18.8092 20.5228 18.802 20.5388 18.7947 20.5546C18.7589 20.6077 18.7401 20.6683 18.7188 20.7278C18.6941 20.7923 18.6684 20.8565 18.6593 20.9256C18.6383 20.9679 18.6338 21.0141 18.6273 21.0597C18.6084 21.1095 18.6082 21.1623 18.6017 21.2141C18.58 21.3887 18.5751 21.5633 18.6051 21.7375C18.6063 21.8004 18.6141 21.8623 18.6353 21.922C18.6427 21.991 18.6619 22.0569 18.6869 22.1214C18.702 22.1859 18.7226 22.2485 18.7551 22.3066C18.7652 22.3455 18.7813 22.3817 18.8037 22.4152C18.8082 22.4237 18.8126 22.4322 18.8171 22.4407C18.8218 22.4497 18.8264 22.4587 18.8309 22.4679C18.8353 22.4885 18.8438 22.5069 18.859 22.5219C18.973 22.7393 19.1279 22.9246 19.3111 23.0855C19.4706 23.2256 19.6429 23.3477 19.8432 23.425C19.8914 23.4571 19.9452 23.4758 20.0004 23.4912C20.1341 23.5418 20.2706 23.5808 20.4136 23.5944C20.4222 23.5952 20.4307 23.5961 20.4393 23.5969C20.4458 23.5976 20.4523 23.5982 20.4588 23.5988C20.5029 23.6151 20.5497 23.611 20.5953 23.6161C20.6989 23.6227 20.8026 23.6293 20.9056 23.6095C20.9368 23.6128 20.9674 23.6108 20.9978 23.6026C21.1444 23.5896 21.2859 23.5545 21.424 23.5042C21.4733 23.4964 21.518 23.4766 21.5611 23.4526C21.7526 23.3793 21.9266 23.2771 22.0808 23.1415C22.1332 23.1042 22.1875 23.0688 22.2215 23.0114C22.2624 22.9964 22.2843 22.9614 22.3091 22.9292C22.3492 22.8965 22.3793 22.8556 22.405 22.811C22.4293 22.8019 22.4404 22.7814 22.4498 22.7594C22.5126 22.6866 22.5635 22.606 22.6061 22.5201C22.6166 22.5146 22.6192 22.5051 22.62 22.4945C22.6563 22.435 22.688 22.3735 22.7089 22.3069C22.7418 22.2487 22.7613 22.1858 22.7774 22.1214C22.8229 21.9925 22.8501 21.8596 22.8627 21.7235C22.8731 21.6842 22.8722 21.6441 22.8708 21.6042C22.8854 21.511 22.8861 21.4178 22.8698 21.3247C22.8724 21.2577 22.8634 21.192 22.8483 21.1269C22.8444 21.0798 22.837 21.0334 22.8222 20.9884C22.8173 20.9675 22.8238 20.9433 22.8054 20.9259C22.7949 20.8571 22.7701 20.7926 22.7454 20.7282C22.727 20.6782 22.7126 20.6264 22.6816 20.5818C22.6806 20.5664 22.6725 20.5563 22.6583 20.5509C22.6596 20.5475 22.6592 20.5443 22.6569 20.5416C22.6417 20.4647 22.5951 20.4044 22.5519 20.3422C22.4177 20.1081 22.2365 19.9169 22.0193 19.7585C21.9488 19.7042 21.8796 19.6477 21.796 19.6138C21.7567 19.5795 21.7097 19.5593 21.6614 19.5416C21.6399 19.5315 21.6185 19.5214 21.597 19.5115C21.5416 19.4808 21.4824 19.46 21.4219 19.4424C21.3505 19.4097 21.2733 19.4005 21.1969 19.388C21.1886 19.3875 21.1804 19.3868 21.172 19.3863C21.1505 19.3596 21.1193 19.3652 21.0908 19.3621C21.0649 19.3523 21.0387 19.3443 21.0105 19.3488C20.9449 19.3349 20.8786 19.33 20.8117 19.3342C20.7984 19.3338 20.7853 19.3334 20.772 19.3332C20.7453 19.3332 20.7187 19.3332 20.6918 19.3332C20.6653 19.3337 20.6387 19.3344 20.6122 19.3349C20.5438 19.3303 20.4772 19.3429 20.4104 19.3544C20.3383 19.3617 20.2669 19.3731 20.1986 19.3986C20.1346 19.4077 20.0737 19.4265 20.015 19.4536C19.9621 19.4641 19.9136 19.486 19.8666 19.5116C19.8497 19.5192 19.833 19.5267 19.8162 19.5344C19.7645 19.5546 19.7135 19.5764 19.67 19.612C19.5885 19.6514 19.5124 19.6988 19.4447 19.7593C19.3693 19.8067 19.3022 19.8638 19.2436 19.9307C19.2344 19.9394 19.2252 19.9479 19.2162 19.9565C19.1553 20.0132 19.0953 20.0707 19.0517 20.1426C19.0394 20.1466 19.033 20.1552 19.0319 20.168C18.9749 20.2271 18.9328 20.2965 18.894 20.368C18.8913 20.3728 18.8888 20.3777 18.8862 20.3825C18.8651 20.4095 18.8474 20.4384 18.8372 20.4715L18.8389 20.4677Z" fill="#1164E9"/>
<circle cx="20.6275" cy="21.3673" r="2.35312" fill="#1164E9"/>
<path d="M20.5377 19.6865C20.5598 19.6959 20.5975 19.6805 20.5982 19.7245C20.5989 19.7953 20.5918 19.8663 20.6022 19.9368C20.5941 19.985 20.5946 20.0333 20.6019 20.0816C20.5981 20.1054 20.6117 20.109 20.6307 20.1066C20.6398 20.107 20.6489 20.1074 20.6579 20.1078L20.6643 20.1091L20.6708 20.1086C20.6787 20.1103 20.6866 20.1119 20.6945 20.1136C20.766 20.1199 20.8353 20.1471 20.9086 20.1384C20.9771 20.1882 21.0633 20.198 21.1357 20.2387C21.1745 20.2578 21.1567 20.2891 21.1526 20.3174C21.1343 20.3467 21.1263 20.3799 21.1176 20.4129C21.0971 20.4452 21.0876 20.4818 21.0772 20.518C21.0659 20.5477 21.053 20.5485 21.0246 20.5313C20.9361 20.4775 20.8425 20.4341 20.7368 20.4259C20.6761 20.4081 20.6143 20.399 20.5509 20.403C20.4787 20.398 20.4074 20.4008 20.3391 20.4281C20.2933 20.4356 20.2509 20.4508 20.2163 20.4833C20.1751 20.5029 20.1454 20.5339 20.1236 20.5735C20.0836 20.6141 20.068 20.665 20.0617 20.7199C20.0392 20.8847 20.1061 21.006 20.2428 21.0934C20.3357 21.1527 20.4327 21.204 20.5377 21.2386C20.5567 21.2551 20.5799 21.2608 20.6039 21.2646C20.6615 21.2909 20.7193 21.3171 20.7769 21.3434C20.8299 21.3748 20.8827 21.4063 20.9357 21.4378C21.0363 21.5156 21.1303 21.5993 21.1893 21.7152C21.207 21.7685 21.2248 21.8217 21.2426 21.8749C21.2437 21.9543 21.2446 22.0337 21.2457 22.113C21.2402 22.1815 21.2228 22.2475 21.2041 22.3132C21.1606 22.4155 21.1023 22.5075 21.022 22.5861C20.9351 22.6711 20.8276 22.7206 20.7213 22.7729C20.6652 22.7859 20.6075 22.7931 20.5547 22.8181C20.5516 22.8216 20.5509 22.8256 20.5527 22.8299C20.5527 22.8567 20.5527 22.8835 20.5528 22.9103C20.5528 22.9766 20.5528 23.0427 20.5528 23.1089C20.5403 23.1583 20.567 23.2118 20.5373 23.2595C20.4713 23.2595 20.4054 23.2596 20.3395 23.2596C20.3304 23.2596 20.3214 23.2596 20.3124 23.2598C20.3079 23.2599 20.3035 23.2599 20.299 23.26C20.2725 23.2568 20.2729 23.2377 20.2729 23.2178C20.2728 23.1859 20.2715 23.1541 20.2707 23.1222C20.2707 23.0516 20.2707 22.981 20.2707 22.9105C20.2707 22.8925 20.2707 22.8746 20.2706 22.8567C20.2748 22.8363 20.2675 22.8267 20.2459 22.8307C20.2285 22.8299 20.2112 22.8292 20.1938 22.8284C20.1091 22.8149 20.0244 22.8013 19.9397 22.7878C19.8744 22.7648 19.8089 22.742 19.7436 22.719C19.7221 22.7087 19.7006 22.6983 19.6791 22.688C19.6111 22.6611 19.6061 22.6153 19.6384 22.5568C19.6455 22.5438 19.6474 22.5278 19.6516 22.5134C19.6682 22.4716 19.6851 22.4297 19.7014 22.3877C19.7084 22.3695 19.7126 22.3484 19.7403 22.3565C19.7947 22.4016 19.8585 22.4281 19.9248 22.4497C19.9927 22.4828 20.0646 22.501 20.1393 22.5106C20.1776 22.5272 20.218 22.5282 20.2587 22.5255C20.3627 22.5398 20.4645 22.5328 20.5636 22.4961C20.6315 22.4807 20.6883 22.4454 20.7383 22.3981C20.7728 22.3719 20.8009 22.3405 20.817 22.2996C20.8588 22.2445 20.8743 22.182 20.87 22.1138C20.8762 22.0434 20.8692 21.9756 20.8316 21.9136C20.8129 21.8633 20.7846 21.82 20.7403 21.7882C20.7092 21.748 20.6707 21.7175 20.6237 21.6981C20.6015 21.6706 20.5697 21.6595 20.5379 21.6484C20.4717 21.6069 20.3991 21.5799 20.3251 21.5558C20.3061 21.5404 20.2848 21.5303 20.2605 21.5267C20.2202 21.5063 20.18 21.4858 20.1397 21.4654C20.0785 21.4322 20.0257 21.3835 19.9562 21.3659C19.9347 21.3274 19.8987 21.3042 19.8646 21.279C19.8275 21.2389 19.7999 21.1903 19.7543 21.158C19.7426 21.1315 19.7308 21.1051 19.7191 21.0785C19.7039 21.0253 19.6888 20.9719 19.6735 20.9187C19.6738 20.8479 19.6741 20.7771 19.6743 20.7064C19.694 20.6453 19.7136 20.5842 19.7333 20.5232C19.7419 20.507 19.7505 20.4906 19.759 20.4745C19.7963 20.4276 19.8338 20.3809 19.8711 20.334C19.9083 20.3051 19.9453 20.2761 19.9825 20.2473L19.9823 20.2469C20.0084 20.2324 20.0345 20.2178 20.0605 20.2034C20.0869 20.1929 20.1134 20.1824 20.1397 20.1719C20.1752 20.1602 20.2107 20.1485 20.2463 20.1368C20.2767 20.1331 20.3116 20.1431 20.3312 20.1079C20.3315 20.0953 20.3318 20.0827 20.332 20.0701C20.3387 20.0208 20.3376 19.9714 20.333 19.922C20.3368 19.8518 20.3396 19.7816 20.3316 19.7113C20.3344 19.7038 20.3372 19.6963 20.34 19.6888C20.4062 19.688 20.472 19.6873 20.5377 19.6865Z" fill="white"/>
</g>
<rect x="17.6092" y="18.3484" width="6.23028" height="6.2336" stroke="#1164E9" stroke-width="0.013276"/>
<defs>
<clipPath id="clip0_94_46">
<rect x="17.6025" y="18.3418" width="6.24356" height="6.24688" fill="white"/>
</clipPath>
</defs>
</svg>
