<svg width="27" height="16" viewBox="0 0 27 16" fill="none" xmlns="http://www.w3.org/2000/svg">
<g clip-path="url(#clip0_149_39)">
<path d="M21.6877 15.9762C21.5252 15.916 21.3627 15.8558 21.2002 15.7946C20.8623 15.568 20.7158 15.2541 20.77 14.8489C20.8231 14.5169 20.8763 14.1849 20.9294 13.8529C21.0558 13.3565 21.1501 12.855 21.1792 12.3425C21.3517 11.82 21.452 11.3125 20.9044 10.9304C20.6827 10.4169 20.7289 9.9234 21.0177 9.44901C21.1712 9.26647 21.448 9.18523 21.446 8.87633C21.4399 8.01078 21.4399 7.14424 21.446 6.2787C21.448 6.041 21.3336 5.97781 21.1341 6.04802C20.6486 6.21752 20.1271 6.26867 19.6617 6.49934C19.2194 6.55852 18.7972 6.69692 18.377 6.83934C18.3248 6.86141 18.2726 6.88347 18.2215 6.90554L18.1964 6.8925L18.1744 6.90955C18.048 6.90855 17.9256 6.92158 17.8283 7.01486C17.4552 7.03793 17.1062 7.15427 16.7652 7.29568C16.3199 7.36589 15.8927 7.49828 15.4694 7.64671C15.4273 7.66477 15.3862 7.68282 15.344 7.70087L15.339 7.69385C15.1404 7.71191 14.9459 7.74601 14.7704 7.85031C14.6951 7.87238 14.6189 7.89545 14.5437 7.91751L14.5056 7.90146L14.4755 7.93356L14.4695 7.93456C14.4143 7.95662 14.3581 7.97769 14.303 7.99975C14.1445 7.99373 13.9921 8.01379 13.8567 8.10707C13.3983 8.23946 12.938 8.23745 12.4766 8.12311C12.1888 7.96966 11.8688 7.92453 11.5569 7.85432C11.2992 7.74701 11.0404 7.64371 10.7566 7.63267C10.3765 7.48925 9.98931 7.3699 9.58613 7.31173C9.25315 7.17032 8.91215 7.05999 8.54908 7.02689C8.50295 7.02188 8.45581 7.01586 8.40967 7.01085C8.28029 6.88448 8.11681 6.85138 7.94431 6.84636C7.41876 6.67486 6.89222 6.50837 6.34461 6.4161C5.97452 6.2476 5.58036 6.16637 5.1852 6.08513C4.64762 5.88654 4.097 5.73309 3.53435 5.62478C3.11813 5.50843 2.70291 5.39209 2.28669 5.27575C1.96775 5.1895 1.64881 5.10224 1.32988 5.01599C1.21654 4.93274 1.08716 4.90867 0.950763 4.90867C0.875542 4.87858 0.802327 4.83847 0.7251 4.81941C-0.00203579 4.63988 -0.155487 4.32696 0.148406 3.62891C0.273774 3.55971 0.400146 3.49151 0.525514 3.42231C1.13631 3.35611 1.70598 3.13847 2.28669 2.95995C2.70291 2.8426 3.11813 2.72626 3.53435 2.60892C4.55234 2.37222 5.5583 2.08939 6.55422 1.76945C7.0577 1.62904 7.56118 1.48863 8.06466 1.34821C8.54407 1.26597 9.00843 1.12857 9.46377 0.962079C9.76064 0.876828 10.0575 0.791578 10.3534 0.70733C10.57 0.701312 10.7696 0.634115 10.9612 0.537832C11.4757 0.445561 11.9761 0.306152 12.4616 0.113586C12.9289 -0.00275577 13.3963 -0.0619296 13.8657 0.101551C14.2679 0.252996 14.6761 0.385384 15.1063 0.437538C15.1605 0.457597 15.2147 0.477655 15.2678 0.497714C15.3019 0.501726 15.335 0.506741 15.3691 0.510753C15.5858 0.638127 15.8235 0.692286 16.0712 0.715354C16.1845 0.799601 16.3169 0.815648 16.4523 0.820663C17.0129 1.03529 17.5916 1.18473 18.1804 1.29807C18.6989 1.49966 19.2335 1.64408 19.7821 1.73535C20.0338 1.88178 20.3146 1.93092 20.5955 1.98107C20.6988 2.00314 20.8021 2.0252 20.9044 2.04727L20.9264 2.0242C20.9846 2.12449 21.0839 2.1255 21.1822 2.1285C21.2524 2.14957 21.3226 2.17163 21.3928 2.19269C22.6154 2.58083 23.844 2.9439 25.0987 3.2167C25.211 3.32803 25.3554 3.32301 25.4979 3.33104C25.7466 3.46042 26.0645 3.40927 26.2762 3.63192C26.5419 4.31392 26.3965 4.59876 25.6894 4.78932C25.5801 4.81841 25.4748 4.86555 25.3685 4.90466C25.2321 4.89965 25.1057 4.92973 24.9964 5.01498C24.6103 5.05911 24.2432 5.17144 23.8841 5.31687C22.6084 5.64082 22.7919 5.37905 22.826 6.52241C22.7799 7.02589 22.7839 7.53037 22.824 8.03385C22.834 8.53131 22.6024 9.09597 23.2112 9.42795C23.486 9.87025 23.5622 10.3376 23.3917 10.8371C23.0086 11.1992 22.7588 11.5983 23.0146 12.1439C23.0316 12.1971 23.0487 12.2492 23.0647 12.3024L23.0487 12.3265L23.0627 12.3515C23.0898 12.7918 23.1369 13.2301 23.2914 13.6483C23.2994 13.7496 23.3064 13.8509 23.3145 13.9512C23.2954 14.0686 23.3104 14.1799 23.3806 14.2792C23.3606 14.6423 23.5491 14.9893 23.4699 15.3574C23.2021 15.7264 22.829 15.92 22.3897 16.0003C22.1881 15.9972 21.9866 15.9952 21.786 15.9922C21.7519 15.9872 21.7198 15.9812 21.6877 15.9762Z" fill="#1164E9"/>
<path d="M11.4687 15.0143C11.3634 15.0022 11.2591 14.9912 11.1537 14.9792C10.5851 14.8729 10.0164 14.7665 9.44774 14.6602C8.94727 14.4877 8.4468 14.3142 7.94733 14.1417C7.9032 14.0665 7.83199 14.0454 7.75075 14.0454C7.68355 14.0083 7.61535 13.9722 7.54816 13.9351L7.55618 13.9411C7.51205 13.8599 7.43583 13.8348 7.35158 13.8258C7.35158 13.8258 7.36462 13.8328 7.36361 13.8328C7.08881 13.572 6.814 13.3113 6.5402 13.0505L6.53819 13.0465C6.5081 13.0084 6.47801 12.9703 6.44792 12.9322L6.45695 12.9422C6.42285 12.8609 6.38875 12.7807 6.35365 12.6995C6.3727 12.6794 6.3717 12.6614 6.35064 12.6443C6.34462 12.6112 6.3376 12.5781 6.33158 12.545C6.32556 12.4768 6.31955 12.4086 6.31453 12.3394C6.31453 11.874 6.31554 11.4077 6.31554 10.9423C6.35666 10.4378 6.35666 9.93335 6.31453 9.42987C6.31353 8.9304 6.31253 8.43194 6.31152 7.93247C6.32556 7.86628 6.33961 7.80008 6.35365 7.73389C6.41583 7.73389 6.47902 7.73489 6.5412 7.73489C7.14497 7.95253 7.76078 8.12604 8.39264 8.24539C8.44379 8.26645 8.49494 8.28751 8.54609 8.30958C8.60025 8.32161 8.65541 8.33265 8.70957 8.34468C8.7547 8.36273 8.79983 8.38079 8.84497 8.39984C8.98137 8.43695 9.11777 8.47306 9.25517 8.51017C9.28726 8.51719 9.32036 8.52421 9.35246 8.53123C9.38756 8.53925 9.42266 8.54728 9.45777 8.5543L9.49487 8.54728C9.56207 8.63654 9.65936 8.63754 9.75664 8.63854L9.7777 8.6566L9.80278 8.64556C10.1658 8.84014 10.57 8.90031 10.9632 8.9966C11.0244 9.01064 11.0866 9.02568 11.1477 9.03972C11.236 9.12497 11.3443 9.13901 11.4606 9.12999C11.7585 9.21323 12.0554 9.29648 12.3533 9.37972C12.8527 9.59034 13.3572 9.62845 13.8697 9.42586C14.2488 9.36568 14.6159 9.26137 14.973 9.11996C15.0271 9.1009 15.0803 9.08084 15.1344 9.06179C15.1806 9.04875 15.2277 9.03571 15.2738 9.02267C15.317 9.00562 15.3601 8.98958 15.4032 8.97253L15.4163 8.98356L15.4423 8.98556L15.4614 8.96751C15.9679 8.88527 16.4633 8.76391 16.9337 8.55329C17.4011 8.50515 17.8384 8.34067 18.2787 8.19223C18.4351 8.17318 18.5906 8.15212 18.718 8.04681C18.9416 7.99365 19.1663 7.94049 19.3899 7.88734C19.426 7.87029 19.4632 7.85324 19.4993 7.83719C19.5685 7.82014 19.6387 7.80309 19.7079 7.78704C19.8272 7.76999 19.9456 7.75395 20.0649 7.7369C20.075 8.80503 20.084 9.87317 20.094 10.9403C20.094 11.4077 20.094 11.8761 20.094 12.3434C20.0569 12.5099 20.0188 12.6774 19.9817 12.8439L19.9847 12.8389C19.8874 12.9211 19.8252 13.0244 19.7971 13.1488L19.7921 13.1578C19.748 13.216 19.7039 13.2742 19.6597 13.3333C19.6597 13.3333 19.6597 13.3153 19.6597 13.3163C19.4361 13.4938 19.2114 13.6723 18.9878 13.8499L18.9858 13.8519C18.8624 13.884 18.7481 13.9321 18.6718 14.0424L18.6809 14.0364C18.5966 14.0444 18.5174 14.0605 18.4702 14.1417L18.4783 14.1347C18.3098 14.1608 18.1503 14.2079 18.0239 14.3323C17.6759 14.4406 17.3269 14.5489 16.9789 14.6572C16.4102 14.7645 15.8425 14.8729 15.2738 14.9802C15.0923 14.9742 14.9108 14.9691 14.7292 14.9631C13.6982 14.9641 12.6672 14.9651 11.6362 14.9661C11.576 14.9812 11.5228 14.9982 11.4687 15.0143Z" fill="#7CAAF3"/>
</g>
<defs>
<clipPath id="clip0_149_39">
<rect width="26.3985" height="16" fill="white"/>
</clipPath>
</defs>
</svg>
