<svg width="20" height="30" viewBox="0 0 20 30" fill="none" xmlns="http://www.w3.org/2000/svg">
<path d="M0.300562 12.1919C0.280161 11.9391 0.267046 11.6855 0.272875 11.4319C0.277976 11.1871 0.289633 10.9423 0.314406 10.6982C0.358851 10.2516 0.437541 9.81225 0.553389 9.37873C0.765414 8.58382 1.09037 7.83772 1.52681 7.14045C1.9188 6.51311 2.38875 5.9499 2.93229 5.44862C3.43649 4.98449 3.9895 4.58886 4.59206 4.26244C5.2551 3.90324 5.95383 3.64094 6.689 3.47409C6.92798 3.41944 7.16915 3.37718 7.41178 3.3444C7.70249 3.30578 7.99394 3.28028 8.28756 3.27445C8.3495 3.27299 8.41143 3.26935 8.47336 3.26862C8.52072 3.26789 8.52363 3.27226 8.52509 3.32254C8.52582 3.3393 8.52509 3.35605 8.52509 3.37354C8.52509 4.38776 8.52509 5.40272 8.52509 6.41694C8.52509 6.43952 8.52509 6.46211 8.52436 6.4847C8.52363 6.50656 8.51052 6.51311 8.49012 6.50073C8.40487 6.44973 8.31598 6.40747 8.22199 6.37686C7.50723 6.14007 6.74656 6.55756 6.55931 7.27961C6.36622 8.02206 6.84638 8.74338 7.56697 8.88036C7.87153 8.93792 8.16079 8.89421 8.43401 8.7463C8.45369 8.73537 8.47336 8.72371 8.49303 8.71351C8.51125 8.70404 8.52363 8.71351 8.52436 8.73683C8.52509 8.76524 8.52509 8.79293 8.52509 8.82135C8.52509 9.68402 8.52509 10.546 8.52509 11.4086C8.52509 11.5347 8.50979 11.5208 8.63803 11.5208C9.50288 11.5208 10.3685 11.5208 11.2333 11.5208C11.2617 11.5208 11.2894 11.5208 11.3178 11.5216C11.3404 11.5223 11.3455 11.5332 11.3346 11.5551C11.3076 11.6075 11.277 11.6585 11.2537 11.7125C10.9208 12.468 11.3652 13.3445 12.19 13.5063C12.9354 13.6527 13.5984 13.1449 13.7157 12.4593C13.7667 12.1598 13.7223 11.8757 13.5751 11.609C13.5212 11.5121 13.535 11.5201 13.6312 11.5201C14.6454 11.5201 15.6603 11.5201 16.6746 11.5201C16.7875 11.5201 16.7758 11.5077 16.7758 11.6265C16.7758 11.6629 16.7751 11.7001 16.7744 11.7365C16.7584 11.7533 16.7576 11.77 16.7737 11.7875C16.7664 12.0017 16.7511 12.2145 16.7278 12.428C16.7001 12.6859 16.6593 12.9416 16.6075 13.1952C16.4982 13.7293 16.3365 14.2473 16.123 14.7486C15.817 15.4692 15.4155 16.1322 14.9208 16.7384C14.5886 17.1457 14.2228 17.5202 13.8162 17.8539C13.4927 18.1198 13.2377 18.4368 13.0621 18.8171C12.9543 19.0517 12.8814 19.2958 12.8472 19.5523C12.8282 19.6922 12.8188 19.8321 12.8188 19.9734C12.8188 20.3763 12.8188 20.7793 12.8188 21.1822C12.8188 21.2383 12.8159 21.2944 12.802 21.3498C12.7408 21.588 12.5164 21.7651 12.2789 21.7687C12.2505 21.7694 12.2228 21.7694 12.1944 21.7694C9.74842 21.7694 7.30249 21.7694 4.85582 21.7694C4.79389 21.7694 4.73196 21.7716 4.67075 21.7571C4.44197 21.7046 4.2416 21.5086 4.22776 21.2164C4.2263 21.1909 4.22703 21.1654 4.22703 21.1407C4.22703 20.7319 4.2263 20.3232 4.22703 19.9151C4.22776 19.5348 4.14834 19.172 3.99096 18.8259C3.8263 18.463 3.59096 18.1534 3.28494 17.8998C2.31589 17.0983 1.56397 16.1293 1.03281 14.9897C0.758128 14.4003 0.55849 13.7854 0.431712 13.1471C0.379252 12.8819 0.337721 12.6152 0.312949 12.3456C0.309306 12.3063 0.304934 12.2669 0.300562 12.2283C0.315135 12.2137 0.313677 12.2028 0.300562 12.1919Z" fill="#1164E9" fill-opacity="0.55"/>
<path d="M10.9037 6.08046C10.8381 6.11179 10.7732 6.14749 10.7055 6.17445C9.94627 6.47391 9.12585 6.01343 8.95827 5.24256C8.81182 4.57078 9.22057 3.86768 9.93898 3.70228C10.2428 3.63234 10.5372 3.66949 10.817 3.81157C10.8446 3.82542 10.8723 3.83926 10.9 3.85238C10.9255 3.87423 10.9284 3.8735 10.9372 3.848C10.9379 3.81449 10.9394 3.78024 10.9394 3.74673C10.9394 2.74343 10.9394 1.74014 10.9394 0.736847C10.9394 0.62027 10.9262 0.632656 11.0414 0.631928C11.2927 0.63047 11.5426 0.6465 11.7918 0.67273C12.6152 0.758705 13.4086 0.961987 14.1707 1.28622C14.8564 1.57839 15.491 1.95654 16.0739 2.42139C16.9074 3.08588 17.5894 3.88225 18.1169 4.80904C18.5001 5.48154 18.7814 6.19412 18.9621 6.94677C19.0247 7.20689 19.0743 7.46919 19.1107 7.73513C19.1449 7.9865 19.169 8.2386 19.1806 8.49215C19.1857 8.60727 19.1908 8.72312 19.1908 8.83824C19.1908 8.87904 19.1857 8.88341 19.1486 8.88487C19.1231 8.8856 19.0976 8.8856 19.0728 8.8856C18.0783 8.8856 17.083 8.8856 16.0884 8.8856C16.0746 8.8856 16.06 8.8856 16.0462 8.8856C15.9485 8.88487 15.942 8.87904 15.9944 8.9774C16.4003 9.73516 15.9872 10.6736 15.1347 10.8609C14.3791 11.027 13.7277 10.5337 13.5849 9.87068C13.5186 9.56321 13.5587 9.2652 13.7073 8.98542C13.719 8.96283 13.7321 8.94097 13.7438 8.91839C13.7532 8.90017 13.7445 8.88706 13.7219 8.88633C13.6935 8.8856 13.6658 8.8856 13.6374 8.8856C12.7747 8.8856 11.9128 8.8856 11.0501 8.8856C10.9233 8.8856 10.9394 8.90017 10.9394 8.77194C10.9386 7.90927 10.9394 7.04732 10.9394 6.18465C10.9394 6.15113 10.9379 6.11689 10.9364 6.08337C10.9284 6.05933 10.9248 6.05933 10.9037 6.08046Z" fill="#1164E9"/>
<path d="M8.65371 25.184C7.46462 25.184 6.27481 25.1833 5.08572 25.1847C4.92979 25.1847 4.78553 25.149 4.64928 25.0747C4.59974 25.0478 4.55456 25.0143 4.51303 24.9764C4.41613 24.8882 4.33671 24.7877 4.28425 24.666C4.25365 24.5953 4.23106 24.5239 4.22232 24.4481C4.21794 24.4088 4.2041 24.3716 4.20629 24.3315C4.21576 24.1363 4.26312 23.9534 4.38552 23.7975C4.52615 23.6182 4.71048 23.5046 4.9349 23.4616C4.95384 23.4579 4.97424 23.4587 4.99391 23.4579C5.042 23.4572 5.09009 23.4572 5.13745 23.4572C7.48211 23.4572 9.8275 23.4572 12.1722 23.4572C12.2115 23.4572 12.2508 23.4565 12.2902 23.4579C12.4315 23.4609 12.5612 23.5024 12.6815 23.5738C12.8046 23.6474 12.9008 23.7479 12.978 23.8681C13.0305 23.9498 13.0625 24.0394 13.0829 24.1334C13.1252 24.3294 13.1062 24.521 13.0173 24.7002C12.9416 24.8547 12.8286 24.9771 12.6785 25.0667C12.5824 25.1243 12.4782 25.1534 12.3718 25.1796C12.3529 25.184 12.3325 25.1833 12.3128 25.1833C12.2647 25.184 12.2166 25.184 12.1692 25.184C10.9984 25.184 9.82604 25.184 8.65371 25.184Z" fill="#1164E9"/>
<path d="M8.66275 27.3166C7.61137 27.3166 6.55999 27.3166 5.50933 27.3166C5.42481 27.3166 5.34175 27.3101 5.25942 27.286C5.03137 27.2205 4.86014 27.0835 4.74211 26.8795C4.65176 26.7235 4.61606 26.5538 4.63136 26.376C4.6452 26.2135 4.70204 26.0642 4.80113 25.9323C4.94175 25.745 5.13046 25.6386 5.35705 25.5927C5.376 25.5891 5.3964 25.5884 5.41607 25.5884C5.44959 25.5876 5.48383 25.5869 5.51735 25.5869C7.61137 25.5869 9.70539 25.5869 11.7994 25.5869C11.8701 25.5869 11.9393 25.5884 12.0092 25.6044C12.1499 25.6357 12.2737 25.6977 12.383 25.7909C12.5368 25.9221 12.6315 26.0875 12.6723 26.2842C12.7087 26.4634 12.6876 26.6368 12.614 26.803C12.5258 27.0019 12.3816 27.1469 12.1856 27.2394C12.0828 27.2875 11.975 27.3174 11.8599 27.3166C11.7418 27.3152 11.6231 27.3166 11.5051 27.3166C10.5564 27.3166 9.60921 27.3166 8.66275 27.3166Z" fill="#1164E9"/>
<path d="M8.66567 27.7195C9.6799 27.7195 10.6941 27.7195 11.7083 27.7195C11.7368 27.7195 11.7644 27.7195 11.7929 27.7217C11.8045 27.7224 11.8133 27.7333 11.8082 27.7457C11.7907 27.7902 11.7725 27.8339 11.7535 27.8783C11.6486 28.1268 11.5459 28.376 11.438 28.6237C11.395 28.722 11.3411 28.8138 11.2646 28.8911C11.1874 28.969 11.1123 29.0492 11.0162 29.1053C10.8981 29.1738 10.7743 29.2219 10.6395 29.2445C10.5608 29.2576 10.4828 29.259 10.4041 29.259C9.2267 29.259 8.04927 29.2583 6.87111 29.2598C6.73705 29.2598 6.60808 29.2379 6.48349 29.1913C6.25179 29.1038 6.0711 28.9552 5.94286 28.7417C5.88312 28.6419 5.84377 28.5341 5.79787 28.4284C5.75561 28.3308 5.71481 28.2317 5.67328 28.1333C5.62155 28.0117 5.56909 27.8907 5.51736 27.769C5.51517 27.7639 5.51299 27.7588 5.51153 27.753C5.50789 27.7399 5.51736 27.7217 5.53047 27.7209C5.55889 27.7195 5.58658 27.7188 5.61499 27.7188C6.6314 27.7195 7.64854 27.7195 8.66567 27.7195Z" fill="#1164E9"/>
<mask id="path-6-inside-1_94_29" fill="white">
<path d="M19.3004 10.579C19.2852 10.5616 19.2852 10.545 19.3011 10.5283C19.3163 10.5457 19.3156 10.563 19.3004 10.579Z"/>
</mask>
<path d="M19.3004 10.579C19.2852 10.5616 19.2852 10.545 19.3011 10.5283C19.3163 10.5457 19.3156 10.563 19.3004 10.579Z" fill="#F8E181"/>
<path d="M19.3004 10.579L19.2455 10.6269L19.298 10.6869L19.3531 10.6293L19.3004 10.579ZM19.3011 10.5283L19.3559 10.4803L19.3035 10.4204L19.2484 10.478L19.3011 10.5283ZM19.3552 10.531C19.3547 10.5305 19.3621 10.5386 19.3619 10.5542C19.3617 10.57 19.3539 10.5785 19.3537 10.5787L19.2484 10.478C19.2324 10.4947 19.2166 10.5199 19.2162 10.5526C19.2159 10.5849 19.2308 10.6101 19.2455 10.6269L19.3552 10.531ZM19.2463 10.5763C19.2457 10.5757 19.239 10.5674 19.2393 10.5526C19.2396 10.5379 19.2467 10.5297 19.2477 10.5287L19.3531 10.6293C19.3692 10.6123 19.3843 10.5875 19.385 10.5557C19.3856 10.524 19.3717 10.4983 19.3559 10.4803L19.2463 10.5763Z" fill="#1164E9" mask="url(#path-6-inside-1_94_29)"/>
<mask id="path-8-inside-2_94_29" fill="white">
<path d="M2.82703 10.9854C2.84038 10.9957 2.84186 11.0076 2.82926 11.0195C2.81591 11.0091 2.81442 10.998 2.82703 10.9854Z"/>
</mask>
<path d="M2.82703 10.9854C2.84038 10.9957 2.84186 11.0076 2.82926 11.0195C2.81591 11.0091 2.81442 10.998 2.82703 10.9854Z" fill="#F8E181"/>
<path d="M2.82703 10.9854L2.87176 10.9278L2.82099 10.8883L2.77551 10.9338L2.82703 10.9854ZM2.82926 11.0195L2.78452 11.077L2.83377 11.1153L2.87919 11.0725L2.82926 11.0195ZM2.7823 11.0429C2.78095 11.0418 2.76711 11.0307 2.76525 11.0077C2.76328 10.9832 2.77661 10.969 2.77932 10.9664L2.87919 11.0725C2.89451 11.0581 2.9134 11.032 2.9105 10.996C2.90772 10.9615 2.88646 10.9393 2.87176 10.9278L2.7823 11.0429ZM2.87399 10.962C2.87439 10.9623 2.88908 10.9735 2.89103 10.9973C2.89305 11.022 2.8795 11.0359 2.87855 11.0369L2.77551 10.9338C2.76196 10.9474 2.74284 10.9732 2.74579 11.0092C2.74867 11.0443 2.77077 11.0663 2.78452 11.077L2.87399 10.962Z" fill="#1164E9" mask="url(#path-8-inside-2_94_29)"/>
<mask id="path-10-inside-3_94_29" fill="white">
<path d="M14.0543 2.27441C14.0462 2.30029 14.0432 2.30103 14.0166 2.27885C14.0299 2.27737 14.0417 2.27589 14.0543 2.27441Z"/>
</mask>
<path d="M14.0543 2.27441C14.0462 2.30029 14.0432 2.30103 14.0166 2.27885C14.0299 2.27737 14.0417 2.27589 14.0543 2.27441Z" fill="#FCF1D9"/>
<path d="M14.0543 2.27441L14.1238 2.29626L14.1576 2.1889L14.0458 2.20205L14.0543 2.27441ZM14.0166 2.27885L14.0086 2.20644L13.8386 2.22532L13.97 2.33482L14.0166 2.27885ZM13.9848 2.25257C13.9825 2.25988 13.9827 2.25806 13.9848 2.25421C13.9869 2.25043 14.0007 2.22651 14.0332 2.22238C14.0468 2.22064 14.0574 2.22352 14.0629 2.22551C14.0682 2.22744 14.0714 2.22952 14.0718 2.22973C14.072 2.2299 14.0702 2.22864 14.0632 2.22288L13.97 2.33482C13.9763 2.34015 13.9848 2.34711 13.9934 2.35258C13.999 2.35614 14.0215 2.37077 14.0516 2.36693C14.0891 2.36216 14.1069 2.33458 14.1127 2.32408C14.1185 2.3135 14.1221 2.30188 14.1238 2.29626L13.9848 2.25257ZM14.0246 2.35127C14.0382 2.34976 14.0509 2.34817 14.0628 2.34678L14.0458 2.20205C14.0325 2.20361 14.0216 2.20499 14.0086 2.20644L14.0246 2.35127Z" fill="#1164E9" mask="url(#path-10-inside-3_94_29)"/>
<mask id="path-12-inside-4_94_29" fill="white">
<path d="M14.0215 4.50729C14.043 4.48578 14.0467 4.48653 14.0549 4.50952C14.0437 4.50803 14.0326 4.50729 14.0215 4.50729Z"/>
</mask>
<path d="M14.0215 4.50729C14.043 4.48578 14.0467 4.48653 14.0549 4.50952C14.0437 4.50803 14.0326 4.50729 14.0215 4.50729Z" fill="#FCF1D9"/>
<path d="M14.0215 4.50729L13.97 4.45577L13.8456 4.58015H14.0215V4.50729ZM14.0549 4.50952L14.0452 4.58174L14.1634 4.59749L14.1235 4.48515L14.0549 4.50952ZM14.073 4.55881C14.0783 4.55349 14.0793 4.55294 14.078 4.55385C14.0772 4.55445 14.0737 4.55704 14.068 4.55949C14.062 4.56202 14.0513 4.56546 14.0374 4.56435C14.005 4.56175 13.9898 4.5389 13.9872 4.53471C13.9845 4.53031 13.9841 4.52787 13.9862 4.53388L14.1235 4.48515C14.1216 4.47967 14.1176 4.46852 14.1112 4.45818C14.105 4.44806 14.086 4.42205 14.049 4.41909C14.0184 4.41664 13.9968 4.43266 13.9912 4.43681C13.983 4.44292 13.9754 4.45034 13.97 4.45577L14.073 4.55881ZM14.0645 4.4373C14.0502 4.43539 14.0359 4.43443 14.0215 4.43443V4.58015C14.0294 4.58015 14.0373 4.58068 14.0452 4.58174L14.0645 4.4373Z" fill="#1164E9" mask="url(#path-12-inside-4_94_29)"/>
</svg>
