<svg width="21" height="23" viewBox="0 0 21 23" fill="none" xmlns="http://www.w3.org/2000/svg">
<path d="M15.5404 12.8542C15.6215 12.7722 15.7615 12.8333 15.7615 12.9486C15.7615 14.4782 15.7615 15.9599 15.7615 17.4411C15.7615 19.124 15.7585 20.8075 15.7656 22.4905C15.7662 22.6635 15.7289 22.7151 15.5469 22.7151C10.4342 22.7098 5.32082 22.7098 0.207474 22.7145C0.0385309 22.7145 0.00118559 22.6653 0.00118559 22.5029C0.00533507 15.2401 0.00533504 7.97795 0 0.71518C0 0.527268 0.0610566 0.500593 0.227629 0.500593C5.33267 0.504742 10.4377 0.504742 15.5434 0.5C15.72 0.5 15.7662 0.541495 15.7656 0.721108C15.7585 2.61801 15.7591 4.51432 15.7651 6.41123C15.7656 6.56179 15.7117 6.65782 15.6115 6.75801C12.9772 9.38759 10.3464 12.0207 7.71151 14.6497C7.56213 14.7985 7.45424 14.9621 7.3837 15.1601C6.99661 16.2437 6.60716 17.3261 6.21236 18.4068C6.12522 18.6451 6.09025 18.8715 6.28646 19.0665C6.47793 19.2568 6.70319 19.2438 6.94445 19.1572C8.06421 18.7547 9.18576 18.3576 10.3079 17.961C10.462 17.9065 10.5824 17.8128 10.6956 17.699C12.3097 16.0831 13.9251 14.4683 15.5404 12.8542ZM7.88638 5.40468C9.94926 5.40468 12.0116 5.40528 14.0744 5.40409C14.5392 5.40409 14.7235 5.21973 14.7247 4.75974C14.7259 3.95355 14.7253 3.14737 14.7247 2.34178C14.7241 1.8468 14.5362 1.65948 14.0359 1.65948C9.93444 1.65889 5.83298 1.65889 1.73152 1.65948C1.21995 1.65948 1.03144 1.84799 1.03085 2.35719C1.02966 3.13136 1.03026 3.90613 1.03085 4.6803C1.03085 5.23396 1.1992 5.40468 1.74634 5.40468C3.79322 5.40528 5.8395 5.40468 7.88638 5.40468ZM7.89646 20.1934C6.07899 20.1934 4.26211 20.1934 2.44464 20.1934C2.3658 20.1934 2.28577 20.1887 2.20812 20.1988C1.91054 20.2379 1.72085 20.4412 1.72203 20.7145C1.72322 20.9877 1.9135 21.1893 2.21226 21.2266C2.28221 21.2355 2.35453 21.2314 2.42507 21.2314C6.05942 21.2314 9.69377 21.2314 13.3281 21.232C13.455 21.232 13.5818 21.2338 13.7022 21.1893C13.9185 21.1093 14.0252 20.9427 14.0412 20.7216C14.0561 20.5123 13.9019 20.3043 13.698 20.2337C13.5842 20.1946 13.4662 20.1922 13.3471 20.1922C11.5308 20.1934 9.71334 20.1934 7.89646 20.1934ZM6.47259 8.89854C5.12223 8.89854 3.77188 8.89795 2.42152 8.89914C2.31897 8.89914 2.21464 8.89736 2.11505 8.91692C1.8809 8.96375 1.72026 9.17419 1.72085 9.41249C1.72144 9.65493 1.87734 9.85352 2.11683 9.90212C2.21641 9.92228 2.32015 9.93058 2.42152 9.93058C5.09852 9.93236 7.77553 9.93176 10.4519 9.93058C10.5539 9.93058 10.657 9.92287 10.7572 9.90331C11.0056 9.85529 11.1734 9.64426 11.168 9.40004C11.1627 9.1564 10.9819 8.94715 10.7353 8.90921C10.6422 8.89499 10.5462 8.89795 10.4519 8.89795C9.12589 8.89854 7.79924 8.89854 6.47259 8.89854ZM5.33149 12.1849C6.34989 12.1849 7.3677 12.1873 8.3861 12.1837C8.74236 12.1826 8.97591 11.9739 8.9771 11.674C8.97829 11.3894 8.75006 11.1784 8.41396 11.1547C8.35883 11.1505 8.3037 11.1535 8.24798 11.1535C6.31432 11.1535 4.38066 11.1529 2.44701 11.1547C2.33734 11.1547 2.2259 11.1612 2.11801 11.1808C1.89631 11.2223 1.74515 11.3989 1.72559 11.6224C1.69654 11.9555 1.92062 12.182 2.30118 12.1837C3.31128 12.1879 4.32139 12.1849 5.33149 12.1849ZM10.3387 7.6703C11.1283 7.6703 11.9179 7.67326 12.7069 7.66911C13.0667 7.66733 13.2943 7.46401 13.2997 7.15932C13.305 6.85996 13.072 6.63589 12.7217 6.63471C11.1271 6.62996 9.53254 6.63174 7.93795 6.63411C7.76012 6.63471 7.59414 6.68509 7.48032 6.83803C7.35584 7.0046 7.33272 7.18599 7.42282 7.37331C7.52715 7.59086 7.71921 7.66911 7.94684 7.6697C8.74414 7.67148 9.54143 7.6703 10.3387 7.6703ZM4.3611 13.4126C3.69007 13.4126 3.01845 13.4132 2.34742 13.412C2.1601 13.412 1.98226 13.4422 1.85185 13.5892C1.71433 13.7439 1.68291 13.9289 1.7576 14.1198C1.84474 14.3438 2.03147 14.4422 2.26087 14.4476C2.62425 14.4553 2.98762 14.45 3.351 14.45C4.36999 14.45 5.38839 14.4494 6.40739 14.4505C6.65161 14.4511 6.86383 14.3895 6.98179 14.1553C7.16319 13.7955 6.89584 13.4185 6.44651 13.4138C5.75118 13.4072 5.05644 13.4126 4.3611 13.4126ZM3.95149 7.6703C4.50456 7.6703 5.05703 7.67445 5.61009 7.66911C5.96814 7.66556 6.1928 7.45927 6.1928 7.15161C6.1928 6.84633 5.96754 6.63589 5.6095 6.63471C4.50396 6.62996 3.39783 6.63174 2.29229 6.63411C2.11386 6.63471 1.94848 6.68391 1.83288 6.83507C1.70603 7.00045 1.68528 7.18303 1.77123 7.36976C1.8726 7.58909 2.06466 7.66852 2.29348 7.6697C2.84536 7.67208 3.39842 7.6703 3.95149 7.6703ZM3.803 15.6812C3.80251 15.6812 3.80211 15.6808 3.80211 15.6803C3.80211 15.6798 3.80171 15.6794 3.80122 15.6794C3.28817 15.6794 2.77511 15.6735 2.26265 15.6818C1.91587 15.6871 1.70129 15.9177 1.725 16.2342C1.74397 16.4921 1.91469 16.6913 2.20397 16.6954C3.26149 16.7108 4.31901 16.7043 5.37654 16.7013C5.45182 16.7013 5.53244 16.6729 5.60061 16.6385C5.80986 16.5318 5.90234 16.322 5.85729 16.0813C5.8146 15.8554 5.62669 15.6889 5.36587 15.6841C4.84452 15.6746 4.32376 15.6812 3.803 15.6812ZM3.28283 18.9664C3.6219 18.9664 3.96097 18.9705 4.29945 18.9652C4.64267 18.9592 4.86378 18.7607 4.86912 18.4643C4.87504 18.1661 4.66757 17.945 4.32316 17.9385C3.63791 17.9248 2.95146 17.9248 2.26621 17.9385C1.92002 17.9456 1.71492 18.1643 1.72026 18.4637C1.72559 18.7613 1.94492 18.9598 2.28933 18.9658C2.62069 18.9705 2.95146 18.9664 3.28283 18.9664Z" fill="#7CAAF3"/>
<path d="M19.5179 7.38595C19.4971 7.41618 19.4829 7.44226 19.4634 7.4642C19.426 7.5051 19.3863 7.54363 19.3472 7.58275C16.3696 10.5603 13.3903 13.5361 10.4187 16.519C10.2521 16.6861 10.1703 16.6743 10.018 16.5124C9.63324 16.1046 9.23489 15.7092 8.82824 15.3227C8.68835 15.1893 8.70613 15.1176 8.83358 14.9902C11.2338 12.5971 13.6292 10.1999 16.0258 7.80327C16.6233 7.20574 17.2244 6.61059 17.8166 6.00773C17.9387 5.88325 18.011 5.85242 18.1486 5.99706C18.5511 6.4209 18.9719 6.82755 19.3845 7.24131C19.4284 7.28518 19.4687 7.3326 19.5179 7.38595Z" fill="#1164E9"/>
<path d="M19.5971 4.43665C19.7227 4.43724 19.849 4.51549 19.9575 4.62337C20.2604 4.92273 20.5633 5.22208 20.8615 5.52677C21.0452 5.71469 21.0458 5.87414 20.868 6.06087C20.7103 6.22626 20.542 6.38157 20.3855 6.54873C20.3048 6.63468 20.2497 6.6501 20.1578 6.55644C19.7162 6.10592 19.2693 5.66074 18.8199 5.21734C18.7393 5.13791 18.7375 5.08396 18.8199 5.00631C18.9865 4.84982 19.1477 4.68739 19.3066 4.5226C19.3795 4.44732 19.4631 4.42183 19.5971 4.43665Z" fill="#1164E9"/>
<path d="M7.5127 17.8563C7.73677 17.2363 7.93594 16.6832 8.1286 16.1509C8.4896 16.5119 8.85001 16.8717 9.22347 17.2452C8.69352 17.4343 8.13867 17.6328 7.5127 17.8563Z" fill="#1164E9"/>
<path d="M7.88684 5.40482C5.83996 5.40482 3.79308 5.40482 1.74621 5.40482C1.19907 5.40482 1.03131 5.2347 1.03072 4.68044C1.03013 3.90627 1.03013 3.1315 1.03072 2.35733C1.03131 1.84813 1.21982 1.65962 1.73139 1.65962C5.83285 1.65903 9.93431 1.65903 14.0358 1.65962C14.5361 1.65962 14.724 1.84694 14.7246 2.34192C14.7252 3.1481 14.7258 3.95429 14.7246 4.75988C14.724 5.21988 14.539 5.40364 14.0743 5.40423C12.012 5.40542 9.94973 5.40482 7.88684 5.40482ZM7.86965 2.69522C6.01365 2.69522 4.15705 2.69759 2.30105 2.69166C2.12085 2.69107 2.05386 2.729 2.06157 2.92344C2.07757 3.31764 2.08113 3.71362 2.06097 4.10782C2.04912 4.33663 2.13211 4.37813 2.34017 4.37694C4.29932 4.36983 6.25787 4.37279 8.21702 4.37279C9.96277 4.37279 11.7085 4.37042 13.4543 4.37694C13.6386 4.37753 13.6991 4.32952 13.6926 4.14101C13.6783 3.74681 13.673 3.35024 13.6943 2.95663C13.7068 2.72663 13.6208 2.69047 13.4157 2.69166C11.5662 2.69818 9.71795 2.69522 7.86965 2.69522Z" fill="#1164E9"/>
<path d="M7.89688 20.193C9.71435 20.193 11.5312 20.1936 13.3487 20.1924C13.4678 20.1924 13.5858 20.1948 13.6996 20.2339C13.9035 20.3044 14.0577 20.5125 14.0428 20.7217C14.0268 20.9428 13.9207 21.1094 13.7038 21.1894C13.5828 21.2339 13.4566 21.2321 13.3297 21.2321C9.69538 21.2315 6.06103 21.2315 2.42668 21.2315C2.35554 21.2315 2.28382 21.2357 2.21387 21.2268C1.91511 21.1888 1.72482 20.9879 1.72364 20.7146C1.72245 20.4414 1.91155 20.2374 2.20972 20.1989C2.28737 20.1888 2.3674 20.1936 2.44624 20.1936C4.26193 20.193 6.0794 20.193 7.89688 20.193Z" fill="white"/>
<path d="M6.47283 8.8985C7.79948 8.8985 9.12613 8.8985 10.4528 8.8991C10.5476 8.8991 10.6437 8.89613 10.7361 8.91036C10.9827 8.9483 11.1635 9.15755 11.1689 9.40118C11.1742 9.64541 11.0064 9.85644 10.7581 9.90446C10.6585 9.92342 10.5547 9.93172 10.4528 9.93172C7.77577 9.93291 5.09876 9.93291 2.42235 9.93172C2.32039 9.93172 2.21725 9.92342 2.11766 9.90327C1.87877 9.85466 1.72227 9.65608 1.72168 9.41363C1.72109 9.17533 1.88173 8.96489 2.11588 8.91806C2.21547 8.89791 2.3198 8.90028 2.42235 8.90028C3.77212 8.89791 5.12247 8.8985 6.47283 8.8985Z" fill="white"/>
<path d="M5.33166 12.185C4.32156 12.185 3.31086 12.188 2.30076 12.1839C1.92079 12.1821 1.69612 11.9556 1.72517 11.6225C1.74473 11.3984 1.89589 11.2218 2.11759 11.1809C2.22548 11.1607 2.33692 11.1548 2.44659 11.1548C4.38024 11.153 6.3139 11.1536 8.24756 11.1536C8.30268 11.1536 8.35841 11.1512 8.41354 11.1548C8.74964 11.1785 8.97786 11.3895 8.97668 11.6741C8.97549 11.974 8.74194 12.1827 8.38567 12.1839C7.36787 12.1874 6.35006 12.185 5.33166 12.185Z" fill="white"/>
<path d="M10.3382 7.67062C9.54089 7.67062 8.7436 7.6718 7.9463 7.67002C7.71808 7.66943 7.52661 7.59118 7.42229 7.37363C7.33277 7.18631 7.35589 7.00492 7.47979 6.83835C7.5936 6.68541 7.75958 6.63503 7.93741 6.63443C9.532 6.63147 11.1266 6.63028 12.7212 6.63503C13.0715 6.63621 13.3045 6.86028 13.2991 7.15964C13.2938 7.46433 13.0656 7.66706 12.7063 7.66943C11.9168 7.67358 11.1278 7.67062 10.3382 7.67062Z" fill="white"/>
<path d="M4.36104 13.4126C5.05578 13.4126 5.75111 13.4072 6.44585 13.4143C6.89459 13.4191 7.16253 13.7961 6.98113 14.1559C6.86317 14.3895 6.65095 14.4511 6.40673 14.4511C5.38773 14.4493 4.36933 14.4505 3.35034 14.4505C2.98697 14.4505 2.62359 14.4559 2.26021 14.4482C2.03081 14.4434 1.84408 14.3444 1.75694 14.1203C1.68284 13.9295 1.71367 13.7445 1.85119 13.5898C1.9822 13.4428 2.15944 13.412 2.34676 13.4126C3.01838 13.4132 3.69001 13.4126 4.36104 13.4126Z" fill="white"/>
<path d="M3.95174 7.67036C3.39867 7.67036 2.8462 7.67214 2.29313 7.66977C2.06432 7.66858 1.87226 7.58915 1.77089 7.36982C1.68494 7.1831 1.70509 7.00052 1.83254 6.83513C1.94813 6.68397 2.11352 6.63477 2.29195 6.63418C3.39749 6.63122 4.50362 6.62944 5.60916 6.63477C5.9672 6.63655 6.19246 6.8464 6.19246 7.15168C6.19246 7.45993 5.96839 7.66562 5.60975 7.66918C5.05728 7.67392 4.50481 7.67036 3.95174 7.67036Z" fill="white"/>
<path d="M3.80206 15.6811C4.32311 15.6811 4.84417 15.6746 5.36523 15.684C5.62605 15.6888 5.81396 15.8554 5.85664 16.0812C5.90169 16.3219 5.80981 16.5317 5.59997 16.6384C5.5318 16.6728 5.45118 16.7013 5.3759 16.7013C4.31837 16.7042 3.26085 16.7107 2.20332 16.6953C1.91405 16.6912 1.74332 16.492 1.72435 16.2341C1.70124 15.9182 1.91582 15.6876 2.26201 15.6817C2.77536 15.6734 3.28812 15.6793 3.80147 15.6793C3.80206 15.6799 3.80206 15.6805 3.80206 15.6811Z" fill="white"/>
<path d="M3.28279 18.9667C2.95201 18.9667 2.62065 18.9714 2.28988 18.9655C1.94547 18.9595 1.72614 18.7616 1.7208 18.4634C1.71547 18.164 1.92057 17.9453 2.26676 17.9382C2.95201 17.924 3.63846 17.9245 4.32371 17.9382C4.66812 17.9453 4.875 18.1658 4.86967 18.464C4.86374 18.7604 4.64322 18.9595 4.3 18.9649C3.96034 18.9708 3.62127 18.9667 3.28279 18.9667Z" fill="white"/>
<path d="M7.86858 2.69507C9.71687 2.69507 11.5652 2.69804 13.4135 2.69093C13.6186 2.69033 13.7039 2.72649 13.6921 2.9559C13.6713 3.34951 13.6761 3.74608 13.6903 4.14028C13.6974 4.32938 13.6364 4.3768 13.452 4.37621C11.7063 4.36969 9.96051 4.37206 8.21476 4.37206C6.25562 4.37206 4.29706 4.36909 2.33792 4.37621C2.13044 4.3768 2.04686 4.3353 2.05872 4.10708C2.07946 3.71347 2.07591 3.3169 2.05931 2.9227C2.0516 2.72827 2.11859 2.69033 2.29879 2.69093C4.15598 2.69745 6.01198 2.69507 7.86858 2.69507Z" fill="#1164E9"/>
</svg>
