<svg width="18" height="25" viewBox="0 0 18 25" fill="none" xmlns="http://www.w3.org/2000/svg">
<path d="M12.809 24.4241C12.7991 24.4241 12.7889 24.4241 12.779 24.4241C12.7355 24.2087 12.6158 24.0245 12.5336 23.825C12.4907 23.7002 12.443 23.5775 12.377 23.4626C12.3557 23.435 12.3683 23.3903 12.3308 23.3708L12.3323 23.3726C12.3011 23.2541 12.2456 23.1455 12.1925 23.036C12.1862 23.0183 12.1796 23.0003 12.1733 22.9826C12.1655 22.9715 12.158 22.9607 12.1502 22.9496C12.1517 22.9403 12.1499 22.9316 12.1448 22.9235C12.0773 22.7732 12.0101 22.6229 11.9426 22.4726C11.8292 22.1653 11.6996 21.865 11.549 21.574C11.4293 21.2446 11.285 20.926 11.1314 20.611L11.1326 20.6125C11.1305 20.6032 11.1278 20.5942 11.1239 20.5855C11.0915 20.5045 11.0588 20.4238 11.0264 20.3428C11.0138 20.3197 11.0012 20.2969 10.9889 20.2738L10.9919 20.2783C10.9424 20.1238 10.8713 19.9789 10.799 19.8346L10.7987 19.834C10.7894 19.8175 10.7804 19.801 10.7711 19.7845L10.769 19.774C10.7183 19.6153 10.6508 19.4641 10.574 19.3164C10.5674 19.2984 10.5605 19.2804 10.5539 19.2624C10.5461 19.2516 10.5383 19.2408 10.5305 19.23L10.5329 19.2324C10.5308 19.2231 10.5278 19.2141 10.5242 19.2054C10.4822 19.1046 10.4402 19.0035 10.3981 18.9027C10.375 18.876 10.3897 18.8304 10.3516 18.8112L10.3528 18.8127C10.3507 18.8034 10.348 18.7944 10.3441 18.7854C10.2916 18.6639 10.2394 18.5424 10.1869 18.4209C10.1335 18.2931 10.0804 18.1653 10.0234 18.0291C10.1002 18.0174 10.1635 18.0081 10.2271 17.9985C10.2541 18.0036 10.2811 18.0084 10.3015 17.9826C10.517 17.9478 10.7321 17.913 10.9475 17.8785C11.0492 17.8557 11.1509 17.8329 11.2523 17.8098C11.42 17.7756 11.5895 17.7495 11.7473 17.6784C12.044 17.6256 12.3245 17.5233 12.5993 17.4033C12.7583 17.3646 12.9014 17.2875 13.0481 17.2191C13.1294 17.208 13.1936 17.1588 13.2632 17.1216C13.361 17.0727 13.4589 17.0241 13.5567 16.9752C13.6524 16.9314 13.7517 16.8942 13.8318 16.8225C13.8609 16.8063 13.8897 16.7901 13.9188 16.7739L13.9194 16.7736C13.9329 16.7664 13.9464 16.7589 13.9602 16.7517L13.959 16.7556C14.0298 16.7157 14.1075 16.6869 14.1651 16.6257C14.1831 16.6149 14.2014 16.6044 14.2194 16.5936C14.2386 16.5837 14.2578 16.5735 14.277 16.5636C14.3223 16.5411 14.3697 16.5216 14.4006 16.4781C14.5626 16.395 14.7084 16.2875 14.8518 16.1765C15.0093 16.0775 15.1644 15.9752 15.3018 15.8486C15.3828 15.9071 15.3729 16.0151 15.4314 16.0856C15.4527 16.1132 15.4401 16.1579 15.4776 16.1774L15.4767 16.1762C15.6108 16.4946 15.7446 16.8129 15.8787 17.1312C15.9369 17.2623 15.9951 17.3934 16.0533 17.5242C16.0896 17.6409 16.1391 17.7519 16.1979 17.859C16.197 17.8683 16.1991 17.877 16.2045 17.8848C16.2123 17.8959 16.2201 17.907 16.2279 17.9181L16.2258 17.9157C16.2276 17.925 16.2303 17.934 16.2345 17.9427C16.2294 17.9688 16.2393 17.9883 16.2603 18.003C16.3203 18.162 16.3815 18.3204 16.4635 18.4698C16.4983 18.6015 16.5589 18.7224 16.6204 18.843C16.6252 18.8556 16.6303 18.8685 16.6351 18.8811C16.642 18.8991 16.6486 18.9171 16.6555 18.9354C16.6633 18.9462 16.6711 18.957 16.6789 18.9678L16.6765 18.9654C16.6786 18.9747 16.6813 18.9837 16.6852 18.9924C16.7242 19.1073 16.7665 19.2204 16.831 19.3242C16.954 19.6489 17.0908 19.9675 17.2414 20.2804C17.2783 20.3719 17.3155 20.4634 17.3524 20.5549C17.3647 20.578 17.3773 20.6011 17.3896 20.6242L17.3869 20.6209C17.4415 20.7484 17.4961 20.8759 17.5507 21.0034C17.557 21.0169 17.5636 21.0301 17.5699 21.0436C17.5837 21.0703 17.5696 21.1102 17.6083 21.1255C17.6518 21.2824 17.7259 21.4267 17.7949 21.5731C17.8378 21.6991 17.8864 21.8224 17.9524 21.9382C17.9746 21.9637 17.959 22.0081 17.9974 22.0252C17.9992 22.0336 17.9998 22.0423 17.9992 22.051C17.9209 22.0537 17.8666 21.9904 17.794 21.9769C17.7316 21.9457 17.6692 21.9142 17.6068 21.883C17.4475 21.8101 17.2885 21.7375 17.1292 21.6646C17.0587 21.6274 16.9882 21.5905 16.9174 21.5533C16.8292 21.5143 16.741 21.4753 16.6528 21.4363C16.5211 21.3739 16.3896 21.3115 16.2579 21.2491C15.9387 21.0988 15.6195 20.9485 15.3003 20.7982C15.0201 20.6572 14.7384 20.5189 14.448 20.3998C14.352 20.329 14.2365 20.2972 14.133 20.2423C14.0724 20.2102 14.052 20.221 14.0367 20.2927C14.0088 20.4214 13.9638 20.5465 13.9257 20.6731C13.9197 20.6911 13.9134 20.7091 13.9074 20.7271C13.8663 20.8687 13.8249 21.0103 13.7838 21.1519C13.7412 21.2929 13.6983 21.4342 13.6557 21.5752C13.614 21.7249 13.572 21.8746 13.5303 22.0243C13.5096 22.0396 13.4997 22.0591 13.5051 22.0852C13.4577 22.2439 13.4106 22.4027 13.3631 22.5614C13.3289 22.6823 13.2944 22.8032 13.2602 22.9241C13.2047 23.1035 13.1489 23.2829 13.0934 23.4623C13.022 23.7038 12.9506 23.945 12.8792 24.1865C12.8714 24.194 12.8696 24.203 12.8741 24.2129C12.8678 24.2309 12.8615 24.2489 12.8549 24.2666C12.8438 24.3206 12.8021 24.3653 12.809 24.4241Z" fill="#7CAAF3"/>
<path d="M10.6804 0.0576026C10.8733 0.100504 11.0635 0.152106 11.2456 0.230408C11.53 0.374713 11.7628 0.57812 11.941 0.843029C11.95 0.854429 11.959 0.865829 11.968 0.87723L11.9659 0.87513C12.0274 0.984333 12.0892 1.09324 12.1507 1.20244C12.1594 1.21294 12.1678 1.22344 12.1765 1.23364C12.1819 1.25764 12.1786 1.28584 12.2083 1.29724C12.2068 1.30684 12.2092 1.31584 12.2149 1.32364C12.2332 1.35815 12.2506 1.39295 12.2701 1.42685C12.5626 1.93686 12.9607 2.33408 13.4996 2.58219C13.55 2.63169 13.6187 2.64309 13.6808 2.66859C13.6976 2.67459 13.7144 2.68029 13.7312 2.68629C13.7312 2.68629 13.7303 2.68329 13.7306 2.68329C13.8023 2.74179 13.8941 2.74899 13.9769 2.77989C14.1185 2.82249 14.2598 2.8651 14.4014 2.9077C14.5412 2.9494 14.6813 2.9911 14.8211 3.0328C14.8361 3.0535 14.8553 3.0637 14.8811 3.0586C14.8979 3.0646 14.9147 3.0703 14.9315 3.0763L14.9303 3.0739C14.9513 3.0847 14.972 3.0958 14.993 3.1066L14.9894 3.1027C15.0029 3.1096 15.0164 3.1165 15.0302 3.1231H15.0305C15.1202 3.17981 15.2102 3.23651 15.2999 3.29321C15.4004 3.39581 15.5009 3.49872 15.6011 3.60132C15.6512 3.68172 15.7013 3.76183 15.7517 3.84223C15.7847 3.90103 15.7904 3.97333 15.8414 4.02313C15.9044 4.21964 15.983 4.41195 15.9962 4.62105C15.9962 4.72186 15.9962 4.82296 15.9962 4.92376C15.9689 5.10287 15.9416 5.28168 15.9143 5.46078C15.9017 5.52198 15.8888 5.58349 15.8762 5.64469C15.7667 6.16011 15.7436 6.67852 15.8162 7.20114C15.8249 7.34815 15.8642 7.48795 15.9143 7.62505C16.028 7.98927 16.2479 8.29318 16.4649 8.59919C16.5009 8.66429 16.5366 8.72969 16.5726 8.79479C16.5987 8.85419 16.6248 8.9133 16.6512 8.9727C16.6653 9.0327 16.6797 9.093 16.6938 9.153C16.7319 9.40381 16.7127 9.65282 16.6647 9.90033C16.6617 9.91143 16.6587 9.92253 16.656 9.93393C16.6242 10.0635 16.5921 10.1931 16.5603 10.323L16.5573 10.3335C16.5201 10.359 16.5342 10.4043 16.5177 10.4376L16.5201 10.4328C16.5078 10.4559 16.4955 10.479 16.4832 10.5021C16.4571 10.5667 16.4313 10.6315 16.4052 10.696C16.3256 10.8112 16.2461 10.9264 16.1666 11.0413C16.1081 11.0809 16.0592 11.1301 16.0196 11.1883C15.914 11.2582 15.8087 11.3281 15.7031 11.398C15.3893 11.5366 15.0821 11.6869 14.8181 11.9113C14.7476 11.9812 14.6771 12.0514 14.6063 12.1213C14.5178 12.184 14.4566 12.2701 14.3999 12.3601C14.3369 12.4207 14.2952 12.4954 14.2559 12.5722C14.2505 12.5797 14.2484 12.5884 14.2496 12.5974C14.2406 12.6091 14.2313 12.6208 14.2223 12.6328L14.2217 12.6343C14.2115 12.6538 14.2013 12.6733 14.1914 12.6925V12.6928C14.1815 12.7126 14.1716 12.7327 14.1614 12.7525V12.7528C14.1515 12.7726 14.1416 12.7927 14.1314 12.8125V12.8128C14.1155 12.8425 14.0996 12.8722 14.0837 12.9019C14.0774 12.9271 14.0711 12.952 14.0648 12.9772C14.0168 13.0255 14.0054 13.0921 13.9901 13.1518C13.9241 13.4074 13.8665 13.6652 13.8059 13.9223C13.8044 13.9427 13.8029 13.9628 13.8014 13.9832C13.7954 13.9925 13.7894 14.0018 13.7834 14.0108C13.73 14.1317 13.6766 14.2526 13.6232 14.3735C13.5632 14.4533 13.5032 14.5328 13.4432 14.6126C13.3819 14.6723 13.3204 14.7323 13.2592 14.792C13.1683 14.8619 13.0777 14.9318 12.9868 15.0017C12.7186 15.1604 12.4498 15.3173 12.1483 15.407C11.9815 15.44 11.8144 15.4715 11.6434 15.4367C11.5279 15.41 11.4124 15.383 11.2969 15.3563C10.8403 15.1394 10.359 15.0437 9.85683 15.1019C9.54542 15.1379 9.23341 15.1931 8.9553 15.3566C8.9061 15.3791 8.8551 15.3989 8.8077 15.4247C8.54489 15.5684 8.34268 15.7922 8.10087 15.9641C7.91217 16.0571 7.71596 16.1213 7.50265 16.1195C7.20684 16.1168 6.92303 16.0403 6.63653 15.9803L6.63983 15.9839C6.60772 15.9713 6.57532 15.959 6.54322 15.9464C6.48022 15.92 6.41632 15.8969 6.34642 15.8966C6.30531 15.8561 6.24951 15.8495 6.19851 15.8321C5.9063 15.7316 5.63329 15.5963 5.40018 15.389C5.35998 15.341 5.31978 15.2933 5.27958 15.2453C5.09267 14.9525 5.01647 14.6051 4.82176 14.3162C4.75306 14.1911 4.65976 14.0855 4.56256 13.9826C4.53286 13.9523 4.50285 13.9223 4.47315 13.892C4.36425 13.7579 4.23284 13.6502 4.08494 13.5617C4.04234 13.495 3.97094 13.4713 3.90433 13.4413C3.83743 13.3675 3.74233 13.3441 3.65773 13.3021C3.46782 13.2151 3.26741 13.1644 3.06281 13.1269C2.9419 13.1041 2.8207 13.0816 2.69979 13.0588C2.51739 13.0153 2.34038 12.9622 2.18108 12.8551C1.88347 12.6556 1.69266 12.37 1.52195 12.0661C1.47485 11.9752 1.42745 11.8843 1.38035 11.7934C1.35875 11.7337 1.33715 11.674 1.31555 11.6146C1.29275 11.5333 1.26995 11.452 1.24715 11.3707C1.21594 11.1622 1.21594 10.9537 1.24715 10.7452C1.27985 10.6237 1.31255 10.5021 1.34525 10.3809C1.36235 10.3227 1.37975 10.2645 1.39685 10.2063C1.41965 10.1244 1.44275 10.0428 1.46555 9.96093C1.49225 9.82053 1.51895 9.67982 1.54566 9.53942C1.64376 9.37141 1.56666 9.18871 1.58946 9.0144C1.59366 8.9832 1.57926 8.9571 1.54566 8.9466C1.49825 8.62619 1.43945 8.30938 1.26725 8.02707C1.21804 7.88876 1.13554 7.76996 1.04944 7.65325C1.04044 7.64185 1.03144 7.63045 1.02244 7.61905L1.02454 7.62115C0.982837 7.55215 0.941435 7.48285 0.899734 7.41385C0.849932 7.32384 0.800131 7.23384 0.750329 7.14414C0.565223 6.68182 0.620125 6.22281 0.76773 5.76469C0.804031 5.65999 0.840332 5.55499 0.876933 5.45028C0.894934 5.41458 0.912634 5.37858 0.930635 5.34288C1.02154 5.19767 1.13734 5.07377 1.26245 4.95797C1.31345 4.92676 1.36445 4.89586 1.41545 4.86466C1.42475 4.86046 1.43435 4.85596 1.44365 4.85176C1.46615 4.83856 1.48835 4.82536 1.51085 4.81216L1.50755 4.81666C1.52855 4.80526 1.54986 4.79416 1.57086 4.78276L1.56756 4.78666C1.58856 4.77526 1.60986 4.76416 1.63086 4.75276L1.62756 4.75666C1.64856 4.74526 1.66986 4.73416 1.69086 4.72276L1.68666 4.72636C1.71606 4.71136 1.75716 4.72216 1.77606 4.68496C1.78566 4.68616 1.79406 4.68406 1.80186 4.67836C1.91557 4.61535 2.03647 4.56435 2.13398 4.47525L2.13247 4.47645C2.14388 4.46595 2.15498 4.45545 2.16638 4.44465C2.20238 4.43655 2.23358 4.42125 2.25218 4.38735C2.40128 4.28504 2.52969 4.15994 2.64609 4.02223C2.67459 4.00663 2.70129 3.98983 2.70369 3.95263C2.8201 3.83953 2.9149 3.70932 3.004 3.57432C3.05681 3.52482 3.09641 3.46632 3.12251 3.39851C3.13181 3.38681 3.14141 3.37511 3.15071 3.36341C3.16241 3.34421 3.17411 3.32501 3.18581 3.30581C3.24071 3.25541 3.26591 3.18641 3.30071 3.1234L3.30101 3.1228C3.31091 3.103 3.32081 3.0832 3.33071 3.0634L3.33101 3.0628C3.34092 3.043 3.35082 3.0232 3.36072 3.0034L3.36102 3.0028C3.37092 2.983 3.38082 2.9632 3.39072 2.9434L3.39102 2.9428C3.40542 2.9149 3.41982 2.887 3.43422 2.8591L3.42912 2.8642C3.43632 2.8507 3.44352 2.83719 3.45072 2.82339L3.45102 2.82279C3.48552 2.79849 3.47712 2.75739 3.48972 2.72469L3.49032 2.72829C3.64963 2.40788 3.68773 2.05057 3.79903 1.71576C3.86353 1.59635 3.92803 1.47695 3.99254 1.35755C4.02254 1.32694 4.05224 1.29634 4.08224 1.26574C4.34025 1.02693 4.63606 0.845729 4.95107 0.693324C5.17818 0.644722 5.40318 0.57542 5.64019 0.620721C5.71069 0.633022 5.7815 0.645622 5.852 0.657923C6.0314 0.705324 6.21051 0.752726 6.38992 0.800427C6.48082 0.822928 6.57172 0.845429 6.66263 0.86793C6.76343 0.88473 6.86393 0.901531 6.96474 0.918331C7.13274 1.01643 7.31545 0.939332 7.48975 0.962133C7.52095 0.966333 7.54706 0.951932 7.55756 0.918331C7.75376 0.87303 7.96047 0.87783 8.14737 0.789927C8.30158 0.764726 8.44618 0.712824 8.58059 0.633022C8.71319 0.57482 8.8491 0.523218 8.9604 0.426015C8.9898 0.427515 9.0135 0.417915 9.0303 0.393014C9.18601 0.305111 9.34171 0.217508 9.49772 0.129605C9.73593 0.0612028 9.97174 -0.0113996 10.2258 0.00150078C10.3782 0.00930104 10.5289 0.0330018 10.6804 0.0576026ZM3.16901 10.1541L3.16721 10.1538C3.16721 10.1625 3.17081 10.1691 3.17861 10.1736C3.18341 10.23 3.20861 10.278 3.24011 10.3236C3.30041 10.4781 3.36072 10.6327 3.45102 10.7731C3.49062 10.843 3.53022 10.9129 3.56982 10.9828C3.62022 11.0803 3.67183 11.1769 3.74803 11.2579C3.81223 11.3884 3.89743 11.5042 3.99164 11.614C4.02044 11.6452 4.04924 11.6764 4.07774 11.7076C4.30845 12.0442 4.60636 12.3157 4.91987 12.5716C4.93907 12.5836 4.95857 12.5959 4.97777 12.6079C5.07737 12.7225 5.20098 12.8053 5.33448 12.8746C5.42628 12.9529 5.52529 13.0201 5.63509 13.0708C5.68069 13.1134 5.73259 13.1455 5.7923 13.1647C5.9567 13.2565 6.12051 13.3492 6.29871 13.4122C6.34282 13.447 6.39292 13.4674 6.44872 13.4734C6.45352 13.4812 6.46042 13.4851 6.46942 13.4851C6.46942 13.4851 6.47002 13.4821 6.47002 13.4818C6.57382 13.5422 6.68753 13.5761 6.80273 13.6058L6.80003 13.6022C6.83123 13.6133 6.86243 13.6247 6.89363 13.6358L6.89003 13.6319C6.92213 13.6445 6.95454 13.6571 6.98664 13.6697C7.02804 13.6808 7.06974 13.6922 7.11114 13.7033L7.12344 13.7105L7.13754 13.7084C7.15584 13.7144 7.17414 13.7201 7.19214 13.7261C7.32865 13.7627 7.46545 13.7981 7.60646 13.8116C7.76726 13.8602 7.93467 13.8659 8.09937 13.8869C8.15908 13.9034 8.22358 13.8746 8.28148 13.907C8.29438 13.9205 8.30728 13.9457 8.32048 13.946C8.55239 13.9484 8.784 13.9484 9.0159 13.9463C9.0291 13.9463 9.0417 13.9211 9.0549 13.9076C9.19561 13.8908 9.33631 13.874 9.47702 13.8572C9.60992 13.8425 9.74253 13.8281 9.87123 13.7888C10.0539 13.757 10.2327 13.7108 10.4071 13.6478C10.5205 13.6178 10.6345 13.5896 10.7383 13.5323C10.7776 13.5194 10.8166 13.5064 10.8559 13.4932C10.9681 13.4437 11.0875 13.4104 11.1907 13.3408C11.5567 13.1779 11.8978 12.9739 12.2116 12.7249L12.2098 12.7261C12.2209 12.7153 12.2323 12.7045 12.2434 12.6937C12.2941 12.6808 12.334 12.6529 12.3601 12.607C12.4669 12.5416 12.556 12.4555 12.6448 12.3688C12.7234 12.3007 12.8104 12.2413 12.8704 12.1537C12.9589 12.0895 13.0204 12.0013 13.0831 11.9143C13.1581 11.8588 13.2196 11.7919 13.2601 11.707C13.5107 11.4244 13.7084 11.1067 13.8833 10.7737C13.8893 10.7659 13.8914 10.7572 13.8899 10.7473C13.8977 10.7362 13.9055 10.7254 13.9133 10.7143C13.9193 10.7062 13.9214 10.6972 13.9199 10.6873C13.9277 10.6762 13.9355 10.6654 13.9433 10.6543C13.9493 10.6462 13.9514 10.6369 13.9502 10.627C14.0162 10.5343 14.0573 10.4295 14.0948 10.3233C14.1581 10.1976 14.2124 10.0686 14.2439 9.93093C14.3753 9.58232 14.4584 9.22201 14.5064 8.8533C14.5187 8.76239 14.5313 8.67149 14.5436 8.58059C14.5613 8.51848 14.5247 8.44858 14.5715 8.39098C14.5799 8.39458 14.588 8.39878 14.5964 8.40088C14.5988 8.40148 14.6057 8.39608 14.6057 8.39338C14.606 8.12787 14.606 7.86236 14.606 7.59715C14.5985 7.59655 14.5913 7.59595 14.5838 7.59565C14.5799 7.61845 14.576 7.64155 14.5721 7.66436C14.5433 7.64305 14.5499 7.61155 14.5496 7.58245C14.546 7.31994 14.5022 7.06284 14.4419 6.80813C14.4356 6.77033 14.4293 6.73222 14.4233 6.69442C14.3906 6.57322 14.3579 6.45202 14.3252 6.33081C14.2565 6.134 14.2124 5.9282 14.1047 5.74609C14.0972 5.64799 14.0402 5.57119 13.9958 5.48868C13.9622 5.42448 13.9283 5.36028 13.8947 5.29638C13.8626 5.19107 13.8086 5.09747 13.7384 5.01317C13.7282 4.99397 13.7183 4.97447 13.7081 4.95527L13.7072 4.95347C13.6982 4.94206 13.6892 4.93067 13.6799 4.91896L13.682 4.92106C13.6397 4.81756 13.577 4.72786 13.5002 4.64746C13.4831 4.58985 13.4435 4.54665 13.4059 4.50225C13.3969 4.49145 13.3882 4.48095 13.3792 4.47015L13.3807 4.47165C13.2826 4.33004 13.1794 4.19294 13.0498 4.07774C13.0354 4.05884 13.0207 4.03964 13.0063 4.02073C12.8833 3.87703 12.7588 3.73452 12.5998 3.62802C12.5812 3.60942 12.5623 3.59052 12.5437 3.57192C12.4345 3.45642 12.3058 3.36521 12.1765 3.27461C12.1069 3.22481 12.0373 3.17471 11.9677 3.1249C11.881 3.0706 11.7946 3.0163 11.7079 2.962L11.7082 2.9641C11.6869 2.953 11.6656 2.9416 11.6443 2.9305L11.6491 2.9365C11.6359 2.9278 11.6224 2.9188 11.6092 2.9101C11.5276 2.83479 11.4271 2.79519 11.3251 2.75769C11.2492 2.71989 11.1733 2.68179 11.0977 2.64399C11.0011 2.59569 10.9087 2.53808 10.7986 2.52368C10.6552 2.45378 10.5088 2.39288 10.3485 2.37368C10.2276 2.30258 10.0878 2.29568 9.95644 2.25908C9.56312 2.16877 9.16531 2.11957 8.7612 2.11987C8.38738 2.10367 8.01777 2.14297 7.64936 2.20027C7.50835 2.23237 7.36765 2.26448 7.22664 2.29658C7.06344 2.33048 6.90383 2.37638 6.74903 2.43848C6.42142 2.53718 6.11421 2.68209 5.819 2.8537C5.66659 2.9254 5.52289 3.0115 5.38908 3.1141C4.67836 3.57732 4.10294 4.17194 3.65863 4.89436C3.62952 4.92796 3.59562 4.95887 3.59682 5.00897C3.50112 5.11547 3.45492 5.25017 3.38892 5.37348C3.31691 5.49798 3.25961 5.62939 3.21341 5.76559C3.04811 6.15051 2.9302 6.54952 2.8612 6.96293C2.8486 7.03343 2.8363 7.10424 2.8237 7.17474C2.8042 7.30854 2.7847 7.44205 2.7652 7.57585C2.7571 7.57225 2.7478 7.56475 2.7409 7.56625C2.7355 7.56745 2.72889 7.58005 2.72889 7.58755C2.72829 7.88156 2.72799 8.17527 2.72889 8.46928C2.72889 8.49688 2.7442 8.50108 2.7649 8.48308C2.8066 8.51938 2.7769 8.57098 2.7931 8.61269C2.806 8.71379 2.8189 8.81489 2.8318 8.9163C2.8624 9.114 2.8897 9.31261 2.962 9.50072C2.9683 9.53612 2.9746 9.57152 2.9812 9.60692C2.9935 9.63902 3.0058 9.67082 3.0181 9.70292L3.0148 9.70052C3.04481 9.83463 3.07421 9.96903 3.14651 10.089C3.14561 10.098 3.14741 10.1064 3.15191 10.1145C3.15821 10.1274 3.16361 10.1409 3.16901 10.1541Z" fill="#1164E9"/>
<path d="M5.2195 24.394C5.1469 24.382 5.1793 24.307 5.146 24.2716C5.05539 23.9701 4.96509 23.6686 4.87449 23.3671C4.86819 23.3491 4.86189 23.3311 4.85529 23.3134C4.85919 23.3041 4.85859 23.2951 4.85409 23.2861C4.81569 23.1655 4.77728 23.0449 4.73888 22.9243C4.66178 22.6203 4.56968 22.3212 4.46947 22.0242C4.43557 21.9036 4.40167 21.7833 4.36777 21.6627C4.30687 21.4566 4.26037 21.246 4.17546 21.0471C4.17366 20.9448 4.12866 20.8542 4.09686 20.76C4.08936 20.7318 4.08156 20.7033 4.07406 20.6751C4.06056 20.628 4.04826 20.5806 4.03356 20.5338C3.92496 20.1906 3.92496 20.1909 3.60935 20.3637C3.60514 20.3661 3.60275 20.3709 3.59944 20.3748C3.29974 20.5164 3.00002 20.6577 2.70061 20.7993C2.66221 20.7921 2.63851 20.8212 2.60911 20.8362C2.57941 20.8521 2.54971 20.868 2.52001 20.8839H2.51971C2.49991 20.8938 2.47981 20.9037 2.46001 20.9139H2.45971C2.44621 20.9211 2.43241 20.928 2.41891 20.9352L2.42251 20.9304C2.4015 20.9415 2.3808 20.9526 2.3598 20.9634L2.3631 20.9601C2.334 20.9751 2.2932 20.9646 2.2746 21.0018C2.2653 21.0009 2.2569 21.003 2.2491 21.0081C2.1666 21.0411 2.08109 21.0675 2.00999 21.1239C1.98989 21.1338 1.97009 21.144 1.94999 21.1539C1.93619 21.1602 1.92269 21.1665 1.90889 21.1731C1.88909 21.183 1.86929 21.1932 1.84979 21.2031C1.64998 21.2793 1.45767 21.3705 1.27257 21.4773C1.21947 21.4803 1.17476 21.5016 1.13816 21.5403C1.02566 21.5739 0.920956 21.624 0.822252 21.6873C0.717549 21.7335 0.612845 21.7794 0.508142 21.8256C0.485041 21.8382 0.46194 21.8505 0.43914 21.8631L0.43944 21.8616C0.331436 21.9147 0.223432 21.9681 0.115729 22.0212L0.117529 22.0197C0.108229 22.0215 0.0992283 22.0245 0.090528 22.0284C0.059027 22.0278 0.0365262 22.0662 0.00112504 22.05C-0.000375012 22.0416 -0.000375012 22.0335 0.00112504 22.0254C0.089928 21.8838 0.15803 21.7329 0.209032 21.5739C0.300535 21.4338 0.350937 21.2751 0.417239 21.1236C0.44364 21.0651 0.470341 21.0063 0.496742 20.9478C0.524342 20.8983 0.562444 20.8533 0.564244 20.7927C0.567844 20.7837 0.570544 20.7747 0.572944 20.7654L0.570244 20.7681C0.578044 20.7573 0.586145 20.7465 0.593945 20.7357C0.600545 20.7177 0.607445 20.6997 0.614045 20.6817C0.678848 20.5389 0.74395 20.3961 0.808752 20.253C0.839953 20.2077 0.865754 20.1603 0.869654 20.1039C0.877454 20.0991 0.881354 20.0922 0.881354 20.0832L0.877754 20.0844C0.884954 20.0709 0.891855 20.0574 0.899055 20.0436V20.0433C0.955157 19.9605 0.997458 19.8713 1.01966 19.7735L1.02176 19.7633C1.03076 19.7468 1.03976 19.7303 1.04876 19.7138V19.7135C1.06466 19.6838 1.08056 19.6544 1.09646 19.6247C1.13276 19.5395 1.16906 19.4546 1.20537 19.3694C1.34307 19.064 1.48047 18.7586 1.61818 18.4529C1.68658 18.3026 1.75498 18.1523 1.82339 18.002C1.83089 17.984 1.83809 17.966 1.84559 17.9477C1.90199 17.8214 1.95869 17.6954 2.01509 17.5691C2.09609 17.387 2.1768 17.2049 2.2578 17.0225C2.3322 16.9073 2.3784 16.7791 2.42791 16.6525C2.49061 16.5112 2.57431 16.3795 2.61751 16.2295C2.64931 16.2013 2.63851 16.1383 2.69731 16.1323C2.70602 16.1365 2.71502 16.1404 2.72372 16.1446C2.73482 16.1551 2.74622 16.1656 2.75732 16.1761L2.75582 16.1749C2.87732 16.264 2.99882 16.3531 3.12033 16.4422C3.22263 16.5235 3.33034 16.597 3.44644 16.6576C3.48814 16.702 3.53734 16.7335 3.59644 16.7488C3.71795 16.8523 3.85805 16.925 4.00236 16.9901C4.06896 17.045 4.14546 17.081 4.22707 17.1071C4.30387 17.1809 4.40017 17.2187 4.49857 17.252C4.64738 17.3183 4.79648 17.3846 4.94529 17.4512C4.98609 17.4656 5.02689 17.4797 5.06799 17.4941C5.07249 17.5019 5.07909 17.5055 5.08809 17.5055L5.08779 17.5037C5.10099 17.5091 5.1142 17.5145 5.1277 17.5199C5.1358 17.5244 5.1442 17.5262 5.1532 17.5253C5.2342 17.5853 5.3341 17.5964 5.42501 17.6303C5.54951 17.6717 5.66891 17.7305 5.80272 17.7404C5.99052 17.8178 6.18733 17.8625 6.38624 17.9C6.48764 17.9228 6.58904 17.9453 6.69045 17.9681C7.03816 18.0344 7.38557 18.101 7.73748 18.1406C7.76058 18.1451 7.78428 18.155 7.80709 18.1535C7.92289 18.146 7.93099 18.1946 7.87789 18.2807C7.86859 18.296 7.86829 18.3167 7.86349 18.335C7.85959 18.344 7.85689 18.353 7.85479 18.3623L7.85599 18.3608C7.76118 18.5237 7.69758 18.7004 7.62378 18.8726C7.61748 18.8903 7.61088 18.908 7.60458 18.9254C7.53438 19.0517 7.47737 19.1834 7.43507 19.3217L7.43657 19.3199C7.39877 19.3394 7.41137 19.3841 7.39007 19.4117C7.33787 19.5326 7.28567 19.6532 7.23347 19.7741C7.21187 19.8242 7.19026 19.874 7.16866 19.9242C7.13656 19.9983 7.10446 20.0724 7.07236 20.1465C6.99466 20.322 6.91696 20.4975 6.83925 20.673C6.70935 20.9535 6.57344 21.2313 6.47384 21.525C6.31874 21.834 6.18073 22.1502 6.05833 22.4733C5.97582 22.593 5.93562 22.7319 5.88342 22.8651C5.86182 22.9147 5.84022 22.9642 5.81862 23.014C5.75442 23.1277 5.69832 23.245 5.66471 23.3719C5.58341 23.5159 5.52071 23.6686 5.46251 23.8231C5.45741 23.8312 5.45561 23.8399 5.45711 23.8492C5.41991 23.869 5.42981 23.9095 5.41661 23.9401L5.41991 23.9329C5.41271 23.9464 5.40581 23.9599 5.3986 23.9737V23.974C5.3236 24.1075 5.266 24.2482 5.2195 24.394Z" fill="#7CAAF3"/>
<path d="M3.59277 7.20267C3.63778 6.87326 3.74578 6.56005 3.83788 6.24264C3.89008 6.11844 3.94229 5.99393 3.99449 5.86973C4.03169 5.79443 4.06889 5.71942 4.10609 5.64412C4.15649 5.57032 4.2045 5.49502 4.2297 5.40801C4.4454 5.0966 4.65691 4.78159 4.91882 4.50558C4.93172 4.49328 4.94462 4.48128 4.95752 4.46898C5.36133 4.04477 5.82995 3.70726 6.34387 3.43005C6.44887 3.38385 6.55417 3.33735 6.65918 3.29114C6.68528 3.27644 6.71168 3.26174 6.73778 3.24704L6.74798 3.24404C6.85838 3.22754 6.95529 3.17294 7.05699 3.13244C7.05699 3.13244 7.05399 3.13694 7.05399 3.13664C7.08489 3.12554 7.11609 3.11414 7.14699 3.10304L7.14879 3.10394C7.4035 3.04214 7.65641 2.97133 7.91712 2.93773C7.92822 2.93503 7.93932 2.93233 7.95042 2.92963C8.13313 2.91433 8.31553 2.89453 8.49854 2.88433C8.81655 2.86633 9.13246 2.90053 9.44747 2.93893C9.46787 2.94043 9.48797 2.94193 9.50837 2.94343C9.52757 2.94883 9.54677 2.95423 9.56597 2.95963C9.67698 2.98243 9.78828 3.00523 9.89928 3.02834C10.2065 3.10724 10.5017 3.22094 10.796 3.33645L10.7951 3.33555C10.8143 3.37335 10.8593 3.36045 10.8869 3.38205C11.0075 3.44565 11.1281 3.50955 11.2487 3.57315C11.2676 3.58395 11.2862 3.59505 11.3051 3.60585C11.4146 3.67576 11.5244 3.74536 11.6339 3.81526C11.7347 3.89506 11.8358 3.97517 11.9367 4.05497C11.9748 4.10837 12.0294 4.14137 12.0834 4.17527C12.2046 4.29558 12.3258 4.41588 12.447 4.53619L12.4464 4.53529C12.4569 4.54639 12.4674 4.55749 12.4776 4.56859C12.5025 4.59859 12.5274 4.62859 12.552 4.65859C12.6354 4.76239 12.7188 4.8662 12.8019 4.9697C12.8742 5.0741 12.9465 5.17881 13.0188 5.28321C13.0467 5.32881 13.0746 5.37471 13.1022 5.42031C13.1742 5.55472 13.2462 5.68942 13.3182 5.82383C13.3758 5.95673 13.4331 6.08964 13.4907 6.22254L13.4883 6.22554C13.5435 6.41125 13.5984 6.59725 13.6536 6.78296C13.6764 6.88406 13.6989 6.98517 13.7217 7.08627C13.7964 7.56299 13.8306 8.0412 13.7748 8.52272C13.7544 8.67362 13.734 8.82423 13.7136 8.97513C13.6818 9.12484 13.65 9.27454 13.6182 9.42425C13.5582 9.54275 13.5213 9.66906 13.4916 9.79806C13.4463 9.84336 13.4448 9.90786 13.4196 9.96217C13.3737 10.0675 13.3275 10.1731 13.2816 10.2784C13.1112 10.6117 12.9 10.9192 12.6834 11.2231C12.6378 11.2432 12.6195 11.287 12.5955 11.3257C12.4962 11.4313 12.3969 11.5369 12.2973 11.6422C12.2388 11.6821 12.1908 11.7319 12.1494 11.7889C12.0171 11.9002 11.8851 12.0112 11.7527 12.1225C11.7161 12.1318 11.6837 12.1474 11.6651 12.1828C11.3708 12.3892 11.0582 12.5639 10.7354 12.7217L10.7366 12.7208C10.7273 12.7229 10.718 12.7256 10.7093 12.7295C10.598 12.7724 10.4867 12.8153 10.3757 12.8582C10.2437 12.899 10.112 12.9398 9.97999 12.9806C9.96259 12.9866 9.94489 12.9926 9.92749 12.9986C9.76788 13.0292 9.60857 13.0595 9.44897 13.0901C9.34817 13.1027 9.24736 13.1153 9.14656 13.1279C8.82765 13.1549 8.50844 13.1549 8.18953 13.1279C8.16883 13.1252 8.14783 13.1228 8.12713 13.1201C7.94862 13.0931 7.76981 13.0658 7.59131 13.0388C7.53971 13.0256 7.4884 13.0127 7.4368 12.9995C7.3381 12.9722 7.2397 12.9449 7.14099 12.9179C7.05699 12.8912 6.97809 12.8462 6.88718 12.8429C6.87698 12.8237 6.86048 12.8162 6.83918 12.8189C6.83078 12.8138 6.82178 12.812 6.81218 12.8135C6.64088 12.7343 6.46927 12.6548 6.29797 12.5756L6.28656 12.5723C6.15156 12.4924 6.01626 12.4126 5.88125 12.3328C5.79905 12.2623 5.71145 12.1996 5.61304 12.1531C5.60164 12.1426 5.59054 12.1321 5.57914 12.1216L5.58064 12.1228C5.51974 12.0739 5.45854 12.025 5.39763 11.9761C5.14083 11.7523 4.90052 11.512 4.67671 11.2549C4.66771 11.2438 4.65841 11.2327 4.64941 11.2213L4.65091 11.2228C4.59961 11.1535 4.54831 11.0845 4.497 11.0152C4.4391 10.9348 4.3809 10.8541 4.323 10.7737C4.15799 10.4806 4.00679 10.1809 3.86788 9.87456C3.82348 9.73326 3.77908 9.59225 3.73468 9.45095C3.69238 9.28924 3.64978 9.12754 3.60747 8.96583L3.60898 8.96403C3.59877 8.75583 3.53817 8.55302 3.54327 8.34331C3.58437 8.124 3.58437 7.9047 3.54327 7.68539C3.54717 7.61549 3.55137 7.54529 3.55527 7.47538C3.56787 7.38388 3.58047 7.29328 3.59277 7.20267ZM11.2463 5.44492C11.1209 5.57032 10.9955 5.69572 10.8701 5.82113C10.8365 5.83673 10.8119 5.86133 10.7963 5.89493C10.6709 6.02033 10.5455 6.14574 10.4201 6.27114C10.3865 6.28674 10.3619 6.31134 10.3463 6.34495C10.2209 6.47035 10.0955 6.59575 9.97009 6.72116C9.93649 6.73676 9.91188 6.76136 9.89628 6.79496C9.77088 6.92036 9.64548 7.04577 9.52007 7.17117C9.48647 7.18677 9.46187 7.21137 9.44627 7.24498C9.32087 7.37038 9.19546 7.49578 9.07006 7.62119C9.03646 7.63679 9.01185 7.66139 8.99625 7.69499C8.87085 7.82039 8.74545 7.9458 8.62004 8.0712C8.58644 8.0868 8.56184 8.1117 8.54594 8.14501C8.41064 8.26411 8.27323 8.38081 8.16073 8.52302C8.12953 8.55302 8.09802 8.58272 8.06682 8.61272C7.98522 8.71772 7.92252 8.69972 7.83161 8.60672C7.411 8.17501 6.98139 7.75169 6.56287 7.33318C6.46327 7.42768 6.36907 7.51708 6.27486 7.60649C6.12726 7.75409 5.97965 7.902 5.83205 8.0496C5.74115 8.14201 5.64994 8.23471 5.55454 8.33131C6.29436 9.07114 7.03599 9.81246 7.77731 10.5538C7.95762 10.7341 7.95762 10.7341 8.13252 10.5349C8.20093 10.4851 8.26033 10.426 8.30983 10.3576C8.40073 10.2667 8.49164 10.1758 8.58254 10.0849C8.65094 10.0351 8.71034 9.97597 8.75985 9.90756C8.85075 9.81666 8.94165 9.72576 9.03256 9.63485C9.10096 9.58505 9.16036 9.52595 9.20986 9.45755C9.30076 9.36665 9.39167 9.27574 9.48257 9.18484C9.55097 9.13504 9.61037 9.07594 9.65988 9.00753C9.75078 8.91663 9.84168 8.82573 9.93259 8.73482C10.001 8.68502 10.0601 8.62592 10.1099 8.55752C10.2008 8.46662 10.2917 8.37571 10.3826 8.28481C10.451 8.23501 10.5101 8.17591 10.5599 8.1075C10.6508 8.0166 10.7417 7.9257 10.8326 7.83479C10.901 7.78499 10.9604 7.72589 11.0099 7.65749C11.1008 7.56659 11.1917 7.47568 11.2826 7.38478C11.351 7.33498 11.4101 7.27588 11.4599 7.20747C11.5508 7.11657 11.6417 7.02567 11.7326 6.93476C11.801 6.88496 11.8604 6.82586 11.91 6.75746C12.0009 6.66656 12.0918 6.57595 12.1827 6.48505C12.2193 6.45265 12.2535 6.41725 12.2925 6.38845C12.3657 6.33415 12.3765 6.29154 12.2985 6.22284C12.1542 6.09594 12.0207 5.95643 11.883 5.82233C11.8217 5.76113 11.7608 5.70022 11.6996 5.63902C11.6327 5.56822 11.5667 5.49622 11.4983 5.42662C11.3711 5.29761 11.3705 5.29821 11.2463 5.44492Z" fill="#7CAAF3"/>
</svg>
