<svg width="15" height="16" viewBox="0 0 15 16" fill="none" xmlns="http://www.w3.org/2000/svg">
<path d="M8.523 13.9089H9.03501V1.95539C9.03501 1.78209 9.3111 1.63125 9.46943 1.71789C10.7487 2.41856 12.0791 3.03416 13.3544 3.74074C13.4848 3.81321 13.8739 4.00383 13.9106 4.12987L13.9188 13.9089H14.7262C14.7428 13.9089 14.8649 13.9995 14.8861 14.0247C15.0256 14.1886 15.1008 15.2484 14.7235 15.2851L0.308344 15.2898C0.130321 15.302 0.0330384 15.15 0.0145272 14.9928C-0.00792263 14.8045 -0.0410065 13.9089 0.231936 13.9089H1.39381V2.58556C1.39381 2.53633 1.56081 2.36145 1.62973 2.34885L8.12757 0.0231317C8.22327 -0.0639104 8.523 0.118051 8.523 0.183431V13.9093V13.9089ZM5.9141 2.18225C5.73174 2.20864 5.5293 2.30592 5.49228 2.50876C5.43477 2.82305 5.46431 3.3075 5.86368 3.35437C6.06179 3.3776 6.57381 3.37839 6.77152 3.35437C7.26266 3.29529 7.32056 2.55878 7.02792 2.30828C6.81288 2.12435 6.19058 2.14208 5.91449 2.18225H5.9141ZM4.37412 4.95539C4.57499 4.76319 4.57341 4.14995 4.32292 3.98926C4.15238 3.87977 3.40326 3.87465 3.18861 3.90773C2.99956 3.93688 2.83335 4.08851 2.8109 4.27835C2.76246 4.68757 2.78885 5.03574 3.26463 5.08694C3.51669 5.11411 4.19137 5.12947 4.37412 4.95539ZM7.05234 4.03652C6.87274 3.85653 5.96963 3.86086 5.75025 3.9483C5.39578 4.08969 5.3883 4.79155 5.65021 4.98572C5.83651 5.12357 6.48637 5.11451 6.73095 5.08654C7.22879 5.02983 7.33592 4.3201 7.05234 4.03652ZM10.7026 4.03652C10.419 4.3201 10.5265 5.02983 11.024 5.08654C11.2682 5.11451 11.9184 5.12357 12.1047 4.98572C12.3666 4.79194 12.3596 4.09009 12.0047 3.9483C11.7853 3.86086 10.8822 3.85653 10.7026 4.03652ZM3.11575 5.6856C2.73253 5.77225 2.7089 6.52884 2.95545 6.73523C3.15907 6.90576 4.02122 6.9034 4.25793 6.7884C4.64549 6.60053 4.60846 5.73247 4.13229 5.67654C3.95427 5.65567 3.2729 5.65015 3.11575 5.6856ZM5.79397 5.6856C5.41311 5.77146 5.3816 6.53278 5.63406 6.73483C5.85147 6.90892 6.69511 6.90537 6.93615 6.7884C7.32292 6.60092 7.30874 5.74113 6.77113 5.67615C6.60019 5.65567 5.946 5.65094 5.79397 5.68521V5.6856ZM10.9153 5.68678C10.4777 5.76555 10.4509 6.5576 10.7699 6.75886C11.0468 6.93373 12.1819 6.96918 12.2631 6.52215C12.3206 6.2047 12.2902 5.72341 11.8917 5.67654C11.6924 5.65291 11.1067 5.65252 10.9153 5.68678ZM3.11575 7.45795C2.68802 7.55445 2.65612 8.53042 3.18546 8.59265C3.37569 8.6151 4.13505 8.61431 4.27999 8.54342C4.62382 8.37485 4.62343 7.50679 4.13229 7.44889C3.95506 7.42802 3.2725 7.4225 3.11575 7.45795ZM5.79476 7.45874C5.35246 7.54775 5.34261 8.5316 5.86368 8.59265C6.06534 8.61628 6.75813 8.6151 6.92394 8.54854C7.32646 8.38666 7.28905 7.50521 6.81051 7.44889C6.61752 7.42605 5.97357 7.4229 5.79476 7.45874ZM10.8747 7.45795C10.4714 7.54854 10.3899 8.52136 10.9838 8.59265C11.1618 8.61392 11.9137 8.61352 12.0429 8.54736C12.1579 8.48867 12.2505 8.3457 12.2654 8.21849C12.3044 7.89119 12.2934 7.49615 11.8913 7.4485C11.7132 7.42723 11.0326 7.4225 10.8747 7.45756V7.45795ZM4.37412 9.35358C4.17916 9.16729 3.21146 9.16689 2.99444 9.30632C2.69511 9.49852 2.69314 10.3248 3.18861 10.4012C3.39893 10.4335 4.08582 10.4264 4.26502 10.3402C4.57932 10.1889 4.59547 9.56508 4.37412 9.35358ZM7.05234 10.2724C7.33592 9.98887 7.22839 9.27914 6.73095 9.22243C6.48676 9.19446 5.83651 9.1854 5.65021 9.32325C5.3883 9.51703 5.39539 10.2189 5.75025 10.3607C5.96963 10.4481 6.87274 10.4524 7.05234 10.2724ZM10.7026 10.2724C10.8822 10.4524 11.7853 10.4481 12.0047 10.3607C12.3592 10.2193 12.3666 9.51742 12.1047 9.32325C11.9184 9.1854 11.2686 9.19446 11.024 9.22243C10.5262 9.27914 10.419 9.98887 10.7026 10.2724ZM3.11575 10.9633C2.68802 11.0598 2.65612 12.0357 3.18546 12.098C3.35679 12.1181 4.1315 12.1188 4.25911 12.0672C4.61989 11.9219 4.62894 11.0125 4.13229 10.9542C3.95427 10.9333 3.27329 10.9278 3.11575 10.9633ZM5.79476 10.9641C5.35246 11.0531 5.34261 12.0369 5.86368 12.098C6.03501 12.1181 6.80973 12.1188 6.93733 12.0672C7.29811 11.9219 7.30717 11.0125 6.81051 10.9542C6.61713 10.9314 5.97357 10.9282 5.79476 10.9641ZM10.8747 10.9633C10.4584 11.0566 10.4237 12.0365 10.9444 12.098C11.1402 12.1212 11.74 12.1248 11.9279 12.0948C12.3981 12.0204 12.4253 11.0172 11.8917 10.9538C11.7136 10.9325 11.033 10.9274 10.8751 10.9629L10.8747 10.9633Z" fill="#1164E9"/>
</svg>
