<svg width="13" height="14" viewBox="0 0 13 14" fill="none" xmlns="http://www.w3.org/2000/svg">
<path d="M2.12666 0.00416506C2.30618 -0.0334301 2.62191 0.193117 2.77099 0.296301C3.49181 0.795292 4.71389 1.95114 5.14892 2.70321C5.24495 2.86905 5.32876 3.01162 5.28059 3.20659C5.1403 3.77361 4.20595 4.47978 3.83179 4.94769C3.72291 5.08391 3.68043 5.1246 3.69573 5.31208C3.80396 6.6315 5.65703 8.27934 6.72206 8.94206C6.99662 9.11278 7.55583 9.43649 7.87059 9.45472C7.98582 9.46139 8.13017 9.34014 8.21822 9.26918C8.73544 8.85205 9.17145 8.26323 9.70071 7.871C9.85646 7.75561 9.89601 7.7159 10.0894 7.78816C10.7578 8.03831 11.8091 9.01432 12.2538 9.57857C12.5145 9.90944 12.9555 10.5984 12.999 11.0148C13.0205 11.2197 12.6914 11.5968 12.5475 11.7431C11.6601 12.6453 10.3872 13.1247 9.12132 13.004C6.76503 12.7792 3.87736 10.7084 2.38316 8.93554C0.379055 6.55761 -1.4719 2.49912 1.73557 0.247476C1.80491 0.198814 2.064 0.017185 2.12682 0.00416506H2.12666Z" fill="#1164E9"/>
</svg>
