<svg width="24" height="20" viewBox="0 0 24 20" fill="none" xmlns="http://www.w3.org/2000/svg">
<path d="M3.96087 1.09788C4.03536 1.05472 4.09396 0.99522 4.1421 0.924814C4.56 0.611849 5.00741 0.353392 5.50207 0.180784C5.7301 0.134907 5.95857 0.0894835 6.1866 0.0436062C6.41008 -0.00817616 6.63856 0.0149896 6.86477 0C7.0778 0.0299792 7.29083 0.0599585 7.50387 0.0899377C7.76051 0.169882 8.01715 0.249827 8.27379 0.329317C8.33829 0.394727 8.42232 0.423343 8.50545 0.453777C8.64036 0.533267 8.77481 0.612758 8.90971 0.692702C9.13592 0.888022 9.37439 1.06835 9.57925 1.28911C9.71143 1.43174 9.79047 1.61706 9.95127 1.73425C10.0462 1.91458 10.1407 2.09446 10.2356 2.27479C10.266 2.33702 10.2965 2.3997 10.3274 2.46193C10.3882 2.67315 10.4491 2.88482 10.51 3.09604C10.5395 3.24866 10.569 3.40174 10.5985 3.55436C10.5854 3.90003 10.6122 4.24751 10.5531 4.59137C10.5082 4.77533 10.4627 4.95929 10.4178 5.14326C10.3101 5.38445 10.2025 5.62565 10.0948 5.8673C9.94173 6.07806 9.78865 6.28883 9.63557 6.50005C9.6056 6.53093 9.57562 6.56228 9.54609 6.59316C9.4934 6.64358 9.4398 6.69264 9.38893 6.74488C9.04371 7.09691 8.62582 7.34083 8.18794 7.55568C7.9581 7.62745 7.72826 7.69922 7.49842 7.77098C7.30264 7.79142 7.10642 7.81141 6.91064 7.83185C6.69852 7.8314 6.48594 7.8314 6.27381 7.83094C6.01762 7.78052 5.76189 7.7301 5.50571 7.67968C5.27768 7.57794 5.0492 7.47573 4.82118 7.37399C4.69945 7.31176 4.59815 7.21273 4.46188 7.17685C4.38285 7.05512 4.24294 7.00606 4.1421 6.91067C4.03899 6.77213 3.86457 6.7049 3.77963 6.54819C3.67425 6.42555 3.56886 6.30291 3.46348 6.17981C3.42714 6.05899 3.33675 5.97132 3.27044 5.86912C3.16869 5.6411 3.06649 5.41307 2.96474 5.18505C2.83892 4.74036 2.75216 4.29021 2.76987 3.82508C2.78532 3.3545 2.88525 2.90072 3.04332 2.45875C3.16869 2.2171 3.29405 1.9759 3.41942 1.73425C3.45803 1.71245 3.49346 1.68838 3.498 1.63887C3.65199 1.45854 3.80643 1.27821 3.96087 1.09788Z" fill="#1164E9"/>
<path d="M13.3083 1.77695C13.599 1.35633 13.9496 0.993857 14.3643 0.694065C14.5165 0.60231 14.6682 0.51101 14.8204 0.419255C14.894 0.385188 14.9671 0.351121 15.0407 0.317053C15.2687 0.241197 15.4972 0.16534 15.7252 0.0899377C15.9664 0.0599585 16.2081 0.0299792 16.4493 0C16.6623 0.0145354 16.8753 0.0290708 17.0884 0.0436062C17.33 0.0935716 17.5712 0.143083 17.8129 0.193048C18.2685 0.358842 18.6754 0.615483 19.0824 0.872124C19.1433 0.962515 19.2201 1.03746 19.3096 1.09969C19.4594 1.2664 19.6093 1.4331 19.7597 1.5998C19.7679 1.6752 19.8315 1.71745 19.866 1.77741C19.9832 1.98999 20.0999 2.20302 20.2171 2.4156C20.3684 2.87301 20.5083 3.33224 20.5033 3.82144C20.4901 4.06446 20.5028 4.30884 20.4578 4.55003C20.4551 4.75716 20.3511 4.94158 20.3229 5.14326C20.2162 5.384 20.1095 5.6252 20.0027 5.86594C19.9387 5.9695 19.8751 6.07352 19.811 6.17754C19.7206 6.2861 19.6302 6.39421 19.5398 6.50277C19.4036 6.63904 19.2673 6.77531 19.131 6.91158C18.992 7.01741 18.8535 7.12325 18.7145 7.22909C18.6096 7.28904 18.5051 7.34855 18.4002 7.40851C18.1894 7.49935 17.9787 7.59065 17.7674 7.6815C17.5653 7.70285 17.37 7.75372 17.1774 7.81732C17.0552 7.82277 16.933 7.82776 16.8113 7.83321C16.5515 7.80641 16.2912 7.83548 16.0291 7.80278C15.6871 7.75963 15.3746 7.62245 15.0443 7.54432C14.5419 7.27769 14.0632 6.97971 13.683 6.54638C13.4922 6.33788 13.3382 6.10168 13.1815 5.86776C13.1211 5.75919 13.0607 5.65063 13.0003 5.54207C12.963 5.42034 12.9371 5.29452 12.8663 5.1855C12.8163 4.95929 12.7668 4.73354 12.7168 4.50733C12.7019 4.29339 12.6869 4.07945 12.6719 3.86551C12.6914 3.64112 12.7109 3.41673 12.73 3.19279C12.8013 2.96295 12.8731 2.73265 12.9444 2.50281C12.9789 2.41378 13.013 2.32521 13.0475 2.23618C13.1343 2.08219 13.221 1.92957 13.3083 1.77695Z" fill="#1164E9"/>
<path d="M7.50854 19.2231C7.50309 19.0855 7.49764 18.9478 7.49219 18.8102C7.49219 18.5844 7.49219 18.3587 7.49219 18.1329C7.49219 17.9045 7.49219 17.676 7.49219 17.4475C7.49219 17.2217 7.49219 16.996 7.49219 16.7698C7.50763 16.5708 7.52262 16.3723 7.53807 16.1734C7.55714 16.0694 7.57667 15.9649 7.59575 15.8609C7.68296 15.7196 7.70613 15.5547 7.76563 15.4035C7.90599 15.1773 8.04635 14.951 8.18625 14.7248C8.20033 14.7099 8.21442 14.6949 8.2285 14.6799C8.61823 14.2792 9.04475 13.9336 9.58846 13.761C9.8074 13.6669 10.0468 13.6579 10.2725 13.5924C10.3784 13.5929 10.4847 13.5938 10.5905 13.5943C10.5978 13.6129 10.605 13.6315 10.6123 13.6501C10.6196 13.6315 10.6268 13.6129 10.6341 13.5943C10.665 13.5943 10.6959 13.5943 10.7268 13.5943C10.734 13.6129 10.7413 13.6315 10.7486 13.6501C10.7558 13.6315 10.7631 13.6129 10.7704 13.5943C10.8013 13.5943 10.8321 13.5943 10.863 13.5943C10.8703 13.6129 10.8776 13.6315 10.8848 13.6501C10.8921 13.6315 10.8994 13.6129 10.9066 13.5943C11.1497 13.5943 11.3922 13.5943 11.6352 13.5943C11.6425 13.6129 11.6498 13.6315 11.657 13.6501C11.6643 13.6315 11.6716 13.6129 11.6788 13.5943C11.7097 13.5943 11.7406 13.5943 11.7715 13.5943C11.7788 13.6129 11.786 13.6315 11.7933 13.6501C11.8006 13.6315 11.8078 13.6129 11.8151 13.5943C11.846 13.5943 11.8769 13.5943 11.9078 13.5943C11.915 13.6129 11.9223 13.6315 11.9296 13.6501C11.9368 13.6315 11.9441 13.6129 11.9514 13.5943C11.9823 13.5943 12.0131 13.5943 12.044 13.5943C12.0513 13.6129 12.0586 13.6315 12.0658 13.6501C12.0731 13.6315 12.0804 13.6129 12.0876 13.5943C12.1185 13.5943 12.1494 13.5943 12.1803 13.5943C12.1876 13.6129 12.1948 13.6315 12.2021 13.6501C12.2094 13.6315 12.2166 13.6129 12.2239 13.5943C12.4197 13.5902 12.6159 13.5856 12.8117 13.5815C12.8594 13.5815 12.9071 13.5815 12.9548 13.5815C13.1792 13.6306 13.404 13.6797 13.6284 13.7287C13.7506 13.78 13.8741 13.8282 13.995 13.8832C14.4042 14.0689 14.724 14.3728 15.0392 14.6821C15.0692 14.7135 15.0992 14.7453 15.1292 14.7766C15.2541 14.9865 15.3785 15.1968 15.5035 15.4066C15.5643 15.6015 15.6247 15.7964 15.6856 15.9912C15.7001 16.0235 15.7151 16.0557 15.7297 16.088C15.7864 16.6776 15.7755 17.2681 15.7619 17.859C15.7433 17.8663 15.7247 17.8736 15.706 17.8808C15.7247 17.8881 15.7433 17.8954 15.7619 17.9026C15.7619 18.3119 15.7619 18.7216 15.7619 19.1309C15.6992 19.1332 15.677 19.1704 15.6788 19.2281C15.5421 19.3039 15.4053 19.3798 15.2686 19.4557C15.1632 19.4865 15.0574 19.5174 14.952 19.5479C14.7694 19.6042 14.5868 19.6601 14.4042 19.7164C14.1326 19.7664 13.861 19.8159 13.5889 19.8658C13.4122 19.9331 13.216 19.8599 13.0415 19.943C12.709 19.9621 12.3765 19.9807 12.044 19.9998C11.9523 19.9998 11.8605 19.9998 11.7688 19.9998C11.4072 19.9626 11.0443 19.943 10.6809 19.943C10.5205 19.8731 10.3448 19.9017 10.1785 19.8658C9.93731 19.8313 9.69566 19.7963 9.45447 19.7618C9.2805 19.6828 9.08881 19.6823 8.90666 19.6387C8.68046 19.5887 8.45425 19.5392 8.22804 19.4893C8.21124 19.4784 8.19443 19.4675 8.17762 19.4566C7.9664 19.3912 7.75519 19.3257 7.54397 19.2603C7.53307 19.2476 7.5208 19.2354 7.50854 19.2231Z" fill="#7CAAF3"/>
<path d="M15.6828 14.7689C15.5206 14.4819 15.3362 14.2143 15.0459 14.0381L15.0464 14.0413C14.8679 13.8069 14.6122 13.677 14.3623 13.5398C14.122 13.3749 13.8404 13.3104 13.5711 13.21C13.5729 13.1333 13.661 13.1155 13.6814 13.0519C13.8095 12.947 13.9258 12.8326 13.9989 12.6808C14.1543 12.4882 14.2806 12.2793 14.3537 12.0413C14.4523 11.8096 14.4968 11.5648 14.5313 11.3172C14.5313 11.0906 14.5313 10.8639 14.5313 10.6368C14.495 10.4038 14.4473 10.1739 14.3532 9.95636C14.2751 9.6979 14.142 9.47124 13.9603 9.27183C13.9117 9.12557 13.7873 9.04426 13.6814 8.94751C13.5561 8.79852 13.4248 8.6568 13.2336 8.59049C13.1936 8.5487 13.1536 8.50691 13.1055 8.45694C13.2981 8.39244 13.4879 8.32839 13.6778 8.2648C13.9063 8.21983 14.1343 8.17441 14.3628 8.12944C14.5917 8.15897 14.8152 8.10355 15.0409 8.08493C15.269 8.08493 15.497 8.08493 15.7255 8.08447C15.9517 8.08447 16.1774 8.08447 16.4036 8.08447C16.6321 8.08447 16.8601 8.08447 17.0886 8.08447C17.3294 8.08447 17.5697 8.08447 17.8104 8.08447C18.023 8.08811 18.2356 8.09174 18.4481 8.09537C18.7061 8.12626 18.9637 8.1567 19.2217 8.18758C19.4093 8.27843 19.62 8.28751 19.814 8.35565C20.2982 8.52553 20.7524 8.75446 21.174 9.04744C21.2775 9.1233 21.3806 9.19916 21.4842 9.27501C21.5928 9.38085 21.7009 9.48623 21.809 9.59207C21.9126 9.6979 22.0157 9.80419 22.1192 9.91003C22.2582 10.1094 22.3968 10.3088 22.5358 10.5082C22.5344 10.5723 22.5726 10.6095 22.6243 10.6373C22.7343 10.878 22.8442 11.1187 22.9541 11.3595C22.9391 11.4703 23.0159 11.5548 23.045 11.6525C23.1594 12.0354 23.1921 12.4315 23.2607 12.8216C23.2643 13.0011 23.2675 13.1805 23.2712 13.3599C23.2712 13.5884 23.2712 13.8164 23.2712 14.0449C23.2712 14.2706 23.2712 14.4969 23.2712 14.7226C23.2712 14.9511 23.2712 15.1791 23.2712 15.4076C23.2712 15.6333 23.2712 15.8595 23.2712 16.0853C23.2712 16.3138 23.2712 16.5418 23.2712 16.7703C23.2198 16.9365 23.3506 17.1368 23.1758 17.2799C22.9636 17.3394 22.7511 17.3994 22.5389 17.4589C22.3109 17.5302 22.0829 17.602 21.8544 17.6733C21.6282 17.7228 21.4025 17.7728 21.1762 17.8223C20.9482 17.8786 20.7197 17.9345 20.4917 17.9908C20.2814 18.0253 20.0716 18.0598 19.8612 18.0944C19.8226 18.0894 19.7845 18.0848 19.7618 18.1271C19.5224 18.1616 19.283 18.1961 19.0436 18.2311C18.8769 18.2656 18.7011 18.2406 18.5399 18.3088C18.2832 18.3283 18.0262 18.3483 17.7695 18.3678C17.5928 18.3328 17.4429 18.4764 17.2667 18.4423C17.2417 18.3383 17.1935 18.3365 17.1277 18.4105C17.1131 18.4078 17.0986 18.4087 17.0845 18.4132C16.8915 18.4114 16.6989 18.4091 16.5058 18.4073C16.484 18.4073 16.4618 18.4073 16.44 18.4073C16.43 18.411 16.42 18.4128 16.4091 18.4119C16.3796 18.3542 16.326 18.3587 16.2737 18.3596C16.2687 18.2829 16.2642 18.2061 16.2592 18.1293C16.2592 17.9036 16.2592 17.6778 16.2592 17.4521C16.2592 17.2236 16.2592 16.9951 16.2592 16.7666C16.2928 16.5377 16.2324 16.3147 16.2138 16.0889C16.162 15.8391 16.1207 15.5866 15.998 15.3576C15.9408 15.1827 15.8508 15.0238 15.7595 14.8648C15.7573 14.8144 15.7214 14.7907 15.6828 14.7689Z" fill="#7CAAF3"/>
<path d="M4.87254 8.09635C5.08239 8.09272 5.29225 8.08908 5.5021 8.08545C5.73012 8.08545 5.95815 8.0859 6.18617 8.0859C6.41238 8.0859 6.63904 8.0859 6.86525 8.0859C7.09327 8.0859 7.3213 8.08545 7.54932 8.08545C7.77553 8.08545 8.00128 8.08545 8.22749 8.08545C8.44052 8.11089 8.65174 8.15722 8.86841 8.12906C9.13958 8.17902 9.41121 8.22899 9.68239 8.27895C9.8182 8.33073 9.95311 8.3866 10.0907 8.43294C10.2216 8.47654 10.0989 8.50743 10.0894 8.54377C9.87589 8.65869 9.68829 8.8045 9.54249 8.99982C9.45573 9.06386 9.37306 9.13109 9.32673 9.23193C9.15139 9.46586 8.97106 9.69752 8.91837 9.99685C8.91519 10.0118 8.91201 10.0268 8.90883 10.0414C8.79346 10.1881 8.78392 10.3643 8.77029 10.5397C8.68989 10.7963 8.73259 11.0584 8.73713 11.3191C8.75621 11.5349 8.80981 11.7429 8.87295 11.9491C8.88476 11.9659 8.89657 11.9828 8.90838 11.9996C8.97197 12.2571 9.11733 12.471 9.26949 12.6814C9.34035 12.8344 9.46118 12.9439 9.58745 13.0488C9.62788 13.0997 9.66831 13.1506 9.71419 13.2078C9.41984 13.3132 9.1255 13.3877 8.86795 13.5508C8.66037 13.6848 8.43144 13.7901 8.27155 13.9895C8.25747 13.9941 8.24384 13.9995 8.22976 14.005C7.96131 14.1939 7.78779 14.4656 7.60019 14.7254C7.56613 14.7849 7.53206 14.8444 7.49754 14.9039C7.39761 15.0593 7.2954 15.2132 7.26815 15.4017C7.14687 15.5794 7.12234 15.786 7.08873 15.9904C7.00697 16.2443 6.99107 16.5051 7.0106 16.7694C7.0106 16.9952 7.0106 17.2214 7.0106 17.4472C7.0106 17.6756 7.0106 17.9037 7.0106 18.1321C7.00561 18.2075 7.00061 18.2829 6.99561 18.3583C6.95564 18.3588 6.92339 18.3724 6.90613 18.411C6.89568 18.4119 6.88569 18.4101 6.8757 18.406C6.8548 18.4056 6.83436 18.4051 6.81347 18.4047L6.79711 18.4051L6.78076 18.4047C6.76123 18.4047 6.7417 18.4047 6.72217 18.4047L6.70627 18.4051L6.69037 18.4047C6.67084 18.4047 6.65131 18.4047 6.63177 18.4047C6.48188 18.4069 6.33198 18.4097 6.18254 18.4119C6.03355 18.4078 5.88411 18.4038 5.73512 18.3997C5.47939 18.3352 5.21548 18.3515 4.95612 18.3215C4.63815 18.2943 4.32655 18.2098 4.00496 18.2175C3.79737 18.1494 3.58252 18.1194 3.36676 18.0944C3.1996 18.0649 3.0329 18.0349 2.86574 18.0054C2.62864 17.9432 2.39198 17.8759 2.14624 17.8546C1.93866 17.7701 1.71972 17.7292 1.50123 17.6856C1.26185 17.6207 1.02293 17.5557 0.783549 17.4912C0.735854 17.4299 0.667265 17.4535 0.605944 17.4481C0.417893 17.349 0.21258 17.3072 0.00772193 17.2636C0.00499654 17.0978 0.00227116 16.9325 0 16.7667C0 16.5405 0 16.3148 0 16.0885C0 15.8605 0 15.632 0 15.404C0 15.1783 0 14.9521 0 14.7263C0 14.4978 0 14.2698 0 14.0413C0 13.8151 0 13.5894 0 13.3632C0.00363385 13.136 0.0072677 12.9089 0.0109015 12.6814C0.0694973 12.2158 0.19214 11.7652 0.329318 11.3182C0.43152 11.1047 0.533267 10.8912 0.635469 10.6777C0.698153 10.596 0.764471 10.5165 0.783094 10.4107C0.907554 10.2889 1.00476 10.1472 1.0897 9.9964C1.21371 9.86195 1.33726 9.72704 1.46126 9.59259C1.56891 9.48721 1.67657 9.38182 1.78422 9.2769C1.88869 9.20059 1.99271 9.12428 2.09718 9.04751C2.30976 8.91215 2.52189 8.77633 2.73447 8.64097C2.77126 8.63598 2.81214 8.6387 2.83077 8.59464C3.05697 8.50425 3.28318 8.41386 3.50939 8.32347C3.73378 8.2735 3.95862 8.22399 4.18301 8.17402C4.40877 8.11134 4.64906 8.17766 4.87254 8.09635Z" fill="#7CAAF3"/>
<path d="M12.951 13.0417C12.5735 13.2661 12.1724 13.4137 11.7273 13.4165C11.4511 13.4196 11.1777 13.3974 10.9101 13.3247C10.8956 13.3206 10.8806 13.3165 10.8661 13.3129C10.668 13.2107 10.4704 13.1085 10.2724 13.0068C10.1225 12.8805 9.97259 12.7542 9.8227 12.6279C9.79045 12.4917 9.65736 12.4281 9.59467 12.3136C9.53471 12.2082 9.4743 12.1028 9.41434 11.9975C9.3503 11.7849 9.28625 11.5727 9.22266 11.3602C9.22266 11.1049 9.22266 10.8492 9.22266 10.5939C9.2976 10.3804 9.37255 10.1664 9.4475 9.95296C9.51246 9.83304 9.57696 9.71312 9.64191 9.59321C9.76637 9.51644 9.81679 9.37609 9.914 9.2757C10.048 9.16623 10.182 9.05721 10.316 8.94775C10.5963 8.79876 10.8847 8.67339 11.1977 8.60616C11.343 8.57482 11.4979 8.62797 11.636 8.55029C12.1238 8.57528 12.5699 8.73834 12.9987 8.95955C13.0886 9.10037 13.2394 9.17123 13.3621 9.27434C13.4697 9.39516 13.5388 9.54915 13.68 9.6409C13.6964 9.69723 13.7123 9.75355 13.7286 9.80988C13.7413 9.82714 13.7541 9.84485 13.7668 9.86211C13.7722 9.87438 13.7745 9.88709 13.7741 9.90072C13.7868 9.91844 13.7999 9.9357 13.8127 9.95341C13.8199 9.96431 13.8227 9.97612 13.8204 9.98884C13.8331 10.0075 13.8454 10.0256 13.8581 10.0443C13.973 10.2564 14.0034 10.493 14.0529 10.7238C14.0529 10.9078 14.0529 11.0917 14.0529 11.2757C14.0134 11.5232 13.9435 11.7631 13.8581 11.9984C13.7863 12.1215 13.715 12.2441 13.6432 12.3672C13.5615 12.4694 13.4597 12.5566 13.4048 12.6797C13.253 12.8001 13.1022 12.9209 12.951 13.0417Z" fill="#1164E9"/>
</svg>
