<svg width="21" height="22" viewBox="0 0 21 22" fill="none" xmlns="http://www.w3.org/2000/svg">
<g clip-path="url(#clip0_94_70)">
<path d="M6.32969 21.4693C3.0779 21.4669 0.388966 18.7768 0.392582 15.531C0.396198 12.2732 3.0767 9.5999 6.33572 9.60352C9.59836 9.60714 12.2764 12.284 12.274 15.5382C12.2716 18.7864 9.58028 21.4717 6.32969 21.4693ZM5.83554 19.8109C6.15252 19.8338 6.41045 19.6903 6.57557 19.4131C6.72864 19.1564 6.85278 18.8816 6.98294 18.6116C7.88568 16.7399 8.78963 14.8693 9.68755 12.9951C9.96114 12.4238 9.86834 12.0924 9.38985 11.8453C8.8065 11.544 8.37864 11.6886 8.07732 12.3021C7.31078 13.8629 6.54061 15.4201 5.79094 16.9894C5.57641 17.4389 5.36066 17.4932 4.98101 17.1665C4.49529 16.7495 3.97944 16.3662 3.47082 15.9769C2.9851 15.6057 2.57049 15.6503 2.2294 16.0999C1.89916 16.5338 1.94978 17.0207 2.38006 17.3606C3.3069 18.0934 4.24098 18.8177 5.17144 19.5469C5.36187 19.6976 5.56074 19.8265 5.83554 19.8109Z" fill="#1164E9"/>
<path d="M7.08972 4.96095L7.08993 4.96103C8.89127 5.65214 10.7845 5.85943 12.122 5.88562C13.9967 5.89742 15.2441 5.78055 16.4666 5.52292C17.7367 5.25427 18.9153 4.924 19.8801 4.14754L7.08972 4.96095ZM7.08972 4.96095C6.46869 4.72308 5.91552 4.4482 5.47076 4.02375L5.47031 4.02332M7.08972 4.96095L5.47031 4.02332M5.47031 4.02332C5.16792 3.73565 5.04853 3.45269 5.04419 3.20344C5.03986 2.95483 5.14878 2.67007 5.4418 2.37547C5.98789 1.82721 6.68142 1.48319 7.45254 1.23995C11.0819 0.097823 14.6961 0.103464 18.2984 1.34037C18.8877 1.54281 19.4273 1.83 19.8903 2.22592L19.8904 2.22599M5.47031 4.02332L19.8904 2.22599M19.8904 2.22599C20.309 2.58367 20.4593 2.92078 20.4579 3.19971M19.8904 2.22599L20.4579 3.19971M20.4579 3.19971C20.4565 3.47655 20.3048 3.80554 19.8802 4.14748L20.4579 3.19971Z" fill="#1164E9" stroke="#1164E9" stroke-width="0.795159"/>
<path d="M4.67379 4.56543C7.76046 7.47372 17.4905 7.6051 20.8363 4.58712C20.8363 5.78274 20.8592 6.91328 20.8219 8.04019C20.811 8.36682 20.4723 8.56448 20.2204 8.75733C19.1466 9.58534 17.881 9.9662 16.5854 10.247C14.9293 10.6062 13.2492 10.6845 11.5594 10.611C11.2654 10.5978 11.0364 10.5086 10.8086 10.3085C9.15977 8.85736 7.22894 8.32946 5.06429 8.60667C4.86904 8.63198 4.66656 8.75009 4.66897 8.39334C4.67981 7.15674 4.67379 5.91773 4.67379 4.56543ZM17.8533 8.28366C18.48 8.08841 19.1068 7.88231 19.6853 7.56171C19.8203 7.48698 19.8577 7.33753 19.7733 7.19531C19.6877 7.05068 19.5527 7.04344 19.4105 7.10973C18.8669 7.36163 18.3137 7.5834 17.7388 7.75696C17.6062 7.79673 17.4857 7.9028 17.5327 8.07274C17.5737 8.22581 17.6894 8.29571 17.8533 8.28366ZM11.7053 8.93329C11.9511 8.8899 12.3658 9.08274 12.3754 8.67175C12.385 8.28004 11.9632 8.39575 11.7089 8.36441C11.2726 8.31138 10.8327 8.28607 10.3952 8.24268C10.1975 8.22339 10.0155 8.24388 9.98537 8.4765C9.95403 8.71394 10.1372 8.78263 10.3265 8.80192C10.7833 8.85254 11.2425 8.8899 11.7053 8.93329ZM15.9044 8.19206C15.2174 8.25473 14.7003 8.30294 14.1833 8.34995C13.9748 8.36923 13.7458 8.40659 13.7795 8.67296C13.8121 8.92727 14.0423 8.93691 14.252 8.9116C14.7678 8.85134 15.2825 8.78505 15.7983 8.72719C16.0153 8.70309 16.219 8.65247 16.1708 8.37887C16.125 8.12938 15.9068 8.19206 15.9044 8.19206ZM8.61258 8.16554C8.60414 8.02694 8.53424 7.93172 8.41251 7.88954C7.82795 7.68705 7.24099 7.48939 6.65524 7.28932C6.49011 7.23267 6.37682 7.31463 6.31053 7.44841C6.23219 7.60751 6.3262 7.73888 6.46239 7.7883C7.06261 8.00645 7.66765 8.21375 8.27631 8.4078C8.46433 8.46806 8.5728 8.34272 8.61258 8.16554Z" fill="#AECAF7"/>
<path d="M20.8423 8.99951C20.8423 10.0927 20.8435 11.0906 20.8411 12.0886C20.8399 12.4598 20.559 12.6551 20.3168 12.8515C19.1609 13.7892 17.7701 14.1677 16.3539 14.4702C15.4307 14.6666 14.4894 14.7353 13.5481 14.798C13.3082 14.8137 13.1226 14.8197 13.0804 14.5039C12.9201 13.2902 12.4139 12.2139 11.6582 11.1798C14.9076 11.2112 18.0376 11.0099 20.8423 8.99951ZM14.6135 13.1974C15.0257 13.1444 15.4608 13.0914 15.8947 13.0323C16.0719 13.0082 16.1996 12.9202 16.1719 12.7177C16.1442 12.5104 15.9911 12.4767 15.8188 12.4972C15.3837 12.549 14.9462 12.5912 14.5135 12.6647C14.2483 12.7093 13.7674 12.5345 13.7963 12.9552C13.8301 13.4252 14.3062 13.1372 14.6135 13.1974ZM17.8858 12.5828C18.4703 12.414 19.0898 12.1995 19.6684 11.8849C19.807 11.8102 19.8564 11.6752 19.778 11.5281C19.7021 11.3871 19.5864 11.3377 19.4297 11.4136C18.8741 11.6848 18.2968 11.8994 17.7074 12.0862C17.5869 12.1248 17.5061 12.2356 17.529 12.3646C17.5555 12.5201 17.6761 12.5888 17.8858 12.5828Z" fill="#AECAF7"/>
<path d="M20.8421 13.1304C20.8421 13.9246 20.8072 14.5887 20.8506 15.248C20.9048 16.0676 20.5252 16.628 19.8936 17.0655C18.8703 17.7742 17.7085 18.1274 16.508 18.3889C15.1738 18.6794 13.8251 18.7565 12.3896 18.7589C12.8971 17.7128 13.1658 16.6799 13.1526 15.5843C13.1478 15.1986 13.4515 15.3408 13.6335 15.3324C15.181 15.2577 16.7033 15.0383 18.1797 14.5598C19.1138 14.2561 19.9876 13.827 20.8421 13.1304ZM17.9218 16.892C18.4774 16.7148 19.1042 16.5172 19.6779 16.1881C19.8213 16.1062 19.8466 15.9712 19.7707 15.8277C19.6899 15.6723 19.5489 15.6578 19.4127 15.7277C18.88 16.0049 18.3147 16.1966 17.7482 16.387C17.5964 16.4376 17.4951 16.5413 17.5289 16.6943C17.5614 16.8414 17.6856 16.9197 17.9218 16.892ZM14.5109 17.5067C14.5121 17.5127 14.5121 17.5187 14.5133 17.5235C14.9677 17.4669 15.4233 17.4163 15.8765 17.3524C16.0404 17.3295 16.1971 17.256 16.1754 17.0499C16.1501 16.8136 15.9801 16.7823 15.78 16.8064C15.2268 16.8739 14.6724 16.9402 14.118 16.9981C13.9432 17.0161 13.7841 17.0595 13.7781 17.2548C13.7709 17.4994 13.9613 17.5272 14.1529 17.5235C14.2723 17.5211 14.3916 17.5127 14.5109 17.5067Z" fill="#AECAF7"/>
<path d="M5.83596 19.811C5.56116 19.8266 5.3623 19.6977 5.17066 19.5458C4.2402 18.8166 3.30612 18.0923 2.37928 17.3595C1.9502 17.0196 1.89958 16.5327 2.22862 16.0988C2.56971 15.6504 2.98432 15.6046 3.47004 15.9758C3.97866 16.3651 4.49451 16.7484 4.98023 17.1654C5.35989 17.4921 5.57563 17.4366 5.79016 16.9883C6.53984 15.4202 7.31 13.8618 8.07654 12.301C8.37786 11.6875 8.80573 11.5429 9.38907 11.8442C9.86756 12.0913 9.96036 12.4227 9.68677 12.994C8.78885 14.8682 7.88491 16.7388 6.98217 18.6105C6.852 18.8805 6.72786 19.1541 6.57479 19.412C6.41087 19.6917 6.15295 19.8339 5.83596 19.811Z" fill="#F9F9F9"/>
<path d="M17.8537 8.28408C17.6897 8.29613 17.574 8.22502 17.5319 8.07436C17.4848 7.90442 17.6054 7.79836 17.738 7.75858C18.3129 7.58623 18.8661 7.36326 19.4096 7.11136C19.5531 7.04507 19.6869 7.0511 19.7724 7.19693C19.8568 7.33915 19.8194 7.48861 19.6844 7.56333C19.1059 7.88393 18.4804 8.08883 17.8537 8.28408Z" fill="white"/>
<path d="M11.7051 8.93341C11.2411 8.89002 10.7831 8.85145 10.3251 8.80204C10.1359 8.78155 9.95265 8.71285 9.98399 8.47662C10.0141 8.244 10.1961 8.22231 10.3938 8.2428C10.8313 8.28619 11.2712 8.31029 11.7075 8.36453C11.963 8.39586 12.3837 8.28016 12.374 8.67187C12.3656 9.08407 11.951 8.89123 11.7051 8.93341Z" fill="white"/>
<path d="M15.9048 8.19207C15.9084 8.19207 16.1254 8.12939 16.17 8.37888C16.2182 8.65127 16.0145 8.70189 15.7975 8.7272C15.2817 8.78506 14.767 8.85134 14.2512 8.91161C14.0415 8.93571 13.8113 8.92728 13.7787 8.67297C13.745 8.4066 13.974 8.36924 14.1825 8.34996C14.6995 8.30295 15.2166 8.25474 15.9048 8.19207Z" fill="white"/>
<path d="M8.61275 8.16567C8.57297 8.34284 8.4645 8.46819 8.27648 8.40913C7.66783 8.21508 7.06399 8.00778 6.46256 7.78962C6.32637 7.74021 6.23236 7.60884 6.3107 7.44974C6.37699 7.31596 6.49029 7.234 6.65541 7.29065C7.24116 7.49072 7.82812 7.68838 8.41268 7.89087C8.53441 7.93185 8.60431 8.02706 8.61275 8.16567Z" fill="white"/>
<path d="M14.6132 13.1974C14.3059 13.1371 13.8298 13.4264 13.7972 12.9539C13.7671 12.5345 14.2492 12.708 14.5144 12.6634C14.9471 12.5911 15.3834 12.5477 15.8197 12.4959C15.9932 12.4754 16.1463 12.5092 16.1728 12.7165C16.1993 12.919 16.0728 13.0069 15.8956 13.031C15.4605 13.0913 15.0254 13.1443 14.6132 13.1974Z" fill="white"/>
<path d="M17.886 12.5828C17.6763 12.59 17.557 12.5201 17.5292 12.3646C17.5063 12.2357 17.5883 12.1236 17.7076 12.0862C18.297 11.9006 18.8743 11.6849 19.4299 11.4137C19.5866 11.3377 19.7035 11.386 19.7783 11.5282C19.8566 11.6764 19.8072 11.8102 19.6686 11.8849C19.0888 12.1995 18.4705 12.414 17.886 12.5828Z" fill="white"/>
<path d="M17.9225 16.8917C17.685 16.9194 17.5609 16.8411 17.5295 16.6952C17.497 16.5421 17.5982 16.4397 17.7489 16.3879C18.3154 16.1962 18.8806 16.0058 19.4134 15.7286C19.5496 15.6575 19.6906 15.6732 19.7713 15.8286C19.846 15.9721 19.8219 16.107 19.6785 16.189C19.1048 16.5168 18.4793 16.7145 17.9225 16.8917Z" fill="white"/>
<path d="M14.5113 17.5063C14.392 17.5124 14.2727 17.5208 14.1534 17.5232C13.9617 17.5268 13.7713 17.4991 13.7785 17.2544C13.7845 17.0592 13.9436 17.0158 14.1184 16.9977C14.6728 16.9399 15.226 16.8724 15.7805 16.8061C15.9805 16.782 16.1505 16.8133 16.1758 17.0495C16.1987 17.2556 16.042 17.3292 15.8769 17.3521C15.4237 17.4171 14.9681 17.4678 14.5137 17.5232C14.5125 17.5184 14.5113 17.5124 14.5113 17.5063Z" fill="white"/>
</g>
<defs>
<clipPath id="clip0_94_70">
<rect width="20.4641" height="21.4693" fill="white" transform="translate(0.392578)"/>
</clipPath>
</defs>
</svg>
