<svg width="18" height="20" viewBox="0 0 18 20" fill="none" xmlns="http://www.w3.org/2000/svg">
<path d="M9.01839 0C9.02288 0.0299376 9.04347 0.0370478 9.07004 0.04079C9.747 0.136216 10.1186 0.560956 10.119 1.24353C10.1197 4.12503 10.119 7.00616 10.1205 9.88765C10.1205 9.96025 10.0831 10.0658 10.1426 10.0991C10.2204 10.1429 10.2791 10.0411 10.3394 9.9958C11.1522 9.38582 11.9616 8.77098 12.7744 8.16137C13.1423 7.88557 13.5435 7.81185 13.9686 8.01543C14.3686 8.20665 14.5849 8.53784 14.6107 8.9753C14.6358 9.40154 14.4345 9.72674 14.0984 9.97821C12.9256 10.8565 11.7543 11.7363 10.5826 12.6161C10.2934 12.8331 10.0056 13.0521 9.71519 13.2676C9.26837 13.5995 8.78189 13.6235 8.32609 13.3043C6.84043 12.264 5.35852 11.2176 3.88035 10.1661C3.41594 9.83564 3.26737 9.30911 3.46833 8.81139C3.6618 8.33127 4.1322 8.06221 4.67182 8.12133C4.88438 8.14453 5.06064 8.25044 5.22979 8.36869C6.03735 8.93227 6.84305 9.49846 7.65099 10.0617C7.71498 10.1062 7.77074 10.1691 7.85831 10.181C7.90022 10.1088 7.87927 10.0325 7.87927 9.96063C7.88039 7.07314 7.88039 4.18566 7.88039 1.29817C7.88039 0.563576 8.18538 0.191975 8.91099 0.0381705C8.92409 0.0355509 8.9327 0.0134719 8.94355 0.000748441C8.96862 0 8.99332 0 9.01839 0Z" fill="#1164E9"/>
<path d="M0 15.5302C0.0673597 15.5212 0.0617464 15.4595 0.0767152 15.4168C0.263451 14.8929 0.740208 14.5969 1.28994 14.6654C1.81459 14.7305 2.21202 15.1477 2.24719 15.6986C2.26852 16.0339 2.26291 16.3714 2.25767 16.7079C2.25543 16.8467 2.28274 16.9017 2.44029 16.9013C6.81119 16.8968 11.1825 16.8968 15.5533 16.9006C15.7004 16.9006 15.7457 16.8624 15.7427 16.7131C15.7356 16.358 15.7315 16.0017 15.7554 15.6477C15.7899 15.138 16.2097 14.7245 16.7224 14.6635C17.2504 14.6006 17.744 14.9037 17.9173 15.3936C17.9383 15.4531 17.9285 15.5306 18 15.5672C18 15.617 18 15.6671 18 15.7169C17.9506 15.7427 17.9611 15.7895 17.9611 15.8314C17.9615 16.4893 17.9615 17.1472 17.963 17.8051C17.963 17.8593 17.9506 17.9185 18 17.9619C18 18.0618 18 18.1613 18 18.2612C17.927 18.2867 17.9383 18.3604 17.918 18.4132C17.8032 18.7126 17.5951 18.9214 17.3092 19.058C17.2295 19.0961 17.1311 19.0898 17.0648 19.1594C16.9526 19.1594 16.8403 19.1594 16.728 19.1594C16.673 19.0984 16.5997 19.1216 16.5346 19.1216C11.5118 19.1205 6.48898 19.1205 1.46657 19.1216C1.40108 19.1216 1.32773 19.0984 1.2731 19.1594C1.14848 19.1594 1.02349 19.1594 0.898877 19.1594C0.462911 18.9966 0.167277 18.6935 0.000748441 18.2612C0.000748441 18.1116 0.000748441 17.9619 0.000748441 17.8122C0.050894 17.7774 0.0389189 17.7242 0.0392931 17.6763C0.0400416 17.0615 0.0400416 16.4463 0.0396674 15.8314C0.0396674 15.7891 0.0501455 15.7424 0.000748441 15.7165C1.39408e-10 15.6548 0 15.5927 0 15.5302Z" fill="#7CAAF3"/>
</svg>
