<svg width="20" height="19" viewBox="0 0 20 19" fill="none" xmlns="http://www.w3.org/2000/svg">
<path d="M1.76729 0.309559C1.9285 0.243424 2.09004 0.17729 2.25125 0.111155C2.42244 0.0856652 2.59363 0.0601757 2.76448 0.0346862C2.77723 0.0257305 2.78963 0.0167747 2.80237 0.00781894C3.04762 0.00678558 3.29253 0.00506332 3.53778 0.00506332C6.38364 0.00471887 9.22951 0.00368551 12.0754 0.00575222C12.7753 0.00644113 13.479 -0.04316 14.1679 0.136989C14.3157 0.196923 14.4635 0.256514 14.6112 0.316104C14.7504 0.397739 14.8896 0.479719 15.0287 0.561354C15.0601 0.612678 15.0962 0.657801 15.1631 0.661245C15.4576 0.940596 15.7466 1.22408 15.9439 1.58541C15.9463 1.58954 15.9536 1.59127 15.9584 1.59402C16.1024 1.92814 16.2295 2.26777 16.3018 2.62566C16.3411 3.10961 16.3411 3.5946 16.3397 4.07994C16.3373 4.94865 16.3394 5.81701 16.339 6.68572C16.3387 7.20136 16.3376 7.71735 16.3366 8.233C16.2863 8.27365 16.309 8.32807 16.3097 8.37801C16.3108 8.50925 16.276 8.63463 16.2522 8.76242C16.1809 9.14649 15.9973 9.48302 15.8141 9.82024C15.8048 9.82954 15.7958 9.83884 15.7865 9.84779C15.739 9.88465 15.7021 9.92633 15.7162 9.99281L15.7159 9.98971C15.5581 10.0634 15.4948 10.2329 15.3666 10.3366C15.3573 10.3459 15.348 10.3552 15.3387 10.3645C15.3043 10.3896 15.2702 10.4144 15.2357 10.4396C15.212 10.462 15.1885 10.4847 15.1648 10.5071C14.5637 10.9583 13.8917 11.1915 13.1359 11.1705C12.9637 11.1705 12.7912 11.1705 12.6189 11.1705C12.4467 11.1705 12.2745 11.1705 12.1026 11.1705C11.9304 11.1705 11.7581 11.1705 11.5856 11.1705C11.4133 11.1705 11.2411 11.1705 11.0692 11.1705C10.9304 11.1705 10.7919 11.1701 10.6531 11.1701C10.4478 11.1701 10.2422 11.1701 10.0369 11.1705C9.86365 11.1705 9.69073 11.1705 9.51782 11.1705C9.34663 11.1705 9.17509 11.1705 9.00389 11.1705C8.83098 11.1705 8.65772 11.1705 8.4848 11.1705C8.41591 11.2253 8.34702 11.2804 8.27779 11.3351C8.181 11.4588 8.07181 11.569 7.93299 11.6458C7.85549 11.7185 7.75319 11.7698 7.72425 11.8852H7.72735C7.70565 11.888 7.68395 11.8907 7.66225 11.8935C7.60748 11.9045 7.58199 11.949 7.55237 11.9889C7.53963 12.001 7.52654 12.0127 7.51379 12.0247C7.49313 12.0454 7.47211 12.0664 7.45145 12.0871C7.32848 12.1842 7.19827 12.2734 7.10562 12.4036L7.10734 12.4023C7.06049 12.436 6.99849 12.4494 6.96956 12.5066C6.94579 12.5294 6.92202 12.5517 6.89826 12.5745C6.77046 12.6899 6.64267 12.8049 6.51488 12.9203C6.4825 12.9527 6.45012 12.9847 6.41809 13.0171C6.2376 13.1225 6.11532 13.2947 5.9548 13.4232C5.19149 14.1059 4.42819 14.7886 3.66522 15.4713C3.54983 15.5251 3.50368 15.6735 3.34936 15.7083C3.34936 14.6209 3.34936 13.5489 3.34936 12.4773C3.35108 12.1966 3.35591 11.9159 3.35246 11.6352C3.35143 11.5473 3.38519 11.4529 3.32318 11.3713C3.36383 11.1664 3.36383 11.1667 3.16611 11.1664C3.01214 11.166 2.85817 11.1639 2.7042 11.1629C2.5647 11.1312 2.42485 11.0995 2.28535 11.0675C2.11381 11.0072 1.94227 10.9473 1.77074 10.887C1.74559 10.8484 1.70357 10.8388 1.66396 10.826C1.52721 10.743 1.3908 10.66 1.25406 10.577C1.16071 10.4868 1.06461 10.4 0.949906 10.3373C0.891004 10.2684 0.832103 10.1995 0.773202 10.1306C0.687088 10.0459 0.638176 9.92908 0.53794 9.85675C0.350903 9.51574 0.156976 9.17749 0.077063 8.78998C0.0539847 8.61672 0.0309064 8.44346 0.00817248 8.27055C0.00817248 8.24781 0.00817248 8.22542 0.00817248 8.20269C0.00989475 8.1338 0.0136837 8.06525 0.0133393 7.99636C0.00713913 6.81868 0.0133393 5.641 0.0036946 4.46331C-0.00250554 3.95352 -0.000438829 3.44304 0.00645022 2.93325C0.0205728 2.77239 0.0350398 2.61154 0.0491623 2.45102C0.0922189 2.32426 0.13562 2.19716 0.178676 2.0704C0.204166 1.99083 0.229655 1.91126 0.255145 1.83169C0.316802 1.7597 0.352281 1.67394 0.385348 1.58679C0.478006 1.38873 0.658843 1.24785 0.738756 1.04152L0.742201 1.04497C0.905471 0.967464 0.993307 0.804193 1.13247 0.699135C1.33156 0.548609 1.54236 0.417373 1.76729 0.309559ZM10.1416 5.66476C10.1072 6.08878 10.1867 6.50936 10.3855 6.8948C10.897 7.88579 12.0936 8.13759 13.0133 7.758C13.2775 7.64915 13.2744 7.64123 13.4804 7.83929C13.7653 8.11313 13.7653 8.11313 14.0388 7.83344C14.2358 7.63228 14.2354 7.63262 14.0332 7.42974C13.9444 7.34052 13.8197 7.2613 13.7846 7.15349C13.7639 7.08976 13.8862 6.97919 13.944 6.88998C13.9471 6.88516 13.9502 6.88034 13.9526 6.87517C14.2637 6.23931 14.3067 5.57417 14.1455 4.8956C13.9988 4.278 13.6351 3.82229 13.0498 3.56188C12.6616 3.38896 12.2548 3.35004 11.8329 3.41239C11.1423 3.51469 10.6449 3.87774 10.3469 4.50361C10.1761 4.8646 10.1161 5.25245 10.1416 5.66476ZM9.26947 7.82104C9.37866 7.82104 9.48854 7.81174 9.59635 7.8231C9.75687 7.84032 9.75411 7.77729 9.70899 7.65329C9.51506 7.11973 9.32837 6.58307 9.13892 6.04779C8.85302 5.23936 8.56506 4.43128 8.28364 3.62147C8.25471 3.53811 8.21441 3.51572 8.13587 3.51676C7.94091 3.51951 7.74561 3.51779 7.5503 3.51779C7.22445 3.51779 7.22135 3.51676 7.11354 3.82056C6.65576 5.10951 6.20212 6.40017 5.7409 7.68808C5.69577 7.81449 5.744 7.82276 5.84285 7.82172C6.05538 7.81966 6.26791 7.8138 6.47975 7.82379C6.60719 7.82965 6.66541 7.78005 6.69675 7.66121C6.74773 7.46969 6.81731 7.28335 6.86829 7.09183C6.90136 6.96748 6.96232 6.92133 7.09597 6.9258C7.417 6.93648 7.73872 6.92856 8.06009 6.92959C8.20339 6.92994 8.37286 6.88791 8.48205 6.94991C8.59227 7.01261 8.58022 7.20137 8.62465 7.33398C8.6281 7.34466 8.63258 7.35534 8.63636 7.36601C8.79137 7.82103 8.79137 7.82104 9.26947 7.82104ZM2.35699 5.66132C2.35699 6.31543 2.36216 6.96955 2.35321 7.62332C2.35079 7.78762 2.40591 7.83447 2.56125 7.82379C2.73245 7.81208 2.90605 7.81208 3.07724 7.82379C3.23259 7.83447 3.28908 7.78797 3.28529 7.62332C3.27462 7.17036 3.28013 6.71706 3.28219 6.26377C3.28323 5.99681 3.24913 6.0316 3.524 6.03057C4.01174 6.02885 4.49949 6.0254 4.98689 6.03333C5.11916 6.03539 5.15739 5.9944 5.14775 5.86764C5.13707 5.7309 5.13638 5.59174 5.14775 5.45499C5.1598 5.31583 5.12054 5.26795 4.97173 5.27071C4.46126 5.28035 3.95043 5.26968 3.43995 5.2776C3.30837 5.27966 3.27324 5.23971 3.27875 5.11261C3.28874 4.8894 3.29115 4.66482 3.27806 4.44161C3.26979 4.29832 3.32456 4.27249 3.45373 4.27386C4.06169 4.28006 4.66999 4.27386 5.27795 4.27903C5.39059 4.28006 5.42917 4.24768 5.42262 4.13436C5.41367 3.98005 5.41263 3.82401 5.42297 3.67004C5.43158 3.54431 5.38198 3.51848 5.26555 3.51882C4.35344 3.52296 3.44133 3.52365 2.52922 3.51848C2.38972 3.51779 2.35389 3.56774 2.35493 3.69932C2.35975 4.35343 2.35699 5.00755 2.35699 5.66132Z" fill="#7CAAF3"/>
<path d="M15.2696 18.4997C15.1959 18.6578 15.2668 18.8266 15.2275 18.9999C15.1239 18.9489 15.0533 18.8593 14.9826 18.7777C14.6675 18.4143 14.3175 18.085 13.9786 17.7454C13.8783 17.6448 13.8136 17.5108 13.6854 17.4374C13.3296 17.0692 12.9741 16.701 12.6183 16.3331C12.516 16.2046 12.4006 16.0892 12.2756 15.9831C12.2415 15.9273 12.1964 15.8822 12.1406 15.8481C12.0331 15.7341 11.9256 15.6197 11.8182 15.5057C11.6545 15.3039 11.4665 15.1258 11.2767 14.9491C11.2305 14.8823 11.1747 14.8254 11.1072 14.7803C11.0111 14.6777 10.9153 14.575 10.8192 14.4724C10.7249 14.3528 10.6381 14.1854 10.4896 14.1713C10.1465 14.1382 9.79932 14.1272 9.45349 14.1596C9.43041 14.1262 9.39493 14.1283 9.36083 14.1283C9.08011 14.1293 8.79938 14.1307 8.51865 14.132C8.32265 14.1327 8.12666 14.1334 7.93067 14.1341C7.66199 14.1341 7.39332 14.1341 7.11328 14.1341C7.14532 14.0456 7.21868 14.027 7.21455 13.9588L7.21214 13.9602C7.22316 13.9591 7.23453 13.9581 7.24555 13.9571C7.34303 13.903 7.37782 13.7941 7.45257 13.7201C7.54626 13.6264 7.6396 13.533 7.7333 13.4397C7.82182 13.3698 7.90311 13.2923 7.9689 13.2C8.07396 13.1207 8.16179 13.0243 8.24515 12.9237C8.34849 12.8428 8.4408 12.7508 8.5214 12.6475C8.59167 12.5672 8.66194 12.4866 8.73255 12.4063C8.83485 12.3285 8.92166 12.2348 9.00329 12.1363C9.10387 12.0099 9.23476 11.9668 9.39287 11.9871C9.43455 11.9927 9.48518 12.004 9.51894 11.9592C10.0353 11.9899 10.5513 11.9892 11.0676 11.9596C11.2402 12.0085 11.4131 12.0085 11.5857 11.9596C11.8798 11.9699 12.174 11.983 12.4681 11.9896C12.6221 11.993 12.774 11.9575 12.9301 11.9703C13.2752 11.9985 13.6203 11.9992 13.9644 11.9517C14.1825 11.9751 14.3978 11.9472 14.613 11.9179C14.6258 11.909 14.6382 11.9 14.6509 11.891C14.8552 11.8817 15.0443 11.8128 15.2334 11.745C15.4077 11.6937 15.5758 11.6289 15.7191 11.5121C15.8183 11.4987 15.8844 11.4271 15.9609 11.3737C16.0608 11.3041 16.1676 11.2424 16.2365 11.1367C16.336 11.0502 16.4335 10.9617 16.513 10.8556C16.7586 10.569 16.9302 10.2411 17.0566 9.8877C17.1265 9.71169 17.1827 9.53223 17.2026 9.34278C17.2612 9.17297 17.2853 8.99902 17.2633 8.8199C17.266 8.62563 17.2688 8.4317 17.2712 8.23743C17.2753 8.06383 17.3387 7.89057 17.2715 7.71696C17.2788 7.6901 17.2919 7.66323 17.2919 7.63636C17.2963 6.98018 17.3008 6.32365 17.3018 5.66747C17.3032 4.87213 17.3008 4.07679 17.3032 3.28145C17.3032 3.23116 17.2591 3.1447 17.3704 3.1416C17.4892 3.23116 17.6043 3.32657 17.7452 3.38237C17.8289 3.4988 17.9625 3.55873 18.0586 3.66138C18.1154 3.73992 18.183 3.80777 18.2615 3.86426C18.3431 3.96863 18.4244 4.073 18.506 4.17771C18.68 4.4736 18.8302 4.78085 18.949 5.10326C18.979 5.31062 19.0561 5.50902 19.0644 5.72017C19.0606 5.75979 19.0486 5.80146 19.0909 5.83005C19.0916 7.57849 19.0968 9.32659 19.0882 11.075C19.0871 11.3044 19.0489 11.5369 19.0048 11.7667C18.9266 12.1721 18.7382 12.5248 18.5222 12.8679C18.4113 12.9774 18.3004 13.087 18.1892 13.1962C18.1802 13.2051 18.1712 13.2141 18.1619 13.2234C17.7589 13.5437 17.3039 13.758 16.8051 13.8768C16.3832 13.9774 15.9557 14.0418 15.5193 14.0256C15.4673 14.0235 15.3922 13.9932 15.3894 14.0986C15.3767 14.5798 15.3609 15.0614 15.346 15.5426C15.3426 15.8161 15.3392 16.0892 15.3361 16.3627C15.2765 16.4278 15.3126 16.5046 15.3092 16.5766C15.3068 16.8498 15.304 17.1229 15.3016 17.3961C15.2379 17.4849 15.2803 17.5841 15.2747 17.6789C15.2737 17.9524 15.2716 18.2259 15.2696 18.4997Z" fill="#1164E9"/>
</svg>
