<svg width="21" height="21" viewBox="0 0 21 21" fill="none" xmlns="http://www.w3.org/2000/svg">
<path d="M11.2916 0C11.5252 0.168967 11.8124 0.114491 12.0718 0.1782C13.3386 0.488434 14.3792 1.11906 15.2702 2.09408C16.0624 2.962 16.5305 3.95826 16.8666 5.04962C16.9414 5.29337 17.0032 5.48173 17.3744 5.48265C17.7484 5.48265 17.9524 5.85936 18.1084 6.19268C18.0309 6.26193 18.0327 6.35518 18.0327 6.44752C18.0327 7.65983 18.0327 8.87122 18.0327 10.0835C18.0327 10.1759 18.0327 10.2691 18.1103 10.3374C18.0096 10.7215 17.74 10.9367 17.3818 11.0622C17.3449 11.0161 17.3172 11.0272 17.2941 11.0752C16.8961 11.1555 16.4973 11.1306 16.0975 11.0964C16.0707 11.0613 16.043 11.0262 16.0162 10.9921C16.0107 9.42429 15.958 7.85373 16.0171 6.28778C16.0596 5.16318 15.682 4.21494 15.0938 3.3147C14.0523 1.71921 12.5418 0.975022 10.6665 0.926086C8.8282 0.876227 7.15607 1.32958 5.85142 2.70162C4.99736 3.59909 4.53108 4.67752 4.54678 5.948C4.56525 7.37822 4.59295 8.81028 4.53755 10.2377C4.49507 11.3272 5.34268 12.6125 6.44973 13.0437C6.96771 13.245 7.38782 13.3465 7.81347 12.8664C8.06 12.5885 8.4561 12.594 8.81527 12.5756C9.34248 12.5479 9.85677 12.5497 10.3249 12.8563C10.9703 13.2801 10.9694 13.8571 10.311 14.2698C9.49575 14.7804 8.31668 14.7057 7.60757 14.088C7.50878 14.0021 7.42014 13.9513 7.28626 13.9467C5.64183 13.8941 4.64096 12.9477 4.00479 11.5341C3.88384 11.2654 3.78504 11.126 3.4665 11.1121C2.96976 11.0909 2.59766 10.8407 2.44531 10.3347C2.54595 10.235 2.51825 10.1066 2.51825 9.98751C2.5201 8.8389 2.5201 7.68938 2.51825 6.54077C2.51825 6.42074 2.54595 6.29332 2.44531 6.19268C2.58566 5.82058 2.77586 5.53159 3.24306 5.51681C3.52559 5.50758 3.66778 5.31645 3.71949 5.00807C4.13221 2.5502 6.26322 0.539217 8.70724 0.201283C8.92884 0.170813 9.28708 0.3564 9.44405 0.000923316C10.0608 0 10.6767 0 11.2916 0Z" fill="#1164E9"/>
<path d="M12.3066 20.9595C12.9687 19.1996 13.6261 17.438 14.2936 15.68C14.6186 14.8259 14.6057 14.8674 15.3979 15.2922C16.3877 15.8221 17.396 16.3235 18.4855 16.6356C19.1032 16.8129 19.6627 17.1222 20.129 17.5691C20.4023 17.8313 20.3349 18.2505 20.5232 18.5579C20.5232 18.6198 20.5232 18.6807 20.5232 18.7426C20.3524 18.8968 20.4078 19.0501 20.5232 19.2043C20.5232 19.5117 20.5232 19.8201 20.5232 20.1276C20.4928 20.195 20.4291 20.267 20.4383 20.3279C20.5048 20.7868 20.297 20.8801 19.8686 20.8755C17.5834 20.8542 15.2982 20.8635 13.0139 20.869C12.8385 20.869 12.6427 20.7988 12.4913 20.9576C12.4304 20.9595 12.3685 20.9595 12.3066 20.9595Z" fill="#7CAAF3"/>
<path d="M0.110197 19.0148C0.0806509 18.1257 0.526613 17.5994 1.34559 17.3058C2.88569 16.7527 4.38146 16.0981 5.77289 15.2255C5.9354 15.124 6.05266 15.1009 6.12745 15.3077C6.81624 17.1977 7.62876 19.0416 8.24553 20.9593C5.68887 20.9593 3.13221 20.9436 0.576472 20.9732C0.0991172 20.9787 -0.0735429 20.8707 0.0280219 20.4053C0.189602 20.1764 0.0871141 19.9178 0.107427 19.6741C0.275471 19.4552 0.270854 19.2355 0.110197 19.0148Z" fill="#7CAAF3"/>
<path d="M11.6633 16.2491C11.7852 16.6498 11.7676 17.0524 11.6772 17.4559C11.5996 17.4919 11.5719 17.5574 11.5701 17.6377C11.5248 17.6756 11.4786 17.7449 11.4334 17.7449C10.7917 17.7439 10.9505 18.1483 11.0234 18.5251C11.1804 19.3348 11.3263 20.1464 11.4768 20.958C10.6763 20.958 9.87669 20.958 9.07617 20.958C9.15927 20.0864 9.4021 19.2452 9.55445 18.3866C9.61262 18.0579 9.7465 17.7495 9.20544 17.7818C9.13619 17.7855 9.05955 17.683 8.98661 17.6294C8.98292 17.1327 8.9783 16.635 8.97461 16.1383C9.01801 16.0589 9.07802 16.0016 9.17312 15.9906C9.21098 16.0386 9.23868 16.0256 9.25991 15.9758C9.93763 15.9278 10.6144 15.9315 11.2921 15.9739C11.3244 16.0515 11.3955 16.058 11.4639 16.069L11.4731 16.0727C11.5073 16.0995 11.5405 16.1272 11.5747 16.154H11.571C11.6014 16.1854 11.6319 16.2177 11.6633 16.2491Z" fill="#1164E9"/>
<path d="M12.4922 20.959C12.6436 20.7992 12.8403 20.8703 13.0148 20.8703C15.3 20.8657 17.5852 20.8556 19.8695 20.8768C20.2979 20.8805 20.5066 20.7872 20.4392 20.3293C20.4299 20.2674 20.4936 20.1954 20.5241 20.1289C20.5241 20.4059 20.6321 20.7909 20.4936 20.9294C20.3551 21.0679 19.971 20.959 19.6941 20.959C17.2934 20.959 14.8928 20.959 12.4922 20.959Z" fill="#7CAAF3"/>
<path d="M0.110442 19.0146C0.271099 19.2353 0.275716 19.4541 0.106749 19.673C0.0808961 19.6702 0.0541199 19.6684 0.0273438 19.6656C0.0273438 19.4505 0.0273438 19.2344 0.0273438 19.0193C0.0550432 19.0202 0.0827427 19.0183 0.110442 19.0146Z" fill="#7CAAF3"/>
<path d="M0.0273438 19.6665C0.0541199 19.6684 0.0799728 19.6711 0.106749 19.6739C0.086436 19.9186 0.189847 20.1762 0.0273438 20.4052C0.0273438 20.1586 0.0273438 19.913 0.0273438 19.6665Z" fill="#7CAAF3"/>
<path d="M20.5243 19.2043C20.4089 19.0501 20.3535 18.8969 20.5243 18.7427C20.5243 18.8969 20.5243 19.0501 20.5243 19.2043Z" fill="#7CAAF3"/>
<path d="M10.4952 15.2265C10.5256 15.0233 10.6946 14.967 10.8248 14.8728C11.8931 14.0982 11.8737 12.8822 10.7398 12.2072C9.61985 11.5406 8.46293 11.536 7.35311 12.2552C7.10658 12.415 7.03364 12.3614 6.91638 12.1435C6.62369 11.596 6.30884 11.0761 5.90073 10.5859C5.20917 9.75488 5.05405 8.7023 5.12976 7.63126C5.14269 7.45398 5.15008 7.19453 5.30519 7.12528C5.75762 6.924 5.60804 6.56113 5.60527 6.23428C5.58311 4.01832 7.10474 2.26494 9.29669 1.92516C10.8682 1.68141 12.2993 1.98887 13.531 2.98051C14.6085 3.84751 14.9871 5.06167 14.9455 6.4134C14.9363 6.71071 14.8929 6.96647 15.2308 7.13821C15.4358 7.24254 15.4294 7.51861 15.4303 7.72266C15.4386 8.96268 15.1819 10.0725 14.2752 11.0466C13.7471 11.6144 13.3039 12.3817 13.2069 13.1905C13.0924 14.1462 12.5902 14.6937 11.7499 15.0076C11.3538 15.1563 10.943 15.2892 10.4952 15.2265Z" fill="#7CAAF3"/>
<path d="M2.44601 6.19238C2.54665 6.2921 2.51895 6.42044 2.51895 6.54047C2.52079 7.68908 2.52079 8.83861 2.51895 9.98721C2.51895 10.1072 2.54665 10.2356 2.44601 10.3344C2.3943 8.9531 2.3943 7.57274 2.44601 6.19238Z" fill="#1164E9"/>
<path d="M18.1098 10.3367C18.0322 10.2683 18.0322 10.1751 18.0322 10.0827C18.0322 8.87043 18.0322 7.65904 18.0322 6.44673C18.0322 6.3544 18.0313 6.26114 18.1079 6.19189C18.1643 7.5741 18.1606 8.95538 18.1098 10.3367Z" fill="#1164E9"/>
<path d="M8.97409 16.1387C8.97779 16.6354 8.9824 17.1331 8.9861 17.6298C8.71187 17.1359 8.72849 16.6382 8.97409 16.1387Z" fill="#1164E9"/>
<path d="M11.4637 16.0694C11.3954 16.0583 11.3234 16.0519 11.292 15.9743C11.3668 15.9743 11.4554 15.9494 11.4637 16.0694Z" fill="#1164E9"/>
<path d="M11.5703 17.6384C11.5722 17.5581 11.5999 17.4926 11.6774 17.4565C11.6802 17.5396 11.6599 17.6089 11.5703 17.6384Z" fill="#1164E9"/>
<path d="M16.0159 10.9902C16.0427 11.0253 16.0695 11.0604 16.0972 11.0946C16.0205 11.0992 16.0104 11.0512 16.0159 10.9902Z" fill="#1B72BF"/>
<path d="M17.2939 11.0741C17.3161 11.0261 17.3447 11.015 17.3817 11.0612L17.3392 11.0787L17.2939 11.0741Z" fill="#1B72BF"/>
<path d="M9.26062 15.9761C9.23938 16.0259 9.21168 16.0389 9.17383 15.9908C9.20245 15.9862 9.23107 15.9816 9.26062 15.9761Z" fill="#1164E9"/>
<path d="M11.5752 16.154C11.541 16.1272 11.5078 16.0995 11.4736 16.0728C11.5069 16.0995 11.541 16.1272 11.5752 16.154Z" fill="#424242"/>
<path d="M11.6636 16.2494C11.6322 16.218 11.6017 16.1857 11.5703 16.1543C11.6506 16.1386 11.6636 16.1876 11.6636 16.2494Z" fill="#1164E9"/>
</svg>
