<svg width="20" height="17" viewBox="0 0 20 17" fill="none" xmlns="http://www.w3.org/2000/svg">
<path d="M18.0107 7.53281C18.0178 7.53281 18.0251 7.53281 18.0322 7.53281C18.1532 7.53151 18.3284 7.52116 18.442 7.55438C18.449 7.55632 18.5486 7.60765 18.5715 7.61909C18.626 7.64648 18.7132 7.71033 18.7656 7.7485C18.8077 7.77913 18.9533 7.89173 18.9813 7.92106C19.0035 7.94414 19.0926 8.06428 19.1107 8.09362C19.1508 8.15811 19.1418 8.15552 19.1538 8.22304C19.175 8.34167 19.1832 8.44607 19.1754 8.56815C19.1702 8.64968 19.1538 8.79528 19.1323 8.87013C19.1267 8.88975 19.082 9.00364 19.0676 9.04268C19.0566 9.07223 19.0026 9.1102 19.0244 9.1721C17.1986 11.0763 15.2877 12.9067 13.4485 14.8016C13.3889 14.863 13.3132 14.9903 13.2653 15.039C13.184 15.1219 13.0205 15.2905 12.9418 15.3626C12.8324 15.4627 12.406 15.7526 12.2731 15.8156C12.2231 15.8393 12.0352 15.9038 11.9712 15.9234C11.8985 15.9458 11.7822 15.9432 11.7123 15.9881C11.6907 15.9877 11.6692 15.9888 11.6476 15.9881C11.4899 15.9842 11.3646 15.9993 11.1946 15.9881C11.1593 15.9857 11.1217 15.9918 11.0868 15.9881C11.0743 15.9868 11.0393 15.9711 11.0005 15.9665C10.7853 15.9413 10.5689 15.9081 10.3534 15.8803C10.2456 15.8665 10.1375 15.8511 10.0299 15.8371C9.92225 15.8231 9.81397 15.8082 9.70634 15.794C9.59871 15.7797 9.49043 15.7653 9.3828 15.7508C9.27516 15.7364 9.16689 15.7222 9.05925 15.7077C9.02453 15.7032 8.99454 15.6889 8.97297 15.6861C8.95895 15.6842 8.94385 15.6881 8.92983 15.6861C8.89532 15.6816 8.8565 15.6907 8.82199 15.6861C8.81961 15.6859 8.81573 15.6693 8.77885 15.6646C8.76483 15.6628 8.74973 15.6663 8.73571 15.6646C8.51958 15.6363 8.30647 15.5999 8.08862 15.5783C8.07438 15.577 8.05971 15.5796 8.04548 15.5783C8.04311 15.5783 8.04052 15.5591 8.00234 15.5567C7.9812 15.5554 7.95898 15.5563 7.93763 15.5567C7.91908 15.52 7.86365 15.5388 7.82978 15.5351C7.80864 15.5328 7.786 15.5377 7.76507 15.5351C7.65787 15.522 7.53083 15.5075 7.41996 15.492C7.33454 15.4801 7.24848 15.4605 7.16112 15.4489C7.02588 15.431 6.8887 15.398 6.7513 15.3842C6.69112 15.3781 6.64345 15.3632 6.57874 15.3626L5.82381 15.2332C5.71639 15.2041 5.60962 15.2012 5.50026 15.19C5.35359 15.1749 5.32727 15.1689 5.17672 15.19C5.04406 15.2088 4.98043 15.2116 4.86396 15.2979C4.42652 15.7256 3.99772 16.1658 3.55899 16.5921C3.53699 16.6134 3.51585 16.6361 3.49428 16.6568C3.375 16.7713 3.2458 16.8768 3.12652 16.992C3.07842 17.015 3.05814 16.9805 3.04132 16.9803C3.01457 16.9223 2.95202 16.8914 2.9119 16.8509C2.84784 16.7862 2.78097 16.7217 2.71778 16.6568C2.67528 16.6132 2.6302 16.5705 2.58836 16.5274C2.57455 16.5129 2.55945 16.4989 2.54522 16.4842C2.54241 16.4814 2.53314 16.4514 2.50208 16.4195C2.47339 16.39 2.44406 16.3621 2.4158 16.3332C2.36597 16.2821 2.31442 16.2327 2.26481 16.1822C2.20765 16.124 2.1492 16.0675 2.09226 16.0097C2.04221 15.959 1.99109 15.9092 1.94127 15.8587C1.88411 15.8009 1.82587 15.7437 1.76871 15.6861C1.71155 15.6285 1.65331 15.5712 1.59615 15.5136C1.54611 15.4631 1.49521 15.4128 1.44517 15.3626C1.39512 15.3123 1.34422 15.2619 1.29418 15.2116C1.2368 15.154 1.17878 15.0964 1.12162 15.039C1.07158 14.9888 1.02068 14.9383 0.970634 14.8881C0.913475 14.8305 0.855021 14.7731 0.798077 14.7155C0.748035 14.665 0.6967 14.6148 0.647089 14.5645C0.590146 14.5067 0.530829 14.4495 0.474532 14.392C0.425138 14.3413 0.371861 14.2914 0.323545 14.241C0.27113 14.1862 0.22303 14.1247 0.172557 14.0684C0.118202 14.0078 0.0707484 13.9399 0 13.8959V13.8743C0.0580224 13.8475 0.088867 13.785 0.129418 13.7449C0.194558 13.6804 0.258836 13.6154 0.323545 13.5507C0.366684 13.5078 0.409823 13.4642 0.452963 13.4213C1.37507 12.5014 2.29695 11.5359 3.23545 10.6388C3.27859 10.5974 3.32561 10.5448 3.36487 10.5094C3.39355 10.4835 3.45697 10.4328 3.49428 10.4016C3.52621 10.3746 3.53419 10.3612 3.53742 10.3584C3.54174 10.355 3.55468 10.3619 3.55899 10.3584C3.62564 10.3045 3.70761 10.2342 3.77469 10.1859C3.81179 10.1589 3.85924 10.1151 3.88254 10.0996C4.06135 9.98053 4.37389 9.81531 4.57277 9.73291C4.64934 9.7012 4.77876 9.64706 4.85317 9.62506C4.93363 9.60134 5.05636 9.60824 5.13358 9.56035C5.14803 9.56014 5.16226 9.56079 5.17672 9.56035C5.50479 9.55237 5.79684 9.47602 6.14735 9.53878C6.17129 9.5431 6.20365 9.5541 6.23363 9.56035C6.30136 9.57437 6.3954 9.60608 6.47089 9.62506C6.57831 9.65181 6.68638 9.68352 6.79444 9.71134C6.9025 9.73917 7.01014 9.76958 7.11798 9.79762C7.22583 9.82566 7.33368 9.85564 7.44153 9.8839C7.45037 9.88627 7.46569 9.90051 7.48467 9.90547C7.5483 9.92208 7.61581 9.932 7.67879 9.94861C7.82935 9.9883 7.98077 10.0381 8.13176 10.078C8.14427 10.0813 8.16239 10.0748 8.1749 10.078C8.17727 10.0787 8.1887 10.0918 8.21804 10.0996C8.2808 10.1162 8.3494 10.1261 8.41216 10.1427C8.62376 10.1986 8.84442 10.2583 9.05925 10.3153C9.16689 10.3438 9.27473 10.3731 9.3828 10.4016C9.49086 10.43 9.59828 10.4594 9.70634 10.4878C9.75768 10.5014 9.80664 10.5176 9.85733 10.531C9.92808 10.5495 10.0008 10.5767 10.073 10.5957C10.1526 10.6166 10.2313 10.6397 10.3103 10.6604C10.4313 10.6919 10.556 10.7156 10.677 10.7467C10.7848 10.7745 10.8918 10.8073 11.0005 10.833C11.0892 10.8539 11.079 10.8617 11.1731 10.8545C11.1798 10.8541 11.1942 10.8537 11.1946 10.8545C11.2151 10.8916 11.1623 10.8815 11.2378 10.8977C11.375 10.9272 11.5119 10.9695 11.6476 11.0055C11.7168 11.0239 11.7936 11.0314 11.8633 11.0487C11.8657 11.0493 11.875 11.0625 11.9064 11.0702C11.9192 11.0732 11.9369 11.0672 11.9496 11.0702C12.0654 11.0983 12.2145 11.1748 12.3378 11.1781C12.3523 11.1785 12.3665 11.1781 12.381 11.1781C12.4478 11.2016 12.5497 11.2411 12.6182 11.2428C12.632 11.2432 12.648 11.2445 12.6614 11.2428C12.6735 11.273 12.7043 11.26 12.7261 11.2644C12.7591 11.271 12.8048 11.2773 12.8339 11.2859C12.8355 11.2864 12.8402 11.3019 12.8555 11.3075C12.862 11.3099 12.871 11.3049 12.8771 11.3075C12.881 11.3092 12.8963 11.3379 12.9202 11.3291H12.9418C12.9519 11.4035 13.1049 11.4688 13.1575 11.5232C13.1629 11.5288 13.2095 11.5926 13.2222 11.6095C13.2375 11.6297 13.3456 11.7911 13.3516 11.8036C13.3738 11.8489 13.4267 12.0471 13.4379 12.1056C13.4597 12.2186 13.4685 12.3357 13.4595 12.4507C13.453 12.5329 13.423 12.677 13.3948 12.7527C13.321 12.9513 13.1344 13.142 12.9418 13.2272C12.8521 13.2669 12.7168 13.2982 12.6182 13.3135C12.5061 13.3309 12.4088 13.3374 12.2947 13.335C12.2289 13.3337 12.1655 13.3217 12.1006 13.3135C12.0801 13.2777 12.0471 13.2796 12.0143 13.2703C12.0022 13.2669 11.9834 13.2736 11.9712 13.2703C11.8491 13.2371 11.7278 13.1951 11.6045 13.1625C11.592 13.1592 11.5736 13.1657 11.5613 13.1625C11.559 13.1618 11.5473 13.1487 11.5182 13.1409C11.4554 13.1243 11.3868 13.1144 11.3241 13.0978C11.1075 13.0408 10.8957 12.9774 10.677 12.9252C10.6586 12.9209 10.631 12.9295 10.6123 12.9252C10.6082 12.9244 10.6056 12.8952 10.5476 12.8821C10.5346 12.8793 10.5169 12.8851 10.5044 12.8821C10.502 12.8814 10.4982 12.8642 10.4613 12.8605C10.4473 12.8592 10.4324 12.8605 10.4181 12.8605C10.1876 12.7762 9.94469 12.7235 9.70634 12.6664C9.62028 12.6457 9.53767 12.6081 9.44751 12.6017C9.32456 12.5484 9.18802 12.5279 9.05925 12.4938C8.84356 12.4369 8.62937 12.3735 8.41216 12.3213C8.31381 12.2975 8.1859 12.244 8.08862 12.235C7.89794 12.2173 7.8561 12.2706 7.80821 12.4507C7.70576 12.8357 8.14254 12.8508 8.41216 12.9252C8.51376 12.9533 8.61729 12.966 8.71414 12.9899C8.80581 13.0126 8.95119 13.0917 9.05925 13.0978C9.06615 13.0982 9.07392 13.0982 9.08082 13.0978C9.09074 13.1239 9.12224 13.1209 9.14553 13.1193C9.15977 13.1185 9.17465 13.1209 9.18867 13.1193C9.24346 13.1666 9.31723 13.1681 9.3828 13.1841C9.42745 13.1948 9.47576 13.1966 9.51222 13.2056C9.51459 13.2063 9.52473 13.2194 9.55535 13.2272C9.56786 13.2304 9.58598 13.224 9.59849 13.2272C9.60087 13.2278 9.61079 13.241 9.64163 13.2488C9.65414 13.252 9.67226 13.2455 9.68477 13.2488C9.79176 13.2759 9.90025 13.3072 10.0083 13.335C10.0577 13.3478 10.1088 13.3652 10.1593 13.3782C10.1791 13.3834 10.2005 13.3937 10.224 13.3998C10.2605 13.4092 10.2984 13.4127 10.3319 13.4213C10.5691 13.4828 10.8057 13.5551 11.0437 13.6154C11.0562 13.6187 11.0743 13.6122 11.0868 13.6154C11.0892 13.6161 11.0989 13.6293 11.1299 13.637C11.1424 13.6403 11.1606 13.6338 11.1731 13.637C11.1755 13.6377 11.1849 13.6508 11.2162 13.6586C11.2289 13.6616 11.2468 13.6554 11.2594 13.6586C11.3784 13.6884 11.5197 13.7636 11.6476 13.7664C11.6618 13.7667 11.6765 13.7669 11.6907 13.7664C11.7587 13.8296 11.8758 13.8124 11.9496 13.8311C12.0794 13.8639 12.1478 13.9004 12.2947 13.9174C12.4256 13.9327 12.488 13.9325 12.6182 13.9174C12.7649 13.9004 12.8096 13.8799 12.9418 13.8311C13.074 13.7824 13.0872 13.7731 13.2006 13.7017C13.2237 13.6873 13.2431 13.6741 13.2653 13.6586C13.3818 13.5771 13.445 13.532 13.5457 13.4213C13.5684 13.3963 13.5887 13.3618 13.6104 13.335C13.6797 13.2496 13.7224 13.1888 13.783 13.0978C13.9126 12.903 14.0226 12.754 14.0634 12.5154C14.0902 12.359 14.0915 12.2857 14.0634 12.1271C14.0216 11.8903 13.909 11.6798 13.783 11.4801C13.7181 11.3772 13.6583 11.312 13.5889 11.2212C13.5654 11.1906 13.536 11.172 13.5242 11.1565C13.4551 11.0668 13.3896 10.9477 13.4379 10.833C13.4429 10.8211 13.5835 10.704 13.6104 10.682C13.6765 10.6283 13.7569 10.5644 13.8261 10.5094C13.8522 10.4887 13.882 10.4689 13.9124 10.4447C14.0239 10.3561 14.1445 10.2745 14.2575 10.1859C14.4819 10.0099 14.7038 9.81919 14.9262 9.64663C14.9609 9.61967 15.0075 9.58085 15.034 9.56035C15.0785 9.52606 15.1641 9.48012 15.2282 9.43094C15.3091 9.36882 15.3854 9.29807 15.4654 9.23681C15.5004 9.21006 15.5392 9.17663 15.5733 9.15053C15.743 9.02133 15.9197 8.89105 16.091 8.76228C16.1054 8.75149 16.1302 8.73812 16.1557 8.71914C16.1641 8.71288 16.1699 8.70296 16.1772 8.69757C16.2519 8.64192 16.3373 8.58217 16.4145 8.52501C16.4527 8.49676 16.4889 8.46332 16.5224 8.43873C16.6078 8.37597 16.6979 8.305 16.7812 8.24461C16.7935 8.23576 16.812 8.2321 16.8243 8.22304C17.0256 8.07766 17.2687 7.87426 17.4714 7.7485C17.5273 7.71378 17.6509 7.64497 17.7087 7.61909C17.7523 7.59967 17.8398 7.60334 17.8812 7.55438C17.8955 7.55373 17.9101 7.55546 17.9244 7.55438C17.9451 7.55287 17.9639 7.53302 17.9675 7.53281C17.9818 7.53216 17.9962 7.53324 18.0107 7.53281Z" fill="#1164E9"/>
<path d="M15.2071 0.00504848C15.3223 0.0115194 15.4187 0.0350303 15.5306 0.0481878C15.5446 0.0499134 15.5597 0.0464622 15.5738 0.0481878C15.7172 0.0995236 15.8654 0.136623 16.0052 0.199175C16.0403 0.214921 16.0791 0.224196 16.113 0.242315C16.4096 0.401283 16.8496 0.846049 16.9974 1.14824C17.0724 1.30182 17.1438 1.60185 17.1699 1.77376C17.1906 1.91116 17.1984 2.02224 17.1915 2.16201C17.1874 2.24463 17.1848 2.33996 17.1699 2.42085C17.1363 2.60354 17.0388 2.87964 16.9542 3.04637C16.9255 3.1031 16.8613 3.21051 16.8248 3.26207C16.8047 3.29032 16.745 3.35827 16.717 3.39148C16.6654 3.45296 16.5798 3.55779 16.5228 3.60718C16.4859 3.6391 16.3802 3.67577 16.3503 3.7366C16.2929 3.75515 16.237 3.81511 16.1777 3.84445C15.9711 3.94626 15.7383 4.06252 15.5091 4.10328C15.4267 4.11795 15.2942 4.12183 15.2071 4.12485C15.0662 4.1296 14.9558 4.12162 14.8188 4.10328C14.7384 4.0925 14.6605 4.07718 14.5816 4.06014C14.5354 4.05022 14.4985 4.01614 14.4306 4.017C14.2731 3.94151 14.123 3.86515 13.9754 3.77025C13.9545 3.75687 13.9196 3.7627 13.9129 3.75817C13.9069 3.75407 13.889 3.7297 13.8698 3.71503C13.807 3.66693 13.6433 3.51572 13.5894 3.45619C13.5827 3.44886 13.5404 3.39019 13.5246 3.36991C13.4161 3.23014 13.2132 2.88546 13.158 2.72282C13.1418 2.67516 13.1021 2.47887 13.0933 2.42085C13.0788 2.32508 13.0732 2.19566 13.0717 2.0973C13.0706 2.02224 13.0648 1.93273 13.0717 1.86004C13.0846 1.72286 13.1407 1.54253 13.1795 1.40708C13.2022 1.32792 13.2438 1.24897 13.2658 1.16981C13.2708 1.15191 13.2885 1.14328 13.2874 1.1051C13.3702 1.04125 13.401 0.926073 13.4599 0.846265C13.4882 0.807871 13.5738 0.714043 13.6109 0.673708C13.6653 0.614607 13.7229 0.553565 13.7835 0.50115C13.8165 0.472678 13.9097 0.38942 13.9345 0.371733C14.0046 0.321691 14.1558 0.240589 14.2364 0.199175C14.263 0.185586 14.3057 0.174802 14.3443 0.156036C14.3665 0.145251 14.4681 0.118721 14.4737 0.112897L14.5168 0.0913271C14.5309 0.0913271 14.5464 0.0930526 14.56 0.0913271C14.6674 0.0781696 14.8253 0.016049 14.9267 0.00504848C15.005 -0.00357938 15.126 0.000518852 15.2071 0.00504848ZM14.862 0.889404C14.7125 0.952388 14.6993 0.969859 14.6031 1.08353C14.5755 1.11632 14.5296 1.12904 14.5168 1.19138C14.5153 1.19828 14.5181 1.20605 14.5168 1.21295C14.4847 1.24099 14.4826 1.28283 14.4737 1.3208C14.4709 1.33288 14.4754 1.34992 14.4737 1.36394C14.4731 1.36954 14.4524 1.38766 14.4511 1.41635C14.4332 1.78519 14.6599 1.9323 14.9482 2.07573C14.9627 2.08285 14.9769 2.09019 14.9914 2.0973C15.0632 2.13268 15.1536 2.15684 15.2071 2.18358C15.2966 2.22823 15.459 2.33737 15.5091 2.42085C15.5138 2.42883 15.5282 2.45709 15.5306 2.46399C15.5524 2.52805 15.5666 2.68292 15.5522 2.74439C15.5507 2.75043 15.494 2.84405 15.4875 2.85224C15.4219 2.93421 15.308 2.98231 15.2071 3.00323C15.1122 3.02286 14.9797 3.02135 14.8835 3.00323C14.8473 2.99633 14.6329 2.93119 14.6031 2.91695C14.5874 2.9094 14.5613 2.82593 14.4955 2.85224C14.5005 2.93011 14.4314 3.01941 14.4306 3.08951C14.4301 3.11949 14.4349 3.11647 14.4521 3.13265C14.4785 3.15724 14.5304 3.1622 14.56 3.17579C14.7034 3.24157 14.7336 3.2364 14.8835 3.26207C14.9336 3.27069 14.9812 3.2914 15.0343 3.28385C15.0367 3.31966 15.0328 3.35568 15.0343 3.39148C15.0388 3.49157 15.0311 3.59338 15.0343 3.69367H15.2718C15.2729 3.67922 15.2709 3.66477 15.2718 3.65032C15.2759 3.56469 15.2668 3.47712 15.2718 3.39148C15.2739 3.35546 15.2586 3.29809 15.2927 3.2722C15.3102 3.25905 15.4804 3.21763 15.5352 3.1911C15.5899 3.16457 15.6383 3.12769 15.6814 3.08929C15.9568 2.8462 15.9847 2.39281 15.7256 2.12836C15.5776 1.97738 15.3865 1.92906 15.2069 1.83825C15.1523 1.81064 15.0531 1.777 15.0127 1.75197C15.0045 1.74701 14.9116 1.6726 14.9049 1.6657C14.8535 1.61242 14.8031 1.52485 14.797 1.45C14.7718 1.1381 15.0684 1.07124 15.3147 1.08332C15.3583 1.08547 15.4739 1.09496 15.5088 1.10488C15.5483 1.1161 15.6605 1.20583 15.7112 1.19009L15.8125 0.945701C15.7267 0.89113 15.6298 0.864383 15.5304 0.846049C15.4858 0.837853 15.4467 0.830519 15.401 0.82448C15.3906 0.789321 15.3184 0.817577 15.3134 0.790615C15.2994 0.714259 15.338 0.481738 15.3054 0.434716C15.2791 0.396753 15.0561 0.40495 15.0561 0.446795V0.813479C14.9955 0.8495 14.9308 0.860069 14.862 0.888973V0.889404Z" fill="#1164E9"/>
<path d="M11.3245 3.56404C11.5499 3.54744 11.7744 3.58216 11.9932 3.58561C12.0143 3.58605 12.0367 3.58734 12.0579 3.58561C12.0682 3.61365 12.0989 3.60654 12.1226 3.60718C12.1437 3.60783 12.1664 3.60891 12.1873 3.60718L12.2304 3.62875C12.2371 3.63479 12.2798 3.62315 12.2951 3.62875C12.5035 3.70619 12.7257 3.77953 12.9207 3.88759C13.0762 3.97387 13.2196 4.11256 13.3736 4.18956C13.3592 4.25729 13.4068 4.22386 13.4168 4.2327C13.5293 4.33236 13.6769 4.53986 13.7834 4.62096C13.7774 4.65892 13.788 4.67208 13.8266 4.6641C13.8285 4.671 13.8242 4.67984 13.8266 4.68567C13.8527 4.75339 13.8975 4.76763 13.9129 4.79351C13.9513 4.85801 14.0108 4.94795 14.0423 5.00921C14.1368 5.19277 14.2308 5.4557 14.2795 5.6563C14.3031 5.75336 14.3317 5.88213 14.3443 5.97985C14.3568 6.07756 14.3645 6.20137 14.3658 6.30339C14.3667 6.37263 14.3712 6.45136 14.3658 6.51909C14.3572 6.62866 14.3179 6.74837 14.3035 6.856C14.2974 6.90173 14.3018 6.94789 14.3011 6.99362C14.2903 7.00785 14.2782 7.01368 14.2688 7.0359C14.2071 7.18063 14.1732 7.39136 14.107 7.53286C14.0265 7.70477 13.7401 8.10769 13.6109 8.24466C13.604 8.25199 13.5964 8.25889 13.5893 8.26623C13.5352 8.32188 13.3115 8.53412 13.2658 8.5682C13.2259 8.59797 13.0031 8.72825 12.9422 8.76233C12.887 8.79339 12.8081 8.82186 12.7481 8.84861C12.7047 8.86802 12.6133 8.92885 12.5971 8.93489C12.5475 8.95301 12.3885 8.98061 12.3167 8.9996C12.2158 9.02634 12.0704 9.07229 11.9716 9.08587C11.7481 9.11672 11.5454 9.10766 11.3245 9.08587C11.213 9.07487 11.1112 9.06582 11.001 9.04274C10.8907 9.01966 10.7846 8.98579 10.6774 8.95646C10.6052 8.93683 10.5719 8.9021 10.4833 8.89175C10.4568 8.82984 10.38 8.82898 10.3323 8.80547C10.2503 8.76492 10.1254 8.7028 10.0519 8.65448C10.018 8.63227 9.96281 8.57726 9.92247 8.54663C9.85798 8.49745 9.78853 8.45 9.72835 8.39565C9.68154 8.35337 9.59958 8.27033 9.55579 8.22309C9.512 8.17585 9.468 8.12257 9.42637 8.0721C9.39617 8.03543 9.28185 7.90947 9.27538 7.89954C9.18393 7.76085 9.03273 7.43407 8.97341 7.27402C8.94192 7.18904 8.88497 7.01433 8.86556 6.92891C8.86276 6.9164 8.86772 6.89958 8.86556 6.88577C8.86448 6.87887 8.86599 6.87132 8.86556 6.8642C8.86405 6.84047 8.87268 6.81049 8.84399 6.79949C8.84399 6.77814 8.84528 6.75614 8.84399 6.73478C8.8194 6.30706 8.80819 6.05793 8.9087 5.63473C8.93005 5.545 8.94192 5.44039 8.97341 5.35433C9.04006 5.17271 9.22556 4.84593 9.34009 4.68567C9.35584 4.66367 9.37331 4.6339 9.38323 4.62096C9.43586 4.55193 9.53573 4.44775 9.59893 4.38369C9.63624 4.34594 9.69254 4.2862 9.72835 4.25427C9.79737 4.1928 9.93132 4.09229 10.0088 4.03858C10.0172 4.03275 10.0232 4.02175 10.0303 4.01701C10.1021 3.96912 10.2842 3.85782 10.3539 3.82288C10.3955 3.80196 10.5051 3.75364 10.548 3.7366C10.5793 3.72431 10.639 3.7064 10.6774 3.69346C10.7158 3.68052 10.7512 3.68052 10.7853 3.67189C10.823 3.6624 10.8651 3.66132 10.8931 3.62875C10.9073 3.62767 10.9222 3.63026 10.9362 3.62875C11.0618 3.61516 11.2018 3.5731 11.3245 3.56404ZM11.4755 4.14642C11.4746 4.21092 11.4768 4.27606 11.4755 4.34055C11.4735 4.43028 11.4882 4.55129 11.4772 4.63304C11.471 4.68049 11.4371 4.65935 11.4108 4.68567C11.3968 4.68696 11.3814 4.68372 11.3676 4.68567C11.0486 4.7301 10.7628 5.02107 10.699 5.33276C10.694 5.35734 10.702 5.39164 10.699 5.41903C10.699 5.42054 10.6783 5.42507 10.6774 5.4406C10.6722 5.53012 10.6858 5.57649 10.699 5.6563C10.7292 5.83856 10.7339 5.85862 10.85 6.00141C10.8961 6.05836 10.9244 6.08403 10.9794 6.13083C11.2095 6.32604 11.3972 6.35257 11.648 6.47595C11.8989 6.59933 11.9533 6.6649 12.1226 6.88577C12.1545 7.02403 12.1605 7.1651 12.101 7.29559C12.0801 7.34132 12.008 7.44033 11.9716 7.46815C11.8305 7.576 11.4977 7.61957 11.3245 7.59757C11.3146 7.59627 11.263 7.58139 11.2382 7.576C11.1759 7.56263 11.0443 7.51474 10.9794 7.48972C10.935 7.47268 10.8718 7.44529 10.8284 7.42501C10.8176 7.42005 10.7967 7.35922 10.7423 7.38187C10.7361 7.41056 10.7298 7.44033 10.7206 7.46815C10.7063 7.51086 10.7074 7.55055 10.699 7.576C10.6884 7.60792 10.6002 7.68816 10.6369 7.74597C10.6638 7.78846 10.941 7.86137 11.001 7.87797C11.0096 7.88035 11.0234 7.8948 11.0441 7.89954C11.0581 7.90278 11.0661 7.92025 11.1088 7.92111C11.1226 7.92133 11.1386 7.92284 11.1519 7.92111C11.1623 7.94915 11.1929 7.94182 11.2167 7.94268C11.2516 7.94398 11.2917 7.93815 11.3245 7.94268C11.3573 7.94721 11.386 7.96037 11.4323 7.96425C11.4237 8.14285 11.4388 8.32468 11.4323 8.50371C11.504 8.50177 11.5766 8.50608 11.6483 8.50371C11.6912 8.5022 11.7348 8.505 11.7779 8.50371C11.7785 8.41765 11.7766 8.33072 11.7779 8.24466C11.7792 8.1586 11.766 8.04881 11.7762 7.97374C11.7824 7.92629 11.8163 7.94743 11.8426 7.92111C11.8571 7.92111 11.8713 7.92133 11.8857 7.92111C11.9041 7.92068 11.9226 7.9196 11.9289 7.89954C11.9414 7.90105 11.9595 7.90105 11.972 7.89954C12.2485 7.86719 12.5469 7.49317 12.5975 7.23089C12.6148 7.14137 12.6249 7.04193 12.6191 6.95048C12.6113 6.82753 12.5691 6.71214 12.5113 6.60537C12.4535 6.4986 12.4041 6.44575 12.3171 6.3681C12.2673 6.32367 12.2332 6.31266 12.1877 6.28182C12.0967 6.22013 12.0766 6.21797 11.9936 6.17397C11.8834 6.11552 11.7641 6.05944 11.6485 6.00141C11.626 5.9902 11.5995 5.98783 11.5838 5.97985C11.5283 5.95137 11.3702 5.86208 11.3249 5.82886C11.2915 5.80427 11.191 5.69491 11.1739 5.6563C11.125 5.545 11.1196 5.44966 11.1524 5.33276C11.18 5.23461 11.2294 5.19579 11.2818 5.11706C11.3411 5.12331 11.3202 5.11469 11.3249 5.07392C11.4155 5.05451 11.4278 5.0379 11.4975 5.00921C11.5169 5.00123 11.5391 4.99778 11.5622 4.98764C11.6841 5.01892 11.8124 4.99692 11.9345 5.01439C12.0529 5.03143 12.186 5.10735 12.2956 5.13863C12.3296 5.14833 12.3614 5.15739 12.3818 5.13863C12.4138 5.10929 12.4988 4.86383 12.4875 4.82954C12.4711 4.77885 12.2844 4.72277 12.2309 4.70724C12.1933 4.69645 12.1245 4.69537 12.0799 4.68567C12.0775 4.68523 12.071 4.67078 12.0367 4.6641C12.0234 4.66151 12.007 4.66668 11.9936 4.6641C11.969 4.65935 11.9487 4.64835 11.9073 4.64253C11.8732 4.63778 11.8342 4.64619 11.7992 4.64253C11.7984 4.54935 11.8008 4.4553 11.7992 4.36191C11.798 4.28296 11.8001 4.20337 11.7992 4.12442C11.749 4.12356 11.6983 4.12572 11.648 4.12442C11.5978 4.12313 11.5473 4.12529 11.4971 4.12442L11.4755 4.14599V4.14642Z" fill="#1164E9"/>
</svg>
