<svg width="18" height="20" viewBox="0 0 18 20" fill="none" xmlns="http://www.w3.org/2000/svg">
<path d="M8.98479 0C11.8331 1.33646 14.7202 2.5922 17.671 3.6922C17.76 3.76412 17.8412 4.42433 17.8619 4.58576C18.6489 10.6585 16.0624 16.676 10.1024 18.8532C9.87421 18.9365 9.214 19.19 9.01377 19.1993C8.86113 19.2066 8.08968 18.9256 7.89307 18.8532C3.82264 17.3548 1.10989 13.957 0.296011 9.71945C-0.0371979 7.98407 -0.124122 5.74837 0.217883 4.01144C0.236509 3.91675 0.24841 3.74808 0.324468 3.69168C3.26902 2.59892 6.15355 1.35301 8.98479 0ZM8.94961 1.39182C6.47693 2.56167 3.95717 3.62908 1.40584 4.61836C1.17819 6.09969 1.21233 7.65397 1.4581 9.13892C2.10796 13.0634 4.53304 16.3252 8.31993 17.6916C8.44359 17.7361 8.92374 17.9167 9.0117 17.912C9.12035 17.9063 9.56687 17.7315 9.70502 17.6808C14.923 15.7824 17.2959 10.3667 16.6667 5.04573C16.6522 4.92518 16.6382 4.6613 16.5663 4.60387C14.031 3.62753 11.5299 2.56581 9.07637 1.40217L8.95012 1.39182H8.94961Z" fill="#7CAAF3"/>
<path d="M8.94988 1.39209L9.07613 1.40244C11.5297 2.56608 14.0308 3.62831 16.5661 4.60414C16.6385 4.66157 16.6525 4.92493 16.6665 5.046C17.2956 10.3675 14.9233 15.7832 9.70477 17.681C9.56611 17.7312 9.12011 17.9066 9.01145 17.9123C8.92349 17.917 8.44386 17.7364 8.31968 17.6919C4.53279 16.3254 2.10772 13.0637 1.45786 9.13919C1.21209 7.65424 1.17846 6.09996 1.4056 4.61863C3.95744 3.62987 6.47669 2.56194 8.94936 1.39209H8.94988ZM6.2097 8.6668C6.00378 8.66836 5.7963 8.66577 5.58985 8.6668V12.0558C5.58985 12.4873 6.6764 13.5444 7.02255 13.8377C7.30919 14.0809 7.54254 14.2175 7.93163 14.2455C8.51526 14.2879 9.52523 14.2951 10.1037 14.2455C10.4638 14.2144 10.7085 14.0639 10.9745 13.8377C11.3206 13.5433 12.4072 12.4873 12.4072 12.0558V8.6668C12.2013 8.66577 11.9938 8.66836 11.7873 8.6668C11.8546 7.56318 11.7832 6.50974 10.7536 5.88575C10.0401 5.45372 8.22189 5.43406 7.47476 5.76727C6.27748 6.30123 6.11761 7.48039 6.21074 8.66629L6.2097 8.6668Z" fill="#7CAAF3"/>
<path d="M6.21018 8.66667C6.41611 8.66511 6.62359 8.6677 6.83003 8.66667C8.27515 8.65994 9.72285 8.65994 11.168 8.66667C11.3739 8.6677 11.5814 8.66511 11.7878 8.66667C11.9943 8.66822 12.2012 8.66563 12.4077 8.66667V12.0557C12.4077 12.4872 11.3216 13.5437 10.975 13.8376C10.709 14.0632 10.4643 14.2143 10.1042 14.2453C9.52571 14.295 8.51574 14.2878 7.93211 14.2453C7.54302 14.2174 7.30967 14.0808 7.02303 13.8376C6.6774 13.5437 5.59033 12.4872 5.59033 12.0557V8.66667C5.79626 8.66563 6.00374 8.66822 6.21018 8.66667ZM8.83446 9.91672C8.19754 10.0078 7.85812 10.7958 8.20633 11.3375C8.28239 11.4555 8.5561 11.6226 8.57317 11.7069C8.63836 12.037 8.18357 12.8856 8.67769 12.9963C8.78841 13.0211 9.17077 13.0206 9.28719 13.0025C9.8403 12.9151 9.32341 11.9848 9.43155 11.6749C9.44345 11.6412 9.65714 11.4881 9.71612 11.4172C10.2703 10.7456 9.68249 9.79564 8.83498 9.91672H8.83446Z" fill="#1164E9"/>
<path d="M11.7868 8.66668C11.5808 8.66513 11.3734 8.66772 11.1669 8.66668C11.2161 7.72966 11.2088 6.68709 10.1869 6.29697C9.76216 6.1345 8.40397 6.13347 7.96211 6.25558C6.8145 6.57275 6.76535 7.65671 6.82951 8.66668C6.62358 8.66772 6.4161 8.66513 6.20966 8.66668C6.11652 7.48027 6.27692 6.30111 7.47368 5.76766C8.22081 5.43446 10.039 5.45412 10.7525 5.88615C11.7821 6.50962 11.8535 7.56358 11.7862 8.6672L11.7868 8.66668Z" fill="#1164E9"/>
<path d="M11.1668 8.66667C9.72168 8.65994 8.27398 8.65994 6.82887 8.66667C6.76471 7.65669 6.81386 6.57273 7.96147 6.25556C8.40385 6.13345 9.76152 6.13449 10.1863 6.29695C11.2082 6.68707 11.2154 7.73016 11.1663 8.66667H11.1668Z" fill="#7CAAF3"/>
<path d="M8.83401 9.91677C9.68152 9.7957 10.2693 10.7457 9.71515 11.4172C9.65669 11.4881 9.44248 11.6408 9.43058 11.6749C9.32244 11.9848 9.83933 12.9157 9.28623 13.0026C9.16981 13.0212 8.78796 13.0212 8.67672 12.9964C8.1826 12.8856 8.6374 12.0371 8.57221 11.707C8.55565 11.6221 8.28143 11.4555 8.20537 11.3376C7.85664 10.7958 8.19605 10.0073 8.8335 9.91677H8.83401Z" fill="#7CAAF3"/>
</svg>
