<svg width="65" height="59" viewBox="0 0 65 59" fill="none" xmlns="http://www.w3.org/2000/svg">
<path d="M0 10.155V47.7398C0 48.6149 0.709434 49.3244 1.58462 49.3244H50.6412C51.5164 49.3244 52.2258 48.6149 52.2258 47.7398V10.155L38.7863 6.5282L0 10.155Z" fill="#B5CFF8"/>
<path d="M48.0223 5.80286V39.2029C48.0223 43.6321 44.4318 47.2226 40.0026 47.2226H0V47.7397C0 48.6148 0.709434 49.3243 1.58462 49.3243H50.6412C51.5164 49.3243 52.2258 48.6148 52.2258 47.7397V10.155L48.0223 5.80286Z" fill="#88B2F3"/>
<path d="M7.94031 9.14813L9.47036 8.95412V49.3244H7.94031V9.14813ZM18.1743 7.85044L16.6443 8.04445V49.3244H18.1743V7.85044ZM26.8783 6.74676L25.3482 6.94077V49.3244H26.8783V6.74676ZM35.5822 6.52868C35.5822 6.10608 35.2398 5.76365 34.8172 5.76365C34.3946 5.76365 34.0522 6.10608 34.0522 6.52868V49.3244H35.5822V6.52868ZM44.2862 6.52858C44.2862 6.10598 43.9438 5.76355 43.5212 5.76355C43.0986 5.76355 42.7561 6.10598 42.7561 6.52858V49.3244H44.2862V6.52858Z" fill="white"/>
<path d="M16.644 47.2226H18.1741V49.3243H16.644V47.2226Z" fill="#D0E2E7"/>
<path d="M7.94031 47.2226H9.47036V49.3243H7.94031V47.2226Z" fill="#D0E2E7"/>
<path d="M42.7561 46.7374V49.3244H44.2862V45.9839C43.808 46.2866 43.2956 46.5401 42.7561 46.7374Z" fill="#D0E2E7"/>
<path d="M34.052 47.2226H35.5821V49.3243H34.052V47.2226Z" fill="#D0E2E7"/>
<path d="M25.3483 47.2226H26.8783V49.3243H25.3483V47.2226Z" fill="#D0E2E7"/>
<path d="M50.6412 2.90143H1.58462C0.709434 2.90143 0 3.61086 0 4.48605V10.155H52.2258V4.48605C52.2258 3.61086 51.5164 2.90143 50.6412 2.90143Z" fill="#1164E9"/>
<path d="M11.043 16.521V16.8462H4.91602V16.521H11.043Z" fill="#1164E9" stroke="white" stroke-width="4.02703"/>
<path d="M15.3956 20.873V21.1982H7.8175V20.873H15.3956Z" fill="#1164E9" stroke="white" stroke-width="4.02703"/>
<path d="M19.7469 25.2249V25.5501H10.7186V25.2249H19.7469Z" fill="#1164E9" stroke="white" stroke-width="4.02703"/>
<path d="M37.1555 29.5769V29.9021H23.7747V29.5769H37.1555Z" fill="#1164E9" stroke="white" stroke-width="4.02703"/>
<path d="M28.4514 33.9289V34.2541H23.7747V33.9289H28.4514Z" fill="#1164E9" stroke="white" stroke-width="4.02703"/>
<path d="M45.8588 38.2809V38.6061H39.7318V38.2809H45.8588Z" fill="#1164E9" stroke="white" stroke-width="4.02703"/>
<path d="M45.8599 42.6329V42.9581H42.6333V42.6329H45.8599Z" fill="#1164E9" stroke="white" stroke-width="4.02703"/>
<path opacity="0.66" d="M47.8725 44.8571V40.7522C47.5514 42.3927 46.7302 43.8541 45.574 44.9712H47.7584C47.8214 44.9712 47.8725 44.9201 47.8725 44.8571Z" fill="#1164E9"/>
<path d="M7.14028 5.80282H4.46483C4.4024 5.80282 4.35181 5.75222 4.35181 5.6898V0.112959C4.35181 0.0505327 4.4024 -6.10352e-05 4.46483 -6.10352e-05H7.14028C7.2027 -6.10352e-05 7.2533 0.0505327 7.2533 0.112959V5.6899C7.2533 5.75222 7.2027 5.80282 7.14028 5.80282Z" fill="#B5CFF8"/>
<path d="M17.2957 5.80282H14.6202C14.5578 5.80282 14.5072 5.75222 14.5072 5.6898V0.112959C14.5072 0.0505327 14.5578 -6.10352e-05 14.6202 -6.10352e-05H17.2957C17.3581 -6.10352e-05 17.4087 0.0505327 17.4087 0.112959V5.6899C17.4087 5.75222 17.3581 5.80282 17.2957 5.80282Z" fill="#B5CFF8"/>
<path d="M27.4506 5.80282H24.7751C24.7127 5.80282 24.6621 5.75222 24.6621 5.6898V0.112959C24.6621 0.0505327 24.7127 -6.10352e-05 24.7751 -6.10352e-05H27.4506C27.513 -6.10352e-05 27.5636 0.0505327 27.5636 0.112959V5.6899C27.5635 5.75222 27.5129 5.80282 27.4506 5.80282Z" fill="#B5CFF8"/>
<path d="M37.6055 5.80282H34.93C34.8676 5.80282 34.817 5.75222 34.817 5.6898V0.112959C34.817 0.0505327 34.8676 -6.10352e-05 34.93 -6.10352e-05H37.6055C37.6679 -6.10352e-05 37.7185 0.0505327 37.7185 0.112959V5.6899C37.7185 5.75222 37.6679 5.80282 37.6055 5.80282Z" fill="#B5CFF8"/>
<path d="M47.7609 5.80282H45.0854C45.023 5.80282 44.9724 5.75222 44.9724 5.6898V0.112959C44.9724 0.0505327 45.023 -6.10352e-05 45.0854 -6.10352e-05H47.7609C47.8233 -6.10352e-05 47.8739 0.0505327 47.8739 0.112959V5.6899C47.8738 5.75222 47.8232 5.80282 47.7609 5.80282Z" fill="#B5CFF8"/>
<path d="M45.3469 24.707C53.5688 24.707 60.2345 31.3718 60.2346 39.5937C60.2346 47.8157 53.5689 54.4814 45.3469 54.4814C37.1251 54.4812 30.4602 47.8156 30.4602 39.5937C30.4604 31.3719 37.1252 24.7071 45.3469 24.707Z" fill="#E6ECFF" stroke="white" stroke-width="8.62936"/>
<path d="M45.3468 41.9283C46.9498 41.9288 48.5311 42.3026 49.964 43.0211C51.3321 43.7072 52.5285 44.6899 53.4689 45.8951C52.5313 47.1057 51.3352 48.0927 49.9659 48.7819C48.5323 49.5034 46.9498 49.879 45.3448 49.8785C43.7397 49.878 42.1561 49.5015 40.7228 48.7789C39.354 48.0889 38.1585 47.1013 37.2218 45.8903C38.1631 44.6853 39.3608 43.7035 40.7296 43.0182C42.1629 42.3006 43.7439 41.9279 45.3468 41.9283Z" fill="#1164E9" stroke="white" stroke-width="0.57529"/>
<path d="M45.3475 32.379C47.4489 32.3791 49.1522 34.0823 49.1522 36.1837C49.1521 38.2849 47.4488 39.9882 45.3475 39.9883C43.2462 39.9883 41.5429 38.285 41.5428 36.1837C41.5428 34.0822 43.2461 32.379 45.3475 32.379Z" fill="#1164E9" stroke="white" stroke-width="0.57529"/>
</svg>
