<svg width="23" height="20" viewBox="0 0 23 20" fill="none" xmlns="http://www.w3.org/2000/svg">
<path d="M20.3046 4.36414C20.3145 4.5635 19.7431 5.49714 19.5846 5.57763C19.4366 5.65254 19.3072 5.60796 19.2032 5.51386C19.0843 5.40551 19.0243 5.2563 19.1091 5.09904C19.2762 4.7901 19.4459 4.48178 19.631 4.18398C19.7332 4.01929 19.9059 3.99948 20.0805 4.05891C20.2303 4.10968 20.2718 4.24527 20.3046 4.36414Z" fill="#7CAAF3"/>
<path d="M20.6066 9.43457C20.9619 9.61535 21.3891 9.78623 21.7105 10.1193C21.8157 10.2277 21.7897 10.4103 21.677 10.5428C21.5619 10.6772 21.399 10.705 21.2585 10.6338C20.9458 10.4747 20.6431 10.2939 20.3459 10.1069C20.2072 10.0196 20.1527 9.87291 20.2029 9.70637C20.2524 9.54044 20.3719 9.45872 20.6066 9.43457Z" fill="#7CAAF3"/>
<path d="M22.2943 7.00429C22.2566 7.3219 22.0585 7.41477 21.8381 7.43582C21.4523 7.47235 21.0666 7.88221 20.6846 7.4965C20.5038 7.31447 20.5818 7.05692 20.8153 6.96467C21.1545 6.83032 21.5155 6.73559 21.8752 6.67058C22.1334 6.62415 22.251 6.8167 22.2943 7.00429Z" fill="#7CAAF3"/>
<path d="M0.846378 0.0382745C0.999921 0.0296068 1.15408 0.0128904 1.30763 0.0128904C5.78018 0.0116522 10.2527 0.0190817 14.7253 0.000507941C15.1649 -0.00134943 15.2633 0.128048 15.2466 0.538527C15.2144 1.3112 15.2392 2.08572 15.2361 2.85963C15.2355 3.00822 15.2695 3.15928 15.1339 3.29054C13.8455 4.53745 12.6339 5.86857 11.1102 6.8505C10.8155 7.04058 10.5221 7.13654 10.1623 7.13406C7.77934 7.11982 5.39571 7.12663 3.0127 7.12725C2.88887 7.12725 2.76195 7.11363 2.64246 7.13778C2.43939 7.17864 2.30875 7.30804 2.32423 7.52721C2.33785 7.71914 2.45858 7.83801 2.64865 7.86154C2.7861 7.87825 2.92664 7.87144 3.06594 7.87144C4.66824 7.87206 6.27115 7.87206 7.88645 7.89992C7.10016 8.24168 6.49713 8.75493 6.19314 9.56846C6.11823 9.76968 5.94611 9.7152 5.8 9.71582C4.82487 9.71829 3.84975 9.71891 2.87525 9.71582C2.59974 9.7152 2.30566 9.71272 2.30256 10.0823C2.29884 10.4482 2.58674 10.4631 2.86596 10.4625C3.79465 10.46 4.72334 10.4718 5.65141 10.4551C5.92506 10.4501 6.03341 10.5132 6.03341 10.8061C6.03341 11.346 6.30644 11.801 6.62034 12.3031C5.52882 12.3031 4.49983 12.3031 3.47085 12.3031C3.25415 12.3031 3.03746 12.3087 2.82077 12.3019C2.53659 12.2932 2.24622 12.3291 2.25984 12.6827C2.27284 13.0244 2.56507 13.051 2.84739 13.0504C4.19399 13.0461 5.53996 13.0504 6.88656 13.0473C7.31933 13.0467 7.74467 13.0523 8.16815 13.1866C8.55634 13.3098 8.96682 13.2987 9.35749 13.173C9.66581 13.0739 9.83917 13.1123 9.88931 13.4782C9.92894 13.7661 10.0385 14.0447 10.1141 14.3277C10.2608 14.8781 10.2596 14.8787 9.70667 14.8787C7.52426 14.8787 5.34246 14.8787 3.16005 14.8787C3.06718 14.8787 2.97431 14.8762 2.88144 14.8793C2.59169 14.8886 2.22579 14.831 2.23446 15.2681C2.2425 15.6687 2.58983 15.6247 2.86534 15.6247C4.84654 15.6266 6.82712 15.626 8.80832 15.626C9.11788 15.626 9.42869 15.6427 9.73639 15.6223C10.171 15.5932 10.4701 15.6526 10.7208 16.1225C11.1189 16.8667 12.2538 17.0716 12.9874 16.6482C13.2474 16.4983 13.2115 16.2754 13.1478 16.0389C12.8661 14.9957 12.6005 13.9482 12.2989 12.9111C12.2017 12.5768 12.2606 12.4907 12.6091 12.4944C13.3861 12.5025 14.1508 12.5978 14.9135 12.7322C15.1389 12.7718 15.2472 12.8393 15.2441 13.1074C15.2274 14.4224 15.2274 15.738 15.2435 17.0537C15.2472 17.3453 15.1599 17.4245 14.877 17.4115C14.3829 17.3886 13.887 17.401 13.3917 17.4066C12.8363 17.4128 12.6525 17.601 12.6457 18.1669C12.6401 18.6312 12.6209 19.0968 12.6525 19.5593C12.6766 19.9091 12.5683 20.0001 12.2191 19.997C10.2385 19.9797 8.2573 19.9921 6.2761 19.9877C4.4664 19.9834 2.6567 19.971 0.846997 19.9623C0.841425 19.7617 0.831519 19.5611 0.831519 19.3605C0.8309 13.1204 0.8309 6.88022 0.831519 0.640683C0.831519 0.439467 0.840806 0.238871 0.846378 0.0382745ZM7.63261 2.70856C8.8077 2.70856 9.9828 2.70856 11.1579 2.70856C11.6216 2.70856 12.0854 2.7098 12.5491 2.70485C12.7812 2.70237 12.9466 2.5835 12.954 2.34761C12.9614 2.11358 12.8073 1.98604 12.5751 1.96313C12.4983 1.9557 12.4209 1.95694 12.3435 1.95694C9.20518 1.95694 6.06622 1.95632 2.92788 1.9588C2.79043 1.9588 2.64865 1.97056 2.51678 2.00523C2.36695 2.04486 2.29575 2.17178 2.29265 2.32284C2.28894 2.49372 2.36385 2.63426 2.53535 2.67327C2.68394 2.7067 2.8412 2.70732 2.99474 2.70794C4.5407 2.7098 6.08665 2.70856 7.63261 2.70856ZM7.70876 5.28226C9.28567 5.28226 10.8632 5.28164 12.4401 5.28288C12.7119 5.28288 13.0109 5.29402 13.0078 4.91636C13.0054 4.55231 12.7156 4.53622 12.4389 4.53622C9.26895 4.53684 6.09965 4.53746 2.92973 4.53498C2.64246 4.53498 2.35828 4.58079 2.3558 4.91884C2.35333 5.27297 2.65113 5.28474 2.93035 5.28412C4.52336 5.2804 6.11575 5.28226 7.70876 5.28226ZM6.1758 18.0437C7.25865 18.0437 8.3415 18.0443 9.42373 18.0437C9.70977 18.0437 10.0323 18.0511 10.0255 17.6524C10.0193 17.2846 9.71224 17.292 9.44231 17.292C7.26113 17.292 5.08057 17.292 2.8994 17.292C2.6146 17.292 2.28584 17.2766 2.29884 17.6802C2.31185 18.0802 2.64927 18.0424 2.92664 18.043C4.01073 18.0449 5.09357 18.043 6.1758 18.0437Z" fill="#7CAAF3"/>
<path d="M14.5686 5.26709C15.1914 7.57457 15.8149 9.88205 16.4359 12.1901C16.4427 12.2149 16.4254 12.2465 16.4124 12.3096C15.5759 12.1158 14.7426 11.914 13.8876 11.8224C13.3471 11.7642 12.8078 11.7561 12.2673 11.7679C12.0927 11.7716 11.9899 11.745 11.9404 11.5469C11.6469 10.3811 11.3399 9.21834 11.0371 8.05501C11.286 8.00734 11.4891 7.87299 11.6959 7.73306C12.749 7.02169 13.6523 6.13696 14.5686 5.26709Z" fill="#1164E9"/>
<path d="M0.846376 0.0382713C0.841423 0.238868 0.832136 0.439464 0.832136 0.640061C0.831517 6.88022 0.831517 13.1204 0.832136 19.3599C0.832136 19.5605 0.842042 19.7611 0.847614 19.9617C3.21201e-05 20.0496 3.21681e-05 20.0496 3.21681e-05 19.2472C3.21681e-05 13.0826 3.21681e-05 6.91799 3.21681e-05 0.75398C-0.000586957 -0.0496444 -0.00058696 -0.0496444 0.846376 0.0382713Z" fill="#7CAAF3"/>
<path d="M10.306 8.42236C10.6057 9.50336 10.9023 10.585 11.2081 11.6635C11.2663 11.8678 11.1895 11.9278 11.0026 11.9743C10.3611 12.134 9.73088 12.347 9.08389 12.477C7.6469 12.7655 6.44085 11.4084 6.85504 9.99618C6.98134 9.93798 6.96896 9.82654 6.96339 9.71695C6.96339 9.71695 6.96153 9.71943 6.96215 9.71943C7.12251 9.7281 7.20547 9.60737 7.30948 9.5176C7.57942 9.2848 7.87041 9.08173 8.21774 8.98515C8.91239 8.79198 9.60953 8.60934 10.306 8.42236Z" fill="#1164E9"/>
<path d="M16.2385 4.05962C16.9777 6.79677 17.72 9.5333 18.4531 12.2723C18.5627 12.6828 18.3713 12.8518 17.9547 12.7763C17.504 12.6952 17.273 12.4785 17.1511 11.9962C16.5202 9.50111 15.8385 7.01904 15.1748 4.53263C15.5215 4.35618 15.758 3.93394 16.2385 4.05962Z" fill="#1164E9"/>
<path d="M12.0112 16.1033C11.6038 16.0532 11.2973 15.8359 11.1791 15.4229C10.9624 14.6657 10.7797 13.8986 10.5618 13.1421C10.5036 12.9396 10.5556 12.8746 10.7358 12.8114C11.4168 12.5725 11.441 12.5799 11.6304 13.2795C11.852 14.0998 12.0564 14.9245 12.2966 15.7393C12.3808 16.029 12.2867 16.1064 12.0112 16.1033Z" fill="#1164E9"/>
<path d="M14.5683 5.26672C13.652 6.13659 12.7487 7.02132 11.6956 7.73269C11.4888 7.87262 11.2857 8.00635 11.0369 8.05464C10.8901 7.88933 10.9712 7.78903 11.1303 7.69864C12.2999 7.02813 13.2942 6.13907 14.2501 5.20047C14.3752 5.07727 14.5436 4.8581 14.5683 5.26672Z" fill="#1164E9"/>
<path d="M10.3054 8.4224C9.60893 8.60937 8.91118 8.79202 8.21652 8.9858C7.86919 9.08238 7.57821 9.28546 7.30827 9.51825C7.20425 9.60802 7.12129 9.72875 6.96094 9.72008C7.15658 9.14306 7.59802 8.82235 8.14532 8.649C8.73163 8.46264 9.3328 8.3221 9.92716 8.15927C10.1618 8.09426 10.3315 8.11593 10.3054 8.4224Z" fill="#1164E9"/>
<path d="M18.3422 8.9927C18.1713 8.34571 18.0165 7.75878 17.8506 7.13037C18.3477 7.18981 18.64 7.42074 18.765 7.8436C18.895 8.28752 18.7712 8.65589 18.3422 8.9927Z" fill="#7CAAF3"/>
<path d="M13.4003 19.2522C13.4102 17.91 13.0926 18.1514 14.5271 18.1712C14.1618 18.5217 13.7681 18.8993 13.4003 19.2522Z" fill="#7CAAF3"/>
<path d="M16.2388 4.05936C15.7584 3.93368 15.5213 4.35592 15.1758 4.53299C15.1869 4.26429 15.6005 3.74299 15.8432 3.72008C16.0772 3.69717 16.219 3.81543 16.2388 4.05936Z" fill="#1164E9"/>
<path d="M6.96284 9.71729C6.96841 9.82625 6.98079 9.93831 6.85449 9.99651C6.85945 9.89126 6.86192 9.78539 6.96284 9.71729Z" fill="#1164E9"/>
</svg>
