<svg width="20" height="27" viewBox="0 0 20 27" fill="none" xmlns="http://www.w3.org/2000/svg">
<path d="M10.8733 1.71419C10.8631 1.79493 10.7857 1.79863 10.7375 1.83048C9.98601 2.32974 9.73113 3.33639 10.1744 4.12602C10.2781 4.31046 10.2774 4.45342 10.1744 4.63638C9.69461 5.49341 10.0298 6.58229 10.9091 7.01636C11.0837 7.10228 11.0523 7.17117 10.9778 7.30006C10.5228 8.08968 10.0758 8.88374 9.62085 9.67336C9.48209 9.91484 9.42293 10.1534 9.59091 10.3993C9.76253 10.6504 10.0152 10.6578 10.2789 10.6096C10.6192 10.5467 10.9617 10.4889 11.2998 10.4141C11.4868 10.3726 11.5934 10.3934 11.6548 10.6104C11.7585 10.9734 11.9016 11.3237 12.028 11.68C12.1149 11.9245 12.2653 12.097 12.5348 12.12C12.8043 12.143 12.9796 12 13.1081 11.7726C13.4842 11.1074 13.8676 10.4467 14.2386 9.77855C14.3292 9.61559 14.4022 9.5304 14.6147 9.59707C14.8579 9.67262 15.126 9.66744 15.3721 9.58966C15.5444 9.53485 15.6124 9.59929 15.6905 9.73855C16.063 10.4059 16.4427 11.0682 16.8232 11.7311C17.1241 12.2563 17.5703 12.2674 17.9129 11.7504C17.9713 11.8267 17.945 11.9104 17.945 11.9859C17.9465 16.634 17.9465 21.2821 17.9457 25.9302C17.9457 26.4147 17.7997 26.565 17.3315 26.565C11.9002 26.565 6.46808 26.565 1.03672 26.565C0.542293 26.565 0.399151 26.4221 0.399151 25.9258C0.399151 19.5281 0.400612 13.1296 0.392578 6.73191C0.392578 6.48821 0.46707 6.45118 0.682514 6.4534C1.69546 6.46525 2.70914 6.46006 3.72209 6.45784C4.57437 6.45636 5.08851 5.94377 5.09289 5.08156C5.09873 4.02602 5.09654 2.97047 5.09143 1.91493C5.0907 1.75715 5.11553 1.6853 5.29811 1.68604C7.14216 1.69271 8.98621 1.69049 10.8303 1.69123C10.8441 1.69123 10.858 1.7053 10.8733 1.71419ZM9.16586 20.3229C7.19547 20.3229 5.22581 20.3229 3.25542 20.3229C2.81577 20.3229 2.59959 20.4732 2.60471 20.7725C2.60982 21.0695 2.82599 21.214 3.26783 21.214C7.20789 21.214 11.1479 21.214 15.0887 21.214C15.1618 21.214 15.2355 21.2184 15.3071 21.2103C15.5634 21.1829 15.7424 20.994 15.7387 20.7599C15.7351 20.5214 15.5583 20.3466 15.2947 20.3266C15.2041 20.3199 15.1121 20.3229 15.0215 20.3229C13.0701 20.3229 11.118 20.3229 9.16586 20.3229ZM9.17536 17.8355C7.15968 17.8355 5.14401 17.8348 3.12834 17.8362C2.80627 17.8362 2.60763 18.0081 2.60617 18.274C2.60397 18.537 2.80992 18.717 3.1225 18.7251C3.15901 18.7259 3.19553 18.7251 3.23205 18.7251C7.19036 18.7251 11.1494 18.7251 15.1077 18.7244C15.2253 18.7244 15.3443 18.7392 15.4583 18.6866C15.6554 18.5962 15.7606 18.4407 15.7329 18.2251C15.7058 18.014 15.578 17.8725 15.3597 17.8429C15.2698 17.8303 15.1778 17.8355 15.0865 17.8355C13.1154 17.8355 11.1457 17.8355 9.17536 17.8355ZM9.1739 13.7385C11.1443 13.7385 13.114 13.7385 15.0843 13.7385C15.1661 13.7385 15.2487 13.7422 15.3305 13.7348C15.5766 13.7118 15.7146 13.5615 15.7329 13.3237C15.7504 13.0933 15.624 12.9341 15.4057 12.8733C15.3027 12.8444 15.1895 12.8496 15.0807 12.8496C11.1406 12.8489 7.19985 12.8489 3.2598 12.8496C3.13272 12.8496 3.00419 12.8341 2.88223 12.8904C2.68504 12.9822 2.5828 13.1407 2.61274 13.3548C2.64195 13.5652 2.76976 13.7067 2.98958 13.7326C3.07941 13.7437 3.17143 13.7385 3.26272 13.7385C5.23384 13.7385 7.20424 13.7385 9.1739 13.7385ZM9.1403 16.2311C11.1647 16.2311 13.1899 16.2318 15.2143 16.2303C15.5349 16.2303 15.7343 16.0592 15.7372 15.7918C15.7402 15.5252 15.5401 15.3496 15.2231 15.3422C15.1866 15.3415 15.1501 15.3422 15.1136 15.3422C11.1552 15.3422 7.19693 15.3422 3.23862 15.3422C3.14733 15.3422 3.05312 15.3326 2.96621 15.3526C2.74566 15.4037 2.62004 15.5526 2.60763 15.7822C2.59594 15.9955 2.76684 16.1918 2.98447 16.2244C3.0648 16.2363 3.14806 16.2303 3.23059 16.2303C5.20025 16.2318 7.17064 16.2311 9.1403 16.2311ZM7.90315 23.6962C8.7788 23.6962 9.65518 23.6962 10.5308 23.6962C11.2787 23.6962 12.0272 23.6999 12.7751 23.6925C13.0416 23.6895 13.2162 23.5103 13.2228 23.268C13.2293 23.0258 13.0592 22.8414 12.7999 22.814C12.7276 22.8066 12.6539 22.8103 12.5808 22.8103C9.46967 22.8103 6.35853 22.8103 3.24665 22.811C3.13784 22.811 3.02464 22.8095 2.92093 22.8377C2.63246 22.9147 2.51634 23.254 2.68285 23.5043C2.80116 23.6821 2.9779 23.6977 3.16705 23.6977C4.74599 23.6947 6.32493 23.6962 7.90315 23.6962ZM5.45148 7.87857V7.87931C4.65762 7.87931 3.86377 7.87486 3.07065 7.88153C2.79021 7.88375 2.60471 8.07264 2.60471 8.32004C2.60471 8.55412 2.7829 8.73782 3.04362 8.76523C3.12469 8.77411 3.20795 8.76893 3.28974 8.76893C4.42976 8.76893 5.57052 8.76893 6.71054 8.76893C7.0757 8.76893 7.44086 8.77634 7.80528 8.76671C8.12735 8.75856 8.326 8.54375 8.29241 8.26449C8.26246 8.02005 8.08427 7.88079 7.77753 7.87931C7.00267 7.87635 6.22707 7.87857 5.45148 7.87857ZM5.47339 11.2511C6.24898 11.2511 7.02458 11.2541 7.79944 11.2496C8.10617 11.2474 8.29167 11.0763 8.2946 10.8148C8.29752 10.5541 8.11202 10.3793 7.8104 10.3615C7.75562 10.3585 7.70085 10.3608 7.64608 10.3608C6.18617 10.3608 4.727 10.3608 3.2671 10.3608C3.20356 10.3608 3.1393 10.3578 3.07576 10.3622C2.79605 10.383 2.60763 10.56 2.60397 10.8037C2.60032 11.0593 2.79386 11.2474 3.0911 11.2496C3.88568 11.2548 4.67953 11.2511 5.47339 11.2511Z" fill="#1164E9"/>
<path d="M11.146 4.38218C11.1533 4.15255 11.0795 3.94811 10.9692 3.75107C10.6917 3.25404 10.8502 2.73923 11.3585 2.50886C11.7967 2.30961 12.0377 1.98072 12.0976 1.49332C12.1721 0.880733 12.573 0.607403 13.1777 0.719254C13.6225 0.801475 14.0037 0.683699 14.3156 0.336295C14.7187 -0.11333 15.2336 -0.111849 15.6389 0.339258C15.9588 0.69481 16.3488 0.805919 16.8037 0.712587C17.3456 0.601477 17.7765 0.890363 17.843 1.44443C17.9058 1.97331 18.1599 2.32442 18.6463 2.53479C19.0794 2.72145 19.2554 3.27404 19.0144 3.68441C18.7383 4.15477 18.7398 4.59921 19.0122 5.06884C19.2583 5.49254 19.0779 6.03401 18.6281 6.23253C18.1563 6.44067 17.9029 6.78808 17.8415 7.30659C17.7758 7.85844 17.3434 8.16955 16.8081 8.05251C16.321 7.94659 15.9347 8.08732 15.6053 8.45473C15.2394 8.86361 14.7055 8.85843 14.3375 8.44732C14.0161 8.08881 13.6349 7.94658 13.158 8.04881C12.6 8.16806 12.1713 7.86659 12.1042 7.29844C12.0421 6.77697 11.7828 6.43771 11.311 6.23031C10.867 6.03549 10.7012 5.49031 10.9408 5.06143C11.0598 4.84736 11.1555 4.63255 11.146 4.38218ZM14.9794 7.52214C16.6869 7.51992 18.0811 6.11031 18.0832 4.38292C18.0862 2.66146 16.6854 1.23777 14.9845 1.23258C13.2712 1.22814 11.858 2.65997 11.8668 4.39033C11.877 6.12142 13.2712 7.52437 14.9794 7.52214Z" fill="#1164E9"/>
<path d="M4.2185 2.39307C4.2185 3.32713 4.22142 4.2412 4.21631 5.15452C4.21558 5.37229 4.11187 5.556 3.88548 5.55896C2.95067 5.57229 2.01587 5.56489 1.08398 5.56489C2.1298 4.50712 3.16465 3.45972 4.2185 2.39307Z" fill="#1164E9"/>
<path d="M10.9062 9.22656C11.0961 8.88212 11.286 8.53694 11.481 8.18213C11.9835 8.81546 12.5889 9.10138 13.3703 8.90805C13.4645 8.88508 13.5558 8.90583 13.6186 8.98434C13.6822 9.0636 13.6026 9.12064 13.5704 9.17841C13.2739 9.70582 12.973 10.2303 12.6517 10.794C12.5239 10.4406 12.4049 10.1288 12.2997 9.81174C12.2405 9.63471 12.1449 9.50137 11.9696 9.43397C11.9667 9.18138 11.8929 9.04508 11.5949 9.11249C11.37 9.1636 11.1436 9.24212 10.9062 9.22656Z" fill="#1164E9"/>
<path d="M17.9887 9.43353C17.8127 9.49871 17.7141 9.62834 17.6549 9.80686C17.5505 10.1209 17.4329 10.4306 17.3014 10.7965C17.1269 10.4898 16.9721 10.218 16.8172 9.94538C16.6763 9.69797 16.5331 9.45205 16.3958 9.20242C16.3593 9.13575 16.2702 9.06983 16.3338 8.98539C16.409 8.88539 16.5222 8.89131 16.6347 8.91946C17.0604 9.02464 17.4628 8.96613 17.8462 8.74983C18.0894 8.6128 18.2822 8.42095 18.4692 8.17725C18.6664 8.5365 18.8555 8.88168 19.044 9.22612C18.8577 9.19205 18.6715 9.1565 18.4853 9.12316C18.1143 9.0565 18.1143 9.0565 17.9887 9.43353Z" fill="#1164E9"/>
<path d="M17.9883 9.43321C18.1139 9.05692 18.1139 9.05618 18.4856 9.12285C18.6719 9.15618 18.8581 9.19173 19.0443 9.22581C19.1181 9.34655 19.1918 9.46803 19.2831 9.61617C18.8187 9.58062 18.4141 9.42877 17.9883 9.43321Z" fill="#1164E9"/>
<path d="M10.9059 9.22643C11.144 9.24199 11.3696 9.16347 11.5946 9.11236C11.8925 9.04496 11.9656 9.18125 11.9692 9.43384C11.542 9.42643 11.1359 9.57976 10.6963 9.61532C10.7438 9.46125 10.8161 9.33903 10.9059 9.22643Z" fill="#1164E9"/>
<path d="M14.985 6.63389C13.7545 6.63833 12.7532 5.63538 12.7452 4.39021C12.7371 3.15541 13.745 2.12653 14.9661 2.12208C16.1908 2.11764 17.195 3.12652 17.2067 4.37095C17.2176 5.60723 16.2149 6.62871 14.985 6.63389ZM13.91 4.05244C13.7296 4.04725 13.5923 4.13762 13.52 4.2991C13.4397 4.48132 13.466 4.66206 13.6106 4.81095C13.8472 5.05465 14.0831 5.29909 14.3256 5.53686C14.568 5.77464 14.7944 5.77168 15.0398 5.52575C15.5072 5.05835 15.971 4.58724 16.4325 4.11392C16.6611 3.87984 16.6786 3.62503 16.4895 3.43096C16.2974 3.23393 16.0513 3.248 15.8161 3.48207C15.5101 3.78577 15.1939 4.08206 14.912 4.40799C14.7287 4.61984 14.614 4.61836 14.441 4.40502C14.3066 4.23984 14.17 4.04577 13.91 4.05244Z" fill="#1164E9"/>
</svg>
