<svg width="23" height="23" viewBox="0 0 23 23" fill="none" xmlns="http://www.w3.org/2000/svg">
<g clip-path="url(#clip0_149_17)">
<path d="M15.9738 6.95431C15.9545 6.67392 15.9288 6.47253 15.9288 6.2696C15.9288 4.85678 15.9208 3.44242 15.9449 2.02961C15.9513 1.60205 15.8082 1.46418 15.3582 1.46728C11.7014 1.48587 8.04459 1.47657 4.38941 1.49671C4.16438 1.49826 3.88309 1.62219 3.72556 1.7802C3.06814 2.43239 2.43323 3.10781 1.82242 3.80027C1.66972 3.97223 1.56685 4.23713 1.55881 4.4633C1.53792 5.08141 1.56364 5.70261 1.60864 6.32072C1.62472 6.53759 1.71473 6.77306 1.84171 6.95586C2.42037 7.79394 3.0376 8.60724 3.60983 9.44842C3.82683 9.76599 4.07919 9.85429 4.45853 9.85119C6.96925 9.83415 9.47998 9.8388 11.9923 9.84035C12.2206 9.84035 12.4504 9.87753 12.841 9.91161C12.6272 10.161 12.5211 10.3066 12.3926 10.4321C11.8573 10.9542 11.3285 11.484 10.7691 11.9797C10.6309 12.1036 10.3849 12.1656 10.1872 12.1687C8.90133 12.1873 7.61542 12.1811 6.32952 12.1857C6.11734 12.1873 5.90678 12.2028 5.50493 12.2198C5.9566 12.92 6.31505 13.5056 6.71207 14.0664C6.77315 14.1531 7.00622 14.1469 7.16053 14.1485C8.00441 14.1593 8.84828 14.1392 9.69055 14.1748C9.87701 14.1826 10.1117 14.3282 10.2258 14.48C10.6212 15.0021 10.9748 15.5551 11.3413 16.0973C11.3928 16.1732 11.4313 16.2569 11.5551 16.4799C10.3994 16.4799 9.34657 16.4799 8.15068 16.4799C8.30981 16.8223 8.3725 17.019 8.4818 17.1863C9.35139 18.5109 10.2242 19.8323 11.1147 21.1428C11.2192 21.2962 11.441 21.4713 11.6114 21.4743C13.013 21.5007 14.4146 21.4898 15.8693 21.4898C15.8902 21.2327 15.9208 21.0266 15.9224 20.8206C15.9304 19.194 15.9336 17.5674 15.9368 15.9408C15.9384 15.2158 16.5219 14.4862 17.3899 14.1981C17.4108 14.4149 17.4462 14.6163 17.4462 14.8162C17.451 17.3335 17.4381 19.8509 17.459 22.3667C17.4622 22.8391 17.332 22.9987 16.8209 22.9971C11.4169 22.9786 6.01286 22.9755 0.608851 22.9894C0.1186 22.991 -0.00195312 22.8314 -0.00195312 22.3883C0.00608378 16.3901 -0.00838265 10.3887 0.00769116 4.3874C0.00929854 4.07602 0.162 3.70578 0.369352 3.46256C1.27431 2.40141 2.2098 1.36194 3.17102 0.348803C3.35586 0.153612 3.70467 0.00179711 3.97953 0.00179711C8.25837 -0.00439943 12.5372 0.0265833 16.8161 0.0250341C17.3304 0.0250341 17.4654 0.195439 17.4574 0.660179C17.4333 2.24804 17.4462 3.8359 17.4413 5.42377C17.4381 5.8947 16.8096 6.57787 15.9738 6.95431Z" fill="#1164E9"/>
<path d="M22.9999 6.43831C22.8746 6.64125 22.7363 7.02389 22.4679 7.27485C19.7514 9.79839 17.0173 12.3033 14.2783 14.8036C13.6161 15.4078 12.7352 15.3892 12.126 14.7974C11.4815 14.1716 11.4718 13.3304 12.163 12.6891C14.8955 10.1547 17.6442 7.63425 20.3896 5.11225C20.8573 4.6816 21.4151 4.5902 22.0018 4.84735C22.6222 5.11845 22.9373 5.60798 22.9999 6.43831Z" fill="#7CAAF3"/>
<path d="M8.67292 7.87112C7.30665 7.87112 5.94037 7.88351 4.5741 7.86647C3.56306 7.85408 2.97637 6.98811 3.38946 6.15003C3.60164 5.72092 3.97133 5.52108 4.45515 5.51953C7.28736 5.51179 10.1196 5.49939 12.9534 5.50869C13.7346 5.51179 14.1782 5.95639 14.1911 6.64885C14.2039 7.3661 13.7458 7.84168 12.9534 7.85253C11.5276 7.87422 10.1003 7.85872 8.67453 7.85872C8.67292 7.86337 8.67292 7.86647 8.67292 7.87112Z" fill="#7CAAF3"/>
</g>
<defs>
<clipPath id="clip0_149_17">
<rect width="23" height="23" fill="white"/>
</clipPath>
</defs>
</svg>
