<svg width="24" height="24" viewBox="0 0 24 24" fill="none" xmlns="http://www.w3.org/2000/svg">
<path d="M21.4887 9.38453C20.8159 9.69281 20.7131 10.2153 20.9138 10.8678C20.9603 11.019 20.9943 11.1954 20.9633 11.3467C20.7936 12.1823 21.2618 12.5245 21.9569 12.7872C22.4494 12.9734 22.8905 13.2952 23.3577 13.5492C23.5545 13.6558 23.6311 13.7828 23.5623 14.0174C23.4266 14.4808 23.3374 14.9588 23.1959 15.4202C22.9806 16.125 22.716 16.1812 22.209 15.6568C21.0408 14.4498 19.8581 13.2564 18.7151 12.0262C18.403 11.6908 18.2469 11.7451 17.9823 12.0456C17.6371 12.4392 17.2445 12.7911 16.8403 13.1925C17.6168 9.79751 15.3105 7.6289 13.2708 7.20622C10.8317 6.70018 8.39264 8.16208 7.70434 10.5769C7.081 12.7649 8.13962 15.6897 11.3465 16.5254C10.792 17.1002 10.2588 17.6518 9.72754 18.2054C9.63933 18.2975 9.56468 18.28 9.48616 18.1976C9.4532 18.1627 9.42314 18.124 9.38533 18.0929C9.12747 17.8835 8.96266 17.426 8.65148 17.4657C8.39845 17.4977 8.18712 17.8787 7.96124 18.1094C7.3854 18.6979 6.81149 19.2892 6.23662 19.8796C6.16876 19.9494 6.10769 20.025 6.03789 20.0909C5.29046 20.8064 4.9657 20.8306 4.26383 20.089C3.0976 18.8578 3.19261 19.3958 3.97591 17.9785C4.20179 17.5704 4.48292 17.1914 4.76406 16.8181C4.90075 16.6368 4.92304 16.5089 4.79605 16.3082C4.46838 15.7886 4.20179 15.2351 4.02729 14.6437C3.95943 14.4149 3.82952 14.3529 3.60946 14.3451C2.84943 14.3199 2.10297 14.1852 1.35457 14.0533C1.03368 13.9971 0.915413 13.8488 0.894086 13.5599C0.85337 13.0296 0.817501 12.4983 0.765151 11.9681C0.741885 11.7344 0.836889 11.6268 1.05016 11.5435C1.75785 11.2652 2.47329 11.0122 3.21587 10.8552C3.51058 10.7931 3.6589 10.6884 3.69574 10.3724C3.7636 9.7946 3.92259 9.23233 4.15234 8.69721C4.24638 8.47812 4.20372 8.35306 4.0331 8.19989C3.46599 7.69288 2.97836 7.11025 2.49462 6.52471C2.30267 6.29302 2.25517 6.10592 2.44808 5.8529C2.7709 5.43023 3.08112 4.99592 3.37389 4.55192C3.52318 4.32604 3.67732 4.32895 3.90514 4.40942C4.62155 4.6605 5.33602 4.9174 6.00105 5.28578C6.25213 5.42538 6.42372 5.41084 6.637 5.21113C7.04997 4.82433 7.51821 4.49957 8.02231 4.2417C8.26273 4.11859 8.33932 3.9819 8.29666 3.71433C8.17839 2.97853 8.20263 2.23401 8.19681 1.49143C8.19487 1.1909 8.286 1.04549 8.58362 0.939821C10.4003 0.297088 10.5409 0.297088 11.3145 2.04013C11.68 2.86414 12.1007 3.31784 13.0285 3.17533C13.2126 3.14722 13.4211 3.18502 13.6024 3.24319C14.0367 3.38279 14.376 3.31493 14.5912 2.88159C14.724 2.88353 14.8578 2.8845 14.9906 2.88644L14.9925 2.88741C15.0013 3.08808 15.1447 3.08226 15.2872 3.08032C16.0453 4.09241 16.9847 4.93097 17.896 5.79667C17.9619 5.86259 18.0268 5.92851 18.0928 5.99443C18.1897 6.15342 18.3177 6.28236 18.4776 6.37833C18.5436 6.44425 18.6095 6.51017 18.6754 6.57512C19.2532 7.22367 19.8649 7.83635 20.5144 8.41317C20.559 8.48878 20.6288 8.50914 20.7102 8.50817L20.7131 8.51108C20.7442 8.5421 20.7762 8.57409 20.8072 8.60511L20.8101 8.60802C20.8411 8.63904 20.8731 8.67103 20.9041 8.70206L20.907 8.70496C20.938 8.73599 20.97 8.76798 21.0011 8.799L21.004 8.80191C21.035 8.83293 21.066 8.86395 21.098 8.89594L21.1009 8.89982C21.1281 9.12667 21.2095 9.30213 21.48 9.29535C21.4838 9.3254 21.4867 9.35448 21.4887 9.38453Z" fill="#7CAAF3"/>
<path d="M16.5217 15.5283C16.6249 15.5521 16.7447 15.5984 16.8453 15.6988C16.9832 15.8365 17.0183 16.0091 17.0321 16.1285C17.0455 16.2447 17.0454 16.3883 17.0454 16.5372L17.0454 16.5524C17.0454 16.5525 17.0454 16.5525 17.0454 16.5526C17.0456 17.0777 17.0464 17.603 17.0471 18.1286C17.0496 19.8644 17.0521 21.6023 17.0357 23.3403L16.5217 15.5283ZM16.5217 15.5283C16.5491 15.4999 16.5764 15.4716 16.6037 15.4433C17.2059 14.8196 17.7819 14.2229 18.3514 13.6225M16.5217 15.5283L18.3514 13.6225M18.3514 13.6225C18.9185 14.2169 19.4909 14.8068 20.0603 15.3937C20.1152 15.4503 20.1701 15.5069 20.2249 15.5635C20.099 15.6 19.963 15.6632 19.8545 15.787C19.7189 15.9418 19.681 16.1299 19.665 16.2823C19.6494 16.4314 19.6494 16.6184 19.6494 16.8276L19.6494 16.8473C19.6494 17.4108 19.6486 17.9748 19.6478 18.5391C19.6456 20.1396 19.6433 21.7426 19.6591 23.3442C19.6596 23.3899 19.6579 23.4241 19.6555 23.4493C19.6302 23.4508 19.596 23.4513 19.5504 23.4495L19.5499 23.4495C18.7499 23.419 17.9472 23.419 17.1469 23.4475C17.1002 23.4491 17.0652 23.4484 17.0395 23.4468C17.037 23.4214 17.0353 23.3868 17.0357 23.3404L18.3514 13.6225Z" fill="#1164E9" stroke="#1164E9" stroke-width="0.787081"/>
<path d="M15.546 17.8969C15.5148 17.8646 15.4835 17.8323 15.4523 17.8C14.8692 17.1975 14.2869 16.5957 13.7061 15.9928C13.1222 16.5986 12.5349 17.2062 11.9121 17.8502C12.0057 17.8649 12.1227 17.9008 12.2208 17.9926C12.3824 18.1437 12.3961 18.3519 12.4015 18.4445C12.4061 18.5243 12.4056 18.6299 12.405 18.7466C12.4048 18.7924 12.4046 18.8398 12.4046 18.8881L12.4046 18.8884C12.4049 19.2379 12.4058 19.588 12.4067 19.9385C12.4094 20.9928 12.4121 22.051 12.3968 23.1081M15.546 17.8969L15.0167 23.1672C14.9986 23.1677 14.9774 23.1677 14.9525 23.167L14.9523 23.167C14.1222 23.1425 13.2902 23.1405 12.4585 23.166C12.4351 23.1667 12.4149 23.1667 12.3976 23.1663C12.3968 23.1497 12.3965 23.1305 12.3968 23.1081M15.546 17.8969C15.4363 17.9274 15.3185 17.9809 15.2203 18.0828C15.076 18.2322 15.0375 18.4194 15.0219 18.5614C15.0066 18.6994 15.0066 18.8722 15.0067 19.0604C15.0067 19.0678 15.0067 19.0751 15.0067 19.0825L15.0067 19.0828C15.0069 19.4555 15.0062 19.8292 15.0054 20.2036C15.0033 21.1697 15.0013 22.1404 15.0174 23.1089L15.546 17.8969ZM12.3968 23.1081C12.3968 23.1082 12.3968 23.1083 12.3968 23.1085L12.0033 23.1028L12.3968 23.1079C12.3968 23.108 12.3968 23.1081 12.3968 23.1081ZM11.5425 18.2324C11.4917 18.2326 11.4355 18.2325 11.3732 18.2314C11.3443 18.2314 11.3152 18.2315 11.2787 18.2317C11.2169 18.2319 11.1339 18.2323 10.9951 18.2323C11.1229 18.1002 11.2488 17.97 11.3732 17.8413C11.3743 17.8402 11.3755 17.839 11.3766 17.8378L11.5425 18.2324Z" fill="#1164E9" stroke="#1164E9" stroke-width="0.787081"/>
<path d="M20.5142 8.41386C19.8647 7.83705 19.253 7.2234 18.6752 6.57582C18.6752 6.44398 18.6093 6.37806 18.4774 6.37902C18.3175 6.28305 18.1895 6.15412 18.0926 5.99513C18.0945 5.86232 18.0276 5.7964 17.8958 5.79737C16.9845 4.93166 16.0451 4.09311 15.2871 3.08102C15.2289 2.95596 15.1348 2.88519 14.9923 2.8881L14.9904 2.88713C15.0108 2.73299 14.9468 2.60115 14.8809 2.47028C14.8935 2.4412 14.9012 2.40823 14.9206 2.384C15.2958 1.90704 15.5915 1.14797 16.1382 1.09078C16.7819 1.02292 17.4043 1.56483 18.0199 1.87989C18.1963 1.97005 18.1604 2.10189 18.1401 2.24828C18.0296 3.03061 17.8812 3.80518 17.6292 4.55552C17.5468 4.80176 17.5768 4.95881 17.8008 5.12652C18.2651 5.47551 18.6733 5.89334 19.0252 6.35673C19.1783 6.55837 19.3092 6.60005 19.5496 6.5225C20.2864 6.28402 21.0493 6.15315 21.8104 6.01937C22.0692 5.9738 22.2495 6.01355 22.3387 6.28014C22.3542 6.32571 22.3843 6.36545 22.4056 6.40908C22.6664 6.95874 23.2199 7.58015 23.0318 8.07165C22.8069 8.66107 22.0925 9.04302 21.4866 9.3862C21.4837 9.35615 21.4817 9.32706 21.4788 9.29701C21.4042 9.11573 21.2646 8.99552 21.0988 8.90148L21.0959 8.89761C21.0649 8.86658 21.0338 8.83556 21.0018 8.80357L20.9989 8.80066C20.9679 8.76964 20.9359 8.73765 20.9049 8.70663L20.902 8.70372C20.871 8.6727 20.839 8.64071 20.808 8.60969L20.8051 8.60678C20.774 8.57576 20.742 8.54376 20.711 8.51274L20.7081 8.50983C20.6693 8.4284 20.5957 8.41289 20.5142 8.41386Z" fill="#7CAAF3"/>
<path d="M8.90148 19.0384C8.80777 19.1347 8.71426 19.2305 8.62094 19.3262C8.38141 19.5717 8.14315 19.816 7.90602 20.0634L7.90597 20.0634C7.63169 20.3495 7.35948 20.6367 7.08562 20.9263C7.19435 20.9564 7.29964 21.011 7.39028 21.1028C7.60088 21.3162 7.61308 21.6137 7.59431 21.8383L7.59427 21.8388C7.57936 22.0147 7.58267 22.1962 7.58722 22.4014L7.58762 22.4192C7.59193 22.6129 7.59674 22.8287 7.57997 23.0457M8.90148 19.0384L7.1876 23.0154M8.90148 19.0384C9.48689 19.6517 10.0777 20.2631 10.6903 20.8971C10.7176 20.9253 10.7449 20.9536 10.7723 20.982C10.6488 21.0209 10.5222 21.0831 10.4181 21.193C10.2673 21.3521 10.2218 21.549 10.2028 21.7158C10.1846 21.8754 10.1849 22.0751 10.1851 22.2975L10.1851 22.3187C10.1851 22.3187 10.1851 22.3188 10.1851 22.3188C10.1854 22.637 10.185 22.8427 10.1689 22.9897C10.1608 23.0636 10.1505 23.1019 10.1444 23.1193C10.1274 23.1252 10.0905 23.1351 10.02 23.1431C9.87529 23.1593 9.67251 23.1599 9.35718 23.1599C9.20489 23.1599 9.04501 23.1567 8.88067 23.1534C8.49108 23.1457 8.07651 23.1374 7.67899 23.1699M7.57997 23.0457L7.1876 23.0154M7.57997 23.0457C7.57998 23.0456 7.57999 23.0455 7.57999 23.0454L7.1876 23.0154M7.57997 23.0457C7.57571 23.1016 7.57527 23.1429 7.57676 23.1729M7.1876 23.0154C7.15657 23.4216 7.2574 23.599 7.71109 23.5622M7.57676 23.1729C7.55115 23.1718 7.53535 23.1692 7.52703 23.1671C7.52542 23.1667 7.52468 23.1665 7.52467 23.1666C7.52461 23.1667 7.54481 23.1738 7.56564 23.198C7.5796 23.2141 7.58367 23.2264 7.58366 23.2264C7.58366 23.2264 7.58231 23.2224 7.58071 23.2128C7.57901 23.2026 7.57759 23.1894 7.57676 23.1729ZM7.57676 23.1729C7.60122 23.1739 7.63462 23.1735 7.67899 23.1699M7.67899 23.1699L7.71109 23.5622M7.67899 23.1699C7.67907 23.1699 7.67915 23.1699 7.67924 23.1699L7.71109 23.5622" fill="#1164E9" stroke="#1164E9" stroke-width="0.787081"/>
</svg>
