<svg width="16" height="16" viewBox="0 0 16 16" fill="none" xmlns="http://www.w3.org/2000/svg">
<path d="M7.78058 0.168424C8.03591 0.409002 8.58804 2.14835 8.74289 2.2479C9.23695 2.18061 10.0085 2.69034 10.4232 2.63411C10.9201 2.56683 11.8603 1.42016 12.4483 1.43952C12.8659 1.45335 13.642 2.30044 13.9342 2.63227C14.0347 2.74749 14.5573 3.32727 14.5757 3.37244C14.9527 4.25732 13.5673 5.0445 13.4401 5.74319C13.4254 5.82522 13.7711 7.27422 13.8144 7.36086C14.0808 7.88165 15.9621 8.04296 15.9999 8.95549C16.0109 9.2228 15.3952 11.2921 15.2293 11.4885C14.7269 12.0839 13.3 11.4055 12.5986 11.623C12.4262 11.9687 11.4943 12.5817 11.4178 12.8379C11.2086 13.5357 12.0041 15.0759 11.0307 15.4926C10.5938 15.6788 8.83415 16.1 8.42212 15.9802C8.31889 15.9498 8.23777 15.852 8.17141 15.7709C7.9041 15.4465 7.43769 13.9108 7.18605 13.8067C7.06715 13.7569 5.63659 13.4066 5.55363 13.4177C5.14253 13.473 4.11201 14.5238 3.68155 14.6031C3.39488 14.6556 3.13311 14.462 2.91834 14.2961C2.70357 14.1302 1.69056 13.0389 1.53755 12.8195C0.847159 11.8268 2.45377 11.0543 2.55148 10.3234C2.56346 10.2358 2.21412 8.77207 2.16527 8.68819C1.84726 8.13513 0.025877 8.04204 6.78876e-05 7.08987C-0.00638438 6.84376 0.448961 5.23253 0.569711 4.94126C0.743922 4.51818 0.901542 4.2988 1.39745 4.28589C1.84357 4.27391 2.97641 4.56242 3.31285 4.46195C3.62348 4.36885 4.1498 3.47199 4.55721 3.354C4.71575 2.4894 3.97467 0.948227 5.01625 0.538969C5.39232 0.389645 6.77956 0.0200222 7.15471 0.000665356C7.32339 -0.00763042 7.66905 0.0624228 7.78058 0.167503V0.168424ZM7.41188 5.23899C3.92489 5.74964 4.35351 11.5069 8.47005 10.9059C11.8925 10.4063 11.3478 4.66289 7.41188 5.23899Z" fill="#1164E9"/>
<path d="M7.87553 6.34029C10.1043 6.16516 10.273 9.69639 8.02854 9.7351C5.78408 9.77382 5.76011 6.5062 7.87553 6.34029Z" fill="#1164E9"/>
</svg>
