<svg width="22" height="20" viewBox="0 0 22 20" fill="none" xmlns="http://www.w3.org/2000/svg">
<path d="M11.7397 0.0178471C15.4974 0.467101 17.4321 5.19721 15.0657 8.18854C12.7556 11.1078 8.11151 10.7029 6.49844 7.33256C4.96858 4.13878 6.91812 0.735175 10.2607 0.0178471C10.7322 0.0575959 11.2803 -0.0376164 11.7397 0.0178471ZM11.5549 1.77234C11.5188 1.73629 10.5732 1.73629 10.5371 1.77234C10.4937 1.81486 10.5861 2.45454 10.5334 2.50816C10.477 2.56639 9.7144 2.53774 9.29565 3.16447C8.66614 4.10643 9.28918 4.91989 10.1674 5.32847C10.5843 5.5226 12.2038 5.80269 11.7277 6.51909C11.2517 7.23549 10.2524 6.38598 9.93348 6.39337C9.81054 6.39615 9.26237 6.9249 9.24573 6.99793C9.16439 7.36029 10.4779 7.63668 10.5269 7.69307C10.5935 7.76979 10.489 8.37712 10.5362 8.42334C10.5695 8.45662 11.3866 8.43905 11.467 8.38266C11.6464 8.25787 11.5077 7.7282 11.5539 7.68382C11.5706 7.66811 11.8756 7.68567 12.0189 7.64038C12.4349 7.50911 12.959 6.96187 13.0274 6.52371C13.326 4.6019 10.5953 4.85241 10.3716 4.1092C9.95844 2.73186 12.0383 3.8818 12.1566 3.87256C12.2435 3.86516 12.6882 3.37154 12.7214 3.25507C12.8453 2.81228 11.7018 2.6727 11.5974 2.51648C11.4818 2.34269 11.6011 1.81856 11.5558 1.77327L11.5549 1.77234Z" fill="#7CAAF3"/>
<path d="M21.9999 19.3199H17.4704L14.5882 14.6721C14.064 13.597 14.7841 12.6486 15.3055 11.7547C15.9683 10.6158 16.8095 9.26806 17.561 8.1893C17.9049 7.69567 18.1027 7.19003 18.8117 7.21314C19.6788 7.24087 20.055 8.12644 19.578 8.81973L17.2393 12.4923C17.1025 12.9176 17.7246 13.1163 17.9335 12.717C18.7036 10.9079 22.3253 7.8445 19.1371 6.52632L19.0317 6.35438C18.9319 5.08057 17.9335 2.92397 18.123 1.7315C18.2682 0.822825 19.8313 0.788623 20.0532 1.7315C20.4035 4.07114 21.4324 6.64187 21.6967 8.95562C21.7966 9.83194 21.6967 10.4171 21.3076 11.1945C20.8167 12.1762 19.3774 13.8373 19.1131 14.7284C19.0169 15.0511 18.9615 15.5733 19.1278 15.8627C19.9783 16.9026 20.9849 17.852 21.8141 18.9048C21.9149 19.0324 21.9861 19.1544 21.999 19.3199H21.9999Z" fill="#1164E9"/>
<path d="M0 19.2281L2.9636 15.8624C3.13091 15.5731 3.07453 15.0526 2.97839 14.7291C2.56334 13.3305 0.573123 11.6786 0.379925 10.0295C0.119246 7.81097 1.83769 4.00987 2.07896 1.6804C2.63451 0.588698 4.04051 0.960303 4.04514 2.16663L3.05142 6.41514C-0.294881 7.85626 3.38697 10.8263 4.2106 12.7583C4.39918 13.019 4.86877 12.9607 4.87524 12.6123C4.88263 12.2148 2.89612 9.50353 2.57073 8.85553C2.35997 8.43401 2.19913 8.14559 2.45703 7.69172C2.79074 7.10381 3.49235 6.97901 4.02295 7.40516C4.99171 9.04503 6.31082 10.6969 7.19176 12.3664C7.66783 13.2695 7.87674 13.7945 7.41177 14.7661C6.92739 15.7801 5.42525 18.2094 4.74305 19.1116C4.64229 19.2448 4.5628 19.2401 4.43708 19.3215H3.42025C2.89612 19.1505 2.22409 19.23 1.6639 19.229C1.10372 19.2281 0.55371 19.229 0 19.229L0 19.2281Z" fill="#1164E9"/>
</svg>
