<svg width="21" height="22" viewBox="0 0 21 22" fill="none" xmlns="http://www.w3.org/2000/svg">
<path d="M20.3418 11.7514C20.3418 12.3135 20.3332 12.7986 20.3452 13.2821C20.352 13.552 20.3162 13.9005 20.1095 13.9757C18.999 14.3822 19.0998 15.9471 17.8938 16.2529C17.7776 16.2819 17.7093 16.5228 17.6324 16.6731C16.7765 18.3438 15.4474 19.485 13.7033 20.1393C13.3343 20.2777 13.1173 20.4758 12.9294 20.838C12.3383 21.9826 11.0161 22.3242 9.94836 21.6717C8.89091 21.0259 8.61416 19.6285 9.34362 18.6257C10.0765 17.6178 11.45 17.4128 12.4101 18.2687C12.8286 18.6428 13.1344 18.5779 13.5341 18.3831C14.2841 18.0176 14.9589 17.5461 15.4867 16.8986C15.895 16.3981 16.3597 15.9044 15.6969 15.2244C15.4406 14.9631 15.4714 14.5326 15.4714 14.1619C15.4697 12.6261 15.4594 11.0886 15.4748 9.55282C15.4867 8.3365 16.0812 7.56433 17.1028 7.37984C17.9775 7.22096 18.7428 7.77446 19.1818 8.87462C19.2228 8.97712 19.2519 9.14453 19.3219 9.16674C20.7723 9.63653 20.2376 10.8563 20.3418 11.7514Z" fill="#1164E9"/>
<path d="M4.90181 11.7978C4.90181 12.5939 4.91719 13.3916 4.8984 14.1877C4.86935 15.3647 4.29023 16.0959 3.28232 16.2719C2.34275 16.4359 1.59792 15.9268 1.18792 14.83C1.12813 14.6712 1.11617 14.4628 0.933381 14.4132C-0.0266955 14.1604 -0.0147373 13.4207 0.00917924 12.6519C0.0279708 12.0831 0.0348041 11.5125 0.00747092 10.9453C-0.0301122 10.1851 0.045054 9.51204 0.921423 9.24896C1.19475 9.16696 1.15375 8.89363 1.22721 8.68692C1.51763 7.86692 2.33421 7.30147 3.11662 7.36468C4.01007 7.43643 4.7344 8.12317 4.8574 9.07129C4.91548 9.51887 4.89498 9.97841 4.90181 10.4328C4.90694 10.8872 4.90181 11.3417 4.90181 11.7978Z" fill="#1164E9"/>
<path d="M18.2646 6.46417C17.7828 6.46417 17.3028 6.42659 16.8296 6.47442C16.3376 6.52396 16.3752 6.12421 16.2675 5.87651C15.3912 3.87265 13.9288 2.54699 11.7934 2.01912C8.82266 1.28454 5.75452 2.70074 4.47328 5.47847C4.11624 6.25063 3.77286 6.68113 2.88795 6.43C2.70858 6.37875 2.49846 6.44367 2.29688 6.45563C2.51383 3.25594 6.2636 0.110921 9.95186 0.00329694C13.9391 -0.112869 17.7811 2.85619 18.2646 6.46417Z" fill="#7CAAF3"/>
</svg>
