<svg width="19" height="24" viewBox="0 0 19 24" fill="none" xmlns="http://www.w3.org/2000/svg">
<path d="M2.45297 21.0597C2.45107 20.6168 2.45107 20.1739 2.44917 19.731C2.44917 19.5409 2.44727 19.3508 2.44727 19.1607C2.45297 14.4105 2.45677 9.66028 2.46247 4.90815C2.67537 4.28467 3.04603 3.78284 3.60108 3.41788C4.13712 3.38366 4.67316 3.32284 5.2092 3.32094C8.59842 3.30953 11.9857 3.30573 15.375 3.30953C17.1028 3.31143 17.7092 3.92731 17.7111 5.66279C17.7149 9.74771 17.6978 13.8326 17.7282 17.9176C17.7339 18.6171 17.5495 18.8338 16.8291 18.8262C13.3467 18.7882 9.86249 18.8072 6.37823 18.811C4.88036 18.8129 4.47547 19.2349 4.43556 20.7251C4.42035 21.2954 4.65605 21.9607 3.97935 22.3561C3.78166 22.3466 3.58397 22.3371 3.38629 22.3256C3.03083 22.107 2.72669 21.8371 2.54611 21.4494C2.5157 21.322 2.48338 21.1908 2.45297 21.0597ZM10.1476 16.2695C10.1476 16.2676 10.1476 16.2676 10.1476 16.2657C8.66495 16.2657 7.18229 16.26 5.69962 16.2714C5.44111 16.2733 5.05143 16.1954 5.06284 16.625C5.07424 17.028 5.44301 16.9824 5.71483 16.9824C8.64784 16.9862 11.5828 16.9862 14.5158 16.9767C14.7838 16.9767 15.1602 17.0185 15.1526 16.6079C15.145 16.1859 14.7572 16.2752 14.4987 16.2733C13.0502 16.2638 11.598 16.2695 10.1476 16.2695ZM10.1495 11.5896C11.5695 11.5896 12.9894 11.5991 14.4093 11.582C14.6868 11.5782 15.1469 11.7208 15.1316 11.238C15.1202 10.8673 14.7173 10.9281 14.4435 10.9262C11.5714 10.9205 8.69917 10.9186 5.82698 10.9281C5.54185 10.9281 5.07424 10.8198 5.10846 11.2855C5.13887 11.7132 5.59508 11.582 5.88591 11.5839C7.30964 11.5972 8.72958 11.5915 10.1495 11.5896ZM10.0469 13.6045C8.62693 13.6045 7.207 13.6007 5.78706 13.6083C5.51714 13.6102 5.12937 13.5323 5.10085 13.9144C5.07044 14.3269 5.46962 14.2698 5.73384 14.2698C8.66875 14.2774 11.6037 14.2755 14.5386 14.2679C14.7762 14.2679 15.124 14.306 15.1335 13.9676C15.1469 13.5494 14.7629 13.6121 14.4987 13.6102C13.0141 13.6026 11.5314 13.6064 10.0469 13.6045ZM10.7711 8.74406C11.0106 8.83531 11.4459 8.86762 11.2577 8.56729C11.0467 8.23274 11.5923 7.50281 10.8148 7.56554C10.1153 7.62256 9.92902 7.0447 9.56405 6.71396C9.32835 6.49916 9.40438 6.17982 9.82637 6.12469C10.0317 6.09808 10.4118 6.35279 10.3814 5.9175C10.3586 5.59055 9.98034 5.54303 9.69711 5.56204C9.14206 5.59626 8.80752 5.90419 8.83793 6.47825C8.85504 6.78809 8.90256 7.05231 8.75619 7.37735C8.35131 8.28406 8.95008 9.00258 9.94993 8.89423C10.2294 8.86382 10.467 8.62621 10.7711 8.74406ZM12.9609 7.2538C12.9419 6.44403 13.476 6.07337 14.4606 6.21213C14.6849 6.24254 15.0081 6.46304 15.0765 6.07907C15.1316 5.77113 14.7914 5.7065 14.5576 5.64188C13.8315 5.43848 13.1548 5.53733 12.6853 6.16651C12.1758 6.84702 12.1986 7.59975 12.6834 8.27836C13.1415 8.91894 13.8258 9.02349 14.5481 8.8182C14.7952 8.74787 15.2039 8.68324 15.0784 8.30497C14.9701 7.98182 14.6564 8.20802 14.4245 8.24984C13.5254 8.40571 12.978 8.03125 12.9609 7.2538ZM6.38963 5.58295C6.38963 5.59055 6.38963 5.59816 6.38963 5.60576C6.07409 5.60576 5.75665 5.59816 5.44111 5.60956C5.27953 5.61526 5.12557 5.67039 5.11226 5.87188C5.10276 6.02395 5.2092 6.1323 5.32896 6.13039C6.3174 6.11329 6.07219 6.83371 6.0931 7.39066C6.1026 7.64347 6.0855 7.89819 6.095 8.151C6.10641 8.42282 6.03417 8.80489 6.44095 8.79729C6.77741 8.78969 6.72228 8.43423 6.72988 8.19472C6.74699 7.72141 6.73559 7.24619 6.74319 6.77098C6.74699 6.51437 6.74889 6.26726 7.09485 6.19882C7.34196 6.1494 7.78676 6.24445 7.69932 5.81485C7.62899 5.467 7.2222 5.61907 6.95609 5.58865C6.7717 5.56584 6.57972 5.58295 6.38963 5.58295Z" fill="#7CAAF3"/>
<path d="M1.85004 19.7251C0.812175 19.8088 0.116464 19.1967 0.0252229 18.0619C-0.0222984 17.465 0.011917 16.8606 0.011917 16.2599C0.011917 11.926 0.00811527 7.59391 0.011917 3.25997C0.0157187 1.46557 0.623991 0.845888 2.38798 0.842086C5.93117 0.836383 9.47436 0.847788 13.0156 0.832582C13.8254 0.82878 14.5249 0.997956 14.9678 1.74119C15.3613 2.40078 15.2453 2.62128 14.4698 2.62508C11.244 2.63269 8.0183 2.62889 4.79256 2.62889C4.31735 2.62889 3.84023 2.60988 3.40494 2.85319C2.45641 3.21055 1.94508 3.89105 1.88616 4.9042C1.78731 9.65633 1.81773 14.4085 1.87095 19.1606C1.86335 19.3507 1.85574 19.537 1.85004 19.7251Z" fill="#1164E9"/>
<path d="M4.39453 23.0104C5.10925 22.3451 5.13396 21.7273 5.12826 21.0848C5.11495 19.5337 5.14917 19.5109 6.73448 19.5109C10.2473 19.5109 13.76 19.5014 17.2728 19.5242C17.8031 19.528 18.516 19.2391 18.8087 19.9177C19.1166 20.6343 19.0387 21.4232 18.6661 22.1189C18.3848 22.6435 17.902 23.0009 17.2861 23.0028C13.0795 23.018 8.87484 23.0104 4.39453 23.0104Z" fill="#1164E9"/>
<path d="M10.1476 16.2694C11.5979 16.2694 13.0502 16.2637 14.5005 16.2751C14.759 16.277 15.1468 16.1877 15.1544 16.6097C15.162 17.0203 14.7857 16.9785 14.5176 16.9785C11.5846 16.988 8.6497 16.988 5.71669 16.9842C5.44487 16.9842 5.0761 17.0298 5.0647 16.6268C5.05329 16.1972 5.44297 16.2751 5.70148 16.2732C7.18415 16.2618 8.66681 16.2675 10.1495 16.2675C10.1476 16.2675 10.1476 16.2694 10.1476 16.2694Z" fill="#1164E9"/>
<path d="M10.1484 11.5915C8.72847 11.5915 7.30854 11.5991 5.8886 11.5858C5.59777 11.5839 5.14157 11.7132 5.11115 11.2874C5.07694 10.8217 5.54455 10.9319 5.82967 10.93C8.70186 10.9205 11.574 10.9224 14.4462 10.9281C14.72 10.9281 15.121 10.8692 15.1343 11.2398C15.1495 11.7227 14.6895 11.582 14.412 11.5839C12.9902 11.5991 11.5683 11.5896 10.1484 11.5915Z" fill="#1164E9"/>
<path d="M10.0472 13.6064C11.5299 13.6064 13.0144 13.6026 14.4971 13.6121C14.7632 13.614 15.1453 13.5513 15.132 13.9694C15.1206 14.3097 14.7746 14.2698 14.537 14.2698C11.6021 14.2774 8.66719 14.2774 5.73228 14.2717C5.46806 14.2717 5.06888 14.3287 5.0993 13.9162C5.12781 13.5341 5.51748 13.6102 5.7855 13.6102C7.20734 13.6007 8.62728 13.6045 10.0472 13.6064Z" fill="#1164E9"/>
<path d="M10.7706 8.74419C10.4665 8.62634 10.2289 8.86394 9.95135 8.89436C8.95151 9.00461 8.35084 8.28608 8.75762 7.37748C8.90208 7.05243 8.85646 6.78821 8.83936 6.47837C8.80894 5.90432 9.14349 5.59828 9.69854 5.56216C9.98177 5.54506 10.36 5.59068 10.3828 5.91762C10.4133 6.35292 10.0331 6.0963 9.8278 6.12482C9.40581 6.17994 9.32978 6.49928 9.56548 6.71408C9.93045 7.04483 10.1148 7.62269 10.8162 7.56566C11.5937 7.50293 11.0462 8.23286 11.2591 8.56741C11.4454 8.86774 11.0101 8.83543 10.7706 8.74419ZM10.0407 8.17964C10.0293 7.89261 9.78978 7.77095 9.6016 7.62459C9.44573 7.50293 9.29366 7.58467 9.22903 7.74814C9.11118 8.04658 9.26705 8.22906 9.54267 8.31079C9.71755 8.36022 9.90954 8.39063 10.0407 8.17964Z" fill="#1164E9"/>
<path d="M12.96 7.25399C12.9771 8.03143 13.5245 8.4059 14.4236 8.24623C14.6574 8.20441 14.9692 7.97821 15.0775 8.30136C15.2049 8.67963 14.7962 8.74425 14.5472 8.81459C13.8249 9.01988 13.1405 8.91723 12.6824 8.27474C12.1977 7.59614 12.1749 6.8434 12.6843 6.1629C13.1558 5.53372 13.8306 5.43487 14.5567 5.63826C14.7886 5.70289 15.1307 5.76752 15.0756 6.07546C15.0053 6.46133 14.684 6.24083 14.4597 6.20852C13.4751 6.07546 12.941 6.44422 12.96 7.25399Z" fill="#1164E9"/>
<path d="M6.38934 5.58276C6.57943 5.58276 6.77141 5.56566 6.9577 5.58656C7.22382 5.61698 7.6306 5.46491 7.70093 5.81277C7.78647 6.24426 7.34357 6.14922 7.09646 6.19674C6.75051 6.26517 6.74861 6.51228 6.7448 6.76889C6.7372 7.24411 6.74861 7.71932 6.7315 8.19263C6.72389 8.43214 6.77712 8.7895 6.44257 8.7952C6.03579 8.8028 6.10802 8.42073 6.09661 8.14891C6.08711 7.8961 6.10422 7.64138 6.09471 7.38857C6.0738 6.82972 6.31901 6.1112 5.33057 6.12831C5.21082 6.13021 5.10437 6.02186 5.11387 5.86979C5.12718 5.6664 5.27925 5.61318 5.44272 5.60747C5.75826 5.59607 6.0757 5.60367 6.39124 5.60367C6.38934 5.59797 6.38934 5.59037 6.38934 5.58276Z" fill="#1164E9"/>
<path d="M10.0406 8.17928C9.90948 8.39027 9.71749 8.35986 9.54261 8.30854C9.26889 8.2268 9.11112 8.04622 9.22897 7.74588C9.2936 7.58241 9.44567 7.50067 9.60154 7.62233C9.78972 7.7706 10.0292 7.89225 10.0406 8.17928Z" fill="#7CAAF3"/>
</svg>
